<svg width="184" height="159" viewBox="0 0 184 159" fill="none" xmlns="http://www.w3.org/2000/svg">
    <g clip-path="url(#clip0_6416_9215)">
        <path d="M94.293 58.9735C110.629 58.9735 123.871 45.7718 123.871 29.4868C123.871 13.2017 110.629 0 94.293 0C77.9574 0 64.7148 13.2017 64.7148 29.4868C64.7148 45.7718 77.9574 58.9735 94.293 58.9735Z" fill="#71A5D2"/>
        <path d="M178.118 87.6721L183.868 108.044C183.999 108.495 184.038 108.967 183.983 109.432C183.929 109.898 183.783 110.348 183.552 110.757C183.322 111.165 183.013 111.524 182.642 111.813C182.272 112.101 181.847 112.314 181.394 112.437L165.882 116.79C165.431 116.92 164.958 116.959 164.491 116.905C164.024 116.851 163.573 116.706 163.163 116.477C162.753 116.248 162.393 115.94 162.103 115.571C161.813 115.202 161.6 114.78 161.476 114.328L150.741 76.3132C150.61 75.8631 150.571 75.3917 150.625 74.9263C150.679 74.461 150.825 74.011 151.055 73.6023C151.284 73.1937 151.593 72.8345 151.963 72.5457C152.333 72.257 152.757 72.0445 153.21 71.9203L168.722 67.5677C169.174 67.4371 169.647 67.3974 170.114 67.4507C170.582 67.5041 171.034 67.6495 171.444 67.8786C171.855 68.1077 172.215 68.4157 172.505 68.785C172.795 69.1543 173.009 69.5774 173.133 70.0296L173.742 72.1983L178.118 87.6721Z" fill="#EAB669"/>
        <path d="M4.47348 90.1182L0.979608 96.1541C0.515146 96.9642 0.39043 97.9244 0.632598 98.8257C0.874766 99.727 1.46424 100.496 2.27269 100.967L16.0653 108.903C16.8779 109.366 17.8411 109.491 18.7452 109.249C19.6493 109.008 20.4211 108.42 20.8928 107.614L40.4713 73.8052C40.9357 72.9951 41.0605 72.0349 40.8183 71.1336C40.5761 70.2323 39.9866 69.4629 39.1782 68.9927L25.3856 61.0561C24.5734 60.5947 23.6115 60.4712 22.7086 60.7125C21.8058 60.9539 21.0348 61.5406 20.5632 62.3452L12.8556 75.6503L4.47348 90.1182Z" fill="#CE7783"/>
        <path d="M39.068 122.885C38.9478 122.886 38.831 122.845 38.7385 122.769L36.9738 121.283C33.0794 117.982 30.9395 116.162 23.8454 112.552C23.786 112.522 23.7332 112.48 23.6901 112.429C23.647 112.378 23.6145 112.32 23.5942 112.256C23.5739 112.193 23.5665 112.126 23.5722 112.06C23.5778 111.993 23.5966 111.929 23.6274 111.87C23.6891 111.752 23.795 111.663 23.9223 111.622C24.0495 111.581 24.1876 111.592 24.3068 111.652C31.5023 115.317 33.6828 117.163 37.6329 120.509L39.3925 121.995C39.471 122.062 39.5272 122.151 39.5534 122.251C39.5797 122.35 39.5749 122.456 39.5396 122.552C39.5043 122.649 39.4402 122.733 39.356 122.792C39.2717 122.852 39.1713 122.884 39.068 122.885Z" fill="#E3E3E3"/>
        <path d="M64.2209 139.745C64.1398 139.745 64.0597 139.726 63.9876 139.689L63.6225 139.492C63.5645 139.459 63.5137 139.415 63.4729 139.362C63.4321 139.309 63.4022 139.249 63.3848 139.184C63.3674 139.12 63.3628 139.053 63.3714 138.987C63.38 138.921 63.4016 138.857 63.4349 138.799C63.4682 138.742 63.5126 138.691 63.5655 138.65C63.6185 138.61 63.6789 138.58 63.7434 138.562C63.8079 138.545 63.8752 138.541 63.9415 138.549C64.0078 138.558 64.0716 138.579 64.1296 138.612L64.4643 138.789C64.5658 138.841 64.6466 138.925 64.6941 139.029C64.7415 139.132 64.7527 139.248 64.7258 139.359C64.6988 139.469 64.6353 139.567 64.5455 139.637C64.4558 139.707 64.3449 139.745 64.231 139.745H64.2209Z" fill="#E3E3E3"/>
        <path d="M93.2458 157.529H93.0683C91.2172 157.528 89.3958 157.066 87.7693 156.185C87.7102 156.154 87.6578 156.111 87.6153 156.059C87.5728 156.008 87.5409 155.948 87.5216 155.884C87.5023 155.82 87.4958 155.753 87.5026 155.687C87.5095 155.62 87.5294 155.556 87.5613 155.497C87.5932 155.439 87.6364 155.387 87.6883 155.345C87.7403 155.303 87.7999 155.272 87.864 155.253C87.9281 155.235 87.9953 155.229 88.0617 155.236C88.1281 155.243 88.1924 155.263 88.251 155.295C89.7301 156.095 91.3856 156.515 93.0683 156.518H93.2458C94.326 156.518 95.3899 156.257 96.347 155.758C97.3041 155.259 98.126 154.536 98.7425 153.652L101.202 150.114H104.118C105.374 150.109 106.604 149.753 107.668 149.087C108.732 148.42 109.588 147.469 110.137 146.342L111.526 143.456H115.01C116.475 143.454 117.899 142.972 119.063 142.086C120.227 141.199 121.067 139.956 121.455 138.547L122.322 135.383L124.056 135.095C125.618 134.839 127.037 134.037 128.059 132.833C129.081 131.628 129.639 130.101 129.634 128.523V126.435L108.808 106.927C108.761 106.88 108.723 106.824 108.697 106.763C108.671 106.701 108.658 106.635 108.658 106.569C108.658 106.502 108.671 106.436 108.697 106.374C108.723 106.312 108.761 106.256 108.808 106.209C108.903 106.115 109.032 106.062 109.166 106.062C109.3 106.062 109.428 106.115 109.523 106.209L130.668 126.021V128.548C130.678 130.368 130.036 132.132 128.857 133.522C127.678 134.912 126.04 135.837 124.239 136.131L123.148 136.313L122.454 138.841C122.008 140.464 121.041 141.896 119.7 142.918C118.359 143.94 116.718 144.495 115.03 144.497H112.185L111.07 146.808C110.438 148.106 109.453 149.202 108.228 149.97C107.003 150.739 105.586 151.149 104.138 151.155H101.75L99.5945 154.259C98.8801 155.275 97.9293 156.103 96.8236 156.673C95.718 157.242 94.4904 157.536 93.2458 157.529Z" fill="#E3E3E3"/>
        <path d="M76.0309 145.857C75.9401 145.856 75.8511 145.831 75.7723 145.786L75.6404 145.721C75.5333 145.675 75.4452 145.594 75.3908 145.492C75.3364 145.389 75.3191 145.271 75.3417 145.157C75.3643 145.044 75.4255 144.941 75.515 144.867C75.6045 144.793 75.7168 144.751 75.8332 144.75H75.9447L76.0512 144.796C76.132 144.83 76.21 144.87 76.2844 144.917C76.3796 144.973 76.4538 145.059 76.4955 145.161C76.5372 145.263 76.5442 145.376 76.5154 145.483C76.4867 145.589 76.4238 145.684 76.3363 145.751C76.2488 145.819 76.1415 145.856 76.0309 145.857Z" fill="#E3E3E3"/>
        <path d="M52.4382 133.011C52.345 133.011 52.2538 132.985 52.1745 132.936L51.7434 132.668C51.6841 132.634 51.6323 132.588 51.5911 132.534C51.5498 132.48 51.52 132.418 51.5034 132.352C51.4868 132.285 51.4839 132.217 51.4946 132.149C51.5054 132.082 51.5296 132.018 51.5659 131.96C51.6352 131.85 51.7445 131.77 51.8711 131.738C51.9977 131.706 52.1318 131.724 52.2455 131.788L52.7018 132.076C52.7953 132.134 52.8674 132.221 52.9073 132.323C52.9472 132.425 52.9526 132.537 52.9229 132.643C52.8931 132.748 52.8297 132.841 52.7423 132.908C52.6548 132.974 52.5482 133.011 52.4382 133.011Z" fill="#E3E3E3"/>
        <path d="M95.2095 82.5906C95.1578 82.5899 95.1065 82.5815 95.0574 82.5654C88.4653 80.513 80.3064 79.9974 77.9535 79.8912C75.7325 79.785 73.339 80.9022 71.0927 82.166C70.975 82.2331 70.8354 82.2507 70.7047 82.2151C70.5739 82.1796 70.4627 82.0938 70.3954 81.9764C70.3282 81.8591 70.3105 81.72 70.3461 81.5897C70.3818 81.4593 70.4679 81.3484 70.5856 81.2814C72.9638 79.967 75.5195 78.7538 77.989 78.8802C80.3723 78.9914 88.6378 79.512 95.3515 81.5998C95.486 81.6199 95.6069 81.6924 95.6878 81.8014C95.7686 81.9105 95.8028 82.0471 95.7826 82.1812C95.7624 82.3153 95.6895 82.4358 95.5802 82.5164C95.4708 82.597 95.3339 82.6309 95.1994 82.6108L95.2095 82.5906Z" fill="#E3E3E3"/>
        <path d="M56.533 88.108C53.6021 88.108 50.8335 86.8492 46.2241 84.1497C46.1595 84.1206 46.1016 84.0782 46.0544 84.0255C46.0072 83.9727 45.9716 83.9105 45.9499 83.8432C45.9283 83.7758 45.9211 83.7047 45.9288 83.6343C45.9364 83.564 45.9588 83.4962 45.9945 83.435C46.0302 83.3739 46.0784 83.3208 46.1359 83.2794C46.1934 83.238 46.259 83.2091 46.3284 83.1945C46.3978 83.1799 46.4695 83.1799 46.5388 83.1947C46.6082 83.2095 46.6738 83.2387 46.7312 83.2803C52.4815 86.6419 55.2096 87.6782 59.0634 86.7835C60.1149 86.5291 61.1442 86.191 62.1414 85.7724C62.2638 85.7315 62.3972 85.7387 62.5145 85.7924C62.6319 85.8462 62.7242 85.9424 62.7727 86.0617C62.8212 86.181 62.8223 86.3143 62.7756 86.4343C62.729 86.5543 62.6382 86.6521 62.5217 86.7077C61.4766 87.1408 60.398 87.4891 59.2966 87.7491C58.3924 87.9748 57.4651 88.0953 56.533 88.108Z" fill="#E3E3E3"/>
        <path d="M130.142 85.4886C130.008 85.4953 129.876 85.4485 129.776 85.3585C129.677 85.2684 129.617 85.1424 129.61 85.0083C129.603 84.8743 129.65 84.7431 129.741 84.6435C129.831 84.544 129.957 84.4842 130.092 84.4775C132.12 84.2753 133.915 83.8457 138.864 82.3898C138.989 82.3636 139.119 82.385 139.228 82.4499C139.337 82.5147 139.418 82.6183 139.455 82.7399C139.491 82.8615 139.48 82.9922 139.424 83.1062C139.369 83.2202 139.272 83.3091 139.153 83.3553C134.133 84.8365 132.292 85.2712 130.193 85.4835L130.142 85.4886Z" fill="#E3E3E3"/>
        <path d="M76.4731 107.438H76.3666C72.8627 106.715 70.2259 105.178 69.6732 104.349C69.0241 103.378 69.8405 101.164 87.1625 86.0037L88.5062 84.826C90.7931 82.7685 100.818 79.4017 104.794 78.8406C106.655 78.5727 109.129 79.6292 112.263 80.9688C114.365 81.9009 116.512 82.726 118.698 83.4409C118.826 83.4811 118.933 83.5705 118.996 83.6894C119.058 83.8084 119.07 83.9472 119.03 84.0752C118.99 84.2033 118.9 84.3101 118.781 84.3722C118.661 84.4343 118.522 84.4466 118.394 84.4064C116.176 83.6752 113.998 82.8315 111.868 81.8788C108.997 80.6504 106.513 79.5938 104.936 79.8213C100.808 80.4026 91.1836 83.7593 89.1857 85.5539L87.8317 86.7468C72.9387 99.7791 70.591 103.04 70.5453 103.808C70.951 104.314 73.1771 105.729 76.5745 106.427C76.709 106.44 76.8326 106.506 76.9182 106.61C77.0038 106.715 77.0444 106.849 77.031 106.983C77.0175 107.117 76.9511 107.24 76.8465 107.325C76.7419 107.411 76.6076 107.451 76.4731 107.438Z" fill="#E3E3E3"/>
        <path d="M114.28 108.009C105.619 108.009 99.8945 100.264 98.3732 97.9441C95.422 101.801 92.0499 104.571 88.3482 106.189C88.2245 106.243 88.0845 106.245 87.959 106.196C87.8334 106.146 87.7327 106.05 87.6789 105.926C87.6251 105.803 87.6227 105.663 87.6721 105.538C87.7216 105.413 87.8188 105.313 87.9425 105.259C91.6645 103.636 95.0417 100.775 98.0031 96.751L98.4695 96.1191L98.8549 96.8016C98.9208 96.9179 105.599 108.479 116.38 106.836C116.514 106.816 116.651 106.85 116.761 106.931C116.87 107.011 116.943 107.132 116.963 107.266C116.983 107.4 116.949 107.536 116.868 107.645C116.787 107.754 116.666 107.827 116.532 107.847C115.787 107.957 115.034 108.011 114.28 108.009Z" fill="#E3E3E3"/>
        <path d="M134.076 128.27C133.976 128.27 133.877 128.241 133.793 128.186C133.709 128.13 133.644 128.051 133.605 127.958C133.567 127.865 133.557 127.763 133.576 127.665C133.596 127.566 133.645 127.476 133.716 127.405L133.798 127.33C134.547 126.501 135.467 125.844 136.495 125.404C138.564 124.519 144.7 122.982 153.28 120.945C153.41 120.915 153.547 120.937 153.661 121.007C153.775 121.077 153.857 121.189 153.888 121.319C153.919 121.449 153.896 121.586 153.826 121.699C153.756 121.813 153.643 121.894 153.513 121.926C146.135 123.68 139.015 125.429 136.896 126.334C135.988 126.726 135.175 127.309 134.512 128.042L134.436 128.123C134.389 128.17 134.333 128.207 134.271 128.232C134.209 128.257 134.143 128.27 134.076 128.27Z" fill="#E3E3E3"/>
        <path d="M122.734 136.333C122.607 136.334 122.483 136.287 122.389 136.201L104.225 119.575C104.176 119.53 104.137 119.476 104.109 119.415C104.081 119.355 104.065 119.289 104.063 119.223C104.06 119.157 104.071 119.09 104.094 119.028C104.117 118.966 104.152 118.908 104.198 118.86C104.243 118.811 104.297 118.771 104.358 118.744C104.418 118.716 104.484 118.7 104.551 118.698C104.617 118.695 104.684 118.706 104.746 118.729C104.809 118.752 104.866 118.787 104.915 118.832L123.074 135.453C123.123 135.498 123.163 135.553 123.192 135.613C123.22 135.674 123.236 135.739 123.239 135.806C123.242 135.873 123.231 135.939 123.208 136.002C123.185 136.065 123.15 136.122 123.104 136.171C123.057 136.222 123 136.263 122.936 136.29C122.872 136.318 122.803 136.333 122.734 136.333Z" fill="#E3E3E3"/>
        <path d="M111.848 144.466C111.715 144.466 111.588 144.413 111.493 144.32L99.0446 132.152C98.997 132.105 98.9593 132.049 98.9335 131.987C98.9078 131.926 98.8945 131.86 98.8945 131.793C98.8945 131.726 98.9078 131.66 98.9335 131.599C98.9593 131.537 98.997 131.481 99.0446 131.434C99.1396 131.34 99.2681 131.287 99.4021 131.287C99.5361 131.287 99.6645 131.34 99.7595 131.434L112.208 143.607C112.303 143.702 112.356 143.83 112.356 143.963C112.356 144.097 112.303 144.225 112.208 144.32C112.161 144.367 112.105 144.404 112.043 144.429C111.981 144.454 111.915 144.467 111.848 144.466Z" fill="#E3E3E3"/>
        <path d="M101.464 151.13C101.335 151.128 101.212 151.077 101.119 150.988L86.2619 137.076C86.2133 137.031 86.1741 136.976 86.1466 136.916C86.1192 136.855 86.1039 136.79 86.1018 136.723C86.0997 136.657 86.1107 136.591 86.1343 136.528C86.1578 136.466 86.1934 136.409 86.239 136.361C86.2846 136.312 86.3394 136.273 86.4002 136.246C86.4609 136.219 86.5264 136.204 86.5931 136.201C86.6597 136.199 86.726 136.21 86.7884 136.234C86.8508 136.257 86.9079 136.293 86.9565 136.338L101.814 150.255C101.909 150.35 101.962 150.478 101.962 150.611C101.962 150.745 101.909 150.873 101.814 150.968C101.723 151.066 101.598 151.124 101.464 151.13Z" fill="#E3E3E3"/>
        <path d="M48.7001 133.594C47.3626 133.594 46.0532 133.21 44.928 132.489C43.8027 131.769 42.909 130.74 42.3533 129.527C41.7976 128.315 41.6034 126.968 41.7936 125.648C41.9839 124.328 42.5507 123.091 43.4265 122.083L44.7804 120.526C45.9908 119.13 47.7077 118.271 49.5535 118.137C51.3993 118.004 53.2228 118.607 54.6228 119.813C56.0228 121.02 56.8848 122.731 57.0188 124.572C57.1529 126.412 56.5483 128.23 55.3379 129.625L53.9839 131.187C53.3291 131.944 52.5179 132.551 51.606 132.966C50.694 133.382 49.7028 133.596 48.7001 133.594ZM50.0642 119.131C49.2074 119.129 48.3604 119.312 47.5807 119.666C46.8011 120.02 46.1071 120.538 45.5461 121.183L44.1922 122.745C43.6536 123.332 43.2383 124.021 42.9712 124.77C42.7041 125.52 42.5905 126.315 42.6371 127.109C42.6836 127.903 42.8895 128.68 43.2424 129.393C43.5954 130.107 44.0882 130.742 44.6918 131.263C45.2954 131.783 45.9975 132.177 46.7566 132.422C47.5157 132.667 48.3163 132.758 49.1113 132.69C49.9062 132.621 50.6793 132.394 51.3847 132.022C52.0901 131.65 52.7135 131.141 53.2182 130.525L54.5722 128.963C55.3213 128.102 55.8062 127.045 55.969 125.917C56.1319 124.789 55.9659 123.638 55.4907 122.601C55.0155 121.565 54.2511 120.687 53.2889 120.071C52.3267 119.456 51.2073 119.129 50.0642 119.131Z" fill="#E3E3E3"/>
        <path d="M56.9548 144.113C55.6177 144.113 54.3088 143.731 53.1837 143.01C52.0587 142.29 51.165 141.263 50.6088 140.051C50.0527 138.838 49.8576 137.493 50.0468 136.173C50.236 134.854 50.8016 133.616 51.6761 132.608L57.6697 125.697C58.8831 124.304 60.6009 123.448 62.4468 123.315C64.2926 123.182 66.1161 123.784 67.5174 124.99C68.9163 126.197 69.7773 127.908 69.9114 129.748C70.0454 131.588 69.4415 133.405 68.2323 134.802L62.2385 141.712C61.5826 142.467 60.7712 143.073 59.8594 143.487C58.9476 143.901 57.9569 144.115 56.9548 144.113ZM62.9536 124.307C62.0969 124.306 61.25 124.489 60.4704 124.843C59.6909 125.197 58.9968 125.714 58.4354 126.36L52.4468 133.27C51.9342 133.86 51.5435 134.546 51.2967 135.287C51.0499 136.028 50.9519 136.81 51.0084 137.589C51.065 138.368 51.2748 139.128 51.626 139.826C51.9772 140.524 52.4629 141.146 53.0553 141.656C54.2535 142.686 55.8121 143.2 57.3898 143.087C58.9675 142.973 60.4357 142.241 61.4728 141.05L67.4615 134.139C68.2107 133.279 68.6956 132.221 68.8585 131.093C69.0213 129.965 68.8552 128.814 68.38 127.778C67.9048 126.741 67.1405 125.863 66.1783 125.248C65.2162 124.632 64.0968 124.306 62.9536 124.307Z" fill="#E3E3E3"/>
        <path d="M67.0361 152.808C65.6985 152.808 64.3892 152.425 63.2639 151.704C62.1387 150.983 61.245 149.955 60.6893 148.742C60.1336 147.529 59.9393 146.183 60.1296 144.863C60.3198 143.543 60.8866 142.305 61.7625 141.298L70.2206 131.551C70.8199 130.86 71.5499 130.294 72.3689 129.884C73.1878 129.474 74.0798 129.229 74.9938 129.163C75.9077 129.097 76.8258 129.21 77.6956 129.498C78.5654 129.786 79.3699 130.241 80.0631 130.839C80.7563 131.436 81.3247 132.164 81.7358 132.98C82.1469 133.797 82.3926 134.686 82.459 135.597C82.5254 136.508 82.4111 137.423 82.1227 138.29C81.8342 139.157 81.3774 139.96 80.7781 140.651L72.32 150.397C71.6659 151.155 70.855 151.763 69.9429 152.179C69.0308 152.596 68.0392 152.81 67.0361 152.808ZM75.5045 130.156C74.6472 130.154 73.7996 130.337 73.0198 130.693C72.24 131.048 71.5464 131.567 70.9863 132.214L62.5282 141.96C61.9895 142.547 61.5744 143.235 61.3073 143.985C61.0402 144.734 60.9266 145.53 60.9731 146.324C61.0197 147.118 61.2255 147.895 61.5784 148.608C61.9313 149.322 62.4241 149.957 63.0277 150.477C63.6313 150.998 64.3334 151.392 65.0926 151.637C65.8517 151.882 66.6524 151.973 67.4473 151.904C68.2423 151.835 69.0153 151.608 69.7207 151.237C70.4261 150.865 71.0496 150.356 71.5543 149.74L80.0124 139.993C80.7609 139.132 81.2453 138.074 81.4078 136.946C81.5704 135.818 81.4043 134.667 80.9292 133.631C80.4542 132.594 79.6902 131.715 78.7284 131.099C77.7667 130.483 76.6476 130.156 75.5045 130.156Z" fill="#E3E3E3"/>
        <path d="M78.4848 159C77.1482 158.999 75.8399 158.616 74.7156 157.895C73.5913 157.174 72.6983 156.147 72.1428 154.935C71.5873 153.723 71.3927 152.378 71.5821 151.059C71.7715 149.74 72.337 148.502 73.2112 147.495L75.2395 145.124C75.8389 144.433 76.5688 143.866 77.3878 143.456C78.2068 143.046 79.0987 142.801 80.0126 142.735C80.9266 142.669 81.8448 142.783 82.7145 143.07C83.5843 143.358 84.3888 143.813 85.082 144.411C85.7752 145.008 86.3435 145.736 86.7546 146.552C87.1657 147.369 87.4115 148.258 87.4779 149.169C87.5442 150.08 87.43 150.996 87.1416 151.863C86.8532 152.73 86.3962 153.532 85.7969 154.223L83.7433 156.589C83.0918 157.343 82.2849 157.949 81.3775 158.365C80.4702 158.782 79.4836 158.998 78.4848 159ZM80.5538 143.728C80.4084 143.728 80.2613 143.728 80.1125 143.728C78.5452 143.841 77.0864 144.568 76.0559 145.751L74.0022 148.116C73.4635 148.703 73.0484 149.392 72.7813 150.141C72.5141 150.891 72.4005 151.686 72.4471 152.48C72.4937 153.274 72.6995 154.051 73.0524 154.765C73.4053 155.478 73.8982 156.114 74.5018 156.634C75.1054 157.154 75.8074 157.549 76.5665 157.794C77.3257 158.039 78.1264 158.129 78.9213 158.061C79.7163 157.992 80.4892 157.765 81.1947 157.393C81.9001 157.021 82.5236 156.512 83.0283 155.896L85.0566 153.53C85.8048 152.669 86.2891 151.612 86.4518 150.484C86.6145 149.357 86.4488 148.206 85.9744 147.17C85.5 146.134 84.7369 145.255 83.7759 144.638C82.8149 144.022 81.6965 143.694 80.5538 143.693V143.728Z" fill="#E3E3E3"/>
        <path d="M160.319 123.861C159.376 123.859 158.458 123.55 157.706 122.982C156.954 122.414 156.408 121.617 156.151 120.711L144.666 80.0225C144.355 78.9211 144.496 77.7417 145.057 76.7436C145.617 75.7456 146.553 75.0103 147.657 74.6994L164.259 70.0385C165.365 69.7304 166.548 69.8719 167.549 70.432C168.549 70.992 169.287 71.9249 169.599 73.0261L170.258 75.3464C170.295 75.4758 170.279 75.6144 170.213 75.732C170.148 75.8495 170.038 75.9364 169.908 75.9733C169.778 76.0101 169.639 75.994 169.521 75.9286C169.403 75.8632 169.316 75.7538 169.279 75.6244L168.625 73.2991C168.507 72.8811 168.308 72.4905 168.038 72.1496C167.768 71.8087 167.433 71.5242 167.053 71.3124C166.672 71.0955 166.252 70.9573 165.816 70.906C165.38 70.8548 164.939 70.8915 164.518 71.0141L147.916 75.6699C147.497 75.7877 147.105 75.9867 146.763 76.2555C146.421 76.5243 146.135 76.8576 145.922 77.2364C145.71 77.6153 145.574 78.0321 145.522 78.4633C145.471 78.8945 145.506 79.3316 145.624 79.7495L157.109 120.438C157.349 121.282 157.915 121.996 158.682 122.424C159.449 122.852 160.355 122.96 161.202 122.723L177.803 118.068C178.223 117.95 178.614 117.751 178.957 117.482C179.299 117.213 179.584 116.88 179.797 116.501C180.01 116.122 180.146 115.705 180.197 115.274C180.248 114.843 180.214 114.406 180.095 113.988L173.95 92.1901C173.932 92.1261 173.927 92.0592 173.934 91.9932C173.942 91.9271 173.963 91.8633 173.996 91.8053C174.029 91.7474 174.073 91.6963 174.125 91.6553C174.178 91.6142 174.238 91.5838 174.302 91.5659C174.366 91.548 174.434 91.5428 174.5 91.5507C174.566 91.5587 174.63 91.5796 174.688 91.6122C174.746 91.6448 174.797 91.6886 174.839 91.7409C174.88 91.7932 174.91 91.8532 174.928 91.9173L181.084 113.715C181.393 114.817 181.251 115.996 180.69 116.994C180.128 117.992 179.192 118.727 178.087 119.038L161.485 123.699C161.106 123.804 160.714 123.859 160.319 123.861Z" fill="#E3E3E3"/>
        <path d="M19.2577 117.123C18.4989 117.122 17.7538 116.922 17.0976 116.542L2.164 107.948C1.17049 107.374 0.445655 106.431 0.148178 105.325C-0.1493 104.22 0.00487998 103.041 0.576895 102.049L4.36479 95.5175C4.43168 95.4019 4.54175 95.3173 4.67094 95.2823C4.80014 95.2472 4.93792 95.2646 5.05435 95.3305C5.11246 95.3635 5.16348 95.4076 5.2044 95.4604C5.24531 95.5131 5.27535 95.5735 5.29279 95.6378C5.31023 95.7022 5.31475 95.7693 5.30604 95.8354C5.29732 95.9015 5.27556 95.9653 5.24203 96.023L1.45414 102.554C1.01637 103.315 0.898613 104.217 1.12669 105.064C1.35476 105.911 1.91005 106.634 2.67109 107.074L17.6046 115.667C18.3663 116.104 19.2705 116.222 20.1191 115.996C20.9678 115.769 21.6919 115.217 22.133 114.459L43.334 77.8497C43.772 77.0905 43.8903 76.1892 43.6632 75.3431C43.4361 74.4971 42.882 73.7752 42.1221 73.3355L27.1886 64.7417C26.4265 64.3035 25.5212 64.1846 24.6712 64.4111C23.8213 64.6376 23.0962 65.191 22.6552 65.9499L14.3137 80.3571C14.2806 80.415 14.2362 80.4659 14.1833 80.5066C14.1304 80.5474 14.07 80.5774 14.0054 80.5948C13.9409 80.6122 13.8734 80.6165 13.8071 80.6078C13.7408 80.5992 13.6769 80.5776 13.619 80.5442C13.5614 80.5107 13.5109 80.4662 13.4705 80.4132C13.4301 80.3603 13.4005 80.3 13.3836 80.2356C13.3666 80.1713 13.3625 80.1042 13.3716 80.0383C13.3807 79.9724 13.4027 79.9089 13.4364 79.8515L21.7779 65.4443C22.0625 64.9533 22.4414 64.5231 22.8929 64.1781C23.3443 63.8331 23.8595 63.5801 24.409 63.4336C24.9586 63.2872 25.5316 63.25 26.0956 63.3244C26.6595 63.3988 27.2033 63.5832 27.6957 63.8671L42.6292 72.4608C43.6226 73.0338 44.3472 73.9765 44.6438 75.0817C44.9405 76.1869 44.7848 77.3643 44.2113 78.3552L23.0153 114.965C22.7322 115.458 22.3539 115.891 21.9022 116.238C21.4505 116.585 20.9343 116.84 20.3834 116.987C20.0155 117.079 19.6372 117.125 19.2577 117.123Z" fill="#E3E3E3"/>
        <path d="M100.488 49.2218C100.362 49.2215 100.241 49.1746 100.148 49.0903L85.0469 35.5527V20.8219C85.0469 20.6879 85.1003 20.5593 85.1954 20.4645C85.2905 20.3697 85.4195 20.3164 85.554 20.3164C85.6884 20.3164 85.8175 20.3697 85.9126 20.4645C86.0077 20.5593 86.061 20.6879 86.061 20.8219V35.1028L100.827 48.3422C100.903 48.4107 100.956 48.5006 100.98 48.5998C101.003 48.6989 100.996 48.8028 100.959 48.8979C100.923 48.9931 100.858 49.0749 100.774 49.1327C100.69 49.1905 100.59 49.2215 100.488 49.2218Z" fill="#E3E3E3"/>
        <path d="M119.863 40.7537L107.369 26.5184C107.323 26.4687 107.287 26.4102 107.264 26.3465C107.241 26.2828 107.231 26.2152 107.235 26.1476C107.239 26.08 107.256 26.0139 107.286 25.9531C107.316 25.8923 107.358 25.8381 107.409 25.7937C107.461 25.7494 107.52 25.7157 107.585 25.6948C107.649 25.6738 107.718 25.6661 107.785 25.6719C107.853 25.6778 107.919 25.697 107.979 25.7287C108.039 25.7604 108.092 25.8037 108.135 25.8562L119.752 39.0956L129.721 24.188C129.799 24.0847 129.914 24.0151 130.041 23.9935C130.169 23.9718 130.3 23.9999 130.408 24.0717C130.516 24.1435 130.592 24.2538 130.621 24.3798C130.649 24.5058 130.629 24.6379 130.563 24.7491L119.863 40.7537Z" fill="#E3E3E3"/>
        <path d="M87.0885 67.9248C80.5164 67.9248 74.0919 65.982 68.6274 62.342C63.1629 58.7021 58.9038 53.5284 56.3888 47.4753C53.8738 41.4223 53.2157 34.7616 54.4979 28.3357C55.78 21.9098 58.9448 16.0072 63.5919 11.3744C68.2391 6.74156 74.16 3.5866 80.6058 2.30841C87.0517 1.03022 93.733 1.68622 99.8048 4.19348C105.877 6.70075 111.066 10.9466 114.718 16.3942C118.369 21.8419 120.318 28.2465 120.318 34.7983V39.9142C120.318 40.0483 120.264 40.1768 120.169 40.2716C120.074 40.3664 119.945 40.4197 119.811 40.4197C119.676 40.4197 119.547 40.3664 119.452 40.2716C119.357 40.1768 119.303 40.0483 119.303 39.9142V34.7833C119.303 28.4314 117.414 22.2222 113.874 16.9409C110.334 11.6595 105.303 7.54319 99.4167 5.11245C93.5302 2.6817 87.0528 2.0457 80.8037 3.28489C74.5546 4.52407 68.8145 7.58273 64.3091 12.0742C59.8038 16.5656 56.7355 22.288 55.4925 28.5177C54.2495 34.7475 54.8874 41.2049 57.3257 47.0733C59.764 52.9416 63.8931 57.9574 69.1908 61.4863C74.4885 65.0152 80.717 66.8986 87.0885 66.8986C87.223 66.8986 87.352 66.9519 87.4471 67.0467C87.5422 67.1415 87.5956 67.27 87.5956 67.4041C87.5956 67.5382 87.5422 67.6668 87.4471 67.7617C87.352 67.8565 87.223 67.9096 87.0885 67.9096V67.9248Z" fill="#E3E3E3"/>
    </g>
    <defs>
        <clipPath id="clip0_6416_9215">
            <rect width="184" height="159" fill="white"/>
        </clipPath>
    </defs>
</svg>
