<svg width="200" height="143" viewBox="0 0 200 143" fill="none" xmlns="http://www.w3.org/2000/svg">
    <g clip-path="url(#clip0_6416_9192)">
        <path d="M43.9713 111.004C52.8136 111.004 59.9817 105.285 59.9817 98.2305C59.9817 91.1759 52.8136 85.457 43.9713 85.457C35.129 85.457 27.9609 91.1759 27.9609 98.2305C27.9609 105.285 35.129 111.004 43.9713 111.004Z" fill="#71A5D2"/>
        <path d="M41.6101 76.633C47.5152 76.633 52.3023 71.8498 52.3023 65.9493C52.3023 60.0489 47.5152 55.2656 41.6101 55.2656C35.705 55.2656 30.918 60.0489 30.918 65.9493C30.918 71.8498 35.705 76.633 41.6101 76.633Z" fill="#CE7783"/>
        <path d="M38.6263 80.9206C36.0131 80.9173 33.4662 80.0981 31.3417 78.5776C29.2173 77.057 27.6215 74.9111 26.7774 72.4399C25.9334 69.9687 25.8832 67.2958 26.6341 64.7947C27.3849 62.2937 28.8992 60.0896 30.9651 58.4906C33.0311 56.8917 35.5455 55.9777 38.1567 55.8766C40.768 55.7755 43.3456 56.4923 45.5292 57.9268C47.7128 59.3613 49.3931 61.4417 50.3354 63.8773C51.2776 66.3128 51.4346 68.9817 50.7844 71.5107C50.7759 71.5654 50.756 71.6177 50.726 71.6643C50.696 71.711 50.6566 71.7508 50.6103 71.7813C50.5641 71.8119 50.5119 71.8325 50.4572 71.8417C50.4026 71.8509 50.3465 71.8486 50.2928 71.835C50.239 71.8214 50.1887 71.7967 50.1451 71.7625C50.1014 71.7283 50.0654 71.6854 50.0393 71.6366C50.0132 71.5877 49.9976 71.5338 49.9936 71.4785C49.9895 71.4233 49.997 71.3679 50.0156 71.3157C50.2592 70.3554 50.3823 69.3686 50.3821 68.378C50.3807 65.7582 49.5025 63.214 47.8873 61.1504C46.272 59.0867 44.0125 57.6221 41.4682 56.9894C38.9239 56.3567 36.2409 56.5923 33.8461 57.6589C31.4513 58.7254 29.4822 60.5615 28.2521 62.8751C27.022 65.1887 26.6015 67.8469 27.0576 70.4268C27.5137 73.0067 28.8201 75.3602 30.769 77.1127C32.7179 78.8652 35.1973 79.9162 37.8129 80.0985C40.4284 80.2807 43.0299 79.5836 45.2033 78.1183C45.2467 78.089 45.2955 78.0686 45.3468 78.0581C45.3981 78.0477 45.451 78.0475 45.5025 78.0575C45.5539 78.0674 45.6028 78.0875 45.6465 78.1164C45.6902 78.1452 45.7278 78.1824 45.757 78.2258C45.7863 78.2692 45.8068 78.3179 45.8172 78.3692C45.8277 78.4205 45.8279 78.4733 45.8179 78.5247C45.8079 78.5761 45.7879 78.625 45.759 78.6686C45.7301 78.7123 45.6929 78.7499 45.6495 78.7791C43.5761 80.1801 41.1292 80.9261 38.6263 80.9206Z" fill="#E3E3E3"/>
        <path d="M60.427 104.763C60.336 104.765 60.2469 104.737 60.1744 104.682C60.1019 104.627 60.0505 104.548 60.0287 104.46C59.0303 100.329 56.8571 96.5755 53.7713 93.6514C50.6854 90.7273 46.8187 88.7579 42.6376 87.9806C38.4565 87.2034 34.1397 87.6516 30.2078 89.2712C26.276 90.8908 22.8971 93.6124 20.4788 97.108C20.4163 97.1886 20.3252 97.2422 20.2243 97.2577C20.1234 97.2731 20.0204 97.2492 19.9366 97.191C19.8528 97.1328 19.7946 97.0446 19.7739 96.9448C19.7532 96.8449 19.7717 96.7409 19.8255 96.6543C22.3306 93.0319 25.8314 90.2113 29.9053 88.5329C33.9792 86.8545 38.4521 86.39 42.7844 87.1955C47.1166 88.001 51.123 90.0421 54.32 93.0724C57.517 96.1027 59.7681 99.9926 60.8015 104.273C60.814 104.324 60.8162 104.377 60.8081 104.429C60.8 104.481 60.7818 104.53 60.7544 104.575C60.727 104.62 60.691 104.659 60.6485 104.69C60.606 104.72 60.5578 104.742 60.5067 104.755L60.427 104.763Z" fill="#E3E3E3"/>
        <path d="M38.9085 111.402C32.7154 111.4 26.6121 109.922 21.1053 107.091C15.5985 104.259 10.8471 100.156 7.24552 95.1219C3.64395 90.0877 1.29612 84.2677 0.396954 78.1451C-0.502214 72.0225 0.0732167 65.7739 2.07548 59.918C2.11258 59.8219 2.18554 59.7439 2.27902 59.7004C2.3725 59.6569 2.47922 59.6513 2.57674 59.6848C2.67425 59.7183 2.75496 59.7883 2.80189 59.88C2.84882 59.9718 2.85833 60.0781 2.8284 60.1767C-0.112401 68.7485 0.101449 78.0871 3.43156 86.5155C6.76167 94.9439 12.9899 101.91 20.9977 106.163C29.0056 110.415 38.2684 111.676 47.1229 109.719C55.9774 107.761 63.8435 102.714 69.3085 95.4824C74.7735 88.2512 77.4795 79.3101 76.9404 70.2647C76.4014 61.2192 72.6527 52.6621 66.3676 46.13C60.0824 39.5978 51.6725 35.5185 42.6481 34.6248C33.6237 33.731 24.576 36.0813 17.1298 41.2535C17.087 41.2865 17.038 41.3105 16.9857 41.3241C16.9334 41.3377 16.8788 41.3404 16.8254 41.3323C16.772 41.3241 16.7207 41.3052 16.6749 41.2766C16.629 41.248 16.5895 41.2103 16.5586 41.166C16.5277 41.1216 16.5062 41.0715 16.4954 41.0186C16.4846 40.9656 16.4846 40.9111 16.4956 40.8582C16.5065 40.8053 16.5281 40.7552 16.5591 40.7109C16.59 40.6666 16.6297 40.6291 16.6756 40.6006C21.6892 37.1162 27.4531 34.8598 33.5012 34.014C39.5493 33.1682 45.7117 33.7567 51.49 35.7318C57.2683 37.707 62.5002 41.0134 66.7625 45.3835C71.0248 49.7537 74.1979 55.0649 76.025 60.8876C77.8521 66.7103 78.282 72.881 77.2799 78.9005C76.2778 84.92 73.8718 90.6193 70.2565 95.5374C66.6413 100.456 61.9183 104.454 56.4697 107.21C51.021 109.966 44.9996 111.402 38.8925 111.402H38.9085Z" fill="#E3E3E3"/>
        <path d="M166.151 111.004C174.993 111.004 182.161 105.285 182.161 98.2305C182.161 91.1759 174.993 85.457 166.151 85.457C157.309 85.457 150.141 91.1759 150.141 98.2305C150.141 105.285 157.309 111.004 166.151 111.004Z" fill="#EAB669"/>
        <path d="M163.786 76.633C169.691 76.633 174.478 71.8498 174.478 65.9493C174.478 60.0489 169.691 55.2656 163.786 55.2656C157.881 55.2656 153.094 60.0489 153.094 65.9493C153.094 71.8498 157.881 76.633 163.786 76.633Z" fill="#CE7783"/>
        <path d="M160.806 80.9205C158.192 80.9139 155.646 80.0915 153.524 78.5682C151.401 77.0449 149.808 74.897 148.968 72.4247C148.127 69.9524 148.08 67.2794 148.834 64.7793C149.588 62.2792 151.105 60.077 153.173 58.4807C155.241 56.8844 157.757 55.9737 160.368 55.876C162.98 55.7783 165.556 56.4985 167.738 57.9358C169.92 59.3731 171.598 61.4557 172.537 63.8925C173.476 66.3292 173.629 68.9983 172.976 71.5265C172.95 71.6289 172.884 71.7169 172.793 71.771C172.703 71.8251 172.594 71.841 172.492 71.8151C172.389 71.7893 172.301 71.7238 172.247 71.6331C172.193 71.5424 172.177 71.4339 172.203 71.3315C172.889 68.6701 172.62 65.8526 171.442 63.3691C170.264 60.8856 168.252 58.8933 165.756 57.7392C163.26 56.5851 160.437 56.3421 157.78 57.0524C155.123 57.7628 152.8 59.3816 151.214 61.6271C149.628 63.8726 148.881 66.6026 149.101 69.3421C149.322 72.0815 150.497 74.6569 152.422 76.6201C154.346 78.5833 156.899 79.8099 159.636 80.0865C162.372 80.3632 165.119 79.6724 167.398 78.1342C167.486 78.0751 167.594 78.0532 167.698 78.0734C167.801 78.0935 167.893 78.154 167.952 78.2417C168.011 78.3293 168.033 78.4368 168.013 78.5406C167.993 78.6444 167.932 78.7358 167.845 78.7949C165.765 80.1928 163.312 80.9335 160.806 80.9205Z" fill="#E3E3E3"/>
        <path d="M182.602 104.763C182.511 104.765 182.422 104.737 182.349 104.682C182.277 104.627 182.226 104.548 182.204 104.46C181.206 100.329 179.034 96.5751 175.948 93.6507C172.863 90.7263 168.996 88.7566 164.815 87.9793C160.634 87.202 156.317 87.6503 152.386 89.2701C148.454 90.89 145.076 93.6121 142.658 97.108C142.598 97.1945 142.505 97.2535 142.402 97.2722C142.298 97.2908 142.191 97.2676 142.104 97.2075C142.018 97.1473 141.959 97.0552 141.94 96.9515C141.921 96.8477 141.944 96.7409 142.005 96.6543C144.51 93.0319 148.01 90.2113 152.084 88.5329C156.158 86.8545 160.631 86.39 164.963 87.1955C169.296 88.001 173.302 90.0421 176.499 93.0724C179.696 96.1027 181.947 99.9926 182.981 104.273C182.993 104.324 182.995 104.377 182.987 104.429C182.979 104.481 182.961 104.53 182.933 104.575C182.906 104.62 182.87 104.659 182.828 104.69C182.785 104.72 182.737 104.742 182.686 104.755L182.602 104.763Z" fill="#E3E3E3"/>
        <path d="M161.087 111.403C152.978 111.397 145.073 108.858 138.479 104.141C131.885 99.4234 126.932 92.7641 124.313 85.0949C121.695 77.4257 121.541 69.1303 123.875 61.3696C126.208 53.609 130.912 46.7716 137.327 41.8143C143.742 36.857 151.548 34.0278 159.652 33.7229C167.756 33.4179 175.752 35.6523 182.522 40.1134C189.292 44.5746 194.497 51.0392 197.408 58.6024C200.319 66.1657 200.791 74.4491 198.757 82.2934C198.747 82.3475 198.727 82.3991 198.696 82.4448C198.666 82.4905 198.626 82.5295 198.58 82.5592C198.534 82.5889 198.482 82.6088 198.428 82.6175C198.373 82.6262 198.318 82.6235 198.265 82.6097C198.211 82.5959 198.162 82.5714 198.118 82.5374C198.075 82.5035 198.039 82.4609 198.013 82.4125C197.987 82.3641 197.972 82.3109 197.967 82.2562C197.963 82.2014 197.97 82.1463 197.988 82.0944C200.332 73.0933 199.301 63.5465 195.089 55.2525C190.877 46.9585 183.775 40.4899 175.12 37.0654C166.466 33.6409 156.857 33.4969 148.104 36.6606C139.351 39.8243 132.058 46.0772 127.599 54.2414C123.14 62.4055 121.823 71.9172 123.896 80.9844C125.968 90.0516 131.288 98.0483 138.853 103.468C146.417 108.888 155.704 111.356 164.964 110.409C174.223 109.461 182.817 105.162 189.124 98.3229C189.159 98.2805 189.201 98.2456 189.249 98.2203C189.298 98.195 189.35 98.1799 189.405 98.1758C189.459 98.1717 189.514 98.1788 189.565 98.1967C189.617 98.2145 189.664 98.2428 189.704 98.2796C189.744 98.3164 189.776 98.3611 189.798 98.4108C189.821 98.4605 189.832 98.5142 189.833 98.5686C189.833 98.623 189.823 98.677 189.802 98.7272C189.781 98.7774 189.749 98.8227 189.71 98.8603C186.061 102.808 181.635 105.96 176.71 108.119C171.784 110.277 166.466 111.395 161.087 111.403Z" fill="#E3E3E3"/>
        <path d="M99.9986 142C89.458 142.027 79.0507 139.647 69.5713 135.042C60.0918 130.436 51.7911 123.727 45.3029 115.426C45.2379 115.343 45.2087 115.237 45.2218 115.132C45.2349 115.028 45.2891 114.932 45.3726 114.867C45.456 114.802 45.5619 114.773 45.6669 114.786C45.7718 114.799 45.8673 114.853 45.9323 114.937C54.4559 125.767 66.0382 133.79 79.1785 137.966C92.3187 142.142 106.411 142.279 119.63 138.358C119.732 138.328 119.841 138.34 119.934 138.39C120.027 138.44 120.096 138.526 120.126 138.627C120.156 138.728 120.145 138.837 120.094 138.93C120.044 139.023 119.959 139.092 119.857 139.123C113.412 141.036 106.723 142.005 99.9986 142Z" fill="#E3E3E3"/>
        <path d="M124.736 137.443C124.655 137.444 124.576 137.42 124.509 137.374C124.442 137.329 124.391 137.264 124.362 137.188C124.343 137.14 124.335 137.087 124.336 137.035C124.338 136.983 124.35 136.932 124.371 136.884C124.392 136.836 124.423 136.793 124.461 136.757C124.499 136.721 124.544 136.693 124.593 136.675C134.911 132.709 144.125 126.328 151.463 118.066C151.533 117.987 151.632 117.939 151.738 117.932C151.843 117.926 151.947 117.962 152.026 118.032C152.106 118.102 152.154 118.201 152.16 118.307C152.166 118.412 152.131 118.516 152.06 118.595C144.64 126.95 135.323 133.406 124.892 137.423C124.841 137.439 124.789 137.446 124.736 137.443Z" fill="#E3E3E3"/>
        <path d="M154.253 30.0771C154.192 30.0774 154.133 30.0639 154.078 30.0377C154.024 30.0115 153.976 29.9732 153.938 29.9258C147.519 21.7741 139.328 15.189 129.985 10.669C120.642 6.14911 110.392 3.81296 100.011 3.83755C96.0971 3.83838 92.1899 4.1686 88.3312 4.82471C88.2255 4.84266 88.1171 4.81786 88.0297 4.7559C87.9423 4.69395 87.8831 4.59986 87.8651 4.49429C87.8471 4.38872 87.8719 4.28037 87.9339 4.19303C87.9959 4.1057 88.0901 4.04655 88.1957 4.02861C92.0992 3.36478 96.0517 3.03056 100.011 3.02949C110.512 3.00456 120.881 5.36774 130.333 9.9401C139.784 14.5125 148.07 21.1741 154.564 29.4203C154.61 29.4789 154.639 29.5492 154.647 29.6233C154.655 29.6975 154.642 29.7725 154.61 29.8398C154.578 29.907 154.527 29.9638 154.464 30.0036C154.401 30.0435 154.328 30.0648 154.253 30.0651V30.0771Z" fill="#E3E3E3"/>
        <path d="M47.3828 28.1061C47.3066 28.1061 47.232 28.0842 47.1679 28.0432C47.1038 28.0022 47.0528 27.9436 47.0209 27.8745C46.9891 27.8054 46.9777 27.7286 46.9882 27.6532C46.9986 27.5778 47.0305 27.5071 47.08 27.4492C55.9529 17.0122 67.7243 9.43907 80.9053 5.68779C81.0068 5.65823 81.1158 5.67017 81.2084 5.72093C81.301 5.77169 81.3697 5.85709 81.3993 5.95844C81.4139 6.00888 81.4183 6.06176 81.4124 6.11393C81.4064 6.16609 81.3902 6.21654 81.3647 6.26242C81.3391 6.3083 81.3047 6.34863 81.2635 6.38117C81.2223 6.41372 81.175 6.4378 81.1244 6.45202C68.0969 10.1569 56.4606 17.6369 47.6855 27.9468C47.6501 27.9941 47.6045 28.0331 47.5521 28.0606C47.4998 28.0881 47.4419 28.1037 47.3828 28.1061Z" fill="#E3E3E3"/>
        <path d="M74.0291 20.0662C73.9624 20.0665 73.8967 20.05 73.8379 20.0184C73.7918 19.9934 73.7511 19.9595 73.7181 19.9187C73.6851 19.878 73.6605 19.8311 73.6456 19.7807C73.6308 19.7304 73.6261 19.6778 73.6318 19.6256C73.6374 19.5735 73.6533 19.5229 73.6786 19.477L80.8731 6.36915C80.8802 6.36006 80.884 6.34882 80.884 6.33728C80.884 6.32574 80.8802 6.3146 80.8731 6.3055L66.9701 0.768543C66.9214 0.749202 66.8771 0.720565 66.8395 0.684093C66.802 0.647621 66.772 0.60406 66.7513 0.556009C66.7306 0.507958 66.7195 0.456334 66.7188 0.404019C66.7181 0.351704 66.7276 0.299768 66.747 0.251154C66.7664 0.20254 66.7951 0.158152 66.8316 0.12064C66.8681 0.0831286 66.9116 0.0531966 66.9597 0.0324976C67.0078 0.0117986 67.0595 0.00077428 67.1119 3.93146e-05C67.1642 -0.00069565 67.2162 0.00888071 67.2649 0.0282217L81.1639 5.56508C81.1962 5.57571 81.227 5.59047 81.2555 5.60891C81.4511 5.71648 81.596 5.89707 81.6588 6.11114C81.7215 6.32521 81.6968 6.55532 81.5901 6.75127L74.4195 19.8592C74.3822 19.9283 74.3252 19.9848 74.2557 20.0217C74.1862 20.0585 74.1074 20.074 74.0291 20.0662Z" fill="#E3E3E3"/>
        <path d="M138.681 143.016C138.63 143.017 138.58 143.007 138.534 142.988L124.635 137.443L124.543 137.399C124.347 137.291 124.202 137.11 124.139 136.895C124.077 136.68 124.102 136.45 124.208 136.253L131.379 123.145C131.432 123.052 131.519 122.984 131.622 122.956C131.726 122.928 131.836 122.941 131.929 122.994C132.022 123.047 132.09 123.134 132.118 123.237C132.147 123.34 132.133 123.45 132.08 123.543L124.909 136.647C124.902 136.656 124.897 136.667 124.897 136.679C124.897 136.691 124.902 136.702 124.909 136.711L138.812 142.248C138.899 142.282 138.97 142.345 139.015 142.426C139.06 142.507 139.075 142.602 139.057 142.693C139.04 142.784 138.991 142.866 138.919 142.925C138.848 142.984 138.758 143.016 138.665 143.016H138.681Z" fill="#E3E3E3"/>
    </g>
    <defs>
        <clipPath id="clip0_6416_9192">
            <rect width="200" height="143" fill="white"/>
        </clipPath>
    </defs>
</svg>
