<svg width="168" height="121" viewBox="0 0 168 121" fill="none" xmlns="http://www.w3.org/2000/svg">
    <g clip-path="url(#clip0_6416_9138)">
        <path d="M8.22058 18.0265C12.7607 18.0265 16.4412 14.3278 16.4412 9.76518C16.4412 5.2026 12.7607 1.50391 8.22058 1.50391C3.68048 1.50391 0 5.2026 0 9.76518C0 14.3278 3.68048 18.0265 8.22058 18.0265Z" fill="#71A5D2"/>
        <path d="M12.6542 39.8389C17.1943 39.8389 20.8747 36.1403 20.8747 31.5777C20.8747 27.0151 17.1943 23.3164 12.6542 23.3164C8.11407 23.3164 4.43359 27.0151 4.43359 31.5777C4.43359 36.1403 8.11407 39.8389 12.6542 39.8389Z" fill="#CE7783"/>
        <path d="M8.22058 64.8448C12.7607 64.8448 16.4412 61.1461 16.4412 56.5835C16.4412 52.021 12.7607 48.3223 8.22058 48.3223C3.68048 48.3223 0 52.021 0 56.5835C0 61.1461 3.68048 64.8448 8.22058 64.8448Z" fill="#71A5D2"/>
        <path d="M154.56 87.7217C159.101 87.7217 162.781 84.0231 162.781 79.4605C162.781 74.8979 159.101 71.1992 154.56 71.1992C150.02 71.1992 146.34 74.8979 146.34 79.4605C146.34 84.0231 150.02 87.7217 154.56 87.7217Z" fill="#EAB669"/>
        <path d="M159.779 112.511C164.319 112.511 168 108.812 168 104.25C168 99.687 164.319 95.9883 159.779 95.9883C155.239 95.9883 151.559 99.687 151.559 104.25C151.559 108.812 155.239 112.511 159.779 112.511Z" fill="#EAB669"/>
        <path d="M65.136 96.3645C65.0516 96.3641 64.9688 96.3428 64.8945 96.3025C55.2442 91.119 47.9887 82.3544 44.6731 71.8749C41.3576 61.3954 42.2438 50.0292 47.1433 40.1966C52.0427 30.3641 60.5682 22.8422 70.9042 19.2326C81.2401 15.623 92.5699 16.2109 102.481 20.8712C102.548 20.8955 102.61 20.9338 102.662 20.9835C102.714 21.0332 102.755 21.0934 102.782 21.16C102.81 21.2265 102.823 21.2981 102.821 21.3701C102.82 21.4421 102.803 21.5131 102.772 21.5782C102.742 21.6434 102.698 21.7014 102.644 21.7485C102.589 21.7956 102.526 21.8308 102.457 21.8518C102.389 21.8728 102.316 21.8792 102.245 21.8705C102.174 21.8618 102.105 21.8382 102.044 21.8012C92.3688 17.2106 81.2904 16.6067 71.178 20.1187C61.0657 23.6307 52.7222 30.9798 47.932 40.5941C43.1418 50.2084 42.2852 61.3247 45.5455 71.5655C48.8057 81.8063 55.924 90.3585 65.3778 95.3932C65.4377 95.4252 65.4908 95.4689 65.5339 95.5216C65.577 95.5743 65.6092 95.6351 65.6288 95.7004C65.6484 95.7658 65.6548 95.8344 65.6479 95.9023C65.6409 95.9701 65.6207 96.0359 65.5884 96.0959C65.544 96.1774 65.4787 96.2454 65.3991 96.2927C65.3195 96.3399 65.2285 96.3648 65.136 96.3645Z" fill="#E3E3E3"/>
        <path d="M84.4949 101.176C81.6965 101.177 78.9049 100.898 76.1613 100.344C76.0951 100.33 76.0322 100.304 75.9763 100.266C75.9203 100.228 75.8724 100.179 75.8352 100.122C75.798 100.066 75.7722 100.002 75.7594 99.9357C75.7465 99.8691 75.7469 99.8006 75.7604 99.7341C75.7877 99.6009 75.8662 99.4839 75.9788 99.4084C76.0914 99.333 76.229 99.3052 76.3619 99.3311C83.9311 100.869 91.7788 100.226 98.9999 97.4755C106.221 94.725 112.521 89.9792 117.174 83.7855C121.827 77.5918 124.643 70.2024 125.298 62.4697C125.952 54.7369 124.419 46.9759 120.873 40.0814C120.811 39.9595 120.798 39.8174 120.84 39.6866C120.881 39.5558 120.973 39.4469 121.094 39.3839C121.216 39.3209 121.357 39.3089 121.487 39.3506C121.617 39.3923 121.726 39.4841 121.788 39.606C125.095 46.0377 126.699 53.2161 126.447 60.451C126.195 67.6859 124.096 74.7339 120.35 80.9177C116.605 87.1014 111.339 92.2128 105.06 95.7606C98.7805 99.3083 91.6986 101.173 84.4949 101.176Z" fill="#E3E3E3"/>
        <path d="M22.6151 121.026C22.5117 121.027 22.4105 120.996 22.3247 120.938C22.2389 120.88 22.1724 120.798 22.1341 120.701C22.0958 120.605 22.0875 120.499 22.11 120.397C22.1325 120.296 22.1849 120.204 22.2604 120.133L55.5283 88.7925C55.6278 88.6986 55.7603 88.6482 55.8968 88.6526C56.0332 88.657 56.1623 88.7157 56.2557 88.8157C56.3491 88.9157 56.3992 89.0489 56.3948 89.186C56.3905 89.3231 56.3322 89.4529 56.2326 89.5468L22.9648 120.887C22.87 120.976 22.745 121.026 22.6151 121.026Z" fill="#E3E3E3"/>
        <path d="M84.541 74.9208H84.5152C84.2159 74.9173 83.9251 74.8211 83.6822 74.6455C83.4394 74.4698 83.2562 74.2233 83.1578 73.9392L70.6651 38.3677C70.636 38.2814 70.5805 38.2066 70.5067 38.1537C70.4329 38.1009 70.3446 38.0726 70.2539 38.0731C70.1636 38.0707 70.0747 38.0975 70.0007 38.1496C69.9266 38.2017 69.8711 38.2763 69.8425 38.3625L59.293 67.1607H48.6665C48.5301 67.1607 48.3994 67.1062 48.303 67.0093C48.2065 66.9124 48.1523 66.7811 48.1523 66.644C48.1523 66.507 48.2065 66.3756 48.303 66.2788C48.3994 66.1819 48.5301 66.1274 48.6665 66.1274H58.5733L68.8555 38.006C68.9569 37.7197 69.144 37.4719 69.3912 37.2966C69.6383 37.1214 69.9334 37.0273 70.2359 37.0273C70.5383 37.0273 70.8334 37.1214 71.0806 37.2966C71.3277 37.4719 71.5149 37.7197 71.6163 38.006L84.109 73.5775C84.1372 73.6633 84.1917 73.738 84.2646 73.7909C84.3376 73.8438 84.4252 73.8722 84.5152 73.872C84.6039 73.8736 84.6911 73.8478 84.7647 73.7978C84.8383 73.7479 84.8949 73.6764 84.9266 73.593L95.9284 45.2856C96.03 45.0142 96.2101 44.7796 96.4456 44.612C96.681 44.4444 96.9611 44.3516 97.2496 44.3454C97.5365 44.3393 97.819 44.417 98.0627 44.5693C98.3064 44.7215 98.5007 44.9417 98.6222 45.203L107.66 64.8823H117.752C117.888 64.8823 118.019 64.9367 118.116 65.0335C118.212 65.1304 118.266 65.2619 118.266 65.399C118.266 65.536 118.212 65.6674 118.116 65.7642C118.019 65.8611 117.888 65.9156 117.752 65.9156H107.002L97.6917 45.637C97.6579 45.5566 97.6003 45.4886 97.5267 45.4424C97.4531 45.3961 97.3672 45.3739 97.2805 45.3787C97.1947 45.3815 97.1115 45.4094 97.0412 45.4589C96.971 45.5084 96.9165 45.5776 96.8846 45.6577L85.8878 73.965C85.7859 74.2425 85.6026 74.4825 85.3621 74.6532C85.1216 74.8238 84.8354 74.9172 84.541 74.9208Z" fill="#E3E3E3"/>
        <path d="M65.8015 15.9183C65.6651 15.9183 65.5344 15.8638 65.438 15.7669C65.3416 15.67 65.2873 15.5387 65.2873 15.4016V13.1283C65.2874 12.4476 65.0201 11.7945 64.5435 11.3108C64.067 10.8271 63.4197 10.5518 62.7424 10.545H20.8891C20.7528 10.545 20.622 10.4907 20.5256 10.3938C20.4292 10.2969 20.375 10.1654 20.375 10.0284C20.375 9.89135 20.4292 9.75997 20.5256 9.66308C20.622 9.56619 20.7528 9.51172 20.8891 9.51172H62.7168C63.6668 9.51854 64.5756 9.90259 65.2449 10.5801C65.9143 11.2576 66.29 12.1736 66.29 13.1283V15.4016C66.2901 15.5343 66.2393 15.6619 66.1484 15.7581C66.0575 15.8543 65.9333 15.9117 65.8015 15.9183Z" fill="#E3E3E3"/>
        <path d="M43.3298 35.3028H20.8735C20.7371 35.3028 20.6064 35.2484 20.51 35.1515C20.4136 35.0546 20.3594 34.9232 20.3594 34.7862C20.3594 34.6492 20.4136 34.5177 20.51 34.4208C20.6064 34.3239 20.7371 34.2695 20.8735 34.2695H43.3298C43.4661 34.2695 43.5969 34.3239 43.6933 34.4208C43.7897 34.5177 43.8439 34.6492 43.8439 34.7862C43.8439 34.9232 43.7897 35.0546 43.6933 35.1515C43.5969 35.2484 43.4661 35.3028 43.3298 35.3028Z" fill="#E3E3E3"/>
        <path d="M36.1682 59.5079H20.8735C20.7371 59.5079 20.6064 59.4536 20.51 59.3567C20.4136 59.2598 20.3594 59.1283 20.3594 58.9913C20.3594 58.8542 20.4136 58.7229 20.51 58.626C20.6064 58.5291 20.7371 58.4746 20.8735 58.4746H36.1682C36.3045 58.4746 36.4353 58.5291 36.5317 58.626C36.6281 58.7229 36.6823 58.8542 36.6823 58.9913C36.6823 59.1283 36.6281 59.2598 36.5317 59.3567C36.4353 59.4536 36.3045 59.5079 36.1682 59.5079Z" fill="#E3E3E3"/>
        <path d="M11.6687 19.5295C10.0483 19.5276 8.45396 19.1189 7.03067 18.3405C5.60737 17.5622 4.40032 16.4387 3.51877 15.0724C2.63722 13.706 2.10906 12.14 1.98272 10.5166C1.85638 8.89312 2.13584 7.26361 2.7953 5.77615C2.82307 5.71385 2.8628 5.65779 2.91228 5.61104C2.96177 5.56428 3.01991 5.52771 3.08349 5.50369C3.14706 5.47967 3.21467 5.4686 3.28255 5.47102C3.35043 5.47344 3.41713 5.48933 3.47886 5.51782C3.60276 5.5742 3.69953 5.67771 3.74771 5.80554C3.79589 5.93336 3.79155 6.07511 3.73591 6.19984C2.97068 7.91924 2.77928 9.84121 3.19017 11.6789C3.60107 13.5166 4.5924 15.1716 6.01601 16.3968C7.43961 17.6219 9.21919 18.3515 11.0893 18.4768C12.9594 18.6021 14.8197 18.1163 16.3925 17.0919C17.9654 16.0675 19.1666 14.5595 19.8166 12.7928C20.4666 11.0262 20.5307 9.09567 19.9993 7.2894C19.468 5.48313 18.3696 3.89796 16.8682 2.77046C15.3669 1.64295 13.5429 1.03362 11.6687 1.03331C10.937 1.03328 10.2083 1.12529 9.49928 1.30715C9.43223 1.33044 9.3609 1.33957 9.29018 1.33389C9.21946 1.32822 9.15087 1.3078 9.08835 1.27411C9.02583 1.24041 8.97077 1.19407 8.92694 1.13801C8.8831 1.08195 8.85135 1.01744 8.83356 0.948423C8.81576 0.879405 8.81228 0.807417 8.82351 0.737019C8.83475 0.666622 8.86045 0.59933 8.89882 0.539365C8.9372 0.4794 8.9876 0.428104 9.04668 0.388632C9.10576 0.34916 9.17236 0.322407 9.24223 0.31005C10.0346 0.103196 10.85 -0.00103008 11.6687 7.67338e-06C14.2457 7.67338e-06 16.7171 1.02877 18.5393 2.86001C20.3616 4.69125 21.3853 7.17492 21.3853 9.76469C21.3853 12.3545 20.3616 14.8382 18.5393 16.6695C16.7171 18.5007 14.2457 19.5295 11.6687 19.5295Z" fill="#E3E3E3"/>
        <path d="M148.187 107.701H106.333C105.383 107.701 104.472 107.324 103.797 106.651C103.123 105.979 102.741 105.065 102.734 104.111V101.315C102.734 101.178 102.789 101.047 102.885 100.95C102.981 100.853 103.112 100.799 103.248 100.799C103.385 100.799 103.516 100.853 103.612 100.95C103.708 101.047 103.763 101.178 103.763 101.315V104.111C103.769 104.791 104.043 105.442 104.525 105.92C105.006 106.399 105.656 106.668 106.333 106.668H148.187C148.323 106.668 148.454 106.722 148.55 106.819C148.647 106.916 148.701 107.048 148.701 107.185C148.701 107.322 148.647 107.453 148.55 107.55C148.454 107.647 148.323 107.701 148.187 107.701Z" fill="#E3E3E3"/>
        <path d="M157.389 117.233C156.733 117.233 156.079 117.167 155.435 117.037C155.368 117.023 155.304 116.997 155.246 116.958C155.189 116.92 155.14 116.87 155.102 116.813C155.064 116.755 155.037 116.69 155.024 116.623C155.011 116.555 155.011 116.485 155.024 116.417C155.038 116.349 155.064 116.285 155.103 116.227C155.141 116.17 155.19 116.12 155.247 116.082C155.305 116.043 155.369 116.017 155.436 116.003C155.504 115.99 155.574 115.99 155.641 116.004C156.217 116.119 156.802 116.178 157.389 116.179C159.342 116.178 161.238 115.515 162.769 114.298C164.301 113.081 165.38 111.38 165.832 109.47C166.283 107.561 166.081 105.554 165.257 103.774C164.434 101.994 163.038 100.546 161.294 99.6618C159.55 98.7779 157.561 98.5105 155.648 98.9028C153.734 99.2952 152.008 100.325 150.748 101.824C149.488 103.324 148.769 105.207 148.705 107.168C148.641 109.13 149.237 111.056 150.397 112.635C150.444 112.689 150.479 112.751 150.5 112.819C150.521 112.887 150.528 112.959 150.521 113.03C150.513 113.1 150.491 113.169 150.456 113.231C150.421 113.293 150.373 113.347 150.316 113.389C150.26 113.432 150.194 113.462 150.125 113.478C150.056 113.494 149.985 113.495 149.915 113.482C149.846 113.469 149.779 113.442 149.721 113.402C149.662 113.362 149.612 113.31 149.575 113.25C148.277 111.484 147.61 109.33 147.681 107.135C147.752 104.941 148.557 102.835 149.966 101.158C151.375 99.4801 153.306 98.329 155.446 97.8902C157.587 97.4515 159.812 97.7509 161.762 98.7399C163.713 99.7289 165.274 101.35 166.195 103.341C167.115 105.332 167.341 107.576 166.835 109.712C166.33 111.848 165.122 113.75 163.408 115.111C161.694 116.472 159.573 117.212 157.389 117.213V117.233Z" fill="#E3E3E3"/>
        <path d="M11.6704 44.5607C11.5341 44.5607 11.4034 44.5062 11.3069 44.4094C11.2105 44.3125 11.1563 44.1811 11.1563 44.0441C11.1563 43.907 11.2105 43.7757 11.3069 43.6788C11.4034 43.5819 11.5341 43.5274 11.6704 43.5274C13.6779 43.5253 15.6224 42.8238 17.173 41.5424C18.7235 40.2611 19.7841 38.4791 20.174 36.5001C20.5639 34.5211 20.259 32.4675 19.3112 30.6891C18.3635 28.9106 16.8317 27.5174 14.9765 26.7467C13.1213 25.976 11.0577 25.8756 9.13705 26.4624C7.21639 27.0492 5.55747 28.2869 4.44306 29.9649C3.32864 31.6429 2.82762 33.6573 3.02525 35.6649C3.22287 37.6725 4.10678 39.5491 5.52675 40.9752C5.61097 41.074 5.655 41.2011 5.65001 41.3311C5.64501 41.4612 5.59145 41.5845 5.49989 41.6765C5.40833 41.7685 5.28562 41.8225 5.15623 41.8275C5.02684 41.8325 4.90038 41.7883 4.80203 41.7036C3.21168 40.1067 2.2215 38.0051 2.0003 35.7568C1.77909 33.5085 2.34044 31.2526 3.58881 29.3737C4.83718 27.4948 6.69521 26.109 8.84636 25.4525C10.9975 24.7961 13.3087 24.9096 15.3859 25.7737C17.4631 26.6377 19.1779 28.1989 20.238 30.1912C21.2982 32.1835 21.6382 34.4835 21.2 36.6994C20.7618 38.9154 19.5724 40.91 17.8347 42.3435C16.097 43.777 13.9186 44.5606 11.6704 44.5607Z" fill="#E3E3E3"/>
        <path d="M147.9 82.8614H124.924C124.788 82.8614 124.657 82.8071 124.561 82.7102C124.464 82.6133 124.41 82.4818 124.41 82.3448C124.41 82.2078 124.464 82.0764 124.561 81.9795C124.657 81.8826 124.788 81.8281 124.924 81.8281H147.9C148.036 81.8281 148.167 81.8826 148.263 81.9795C148.36 82.0764 148.414 82.2078 148.414 82.3448C148.414 82.4818 148.36 82.6133 148.263 82.7102C148.167 82.8071 148.036 82.8614 147.9 82.8614Z" fill="#E3E3E3"/>
        <path d="M157.096 92.0939C155.523 92.0902 153.973 91.7024 152.582 90.964C151.19 90.2255 149.998 89.1585 149.108 87.8546C148.217 86.5507 147.655 85.0489 147.47 83.4784C147.285 81.908 147.482 80.3159 148.044 78.8389C148.607 77.3619 149.518 76.0443 150.699 74.9995C151.88 73.9546 153.297 73.2137 154.826 72.8404C156.355 72.4671 157.951 72.4726 159.478 72.8565C161.004 73.2404 162.415 73.9913 163.589 75.0444C163.64 75.0898 163.681 75.1447 163.71 75.2061C163.739 75.2674 163.756 75.3339 163.759 75.4018C163.763 75.4697 163.753 75.5377 163.731 75.6017C163.708 75.6658 163.673 75.7249 163.628 75.7754C163.583 75.826 163.528 75.8671 163.467 75.8964C163.406 75.9257 163.34 75.9426 163.272 75.9462C163.205 75.9498 163.137 75.94 163.073 75.9173C163.01 75.8947 162.951 75.8596 162.901 75.8142C161.365 74.4344 159.389 73.651 157.33 73.6049C155.271 73.5587 153.262 74.2528 151.667 75.5624C150.072 76.872 148.994 78.7109 148.628 80.7481C148.261 82.7853 148.631 84.8869 149.67 86.6746C150.708 88.4623 152.348 89.8187 154.293 90.4995C156.239 91.1803 158.362 91.1409 160.281 90.3883C162.2 89.6357 163.789 88.2193 164.761 86.3942C165.733 84.5691 166.025 82.4552 165.584 80.433C165.565 80.3653 165.56 80.2945 165.57 80.2249C165.579 80.1552 165.602 80.0881 165.638 80.0279C165.674 79.9676 165.722 79.9154 165.779 79.8743C165.836 79.8333 165.9 79.8042 165.968 79.7891C166.037 79.7739 166.108 79.7731 166.176 79.7863C166.245 79.7996 166.31 79.8267 166.368 79.8661C166.426 79.9056 166.475 79.9566 166.513 80.0159C166.55 80.0751 166.576 80.1415 166.587 80.2109C166.901 81.6386 166.893 83.1191 166.563 84.5433C166.232 85.9674 165.588 87.2989 164.677 88.4393C163.766 89.5798 162.612 90.5002 161.3 91.1327C159.988 91.7652 158.551 92.0937 157.096 92.0939Z" fill="#E3E3E3"/>
        <path d="M11.6708 68.7561C9.5391 68.7563 7.46649 68.052 5.77235 66.7518C4.07821 65.4516 2.85654 63.6276 2.2956 61.5609C1.73465 59.4942 1.86553 57.2994 2.66812 55.3148C3.47072 53.3302 4.90049 51.6659 6.73705 50.5784C8.57361 49.4909 10.7151 49.0405 12.8315 49.2966C14.9479 49.5527 16.9217 50.5012 18.4488 51.9958C19.976 53.4904 20.9718 55.4481 21.2827 57.5675C21.5935 59.6868 21.2022 61.8501 20.1691 63.7239C20.1009 63.8438 19.9881 63.9315 19.8556 63.9678C19.723 64.0042 19.5815 63.9862 19.4622 63.9176C19.3429 63.8491 19.2554 63.7358 19.2192 63.6026C19.1831 63.4693 19.2012 63.3271 19.2694 63.2072C20.1932 61.5317 20.5428 59.5972 20.2648 57.7022C19.9867 55.8071 19.0962 54.0566 17.7306 52.7202C16.365 51.3838 14.6 50.5359 12.7075 50.307C10.8151 50.0781 8.90036 50.4809 7.25819 51.4534C5.61602 52.4259 4.33758 53.9142 3.62002 55.6888C2.90247 57.4634 2.78546 59.426 3.28716 61.274C3.78886 63.122 4.88145 64.7529 6.39641 65.9154C7.91136 67.0779 9.76467 67.7076 11.6708 67.7073C12.9952 67.7109 14.3026 67.4068 15.4907 66.8186C15.6121 66.7626 15.7503 66.7561 15.8763 66.8008C16.0022 66.8456 16.106 66.9378 16.1654 67.058C16.2249 67.1783 16.2356 67.3171 16.1951 67.445C16.1545 67.573 16.0658 67.68 15.9481 67.7435C14.6191 68.4082 13.1552 68.7547 11.6708 68.7561Z" fill="#E3E3E3"/>
    </g>
    <defs>
        <clipPath id="clip0_6416_9138">
            <rect width="168" height="121" fill="white"/>
        </clipPath>
    </defs>
</svg>
