<svg width="82" height="77" viewBox="0 0 82 77" fill="none" xmlns="http://www.w3.org/2000/svg">
    <path d="M44.8951 1.00954C26.5075 1.46131 21.6615 16.6331 21.5369 24.1625C17.4881 23.5978 9.39062 26.0073 9.39062 40.1626C9.39062 42.2487 9.68576 44.1259 10.2003 45.8097C10.6606 47.4266 12.5258 51.4365 16.3046 54.541C19.1681 56.7756 22.327 57.9838 24.5267 58.4215H44.8951H65.4503C70.3088 57.6685 80.2126 52.9626 80.9601 40.1626C81.7076 27.3626 73.174 24.1626 68.8139 24.1625C68.7102 21.5315 68.0629 18.0373 66.5676 14.5625C64.088 8.90389 59.7821 5.30279 57.9391 4.20957C54.595 2.14769 50.3176 0.876316 44.8951 1.00954Z" fill="#CE7783"/>
    <path d="M20.1575 48.7436C22.5934 38.0024 19.3235 31.4443 15.8398 28.0977" stroke="#E3E3E3" stroke-linecap="round"/>
    <path d="M66.1641 26.1621C64.2315 26.8363 61.6138 28.4311 59.5914 31.1733M57.3741 46.808C56.313 42.7878 56.2974 40.4047 56.8331 37.5875" stroke="#E3E3E3" stroke-linecap="round"/>
    <path d="M37.7729 45.5176C48.7313 45.5176 58.4109 48.8359 64.2255 53.905M11.3203 53.905C15.2328 50.4941 20.8954 47.8758 27.52 46.5279" stroke="#E3E3E3" stroke-linecap="round"/>
    <path d="M53.4848 4.46201C49.8696 2.23796 45.2454 0.866588 39.3832 1.01029C19.5047 1.49759 14.2658 17.8627 14.1311 25.9843C9.75406 25.3752 1 27.9741 1 43.2428C1 45.4929 1.31906 47.5178 1.87534 49.334M62.813 15.6293C64.4295 19.3773 65.1293 23.1463 65.2413 25.9843C69.9551 25.9843 79.1805 29.436 78.3724 43.2428C77.5644 57.0496 66.8575 62.1256 61.605 62.9378H39.3832H17.3634C14.9852 62.4656 11.5703 61.1624 8.47462 58.752" stroke="#E3E3E3" stroke-linecap="round"/>
    <path d="M39.7109 62.9375V75.8412" stroke="#E3E3E3" stroke-linecap="round"/>
    <path d="M59.7148 75.8418L50.6823 75.8418M19.7134 75.8418L44.8756 75.8418" stroke="#E3E3E3" stroke-linecap="round"/>
</svg>
