<svg width="92" height="92" viewBox="0 0 92 92" fill="none" xmlns="http://www.w3.org/2000/svg">
    <path d="M21.0833 36.416C20.0667 36.416 19.0916 36.0121 18.3728 35.2933C17.6539 34.5744 17.25 33.5993 17.25 32.5827V5.74935C17.25 4.73269 17.6539 3.75766 18.3728 3.03877C19.0916 2.31988 20.0667 1.91602 21.0833 1.91602H74.75C75.7667 1.91602 76.7417 2.31988 77.4606 3.03877C78.1795 3.75766 78.5833 4.73269 78.5833 5.74935V14.5M78.5833 28V32.5827C78.5833 33.5993 78.1795 34.5744 77.4606 35.2933C76.7417 36.0121 75.7667 36.416 74.75 36.416H59.4167L49.6238 46.2089C48.9938 46.8389 47.9167 46.3927 47.9167 45.5018V36.416H34" stroke="#E3E3E3" stroke-linecap="round" stroke-linejoin="round"/>
    <path d="M51.9075 10H45.9379C45.023 10.0006 44.1368 10.3084 43.4314 10.8705C42.726 11.4326 42.2452 12.2141 42.0716 13.0808C41.898 13.9475 42.0423 14.8455 42.4799 15.6208C42.9174 16.3961 43.6209 17.0003 44.4697 17.3298L50.5303 19.6702C51.3791 19.9997 52.0826 20.6039 52.5201 21.3792C52.9577 22.1545 53.102 23.0525 52.9284 23.9192C52.7548 24.7859 52.274 25.5674 51.5686 26.1295C50.8632 26.6916 49.977 26.9994 49.0621 27H43.0984" stroke="#E3E3E3" stroke-linecap="round" stroke-linejoin="round"/>
    <path d="M48 30V27" stroke="#E3E3E3" stroke-linecap="round" stroke-linejoin="round"/>
    <path d="M48 10V7" stroke="#E3E3E3" stroke-linecap="round" stroke-linejoin="round"/>
    <path d="M21.5417 71.0833C27.3637 71.0833 32.0833 66.3637 32.0833 60.5417C32.0833 54.7197 27.3637 50 21.5417 50C15.7197 50 11 54.7197 11 60.5417C11 66.3637 15.7197 71.0833 21.5417 71.0833Z" fill="#EAB669"/>
    <path d="M29.2435 62.2917C29.2435 68.1137 24.5238 72.8333 18.7018 72.8333C12.8798 72.8333 8.16016 68.1137 8.16016 62.2917C8.16016 56.4697 12.8798 51.75 18.7018 51.75" stroke="#E3E3E3" stroke-linecap="round" stroke-linejoin="round"/>
    <path d="M38.5762 89.4167C37.7151 85.6075 35.5842 82.2043 32.5334 79.7662C29.4826 77.3281 25.6934 76 21.7881 76C17.8828 76 14.0935 77.3281 11.0428 79.7662C7.99199 82.2043 5.86108 85.6075 5 89.4167" fill="#CE7783"/>
    <path d="M87.5762 89.4167C86.7151 85.6075 84.5842 82.2043 81.5334 79.7662C78.4826 77.3281 74.6934 76 70.7881 76C66.8828 76 63.0935 77.3281 60.0428 79.7662C56.992 82.2043 54.8611 85.6075 54 89.4167" fill="#EAB669"/>
    <path d="M35.4941 90.0827C34.6331 86.2735 32.5021 82.8704 29.4514 80.4323C26.4006 77.9941 22.6114 76.666 18.7061 76.666M7.96073 80.4323C4.90996 82.8704 2.77905 86.2735 1.91797 90.0827" stroke="#E3E3E3" stroke-linecap="round" stroke-linejoin="round"/>
    <path d="M70.5417 71.0833C76.3637 71.0833 81.0833 66.3637 81.0833 60.5417C81.0833 54.7197 76.3637 50 70.5417 50C64.7197 50 60 54.7197 60 60.5417C60 66.3637 64.7197 71.0833 70.5417 71.0833Z" fill="#71A5D2"/>
    <path d="M73.2956 72.8333C79.1176 72.8333 83.8372 68.1137 83.8372 62.2917C83.8372 56.4697 79.1176 51.75 73.2956 51.75C67.4736 51.75 62.7539 56.4697 62.7539 62.2917" stroke="#E3E3E3" stroke-linecap="round" stroke-linejoin="round"/>
    <path d="M90.0879 90.0827C89.7486 88.5818 89.2122 87.1439 88.5 85.8033M84.0451 80.4323C80.9944 77.9941 77.2051 76.666 73.2998 76.666C69.3945 76.666 65.6052 77.9941 62.5545 80.4323C59.5037 82.8704 57.3728 86.2735 56.5117 90.0827" stroke="#E3E3E3" stroke-linecap="round" stroke-linejoin="round"/>
</svg>
