<svg width="83" height="58" viewBox="0 0 83 58" fill="none" xmlns="http://www.w3.org/2000/svg">
    <path d="M37.0436 21.3094V1C37.0436 0.447715 37.4913 0 38.0436 0H46.7846C47.3368 0 47.7846 0.447716 47.7846 1V21.3094C47.7846 21.8616 48.2323 22.3094 48.7846 22.3094H75.7954C76.3476 22.3094 76.7954 22.7571 76.7954 23.3094V31.0504C76.7954 31.6026 76.3476 32.0504 75.7954 32.0504H48.7846C48.2323 32.0504 47.7846 32.4981 47.7846 33.0504V55.5C47.7846 56.0523 47.3368 56.5 46.7846 56.5H38.0436C37.4913 56.5 37.0436 56.0523 37.0436 55.5V33.0504C37.0436 32.4981 36.5958 32.0504 36.0436 32.0504H8C7.44772 32.0504 7 31.6026 7 31.0504V23.3094C7 22.7571 7.44771 22.3094 8 22.3094H36.0436C36.5958 22.3094 37.0436 21.8616 37.0436 21.3094Z" fill="#CE7783"/>
    <path d="M26.0576 1H78C80.2091 1 82 2.79086 82 5V52.9425C82 55.1516 80.2091 56.9424 78 56.9424H65.3921M13.2374 1H5C2.79086 1 1 2.79086 1 5V52.9424C1 55.1516 2.79086 56.9424 5 56.9424H53.7374" stroke="#E3E3E3" stroke-linecap="round"/>
    <path d="M37.3901 1.16602V7.938M7.70023 24.7207H37.3901V16.3294M3.62109 33.5537H37.3901V54.4862M46.1944 50.407V33.5537H79.3765M77.6283 24.7207H46.1944V6.11925" stroke="#E3E3E3" stroke-linecap="round"/>
    <path d="M78.2121 4.37109L46.4531 24.4754" stroke="#E3E3E3" stroke-linecap="round"/>
    <path d="M77.6278 53.9023L46.1602 33.798" stroke="#E3E3E3" stroke-linecap="round"/>
    <path d="M6.53538 5.24414L37.1289 24.7657" stroke="#E3E3E3" stroke-linecap="round"/>
    <path d="M4 54.9277L33.0508 36.1288" stroke="#E3E3E3" stroke-linecap="round"/>
</svg>
