<svg width="89" height="89" viewBox="0 0 89 89" fill="none" xmlns="http://www.w3.org/2000/svg">
    <path d="M71.5 20.6875C71.5 20.1957 71.3047 19.7241 70.9569 19.3764C70.6092 19.0287 70.1376 18.8333 69.6458 18.8333H56.6667V5.85417C56.6667 5.36241 56.4713 4.8908 56.1236 4.54307C55.7759 4.19535 55.3043 4 54.8125 4H43.6875C43.1957 4 42.7241 4.19535 42.3764 4.54307C42.0287 4.8908 41.8333 5.36241 41.8333 5.85417V18.8333H28.8542C28.3624 18.8333 27.8908 19.0287 27.5431 19.3764C27.1953 19.7241 27 20.1957 27 20.6875V31.8125C27 32.3043 27.1953 32.7759 27.5431 33.1236C27.8908 33.4713 28.3624 33.6667 28.8542 33.6667H41.8333V46.6458C41.8333 47.1376 42.0287 47.6092 42.3764 47.9569C42.7241 48.3046 43.1957 48.5 43.6875 48.5H54.8125C55.3043 48.5 55.7759 48.3046 56.1236 47.9569C56.4713 47.6092 56.6667 47.1376 56.6667 46.6458V33.6667H69.6458C70.1376 33.6667 70.6092 33.4713 70.9569 33.1236C71.3047 32.7759 71.5 32.3043 71.5 31.8125V20.6875Z" fill="#CE7783"/>
    <path d="M37.0833 3.70768C37.0833 3.21593 37.2787 2.74431 37.6264 2.39659C37.9741 2.04886 38.4457 1.85352 38.9375 1.85352H50.0625C50.5543 1.85352 51.0259 2.04886 51.3736 2.39659C51.7213 2.74431 51.9167 3.21593 51.9167 3.70768V16.6868H64.8958C65.3876 16.6868 65.8592 16.8822 66.2069 17.2299C66.5547 17.5776 66.75 18.0493 66.75 18.541V29.666C66.75 30.1578 66.5547 30.6294 66.2069 30.9771C65.8592 31.3248 65.3876 31.5202 64.8958 31.5202M56 31.5202H51.9167V44.4993C51.9167 44.9911 51.7213 45.4627 51.3736 45.8104C51.0259 46.1582 50.5543 46.3535 50.0625 46.3535H38.9375C38.4457 46.3535 37.9741 46.1582 37.6264 45.8104C37.2787 45.4627 37.0833 44.9911 37.0833 44.4993V31.5202H24.1042C23.6124 31.5202 23.1408 31.3248 22.7931 30.9771C22.4453 30.6294 22.25 30.1578 22.25 29.666V18.541C22.25 18.0493 22.4453 17.5776 22.7931 17.2299C23.1408 16.8822 23.6124 16.6868 24.1042 16.6868H37.0833V12.5" stroke="#E3E3E3" stroke-linecap="round" stroke-linejoin="round"/>
    <path d="M12.9805 87.1465L5.51188 77.8126C3.14498 74.8538 1.85548 71.1775 1.85547 67.3885V57.7987M1.85547 48.209C1.85547 46.7337 2.44152 45.3189 3.48469 44.2757C4.52786 43.2325 5.9427 42.6465 7.41797 42.6465C8.89323 42.6465 10.3081 43.2325 11.3512 44.2757C12.3944 45.3189 12.9805 46.7337 12.9805 48.209V62.1152" stroke="#E3E3E3" stroke-linecap="round" stroke-linejoin="round"/>
    <path d="M29.6679 86.6397V75.5147M26.8606 66.2439L22.622 59.9063C22.2607 59.3038 21.7808 58.7809 21.2114 58.3692C20.6421 57.9576 19.9951 57.6658 19.3097 57.5115C18.6242 57.3572 17.9146 57.3437 17.2238 57.4716C16.533 57.5996 15.8753 57.8665 15.2906 58.2561C14.2381 58.9584 13.4783 60.0208 13.154 61.2438C12.8296 62.4668 12.963 63.7662 13.5292 64.8978L18.5429 73.2415" stroke="#E3E3E3" stroke-linecap="round" stroke-linejoin="round"/>
    <path d="M76.0195 87.1465L83.4881 77.8126C85.855 74.8538 87.1445 71.1775 87.1445 67.3885M76.0195 62.1152V48.209C76.0195 46.7337 76.6056 45.3189 77.6488 44.2757C78.6919 43.2325 80.1068 42.6465 81.582 42.6465C83.0573 42.6465 84.4721 43.2325 85.5153 44.2757C86.5585 45.3189 87.1445 46.7337 87.1445 48.209V52.5" stroke="#E3E3E3" stroke-linecap="round" stroke-linejoin="round"/>
    <path d="M59.332 86.6397L59.332 84M70.457 73.2415L75.4744 64.8978C76.0402 63.7658 76.1731 62.4661 75.848 61.2431C75.523 60.02 74.7624 58.9578 73.7092 58.2561C73.1246 57.8665 72.4669 57.5996 71.7761 57.4716C71.0853 57.3437 70.3757 57.3572 69.6902 57.5115C69.0048 57.6658 68.3578 57.9576 67.7884 58.3692C67.2191 58.7809 66.7392 59.3038 66.3779 59.9063L62.1392 66.2439C60.3075 68.9886 59.3306 72.2149 59.332 75.5147L59.332 78.5" stroke="#E3E3E3" stroke-linecap="round" stroke-linejoin="round"/>
</svg>
