<svg width="96" height="96" viewBox="0 0 96 96" fill="none" xmlns="http://www.w3.org/2000/svg">
    <path d="M84.9249 84.5229V74.7695L68.771 80.7695L52.6172 74.7695V84.5229C52.6172 86.1586 53.613 87.6294 55.1316 88.2368L67.2855 93.0984C68.2391 93.4798 69.303 93.4798 70.2566 93.0984L82.4104 88.2368C83.9291 87.6294 84.9249 86.1586 84.9249 84.5229Z" fill="#333333"/>
    <path d="M38 2.0625V14.0625" stroke="#E3E3E3" stroke-linecap="round" stroke-linejoin="round"/>
    <path d="M14.3065 66.0625H6C4.93913 66.0625 3.92172 65.6411 3.17157 64.8909C2.42143 64.1408 2 63.1234 2 62.0625V48.4609M28 18.0625H6C4.93913 18.0625 3.92172 18.4839 3.17157 19.2341C2.42143 19.9842 2 21.0016 2 22.0625V30.9225" stroke="#E3E3E3" stroke-linecap="round" stroke-linejoin="round"/>
    <path d="M54 18.0625H70C71.0609 18.0625 72.0783 18.4839 72.8284 19.2341C73.5786 19.9842 74 21.0016 74 22.0625V51.9345" stroke="#E3E3E3" stroke-linecap="round" stroke-linejoin="round"/>
    <path d="M22.155 72L16 94.0637" stroke="#E3E3E3" stroke-linecap="round" stroke-linejoin="round"/>
    <path d="M50.4609 16.9238C50.4609 15.863 50.0395 14.8455 49.2894 14.0954C48.5392 13.3453 47.5218 12.9238 46.4609 12.9238H34.4609C33.4001 12.9238 32.3827 13.3453 31.6325 14.0954C30.8824 14.8455 30.4609 15.863 30.4609 16.9238C30.4609 17.9847 30.8824 19.0021 31.6325 19.7523C32.3827 20.5024 33.4001 20.9238 34.4609 20.9238H46.4609C47.5218 20.9238 48.5392 20.5024 49.2894 19.7523C50.0395 19.0021 50.4609 17.9847 50.4609 16.9238Z" fill="#EAB669"/>
    <path d="M48 18.0625C48 17.0016 47.5786 15.9842 46.8284 15.2341C46.0783 14.4839 45.0609 14.0625 44 14.0625H32C30.9391 14.0625 29.9217 14.4839 29.1716 15.2341C28.4214 15.9842 28 17.0016 28 18.0625C28 19.1234 28.4214 20.1408 29.1716 20.8909C29.9217 21.6411 30.9391 22.0625 32 22.0625H44C45.0609 22.0625 46.0783 21.6411 46.8284 20.8909C47.5786 20.1408 48 19.1234 48 18.0625Z" stroke="#E3E3E3" stroke-linecap="round" stroke-linejoin="round"/>
    <path d="M23.3828 60H35.6136C36.7067 60 37.3257 62.0931 36.5997 62.9103C35.1911 64.4955 34.3311 66.268 33.9077 67.5444C33.7611 67.9864 33.3607 68.3077 32.895 68.3077H21.3828C20.2782 68.3077 19.3828 67.4123 19.3828 66.3077V64C19.3828 61.7909 21.1737 60 23.3828 60Z" fill="#71A5D2"/>
    <path d="M39.876 62.0625H22C20.9391 62.0625 19.9217 62.4839 19.1716 63.2341C18.4214 63.9842 18 65.0016 18 66.0625V68.0625C18 68.5929 18.2107 69.1016 18.5858 69.4767C18.9609 69.8518 19.4696 70.0625 20 70.0625H30.124" stroke="#E3E3E3" stroke-linecap="round" stroke-linejoin="round"/>
    <path d="M66 60.9238L38 72.0438L66 81.9238L94 72.0438L66 60.9238Z" fill="#333333"/>
    <path d="M72.6324 60.9231L66 58.2891L38 69.4091L66 79.2891L94 69.4091L81.6911 64.5207" stroke="#E3E3E3" stroke-linecap="round" stroke-linejoin="round"/>
    <path d="M38 69.4141V84.066" stroke="#E3E3E3" stroke-linecap="round" stroke-linejoin="round"/>
    <path d="M50 75.2305L50 86.2635C49.9975 86.8653 50.1758 87.4539 50.5117 87.9531C50.8476 88.4524 51.3257 88.8392 51.884 89.0635L64.884 93.8635C65.6002 94.1514 66.3999 94.1514 67.116 93.8635L80.116 89.0635C80.6744 88.8392 81.1525 88.4524 81.4884 87.9531C81.8243 87.4539 82.0026 86.8653 82 86.2635V77.5382" stroke="#E3E3E3" stroke-linecap="round" stroke-linejoin="round"/>
</svg>
