<svg width="92" height="92" viewBox="0 0 92 92" fill="none" xmlns="http://www.w3.org/2000/svg">
    <path d="M52.5276 43.8922C46.0896 46.0544 41.7084 44.5041 38.9154 42.4489C37.7179 41.5677 35.8796 41.8647 35.3078 43.2371L31.0236 53.5192C30.641 54.4375 29.7437 55.0357 28.7489 55.0357H28.5435C19.5837 55.0357 12.3203 62.2991 12.3203 71.2589C12.3203 80.2188 19.5837 87.4821 28.5435 87.4821H78.5792C80.0931 87.4821 81.3203 86.2549 81.3203 84.7411C81.3203 83.2272 80.0931 82 78.5792 82H58.4453C56.7885 82 55.4453 80.6569 55.4453 79V45.8606C55.4453 44.3959 53.9161 43.4259 52.5276 43.8922Z" fill="#EAB669"/>
    <path d="M57 44.084V78.584" stroke="#E3E3E3" stroke-linecap="round" stroke-linejoin="round"/>
    <path d="M75.7083 74.7477C76.8246 74.7469 77.9276 74.9899 78.9402 75.4597C79.9528 75.9294 80.8506 76.6147 81.5709 77.4674C82.2912 78.3202 82.8165 79.32 83.1103 80.397C83.404 81.4739 83.459 82.602 83.2715 83.7024C82.9022 85.5322 81.9011 87.1739 80.4435 88.34C78.9858 89.5061 77.1644 90.1224 75.2982 90.0811M32.936 41.4629L25.875 55.5811C21.1645 56.0601 17.2414 58.1109 14.3328 61.1964M65.3036 90.0811H17.6103C16.165 90.0869 14.7474 89.6841 13.5211 88.919C12.2949 88.1539 11.3098 87.0578 10.6797 85.7571C9.32382 82.9178 8.62171 79.8107 8.62501 76.6644C8.62501 74.5757 8.86732 72.5542 9.33365 70.6429" stroke="#E3E3E3" stroke-linecap="round" stroke-linejoin="round"/>
    <path d="M58.0158 9.92413C55.8992 9.04942 53.63 8.59915 51.3382 8.59915C49.0464 8.59915 46.7771 9.04942 44.6605 9.92413L35.3203 3.28516V22.7699C35.5698 26.758 37.3939 30.4862 40.3947 33.1409C43.3955 35.7957 47.3294 37.1615 51.3382 36.9405C55.3469 37.1615 59.2808 35.7957 62.2816 33.1409C65.2824 30.4862 67.1065 26.758 67.356 22.7699V3.28516L58.0158 9.92413Z" fill="#EAB669"/>
    <path d="M29.707 22.9994V1.91602L39.7657 9.09968C42.0451 8.15321 44.4889 7.666 46.957 7.666C49.4251 7.666 51.869 8.15321 54.1484 9.09968L64.207 1.91602V11.0881M64.207 22.9994C63.9384 27.3148 61.9739 31.3488 58.7423 34.2213C55.5107 37.0939 51.2742 38.5718 46.957 38.3327C42.6399 38.5718 38.4034 37.0939 35.1718 34.2213C34.4762 33.6031 33.8394 32.931 33.2655 32.2139" stroke="#E3E3E3" stroke-linecap="round" stroke-linejoin="round"/>
    <ellipse cx="53.3929" cy="18.0706" rx="1.64286" ry="1.64286" fill="#1B1B1C"/>
    <ellipse cx="39.428" cy="18.0706" rx="1.64286" ry="1.64286" fill="#1B1B1C"/>
</svg>
