<svg width="74" height="74" viewBox="0 0 74 74" fill="none" xmlns="http://www.w3.org/2000/svg">
<path fill-rule="evenodd" clip-rule="evenodd" d="M11.6845 39.5923H2.34375V37.9253H11.6845V39.5923Z" fill="#3CABFF"/>
<path fill-rule="evenodd" clip-rule="evenodd" d="M18.6252 23.6261C20.1054 21.9394 21.9709 20.7534 24.5867 20.7534C27.2203 20.7534 29.0447 21.9988 30.4623 23.7447C31.6167 25.1665 32.5492 26.9845 33.4639 28.768C33.6394 29.1101 33.8142 29.4509 33.9897 29.7874C35.1082 31.9307 36.2836 33.9596 37.9203 35.4618C39.5248 36.9344 41.6014 37.9255 44.5962 37.9255H70.4281C70.8885 37.9255 71.2616 38.2987 71.2616 38.759C71.2616 39.2194 70.8885 39.5925 70.4281 39.5925H44.5962C41.1728 39.5925 38.6968 38.4372 36.7931 36.69C34.9217 34.9724 33.6336 32.7082 32.5118 30.5586C32.3225 30.1957 32.1383 29.8373 31.9573 29.485C31.0399 27.6993 30.2025 26.0694 29.1681 24.7955C27.9714 23.3216 26.5838 22.4204 24.5867 22.4204C22.5719 22.4204 21.1317 23.2973 19.8781 24.7257C18.7405 26.0219 17.8073 27.7106 16.784 29.5622C16.6446 29.8144 16.5035 30.0697 16.3601 30.3273C14.0223 34.526 11.1187 39.2294 4.54357 39.5913C4.52832 39.5921 4.51305 39.5925 4.49777 39.5925H2.34133C1.88099 39.5925 1.50781 39.2194 1.50781 38.759C1.50781 38.2987 1.88099 37.9255 2.34133 37.9255H4.47447C10.0504 37.6086 12.5571 33.7307 14.9036 29.5164C15.043 29.266 15.1822 29.0137 15.3218 28.7607C16.3306 26.9326 17.3591 25.0688 18.6252 23.6261Z" fill="white"/>
<path fill-rule="evenodd" clip-rule="evenodd" d="M32.352 35.664C32.3204 35.6965 32.2886 35.7288 32.2567 35.7609C30.4099 37.6135 28.8671 38.5995 27.3633 39.1013C25.8909 39.5926 24.5228 39.5926 23.1377 39.5925L11.7476 39.5925C11.3178 39.5925 10.9584 39.2656 10.9178 38.8377C10.8772 38.4097 11.1687 38.0211 11.5909 37.9403L31.4994 34.1299C32.7588 32.6892 33.6324 30.8615 34.4636 29.1227C34.5692 28.9018 34.6741 28.6823 34.7791 28.4652C35.2711 27.4473 35.7805 26.4513 36.3736 25.7104C36.9737 24.9609 37.7673 24.3398 38.8394 24.3398C39.9421 24.3398 40.7366 25.0458 41.3034 25.7884C41.8661 26.5253 42.3439 27.4826 42.7761 28.3484L42.7957 28.3876C43.2537 29.3052 43.6653 30.1235 44.1199 30.7207C44.5792 31.3239 44.9402 31.5129 45.2519 31.5129C45.2806 31.5129 45.309 31.5143 45.337 31.5172C45.365 31.5143 45.3934 31.5129 45.4222 31.5129C45.7339 31.5129 46.0949 31.3239 46.5542 30.7207C47.0088 30.1235 47.4204 29.3052 47.8785 28.3876L47.898 28.3484C48.3302 27.4826 48.808 26.5253 49.3707 25.7884C49.9375 25.0458 50.732 24.3398 51.8348 24.3398C52.9068 24.3398 53.7005 24.9609 54.3005 25.7104C54.8936 26.4513 55.403 27.4473 55.895 28.4652C56 28.6823 56.1049 28.9018 56.2105 29.1227C57.1317 31.0499 58.1052 33.0864 59.5981 34.584C61.3265 36.3179 62.6552 37.1252 63.8384 37.52C65.0347 37.9192 66.1535 37.9255 67.5881 37.9255H70.4256C70.8859 37.9255 71.2591 38.2986 71.2591 38.759C71.2591 39.2193 70.8859 39.5925 70.4256 39.5925L67.5364 39.5925C66.1513 39.5926 64.7832 39.5926 63.3108 39.1013C61.807 38.5995 60.2642 37.6135 58.4174 35.7609C56.709 34.047 55.6095 31.7388 54.7075 29.8453C54.6005 29.6207 54.4963 29.402 54.3942 29.1907C53.8946 28.1572 53.4583 27.3259 52.9991 26.7523C52.5469 26.1874 52.1814 26.0069 51.8348 26.0069C51.5188 26.0069 51.1556 26.1975 50.6957 26.7999C50.24 27.3968 49.8279 28.2149 49.37 29.1322L49.346 29.1803C48.9152 30.0433 48.4395 30.9964 47.8806 31.7305C47.3159 32.4722 46.5235 33.1799 45.4222 33.1799C45.3972 33.1799 45.3724 33.1788 45.348 33.1766L32.352 35.664ZM33.9235 33.6659L42.9577 31.9368C42.901 31.8687 42.8463 31.7998 42.7935 31.7305C42.2346 30.9964 41.7589 30.0433 41.3281 29.1803L41.3041 29.1322C40.8463 28.2149 40.4341 27.3968 39.9784 26.7999C39.5185 26.1975 39.1553 26.0069 38.8394 26.0069C38.4927 26.0069 38.1272 26.1874 37.675 26.7523C37.2158 27.3259 36.7795 28.1572 36.2799 29.1907C36.1778 29.402 36.0736 29.6207 35.9666 29.8453C35.3983 31.0384 34.7516 32.396 33.9235 33.6659ZM20.5365 37.9255H23.086C24.5206 37.9255 25.6394 37.9192 26.8357 37.52C27.5363 37.2862 28.2878 36.9079 29.1432 36.2782L20.5365 37.9255Z" fill="#3CABFF"/>
<path d="M6.25781 51.5159H7.00689L7.75597 49.8475H11.5014L12.171 51.5159H12.9201L10.0032 44.5926H9.25413L6.25781 51.5159ZM9.58327 45.3417L11.2517 49.2574H7.92622L9.58327 45.3417ZM21.1713 51.5159H21.9204V44.5926H21.2508L18.2544 48.2586L15.1673 44.5926H14.4977V51.4251H15.2468V45.6709L18.0842 49.0871H18.2544L21.0919 45.6709C21.1713 45.6709 21.1713 51.5159 21.1713 51.5159ZM25.4274 48.0883C25.4274 47.0101 26.1765 46.1702 27.3455 46.1702C28.1741 46.1702 28.7643 46.4994 29.1842 46.8399L29.9333 45.5914C29.1842 44.9218 28.3443 44.5926 27.1866 44.5926C25.0983 44.5926 23.6001 46.0908 23.6001 48.0883C23.6001 50.0859 25.1891 51.584 27.1866 51.584C28.2649 51.584 29.1842 51.2549 29.9333 50.5853L29.2636 49.3368C28.8437 49.6659 28.2649 50.0064 27.425 50.0064C26.256 50.0064 25.4274 49.0985 25.4274 48.0883ZM36.5161 51.5159H38.2639V44.5926H36.5161V47.2598H33.2587V44.5926H31.5109V51.4251H33.2587V48.758H36.5047V51.5159H36.5161ZM39.433 51.5159H41.1808L41.6802 50.2675H44.5176L44.9376 51.5159H46.6854L44.0977 44.6834H42.1001C42.1001 44.5926 39.433 51.5159 39.433 51.5159ZM43.0989 46.3405L44.0977 49.0077H42.1001C42.0093 49.0077 43.0989 46.3405 43.0989 46.3405ZM47.8431 51.5159H49.6023V49.0985H50.3514L52.4397 51.5159H54.2784V51.1868L52.2808 48.9396C53.2001 48.6899 53.9492 47.9408 53.9492 46.8512C53.9492 45.3531 52.871 44.5132 51.282 44.5132H47.9452C47.9339 44.5132 47.8431 51.5159 47.8431 51.5159ZM51.1004 46.0908C51.6793 46.0908 52.0198 46.3405 52.0198 46.9193C52.0198 47.4187 51.6906 47.7478 51.1004 47.7478H49.6023V46L51.1004 46.0908ZM60.6796 46.0908V44.5926H54.8458V46.0908H56.9342V51.5046H58.682V46.0908H60.6796ZM61.8486 51.0166C62.2686 51.2663 63.3468 51.5954 64.3455 51.5954C66.0934 51.5954 67.183 50.6761 67.183 49.3482C67.183 48.4288 66.6041 47.7592 65.3443 47.4301L64.1753 47.1009C63.7554 46.9307 63.5057 46.8512 63.5057 46.5221C63.5057 46.1929 63.7554 45.9432 64.425 45.9432C65.1741 45.9432 65.9232 46.1929 66.5133 46.5221L67.0127 45.1034C66.4339 44.8537 65.5146 44.604 64.5158 44.604C62.6771 44.604 61.7692 45.5233 61.7692 46.6923C61.7692 47.6116 62.348 48.2813 63.517 48.531L64.686 48.8601C65.2649 49.0304 65.4351 49.1098 65.4351 49.5297C65.4351 49.9497 65.0152 50.1994 64.3569 50.1994C63.5284 50.1994 62.6885 49.8702 62.1891 49.4503C62.1778 49.4276 61.8486 51.0166 61.8486 51.0166Z" fill="white"/>
</svg>
