<svg width="74" height="74" viewBox="0 0 74 74" fill="none" xmlns="http://www.w3.org/2000/svg">
<path d="M8 16.2762L36.6142 6L65.9986 16.0936L61.2409 54.2527L36.6142 68L12.3726 54.4354L8 16.2762Z" fill="#E23237"/>
<path d="M66.0016 16.0936L36.6172 6V68L61.2439 54.2755L66.0016 16.0936Z" fill="#B52E31"/>
<path d="M36.6582 13.2393L18.8281 53.2253L25.4889 53.1111L29.0685 44.0908H36.6808H36.7035H45.0634L48.9829 53.2253L55.3491 53.3394L36.6582 13.2393ZM36.7035 26.0503L42.7299 38.7472H36.9527H36.6582H31.402L36.7035 26.0503Z" fill="white"/>
<circle cx="62" cy="14" r="10" fill="#222222" stroke="#B52E31" stroke-width="2"/>
<path d="M59.3325 18V12.8182C59.3325 12.5818 59.3325 12.3409 59.3325 12.0955C59.3415 11.8409 59.346 11.5818 59.346 11.3182C59.0477 11.5909 58.7177 11.8318 58.3561 12.0409C57.9945 12.2409 57.6148 12.3773 57.217 12.45L57 10.5136C57.2351 10.4955 57.4837 10.4364 57.7458 10.3364C58.0171 10.2364 58.2838 10.1136 58.5459 9.96818C58.8081 9.82273 59.0432 9.66818 59.2511 9.50455C59.459 9.33182 59.6173 9.16364 59.7257 9H61.5836V18H59.3325Z" fill="white"/>
<path d="M64.7489 18V12.8182C64.7489 12.5818 64.7489 12.3409 64.7489 12.0955C64.7579 11.8409 64.7625 11.5818 64.7625 11.3182C64.4641 11.5909 64.1341 11.8318 63.7725 12.0409C63.4109 12.2409 63.0312 12.3773 62.6334 12.45L62.4164 10.5136C62.6515 10.4955 62.9001 10.4364 63.1623 10.3364C63.4335 10.2364 63.7002 10.1136 63.9624 9.96818C64.2245 9.82273 64.4596 9.66818 64.6675 9.50455C64.8755 9.33182 65.0337 9.16364 65.1422 9H67V18H64.7489Z" fill="white"/>
</svg>
