<svg width="74" height="74" viewBox="0 0 74 74" fill="none" xmlns="http://www.w3.org/2000/svg">
<path d="M5 14.2707L36.575 3L69 14.0703L63.75 55.9223L36.575 71L9.825 56.1226L5 14.2707Z" fill="#CCCCCC"/>
<path d="M8 16.2762L36.6142 6L65.9986 16.0936L61.2409 54.2527L36.6142 68L12.3726 54.4354L8 16.2762Z" fill="#E23237"/>
<path d="M66.0016 16.0936L36.6172 6V68L61.2439 54.2755L66.0016 16.0936Z" fill="#B52E31"/>
<path d="M36.6582 13.2393L18.8281 53.2253L25.4889 53.1111L29.0685 44.0908H36.6808H36.7035H45.0634L48.9829 53.2253L55.3491 53.3394L36.6582 13.2393ZM36.7035 26.0503L42.7299 38.7472H36.9527H36.6582H31.402L36.7035 26.0503Z" fill="white"/>
<path d="M48.981 53.2253L45.0615 44.0908H36.6562V38.7472H42.728L36.7016 26.0503L36.6562 13.2393L55.3472 53.3394L48.981 53.2253Z" fill="#CCCCCC"/>
</svg>
