<svg width="74" height="74" viewBox="0 0 74 74" fill="none" xmlns="http://www.w3.org/2000/svg">
<path d="M20.8567 31.0722C20.8377 31.8117 20.9289 32.55 21.1274 33.2626C21.3461 33.8719 21.6093 34.4641 21.915 35.0347C22.0245 35.2034 22.0842 35.3996 22.0873 35.6007C22.0714 35.7515 22.021 35.8966 21.9399 36.0246C21.8588 36.1527 21.7492 36.2603 21.6197 36.3391L20.0691 37.3728C19.8821 37.5076 19.6596 37.5846 19.4292 37.5943C19.1489 37.575 18.8857 37.4522 18.6909 37.2497C18.3592 36.8933 18.0625 36.506 17.8049 36.093C17.5587 35.6746 17.3126 35.207 17.0419 34.6409C15.1222 36.9052 12.7103 38.0373 9.80609 38.0373C7.73871 38.0373 6.08973 37.4466 4.88376 36.2653C3.67779 35.0839 3.0625 33.5088 3.0625 31.5398C3.0625 29.4478 3.80085 27.7496 5.30216 26.4698C6.80347 25.19 8.79701 24.5501 11.332 24.5501C12.205 24.5572 13.0766 24.623 13.9408 24.747C14.8515 24.8701 15.7867 25.067 16.7712 25.2885V23.4918C16.7712 21.6213 16.3774 20.3169 15.6144 19.554C14.8515 18.791 13.4978 18.4218 11.6027 18.4218C10.7071 18.4218 9.81471 18.5292 8.94468 18.7418C8.03994 18.9573 7.15168 19.237 6.28662 19.5786C6.00674 19.7038 5.71899 19.8107 5.42522 19.8985C5.29782 19.9405 5.16539 19.9654 5.03143 19.9724C4.68687 19.9724 4.51459 19.7262 4.51459 19.2094V18.0034C4.48819 17.7057 4.548 17.4067 4.68687 17.142C4.87253 16.9177 5.10869 16.7406 5.37599 16.6252C6.36312 16.1367 7.40384 15.765 8.47706 15.5177C9.73116 15.1959 11.0218 15.0387 12.3165 15.05C15.2453 15.05 17.3865 15.7145 18.7647 17.0436C20.143 18.3726 20.8075 20.3908 20.8075 23.098V31.0722H20.8567ZM10.8644 34.8132C11.7278 34.8037 12.5839 34.6541 13.3994 34.3702C14.3027 34.0579 15.1087 33.5149 15.7375 32.795C16.1342 32.3415 16.4206 31.8024 16.5743 31.2199C16.7434 30.5189 16.826 29.7998 16.8204 29.0787V28.045C16.0741 27.8633 15.3181 27.7236 14.5561 27.6266C13.7888 27.5291 13.0161 27.4798 12.2426 27.4789C10.5937 27.4789 9.38769 27.7989 8.5755 28.4634C7.76332 29.1279 7.36953 30.0631 7.36953 31.2937C7.36953 32.4505 7.66487 33.3119 8.28017 33.9025C8.89546 34.4932 9.73225 34.8132 10.8644 34.8132ZM30.6275 37.4712C30.2962 37.5053 29.9639 37.4178 29.6923 37.2251C29.4347 36.959 29.2558 36.6268 29.1754 36.2653L23.3917 17.2405C23.2796 16.9221 23.2052 16.5917 23.1702 16.256C23.1581 16.1745 23.1648 16.0914 23.1898 16.0129C23.2148 15.9345 23.2575 15.8628 23.3145 15.8034C23.3715 15.7439 23.4414 15.6984 23.5188 15.6702C23.5962 15.642 23.679 15.6319 23.7609 15.6407H26.1728C26.6404 15.6407 26.9604 15.7145 27.1327 15.8868C27.3049 16.0591 27.4772 16.3791 27.6249 16.8467L31.7597 33.1396L35.5991 16.8467C35.7221 16.3544 35.8698 16.0345 36.0667 15.8868C36.362 15.7061 36.7056 15.6202 37.0512 15.6407H39.0201C39.4877 15.6407 39.8077 15.7145 40.0045 15.8868C40.2619 16.1465 40.4263 16.4839 40.4722 16.8467L44.3608 33.3365L48.6186 16.8467C48.6968 16.4895 48.8664 16.1588 49.1108 15.8868C49.3968 15.7056 49.7328 15.6194 50.0707 15.6407H52.3596C52.4431 15.6293 52.528 15.6374 52.6079 15.6643C52.6877 15.6911 52.7603 15.7361 52.8199 15.7957C52.8794 15.8553 52.9244 15.9278 52.9513 16.0077C52.9782 16.0875 52.9863 16.1725 52.9749 16.256C52.9691 16.3884 52.9526 16.5201 52.9257 16.6498C52.8871 16.8597 52.8294 17.0657 52.7534 17.2651L46.822 36.2899C46.6743 36.7821 46.502 37.102 46.3051 37.2497C46.0269 37.4278 45.6997 37.5139 45.3699 37.4958H43.2533C42.7857 37.4958 42.4657 37.422 42.2688 37.2497C42.0118 36.9799 41.848 36.6349 41.8012 36.2653L37.9864 20.3908L34.1962 36.2406C34.1386 36.607 33.9762 36.9489 33.7286 37.2251C33.4381 37.417 33.0907 37.5039 32.7441 37.4712H30.6275ZM62.2535 38.1357C60.9771 38.1371 59.7049 37.9884 58.4633 37.6927C57.2327 37.3974 56.2728 37.0774 55.6329 36.7083C55.3162 36.5589 55.0507 36.3191 54.87 36.0191C54.7742 35.8019 54.7239 35.5674 54.7223 35.33V34.0748C54.7223 33.558 54.9192 33.3119 55.2884 33.3119C55.4391 33.3123 55.5887 33.3373 55.7314 33.3857C55.879 33.4349 56.1005 33.5334 56.3467 33.6318C57.216 34.0142 58.1235 34.3029 59.0539 34.4932C60.0179 34.6889 60.9991 34.7878 61.9827 34.7886C63.5333 34.7886 64.7392 34.5178 65.576 33.9764C65.9768 33.7344 66.3064 33.3906 66.5312 32.9799C66.756 32.5692 66.868 32.1063 66.8558 31.6383C66.8645 31.3214 66.8102 31.006 66.6961 30.7103C66.5821 30.4146 66.4105 30.1444 66.1913 29.9155C65.7483 29.4478 64.9115 29.0294 63.7055 28.6356L60.1369 27.5281C58.3402 26.9621 57.0112 26.1253 56.199 25.0177C55.4067 23.9963 54.9741 22.7417 54.9684 21.4491C54.9485 20.4961 55.1776 19.5545 55.6329 18.7172C56.0724 17.9254 56.6767 17.2372 57.405 16.699C58.1721 16.1184 59.0398 15.6846 59.9646 15.4192C60.9722 15.1289 62.0171 14.9879 63.0656 15.0008C63.6169 14.9968 64.1678 15.0297 64.7146 15.0993C65.2807 15.1731 65.7975 15.2715 66.3144 15.37C66.8312 15.4684 67.2742 15.6161 67.7172 15.7638C68.0763 15.8749 68.4228 16.0233 68.7509 16.2068C69.0407 16.3529 69.2933 16.5634 69.4893 16.8221C69.6493 17.0616 69.7271 17.3467 69.7108 17.6343V18.791C69.7108 19.3078 69.5139 19.5786 69.1447 19.5786C68.8168 19.5413 68.4993 19.441 68.2095 19.2832C66.7221 18.6258 65.11 18.2983 63.484 18.3234C62.0812 18.3234 60.9736 18.5449 60.2107 19.0125C59.4477 19.4801 59.0539 20.1939 59.0539 21.2029C59.0472 21.5298 59.1094 21.8543 59.2366 22.1554C59.3639 22.4566 59.5532 22.7274 59.7923 22.9504C60.2845 23.418 61.1952 23.8856 62.4996 24.304L65.9944 25.4115C67.7665 25.9776 69.0463 26.7652 69.8092 27.7742C70.5605 28.7643 70.959 29.9772 70.9414 31.2199C70.954 32.2084 70.7349 33.1862 70.3015 34.0748C69.8648 34.9172 69.252 35.6558 68.5048 36.2406C67.6923 36.873 66.7644 37.3411 65.7729 37.6189C64.6329 37.9695 63.4461 38.1438 62.2535 38.1357Z" fill="#252F3E"/>
<path d="M66.9023 50.0973C58.805 56.0779 47.0407 59.2528 36.9253 59.2528C22.749 59.2528 9.97559 54.0106 0.327831 45.2981C-0.435129 44.6089 0.253996 43.6737 1.16463 44.2151C11.6 50.2696 24.4718 53.9367 37.7867 53.9367C47.3827 53.8859 56.8747 51.9456 65.7209 48.2268C67.0746 47.6115 68.2313 49.1129 66.9023 50.0973ZM70.2741 46.2579C69.2404 44.9289 63.432 45.618 60.7986 45.938C60.011 46.0364 59.888 45.3473 60.6017 44.8304C65.2287 41.5817 72.8337 42.5169 73.7197 43.5999C74.6057 44.6828 73.4736 52.3124 69.1419 55.9549C68.4774 56.521 67.8375 56.2256 68.1329 55.4873C69.1173 53.0507 71.3078 47.5623 70.2741 46.2579Z" fill="#FF9900"/>
</svg>
