<svg width="569" height="417" viewBox="0 0 569 417" fill="none" xmlns="http://www.w3.org/2000/svg">
<g clip-path="url(#clip0_10114_7279)">
<path d="M133.676 224.794L128.016 221.647L178.046 107.387C178.816 105.629 180.706 104.9 182.266 105.769C183.826 106.638 184.466 108.765 183.696 110.523L133.666 224.784L133.676 224.794Z" fill="#252525"/>
<path d="M134.152 226.202L126.742 222.087L177.132 106.988C177.632 105.849 178.552 104.98 179.652 104.611C180.692 104.261 181.792 104.361 182.762 104.9C184.762 106.009 185.602 108.716 184.632 110.933L134.162 226.202H134.152ZM129.302 221.218L133.202 223.385L182.792 110.124C183.352 108.846 182.892 107.248 181.792 106.638C181.322 106.379 180.792 106.329 180.302 106.498C179.722 106.698 179.252 107.148 178.972 107.787L129.312 221.218H129.302Z" fill="#E3E3E3"/>
<path d="M228.514 224.796L234.174 221.649L183.914 106.86C183.144 105.102 181.254 104.373 179.694 105.242C178.134 106.111 177.494 108.238 178.264 109.996L228.524 224.786L228.514 224.796Z" fill="#252525"/>
<path d="M228.041 226.204L177.341 110.406C176.371 108.188 177.211 105.482 179.201 104.373C180.171 103.834 181.271 103.734 182.311 104.083C183.411 104.453 184.331 105.322 184.831 106.461L235.451 222.089L228.031 226.204H228.041ZM181.091 105.881C180.781 105.881 180.471 105.961 180.181 106.121C179.081 106.73 178.621 108.328 179.181 109.607L229.001 223.388L232.901 221.22L183.001 107.26C182.721 106.63 182.251 106.171 181.671 105.971C181.481 105.911 181.281 105.871 181.091 105.871V105.881Z" fill="#E3E3E3"/>
<path d="M304.676 195.831L299.016 192.684L349.046 78.4242C349.816 76.6663 351.706 75.9372 353.266 76.8062C354.826 77.6751 355.466 79.8025 354.696 81.5604L304.666 195.821L304.676 195.831Z" fill="#252525"/>
<path d="M305.152 197.239L297.742 193.124L348.132 78.025C348.632 76.8864 349.552 76.0174 350.652 75.6479C351.692 75.2983 352.792 75.3982 353.762 75.9375C355.762 77.0462 356.602 79.7528 355.632 81.9701L305.162 197.239H305.152ZM300.302 192.255L304.202 194.423L353.792 81.1611C354.352 79.8827 353.892 78.2846 352.792 77.6754C352.322 77.4157 351.792 77.3658 351.302 77.5356C350.722 77.7353 350.252 78.1848 349.972 78.824L300.312 192.255H300.302Z" fill="#E3E3E3"/>
<path d="M399.514 195.831L405.174 192.685L354.914 77.8949C354.144 76.137 352.254 75.4079 350.694 76.2769C349.134 77.1458 348.494 79.2732 349.264 81.0311L399.524 195.821L399.514 195.831Z" fill="#252525"/>
<path d="M399.041 197.239L348.341 81.4408C347.371 79.2236 348.211 76.5169 350.201 75.4082C351.171 74.8689 352.271 74.769 353.311 75.1186C354.411 75.4881 355.331 76.3571 355.831 77.4957L406.451 193.124L399.031 197.239H399.041ZM352.091 76.9164C351.781 76.9164 351.471 76.9963 351.181 77.1561C350.081 77.7653 349.621 79.3634 350.181 80.6418L400.001 194.423L403.901 192.255L354.001 78.2947C353.721 77.6655 353.251 77.206 352.671 77.0063C352.481 76.9463 352.281 76.9064 352.091 76.9064V76.9164Z" fill="#E3E3E3"/>
<path d="M355.471 153.703L343.491 159.686V168.765L332.991 164.929L323.711 169.554V176.016L315.461 173.679L308.071 177.364V182.208L301.421 180.69L295.391 183.706V268.643L301.421 271.649V271.549L308.071 270.031V274.975L315.461 278.66V278.69L323.711 276.343V282.785L332.991 287.42V287.44L343.491 283.604V292.663L355.471 298.646L415.581 268.623V183.716L355.471 153.703Z" fill="#252525"/>
<path d="M318.844 264.785L305.984 267.712V184.523L318.844 187.46V264.785Z" fill="#F68635"/>
<path d="M334.894 269.701L318.844 274.256V178.113L334.894 182.658V269.701Z" fill="#F68635"/>
<path d="M355.471 274.744L334.891 282.265V170.092L355.471 177.613V274.744Z" fill="#F68635"/>
<path d="M410.509 265.046L355.469 292.532V159.814L410.509 187.301V265.046Z" fill="#F68635"/>
<path d="M344.5 165.288L355.47 159.805V292.522L344.5 287.039V165.278" fill="#9E5125"/>
<path d="M326.391 174.337L334.881 170.092V282.245L326.391 278V174.327" fill="#9E5125"/>
<path d="M312.07 181.489L318.84 178.113V274.236L312.07 270.86V181.489Z" fill="#9E5125"/>
<path d="M305.981 184.525L300.461 187.282V265.057L305.981 267.814V184.535" fill="#9E5125"/>
<path d="M235.2 220.919L186.69 192.764H186.28H181.16H180.73H177.27H175.2L126.69 220.919L126 222.108V283.652L126.69 284.841L180.73 315.793H181.16L235.2 284.841L235.89 283.652V222.108L235.2 220.919Z" fill="#252525"/>
<path d="M170.789 236.681H175.45V250.411L188.871 236.681H195.024L180.297 251.808L195.955 269.264H189.99L175.45 252.973V269.264H170.789V236.681Z" fill="url(#paint0_linear_10114_7279)"/>
<path d="M185.408 223.749L208.361 236.985C208.752 237.211 208.994 237.629 208.994 238.08V264.552C208.994 265.004 209.236 265.421 209.628 265.647L230.111 277.459C230.955 277.947 232.01 277.337 232.01 276.365V224.806C232.01 224.355 231.769 223.938 231.378 223.712L186.674 197.933C185.83 197.447 184.773 198.055 184.773 199.029V222.654C184.773 223.105 185.015 223.523 185.408 223.749Z" fill="url(#paint1_linear_10114_7279)"/>
<path d="M205.142 271.188L182.189 284.424C181.798 284.651 181.314 284.651 180.923 284.424L154.766 269.341C154.375 269.115 154.132 268.697 154.132 268.246V238.08C154.132 237.628 154.375 237.211 154.766 236.985L177.72 223.748C178.112 223.522 178.354 223.105 178.354 222.654V199.029C178.354 198.056 177.298 197.448 176.453 197.934L131.75 223.713C131.358 223.939 131.117 224.356 131.117 224.807V281.519C131.117 281.969 131.358 282.387 131.75 282.614L180.923 310.969C181.314 311.195 181.798 311.195 182.189 310.969L226.892 285.191C227.737 284.704 227.737 283.487 226.892 283.001L206.409 271.188C206.016 270.962 205.534 270.962 205.142 271.188Z" fill="url(#paint2_linear_10114_7279)"/>
<path d="M51.5781 65.3686L51.7882 65.4961V65.3686H51.5781Z" fill="#5267B0"/>
<path d="M51.4922 65.369L51.7882 65.5488V65.4965L51.5782 65.369H51.4922Z" fill="#5267B0"/>
<path d="M51.4062 65.3695L51.7883 65.6016V65.5493L51.4923 65.3695H51.4062Z" fill="#5266AF"/>
<path d="M51.3203 65.368L51.7884 65.6523V65.6L51.4063 65.368H51.3203Z" fill="#5166AF"/>
<path d="M51.2344 65.3688L51.7885 65.7051V65.6532L51.3204 65.3688H51.2344Z" fill="#5165AF"/>
<path d="M51.1484 65.3693L51.789 65.7578V65.7055L51.2349 65.3693H51.1484Z" fill="#5164AE"/>
<path d="M51.0625 65.3677L51.789 65.8086V65.7563L51.1485 65.3677H51.0625Z" fill="#5164AE"/>
<path d="M50.9766 65.3682L51.7891 65.8613V65.809L51.0626 65.3682H50.9766Z" fill="#5163AE"/>
<path d="M50.8906 65.3686L51.7892 65.9141V65.8618L50.9766 65.3686H50.8906Z" fill="#5063AD"/>
<path d="M50.8047 65.3671L51.7892 65.9648V65.9125L50.8907 65.3671H50.8047Z" fill="#5062AD"/>
<path d="M50.7422 65.3829L51.7907 66.0195V65.9672L50.8062 65.3695H50.7422V65.3829Z" fill="#5062AD"/>
<path d="M50.7422 65.4337L51.7907 66.0703V66.018L50.7422 65.3814V65.4337Z" fill="#5061AC"/>
<path d="M50.7422 65.4864L51.7907 66.123V66.0708L50.7422 65.4341V65.4864Z" fill="#5060AC"/>
<path d="M50.7422 65.5396L51.7907 66.1758V66.1239L50.7422 65.4873V65.5396Z" fill="#4F60AC"/>
<path d="M50.7422 65.5904L51.7907 66.2266V66.1743L50.7422 65.5381V65.5904Z" fill="#4F5FAB"/>
<path d="M50.7422 65.6431L51.7907 66.2793V66.227L50.7422 65.5908V65.6431Z" fill="#4F5FAB"/>
<path d="M50.7422 65.6958L51.7907 66.332V66.2797L50.7422 65.6435V65.6958Z" fill="#4F5EAB"/>
<path d="M50.7422 65.7466L51.7907 66.3828V66.3305L50.7422 65.6943V65.7466Z" fill="#4F5EAA"/>
<path d="M50.7422 65.7993L51.7907 66.4355V66.3833L50.7422 65.747V65.7993Z" fill="#4E5DAA"/>
<path d="M50.7422 65.8516L51.7907 66.4883V66.436L50.7422 65.7998V65.8516Z" fill="#4E5CA9"/>
<path d="M50.7422 65.9044L51.7907 66.541V66.4887L50.7422 65.8521V65.9044Z" fill="#4E5CA9"/>
<path d="M50.7422 65.9571L51.7907 66.5938V66.5415L50.7422 65.9048V65.9571Z" fill="#4E5BA9"/>
<path d="M50.7422 66.0083L51.7907 66.6445V66.5927L50.7422 65.956V66.0083Z" fill="#4D5BA8"/>
<path d="M50.7422 66.0611L51.7907 66.6973V66.645L50.7422 66.0088V66.0611Z" fill="#4D5AA8"/>
<path d="M50.7422 66.1124L51.7544 66.7266H51.7907V66.6963L50.7422 66.0601V66.1124Z" fill="#4D59A8"/>
<path d="M50.7422 66.1647L51.6684 66.7266H51.7544L50.7422 66.1124V66.1647Z" fill="#4D59A7"/>
<path d="M50.7422 66.217L51.582 66.7266H51.6684L50.7422 66.1647V66.217Z" fill="#4D58A7"/>
<path d="M50.7422 66.2689L51.4959 66.7266H51.582L50.7422 66.217V66.2689Z" fill="#4C58A7"/>
<path d="M50.7422 66.3212L51.4099 66.7266H51.4959L50.7422 66.2689V66.3212Z" fill="#4C57A6"/>
<path d="M50.7422 66.3735L51.3239 66.7266H51.4099L50.7422 66.3212V66.3735Z" fill="#4C56A6"/>
<path d="M50.7422 66.4257L51.2379 66.7266H51.3239L50.7422 66.3735V66.4257Z" fill="#4C56A5"/>
<path d="M50.7422 66.478L51.1515 66.7266H51.2379L50.7422 66.4257V66.478Z" fill="#4C55A5"/>
<path d="M50.7422 66.5303L51.0655 66.7266H51.1515L50.7422 66.478V66.5303Z" fill="#4B55A5"/>
<path d="M50.7422 66.5826L50.9795 66.7266H51.0655L50.7422 66.5303V66.5826Z" fill="#4B54A4"/>
<path d="M50.7422 66.6349L50.8935 66.7266H50.9795L50.7422 66.5826V66.6349Z" fill="#4B53A4"/>
<path d="M50.7422 66.6872L50.8075 66.7266H50.8935L50.7422 66.6349V66.6872Z" fill="#4B53A4"/>
<path d="M50.8075 66.7266L50.7422 66.6872V66.7266H50.8075Z" fill="#4B52A3"/>
<path d="M53.1484 65.0069L53.2911 65.0898V65.0069H53.1484Z" fill="#5267B0"/>
<path d="M52.9375 65.0069L53.2884 65.2109V65.0899L53.1458 65.0069H52.9375Z" fill="#5267B0"/>
<path d="M52.7266 65.0074L53.2858 65.332V65.2114L52.9349 65.0074H52.7266Z" fill="#5266AF"/>
<path d="M52.5234 65.0075L53.291 65.4531V65.3321L52.7318 65.0075H52.5234Z" fill="#5166AF"/>
<path d="M52.3125 65.0076L53.2884 65.5742V65.4532L52.5208 65.0076H52.3125Z" fill="#5165AF"/>
<path d="M52.1016 65.0077L53.2854 65.6953V65.5743L52.3095 65.0077H52.1016Z" fill="#5164AE"/>
<path d="M51.8984 65.0058L53.2906 65.8145V65.6934L52.1068 65.0058H51.8984Z" fill="#5164AE"/>
<path d="M51.6875 65.007L53.2879 65.9355V65.8147L51.8958 65.007H51.6875Z" fill="#5163AE"/>
<path d="M51.4766 65.0077L53.2853 66.0566V65.9362L51.6849 65.0077H51.4766Z" fill="#5063AD"/>
<path d="M51.3203 65.0344L53.2886 66.1758V66.0549L51.4798 65.0059H51.3203V65.0344Z" fill="#5062AD"/>
<path d="M51.3203 65.157L53.2886 66.2988V66.178L51.3203 65.0366V65.157Z" fill="#5062AD"/>
<path d="M51.3203 65.2762L53.2886 66.418V66.2971L51.3203 65.1553V65.2762Z" fill="#5061AC"/>
<path d="M51.3203 65.3973L53.2886 66.5391V66.4182L51.3203 65.2764V65.3973Z" fill="#5060AC"/>
<path d="M51.3203 65.5184L53.2886 66.6602V66.5393L51.3203 65.3975V65.5184Z" fill="#4F60AC"/>
<path d="M51.3203 65.6395L53.2886 66.7812V66.6604L51.3203 65.5186V65.6395Z" fill="#4F5FAB"/>
<path d="M51.3203 65.761L53.2886 66.9023V66.7819L51.3203 65.6401V65.761Z" fill="#4F5FAB"/>
<path d="M51.3203 65.8821L53.2886 67.0234V66.9026L51.3203 65.7612V65.8821Z" fill="#4F5EAB"/>
<path d="M51.3203 66.0027L53.2886 67.1445V67.0237L51.3203 65.8823V66.0027Z" fill="#4F5EAA"/>
<path d="M51.3203 66.1239L53.2886 67.2656V67.1448L51.3203 66.003V66.1239Z" fill="#4E5DAA"/>
<path d="M51.3203 66.2449L53.2886 67.3867V67.2659L51.3203 66.1241V66.2449Z" fill="#4E5CA9"/>
<path d="M51.3203 66.3641L53.2886 67.5059V67.385L51.3203 66.2432V66.3641Z" fill="#4E5CA9"/>
<path d="M51.3203 66.4852L53.2886 67.627V67.5061L51.3203 66.3643V66.4852Z" fill="#4E5BA9"/>
<path d="M51.3203 66.6047L53.2886 67.7461V67.6257L51.3203 66.4839V66.6047Z" fill="#4D5BA8"/>
<path d="M51.3203 66.7258L53.2886 67.8672V67.7463L51.3203 66.605V66.7258Z" fill="#4D5AA8"/>
<path d="M51.3203 66.8465L53.2886 67.9883V67.8674L51.3203 66.7261V66.8465Z" fill="#4D59A8"/>
<path d="M51.3203 66.9676L53.2886 68.1094V67.9885L51.3203 66.8467V66.9676Z" fill="#4D59A7"/>
<path d="M51.3203 67.0887L53.2886 68.2305V68.1096L51.3203 66.9678V67.0887Z" fill="#4D58A7"/>
<path d="M51.3203 67.2098L53.2886 68.3516V68.2307L51.3203 67.0889V67.2098Z" fill="#4C58A7"/>
<path d="M51.3203 67.3309L53.0967 68.3613H53.2886V68.3518L51.3203 67.2101V67.3309Z" fill="#4C57A6"/>
<path d="M51.3203 67.4518L52.8883 68.3613H53.0967L51.3203 67.3309V67.4518Z" fill="#4C56A6"/>
<path d="M51.3203 67.5722L52.6805 68.3613H52.8883L51.3203 67.4518V67.5722Z" fill="#4C56A5"/>
<path d="M51.3203 67.6923L52.4721 68.3613H52.6805L51.3203 67.5713V67.6923Z" fill="#4C55A5"/>
<path d="M51.3203 67.8133L52.2638 68.3613H52.4721L51.3203 67.6923V67.8133Z" fill="#4B55A5"/>
<path d="M51.3203 67.9343L52.0555 68.3613H52.2638L51.3203 67.8133V67.9343Z" fill="#4B54A4"/>
<path d="M51.3203 68.0553L51.8472 68.3613H52.0555L51.3203 67.9343V68.0553Z" fill="#4B53A4"/>
<path d="M51.3203 68.1763L51.6388 68.3613H51.8472L51.3203 68.0553V68.1763Z" fill="#4B53A4"/>
<path d="M51.3203 68.2974L51.4305 68.3613H51.6388L51.3203 68.1763V68.2974Z" fill="#4B52A3"/>
<path d="M51.4305 68.3613L51.3203 68.2974V68.3613H51.4305Z" fill="#4B52A3"/>
<path d="M51.1562 63.6211L53.1107 64.7266V63.6211H51.1562Z" fill="#5069B1"/>
<path d="M50.9609 63.623L53.1129 64.8398V64.7285L51.1585 63.623H50.9609Z" fill="#5069B1"/>
<path d="M50.7656 63.6205L53.1146 64.9492V64.8374L50.9627 63.6205H50.7656Z" fill="#5069B2"/>
<path d="M50.5625 63.622L53.109 65.0625V64.9507L50.76 63.622H50.5625Z" fill="#506AB2"/>
<path d="M50.3672 63.6215L53.1112 65.1738V65.062L50.5647 63.6215H50.3672Z" fill="#506AB2"/>
<path d="M50.1719 63.6215L53.1134 65.2852V65.1738L50.3694 63.6215H50.1719Z" fill="#506BB3"/>
<path d="M49.9766 63.623L53.1152 65.3984V65.2866L50.1736 63.623H49.9766Z" fill="#506BB3"/>
<path d="M49.7734 63.6205L53.1096 65.5078V65.396L49.971 63.6205H49.7734Z" fill="#506CB3"/>
<path d="M49.5781 63.6224L53.1118 65.6211V65.5097L49.7756 63.6224H49.5781Z" fill="#516CB4"/>
<path d="M49.3828 63.622L53.114 65.7324V65.6206L49.5803 63.622H49.3828Z" fill="#516DB4"/>
<path d="M49.1875 63.6215L53.1158 65.8438V65.7319L49.3846 63.6215H49.1875Z" fill="#516EB4"/>
<path d="M49.0859 63.6776L53.1119 65.9551V65.8433L49.1836 63.621H49.0859V63.6776Z" fill="#516EB5"/>
<path d="M49.0859 63.7913L53.1119 66.0684V65.957L49.0859 63.6795V63.7913Z" fill="#516FB5"/>
<path d="M49.0859 63.9022L53.1119 66.1797V66.0679L49.0859 63.7908V63.9022Z" fill="#516FB6"/>
<path d="M49.0859 64.0135L53.1119 66.291V66.1792L49.0859 63.9017V64.0135Z" fill="#5170B6"/>
<path d="M49.0859 64.1253L53.1119 66.4023V66.291L49.0859 64.0135V64.1253Z" fill="#5170B6"/>
<path d="M49.0859 64.2385L53.1119 66.5156V66.4038L49.0859 64.1267V64.2385Z" fill="#5271B7"/>
<path d="M49.0859 64.3494L53.1119 66.627V66.5151L49.0859 64.2381V64.3494Z" fill="#5271B7"/>
<path d="M49.0859 64.4608L53.1119 66.7383V66.6265L49.0859 64.349V64.4608Z" fill="#5272B7"/>
<path d="M49.0859 64.5725L53.1119 66.8496V66.7382L49.0859 64.4607V64.5725Z" fill="#5273B8"/>
<path d="M49.0859 64.6834L53.1119 66.9609V66.8491L49.0859 64.5721V64.6834Z" fill="#5273B8"/>
<path d="M49.0859 64.7967L53.1119 67.0742V66.9624L49.0859 64.6849V64.7967Z" fill="#5274B9"/>
<path d="M49.0859 64.908L53.1119 67.1855V67.0737L49.0859 64.7962V64.908Z" fill="#5274B9"/>
<path d="M49.0859 65.0198L53.1119 67.2969V67.1855L49.0859 64.908V65.0198Z" fill="#5275B9"/>
<path d="M49.0859 65.1307L53.1119 67.4082V67.2964L49.0859 65.0193V65.1307Z" fill="#5375BA"/>
<path d="M49.0859 65.242L53.1119 67.5195V67.4077L49.0859 65.1302V65.242Z" fill="#5376BA"/>
<path d="M49.0859 65.3538L53.1119 67.6309V67.5195L49.0859 65.242V65.3538Z" fill="#5376BA"/>
<path d="M49.0859 65.4647L53.1119 67.7422V67.6304L49.0859 65.3533V65.4647Z" fill="#5377BB"/>
<path d="M49.0859 65.578L53.1119 67.8555V67.7437L49.0859 65.4662V65.578Z" fill="#5378BB"/>
<path d="M49.0859 65.6893L53.1119 67.9668V67.855L49.0859 65.5775V65.6893Z" fill="#5378BC"/>
<path d="M49.0859 65.801L53.1119 68.0781V67.9668L49.0859 65.6892V65.801Z" fill="#5379BC"/>
<path d="M49.0859 65.9119L53.1119 68.1895V68.0776L49.0859 65.8006V65.9119Z" fill="#5379BC"/>
<path d="M49.0859 66.0233L53.1119 68.3008V68.189L49.0859 65.9115V66.0233Z" fill="#537ABD"/>
<path d="M49.0859 66.1356L53.0203 68.3613H53.1119V68.3013L49.0859 66.0238V66.1356Z" fill="#547ABD"/>
<path d="M49.0859 66.247L52.8232 68.3613H53.0203L49.0859 66.1356V66.247Z" fill="#547BBD"/>
<path d="M49.0859 66.3588L52.6257 68.3613H52.8232L49.0859 66.247V66.3588Z" fill="#547CBE"/>
<path d="M49.0859 66.4706L52.4282 68.3613H52.6257L49.0859 66.3588V66.4706Z" fill="#547CBE"/>
<path d="M49.0859 66.5824L52.2306 68.3613H52.4282L49.0859 66.4706V66.5824Z" fill="#547DBF"/>
<path d="M49.0859 66.6938L52.0336 68.3613H52.2306L49.0859 66.5824V66.6938Z" fill="#547DBF"/>
<path d="M49.0859 66.8056L51.836 68.3613H52.0336L49.0859 66.6938V66.8056Z" fill="#547EBF"/>
<path d="M49.0859 66.9174L51.6385 68.3613H51.836L49.0859 66.8056V66.9174Z" fill="#547EC0"/>
<path d="M49.0859 67.0287L51.441 68.3613H51.6385L49.0859 66.9174V67.0287Z" fill="#557FC0"/>
<path d="M49.0859 67.1406L51.2435 68.3613H51.441L49.0859 67.0287V67.1406Z" fill="#5580C1"/>
<path d="M49.0859 67.2524L51.0464 68.3613H51.2435L49.0859 67.1406V67.2524Z" fill="#5580C1"/>
<path d="M51.0464 68.3613L49.0859 67.2524V68.3613H51.0464Z" fill="#5580C1"/>
<path d="M267.25 73.4219C270.7 73.4219 273.5 76.2185 273.5 79.6642V349.085H261V79.6642C261 76.2185 263.8 73.4219 267.25 73.4219Z" fill="#252525"/>
<path d="M274.5 350.082H260V79.663C260 75.6679 263.25 72.4219 267.25 72.4219C271.25 72.4219 274.5 75.6679 274.5 79.663V350.082ZM262 348.085H272.5V79.663C272.5 76.7765 270.14 74.4194 267.25 74.4194C264.36 74.4194 262 76.7765 262 79.663V348.085Z" fill="#E3E3E3"/>
<path d="M415.841 77.4252C419.249 76.8728 421.562 73.6663 421.009 70.2633C420.456 66.8603 417.246 64.5494 413.839 65.1018L123.676 112.144C120.269 112.697 117.955 115.903 118.509 119.306C119.062 122.709 122.272 125.02 125.679 124.468L415.841 77.4252Z" fill="#252525"/>
<path d="M124.65 125.536C121.16 125.536 118.07 122.999 117.5 119.454C116.86 115.508 119.55 111.783 123.5 111.144L413.66 64.1312C417.6 63.492 421.34 66.1787 421.98 70.1238C422.62 74.069 419.93 77.7945 415.98 78.4337L125.82 125.436C125.43 125.496 125.04 125.526 124.65 125.526V125.536ZM414.83 66.0289C414.55 66.0289 414.26 66.0488 413.98 66.0988L123.82 113.111C120.96 113.571 119.01 116.277 119.48 119.124C119.7 120.502 120.45 121.721 121.59 122.54C122.73 123.359 124.12 123.688 125.5 123.459L415.66 76.4361C418.52 75.9767 420.46 73.27 420 70.4235C419.78 69.0452 419.03 67.8266 417.89 67.0077C416.99 66.3584 415.92 66.0189 414.83 66.0189V66.0289Z" fill="#E3E3E3"/>
<path d="M208.75 349.082H325.75C345.07 349.082 360.75 364.743 360.75 384.039H173.75C173.75 364.743 189.43 349.082 208.75 349.082Z" fill="#252525"/>
<path d="M361.75 385.039H172.75V384.04C172.75 364.214 188.9 348.084 208.75 348.084H325.75C345.6 348.084 361.75 364.214 361.75 384.04V385.039ZM174.76 383.041H359.73C359.2 364.774 344.16 350.082 325.74 350.082H208.74C190.33 350.082 175.28 364.774 174.75 383.041H174.76Z" fill="#E3E3E3"/>
<path d="M165.75 384.043H368.75C386.41 384.043 400.75 398.365 400.75 416.004H133.75C133.75 398.365 148.09 384.043 165.75 384.043Z" fill="#252525"/>
<path d="M401.75 417.001H132.75V416.003C132.75 397.825 147.55 383.043 165.75 383.043H368.75C386.95 383.043 401.75 397.825 401.75 416.003V417.001ZM134.77 415.004H399.73C399.2 398.394 385.5 385.041 368.75 385.041H165.75C148.99 385.041 135.3 398.394 134.77 415.004Z" fill="#E3E3E3"/>
<path d="M547.859 33.2105C547.309 33.2105 546.859 32.7611 546.859 32.2118V13.9441C546.859 13.3948 547.309 12.9453 547.859 12.9453C548.409 12.9453 548.859 13.3948 548.859 13.9441V32.2118C548.859 32.7611 548.409 33.2105 547.859 33.2105Z" fill="#C0C0C0"/>
<path d="M557.001 24.0718H538.711C538.161 24.0718 537.711 23.6223 537.711 23.073C537.711 22.5237 538.161 22.0742 538.711 22.0742H557.001C557.551 22.0742 558.001 22.5237 558.001 23.073C558.001 23.6223 557.551 24.0718 557.001 24.0718Z" fill="#C0C0C0"/>
<path d="M309.859 20.2652C309.309 20.2652 308.859 19.8158 308.859 19.2664V0.998779C308.859 0.44945 309.309 0 309.859 0C310.409 0 310.859 0.44945 310.859 0.998779V19.2664C310.859 19.8158 310.409 20.2652 309.859 20.2652Z" fill="#C0C0C0"/>
<path d="M319.001 11.1265H300.711C300.161 11.1265 299.711 10.677 299.711 10.1277C299.711 9.57836 300.161 9.12891 300.711 9.12891H319.001C319.551 9.12891 320.001 9.57836 320.001 10.1277C320.001 10.677 319.551 11.1265 319.001 11.1265Z" fill="#C0C0C0"/>
<path d="M29.3624 126.087C28.5143 126.087 27.8203 125.394 27.8203 124.547V96.3761C27.8203 95.529 28.5143 94.8359 29.3624 94.8359C30.2106 94.8359 30.9045 95.529 30.9045 96.3761V124.547C30.9045 125.394 30.2106 126.087 29.3624 126.087Z" fill="#E3E3E3"/>
<path d="M43.4579 111.994H15.253C14.4049 111.994 13.7109 111.301 13.7109 110.454C13.7109 109.607 14.4049 108.914 15.253 108.914H43.4579C44.3061 108.914 45 109.607 45 110.454C45 111.301 44.3061 111.994 43.4579 111.994Z" fill="#E3E3E3"/>
<path d="M31.8594 378.855C31.3094 378.855 30.8594 378.406 30.8594 377.856V359.589C30.8594 359.039 31.3094 358.59 31.8594 358.59C32.4094 358.59 32.8594 359.039 32.8594 359.589V377.856C32.8594 378.406 32.4094 378.855 31.8594 378.855Z" fill="#C0C0C0"/>
<path d="M41.0009 369.716H22.7109C22.1609 369.716 21.7109 369.267 21.7109 368.718C21.7109 368.168 22.1609 367.719 22.7109 367.719H41.0009C41.5509 367.719 42.0009 368.168 42.0009 368.718C42.0009 369.267 41.5509 369.716 41.0009 369.716Z" fill="#C0C0C0"/>
<path d="M503.372 234C502.579 234 501.93 233.352 501.93 232.559V206.21C501.93 205.418 502.579 204.77 503.372 204.77C504.165 204.77 504.814 205.418 504.814 206.21V232.559C504.814 233.352 504.165 234 503.372 234Z" fill="#E3E3E3"/>
<path d="M516.558 220.819H490.177C489.383 220.819 488.734 220.17 488.734 219.378C488.734 218.586 489.383 217.938 490.177 217.938H516.558C517.352 217.938 518.001 218.586 518.001 219.378C518.001 220.17 517.352 220.819 516.558 220.819Z" fill="#E3E3E3"/>
<path d="M535 379.614C545.493 379.614 554 371.118 554 360.637C554 350.156 545.493 341.66 535 341.66C524.507 341.66 516 350.156 516 360.637C516 371.118 524.507 379.614 535 379.614Z" fill="#CE7783"/>
<path d="M535 380.613C523.97 380.613 515 371.654 515 360.638C515 349.621 523.97 340.662 535 340.662C546.03 340.662 555 349.621 555 360.638C555 371.654 546.03 380.613 535 380.613ZM535 342.66C525.08 342.66 517 350.73 517 360.638C517 370.546 525.08 378.616 535 378.616C544.92 378.616 553 370.546 553 360.638C553 350.73 544.92 342.66 535 342.66Z" fill="#E3E3E3"/>
<path d="M12 247.708C18.0751 247.708 23 242.789 23 236.721C23 230.653 18.0751 225.734 12 225.734C5.92487 225.734 1 230.653 1 236.721C1 242.789 5.92487 247.708 12 247.708Z" fill="#ECBE7A"/>
<path d="M12 248.705C5.38 248.705 0 243.332 0 236.72C0 230.108 5.38 224.734 12 224.734C18.62 224.734 24 230.108 24 236.72C24 243.332 18.62 248.705 12 248.705ZM12 226.732C6.49 226.732 2 231.216 2 236.72C2 242.223 6.49 246.708 12 246.708C17.51 246.708 22 242.223 22 236.72C22 231.216 17.51 226.732 12 226.732Z" fill="#E3E3E3"/>
<path d="M178.5 35.9675C187.613 35.9675 195 28.5892 195 19.4877C195 10.3861 187.613 3.00781 178.5 3.00781C169.387 3.00781 162 10.3861 162 19.4877C162 28.5892 169.387 35.9675 178.5 35.9675Z" fill="#CE7783"/>
<path d="M178.5 36.9651C168.85 36.9651 161 29.1246 161 19.4864C161 9.84822 168.85 2.00781 178.5 2.00781C188.15 2.00781 196 9.84822 196 19.4864C196 29.1246 188.15 36.9651 178.5 36.9651ZM178.5 4.00537C169.95 4.00537 163 10.9469 163 19.4864C163 28.026 169.95 34.9675 178.5 34.9675C187.05 34.9675 194 28.026 194 19.4864C194 10.9469 187.05 4.00537 178.5 4.00537Z" fill="#E3E3E3"/>
<path d="M556.5 131C562.851 131 568 125.851 568 119.5C568 113.149 562.851 108 556.5 108C550.149 108 545 113.149 545 119.5C545 125.851 550.149 131 556.5 131Z" fill="#ECBE7A"/>
<path d="M556.5 132C549.607 132 544 126.393 544 119.5C544 112.607 549.607 107 556.5 107C563.393 107 569 112.607 569 119.5C569 126.393 563.393 132 556.5 132ZM556.5 108.429C550.393 108.429 545.429 113.393 545.429 119.5C545.429 125.607 550.393 130.571 556.5 130.571C562.607 130.571 567.571 125.607 567.571 119.5C567.571 113.393 562.607 108.429 556.5 108.429Z" fill="#E3E3E3"/>
</g>
<defs>
<linearGradient id="paint0_linear_10114_7279" x1="192.297" y1="268.426" x2="172.31" y2="235.453" gradientUnits="userSpaceOnUse">
<stop stop-color="#4F66B9"/>
<stop offset="1" stop-color="#484FAB"/>
</linearGradient>
<linearGradient id="paint1_linear_10114_7279" x1="237.006" y1="273.062" x2="191.702" y2="194.963" gradientUnits="userSpaceOnUse">
<stop stop-color="#4F66B9"/>
<stop offset="1" stop-color="#484FAB"/>
</linearGradient>
<linearGradient id="paint2_linear_10114_7279" x1="191.878" y1="304.948" x2="142.483" y2="217.633" gradientUnits="userSpaceOnUse">
<stop stop-color="#4C68BB"/>
<stop offset="1" stop-color="#5180C9"/>
</linearGradient>
<clipPath id="clip0_10114_7279">
<rect width="569" height="417" fill="white"/>
</clipPath>
</defs>
</svg>
