<svg width="74" height="74" viewBox="0 0 74 74" fill="none" xmlns="http://www.w3.org/2000/svg">
<path fill-rule="evenodd" clip-rule="evenodd" d="M12.4661 25.3857C19.2831 25.3857 24.7995 30.6572 24.7995 37.1715C24.7995 43.6857 19.2831 48.9572 12.4661 48.9572C5.64918 48.9572 0.132812 43.6857 0.132812 37.1715C0.132812 30.6572 5.64918 25.3857 12.4661 25.3857Z" fill="#49494C"/>
<path d="M32.3344 31.7285C33.7247 31.7285 34.7562 32.1999 35.3841 33.1428C36.0568 34.0857 36.3707 35.4571 36.3707 37.1714C36.3707 38.2428 36.1913 39.1428 35.8774 39.9999C35.5186 40.8142 35.0253 41.4999 34.3974 41.9714C33.7695 42.4428 33.0071 42.6999 32.1101 42.6999C30.9889 42.6999 30.0919 42.3142 29.4641 41.5857V46.3428L26.5938 46.6428V32.0285H29.1501L29.2847 33.2285C29.6883 32.7142 30.1816 32.3285 30.7198 32.0714C31.2131 31.8571 31.7513 31.7285 32.3344 31.7285ZM31.258 40.5999C32.6483 40.5999 33.3659 39.4857 33.3659 37.2142C33.3659 35.9714 33.1865 35.0714 32.8725 34.5571C32.5586 34.0428 32.0653 33.7857 31.4374 33.7857C31.0786 33.7857 30.675 33.9142 30.361 34.1285C30.0022 34.3857 29.7331 34.6857 29.4641 35.0714V39.5714C29.9125 40.2571 30.4956 40.5999 31.258 40.5999Z" fill="#49494C"/>
<path d="M43.3659 31.7285C43.6798 31.7285 44.0386 31.7714 44.4423 31.8999L43.9489 34.5571C43.5901 34.4714 43.2314 34.4285 43.0071 34.4285C42.3792 34.4285 41.8859 34.6428 41.5271 35.0714C41.1683 35.4999 40.8992 36.1428 40.675 37.0428V42.3571H37.8047V32.0285H40.3162L40.5853 34.0428C40.8544 33.3142 41.2132 32.7571 41.7065 32.3285C42.155 31.9428 42.738 31.7285 43.3659 31.7285Z" fill="#49494C"/>
<path d="M54.3534 36.9571C54.3534 37.0857 54.3534 37.4285 54.3085 38.0285H47.5812C47.6709 38.9714 47.94 39.6142 48.3885 39.9999C48.837 40.3857 49.42 40.5999 50.1825 40.5999C50.6309 40.5999 51.0794 40.5142 51.4831 40.3857C51.8867 40.2571 52.3352 39.9999 52.8285 39.6999L54.0394 41.2428C52.8285 42.1857 51.4831 42.6571 49.9582 42.6571C48.254 42.6571 46.9534 42.1857 46.0564 41.1999C45.1594 40.2142 44.7109 38.9285 44.7109 37.2571C44.7109 36.1857 44.8903 35.2428 45.294 34.4285C45.6976 33.5714 46.2358 32.9285 46.9982 32.4571C47.7606 31.9857 48.6128 31.7285 49.6443 31.7285C51.1691 31.7285 52.38 32.1999 53.2322 33.0999C53.9049 34.0428 54.3534 35.2857 54.3534 36.9571ZM51.4831 36.1857C51.4831 34.4714 50.8552 33.6142 49.5546 33.6142C48.9715 33.6142 48.4782 33.8285 48.1643 34.2571C47.8503 34.6857 47.6261 35.3714 47.5364 36.3142H51.4831V36.1857Z" fill="#49494C"/>
<path d="M59.6035 31.7285C61.1283 31.7285 62.4289 32.1571 63.5053 32.9714L62.3841 34.5571C61.4871 33.9999 60.5901 33.7428 59.6932 33.7428C59.1998 33.7428 58.8411 33.8285 58.572 33.9999C58.3029 34.1714 58.1683 34.3857 58.1683 34.6857C58.1683 34.8999 58.2132 35.0714 58.3477 35.1999C58.4823 35.3285 58.6617 35.4999 59.0204 35.6285C59.3344 35.7571 59.8277 35.9285 60.4556 36.0999C61.5768 36.3999 62.4289 36.7857 63.012 37.2999C63.5501 37.8142 63.8641 38.4999 63.8641 39.3571C63.8641 40.0428 63.6398 40.6428 63.2362 41.1571C62.8326 41.6714 62.2495 42.0571 61.5768 42.3142C60.8592 42.5714 60.0968 42.6999 59.1998 42.6999C58.3029 42.6999 57.4507 42.5714 56.7332 42.3142C55.9707 42.0571 55.3429 41.6714 54.8047 41.1999L56.2398 39.6999C57.1368 40.3857 58.1235 40.7285 59.1101 40.7285C59.6483 40.7285 60.0968 40.6428 60.4107 40.4285C60.7247 40.2142 60.9041 39.9571 60.9041 39.6142C60.9041 39.3571 60.8592 39.1428 60.7247 38.9714C60.5901 38.7999 60.3659 38.6714 60.052 38.5428C59.738 38.4142 59.1998 38.2428 58.5271 38.0714C57.4507 37.7714 56.6435 37.3857 56.1053 36.8714C55.5671 36.3571 55.3429 35.7142 55.3429 34.8999C55.3429 34.2999 55.5223 33.7857 55.8811 33.3142C56.2398 32.8428 56.7332 32.4999 57.361 32.1999C57.9889 31.8571 58.7514 31.7285 59.6035 31.7285Z" fill="#49494C"/>
<path d="M69.3769 31.7285C70.9018 31.7285 72.2024 32.1571 73.2787 32.9714L72.1575 34.5571C71.2605 33.9999 70.3636 33.7428 69.4666 33.7428C68.9733 33.7428 68.6145 33.8285 68.3454 33.9999C68.0763 34.1714 67.9418 34.3857 67.9418 34.6857C67.9418 34.8999 67.9866 35.0714 68.1212 35.1999C68.2557 35.3285 68.4351 35.4999 68.7939 35.6285C69.1078 35.7571 69.6012 35.9285 70.229 36.0999C71.3502 36.3999 72.2024 36.7857 72.7854 37.2999C73.3236 37.8142 73.6375 38.4999 73.6375 39.3571C73.6375 40.0428 73.4133 40.6428 73.0096 41.1571C72.606 41.6714 72.023 42.0571 71.3502 42.3142C70.6327 42.5714 69.8702 42.6999 68.9733 42.6999C68.0763 42.6999 67.2242 42.5714 66.5066 42.3142C65.7442 42.0571 65.1163 41.6714 64.5781 41.1999L66.0133 39.6999C66.9102 40.3857 67.8969 40.7285 68.8836 40.7285C69.4218 40.7285 69.8702 40.6428 70.1842 40.4285C70.4981 40.2142 70.6775 39.9571 70.6775 39.6142C70.6775 39.3571 70.6327 39.1428 70.4981 38.9714C70.3636 38.7999 70.1393 38.6714 69.8254 38.5428C69.5115 38.4142 68.9733 38.2428 68.3005 38.0714C67.2242 37.7714 66.4169 37.3857 65.8787 36.8714C65.3405 36.3571 65.1163 35.7142 65.1163 34.8999C65.1163 34.2999 65.2957 33.7857 65.6545 33.3142C66.0133 32.8428 66.5066 32.4999 67.1345 32.1999C67.7624 31.8571 68.5248 31.7285 69.3769 31.7285Z" fill="#49494C"/>
<path fill-rule="evenodd" clip-rule="evenodd" d="M19.01 42.3579C18.5615 43.6864 17.8887 44.6722 16.9469 45.4007C16.0051 46.1293 14.7494 46.515 13.1797 46.6436L12.8657 44.6722C13.8972 44.5436 14.6597 44.3293 15.153 43.9864C15.3772 43.815 15.6912 43.4293 15.6912 43.4293L11.9688 32.0293H15.0633L17.216 40.5579L19.5033 32.0293H22.5081L19.01 42.3579Z" fill="white"/>
<path fill-rule="evenodd" clip-rule="evenodd" d="M8.20648 31.7285C8.92405 31.7285 9.59678 31.8142 10.135 32.0285C10.718 32.2428 11.2562 32.5428 11.7944 32.9714L10.5386 34.5999C10.1798 34.3428 9.82102 34.1714 9.50708 34.0428C9.19314 33.9142 8.78951 33.8714 8.43072 33.8714C6.90587 33.8714 6.14345 34.9857 6.14345 37.2571C6.14345 38.4142 6.32284 39.2285 6.72648 39.6999C7.13011 40.2142 7.6683 40.4285 8.43072 40.4285C8.78951 40.4285 9.1483 40.3857 9.46224 40.2571C9.77618 40.1285 10.135 39.9571 10.5834 39.6999L11.8392 41.4142C10.8077 42.2285 9.64163 42.6142 8.29617 42.6142C7.21981 42.6142 6.32284 42.3999 5.51557 41.9714C4.75314 41.5428 4.12527 40.8999 3.72163 40.0857C3.31799 39.2714 3.09375 38.3285 3.09375 37.2142C3.09375 36.1428 3.31799 35.1571 3.72163 34.3428C4.12527 33.4857 4.75314 32.8428 5.51557 32.3714C6.27799 31.9428 7.17496 31.7285 8.20648 31.7285Z" fill="white"/>
</svg>
