<svg width="74" height="74" viewBox="0 0 74 74" fill="none" xmlns="http://www.w3.org/2000/svg">
<path d="M19.4994 30.0215H6.60559C6.54196 30.0223 6.47929 30.0372 6.42209 30.0651C6.36488 30.093 6.31456 30.1331 6.27473 30.1828L5.44758 31.194C5.43389 31.211 5.42526 31.2314 5.42269 31.2531C5.42011 31.2747 5.4237 31.2966 5.43303 31.3163C5.44236 31.3359 5.45705 31.3526 5.47543 31.3643C5.4938 31.3759 5.5151 31.3822 5.53687 31.3823H18.7338C18.7911 31.3822 18.8474 31.368 18.8978 31.3408C18.9482 31.3136 18.991 31.2744 19.0225 31.2266L19.6406 30.279C19.6572 30.2538 19.6666 30.2245 19.6679 30.1943C19.6691 30.1641 19.662 30.1342 19.6475 30.1077C19.633 30.0812 19.6115 30.0592 19.5854 30.044C19.5593 30.0288 19.5296 30.0211 19.4994 30.0215Z" fill="#2DBCAF"/>
<path d="M17.6404 33.3195H1.30859C1.15037 33.3158 0.996693 33.3725 0.878748 33.478L0.0799797 34.5004C0.00107196 34.5758 -0.0494567 34.681 0.0758267 34.681H17.113C17.1821 34.6829 17.2509 34.67 17.3147 34.6432C17.3784 34.6163 17.4357 34.5761 17.4826 34.5253L17.8197 33.5777C17.9124 33.4662 17.8107 33.3195 17.6404 33.3195Z" fill="#2DBCAF"/>
<path d="M16.9498 36.6885H9.51028C9.46446 36.6933 9.42085 36.7107 9.38423 36.7386C9.34761 36.7666 9.31938 36.8041 9.30262 36.847L8.78211 37.861C8.74335 37.9365 8.77726 38.05 8.83887 38.05H16.6736C16.7469 38.05 16.9504 37.9911 16.9941 37.8936L17.0328 37.0588C17.0328 37.0013 17.0453 36.9453 17.0529 36.8885C17.066 36.7902 17.0197 36.6885 16.9498 36.6885Z" fill="#2DBCAF"/>
<path d="M73.9818 34.1157C73.9181 33.1245 73.2571 26.5662 65.9221 24.0882C62.8648 23.0555 59.5542 23.1427 56.4733 24.0986C48.0731 26.7032 46.0339 34.3192 46.0339 34.3192H34.8207C34.3175 34.3884 33.7783 34.2195 33.3907 35.0806L31.6097 39.0807C31.5612 39.1818 31.5374 39.2931 31.5405 39.4053C31.5495 39.5915 31.6416 39.8255 32.032 39.8794C32.7013 39.9722 39.2998 39.903 39.2998 39.903C39.2998 39.903 37.0156 43.9404 32.9546 43.7099C28.8937 43.4794 27.8097 40.2255 27.8097 40.2255C27.8097 40.2255 25.9637 36.4878 29.102 32.7044C32.1593 29.3425 35.3579 29.8616 35.9151 29.9841C35.9746 29.9973 36.0334 30.0091 36.093 30.0208C36.5083 30.1025 38.2581 30.5303 39.3932 32.1624C39.4753 32.2639 39.5845 32.3402 39.7081 32.3823C39.8316 32.4244 39.9646 32.4307 40.0916 32.4005L46.6271 30.6092C46.8348 30.551 46.7988 30.3385 46.7164 30.1572C46.0069 28.5984 42.7295 22.3654 34.5861 23.0527C34.5861 23.0527 24.6416 23.3067 20.4429 34.0008C20.4429 34.0008 17.7663 41.1648 22.5423 46.379C27.0331 51.1549 31.627 50.5721 33.1713 50.5514C33.5324 50.5468 33.8927 50.5172 34.2497 50.4628C36.4383 50.1305 42.5066 48.6867 45.8651 41.92C46.2374 44.2097 52.6483 53.8537 63.82 49.5408C74.4511 45.6868 74.04 36.0884 73.9818 34.1157ZM63.2684 42.5145C61.43 43.6677 59.1693 44.1848 57.0956 43.541C49.4214 40.9315 53.1446 29.3383 61.558 30.0187C67.8104 30.8417 68.7102 38.5346 63.2684 42.5145Z" fill="#2DBCAF"/>
</svg>
