<svg width="74" height="74" viewBox="0 0 74 74" fill="none" xmlns="http://www.w3.org/2000/svg">
<g clip-path="url(#clip0_10646_7273)">
<path d="M61.4949 36.9886C61.4949 33.7531 58.9176 31.1302 55.7383 31.1302C55.5338 31.1302 55.3321 31.1414 55.1332 31.1625L63.04 7.43066H29.4391L37.3347 31.142C37.2189 31.1349 37.1026 31.1302 36.9849 31.1302C33.8056 31.1302 31.2282 33.7531 31.2282 36.9886C31.2282 39.6039 32.9124 41.818 35.2371 42.5713C34.0092 44.7356 32.4644 46.6848 30.7105 48.3686C28.3254 50.6585 25.5959 52.3946 22.6438 53.4645C19.129 51.6271 17.4691 47.5403 18.9669 43.9573C19.136 43.5528 19.3086 43.1425 19.4737 42.7343C22.02 42.1294 23.9174 39.8062 23.9174 37.0306C23.9174 33.7952 21.3401 31.1723 18.1608 31.1723C14.9812 31.1723 12.4039 33.7952 12.4039 37.0306C12.4039 39.0148 13.3741 40.767 14.8568 41.8269C13.4318 45.1285 11.3375 48.5835 10.685 52.5879C9.90297 57.3872 10.6826 62.4815 14.7612 65.3584C24.2602 72.0582 34.5712 61.2051 45.4428 58.4767C49.3827 57.4878 53.7076 57.6472 57.179 55.6012C59.7858 54.0647 61.5043 51.5184 61.9921 48.6596C62.4738 45.8355 61.7714 43.0237 60.1562 40.7436C60.9916 39.7267 61.4949 38.4178 61.4949 36.9886ZM42.7411 37.0093C42.7411 37.0024 42.7417 36.9955 42.7417 36.9886C42.7417 34.8639 41.63 33.0033 39.9667 31.9764L46.2509 19.0445L52.5461 32.1135C51.0002 33.1638 49.9815 34.955 49.9815 36.9886C49.9815 37.0313 49.9839 37.0734 49.9847 37.1159L42.7411 37.0093Z" fill="#C63D14"/>
<path d="M62.8998 36.9887C62.8998 33.4302 60.3804 30.4609 57.0618 29.8267L65 6H27.4769L35.4272 29.875C32.224 30.6005 29.8213 33.5136 29.8213 36.9887C29.8213 39.5984 31.1764 41.8906 33.2075 43.1787C32.2306 44.6597 31.0721 46.0535 29.7445 47.328C27.6393 49.3493 25.2936 50.8823 22.7649 51.8907C20.2179 50.2625 19.1413 47.1922 20.2595 44.5173L20.347 44.308C20.4017 44.1771 20.4566 44.0458 20.5113 43.9144C23.3087 42.9218 25.3223 40.2119 25.3223 37.0307C25.3223 33.0114 22.109 29.7416 18.1595 29.7416C14.21 29.7416 10.997 33.0114 10.997 37.0307C10.997 39.0594 11.8162 40.8964 13.1348 42.2192C12.8957 42.7379 12.6444 43.2651 12.386 43.8051C11.1803 46.3253 9.81376 49.1819 9.29685 52.354C8.27026 58.6538 9.92598 63.6897 13.9591 66.5343C16.4064 68.2605 18.8917 68.9394 21.3926 68.9392C26.1021 68.939 30.8658 66.5314 35.5252 64.1762C38.881 62.4801 42.3509 60.7261 45.7784 59.8659C47.0538 59.5458 48.366 59.3532 49.7553 59.1493C52.5103 58.7448 55.3593 58.3267 57.8828 56.8394C60.8077 55.1153 62.8101 52.2231 63.3762 48.9046C63.8623 46.0558 63.2771 43.2027 61.8504 40.7829C62.5157 39.6769 62.8998 38.3778 62.8998 36.9887ZM60.088 36.9887C60.088 39.4301 58.1363 41.4165 55.737 41.4165C53.3382 41.4165 51.3863 39.4301 51.3863 36.9887C51.3863 34.5472 53.3382 32.5611 55.737 32.5611C58.1363 32.5611 60.088 34.5472 60.088 36.9887ZM61.0776 8.86149L54.0678 29.9015C53.7639 29.9756 53.4677 30.0691 53.1801 30.1815L46.2553 15.8055L39.3104 30.0965C39.0103 29.9912 38.7014 29.9046 38.3847 29.8405L31.3989 8.86149H61.0776ZM36.9838 32.5611C39.3829 32.5611 41.3345 34.5472 41.3345 36.9887C41.3345 39.4301 39.3829 41.4165 36.9838 41.4165C34.585 41.4165 32.6331 39.4301 32.6331 36.9887C32.6331 34.5472 34.585 32.5611 36.9838 32.5611ZM18.1595 32.6031C20.5588 32.6031 22.5104 34.5893 22.5104 37.0307C22.5104 39.4721 20.5588 41.4585 18.1595 41.4585C15.7607 41.4585 13.8088 39.4721 13.8088 37.0307C13.8088 34.5893 15.7607 32.6031 18.1595 32.6031ZM60.6058 48.415C60.1825 50.8967 58.6762 53.0648 56.4734 54.3631C54.4199 55.5734 51.9592 55.9347 49.3539 56.317C47.9583 56.5218 46.515 56.7337 45.1051 57.0877C41.3772 58.0231 37.7663 59.8483 34.2744 61.6134C27.2864 65.1456 21.2513 68.1959 15.561 64.1824C11.3927 61.2425 11.5852 55.8029 12.0708 52.8221C12.5208 50.0606 13.7375 47.5172 14.9141 45.0576C15.1178 44.6319 15.3155 44.215 15.5096 43.8007C16.0932 44.0382 16.7138 44.2 17.3606 44.2735C16.163 48.2964 18.0466 52.6703 22.0001 54.7373L22.5411 55.0202L23.1142 54.8125C26.2397 53.6799 29.1195 51.862 31.6741 49.4095C33.3254 47.8242 34.7445 46.0702 35.9113 44.196C36.2613 44.2497 36.6194 44.278 36.9838 44.278C40.9334 44.278 44.1466 41.0082 44.1466 36.9887C44.1466 34.8271 43.2162 32.8832 41.7427 31.5471L46.2442 22.2836L50.7913 31.7236C49.427 33.0517 48.5745 34.9201 48.5745 36.9887C48.5745 41.0082 51.7875 44.278 55.737 44.278C57.2545 44.278 58.6622 43.794 59.8215 42.9716C60.6265 44.6486 60.9264 46.5355 60.6058 48.415Z" fill="white"/>
</g>
<defs>
<clipPath id="clip0_10646_7273">
<rect width="56" height="63" fill="white" transform="translate(9 6)"/>
</clipPath>
</defs>
</svg>
