<svg width="74" height="74" viewBox="0 0 74 74" fill="none" xmlns="http://www.w3.org/2000/svg">
<path fill-rule="evenodd" clip-rule="evenodd" d="M37.5623 4L7 14.7028L11.3753 55.6088L37.5623 70V4Z" fill="#412846"/>
<path fill-rule="evenodd" clip-rule="evenodd" d="M37.4375 4L67.9998 14.7028L63.6244 55.6088L37.4375 70V4Z" fill="#4B314F"/>
<path fill-rule="evenodd" clip-rule="evenodd" d="M52.7307 26.5846L52.7252 26.567C54.1207 28.134 54.8376 29.9946 54.8756 32.149C54.9137 34.3032 54.1969 36.5758 52.7087 38.9595C53.821 38.0872 55.1054 36.2043 56.5579 33.3326C57.1853 39.1524 54.8541 43.5731 49.5424 46.6006C51.2383 46.4428 53.4898 45.3164 56.2824 43.2174C53.3024 50.4557 47.823 54.2747 39.8443 54.6744C32.1334 54.6724 27.1382 49.9975 27.142 50.0004C23.9719 47.5112 21.7907 44.3738 20.6059 40.6023C18.7098 38.5133 18.6909 38.2893 18.4953 37.4546C18.2997 36.6198 18.6189 36.3866 19.1743 35.5699C19.5446 35.0253 19.6318 34.242 19.4416 33.2339C18.9696 32.5735 18.6977 31.5391 18.6261 30.1309C18.6261 29.4503 19.0762 28.7323 19.9767 27.9768C20.8771 27.2212 21.4295 26.6401 21.6296 26.2401C21.7822 26.022 21.8412 25.0764 21.8065 23.4035C21.7972 21.7603 22.7015 20.8662 24.5196 20.7215C27.2465 20.5042 28.7844 18.4352 29.6412 17.4942C30.2124 16.8669 31.0577 16.562 32.1238 16.5561C33.6249 16.4851 34.9906 17.0656 36.1671 18.2635C39.0975 18.1106 42.0992 18.9079 45.1406 20.6351C49.4628 23.2254 51.8216 26.0305 52.2171 29.0362C51.7539 32.9919 46.4867 32.8886 36.4391 28.725C31.1811 30.2276 28.5961 33.4837 28.682 38.4932C28.6784 43.0902 30.8837 46.4306 35.2827 48.511C33.1386 46.3874 32.2255 44.6024 32.5331 43.1242C36.9927 48.4524 42.0725 50.4439 47.7637 49.0991C45.2545 49.1875 43.267 48.3729 41.7712 46.6433C45.6181 46.549 49.2496 44.7473 52.6692 41.2202C50.6952 42.805 48.6296 43.4051 46.4425 43.0276C52.366 38.3293 54.4621 32.8483 52.7307 26.5846ZM41.9797 25.8618C42.4599 25.8618 42.8492 25.4691 42.8492 24.9846C42.8492 24.5001 42.4599 24.1074 41.9797 24.1074C41.4995 24.1074 41.1103 24.5001 41.1103 24.9846C41.1103 25.4691 41.4995 25.8618 41.9797 25.8618Z" fill="#BA2BD2"/>
</svg>
