<svg width="74" height="74" viewBox="0 0 74 74" fill="none" xmlns="http://www.w3.org/2000/svg">
<path d="M11.3806 14L27.5578 41.0881L27.5719 28.8267L36.9586 43.42L27.3004 58.5168L11.2901 32.6748L11.2533 59.7292H0V14H11.3806ZM38.8111 26.7846L43.4946 34.0981L43.554 34.1994C46.6145 29.568 51.8142 26.7807 57.3866 26.7846C66.419 26.7846 73.7634 34.3882 73.9423 43.3396L73.9456 43.6422H73.9371L73.9368 43.7559C73.9205 44.4992 73.5213 45.1847 72.8764 45.5679C72.2084 45.9648 71.3783 45.9772 70.6987 45.6003C70.0425 45.2364 69.623 44.563 69.5844 43.8205L69.5817 43.7407L69.5804 43.6379C69.5444 42.2222 68.7616 41.6477 67.7335 41.2241L67.5814 41.1631L67.4261 41.1038L67.268 41.0457L66.4477 40.7561L66.2801 40.695L66.1122 40.6317L65.9443 40.5658C65.9163 40.5546 65.8884 40.5433 65.8604 40.5318L65.6931 40.461L65.5267 40.3863C64.8632 40.0795 64.229 39.6685 63.7245 39.015L63.6654 38.9364L63.6065 38.8544L63.5185 38.7259L63.4006 38.5448L63.0278 37.9513L62.892 37.742L62.7848 37.583L62.7104 37.4763L62.5939 37.3159L62.5127 37.2089L62.4284 37.1022C62.4141 37.0844 62.3997 37.0667 62.3851 37.049L62.2959 36.943C61.4169 35.9217 60.0416 35.0039 57.3809 35.0039C55.1807 35.0031 53.0704 35.8721 51.5146 37.4195C49.9588 38.9668 49.0851 41.0657 49.0859 43.2541C49.0919 43.5661 49.1662 43.8726 49.3031 44.1526L49.3461 44.2358L59.2447 59.7292H48.3279L43.4946 52.4747L38.746 59.7292H27.8321L38.2511 43.4144L27.5747 26.7846H38.8111ZM73.9569 45.9769C74.0678 46.7482 73.958 47.5349 73.6401 48.2469C73.2581 49.1261 72.7193 49.2851 72.3603 49.2769L72.3005 49.274L72.2447 49.2684L72.1932 49.2607L72.1247 49.2468L72.068 49.2318L71.9948 49.2068L71.9682 49.1945L71.936 49.1764L71.8877 49.1465L71.8488 49.1199L71.806 49.088L71.7607 49.0509C71.753 49.0443 71.7453 49.0375 71.7375 49.0304L71.6908 48.9855C71.4892 48.7797 71.3084 48.4279 71.6293 47.9375C71.8666 47.573 72.1952 47.3686 72.539 47.185L72.8862 47.0025C73.3022 46.7793 73.7033 46.5186 73.9569 45.9769ZM38.8394 14V25.6257L38.8139 25.7551H27.5747L27.5719 25.6257L27.5861 14H38.8394Z" fill="white"/>
<path d="M56.1815 38.4328C53.489 38.382 51.0565 40.0239 50.1094 42.5312C51.686 40.1861 54.6881 39.2438 57.3325 40.264C58.5543 40.759 60.1607 41.5579 61.4334 41.1303C60.223 39.4409 58.2672 38.4363 56.1815 38.4328Z" fill="#96D8E9"/>
<path d="M68.9332 43.9349C68.9332 42.565 68.1838 42.2471 66.6283 41.6846C65.4744 41.2851 64.1649 40.8351 63.2118 39.5974C63.0252 39.3527 62.8526 39.077 62.6688 38.7845C62.257 38.0268 61.6985 37.3576 61.0256 36.8154C60.1178 36.1516 58.9271 35.8281 57.3829 35.8281C54.2845 35.8303 51.493 37.6904 50.3125 40.5397C51.8049 38.4801 54.2852 37.3641 56.8258 37.6091C59.3665 37.8541 61.585 39.4231 62.6518 41.7296C63.1848 42.6043 64.236 43.022 65.2283 42.7535C66.747 42.43 66.6424 43.8589 68.9361 44.3427L68.9332 43.9349Z" fill="#48C4E5"/>
</svg>
