<svg width="74" height="74" viewBox="0 0 74 74" fill="none" xmlns="http://www.w3.org/2000/svg">
<path d="M70.7356 43.9126C70.3279 42.68 69.2598 41.8216 67.8786 41.6156C67.2273 41.5185 66.4814 41.5599 65.5987 41.7415C64.0602 42.0583 62.9188 42.179 62.0858 42.2023C65.23 36.9038 67.7867 30.8616 69.2585 25.1738C71.6385 15.9769 70.3667 11.7871 68.8805 9.89203C64.9474 4.87586 59.2091 2.18113 52.2864 2.09868C48.5934 2.0536 45.3515 2.78137 43.6602 3.30473C42.0856 3.02741 40.3925 2.87258 38.616 2.84394C35.2859 2.79092 32.3435 3.5155 29.8294 5.00471C28.4375 4.53491 26.2036 3.87263 23.6239 3.45002C17.5565 2.4558 12.6663 3.2305 9.08942 5.75263C4.75814 8.80634 2.75028 14.112 3.12162 21.5223C3.23956 23.875 4.55812 31.0334 6.63424 37.8222C7.82743 41.7243 9.09977 44.9646 10.4159 47.4542C12.2825 50.9843 14.2797 53.0631 16.5219 53.8097C17.7785 54.2276 20.0618 54.5203 22.4634 52.5239C22.7678 52.8919 23.1739 53.2575 23.7129 53.5971C24.3974 54.0279 25.2344 54.38 26.0703 54.5887C29.0827 55.3403 31.9045 55.1523 34.3118 54.0987C34.3267 54.5261 34.3381 54.9344 34.3477 55.287C34.3636 55.8589 34.3796 56.4196 34.4005 56.944C34.5432 60.4898 34.7849 63.2469 35.501 65.1759C35.5403 65.282 35.5932 65.4437 35.649 65.6152C36.0062 66.707 36.6036 68.5348 38.1235 69.9662C39.6974 71.449 41.6011 71.9037 43.3447 71.9037C44.2191 71.9037 45.0534 71.7892 45.7852 71.6328C48.3937 71.0747 51.3562 70.2247 53.4992 67.1789C55.5254 64.2997 56.5104 59.963 56.6886 53.13C56.7117 52.9367 56.733 52.7521 56.7534 52.5764L56.7959 52.2153L57.2732 52.2572L57.3962 52.2654C60.053 52.3863 63.3016 51.8239 65.2967 50.8989C66.8732 50.1688 71.9251 47.5066 70.7356 43.9126Z" fill="black"/>
<path d="M66.1949 44.6114C58.2952 46.2379 57.752 43.5684 57.752 43.5684C66.0926 31.2154 69.5795 15.5351 66.5707 11.6975C58.3619 1.229 44.1522 6.17994 43.915 6.30826L43.8388 6.32205C42.278 5.9986 40.5315 5.80611 38.5683 5.77403C34.994 5.71571 32.2825 6.7094 30.225 8.26674C30.225 8.26674 4.87641 -2.15639 6.05552 21.3756C6.30627 26.3817 13.2444 59.2548 21.5197 49.3256C24.5443 45.6947 27.467 42.6248 27.467 42.6248C28.9184 43.5872 30.6561 44.0782 32.4778 43.9019L32.6193 43.7821C32.5752 44.2328 32.5954 44.6737 32.6759 45.1957C30.544 47.5731 31.1706 47.9904 26.9089 48.8661C22.5965 49.7532 25.1298 51.3323 26.7838 51.7454C28.789 52.2457 33.4279 52.9546 36.5623 48.575L36.4374 49.0748C37.2726 49.7426 37.8591 53.4183 37.7608 56.7507C37.6625 60.0828 37.5969 62.3705 38.2548 64.1575C38.9133 65.9444 39.5692 69.965 45.1717 68.7669C49.8528 67.7656 52.2788 65.1708 52.6164 60.8424C52.8557 57.7653 53.3979 58.2203 53.4319 55.4691L53.8667 54.1668C54.3679 49.9956 53.9464 48.6498 56.8303 49.2758L57.5315 49.3373C59.6539 49.4335 62.4323 48.9963 64.063 48.2399C67.574 46.6136 69.6565 43.898 66.1943 44.6114H66.1949Z" fill="#336791"/>
<path d="M31.7092 23.6142C30.9973 23.5153 30.3526 23.6068 30.0265 23.8534C29.8432 23.992 29.7863 24.1527 29.7709 24.2633C29.73 24.5562 29.9356 24.8802 30.062 25.0472C30.4196 25.5202 30.9418 25.8453 31.4587 25.9168C31.5336 25.9274 31.6082 25.9322 31.6824 25.9322C32.5443 25.9322 33.3282 25.2623 33.3972 24.7678C33.4836 24.1485 32.5828 23.7357 31.7092 23.6145V23.6142ZM55.2924 23.6339C55.2244 23.1484 54.359 23.01 53.5377 23.124C52.7175 23.238 51.9222 23.6076 51.9886 24.0941C52.0417 24.4724 52.7262 25.1183 53.5364 25.1183C53.6049 25.1183 53.674 25.1138 53.7436 25.104C54.2844 25.0292 54.6812 24.6864 54.8698 24.4889C55.1567 24.1877 55.323 23.8521 55.2924 23.6339Z" fill="white"/>
<path d="M68.8192 44.4265C68.518 43.5174 67.5485 43.225 65.9377 43.5569C61.1552 44.5421 59.4424 43.8597 58.8801 43.4464C62.5975 37.7939 65.6556 30.9611 67.3054 24.5862C68.0869 21.5664 68.5185 18.7619 68.5539 16.476C68.5929 13.9671 68.1647 12.1234 67.2818 10.9972C63.7219 6.45693 58.497 4.02149 52.1725 3.95468C47.8245 3.9059 44.1509 5.01651 43.4388 5.32883C41.939 4.95659 40.3041 4.72805 38.5242 4.69889C35.2602 4.64613 32.4387 5.42613 30.1028 7.01608C29.0881 6.63907 26.4658 5.74056 23.259 5.2249C17.7148 4.33408 13.3092 5.00909 10.1652 7.23216C6.41381 9.885 4.68193 14.627 5.01742 21.3262C5.13031 23.58 6.417 30.5136 8.44744 37.1536C11.1202 45.8932 14.0256 50.8407 17.0824 51.8585C17.4402 51.9776 17.8527 52.0608 18.3077 52.0608C19.4228 52.0608 20.79 51.5592 22.2124 49.8523C23.9473 47.7749 25.742 45.748 27.5942 43.7741C28.7959 44.4178 30.1161 44.7773 31.4662 44.8133C31.4689 44.8486 31.4723 44.8839 31.4755 44.9189C31.2431 45.1955 31.0155 45.4761 30.7929 45.7606C29.8573 46.946 29.6626 47.1928 26.6513 47.8116C25.7946 47.9882 23.5195 48.4562 23.4861 50.048C23.4499 51.7872 26.1755 52.5176 26.486 52.595C27.5682 52.8655 28.6108 52.9988 29.605 52.9988C32.023 52.9988 34.1509 52.2056 35.8514 50.6708C35.7991 56.871 36.0581 62.9805 36.804 64.8419C37.4149 66.3659 38.9072 70.0901 43.621 70.0898C44.3127 70.0898 45.0739 70.0095 45.9115 69.8303C50.8311 68.7777 52.9675 66.6074 53.7939 61.8227C54.2362 59.2656 54.995 53.1595 55.352 49.8841C56.1054 50.1188 57.0752 50.2261 58.1236 50.2259C60.3102 50.2259 62.8334 49.7622 64.4157 49.0291C66.1933 48.2051 69.401 46.1832 68.8192 44.4265ZM57.1036 22.2939C57.0874 23.2608 56.954 24.1386 56.8127 25.0549C56.6605 26.0404 56.5033 27.0593 56.4637 28.2961C56.4246 29.4997 56.5752 30.7511 56.7208 31.9614C57.0151 34.4059 57.3171 36.9224 56.1481 39.4056C55.9539 39.0622 55.781 38.7072 55.6302 38.3427C55.4849 37.9912 55.1693 37.4264 54.7323 36.6448C53.0326 33.6023 49.0522 26.4773 51.0898 23.57C51.6968 22.7046 53.2371 21.8148 57.1036 22.2939ZM52.4169 5.91263C58.0837 6.0375 62.5664 8.15347 65.7401 12.2014C68.1743 15.3063 65.4939 29.434 57.7342 41.622C57.6561 41.523 57.5777 41.4243 57.4988 41.3259L57.4005 41.2034C59.4058 37.8981 59.0137 34.6278 58.6647 31.7284C58.5212 30.5385 58.3857 29.4146 58.4203 28.3589C58.4559 27.2401 58.6041 26.2803 58.7475 25.3524C58.9236 24.2089 59.1029 23.0256 59.0535 21.6308C59.0905 21.4845 59.1053 21.3116 59.0859 21.1064C58.9598 19.7689 57.4298 15.7657 54.3113 12.1425C52.6055 10.1607 50.1179 7.94296 46.7214 6.44712C48.1823 6.14488 50.1801 5.86305 52.4169 5.91263ZM20.7071 48.603C19.1399 50.4838 18.0578 50.1233 17.7018 50.005C15.3829 49.233 12.6921 44.3409 10.3198 36.5833C8.26708 29.8709 7.06751 23.1211 6.97242 21.2284C6.67279 15.2424 8.12656 11.0706 11.2936 8.82874C16.4478 5.18062 24.9218 7.36419 28.3268 8.47162C28.2779 8.51987 28.2269 8.56494 28.1786 8.61399C22.5909 14.2463 22.7235 23.8693 22.7373 24.4576C22.7367 24.6845 22.7559 25.0059 22.7819 25.4478C22.878 27.0664 23.0571 30.0788 22.579 33.4901C22.1348 36.6602 23.1139 39.763 25.2647 42.003C25.4854 42.2325 25.7174 42.4509 25.9598 42.6574C25.0025 43.6807 22.9219 45.9438 20.7071 48.603ZM26.6781 40.6512C24.9446 38.8457 24.1573 36.3344 24.5178 33.7606C25.0224 30.157 24.8362 27.0184 24.7361 25.3322C24.722 25.0963 24.7095 24.8895 24.7024 24.7264C25.5186 24.004 29.3014 21.9811 31.9991 22.598C33.23 22.8793 33.9801 23.716 34.292 25.1551C35.9059 32.6059 34.5055 35.7113 33.3803 38.207C33.1484 38.721 32.9293 39.207 32.7423 39.7097L32.5973 40.0984C32.2302 41.0809 31.8886 41.9945 31.6769 42.862C29.834 42.8567 28.0413 42.0709 26.6781 40.6509V40.6512ZM26.961 50.6994C26.4228 50.5652 25.9388 50.3322 25.6549 50.1389C25.8921 50.0276 26.3142 49.8759 27.0462 49.7253C30.5889 48.9976 31.1361 48.4837 32.3309 46.9696C32.6047 46.6223 32.9152 46.2289 33.3453 45.7495L33.3458 45.749C33.9862 45.0331 34.2792 45.1546 34.8105 45.3746C35.241 45.5522 35.6605 46.091 35.8305 46.6838C35.9109 46.9638 36.0013 47.4951 35.7056 47.9087C33.2098 51.3967 29.5729 51.3519 26.961 50.6994ZM45.5013 67.9198C41.1674 68.8467 39.6329 66.6395 38.6217 64.1163C37.969 62.4874 37.6481 55.1418 37.8758 47.0298C37.8787 46.9219 37.8633 46.8177 37.8335 46.7196C37.8069 46.5259 37.7664 46.3343 37.7124 46.1464C37.374 44.9661 36.5492 43.9787 35.5598 43.5694C35.1667 43.4069 34.4452 43.1086 33.5782 43.33C33.7631 42.5696 34.0837 41.7109 34.4314 40.7811L34.5772 40.39C34.7414 39.9491 34.9475 39.4923 35.1653 39.0087C36.3429 36.3978 37.9555 32.8215 36.2053 24.7423C35.5497 21.7162 33.3604 20.2384 30.0417 20.5817C28.0522 20.7872 26.2318 21.5884 25.3239 22.0479C25.1287 22.1465 24.9502 22.2419 24.7834 22.3347C25.0368 19.2858 25.9941 13.5877 29.5753 9.98256C31.8301 7.71309 34.833 6.59215 38.4918 6.65259C45.7008 6.77031 50.3238 10.463 52.9327 13.5403C55.181 16.1918 56.3983 18.8629 56.8842 20.3036C53.2305 19.9327 50.7456 20.6525 49.486 22.4501C46.7455 26.3601 50.9852 33.9491 53.0228 37.5964C53.3965 38.2648 53.719 38.8425 53.8204 39.088C54.484 40.693 55.343 41.7647 55.9702 42.5468C56.1625 42.7865 56.3489 43.019 56.4908 43.2221C55.3842 43.5405 53.3965 44.2762 53.5777 47.9538C53.4316 49.799 52.3927 58.4384 51.8649 61.4908C51.1682 65.5233 49.6815 67.0252 45.5013 67.92V67.9198ZM63.5915 47.257C62.4599 47.7812 60.5663 48.1743 58.7675 48.2589C56.7806 48.3517 55.7691 48.0367 55.5311 47.8429C55.4195 45.5512 56.274 45.3118 57.1785 45.0583C57.3206 45.0186 57.4593 44.9796 57.5931 44.9329C57.6763 45.0005 57.7674 45.0676 57.8672 45.1334C59.4642 46.1854 62.3125 46.2988 66.3338 45.4703L66.3779 45.4616C65.8355 45.9677 64.9074 46.647 63.5915 47.257Z" fill="white"/>
</svg>
