<svg width="74" height="74" viewBox="0 0 74 74" fill="none" xmlns="http://www.w3.org/2000/svg">
<path d="M45.5145 37.167L36.7734 52.9016L42.6468 37.3913L42.7362 37.1533L45.5145 37.167Z" fill="#FF496C"/>
<path d="M38.6878 38.2095L38.6696 38.3519L36.7705 52.9012L34.8698 38.3519L34.8516 38.2095H36.7705H38.6878Z" fill="#FF496C"/>
<path d="M30.899 37.3913L36.7739 52.9016L28.0312 37.167L30.8095 37.1533L30.899 37.3913Z" fill="#FF496C"/>
<path d="M27.8944 37.2348L27.9611 37.3713L23.1245 36.5467L21.5391 32.6816L26.021 33.4941L26.0574 33.5001L27.8929 37.2348H27.8944Z" fill="#FF496C"/>
<path d="M32.8841 33.585L34.7742 38.3655L30.9531 37.3712L32.8841 33.585Z" fill="#FF496C"/>
<path d="M40.6635 33.585L42.5945 37.3712L38.7734 38.3655L40.6635 33.585Z" fill="#FF496C"/>
<path d="M52.008 32.6816L50.4226 36.5467L45.5859 37.3713L45.6526 37.2348H45.6541L47.4897 33.5001L47.526 33.4941L52.008 32.6816Z" fill="#FF496C"/>
<path d="M43.4881 24.2681L47.4714 33.2184L40.7734 33.2275V33.226L41.6616 24.2515H43.4881V24.2681Z" fill="#FF496C"/>
<path d="M32.7656 33.226L36.7701 24.2515L40.7731 33.226V33.2275H40.661L36.7701 33.2336L32.8778 33.2275H32.7656V33.226Z" fill="#FF496C"/>
<path d="M32.7682 33.226V33.2275L26.0703 33.2184L30.0536 24.2681V24.2515H31.88L32.7682 33.226Z" fill="#FF496C"/>
<path d="M45.5843 37.3714L50.4209 36.5469L36.7734 52.9014L45.5145 37.1668L45.651 37.235L45.5843 37.3714Z" fill="#FD405F"/>
<path d="M42.6468 37.3913L36.7734 52.9015L38.6726 38.3522L38.7742 38.3659L42.5953 37.3716L42.6468 37.3913Z" fill="#FD405F"/>
<path d="M34.8726 38.3522L36.7733 52.9015L30.8984 37.3913L30.95 37.3716L34.7711 38.3659L34.8726 38.3522Z" fill="#FD405F"/>
<path d="M28.0314 37.1668L36.774 52.9014L23.125 36.5469L27.9616 37.3714L27.8949 37.235L28.0314 37.1668Z" fill="#FD405F"/>
<path d="M32.7714 33.2274H32.8835V33.5851L30.9525 37.3713L30.901 37.391L30.8116 37.1531L28.0333 37.1667L27.8969 37.2349H27.8953L26.0598 33.5002L26.0234 33.4941L26.0735 33.2183L32.7714 33.2274Z" fill="#FD405F"/>
<path d="M38.6925 38.2097H36.7752H34.8563L34.8745 38.3522L34.7729 38.3658L32.8828 33.5852V33.2275L36.7752 33.2336L40.666 33.2275V33.5852L38.7759 38.3658L38.6743 38.3522L38.6925 38.2097Z" fill="#FD405F"/>
<path d="M47.4741 33.2183L47.5242 33.4941L47.4878 33.5002L45.6523 37.2349H45.6507L45.5143 37.1667L42.736 37.1531L42.6466 37.391L42.5951 37.3713L40.6641 33.5851V33.2274H40.7762L47.4741 33.2183Z" fill="#FD405F"/>
<path d="M44.6699 24.2515L52.2272 32.1468L52.0075 32.6818L47.5255 33.4943L47.4755 33.2184L43.4922 24.2681V24.2515H44.6699Z" fill="#FD405F"/>
<path d="M41.6646 24.2515L40.7764 33.226L36.7734 24.2515H41.6646Z" fill="#FD405F"/>
<path d="M36.7755 24.2515L32.771 33.226L31.8828 24.2515H36.7755Z" fill="#FD405F"/>
<path d="M30.0554 24.2515V24.2681L26.0721 33.2184L26.022 33.4943L21.5401 32.6818L21.3203 32.1468L28.8776 24.2515H30.0554Z" fill="#FD405F"/>
<path d="M66.0987 37C66.0987 40.8044 65.3681 44.4391 64.0404 47.7691L64.0343 47.7661L59.7069 48.627L57.0014 44.5891C57.8972 42.2307 58.3868 39.6722 58.3868 37C58.3868 25.8883 49.9155 16.7562 39.0781 15.7103L39.0812 15.6785L42.008 11.7286L39.7951 8.03174C54.555 9.43832 66.0987 21.8717 66.0987 37Z" fill="#96EFFF"/>
<path d="M59.1184 50.2157L63.3487 49.3745C58.6985 59.2599 48.6494 66.1019 37.0027 66.1019C25.356 66.1019 15.2507 59.222 10.6172 49.2926L10.6233 49.2896L12.965 45.5488L17.7592 46.3506H17.7607C21.2287 53.479 28.542 58.3899 37.0027 58.3899C45.4634 58.3899 52.9343 53.3714 56.3568 46.1187L56.3825 46.1309L59.1184 50.2157Z" fill="#6CE0F9"/>
<path d="M37.4199 15.6104V15.6149C37.2805 15.6119 37.141 15.6104 37.0001 15.6104C25.1866 15.6104 15.6104 25.1866 15.6104 37.0001C15.6104 39.7632 16.1348 42.4021 17.0882 44.8272L17.0624 44.8378L12.2137 44.0269L9.92343 47.6843C8.61537 44.377 7.89844 40.7727 7.89844 37.0001C7.89844 20.9275 20.9275 7.89844 37.0001 7.89844C37.3517 7.89844 37.7003 7.9045 38.0489 7.91663L40.3149 11.7044L37.4199 15.6104Z" fill="#40DAF4"/>
</svg>
