<svg width="290" height="290" viewBox="0 0 290 290" fill="none" xmlns="http://www.w3.org/2000/svg">
<path d="M133.986 146.948L171.483 133.9C172.822 133.516 174.161 134.092 174.544 135.243C174.735 135.435 174.735 135.818 174.735 136.01V245.575C174.735 246.918 173.587 248.069 172.248 248.069H134.751C133.412 248.069 132.264 246.918 132.264 245.575V149.058C132.264 148.099 133.029 147.139 133.986 146.948ZM50 177.457V245.766C50 247.11 51.1479 248.261 52.4871 248.261H89.6015C90.9407 248.261 92.0886 247.11 92.0886 245.766V164.984C92.0886 163.641 90.9407 162.49 89.6015 162.49C89.4102 162.49 89.0276 162.49 88.8363 162.682L51.7218 174.962C50.7652 175.346 50 176.305 50 177.457ZM173.396 44.2912L176.457 59.6417L51.5305 103.007C50.5739 103.391 50 104.35 50 105.309V137.929C50 139.272 51.1479 140.424 52.4871 140.424C52.6784 140.424 53.061 140.424 53.2523 140.232L185.257 94.564L188.127 107.036C188.51 108.379 189.658 109.147 190.997 108.763C191.379 108.571 191.953 108.379 192.145 107.996L239.207 57.1472C240.164 56.1878 239.973 54.6528 239.016 53.6933C238.633 53.3096 238.251 53.1177 237.868 53.1177L176.075 41.0292C174.735 40.8373 173.587 41.6048 173.205 42.948C173.396 43.5236 173.396 43.9074 173.396 44.2912Z" fill="url(#paint0_radial_10167_6810)"/>
<defs>
<radialGradient id="paint0_radial_10167_6810" cx="0" cy="0" r="1" gradientUnits="userSpaceOnUse" gradientTransform="translate(135.504 133.645) scale(140.559 153.154)">
<stop stop-color="#0098CE"/>
<stop offset="0.29" stop-color="#0072C6"/>
<stop offset="0.58" stop-color="#0065AC"/>
<stop offset="1" stop-color="#00538A"/>
</radialGradient>
</defs>
</svg>
