<svg width="120" height="120" viewBox="0 0 120 120" fill="none" xmlns="http://www.w3.org/2000/svg">
<path d="M76.6585 12.0024C76.6571 12.0009 76.6551 12 76.653 12H38.875C36.7349 12 35 13.7492 35 15.907V92.093C35 94.2508 36.7349 96 38.875 96H93.125C95.2651 96 97 94.2508 97 92.093V33.4921C97 33.4897 96.9991 33.4874 96.9974 33.4856C96.9955 33.4837 96.9946 33.4809 96.9949 33.4782C96.9968 33.4582 96.9982 33.4381 96.9991 33.4179C97.0068 33.2321 96.967 33.0474 96.8835 32.8813C91.1224 21.4383 81.2427 14.5504 77.3447 12.1685C77.1766 12.0615 76.9818 12.0032 76.7827 12.0001C76.7432 11.9995 76.7039 12.0011 76.6648 12.0048C76.6625 12.005 76.6601 12.0041 76.6585 12.0024Z" fill="#EAB669"/>
<path d="M91.7376 42.4228H73.0314C71.7427 42.4195 70.5077 41.9075 69.5965 40.999C68.6852 40.0904 68.1714 38.8592 68.168 37.5743V17.59C68.1679 17.5198 68.1821 17.4504 68.2094 17.3857C68.2367 17.3211 68.2772 17.2625 68.3275 17.2135C68.3779 17.1645 68.4373 17.126 68.5028 17.1004C68.5683 17.0747 68.6385 17.0624 68.7088 17.0641C68.8487 17.0641 68.9824 17.1195 69.0814 17.2181C69.1803 17.3167 69.2359 17.4505 69.2359 17.59V37.6384C69.2524 38.6368 69.6578 39.5897 70.366 40.2958C71.0742 41.0019 72.03 41.4059 73.0314 41.4224H91.7376C91.8079 41.4207 91.8775 41.433 91.943 41.4586C92.0085 41.4843 92.0685 41.5228 92.1189 41.5718C92.1693 41.6208 92.2091 41.6793 92.2364 41.744C92.2637 41.8087 92.2779 41.8781 92.2778 41.9483C92.262 42.0797 92.1978 42.2009 92.0982 42.2884C91.9985 42.376 91.8704 42.4238 91.7376 42.4228Z" fill="#E3E3E3"/>
<path d="M87.1802 103.21H33.1461C31.7813 103.21 30.4721 102.669 29.507 101.707C28.5419 100.745 28 99.4396 28 98.0788V22.1308C28 20.77 28.5419 19.465 29.507 18.5028C30.4721 17.5406 31.7813 17 33.1461 17H68.8855L69.0018 17.077C69.1819 17.1796 86.5241 27.3385 92.2748 41.6405V41.8329V98.0788C92.2749 99.4308 91.74 100.728 90.786 101.689C89.832 102.65 88.5361 103.196 87.1802 103.21ZM33.1461 18.116C32.0804 18.1194 31.0591 18.5438 30.3067 19.2964C29.5543 20.0489 29.132 21.0682 29.132 22.1308V98.1301C29.132 99.1927 29.5543 100.212 30.3067 100.964C31.0591 101.717 32.0804 102.142 33.1461 102.145H87.1802C88.2472 102.142 89.2696 101.718 90.024 100.965C90.7785 100.213 91.2035 99.1939 91.2069 98.1301V41.9868C85.7906 28.6597 70.0952 19.0395 68.5513 18.116H33.1461Z" fill="#E3E3E3"/>
<path d="M72.6552 57.7001H48.0441C47.9008 57.7001 47.7629 57.6433 47.6616 57.5422C47.5602 57.4412 47.5039 57.3042 47.5039 57.1613C47.5039 57.0911 47.5174 57.0217 47.5447 56.957C47.572 56.8924 47.6125 56.8339 47.6628 56.7849C47.7132 56.7359 47.7726 56.6974 47.8381 56.6717C47.9036 56.6461 47.9738 56.6337 48.0441 56.6354H72.6552C72.7256 56.6337 72.7958 56.6461 72.8613 56.6717C72.9268 56.6974 72.9862 56.7359 73.0365 56.7849C73.0869 56.8339 73.1267 56.8924 73.154 56.957C73.1813 57.0217 73.1955 57.0911 73.1955 57.1613C73.1955 57.3042 73.1385 57.4412 73.0372 57.5422C72.9358 57.6433 72.7985 57.7001 72.6552 57.7001Z" fill="#E3E3E3"/>
<path d="M72.6552 66.6532H48.0441C47.9008 66.6532 47.7629 66.5965 47.6616 66.4954C47.5602 66.3944 47.5039 66.2574 47.5039 66.1145C47.5039 66.0443 47.5174 65.9749 47.5447 65.9102C47.572 65.8456 47.6125 65.787 47.6628 65.738C47.7132 65.689 47.7726 65.6505 47.8381 65.6249C47.9036 65.5992 47.9738 65.5868 48.0441 65.5885H72.6552C72.7256 65.5868 72.7958 65.5992 72.8613 65.6249C72.9268 65.6505 72.9862 65.689 73.0365 65.738C73.0869 65.787 73.1267 65.8456 73.154 65.9102C73.1813 65.9749 73.1955 66.0443 73.1955 66.1145C73.1955 66.2574 73.1385 66.3944 73.0372 66.4954C72.9358 66.5965 72.7985 66.6532 72.6552 66.6532Z" fill="#E3E3E3"/>
<path d="M72.6607 75.2342H48.0496C47.9725 75.2461 47.8934 75.2413 47.8184 75.2201C47.7434 75.1988 47.6741 75.1616 47.6149 75.111C47.5556 75.0604 47.508 74.9977 47.4754 74.927C47.4428 74.8564 47.4258 74.7796 47.4258 74.7019C47.4258 74.6241 47.4428 74.5473 47.4754 74.4766C47.508 74.406 47.5556 74.3432 47.6149 74.2927C47.6741 74.2421 47.7434 74.2048 47.8184 74.1836C47.8934 74.1623 47.9725 74.1575 48.0496 74.1695H72.6607C72.7377 74.1575 72.8162 74.1623 72.8912 74.1836C72.9662 74.2048 73.0362 74.2421 73.0954 74.2927C73.1546 74.3432 73.2022 74.406 73.2348 74.4766C73.2674 74.5473 73.2838 74.6241 73.2838 74.7019C73.2838 74.7796 73.2674 74.8564 73.2348 74.927C73.2022 74.9977 73.1546 75.0604 73.0954 75.111C73.0362 75.1616 72.9662 75.1988 72.8912 75.2201C72.8162 75.2413 72.7377 75.2461 72.6607 75.2342Z" fill="#E3E3E3"/>
</svg>
