<svg width="72" height="87" viewBox="0 0 72 87" fill="none" xmlns="http://www.w3.org/2000/svg">
<path d="M52.0684 23.2565C52.0684 15.8242 45.8815 9.39851 42.3518 6.33742C40.9602 5.13053 38.9553 5.13053 37.5637 6.33742C34.034 9.39851 27.8471 15.8242 27.8471 23.2565V45.1657C24.2931 46.5488 21.0496 48.6331 18.3178 51.3009C15.0048 54.5364 12.5464 58.5307 11.1598 62.9311C11.0367 63.4078 11.0252 63.906 11.1263 64.3877C11.2273 64.8694 11.4383 65.3218 11.7429 65.7103C12.0475 66.0988 12.4377 66.413 12.8837 66.629C13.3297 66.845 13.8197 66.9569 14.3161 66.9563H40.2905L40.2855 66.9475H41.6134L41.6092 66.9563H65.5995C66.0958 66.9569 66.5858 66.845 67.0318 66.629C67.4778 66.413 67.868 66.0988 68.1727 65.7103C68.4773 65.3218 68.6882 64.8694 68.7893 64.3877C68.8903 63.906 68.8789 63.4078 68.7558 62.9311C67.3691 58.5307 64.9107 54.5364 61.5977 51.3009C58.8659 48.6331 55.6224 46.5488 52.0684 45.1657L52.0684 23.2565Z" fill="#71A5D2"/>
<path d="M28.3728 73.9786C27.809 75.5558 27.5779 77.2313 27.6938 78.901H52.2217C52.3377 77.2313 52.1065 75.5558 51.5427 73.9786C50.9789 72.4013 50.0944 70.9561 48.9442 69.7326C47.7941 68.5092 46.4028 67.5336 44.8569 66.8666C43.3109 66.1997 41.6433 65.8555 39.9578 65.8555C38.2722 65.8555 36.6046 66.1997 35.0587 66.8666C33.5127 67.5336 32.1214 68.5092 30.9713 69.7326C29.8211 70.9561 28.9366 72.4013 28.3728 73.9786Z" fill="#71A5D2"/>
<path d="M24.7584 83.3987C24.6531 81.8822 24.863 80.3603 25.3751 78.9277C25.8872 77.4951 26.6906 76.1824 27.7353 75.0712C28.78 73.9599 30.0437 73.0738 31.4478 72.468C32.852 71.8622 34.3667 71.5496 35.8977 71.5496C37.4287 71.5496 38.9433 71.8622 40.3475 72.468C41.7517 73.0738 43.0154 73.9599 44.06 75.0712C45.1047 76.1824 45.9081 77.4951 46.4202 78.9277C46.9323 80.3603 47.1423 81.8822 47.0369 83.3987" stroke="#E3E3E3" stroke-linecap="round" stroke-linejoin="round"/>
<path d="M47.4677 18.7743C47.4677 9.02915 35.9033 1.13074 35.9033 1.13074C35.9033 1.13074 24.3389 9.02915 24.3389 18.7743V56.9425C24.3389 58.5993 25.682 59.9425 27.3389 59.9425H44.4677C46.1246 59.9425 47.4677 58.5993 47.4677 56.9425V18.7743Z" stroke="#E3E3E3" stroke-linecap="round" stroke-linejoin="round"/>
<path d="M21.6989 40.3696C18.685 41.6203 15.9314 43.4329 13.592 45.7176C10.5822 48.657 8.35097 52.287 7.09627 56.2857C6.98454 56.7181 6.97403 57.1701 7.06554 57.6072C7.15705 58.0443 7.34816 58.4549 7.62428 58.8076C7.90039 59.1604 8.25421 59.4459 8.6587 59.6425C9.0632 59.839 9.50767 59.9414 9.95819 59.9417H21.3297" stroke="#E3E3E3" stroke-linecap="round" stroke-linejoin="round"/>
<path d="M49.5825 40.1497C52.8106 41.4059 55.7567 43.2991 58.238 45.7223C61.2472 48.6611 63.4801 52.2891 64.7396 56.2859C64.8514 56.7189 64.8618 57.1714 64.77 57.6089C64.6782 58.0465 64.4867 58.4574 64.21 58.8102C63.9333 59.1631 63.5788 59.4485 63.1737 59.6447C62.7686 59.8408 62.3236 59.9425 61.8728 59.942H51.0595" stroke="#E3E3E3" stroke-linecap="round" stroke-linejoin="round"/>
<path d="M18.5646 71.5987C17.3971 71.4478 16.2108 71.6462 15.1577 72.1684C14.1046 72.6905 13.2328 73.5127 12.6539 74.5294C12.42 74.9831 12.298 75.4853 12.298 75.9948C12.298 76.5043 12.42 77.0066 12.6539 77.4602H9.69858C7.36832 77.5266 5.15189 78.4742 3.50347 80.1089C1.85505 81.7436 0.899458 83.9416 0.83252 86.2525" stroke="#E3E3E3" stroke-linecap="round" stroke-linejoin="round"/>
<path d="M53.6509 71.5987C54.793 71.4478 55.9536 71.6462 56.9838 72.1684C58.014 72.6905 58.8669 73.5127 59.4331 74.5294C59.6634 74.9826 59.7835 75.4851 59.7835 75.9948C59.7835 76.5046 59.6634 77.007 59.4331 77.4602H62.3242C64.6043 77.5252 66.7733 78.4724 68.3862 80.1074C69.9991 81.7424 70.9334 83.9412 70.9975 86.2525" stroke="#E3E3E3" stroke-linecap="round" stroke-linejoin="round"/>
</svg>
