<svg width="95" height="87" viewBox="0 0 95 87" fill="none" xmlns="http://www.w3.org/2000/svg">
<path d="M52.3866 83.0682C75.3253 83.0682 93.9207 64.4727 93.9207 41.5341C93.9207 18.5954 75.3253 0 52.3866 0C29.448 0 10.8525 18.5954 10.8525 41.5341C10.8525 64.4727 29.448 83.0682 52.3866 83.0682Z" fill="#CE7783"/>
<path d="M93.9205 43.4885C93.9205 41.0597 91.9515 39.0908 89.5227 39.0908C87.0939 39.0908 85.125 41.0597 85.125 43.4885C85.125 45.9173 87.0939 47.8863 89.5227 47.8863" stroke="#E3E3E3" stroke-linecap="round" stroke-linejoin="round"/>
<path d="M1.07955 46.4204C1.07955 48.8492 3.04847 50.8181 5.47727 50.8181C7.90607 50.8181 9.875 48.8492 9.875 46.4204C9.875 43.9916 7.90607 42.0227 5.47727 42.0227" stroke="#E3E3E3" stroke-linecap="round" stroke-linejoin="round"/>
<path d="M47.4998 50.8183C46.0501 50.8183 44.633 50.3884 43.4277 49.583C42.2224 48.7777 41.2831 47.6329 40.7283 46.2936C40.1736 44.9543 40.0284 43.4806 40.3112 42.0588C40.5941 40.637 41.292 39.331 42.317 38.3059C43.3421 37.2809 44.6481 36.5828 46.0699 36.3C47.4917 36.0172 48.9653 36.1624 50.3046 36.7171C51.6439 37.2719 52.7887 38.2113 53.5941 39.4166C54.3995 40.622 54.8295 42.039 54.8295 43.4887C54.8277 45.4321 54.055 47.2953 52.6809 48.6695C51.3067 50.0436 49.4431 50.8165 47.4998 50.8183ZM47.4998 36.8434C46.1838 36.8434 44.8975 37.2337 43.8035 37.9649C42.7094 38.6962 41.8568 39.7355 41.3535 40.9514C40.8502 42.1673 40.7189 43.5051 40.9761 44.7957C41.2333 46.0863 41.8676 47.2716 42.7986 48.2017C43.7296 49.1317 44.9156 49.7647 46.2065 50.0206C47.4973 50.2765 48.8349 50.1439 50.0503 49.6393C51.2657 49.1348 52.304 48.2811 53.0341 47.1863C53.7642 46.0915 54.1534 44.8046 54.1521 43.4887C54.1503 41.7256 53.4486 40.0354 52.2012 38.7894C50.9539 37.5433 49.2628 36.8434 47.4998 36.8434Z" fill="#E3E3E3"/>
<path d="M47.6592 68.409C46.3877 68.4073 45.1688 67.9014 44.2697 67.0023C43.3706 66.1032 42.8647 64.8843 42.863 63.6127V63.4112C42.8236 62.7429 42.5956 62.0995 42.2055 61.5555C41.8153 61.0114 41.2791 60.5891 40.6588 60.3374C40.0384 60.0857 39.3594 60.015 38.7005 60.1334C38.0416 60.2519 37.4297 60.5547 36.9358 61.0066L36.8057 61.1366C35.9121 62.0285 34.7032 62.5326 33.4407 62.5399C32.1782 62.5472 30.9637 62.0571 30.0598 61.1756H30.0274C29.1305 60.2744 28.627 59.0546 28.627 57.7831C28.627 56.5116 29.1305 55.2919 30.0274 54.3906L30.1639 54.2542C30.6231 53.7772 30.9325 53.1762 31.0543 52.5253C31.1761 51.8745 31.105 51.2022 30.8493 50.5914C30.5937 49.9806 30.1649 49.458 29.6159 49.088C29.0668 48.7179 28.4212 48.5167 27.7591 48.509H27.3758C26.1037 48.509 24.8839 48.0037 23.9844 47.1042C23.085 46.2048 22.5796 44.9848 22.5796 43.7128C22.5796 42.4408 23.085 41.2208 23.9844 40.3213C24.8839 39.4218 26.1037 38.9165 27.3758 38.9165H27.5773C28.2456 38.8757 28.8885 38.6465 29.4321 38.2556C29.9757 37.8647 30.3979 37.328 30.6494 36.7074C30.9009 36.0869 30.9716 35.4079 30.8535 34.7488C30.7354 34.0897 30.433 33.4775 29.9817 32.9829L29.8519 32.8529C29.1839 32.1809 28.7296 31.3264 28.5461 30.3968C28.3627 29.4672 28.4583 28.5041 28.8209 27.6287C29.1836 26.7533 29.7969 26.0048 30.584 25.4773C31.3712 24.9498 32.2967 24.6669 33.2443 24.6642C34.4984 24.6586 35.704 25.1492 36.5979 26.029L36.6369 26.068L36.7733 26.2044C37.2546 26.6714 37.8651 26.983 38.5257 27.0989C39.1862 27.2148 39.8664 27.1296 40.4779 26.8543H40.6077H40.7181C41.3061 26.5882 41.8056 26.159 42.1569 25.6175C42.5083 25.0761 42.697 24.4452 42.7005 23.7998V23.3644C42.7005 22.0923 43.2059 20.8724 44.1054 19.9729C45.0048 19.0734 46.2247 18.5681 47.4967 18.5681C48.7688 18.5681 49.9886 19.0734 50.8881 19.9729C51.7875 20.8724 52.2929 22.0923 52.2929 23.3644V23.5659C52.2994 24.2292 52.5004 24.8762 52.8708 25.4266C53.2411 25.977 53.7648 26.4068 54.3768 26.6627C54.9889 26.9186 55.6626 26.9894 56.3145 26.8664C56.9664 26.7433 57.5679 26.4319 58.0446 25.9705L58.1747 25.8405C59.074 24.9424 60.2929 24.438 61.5638 24.438C62.8348 24.438 64.0537 24.9424 64.953 25.8405L64.992 25.8795C65.8787 26.7782 66.3759 27.99 66.3759 29.2525C66.3759 30.515 65.8787 31.7267 64.992 32.6255L64.8492 32.762C64.3817 33.2443 64.0696 33.8559 63.9537 34.5175C63.8378 35.1792 63.9235 35.8604 64.1993 36.4729V36.6028V36.7134C64.4665 37.2968 64.8957 37.7909 65.4363 38.1366C65.9768 38.4824 66.6057 38.6651 67.2473 38.6631H67.6243C68.8964 38.6631 70.1162 39.1683 71.0157 40.0678C71.9151 40.9673 72.4205 42.1873 72.4205 43.4593C72.4205 44.7314 71.9151 45.9513 71.0157 46.8508C70.1162 47.7502 68.8964 48.2556 67.6243 48.2556H67.4228C66.7672 48.2587 66.1266 48.4536 65.5803 48.8162C65.0341 49.1788 64.6062 49.6933 64.3488 50.2962C64.0721 50.9085 63.986 51.59 64.1019 52.2519C64.2178 52.9137 64.5304 53.5254 64.9987 54.0072L65.1351 54.1437C66.0266 55.0362 66.5304 56.244 66.5377 57.5054C66.545 58.7669 66.0552 59.9804 65.1742 60.8831L65.1285 60.9221C64.6861 61.3705 64.159 61.7261 63.5776 61.9682C62.9963 62.2104 62.3723 62.3342 61.7425 62.3324C60.4909 62.3348 59.2886 61.8446 58.3956 60.9676L58.3305 60.9026L58.2201 60.7921C57.7434 60.3307 57.1419 60.0193 56.49 59.8963C55.8381 59.7733 55.1644 59.844 54.5523 60.0999C53.9402 60.3558 53.4166 60.7856 53.0463 61.336C52.6759 61.8865 52.4749 62.5334 52.4684 63.1968V63.5802C52.4718 64.2137 52.35 64.8415 52.1098 65.4277C51.8696 66.0138 51.5156 66.5466 51.0686 66.9954C50.6216 67.4442 50.0903 67.8002 49.5051 68.0428C48.92 68.2854 48.2926 68.4099 47.6592 68.409ZM39.2819 59.3948C40.3616 59.4103 41.3963 59.8313 42.1801 60.5741C42.9639 61.317 43.4396 62.3274 43.5129 63.4047V63.6127C43.5129 64.7124 43.9497 65.767 44.7273 66.5446C45.5049 67.3222 46.5595 67.7591 47.6592 67.7591C48.7589 67.7591 49.8134 67.3222 50.591 66.5446C51.3686 65.767 51.8055 64.7124 51.8055 63.6127V63.2293C51.8125 62.4381 52.0517 61.6664 52.4931 61.0098C52.9346 60.3532 53.5587 59.8406 54.2886 59.5355C55.0186 59.2303 55.8221 59.1461 56.5995 59.2933C57.3768 59.4404 58.0942 59.8124 58.6621 60.3632L58.8049 60.4997C59.1871 60.8866 59.6425 61.1934 60.1447 61.402C60.6469 61.6107 61.1857 61.7171 61.7295 61.715C62.8118 61.7178 63.8515 61.2926 64.6217 60.5321L64.6607 60.4932C65.4354 59.717 65.8704 58.6652 65.8704 57.5686C65.8704 56.472 65.4354 55.4202 64.6607 54.6441L64.5243 54.5076C63.9735 53.9397 63.6013 53.2226 63.4542 52.4452C63.3071 51.6678 63.3912 50.8643 63.6963 50.1344C64.0015 49.4044 64.5141 48.78 65.1707 48.3386C65.8273 47.8972 66.599 47.6582 67.3901 47.6512H67.5916C68.6913 47.6512 69.7459 47.2143 70.5235 46.4367C71.3011 45.6591 71.7379 44.6045 71.7379 43.5048C71.7379 42.4051 71.3011 41.3505 70.5235 40.5729C69.7459 39.7953 68.6913 39.3584 67.5916 39.3584H67.2146C66.4316 39.3582 65.6662 39.1277 65.0133 38.6955C64.3603 38.2633 63.8488 37.6485 63.5427 36.9278V36.8044V36.6873C63.2331 35.9604 63.1464 35.1579 63.2933 34.3816C63.4403 33.6053 63.8143 32.89 64.3681 32.3265L64.5046 32.19C65.2761 31.4122 65.7092 30.361 65.7092 29.2655C65.7092 28.1699 65.2761 27.1188 64.5046 26.3409H64.4656C63.6894 25.5663 62.6376 25.1311 61.541 25.1311C60.4444 25.1311 59.3926 25.5663 58.6164 26.3409L58.48 26.4774C57.912 27.0282 57.195 27.4002 56.4176 27.5474C55.6402 27.6945 54.8368 27.6103 54.1068 27.3052C53.3768 27 52.7524 26.4874 52.311 25.8308C51.8696 25.1742 51.6307 24.4025 51.6236 23.6113V23.3644C51.6236 22.2647 51.1868 21.21 50.4092 20.4325C49.6316 19.6549 48.577 19.218 47.4774 19.218C46.3777 19.218 45.3228 19.6549 44.5452 20.4325C43.7676 21.21 43.3307 22.2647 43.3307 23.3644V23.7413C43.3285 24.5247 43.0972 25.2903 42.6653 25.9439C42.2334 26.5975 41.62 27.1105 40.9003 27.4198H40.7702H40.6597C39.9319 27.7268 39.1293 27.8117 38.3533 27.6637C37.5774 27.5156 36.8626 27.1414 36.2989 26.5879L36.1558 26.4449C35.3597 25.781 34.3442 25.4389 33.3087 25.4856C32.2732 25.5324 31.2926 25.9648 30.5596 26.6978C29.8266 27.4307 29.3945 28.4113 29.3477 29.4468C29.3009 30.4824 29.6428 31.4979 30.3067 32.294L30.4368 32.424C30.9795 33.0086 31.3441 33.736 31.4878 34.5207C31.6315 35.3053 31.5485 36.1147 31.2482 36.8538C30.948 37.5928 30.4432 38.2309 29.7929 38.693C29.1427 39.1551 28.374 39.422 27.5773 39.4624H27.3691C26.2694 39.4624 25.2149 39.8993 24.4373 40.6769C23.6597 41.4545 23.2228 42.5091 23.2228 43.6088C23.2228 44.7085 23.6597 45.7631 24.4373 46.5407C25.2149 47.3183 26.2694 47.7552 27.3691 47.7552H27.7528C28.5439 47.7622 29.3156 48.0012 29.9722 48.4426C30.6288 48.884 31.1414 49.5083 31.4466 50.2383C31.7517 50.9683 31.8358 51.7718 31.6887 52.5491C31.5415 53.3265 31.1694 54.0436 30.6186 54.6116L30.4822 54.7481C29.7063 55.5216 29.2678 56.5703 29.2617 57.6659C29.2556 58.7615 29.6826 59.8151 30.4498 60.5972L30.5082 60.6557C31.2852 61.4288 32.3367 61.8627 33.4328 61.8627C34.5288 61.8627 35.5803 61.4288 36.3573 60.6557L36.4938 60.5257C37.2448 59.7947 38.2535 59.3884 39.3015 59.3948H39.2819Z" fill="#E3E3E3"/>
<path d="M5.54248 50.8181C8.80948 70.7729 26.1321 85.9999 47.0112 85.9999C67.8903 85.9999 85.2129 70.7729 88.4799 50.8181" stroke="#E3E3E3" stroke-linecap="round" stroke-linejoin="round"/>
<path d="M5.54248 39.0908C8.80948 19.136 26.1321 3.90901 47.0112 3.90901C67.8903 3.90902 85.2129 19.136 88.4799 39.0908" stroke="#E3E3E3" stroke-linecap="round" stroke-linejoin="round"/>
</svg>
