<svg width="87" height="87" viewBox="0 0 87 87" fill="none" xmlns="http://www.w3.org/2000/svg">
<path d="M16.6909 4.91151C21.4651 1.70921 27.078 0 32.8198 0C40.5194 0 47.9036 3.07043 53.348 8.53584C58.7924 14.0012 61.8511 21.4139 61.8511 29.1432C61.8511 34.9072 60.1484 40.5417 56.9584 45.3343C56.7376 45.6661 56.5103 45.9929 56.2767 46.3144L85.1135 74.0574C85.6089 74.5297 86.005 75.0969 86.2785 75.7253C86.552 76.3538 86.6974 77.0309 86.7061 77.7167C86.7148 78.4025 86.5866 79.0831 86.3291 79.7183C86.0716 80.3536 85.69 80.9307 85.2068 81.4155C84.7233 81.9002 84.1482 82.2828 83.5151 82.5407C82.8821 82.7987 82.204 82.9268 81.5208 82.9175C80.8377 82.9081 80.1633 82.7616 79.5375 82.4865C78.9117 82.2113 78.347 81.8132 77.8769 81.3155L50.3173 52.3983C48.3621 53.8808 46.2175 55.1167 43.9296 56.068C38.6248 58.2738 32.7876 58.8509 27.1561 57.7264C21.5246 56.6019 16.3517 53.8263 12.2916 49.7506C8.23154 45.6748 5.4666 40.482 4.34642 34.8288C3.22624 29.1755 3.80113 23.3158 5.99844 17.9906C8.19576 12.6654 11.9168 8.1138 16.6909 4.91151Z" fill="#71A5D2"/>
<path d="M15.9077 32.0752L24.9399 39.2247C26.5445 40.4948 28.849 40.349 30.2807 38.8867L45.2479 23.5996" stroke="white" stroke-linecap="round" stroke-linejoin="round"/>
<path d="M1.2373 32.3889C1.2373 48.4898 14.3351 61.5885 30.4348 61.5885C46.5346 61.5885 59.6323 48.4898 59.6323 32.3889C59.6323 16.2879 46.5346 3.18921 30.4348 3.18921" stroke="#E3E3E3"/>
<path d="M82.6809 76.6729C83.4642 77.4175 84.0064 78.3798 84.2375 79.4356C84.4686 80.4914 84.3781 81.5922 83.9776 82.596C83.5772 83.5999 82.8851 84.4607 81.9908 85.0674C81.0964 85.6741 80.0408 85.9989 78.9601 85.9999H78.8821C78.16 85.9923 77.4468 85.839 76.7854 85.5492C76.1239 85.2594 75.5278 84.839 75.0327 84.3133L51.759 59.7539C51.5773 59.5645 51.4776 59.3111 51.4816 59.0486C51.4855 58.7861 51.5928 58.5358 51.7801 58.3519L56.7468 53.389C56.9318 53.2033 57.1822 53.0975 57.4443 53.0943C57.7064 53.0912 57.9593 53.1909 58.1487 53.3722L64.2818 59.1974" stroke="#E3E3E3"/>
<path d="M25.8083 9.12646C21.2078 10.0416 16.9819 12.3006 13.6651 15.6176C10.3483 18.9346 8.08956 23.1608 7.17446 27.7617C6.25936 32.3626 6.72904 37.1315 8.52408 41.4654C10.3191 45.7993 13.3589 49.5036 17.259 52.1098C21.1592 54.716 25.7445 56.107 30.4352 56.107C36.7229 56.0998 42.751 53.5986 47.1972 49.1521C51.6433 44.7057 54.1443 38.6771 54.1516 32.3889" stroke="#E3E3E3"/>
</svg>
