<svg width="95" height="87" viewBox="0 0 95 87" fill="none" xmlns="http://www.w3.org/2000/svg">
<rect x="6" width="89" height="81" rx="10" fill="#71A5D2"/>
<path d="M69.1566 85.6494H9.03661C4.59811 85.6494 1 82.0464 1 77.602V63.0385M88.421 49.1104V13.2231C88.421 8.77871 84.8229 5.17578 80.3844 5.17578H35.9283M1 40.1345V13.2231C1 8.77871 4.59811 5.17578 9.03661 5.17578H16.1459" stroke="#E3E3E3" stroke-linecap="round" stroke-linejoin="round"/>
<path d="M25.2643 85.6494H80.3843C84.8228 85.6494 88.4209 82.0465 88.4209 77.6021V48.9811" stroke="#E3E3E3" stroke-linecap="round" stroke-linejoin="round"/>
<path d="M56.0195 32.3975L62.8197 39.2068L56.0195 46.0161" stroke="#E3E3E3" stroke-linecap="round" stroke-linejoin="round"/>
<path d="M38.7094 32.3975L31.9092 39.2068L38.7094 46.0161" stroke="#E3E3E3" stroke-linecap="round" stroke-linejoin="round"/>
<path d="M51.0727 32.3975L44.2725 46.0161" stroke="#E3E3E3" stroke-linecap="round" stroke-linejoin="round"/>
<path d="M1.15479 25.2946H68.075" stroke="#E3E3E3" stroke-linecap="round" stroke-linejoin="round"/>
<path d="M15.217 14.2294C15.4157 14.2294 15.6099 14.2884 15.7751 14.3989C15.9403 14.5094 16.0691 14.6665 16.1451 14.8503C16.2211 15.0341 16.241 15.2364 16.2023 15.4315C16.1635 15.6267 16.0678 15.8059 15.9273 15.9466C15.7868 16.0873 15.6078 16.1831 15.413 16.2219C15.2181 16.2607 15.0161 16.2408 14.8325 16.1646C14.649 16.0885 14.4921 15.9596 14.3817 15.7941C14.2713 15.6287 14.2124 15.4342 14.2124 15.2353C14.2124 14.9685 14.3182 14.7126 14.5066 14.524C14.695 14.3353 14.9505 14.2294 15.217 14.2294" stroke="#E3E3E3" stroke-linecap="round" stroke-linejoin="round"/>
<path d="M11.5089 51.587C11.8757 51.587 12.2343 51.696 12.5393 51.9C12.8442 52.1041 13.082 52.3941 13.2223 52.7334C13.3627 53.0728 13.3994 53.4462 13.3279 53.8064C13.2563 54.1667 13.0797 54.4976 12.8203 54.7573C12.5609 55.017 12.2305 55.1939 11.8707 55.2655C11.511 55.3372 11.1381 55.3004 10.7992 55.1598C10.4603 55.0193 10.1706 54.7813 9.96685 54.4759C9.76307 54.1705 9.6543 53.8114 9.6543 53.4441C9.6543 52.9516 9.84969 52.4792 10.1975 52.131C10.5453 51.7827 11.017 51.587 11.5089 51.587" stroke="#E3E3E3" stroke-linecap="round" stroke-linejoin="round"/>
<path d="M11.5089 73.8719C11.8757 73.8719 12.2343 73.9809 12.5393 74.1849C12.8442 74.389 13.082 74.679 13.2223 75.0184C13.3627 75.3577 13.3994 75.7311 13.3279 76.0913C13.2563 76.4516 13.0797 76.7825 12.8203 77.0422C12.5609 77.3019 12.2305 77.4788 11.8707 77.5504C11.511 77.6221 11.1381 77.5853 10.7992 77.4448C10.4603 77.3042 10.1706 77.0662 9.96685 76.7608C9.76307 76.4554 9.6543 76.0963 9.6543 75.729C9.6543 75.2365 9.84969 74.7641 10.1975 74.4159C10.5453 74.0676 11.017 73.8719 11.5089 73.8719" stroke="#E3E3E3" stroke-linecap="round" stroke-linejoin="round"/>
<path d="M11.5089 59.0155C11.8757 59.0155 12.2343 59.1244 12.5393 59.3285C12.8442 59.5325 13.082 59.8226 13.2223 60.1619C13.3627 60.5012 13.3994 60.8746 13.3279 61.2349C13.2563 61.5951 13.0797 61.926 12.8203 62.1857C12.5609 62.4455 12.2305 62.6223 11.8707 62.694C11.511 62.7656 11.1381 62.7289 10.7992 62.5883C10.4603 62.4478 10.1706 62.2097 9.96685 61.9043C9.76307 61.5989 9.6543 61.2399 9.6543 60.8726C9.6543 60.3801 9.84969 59.9077 10.1975 59.5594C10.5453 59.2112 11.017 59.0155 11.5089 59.0155" stroke="#E3E3E3" stroke-linecap="round" stroke-linejoin="round"/>
<path d="M11.5089 66.4435C11.8757 66.4435 12.2343 66.5524 12.5393 66.7565C12.8442 66.9605 13.082 67.2505 13.2223 67.5899C13.3627 67.9292 13.3994 68.3026 13.3279 68.6629C13.2563 69.0231 13.0797 69.354 12.8203 69.6137C12.5609 69.8734 12.2305 70.0503 11.8707 70.122C11.511 70.1936 11.1381 70.1568 10.7992 70.0163C10.4603 69.8757 10.1706 69.6377 9.96685 69.3323C9.76307 69.0269 9.6543 68.6679 9.6543 68.3006C9.6543 67.808 9.84969 67.3357 10.1975 66.9874C10.5453 66.6391 11.017 66.4435 11.5089 66.4435" stroke="#E3E3E3" stroke-linecap="round" stroke-linejoin="round"/>
<path d="M27.2736 14.2294C27.4723 14.2294 27.6665 14.2884 27.8317 14.3989C27.9969 14.5094 28.1257 14.6665 28.2017 14.8503C28.2778 15.0341 28.2977 15.2364 28.2589 15.4315C28.2201 15.6267 28.1245 15.8059 27.984 15.9466C27.8435 16.0873 27.6645 16.1831 27.4696 16.2219C27.2747 16.2607 27.0727 16.2408 26.8892 16.1646C26.7056 16.0885 26.5487 15.9596 26.4383 15.7941C26.328 15.6287 26.269 15.4342 26.269 15.2353C26.269 14.9685 26.3749 14.7126 26.5633 14.524C26.7517 14.3353 27.0072 14.2294 27.2736 14.2294Z" stroke="#E3E3E3" stroke-linecap="round" stroke-linejoin="round"/>
<path d="M39.3273 14.2294C39.526 14.2294 39.7202 14.2884 39.8854 14.3989C40.0506 14.5094 40.1794 14.6665 40.2554 14.8503C40.3315 15.0341 40.3514 15.2364 40.3126 15.4315C40.2738 15.6267 40.1782 15.8059 40.0377 15.9466C39.8972 16.0873 39.7182 16.1831 39.5233 16.2219C39.3284 16.2607 39.1265 16.2408 38.9429 16.1646C38.7593 16.0885 38.6024 15.9596 38.4921 15.7941C38.3817 15.6287 38.3228 15.4342 38.3228 15.2353C38.3228 14.9685 38.4286 14.7126 38.617 14.524C38.8054 14.3353 39.0609 14.2294 39.3273 14.2294Z" stroke="#E3E3E3" stroke-linecap="round" stroke-linejoin="round"/>
<path d="M28.8185 53.4603H18.3091" stroke="#E3E3E3" stroke-linecap="round" stroke-linejoin="round"/>
<path d="M38.4006 75.7454H18.3091" stroke="#E3E3E3" stroke-linecap="round" stroke-linejoin="round"/>
<path d="M62.8195 60.8889H18.3091" stroke="#E3E3E3" stroke-linecap="round" stroke-linejoin="round"/>
<path d="M50.1464 68.3175H18.3091" stroke="#E3E3E3" stroke-linecap="round" stroke-linejoin="round"/>
<path d="M69.0026 53.4603H33.7651" stroke="#E3E3E3" stroke-linecap="round" stroke-linejoin="round"/>
<path d="M58.8022 75.7454H42.729" stroke="#E3E3E3" stroke-linecap="round" stroke-linejoin="round"/>
</svg>
