<svg width="91" height="87" viewBox="0 0 91 87" fill="none" xmlns="http://www.w3.org/2000/svg">
<path d="M60.9122 50.6058C59.7099 46.5256 57.4929 42.4896 54.2943 38.0952L41.9739 19.0121C41.5548 18.3781 41.0088 17.8267 40.3746 17.4021C39.7404 16.9776 39.0345 16.6798 38.2845 16.531C37.54 16.3821 36.7679 16.3821 36.0178 16.531C35.2678 16.6798 34.5564 16.9721 33.9222 17.3966C33.0508 17.9756 32.7751 18.5214 32.4993 19.0728L30.1665 15.7039C29.3448 14.4027 28.0377 13.4764 26.5377 13.14C25.0376 12.8037 23.4604 13.0794 22.1588 13.9009C21.2489 14.4744 19.7488 16.0292 19.7488 16.8563L19.1422 15.8473C18.3425 14.5295 17.052 13.5866 15.5575 13.2282C14.0629 12.8643 12.4857 13.118 11.1676 13.923C9.93226 14.6784 9.02781 15.8693 8.6197 17.2588C8.2116 18.6482 8.33844 20.1425 8.96714 21.4437L9.88814 23.4838C9.33113 23.4838 7.94137 23.6437 6.61227 24.4266C5.28318 25.2096 4.31807 26.4888 3.92651 27.983C3.53495 29.4772 3.75003 31.0652 4.52763 32.394L6.0663 35.035L22.1644 57.3932C22.1644 57.3932 13.1971 55.7225 8.76309 55.7225C4.3291 55.7225 3 58.6889 3 58.6889C3 58.6889 17.3278 78.5328 32.6813 80.6942C46.0991 82.5854 56.6712 75.5444 60.9122 63.9986C62.6329 59.3175 62.0648 55.7225 60.9122 50.6003V50.6058Z" fill="#CE7783"/>
<path d="M33.0878 50.6058C34.2901 46.5256 36.5071 42.4896 39.7057 38.0952L52.0261 19.0121C52.4452 18.3781 52.9912 17.8267 53.6254 17.4021C54.2596 16.9776 54.9655 16.6798 55.7155 16.531C56.46 16.3821 57.2321 16.3821 57.9822 16.531C58.7322 16.6798 59.4436 16.9721 60.0778 17.3966C60.9492 17.9756 61.2249 18.5214 61.5007 19.0728L63.8335 15.7039C64.6552 14.4027 65.9623 13.4764 67.4623 13.14C68.9624 12.8037 70.5396 13.0794 71.8412 13.9009C72.7511 14.4744 74.2512 16.0292 74.2512 16.8563L74.8578 15.8473C75.6575 14.5295 76.948 13.5866 78.4425 13.2282C79.9371 12.8643 81.5143 13.118 82.8324 13.923C84.0677 14.6784 84.9722 15.8693 85.3803 17.2588C85.7884 18.6482 85.6616 20.1425 85.0329 21.4437L84.1119 23.4838C84.6689 23.4838 86.0586 23.6437 87.3877 24.4266C88.7168 25.2096 89.6819 26.4888 90.0735 27.983C90.4651 29.4772 90.25 31.0652 89.4724 32.394L87.9337 35.035L71.8356 57.3932C71.8356 57.3932 80.8029 55.7225 85.2369 55.7225C89.6709 55.7225 91 58.6889 91 58.6889C91 58.6889 76.6722 78.5328 61.3187 80.6942C47.9009 82.5854 37.3288 75.5444 33.0878 63.9986C31.3672 59.3175 31.9352 55.7225 33.0878 50.6003V50.6058Z" fill="#CE7783"/>
<path d="M30.2261 68.0523C34.5723 79.8921 44.4662 87.6425 58.2223 85.7027C73.9635 83.4833 88.6581 63.1311 88.6581 63.1311C88.6581 63.1311 87.2843 60.0834 82.7377 60.0834C78.1912 60.0834 70.2741 63.7817 70.2741 63.7817L85.5054 38.8668L87.0825 36.1607C87.878 34.7945 88.0996 33.1663 87.6987 31.6341C87.2979 30.1019 86.3072 28.791 84.9446 27.9895C83.5812 27.1889 81.9576 26.9638 80.4309 27.3637C78.9042 27.7636 77.5993 28.7557 76.8033 30.1219L64.0536 51.9062" stroke="#E3E3E3" stroke-miterlimit="10" stroke-linecap="round"/>
<path d="M59.4321 68.0523C55.0859 79.8921 45.192 87.6425 31.4359 85.7027C15.6947 83.4833 1.00012 63.1311 1.00012 63.1311C1.00012 63.1311 2.37388 60.0834 6.92046 60.0834C11.467 60.0834 19.3841 63.7817 19.3841 63.7817L15.5763 57.553M25.6046 51.9062L12.8549 30.1219C12.0589 28.7557 10.754 27.7636 9.22729 27.3637C7.70057 26.9638 6.07698 27.1889 4.71361 27.9895C3.35096 28.791 2.36034 30.1019 1.95946 31.6341C1.55859 33.1663 1.78025 34.7945 2.57573 36.1607L4.15277 38.8668L7.9606 45.0955" stroke="#E3E3E3" stroke-miterlimit="10" stroke-linecap="round"/>
<path d="M56.0099 45.2762L72.0949 19.1986C72.9163 17.8479 74.2393 16.8807 75.7731 16.5098C77.3068 16.1388 78.9255 16.3945 80.2733 17.2206C81.5376 17.996 82.4692 19.2158 82.8862 20.6419C83.3032 22.068 83.1757 23.5981 82.5286 24.9332L81.5844 27.0243" stroke="#E3E3E3" stroke-miterlimit="10" stroke-linecap="round"/>
<path d="M33.5293 45.6114L17.0056 18.276C16.1842 16.9254 14.8611 15.9582 13.3274 15.5872C11.7936 15.2163 10.1749 15.472 8.82718 16.2981C7.56288 17.0735 6.63128 18.2933 6.21425 19.7194C5.79722 21.1455 5.9247 22.6755 6.57182 24.0107L8.07363 27.0242" stroke="#E3E3E3" stroke-miterlimit="10" stroke-linecap="round"/>
<path d="M50.1956 36.3317L60.7895 19.0463C61.6325 17.709 62.9709 16.7633 64.5104 16.417C66.0499 16.0708 67.6643 16.3525 68.9986 17.2001C69.9294 17.7909 71.178 18.7919 71.6629 19.7839" stroke="#E3E3E3" stroke-miterlimit="10" stroke-linecap="round"/>
<path d="M39.462 36.3317L28.8683 19.0463C28.0253 17.709 26.6868 16.7632 25.1473 16.417C23.6078 16.0708 21.9934 16.3524 20.6592 17.2001C19.7284 17.7909 18.4797 18.7919 17.9948 19.7839" stroke="#E3E3E3" stroke-miterlimit="10" stroke-linecap="round"/>
<path d="M29.2754 54.8409C30.5082 50.6555 32.7791 46.5152 36.0614 42.0099L48.6929 22.4371C49.1251 21.7844 49.6814 21.2238 50.33 20.7873C50.9786 20.3507 51.7066 20.0466 52.4727 19.8926C53.2387 19.7386 54.0277 19.7376 54.7946 19.8896C55.5614 20.0417 56.2911 20.3438 56.942 20.7787C57.8354 21.3743 58.1162 21.9344 58.3989 22.5" stroke="#E3E3E3" stroke-miterlimit="10" stroke-linecap="round"/>
<path d="M60.3828 54.8409C59.15 50.6555 56.8791 46.5152 53.5968 42.0099L40.9653 22.4371C40.5331 21.7844 39.9768 21.2238 39.3282 20.7873C38.6796 20.3507 37.9516 20.0466 37.1855 19.8926C36.4195 19.7386 35.6305 19.7376 34.8636 19.8896C34.0968 20.0417 33.3671 20.3438 32.7162 20.7787C31.8228 21.3743 31.542 21.9344 31.2593 22.5" stroke="#E3E3E3" stroke-miterlimit="10" stroke-linecap="round"/>
<path d="M45.7725 1L45.7238 8.92251" stroke="white" stroke-linecap="round" stroke-linejoin="round"/>
<path d="M25.1509 7.26123L30.2449 14.027" stroke="white" stroke-linecap="round" stroke-linejoin="round"/>
<path d="M64.2349 7.26123L59.1408 14.027" stroke="white" stroke-linecap="round" stroke-linejoin="round"/>
</svg>
