<svg width="71" height="85" viewBox="0 0 71 85" fill="none" xmlns="http://www.w3.org/2000/svg">
<path d="M26.0596 59.1418H47.6292V69.3387H26.0596V59.1418Z" fill="#EAB669"/>
<path d="M69 31.7683C69 49.3134 54.6731 63.5365 37 63.5365C19.3269 63.5365 5 49.3134 5 31.7683C5 14.2231 19.3269 0 37 0C54.6731 0 69 14.2231 69 31.7683Z" fill="#EAB669"/>
<path d="M45.2685 72.8298V79.832C45.2685 80.407 45.0468 80.9584 44.6514 81.365C44.256 81.7716 43.7195 82 43.1603 82H30.2086C29.6517 81.9964 29.119 81.7664 28.7264 81.3602C28.3339 80.9541 28.1138 80.4047 28.1139 79.832V72.8298" fill="#EAB669"/>
<path d="M31.9393 72.8298H22.7633C22.5478 72.8298 22.341 72.746 22.1886 72.5966C22.0361 72.4473 21.9511 72.2447 21.9511 72.0335V67.0631C21.9511 66.9592 21.9722 66.8563 22.0132 66.7604C22.0542 66.6645 22.1142 66.5775 22.1898 66.5045C22.2655 66.4316 22.355 66.3743 22.4536 66.3357C22.5521 66.2971 22.6572 66.278 22.7633 66.2797H50.8289C50.9351 66.278 51.0402 66.2971 51.1387 66.3357C51.2373 66.3743 51.3274 66.4316 51.4031 66.5045C51.4787 66.5775 51.5387 66.6645 51.5797 66.7604C51.6207 66.8563 51.6418 66.9592 51.6418 67.0631V72.0335C51.6418 72.2447 51.5561 72.4473 51.4037 72.5966C51.2513 72.746 51.0445 72.8298 50.8289 72.8298H42.046" fill="#EAB669"/>
<path d="M59.4556 12.4899L65.8793 19.2348L59.4556 25.9796" stroke="#E3E3E3" stroke-linecap="round" stroke-linejoin="round"/>
<path d="M42.1117 12.4899L35.688 19.2348L42.1117 25.9796" stroke="#E3E3E3" stroke-linecap="round" stroke-linejoin="round"/>
<path d="M53.6744 12.4899L47.8931 25.9796" stroke="#E3E3E3" stroke-linecap="round" stroke-linejoin="round"/>
<path d="M33.6404 29.8336C32.9909 29.8336 32.368 29.5779 31.9087 29.1228C31.4494 28.6677 31.1914 28.0505 31.1914 27.4069V10.4198C31.1914 9.77616 31.4494 9.15892 31.9087 8.70381C32.368 8.24871 32.9909 7.99304 33.6404 7.99304H67.9269C68.5765 7.99304 69.1994 8.24871 69.6587 8.70381C70.1179 9.15892 70.376 9.77616 70.376 10.4198V15.9595M70.376 24.5058V27.4069C70.376 28.0505 70.1179 28.6677 69.6587 29.1228C69.1994 29.5779 68.5765 29.8336 67.9269 29.8336H41.8926" stroke="#E3E3E3" stroke-linecap="round" stroke-linejoin="round"/>
<path d="M14.4897 58.4331C16.2184 59.6106 18.0651 60.6059 19.9999 61.4029V69.0181H43.9232V61.4029C48.8318 59.3552 53.132 56.0867 56.4136 51.9094C59.6951 47.7321 61.8484 42.7855 62.6675 37.542" stroke="#E3E3E3" stroke-linecap="round" stroke-linejoin="round"/>
<path d="M38.2574 2.28257C36.1082 1.81142 33.9155 1.57244 31.7164 1.56946C23.5699 1.56946 15.757 4.84593 9.99653 10.6783C4.23607 16.5107 1.00001 24.4212 1.00001 32.6695C0.996564 36.5336 1.70425 40.3645 3.08761 43.9659" stroke="#E3E3E3" stroke-linecap="round" stroke-linejoin="round"/>
<path d="M39.7016 75.4419V82.309C39.7016 82.8729 39.4858 83.4136 39.1009 83.8123C38.7159 84.2111 38.1935 84.4351 37.6491 84.4351H25.0395C24.4973 84.4316 23.9786 84.206 23.5964 83.8077C23.2142 83.4093 23 82.8706 23 82.309V75.4419" stroke="#E3E3E3" stroke-linecap="round" stroke-linejoin="round"/>
<path d="M26.7245 75.442H17.7908C17.5809 75.442 17.3796 75.3598 17.2312 75.2134C17.0828 75.0669 17 74.8682 17 74.6611V69.7867C17 69.6847 17.0205 69.5839 17.0604 69.4898C17.1004 69.3958 17.1588 69.3104 17.2324 69.2389C17.3061 69.1674 17.3933 69.1112 17.4892 69.0733C17.5851 69.0354 17.6875 69.0167 17.7908 69.0184H45.1152C45.2185 69.0167 45.3209 69.0354 45.4168 69.0733C45.5128 69.1112 45.6006 69.1674 45.6742 69.2389C45.7479 69.3104 45.8063 69.3958 45.8462 69.4898C45.8861 69.5839 45.9067 69.6847 45.9066 69.7867V74.6611C45.9066 74.8682 45.8232 75.0669 45.6748 75.2134C45.5264 75.3598 45.3251 75.442 45.1152 75.442H36.5642" stroke="#E3E3E3" stroke-linecap="round" stroke-linejoin="round"/>
<path d="M27.3369 69.0183V51.032" stroke="#E3E3E3" stroke-linecap="round" stroke-linejoin="round"/>
<path d="M35.688 66.4489V49.7473" stroke="#E3E3E3" stroke-linecap="round" stroke-linejoin="round"/>
</svg>
