<svg width="24" height="24" viewBox="0 0 24 24" fill="none" xmlns="http://www.w3.org/2000/svg">
<g opacity="0.5" clip-path="url(#clip0_4724_9024)">
<path fill-rule="evenodd" clip-rule="evenodd" d="M1.29289 19.2929C1.48043 19.1054 1.73478 19 2 19H4C4.26522 19 4.51957 19.1054 4.70711 19.2929C4.89464 19.4804 5 19.7348 5 20V23.5C5 23.7761 4.77614 24 4.5 24H1.5C1.22386 24 1 23.7761 1 23.5V20C1 19.7348 1.10536 19.4804 1.29289 19.2929ZM4 20L2 20V23H4V20Z" fill="#E1E1E1"/>
<path fill-rule="evenodd" clip-rule="evenodd" d="M7.29289 14.2929C7.48043 14.1054 7.73478 14 8 14H10C10.2652 14 10.5196 14.1054 10.7071 14.2929C10.8946 14.4804 11 14.7348 11 15V23.5C11 23.7761 10.7761 24 10.5 24H7.5C7.22386 24 7 23.7761 7 23.5V15C7 14.7348 7.10536 14.4804 7.29289 14.2929ZM10 15L8 15L8 23H10V15Z" fill="#E1E1E1"/>
<path fill-rule="evenodd" clip-rule="evenodd" d="M13.2929 17.2929C13.4804 17.1054 13.7348 17 14 17H16C16.2652 17 16.5196 17.1054 16.7071 17.2929C16.8946 17.4804 17 17.7348 17 18V23.5C17 23.7761 16.7761 24 16.5 24H13.5C13.2239 24 13 23.7761 13 23.5V18C13 17.7348 13.1054 17.4804 13.2929 17.2929ZM16 18H14V23H16V18Z" fill="#E1E1E1"/>
<path fill-rule="evenodd" clip-rule="evenodd" d="M19.2929 9.29289C19.4804 9.10536 19.7348 9 20 9H22C22.2652 9 22.5196 9.10536 22.7071 9.29289C22.8946 9.48043 23 9.73478 23 10V23.5C23 23.7761 22.7761 24 22.5 24H19.5C19.2239 24 19 23.7761 19 23.5V10C19 9.73478 19.1054 9.48043 19.2929 9.29289ZM22 10H20V23H22V10Z" fill="#E1E1E1"/>
<path fill-rule="evenodd" clip-rule="evenodd" d="M0.00390625 23.5C0.00390625 23.2239 0.227764 23 0.503906 23H23.5039C23.78 23 24.0039 23.2239 24.0039 23.5C24.0039 23.7761 23.78 24 23.5039 24H0.503906C0.227764 24 0.00390625 23.7761 0.00390625 23.5Z" fill="#E1E1E1"/>
<path fill-rule="evenodd" clip-rule="evenodd" d="M6.94352 5.56051C7.13878 5.75577 7.13878 6.07235 6.94352 6.26762L4.27152 8.93962C4.07626 9.13488 3.75968 9.13488 3.56442 8.93962C3.36915 8.74435 3.36915 8.42777 3.56442 8.23251L6.23642 5.56051C6.43168 5.36525 6.74826 5.36525 6.94352 5.56051Z" fill="#E1E1E1"/>
<path fill-rule="evenodd" clip-rule="evenodd" d="M9.29866 5.25596C9.4378 5.01743 9.74396 4.93686 9.98249 5.076L12.5265 6.56C12.765 6.69914 12.8456 7.0053 12.7064 7.24383C12.5673 7.48236 12.2611 7.56292 12.0226 7.42378L9.47861 5.93978C9.24009 5.80064 9.15952 5.49448 9.29866 5.25596Z" fill="#E1E1E1"/>
<path fill-rule="evenodd" clip-rule="evenodd" d="M19.8253 3.42696C19.9959 3.6441 19.9582 3.95843 19.741 4.12903L15.887 7.15703C15.6699 7.32763 15.3556 7.2899 15.185 7.07276C15.0144 6.85562 15.0521 6.5413 15.2692 6.37069L19.1232 3.34269C19.3404 3.17209 19.6547 3.20982 19.8253 3.42696Z" fill="#E1E1E1"/>
<path fill-rule="evenodd" clip-rule="evenodd" d="M21.0039 1C20.1755 1 19.5039 1.67157 19.5039 2.5C19.5039 3.32843 20.1755 4 21.0039 4C21.8323 4 22.5039 3.32843 22.5039 2.5C22.5039 1.67157 21.8323 1 21.0039 1ZM18.5039 2.5C18.5039 1.11929 19.6232 0 21.0039 0C22.3846 0 23.5039 1.11929 23.5039 2.5C23.5039 3.88071 22.3846 5 21.0039 5C19.6232 5 18.5039 3.88071 18.5039 2.5Z" fill="#E1E1E1"/>
<path fill-rule="evenodd" clip-rule="evenodd" d="M14.0039 6.5C13.1755 6.5 12.5039 7.17157 12.5039 8C12.5039 8.82843 13.1755 9.5 14.0039 9.5C14.8323 9.5 15.5039 8.82843 15.5039 8C15.5039 7.17157 14.8323 6.5 14.0039 6.5ZM11.5039 8C11.5039 6.61929 12.6232 5.5 14.0039 5.5C15.3846 5.5 16.5039 6.61929 16.5039 8C16.5039 9.38071 15.3846 10.5 14.0039 10.5C12.6232 10.5 11.5039 9.38071 11.5039 8Z" fill="#E1E1E1"/>
<path fill-rule="evenodd" clip-rule="evenodd" d="M8.00391 3C7.17548 3 6.50391 3.67157 6.50391 4.5C6.50391 5.32843 7.17548 6 8.00391 6C8.83233 6 9.50391 5.32843 9.50391 4.5C9.50391 3.67157 8.83233 3 8.00391 3ZM5.50391 4.5C5.50391 3.11929 6.62319 2 8.00391 2C9.38462 2 10.5039 3.11929 10.5039 4.5C10.5039 5.88071 9.38462 7 8.00391 7C6.62319 7 5.50391 5.88071 5.50391 4.5Z" fill="#E1E1E1"/>
<path fill-rule="evenodd" clip-rule="evenodd" d="M2.50391 8.5C1.67548 8.5 1.00391 9.17157 1.00391 10C1.00391 10.8284 1.67548 11.5 2.50391 11.5C3.33233 11.5 4.00391 10.8284 4.00391 10C4.00391 9.17157 3.33233 8.5 2.50391 8.5ZM0.00390625 10C0.00390625 8.61929 1.12319 7.5 2.50391 7.5C3.88462 7.5 5.00391 8.61929 5.00391 10C5.00391 11.3807 3.88462 12.5 2.50391 12.5C1.12319 12.5 0.00390625 11.3807 0.00390625 10Z" fill="#E1E1E1"/>
</g>
<defs>
<clipPath id="clip0_4724_9024">
<rect width="24" height="24" fill="white"/>
</clipPath>
</defs>
</svg>
