<svg width="24" height="24" viewBox="0 0 24 24" fill="none" xmlns="http://www.w3.org/2000/svg">
<g clip-path="url(#clip0_4832_23765)">
<circle cx="14.5" cy="9.5" r="7.5" fill="#EAB669"/>
<path fill-rule="evenodd" clip-rule="evenodd" d="M9 20.502C9 20.2258 9.22386 20.002 9.5 20.002H14.5C14.7761 20.002 15 20.2258 15 20.502C15 20.7781 14.7761 21.002 14.5 21.002H9.5C9.22386 21.002 9 20.7781 9 20.502Z" fill="#E1E1E1"/>
<path fill-rule="evenodd" clip-rule="evenodd" d="M9 22.502C9 22.2258 9.22386 22.002 9.5 22.002H14.5C14.7761 22.002 15 22.2258 15 22.502C15 22.7781 14.7761 23.002 14.5 23.002H9.5C9.22386 23.002 9 22.7781 9 22.502Z" fill="#E1E1E1"/>
<path fill-rule="evenodd" clip-rule="evenodd" d="M12 22.002C12.2761 22.002 12.5 22.2258 12.5 22.502V23.502C12.5 23.7781 12.2761 24.002 12 24.002C11.7239 24.002 11.5 23.7781 11.5 23.502V22.502C11.5 22.2258 11.7239 22.002 12 22.002Z" fill="#E1E1E1"/>
<path fill-rule="evenodd" clip-rule="evenodd" d="M12 -0.000230768C14.4476 -0.0644254 16.8213 0.843294 18.6016 2.52472C20.3853 4.20931 21.4276 6.53286 21.4998 8.98525C21.5 8.99341 21.5001 9.00158 21.4999 9.00974C21.4608 11.0048 20.766 12.9316 19.5228 14.4925C18.3613 15.9508 16.7814 17.014 15 17.5425V18C15 18.2652 14.8946 18.5195 14.7071 18.7071C14.5196 18.8946 14.2652 19 14 19H10C9.73479 19 9.48043 18.8946 9.29289 18.7071C9.10536 18.5195 9 18.2652 9 18V17.5425C7.21862 17.014 5.6387 15.9508 4.47716 14.4925C3.23396 12.9316 2.53918 11.0048 2.5001 9.00974C2.49994 9.00158 2.49998 8.99341 2.50022 8.98525C2.57236 6.53286 3.6147 4.20931 5.39839 2.52472C7.17872 0.843294 9.55239 -0.0644254 12 -0.000230768ZM11.9861 0.999759C9.79846 0.939109 7.6761 1.74904 6.08501 3.25173C4.4969 4.75162 3.56762 6.81934 3.50015 9.0024C3.53753 10.7736 4.15554 12.4836 5.25937 13.8695C6.36575 15.2586 7.89865 16.2448 9.62138 16.6759C9.84391 16.7316 10 16.9316 10 17.1609V18H14V17.1609C14 16.9316 14.1561 16.7316 14.3786 16.6759C16.1013 16.2448 17.6342 15.2586 18.7406 13.8695C19.8445 12.4836 20.4625 10.7736 20.4998 9.00241C20.4324 6.81934 19.5031 4.75162 17.915 3.25173C16.3239 1.74904 14.2015 0.939109 12.0139 0.999759C12.0046 1.00002 11.9954 1.00002 11.9861 0.999759Z" fill="#E1E1E1"/>
<path fill-rule="evenodd" clip-rule="evenodd" d="M11.8001 6.00004H13.4983C13.7744 6.00004 13.9983 6.2239 13.9983 6.50004C13.9983 6.77618 13.7744 7.00004 13.4983 7.00004H11.7944C11.6217 6.99871 11.4532 7.05331 11.3141 7.1557C11.1749 7.2581 11.0727 7.40277 11.0226 7.56809C10.9726 7.73341 10.9773 7.9105 11.0363 8.07288C11.0952 8.23526 11.2051 8.37421 11.3495 8.46895L11.3525 8.47093L13.1912 9.69604C13.5148 9.90879 13.7611 10.2202 13.8936 10.5841C14.0264 10.9487 14.0378 11.3463 13.9262 11.7179C13.8146 12.0894 13.5859 12.415 13.2743 12.646C12.9629 12.8769 12.5853 13.001 12.1976 13C12.1973 13 12.1979 13 12.1976 13H10.4983C10.2222 13 9.9983 12.7762 9.9983 12.5C9.9983 12.2239 10.2222 12 10.4983 12H12.1983L12.1998 12C12.3722 12.0006 12.5402 11.9454 12.6787 11.8427C12.8172 11.74 12.9188 11.5953 12.9684 11.4302C13.018 11.2651 13.013 11.0883 12.954 10.9263C12.895 10.7643 12.7852 10.6257 12.6411 10.5311L12.638 10.5291L10.7994 9.30405C10.8 9.30441 10.8005 9.30477 10.8011 9.30513L11.0753 8.88704L10.7981 9.30313L10.7994 9.30405C10.4752 9.09092 10.2286 8.77873 10.0962 8.41399C9.96366 8.04863 9.9529 7.65018 10.0656 7.27821C10.1782 6.90623 10.4083 6.58072 10.7213 6.35033C11.0338 6.12035 11.4121 5.9975 11.8001 6.00004Z" fill="#E1E1E1"/>
<path fill-rule="evenodd" clip-rule="evenodd" d="M12.5 5.00195C12.7761 5.00195 13 5.22581 13 5.50195V6.50195C13 6.7781 12.7761 7.00195 12.5 7.00195C12.2239 7.00195 12 6.7781 12 6.50195V5.50195C12 5.22581 12.2239 5.00195 12.5 5.00195Z" fill="#E1E1E1"/>
<path fill-rule="evenodd" clip-rule="evenodd" d="M11.5 12.002C11.7761 12.002 12 12.2258 12 12.502V13.502C12 13.7781 11.7761 14.002 11.5 14.002C11.2239 14.002 11 13.7781 11 13.502V12.502C11 12.2258 11.2239 12.002 11.5 12.002Z" fill="#E1E1E1"/>
</g>
<defs>
<clipPath id="clip0_4832_23765">
<rect width="24" height="24" fill="white"/>
</clipPath>
</defs>
</svg>
