<svg width="24" height="24" viewBox="0 0 24 24" fill="none" xmlns="http://www.w3.org/2000/svg">
<g opacity="0.5">
<path fill-rule="evenodd" clip-rule="evenodd" d="M9 1.5C9.27614 1.5 9.5 1.72386 9.5 2V4C9.5 4.27614 9.27614 4.5 9 4.5C8.72386 4.5 8.5 4.27614 8.5 4V2C8.5 1.72386 8.72386 1.5 9 1.5Z" fill="#E1E1E1"/>
<path fill-rule="evenodd" clip-rule="evenodd" d="M7.5 3C7.5 2.72386 7.72386 2.5 8 2.5H10C10.2761 2.5 10.5 2.72386 10.5 3C10.5 3.27614 10.2761 3.5 10 3.5H8C7.72386 3.5 7.5 3.27614 7.5 3Z" fill="#E1E1E1"/>
<path fill-rule="evenodd" clip-rule="evenodd" d="M16 20.5C16.2761 20.5 16.5 20.7239 16.5 21V23C16.5 23.2761 16.2761 23.5 16 23.5C15.7239 23.5 15.5 23.2761 15.5 23V21C15.5 20.7239 15.7239 20.5 16 20.5Z" fill="#E1E1E1"/>
<path fill-rule="evenodd" clip-rule="evenodd" d="M14.5 22C14.5 21.7239 14.7239 21.5 15 21.5H17C17.2761 21.5 17.5 21.7239 17.5 22C17.5 22.2761 17.2761 22.5 17 22.5H15C14.7239 22.5 14.5 22.2761 14.5 22Z" fill="#E1E1E1"/>
<path fill-rule="evenodd" clip-rule="evenodd" d="M21.3001 13.5H22.9983C23.2744 13.5 23.4983 13.7239 23.4983 14C23.4983 14.2762 23.2744 14.5 22.9983 14.5H21.2944C21.1217 14.4987 20.9532 14.5533 20.8141 14.6557C20.6749 14.7581 20.5727 14.9028 20.5226 15.0681C20.4726 15.2334 20.4773 15.4105 20.5363 15.5729C20.5952 15.7353 20.7051 15.8742 20.8495 15.9689L20.8525 15.9709L22.6912 17.196C23.0147 17.4088 23.2611 17.7202 23.3936 18.0841C23.5264 18.4487 23.5378 18.8463 23.4262 19.2179C23.3146 19.5894 23.0859 19.915 22.7743 20.146C22.4629 20.3769 22.0853 20.501 21.6976 20.5C21.6973 20.5 21.6979 20.5 21.6976 20.5H19.9983C19.7222 20.5 19.4983 20.2762 19.4983 20C19.4983 19.7239 19.7222 19.5 19.9983 19.5H21.6983L21.6998 19.5C21.8722 19.5006 22.0402 19.4454 22.1787 19.3427C22.3172 19.24 22.4188 19.0953 22.4684 18.9302C22.518 18.7651 22.513 18.5883 22.454 18.4263C22.395 18.2643 22.2852 18.1257 22.1411 18.0311L22.138 18.0291L20.2994 16.8041C20.3 16.8044 20.3005 16.8048 20.3011 16.8051L20.5753 16.387L20.2981 16.8031L20.2994 16.8041C19.9752 16.5909 19.7286 16.2787 19.5962 15.914C19.4637 15.5486 19.4529 15.1502 19.5656 14.7782C19.6782 14.4062 19.9083 14.0807 20.2213 13.8503C20.5338 13.6204 20.9121 13.4975 21.3001 13.5Z" fill="#E1E1E1"/>
<path fill-rule="evenodd" clip-rule="evenodd" d="M22 12.5C22.2761 12.5 22.5 12.7239 22.5 13V14C22.5 14.2761 22.2761 14.5 22 14.5C21.7239 14.5 21.5 14.2761 21.5 14V13C21.5 12.7239 21.7239 12.5 22 12.5Z" fill="#E1E1E1"/>
<path fill-rule="evenodd" clip-rule="evenodd" d="M21 19.5C21.2761 19.5 21.5 19.7239 21.5 20V21C21.5 21.2761 21.2761 21.5 21 21.5C20.7239 21.5 20.5 21.2761 20.5 21V20C20.5 19.7239 20.7239 19.5 21 19.5Z" fill="#E1E1E1"/>
<path fill-rule="evenodd" clip-rule="evenodd" d="M2.30041 1.50002H3.99917C4.27532 1.50002 4.49917 1.72388 4.49917 2.00002C4.49917 2.27616 4.27532 2.50002 3.99917 2.50002H2.29649C2.12391 2.49909 1.95566 2.55399 1.81685 2.65653C1.67804 2.75907 1.57611 2.90375 1.52627 3.06897C1.47643 3.2342 1.48136 3.41111 1.54032 3.57331C1.59928 3.7355 1.70911 3.87428 1.85341 3.96894L1.85643 3.97091L3.69505 5.19601C4.01893 5.40896 4.26543 5.72078 4.39786 6.0851C4.53051 6.45004 4.5416 6.84809 4.42947 7.21985C4.31733 7.5916 4.08799 7.91713 3.77566 8.14785C3.46373 8.37828 3.08572 8.50179 2.69792 8.50002C2.69744 8.50002 2.69697 8.50001 2.69649 8.50001L2.69917 8.00002V8.50002H2.69792H0.999173C0.72303 8.50002 0.499173 8.27616 0.499173 8.00002C0.499173 7.72388 0.72303 7.50002 0.999173 7.50002H2.70186C2.87443 7.50095 3.04268 7.44605 3.18149 7.34351C3.32031 7.24097 3.42224 7.09629 3.47207 6.93106C3.52191 6.76584 3.51698 6.58893 3.45802 6.42673C3.39907 6.26454 3.28924 6.12576 3.14494 6.0311L3.14192 6.02912L1.3033 4.80403C1.30385 4.80439 1.30439 4.80475 1.30494 4.8051L1.57917 4.38702L1.30193 4.80311L1.3033 4.80403C0.979423 4.59108 0.732919 4.27926 0.600486 3.91494C0.467831 3.55 0.456743 3.15195 0.568877 2.78019C0.681012 2.40843 0.910355 2.08291 1.22268 1.85219C1.53462 1.62176 1.91262 1.49825 2.30041 1.50002Z" fill="#E1E1E1"/>
<path fill-rule="evenodd" clip-rule="evenodd" d="M3 0.5C3.27614 0.5 3.5 0.723858 3.5 1V2C3.5 2.27614 3.27614 2.5 3 2.5C2.72386 2.5 2.5 2.27614 2.5 2V1C2.5 0.723858 2.72386 0.5 3 0.5Z" fill="#E1E1E1"/>
<path fill-rule="evenodd" clip-rule="evenodd" d="M2 7.5C2.27614 7.5 2.5 7.72386 2.5 8V9C2.5 9.27614 2.27614 9.5 2 9.5C1.72386 9.5 1.5 9.27614 1.5 9V8C1.5 7.72386 1.72386 7.5 2 7.5Z" fill="#E1E1E1"/>
<path fill-rule="evenodd" clip-rule="evenodd" d="M5.06233 17.6793C4.92876 17.7061 4.76394 17.7813 4.57554 17.9697C4.3984 18.1468 4.22871 18.4399 4.07802 18.8241C3.93031 19.2006 3.81535 19.6267 3.72789 20.0349C3.65362 20.3815 3.60076 20.7076 3.56458 20.968C3.84387 20.9461 4.19872 20.9098 4.57537 20.8506C5.00375 20.7831 5.44835 20.6877 5.83755 20.5548C6.23597 20.4188 6.52857 20.2593 6.69726 20.0907C6.88572 19.9021 6.96048 19.7375 6.98693 19.6046C7.01393 19.4689 6.99843 19.3261 6.94347 19.1722C6.82701 18.846 6.56104 18.5422 6.34187 18.3211C6.12593 18.1032 5.82184 17.8376 5.49592 17.7219C5.3419 17.6673 5.19861 17.652 5.06233 17.6793ZM2.99999 21.5001C2.50156 21.4605 2.50157 21.4604 2.50158 21.4603L2.50183 21.4571L2.50246 21.4496L2.50482 21.4226C2.50691 21.3994 2.51005 21.3659 2.51437 21.3234C2.523 21.2384 2.53637 21.117 2.55555 20.9686C2.59384 20.6725 2.65569 20.2659 2.75009 19.8253C2.84413 19.3865 2.97266 18.9036 3.14708 18.4589C3.31851 18.0218 3.54958 17.5814 3.86843 17.2625C4.17604 16.9549 4.51246 16.7696 4.8658 16.6988C5.21643 16.6285 5.5457 16.6785 5.8303 16.7795C6.38163 16.9751 6.81905 17.382 7.0521 17.6171C7.28193 17.849 7.68897 18.2862 7.88525 18.836C7.98667 19.1201 8.03749 19.449 7.9677 19.7997C7.89737 20.1532 7.71226 20.4896 7.40472 20.7975C7.07688 21.1253 6.61474 21.3462 6.16064 21.5012C5.69719 21.6594 5.1911 21.7659 4.73086 21.8384C4.26863 21.9112 3.84055 21.9514 3.52867 21.9735C3.37236 21.9846 3.24434 21.9912 3.15471 21.995C3.10987 21.9969 3.07459 21.9981 3.05011 21.9989L3.02164 21.9997L3.01376 21.9999L3.01147 22C3.01137 22 3.01029 22 2.99999 21.5001ZM2.99999 21.5001L3.01029 22C2.86903 22.0029 2.73313 21.9459 2.6362 21.8431C2.53927 21.7403 2.49037 21.6011 2.50158 21.4603L2.99999 21.5001Z" fill="#E1E1E1"/>
<path fill-rule="evenodd" clip-rule="evenodd" d="M8.64645 11.2392C8.84171 11.044 9.15829 11.044 9.35355 11.2392L13.2596 15.1452C13.4548 15.3405 13.4548 15.6571 13.2596 15.8523C13.0643 16.0476 12.7477 16.0476 12.5524 15.8523L8.64645 11.9463C8.45118 11.7511 8.45118 11.4345 8.64645 11.2392Z" fill="#E1E1E1"/>
<path fill-rule="evenodd" clip-rule="evenodd" d="M20.8521 3.64645C21.0473 3.84171 21.0473 4.15829 20.8521 4.35355L19.7911 5.41455C19.5958 5.60982 19.2792 5.60982 19.0839 5.41455C18.8887 5.21929 18.8887 4.90271 19.0839 4.70745L20.1449 3.64645C20.3402 3.45118 20.6568 3.45118 20.8521 3.64645Z" fill="#E1E1E1"/>
<path fill-rule="evenodd" clip-rule="evenodd" d="M15.5963 4.209C15.5967 4.20903 15.5971 4.20907 15.5974 4.2091L19.4843 4.5629C19.7246 4.58478 19.915 4.77519 19.9369 5.01552L20.2907 8.90235C20.2907 8.90267 20.2907 8.90203 20.2907 8.90235C20.3525 9.55189 20.2306 10.2067 19.9388 10.7903C19.6488 11.3704 19.2025 11.8579 18.6504 12.1979L9.82112 18.2023C9.62254 18.3373 9.35601 18.3121 9.18627 18.1423L6.35752 15.3135C6.18765 15.1438 6.16245 14.8772 6.29749 14.6787L12.3019 5.84939C12.6419 5.29729 13.1294 4.85102 13.7095 4.56097C14.2931 4.26919 14.9468 4.14724 15.5963 4.209ZM15.5025 5.20458C15.0392 5.16038 14.5729 5.24729 14.1567 5.45539C13.7405 5.66349 13.3912 5.9844 13.1486 6.38149C13.1444 6.38844 13.14 6.39528 13.1354 6.40201L7.35716 14.8987L9.60104 17.1426L18.0978 11.3644C18.1021 11.3614 18.1065 11.3586 18.1109 11.3558C18.1133 11.3542 18.1158 11.3527 18.1183 11.3512C18.5154 11.1086 18.8363 10.7593 19.0444 10.3431C19.2525 9.92687 19.3394 9.46056 19.2952 8.99733L19.295 8.99517L18.9788 5.52102L15.5046 5.20478L15.5025 5.20458Z" fill="#E1E1E1"/>
<path fill-rule="evenodd" clip-rule="evenodd" d="M8.10171 10.7138C8.10175 10.7138 8.10166 10.7138 8.10171 10.7138L9.17957 11.1258C9.43751 11.2244 9.5667 11.5134 9.46812 11.7713C9.36953 12.0293 9.08051 12.1585 8.82256 12.0599L7.74456 11.6479C7.47396 11.5444 7.17902 11.5214 6.89567 11.5818C6.61232 11.6422 6.35254 11.7834 6.14771 11.9883C6.1477 11.9883 6.14772 11.9883 6.14771 11.9883L4.19171 13.9453L6.81016 14.4695C7.08094 14.5237 7.25653 14.7871 7.20235 15.0579C7.14817 15.3287 6.88475 15.5043 6.61397 15.4501L3.99497 14.9261C3.81751 14.8905 3.65278 14.8074 3.51884 14.6856C3.38489 14.5639 3.28649 14.4081 3.23414 14.2348C3.18179 14.0615 3.17745 13.8773 3.22158 13.7018C3.26568 13.5264 3.35652 13.3662 3.48444 13.2383C3.48453 13.2382 3.48434 13.2384 3.48444 13.2383L5.44042 11.2814C5.78182 10.9399 6.21485 10.7045 6.68711 10.6038C7.15933 10.5031 7.65074 10.5413 8.10171 10.7138Z" fill="#E1E1E1"/>
<path fill-rule="evenodd" clip-rule="evenodd" d="M12.7277 15.0331C12.9856 14.9345 13.2746 15.0637 13.3732 15.3216L13.7852 16.3995C13.7852 16.3995 13.7851 16.3994 13.7852 16.3995C13.9576 16.8505 13.9959 17.3419 13.8952 17.8141C13.7945 18.2863 13.5592 18.7193 13.2177 19.0607C13.2177 19.0607 13.2177 19.0607 13.2177 19.0607L11.2609 21.0175C11.133 21.1455 10.9727 21.2365 10.7972 21.2806C10.6217 21.3247 10.4374 21.3204 10.2642 21.2681C10.0909 21.2157 9.9351 21.1173 9.81336 20.9834C9.69162 20.8494 9.60852 20.6849 9.57293 20.5075L9.04887 17.8872C8.99471 17.6164 9.17032 17.353 9.4411 17.2988C9.71188 17.2447 9.97529 17.4203 10.0294 17.6911L10.5534 20.3108L12.5106 18.3536C12.7155 18.1487 12.8568 17.8889 12.9172 17.6055C12.9776 17.3222 12.9547 17.0274 12.8512 16.7568L12.4391 15.6786C12.3405 15.4207 12.4697 15.1317 12.7277 15.0331Z" fill="#E1E1E1"/>
<path fill-rule="evenodd" clip-rule="evenodd" d="M15.5508 7.9502C14.9985 7.9502 14.5508 8.39791 14.5508 8.9502C14.5508 9.50248 14.9985 9.9502 15.5508 9.9502C16.1031 9.9502 16.5508 9.50248 16.5508 8.9502C16.5508 8.39791 16.1031 7.9502 15.5508 7.9502ZM13.5508 8.9502C13.5508 7.84563 14.4462 6.9502 15.5508 6.9502C16.6554 6.9502 17.5508 7.84563 17.5508 8.9502C17.5508 10.0548 16.6554 10.9502 15.5508 10.9502C14.4462 10.9502 13.5508 10.0548 13.5508 8.9502Z" fill="#E1E1E1"/>
</g>
</svg>
