<svg width="510" height="312" viewBox="0 0 510 312" fill="none" xmlns="http://www.w3.org/2000/svg">
    <g clip-path="url(#clip0_7947_8009)">
        <path d="M291.165 185.983C291.12 185.983 291.076 185.971 291.037 185.949C290.999 185.926 290.967 185.894 290.945 185.855C290.912 185.796 290.904 185.728 290.922 185.663C290.94 185.599 290.983 185.544 291.041 185.511C291.826 185.07 292.438 184.731 292.916 184.477C293.435 184.201 293.962 183.926 294.488 183.651C298.727 181.43 303.114 179.133 303.832 176.332C304.085 175.292 303.86 174.234 303.103 173.101C301.352 170.481 298.548 169.085 290.507 170.774C290.442 170.787 290.373 170.774 290.318 170.738C290.262 170.701 290.222 170.644 290.208 170.579C290.195 170.514 290.208 170.446 290.244 170.39C290.281 170.334 290.338 170.295 290.403 170.281C297.609 168.767 301.286 169.476 303.524 172.821C304.354 174.062 304.622 175.287 304.323 176.455C303.549 179.484 299.261 181.725 294.721 184.103L293.154 184.928C292.679 185.181 292.069 185.517 291.289 185.956C291.251 185.975 291.208 185.985 291.165 185.983Z" fill="#E3E3E3"/>
        <path d="M295.644 206.943C295.601 206.943 295.558 206.932 295.521 206.911C295.483 206.89 295.451 206.86 295.428 206.824C295.411 206.796 295.399 206.765 295.393 206.732C295.387 206.7 295.388 206.666 295.395 206.634C295.403 206.601 295.416 206.571 295.435 206.544C295.454 206.517 295.479 206.493 295.507 206.476C306.714 199.363 308.941 195.711 308.837 193.896C308.731 192.041 308.048 190.658 306.813 189.787C304.484 188.149 300.217 188.22 294.135 189.999C294.103 190.009 294.069 190.012 294.036 190.008C294.003 190.005 293.97 189.995 293.941 189.979C293.912 189.963 293.886 189.941 293.865 189.915C293.844 189.889 293.828 189.859 293.819 189.827C293.8 189.763 293.808 189.694 293.84 189.635C293.872 189.577 293.926 189.533 293.991 189.514C300.23 187.692 304.644 187.644 307.106 189.375C308.475 190.34 309.23 191.852 309.346 193.868C309.508 196.7 304.945 201.087 295.78 206.902C295.74 206.929 295.692 206.944 295.644 206.943Z" fill="#E3E3E3"/>
        <path d="M237.153 312.003C237.088 312.003 237.027 311.979 236.98 311.935C236.933 311.892 236.904 311.832 236.899 311.768C236.899 311.607 235.93 295.746 245.327 286.795C247.88 284.299 250.194 281.569 252.237 278.643C252.256 278.615 252.28 278.592 252.309 278.574C252.337 278.557 252.368 278.544 252.401 278.539C252.434 278.533 252.468 278.534 252.501 278.542C252.533 278.549 252.564 278.563 252.591 278.582C252.618 278.601 252.641 278.626 252.659 278.654C252.677 278.682 252.689 278.714 252.694 278.747C252.699 278.78 252.698 278.813 252.691 278.846C252.683 278.878 252.669 278.909 252.649 278.936C250.589 281.889 248.254 284.643 245.677 287.161C236.449 295.947 237.393 311.576 237.403 311.733C237.406 311.766 237.401 311.799 237.391 311.831C237.38 311.862 237.364 311.892 237.342 311.917C237.32 311.942 237.293 311.962 237.263 311.977C237.233 311.992 237.201 312.001 237.168 312.003H237.153Z" fill="#E3E3E3"/>
        <path d="M262.37 261.674C262.333 261.674 262.297 261.666 262.264 261.649C262.203 261.621 262.156 261.57 262.133 261.508C262.11 261.445 262.112 261.376 262.14 261.316C264.303 256.684 266.102 251.893 267.523 246.984C269.269 240.737 278.247 236.149 287.748 231.292C298.378 225.851 309.397 220.222 311.632 211.754C311.885 210.883 311.809 210.257 311.397 209.836C309.795 208.195 303.407 209.649 298.742 210.886C298.677 210.903 298.608 210.893 298.551 210.86C298.493 210.826 298.451 210.771 298.433 210.707C298.424 210.674 298.422 210.641 298.426 210.608C298.431 210.575 298.442 210.543 298.458 210.514C298.475 210.485 298.497 210.46 298.524 210.44C298.55 210.419 298.581 210.405 298.613 210.396C306.325 208.354 310.379 208.071 311.759 209.482C312.303 210.04 312.424 210.85 312.121 211.89C309.843 220.57 298.722 226.249 287.978 231.739C278.578 236.535 269.7 241.078 268.012 247.121C266.583 252.054 264.774 256.87 262.6 261.525C262.58 261.57 262.548 261.607 262.507 261.634C262.466 261.66 262.419 261.674 262.37 261.674Z" fill="#E3E3E3"/>
        <path d="M205.727 109.475L229.012 211.572C215.221 198.008 217.603 175.983 211.748 163.247C211.703 163.149 211.657 163.05 211.609 162.952C210.536 160.606 209.018 158.489 207.14 156.717L197.737 111.908C197.244 109.57 197.323 107.148 197.97 104.848C198.616 102.547 199.81 100.437 201.45 98.695C203.726 96.264 206.758 94.6696 210.055 94.1694L248.778 88.1825C251.424 87.7714 254.131 88.0152 256.66 88.8924C259.19 89.7696 261.464 91.2532 263.283 93.2128C263.057 93.2187 262.831 93.2406 262.607 93.2784L210.84 101.883C209.992 102.022 209.182 102.333 208.46 102.796C207.737 103.26 207.117 103.866 206.638 104.577C206.159 105.288 205.831 106.09 205.675 106.932C205.518 107.774 205.536 108.64 205.727 109.475Z" fill="#333333"/>
        <path d="M283.377 223.493L241.411 233.44C240.495 230.449 239.364 227.527 238.027 224.697C238.616 224.712 239.205 224.66 239.781 224.541L288.461 214.558C289.442 214.36 290.363 213.934 291.149 213.316C291.231 215.647 290.502 217.934 289.085 219.789C287.668 221.644 285.651 222.953 283.377 223.493Z" fill="#333333"/>
        <path d="M209.914 155.117C209.855 155.118 209.797 155.099 209.751 155.063C209.705 155.026 209.673 154.975 209.661 154.918L199.952 108.675C199.226 105.288 199.662 101.755 201.19 98.6445L201.215 98.5889C202.329 96.3264 203.974 94.3651 206.01 92.8712C208.046 91.3774 210.413 90.395 212.91 90.0072C212.943 90.0018 212.977 90.003 213.009 90.0106C213.042 90.0183 213.072 90.0321 213.1 90.0516C213.127 90.0711 213.149 90.0957 213.167 90.1241C213.184 90.1524 213.196 90.1839 213.201 90.2168C213.207 90.2498 213.206 90.2835 213.198 90.316C213.19 90.3486 213.176 90.3792 213.156 90.4062C213.136 90.4333 213.111 90.456 213.083 90.4734C213.054 90.4907 213.022 90.5021 212.989 90.507C210.58 90.8817 208.296 91.8282 206.33 93.2667C204.365 94.7053 202.774 96.5937 201.693 98.7732L201.668 98.8237C200.17 101.846 199.74 105.285 200.448 108.582L210.157 154.824C210.17 154.889 210.157 154.957 210.121 155.013C210.084 155.069 210.027 155.108 209.962 155.122C209.946 155.122 209.929 155.121 209.914 155.117Z" fill="#E3E3E3"/>
        <path d="M248.428 234.071C248.37 234.073 248.313 234.054 248.267 234.019C248.221 233.983 248.188 233.933 248.175 233.877C248.16 233.812 248.171 233.744 248.206 233.687C248.241 233.63 248.297 233.59 248.362 233.574L288.857 223.983C291.447 223.352 293.69 221.744 295.115 219.497C296.539 217.25 297.033 214.539 296.493 211.935L271.988 97.269C271.099 93.1115 268.648 89.4512 265.138 87.0388C261.628 84.6264 257.325 83.6449 253.113 84.2955L229.423 87.9579C229.39 87.9633 229.357 87.9621 229.324 87.9545C229.292 87.9469 229.261 87.9329 229.234 87.9135C229.207 87.894 229.184 87.8694 229.167 87.8411C229.149 87.8127 229.137 87.7812 229.132 87.7484C229.127 87.7154 229.128 87.6816 229.136 87.6491C229.144 87.6166 229.158 87.5859 229.178 87.5589C229.197 87.5319 229.222 87.5091 229.251 87.4918C229.28 87.4745 229.312 87.463 229.345 87.4581L253.034 83.7958C257.376 83.1289 261.809 84.1429 265.425 86.63C269.041 89.1171 271.567 92.8891 272.485 97.1731L296.999 211.824C297.566 214.557 297.047 217.402 295.552 219.76C294.057 222.119 291.702 223.806 288.984 224.467L248.489 234.059L248.428 234.071Z" fill="#E3E3E3"/>
        <path d="M200.462 170.366C200.405 170.368 200.35 170.351 200.304 170.318C200.258 170.284 200.224 170.236 200.209 170.182C200.191 170.118 200.2 170.049 200.232 169.991C200.265 169.932 200.319 169.89 200.384 169.871C201.649 169.518 202.705 168.392 203.307 166.779C203.735 165.64 203.892 164.417 203.766 163.206C203.64 161.996 203.234 160.831 202.581 159.803C200.171 156.171 196.137 157.784 196.096 157.804C196.066 157.817 196.033 157.823 195.999 157.824C195.966 157.824 195.933 157.817 195.902 157.805C195.871 157.792 195.843 157.773 195.82 157.75C195.796 157.726 195.778 157.698 195.765 157.668C195.74 157.606 195.74 157.537 195.765 157.476C195.791 157.414 195.84 157.365 195.902 157.34C195.945 157.319 200.366 155.55 203.003 159.523C203.7 160.617 204.134 161.858 204.268 163.147C204.403 164.436 204.236 165.739 203.78 166.954C203.122 168.72 201.933 169.962 200.52 170.356C200.502 170.362 200.482 170.365 200.462 170.366Z" fill="#E3E3E3"/>
        <path d="M229.018 211.823C228.96 211.825 228.902 211.806 228.856 211.77C228.81 211.734 228.778 211.683 228.765 211.626L205.481 109.53C205.279 108.662 205.258 107.762 205.421 106.887C205.584 106.011 205.927 105.179 206.427 104.441C206.922 103.7 207.565 103.068 208.316 102.585C209.066 102.103 209.909 101.78 210.79 101.637L262.558 93.0325C263.925 92.8056 265.328 93.1084 266.479 93.8788C267.629 94.6492 268.441 95.829 268.749 97.1769L273.59 118.444C273.598 118.477 273.599 118.51 273.593 118.543C273.588 118.576 273.576 118.607 273.558 118.635C273.541 118.663 273.518 118.688 273.491 118.707C273.464 118.726 273.433 118.74 273.401 118.747C273.368 118.755 273.334 118.756 273.301 118.75C273.268 118.744 273.237 118.732 273.209 118.714C273.18 118.697 273.156 118.673 273.137 118.646C273.118 118.619 273.104 118.588 273.097 118.555L268.255 97.288C267.976 96.0661 267.239 94.9966 266.196 94.2981C265.153 93.5996 263.881 93.3247 262.642 93.5297L210.874 102.134C210.061 102.267 209.283 102.565 208.591 103.01C207.898 103.455 207.304 104.037 206.847 104.721C206.386 105.402 206.07 106.171 205.92 106.979C205.77 107.787 205.788 108.618 205.974 109.418L229.259 211.515C229.273 211.58 229.261 211.648 229.226 211.704C229.19 211.761 229.134 211.801 229.069 211.816L229.018 211.823Z" fill="#E3E3E3"/>
        <path d="M238.228 224.952H238.023C237.955 224.952 237.891 224.925 237.844 224.878C237.796 224.831 237.77 224.767 237.77 224.7C237.77 224.633 237.796 224.569 237.844 224.521C237.891 224.474 237.955 224.447 238.023 224.447C238.592 224.461 239.161 224.41 239.718 224.296L288.401 214.313C289.209 214.15 289.977 213.827 290.657 213.362C291.337 212.897 291.917 212.3 292.362 211.608C292.811 210.918 293.116 210.145 293.259 209.335C293.402 208.524 293.38 207.694 293.194 206.893L279.851 148.227C279.844 148.194 279.843 148.161 279.849 148.128C279.854 148.095 279.866 148.063 279.884 148.035C279.902 148.007 279.925 147.983 279.953 147.964C279.98 147.944 280.011 147.931 280.044 147.924C280.109 147.91 280.178 147.922 280.234 147.958C280.29 147.994 280.33 148.05 280.345 148.116L293.7 206.779C293.901 207.646 293.925 208.543 293.77 209.419C293.616 210.295 293.287 211.131 292.802 211.878C292.321 212.627 291.693 213.273 290.957 213.776C290.22 214.279 289.39 214.629 288.515 214.805L239.835 224.788C239.306 224.897 238.768 224.952 238.228 224.952Z" fill="#E3E3E3"/>
        <path d="M246.151 155.32C254.038 153.713 258.978 145.319 257.186 136.571C255.393 127.823 247.546 122.035 239.659 123.642C231.772 125.25 226.832 133.644 228.625 142.392C230.417 151.139 238.264 156.928 246.151 155.32Z" fill="#71A5D2"/>
        <path d="M246.64 154.499C245.324 154.497 244.016 154.305 242.755 153.928C242.691 153.909 242.638 153.865 242.606 153.807C242.574 153.748 242.567 153.679 242.586 153.615C242.605 153.552 242.649 153.498 242.708 153.466C242.766 153.435 242.835 153.427 242.9 153.446C244.959 154.062 247.14 154.159 249.247 153.729C256.984 152.151 261.849 143.885 260.087 135.278C259.296 131.21 257.023 127.578 253.707 125.081C250.454 122.683 246.602 121.782 242.859 122.545C235.122 124.122 230.258 132.388 232.019 140.995C232.278 142.263 232.675 143.499 233.204 144.68C233.231 144.741 233.233 144.811 233.209 144.873C233.186 144.935 233.138 144.986 233.077 145.014C233.047 145.027 233.014 145.034 232.981 145.035C232.947 145.036 232.914 145.03 232.883 145.018C232.852 145.006 232.824 144.988 232.8 144.965C232.776 144.943 232.756 144.915 232.743 144.885C232.198 143.671 231.789 142.401 231.523 141.099C229.706 132.229 234.747 123.683 242.758 122.052C246.643 121.26 250.639 122.194 254.008 124.677C257.427 127.247 259.771 130.989 260.588 135.18C262.405 144.049 257.364 152.596 249.353 154.226C248.46 154.407 247.552 154.499 246.64 154.499Z" fill="#E3E3E3"/>
        <path d="M261.758 103.222C261.691 103.222 261.628 103.196 261.581 103.149C261.19 102.752 260.66 102.521 260.103 102.503C259.976 102.501 259.85 102.51 259.726 102.531C259.659 102.541 259.592 102.525 259.538 102.485C259.484 102.446 259.448 102.387 259.437 102.321C259.426 102.255 259.442 102.188 259.481 102.133C259.52 102.079 259.578 102.042 259.645 102.031C259.8 102.007 259.958 101.996 260.115 101.998C260.803 102.019 261.456 102.303 261.938 102.793C261.985 102.841 262.011 102.905 262.011 102.971C262.011 103.038 261.985 103.102 261.938 103.149C261.914 103.173 261.886 103.191 261.855 103.204C261.824 103.216 261.791 103.223 261.758 103.222Z" fill="#E3E3E3"/>
        <path d="M262.233 101.152C262.199 101.153 262.166 101.146 262.136 101.134C262.105 101.121 262.077 101.103 262.053 101.079C261.712 100.736 261.302 100.467 260.851 100.292C260.82 100.28 260.791 100.262 260.767 100.24C260.743 100.217 260.723 100.19 260.71 100.159C260.696 100.129 260.689 100.096 260.688 100.063C260.687 100.03 260.692 99.9972 260.704 99.9662C260.716 99.9351 260.734 99.9068 260.757 99.8827C260.78 99.8586 260.808 99.8393 260.838 99.8259C260.869 99.8126 260.902 99.8054 260.935 99.8047C260.969 99.8041 261.002 99.8101 261.033 99.8224C261.551 100.022 262.021 100.328 262.412 100.721C262.436 100.744 262.455 100.772 262.468 100.803C262.481 100.834 262.487 100.867 262.487 100.9C262.487 100.933 262.481 100.966 262.468 100.997C262.455 101.028 262.436 101.056 262.412 101.079C262.389 101.103 262.361 101.121 262.33 101.134C262.299 101.146 262.266 101.153 262.233 101.152Z" fill="#E3E3E3"/>
        <path d="M256.585 101.872C256.537 101.871 256.489 101.858 256.448 101.834C256.392 101.797 256.352 101.74 256.338 101.675C256.324 101.61 256.336 101.542 256.372 101.485C256.665 101.012 257.052 100.604 257.51 100.286C257.967 99.9674 258.485 99.746 259.032 99.6352C259.065 99.629 259.099 99.6294 259.132 99.6364C259.164 99.6433 259.195 99.6567 259.223 99.6758C259.251 99.6948 259.274 99.719 259.292 99.7472C259.31 99.7753 259.322 99.8068 259.328 99.8397C259.34 99.9053 259.325 99.9728 259.287 100.028C259.25 100.083 259.191 100.12 259.126 100.133C258.647 100.23 258.194 100.425 257.794 100.704C257.394 100.983 257.056 101.341 256.8 101.755C256.777 101.791 256.745 101.821 256.707 101.841C256.67 101.861 256.627 101.872 256.585 101.872Z" fill="#E3E3E3"/>
        <path d="M263.307 98.9461C263.273 98.9463 263.24 98.9399 263.209 98.9274C263.179 98.9148 263.151 98.8963 263.127 98.873C262.874 98.6189 262.597 98.3897 262.299 98.1889C262.272 98.1703 262.248 98.1466 262.23 98.1189C262.211 98.0913 262.198 98.0602 262.192 98.0276C262.186 97.995 262.186 97.9615 262.193 97.929C262.199 97.8964 262.212 97.8656 262.231 97.8381C262.25 97.8105 262.273 97.7869 262.301 97.7686C262.329 97.7502 262.36 97.7375 262.393 97.7312C262.425 97.7249 262.459 97.725 262.492 97.7316C262.524 97.7383 262.555 97.7513 262.583 97.7699C262.906 97.9943 263.209 98.2478 263.486 98.5271C263.51 98.5506 263.529 98.5785 263.542 98.6093C263.555 98.64 263.561 98.673 263.561 98.7063C263.561 98.7396 263.555 98.7726 263.542 98.8034C263.529 98.8341 263.51 98.8621 263.486 98.8855C263.437 98.9282 263.372 98.9499 263.307 98.9461Z" fill="#E3E3E3"/>
        <path d="M254.575 100.06C254.526 100.06 254.479 100.047 254.438 100.022C254.41 100.004 254.386 99.9811 254.367 99.954C254.347 99.9269 254.334 99.8963 254.326 99.8639C254.319 99.8316 254.318 99.7981 254.324 99.7655C254.33 99.7328 254.342 99.7016 254.36 99.6736C255.544 97.821 257.465 96.7483 259.515 96.7861C259.874 96.7939 260.232 96.8362 260.583 96.9123C260.649 96.9268 260.705 96.9665 260.742 97.0228C260.778 97.0791 260.79 97.1474 260.775 97.2127C260.769 97.2452 260.755 97.276 260.736 97.3034C260.718 97.3308 260.693 97.3542 260.665 97.3723C260.637 97.3903 260.606 97.4027 260.573 97.4086C260.541 97.4146 260.507 97.4141 260.474 97.407C260.155 97.3367 259.829 97.2978 259.502 97.2909C257.64 97.2505 255.873 98.2425 254.787 99.9437C254.764 99.9792 254.733 100.008 254.696 100.029C254.659 100.049 254.617 100.06 254.575 100.06Z" fill="#E3E3E3"/>
        <path d="M244.351 145.501L244.118 145.291C241.742 143.176 237.847 139.763 237.404 139.519C237.349 139.503 237.301 139.47 237.267 139.424C237.234 139.379 237.217 139.323 237.219 139.266C237.219 139.199 237.246 139.135 237.293 139.088C237.341 139.04 237.405 139.014 237.472 139.014C237.591 139.014 237.836 139.014 244.219 144.695L252.134 130.652C252.167 130.594 252.221 130.551 252.286 130.533C252.35 130.515 252.419 130.523 252.478 130.556C252.536 130.589 252.579 130.643 252.597 130.708C252.615 130.772 252.607 130.841 252.574 130.899L244.351 145.501Z" fill="#E3E3E3"/>
        <path d="M235.778 163.384C235.719 163.385 235.661 163.365 235.615 163.328C235.568 163.292 235.536 163.24 235.525 163.182C235.518 163.149 235.518 163.116 235.524 163.083C235.53 163.051 235.543 163.02 235.561 162.992C235.58 162.964 235.603 162.941 235.631 162.922C235.659 162.904 235.689 162.891 235.722 162.884L268.014 156.382C268.047 156.375 268.08 156.375 268.113 156.382C268.146 156.388 268.177 156.4 268.204 156.419C268.232 156.437 268.256 156.461 268.275 156.488C268.293 156.516 268.306 156.546 268.313 156.579C268.32 156.611 268.32 156.645 268.313 156.677C268.307 156.71 268.294 156.741 268.276 156.769C268.258 156.796 268.234 156.82 268.207 156.839C268.179 156.857 268.148 156.87 268.115 156.877L235.821 163.379C235.807 163.382 235.792 163.384 235.778 163.384Z" fill="#E3E3E3"/>
        <path d="M241.222 168.194C241.163 168.195 241.105 168.176 241.059 168.138C241.012 168.101 240.981 168.048 240.969 167.99C240.957 167.924 240.971 167.856 241.008 167.801C241.046 167.746 241.104 167.707 241.169 167.695L265.972 162.798C266.005 162.791 266.039 162.791 266.072 162.798C266.104 162.804 266.136 162.817 266.163 162.836C266.191 162.854 266.215 162.878 266.233 162.906C266.252 162.933 266.265 162.965 266.271 162.997C266.278 163.03 266.278 163.064 266.271 163.096C266.265 163.129 266.252 163.16 266.233 163.188C266.215 163.216 266.191 163.239 266.163 163.258C266.135 163.276 266.104 163.289 266.071 163.295L241.268 168.189L241.222 168.194Z" fill="#E3E3E3"/>
        <path d="M219.582 109.318L212.005 110.653C211.901 110.672 211.794 110.67 211.691 110.647C211.588 110.625 211.491 110.582 211.404 110.522C211.318 110.461 211.244 110.385 211.187 110.296C211.13 110.207 211.092 110.108 211.073 110.005L210.567 107.147C210.549 107.044 210.551 106.938 210.573 106.836C210.596 106.733 210.638 106.636 210.699 106.55C210.759 106.464 210.835 106.391 210.924 106.334C211.013 106.278 211.112 106.239 211.215 106.221L218.793 104.881L219.582 109.318Z" fill="#71A5D2"/>
        <path d="M211.861 110.918C211.613 110.918 211.374 110.831 211.184 110.672C210.994 110.513 210.867 110.293 210.823 110.05L210.317 107.193C210.293 107.056 210.296 106.917 210.326 106.782C210.356 106.646 210.412 106.518 210.492 106.405C210.571 106.292 210.672 106.195 210.789 106.12C210.905 106.046 211.036 105.995 211.173 105.971L218.998 104.588L219.874 109.522L212.046 110.9C211.985 110.913 211.923 110.919 211.861 110.918ZM218.588 105.173L211.249 106.468C211.177 106.48 211.109 106.507 211.048 106.546C210.987 106.585 210.935 106.636 210.894 106.695C210.853 106.754 210.823 106.821 210.808 106.891C210.792 106.961 210.79 107.034 210.803 107.104L211.309 109.962C211.322 110.032 211.348 110.1 211.387 110.16C211.426 110.221 211.476 110.273 211.535 110.314C211.594 110.355 211.661 110.384 211.731 110.399C211.801 110.415 211.874 110.416 211.945 110.403L219.284 109.113L218.588 105.173Z" fill="#E3E3E3"/>
        <path d="M219.377 109.611L218.504 104.676L220.253 104.368C220.528 104.322 220.81 104.385 221.04 104.544C221.269 104.703 221.426 104.946 221.478 105.219L221.984 108.081C222.009 108.217 222.007 108.357 221.978 108.492C221.948 108.628 221.892 108.756 221.812 108.869C221.733 108.982 221.632 109.079 221.515 109.153C221.398 109.227 221.268 109.277 221.131 109.3L219.377 109.611ZM219.089 105.085L219.787 109.025L221.053 108.806C221.196 108.78 221.324 108.698 221.407 108.579C221.449 108.52 221.478 108.453 221.493 108.383C221.508 108.313 221.509 108.24 221.495 108.17L220.989 105.31C220.963 105.167 220.881 105.04 220.761 104.956C220.641 104.873 220.493 104.841 220.349 104.866L219.089 105.085Z" fill="#E3E3E3"/>
        <path d="M221.324 105.92L222.296 105.748C222.348 105.739 222.402 105.751 222.446 105.781C222.489 105.812 222.519 105.858 222.528 105.91L222.732 107.058C222.741 107.11 222.729 107.164 222.699 107.207C222.668 107.251 222.622 107.28 222.569 107.289L221.598 107.461L221.324 105.92Z" fill="#E3E3E3"/>
        <path d="M189.359 303.076H189.308C189.275 303.069 189.244 303.056 189.217 303.038C189.189 303.019 189.166 302.995 189.147 302.968C189.129 302.94 189.116 302.909 189.11 302.876C189.104 302.844 189.104 302.811 189.111 302.778C189.174 302.463 195.461 270.877 192.041 244.64C189.635 226.191 193.406 214.856 195.871 209.735C197.148 207.1 197.68 204.166 197.407 201.252C196.197 188.798 193.398 159.461 193.504 156.071C193.54 154.931 194.347 153.946 195.719 153.371C198.409 152.242 203.185 152.752 207.313 156.538C209.216 158.331 210.753 160.474 211.841 162.848L211.866 162.901C211.904 162.985 211.942 163.065 211.983 163.154C214.096 167.755 215.141 173.558 216.25 179.701C218.199 190.512 220.408 202.766 229.193 211.406L229.259 211.469C232.632 214.768 235.743 219.308 238.256 224.594C239.598 227.434 240.733 230.367 241.653 233.37C241.837 233.965 242.015 234.576 242.197 235.233C243.053 238.309 243.685 241.444 244.087 244.612C244.095 244.678 244.077 244.745 244.035 244.797C243.994 244.85 243.934 244.884 243.867 244.892C243.801 244.901 243.734 244.883 243.681 244.842C243.627 244.801 243.593 244.741 243.584 244.675C243.185 241.531 242.558 238.42 241.708 235.366C241.529 234.715 241.352 234.104 241.169 233.519C240.258 230.539 239.131 227.628 237.798 224.811C235.313 219.571 232.23 215.081 228.902 211.82L228.836 211.754C219.94 203.006 217.715 190.668 215.751 179.782C214.65 173.672 213.61 167.902 211.522 163.356C211.476 163.26 211.433 163.164 211.385 163.068L211.36 163.01C210.301 160.714 208.812 158.642 206.971 156.904C203.008 153.27 198.462 152.765 195.916 153.833C194.734 154.337 194.038 155.148 194.01 156.081C193.902 159.542 196.969 191.494 197.911 201.204C198.193 204.21 197.645 207.236 196.326 209.954C193.886 215.02 190.153 226.257 192.53 244.574C195.959 270.897 189.657 302.561 189.594 302.879C189.582 302.933 189.552 302.982 189.51 303.017C189.467 303.053 189.414 303.073 189.359 303.076Z" fill="#E3E3E3"/>
        <path d="M239.212 270.108C239.155 270.109 239.1 270.09 239.055 270.055C239.028 270.035 239.006 270.009 238.99 269.98C238.973 269.951 238.963 269.92 238.959 269.886C238.955 269.853 238.957 269.82 238.967 269.788C238.976 269.756 238.991 269.726 239.012 269.7C241.925 265.974 243.641 260.545 243.975 253.998C243.978 253.933 244.006 253.872 244.053 253.827C244.1 253.783 244.163 253.758 244.228 253.758C244.262 253.758 244.296 253.765 244.328 253.778C244.359 253.792 244.388 253.811 244.411 253.836C244.435 253.861 244.454 253.89 244.465 253.922C244.477 253.954 244.483 253.989 244.481 254.023C244.144 260.676 242.39 266.204 239.419 270.01C239.395 270.042 239.363 270.067 239.327 270.084C239.291 270.101 239.252 270.109 239.212 270.108Z" fill="#E3E3E3"/>
        <path d="M283.127 200.591L237.559 209.936C236.582 210.136 235.952 211.089 236.153 212.064L237.225 217.261C237.426 218.236 238.381 218.863 239.359 218.663L284.926 209.318C285.904 209.118 286.533 208.165 286.332 207.19L285.261 201.993C285.06 201.019 284.104 200.391 283.127 200.591Z" fill="#CE7783"/>
        <path d="M240.731 220.481C240.256 220.482 239.795 220.319 239.426 220.02C239.057 219.721 238.803 219.305 238.706 218.841L237.635 213.644C237.526 213.11 237.634 212.555 237.934 212.101C238.234 211.646 238.703 211.329 239.238 211.218L284.794 201.879C285.059 201.824 285.333 201.822 285.599 201.873C285.865 201.924 286.118 202.027 286.343 202.177C286.571 202.324 286.766 202.515 286.918 202.739C287.071 202.962 287.176 203.214 287.229 203.479L288.3 208.674C288.355 208.938 288.357 209.211 288.306 209.476C288.255 209.741 288.152 209.993 288.003 210.219C287.855 210.444 287.663 210.638 287.439 210.789C287.215 210.941 286.963 211.046 286.697 211.099L241.141 220.438C241.006 220.467 240.869 220.481 240.731 220.481ZM285.23 202.336C285.123 202.336 285.017 202.347 284.913 202.369L239.356 211.708C239.157 211.749 238.967 211.828 238.798 211.943C238.629 212.057 238.484 212.203 238.372 212.373C238.259 212.543 238.181 212.733 238.143 212.933C238.104 213.133 238.106 213.338 238.147 213.538L239.217 218.732C239.301 219.135 239.541 219.489 239.885 219.715C240.23 219.942 240.65 220.023 241.055 219.941L286.611 210.602C286.812 210.561 287.002 210.482 287.172 210.367C287.341 210.253 287.486 210.106 287.598 209.936C287.711 209.766 287.788 209.575 287.827 209.375C287.865 209.175 287.863 208.969 287.821 208.77L286.751 203.575C286.71 203.376 286.63 203.186 286.515 203.018C286.401 202.849 286.253 202.705 286.082 202.593C285.83 202.425 285.533 202.336 285.23 202.336Z" fill="#E3E3E3"/>
        <path d="M250.004 213.878C249.945 213.879 249.887 213.86 249.841 213.823C249.795 213.786 249.763 213.734 249.751 213.676C249.745 213.644 249.744 213.61 249.751 213.578C249.757 213.545 249.77 213.514 249.788 213.487C249.806 213.459 249.83 213.435 249.858 213.417C249.885 213.398 249.916 213.385 249.949 213.379L274.681 208.429C274.713 208.422 274.747 208.422 274.78 208.428C274.812 208.435 274.843 208.447 274.871 208.466C274.899 208.484 274.923 208.507 274.941 208.535C274.96 208.562 274.973 208.593 274.979 208.626C274.986 208.658 274.986 208.692 274.98 208.725C274.973 208.757 274.96 208.788 274.942 208.816C274.923 208.844 274.899 208.868 274.871 208.886C274.844 208.904 274.812 208.917 274.779 208.924L250.05 213.873C250.035 213.877 250.02 213.879 250.004 213.878Z" fill="#E3E3E3"/>
        <path d="M439.953 161.379C439.898 161.382 439.843 161.367 439.798 161.336C439.752 161.305 439.718 161.26 439.7 161.207C439.679 161.144 439.685 161.075 439.715 161.015C439.745 160.955 439.798 160.91 439.862 160.889C468.461 151.457 483.209 149.854 493.852 149.531C493.919 149.531 493.983 149.558 494.031 149.605C494.078 149.653 494.105 149.717 494.105 149.784C494.105 149.851 494.078 149.915 494.031 149.962C493.983 150.009 493.919 150.036 493.852 150.036C474.951 150.612 456.024 156.094 440.006 161.369C439.989 161.374 439.971 161.378 439.953 161.379Z" fill="#E3E3E3"/>
        <path d="M325.055 189.304C320.677 189.304 316.339 189.132 312.011 188.799C311.978 188.797 311.945 188.788 311.916 188.772C311.886 188.757 311.859 188.737 311.838 188.711C311.816 188.686 311.8 188.657 311.789 188.625C311.779 188.593 311.775 188.56 311.778 188.527C311.781 188.493 311.79 188.461 311.805 188.431C311.82 188.402 311.841 188.375 311.866 188.354C311.892 188.332 311.921 188.316 311.953 188.306C311.985 188.295 312.018 188.292 312.052 188.294C325.86 189.392 339.806 188.739 354.68 186.295C366.684 184.322 379.217 181.207 394.12 176.495C394.151 176.484 394.185 176.481 394.218 176.483C394.251 176.486 394.284 176.495 394.313 176.511C394.343 176.526 394.369 176.547 394.391 176.572C394.412 176.598 394.428 176.627 394.438 176.659C394.458 176.723 394.452 176.792 394.42 176.851C394.389 176.91 394.335 176.954 394.271 176.974C379.339 181.697 366.791 184.816 354.761 186.793C344.945 188.439 335.01 189.279 325.055 189.304Z" fill="#E3E3E3"/>
        <path d="M201.291 144.573C201.252 144.573 201.214 144.565 201.179 144.548C165.539 126.925 128.289 116.279 90.4385 112.93C90.4052 112.927 90.3728 112.917 90.3432 112.902C90.3135 112.886 90.2873 112.865 90.2659 112.84C90.2444 112.814 90.2283 112.785 90.2184 112.753C90.2085 112.721 90.205 112.688 90.2081 112.654C90.2139 112.588 90.246 112.526 90.2972 112.483C90.3485 112.44 90.4147 112.419 90.4815 112.425C128.387 115.789 165.706 126.443 201.405 144.096C201.465 144.126 201.51 144.178 201.532 144.242C201.553 144.305 201.548 144.375 201.518 144.434C201.497 144.476 201.465 144.512 201.424 144.536C201.384 144.561 201.338 144.574 201.291 144.573Z" fill="#E3E3E3"/>
        <path d="M289.13 138.844C289.073 138.846 289.017 138.829 288.971 138.796C288.925 138.763 288.892 138.715 288.876 138.66C288.859 138.596 288.867 138.527 288.9 138.469C288.932 138.411 288.987 138.368 289.051 138.35C310.108 132.327 330.639 125.982 350.079 119.488C376.183 110.765 400.822 104.406 423.309 100.583C441.304 97.5235 457.97 96.0747 472.85 96.2716C493.138 96.5416 505.919 99.9743 509.844 101.754C509.905 101.781 509.953 101.832 509.977 101.894C510 101.957 509.998 102.026 509.971 102.087C509.957 102.117 509.938 102.145 509.913 102.168C509.889 102.19 509.86 102.208 509.829 102.22C509.798 102.232 509.764 102.237 509.731 102.236C509.697 102.235 509.665 102.227 509.634 102.213C505.732 100.446 493.009 97.0389 472.789 96.7739C457.945 96.582 441.312 98.0358 423.352 101.087C400.9 104.906 376.302 111.259 350.239 119.965C330.794 126.461 310.25 132.809 289.19 138.834C289.171 138.841 289.15 138.844 289.13 138.844Z" fill="#E3E3E3"/>
        <path d="M338.707 123.75H338.685C319.492 122.178 300.464 119.024 281.794 114.318C281.762 114.31 281.731 114.296 281.704 114.276C281.677 114.256 281.655 114.231 281.637 114.203C281.62 114.174 281.609 114.142 281.604 114.109C281.599 114.076 281.601 114.042 281.61 114.01C281.618 113.978 281.632 113.948 281.652 113.921C281.672 113.895 281.697 113.872 281.726 113.855C281.755 113.838 281.787 113.827 281.82 113.823C281.853 113.818 281.886 113.82 281.918 113.828C300.562 118.526 319.563 121.677 338.728 123.248C338.794 123.254 338.856 123.286 338.899 123.337C338.942 123.388 338.963 123.454 338.958 123.521C338.952 123.583 338.923 123.641 338.877 123.684C338.831 123.726 338.77 123.75 338.707 123.75Z" fill="#E3E3E3"/>
        <path d="M208.386 86.5465C208.346 86.546 208.306 86.5365 208.27 86.5187C198.675 81.5341 189.336 76.0737 180.288 70.158C160.106 56.9573 138.082 45.0818 114.825 34.8595C96.0291 26.6116 76.7435 19.521 57.077 13.6274C23.5068 3.56409 0.450006 0.532734 0.222223 0.502445C0.189114 0.498392 0.157187 0.487809 0.128178 0.471388C0.0991682 0.454967 0.0736891 0.433018 0.0532262 0.406747C0.0327633 0.380476 0.0177013 0.350413 0.00892258 0.31832C0.000143814 0.286226 -0.00218751 0.25272 0.00206386 0.219725C0.00612823 0.186707 0.0166783 0.154806 0.0331444 0.125875C0.0496104 0.0969446 0.0716811 0.071535 0.0980241 0.0511279C0.124367 0.0307208 0.15445 0.0156999 0.186631 0.00694512C0.218812 -0.0018097 0.252411 -0.00413467 0.285496 0.000105104C0.51581 0.0303934 23.603 3.06429 57.2112 13.1377C76.8997 19.0362 96.2064 26.1345 115.023 34.3925C138.307 44.6249 160.357 56.5156 180.574 69.7289C189.543 75.5947 198.943 81.087 208.513 86.0619C208.542 86.0771 208.569 86.0979 208.59 86.1233C208.612 86.1487 208.628 86.178 208.638 86.2097C208.648 86.2414 208.652 86.2747 208.649 86.3078C208.646 86.3409 208.637 86.3731 208.621 86.4026C208.6 86.4467 208.567 86.4838 208.525 86.5094C208.483 86.5349 208.435 86.5478 208.386 86.5465Z" fill="#E3E3E3"/>
        <path d="M329.211 104.828C352.416 104.828 371.227 86.0682 371.227 62.9268C371.227 39.7853 352.416 21.0254 329.211 21.0254C306.007 21.0254 287.195 39.7853 287.195 62.9268C287.195 86.0682 306.007 104.828 329.211 104.828Z" fill="#EAB669"/>
        <path d="M280.684 84.0929C280.635 84.0928 280.588 84.0787 280.547 84.0523C280.506 84.0259 280.474 83.9883 280.454 83.944C277.959 78.4758 276.674 72.5358 276.688 66.5282C276.688 43.2845 295.649 24.377 318.954 24.377C326.862 24.3694 334.612 26.5796 341.32 30.7552C341.376 30.7906 341.417 30.8467 341.432 30.9115C341.447 30.9762 341.436 31.0444 341.401 31.101C341.383 31.1292 341.36 31.1537 341.333 31.173C341.306 31.1924 341.276 31.2062 341.243 31.2137C341.211 31.2212 341.177 31.2222 341.144 31.2167C341.111 31.2113 341.08 31.1994 341.052 31.1817C334.425 27.0531 326.768 24.8665 318.954 24.8717C295.923 24.8717 277.194 43.5495 277.194 66.5181C277.18 72.4554 278.45 78.3259 280.917 83.7295C280.944 83.7904 280.946 83.8597 280.923 83.9221C280.899 83.9846 280.851 84.0351 280.79 84.0626C280.757 84.08 280.721 84.0903 280.684 84.0929Z" fill="#E3E3E3"/>
        <path d="M318.956 108.679C313.376 108.693 307.85 107.598 302.7 105.458C297.551 103.318 292.88 100.176 288.962 96.2151C288.938 96.1917 288.919 96.1637 288.906 96.133C288.893 96.1022 288.887 96.0692 288.887 96.0359C288.887 96.0026 288.893 95.9696 288.906 95.9388C288.919 95.908 288.938 95.8801 288.962 95.8567C289.009 95.8097 289.073 95.7833 289.14 95.7833C289.207 95.7833 289.271 95.8097 289.318 95.8567C293.191 99.7716 297.808 102.877 302.898 104.992C307.989 107.106 313.451 108.187 318.966 108.171C341.997 108.171 360.726 89.4936 360.726 66.5249C360.728 62.8155 360.235 59.1222 359.258 55.5429C359.241 55.4783 359.251 55.4097 359.284 55.3519C359.318 55.2942 359.373 55.2522 359.438 55.235C359.502 55.218 359.571 55.227 359.629 55.2601C359.686 55.2931 359.729 55.3476 359.747 55.4116C360.735 59.0312 361.235 62.766 361.232 66.5174C361.225 89.7687 342.263 108.679 318.956 108.679Z" fill="#E3E3E3"/>
        <path d="M482.087 197.778H431.835C431.768 197.778 431.704 197.752 431.656 197.704C431.609 197.657 431.582 197.593 431.582 197.526C431.582 197.459 431.609 197.395 431.656 197.347C431.704 197.3 431.768 197.273 431.835 197.273H482.087C482.154 197.273 482.218 197.3 482.266 197.347C482.313 197.395 482.34 197.459 482.34 197.526C482.34 197.593 482.313 197.657 482.266 197.704C482.218 197.752 482.154 197.778 482.087 197.778Z" fill="#E3E3E3"/>
        <path d="M409.845 197.778H316.937C316.87 197.778 316.805 197.752 316.758 197.704C316.71 197.657 316.684 197.593 316.684 197.526C316.684 197.459 316.71 197.395 316.758 197.347C316.805 197.3 316.87 197.273 316.937 197.273H409.845C409.912 197.273 409.976 197.3 410.024 197.347C410.071 197.395 410.098 197.459 410.098 197.526C410.098 197.593 410.071 197.657 410.024 197.704C409.976 197.752 409.912 197.778 409.845 197.778Z" fill="#E3E3E3"/>
        <path d="M189.359 197.778H96.4914C96.4242 197.778 96.3599 197.752 96.3124 197.704C96.265 197.657 96.2383 197.593 96.2383 197.526C96.2383 197.459 96.265 197.395 96.3124 197.347C96.3599 197.3 96.4242 197.273 96.4914 197.273H189.359C189.426 197.273 189.49 197.3 189.538 197.347C189.585 197.395 189.612 197.459 189.612 197.526C189.612 197.593 189.585 197.657 189.538 197.704C189.49 197.752 189.426 197.778 189.359 197.778Z" fill="#E3E3E3"/>
        <path d="M322.188 215.857C322.139 215.857 322.09 215.843 322.049 215.816C322.008 215.789 321.975 215.75 321.955 215.705C321.942 215.675 321.934 215.642 321.934 215.609C321.933 215.576 321.939 215.543 321.951 215.512C321.963 215.481 321.981 215.453 322.004 215.429C322.027 215.405 322.054 215.385 322.084 215.372C322.178 215.332 331.515 211.311 338.432 215.387C338.489 215.421 338.531 215.477 338.548 215.542C338.564 215.607 338.554 215.675 338.52 215.733C338.486 215.791 338.43 215.832 338.365 215.849C338.3 215.865 338.231 215.855 338.173 215.821C331.484 211.879 322.381 215.796 322.289 215.834C322.258 215.848 322.223 215.856 322.188 215.857Z" fill="#E3E3E3"/>
        <path d="M331.421 225.896C331.373 225.896 331.327 225.882 331.286 225.857C331.246 225.831 331.214 225.795 331.193 225.752C331.179 225.722 331.17 225.69 331.168 225.657C331.166 225.623 331.171 225.59 331.182 225.558C331.193 225.527 331.21 225.498 331.233 225.473C331.255 225.448 331.282 225.428 331.312 225.414C331.378 225.384 337.862 222.352 346.83 220.851C355.098 219.462 367.234 219.127 378.114 225.394H417.412C418.225 224.962 427.685 220.157 436.227 225.432C436.283 225.467 436.324 225.523 436.339 225.588C436.354 225.653 436.343 225.721 436.308 225.778C436.273 225.834 436.217 225.875 436.152 225.89C436.087 225.906 436.018 225.895 435.961 225.861C427.457 220.611 417.992 225.649 417.599 225.861L417.539 225.894H377.985L377.917 225.858C367.155 219.639 355.139 219.97 346.926 221.343C338.027 222.832 331.593 225.838 331.53 225.868C331.496 225.886 331.459 225.896 331.421 225.896Z" fill="#E3E3E3"/>
        <path d="M90.1715 247.665C90.1176 247.664 90.0653 247.647 90.0221 247.614C81.5764 241.443 74.257 241.764 69.6051 243.119C66.5807 243.989 63.7871 245.517 61.4252 247.592C61.4016 247.615 61.3736 247.634 61.3428 247.647C61.3119 247.66 61.2789 247.666 61.2455 247.666C61.2121 247.666 61.179 247.66 61.1481 247.647C61.1173 247.634 61.0893 247.615 61.0658 247.592C61.0186 247.544 60.9922 247.481 60.9922 247.414C60.9922 247.347 61.0186 247.283 61.0658 247.236C63.482 245.108 66.3402 243.541 69.4355 242.645C74.2038 241.251 81.6954 240.913 90.3157 247.213C90.3427 247.233 90.3656 247.257 90.383 247.286C90.4004 247.314 90.412 247.345 90.4172 247.378C90.4223 247.411 90.421 247.445 90.4131 247.477C90.4053 247.509 90.3911 247.54 90.3714 247.567C90.3479 247.597 90.3175 247.622 90.2829 247.639C90.2482 247.656 90.2101 247.665 90.1715 247.665Z" fill="#E3E3E3"/>
        <path d="M471.948 271.931C471.911 271.931 471.875 271.923 471.841 271.908C471.808 271.893 471.778 271.87 471.754 271.842C461.936 260.292 450.517 254.081 437.809 253.382C430.775 252.993 419.497 254.192 405.701 262.102C397.438 266.842 392.126 271.812 392.072 271.862C392.025 271.909 391.961 271.936 391.894 271.936C391.827 271.936 391.763 271.909 391.715 271.862C391.692 271.839 391.673 271.811 391.66 271.78C391.647 271.75 391.641 271.717 391.641 271.683C391.641 271.65 391.647 271.617 391.66 271.586C391.673 271.555 391.692 271.528 391.715 271.504C391.769 271.454 397.116 266.456 405.426 261.683C413.102 257.279 424.954 252.178 437.821 252.887C450.689 253.596 462.215 259.866 472.128 271.524C472.15 271.55 472.166 271.579 472.176 271.611C472.186 271.642 472.19 271.675 472.187 271.709C472.184 271.742 472.175 271.774 472.16 271.803C472.144 271.833 472.123 271.859 472.098 271.88C472.055 271.912 472.002 271.93 471.948 271.931Z" fill="#E3E3E3"/>
        <path d="M421.593 224.311C421.55 224.31 421.507 224.299 421.47 224.278C421.432 224.257 421.4 224.226 421.378 224.189L418.422 219.333L418.594 219.172C418.642 219.132 418.703 219.109 418.766 219.109C418.829 219.109 418.89 219.132 418.938 219.172L421.864 221.332V217.576L422.056 217.508C422.112 217.491 422.172 217.492 422.228 217.512C422.283 217.531 422.33 217.568 422.363 217.617L422.378 217.642L424.048 220.923L425.961 218.541L426.149 218.594C426.201 218.612 426.247 218.646 426.279 218.691C426.311 218.737 426.328 218.791 426.328 218.846V221.648L430.264 219.969L430.403 220.148C430.436 220.196 430.452 220.253 430.449 220.31C430.446 220.367 430.425 220.422 430.388 220.467L429.3 221.898L432.337 221.506L432.438 221.678C432.463 221.729 432.471 221.787 432.462 221.843C432.452 221.899 432.425 221.951 432.385 221.991L430.436 223.664C430.385 223.708 430.319 223.73 430.252 223.725C430.186 223.721 430.123 223.69 430.079 223.639C430.035 223.589 430.013 223.523 430.018 223.456C430.023 223.389 430.054 223.327 430.105 223.283L431.446 222.13L428.662 222.491L428.561 222.339C428.531 222.294 428.516 222.239 428.52 222.185C428.524 222.13 428.545 222.078 428.581 222.036L429.472 220.865L426.098 222.304L425.972 222.236C425.932 222.212 425.9 222.178 425.877 222.138C425.854 222.098 425.843 222.052 425.843 222.006V219.517L424.149 221.628H424C423.954 221.623 423.91 221.606 423.872 221.58C423.834 221.554 423.803 221.519 423.782 221.479L422.39 218.753V221.956L422.256 222.041C422.215 222.066 422.168 222.078 422.12 222.078C422.072 222.078 422.024 222.066 421.983 222.041L421.96 222.026L419.611 220.29L421.831 223.94C421.865 223.997 421.876 224.065 421.86 224.13C421.843 224.195 421.802 224.251 421.745 224.285C421.698 224.309 421.645 224.318 421.593 224.311ZM426.025 221.789L425.994 221.804L426.025 221.789Z" fill="#E3E3E3"/>
        <path d="M122.717 183.618C122.678 183.618 122.639 183.609 122.604 183.591C122.569 183.574 122.539 183.548 122.515 183.517L121.46 182.144L121.32 182.003L121.573 181.649L121.771 181.743L123.135 182.29V180.791L123.454 180.66L123.583 180.784L124.735 182.111L125.977 180.612L126.068 180.428L126.511 180.602L126.451 180.806L126.268 182.341L128.017 181.622L128.166 181.541L128.437 181.793L128.339 182.003L127.382 183.361C127.343 183.415 127.284 183.452 127.219 183.463C127.153 183.475 127.085 183.459 127.03 183.421C126.976 183.383 126.939 183.324 126.927 183.258C126.916 183.193 126.931 183.125 126.969 183.07L127.438 182.404L125.954 183.015L125.719 182.871V182.712L125.856 181.553L124.77 182.863L124.562 182.677L123.646 181.619V182.795L123.408 182.949L123.277 182.886L122.411 182.54L122.917 183.209C122.958 183.262 122.976 183.33 122.967 183.396C122.958 183.462 122.923 183.522 122.869 183.563C122.826 183.597 122.773 183.617 122.717 183.618Z" fill="#E3E3E3"/>
        <path d="M135.761 183.686C135.709 183.685 135.659 183.669 135.617 183.638C135.562 183.6 135.525 183.541 135.514 183.475C135.502 183.41 135.518 183.342 135.556 183.287L136.176 182.404L134.622 183.045L134.369 182.699L134.46 182.611L134.587 181.551L133.648 182.679L133.473 182.846L133.288 182.679L132.375 181.624V182.798L132.134 182.952L132.003 182.889L131.137 182.54L131.534 183.058C131.575 183.111 131.593 183.178 131.584 183.244C131.575 183.311 131.54 183.371 131.486 183.411C131.433 183.451 131.366 183.469 131.299 183.46C131.233 183.451 131.173 183.416 131.132 183.363L130.195 182.144L130.066 182.013L130.274 181.669L130.471 181.728L131.868 182.293V180.761L132.263 180.665L132.344 180.816L133.465 182.111L134.845 180.445L135.184 180.579V180.768L134.999 182.341L136.746 181.622L136.895 181.541L137.166 181.793L137.067 182.003L135.961 183.575C135.939 183.608 135.909 183.635 135.874 183.654C135.84 183.674 135.801 183.685 135.761 183.686Z" fill="#E3E3E3"/>
        <path d="M129.901 243.049L129.747 243.024C125.212 242.332 117.695 243.024 117.619 243.024L117.48 243.036L113.402 237.736L113.521 237.559C113.558 237.512 113.608 237.477 113.666 237.462C113.724 237.446 113.785 237.45 113.84 237.473L118.796 239.477V234.447L118.97 234.366C119.022 234.347 119.079 234.345 119.133 234.358C119.186 234.372 119.235 234.401 119.272 234.442L123.179 238.955L127.565 233.654L127.76 233.722C127.815 233.746 127.86 233.785 127.89 233.836C127.919 233.887 127.932 233.947 127.925 234.005L127.257 239.664L133.647 237.031L133.789 237.183C133.824 237.23 133.843 237.288 133.843 237.347C133.843 237.406 133.824 237.463 133.789 237.511L129.901 243.049ZM114.445 238.253L117.713 242.509C118.758 242.418 125.409 241.888 129.666 242.509L132.923 237.879L126.948 240.34L126.816 240.252C126.777 240.224 126.746 240.185 126.727 240.141C126.708 240.096 126.701 240.048 126.707 240L127.33 234.732L123.319 239.571H123.184C123.145 239.57 123.107 239.562 123.071 239.546C123.035 239.53 123.003 239.506 122.977 239.477L119.302 235.232V239.942L119.18 240.033C119.144 240.057 119.102 240.073 119.057 240.078C119.013 240.083 118.969 240.077 118.927 240.06L114.445 238.253Z" fill="#E3E3E3"/>
        <path d="M392.46 260.364L392.306 260.341C386.199 259.409 376.078 260.341 375.976 260.341L375.837 260.353L370.542 253.455C370.505 253.407 370.484 253.348 370.484 253.287C370.484 253.227 370.505 253.168 370.542 253.12C370.579 253.07 370.631 253.035 370.69 253.018C370.749 253.002 370.812 253.005 370.869 253.029L377.654 255.772V249.114C377.656 249.059 377.675 249.005 377.707 248.96C377.739 248.915 377.785 248.881 377.836 248.862C377.89 248.842 377.947 248.84 378.002 248.854C378.056 248.868 378.105 248.898 378.143 248.94L383.458 255.083L389.261 248.084C389.299 248.037 389.351 248.004 389.41 247.99C389.468 247.976 389.53 247.981 389.585 248.006C389.641 248.029 389.687 248.07 389.717 248.122C389.747 248.174 389.76 248.234 389.752 248.294L388.838 256.05L397.335 252.552C397.391 252.529 397.452 252.524 397.511 252.539C397.569 252.554 397.621 252.588 397.659 252.635C397.695 252.683 397.714 252.742 397.714 252.802C397.714 252.862 397.695 252.92 397.659 252.968L392.46 260.364ZM371.453 253.801L376.072 259.818C377.31 259.71 386.449 258.965 392.23 259.818L396.811 253.306L388.679 256.658C388.634 256.676 388.585 256.682 388.537 256.676C388.488 256.669 388.443 256.651 388.403 256.623C388.365 256.593 388.335 256.555 388.316 256.511C388.297 256.467 388.29 256.418 388.294 256.371L389.165 248.993L383.597 255.699H383.46C383.419 255.699 383.379 255.69 383.342 255.673C383.305 255.656 383.272 255.631 383.245 255.601L378.15 249.717V256.237L378.026 256.335C377.989 256.359 377.947 256.374 377.903 256.378C377.859 256.382 377.814 256.376 377.773 256.36L371.453 253.801Z" fill="#E3E3E3"/>
        <path d="M426.352 205.511C426.285 205.511 426.22 205.485 426.173 205.437C426.125 205.39 426.099 205.326 426.099 205.259C426.157 196.077 426.164 189.668 426.121 186.21C426 176.202 424.031 117.223 421.89 112.579C420.7 110 418.693 108.387 416.762 108.455C415.147 108.518 413.806 109.78 412.983 112.009C412.346 113.733 411.931 118.463 411.748 126.068C411.748 126.135 411.722 126.199 411.674 126.246C411.627 126.293 411.562 126.32 411.495 126.32C411.428 126.32 411.364 126.293 411.316 126.246C411.269 126.199 411.242 126.135 411.242 126.068C411.424 118.405 411.852 113.622 412.508 111.845C413.409 109.412 414.912 108.033 416.742 107.96C418.87 107.872 421.075 109.613 422.35 112.377C424.653 117.377 426.536 178.83 426.628 186.215C426.671 189.676 426.663 196.087 426.605 205.271C426.602 205.336 426.573 205.397 426.526 205.442C426.479 205.487 426.417 205.511 426.352 205.511Z" fill="#E3E3E3"/>
        <path d="M413.736 217.186C413.669 217.186 413.604 217.159 413.557 217.112C413.51 217.064 413.483 217 413.483 216.933C413.46 216.471 411.278 170.38 411.137 139.395C411.137 139.328 411.163 139.264 411.211 139.217C411.258 139.169 411.323 139.143 411.39 139.143C411.457 139.143 411.521 139.169 411.569 139.217C411.616 139.264 411.643 139.328 411.643 139.395C411.785 170.37 413.966 216.448 413.987 216.91C413.988 216.944 413.983 216.979 413.971 217.011C413.959 217.043 413.941 217.072 413.917 217.097C413.893 217.122 413.865 217.142 413.833 217.155C413.802 217.169 413.768 217.175 413.733 217.175L413.736 217.186Z" fill="#E3E3E3"/>
        <path d="M428.35 170.385C428.302 170.385 428.254 170.372 428.213 170.346C428.172 170.32 428.14 170.283 428.12 170.239C428.106 170.208 428.098 170.176 428.097 170.142C428.096 170.109 428.101 170.076 428.113 170.045C428.125 170.013 428.142 169.985 428.165 169.96C428.188 169.936 428.216 169.917 428.246 169.903C428.277 169.89 431.412 168.447 433.49 165.895C435.343 163.623 437.034 151.624 438.046 144.456C438.183 143.482 438.299 142.573 438.428 141.763C438.479 141.409 438.534 141.033 438.593 140.639C439.696 133.158 441.754 119.236 434.363 117.847C433.992 117.776 433.609 117.789 433.244 117.886C432.879 117.984 432.541 118.163 432.255 118.41C427.664 122.073 427.006 140.692 426.791 146.811C426.71 149.047 426.702 149.055 426.611 149.163C426.59 149.188 426.564 149.209 426.534 149.225C426.504 149.24 426.472 149.249 426.439 149.252C426.406 149.255 426.373 149.251 426.341 149.241C426.309 149.231 426.28 149.215 426.254 149.193C426.213 149.159 426.184 149.112 426.171 149.06C426.159 149.008 426.163 148.953 426.183 148.903C426.214 148.734 426.247 147.833 426.285 146.793C426.538 139.963 427.168 121.825 431.939 118.019C432.283 117.725 432.689 117.512 433.128 117.397C433.566 117.282 434.025 117.268 434.47 117.355C442.338 118.832 440.235 133.067 439.106 140.715C439.048 141.109 438.993 141.472 438.942 141.836C438.823 142.646 438.689 143.555 438.56 144.529C437.482 152.217 435.852 163.833 433.91 166.215C431.754 168.863 428.613 170.307 428.479 170.365C428.439 170.385 428.394 170.392 428.35 170.385Z" fill="#E3E3E3"/>
        <path d="M417.448 221.415C417.385 221.415 417.324 221.392 417.277 221.35C417.23 221.308 417.201 221.251 417.195 221.188C415.843 208.063 414.939 193.295 414.512 177.27C414.512 177.203 414.538 177.139 414.586 177.092C414.633 177.044 414.698 177.018 414.765 177.018C414.832 177.018 414.896 177.044 414.944 177.092C414.991 177.139 415.018 177.203 415.018 177.27C415.446 193.277 416.349 208.04 417.698 221.145C417.702 221.178 417.699 221.212 417.689 221.244C417.679 221.276 417.664 221.306 417.642 221.331C417.621 221.357 417.595 221.379 417.566 221.394C417.536 221.41 417.504 221.42 417.47 221.423L417.448 221.415Z" fill="#E3E3E3"/>
        <path d="M414.527 164.645C414.46 164.645 414.395 164.618 414.348 164.571C414.3 164.524 414.274 164.459 414.274 164.392C413.983 137.61 414.927 119.445 415.286 112.604C415.29 112.54 415.318 112.48 415.365 112.436C415.412 112.392 415.475 112.367 415.539 112.367C415.573 112.367 415.607 112.374 415.639 112.388C415.671 112.401 415.699 112.421 415.723 112.446C415.746 112.47 415.765 112.5 415.777 112.532C415.789 112.564 415.794 112.598 415.792 112.632C415.438 119.467 414.494 137.62 414.78 164.387C414.78 164.454 414.753 164.518 414.706 164.566C414.658 164.613 414.594 164.64 414.527 164.64V164.645Z" fill="#E3E3E3"/>
        <path d="M419.28 216.859C419.213 216.859 419.148 216.833 419.101 216.785C419.053 216.738 419.027 216.674 419.027 216.607C418.731 202.472 418.338 172.055 418.062 149.034C418.062 148.967 418.089 148.903 418.137 148.855C418.184 148.808 418.248 148.781 418.316 148.781C418.383 148.781 418.447 148.808 418.495 148.855C418.542 148.903 418.569 148.967 418.569 149.034C418.845 172.055 419.237 202.465 419.533 216.604C419.533 216.671 419.506 216.736 419.459 216.783C419.411 216.83 419.347 216.857 419.28 216.857V216.859Z" fill="#E3E3E3"/>
        <path d="M418.169 137.044C418.102 137.044 418.037 137.018 417.99 136.97C417.942 136.923 417.916 136.859 417.916 136.792C417.764 123.765 417.663 114.527 417.609 109.754C417.609 109.687 417.636 109.623 417.684 109.576C417.731 109.529 417.795 109.502 417.862 109.502C417.93 109.502 417.994 109.529 418.041 109.576C418.089 109.623 418.116 109.687 418.116 109.754C418.169 114.527 418.27 123.765 418.422 136.792C418.422 136.859 418.395 136.923 418.348 136.97C418.3 137.018 418.236 137.044 418.169 137.044Z" fill="#E3E3E3"/>
        <path d="M422.542 215.951C422.475 215.951 422.411 215.924 422.363 215.877C422.316 215.83 422.289 215.766 422.289 215.699C422.464 211.446 422.542 206.107 422.542 199.797C422.542 199.73 422.569 199.666 422.616 199.619C422.664 199.572 422.728 199.545 422.795 199.545C422.862 199.545 422.927 199.572 422.974 199.619C423.022 199.666 423.048 199.73 423.048 199.797C423.048 206.107 422.962 211.461 422.795 215.719C422.79 215.782 422.761 215.841 422.714 215.884C422.667 215.927 422.606 215.951 422.542 215.951Z" fill="#E3E3E3"/>
        <path d="M422.712 188.236C422.644 188.236 422.58 188.209 422.533 188.162C422.485 188.115 422.458 188.05 422.458 187.984C422.076 160.345 420.661 128.416 419.852 111.829C419.852 111.762 419.878 111.697 419.926 111.65C419.973 111.603 420.038 111.576 420.105 111.576C420.17 111.576 420.232 111.601 420.279 111.646C420.326 111.69 420.355 111.751 420.358 111.816C421.168 128.399 422.582 160.345 422.965 187.989C422.965 188.056 422.938 188.12 422.891 188.167C422.843 188.214 422.779 188.241 422.712 188.241V188.236Z" fill="#E3E3E3"/>
        <path d="M426.499 157.401C426.444 157.401 426.391 157.383 426.347 157.351C426.294 157.311 426.258 157.251 426.249 157.184C426.239 157.118 426.256 157.051 426.297 156.997C428.494 154.052 429.01 142.888 429.131 138.224C429.317 132.147 430.268 126.118 431.961 120.278C431.97 120.246 431.985 120.216 432.006 120.19C432.027 120.164 432.052 120.142 432.082 120.126C432.111 120.109 432.143 120.099 432.176 120.095C432.209 120.092 432.243 120.094 432.275 120.104C432.339 120.122 432.394 120.166 432.426 120.225C432.458 120.283 432.466 120.352 432.447 120.417C430.766 126.216 429.821 132.202 429.635 138.236C429.286 151.866 427.648 156.033 426.702 157.3C426.678 157.332 426.648 157.357 426.612 157.374C426.577 157.392 426.538 157.401 426.499 157.401Z" fill="#E3E3E3"/>
        <path d="M433.447 130.437H433.414C433.381 130.433 433.349 130.422 433.32 130.406C433.291 130.389 433.265 130.367 433.245 130.341C433.224 130.315 433.209 130.285 433.2 130.253C433.192 130.22 433.189 130.187 433.193 130.154C433.879 124.853 434.459 120.088 434.752 117.716C434.761 117.649 434.795 117.589 434.848 117.548C434.9 117.507 434.967 117.488 435.033 117.496C435.1 117.504 435.16 117.538 435.201 117.591C435.243 117.643 435.261 117.71 435.254 117.776C434.965 120.149 434.38 124.922 433.697 130.217C433.689 130.278 433.659 130.333 433.613 130.374C433.567 130.414 433.508 130.437 433.447 130.437Z" fill="#E3E3E3"/>
        <path d="M427.019 163.501C426.966 163.502 426.914 163.485 426.87 163.454C426.843 163.434 426.82 163.409 426.803 163.381C426.785 163.353 426.774 163.321 426.769 163.288C426.764 163.256 426.765 163.222 426.773 163.19C426.781 163.157 426.795 163.127 426.814 163.1C427.9 161.616 428.419 159.16 429.553 153.779C429.712 153.023 429.88 152.21 430.059 151.338C430.51 149.221 431.168 145.028 432.018 138.885C432.027 138.819 432.063 138.759 432.116 138.719C432.169 138.679 432.235 138.661 432.302 138.67C432.335 138.674 432.367 138.685 432.395 138.702C432.424 138.719 432.45 138.741 432.47 138.767C432.49 138.794 432.505 138.824 432.513 138.857C432.522 138.889 432.524 138.922 432.519 138.955C431.669 145.114 431.001 149.304 430.553 151.444L430.046 153.882C428.897 159.337 428.371 161.826 427.222 163.398C427.199 163.43 427.168 163.456 427.133 163.474C427.098 163.492 427.059 163.501 427.019 163.501Z" fill="#E3E3E3"/>
        <path d="M426.778 167.621C426.737 167.622 426.696 167.612 426.659 167.593C426.623 167.574 426.591 167.546 426.568 167.513C426.53 167.457 426.515 167.39 426.528 167.324C426.54 167.258 426.578 167.2 426.634 167.162C426.661 167.142 429.547 165.143 430.974 162.667C431.112 162.414 431.223 162.147 431.306 161.872C431.316 161.84 431.332 161.81 431.353 161.785C431.375 161.759 431.401 161.739 431.431 161.723C431.46 161.708 431.493 161.699 431.526 161.696C431.559 161.693 431.593 161.697 431.624 161.707C431.656 161.717 431.686 161.734 431.711 161.755C431.737 161.777 431.758 161.803 431.773 161.832C431.788 161.862 431.798 161.894 431.8 161.927C431.803 161.961 431.799 161.994 431.789 162.025C431.694 162.335 431.568 162.633 431.412 162.916C429.926 165.488 427.041 167.492 426.92 167.576C426.878 167.605 426.829 167.621 426.778 167.621Z" fill="#E3E3E3"/>
        <path d="M432.925 153.64H432.892C432.825 153.631 432.765 153.597 432.724 153.544C432.683 153.491 432.665 153.424 432.674 153.358C433.104 150.026 433.646 146.278 434.628 143.963C435.762 141.285 436.691 133.854 437.321 122.474C437.325 122.409 437.353 122.349 437.4 122.305C437.447 122.261 437.509 122.236 437.574 122.236C437.638 122.24 437.699 122.269 437.743 122.315C437.787 122.362 437.812 122.424 437.812 122.489C437.171 134.099 436.253 141.379 435.081 144.145C434.124 146.404 433.59 150.112 433.162 153.408C433.158 153.469 433.131 153.526 433.087 153.569C433.043 153.611 432.986 153.637 432.925 153.64Z" fill="#E3E3E3"/>
        <path d="M410.374 188.178H410.349C407.881 187.802 405.536 186.856 403.5 185.417L403.472 185.397C400.139 183.067 396.186 178.372 396.239 169.243C396.335 152.319 396.973 136.246 400.944 133.258C401.188 133.065 401.468 132.924 401.768 132.842C402.068 132.76 402.382 132.739 402.69 132.781C403.181 132.845 403.653 133.013 404.075 133.273C404.915 133.79 405.593 134.701 406.066 135.984C407.261 139.161 407.15 144.194 407.079 147.869C407.051 149.078 407.028 150.121 407.048 150.974C407.032 152.183 406.952 153.39 406.808 154.591C406.251 160.396 405.32 170.141 411.326 176.272C411.349 176.296 411.368 176.323 411.381 176.354C411.394 176.385 411.4 176.418 411.4 176.451C411.4 176.485 411.394 176.518 411.381 176.548C411.368 176.579 411.349 176.607 411.326 176.631C411.278 176.678 411.214 176.704 411.147 176.704C411.08 176.704 411.016 176.678 410.969 176.631C404.798 170.333 405.745 160.451 406.309 154.548C406.449 153.367 406.529 152.18 406.547 150.991C406.527 150.126 406.547 149.078 406.578 147.864C406.659 144.23 406.767 139.252 405.608 136.165C405.168 134.992 404.566 134.164 403.821 133.707C403.461 133.485 403.057 133.342 402.637 133.288C402.395 133.253 402.147 133.269 401.911 133.334C401.675 133.399 401.455 133.512 401.265 133.666C397.469 136.529 396.851 153.261 396.76 169.255C396.732 174.19 397.929 180.929 403.804 185.015L403.829 185.033C405.793 186.404 408.043 187.313 410.409 187.693C410.442 187.697 410.475 187.707 410.504 187.723C410.533 187.738 410.559 187.76 410.58 187.786C410.601 187.811 410.616 187.841 410.626 187.873C410.635 187.905 410.638 187.938 410.635 187.971C410.624 188.031 410.591 188.085 410.543 188.123C410.495 188.161 410.435 188.181 410.374 188.178Z" fill="#E3E3E3"/>
        <path d="M403.639 185.459C403.603 185.459 403.568 185.451 403.536 185.437C403.504 185.423 403.475 185.402 403.451 185.376C400.705 182.094 397.564 175.984 398.164 165.506C398.784 154.696 399.66 144.986 400.285 138.752C400.292 138.685 400.324 138.624 400.376 138.581C400.428 138.539 400.494 138.518 400.561 138.525C400.628 138.531 400.689 138.564 400.732 138.615C400.775 138.667 400.795 138.733 400.789 138.8C400.164 145.037 399.288 154.739 398.67 165.539C398.344 171.231 398.974 179.237 403.834 185.053C403.876 185.103 403.898 185.169 403.892 185.235C403.887 185.301 403.856 185.362 403.806 185.406C403.758 185.443 403.699 185.462 403.639 185.459Z" fill="#E3E3E3"/>
        <path d="M412.53 187.628C412.502 187.627 412.475 187.623 412.449 187.615C405.527 185.318 401.629 177.711 400.86 165C400.856 164.933 400.879 164.868 400.924 164.819C400.968 164.769 401.031 164.739 401.098 164.735C401.164 164.731 401.23 164.753 401.28 164.797C401.331 164.841 401.361 164.903 401.366 164.97C402.125 177.453 405.904 184.909 412.608 187.136C412.672 187.156 412.725 187.202 412.755 187.261C412.786 187.321 412.791 187.39 412.77 187.454C412.754 187.504 412.722 187.548 412.678 187.58C412.635 187.611 412.583 187.628 412.53 187.628Z" fill="#E3E3E3"/>
        <path d="M401.223 153.435H401.205C401.172 153.433 401.139 153.424 401.109 153.41C401.079 153.395 401.053 153.374 401.031 153.349C401.009 153.324 400.992 153.295 400.982 153.263C400.971 153.232 400.967 153.199 400.969 153.165C401.453 146.536 402.361 139.944 403.69 133.43C403.704 133.365 403.742 133.308 403.798 133.271C403.853 133.234 403.921 133.22 403.986 133.233C404.019 133.239 404.05 133.252 404.078 133.271C404.106 133.289 404.13 133.313 404.148 133.341C404.167 133.368 404.18 133.399 404.186 133.432C404.193 133.465 404.193 133.498 404.186 133.531C402.862 140.023 401.956 146.593 401.476 153.201C401.471 153.265 401.442 153.324 401.395 153.368C401.348 153.411 401.287 153.436 401.223 153.435Z" fill="#E3E3E3"/>
        <path d="M405.755 170.414C405.697 170.416 405.641 170.398 405.595 170.364C405.549 170.33 405.516 170.282 405.502 170.227C402.115 157.705 404.421 142.132 405.57 136.019C405.576 135.986 405.588 135.955 405.607 135.927C405.625 135.899 405.648 135.875 405.676 135.857C405.703 135.838 405.734 135.825 405.767 135.818C405.8 135.811 405.833 135.811 405.866 135.817C405.932 135.83 405.99 135.868 406.027 135.923C406.065 135.979 406.079 136.047 406.066 136.112C404.924 142.193 402.631 157.675 405.99 170.096C405.999 170.128 406.001 170.161 405.997 170.194C405.993 170.227 405.982 170.259 405.965 170.288C405.948 170.317 405.926 170.342 405.899 170.363C405.873 170.383 405.843 170.398 405.81 170.406C405.792 170.41 405.773 170.413 405.755 170.414Z" fill="#E3E3E3"/>
        <path d="M412.354 182.6C412.287 182.6 412.224 182.574 412.177 182.527C410.721 181.078 409.475 179.435 408.474 177.643C408.441 177.585 408.433 177.516 408.451 177.452C408.469 177.387 408.512 177.333 408.57 177.3C408.628 177.267 408.697 177.259 408.762 177.277C408.826 177.295 408.881 177.338 408.914 177.396C409.892 179.146 411.11 180.752 412.531 182.169C412.578 182.216 412.605 182.28 412.605 182.347C412.605 182.413 412.578 182.477 412.531 182.525C412.484 182.572 412.421 182.599 412.354 182.6Z" fill="#E3E3E3"/>
        <path d="M125.513 175.99C125.446 175.99 125.381 175.963 125.334 175.916C125.286 175.869 125.26 175.805 125.26 175.738C125.237 172.295 125.26 165.137 125.272 163.229C125.315 159.713 126.216 130.449 127.32 128.056C127.95 126.691 129.046 125.843 130.104 125.878C130.64 125.898 131.622 126.178 132.237 127.811C132.559 128.682 132.759 130.908 132.847 134.626C132.847 134.693 132.821 134.757 132.773 134.805C132.726 134.852 132.661 134.879 132.594 134.879C132.527 134.879 132.463 134.852 132.415 134.805C132.368 134.757 132.341 134.693 132.341 134.626C132.255 131.022 132.06 128.788 131.762 127.98C131.39 126.971 130.792 126.406 130.084 126.378C129.216 126.335 128.312 127.084 127.77 128.261C126.758 130.454 125.827 158.473 125.768 163.231C125.746 165.129 125.733 172.29 125.756 175.73C125.756 175.797 125.729 175.861 125.682 175.908C125.634 175.956 125.57 175.982 125.503 175.982L125.513 175.99Z" fill="#E3E3E3"/>
        <path d="M131.487 179.672C131.42 179.672 131.356 179.646 131.308 179.598C131.261 179.551 131.234 179.487 131.234 179.42C131.247 179.183 132.33 155.709 132.396 140.979C132.396 140.912 132.423 140.848 132.47 140.801C132.518 140.753 132.582 140.727 132.649 140.727C132.716 140.727 132.781 140.753 132.828 140.801C132.876 140.848 132.902 140.912 132.902 140.979C132.836 155.719 131.751 179.205 131.741 179.44C131.735 179.504 131.707 179.563 131.66 179.606C131.613 179.649 131.551 179.673 131.487 179.672Z" fill="#E3E3E3"/>
        <path d="M124.588 155.838C124.552 155.838 124.516 155.83 124.484 155.816C123.476 155.331 122.581 154.644 121.854 153.796C120.978 152.721 120.295 148.274 119.612 143.417C119.548 142.953 119.488 142.519 119.432 142.135L119.354 141.603C118.809 137.92 117.797 131.067 121.664 130.341C121.894 130.296 122.13 130.304 122.357 130.364C122.583 130.423 122.792 130.533 122.97 130.684C125.048 132.342 125.529 139.346 125.709 144.47C125.726 144.939 125.742 145.346 125.754 145.447C125.77 145.495 125.77 145.546 125.756 145.594C125.742 145.642 125.714 145.685 125.676 145.717C125.65 145.738 125.621 145.754 125.589 145.765C125.558 145.775 125.524 145.778 125.491 145.776C125.458 145.773 125.426 145.763 125.396 145.748C125.367 145.733 125.34 145.712 125.319 145.687C125.243 145.596 125.243 145.596 125.205 144.488C125.101 141.593 124.79 132.784 122.654 131.078C122.533 130.972 122.389 130.895 122.234 130.854C122.079 130.812 121.916 130.807 121.758 130.838C118.369 131.474 119.336 138.014 119.855 141.53L119.933 142.062C119.989 142.448 120.05 142.88 120.115 143.347C120.591 146.742 121.381 152.433 122.246 153.476C122.926 154.259 123.759 154.895 124.694 155.346C124.724 155.36 124.751 155.38 124.774 155.404C124.797 155.428 124.814 155.457 124.826 155.488C124.837 155.519 124.843 155.553 124.841 155.586C124.84 155.619 124.832 155.652 124.818 155.682C124.799 155.728 124.767 155.767 124.726 155.794C124.685 155.822 124.637 155.837 124.588 155.838Z" fill="#E3E3E3"/>
        <path d="M129.766 180.109H129.741C129.708 180.106 129.675 180.096 129.646 180.081C129.616 180.065 129.59 180.044 129.569 180.018C129.548 179.992 129.532 179.962 129.522 179.93C129.513 179.898 129.51 179.865 129.513 179.832C130.156 173.602 130.584 166.583 130.779 158.973C130.779 158.906 130.805 158.842 130.853 158.795C130.9 158.747 130.965 158.721 131.032 158.721C131.099 158.721 131.163 158.747 131.211 158.795C131.258 158.842 131.285 158.906 131.285 158.973C131.08 166.598 130.649 173.628 130.007 179.872C130.003 179.934 129.976 179.993 129.932 180.037C129.888 180.08 129.829 180.106 129.766 180.109Z" fill="#E3E3E3"/>
        <path d="M131.162 153.11C131.095 153.11 131.03 153.083 130.983 153.036C130.935 152.988 130.909 152.924 130.909 152.857C131.048 140.136 130.6 131.501 130.43 128.25C130.428 128.217 130.433 128.184 130.444 128.152C130.455 128.12 130.472 128.091 130.494 128.066C130.517 128.042 130.544 128.021 130.574 128.007C130.604 127.993 130.637 127.984 130.671 127.983C130.704 127.981 130.737 127.986 130.768 127.997C130.8 128.008 130.829 128.025 130.853 128.048C130.878 128.07 130.898 128.097 130.912 128.127C130.927 128.157 130.935 128.189 130.936 128.223C131.106 131.479 131.554 140.126 131.415 152.865C131.413 152.93 131.385 152.993 131.338 153.038C131.291 153.084 131.227 153.11 131.162 153.11Z" fill="#E3E3E3"/>
        <path d="M128.902 177.944C128.834 177.944 128.77 177.917 128.723 177.87C128.675 177.823 128.648 177.759 128.648 177.692C128.79 170.95 128.975 156.49 129.106 145.553C129.106 145.486 129.133 145.422 129.181 145.375C129.228 145.327 129.292 145.301 129.36 145.301C129.427 145.301 129.491 145.327 129.539 145.375C129.586 145.422 129.613 145.486 129.613 145.553C129.481 156.492 129.296 170.95 129.155 177.694C129.154 177.761 129.127 177.824 129.08 177.871C129.032 177.918 128.968 177.944 128.902 177.944Z" fill="#E3E3E3"/>
        <path d="M129.433 139.98C129.366 139.98 129.301 139.953 129.254 139.906C129.206 139.859 129.18 139.794 129.18 139.728C129.251 133.531 129.299 129.139 129.324 126.868C129.324 126.801 129.351 126.737 129.398 126.689C129.446 126.642 129.51 126.615 129.577 126.615C129.644 126.615 129.709 126.642 129.756 126.689C129.803 126.737 129.83 126.801 129.83 126.868C129.805 129.139 129.757 133.534 129.686 139.74C129.683 139.805 129.655 139.866 129.607 139.911C129.56 139.955 129.498 139.98 129.433 139.98Z" fill="#E3E3E3"/>
        <path d="M127.4 180.599C127.333 180.599 127.269 180.572 127.221 180.525C127.174 180.478 127.147 180.414 127.147 180.347C127.056 178.133 126.97 172.462 126.973 169.68C126.973 169.613 126.999 169.549 127.047 169.502C127.094 169.454 127.159 169.428 127.226 169.428C127.293 169.428 127.357 169.454 127.405 169.502C127.452 169.549 127.479 169.613 127.479 169.68C127.479 172.457 127.562 178.118 127.651 180.326C127.651 180.393 127.624 180.458 127.577 180.505C127.529 180.552 127.465 180.579 127.398 180.579L127.4 180.599Z" fill="#E3E3E3"/>
        <path d="M127.269 164.33C127.202 164.33 127.137 164.303 127.09 164.256C127.042 164.209 127.016 164.145 127.016 164.078C127.195 150.93 127.869 135.73 128.256 127.84C128.256 127.773 128.282 127.709 128.33 127.662C128.377 127.614 128.442 127.588 128.509 127.588C128.543 127.588 128.577 127.595 128.609 127.608C128.64 127.622 128.669 127.641 128.692 127.666C128.716 127.691 128.735 127.72 128.746 127.752C128.758 127.785 128.764 127.819 128.762 127.853C128.377 135.74 127.704 150.933 127.524 164.07C127.525 164.104 127.52 164.138 127.507 164.17C127.495 164.201 127.476 164.23 127.452 164.254C127.428 164.279 127.4 164.298 127.368 164.311C127.337 164.324 127.303 164.33 127.269 164.33Z" fill="#E3E3E3"/>
        <path d="M125.462 149.661C125.423 149.661 125.384 149.652 125.349 149.635C125.314 149.617 125.283 149.592 125.26 149.56C124.799 148.945 123.994 146.94 123.838 140.418C123.749 137.56 123.302 134.723 122.506 131.975C122.487 131.911 122.495 131.842 122.527 131.783C122.56 131.725 122.614 131.681 122.678 131.662C122.743 131.644 122.812 131.651 122.871 131.683C122.93 131.716 122.973 131.77 122.992 131.834C123.802 134.627 124.257 137.51 124.344 140.416C124.513 147.036 125.326 148.813 125.665 149.268C125.705 149.321 125.722 149.388 125.713 149.455C125.703 149.521 125.668 149.581 125.614 149.621C125.569 149.65 125.516 149.664 125.462 149.661Z" fill="#E3E3E3"/>
        <path d="M122.174 136.838C122.112 136.839 122.052 136.817 122.005 136.776C121.959 136.736 121.928 136.68 121.92 136.619C121.596 134.11 121.318 131.823 121.181 130.7C121.174 130.634 121.192 130.567 121.234 130.514C121.275 130.462 121.335 130.428 121.402 130.42C121.468 130.412 121.535 130.431 121.588 130.472C121.64 130.513 121.674 130.573 121.683 130.639C121.822 131.773 122.1 134.047 122.424 136.553C122.428 136.586 122.426 136.62 122.417 136.652C122.408 136.684 122.393 136.714 122.373 136.74C122.352 136.766 122.327 136.788 122.298 136.805C122.269 136.821 122.237 136.832 122.204 136.836L122.174 136.838Z" fill="#E3E3E3"/>
        <path d="M125.209 152.565C125.169 152.565 125.13 152.556 125.094 152.538C125.058 152.52 125.028 152.494 125.004 152.462C124.44 151.692 124.189 150.498 123.637 147.886L123.384 146.725C123.169 145.715 122.853 143.696 122.448 140.776C122.443 140.743 122.445 140.709 122.454 140.677C122.462 140.645 122.477 140.614 122.497 140.588C122.517 140.561 122.543 140.539 122.571 140.522C122.6 140.506 122.632 140.495 122.665 140.49C122.732 140.482 122.799 140.5 122.852 140.54C122.905 140.581 122.94 140.641 122.949 140.707C123.354 143.625 123.665 145.617 123.88 146.621C123.969 147.035 124.05 147.421 124.133 147.78C124.67 150.321 124.913 151.48 125.414 152.164C125.434 152.191 125.448 152.221 125.456 152.254C125.464 152.286 125.465 152.319 125.46 152.352C125.455 152.385 125.443 152.417 125.426 152.445C125.408 152.473 125.385 152.498 125.358 152.517C125.315 152.549 125.263 152.566 125.209 152.565Z" fill="#E3E3E3"/>
        <path d="M125.335 154.524C125.284 154.523 125.234 154.508 125.191 154.481C125.133 154.438 123.736 153.471 123.015 152.209C122.936 152.066 122.872 151.916 122.825 151.76C122.814 151.728 122.811 151.695 122.813 151.662C122.816 151.628 122.825 151.596 122.841 151.567C122.856 151.537 122.877 151.511 122.902 151.489C122.928 151.468 122.957 151.452 122.989 151.442C123.021 151.432 123.054 151.428 123.088 151.431C123.121 151.433 123.153 151.442 123.183 151.458C123.212 151.473 123.239 151.494 123.26 151.519C123.282 151.545 123.298 151.574 123.308 151.606C123.345 151.728 123.393 151.846 123.452 151.959C124.118 153.108 125.477 154.044 125.477 154.054C125.532 154.092 125.57 154.151 125.581 154.217C125.593 154.282 125.579 154.35 125.54 154.405C125.519 154.44 125.488 154.469 125.453 154.49C125.417 154.51 125.377 154.522 125.335 154.524Z" fill="#E3E3E3"/>
        <path d="M122.411 147.875C122.349 147.876 122.289 147.854 122.243 147.813C122.196 147.773 122.166 147.717 122.158 147.656C121.958 146.096 121.705 144.342 121.254 143.284C120.692 141.954 120.242 138.473 119.946 132.935C119.942 132.869 119.965 132.804 120.01 132.754C120.054 132.704 120.117 132.674 120.184 132.67C120.217 132.668 120.25 132.673 120.282 132.684C120.313 132.695 120.342 132.711 120.367 132.734C120.392 132.756 120.412 132.782 120.427 132.812C120.441 132.842 120.45 132.874 120.452 132.908C120.826 139.723 121.35 142.206 121.717 143.085C122.191 144.203 122.449 145.995 122.656 147.587C122.661 147.62 122.658 147.654 122.649 147.686C122.641 147.718 122.626 147.748 122.605 147.774C122.585 147.801 122.559 147.823 122.53 147.839C122.501 147.855 122.469 147.866 122.436 147.87L122.411 147.875Z" fill="#E3E3E3"/>
        <path d="M133.139 164.302C133.076 164.302 133.016 164.279 132.969 164.238C132.922 164.196 132.893 164.139 132.886 164.077C132.882 164.044 132.885 164.011 132.895 163.979C132.904 163.947 132.92 163.917 132.941 163.892C132.962 163.866 132.987 163.844 133.017 163.829C133.046 163.813 133.078 163.803 133.111 163.799C134.21 163.622 135.254 163.201 136.168 162.568L136.196 162.547C138.94 160.637 139.501 157.477 139.486 155.162C139.458 150.579 139.398 139.849 137.396 138.342C137.319 138.28 137.23 138.234 137.135 138.207C137.039 138.18 136.94 138.173 136.841 138.186C136.662 138.21 136.489 138.272 136.335 138.367C135.955 138.637 135.676 139.025 135.541 139.47C134.996 140.917 135.05 143.269 135.088 144.988C135.1 145.566 135.11 146.066 135.1 146.48C135.109 147.04 135.147 147.599 135.214 148.155C135.485 150.987 135.938 155.728 132.959 158.756C132.912 158.803 132.847 158.83 132.781 158.83C132.714 158.83 132.65 158.803 132.602 158.756C132.578 158.733 132.56 158.705 132.547 158.674C132.534 158.644 132.527 158.61 132.527 158.577C132.527 158.544 132.534 158.511 132.547 158.48C132.56 158.449 132.578 158.421 132.602 158.398C135.417 155.526 134.976 150.934 134.713 148.191C134.646 147.614 134.608 147.035 134.599 146.454C134.599 146.053 134.599 145.558 134.586 144.985C134.543 143.128 134.493 140.816 135.07 139.281C135.246 138.729 135.603 138.252 136.082 137.926C136.298 137.792 136.539 137.706 136.791 137.673C136.955 137.651 137.121 137.662 137.281 137.705C137.441 137.749 137.59 137.824 137.72 137.926C139.653 139.382 139.962 147.063 140.01 155.147C140.036 159.531 138.14 161.798 136.53 162.929L136.5 162.951C135.512 163.648 134.375 164.106 133.179 164.289L133.139 164.302Z" fill="#E3E3E3"/>
        <path d="M136.347 163.01C136.288 163.009 136.232 162.989 136.187 162.952C136.135 162.91 136.102 162.849 136.095 162.783C136.088 162.717 136.107 162.65 136.149 162.598C137.415 161.084 138.86 158.267 138.579 153.406C138.285 148.269 137.87 143.658 137.566 140.692C137.56 140.626 137.581 140.559 137.623 140.508C137.666 140.456 137.727 140.424 137.794 140.417C137.861 140.411 137.927 140.431 137.979 140.473C138.03 140.515 138.063 140.576 138.07 140.642C138.369 143.613 138.786 148.232 139.083 153.378C139.371 158.403 137.86 161.339 136.552 162.916C136.527 162.947 136.496 162.971 136.46 162.987C136.424 163.003 136.386 163.011 136.347 163.01Z" fill="#E3E3E3"/>
        <path d="M132.113 164.045C132.06 164.045 132.008 164.028 131.965 163.998C131.922 163.967 131.89 163.923 131.873 163.873C131.862 163.841 131.858 163.808 131.86 163.775C131.862 163.741 131.871 163.709 131.886 163.679C131.902 163.649 131.922 163.623 131.948 163.601C131.973 163.579 132.003 163.563 132.035 163.553C135.168 162.513 136.937 159.009 137.291 153.128C137.293 153.095 137.302 153.063 137.316 153.033C137.331 153.003 137.351 152.976 137.376 152.954C137.401 152.932 137.43 152.915 137.462 152.904C137.493 152.894 137.526 152.889 137.56 152.891C137.593 152.893 137.625 152.901 137.655 152.916C137.685 152.931 137.712 152.951 137.734 152.976C137.756 153 137.773 153.029 137.784 153.061C137.795 153.092 137.8 153.126 137.797 153.159C137.428 159.262 135.542 162.921 132.194 164.032C132.168 164.04 132.14 164.044 132.113 164.045Z" fill="#E3E3E3"/>
        <path d="M137.489 147.777C137.425 147.777 137.363 147.753 137.316 147.709C137.269 147.666 137.241 147.606 137.236 147.542C137.009 144.405 136.579 141.286 135.95 138.203C135.944 138.171 135.944 138.137 135.95 138.105C135.956 138.072 135.969 138.041 135.987 138.014C136.006 137.986 136.029 137.962 136.057 137.944C136.084 137.925 136.115 137.912 136.148 137.905C136.18 137.899 136.214 137.899 136.247 137.905C136.279 137.911 136.31 137.924 136.338 137.942C136.366 137.961 136.39 137.984 136.408 138.012C136.427 138.039 136.44 138.07 136.446 138.102C137.079 141.207 137.512 144.348 137.742 147.507C137.745 147.54 137.741 147.573 137.73 147.605C137.72 147.636 137.703 147.666 137.681 147.691C137.659 147.716 137.632 147.736 137.603 147.751C137.573 147.766 137.54 147.775 137.507 147.777H137.489Z" fill="#E3E3E3"/>
        <path d="M135.335 155.854C135.313 155.857 135.291 155.857 135.269 155.854C135.204 155.836 135.149 155.794 135.115 155.737C135.082 155.679 135.072 155.61 135.089 155.546C136.679 149.662 135.595 142.322 135.051 139.44C135.045 139.407 135.045 139.374 135.052 139.341C135.059 139.309 135.072 139.278 135.091 139.25C135.11 139.223 135.134 139.199 135.162 139.181C135.19 139.163 135.221 139.151 135.254 139.145C135.32 139.133 135.387 139.147 135.442 139.185C135.497 139.223 135.535 139.281 135.547 139.347C136.097 142.264 137.195 149.695 135.578 155.677C135.562 155.729 135.529 155.773 135.485 155.805C135.442 155.837 135.389 155.854 135.335 155.854Z" fill="#E3E3E3"/>
        <path d="M132.195 161.649C132.161 161.649 132.128 161.642 132.097 161.629C132.066 161.616 132.038 161.597 132.015 161.573C131.968 161.526 131.941 161.462 131.941 161.395C131.941 161.328 131.968 161.264 132.015 161.217C132.682 160.552 133.254 159.798 133.713 158.976C133.746 158.918 133.801 158.875 133.865 158.857C133.93 158.839 133.999 158.847 134.057 158.88C134.116 158.913 134.159 158.967 134.177 159.032C134.195 159.096 134.186 159.165 134.154 159.223C133.675 160.085 133.079 160.877 132.382 161.576C132.357 161.6 132.328 161.619 132.296 161.632C132.264 161.644 132.229 161.65 132.195 161.649Z" fill="#E3E3E3"/>
        <path d="M256.584 106.05C256.539 106.049 256.495 106.037 256.455 106.014C256.427 105.997 256.401 105.975 256.382 105.948C256.362 105.921 256.347 105.891 256.339 105.858C256.331 105.826 256.33 105.792 256.335 105.759C256.34 105.726 256.352 105.695 256.369 105.666L262.443 95.613C262.46 95.5841 262.483 95.5589 262.51 95.5388C262.536 95.5188 262.567 95.5042 262.6 95.496C262.632 95.4878 262.666 95.4861 262.699 95.491C262.732 95.4959 262.764 95.5074 262.793 95.5247C262.821 95.5418 262.846 95.5644 262.866 95.5912C262.886 95.618 262.901 95.6485 262.909 95.6809C262.917 95.7133 262.918 95.7469 262.913 95.7799C262.908 95.8129 262.896 95.8445 262.879 95.873L256.804 105.926C256.782 105.964 256.75 105.996 256.711 106.017C256.672 106.039 256.629 106.05 256.584 106.05Z" fill="#E3E3E3"/>
        <path d="M107.222 135.927H6.30387C6.23675 135.927 6.17239 135.901 6.12493 135.853C6.07747 135.806 6.05078 135.742 6.05078 135.675C6.05078 135.608 6.07747 135.544 6.12493 135.497C6.17239 135.449 6.23675 135.423 6.30387 135.423H105.853L52.3516 89.8134C52.3263 89.7919 52.3056 89.7655 52.2905 89.736C52.2755 89.7065 52.2664 89.6743 52.2638 89.6412C52.2612 89.6082 52.2652 89.575 52.2755 89.5434C52.2858 89.5119 52.3022 89.4827 52.3238 89.4575C52.3454 89.4323 52.3718 89.4116 52.4014 89.3966C52.431 89.3816 52.4633 89.3725 52.4964 89.3699C52.5296 89.3673 52.5629 89.3713 52.5945 89.3816C52.6261 89.3918 52.6554 89.4082 52.6806 89.4297L107.222 135.927Z" fill="#E3E3E3"/>
        <path d="M44.0138 82.6298C43.9535 82.6298 43.8952 82.6083 43.8493 82.5692L15.6193 58.495L6.57886 66.3523C6.52817 66.3962 6.46208 66.4181 6.39516 66.4133C6.32825 66.4086 6.26601 66.3776 6.22202 66.3271C6.17809 66.2765 6.15604 66.2107 6.16079 66.1439C6.16554 66.0772 6.19665 66.0151 6.2473 65.9712L15.6117 57.8262L15.7763 57.9675L44.1809 82.183C44.2062 82.2046 44.2269 82.2309 44.242 82.2604C44.257 82.29 44.2661 82.3221 44.2687 82.3552C44.2713 82.3882 44.2673 82.4215 44.257 82.453C44.2467 82.4846 44.2303 82.5137 44.2087 82.5389C44.1849 82.5674 44.1551 82.5903 44.1215 82.606C44.0878 82.6217 44.051 82.6298 44.0138 82.6298Z" fill="#E3E3E3"/>
        <path d="M6.40692 69.3277C6.34778 69.3278 6.29044 69.3072 6.24491 69.2696C6.21946 69.2483 6.19848 69.222 6.18318 69.1926C6.16788 69.1631 6.15856 69.131 6.15574 69.0979C6.15292 69.0649 6.15665 69.0316 6.16674 69C6.17683 68.9684 6.19311 68.939 6.21457 68.9137L12.0053 62.0458L6.58407 67.3463C6.53665 67.3933 6.47249 67.4197 6.40562 67.4197C6.33876 67.4197 6.27459 67.3933 6.22717 67.3463C6.20345 67.3228 6.18466 67.2949 6.17181 67.2641C6.15896 67.2334 6.15234 67.2004 6.15234 67.1671C6.15234 67.1338 6.15896 67.1008 6.17181 67.07C6.18466 67.0393 6.20345 67.0114 6.22717 66.9879L15.4322 57.9746L15.8042 58.3178L6.59927 69.2342C6.57599 69.2629 6.54668 69.2861 6.51345 69.3022C6.48022 69.3184 6.44387 69.3271 6.40692 69.3277Z" fill="#E3E3E3"/>
        <path d="M6.40551 78.3384C6.36935 78.3387 6.33365 78.33 6.3017 78.3131C6.24115 78.2851 6.19418 78.2344 6.17095 78.172C6.14772 78.1096 6.15013 78.0406 6.17769 77.98L13.9476 61.17L6.60793 72.3388C6.57122 72.3945 6.51389 72.4335 6.44845 72.4473C6.38301 72.461 6.3148 72.4483 6.25869 72.412C6.2028 72.3754 6.16369 72.3182 6.14994 72.253C6.13619 72.1877 6.1489 72.1196 6.18529 72.0637L15.3903 58.0352L15.8307 58.2876L6.62567 78.1996C6.60503 78.2405 6.57362 78.275 6.53483 78.2994C6.49605 78.3239 6.45138 78.3374 6.40551 78.3384Z" fill="#E3E3E3"/>
        <path d="M8.08303 121.112H8.05269C8.01958 121.108 7.98759 121.098 7.95858 121.081C7.92957 121.065 7.90409 121.043 7.88363 121.017C7.86317 120.99 7.8481 120.96 7.83933 120.928C7.83055 120.896 7.82822 120.863 7.83247 120.83L14.9925 61.1894L6.64041 89.8446C6.62212 89.9088 6.57911 89.9631 6.52078 89.9957C6.46245 90.0284 6.39354 90.0367 6.32911 90.0188C6.29697 90.0098 6.26694 89.9945 6.24075 89.9739C6.21455 89.9532 6.19272 89.9276 6.17649 89.8986C6.16026 89.8695 6.14993 89.8374 6.14615 89.8043C6.14237 89.7713 6.14523 89.7378 6.15449 89.7058L15.3595 58.0898L15.8656 58.1883L8.33612 120.89C8.32866 120.952 8.29877 121.008 8.25209 121.049C8.2054 121.09 8.14521 121.113 8.08303 121.112Z" fill="#E3E3E3"/>
        <path d="M15.6203 135.926C15.5532 135.926 15.4888 135.899 15.4413 135.852C15.3939 135.805 15.3672 135.741 15.3672 135.674V94.4184C15.3672 94.3515 15.3939 94.2873 15.4413 94.24C15.4888 94.1926 15.5532 94.166 15.6203 94.166C15.6874 94.166 15.7518 94.1926 15.7992 94.24C15.8467 94.2873 15.8734 94.3515 15.8734 94.4184V135.674C15.8734 135.741 15.8467 135.805 15.7992 135.852C15.7518 135.899 15.6874 135.926 15.6203 135.926Z" fill="#E3E3E3"/>
        <path d="M22.4791 108.279C22.4173 108.279 22.3574 108.257 22.3108 108.217C22.2642 108.176 22.2341 108.12 22.226 108.059L15.8734 61.8518V82.3773C15.8734 82.4442 15.8467 82.5084 15.7992 82.5557C15.7518 82.603 15.6874 82.6297 15.6203 82.6297C15.5532 82.6297 15.4888 82.603 15.4413 82.5557C15.3939 82.5084 15.3672 82.4442 15.3672 82.3773V58.1618L15.8734 58.1289L22.7398 107.994C22.7491 108.06 22.7318 108.127 22.6914 108.181C22.6511 108.234 22.5911 108.269 22.5247 108.279H22.4791Z" fill="#E3E3E3"/>
        <path d="M26.2876 135.926C26.2258 135.926 26.166 135.904 26.1194 135.864C26.0727 135.823 26.0426 135.767 26.0345 135.706L23.9946 120.895C23.99 120.862 23.9919 120.828 24.0004 120.796C24.0088 120.764 24.0237 120.734 24.0439 120.707C24.0641 120.681 24.0894 120.658 24.1183 120.642C24.1472 120.625 24.1791 120.614 24.2123 120.61C24.2454 120.605 24.2791 120.607 24.3114 120.616C24.3437 120.624 24.374 120.639 24.4006 120.659C24.4272 120.679 24.4495 120.704 24.4663 120.733C24.483 120.762 24.4939 120.794 24.4983 120.827L26.5382 135.638C26.5428 135.671 26.5409 135.705 26.5324 135.737C26.524 135.769 26.5092 135.799 26.4889 135.826C26.4687 135.852 26.4434 135.875 26.4145 135.891C26.3856 135.908 26.3537 135.919 26.3206 135.923L26.2876 135.926Z" fill="#E3E3E3"/>
        <path d="M38.8427 135.926C38.7862 135.928 38.7306 135.912 38.6847 135.879C38.6389 135.846 38.6054 135.799 38.5896 135.744L26.9752 96.988C26.9563 96.9241 26.9635 96.8553 26.9953 96.7967C27.027 96.738 27.0808 96.6943 27.1447 96.675C27.1766 96.6653 27.2101 96.662 27.2433 96.6653C27.2765 96.6685 27.3088 96.6783 27.3382 96.694C27.3676 96.7097 27.3935 96.7311 27.4146 96.7568C27.4357 96.7826 27.4515 96.8123 27.4611 96.8442L39.0755 135.601C39.0852 135.632 39.0886 135.666 39.0853 135.699C39.0821 135.732 39.0723 135.764 39.0565 135.793C39.0408 135.823 39.0194 135.849 38.9935 135.87C38.9677 135.891 38.9379 135.907 38.906 135.916C38.8852 135.921 38.864 135.925 38.8427 135.926Z" fill="#E3E3E3"/>
        <path d="M38.3975 108.278C38.3488 108.278 38.3012 108.264 38.2603 108.237C38.2195 108.211 38.1872 108.173 38.1672 108.129L16.9074 61.6035L23.7004 84.2743C23.7193 84.3382 23.712 84.407 23.6803 84.4656C23.6485 84.5243 23.5948 84.568 23.5308 84.5873C23.4667 84.6061 23.3977 84.5989 23.3389 84.5673C23.2802 84.5356 23.2363 84.482 23.217 84.4182L15.3711 58.2314L15.8443 58.0547L38.6379 107.919C38.6519 107.95 38.6596 107.982 38.6608 108.016C38.662 108.049 38.6566 108.082 38.6448 108.114C38.6331 108.145 38.6152 108.173 38.5923 108.198C38.5694 108.222 38.5419 108.241 38.5114 108.255C38.4757 108.271 38.4367 108.279 38.3975 108.278Z" fill="#E3E3E3"/>
        <path d="M51.0528 135.926C51.0041 135.926 50.9565 135.912 50.9157 135.885C50.8748 135.859 50.8425 135.821 50.8225 135.777L43.1589 119.01C43.1315 118.949 43.1294 118.88 43.1531 118.817C43.1768 118.755 43.2244 118.704 43.2854 118.677C43.3462 118.649 43.4154 118.647 43.478 118.67C43.5405 118.693 43.5914 118.74 43.6195 118.801L51.2831 135.568C51.2972 135.598 51.3051 135.63 51.3065 135.664C51.3078 135.697 51.3026 135.73 51.2911 135.761C51.2796 135.792 51.262 135.821 51.2393 135.845C51.2167 135.87 51.1894 135.889 51.1591 135.903C51.1256 135.918 51.0894 135.926 51.0528 135.926Z" fill="#E3E3E3"/>
        <path d="M62.3622 135.926C62.3183 135.926 62.2751 135.915 62.237 135.893C62.1988 135.872 62.167 135.84 62.1446 135.803L58.0951 129.091C58.0777 129.063 58.0663 129.031 58.0614 128.998C58.0564 128.965 58.0581 128.931 58.0664 128.899C58.0746 128.866 58.0892 128.836 58.1094 128.809C58.1295 128.782 58.1547 128.76 58.1836 128.743C58.2411 128.709 58.3098 128.698 58.3748 128.714C58.4398 128.731 58.4957 128.772 58.5304 128.829L62.5799 135.543C62.5972 135.571 62.6087 135.603 62.6136 135.636C62.6186 135.669 62.6169 135.703 62.6086 135.735C62.6004 135.768 62.5858 135.798 62.5656 135.825C62.5455 135.852 62.5202 135.874 62.4913 135.891C62.4519 135.914 62.4075 135.926 62.3622 135.926Z" fill="#E3E3E3"/>
        <path d="M54.262 122.51C54.2187 122.509 54.1762 122.498 54.1386 122.477C54.1009 122.456 54.0694 122.425 54.0469 122.388L15.3945 58.3009L15.8121 58.0156L38.6057 87.4584C38.6465 87.5113 38.6646 87.5782 38.6561 87.6445C38.6476 87.7107 38.613 87.7709 38.5601 87.8118C38.507 87.8525 38.4399 87.8706 38.3735 87.8621C38.3071 87.8535 38.2468 87.8191 38.2058 87.7664L18.0747 61.7689L54.4797 122.131C54.5141 122.188 54.5244 122.257 54.5083 122.322C54.4921 122.386 54.4509 122.442 54.3936 122.477C54.3535 122.499 54.308 122.511 54.262 122.51Z" fill="#E3E3E3"/>
        <path d="M75.6237 135.926C75.585 135.926 75.5468 135.917 75.5122 135.9C75.4775 135.883 75.4473 135.859 75.4237 135.828L45.417 97.0715C45.3964 97.0452 45.3812 97.0152 45.3723 96.983C45.3634 96.9508 45.3611 96.9172 45.3653 96.8841C45.3696 96.851 45.3803 96.8191 45.397 96.7902C45.4137 96.7612 45.436 96.7359 45.4625 96.7157C45.4889 96.6951 45.5191 96.68 45.5513 96.6711C45.5836 96.6623 45.6173 96.6599 45.6505 96.6641C45.6837 96.6684 45.7157 96.6791 45.7447 96.6958C45.7737 96.7124 45.7991 96.7346 45.8194 96.7611L75.8236 135.52C75.8644 135.573 75.8825 135.64 75.874 135.706C75.8654 135.772 75.8309 135.832 75.778 135.873C75.7338 135.908 75.6796 135.926 75.6237 135.926Z" fill="#E3E3E3"/>
        <path d="M85.5267 135.927C85.491 135.927 85.4556 135.92 85.4228 135.906C85.3901 135.891 85.3608 135.87 85.3369 135.844L64.0391 112.229C64.0165 112.204 63.999 112.175 63.9877 112.144C63.9763 112.113 63.9713 112.079 63.973 112.046C63.9746 112.013 63.9829 111.98 63.9973 111.95C64.0117 111.92 64.0319 111.893 64.0568 111.871C64.1069 111.826 64.1726 111.803 64.2395 111.807C64.3064 111.811 64.369 111.841 64.4137 111.891L85.714 135.505C85.7589 135.555 85.7822 135.62 85.7789 135.687C85.7756 135.754 85.7458 135.816 85.6963 135.861C85.6498 135.903 85.5894 135.927 85.5267 135.927Z" fill="#E3E3E3"/>
        <path d="M76.2734 116.547C76.2074 116.547 76.1438 116.522 76.0963 116.476L20.4538 63.1483L56.6233 103.235C56.6682 103.284 56.6915 103.35 56.6882 103.416C56.6849 103.483 56.6551 103.546 56.6056 103.591C56.5558 103.636 56.4904 103.659 56.4235 103.655C56.3566 103.652 56.2938 103.623 56.2487 103.573L15.4375 58.3274L15.8019 57.9766L76.4607 116.112C76.4844 116.136 76.5033 116.164 76.5161 116.195C76.529 116.225 76.5356 116.258 76.5356 116.292C76.5356 116.325 76.529 116.358 76.5161 116.389C76.5033 116.42 76.4844 116.447 76.4607 116.471C76.4364 116.496 76.4072 116.515 76.375 116.528C76.3428 116.541 76.3082 116.547 76.2734 116.547Z" fill="#E3E3E3"/>
        <path d="M96.4924 135.927C96.4264 135.927 96.3628 135.902 96.3153 135.856L84.6881 124.712C84.6644 124.689 84.6456 124.661 84.6327 124.63C84.6199 124.599 84.6133 124.566 84.6133 124.533C84.6133 124.5 84.6199 124.467 84.6327 124.436C84.6456 124.405 84.6644 124.377 84.6881 124.354C84.7116 124.33 84.7396 124.312 84.7705 124.299C84.8013 124.286 84.8344 124.279 84.8679 124.279C84.9013 124.279 84.9343 124.286 84.9652 124.299C84.996 124.312 85.024 124.33 85.0475 124.354L96.6746 135.5C96.7218 135.547 96.7482 135.611 96.7482 135.678C96.7482 135.745 96.7218 135.809 96.6746 135.856C96.6505 135.879 96.6219 135.897 96.5906 135.91C96.5594 135.922 96.526 135.927 96.4924 135.927Z" fill="#E3E3E3"/>
        <path d="M52.2911 205.802H6.40544C6.33831 205.802 6.27389 205.775 6.22643 205.728C6.17897 205.68 6.15234 205.616 6.15234 205.549C6.15234 205.482 6.17897 205.418 6.22643 205.371C6.27389 205.323 6.33831 205.297 6.40544 205.297H52.2911C52.3583 205.297 52.4227 205.323 52.4701 205.371C52.5176 205.418 52.5442 205.482 52.5442 205.549C52.5442 205.616 52.5176 205.68 52.4701 205.728C52.4227 205.775 52.3583 205.802 52.2911 205.802Z" fill="#E3E3E3"/>
        <path d="M88.9292 205.801H76.7023C76.6352 205.801 76.5708 205.774 76.5233 205.727C76.4758 205.679 76.4492 205.615 76.4492 205.548C76.4492 205.481 76.4758 205.417 76.5233 205.37C76.5708 205.323 76.6352 205.296 76.7023 205.296H88.423V141.135C88.423 141.068 88.4497 141.004 88.4972 140.957C88.5446 140.909 88.609 140.883 88.6761 140.883C88.7432 140.883 88.8076 140.909 88.8551 140.957C88.9026 141.004 88.9292 141.068 88.9292 141.135V205.801Z" fill="#E3E3E3"/>
        <path d="M31.1644 172.335C31.0972 172.335 31.0329 172.309 30.9854 172.262C30.9379 172.214 30.9113 172.15 30.9113 172.083V160.397C30.917 158.507 30.5468 156.635 29.8222 154.889C29.0976 153.143 28.0328 151.558 26.6897 150.225C25.3533 148.885 23.7637 147.823 22.013 147.1C20.2622 146.377 18.385 146.007 16.49 146.012C12.8018 146.006 9.25277 147.416 6.57893 149.95C6.53151 149.997 6.46734 150.023 6.40048 150.023C6.33362 150.023 6.26951 149.997 6.22209 149.95C6.17495 149.903 6.14844 149.839 6.14844 149.772C6.14844 149.705 6.17495 149.641 6.22209 149.594C8.98953 146.972 12.6626 145.512 16.4799 145.518C18.4413 145.512 20.3842 145.895 22.1962 146.644C24.0083 147.392 25.6535 148.492 27.0365 149.879C28.4269 151.258 29.5292 152.899 30.2795 154.706C31.0297 156.513 31.413 158.451 31.4073 160.407V172.093C31.4048 172.157 31.3784 172.217 31.3334 172.262C31.2884 172.307 31.228 172.333 31.1644 172.335Z" fill="#E3E3E3"/>
        <path d="M31.4186 205.801H6.40544C6.33831 205.801 6.27389 205.775 6.22643 205.727C6.17897 205.68 6.15234 205.616 6.15234 205.549C6.15234 205.482 6.17897 205.418 6.22643 205.37C6.27389 205.323 6.33831 205.296 6.40544 205.296H30.9124V190.543C30.9124 190.476 30.9391 190.412 30.9865 190.365C31.034 190.318 31.0984 190.291 31.1655 190.291C31.2326 190.291 31.297 190.318 31.3445 190.365C31.3919 190.412 31.4186 190.476 31.4186 190.543V205.801Z" fill="#E3E3E3"/>
        <path d="M151.531 185.488C147.711 185.487 143.902 185.092 140.164 184.309C134.11 183.034 126.011 183.441 118.864 183.804C113.949 184.057 109.702 184.264 107.032 183.878C100.811 182.976 99.1506 184.887 99.1354 184.912C99.1145 184.938 99.0887 184.96 99.0594 184.976C99.0302 184.992 98.998 185.002 98.9648 185.005C98.9317 185.009 98.8981 185.006 98.8662 184.996C98.8342 184.987 98.8044 184.971 98.7785 184.95C98.7264 184.909 98.6928 184.848 98.6852 184.782C98.6776 184.716 98.6966 184.649 98.738 184.597C98.8089 184.509 100.543 182.426 107.105 183.378C109.727 183.756 113.939 183.547 118.839 183.3C126.016 182.941 134.151 182.542 140.271 183.819C150.372 185.947 158.24 184.521 158.311 184.506C158.344 184.5 158.377 184.5 158.41 184.507C158.443 184.514 158.474 184.527 158.501 184.546C158.529 184.564 158.552 184.588 158.57 184.616C158.589 184.644 158.601 184.675 158.607 184.708C158.619 184.774 158.604 184.841 158.566 184.896C158.529 184.951 158.47 184.988 158.405 185.001C156.131 185.352 153.832 185.515 151.531 185.488Z" fill="#E3E3E3"/>
        <path d="M67.1698 205.836L67.0407 205.773C59.4479 202.076 52.4828 205.73 52.412 205.773C52.3532 205.805 52.2842 205.812 52.2202 205.793C52.1562 205.774 52.1023 205.731 52.0703 205.672C52.0542 205.643 52.0441 205.611 52.0405 205.578C52.0369 205.545 52.04 205.512 52.0494 205.48C52.0588 205.448 52.0744 205.418 52.0953 205.392C52.1163 205.366 52.1422 205.345 52.1715 205.329C52.2423 205.291 59.3442 201.543 67.1369 205.266C67.924 204.807 72.2873 202.535 76.8354 205.337C76.8639 205.354 76.8887 205.377 76.9083 205.404C76.928 205.43 76.9421 205.461 76.9499 205.493C76.9576 205.526 76.9589 205.559 76.9536 205.592C76.9483 205.625 76.9365 205.657 76.9189 205.685C76.9013 205.713 76.8783 205.738 76.8512 205.757C76.8242 205.776 76.7935 205.79 76.7611 205.798C76.7286 205.805 76.695 205.806 76.6622 205.801C76.6293 205.795 76.5979 205.783 76.5697 205.766C71.8419 202.853 67.3343 205.733 67.2887 205.766L67.1698 205.836Z" fill="#E3E3E3"/>
    </g>
    <defs>
        <clipPath id="clip0_7947_8009">
            <rect width="510" height="312" fill="white"/>
        </clipPath>
    </defs>
</svg>
