<svg width="394" height="312" viewBox="0 0 394 312" fill="none" xmlns="http://www.w3.org/2000/svg">
    <g clip-path="url(#clip0_7962_8514)">
        <path d="M273.402 49.5709C273.404 61.9667 268.727 73.9061 260.306 82.9996C251.884 92.0932 240.341 97.6701 227.985 98.6143C227.856 98.6233 227.727 98.5923 227.616 98.5253C227.505 98.4582 227.418 98.3585 227.366 98.2398C227.314 98.1212 227.3 97.9893 227.325 97.8623C227.351 97.7353 227.415 97.6193 227.509 97.5303C228.491 96.5505 229.27 95.3864 229.8 94.1048C230.331 92.8231 230.603 91.4493 230.602 90.0621V79.5814C230.601 75.7441 231.356 71.9442 232.824 68.3989C234.292 64.8537 236.444 61.6325 239.157 58.9196C244.283 53.7864 247.164 46.8282 247.168 39.5723C247.168 32.4425 243.875 25.9923 238.819 21.321C235.826 18.5648 232.284 16.4728 228.425 15.1823C227.201 14.7681 226.138 13.9795 225.386 12.928C224.634 11.8764 224.231 10.6151 224.234 9.32218V7.03743C224.232 6.15521 224.418 5.2825 224.781 4.47839C225.143 3.67427 225.674 2.95744 226.338 2.37597C227.001 1.7945 227.781 1.36201 228.626 1.10771C229.47 0.853401 230.359 0.783113 231.233 0.901689C242.938 2.58607 253.643 8.43336 261.388 17.372C269.133 26.3107 273.398 37.742 273.402 49.5709Z" fill="#231F20"/>
        <path d="M315.83 99.8622C315.778 99.8621 315.727 99.8487 315.681 99.823C315.636 99.7972 315.599 99.7602 315.572 99.7155C304.686 81.6786 289.264 66.8111 270.843 56.5951C270.809 56.5755 270.779 56.5491 270.755 56.5178C270.73 56.4865 270.712 56.4507 270.702 56.4125C270.692 56.3743 270.689 56.3343 270.694 56.295C270.699 56.2556 270.712 56.2178 270.731 56.1834C270.751 56.149 270.777 56.1188 270.808 56.0945C270.84 56.0702 270.876 56.0523 270.914 56.0419C270.952 56.0314 270.992 56.0287 271.031 56.0337C271.07 56.0387 271.108 56.0514 271.143 56.0711C289.655 66.3362 305.155 81.2759 316.096 99.401C316.137 99.4689 316.149 99.5503 316.13 99.6272C316.111 99.7041 316.062 99.7703 315.994 99.8113C315.946 99.844 315.888 99.8617 315.83 99.8622Z" fill="#E3E3E3"/>
        <path d="M105.085 108.583C105.04 108.583 104.995 108.573 104.954 108.553C104.918 108.536 104.886 108.512 104.86 108.482C104.834 108.453 104.814 108.419 104.801 108.381C104.789 108.344 104.783 108.305 104.786 108.265C104.788 108.226 104.798 108.187 104.816 108.152C121.975 73.509 154.897 49.0442 192.884 42.7108C192.964 42.6981 193.045 42.7175 193.11 42.7647C193.175 42.8118 193.219 42.8829 193.232 42.9623C193.244 43.0418 193.225 43.1229 193.178 43.1881C193.131 43.2532 193.059 43.297 192.98 43.3097C155.184 49.6131 122.427 73.9551 105.355 108.428C105.328 108.476 105.289 108.516 105.242 108.543C105.194 108.571 105.14 108.584 105.085 108.583Z" fill="#E3E3E3"/>
        <path d="M175.95 276.337C175.92 276.341 175.89 276.341 175.86 276.337C152.319 268.717 131.688 254.044 116.763 234.303C116.739 234.272 116.722 234.236 116.712 234.198C116.703 234.16 116.701 234.12 116.706 234.081C116.712 234.042 116.725 234.005 116.745 233.971C116.765 233.937 116.791 233.908 116.823 233.884C116.854 233.86 116.89 233.843 116.928 233.834C116.966 233.824 117.006 233.822 117.045 233.827C117.084 233.833 117.121 233.846 117.155 233.866C117.189 233.886 117.218 233.913 117.242 233.944C132.094 253.577 152.617 268.172 176.034 275.753C176.109 275.777 176.172 275.831 176.208 275.902C176.244 275.972 176.25 276.055 176.226 276.13C176.207 276.189 176.17 276.24 176.121 276.277C176.071 276.314 176.012 276.335 175.95 276.337Z" fill="#E3E3E3"/>
        <path d="M240.902 278.812C240.823 278.821 240.743 278.798 240.68 278.748C240.618 278.699 240.578 278.626 240.568 278.547C240.559 278.467 240.582 278.387 240.632 278.325C240.681 278.262 240.754 278.222 240.833 278.213C257.067 274.344 272.303 267.094 285.547 256.937C285.61 256.889 285.69 256.867 285.769 256.878C285.848 256.888 285.919 256.929 285.968 256.992C286.016 257.055 286.037 257.135 286.027 257.214C286.017 257.293 285.975 257.365 285.912 257.413C272.6 267.62 257.287 274.906 240.971 278.797L240.902 278.812Z" fill="#E3E3E3"/>
        <path d="M346.491 230.97H326.085C326.005 230.97 325.929 230.939 325.873 230.883C325.817 230.826 325.785 230.75 325.785 230.671C325.785 230.591 325.817 230.515 325.873 230.459C325.929 230.403 326.005 230.371 326.085 230.371H346.491C348.41 230.37 350.249 229.607 351.605 228.25C352.962 226.893 353.725 225.053 353.726 223.134V221.223C353.726 221.144 353.758 221.068 353.814 221.011C353.87 220.955 353.946 220.924 354.026 220.924C354.105 220.924 354.181 220.955 354.237 221.011C354.294 221.068 354.325 221.144 354.325 221.223V223.134C354.323 225.211 353.497 227.203 352.028 228.672C350.559 230.141 348.568 230.968 346.491 230.97Z" fill="#E3E3E3"/>
        <path d="M348.819 112.2V117.276C348.819 118.276 348.421 119.236 347.714 119.944C347.007 120.651 346.047 121.049 345.047 121.049H294.574C293.492 121.049 292.455 121.479 291.691 122.243C290.926 123.008 290.497 124.046 290.497 125.127V206.601C290.497 207.686 290.927 208.726 291.694 209.493C292.461 210.261 293.501 210.691 294.586 210.691H331.406C331.794 210.692 332.175 210.801 332.505 211.005C332.836 211.21 333.103 211.503 333.276 211.85C335.121 215.562 337.88 218.744 341.293 221.094C342.972 222.244 342.209 224.9 340.176 224.912H290.185C288.233 224.912 286.361 224.136 284.98 222.756C283.6 221.375 282.824 219.502 282.824 217.549V112.2C282.824 111.234 283.014 110.276 283.384 109.383C283.753 108.49 284.295 107.678 284.978 106.995C285.662 106.311 286.473 105.769 287.366 105.399C288.259 105.03 289.216 104.839 290.182 104.84H341.473C343.422 104.843 345.29 105.62 346.668 107C348.045 108.38 348.819 110.25 348.819 112.2Z" fill="#333333"/>
        <path d="M347.315 180.064C347.236 180.064 347.16 180.032 347.104 179.976C347.047 179.92 347.016 179.844 347.016 179.764V127.142C347.014 126.311 346.684 125.515 346.096 124.927C345.509 124.34 344.712 124.009 343.882 124.007H337.682C337.603 124.007 337.527 123.976 337.471 123.92C337.414 123.863 337.383 123.787 337.383 123.708C337.383 123.628 337.414 123.552 337.471 123.496C337.527 123.44 337.603 123.408 337.682 123.408H343.891C344.88 123.41 345.829 123.804 346.528 124.504C347.228 125.204 347.622 126.153 347.624 127.142V179.764C347.624 179.804 347.616 179.844 347.6 179.881C347.584 179.918 347.561 179.951 347.533 179.979C347.504 180.007 347.47 180.029 347.433 180.043C347.395 180.058 347.355 180.065 347.315 180.064Z" fill="#E3E3E3"/>
        <path d="M293.163 158.614C293.083 158.614 293.007 158.583 292.951 158.527C292.895 158.47 292.863 158.394 292.863 158.315V127.142C292.865 126.153 293.259 125.204 293.958 124.504C294.658 123.804 295.607 123.41 296.596 123.408H319.047C319.127 123.408 319.203 123.44 319.259 123.496C319.315 123.552 319.347 123.628 319.347 123.708C319.347 123.787 319.315 123.863 319.259 123.92C319.203 123.976 319.127 124.007 319.047 124.007H296.596C295.765 124.009 294.969 124.34 294.382 124.927C293.794 125.515 293.464 126.311 293.462 127.142V158.315C293.462 158.394 293.43 158.47 293.374 158.527C293.318 158.583 293.242 158.614 293.163 158.614Z" fill="#E3E3E3"/>
        <path d="M336.913 207.577H296.596C295.607 207.575 294.658 207.181 293.958 206.481C293.259 205.782 292.865 204.833 292.863 203.843V179.764C292.863 179.685 292.895 179.609 292.951 179.553C293.007 179.496 293.083 179.465 293.163 179.465C293.242 179.465 293.318 179.496 293.374 179.553C293.43 179.609 293.462 179.685 293.462 179.764V203.84C293.464 204.671 293.794 205.467 294.382 206.055C294.969 206.643 295.765 206.974 296.596 206.975H336.913C336.992 206.975 337.068 207.007 337.124 207.063C337.18 207.119 337.212 207.195 337.212 207.275C337.212 207.354 337.18 207.43 337.124 207.486C337.068 207.542 336.992 207.574 336.913 207.574V207.577Z" fill="#E3E3E3"/>
        <path d="M320.237 227.313C318.95 227.312 317.695 226.907 316.65 226.154C315.605 225.401 314.823 224.339 314.415 223.117C314.006 221.895 313.992 220.576 314.374 219.346C314.756 218.116 315.515 217.037 316.543 216.261C317.571 215.486 318.817 215.053 320.104 215.025C321.392 214.996 322.656 215.373 323.717 216.103C324.779 216.832 325.584 217.876 326.02 219.088C326.456 220.3 326.5 221.619 326.146 222.857C326.137 222.897 326.12 222.934 326.096 222.967C326.072 223 326.042 223.027 326.007 223.048C325.972 223.068 325.933 223.082 325.893 223.087C325.852 223.092 325.811 223.089 325.772 223.078C325.733 223.067 325.697 223.047 325.665 223.022C325.634 222.996 325.608 222.964 325.589 222.928C325.57 222.892 325.559 222.853 325.556 222.812C325.553 222.772 325.558 222.731 325.572 222.692C325.924 221.461 325.84 220.145 325.333 218.969C324.825 217.792 323.927 216.827 322.79 216.238C321.652 215.649 320.346 215.472 319.093 215.736C317.84 216.001 316.717 216.691 315.915 217.69C315.113 218.688 314.681 219.934 314.692 221.215C314.704 222.496 315.158 223.734 315.978 224.718C316.798 225.702 317.933 226.372 319.191 226.614C320.448 226.856 321.751 226.656 322.878 226.046C322.947 226.008 323.029 226 323.105 226.023C323.181 226.046 323.245 226.098 323.283 226.167C323.321 226.237 323.329 226.319 323.307 226.396C323.284 226.472 323.232 226.535 323.162 226.573C322.263 227.058 321.258 227.312 320.237 227.313Z" fill="#E3E3E3"/>
        <path d="M357.571 221.791C354.028 221.79 350.537 220.951 347.382 219.34C344.226 217.729 341.498 215.393 339.42 212.523C337.341 209.654 335.973 206.333 335.425 202.832C334.878 199.331 335.168 195.75 336.272 192.383C337.375 189.016 339.26 185.959 341.773 183.461C344.286 180.964 347.355 179.098 350.728 178.016C354.101 176.934 357.682 176.667 361.179 177.238C364.675 177.808 367.986 179.199 370.841 181.296C370.905 181.344 370.947 181.414 370.959 181.493C370.971 181.571 370.951 181.652 370.904 181.716C370.856 181.779 370.786 181.822 370.707 181.834C370.628 181.846 370.548 181.826 370.484 181.778C366.531 178.874 361.714 177.387 356.812 177.557C351.91 177.728 347.208 179.546 343.466 182.719C339.724 185.891 337.159 190.232 336.187 195.042C335.215 199.851 335.891 204.848 338.107 209.226C340.322 213.604 343.948 217.107 348.399 219.17C352.849 221.232 357.865 221.735 362.636 220.595C367.407 219.456 371.656 216.741 374.695 212.89C377.734 209.038 379.387 204.275 379.387 199.368C379.387 197.42 379.129 195.48 378.618 193.601C378.607 193.563 378.604 193.523 378.609 193.484C378.614 193.445 378.627 193.407 378.646 193.373C378.666 193.339 378.692 193.309 378.723 193.285C378.754 193.26 378.789 193.243 378.827 193.232C378.865 193.222 378.905 193.219 378.944 193.224C378.983 193.229 379.021 193.241 379.055 193.261C379.089 193.28 379.119 193.306 379.143 193.337C379.167 193.368 379.185 193.404 379.195 193.442C380.1 196.769 380.225 200.261 379.564 203.645C378.902 207.029 377.47 210.215 375.379 212.956C373.287 215.697 370.593 217.92 367.505 219.452C364.417 220.984 361.018 221.784 357.571 221.791Z" fill="#E3E3E3"/>
        <path d="M393.699 235.671C393.621 235.671 393.546 235.639 393.49 235.584L372.919 215.305C372.887 215.279 372.861 215.246 372.843 215.209C372.825 215.172 372.815 215.132 372.813 215.09C372.811 215.049 372.818 215.008 372.832 214.969C372.847 214.931 372.87 214.896 372.899 214.867C372.928 214.837 372.962 214.814 373.001 214.799C373.039 214.783 373.08 214.776 373.121 214.777C373.162 214.779 373.203 214.789 373.24 214.806C373.277 214.824 373.311 214.849 373.338 214.88L393.909 235.159C393.951 235.201 393.98 235.254 393.991 235.312C394.003 235.37 393.998 235.43 393.975 235.485C393.953 235.54 393.915 235.587 393.866 235.62C393.816 235.653 393.759 235.671 393.699 235.671Z" fill="#E3E3E3"/>
        <path d="M248.092 182.738C248.013 182.738 247.937 182.706 247.881 182.65C247.825 182.594 247.793 182.518 247.793 182.438V166.822C247.795 165.354 248.378 163.947 249.416 162.909C250.454 161.871 251.86 161.287 253.328 161.285H279.751C279.831 161.285 279.907 161.317 279.963 161.373C280.019 161.429 280.051 161.505 280.051 161.585C280.051 161.664 280.019 161.74 279.963 161.796C279.907 161.852 279.831 161.884 279.751 161.884H253.328C252.019 161.886 250.765 162.406 249.839 163.332C248.914 164.258 248.393 165.513 248.392 166.822V182.438C248.392 182.518 248.36 182.594 248.304 182.65C248.248 182.706 248.172 182.738 248.092 182.738Z" fill="#E3E3E3"/>
        <path d="M326.085 251.484H253.328C251.86 251.482 250.454 250.898 249.416 249.86C248.378 248.822 247.795 247.415 247.793 245.947V211.723C247.793 211.644 247.825 211.568 247.881 211.512C247.937 211.455 248.013 211.424 248.092 211.424C248.172 211.424 248.248 211.455 248.304 211.512C248.36 211.568 248.392 211.644 248.392 211.723V245.941C248.393 247.25 248.914 248.505 249.839 249.431C250.765 250.357 252.019 250.877 253.328 250.879H326.085C326.164 250.879 326.24 250.91 326.296 250.967C326.352 251.023 326.384 251.099 326.384 251.179C326.384 251.258 326.352 251.334 326.296 251.39C326.24 251.446 326.164 251.478 326.085 251.478V251.484Z" fill="#E3E3E3"/>
        <path d="M378.304 251.484H347.315C347.236 251.484 347.159 251.453 347.103 251.397C347.047 251.341 347.016 251.264 347.016 251.185C347.016 251.106 347.047 251.029 347.103 250.973C347.159 250.917 347.236 250.886 347.315 250.886H378.304C379.612 250.884 380.867 250.363 381.792 249.438C382.718 248.512 383.238 247.257 383.24 245.948V229.93C383.24 229.851 383.271 229.775 383.328 229.719C383.384 229.662 383.46 229.631 383.539 229.631C383.619 229.631 383.695 229.662 383.751 229.719C383.807 229.775 383.839 229.851 383.839 229.93V245.942C383.839 247.411 383.256 248.82 382.218 249.859C381.18 250.898 379.772 251.483 378.304 251.484Z" fill="#E3E3E3"/>
        <path d="M383.538 215.398C383.458 215.398 383.382 215.367 383.326 215.31C383.27 215.254 383.238 215.178 383.238 215.099V166.828C383.237 165.519 382.716 164.264 381.791 163.338C380.865 162.412 379.611 161.891 378.302 161.89H357.788C357.708 161.89 357.632 161.858 357.576 161.802C357.52 161.746 357.488 161.67 357.488 161.59C357.488 161.511 357.52 161.435 357.576 161.379C357.632 161.323 357.708 161.291 357.788 161.291H378.302C379.769 161.293 381.176 161.876 382.214 162.914C383.252 163.952 383.835 165.36 383.837 166.828V215.099C383.837 215.178 383.805 215.254 383.749 215.31C383.693 215.367 383.617 215.398 383.538 215.398Z" fill="#E3E3E3"/>
        <path d="M277.318 174.455C276.585 174.456 275.868 174.239 275.259 173.832C274.649 173.425 274.173 172.846 273.892 172.169C273.611 171.492 273.538 170.746 273.68 170.027C273.823 169.307 274.176 168.647 274.694 168.128C275.212 167.609 275.872 167.256 276.591 167.112C277.31 166.969 278.055 167.042 278.733 167.323C279.41 167.603 279.989 168.079 280.397 168.688C280.804 169.298 281.021 170.015 281.021 170.748C281.02 171.73 280.629 172.672 279.935 173.367C279.241 174.061 278.3 174.453 277.318 174.455ZM277.318 167.64C276.704 167.639 276.103 167.821 275.591 168.162C275.08 168.503 274.681 168.989 274.445 169.557C274.21 170.124 274.148 170.749 274.267 171.353C274.387 171.956 274.683 172.51 275.117 172.945C275.552 173.38 276.105 173.676 276.708 173.796C277.311 173.917 277.936 173.855 278.504 173.62C279.072 173.385 279.557 172.986 279.899 172.475C280.24 171.964 280.423 171.363 280.423 170.748C280.422 169.925 280.095 169.135 279.513 168.552C278.931 167.97 278.142 167.641 277.318 167.64Z" fill="#E3E3E3"/>
        <path d="M268.2 172.604C270.081 172.604 271.606 171.079 271.606 169.197C271.606 167.315 270.081 165.789 268.2 165.789C266.318 165.789 264.793 167.315 264.793 169.197C264.793 171.079 266.318 172.604 268.2 172.604Z" fill="#EAB669"/>
        <path d="M257.875 172.604C259.757 172.604 261.282 171.079 261.282 169.197C261.282 167.315 259.757 165.789 257.875 165.789C255.994 165.789 254.469 167.315 254.469 169.197C254.469 171.079 255.994 172.604 257.875 172.604Z" fill="#CE7783"/>
        <path d="M267.175 174.455C266.442 174.455 265.725 174.238 265.116 173.831C264.506 173.423 264.031 172.844 263.751 172.167C263.47 171.489 263.397 170.744 263.54 170.025C263.683 169.306 264.036 168.645 264.554 168.127C265.072 167.608 265.733 167.255 266.452 167.112C267.171 166.969 267.916 167.043 268.593 167.323C269.27 167.604 269.849 168.079 270.256 168.689C270.663 169.298 270.881 170.015 270.881 170.748C270.879 171.731 270.488 172.673 269.793 173.368C269.099 174.063 268.157 174.454 267.175 174.455ZM267.175 167.64C266.56 167.64 265.959 167.822 265.448 168.164C264.937 168.505 264.539 168.991 264.304 169.559C264.069 170.127 264.007 170.752 264.127 171.355C264.247 171.958 264.543 172.511 264.978 172.946C265.412 173.381 265.966 173.677 266.568 173.797C267.171 173.917 267.796 173.855 268.364 173.62C268.932 173.385 269.417 172.986 269.758 172.475C270.1 171.964 270.282 171.363 270.282 170.748C270.28 169.924 269.952 169.135 269.37 168.552C268.788 167.969 267.998 167.641 267.175 167.64Z" fill="#E3E3E3"/>
        <path d="M257.42 174.455C256.687 174.456 255.97 174.239 255.36 173.832C254.75 173.425 254.275 172.846 253.994 172.169C253.713 171.492 253.639 170.746 253.782 170.027C253.924 169.307 254.277 168.647 254.795 168.128C255.313 167.609 255.974 167.256 256.693 167.112C257.412 166.969 258.157 167.042 258.834 167.323C259.512 167.603 260.091 168.079 260.498 168.688C260.905 169.298 261.123 170.015 261.123 170.748C261.121 171.73 260.731 172.672 260.037 173.367C259.343 174.061 258.402 174.453 257.42 174.455ZM257.42 167.64C256.805 167.639 256.204 167.821 255.693 168.162C255.181 168.503 254.783 168.989 254.547 169.557C254.311 170.124 254.249 170.749 254.369 171.353C254.489 171.956 254.784 172.51 255.219 172.945C255.653 173.38 256.207 173.676 256.81 173.796C257.412 173.917 258.037 173.855 258.605 173.62C259.173 173.385 259.659 172.986 260 172.475C260.342 171.964 260.524 171.363 260.524 170.748C260.523 169.925 260.196 169.135 259.614 168.552C259.032 167.97 258.243 167.641 257.42 167.64Z" fill="#E3E3E3"/>
        <path d="M328.872 116.485H311.605C311.377 116.505 311.148 116.477 310.931 116.403C310.715 116.329 310.516 116.211 310.347 116.056C310.179 115.901 310.044 115.713 309.952 115.503C309.86 115.294 309.812 115.067 309.812 114.839C309.812 114.61 309.86 114.383 309.952 114.174C310.044 113.964 310.179 113.776 310.347 113.621C310.516 113.466 310.715 113.348 310.931 113.274C311.148 113.2 311.377 113.172 311.605 113.192H328.872C329.1 113.172 329.329 113.2 329.546 113.274C329.763 113.348 329.961 113.466 330.13 113.621C330.299 113.776 330.433 113.964 330.525 114.174C330.617 114.383 330.665 114.61 330.665 114.839C330.665 115.067 330.617 115.294 330.525 115.503C330.433 115.713 330.299 115.901 330.13 116.056C329.961 116.211 329.763 116.329 329.546 116.403C329.329 116.477 329.1 116.505 328.872 116.485ZM311.605 113.79C311.458 113.775 311.31 113.79 311.169 113.835C311.028 113.881 310.899 113.956 310.789 114.055C310.679 114.153 310.591 114.274 310.531 114.409C310.471 114.544 310.44 114.691 310.44 114.839C310.44 114.986 310.471 115.133 310.531 115.268C310.591 115.403 310.679 115.524 310.789 115.623C310.899 115.721 311.028 115.796 311.169 115.841C311.31 115.887 311.458 115.902 311.605 115.887H328.872C329.019 115.902 329.168 115.887 329.308 115.841C329.449 115.796 329.578 115.721 329.688 115.623C329.798 115.524 329.886 115.403 329.946 115.268C330.007 115.133 330.038 114.986 330.038 114.839C330.038 114.691 330.007 114.544 329.946 114.409C329.886 114.274 329.798 114.153 329.688 114.055C329.578 113.956 329.449 113.881 329.308 113.835C329.168 113.79 329.019 113.775 328.872 113.79H311.605Z" fill="#E3E3E3"/>
        <path d="M340.972 165.176H299.494C298.983 165.175 298.493 164.971 298.132 164.61C297.771 164.248 297.567 163.758 297.566 163.247V135.698C297.566 135.186 297.77 134.696 298.131 134.334C298.493 133.973 298.983 133.77 299.494 133.77H340.972C341.483 133.77 341.974 133.973 342.335 134.334C342.697 134.696 342.9 135.186 342.9 135.698V163.247C342.899 163.758 342.696 164.248 342.334 164.61C341.973 164.971 341.483 165.175 340.972 165.176ZM299.488 134.36C299.136 134.36 298.798 134.501 298.549 134.75C298.3 134.999 298.16 135.337 298.159 135.689V163.238C298.16 163.591 298.3 163.928 298.549 164.177C298.798 164.427 299.136 164.567 299.488 164.568H340.972C341.325 164.568 341.663 164.428 341.912 164.178C342.161 163.929 342.301 163.591 342.301 163.238V135.689C342.301 135.336 342.161 134.998 341.912 134.749C341.663 134.5 341.325 134.36 340.972 134.36H299.488Z" fill="#E3E3E3"/>
        <path d="M338.392 169.495H302.081C302.001 169.495 301.925 169.464 301.869 169.408C301.813 169.352 301.781 169.275 301.781 169.196C301.781 169.117 301.813 169.04 301.869 168.984C301.925 168.928 302.001 168.896 302.081 168.896H338.392C338.471 168.896 338.547 168.928 338.603 168.984C338.659 169.04 338.691 169.117 338.691 169.196C338.691 169.275 338.659 169.352 338.603 169.408C338.547 169.464 338.471 169.495 338.392 169.495Z" fill="#E3E3E3"/>
        <path d="M338.392 174.454H302.081C302.001 174.454 301.925 174.423 301.869 174.367C301.813 174.31 301.781 174.234 301.781 174.155C301.781 174.075 301.813 173.999 301.869 173.943C301.925 173.887 302.001 173.855 302.081 173.855H338.392C338.471 173.855 338.547 173.887 338.603 173.943C338.659 173.999 338.691 174.075 338.691 174.155C338.691 174.234 338.659 174.31 338.603 174.367C338.547 174.423 338.471 174.454 338.392 174.454Z" fill="#E3E3E3"/>
        <path d="M334.389 179.413H306.088C306.009 179.413 305.933 179.382 305.877 179.326C305.821 179.269 305.789 179.193 305.789 179.114C305.789 179.034 305.821 178.958 305.877 178.902C305.933 178.846 306.009 178.814 306.088 178.814H334.389C334.468 178.814 334.544 178.846 334.6 178.902C334.657 178.958 334.688 179.034 334.688 179.114C334.688 179.193 334.657 179.269 334.6 179.326C334.544 179.382 334.468 179.413 334.389 179.413Z" fill="#E3E3E3"/>
        <path d="M331.909 199.369C331.909 200.035 331.939 200.697 331.999 201.354H299.588C299.363 201.354 299.139 201.31 298.93 201.224C298.721 201.138 298.531 201.011 298.372 200.852C298.212 200.692 298.085 200.502 297.998 200.294C297.912 200.085 297.867 199.861 297.867 199.635V194.793C297.867 194.567 297.912 194.343 297.998 194.135C298.085 193.926 298.212 193.736 298.372 193.576C298.531 193.417 298.721 193.29 298.93 193.204C299.139 193.118 299.363 193.074 299.588 193.074H332.816C332.212 195.118 331.906 197.238 331.909 199.369Z" fill="#CE7783"/>
        <path d="M349.079 191.062V197.191C349.078 197.769 348.848 198.322 348.44 198.73C348.032 199.138 347.479 199.368 346.902 199.368H338.805C338.769 198.883 338.754 198.395 338.754 197.904C338.75 194.796 339.404 191.722 340.673 188.885H346.902C347.479 188.886 348.032 189.115 348.44 189.523C348.848 189.931 349.078 190.485 349.079 191.062Z" fill="#CE7783"/>
        <path d="M345.821 201.133H335.811C335.732 201.133 335.656 201.102 335.599 201.046C335.543 200.989 335.512 200.913 335.512 200.834C335.512 200.754 335.543 200.678 335.599 200.622C335.656 200.566 335.732 200.534 335.811 200.534H345.821C346.319 200.534 346.796 200.335 347.148 199.984C347.499 199.632 347.697 199.155 347.698 198.657V192.527C347.697 192.03 347.498 191.553 347.147 191.201C346.795 190.85 346.319 190.651 345.821 190.65H337.592C337.513 190.65 337.437 190.618 337.381 190.562C337.324 190.506 337.293 190.43 337.293 190.35C337.293 190.271 337.324 190.195 337.381 190.139C337.437 190.082 337.513 190.051 337.592 190.051H345.821C346.478 190.052 347.107 190.313 347.571 190.777C348.035 191.241 348.296 191.871 348.297 192.527V198.657C348.296 199.313 348.035 199.943 347.571 200.407C347.107 200.871 346.478 201.132 345.821 201.133Z" fill="#E3E3E3"/>
        <path d="M314.631 159.961C314.552 159.961 314.476 159.93 314.42 159.874C314.364 159.818 314.332 159.741 314.332 159.662V134.059C314.332 133.98 314.364 133.904 314.42 133.847C314.476 133.791 314.552 133.76 314.631 133.76C314.711 133.76 314.787 133.791 314.843 133.847C314.899 133.904 314.931 133.98 314.931 134.059V159.662C314.931 159.741 314.899 159.818 314.843 159.874C314.787 159.93 314.711 159.961 314.631 159.961Z" fill="#E3E3E3"/>
        <path d="M303.43 142.104C302.85 142.104 302.282 141.931 301.8 141.609C301.317 141.287 300.941 140.828 300.719 140.292C300.497 139.756 300.439 139.166 300.552 138.596C300.666 138.027 300.945 137.504 301.355 137.094C301.766 136.684 302.288 136.404 302.857 136.291C303.426 136.178 304.016 136.236 304.552 136.458C305.088 136.68 305.547 137.056 305.869 137.539C306.191 138.021 306.363 138.589 306.363 139.169C306.362 139.947 306.052 140.692 305.502 141.242C304.953 141.792 304.207 142.102 303.43 142.104ZM303.43 136.833C302.968 136.833 302.516 136.97 302.133 137.227C301.749 137.483 301.449 137.848 301.273 138.275C301.096 138.702 301.05 139.172 301.14 139.625C301.23 140.078 301.452 140.494 301.779 140.82C302.105 141.147 302.521 141.37 302.974 141.46C303.427 141.55 303.897 141.504 304.323 141.327C304.75 141.15 305.115 140.851 305.371 140.467C305.628 140.083 305.765 139.631 305.765 139.169C305.764 138.55 305.518 137.956 305.08 137.518C304.642 137.08 304.049 136.834 303.43 136.833Z" fill="#E3E3E3"/>
        <path d="M310.674 145.761H300.795C300.716 145.761 300.64 145.729 300.584 145.673C300.528 145.617 300.496 145.541 300.496 145.462C300.496 145.382 300.528 145.306 300.584 145.25C300.64 145.194 300.716 145.162 300.795 145.162H310.674C310.753 145.162 310.83 145.194 310.886 145.25C310.942 145.306 310.973 145.382 310.973 145.462C310.973 145.541 310.942 145.617 310.886 145.673C310.83 145.729 310.753 145.761 310.674 145.761Z" fill="#E3E3E3"/>
        <path d="M310.674 149.056H300.795C300.716 149.056 300.64 149.024 300.584 148.968C300.528 148.912 300.496 148.836 300.496 148.756C300.496 148.677 300.528 148.601 300.584 148.545C300.64 148.488 300.716 148.457 300.795 148.457H310.674C310.753 148.457 310.83 148.488 310.886 148.545C310.942 148.601 310.973 148.677 310.973 148.756C310.973 148.836 310.942 148.912 310.886 148.968C310.83 149.024 310.753 149.056 310.674 149.056Z" fill="#E3E3E3"/>
        <path d="M307.893 151.993H300.795C300.716 151.993 300.64 151.962 300.584 151.906C300.528 151.85 300.496 151.773 300.496 151.694C300.496 151.615 300.528 151.538 300.584 151.482C300.64 151.426 300.716 151.395 300.795 151.395H307.893C307.972 151.395 308.048 151.426 308.105 151.482C308.161 151.538 308.192 151.615 308.192 151.694C308.192 151.773 308.161 151.85 308.105 151.906C308.048 151.962 307.972 151.993 307.893 151.993Z" fill="#E3E3E3"/>
        <path d="M307.893 162.197H300.795C300.716 162.197 300.64 162.165 300.584 162.109C300.528 162.053 300.496 161.977 300.496 161.897C300.496 161.818 300.528 161.742 300.584 161.685C300.64 161.629 300.716 161.598 300.795 161.598H307.893C307.972 161.598 308.048 161.629 308.105 161.685C308.161 161.742 308.192 161.818 308.192 161.897C308.192 161.977 308.161 162.053 308.105 162.109C308.048 162.165 307.972 162.197 307.893 162.197Z" fill="#E3E3E3"/>
        <path d="M317.393 157.451C317.356 157.452 317.319 157.444 317.285 157.43C317.248 157.416 317.215 157.395 317.186 157.367C317.158 157.34 317.135 157.307 317.119 157.271C317.103 157.235 317.095 157.196 317.094 157.157C317.093 157.117 317.1 157.078 317.115 157.041C317.145 156.969 320.057 149.735 328.259 148.719C336.042 147.752 337.363 138.799 337.375 138.709C337.385 138.63 337.427 138.558 337.491 138.509C337.555 138.46 337.635 138.439 337.714 138.45C337.794 138.461 337.866 138.502 337.914 138.566C337.963 138.63 337.984 138.71 337.973 138.79C337.973 138.883 336.59 148.291 328.337 149.312C320.497 150.283 317.704 157.191 317.677 157.26C317.655 157.317 317.616 157.366 317.565 157.4C317.514 157.435 317.454 157.452 317.393 157.451Z" fill="#E3E3E3"/>
        <path d="M340.275 159.962H319.045C318.966 159.962 318.89 159.93 318.834 159.874C318.778 159.818 318.746 159.742 318.746 159.662C318.746 159.583 318.778 159.507 318.834 159.45C318.89 159.394 318.966 159.363 319.045 159.363H339.676V137.03C339.676 136.95 339.708 136.874 339.764 136.818C339.82 136.762 339.896 136.73 339.976 136.73C340.055 136.73 340.131 136.762 340.188 136.818C340.244 136.874 340.275 136.95 340.275 137.03V159.962Z" fill="#E3E3E3"/>
        <path d="M81.4126 177.537C81.3332 177.537 81.2571 177.505 81.2009 177.449C81.1448 177.393 81.1133 177.317 81.1133 177.237V114.003C81.1149 113.357 81.3722 112.738 81.8289 112.282C82.2856 111.826 82.9045 111.569 83.55 111.568H168.565C169.211 111.569 169.829 111.826 170.286 112.282C170.743 112.738 171 113.357 171.002 114.003V123.927C171.002 124.006 170.97 124.082 170.914 124.138C170.858 124.195 170.782 124.226 170.702 124.226C170.623 124.226 170.547 124.195 170.491 124.138C170.435 124.082 170.403 124.006 170.403 123.927V114.003C170.402 113.516 170.208 113.049 169.864 112.705C169.519 112.361 169.052 112.167 168.565 112.167H83.55C83.063 112.167 82.596 112.361 82.2514 112.705C81.9068 113.049 81.7128 113.516 81.712 114.003V177.237C81.712 177.317 81.6804 177.393 81.6243 177.449C81.5681 177.505 81.492 177.537 81.4126 177.537Z" fill="#E3E3E3"/>
        <path d="M168.577 230.795H83.5617C82.9162 230.794 82.2973 230.538 81.8406 230.081C81.3839 229.625 81.1266 229.006 81.125 228.361V201.776C81.125 201.696 81.1566 201.62 81.2127 201.564C81.2688 201.508 81.345 201.476 81.4243 201.476C81.5037 201.476 81.5799 201.508 81.636 201.564C81.6922 201.62 81.7237 201.696 81.7237 201.776V228.361C81.7245 228.848 81.9185 229.315 82.2631 229.659C82.6077 230.003 83.0748 230.196 83.5617 230.196H168.577C169.064 230.196 169.531 230.003 169.875 229.659C170.22 229.315 170.414 228.848 170.415 228.361V146.225C170.415 146.146 170.446 146.07 170.502 146.014C170.559 145.957 170.635 145.926 170.714 145.926C170.794 145.926 170.87 145.957 170.926 146.014C170.982 146.07 171.013 146.146 171.013 146.225V228.376C171.008 229.019 170.749 229.634 170.293 230.087C169.836 230.54 169.22 230.794 168.577 230.795Z" fill="#E3E3E3"/>
        <path d="M110.411 89.9309H75.6236C75.5442 89.9309 75.4681 89.8994 75.4119 89.8432C75.3558 89.787 75.3242 89.7109 75.3242 89.6315C75.3242 89.5521 75.3558 89.4759 75.4119 89.4198C75.4681 89.3636 75.5442 89.332 75.6236 89.332H110.411C110.49 89.332 110.566 89.3636 110.623 89.4198C110.679 89.4759 110.71 89.5521 110.71 89.6315C110.71 89.7109 110.679 89.787 110.623 89.8432C110.566 89.8994 110.49 89.9309 110.411 89.9309Z" fill="#E3E3E3"/>
        <path d="M45.729 175.982C45.6496 175.982 45.5735 175.951 45.5174 175.895C45.4612 175.838 45.4297 175.762 45.4297 175.683V118.557C45.4297 118.478 45.4612 118.402 45.5174 118.346C45.5735 118.289 45.6496 118.258 45.729 118.258C45.8084 118.258 45.8846 118.289 45.9407 118.346C45.9969 118.402 46.0284 118.478 46.0284 118.557V175.683C46.0284 175.762 45.9969 175.838 45.9407 175.895C45.8846 175.951 45.8084 175.982 45.729 175.982Z" fill="#E3E3E3"/>
        <path d="M76.553 219.789H47.8664C47.2204 219.788 46.6011 219.531 46.1443 219.074C45.6875 218.617 45.4305 217.997 45.4297 217.351V196.956C45.4297 196.876 45.4612 196.8 45.5174 196.744C45.5735 196.688 45.6496 196.656 45.729 196.656C45.8084 196.656 45.8846 196.688 45.9407 196.744C45.9969 196.8 46.0284 196.876 46.0284 196.956V217.351C46.0292 217.838 46.2231 218.306 46.5676 218.65C46.9121 218.995 47.3792 219.189 47.8664 219.19H76.553C76.6324 219.19 76.7085 219.221 76.7647 219.277C76.8208 219.334 76.8524 219.41 76.8524 219.489C76.8524 219.569 76.8208 219.645 76.7647 219.701C76.7085 219.757 76.6324 219.789 76.553 219.789Z" fill="#E3E3E3"/>
        <path d="M160.654 211.05H91.4712C91.3918 211.05 91.3157 211.018 91.2595 210.962C91.2034 210.906 91.1719 210.83 91.1719 210.751C91.1719 210.671 91.2034 210.595 91.2595 210.539C91.3157 210.483 91.3918 210.451 91.4712 210.451H160.654C160.733 210.451 160.809 210.483 160.865 210.539C160.922 210.595 160.953 210.671 160.953 210.751C160.953 210.83 160.922 210.906 160.865 210.962C160.809 211.018 160.733 211.05 160.654 211.05Z" fill="#E3E3E3"/>
        <path d="M147.955 148.133H157.372C158.05 148.133 158.701 148.402 159.18 148.882C159.659 149.361 159.929 150.012 159.929 150.69V208.073H145.398V150.69C145.398 150.012 145.668 149.361 146.147 148.882C146.627 148.402 147.277 148.133 147.955 148.133Z" fill="#CE7783"/>
        <path d="M142.881 207.94C142.802 207.94 142.726 207.908 142.67 207.852C142.614 207.796 142.582 207.72 142.582 207.64V153.368C142.583 152.611 142.884 151.885 143.419 151.349C143.955 150.814 144.681 150.513 145.438 150.512H154.858C155.615 150.513 156.341 150.814 156.877 151.349C157.412 151.885 157.713 152.611 157.714 153.368V165.412C157.714 165.492 157.683 165.568 157.626 165.624C157.57 165.68 157.494 165.712 157.415 165.712C157.335 165.712 157.259 165.68 157.203 165.624C157.147 165.568 157.115 165.492 157.115 165.412V153.368C157.115 152.77 156.877 152.196 156.453 151.773C156.03 151.35 155.457 151.111 154.858 151.111H145.438C144.839 151.111 144.266 151.35 143.843 151.773C143.42 152.196 143.182 152.77 143.181 153.368V207.64C143.181 207.72 143.149 207.796 143.093 207.852C143.037 207.908 142.961 207.94 142.881 207.94Z" fill="#E3E3E3"/>
        <path d="M157.417 207.167C157.337 207.167 157.261 207.136 157.205 207.079C157.149 207.023 157.117 206.947 157.117 206.868V183.633C157.117 183.554 157.149 183.478 157.205 183.422C157.261 183.366 157.337 183.334 157.417 183.334C157.496 183.334 157.572 183.366 157.628 183.422C157.684 183.478 157.716 183.554 157.716 183.633V206.868C157.716 206.947 157.684 207.023 157.628 207.079C157.572 207.136 157.496 207.167 157.417 207.167Z" fill="#E3E3E3"/>
        <path d="M125.103 178.102H134.521C135.199 178.102 135.849 178.371 136.329 178.851C136.808 179.33 137.077 179.981 137.077 180.659V208.07H122.547V180.659C122.547 179.981 122.816 179.33 123.296 178.851C123.775 178.371 124.425 178.102 125.103 178.102Z" fill="#EAB669"/>
        <path d="M120.502 208.672C120.423 208.672 120.347 208.641 120.291 208.584C120.235 208.528 120.203 208.452 120.203 208.373V197.452C120.203 197.372 120.235 197.296 120.291 197.24C120.347 197.184 120.423 197.152 120.502 197.152C120.582 197.152 120.658 197.184 120.714 197.24C120.77 197.296 120.802 197.372 120.802 197.452V208.373C120.802 208.452 120.77 208.528 120.714 208.584C120.658 208.641 120.582 208.672 120.502 208.672Z" fill="#E3E3E3"/>
        <path d="M135.021 209.109C134.942 209.109 134.866 209.078 134.809 209.021C134.753 208.965 134.722 208.889 134.722 208.81V183.357C134.721 182.758 134.483 182.184 134.06 181.761C133.637 181.338 133.063 181.1 132.465 181.099H123.047C122.449 181.1 121.875 181.338 121.452 181.761C121.029 182.184 120.791 182.758 120.79 183.357V188.274C120.79 188.353 120.759 188.429 120.702 188.485C120.646 188.542 120.57 188.573 120.491 188.573C120.411 188.573 120.335 188.542 120.279 188.485C120.223 188.429 120.191 188.353 120.191 188.274V183.357C120.192 182.599 120.493 181.873 121.029 181.338C121.564 180.802 122.29 180.501 123.047 180.5H132.465C133.222 180.501 133.948 180.802 134.483 181.338C135.019 181.873 135.32 182.599 135.321 183.357V208.81C135.321 208.889 135.289 208.965 135.233 209.021C135.177 209.078 135.101 209.109 135.021 209.109Z" fill="#E3E3E3"/>
        <path d="M74.6209 97.803C75.1731 97.803 75.6207 97.3553 75.6207 96.8029C75.6207 96.2505 75.1731 95.8027 74.6209 95.8027C74.0687 95.8027 73.6211 96.2505 73.6211 96.8029C73.6211 97.3553 74.0687 97.803 74.6209 97.803Z" fill="#E3E3E3"/>
        <path d="M82.41 97.803C82.9622 97.803 83.4098 97.3553 83.4098 96.8029C83.4098 96.2505 82.9622 95.8027 82.41 95.8027C81.8578 95.8027 81.4102 96.2505 81.4102 96.8029C81.4102 97.3553 81.8578 97.803 82.41 97.803Z" fill="#E3E3E3"/>
        <path d="M90.0428 97.803C90.595 97.803 91.0426 97.3553 91.0426 96.8029C91.0426 96.2505 90.595 95.8027 90.0428 95.8027C89.4906 95.8027 89.043 96.2505 89.043 96.8029C89.043 97.3553 89.4906 97.803 90.0428 97.803Z" fill="#E3E3E3"/>
        <path d="M97.8475 97.803C98.3997 97.803 98.8473 97.3553 98.8473 96.8029C98.8473 96.2505 98.3997 95.8027 97.8475 95.8027C97.2953 95.8027 96.8477 96.2505 96.8477 96.8029C96.8477 97.3553 97.2953 97.803 97.8475 97.803Z" fill="#E3E3E3"/>
        <path d="M51.3514 121.078C51.9036 121.078 52.3512 120.631 52.3512 120.078C52.3512 119.526 51.9036 119.078 51.3514 119.078C50.7992 119.078 50.3516 119.526 50.3516 120.078C50.3516 120.631 50.7992 121.078 51.3514 121.078Z" fill="#E3E3E3"/>
        <path d="M59.1404 121.078C59.6926 121.078 60.1403 120.631 60.1403 120.078C60.1403 119.526 59.6926 119.078 59.1404 119.078C58.5883 119.078 58.1406 119.526 58.1406 120.078C58.1406 120.631 58.5883 121.078 59.1404 121.078Z" fill="#E3E3E3"/>
        <path d="M66.7694 121.078C67.3215 121.078 67.7692 120.631 67.7692 120.078C67.7692 119.526 67.3215 119.078 66.7694 119.078C66.2172 119.078 65.7695 119.526 65.7695 120.078C65.7695 120.631 66.2172 121.078 66.7694 121.078Z" fill="#E3E3E3"/>
        <path d="M74.578 121.078C75.1301 121.078 75.5778 120.631 75.5778 120.078C75.5778 119.526 75.1301 119.078 74.578 119.078C74.0258 119.078 73.5781 119.526 73.5781 120.078C73.5781 120.631 74.0258 121.078 74.578 121.078Z" fill="#E3E3E3"/>
        <path d="M51.3514 129.065C51.9036 129.065 52.3512 128.617 52.3512 128.065C52.3512 127.512 51.9036 127.064 51.3514 127.064C50.7992 127.064 50.3516 127.512 50.3516 128.065C50.3516 128.617 50.7992 129.065 51.3514 129.065Z" fill="#E3E3E3"/>
        <path d="M59.1404 129.065C59.6926 129.065 60.1403 128.617 60.1403 128.065C60.1403 127.512 59.6926 127.064 59.1404 127.064C58.5883 127.064 58.1406 127.512 58.1406 128.065C58.1406 128.617 58.5883 129.065 59.1404 129.065Z" fill="#E3E3E3"/>
        <path d="M66.7694 129.065C67.3215 129.065 67.7692 128.617 67.7692 128.065C67.7692 127.512 67.3215 127.064 66.7694 127.064C66.2172 127.064 65.7695 127.512 65.7695 128.065C65.7695 128.617 66.2172 129.065 66.7694 129.065Z" fill="#E3E3E3"/>
        <path d="M74.578 129.065C75.1301 129.065 75.5778 128.617 75.5778 128.065C75.5778 127.512 75.1301 127.064 74.578 127.064C74.0258 127.064 73.5781 127.512 73.5781 128.065C73.5781 128.617 74.0258 129.065 74.578 129.065Z" fill="#E3E3E3"/>
        <path d="M51.3514 136.598C51.9036 136.598 52.3512 136.15 52.3512 135.598C52.3512 135.045 51.9036 134.598 51.3514 134.598C50.7992 134.598 50.3516 135.045 50.3516 135.598C50.3516 136.15 50.7992 136.598 51.3514 136.598Z" fill="#E3E3E3"/>
        <path d="M59.1404 136.598C59.6926 136.598 60.1403 136.15 60.1403 135.598C60.1403 135.045 59.6926 134.598 59.1404 134.598C58.5883 134.598 58.1406 135.045 58.1406 135.598C58.1406 136.15 58.5883 136.598 59.1404 136.598Z" fill="#E3E3E3"/>
        <path d="M66.7694 136.598C67.3215 136.598 67.7692 136.15 67.7692 135.598C67.7692 135.045 67.3215 134.598 66.7694 134.598C66.2172 134.598 65.7695 135.045 65.7695 135.598C65.7695 136.15 66.2172 136.598 66.7694 136.598Z" fill="#E3E3E3"/>
        <path d="M74.578 136.598C75.1301 136.598 75.5778 136.15 75.5778 135.598C75.5778 135.045 75.1301 134.598 74.578 134.598C74.0258 134.598 73.5781 135.045 73.5781 135.598C73.5781 136.15 74.0258 136.598 74.578 136.598Z" fill="#E3E3E3"/>
        <path d="M51.3514 144.584C51.9036 144.584 52.3512 144.137 52.3512 143.584C52.3512 143.032 51.9036 142.584 51.3514 142.584C50.7992 142.584 50.3516 143.032 50.3516 143.584C50.3516 144.137 50.7992 144.584 51.3514 144.584Z" fill="#E3E3E3"/>
        <path d="M59.1404 144.584C59.6926 144.584 60.1403 144.137 60.1403 143.584C60.1403 143.032 59.6926 142.584 59.1404 142.584C58.5883 142.584 58.1406 143.032 58.1406 143.584C58.1406 144.137 58.5883 144.584 59.1404 144.584Z" fill="#E3E3E3"/>
        <path d="M66.7694 144.584C67.3215 144.584 67.7692 144.137 67.7692 143.584C67.7692 143.032 67.3215 142.584 66.7694 142.584C66.2172 142.584 65.7695 143.032 65.7695 143.584C65.7695 144.137 66.2172 144.584 66.7694 144.584Z" fill="#E3E3E3"/>
        <path d="M74.578 144.584C75.1301 144.584 75.5778 144.137 75.5778 143.584C75.5778 143.032 75.1301 142.584 74.578 142.584C74.0258 142.584 73.5781 143.032 73.5781 143.584C73.5781 144.137 74.0258 144.584 74.578 144.584Z" fill="#E3E3E3"/>
        <path d="M51.3514 152.231C51.9036 152.231 52.3512 151.783 52.3512 151.231C52.3512 150.678 51.9036 150.23 51.3514 150.23C50.7992 150.23 50.3516 150.678 50.3516 151.231C50.3516 151.783 50.7992 152.231 51.3514 152.231Z" fill="#E3E3E3"/>
        <path d="M59.1404 152.231C59.6926 152.231 60.1403 151.783 60.1403 151.231C60.1403 150.678 59.6926 150.23 59.1404 150.23C58.5883 150.23 58.1406 150.678 58.1406 151.231C58.1406 151.783 58.5883 152.231 59.1404 152.231Z" fill="#E3E3E3"/>
        <path d="M66.7694 152.231C67.3215 152.231 67.7692 151.783 67.7692 151.231C67.7692 150.678 67.3215 150.23 66.7694 150.23C66.2172 150.23 65.7695 150.678 65.7695 151.231C65.7695 151.783 66.2172 152.231 66.7694 152.231Z" fill="#E3E3E3"/>
        <path d="M74.578 152.231C75.1301 152.231 75.5778 151.783 75.5778 151.231C75.5778 150.678 75.1301 150.23 74.578 150.23C74.0258 150.23 73.5781 150.678 73.5781 151.231C73.5781 151.783 74.0258 152.231 74.578 152.231Z" fill="#E3E3E3"/>
        <path d="M51.3514 159.877C51.9036 159.877 52.3512 159.429 52.3512 158.877C52.3512 158.325 51.9036 157.877 51.3514 157.877C50.7992 157.877 50.3516 158.325 50.3516 158.877C50.3516 159.429 50.7992 159.877 51.3514 159.877Z" fill="#E3E3E3"/>
        <path d="M59.1404 159.877C59.6926 159.877 60.1403 159.429 60.1403 158.877C60.1403 158.325 59.6926 157.877 59.1404 157.877C58.5883 157.877 58.1406 158.325 58.1406 158.877C58.1406 159.429 58.5883 159.877 59.1404 159.877Z" fill="#E3E3E3"/>
        <path d="M66.7694 159.877C67.3215 159.877 67.7692 159.429 67.7692 158.877C67.7692 158.325 67.3215 157.877 66.7694 157.877C66.2172 157.877 65.7695 158.325 65.7695 158.877C65.7695 159.429 66.2172 159.877 66.7694 159.877Z" fill="#E3E3E3"/>
        <path d="M74.578 159.877C75.1301 159.877 75.5778 159.429 75.5778 158.877C75.5778 158.325 75.1301 157.877 74.578 157.877C74.0258 157.877 73.5781 158.325 73.5781 158.877C73.5781 159.429 74.0258 159.877 74.578 159.877Z" fill="#E3E3E3"/>
        <path d="M51.3514 167.92C51.9036 167.92 52.3512 167.472 52.3512 166.92C52.3512 166.368 51.9036 165.92 51.3514 165.92C50.7992 165.92 50.3516 166.368 50.3516 166.92C50.3516 167.472 50.7992 167.92 51.3514 167.92Z" fill="#E3E3E3"/>
        <path d="M59.1404 167.92C59.6926 167.92 60.1403 167.472 60.1403 166.92C60.1403 166.368 59.6926 165.92 59.1404 165.92C58.5883 165.92 58.1406 166.368 58.1406 166.92C58.1406 167.472 58.5883 167.92 59.1404 167.92Z" fill="#E3E3E3"/>
        <path d="M66.7694 167.92C67.3215 167.92 67.7692 167.472 67.7692 166.92C67.7692 166.368 67.3215 165.92 66.7694 165.92C66.2172 165.92 65.7695 166.368 65.7695 166.92C65.7695 167.472 66.2172 167.92 66.7694 167.92Z" fill="#E3E3E3"/>
        <path d="M74.578 167.92C75.1301 167.92 75.5778 167.472 75.5778 166.92C75.5778 166.368 75.1301 165.92 74.578 165.92C74.0258 165.92 73.5781 166.368 73.5781 166.92C73.5781 167.472 74.0258 167.92 74.578 167.92Z" fill="#E3E3E3"/>
        <path d="M51.3514 175.68C51.9036 175.68 52.3512 175.232 52.3512 174.68C52.3512 174.127 51.9036 173.68 51.3514 173.68C50.7992 173.68 50.3516 174.127 50.3516 174.68C50.3516 175.232 50.7992 175.68 51.3514 175.68Z" fill="#E3E3E3"/>
        <path d="M59.1404 175.68C59.6926 175.68 60.1403 175.232 60.1403 174.68C60.1403 174.127 59.6926 173.68 59.1404 173.68C58.5883 173.68 58.1406 174.127 58.1406 174.68C58.1406 175.232 58.5883 175.68 59.1404 175.68Z" fill="#E3E3E3"/>
        <path d="M66.7694 175.68C67.3215 175.68 67.7692 175.232 67.7692 174.68C67.7692 174.127 67.3215 173.68 66.7694 173.68C66.2172 173.68 65.7695 174.127 65.7695 174.68C65.7695 175.232 66.2172 175.68 66.7694 175.68Z" fill="#E3E3E3"/>
        <path d="M74.578 175.68C75.1301 175.68 75.5778 175.232 75.5778 174.68C75.5778 174.127 75.1301 173.68 74.578 173.68C74.0258 173.68 73.5781 174.127 73.5781 174.68C73.5781 175.232 74.0258 175.68 74.578 175.68Z" fill="#E3E3E3"/>
        <path d="M51.3514 183.438C51.9036 183.438 52.3512 182.99 52.3512 182.438C52.3512 181.885 51.9036 181.438 51.3514 181.438C50.7992 181.438 50.3516 181.885 50.3516 182.438C50.3516 182.99 50.7992 183.438 51.3514 183.438Z" fill="#E3E3E3"/>
        <path d="M59.1404 183.438C59.6926 183.438 60.1403 182.99 60.1403 182.438C60.1403 181.885 59.6926 181.438 59.1404 181.438C58.5883 181.438 58.1406 181.885 58.1406 182.438C58.1406 182.99 58.5883 183.438 59.1404 183.438Z" fill="#E3E3E3"/>
        <path d="M66.7694 183.438C67.3215 183.438 67.7692 182.99 67.7692 182.438C67.7692 181.885 67.3215 181.438 66.7694 181.438C66.2172 181.438 65.7695 181.885 65.7695 182.438C65.7695 182.99 66.2172 183.438 66.7694 183.438Z" fill="#E3E3E3"/>
        <path d="M74.578 183.438C75.1301 183.438 75.5778 182.99 75.5778 182.438C75.5778 181.885 75.1301 181.438 74.578 181.438C74.0258 181.438 73.5781 181.885 73.5781 182.438C73.5781 182.99 74.0258 183.438 74.578 183.438Z" fill="#E3E3E3"/>
        <path d="M51.3514 191.198C51.9036 191.198 52.3512 190.75 52.3512 190.197C52.3512 189.645 51.9036 189.197 51.3514 189.197C50.7992 189.197 50.3516 189.645 50.3516 190.197C50.3516 190.75 50.7992 191.198 51.3514 191.198Z" fill="#E3E3E3"/>
        <path d="M59.1404 191.198C59.6926 191.198 60.1403 190.75 60.1403 190.197C60.1403 189.645 59.6926 189.197 59.1404 189.197C58.5883 189.197 58.1406 189.645 58.1406 190.197C58.1406 190.75 58.5883 191.198 59.1404 191.198Z" fill="#E3E3E3"/>
        <path d="M66.7694 191.198C67.3215 191.198 67.7692 190.75 67.7692 190.197C67.7692 189.645 67.3215 189.197 66.7694 189.197C66.2172 189.197 65.7695 189.645 65.7695 190.197C65.7695 190.75 66.2172 191.198 66.7694 191.198Z" fill="#E3E3E3"/>
        <path d="M74.578 191.198C75.1301 191.198 75.5778 190.75 75.5778 190.197C75.5778 189.645 75.1301 189.197 74.578 189.197C74.0258 189.197 73.5781 189.645 73.5781 190.197C73.5781 190.75 74.0258 191.198 74.578 191.198Z" fill="#E3E3E3"/>
        <path d="M51.3514 198.959C51.9036 198.959 52.3512 198.511 52.3512 197.959C52.3512 197.407 51.9036 196.959 51.3514 196.959C50.7992 196.959 50.3516 197.407 50.3516 197.959C50.3516 198.511 50.7992 198.959 51.3514 198.959Z" fill="#E3E3E3"/>
        <path d="M59.1404 198.959C59.6926 198.959 60.1403 198.511 60.1403 197.959C60.1403 197.407 59.6926 196.959 59.1404 196.959C58.5883 196.959 58.1406 197.407 58.1406 197.959C58.1406 198.511 58.5883 198.959 59.1404 198.959Z" fill="#E3E3E3"/>
        <path d="M66.7694 198.959C67.3215 198.959 67.7692 198.511 67.7692 197.959C67.7692 197.407 67.3215 196.959 66.7694 196.959C66.2172 196.959 65.7695 197.407 65.7695 197.959C65.7695 198.511 66.2172 198.959 66.7694 198.959Z" fill="#E3E3E3"/>
        <path d="M74.578 198.959C75.1301 198.959 75.5778 198.511 75.5778 197.959C75.5778 197.407 75.1301 196.959 74.578 196.959C74.0258 196.959 73.5781 197.407 73.5781 197.959C73.5781 198.511 74.0258 198.959 74.578 198.959Z" fill="#E3E3E3"/>
        <path d="M51.3514 206.717C51.9036 206.717 52.3512 206.269 52.3512 205.717C52.3512 205.165 51.9036 204.717 51.3514 204.717C50.7992 204.717 50.3516 205.165 50.3516 205.717C50.3516 206.269 50.7992 206.717 51.3514 206.717Z" fill="#E3E3E3"/>
        <path d="M59.1404 206.717C59.6926 206.717 60.1403 206.269 60.1403 205.717C60.1403 205.165 59.6926 204.717 59.1404 204.717C58.5883 204.717 58.1406 205.165 58.1406 205.717C58.1406 206.269 58.5883 206.717 59.1404 206.717Z" fill="#E3E3E3"/>
        <path d="M66.7694 206.717C67.3215 206.717 67.7692 206.269 67.7692 205.717C67.7692 205.165 67.3215 204.717 66.7694 204.717C66.2172 204.717 65.7695 205.165 65.7695 205.717C65.7695 206.269 66.2172 206.717 66.7694 206.717Z" fill="#E3E3E3"/>
        <path d="M74.578 206.717C75.1301 206.717 75.5778 206.269 75.5778 205.717C75.5778 205.165 75.1301 204.717 74.578 204.717C74.0258 204.717 73.5781 205.165 73.5781 205.717C73.5781 206.269 74.0258 206.717 74.578 206.717Z" fill="#E3E3E3"/>
        <path d="M51.3514 214.477C51.9036 214.477 52.3512 214.029 52.3512 213.477C52.3512 212.924 51.9036 212.477 51.3514 212.477C50.7992 212.477 50.3516 212.924 50.3516 213.477C50.3516 214.029 50.7992 214.477 51.3514 214.477Z" fill="#E3E3E3"/>
        <path d="M59.1404 214.477C59.6926 214.477 60.1403 214.029 60.1403 213.477C60.1403 212.924 59.6926 212.477 59.1404 212.477C58.5883 212.477 58.1406 212.924 58.1406 213.477C58.1406 214.029 58.5883 214.477 59.1404 214.477Z" fill="#E3E3E3"/>
        <path d="M66.7694 214.477C67.3215 214.477 67.7692 214.029 67.7692 213.477C67.7692 212.924 67.3215 212.477 66.7694 212.477C66.2172 212.477 65.7695 212.924 65.7695 213.477C65.7695 214.029 66.2172 214.477 66.7694 214.477Z" fill="#E3E3E3"/>
        <path d="M74.578 214.477C75.1301 214.477 75.5778 214.029 75.5778 213.477C75.5778 212.924 75.1301 212.477 74.578 212.477C74.0258 212.477 73.5781 212.924 73.5781 213.477C73.5781 214.029 74.0258 214.477 74.578 214.477Z" fill="#E3E3E3"/>
        <path d="M106.086 97.803C106.638 97.803 107.086 97.3553 107.086 96.8029C107.086 96.2505 106.638 95.8027 106.086 95.8027C105.534 95.8027 105.086 96.2505 105.086 96.8029C105.086 97.3553 105.534 97.803 106.086 97.803Z" fill="#E3E3E3"/>
        <path d="M74.6209 105.561C75.1731 105.561 75.6207 105.113 75.6207 104.561C75.6207 104.008 75.1731 103.561 74.6209 103.561C74.0687 103.561 73.6211 104.008 73.6211 104.561C73.6211 105.113 74.0687 105.561 74.6209 105.561Z" fill="#E3E3E3"/>
        <path d="M74.6209 113.321C75.1731 113.321 75.6207 112.873 75.6207 112.32C75.6207 111.768 75.1731 111.32 74.6209 111.32C74.0687 111.32 73.6211 111.768 73.6211 112.32C73.6211 112.873 74.0687 113.321 74.6209 113.321Z" fill="#E3E3E3"/>
        <path d="M82.41 105.561C82.9622 105.561 83.4098 105.113 83.4098 104.561C83.4098 104.008 82.9622 103.561 82.41 103.561C81.8578 103.561 81.4102 104.008 81.4102 104.561C81.4102 105.113 81.8578 105.561 82.41 105.561Z" fill="#E3E3E3"/>
        <path d="M90.0428 105.561C90.595 105.561 91.0426 105.113 91.0426 104.561C91.0426 104.008 90.595 103.561 90.0428 103.561C89.4906 103.561 89.043 104.008 89.043 104.561C89.043 105.113 89.4906 105.561 90.0428 105.561Z" fill="#E3E3E3"/>
        <path d="M97.8475 105.561C98.3997 105.561 98.8473 105.113 98.8473 104.561C98.8473 104.008 98.3997 103.561 97.8475 103.561C97.2953 103.561 96.8477 104.008 96.8477 104.561C96.8477 105.113 97.2953 105.561 97.8475 105.561Z" fill="#E3E3E3"/>
        <path d="M113.616 178.401C113.562 178.401 113.508 178.386 113.462 178.358C113.415 178.33 113.377 178.29 113.351 178.242C113.326 178.194 113.314 178.14 113.317 178.086C113.32 178.031 113.337 177.979 113.368 177.934L131.029 152.065C131.05 152.029 131.077 151.998 131.111 151.973C131.144 151.949 131.182 151.931 131.222 151.922C131.262 151.912 131.304 151.912 131.344 151.919C131.385 151.927 131.423 151.943 131.457 151.966C131.491 151.989 131.52 152.019 131.542 152.054C131.564 152.089 131.579 152.128 131.585 152.168C131.591 152.209 131.589 152.251 131.578 152.291C131.568 152.331 131.549 152.368 131.523 152.4L113.862 178.272C113.834 178.312 113.797 178.344 113.755 178.367C113.712 178.389 113.664 178.401 113.616 178.401Z" fill="#E3E3E3"/>
        <path d="M96.8447 202.95C96.785 202.95 96.7266 202.932 96.6771 202.899C96.6116 202.854 96.5666 202.785 96.552 202.707C96.5374 202.629 96.5544 202.549 96.5992 202.483L107.023 187.211C107.068 187.147 107.137 187.103 107.214 187.089C107.292 187.075 107.372 187.092 107.437 187.136C107.502 187.181 107.546 187.249 107.561 187.327C107.576 187.404 107.56 187.484 107.516 187.55L97.0932 202.821C97.0654 202.861 97.0282 202.894 96.9849 202.917C96.9416 202.939 96.8934 202.951 96.8447 202.95Z" fill="#E3E3E3"/>
        <path d="M131.371 162.768C131.292 162.768 131.215 162.736 131.159 162.68C131.103 162.624 131.072 162.548 131.072 162.468L131.173 152.437L121.894 156.276C121.857 156.291 121.818 156.298 121.779 156.298C121.74 156.298 121.701 156.29 121.664 156.275C121.628 156.26 121.595 156.238 121.568 156.21C121.54 156.182 121.518 156.149 121.503 156.112C121.473 156.039 121.473 155.957 121.504 155.883C121.534 155.81 121.593 155.752 121.666 155.722L130.928 151.874C131.021 151.833 131.122 151.816 131.224 151.825C131.325 151.834 131.422 151.868 131.506 151.925C131.59 151.982 131.658 152.059 131.704 152.15C131.75 152.24 131.773 152.341 131.769 152.443L131.667 162.474C131.666 162.552 131.634 162.626 131.579 162.681C131.523 162.736 131.449 162.767 131.371 162.768Z" fill="#E3E3E3"/>
        <path d="M70.3147 75.6426H41.3138C40.2689 75.6426 39.4219 76.4899 39.4219 77.5351V106.546C39.4219 107.591 40.2689 108.438 41.3138 108.438H70.3147C71.3595 108.438 72.2066 107.591 72.2066 106.546V77.5351C72.2066 76.4899 71.3595 75.6426 70.3147 75.6426Z" fill="#71A5D2"/>
        <path d="M65.8718 113.512H36.8709C36.2898 113.512 35.7324 113.281 35.3215 112.87C34.9105 112.458 34.6797 111.901 34.6797 111.32V82.3091C34.6805 81.728 34.9116 81.171 35.3223 80.7601C35.7331 80.3492 36.29 80.118 36.8709 80.1172H65.8718C66.4522 80.1188 67.0083 80.3503 67.4185 80.7611C67.8286 81.1719 68.0593 81.7285 68.0601 82.3091V111.32C68.0601 111.9 67.8296 112.458 67.4193 112.868C67.009 113.279 66.4525 113.511 65.8718 113.512ZM36.8709 80.7161C36.4485 80.7161 36.0435 80.8839 35.7448 81.1827C35.4461 81.4814 35.2784 81.8866 35.2784 82.3091V111.32C35.2784 111.742 35.4461 112.147 35.7448 112.446C36.0435 112.745 36.4485 112.913 36.8709 112.913H65.8718C66.2937 112.912 66.698 112.744 66.996 112.445C67.294 112.146 67.4614 111.742 67.4614 111.32V82.3091C67.4614 81.8871 67.294 81.4823 66.996 81.1837C66.698 80.885 66.2937 80.7169 65.8718 80.7161H36.8709Z" fill="#E3E3E3"/>
        <path d="M192.235 300.11L185.182 304.964C184.868 305.177 184.502 305.301 184.123 305.322C183.745 305.343 183.367 305.261 183.031 305.085C182.695 304.908 182.414 304.644 182.216 304.32C182.019 303.996 181.913 303.624 181.91 303.245V244.883C181.913 244.508 182.016 244.142 182.209 243.821C182.401 243.5 182.676 243.236 183.005 243.057C183.333 242.878 183.704 242.791 184.078 242.804C184.452 242.817 184.816 242.93 185.131 243.131L191.621 247.323L198.988 252.081L228.878 271.387C229.165 271.574 229.401 271.83 229.567 272.13C229.732 272.431 229.821 272.767 229.826 273.11C229.831 273.453 229.752 273.792 229.595 274.097C229.439 274.402 229.21 274.664 228.929 274.86L208.789 288.719L192.235 300.11Z" fill="#CE7783"/>
        <path d="M213.926 295.383C213.877 295.383 213.83 295.371 213.787 295.348C213.744 295.325 213.708 295.292 213.68 295.252C213.635 295.187 213.618 295.106 213.632 295.028C213.646 294.95 213.69 294.881 213.755 294.835L233.895 280.977C234.136 280.809 234.331 280.585 234.465 280.323C234.599 280.062 234.666 279.773 234.662 279.479C234.658 279.186 234.582 278.898 234.441 278.641C234.3 278.384 234.099 278.165 233.854 278.004L203.964 258.698C203.928 258.678 203.897 258.651 203.873 258.619C203.848 258.586 203.831 258.549 203.821 258.509C203.811 258.47 203.81 258.429 203.817 258.389C203.823 258.349 203.838 258.31 203.86 258.276C203.882 258.242 203.911 258.213 203.944 258.19C203.978 258.167 204.016 258.151 204.056 258.144C204.096 258.136 204.137 258.137 204.177 258.146C204.216 258.155 204.254 258.171 204.287 258.195L234.177 277.501C234.505 277.715 234.775 278.007 234.964 278.351C235.153 278.694 235.254 279.079 235.26 279.471C235.266 279.863 235.175 280.25 234.996 280.599C234.817 280.948 234.555 281.247 234.234 281.471L214.097 295.33C214.046 295.365 213.987 295.383 213.926 295.383Z" fill="#E3E3E3"/>
        <path d="M189.142 312.003C188.753 312 188.371 311.904 188.028 311.721C187.64 311.522 187.315 311.219 187.089 310.846C186.863 310.472 186.746 310.043 186.75 309.607V251.248C186.753 250.82 186.871 250.401 187.091 250.033C187.31 249.666 187.625 249.365 188.001 249.16C188.376 248.956 188.8 248.856 189.228 248.871C189.655 248.885 190.071 249.015 190.432 249.245L196.922 253.437C196.957 253.457 196.988 253.484 197.013 253.517C197.037 253.549 197.055 253.586 197.064 253.626C197.074 253.665 197.076 253.706 197.069 253.746C197.062 253.786 197.047 253.825 197.025 253.859C197.003 253.893 196.975 253.923 196.941 253.945C196.907 253.968 196.869 253.984 196.829 253.991C196.79 253.999 196.748 253.998 196.709 253.989C196.669 253.981 196.632 253.964 196.599 253.94L190.109 249.748C189.839 249.576 189.527 249.479 189.207 249.468C188.887 249.457 188.57 249.532 188.289 249.684C188.007 249.837 187.771 250.062 187.606 250.337C187.441 250.611 187.352 250.925 187.349 251.245V309.604C187.352 309.929 187.442 310.247 187.611 310.525C187.781 310.802 188.022 311.028 188.309 311.179C188.597 311.331 188.92 311.401 189.244 311.383C189.568 311.365 189.882 311.259 190.151 311.077L197.203 306.226C197.235 306.2 197.272 306.18 197.313 306.169C197.353 306.157 197.394 306.154 197.436 306.16C197.477 306.165 197.517 306.18 197.552 306.201C197.587 306.223 197.618 306.252 197.642 306.286C197.665 306.321 197.681 306.36 197.689 306.401C197.697 306.441 197.696 306.484 197.687 306.524C197.677 306.565 197.66 306.603 197.635 306.636C197.61 306.669 197.578 306.697 197.542 306.718L190.489 311.572C190.095 311.85 189.624 312 189.142 312.003Z" fill="#E3E3E3"/>
        <path d="M218.694 104.794C218.614 104.794 218.538 104.763 218.482 104.706C218.426 104.65 218.395 104.574 218.395 104.495C218.395 104.415 218.426 104.339 218.482 104.283C218.538 104.227 218.614 104.195 218.694 104.195C245.635 104.195 267.557 82.2697 267.557 55.3194C267.557 28.3692 245.638 6.44069 218.694 6.44069C218.614 6.44069 218.538 6.40912 218.482 6.35296C218.426 6.29681 218.395 6.22066 218.395 6.14124C218.395 6.06183 218.426 5.98568 218.482 5.92953C218.538 5.87337 218.614 5.8418 218.694 5.8418C245.968 5.8418 268.155 28.0368 268.155 55.3194C268.155 82.6021 245.968 104.794 218.694 104.794Z" fill="#E3E3E3"/>
        <path d="M236.29 37.4841C236.29 43.5635 233.875 49.394 229.579 53.6933C225.878 57.3987 223.465 62.1946 222.694 67.375C222.578 68.1545 222.184 68.8659 221.586 69.3786C220.988 69.8913 220.224 70.1708 219.437 70.1658H207.684C206.893 70.1629 206.13 69.8754 205.534 69.3558C204.937 68.8362 204.548 68.1192 204.436 67.336C203.653 62.175 201.241 57.3998 197.551 53.7082C193.254 49.4089 190.84 43.5786 190.84 37.4992C190.84 25.5572 201.401 15.873 213.342 15.873C219.261 15.9255 224.948 18.1836 229.291 22.2063C233.539 26.1081 236.29 31.5131 236.29 37.4841Z" fill="#EAB669"/>
        <path d="M227.646 73.5257H209.34V73.2263C209.134 67.1082 206.609 61.2975 202.279 56.9722C200.123 54.8157 198.413 52.2555 197.247 49.4378C196.08 46.6201 195.48 43.6003 195.48 40.5506C195.48 28.6655 205.922 18.625 218.282 18.625C224.279 18.6827 230.041 20.9689 234.447 25.0391C239.018 29.2583 241.538 34.7683 241.538 40.5506C241.536 46.7091 239.091 52.6149 234.74 56.9722C230.405 61.2944 227.88 67.107 227.678 73.2263L227.646 73.5257ZM209.918 72.9269H227.071C227.347 66.7582 229.924 60.9168 234.294 56.556C238.534 52.3126 240.917 46.5591 240.919 40.5595C240.919 34.9449 238.467 29.5907 234.034 25.4883C229.743 21.5211 224.131 19.2917 218.288 19.233C206.254 19.233 196.085 28.9979 196.085 40.5595C196.084 43.5305 196.669 46.4726 197.805 49.2175C198.942 51.9623 200.609 54.456 202.71 56.556C207.072 60.922 209.648 66.7603 209.933 72.9269H209.918Z" fill="#E3E3E3"/>
        <path d="M218.495 92.0023C216.07 91.9999 213.746 91.0354 212.031 89.3203C210.317 87.6052 209.352 85.2798 209.35 82.8543V74.0774C209.35 73.796 209.35 73.5174 209.332 73.2389V72.9395H227.682V73.2389C227.682 73.5174 227.664 73.796 227.664 74.0774V82.8543C227.663 85.2802 226.7 87.6066 224.985 89.322C223.27 91.0375 220.944 92.0015 218.519 92.0023H218.495ZM209.94 73.5265C209.94 73.7092 209.94 73.8948 209.94 74.0774V82.8543C209.943 85.1207 210.844 87.2934 212.446 88.896C214.048 90.4986 216.22 91.4002 218.486 91.4034C220.752 91.401 222.925 90.4996 224.527 88.8969C226.129 87.2941 227.03 85.1209 227.033 82.8543V74.0774C227.033 73.8948 227.033 73.7092 227.033 73.5265H209.94Z" fill="#E3E3E3"/>
        <path d="M214.249 70.5265H214.234C214.195 70.5245 214.157 70.5148 214.121 70.4979C214.085 70.4811 214.053 70.4574 214.027 70.4282C214.001 70.399 213.98 70.3649 213.967 70.3278C213.954 70.2906 213.948 70.2513 213.95 70.2119C213.95 70.0802 214.402 61.2286 213.537 54.2754C213.181 54.5087 212.804 54.7092 212.411 54.8743C211.124 55.4193 209.744 55.0989 208.52 53.976C206.76 52.347 205.88 49.5771 206.514 47.6696C206.814 46.7713 207.583 45.6484 209.538 45.4418C209.891 45.4058 210.248 45.4504 210.581 45.5723C210.914 45.6942 211.216 45.8901 211.463 46.1453C212.732 47.3431 213.513 50.0383 213.989 53.2094C214.702 52.5899 215.362 51.9118 215.962 51.1821C216.893 50.1101 217.701 49.1818 218.701 49.1818H218.749C219.482 49.2027 220.209 49.7148 221.039 50.7898C222.278 52.4039 223.703 53.5328 225.182 54.0838C225.248 53.5777 225.316 53.0567 225.388 52.5237C225.804 49.4334 227.166 47.433 229.127 47.0497C229.873 46.9149 230.643 47.0094 231.334 47.3205C232.025 47.6315 232.606 48.1447 233.001 48.7926C233.695 49.9903 233.528 51.3319 232.537 52.4788C231.013 54.2485 229.16 55.1588 227.19 55.0989C226.685 55.0832 226.182 55.0088 225.694 54.8773C224.706 62.633 224.463 67.0469 224.46 67.0948C224.456 67.1716 224.423 67.2439 224.367 67.2969C224.312 67.3498 224.238 67.3793 224.161 67.3792C224.12 67.3793 224.08 67.3709 224.042 67.3548C224.004 67.3386 223.971 67.3151 223.943 67.2853C223.915 67.2556 223.893 67.2204 223.879 67.1819C223.865 67.1435 223.859 67.1026 223.862 67.0618C223.862 67.0138 224.11 62.5402 225.113 54.6946C223.484 54.0958 221.922 52.8979 220.575 51.1402C219.874 50.2418 219.276 49.7807 218.743 49.7658H218.713C217.985 49.7658 217.297 50.5593 216.426 51.5624C215.731 52.4123 214.951 53.188 214.097 53.8772C215.028 60.8453 214.582 69.6849 214.555 70.2359C214.552 70.3148 214.519 70.3896 214.462 70.444C214.405 70.4984 214.328 70.5281 214.249 70.5265ZM209.795 46.0227C209.731 46.0227 209.668 46.0227 209.607 46.0227C208.31 46.1574 207.439 46.7893 207.086 47.8433C206.529 49.5172 207.358 52.0655 208.933 53.5328C209.532 54.0868 210.75 54.9281 212.178 54.3233C212.626 54.1345 213.052 53.8987 213.45 53.6197C213.007 50.4336 212.253 47.7295 211.055 46.5767C210.892 46.406 210.697 46.2691 210.48 46.174C210.264 46.0789 210.031 46.0276 209.795 46.0227ZM225.765 54.2844C226.237 54.4206 226.724 54.496 227.214 54.509C229.01 54.5509 230.69 53.7245 232.091 52.0985C232.902 51.1552 233.049 50.0652 232.489 49.104C232.16 48.5614 231.674 48.1314 231.096 47.871C230.518 47.6106 229.874 47.532 229.25 47.6456C227.556 47.981 226.367 49.7926 225.987 52.6134C225.909 53.1864 225.835 53.7474 225.765 54.2964V54.2844Z" fill="#E3E3E3"/>
        <path d="M222.673 77.7962H209.651C209.572 77.7962 209.495 77.7646 209.439 77.7084C209.383 77.6523 209.352 77.5761 209.352 77.4967C209.352 77.4173 209.383 77.3412 209.439 77.285C209.495 77.2288 209.572 77.1973 209.651 77.1973H222.673C222.752 77.1973 222.828 77.2288 222.884 77.285C222.94 77.3412 222.972 77.4173 222.972 77.4967C222.972 77.5761 222.94 77.6523 222.884 77.7084C222.828 77.7646 222.752 77.7962 222.673 77.7962Z" fill="#E3E3E3"/>
        <path d="M215.44 81.8274H209.635C209.556 81.8274 209.48 81.7958 209.424 81.7397C209.367 81.6835 209.336 81.6074 209.336 81.528C209.336 81.4485 209.367 81.3724 209.424 81.3162C209.48 81.2601 209.556 81.2285 209.635 81.2285H215.44C215.519 81.2285 215.595 81.2601 215.651 81.3162C215.707 81.3724 215.739 81.4485 215.739 81.528C215.739 81.6074 215.707 81.6835 215.651 81.7397C215.595 81.7958 215.519 81.8274 215.44 81.8274Z" fill="#E3E3E3"/>
        <path d="M227.27 84.2649H216.745C216.665 84.2649 216.589 84.2333 216.533 84.1772C216.477 84.121 216.445 84.0449 216.445 83.9655C216.445 83.886 216.477 83.8099 216.533 83.7537C216.589 83.6976 216.665 83.666 216.745 83.666H227.27C227.349 83.666 227.425 83.6976 227.481 83.7537C227.538 83.8099 227.569 83.886 227.569 83.9655C227.569 84.0449 227.538 84.121 227.481 84.1772C227.425 84.2333 227.349 84.2649 227.27 84.2649Z" fill="#E3E3E3"/>
        <path d="M302.08 230.969H293.998C291.921 230.967 289.93 230.141 288.461 228.672C286.993 227.202 286.166 225.211 286.164 223.133V115.272C286.166 113.194 286.993 111.203 288.461 109.733C289.93 108.264 291.921 107.438 293.998 107.436H346.504C348.581 107.438 350.572 108.264 352.041 109.733C353.509 111.203 354.335 113.194 354.338 115.272V177.506C354.338 177.586 354.306 177.662 354.25 177.718C354.194 177.774 354.118 177.806 354.038 177.806C353.959 177.806 353.883 177.774 353.827 177.718C353.771 177.662 353.739 177.586 353.739 177.506V115.272C353.738 113.353 352.975 111.513 351.618 110.156C350.262 108.799 348.422 108.036 346.504 108.034H293.974C292.056 108.036 290.216 108.799 288.86 110.156C287.503 111.513 286.74 113.353 286.739 115.272V223.121C286.738 224.072 286.925 225.014 287.288 225.894C287.651 226.773 288.184 227.572 288.856 228.245C289.527 228.918 290.325 229.452 291.203 229.817C292.082 230.182 293.023 230.37 293.974 230.371H302.057C302.136 230.371 302.212 230.402 302.268 230.458C302.324 230.514 302.356 230.591 302.356 230.67C302.356 230.749 302.324 230.826 302.268 230.882C302.212 230.938 302.136 230.969 302.057 230.969H302.08Z" fill="#E3E3E3"/>
        <path d="M335.685 195.892H318.323C318.243 195.892 318.167 195.86 318.111 195.804C318.055 195.748 318.023 195.672 318.023 195.592C318.023 195.513 318.055 195.437 318.111 195.381C318.167 195.325 318.243 195.293 318.323 195.293H335.685C335.764 195.293 335.841 195.325 335.897 195.381C335.953 195.437 335.984 195.513 335.984 195.592C335.984 195.672 335.953 195.748 335.897 195.804C335.841 195.86 335.764 195.892 335.685 195.892Z" fill="#E3E3E3"/>
        <path d="M335.913 204.172H299.587C299.052 204.171 298.539 203.958 298.16 203.58C297.781 203.202 297.568 202.689 297.566 202.153V197.311C297.567 196.776 297.78 196.262 298.159 195.884C298.538 195.506 299.052 195.293 299.587 195.293H305.733C305.812 195.293 305.888 195.325 305.944 195.381C306 195.437 306.032 195.513 306.032 195.592C306.032 195.672 306 195.748 305.944 195.804C305.888 195.86 305.812 195.892 305.733 195.892H299.587C299.21 195.892 298.849 196.041 298.583 196.307C298.316 196.574 298.166 196.935 298.165 197.311V202.153C298.166 202.53 298.316 202.891 298.583 203.157C298.849 203.423 299.21 203.573 299.587 203.573H335.913C335.992 203.573 336.069 203.604 336.125 203.66C336.181 203.717 336.212 203.793 336.212 203.872C336.212 203.952 336.181 204.028 336.125 204.084C336.069 204.14 335.992 204.172 335.913 204.172Z" fill="#E3E3E3"/>
        <path d="M330.613 200.031H309.862C309.782 200.031 309.706 199.999 309.65 199.943C309.594 199.887 309.562 199.811 309.562 199.731C309.562 199.652 309.594 199.575 309.65 199.519C309.706 199.463 309.782 199.432 309.862 199.432H330.613C330.692 199.432 330.768 199.463 330.824 199.519C330.881 199.575 330.912 199.652 330.912 199.731C330.912 199.811 330.881 199.887 330.824 199.943C330.768 199.999 330.692 200.031 330.613 200.031Z" fill="#E3E3E3"/>
        <path d="M364.392 180.963V212.578C364.389 213.752 363.955 214.884 363.172 215.759C362.39 216.634 361.313 217.191 360.147 217.325C356.445 217.757 352.693 217.249 349.239 215.848C349.035 215.762 348.867 215.609 348.764 215.413C348.66 215.218 348.628 214.992 348.671 214.775C348.715 214.559 348.832 214.363 349.004 214.223C349.175 214.083 349.389 214.007 349.61 214.007H350.338C351.211 214.007 352.049 213.66 352.666 213.042C353.284 212.424 353.631 211.586 353.631 210.713V180.963C353.631 180.474 353.824 180.006 354.17 179.66C354.515 179.315 354.983 179.121 355.471 179.121H362.551C362.793 179.121 363.032 179.168 363.256 179.26C363.48 179.353 363.683 179.489 363.854 179.66C364.025 179.831 364.16 180.034 364.253 180.257C364.345 180.481 364.392 180.721 364.392 180.963Z" fill="#231F20"/>
        <path d="M362.342 221.136C362.263 221.136 362.187 221.105 362.131 221.048C362.075 220.992 362.043 220.916 362.043 220.837V177.905C362.043 177.825 362.075 177.749 362.131 177.693C362.187 177.637 362.263 177.605 362.342 177.605C362.422 177.605 362.498 177.637 362.554 177.693C362.61 177.749 362.642 177.825 362.642 177.905V220.837C362.642 220.916 362.61 220.992 362.554 221.048C362.498 221.105 362.422 221.136 362.342 221.136Z" fill="#E3E3E3"/>
        <path d="M348.381 213.072H339.975C339.896 213.072 339.82 213.04 339.763 212.984C339.707 212.928 339.676 212.852 339.676 212.773C339.676 212.693 339.707 212.617 339.763 212.561C339.82 212.505 339.896 212.473 339.975 212.473H348.381C349.382 212.471 350.341 212.073 351.048 211.365C351.756 210.658 352.154 209.698 352.156 208.697V177.905C352.156 177.825 352.187 177.749 352.243 177.693C352.299 177.637 352.376 177.605 352.455 177.605C352.534 177.605 352.611 177.637 352.667 177.693C352.723 177.749 352.754 177.825 352.754 177.905V208.697C352.753 209.857 352.291 210.969 351.472 211.789C350.652 212.609 349.54 213.07 348.381 213.072Z" fill="#E3E3E3"/>
        <path d="M102.057 125.896C101.978 125.896 101.902 125.864 101.845 125.808C101.789 125.752 101.758 125.676 101.758 125.597V121.928C101.758 121.849 101.789 121.773 101.845 121.717C101.902 121.66 101.978 121.629 102.057 121.629C102.137 121.629 102.213 121.66 102.269 121.717C102.325 121.773 102.356 121.849 102.356 121.928V125.597C102.356 125.676 102.325 125.752 102.269 125.808C102.213 125.864 102.137 125.896 102.057 125.896Z" fill="#E3E3E3"/>
        <path d="M104.009 147.896H96.5587C96.4793 147.896 96.4031 147.865 96.347 147.809C96.2909 147.752 96.2593 147.676 96.2593 147.597C96.2593 147.517 96.2909 147.441 96.347 147.385C96.4031 147.329 96.4793 147.297 96.5587 147.297H104.009C105.083 147.297 106.123 146.923 106.951 146.239C107.778 145.555 108.342 144.604 108.545 143.549C108.749 142.495 108.579 141.402 108.064 140.46C107.55 139.517 106.724 138.783 105.728 138.383L98.1602 135.356C97.0346 134.904 96.1012 134.075 95.5204 133.011C94.9395 131.946 94.7476 130.712 94.9775 129.521C95.2074 128.33 95.8448 127.256 96.7801 126.484C97.7155 125.712 98.8904 125.29 100.103 125.291H107.557C107.636 125.291 107.712 125.323 107.768 125.379C107.825 125.435 107.856 125.511 107.856 125.59C107.856 125.67 107.825 125.746 107.768 125.802C107.712 125.858 107.636 125.89 107.557 125.89H100.103C99.0305 125.892 97.992 126.266 97.1653 126.95C96.3387 127.633 95.7754 128.583 95.5719 129.636C95.3685 130.69 95.5375 131.781 96.0502 132.723C96.5628 133.666 97.387 134.4 98.3817 134.802L105.949 137.826C107.075 138.277 108.009 139.106 108.591 140.171C109.172 141.236 109.364 142.471 109.135 143.662C108.905 144.854 108.268 145.928 107.333 146.701C106.398 147.473 105.222 147.896 104.009 147.896Z" fill="#E3E3E3"/>
        <path d="M102.057 151.572C101.978 151.572 101.902 151.54 101.845 151.484C101.789 151.428 101.758 151.352 101.758 151.272V147.604C101.758 147.525 101.789 147.449 101.845 147.392C101.902 147.336 101.978 147.305 102.057 147.305C102.137 147.305 102.213 147.336 102.269 147.392C102.325 147.449 102.356 147.525 102.356 147.604V151.272C102.356 151.352 102.325 151.428 102.269 151.484C102.213 151.54 102.137 151.572 102.057 151.572Z" fill="#E3E3E3"/>
        <path d="M76.77 47.7069C73.8606 47.7067 70.9875 47.0608 68.3578 45.8159C65.728 44.571 63.407 42.7581 61.5622 40.5078C59.7173 38.2574 58.3944 35.6257 57.6888 32.8023C56.9832 29.9788 56.9125 27.0339 57.4818 24.1799C58.0512 21.3258 59.2463 18.6336 60.9811 16.2973C62.7159 13.961 64.9472 12.0388 67.5142 10.6691C70.0812 9.29936 72.92 8.5162 75.826 8.37627C78.732 8.23634 81.6329 8.74303 84.3195 9.85976C84.3586 9.87283 84.3945 9.89389 84.4251 9.92147C84.4556 9.94905 84.4802 9.98266 84.4972 10.0202C84.5142 10.0577 84.5232 10.0982 84.5238 10.1393C84.5244 10.1805 84.5166 10.2214 84.5007 10.2594C84.4848 10.2974 84.4612 10.3316 84.4315 10.3601C84.4018 10.3886 84.3665 10.4107 84.3278 10.4249C84.2892 10.4391 84.2481 10.4451 84.207 10.4427C84.1659 10.4403 84.1257 10.4295 84.089 10.4108C80.0854 8.74961 75.6351 8.5039 71.4731 9.71443C67.3111 10.925 63.6863 13.5192 61.1972 17.0689C58.7082 20.6185 57.5039 24.9112 57.7831 29.238C58.0623 33.5648 59.8083 37.667 62.7329 40.867C65.6575 44.0671 69.5857 46.1736 73.8687 46.8389C78.1518 47.5041 82.5336 46.6881 86.2904 44.5257C90.0473 42.3634 92.9546 38.984 94.5322 34.9456C96.1098 30.9072 96.2633 26.4513 94.9674 22.3139C94.9435 22.238 94.9508 22.1558 94.9876 22.0853C95.0244 22.0149 95.0876 21.9618 95.1634 21.938C95.2393 21.9141 95.3214 21.9215 95.3919 21.9583C95.4624 21.9951 95.5153 22.0583 95.5391 22.1342C96.4611 25.0812 96.6773 28.2039 96.1702 31.2499C95.6631 34.2959 94.4471 37.1799 92.6201 39.6691C90.7932 42.1582 88.4067 44.1827 85.6533 45.5789C82.9 46.9752 79.8569 47.7042 76.77 47.7069Z" fill="#E3E3E3"/>
        <path d="M352.408 82.5542C346.166 82.5383 340.088 80.5596 335.032 76.8982C329.976 73.2367 326.199 68.0779 324.234 62.1513C322.27 56.2246 322.219 49.8302 324.087 43.8726C325.955 37.915 329.649 32.6957 334.645 28.9531C334.709 28.9055 334.789 28.8852 334.868 28.8967C334.947 28.9082 335.018 28.9506 335.065 29.0146C335.113 29.0785 335.133 29.1586 335.122 29.2375C335.11 29.3164 335.068 29.3876 335.004 29.4352C329.698 33.4062 325.905 39.0688 324.25 45.4878C322.596 51.9068 323.179 58.6981 325.905 64.7404C328.63 70.7828 333.334 75.7147 339.24 78.7215C345.146 81.7283 351.9 82.6302 358.387 81.2783C364.875 79.9265 370.707 76.4017 374.922 71.286C379.136 66.1704 381.48 59.7699 381.567 53.1415C381.654 46.5132 379.478 40.0536 375.399 34.8294C371.32 29.6051 365.581 25.9288 359.132 24.4075C359.052 24.3892 358.983 24.3401 358.94 24.2711C358.897 24.202 358.883 24.1186 358.901 24.0392C358.919 23.9598 358.968 23.8909 359.037 23.8476C359.107 23.8044 359.19 23.7903 359.269 23.8086C366.377 25.4807 372.621 29.7089 376.814 35.6881C381.008 41.6673 382.856 48.9802 382.009 56.2346C381.162 63.4889 377.677 70.1782 372.219 75.0293C366.76 79.8803 359.71 82.5543 352.408 82.5422V82.5542Z" fill="#E3E3E3"/>
        <path d="M57.0235 271.797C55.1023 271.795 53.2054 271.368 51.4693 270.545C49.7331 269.722 48.201 268.524 46.9832 267.038C45.7654 265.551 44.8922 263.813 44.4266 261.949C43.9609 260.084 43.9143 258.139 44.2902 256.255C44.666 254.37 45.455 252.592 46.6002 251.049C47.7455 249.506 49.2185 248.236 50.9133 247.331C52.608 246.426 54.4823 245.908 56.4013 245.814C58.3202 245.721 60.236 246.054 62.0107 246.79C62.0471 246.805 62.0801 246.827 62.1079 246.855C62.1357 246.883 62.1578 246.916 62.1728 246.953C62.1878 246.989 62.1955 247.028 62.1954 247.068C62.1953 247.107 62.1875 247.146 62.1724 247.182C62.1572 247.219 62.1351 247.252 62.1072 247.28C62.0793 247.307 62.0462 247.329 62.0098 247.344C61.9733 247.359 61.9343 247.367 61.8949 247.367C61.8556 247.367 61.8166 247.359 61.7802 247.344C59.3234 246.322 56.6032 246.118 54.0215 246.762C51.4398 247.406 49.1337 248.863 47.4438 250.919C45.7538 252.975 44.7698 255.52 44.637 258.178C44.5042 260.836 45.2298 263.467 46.7065 265.681C48.1831 267.895 50.3326 269.575 52.8372 270.473C55.3419 271.371 58.0689 271.439 60.6153 270.667C63.1617 269.896 65.3924 268.325 66.9778 266.188C68.5633 264.05 69.4194 261.459 69.4196 258.798C69.42 257.538 69.2293 256.285 68.8538 255.082C68.8379 255.043 68.8302 255.002 68.8311 254.961C68.832 254.919 68.8415 254.878 68.8591 254.841C68.8766 254.803 68.9018 254.769 68.933 254.742C68.9642 254.715 69.0007 254.694 69.0403 254.682C69.0798 254.669 69.1216 254.665 69.1628 254.669C69.2041 254.674 69.2439 254.687 69.2799 254.708C69.3158 254.728 69.3471 254.756 69.3716 254.79C69.3962 254.823 69.4136 254.862 69.4226 254.902C70.0333 256.849 70.1774 258.912 69.8431 260.925C69.5089 262.938 68.7057 264.844 67.4985 266.489C66.2914 268.134 64.7141 269.472 62.8944 270.394C61.0746 271.316 59.0634 271.796 57.0235 271.797Z" fill="#6C6C6C"/>
        <path d="M305.978 305C301.863 304.993 297.875 303.595 294.677 301.04C291.479 298.485 289.265 294.926 288.401 290.956C287.538 286.986 288.078 282.843 289.931 279.218C291.785 275.593 294.841 272.704 298.59 271.031C298.676 270.993 298.775 270.99 298.863 271.023C298.951 271.056 299.023 271.123 299.061 271.208C299.1 271.293 299.103 271.39 299.069 271.477C299.035 271.564 298.968 271.635 298.882 271.673C296.804 272.595 294.933 273.916 293.378 275.56C290.892 278.183 289.309 281.512 288.855 285.075C288.4 288.638 289.098 292.251 290.847 295.399C292.597 298.548 295.309 301.07 298.598 302.608C301.886 304.145 305.582 304.618 309.159 303.959C312.736 303.301 316.011 301.544 318.516 298.94C321.022 296.336 322.63 293.018 323.111 289.459C323.593 285.9 322.923 282.282 321.197 279.12C319.471 275.959 316.778 273.417 313.501 271.855C313.459 271.835 313.421 271.807 313.389 271.773C313.358 271.738 313.334 271.698 313.318 271.655C313.303 271.611 313.296 271.565 313.299 271.518C313.302 271.472 313.314 271.427 313.334 271.385C313.375 271.302 313.448 271.239 313.537 271.208C313.625 271.178 313.722 271.184 313.807 271.224C317.437 272.949 320.376 275.826 322.154 279.394C323.931 282.963 324.444 287.017 323.611 290.907C322.777 294.797 320.645 298.299 317.556 300.853C314.467 303.406 310.599 304.862 306.572 304.99L305.978 305Z" fill="#E3E3E3"/>
        <path d="M12.9932 147.598C11.0721 147.596 9.17541 147.168 7.43954 146.344C5.70368 145.521 4.17185 144.323 2.95439 142.837C1.73693 141.35 0.864104 139.612 0.398742 137.747C-0.0666206 135.883 -0.112925 133.939 0.263136 132.054C0.639196 130.169 1.42829 128.392 2.57359 126.849C3.71889 125.306 5.1919 124.036 6.8866 123.131C8.5813 122.226 10.4555 121.708 12.3743 121.615C14.2931 121.522 16.2088 121.855 17.9834 122.591C18.0568 122.621 18.1151 122.68 18.1454 122.753C18.1757 122.827 18.1756 122.91 18.145 122.983C18.1144 123.056 18.056 123.115 17.9824 123.145C17.9089 123.175 17.8263 123.175 17.7529 123.145C15.1516 122.066 12.2604 121.907 9.55666 122.694C6.85294 123.481 4.4984 125.167 2.88182 127.474C1.26524 129.78 0.483335 132.569 0.665166 135.38C0.846998 138.191 1.98169 140.856 3.88192 142.934C5.78216 145.013 8.3343 146.381 11.1169 146.813C13.8994 147.245 16.7461 146.715 19.1867 145.31C21.6273 143.905 23.516 141.709 24.5408 139.086C25.5656 136.462 25.6653 133.567 24.8235 130.879C24.8028 130.804 24.8122 130.724 24.8495 130.656C24.8869 130.588 24.9494 130.537 25.0237 130.514C25.0981 130.491 25.1784 130.498 25.2478 130.533C25.3171 130.568 25.37 130.629 25.3953 130.703C26.004 132.65 26.1466 134.713 25.8113 136.725C25.4761 138.738 24.6724 140.643 23.4653 142.288C22.2582 143.932 20.6814 145.269 18.8623 146.192C17.0432 147.114 15.0327 147.596 12.9932 147.598Z" fill="#6C6C6C"/>
        <path d="M131.283 56.0238C130.136 56.0225 129 55.7922 127.942 55.3467C126.885 54.9012 125.927 54.2492 125.124 53.4289C124.321 52.6087 123.69 51.6367 123.267 50.5696C122.845 49.5025 122.639 48.3617 122.662 47.2141C122.662 47.1347 122.693 47.0585 122.75 47.0024C122.806 46.9462 122.882 46.9147 122.961 46.9147C123.041 46.9147 123.117 46.9462 123.173 47.0024C123.229 47.0585 123.261 47.1347 123.261 47.2141C123.233 48.5349 123.532 49.842 124.131 51.0196C124.729 52.1972 125.609 53.2088 126.692 53.9647C127.776 54.7206 129.028 55.1974 130.34 55.3528C131.651 55.5083 132.981 55.3377 134.211 54.856C135.21 54.4848 136.125 53.9182 136.903 53.1893C137.681 52.4604 138.306 51.5838 138.741 50.6107C139.177 49.6375 139.414 48.5873 139.44 47.5214C139.465 46.4555 139.278 45.3953 138.889 44.4025C138.501 43.4098 137.918 42.5044 137.176 41.7392C136.434 40.9741 135.547 40.3645 134.566 39.9461C133.586 39.5276 132.532 39.3086 131.466 39.302C130.4 39.2954 129.344 39.5014 128.359 39.9076C127.602 40.2036 126.895 40.6147 126.263 41.1263C126.232 41.151 126.197 41.1694 126.159 41.1804C126.121 41.1914 126.081 41.1947 126.042 41.1902C126.003 41.1858 125.965 41.1736 125.93 41.1544C125.896 41.1352 125.865 41.1093 125.841 41.0784C125.792 41.0163 125.77 40.9374 125.779 40.8589C125.788 40.7804 125.827 40.7086 125.889 40.6592C126.964 39.7969 128.23 39.205 129.581 38.9331C130.932 38.6612 132.328 38.7172 133.653 39.0964C134.978 39.4756 136.193 40.167 137.195 41.1126C138.198 42.0581 138.96 43.2303 139.416 44.5309C139.873 45.8316 140.011 47.2227 139.819 48.5878C139.627 49.9528 139.111 51.2521 138.314 52.3765C137.517 53.5009 136.462 54.4178 135.238 55.0503C134.013 55.6828 132.655 56.0125 131.277 56.0118L131.283 56.0238Z" fill="#333333"/>
        <path d="M378.991 108.196C377.842 108.197 376.705 107.969 375.646 107.525C374.587 107.081 373.627 106.43 372.823 105.61C372.019 104.79 371.387 103.818 370.963 102.75C370.54 101.682 370.334 100.54 370.357 99.392C370.357 99.3125 370.389 99.2364 370.445 99.1802C370.501 99.1241 370.577 99.0925 370.657 99.0925C370.736 99.0925 370.812 99.1241 370.868 99.1802C370.924 99.2364 370.956 99.3125 370.956 99.392C370.932 100.449 371.119 101.501 371.507 102.485C372.124 104.06 373.222 105.399 374.645 106.312C376.069 107.224 377.743 107.664 379.431 107.568C381.119 107.472 382.733 106.845 384.044 105.777C385.354 104.709 386.294 103.254 386.729 101.619C387.163 99.9852 387.071 98.2553 386.464 96.6767C385.858 95.0982 384.768 93.7519 383.351 92.8296C381.934 91.9072 380.262 91.4561 378.574 91.5408C376.886 91.6255 375.267 92.2416 373.949 93.3011C373.919 93.326 373.884 93.3446 373.846 93.3558C373.808 93.367 373.768 93.3706 373.729 93.3665C373.69 93.3623 373.652 93.3504 373.617 93.3315C373.583 93.3126 373.552 93.287 373.527 93.2562C373.503 93.2256 373.484 93.1904 373.473 93.1525C373.462 93.1147 373.458 93.0751 373.462 93.0359C373.466 92.9966 373.478 92.9585 373.497 92.9239C373.516 92.8892 373.542 92.8588 373.572 92.8341C374.647 91.9715 375.913 91.3789 377.264 91.1061C378.615 90.8334 380.011 90.8884 381.336 91.2664C382.662 91.6444 383.877 92.3344 384.881 93.2787C385.885 94.2231 386.648 95.3942 387.107 96.6941C387.565 97.9941 387.706 99.3851 387.516 100.751C387.327 102.116 386.814 103.416 386.019 104.543C385.224 105.669 384.171 106.588 382.949 107.224C381.726 107.859 380.369 108.193 378.991 108.196Z" fill="#333333"/>
        <path d="M133.365 287.188C131.17 287.185 129.059 286.348 127.459 284.847C127.427 284.821 127.401 284.789 127.382 284.752C127.363 284.716 127.351 284.676 127.349 284.635C127.346 284.594 127.351 284.553 127.365 284.514C127.379 284.475 127.4 284.44 127.428 284.41C127.456 284.38 127.49 284.356 127.528 284.34C127.565 284.323 127.606 284.315 127.647 284.315C127.688 284.315 127.728 284.323 127.766 284.339C127.804 284.356 127.838 284.379 127.866 284.409C129.121 285.589 130.722 286.333 132.432 286.532C134.143 286.732 135.872 286.375 137.365 285.516C138.857 284.656 140.033 283.339 140.72 281.76C141.407 280.18 141.568 278.421 141.178 276.743C140.789 275.065 139.87 273.557 138.558 272.441C137.246 271.326 135.61 270.662 133.892 270.547C132.174 270.433 130.464 270.875 129.016 271.808C127.568 272.74 126.459 274.114 125.851 275.726C125.563 276.489 125.393 277.292 125.345 278.106C125.343 278.145 125.333 278.184 125.316 278.219C125.299 278.255 125.275 278.287 125.246 278.313C125.217 278.339 125.182 278.36 125.145 278.373C125.108 278.386 125.069 278.391 125.029 278.389C124.99 278.387 124.952 278.377 124.916 278.36C124.881 278.343 124.849 278.319 124.823 278.29C124.796 278.26 124.776 278.226 124.763 278.189C124.75 278.152 124.744 278.112 124.747 278.073C124.843 276.393 125.429 274.778 126.432 273.427C127.436 272.077 128.813 271.049 130.393 270.472C131.973 269.895 133.688 269.793 135.325 270.179C136.962 270.566 138.451 271.423 139.607 272.646C140.763 273.868 141.536 275.403 141.83 277.059C142.124 278.716 141.927 280.423 141.263 281.969C140.599 283.515 139.497 284.833 138.093 285.76C136.689 286.687 135.044 287.183 133.362 287.185L133.365 287.188Z" fill="#333333"/>
        <path d="M157.418 25.998C155.496 25.9976 153.598 25.5707 151.861 24.7482C150.124 23.9257 148.591 22.728 147.372 21.2414C146.153 19.7548 145.28 18.0163 144.814 16.1512C144.348 14.2861 144.301 12.3409 144.677 10.4556C145.053 8.57025 145.842 6.7918 146.988 5.24843C148.134 3.70506 149.608 2.43515 151.304 1.53019C152.999 0.625241 154.874 0.10782 156.794 0.0151211C158.714 -0.0775774 160.63 0.256809 162.405 0.994173C162.477 1.02464 162.535 1.08269 162.566 1.15559C162.596 1.2285 162.596 1.3103 162.566 1.3834C162.536 1.45622 162.478 1.5141 162.405 1.54438C162.332 1.57466 162.25 1.57491 162.177 1.54511C159.575 0.465142 156.682 0.305309 153.977 1.09199C151.271 1.87867 148.915 3.56486 147.297 5.87203C145.679 8.1792 144.896 10.9693 145.077 13.7818C145.259 16.5942 146.393 19.2607 148.294 21.3409C150.195 23.4211 152.748 24.7906 155.532 25.2232C158.316 25.6558 161.165 25.1256 163.607 23.7203C166.049 22.3149 167.939 20.1185 168.964 17.4936C169.99 14.8687 170.09 11.9724 169.248 9.28292C169.224 9.20708 169.231 9.12487 169.268 9.05439C169.305 8.98391 169.368 8.93083 169.444 8.90701C169.52 8.88318 169.602 8.89055 169.672 8.92733C169.743 8.96411 169.796 9.02738 169.82 9.10322C170.428 11.0504 170.571 13.1134 170.236 15.1258C169.9 17.1382 169.097 19.0435 167.89 20.6879C166.682 22.3324 165.106 23.6697 163.287 24.5922C161.467 25.5146 159.457 25.9962 157.418 25.998Z" fill="#6C6C6C"/>
    </g>
    <defs>
        <clipPath id="clip0_7962_8514">
            <rect width="394" height="312" fill="white"/>
        </clipPath>
    </defs>
</svg>
