<svg width="208" height="144" viewBox="0 0 208 144" fill="none" xmlns="http://www.w3.org/2000/svg">
    <g clip-path="url(#clip0_6062_15968)">
        <path d="M147.74 16.4671C152.299 16.4671 155.995 12.7808 155.995 8.23355C155.995 3.68629 152.299 0 147.74 0C143.18 0 139.484 3.68629 139.484 8.23355C139.484 12.7808 143.18 16.4671 147.74 16.4671Z" fill="#252525"/>
        <path d="M164.083 29.7657C164.083 29.7657 164.597 15.9491 149.66 14.9955C134.722 14.0419 126.919 20.9528 129.377 33.1032C129.711 34.4874 131.803 30.668 135.385 27.1049C138.968 23.5418 144.73 28.4173 157.237 23.0035C159.287 22.1781 164.284 36.8303 164.083 29.7657Z" fill="#252525"/>
        <path d="M128.959 25.4646L128.445 25.362C129.561 19.8098 133.272 13.2783 144.565 13.8012C150.733 14.0781 155.673 15.1034 159.184 16.8465L158.953 17.3079C155.509 15.5956 150.662 14.5856 144.56 14.3088C138.525 14.0576 130.913 15.7545 128.959 25.4646Z" fill="#45E5E5"/>
        <path d="M143.639 51.6263C138.134 51.6263 132.634 50.2011 129.246 45.6588C128.408 45.6075 123.89 45.0692 123.556 39.6913C123.309 35.7693 123.828 33.4623 125.098 32.8317C125.9 32.4318 126.943 32.724 128.218 33.6827C128.085 32.6626 128.013 31.6354 128.002 30.6067C128.002 30.5387 128.029 30.4735 128.077 30.4254C128.126 30.3773 128.191 30.3503 128.259 30.3503C128.327 30.3503 128.393 30.3773 128.441 30.4254C128.489 30.4735 128.516 30.5387 128.516 30.6067C128.528 31.8362 128.631 33.0631 128.825 34.2774L128.958 34.9951L128.403 34.5235C127.067 33.37 126.028 32.9855 125.319 33.3136C124.291 33.8263 123.833 36.0923 124.06 39.6861C124.399 45.1 129.169 45.1768 129.369 45.1768H129.503L129.58 45.2846C131.929 48.4939 136.946 52.0672 147.509 50.888C153.986 50.1652 159.846 47.9043 160.874 47.3608C162.668 46.3816 162.185 43.5363 162.18 43.5055L162.113 43.1313L162.488 43.2133C162.968 43.3508 163.472 43.3854 163.966 43.3147C164.461 43.244 164.934 43.0696 165.356 42.8032C166.703 41.8906 167.659 39.7272 168.199 36.4358C168.574 34.098 168.312 32.5804 167.433 32.037C167.404 32.0197 167.378 31.9967 167.358 31.9693C167.338 31.9419 167.324 31.9107 167.316 31.8777C167.308 31.8446 167.307 31.8104 167.313 31.777C167.319 31.7436 167.332 31.7117 167.351 31.6833C167.369 31.6546 167.392 31.6298 167.42 31.6101C167.447 31.5905 167.478 31.5764 167.511 31.5688C167.544 31.5612 167.578 31.5601 167.612 31.5657C167.645 31.5713 167.677 31.5833 167.705 31.6012C168.79 32.2728 169.124 33.9237 168.703 36.5178C168.137 40.0245 167.135 42.2187 165.644 43.2236C165.22 43.504 164.745 43.6978 164.246 43.7937C163.746 43.8896 163.233 43.8858 162.735 43.7824C162.812 44.6591 162.832 46.8584 161.121 47.812C159.527 48.6528 151.581 51.6263 143.639 51.6263Z" fill="#E3E3E3"/>
        <path d="M165.475 30.7296H164.961V25.6028C164.979 24.1001 164.562 22.624 163.758 21.3528L164.195 21.0811C165.042 22.4371 165.486 24.0051 165.475 25.6028V30.7296Z" fill="#45E5E5"/>
        <path d="M128.707 25.6699H128.656C128.622 25.6638 128.591 25.651 128.562 25.6324C128.534 25.6137 128.51 25.5895 128.491 25.5613C128.472 25.533 128.459 25.5013 128.453 25.468C128.447 25.4346 128.448 25.4004 128.456 25.3674C129.571 19.8151 133.282 13.2837 144.575 13.8066C150.744 14.0834 155.683 15.1088 159.194 16.8519C159.225 16.8666 159.252 16.8872 159.274 16.9126C159.296 16.938 159.313 16.9676 159.324 16.9997C159.334 17.0317 159.338 17.0656 159.335 17.0992C159.333 17.1328 159.323 17.1655 159.307 17.1954C159.292 17.2257 159.272 17.2528 159.246 17.2752C159.221 17.2975 159.191 17.3147 159.159 17.3256C159.127 17.3366 159.094 17.3411 159.06 17.339C159.026 17.3369 158.993 17.3281 158.963 17.3133C155.519 15.6009 150.671 14.591 144.57 14.3141C138.546 14.0527 130.933 15.7599 128.98 25.4699C128.966 25.5305 128.931 25.5842 128.881 25.6209C128.831 25.6577 128.769 25.6751 128.707 25.6699Z" fill="#E3E3E3"/>
        <path d="M163.047 34.9848H162.924C162.839 34.9572 162.764 34.9039 162.711 34.8323C162.657 34.7607 162.628 34.6742 162.626 34.585C162.579 30.1709 162.024 25.162 160.616 24.3315C159.906 23.9213 157.681 24.3315 154.864 24.8441C151.132 25.5362 146.017 26.4847 140.677 26.2694C140.643 26.2681 140.61 26.2601 140.579 26.246C140.548 26.2319 140.521 26.2119 140.498 26.1871C140.475 26.1624 140.457 26.1333 140.445 26.1017C140.434 26.0701 140.429 26.0365 140.43 26.0028C140.437 25.9357 140.469 25.8737 140.52 25.8283C140.57 25.783 140.635 25.7575 140.702 25.7567C145.971 25.9772 151.06 25.0287 154.771 24.3366C157.922 23.7521 160.004 23.3677 160.873 23.8701C162.769 24.9672 163.093 31.2936 163.14 34.2671L164.445 32.4214C164.783 31.9506 164.963 31.3854 164.959 30.8066V25.5978C164.978 24.095 164.56 22.6189 163.756 21.3477C163.738 21.3191 163.726 21.2872 163.721 21.254C163.715 21.2207 163.716 21.1867 163.724 21.1538C163.732 21.121 163.746 21.09 163.765 21.0625C163.785 21.0351 163.81 21.0118 163.839 20.994C163.867 20.9761 163.899 20.9641 163.932 20.9586C163.966 20.953 164 20.9541 164.033 20.9617C164.066 20.9693 164.097 20.9834 164.125 21.003C164.152 21.0226 164.175 21.0474 164.193 21.076C165.041 22.432 165.484 24.0001 165.473 25.5978V30.8066C165.473 31.4911 165.262 32.159 164.867 32.7188L163.397 34.7695C163.361 34.8319 163.311 34.8843 163.25 34.9219C163.188 34.9596 163.119 34.9812 163.047 34.9848Z" fill="#E3E3E3"/>
        <path d="M161.816 37.3022H150.605L151.711 36.7896C154.561 35.6746 157.728 35.6746 160.577 36.7896L161.816 37.3022ZM153.551 36.7896H158.83C157.092 36.3987 155.289 36.3987 153.551 36.7896Z" fill="#E3E3E3"/>
        <path d="M143.754 37.3016H132.559L133.664 36.7889C136.514 35.6745 139.681 35.6745 142.531 36.7889L143.754 37.3016ZM135.488 36.7889H140.778C139.037 36.3965 137.23 36.3965 135.488 36.7889Z" fill="#E3E3E3"/>
        <path d="M148.09 35.513L148.419 35.026C149.324 33.7033 159.296 31.9499 160.426 31.7654L161.969 31.5039L159.126 33.0419L161.218 33.734L161.085 34.2467C159.157 33.8519 148.794 35.4207 148.686 35.4361L148.09 35.513ZM158.961 32.5497C155.764 33.1444 151.806 34.0109 149.915 34.7235C152.156 34.4057 156.695 33.7904 159.383 33.6982L157.841 33.1855L158.961 32.5497Z" fill="#E3E3E3"/>
        <path d="M144.434 35.5128L143.854 35.4257C143.797 35.4257 138.297 34.5848 134.555 34.2824L134.596 33.7697C137.217 33.9799 140.692 34.4465 142.574 34.7131C141.51 34.308 139.433 33.6877 135.377 32.9033L135.48 32.3906C143.381 33.9748 143.915 34.754 144.09 35.0104L144.434 35.5128Z" fill="#E3E3E3"/>
        <path d="M145.105 42.5058C146.225 42.7774 147.392 42.7932 148.518 42.552C148.539 42.5469 148.56 42.5492 148.579 42.5585C148.598 42.5678 148.612 42.5835 148.62 42.6028C148.628 42.622 148.629 42.6435 148.623 42.6634C148.616 42.6832 148.603 42.7001 148.585 42.7109C147.871 43.1364 146.401 43.7363 145.028 42.6597C145.011 42.6475 145 42.6298 144.995 42.6098C144.99 42.5897 144.992 42.5686 145.001 42.5501C145.011 42.5317 145.026 42.5171 145.045 42.509C145.064 42.5008 145.085 42.4997 145.105 42.5058Z" fill="#E3E3E3"/>
        <path d="M146.519 48.8321C145.703 48.8328 144.89 48.7224 144.103 48.504C144.07 48.4942 144.038 48.478 144.011 48.4561C143.983 48.4342 143.96 48.4071 143.943 48.3764C143.926 48.3457 143.916 48.312 143.912 48.2771C143.908 48.2423 143.911 48.207 143.921 48.1734C143.931 48.1397 143.947 48.1083 143.969 48.0809C143.991 48.0536 144.018 48.0307 144.049 48.0138C144.08 47.9969 144.113 47.9863 144.148 47.9824C144.183 47.9786 144.219 47.9816 144.252 47.9913C145.66 48.3766 147.146 48.3766 148.555 47.9913C148.623 47.9696 148.697 47.9757 148.761 48.0084C148.824 48.0411 148.872 48.0977 148.894 48.1657C148.916 48.2337 148.91 48.3075 148.877 48.3709C148.844 48.4344 148.787 48.4822 148.719 48.504C148.008 48.7287 147.265 48.8394 146.519 48.8321Z" fill="#E3E3E3"/>
        <path d="M143.568 12.924C144.353 12.3781 145.277 12.0661 146.233 12.0244C147.188 11.9826 148.136 12.2128 148.966 12.6882C148.984 12.6998 148.999 12.7171 149.007 12.7377C149.015 12.7582 149.017 12.7808 149.011 12.8021C149.005 12.8234 148.993 12.8423 148.975 12.8559C148.958 12.8696 148.936 12.8773 148.914 12.8779C147.845 12.8215 145.023 12.7138 143.615 13.0265C143.601 13.0313 143.586 13.0309 143.573 13.0253C143.56 13.0198 143.55 13.0095 143.544 12.9966C143.538 12.9836 143.537 12.969 143.542 12.9555C143.547 12.9421 143.556 12.9308 143.568 12.924Z" fill="#E3E3E3"/>
        <path d="M148.898 46.4588C146.322 46.4523 143.748 46.3051 141.188 46.0179C141.155 46.0141 141.123 46.0037 141.094 45.9875C141.065 45.9712 141.039 45.9493 141.018 45.9231C140.998 45.8968 140.983 45.8668 140.974 45.8346C140.965 45.8025 140.963 45.769 140.967 45.7359C140.97 45.7024 140.98 45.6698 140.996 45.6402C141.012 45.6105 141.034 45.5844 141.06 45.5633C141.087 45.5423 141.117 45.5268 141.15 45.5177C141.182 45.5085 141.216 45.5061 141.25 45.5103C144.918 45.9295 148.615 46.0393 152.301 45.8384C152.335 45.8361 152.369 45.8404 152.401 45.8511C152.433 45.8618 152.463 45.8787 152.488 45.9008C152.514 45.923 152.535 45.9499 152.55 45.9801C152.565 46.0103 152.574 46.0432 152.576 46.0768C152.579 46.1105 152.574 46.1443 152.564 46.1763C152.553 46.2083 152.536 46.2379 152.514 46.2634C152.492 46.2888 152.464 46.3097 152.434 46.3248C152.404 46.3398 152.371 46.3488 152.337 46.3511C151.17 46.428 150.014 46.4588 148.898 46.4588Z" fill="#E3E3E3"/>
        <path d="M153.379 14.2831C153.334 14.284 153.289 14.2715 153.251 14.2472C153.192 14.2129 153.15 14.1571 153.133 14.0919C153.115 14.0266 153.124 13.9571 153.158 13.8986C153.848 12.7313 154.258 11.4212 154.358 10.0701C154.457 8.71889 154.243 7.36303 153.732 6.10782C153.221 4.85261 152.426 3.73186 151.41 2.83264C150.394 1.93342 149.184 1.27996 147.873 0.922999C146.563 0.566041 145.188 0.51521 143.854 0.77446C142.521 1.03371 141.266 1.59606 140.186 2.41781C139.106 3.23956 138.23 4.2986 137.627 5.51263C137.025 6.72666 136.71 8.06299 136.709 9.4178C136.71 9.87086 136.744 10.3233 136.812 10.7713C136.818 10.8043 136.817 10.8382 136.809 10.8709C136.802 10.9036 136.788 10.9345 136.769 10.9617C136.749 10.989 136.724 11.012 136.695 11.0295C136.667 11.047 136.634 11.0585 136.601 11.0635C136.568 11.0693 136.534 11.0685 136.501 11.061C136.468 11.0536 136.438 11.0396 136.41 11.02C136.383 11.0004 136.36 10.9756 136.342 10.947C136.325 10.9183 136.313 10.8865 136.308 10.8533C136.232 10.3786 136.195 9.89854 136.195 9.4178C136.195 7.98329 136.526 6.56803 137.164 5.28214C137.801 3.99625 138.728 2.87438 139.871 2.0038C141.014 1.13321 142.343 0.537405 143.755 0.262693C145.167 -0.0120192 146.623 0.0417642 148.01 0.4199C149.398 0.798035 150.679 1.49032 151.754 2.44287C152.83 3.39543 153.67 4.58259 154.211 5.912C154.751 7.24142 154.976 8.67725 154.87 10.1078C154.763 11.5384 154.327 12.9251 153.595 14.16C153.572 14.1968 153.54 14.2272 153.502 14.2487C153.465 14.2702 153.422 14.282 153.379 14.2831Z" fill="#E3E3E3"/>
        <path d="M129.134 41.5115C129.072 41.5107 129.012 41.4874 128.966 41.4459C128.92 41.4044 128.89 41.3475 128.883 41.2859C128.883 41.2397 128.271 36.5487 126.338 35.3901C126.308 35.3732 126.282 35.3505 126.262 35.3233C126.241 35.2961 126.226 35.265 126.218 35.2319C126.21 35.1989 126.209 35.1644 126.214 35.1308C126.22 35.0972 126.232 35.0651 126.251 35.0364C126.286 34.979 126.342 34.9378 126.408 34.9215C126.473 34.9052 126.542 34.9151 126.6 34.9492C128.749 36.2411 129.366 41.0193 129.391 41.2243C129.399 41.2914 129.38 41.3587 129.339 41.4122C129.297 41.4657 129.237 41.5013 129.17 41.5115H129.134Z" fill="#E3E3E3"/>
        <path d="M163.695 39.7785C163.636 39.7773 163.578 39.7558 163.532 39.7176C163.486 39.6793 163.455 39.6266 163.443 39.5682C162.965 37.1535 165.145 34.8465 165.243 34.7491C165.29 34.7001 165.356 34.6721 165.424 34.6712C165.492 34.6702 165.558 34.6964 165.607 34.744C165.657 34.7915 165.685 34.8566 165.686 34.9249C165.687 34.9931 165.66 35.059 165.613 35.108C165.613 35.108 163.521 37.3176 163.947 39.4708C163.959 39.5373 163.945 39.606 163.908 39.6624C163.871 39.7188 163.813 39.7585 163.747 39.7733L163.695 39.7785Z" fill="#E3E3E3"/>
        <path d="M163.377 62.3107C163.175 62.5735 163.019 62.8681 162.914 63.1822C162.688 63.8641 163.5 64.3922 162.801 64.5665C152.818 67.0222 130.176 65.9609 125.215 65.6328H125.056C124.028 65.5303 124.372 64.0948 124.234 63.1105C124.186 62.7831 124.083 62.4659 123.93 62.1722C123.462 61.2853 122.686 60.7573 123.499 60.1728C123.883 59.9011 124.305 59.6886 124.753 59.5422C129.949 57.5427 135.324 56.039 140.806 55.0512C140.806 55.0512 145.946 53.6875 155.959 54.5693C158.787 54.97 161.506 55.9286 163.957 57.389C164.631 57.8094 163.628 58.5528 163.592 59.3371C163.582 59.7537 163.63 60.1697 163.736 60.5727C163.806 60.8711 163.809 61.181 163.747 61.481C163.685 61.781 163.559 62.064 163.377 62.3107Z" fill="#252525"/>
        <path d="M124.826 58.2089C124.758 58.2218 124.687 58.2072 124.63 58.1683C124.573 58.1293 124.533 58.0692 124.52 58.0013C124.507 57.9333 124.522 57.863 124.561 57.8057C124.6 57.7485 124.66 57.7091 124.729 57.6962C129.64 55.6078 134.808 54.1836 140.098 53.4615C140.132 53.4572 140.166 53.4597 140.199 53.4687C140.232 53.4778 140.262 53.4933 140.289 53.5143C140.316 53.5353 140.338 53.5613 140.355 53.591C140.371 53.6207 140.382 53.6534 140.386 53.6871C140.393 53.755 140.373 53.8229 140.331 53.8766C140.289 53.9302 140.227 53.9652 140.16 53.9742C134.916 54.6883 129.791 56.1005 124.924 58.173L124.826 58.2089Z" fill="#E3E3E3"/>
        <path d="M163.538 56.2967C163.508 56.3039 163.476 56.3039 163.445 56.2967H163.389C160.392 55.1739 157.287 54.0101 153.54 53.641C153.473 53.6333 153.411 53.5993 153.369 53.5465C153.327 53.4937 153.307 53.4263 153.314 53.3591C153.317 53.3256 153.326 53.2929 153.341 53.263C153.357 53.2332 153.378 53.2067 153.404 53.1852C153.43 53.1637 153.46 53.1476 153.492 53.1378C153.524 53.128 153.558 53.1248 153.592 53.1283C157.406 53.5077 160.541 54.6664 163.569 55.8199H163.625C163.657 55.8313 163.686 55.8489 163.711 55.8717C163.735 55.8945 163.755 55.922 163.769 55.9525C163.783 55.9831 163.791 56.0162 163.792 56.0497C163.793 56.0833 163.787 56.1167 163.774 56.148C163.754 56.1933 163.721 56.2316 163.679 56.2581C163.637 56.2845 163.588 56.298 163.538 56.2967Z" fill="#E3E3E3"/>
        <path d="M114.107 74.5941H113.506C113.438 74.5941 113.372 74.5671 113.324 74.5191C113.276 74.471 113.249 74.4058 113.249 74.3378C113.249 74.2698 113.276 74.2046 113.324 74.1565C113.372 74.1085 113.438 74.0814 113.506 74.0814C118.276 74.2301 119.078 72.4973 119.088 72.4819L119.129 72.3845L119.232 72.3384C119.752 72.1751 120.232 71.9057 120.642 71.5474C121.051 71.189 121.382 70.7496 121.612 70.2569C121.969 69.2239 121.94 68.0967 121.53 67.0835L121.463 66.9297L121.576 66.8066C122.151 66.2357 122.575 65.5309 122.81 64.7559C122.934 64.2757 122.925 63.7708 122.782 63.2955C122.64 62.8202 122.37 62.3928 122.002 62.0592C121.908 61.9627 121.805 61.8752 121.694 61.7978L121.519 61.6799L121.602 61.4851C122.146 60.2034 122.224 59.1319 121.838 58.2962C121.221 56.9633 119.571 56.4455 118.481 56.1071C118.229 56.0367 117.982 55.9494 117.741 55.8456C116.883 55.4457 116.898 54.6459 116.924 53.0567C116.924 52.1902 116.96 51.006 116.852 49.4679C116.693 47.1301 115.31 45.6178 114.143 45.5512C113.156 45.4999 112.39 46.4432 112.087 48.0786C110.997 55.5995 108.011 57.5374 107.646 57.7476C105.199 59.988 104.001 62.4232 104.084 64.9763C104.233 69.5904 108.576 73.1381 108.617 73.1791C108.768 73.3227 108.929 73.4547 109.1 73.5739C109.155 73.6147 109.191 73.675 109.201 73.7419C109.212 73.8089 109.196 73.8773 109.157 73.9328C109.138 73.9604 109.114 73.9838 109.086 74.0019C109.057 74.0199 109.026 74.0322 108.993 74.0379C108.96 74.0437 108.926 74.0427 108.893 74.0353C108.86 74.0278 108.83 74.0139 108.802 73.9943C108.621 73.8634 108.449 73.7194 108.288 73.5636C108.114 73.4303 103.734 69.8673 103.575 65.002C103.487 62.2797 104.752 59.706 107.327 57.3529L107.379 57.317C107.409 57.317 110.488 55.5534 111.583 48.0017C111.927 46.0792 112.884 44.9718 114.153 45.0487C115.577 45.1256 117.16 46.7867 117.345 49.4372C117.453 50.9752 117.433 52.2005 117.417 53.072C117.392 54.6408 117.417 55.1484 117.931 55.3945C118.153 55.4827 118.38 55.5597 118.61 55.6252C119.715 55.9738 121.566 56.5531 122.275 58.0912C122.707 59.0191 122.655 60.1419 122.121 61.5107C122.197 61.5709 122.269 61.6359 122.336 61.7055C122.77 62.1008 123.088 62.6068 123.254 63.1687C123.421 63.7306 123.431 64.3273 123.282 64.8944C123.043 65.6933 122.616 66.4242 122.039 67.027C122.457 68.1254 122.466 69.337 122.064 70.4415C121.816 70.9834 121.461 71.4696 121.019 71.8706C120.577 72.2715 120.058 72.5789 119.494 72.7742C119.304 73.1843 118.188 74.5941 114.107 74.5941Z" fill="#E3E3E3"/>
        <path d="M113.326 56.0969C113.258 56.1043 113.189 56.0845 113.136 56.0417C113.082 55.9989 113.048 55.9367 113.041 55.8687C113.033 55.8008 113.053 55.7325 113.096 55.6792C113.139 55.6258 113.201 55.5917 113.27 55.5842C114.95 55.174 117.783 55.3791 117.896 55.3894C117.93 55.3913 117.963 55.4 117.994 55.4151C118.025 55.4301 118.052 55.4512 118.075 55.477C118.097 55.5028 118.115 55.5329 118.125 55.5653C118.136 55.5978 118.14 55.6321 118.137 55.6662C118.128 55.7328 118.095 55.7937 118.044 55.8373C117.993 55.8808 117.927 55.9039 117.86 55.902C117.829 55.902 114.986 55.6918 113.382 56.0815L113.326 56.0969Z" fill="#E3E3E3"/>
        <path d="M116.493 61.8489C116.43 61.8493 116.369 61.8266 116.321 61.785C116.274 61.7434 116.243 61.6858 116.236 61.6233C116.229 61.5555 116.248 61.4875 116.29 61.4339C116.333 61.3802 116.394 61.3452 116.462 61.3362C118.27 61.1454 120.093 61.1454 121.9 61.3362C121.934 61.34 121.967 61.3505 121.997 61.367C122.027 61.3836 122.053 61.4058 122.074 61.4326C122.095 61.4593 122.11 61.4899 122.119 61.5226C122.128 61.5554 122.131 61.5896 122.127 61.6233C122.118 61.69 122.083 61.7506 122.03 61.7926C121.978 61.8346 121.911 61.8547 121.844 61.8489C120.075 61.664 118.292 61.664 116.524 61.8489H116.493Z" fill="#E3E3E3"/>
        <path d="M116.941 67.2269C116.872 67.2269 116.807 67.2 116.759 67.1519C116.711 67.1038 116.684 67.0386 116.684 66.9706C116.684 66.9026 116.711 66.8374 116.759 66.7894C116.807 66.7413 116.872 66.7143 116.941 66.7143C118.997 66.6271 121.788 66.7143 121.819 66.7143C121.886 66.7169 121.95 66.7459 121.996 66.7948C122.042 66.8436 122.067 66.9086 122.066 66.9757C122.066 67.0098 122.06 67.0437 122.047 67.0752C122.034 67.1068 122.014 67.1352 121.99 67.1588C121.965 67.1824 121.936 67.2007 121.904 67.2124C121.872 67.2242 121.838 67.2291 121.804 67.2269C121.773 67.2269 118.997 67.1398 116.961 67.2269H116.941Z" fill="#E3E3E3"/>
        <path d="M117.56 72.0979C116.494 72.109 115.427 72.0508 114.368 71.9236C114.334 71.9192 114.302 71.9081 114.273 71.8909C114.243 71.8737 114.218 71.8508 114.198 71.8234C114.177 71.7961 114.163 71.765 114.155 71.732C114.147 71.699 114.146 71.6648 114.152 71.6314C114.157 71.598 114.169 71.566 114.186 71.5371C114.204 71.5082 114.227 71.483 114.254 71.463C114.281 71.443 114.312 71.4286 114.345 71.4205C114.378 71.4125 114.412 71.4109 114.445 71.416C115.585 71.5437 116.732 71.6002 117.879 71.5852C117.947 71.5852 118.012 71.6122 118.061 71.6603C118.109 71.7084 118.136 71.7735 118.136 71.8415C118.136 71.9095 118.109 71.9748 118.061 72.0228C118.012 72.0709 117.947 72.0979 117.879 72.0979H117.56Z" fill="#E3E3E3"/>
        <path d="M178.822 73.6352C178.783 73.6358 178.745 73.6274 178.71 73.6105C178.675 73.5935 178.645 73.5687 178.622 73.5379C178.6 73.5122 178.584 73.4824 178.574 73.4503C178.564 73.4181 178.56 73.3843 178.564 73.3508C178.567 73.3173 178.577 73.2849 178.593 73.2554C178.609 73.2259 178.631 73.1999 178.658 73.179C178.704 73.1431 183.042 69.5902 183.191 64.9762C183.274 62.4128 182.076 59.9879 179.629 57.7475C179.269 57.5373 176.278 55.5994 175.188 48.0682C174.895 46.443 174.129 45.5049 173.132 45.551C171.955 45.6177 170.562 47.13 170.423 49.4678C170.315 51.0058 170.336 52.185 170.351 53.0565C170.377 54.656 170.392 55.461 169.534 55.8609C169.291 55.9645 169.042 56.0518 168.788 56.1223C167.688 56.4658 166.028 56.9836 165.422 58.3371C165.051 59.1727 165.134 60.234 165.673 61.5003L165.756 61.69L165.581 61.8079C165.209 62.0841 164.907 62.4428 164.698 62.8557C164.489 63.2686 164.38 63.7243 164.378 64.1867C164.492 65.1873 164.961 66.1144 165.699 66.8013L165.817 66.9244L165.745 67.0782C165.335 68.0914 165.305 69.2186 165.663 70.2516C165.892 70.7451 166.222 71.1854 166.632 71.5439C167.042 71.9024 167.523 72.1713 168.043 72.3331C168.107 72.3576 168.159 72.4064 168.187 72.4689C168.215 72.5314 168.217 72.6024 168.192 72.6663C168.168 72.7302 168.119 72.7818 168.056 72.8097C167.993 72.8375 167.922 72.8395 167.858 72.815C167.271 72.6279 166.731 72.3205 166.27 71.9126C165.81 71.5047 165.44 71.0053 165.185 70.4464C164.782 69.3419 164.793 68.1291 165.216 67.032C164.449 66.2763 163.971 65.2771 163.864 64.2072C163.854 63.6924 163.962 63.1823 164.181 62.7158C164.399 62.2492 164.721 61.8387 165.123 61.5156C164.609 60.1929 164.542 59.0548 164.954 58.132C165.653 56.5632 167.524 55.9839 168.634 55.6353C168.922 55.543 169.148 55.4661 169.318 55.3995C169.832 55.1482 169.863 54.6407 169.832 53.0668C169.832 52.1952 169.796 51.0161 169.904 49.4422C170.089 46.7917 171.672 45.1254 173.096 45.0537C174.36 44.987 175.332 46.079 175.666 47.9964C176.761 55.5584 179.84 57.3066 179.871 57.322L179.927 57.3578C182.497 59.711 183.767 62.2847 183.674 65.007C183.515 69.8722 179.136 73.4353 178.951 73.584C178.913 73.6123 178.869 73.6299 178.822 73.6352Z" fill="#E3E3E3"/>
        <path d="M174 56.0962H173.943C172.334 55.7066 169.497 55.9117 169.466 55.9168C169.398 55.9199 169.332 55.8972 169.281 55.8534C169.229 55.8097 169.196 55.748 169.188 55.6809C169.186 55.6469 169.19 55.6126 169.2 55.5801C169.211 55.5476 169.228 55.5176 169.251 55.4918C169.273 55.466 169.301 55.4449 169.331 55.4299C169.362 55.4148 169.396 55.4061 169.43 55.4041C169.548 55.4041 172.381 55.1888 174.056 55.599C174.124 55.6071 174.187 55.6419 174.229 55.6958C174.271 55.7496 174.291 55.818 174.282 55.886C174.274 55.954 174.239 56.016 174.185 56.0583C174.131 56.1006 174.063 56.1198 173.994 56.1116L174 56.0962Z" fill="#E3E3E3"/>
        <path d="M170.836 61.849H170.805C169.036 61.6639 167.253 61.6639 165.485 61.849C165.417 61.8562 165.35 61.8366 165.297 61.7943C165.244 61.752 165.21 61.6906 165.202 61.6235C165.197 61.59 165.199 61.5559 165.207 61.5232C165.216 61.4905 165.231 61.4598 165.251 61.433C165.272 61.4062 165.298 61.3838 165.327 61.3672C165.357 61.3506 165.389 61.3401 165.423 61.3363C167.233 61.1457 169.057 61.1457 170.867 61.3363C170.934 61.3453 170.996 61.3804 171.038 61.434C171.08 61.4877 171.1 61.5556 171.093 61.6235C171.084 61.6855 171.054 61.7424 171.006 61.7839C170.959 61.8253 170.899 61.8484 170.836 61.849Z" fill="#E3E3E3"/>
        <path d="M170.39 67.2272C168.334 67.14 165.578 67.2272 165.547 67.2272C165.513 67.2301 165.479 67.2258 165.446 67.2144C165.414 67.2029 165.384 67.1847 165.359 67.1609C165.335 67.1371 165.315 67.1083 165.302 67.0764C165.289 67.0445 165.284 67.0103 165.285 66.976C165.284 66.9426 165.289 66.9093 165.301 66.8779C165.313 66.8466 165.331 66.8179 165.354 66.7936C165.377 66.7692 165.404 66.7497 165.435 66.7361C165.466 66.7225 165.499 66.7152 165.532 66.7145C165.532 66.7145 168.354 66.6274 170.41 66.7145C170.478 66.7145 170.544 66.7415 170.592 66.7896C170.64 66.8377 170.667 66.9029 170.667 66.9709C170.667 67.0388 170.64 67.1041 170.592 67.1522C170.544 67.2002 170.478 67.2272 170.41 67.2272H170.39Z" fill="#E3E3E3"/>
        <path d="M173.355 74.6148C169.299 74.6148 167.834 72.8153 167.762 72.7281L167.434 72.3078H167.973C169.12 72.3227 170.267 72.2662 171.407 72.1386C171.441 72.1336 171.475 72.1352 171.508 72.1434C171.541 72.1516 171.573 72.1663 171.6 72.1865C171.627 72.2067 171.65 72.2322 171.668 72.2613C171.686 72.2905 171.697 72.3228 171.702 72.3565C171.707 72.3901 171.706 72.4245 171.698 72.4575C171.689 72.4906 171.675 72.5217 171.654 72.549C171.634 72.5764 171.609 72.5995 171.579 72.6171C171.55 72.6346 171.518 72.6462 171.484 72.6513C170.539 72.7689 169.588 72.8271 168.636 72.8256C169.495 73.4562 171.628 74.5277 175.704 73.9176C175.771 73.9087 175.84 73.9261 175.894 73.9663C175.949 74.0064 175.986 74.0662 175.997 74.1329C176.006 74.2 175.989 74.268 175.948 74.3225C175.908 74.377 175.848 74.4138 175.781 74.4251C174.978 74.548 174.167 74.6114 173.355 74.6148Z" fill="#E3E3E3"/>
        <path d="M74.4875 78.7724C74.4193 78.7724 74.354 78.7454 74.3058 78.6973C74.2576 78.6493 74.2305 78.5841 74.2305 78.5161V75.1068C74.2318 73.0106 75.0675 71.0006 76.5536 69.5183C78.0398 68.0361 80.0549 67.2028 82.1567 67.2014H100.744C100.812 67.2014 100.877 67.2284 100.926 67.2765C100.974 67.3245 101.001 67.3898 101.001 67.4578C101.001 67.5257 100.974 67.5909 100.926 67.639C100.877 67.6871 100.812 67.7141 100.744 67.7141H82.1464C80.1814 67.7168 78.2977 68.4966 76.9083 69.8824C75.5188 71.2682 74.7369 73.147 74.7342 75.1068V78.5161C74.7343 78.5824 74.7087 78.6461 74.6627 78.6938C74.6167 78.7416 74.5538 78.7698 74.4875 78.7724Z" fill="#E3E3E3"/>
        <path d="M93.9536 143.995H82.1567C80.0553 143.992 78.041 143.159 76.5551 141.677C75.0693 140.195 74.2332 138.185 74.2305 136.09V94.7886C74.2305 94.7206 74.2576 94.6554 74.3058 94.6073C74.354 94.5593 74.4193 94.5322 74.4875 94.5322C74.5556 94.5322 74.621 94.5593 74.6692 94.6073C74.7174 94.6554 74.7445 94.7206 74.7445 94.7886V136.074C74.7472 138.034 75.5291 139.913 76.9186 141.299C78.308 142.685 80.1917 143.464 82.1567 143.467H93.9536C94.0218 143.467 94.0872 143.494 94.1354 143.542C94.1836 143.59 94.2107 143.655 94.2107 143.723C94.2128 143.758 94.2076 143.793 94.1956 143.826C94.1836 143.859 94.1652 143.889 94.1411 143.915C94.1171 143.94 94.088 143.96 94.0558 143.974C94.0236 143.988 93.9887 143.995 93.9536 143.995Z" fill="#E3E3E3"/>
        <path d="M200.067 143.995H114.652C114.583 143.995 114.518 143.968 114.47 143.92C114.422 143.872 114.395 143.807 114.395 143.739C114.396 143.671 114.423 143.607 114.471 143.559C114.519 143.511 114.584 143.484 114.652 143.482H200.067C202.032 143.48 203.916 142.7 205.305 141.314C206.695 139.928 207.476 138.049 207.479 136.09V128.225C207.479 128.157 207.506 128.092 207.554 128.044C207.603 127.996 207.668 127.969 207.736 127.969C207.804 127.969 207.87 127.996 207.918 128.044C207.966 128.092 207.993 128.157 207.993 128.225V136.074C207.995 137.113 207.79 138.143 207.393 139.103C206.995 140.064 206.412 140.937 205.676 141.673C204.939 142.408 204.065 142.992 203.103 143.39C202.141 143.789 201.109 143.994 200.067 143.995Z" fill="#E3E3E3"/>
        <path d="M207.736 100.812C207.668 100.811 207.603 100.783 207.556 100.736C207.508 100.688 207.48 100.623 207.479 100.556V75.1066C207.476 73.1467 206.694 71.268 205.305 69.8821C203.915 68.4963 202.032 67.7166 200.067 67.7138H187.468C187.4 67.7125 187.335 67.6851 187.287 67.6373C187.24 67.5895 187.212 67.5251 187.211 67.4575C187.211 67.3895 187.238 67.3243 187.286 67.2762C187.334 67.2281 187.4 67.2012 187.468 67.2012H200.067C202.168 67.2025 204.184 68.0358 205.67 69.5181C207.156 71.0004 207.991 73.0103 207.993 75.1066V100.556C207.993 100.624 207.966 100.689 207.917 100.737C207.869 100.785 207.804 100.812 207.736 100.812Z" fill="#E3E3E3"/>
        <path d="M161.759 67.7141H126.831C126.763 67.7128 126.699 67.6853 126.651 67.6376C126.603 67.5898 126.576 67.5253 126.574 67.4578C126.574 67.3898 126.601 67.3245 126.65 67.2765C126.698 67.2284 126.763 67.2014 126.831 67.2014H161.759C161.827 67.2014 161.893 67.2284 161.941 67.2765C161.989 67.3245 162.016 67.3898 162.016 67.4578C162.016 67.5257 161.989 67.5909 161.941 67.639C161.893 67.6871 161.827 67.7141 161.759 67.7141Z" fill="#E3E3E3"/>
        <path d="M191.955 136.191H93.7765C93.7084 136.191 93.643 136.164 93.5948 136.116C93.5466 136.068 93.5195 136.003 93.5195 135.935C93.5195 135.867 93.5466 135.802 93.5948 135.754C93.643 135.706 93.7084 135.679 93.7765 135.679H191.955C192.023 135.679 192.089 135.706 192.137 135.754C192.185 135.802 192.212 135.867 192.212 135.935C192.212 136.003 192.185 136.068 192.137 136.116C192.089 136.164 192.023 136.191 191.955 136.191Z" fill="#E3E3E3"/>
        <path d="M111.915 105.555C113.509 105.555 115.037 106.186 116.164 107.31C117.291 108.434 117.924 109.958 117.924 111.548V134.075H105.891V111.543C105.891 110.755 106.048 109.975 106.351 109.247C106.654 108.52 107.098 107.859 107.658 107.303C108.217 106.747 108.881 106.306 109.612 106.006C110.342 105.706 111.125 105.553 111.915 105.555Z" fill="#71A5D2"/>
        <path d="M149.223 120.048C150.012 120.047 150.794 120.202 151.524 120.503C152.253 120.803 152.916 121.245 153.475 121.801C154.033 122.358 154.476 123.019 154.779 123.746C155.081 124.474 155.237 125.254 155.237 126.041V134.372H143.219V126.041C143.219 124.452 143.851 122.929 144.977 121.805C146.103 120.681 147.63 120.049 149.223 120.048Z" fill="#CE7783"/>
        <path d="M131.59 106.457C133.183 106.457 134.712 107.088 135.838 108.212C136.965 109.336 137.598 110.861 137.598 112.45V137.638H125.57V112.45C125.57 111.662 125.726 110.882 126.029 110.154C126.331 109.427 126.775 108.765 127.334 108.209C127.893 107.652 128.557 107.211 129.287 106.91C130.017 106.61 130.8 106.456 131.59 106.457Z" fill="#EAB669"/>
        <path d="M186.359 99.3103C187.953 99.3103 189.481 99.9417 190.608 101.066C191.735 102.19 192.368 103.714 192.368 105.303V133.295H180.355V105.298C180.357 103.711 180.99 102.188 182.115 101.066C183.241 99.943 184.767 99.3117 186.359 99.3103Z" fill="#71A5D2"/>
        <path d="M167.767 111.363C169.36 111.363 170.889 111.995 172.016 113.119C173.143 114.243 173.776 115.767 173.776 117.356V134.059H161.758V117.356C161.758 115.767 162.391 114.243 163.518 113.119C164.645 111.995 166.173 111.363 167.767 111.363Z" fill="#EAB669"/>
        <path d="M116.165 136.192H103.633V113.409C103.633 111.751 104.293 110.162 105.468 108.99C106.643 107.818 108.237 107.159 109.899 107.159C111.561 107.159 113.154 107.818 114.329 108.99C115.505 110.162 116.165 111.751 116.165 113.409V136.192ZM104.147 135.68H115.651V113.409C115.651 111.887 115.045 110.428 113.966 109.352C112.887 108.277 111.424 107.672 109.899 107.672C108.373 107.672 106.91 108.277 105.831 109.352C104.753 110.428 104.147 111.887 104.147 113.409V135.68Z" fill="#E3E3E3"/>
        <path d="M135.467 136.192H122.94V107.015C122.916 106.18 123.06 105.348 123.364 104.569C123.668 103.791 124.126 103.08 124.71 102.481C125.294 101.882 125.992 101.405 126.764 101.08C127.536 100.755 128.366 100.587 129.203 100.587C130.041 100.587 130.871 100.755 131.643 101.08C132.414 101.405 133.113 101.882 133.697 102.481C134.281 103.08 134.739 103.791 135.042 104.569C135.346 105.348 135.491 106.18 135.467 107.015V136.192ZM123.454 135.679H134.953V107.015C134.976 106.248 134.844 105.484 134.565 104.768C134.287 104.052 133.867 103.399 133.331 102.848C132.795 102.297 132.153 101.859 131.444 101.56C130.735 101.261 129.973 101.107 129.203 101.107C128.434 101.107 127.672 101.261 126.963 101.56C126.254 101.859 125.612 102.297 125.076 102.848C124.54 103.399 124.12 104.052 123.841 104.768C123.563 105.484 123.431 106.248 123.454 107.015V135.679Z" fill="#E3E3E3"/>
        <path d="M189.721 136.192H177.194V102.678C177.17 101.843 177.314 101.011 177.618 100.232C177.922 99.4537 178.38 98.7436 178.964 98.1442C179.548 97.5448 180.246 97.0683 181.018 96.743C181.79 96.4176 182.619 96.25 183.457 96.25C184.295 96.25 185.125 96.4176 185.897 96.743C186.669 97.0683 187.367 97.5448 187.951 98.1442C188.535 98.7436 188.993 99.4537 189.297 100.232C189.601 101.011 189.745 101.843 189.721 102.678V136.192ZM177.708 135.679H189.207V102.678C189.23 101.911 189.098 101.147 188.82 100.431C188.541 99.7152 188.121 99.0625 187.585 98.5115C187.049 97.9606 186.407 97.5225 185.698 97.2234C184.989 96.9243 184.227 96.7702 183.457 96.7702C182.688 96.7702 181.926 96.9243 181.217 97.2234C180.508 97.5225 179.866 97.9606 179.33 98.5115C178.794 99.0625 178.374 99.7152 178.095 100.431C177.817 101.147 177.685 101.911 177.708 102.678V135.679Z" fill="#E3E3E3"/>
        <path d="M170.394 136.192H157.867V115.47C157.914 113.844 158.594 112.3 159.764 111.167C160.933 110.033 162.5 109.399 164.131 109.399C165.761 109.399 167.328 110.033 168.498 111.167C169.667 112.3 170.347 113.844 170.394 115.47V136.192ZM158.381 135.68H169.88V115.47C169.835 113.979 169.21 112.564 168.137 111.525C167.063 110.486 165.626 109.905 164.131 109.905C162.635 109.905 161.198 110.486 160.125 111.525C159.051 112.564 158.426 113.979 158.381 115.47V135.68Z" fill="#E3E3E3"/>
        <path d="M153.386 136.192H140.839V124.472C140.815 123.637 140.959 122.805 141.263 122.026C141.567 121.247 142.024 120.537 142.608 119.938C143.192 119.339 143.891 118.862 144.663 118.537C145.434 118.211 146.264 118.044 147.102 118.044C147.94 118.044 148.769 118.211 149.541 118.537C150.313 118.862 151.012 119.339 151.596 119.938C152.18 120.537 152.637 121.247 152.941 122.026C153.245 122.805 153.389 123.637 153.365 124.472L153.386 136.192ZM141.373 135.679H152.872V124.472C152.895 123.705 152.763 122.94 152.485 122.225C152.206 121.509 151.786 120.856 151.25 120.305C150.714 119.754 150.072 119.316 149.363 119.017C148.654 118.718 147.892 118.564 147.123 118.564C146.353 118.564 145.591 118.718 144.882 119.017C144.173 119.316 143.531 119.754 142.995 120.305C142.459 120.856 142.039 121.509 141.76 122.225C141.482 122.94 141.35 123.705 141.373 124.472V135.679Z" fill="#E3E3E3"/>
        <path d="M108.645 100.812C108.124 100.813 107.615 100.66 107.181 100.372C106.748 100.085 106.41 99.675 106.21 99.1955C106.01 98.7159 105.957 98.188 106.058 97.6785C106.159 97.1689 106.409 96.7007 106.777 96.3331C107.144 95.9655 107.613 95.715 108.124 95.6133C108.635 95.5116 109.164 95.5633 109.645 95.7618C110.127 95.9603 110.538 96.2968 110.827 96.7285C111.117 97.1603 111.271 97.668 111.271 98.1874C111.27 98.8822 110.993 99.5484 110.501 100.04C110.009 100.532 109.341 100.81 108.645 100.812ZM108.645 96.0803C108.225 96.0793 107.815 96.2024 107.466 96.4341C107.117 96.6658 106.845 96.9957 106.684 97.3818C106.523 97.768 106.481 98.1931 106.562 98.6033C106.644 99.0135 106.846 99.3904 107.142 99.6861C107.439 99.9818 107.816 100.183 108.228 100.264C108.639 100.346 109.065 100.303 109.452 100.143C109.84 99.9825 110.17 99.7109 110.403 99.3628C110.635 99.0147 110.758 98.6056 110.757 98.1874C110.755 97.6299 110.531 97.096 110.135 96.7022C109.74 96.3085 109.204 96.0868 108.645 96.0854V96.0803Z" fill="#E3E3E3"/>
        <path d="M129.203 92.2713C128.682 92.2723 128.173 92.1191 127.739 91.831C127.306 91.543 126.968 91.1331 126.768 90.6532C126.568 90.1734 126.515 89.6452 126.617 89.1356C126.718 88.6259 126.969 88.1577 127.337 87.7903C127.706 87.4229 128.175 87.1728 128.686 87.0717C129.197 86.9705 129.726 87.023 130.208 87.2223C130.689 87.4216 131.1 87.7588 131.389 88.1913C131.677 88.6237 131.831 89.1319 131.83 89.6515C131.829 90.3459 131.552 91.0115 131.059 91.5025C130.567 91.9935 129.9 92.2699 129.203 92.2713ZM129.203 87.5393C128.784 87.5383 128.374 87.6613 128.025 87.8928C127.676 88.1243 127.404 88.4538 127.243 88.8397C127.082 89.2255 127.039 89.6504 127.12 90.0605C127.202 90.4705 127.403 90.8473 127.699 91.1433C127.995 91.4392 128.372 91.6409 128.783 91.7228C129.194 91.8047 129.62 91.7631 130.008 91.6034C130.395 91.4437 130.726 91.173 130.959 90.8255C131.192 90.4781 131.316 90.0695 131.316 89.6515C131.315 89.0926 131.092 88.5569 130.696 88.1612C130.3 87.7655 129.764 87.542 129.203 87.5393Z" fill="#E3E3E3"/>
        <path d="M146.847 94.6395C146.326 94.6395 145.817 94.4855 145.385 94.1971C144.952 93.9087 144.614 93.4987 144.415 93.019C144.216 92.5394 144.164 92.0117 144.265 91.5025C144.367 90.9933 144.618 90.5256 144.986 90.1585C145.354 89.7914 145.823 89.5414 146.333 89.4401C146.844 89.3388 147.373 89.3908 147.854 89.5895C148.335 89.7881 148.746 90.1246 149.035 90.5562C149.324 90.9879 149.478 91.4954 149.478 92.0146C149.478 92.7108 149.201 93.3784 148.708 93.8707C148.214 94.3629 147.545 94.6395 146.847 94.6395ZM146.847 89.9074C146.427 89.9074 146.018 90.0315 145.669 90.2638C145.321 90.4961 145.05 90.8263 144.89 91.2125C144.729 91.5988 144.688 92.0238 144.77 92.4336C144.852 92.8435 145.054 93.2199 145.351 93.5151C145.648 93.8103 146.026 94.011 146.437 94.0919C146.848 94.1729 147.274 94.1303 147.661 93.9697C148.047 93.809 148.378 93.5375 148.61 93.1894C148.842 92.8414 148.965 92.4326 148.964 92.0146C148.958 91.4593 148.731 90.9291 148.335 90.5393C147.938 90.1496 147.403 89.9317 146.847 89.9331V89.9074Z" fill="#E3E3E3"/>
        <path d="M164.133 99.7766C163.612 99.7776 163.103 99.6246 162.669 99.3368C162.236 99.049 161.898 98.6394 161.698 98.1598C161.498 97.6803 161.445 97.1523 161.546 96.6428C161.647 96.1333 161.897 95.6651 162.265 95.2975C162.633 94.9299 163.102 94.6794 163.613 94.5777C164.123 94.476 164.653 94.5277 165.134 94.7262C165.615 94.9247 166.026 95.2612 166.316 95.6929C166.605 96.1247 166.76 96.6324 166.76 97.1517C166.758 97.8466 166.481 98.5127 165.989 99.0046C165.497 99.4964 164.83 99.7739 164.133 99.7766ZM164.133 95.0447C163.714 95.0436 163.304 95.1668 162.955 95.3985C162.606 95.6302 162.333 95.96 162.172 96.3462C162.011 96.7323 161.969 97.1575 162.051 97.5677C162.132 97.9779 162.334 98.3548 162.631 98.6505C162.927 98.9462 163.305 99.1474 163.716 99.2288C164.127 99.3101 164.553 99.2678 164.941 99.1073C165.328 98.9468 165.659 98.6753 165.891 98.3272C166.123 97.979 166.247 97.5699 166.246 97.1517C166.24 96.596 166.016 96.0648 165.62 95.6732C165.225 95.2817 164.69 95.0614 164.133 95.0601V95.0447Z" fill="#E3E3E3"/>
        <path d="M185.102 88.9082C184.581 88.9092 184.072 88.7561 183.638 88.4683C183.205 88.1805 182.867 87.7709 182.667 87.2914C182.467 86.8119 182.414 86.2839 182.515 85.7744C182.616 85.2649 182.866 84.7967 183.234 84.4291C183.602 84.0615 184.071 83.811 184.581 83.7093C185.092 83.6076 185.621 83.6592 186.103 83.8578C186.584 84.0563 186.995 84.3927 187.285 84.8245C187.574 85.2562 187.729 85.764 187.729 86.2833C187.729 86.9786 187.452 87.6455 186.96 88.1376C186.467 88.6297 185.799 88.9068 185.102 88.9082ZM185.102 84.1762C184.682 84.1752 184.272 84.2984 183.923 84.5301C183.574 84.7618 183.302 85.0916 183.141 85.4778C182.98 85.8639 182.938 86.289 183.019 86.6992C183.101 87.1095 183.303 87.4863 183.599 87.782C183.896 88.0777 184.274 88.279 184.685 88.3603C185.096 88.4416 185.522 88.3994 185.909 88.2389C186.297 88.0784 186.627 87.8069 186.86 87.4587C187.092 87.1106 187.216 86.7015 187.215 86.2833C187.216 86.0055 187.162 85.7302 187.057 85.4731C186.951 85.216 186.796 84.9821 186.6 84.7849C186.403 84.5878 186.17 84.4312 185.913 84.3241C185.656 84.217 185.38 84.1615 185.102 84.1609V84.1762Z" fill="#E3E3E3"/>
        <path d="M102.107 99.5818C99.5798 99.6099 97.0856 99.0092 94.8499 97.8338C92.6142 96.6585 90.7077 94.9457 89.3028 92.8504C89.2692 92.7904 89.2607 92.7197 89.2789 92.6536C89.2972 92.5874 89.3408 92.531 89.4004 92.4967C89.4597 92.4635 89.5297 92.4551 89.5952 92.4733C89.6607 92.4916 89.7163 92.535 89.7498 92.594C90.677 94.0169 91.8604 95.2563 93.24 96.2494C95.4092 97.8387 99.0948 99.5921 104.364 98.9256C104.431 98.9169 104.499 98.9352 104.553 98.9765C104.607 99.0178 104.643 99.0788 104.651 99.146C104.657 99.1795 104.655 99.2136 104.646 99.2463C104.638 99.279 104.623 99.3097 104.602 99.3365C104.581 99.3633 104.556 99.3857 104.526 99.4023C104.497 99.4189 104.464 99.4294 104.43 99.4332C103.66 99.5316 102.884 99.5812 102.107 99.5818Z" fill="#E3E3E3"/>
        <path d="M112.221 97.0239C112.172 97.0253 112.125 97.0124 112.084 96.9869C112.042 96.9614 112.01 96.9244 111.989 96.8804C111.961 96.8191 111.957 96.7489 111.979 96.6849C112.001 96.6208 112.047 96.5677 112.108 96.5369C113.569 95.842 114.987 95.0596 116.354 94.194C119.188 92.376 122.267 90.9691 125.498 90.0157C125.532 90.0063 125.567 90.0036 125.602 90.0078C125.637 90.0119 125.67 90.0229 125.701 90.04C125.731 90.0571 125.758 90.0802 125.78 90.1076C125.802 90.1351 125.817 90.1666 125.827 90.2003C125.836 90.2339 125.839 90.2691 125.835 90.3038C125.831 90.3385 125.82 90.3721 125.803 90.4025C125.785 90.433 125.762 90.4598 125.735 90.4814C125.707 90.503 125.676 90.519 125.642 90.5284C122.459 91.4651 119.426 92.8459 116.631 94.6298C115.245 95.5054 113.808 96.2996 112.329 97.0086C112.294 97.0211 112.257 97.0263 112.221 97.0239Z" fill="#E3E3E3"/>
        <path d="M143.213 91.0561H143.141C139.865 90.0238 136.451 89.488 133.015 89.4668C132.947 89.4655 132.883 89.438 132.835 89.3902C132.787 89.3424 132.759 89.278 132.758 89.2104C132.758 89.1425 132.785 89.0773 132.833 89.0292C132.881 88.9811 132.947 88.9541 133.015 88.9541C136.504 88.9663 139.97 89.5092 143.295 90.5639C143.361 90.5829 143.416 90.6272 143.449 90.6868C143.482 90.7464 143.489 90.8165 143.47 90.8818C143.453 90.9353 143.418 90.9816 143.372 91.0132C143.325 91.0448 143.269 91.0599 143.213 91.0561Z" fill="#E3E3E3"/>
        <path d="M160.136 96.6852H160.084C156.897 96.0136 153.772 94.8395 150.462 93.6091L150.354 93.5681C150.322 93.5567 150.293 93.5391 150.268 93.5163C150.244 93.4935 150.224 93.466 150.21 93.4355C150.196 93.4049 150.188 93.3718 150.188 93.3382C150.187 93.3046 150.193 93.2712 150.205 93.24C150.216 93.2079 150.233 93.1785 150.256 93.1534C150.278 93.1283 150.306 93.1081 150.337 93.0942C150.368 93.0802 150.401 93.0728 150.435 93.0723C150.469 93.0718 150.502 93.0783 150.534 93.0913L150.647 93.1323C153.937 94.3679 157.046 95.5316 160.192 96.2084C160.225 96.215 160.257 96.2282 160.284 96.2472C160.312 96.2661 160.336 96.2903 160.354 96.3185C160.372 96.3467 160.384 96.3782 160.39 96.4113C160.396 96.4443 160.395 96.4781 160.388 96.5108C160.37 96.563 160.336 96.6082 160.291 96.6396C160.245 96.6709 160.191 96.687 160.136 96.6852Z" fill="#E3E3E3"/>
        <path d="M167.768 96.5982C167.71 96.5979 167.654 96.5786 167.609 96.5434C167.563 96.5082 167.53 96.459 167.516 96.4034C167.507 96.3704 167.506 96.3361 167.511 96.3024C167.516 96.2687 167.527 96.2364 167.545 96.2073C167.563 96.1782 167.586 96.1528 167.614 96.1328C167.641 96.1128 167.673 96.0985 167.706 96.0907C171.983 95.0653 176.835 92.502 182.099 88.4518C182.154 88.412 182.223 88.3952 182.291 88.4047C182.359 88.4143 182.421 88.4495 182.464 88.5031C182.503 88.5579 182.52 88.626 182.51 88.6929C182.501 88.7598 182.465 88.8204 182.412 88.862C177.066 92.9275 172.132 95.5267 167.799 96.588L167.768 96.5982Z" fill="#E3E3E3"/>
        <path d="M187.94 84.161C187.868 84.1592 187.8 84.1297 187.75 84.0789C187.702 84.0302 187.676 83.9649 187.676 83.897C187.676 83.829 187.702 83.7637 187.75 83.715C190.207 81.4746 191.738 79.8135 191.754 79.7981C191.8 79.7478 191.865 79.718 191.933 79.7151C192.002 79.7122 192.068 79.7365 192.119 79.7827C192.169 79.829 192.199 79.8933 192.202 79.9616C192.205 80.0298 192.181 80.0965 192.134 80.1468C192.134 80.1468 190.592 81.8386 188.099 84.0943C188.055 84.1342 187.999 84.1578 187.94 84.161Z" fill="#E3E3E3"/>
        <path d="M98.5785 110.578H93.757C93.6888 110.578 93.6235 110.551 93.5753 110.503C93.5271 110.455 93.5 110.39 93.5 110.322C93.5 110.254 93.5271 110.189 93.5753 110.141C93.6235 110.092 93.6888 110.065 93.757 110.065H98.5785C98.6467 110.065 98.712 110.092 98.7602 110.141C98.8084 110.189 98.8355 110.254 98.8355 110.322C98.8355 110.39 98.8084 110.455 98.7602 110.503C98.712 110.551 98.6467 110.578 98.5785 110.578Z" fill="#E3E3E3"/>
        <path d="M98.5785 115.741H93.757C93.6888 115.741 93.6235 115.714 93.5753 115.666C93.5271 115.618 93.5 115.553 93.5 115.485C93.5 115.417 93.5271 115.352 93.5753 115.304C93.6235 115.256 93.6888 115.229 93.757 115.229H98.5785C98.6467 115.229 98.712 115.256 98.7602 115.304C98.8084 115.352 98.8355 115.417 98.8355 115.485C98.8355 115.553 98.8084 115.618 98.7602 115.666C98.712 115.714 98.6467 115.741 98.5785 115.741Z" fill="#E3E3E3"/>
        <path d="M98.5785 120.904H93.757C93.6888 120.904 93.6235 120.877 93.5753 120.829C93.5271 120.781 93.5 120.716 93.5 120.648C93.5 120.58 93.5271 120.515 93.5753 120.467C93.6235 120.419 93.6888 120.392 93.757 120.392H98.5785C98.6467 120.392 98.712 120.419 98.7602 120.467C98.8084 120.515 98.8355 120.58 98.8355 120.648C98.8355 120.716 98.8084 120.781 98.7602 120.829C98.712 120.877 98.6467 120.904 98.5785 120.904Z" fill="#E3E3E3"/>
        <path d="M98.5785 125.97H93.757C93.6888 125.97 93.6235 125.943 93.5753 125.895C93.5271 125.847 93.5 125.781 93.5 125.713C93.5 125.645 93.5271 125.58 93.5753 125.532C93.6235 125.484 93.6888 125.457 93.757 125.457H98.5785C98.6467 125.457 98.712 125.484 98.7602 125.532C98.8084 125.58 98.8355 125.645 98.8355 125.713C98.8355 125.781 98.8084 125.847 98.7602 125.895C98.712 125.943 98.6467 125.97 98.5785 125.97Z" fill="#E3E3E3"/>
        <path d="M98.5785 131.081H93.757C93.6888 131.081 93.6235 131.054 93.5753 131.006C93.5271 130.958 93.5 130.893 93.5 130.825C93.5 130.757 93.5271 130.692 93.5753 130.643C93.6235 130.595 93.6888 130.568 93.757 130.568H98.5785C98.6467 130.568 98.712 130.595 98.7602 130.643C98.8084 130.692 98.8355 130.757 98.8355 130.825C98.8355 130.893 98.8084 130.958 98.7602 131.006C98.712 131.054 98.6467 131.081 98.5785 131.081Z" fill="#E3E3E3"/>
        <path d="M147.483 59.8751L143.73 55.261C143.695 55.2075 143.681 55.1426 143.691 55.0792C143.701 55.0157 143.734 54.9584 143.785 54.9184C143.835 54.8785 143.898 54.8588 143.963 54.8634C144.027 54.868 144.087 54.8964 144.131 54.9431L147.442 59.0445L151.04 53.6307C151.059 53.6027 151.083 53.5788 151.111 53.5602C151.139 53.5416 151.171 53.5287 151.204 53.5223C151.237 53.5158 151.271 53.516 151.304 53.5228C151.338 53.5295 151.369 53.5427 151.397 53.5615C151.425 53.5804 151.449 53.6045 151.468 53.6326C151.486 53.6607 151.499 53.6922 151.506 53.7253C151.512 53.7584 151.512 53.7924 151.505 53.8254C151.498 53.8584 151.485 53.8898 151.467 53.9178L147.483 59.8751Z" fill="#E3E3E3"/>
        <path d="M145.917 22.8646C143.537 19.1682 138.479 13.4211 133.847 22.0341C127.52 33.8256 133.447 38.7985 133.503 40.4493C133.453 41.6651 133.123 42.8529 132.537 43.9201C132.537 43.9201 135.297 42.3822 134.13 35.1073C134.13 35.1073 137.302 31.5647 138.427 27.653C138.427 27.653 139.286 23.2799 143.357 24.5359C147.428 25.792 145.917 22.8646 145.917 22.8646Z" fill="#252525"/>
        <path d="M130.226 46.8689L130.668 46.0794C130.668 46.0794 131.758 44.1261 131.696 42.4138C131.57 41.8865 131.352 41.3851 131.054 40.9321C129.584 38.1893 126.52 32.4935 132.082 22.117C133.84 18.841 135.834 17.1389 137.998 17.0518H138.173C141.257 17.0518 143.986 20.2713 145.744 23.0039C145.777 23.0609 145.786 23.1282 145.771 23.192C145.755 23.2557 145.716 23.311 145.66 23.3465C145.605 23.382 145.538 23.395 145.473 23.3827C145.409 23.3705 145.351 23.334 145.313 23.2807C143.904 21.0967 141.092 17.4722 138.019 17.5644C136.05 17.6465 134.199 19.2562 132.534 22.3579C127.085 32.4935 130.056 38.0304 131.506 40.686C131.851 41.2034 132.09 41.7836 132.21 42.3933C132.216 43.1301 132.1 43.8629 131.866 44.5619C132.503 43.2443 133.063 40.8244 132.38 36.5949V36.477L132.462 36.3847C132.498 36.3437 135.911 32.4935 137.088 28.3203C137.097 28.2876 137.112 28.2571 137.133 28.2304C137.154 28.2038 137.181 28.1817 137.21 28.1654C137.24 28.1491 137.273 28.139 137.307 28.1357C137.34 28.1324 137.375 28.1359 137.407 28.146C137.472 28.164 137.528 28.207 137.561 28.2655C137.595 28.3241 137.604 28.3935 137.587 28.4588C136.441 32.4371 133.475 36.0053 132.909 36.6359C134.148 44.5926 131.141 46.3767 131.013 46.428L130.226 46.8689Z" fill="#E3E3E3"/>
        <path d="M52.4203 143.739C55.6339 143.739 58.2391 141.666 58.2391 139.109C58.2391 136.552 55.6339 134.48 52.4203 134.48C49.2067 134.48 46.6016 136.552 46.6016 139.109C46.6016 141.666 49.2067 143.739 52.4203 143.739Z" fill="#CE7783"/>
        <path d="M51.5579 131.28C53.7041 131.28 55.4439 129.545 55.4439 127.405C55.4439 125.264 53.7041 123.529 51.5579 123.529C49.4117 123.529 47.6719 125.264 47.6719 127.405C47.6719 129.545 49.4117 131.28 51.5579 131.28Z" fill="#EAB669"/>
        <path d="M50.4756 132.947C49.4997 132.948 48.548 132.645 47.7536 132.079C46.9592 131.514 46.362 130.715 46.0456 129.794C45.7292 128.873 45.7095 127.877 45.9892 126.945C46.2688 126.012 46.8339 125.19 47.6053 124.594C48.3766 123.998 49.3155 123.657 50.2906 123.62C51.2658 123.582 52.2282 123.85 53.0432 124.385C53.8582 124.921 54.4851 125.697 54.8358 126.605C55.1865 127.513 55.2434 128.508 54.9989 129.45C54.9905 129.484 54.9757 129.516 54.955 129.544C54.9343 129.572 54.9083 129.595 54.8784 129.613C54.8486 129.631 54.8155 129.643 54.781 129.648C54.7466 129.653 54.7114 129.651 54.6776 129.643C54.6439 129.634 54.6122 129.619 54.5843 129.599C54.5563 129.578 54.5326 129.552 54.5147 129.522C54.4968 129.493 54.485 129.46 54.4799 129.425C54.4747 129.391 54.4764 129.356 54.4849 129.322C54.5726 128.987 54.6177 128.643 54.6187 128.297C54.6186 127.372 54.3083 126.473 53.7372 125.744C53.166 125.015 52.3666 124.497 51.4665 124.273C50.5663 124.049 49.617 124.132 48.7694 124.508C47.9218 124.884 47.2248 125.532 46.7891 126.349C46.3533 127.166 46.2039 128.105 46.3646 129.016C46.5254 129.927 46.9871 130.759 47.6763 131.378C48.3655 131.998 49.2427 132.369 50.1681 132.434C51.0936 132.499 52.0143 132.254 52.7837 131.737C52.8403 131.7 52.9093 131.687 52.9757 131.7C53.0421 131.714 53.1006 131.753 53.1383 131.809C53.1577 131.836 53.1711 131.867 53.1782 131.9C53.1853 131.933 53.186 131.967 53.1797 132C53.1735 132.033 53.1607 132.064 53.1421 132.092C53.1235 132.12 53.0993 132.144 53.0713 132.162C52.304 132.677 51.4 132.95 50.4756 132.947Z" fill="#E3E3E3"/>
        <path d="M58.3925 141.591C58.3348 141.59 58.2791 141.569 58.2344 141.533C58.1896 141.497 58.1585 141.447 58.1458 141.391C57.789 139.913 57.011 138.57 55.9055 137.524C54.7999 136.478 53.4142 135.774 51.916 135.496C50.4178 135.219 48.8711 135.38 47.4627 135.96C46.0543 136.54 44.8443 137.515 43.9792 138.766C43.9608 138.795 43.9368 138.821 43.9082 138.841C43.8796 138.861 43.8472 138.875 43.8131 138.882C43.7789 138.889 43.7436 138.889 43.7094 138.882C43.6752 138.875 43.6429 138.861 43.6143 138.841C43.5857 138.821 43.5612 138.796 43.5428 138.766C43.5243 138.737 43.5121 138.704 43.5069 138.669C43.5016 138.635 43.5034 138.6 43.5121 138.566C43.5209 138.533 43.5365 138.501 43.5578 138.474C44.4797 137.142 45.7684 136.105 47.2684 135.487C48.7685 134.87 50.4156 134.699 52.0109 134.995C53.6062 135.291 55.0815 136.041 56.2586 137.155C57.4357 138.269 58.2644 139.699 58.6445 141.273C58.6529 141.305 58.6546 141.339 58.6495 141.373C58.6444 141.406 58.6326 141.438 58.6149 141.467C58.5971 141.496 58.5737 141.52 58.5461 141.54C58.5185 141.559 58.4873 141.573 58.4542 141.58L58.3925 141.591Z" fill="#E3E3E3"/>
        <path d="M50.5804 143.995C48.3154 143.992 46.0836 143.452 44.0696 142.418C42.0555 141.385 40.3172 139.888 38.9986 138.051C37.6799 136.214 36.8188 134.09 36.4864 131.856C36.1541 129.621 36.36 127.34 37.0873 125.2C37.1096 125.137 37.1557 125.084 37.2161 125.053C37.2764 125.023 37.3463 125.017 37.4111 125.036C37.4437 125.047 37.4739 125.064 37.4999 125.086C37.526 125.108 37.5473 125.135 37.5627 125.166C37.578 125.196 37.5871 125.23 37.5893 125.264C37.5915 125.298 37.5867 125.332 37.5755 125.364C36.5093 128.485 36.6072 131.884 37.8511 134.938C39.0949 137.992 41.4016 140.497 44.3474 141.992C47.2932 143.487 50.6807 143.872 53.8885 143.077C57.0962 142.282 59.9089 140.36 61.8104 137.664C63.7119 134.967 64.5748 131.677 64.2405 128.398C63.9062 125.118 62.3974 122.069 59.9908 119.809C57.5841 117.549 54.4412 116.231 51.1386 116.096C47.8361 115.961 44.5957 117.018 42.0117 119.074C41.9859 119.096 41.9558 119.112 41.9236 119.122C41.8914 119.132 41.8575 119.135 41.824 119.132C41.7904 119.129 41.7579 119.118 41.7283 119.102C41.6987 119.086 41.6727 119.064 41.6518 119.038C41.6095 118.984 41.5901 118.916 41.5978 118.848C41.6055 118.78 41.6396 118.717 41.6929 118.674C44.2144 116.663 47.352 115.577 50.5804 115.598C54.3595 115.598 57.9837 117.095 60.6559 119.76C63.328 122.425 64.8291 126.04 64.8291 129.809C64.8291 133.578 63.328 137.193 60.6559 139.858C57.9837 142.523 54.3595 144.021 50.5804 144.021V143.995Z" fill="#E3E3E3"/>
        <path d="M18.4242 143.738C21.6378 143.738 24.243 141.666 24.243 139.109C24.243 136.552 21.6378 134.479 18.4242 134.479C15.2106 134.479 12.6055 136.552 12.6055 139.109C12.6055 141.666 15.2106 143.738 18.4242 143.738Z" fill="#CE7783"/>
        <path d="M17.5657 131.281C19.7119 131.281 21.4517 129.546 21.4517 127.405C21.4517 125.265 19.7119 123.529 17.5657 123.529C15.4195 123.529 13.6797 125.265 13.6797 127.405C13.6797 129.546 15.4195 131.281 17.5657 131.281Z" fill="#EAB669"/>
        <path d="M16.4795 132.947C15.5036 132.948 14.5519 132.645 13.7575 132.079C12.9632 131.514 12.3659 130.715 12.0495 129.794C11.7331 128.873 11.7134 127.877 11.9931 126.945C12.2727 126.012 12.8378 125.19 13.6092 124.594C14.3805 123.998 15.3196 123.657 16.2948 123.62C17.2699 123.582 18.2323 123.85 19.0474 124.385C19.8624 124.921 20.489 125.697 20.8397 126.605C21.1904 127.513 21.2476 128.508 21.0031 129.45C20.9947 129.483 20.9799 129.514 20.9596 129.541C20.9393 129.568 20.9137 129.59 20.8846 129.608C20.8555 129.625 20.8232 129.636 20.7897 129.641C20.7562 129.645 20.7221 129.643 20.6893 129.635C20.6239 129.617 20.5682 129.574 20.5337 129.516C20.4992 129.458 20.4886 129.388 20.5043 129.322C20.5921 128.987 20.6371 128.643 20.6381 128.297C20.6381 127.372 20.3278 126.473 19.7566 125.744C19.1855 125.015 18.3861 124.497 17.486 124.273C16.5858 124.049 15.6364 124.132 14.7888 124.508C13.9412 124.884 13.244 125.532 12.8083 126.349C12.3725 127.166 12.2233 128.105 12.3841 129.016C12.5449 129.927 13.0066 130.759 13.6958 131.378C14.385 131.998 15.2619 132.369 16.1873 132.434C17.1128 132.499 18.0335 132.254 18.8029 131.737C18.8604 131.7 18.9304 131.686 18.9977 131.7C19.0649 131.713 19.1242 131.752 19.1628 131.809C19.2 131.865 19.2132 131.934 19.1997 132C19.1862 132.067 19.1471 132.125 19.0908 132.162C18.3192 132.68 17.4092 132.953 16.4795 132.947Z" fill="#E3E3E3"/>
        <path d="M24.4017 141.59C24.3434 141.59 24.2869 141.57 24.2413 141.533C24.1957 141.497 24.1636 141.447 24.1499 141.39C23.7931 139.913 23.0149 138.57 21.9094 137.524C20.8038 136.478 19.4184 135.773 17.9201 135.496C16.4219 135.218 14.875 135.379 13.4666 135.96C12.0582 136.54 10.8485 137.514 9.98338 138.766C9.96499 138.795 9.9407 138.821 9.9121 138.841C9.88351 138.86 9.85113 138.874 9.81698 138.881C9.78283 138.888 9.74749 138.888 9.71332 138.882C9.67915 138.875 9.64683 138.861 9.6182 138.841C9.58956 138.821 9.56537 138.796 9.54692 138.766C9.52846 138.737 9.51605 138.704 9.51077 138.669C9.50549 138.635 9.50729 138.6 9.51604 138.566C9.5248 138.532 9.54036 138.501 9.56172 138.473C10.4837 137.142 11.7726 136.104 13.2726 135.487C14.7726 134.87 16.4197 134.699 18.015 134.995C19.6103 135.291 21.0856 136.041 22.2627 137.155C23.4399 138.269 24.2683 139.699 24.6484 141.273C24.6568 141.305 24.6585 141.339 24.6534 141.373C24.6483 141.406 24.6365 141.438 24.6188 141.467C24.601 141.495 24.5776 141.52 24.55 141.54C24.5224 141.559 24.4912 141.573 24.4581 141.58L24.4017 141.59Z" fill="#E3E3E3"/>
        <path d="M16.583 143.995C14.1244 143.993 11.7081 143.357 9.56891 142.148C7.42973 140.94 5.64043 139.199 4.37521 137.097C3.10999 134.994 2.41177 132.601 2.34847 130.15C2.28517 127.698 2.85901 125.272 4.01403 123.107C5.16906 120.943 6.86597 119.113 8.93993 117.796C11.0139 116.479 13.3943 115.719 15.8496 115.592C18.3049 115.464 20.7517 115.972 22.9519 117.066C25.1521 118.161 27.0308 119.804 28.4056 121.837C28.4295 121.864 28.4472 121.896 28.4578 121.931C28.4684 121.966 28.4714 122.002 28.4668 122.038C28.4622 122.074 28.4502 122.109 28.4312 122.14C28.4122 122.17 28.3869 122.197 28.3569 122.217C28.3269 122.238 28.293 122.252 28.2573 122.258C28.2215 122.264 28.1848 122.263 28.1496 122.254C28.1144 122.246 28.0812 122.229 28.0527 122.207C28.0242 122.185 28.001 122.156 27.9842 122.124C26.18 119.455 23.4909 117.505 20.3888 116.615C17.2867 115.726 13.9696 115.955 11.0199 117.262C8.07012 118.569 5.67608 120.87 4.25774 123.762C2.83941 126.653 2.48739 129.951 3.26358 133.076C4.03977 136.2 5.89463 138.953 8.50246 140.849C11.1103 142.746 14.3045 143.666 17.5247 143.449C20.745 143.231 23.7854 141.889 26.1126 139.658C28.4397 137.427 29.9048 134.45 30.2509 131.25C30.2584 131.182 30.2927 131.12 30.3462 131.077C30.3997 131.034 30.4681 131.014 30.5362 131.022C30.6044 131.029 30.6668 131.063 30.7097 131.117C30.7526 131.17 30.7724 131.238 30.7649 131.306C30.3958 134.797 28.7413 138.027 26.1214 140.371C23.5014 142.716 20.1026 144.007 16.583 143.995Z" fill="#E3E3E3"/>
        <path d="M52.4203 112.143C55.6339 112.143 58.2391 110.07 58.2391 107.513C58.2391 104.956 55.6339 102.884 52.4203 102.884C49.2067 102.884 46.6016 104.956 46.6016 107.513C46.6016 110.07 49.2067 112.143 52.4203 112.143Z" fill="#CE7783"/>
        <path d="M51.5579 99.6842C53.7041 99.6842 55.4439 97.949 55.4439 95.8084C55.4439 93.6679 53.7041 91.9326 51.5579 91.9326C49.4117 91.9326 47.6719 93.6679 47.6719 95.8084C47.6719 97.949 49.4117 99.6842 51.5579 99.6842Z" fill="#EAB669"/>
        <path d="M50.4756 101.35C49.4997 101.351 48.548 101.048 47.7536 100.482C46.9592 99.9172 46.362 99.1182 46.0456 98.1975C45.7292 97.2768 45.7095 96.2803 45.9892 95.3479C46.2688 94.4154 46.8339 93.5935 47.6053 92.9973C48.3766 92.401 49.3155 92.0604 50.2906 92.023C51.2658 91.9855 52.2282 92.2532 53.0432 92.7886C53.8582 93.3239 54.4851 94.1 54.8358 95.0083C55.1865 95.9166 55.2434 96.9115 54.9989 97.8537C54.9905 97.8874 54.9757 97.9191 54.955 97.947C54.9343 97.9748 54.9083 97.9984 54.8784 98.0162C54.8182 98.0523 54.7458 98.063 54.6776 98.046C54.6095 98.029 54.5509 97.9857 54.5147 97.9256C54.4786 97.8655 54.4678 97.7935 54.4849 97.7255C54.5726 97.3908 54.6177 97.0462 54.6187 96.7002C54.6186 95.7749 54.3083 94.8762 53.7372 94.147C53.166 93.4179 52.3666 92.9002 51.4665 92.6762C50.5663 92.4523 49.617 92.535 48.7694 92.9112C47.9218 93.2874 47.2248 93.9355 46.7891 94.7524C46.3533 95.5693 46.2039 96.508 46.3646 97.4193C46.5254 98.3306 46.9871 99.1621 47.6763 99.7815C48.3655 100.401 49.2427 100.773 50.1681 100.838C51.0936 100.903 52.0143 100.657 52.7837 100.14C52.8403 100.102 52.9097 100.088 52.9767 100.101C53.0437 100.114 53.1027 100.153 53.1408 100.21C53.179 100.266 53.1933 100.335 53.1802 100.402C53.1672 100.469 53.1279 100.528 53.0713 100.566C52.304 101.08 51.4 101.353 50.4756 101.35Z" fill="#E3E3E3"/>
        <path d="M58.3929 109.994C58.3352 109.994 58.2795 109.973 58.2348 109.937C58.19 109.901 58.1589 109.851 58.1462 109.794C57.7894 108.317 57.0114 106.974 55.9059 105.928C54.8003 104.882 53.4146 104.178 51.9164 103.9C50.4182 103.622 48.8715 103.783 47.4631 104.364C46.0547 104.944 44.8447 105.918 43.9796 107.17C43.9393 107.222 43.8806 107.256 43.8155 107.266C43.7504 107.276 43.6841 107.261 43.63 107.223C43.5759 107.186 43.5382 107.129 43.5248 107.064C43.5115 107 43.5235 106.933 43.5582 106.877C44.4802 105.546 45.7688 104.508 47.2688 103.891C48.7689 103.274 50.416 103.103 52.0113 103.399C53.6066 103.695 55.0819 104.445 56.259 105.559C57.4361 106.673 58.2648 108.103 58.6449 109.677C58.6533 109.709 58.655 109.743 58.6499 109.777C58.6448 109.81 58.633 109.842 58.6153 109.871C58.5975 109.899 58.5741 109.924 58.5465 109.944C58.5189 109.963 58.4877 109.977 58.4546 109.984L58.3929 109.994Z" fill="#E3E3E3"/>
        <path d="M50.5809 112.399C46.8019 112.399 43.1776 110.902 40.5055 108.236C37.8333 105.571 36.332 101.957 36.332 98.1874C36.332 94.4184 37.8333 90.8037 40.5055 88.1385C43.1776 85.4734 46.8019 83.9761 50.5809 83.9761C52.79 83.9697 54.9696 84.4808 56.9445 85.468C57.0058 85.4986 57.0525 85.5523 57.0742 85.6172C57.0959 85.6821 57.0908 85.7529 57.0602 85.8141C57.0295 85.8752 56.9757 85.9218 56.9106 85.9434C56.8455 85.965 56.7744 85.96 56.7131 85.9294C54.8102 84.9771 52.7099 84.4837 50.5809 84.4888C47.489 84.4877 44.4871 85.5268 42.0606 87.4379C39.6341 89.3491 37.9249 92.0207 37.2092 95.0207C36.4936 98.0207 36.8133 101.174 38.1168 103.97C39.4203 106.766 41.6315 109.042 44.3925 110.43C47.1536 111.818 50.3032 112.236 53.3322 111.618C56.3613 110.999 59.0926 109.38 61.0845 107.021C63.0764 104.663 64.2126 101.703 64.3092 98.6208C64.4058 95.5386 63.4572 92.5139 61.6169 90.0359C61.576 89.9815 61.5585 89.9132 61.5682 89.8459C61.5778 89.7786 61.6138 89.7179 61.6683 89.6771C61.7229 89.6363 61.7913 89.6188 61.8588 89.6284C61.9263 89.638 61.9873 89.6739 62.0282 89.7283C63.5989 91.8431 64.5499 94.3515 64.7753 96.9737C65.0007 99.596 64.4914 102.229 63.3045 104.58C62.1176 106.93 60.2997 108.906 58.0531 110.287C55.8065 111.667 53.2197 112.398 50.5809 112.399Z" fill="#E3E3E3"/>
        <path d="M18.4242 112.143C21.6378 112.143 24.243 110.07 24.243 107.513C24.243 104.956 21.6378 102.884 18.4242 102.884C15.2106 102.884 12.6055 104.956 12.6055 107.513C12.6055 110.07 15.2106 112.143 18.4242 112.143Z" fill="#CE7783"/>
        <path d="M17.5657 99.6842C19.7119 99.6842 21.4517 97.949 21.4517 95.8084C21.4517 93.6679 19.7119 91.9326 17.5657 91.9326C15.4195 91.9326 13.6797 93.6679 13.6797 95.8084C13.6797 97.949 15.4195 99.6842 17.5657 99.6842Z" fill="#EAB669"/>
        <path d="M16.4795 101.351C15.5036 101.352 14.5519 101.048 13.7575 100.483C12.9632 99.9176 12.3659 99.1187 12.0495 98.198C11.7331 97.2772 11.7134 96.2808 11.9931 95.3483C12.2727 94.4159 12.8378 93.594 13.6092 92.9978C14.3805 92.4015 15.3196 92.0609 16.2948 92.0235C17.2699 91.986 18.2323 92.2537 19.0474 92.789C19.8624 93.3244 20.489 94.1005 20.8397 95.0088C21.1904 95.9171 21.2476 96.9119 21.0031 97.8542C20.9947 97.8869 20.9799 97.9176 20.9596 97.9446C20.9393 97.9715 20.9137 97.9943 20.8846 98.0114C20.8555 98.0286 20.8232 98.0398 20.7897 98.0445C20.7562 98.0492 20.7221 98.0473 20.6893 98.0388C20.6239 98.0208 20.5682 97.978 20.5337 97.9197C20.4992 97.8613 20.4886 97.7919 20.5043 97.726C20.5921 97.3912 20.6371 97.0467 20.6381 96.7007C20.6381 95.7754 20.3278 94.8767 19.7566 94.1475C19.1855 93.4184 18.3861 92.9006 17.486 92.6767C16.5858 92.4528 15.6364 92.5355 14.7888 92.9117C13.9412 93.2879 13.244 93.936 12.8083 94.7529C12.3725 95.5698 12.2233 96.5085 12.3841 97.4198C12.5449 98.3311 13.0066 99.1626 13.6958 99.782C14.385 100.401 15.2619 100.773 16.1873 100.838C17.1128 100.903 18.0335 100.658 18.8029 100.141C18.8309 100.122 18.8624 100.109 18.8955 100.102C18.9286 100.095 18.9627 100.095 18.9959 100.102C19.0291 100.108 19.0608 100.121 19.089 100.139C19.1172 100.158 19.1414 100.182 19.1603 100.21C19.1792 100.238 19.1922 100.269 19.199 100.302C19.2057 100.335 19.2059 100.369 19.1995 100.402C19.193 100.436 19.1802 100.467 19.1616 100.495C19.1429 100.523 19.1188 100.547 19.0908 100.566C18.3192 101.083 17.4092 101.357 16.4795 101.351Z" fill="#E3E3E3"/>
        <path d="M24.4019 109.994C24.3436 109.994 24.2871 109.974 24.2415 109.938C24.1959 109.901 24.1638 109.851 24.1501 109.794C23.7933 108.317 23.0151 106.974 21.9096 105.928C20.804 104.882 19.4186 104.178 17.9203 103.9C16.4221 103.622 14.8752 103.783 13.4668 104.364C12.0584 104.944 10.8487 105.918 9.98359 107.17C9.94324 107.222 9.88428 107.256 9.81919 107.266C9.7541 107.276 9.68778 107.261 9.63371 107.223C9.57964 107.186 9.54213 107.129 9.5288 107.064C9.51546 107 9.5272 106.933 9.56193 106.877C10.4839 105.546 11.7728 104.508 13.2728 103.891C14.7728 103.274 16.4199 103.103 18.0152 103.399C19.6105 103.695 21.0858 104.445 22.263 105.559C23.4401 106.673 24.2685 108.103 24.6486 109.677C24.657 109.709 24.6587 109.743 24.6536 109.777C24.6485 109.81 24.6367 109.842 24.619 109.871C24.6012 109.899 24.5778 109.924 24.5502 109.944C24.5226 109.963 24.4914 109.977 24.4583 109.984L24.4019 109.994Z" fill="#E3E3E3"/>
        <path d="M16.5824 112.399C13.9111 112.409 11.2914 111.665 9.02514 110.255C6.75883 108.845 4.93813 106.824 3.77295 104.427C3.7442 104.365 3.74035 104.295 3.76241 104.231C3.78446 104.167 3.83068 104.114 3.89116 104.083C3.92153 104.068 3.95453 104.06 3.9883 104.057C4.02206 104.055 4.05594 104.06 4.08794 104.071C4.11994 104.082 4.14944 104.099 4.17478 104.121C4.20012 104.144 4.22072 104.171 4.23552 104.201C5.65299 107.097 8.04856 109.403 11.0014 110.712C13.9543 112.021 17.2755 112.251 20.3811 111.36C23.4867 110.469 26.1779 108.515 27.982 105.841C29.7862 103.167 30.5878 99.9443 30.2457 96.7394C29.9036 93.5345 28.4398 90.5524 26.1117 88.3172C23.7836 86.082 20.7401 84.7368 17.5161 84.5179C14.292 84.299 11.0938 85.2205 8.4835 87.1205C5.87318 89.0204 4.01771 91.7771 3.24336 94.9063C3.2356 94.9399 3.22129 94.9718 3.2012 94.9999C3.18111 95.028 3.15576 95.052 3.1264 95.0703C3.09705 95.0886 3.06443 95.101 3.03027 95.1067C2.99612 95.1124 2.96112 95.1114 2.92737 95.1037C2.89362 95.0959 2.86171 95.0816 2.8335 95.0616C2.80529 95.0416 2.78135 95.0161 2.76297 94.9869C2.74459 94.9576 2.73207 94.925 2.72633 94.8909C2.72058 94.8569 2.72158 94.822 2.72934 94.7884C3.36834 92.2011 4.7238 89.8451 6.64099 87.9893C8.55819 86.1335 10.96 84.8527 13.572 84.2931C16.1841 83.7334 18.9012 83.9175 21.4134 84.8243C23.9256 85.731 26.1318 87.324 27.7798 89.4213C29.4277 91.5186 30.4513 94.0358 30.7336 96.6855C31.016 99.3352 30.5457 102.011 29.3765 104.407C28.2074 106.803 26.3863 108.822 24.1213 110.236C21.8564 111.649 19.2387 112.398 16.5671 112.399H16.5824Z" fill="#E3E3E3"/>
        <path d="M20.3281 37.2969V43.6746C20.3281 44.0825 20.4905 44.4737 20.7797 44.7622C21.0688 45.0506 21.4612 45.2126 21.8702 45.2126H27.8482C27.9177 45.2123 27.9858 45.1943 28.0463 45.1603C28.1067 45.1263 28.1575 45.0773 28.1936 45.0182C28.2297 44.9591 28.2498 44.8917 28.2523 44.8225C28.2549 44.7533 28.2398 44.6847 28.2082 44.623C26.0698 40.3935 22.3996 37.8455 20.9501 36.9637C20.8897 36.9239 20.8196 36.9012 20.7473 36.8979C20.675 36.8946 20.603 36.9109 20.5392 36.9451C20.4754 36.9792 20.4223 37.03 20.3851 37.0919C20.3479 37.1539 20.3282 37.2247 20.3281 37.2969Z" fill="#EAB669"/>
        <path d="M29.5422 44.8178H22.9216C22.4481 44.8178 21.9937 44.6305 21.6584 44.297C21.3231 43.9635 21.1342 43.5111 21.1328 43.0388V35.9639C21.1328 35.8959 21.1599 35.8307 21.2081 35.7826C21.2563 35.7345 21.3217 35.7075 21.3898 35.7075C21.458 35.7075 21.5233 35.7345 21.5715 35.7826C21.6197 35.8307 21.6468 35.8959 21.6468 35.9639V43.0388C21.6482 43.3751 21.7831 43.6972 22.0221 43.9345C22.261 44.1719 22.5844 44.3051 22.9216 44.3051H29.5422C29.6103 44.3051 29.6757 44.3321 29.7239 44.3802C29.7721 44.4283 29.7992 44.4934 29.7992 44.5614C29.7992 44.6294 29.7721 44.6946 29.7239 44.7427C29.6757 44.7907 29.6103 44.8178 29.5422 44.8178Z" fill="#E3E3E3"/>
        <path d="M29.5415 58.4093C29.4733 58.4093 29.408 58.3822 29.3598 58.3342C29.3116 58.2861 29.2845 58.2209 29.2845 58.1529V44.608C27.398 39.994 21.9442 36.5898 21.3171 36.2156H8.79554C8.43652 36.2169 8.09265 36.3601 7.83927 36.6138C7.58589 36.8674 7.44371 37.211 7.44371 37.569V54.6411C7.44371 54.7091 7.41661 54.7743 7.36842 54.8223C7.32022 54.8704 7.25486 54.8974 7.1867 54.8974C7.11854 54.8974 7.05293 54.8704 7.00473 54.8223C6.95653 54.7743 6.92969 54.7091 6.92969 54.6411V37.569C6.92969 37.075 7.12606 36.6011 7.47584 36.2513C7.82562 35.9015 8.30019 35.7042 8.79554 35.7029H21.4559L21.5176 35.7388C21.7695 35.8824 27.7424 39.3839 29.7779 44.4543V44.5516V58.1478C29.7794 58.2132 29.7559 58.2768 29.7119 58.3254C29.6679 58.374 29.6069 58.404 29.5415 58.4093Z" fill="#E3E3E3"/>
        <path d="M30.9954 57.4198C30.9272 57.4198 30.8619 57.3928 30.8137 57.3447C30.7655 57.2967 30.7384 57.2314 30.7384 57.1634V44.608C28.8519 39.994 23.3981 36.5898 22.771 36.2156H10.9484C10.8803 36.2156 10.8149 36.1886 10.7667 36.1405C10.7185 36.0924 10.6914 36.0272 10.6914 35.9592C10.6914 35.8912 10.7185 35.8261 10.7667 35.778C10.8149 35.7299 10.8803 35.7029 10.9484 35.7029H22.9098L22.9715 35.7388C23.2234 35.8824 29.1963 39.3839 31.2318 44.4543V44.5516V57.1583C31.2333 57.2238 31.2098 57.2874 31.1658 57.336C31.1218 57.3846 31.0608 57.4145 30.9954 57.4198Z" fill="#E3E3E3"/>
        <path d="M32.2206 57.1222C32.1524 57.1222 32.0871 57.0952 32.0389 57.0471C31.9907 56.999 31.9636 56.9338 31.9636 56.8659V44.5975C30.0771 39.9835 24.6233 36.5793 23.9962 36.2051H11.4797C11.4115 36.2051 11.3462 36.1781 11.298 36.13C11.2498 36.0819 11.2227 36.0167 11.2227 35.9487C11.2227 35.8807 11.2498 35.8156 11.298 35.7675C11.3462 35.7194 11.4115 35.6924 11.4797 35.6924H24.1556L24.2173 35.7283C24.4692 35.8719 30.4421 39.3734 32.4776 44.4438V44.5411V56.8453C32.4805 56.8807 32.4759 56.9163 32.4643 56.9498C32.4527 56.9833 32.4343 57.014 32.4101 57.04C32.3859 57.066 32.3566 57.0868 32.324 57.1009C32.2914 57.1151 32.2562 57.1223 32.2206 57.1222Z" fill="#E3E3E3"/>
        <path d="M23.1662 49.6679H13.5539C13.4861 49.6666 13.4216 49.6392 13.3737 49.5914C13.3258 49.5436 13.2982 49.4792 13.2969 49.4116C13.2969 49.3436 13.324 49.2784 13.3722 49.2304C13.4204 49.1823 13.4857 49.1553 13.5539 49.1553H23.1662C23.2344 49.1553 23.2998 49.1823 23.348 49.2304C23.3962 49.2784 23.4233 49.3436 23.4233 49.4116C23.4233 49.4796 23.3962 49.5448 23.348 49.5929C23.2998 49.641 23.2344 49.6679 23.1662 49.6679Z" fill="#E3E3E3"/>
        <path d="M23.1662 52.6465H13.5539C13.4857 52.6465 13.4204 52.6194 13.3722 52.5714C13.324 52.5233 13.2969 52.4581 13.2969 52.3901C13.2969 52.3221 13.324 52.257 13.3722 52.2089C13.4204 52.1608 13.4857 52.1338 13.5539 52.1338H23.1662C23.2344 52.1338 23.2998 52.1608 23.348 52.2089C23.3962 52.257 23.4233 52.3221 23.4233 52.3901C23.4233 52.4581 23.3962 52.5233 23.348 52.5714C23.2998 52.6194 23.2344 52.6465 23.1662 52.6465Z" fill="#E3E3E3"/>
        <path d="M23.1662 55.6252H13.5539C13.4857 55.6252 13.4204 55.5983 13.3722 55.5502C13.324 55.5021 13.2969 55.4369 13.2969 55.3689C13.2969 55.3009 13.324 55.2357 13.3722 55.1876C13.4204 55.1396 13.4857 55.1125 13.5539 55.1125H23.1662C23.2344 55.1125 23.2998 55.1396 23.348 55.1876C23.3962 55.2357 23.4233 55.3009 23.4233 55.3689C23.4233 55.4369 23.3962 55.5021 23.348 55.5502C23.2998 55.5983 23.2344 55.6252 23.1662 55.6252Z" fill="#E3E3E3"/>
        <path d="M48.3125 37.297V43.6747C48.3125 44.0826 48.4751 44.4738 48.7643 44.7622C49.0535 45.0507 49.4456 45.2127 49.8546 45.2127H55.8326C55.902 45.2124 55.9702 45.1944 56.0306 45.1604C56.0911 45.1263 56.1419 45.0774 56.178 45.0182C56.2141 44.9591 56.2344 44.8917 56.237 44.8225C56.2395 44.7534 56.2242 44.6847 56.1925 44.6231C54.0542 40.3935 50.3841 37.8456 48.9397 36.9638C48.8789 36.9244 48.8084 36.9019 48.7359 36.8988C48.6635 36.8957 48.5916 36.912 48.5276 36.946C48.4636 36.98 48.4098 37.0305 48.372 37.0923C48.3342 37.154 48.3137 37.2246 48.3125 37.297Z" fill="#EAB669"/>
        <path d="M57.5031 44.8178H50.8825C50.409 44.8178 49.9549 44.6305 49.6196 44.297C49.2843 43.9635 49.0951 43.5111 49.0938 43.0388V35.9639C49.0938 35.8959 49.1208 35.8307 49.169 35.7826C49.2172 35.7345 49.2826 35.7075 49.3508 35.7075C49.4189 35.7075 49.4843 35.7345 49.5325 35.7826C49.5807 35.8307 49.6078 35.8959 49.6078 35.9639V43.0388C49.6091 43.3751 49.7441 43.6972 49.983 43.9345C50.2219 44.1719 50.5453 44.3051 50.8825 44.3051H57.5031C57.5713 44.3051 57.6366 44.3321 57.6848 44.3802C57.733 44.4283 57.7601 44.4934 57.7601 44.5614C57.7601 44.6294 57.733 44.6946 57.6848 44.7427C57.6366 44.7907 57.5713 44.8178 57.5031 44.8178Z" fill="#E3E3E3"/>
        <path d="M57.5024 58.4095C57.4343 58.4095 57.3689 58.3825 57.3207 58.3344C57.2725 58.2863 57.2454 58.2211 57.2454 58.1532V44.6083C55.359 39.9942 49.9052 36.5901 49.278 36.2158H36.7615C36.5833 36.2158 36.4068 36.2508 36.2422 36.3188C36.0776 36.3868 35.928 36.4866 35.802 36.6123C35.676 36.7379 35.576 36.8871 35.5078 37.0513C35.4396 37.2155 35.4046 37.3915 35.4046 37.5693V56.3537C35.4046 56.4217 35.3776 56.4868 35.3294 56.5349C35.2812 56.583 35.2158 56.61 35.1476 56.61C35.0795 56.61 35.0141 56.583 34.9659 56.5349C34.9177 56.4868 34.8906 56.4217 34.8906 56.3537V37.5693C34.8906 37.0743 35.0876 36.5997 35.4385 36.2497C35.7894 35.8998 36.2653 35.7031 36.7615 35.7031H49.4168L49.4786 35.739C49.7305 35.8826 55.7033 39.3842 57.7389 44.4545V44.5519V58.148C57.7404 58.2135 57.7168 58.277 57.6729 58.3256C57.6289 58.3743 57.5679 58.4043 57.5024 58.4095Z" fill="#E3E3E3"/>
        <path d="M58.7987 57.1222C58.7306 57.1222 58.6652 57.0952 58.617 57.0471C58.5688 56.999 58.5417 56.9338 58.5417 56.8659V44.5975C56.6553 39.9835 51.2015 36.5793 50.5743 36.2051H38.0578C37.9896 36.2051 37.9243 36.1781 37.8761 36.13C37.8279 36.0819 37.8008 36.0167 37.8008 35.9487C37.8008 35.8807 37.8279 35.8156 37.8761 35.7675C37.9243 35.7194 37.9896 35.6924 38.0578 35.6924H50.7131L50.7749 35.7283C51.0268 35.8719 56.9996 39.3734 59.0352 44.4438V44.5411V56.8453C59.038 56.879 59.0343 56.9129 59.0239 56.9451C59.0135 56.9773 58.9967 57.0071 58.9747 57.0328C58.9527 57.0586 58.9258 57.0797 58.8956 57.095C58.8654 57.1104 58.8325 57.1196 58.7987 57.1222Z" fill="#E3E3E3"/>
        <path d="M59.7245 56.5636C59.6563 56.5636 59.591 56.5366 59.5428 56.4885C59.4946 56.4405 59.4675 56.3753 59.4675 56.3073V44.608C57.581 39.994 52.1272 36.5898 51.5001 36.2156H38.9836C38.9154 36.2156 38.8501 36.1886 38.8019 36.1405C38.7537 36.0924 38.7266 36.0272 38.7266 35.9592C38.7266 35.8912 38.7537 35.8261 38.8019 35.778C38.8501 35.7299 38.9154 35.7029 38.9836 35.7029H51.6389L51.7004 35.7388C51.9523 35.8824 57.9254 39.3839 59.9609 44.4543V44.5516V56.3022C59.9625 56.3676 59.9386 56.4312 59.8947 56.4798C59.8507 56.5284 59.7899 56.5584 59.7245 56.5636Z" fill="#E3E3E3"/>
        <path d="M45.5926 49.6679H39.3781C39.3099 49.6679 39.2446 49.641 39.1964 49.5929C39.1482 49.5448 39.1211 49.4796 39.1211 49.4116C39.1211 49.3436 39.1482 49.2784 39.1964 49.2304C39.2446 49.1823 39.3099 49.1553 39.3781 49.1553H45.5926C45.6607 49.1553 45.7261 49.1823 45.7743 49.2304C45.8225 49.2784 45.8496 49.3436 45.8496 49.4116C45.8496 49.4796 45.8225 49.5448 45.7743 49.5929C45.7261 49.641 45.6607 49.6679 45.5926 49.6679Z" fill="#E3E3E3"/>
        <path d="M45.5926 52.6465H39.3781C39.3099 52.6465 39.2446 52.6194 39.1964 52.5714C39.1482 52.5233 39.1211 52.4581 39.1211 52.3901C39.1211 52.3221 39.1482 52.257 39.1964 52.2089C39.2446 52.1608 39.3099 52.1338 39.3781 52.1338H45.5926C45.6607 52.1338 45.7261 52.1608 45.7743 52.2089C45.8225 52.257 45.8496 52.3221 45.8496 52.3901C45.8496 52.4581 45.8225 52.5233 45.7743 52.5714C45.7261 52.6194 45.6607 52.6465 45.5926 52.6465Z" fill="#E3E3E3"/>
        <path d="M48.9852 55.625H39.3781C39.3099 55.625 39.2446 55.598 39.1964 55.5499C39.1482 55.5019 39.1211 55.4366 39.1211 55.3686C39.1211 55.3007 39.1482 55.2355 39.1964 55.1874C39.2446 55.1393 39.3099 55.1123 39.3781 55.1123H48.9852C49.0534 55.1123 49.1187 55.1393 49.1669 55.1874C49.2151 55.2355 49.2422 55.3007 49.2422 55.3686C49.2422 55.4366 49.2151 55.5019 49.1669 55.5499C49.1187 55.598 49.0534 55.625 48.9852 55.625Z" fill="#E3E3E3"/>
        <path d="M83.5691 52.098H83.5229C80.961 51.6297 78.5198 50.6515 76.3451 49.2218C74.1705 47.792 72.307 45.9401 70.8656 43.7764C69.4241 41.6126 68.4345 39.1815 67.9556 36.628C67.4767 34.0745 67.5185 31.4509 68.0783 28.9139C68.6382 26.3768 69.7047 23.9782 71.2142 21.8612C72.7237 19.7442 74.6454 17.9521 76.8644 16.592C79.0835 15.2318 81.5545 14.3313 84.1301 13.9443C86.7056 13.5574 89.3329 13.6918 91.8552 14.3396C91.9432 14.3617 92.0258 14.4013 92.0982 14.4559C92.1706 14.5105 92.2313 14.579 92.2766 14.6574C92.3244 14.7376 92.356 14.8265 92.3693 14.9189C92.3825 15.0113 92.3773 15.1053 92.3539 15.1957L88.0256 31.2424C88.0156 31.2741 88.0152 31.308 88.0244 31.3399C88.0335 31.3718 88.0518 31.4003 88.0771 31.4219C88.1011 31.4452 88.1312 31.4614 88.1639 31.4687C88.1966 31.4759 88.2307 31.4739 88.2623 31.4629L104.32 25.885C104.493 25.8262 104.682 25.836 104.847 25.9123C105.013 25.9887 105.143 26.1258 105.21 26.2951C106.639 30.1204 106.821 34.2984 105.728 38.2326C104.635 42.1667 102.323 45.6558 99.1236 48.2017C99.0703 48.2436 99.0025 48.2628 98.9351 48.2551C98.8677 48.2475 98.8061 48.2135 98.7637 48.1607C98.7422 48.1347 98.7263 48.1046 98.7168 48.0723C98.7072 48.04 98.7041 48.0061 98.708 47.9726C98.7118 47.9391 98.7224 47.9067 98.7391 47.8774C98.7557 47.8481 98.778 47.8223 98.8048 47.8018C101.92 45.3233 104.17 41.9263 105.234 38.096C106.297 34.2657 106.12 30.1982 104.726 26.4745C104.708 26.43 104.673 26.3942 104.63 26.3742C104.586 26.3542 104.536 26.3516 104.49 26.3669L88.4317 31.9448C88.312 31.988 88.1828 31.9975 88.058 31.9722C87.9332 31.947 87.8179 31.888 87.7245 31.8017C87.631 31.7154 87.5632 31.6052 87.5284 31.483C87.4936 31.3609 87.4932 31.2315 87.5272 31.1091L91.8552 15.0624C91.8654 15.0399 91.8708 15.0154 91.8708 14.9907C91.8708 14.9659 91.8654 14.9414 91.8552 14.9189C91.8436 14.8987 91.8281 14.8811 91.8095 14.867C91.791 14.8529 91.7699 14.8427 91.7473 14.8369C89.2971 14.2206 86.7478 14.1013 84.2505 14.4861C81.7532 14.8709 79.3588 15.7519 77.2093 17.0768C75.0597 18.4018 73.1987 20.1438 71.7367 22.1994C70.2748 24.2551 69.2417 26.5826 68.6985 29.044C68.1553 31.5053 68.1131 34.0504 68.5745 36.5283C69.0359 39.0063 69.9915 41.3665 71.3846 43.4692C72.7777 45.5719 74.58 47.3742 76.6845 48.7693C78.789 50.1643 81.1529 51.1236 83.6361 51.5905C83.6696 51.5966 83.7014 51.6094 83.73 51.628C83.7585 51.6465 83.7831 51.6706 83.8023 51.6988C83.8214 51.7269 83.8347 51.7586 83.8414 51.7919C83.8482 51.8253 83.8484 51.8596 83.8417 51.893C83.8304 51.955 83.796 52.0106 83.7455 52.0486C83.6951 52.0866 83.632 52.1042 83.5691 52.098Z" fill="#E3E3E3"/>
        <path d="M108.968 21.7014L93.0328 27.2485C93.0011 27.2599 92.9669 27.2624 92.9339 27.2558C92.9009 27.2492 92.8702 27.2337 92.8453 27.211C92.8204 27.1883 92.8024 27.1593 92.7928 27.1271C92.7833 27.0948 92.7825 27.0606 92.7911 27.0281L97.0988 11.0378C97.1132 10.9893 97.1458 10.9483 97.1899 10.9234C97.234 10.8985 97.2862 10.8917 97.3352 10.9045C99.9634 11.6747 102.385 13.0221 104.423 14.8479C106.461 16.6736 108.063 18.9313 109.111 21.4553C109.121 21.4809 109.125 21.5082 109.122 21.5353C109.12 21.5624 109.112 21.5887 109.098 21.6122C109.084 21.6357 109.065 21.6559 109.043 21.6713C109.02 21.6868 108.994 21.697 108.968 21.7014Z" fill="#71A5D2"/>
        <path d="M90.3636 29.3045C90.2496 29.3054 90.1394 29.2633 90.0552 29.1866C89.9943 29.1316 89.9501 29.0606 89.9274 28.9818C89.9047 28.903 89.9044 28.8195 89.9266 28.7406L94.4346 12.0069C94.4507 11.9489 94.4781 11.8946 94.5152 11.8472C94.5524 11.7998 94.5984 11.7602 94.651 11.7306C94.7036 11.7011 94.7615 11.6822 94.8214 11.6751C94.8813 11.668 94.9421 11.6727 95.0001 11.6891C97.784 12.511 100.349 13.9416 102.509 15.8767C104.669 17.8118 106.369 20.2027 107.486 22.8756C107.511 22.9321 107.524 22.9933 107.524 23.0553C107.525 23.1172 107.512 23.1784 107.486 23.235C107.461 23.2916 107.424 23.3423 107.378 23.3837C107.332 23.4251 107.278 23.4564 107.218 23.4754L90.5127 29.284C90.4643 29.2981 90.414 29.305 90.3636 29.3045ZM94.9178 12.2017L90.451 28.756L107.008 23.0089C105.912 20.4322 104.261 18.128 102.172 16.2601C100.082 14.3922 97.6053 13.0065 94.9178 12.2017Z" fill="#E3E3E3"/>
        <path d="M56.7175 60.2908H2.36965C1.06093 60.2908 0 61.3489 0 62.6542V75.0712C0 76.3764 1.06093 77.4346 2.36965 77.4346H56.7175C58.0262 77.4346 59.0871 76.3764 59.0871 75.0712V62.6542C59.0871 61.3489 58.0262 60.2908 56.7175 60.2908Z" fill="#71A5D2"/>
        <path d="M10.4268 75.9221H4.96278C4.26615 75.9221 3.59806 75.6461 3.10547 75.1548C2.61287 74.6635 2.33594 73.9972 2.33594 73.3024V60.5162C2.33594 59.8214 2.61287 59.1551 3.10547 58.6638C3.59806 58.1725 4.26615 57.8965 4.96278 57.8965H62.1942C62.8904 57.8978 63.5577 58.1743 64.05 58.6653C64.5423 59.1563 64.8194 59.8219 64.8208 60.5162V64.3562C64.8195 64.4237 64.7921 64.4882 64.7442 64.536C64.6963 64.5838 64.6315 64.6112 64.5638 64.6125C64.4956 64.6125 64.4302 64.5855 64.382 64.5374C64.3339 64.4893 64.3068 64.4242 64.3068 64.3562V60.5162C64.3054 59.9578 64.0825 59.4226 63.6866 59.0278C63.2907 58.6329 62.7541 58.4105 62.1942 58.4092H4.96278C4.40289 58.4105 3.86631 58.6329 3.47041 59.0278C3.0745 59.4226 2.85132 59.9578 2.84996 60.5162V73.3024C2.84996 73.8612 3.0727 74.3971 3.4689 74.7923C3.8651 75.1874 4.40248 75.4095 4.96278 75.4095H10.4268C10.495 75.4095 10.5603 75.4364 10.6085 75.4845C10.6567 75.5326 10.6838 75.5978 10.6838 75.6658C10.6838 75.7338 10.6567 75.799 10.6085 75.847C10.5603 75.8951 10.495 75.9221 10.4268 75.9221Z" fill="#E3E3E3"/>
        <path d="M62.1899 75.9217H22.8156C22.7474 75.9217 22.6821 75.8947 22.6339 75.8466C22.5857 75.7985 22.5586 75.7333 22.5586 75.6653C22.5599 75.5978 22.5875 75.5333 22.6354 75.4855C22.6833 75.4377 22.7479 75.4103 22.8156 75.409H62.1899C62.7498 75.4076 63.2864 75.1852 63.6823 74.7903C64.0782 74.3955 64.3011 73.8603 64.3025 73.3019V70.7026C64.3025 70.6346 64.3296 70.5695 64.3778 70.5214C64.426 70.4733 64.4914 70.4463 64.5595 70.4463C64.6277 70.4463 64.693 70.4733 64.7412 70.5214C64.7894 70.5695 64.8165 70.6346 64.8165 70.7026V73.3019C64.8152 73.9963 64.538 74.6618 64.0457 75.1529C63.5534 75.6439 62.8862 75.9203 62.1899 75.9217Z" fill="#E3E3E3"/>
        <path d="M50.5245 53.7385C49.8992 53.7385 49.2882 53.5536 48.7683 53.2072C48.2484 52.8607 47.8432 52.3683 47.604 51.7922C47.3647 51.216 47.302 50.5821 47.424 49.9705C47.546 49.3588 47.8471 48.797 48.2892 48.3561C48.7313 47.9151 49.2946 47.6149 49.9078 47.4932C50.521 47.3715 51.1566 47.434 51.7342 47.6726C52.3119 47.9113 52.8057 48.3154 53.1531 48.8339C53.5004 49.3524 53.6859 49.962 53.6859 50.5856C53.6846 51.4214 53.3511 52.2226 52.7585 52.8136C52.166 53.4046 51.3625 53.7372 50.5245 53.7385ZM50.5245 47.9453C50.0009 47.9453 49.4893 48.1001 49.0539 48.3903C48.6186 48.6804 48.2792 49.0927 48.0788 49.5752C47.8785 50.0576 47.8261 50.5885 47.9282 51.1007C48.0304 51.6129 48.2824 52.0833 48.6526 52.4525C49.0228 52.8218 49.4947 53.0732 50.0082 53.1751C50.5217 53.277 51.054 53.2247 51.5377 53.0249C52.0214 52.825 52.4348 52.4866 52.7256 52.0525C53.0165 51.6183 53.1719 51.1078 53.1719 50.5856C53.1705 49.8858 52.891 49.215 52.3948 48.7201C51.8987 48.2253 51.2261 47.9467 50.5245 47.9453Z" fill="#E3E3E3"/>
    </g>
    <defs>
        <clipPath id="clip0_6062_15968">
            <rect width="208" height="144" fill="white"/>
        </clipPath>
    </defs>
</svg>
