<svg width="101" height="174" viewBox="0 0 101 174" fill="none" xmlns="http://www.w3.org/2000/svg">
    <path d="M84.836 102.138C84.3476 103.174 84.0802 104.301 84.0511 105.447C84.0219 106.593 84.2316 107.733 84.6666 108.792C85.1016 109.852 85.7522 110.807 86.5764 111.597C87.4005 112.386 88.3798 112.993 89.451 113.376L94.9326 115.343C96.5145 115.91 97.8836 116.956 98.8518 118.339C99.8201 119.722 100.34 121.374 100.34 123.067C100.34 124.76 99.8201 126.412 98.8518 127.795C97.8836 129.178 96.5145 130.224 94.9326 130.79L89.451 132.757C88.3798 133.141 87.4005 133.748 86.5764 134.537C85.7522 135.327 85.1016 136.282 84.6666 137.341C84.2316 138.401 84.0219 139.54 84.0511 140.687C84.0802 141.833 84.3476 142.96 84.836 143.995L87.3406 149.289C88.0647 150.818 88.301 152.536 88.0169 154.207C87.7328 155.877 86.9422 157.417 85.7541 158.616C84.5661 159.814 83.0388 160.612 81.3828 160.898C79.7268 161.185 78.0235 160.947 76.5073 160.216L71.251 157.698C70.2245 157.206 69.107 156.936 67.9707 156.907C66.8344 156.877 65.7046 157.089 64.6545 157.528C63.6043 157.966 62.6572 158.623 61.8743 159.454C61.0915 160.285 60.4904 161.273 60.11 162.354L58.16 167.883C57.5976 169.477 56.56 170.856 55.1894 171.832C53.8188 172.807 52.1825 173.331 50.5051 173.331C48.8277 173.331 47.1914 172.807 45.8209 171.832C44.4503 170.856 43.4126 169.477 42.8503 167.883L40.9003 162.354C40.5194 161.273 39.9178 160.285 39.1346 159.454C38.3513 158.622 37.4038 157.966 36.3533 157.527C35.3028 157.089 34.1728 156.877 33.0362 156.907C31.8995 156.936 30.7817 157.206 29.755 157.698L24.5073 160.216C22.9912 160.949 21.2867 161.19 19.6293 160.904C17.9719 160.619 16.4433 159.821 15.2543 158.622C14.0654 157.423 13.2748 155.881 12.9917 154.209C12.7087 152.537 12.947 150.818 13.674 149.289L16.17 143.987C16.6583 142.951 16.9257 141.824 16.9549 140.678C16.9841 139.532 16.7744 138.392 16.3394 137.333C15.9043 136.273 15.2537 135.318 14.4296 134.528C13.6054 133.739 12.6261 133.132 11.555 132.749L6.0733 130.782C4.49148 130.215 3.12236 129.169 2.15411 127.786C1.18586 126.403 0.666016 124.751 0.666016 123.058C0.666016 121.365 1.18586 119.714 2.15411 118.33C3.12236 116.947 4.49148 115.901 6.0733 115.335L11.555 113.368C12.625 112.984 13.6032 112.378 14.4266 111.589C15.2499 110.8 15.9001 109.845 16.335 108.787C16.7699 107.729 16.9799 106.59 16.9515 105.445C16.9231 104.3 16.6568 103.173 16.17 102.138L13.674 96.8364C12.947 95.3071 12.7087 93.5879 12.9917 91.9161C13.2748 90.2442 14.0654 88.7023 15.2543 87.503C16.4433 86.3037 17.9719 85.5063 19.6293 85.2208C21.2867 84.9352 22.9912 85.1757 24.5073 85.9089L29.7636 88.4266C30.7894 88.9179 31.9059 89.1869 33.0411 89.2162C34.1763 89.2455 35.305 89.0344 36.3543 88.5966C37.4037 88.1588 38.3504 87.504 39.1334 86.6744C39.9164 85.8448 40.5183 84.8589 40.9003 83.7802L42.8503 78.2509C43.4126 76.6568 44.4503 75.2774 45.8209 74.3019C47.1914 73.3264 48.8277 72.8027 50.5051 72.8027C52.1825 72.8027 53.8188 73.3264 55.1894 74.3019C56.56 75.2774 57.5976 76.6568 58.16 78.2509L60.11 83.7802C60.4904 84.8607 61.0915 85.8485 61.8743 86.6798C62.6572 87.5111 63.6043 88.1674 64.6545 88.6062C65.7046 89.045 66.8344 89.2565 67.9707 89.2271C69.107 89.1977 70.2245 88.9279 71.251 88.4354L76.5073 85.9089C78.0235 85.1785 79.7268 84.9402 81.3828 85.2268C83.0388 85.5134 84.5661 86.3108 85.7541 87.5092C86.9422 88.7076 87.7328 90.2481 88.0169 91.9185C88.301 93.5889 88.0647 95.3071 87.3406 96.8364L84.836 102.138Z" stroke="#E3E3E3" stroke-linecap="round" stroke-linejoin="round"/>
    <path d="M55 133.149C63.0081 133.149 69.5 126.6 69.5 118.523C69.5 110.445 63.0081 103.896 55 103.896C46.9919 103.896 40.5 110.445 40.5 118.523C40.5 126.6 46.9919 133.149 55 133.149Z" fill="#CE7783"/>
    <path d="M43.25 108.67C45.4264 107.552 47.8903 106.922 50.5 106.922C59.3366 106.922 66.5 114.148 66.5 123.061C66.5 131.974 59.3366 139.2 50.5 139.2C41.6634 139.2 34.5 131.974 34.5 123.061C34.5 121.393 34.751 119.783 35.2169 118.27" stroke="#E3E3E3" stroke-linecap="round" stroke-linejoin="round"/>
    <path d="M80.0877 70.1152V75.3222C80.0877 77.2793 78.2441 78.7124 76.3475 78.2295L59.5668 73.9571C58.2375 73.6186 57.307 72.4216 57.307 71.0498V70.1152H48.6963C46.0302 70.1152 44.6887 66.8974 46.5654 65.0036L65.8691 45.5235C67.0428 44.339 68.9572 44.339 70.131 45.5235L73.579 49.003L83.5746 59.0899L89.4347 65.0036C91.3113 66.8974 89.9698 70.1152 87.3037 70.1152H80.0877Z" fill="#EAB669"/>
    <path d="M78 80.1923V65.5662H86.3015C88.9679 65.5662 90.3092 62.3477 88.432 60.4541L81.75 53.714M53.5 65.5662H43.6985C41.0321 65.5662 39.6908 62.3477 41.568 60.4541L62.8695 38.9674C64.0432 37.7835 65.9568 37.7835 67.1305 38.9674L71 42.8705" stroke="#E3E3E3" stroke-linecap="round"/>
    <path d="M58.875 30.8631V36.9475C58.875 37.8251 58.4908 38.6586 57.8236 39.2285L39.9129 54.529C37.9659 56.1923 34.9643 54.8088 34.9643 52.248V30.8631H28.6797C26.0159 30.8631 24.6734 27.6501 26.5453 25.7549L31.4821 20.7565L41.4643 10.65L45.3656 6.70008C46.5401 5.51094 48.4599 5.51094 49.6344 6.70008L68.4547 25.7549C70.3266 27.6501 68.9841 30.8631 66.3203 30.8631H58.875Z" fill="#71A5D2"/>
    <path d="M49.25 44.1304V28.2435H57.8015C60.4679 28.2435 61.8092 25.025 59.932 23.1314L39.1305 2.14901C37.9568 0.965165 36.0432 0.965165 34.8695 2.14901L30.5 6.55652M23.5 77.9217V28.2435H16.1985C13.5321 28.2435 12.1908 25.025 14.068 23.1314L19.75 17.4" stroke="#E3E3E3" stroke-linecap="round"/>
</svg>
