<svg width="142" height="152" viewBox="0 0 142 152" fill="none" xmlns="http://www.w3.org/2000/svg">
    <path d="M140.668 150.834V144.501C140.706 142.036 140.15 139.599 139.048 137.394C137.946 135.19 136.329 133.283 134.335 131.834C125.88 125.38 107.291 112.834 71.0015 112.834C34.7115 112.834 16.1231 125.38 7.66812 131.834C5.67387 133.283 4.05737 135.19 2.95508 137.394" stroke="#E3E3E3" stroke-linecap="round" stroke-linejoin="round"/>
    <path d="M63.7832 139.358L72.1251 116.509C72.4449 115.632 73.684 115.632 74.0038 116.509L82.3457 139.358C82.4791 139.724 82.3885 140.133 82.1135 140.408L73.7716 148.75C73.381 149.141 72.7479 149.141 72.3573 148.75L64.0154 140.408C63.7404 140.133 63.6498 139.724 63.7832 139.358Z" fill="#71A5D2"/>
    <path d="M71 150.832L101.5 120.5" stroke="#E3E3E3" stroke-linecap="round" stroke-linejoin="round"/>
    <path d="M71.0009 150.832L42 122" stroke="#E3E3E3" stroke-linecap="round" stroke-linejoin="round"/>
    <path d="M80.5 141.333L71 115.5L62.5 137.5" stroke="#E3E3E3" stroke-linecap="round" stroke-linejoin="round"/>
    <path d="M29.5 124L23.5 141.334L42.5 150.834" stroke="#E3E3E3" stroke-linecap="round" stroke-linejoin="round"/>
    <path d="M112 123L118.5 141.334L99.5 150.834" stroke="#E3E3E3" stroke-linecap="round" stroke-linejoin="round"/>
    <path d="M83.6673 100.166H58.334" stroke="#E3E3E3" stroke-linecap="round" stroke-linejoin="round"/>
    <path d="M71 1.16602V11.4993" stroke="#E3E3E3" stroke-linecap="round" stroke-linejoin="round"/>
    <path d="M125.667 49.5H115.334" stroke="#E3E3E3" stroke-linecap="round" stroke-linejoin="round"/>
    <path d="M115.333 17.834L109 24.1673" stroke="#E3E3E3" stroke-linecap="round" stroke-linejoin="round"/>
    <path d="M16.334 49.5H26.6673" stroke="#E3E3E3" stroke-linecap="round" stroke-linejoin="round"/>
    <path d="M26.666 17.834L32.9994 24.1673" stroke="#E3E3E3" stroke-linecap="round" stroke-linejoin="round"/>
    <path d="M115.333 81.1674L109 74.834" stroke="#E3E3E3" stroke-linecap="round" stroke-linejoin="round"/>
    <path d="M26.666 81.1674L32.9994 74.834" stroke="#E3E3E3" stroke-linecap="round" stroke-linejoin="round"/>
    <path d="M104.043 51.5859C104.063 46.8866 102.802 42.2675 100.39 38.2076C97.9783 34.1476 94.5035 30.7947 90.326 28.4964C86.1485 26.1981 81.4205 25.0381 76.6322 25.1367C71.8438 25.2353 67.1696 26.5889 63.094 29.0571C59.0185 31.5254 55.69 35.0185 53.4538 39.1741C51.2176 43.3297 50.1551 47.9967 50.3763 52.691C50.5976 57.3853 52.0946 61.9361 54.7122 65.8715C57.3297 69.8069 60.9726 72.9836 65.2629 75.0722V80.856C65.2629 81.6323 65.5772 82.3768 66.1366 82.9257C66.696 83.4747 67.4548 83.783 68.246 83.783H86.1445C86.9357 83.783 87.6944 83.4747 88.2539 82.9257C88.8133 82.3768 89.1276 81.6323 89.1276 80.856V75.0722C93.595 72.9073 97.358 69.5619 99.9931 65.4126C102.628 61.2633 104.031 56.4748 104.043 51.5859Z" fill="#EAB669"/>
    <path d="M99.4997 52.664C99.4867 57.9532 97.9978 63.1338 95.2005 67.6228C92.4033 72.1118 88.4087 75.7311 83.6664 78.0733V84.3306C83.6664 85.1705 83.3328 85.9759 82.7389 86.5698C82.1451 87.1637 81.3396 87.4973 80.4997 87.4973H61.4997C60.6599 87.4973 59.8544 87.1637 59.2606 86.5698C58.6667 85.9759 58.3331 85.1705 58.3331 84.3306V78.0733C53.7787 75.8137 49.9118 72.3769 47.1331 68.1193C44.3545 63.8617 42.7653 58.9383 42.5304 53.8596C42.2956 48.7809 43.4235 43.7319 45.7973 39.236C48.1712 34.7401 51.7044 30.9611 56.0308 28.2907C60.3571 25.6204 65.319 24.1559 70.402 24.0492C75.485 23.9426 80.504 25.1975 84.9385 27.684" stroke="#E3E3E3" stroke-linecap="round" stroke-linejoin="round"/>
</svg>
