<svg width="151" height="132" viewBox="0 0 151 132" fill="none" xmlns="http://www.w3.org/2000/svg">
    <path d="M108.5 34C112.642 34 116 30.6421 116 26.5C116 22.3579 112.642 19 108.5 19C104.358 19 101 22.3579 101 26.5C101 30.6421 104.358 34 108.5 34Z" fill="#CE7783"/>
    <path d="M105.985 37.3153C110.482 37.3153 114.128 33.6696 114.128 29.1723C114.128 24.675 110.482 21.0293 105.985 21.0293C101.488 21.0293 97.8418 24.675 97.8418 29.1723" stroke="#E3E3E3" stroke-linecap="round" stroke-linejoin="round"/>
    <path d="M111.333 4.79859L113.192 10.8959C113.503 11.903 114.183 12.7551 115.097 13.2807C116.01 13.8064 117.089 13.9666 118.116 13.7293L124.298 12.2956C125.47 12.0312 126.696 12.1493 127.796 12.6324C128.896 13.1154 129.812 13.9382 130.41 14.98C131.008 16.0217 131.257 17.2278 131.12 18.4212C130.983 19.6146 130.467 20.7327 129.648 21.6116L125.318 26.3319C124.597 27.1078 124.195 28.1282 124.195 29.1879C124.195 30.2476 124.597 31.268 125.318 32.0439L129.642 36.7133C130.459 37.5925 130.972 38.7099 131.108 39.9021C131.244 41.0942 130.995 42.2986 130.397 43.339C129.799 44.3794 128.884 45.2012 127.786 45.6842C126.688 46.1673 125.464 46.2862 124.293 46.0236L118.133 44.5729C117.106 44.3356 116.027 44.4958 115.114 45.0215C114.2 45.5471 113.52 46.3992 113.209 47.4063L111.333 53.5319C110.988 54.6819 110.282 55.69 109.319 56.4067C108.356 57.1234 107.187 57.5105 105.987 57.5105C104.786 57.5105 103.617 57.1234 102.654 56.4067C101.691 55.69 100.985 54.6819 100.64 53.5319L98.7814 47.4346C98.4705 46.4275 97.7898 45.5754 96.8762 45.0498C95.9627 44.5242 94.884 44.3639 93.857 44.6013L87.6747 46.0349C86.5039 46.2975 85.2798 46.1786 84.1814 45.6956C83.0831 45.2125 82.1681 44.3907 81.5703 43.3503C80.9726 42.3099 80.7234 41.1056 80.8592 39.9134C80.9951 38.7212 81.5088 37.6038 82.3254 36.7246L86.649 32.0553C87.3708 31.2793 87.772 30.2589 87.772 29.1993C87.772 28.1396 87.3708 27.1192 86.649 26.3433L82.3254 21.6796C81.5063 20.8008 80.9904 19.6826 80.8532 18.4892C80.716 17.2958 80.9647 16.0897 81.5629 15.048C82.1611 14.0062 83.0773 13.1835 84.1772 12.7004C85.2771 12.2173 86.5028 12.0992 87.6747 12.3636L93.857 13.7973C94.884 14.0346 95.9627 13.8744 96.8762 13.3487C97.7898 12.8231 98.4705 11.971 98.7814 10.9639L100.634 4.79859C100.978 3.64641 101.684 2.63585 102.648 1.91728C103.611 1.19871 104.781 0.810547 105.984 0.810547C107.186 0.810547 108.356 1.19871 109.32 1.91728C110.284 2.63585 110.99 3.64641 111.333 4.79859V4.79859Z" stroke="#E3E3E3" stroke-linecap="round" stroke-linejoin="round"/>
    <path d="M37.8422 52.5461C38.5332 53.3187 39.3794 53.9368 40.3256 54.36C41.2718 54.7832 42.2967 55.0019 43.3332 55.0019C44.3697 55.0019 45.3946 54.7832 46.3408 54.36C47.287 53.9368 48.1332 53.3187 48.8242 52.5461L52.3999 48.6134C53.4238 47.4784 54.7741 46.6883 56.2652 46.3516C57.7563 46.015 59.3151 46.1483 60.7273 46.7334C62.1396 47.3184 63.3361 48.3264 64.1523 49.6188C64.9686 50.9113 65.3646 52.4248 65.2859 53.9514L65.0139 59.2441C64.9619 60.2781 65.1272 61.3115 65.4993 62.2776C65.8713 63.2437 66.4418 64.1211 67.1738 64.8532C67.9059 65.5853 68.7833 66.1557 69.7494 66.5277C70.7155 66.8998 71.7489 67.0651 72.7829 67.0131L78.0756 66.7411C79.6022 66.6624 81.1157 67.0584 82.4082 67.8747C83.7006 68.6909 84.7086 69.8874 85.2937 71.2997C85.8787 72.7119 86.012 74.2707 85.6754 75.7618C85.3387 77.2529 84.5486 78.6032 83.4136 79.6271L79.4809 83.1801C78.7083 83.8711 78.0902 84.7173 77.667 85.6635C77.2438 86.6097 77.0251 87.6346 77.0251 88.6711C77.0251 89.7076 77.2438 90.7325 77.667 91.6787C78.0902 92.6249 78.7083 93.4711 79.4809 94.1621L83.4136 97.7151C84.5486 98.739 85.3387 100.089 85.6754 101.58C86.012 103.072 85.8787 104.63 85.2937 106.043C84.7086 107.455 83.7006 108.651 82.4082 109.468C81.1157 110.284 79.6022 110.68 78.0756 110.601L72.7829 110.329C71.7489 110.277 70.7155 110.442 69.7494 110.814C68.7833 111.187 67.9059 111.757 67.1738 112.489C66.4418 113.221 65.8713 114.098 65.4993 115.065C65.1272 116.031 64.9619 117.064 65.0139 118.098L65.2859 123.391C65.3646 124.917 64.9686 126.431 64.1523 127.723C63.3361 129.016 62.1396 130.024 60.7273 130.609C59.3151 131.194 57.7563 131.327 56.2652 130.991C54.7741 130.654 53.4238 129.864 52.3999 128.729L48.8469 124.796C48.1559 124.024 47.3097 123.405 46.3635 122.982C45.4173 122.559 44.3924 122.34 43.3559 122.34C42.3194 122.34 41.2945 122.559 40.3483 122.982C39.4021 123.405 38.5559 124.024 37.8649 124.796L34.2666 128.729C33.2426 129.864 31.8924 130.654 30.4012 130.991C28.9101 131.327 27.3514 131.194 25.9391 130.609C24.5268 130.024 23.3304 129.016 22.5141 127.723C21.6979 126.431 21.3019 124.917 21.3806 123.391L21.6526 118.098C21.7046 117.064 21.5392 116.031 21.1672 115.065C20.7951 114.098 20.2247 113.221 19.4926 112.489C18.7606 111.757 17.8832 111.187 16.9171 110.814C15.9509 110.442 14.9175 110.277 13.8836 110.329L8.59089 110.601C7.07 110.67 5.56473 110.269 4.28032 109.452C2.99591 108.634 1.99485 107.441 1.41365 106.033C0.832441 104.626 0.699366 103.074 1.03257 101.588C1.36577 100.103 2.14903 98.7562 3.27555 97.7321L7.20822 94.1791C7.98083 93.4881 8.59892 92.6419 9.0221 91.6957C9.44528 90.7495 9.66401 89.7246 9.66401 88.6881C9.66401 87.6516 9.44528 86.6267 9.0221 85.6805C8.59892 84.7343 7.98083 83.8881 7.20822 83.1971L3.27555 79.6441C2.14051 78.6202 1.35038 77.2699 1.01373 75.7788C0.677083 74.2877 0.810433 72.7289 1.39546 71.3167C1.98049 69.9044 2.98848 68.7079 4.28095 67.8917C5.57342 67.0754 7.08694 66.6794 8.61355 66.7581L13.9062 67.0301C14.9402 67.0821 15.9736 66.9168 16.9397 66.5447C17.9058 66.1727 18.7832 65.6023 19.5153 64.8702C20.2474 64.1381 20.8178 63.2607 21.1898 62.2946C21.5619 61.3285 21.7272 60.2951 21.6752 59.2611L21.4032 53.9514C21.3303 52.4299 21.7286 50.9228 22.544 49.6361C23.3593 48.3493 24.5518 47.3454 25.9588 46.7616C27.3658 46.1777 28.9187 46.0422 30.4056 46.3737C31.8924 46.7051 33.2407 47.4873 34.2666 48.6134L37.8422 52.5461Z" stroke="#E3E3E3" stroke-linecap="round" stroke-linejoin="round"/>
    <path d="M48 99C55.1797 99 61 93.1797 61 86C61 82.0559 59.2436 78.522 56.4703 76.1379C54.1951 74.1821 51.2356 73 48 73C40.8203 73 35 78.8203 35 86C35 93.1797 40.8203 99 48 99Z" fill="#CE7783"/>
    <path d="M58 88.5C58 96.5081 51.5081 103 43.5 103C35.4919 103 29 96.5081 29 88.5C29 80.4919 35.4919 74 43.5 74" stroke="#E3E3E3" stroke-linecap="round" stroke-linejoin="round"/>
    <path d="M150.709 118.902C150.887 119.115 150.988 119.368 150.999 119.629C151.01 119.891 150.93 120.15 150.769 120.372C150.608 120.595 150.373 120.772 150.095 120.881C149.816 120.989 149.506 121.025 149.204 120.983H94.7959C94.4938 121.025 94.1839 120.989 93.9055 120.881C93.627 120.772 93.3925 120.595 93.2315 120.372C93.0705 120.15 92.9903 119.891 93.0009 119.629C93.0116 119.368 93.1127 119.115 93.2915 118.902L120.784 71.8589C121.453 70.7137 122.547 70.7137 123.216 71.8589L150.709 118.902Z" fill="#EAB669"/>
    <path d="M105.081 89.5L115.334 71.9447C116.07 70.6851 117.272 70.6851 118.008 71.9447L148.228 123.69C148.425 123.924 148.536 124.203 148.548 124.49C148.559 124.778 148.471 125.063 148.294 125.308C148.117 125.553 147.859 125.747 147.553 125.867C147.247 125.986 146.907 126.025 146.575 125.979H140M93.4009 109.5L85.1134 123.69C84.9169 123.924 84.8057 124.203 84.794 124.49C84.7823 124.778 84.8705 125.063 85.0474 125.308C85.2244 125.553 85.4822 125.747 85.7883 125.867C86.0944 125.986 86.435 126.025 86.7671 125.979H121.5" stroke="#E3E3E3" stroke-linecap="round" stroke-linejoin="round"/>
    <path d="M116.67 109.342V91.4199" stroke="#1B1B1C" stroke-linecap="round" stroke-linejoin="round"/>
    <path d="M116.645 114.467C116.547 114.468 116.451 114.487 116.362 114.521C116.272 114.554 116.192 114.603 116.125 114.664C116.058 114.725 116.005 114.796 115.971 114.875C115.937 114.953 115.921 115.036 115.924 115.12C115.932 115.288 116.015 115.447 116.157 115.564C116.298 115.681 116.487 115.746 116.684 115.747H116.699C116.796 115.745 116.893 115.727 116.982 115.693C117.071 115.659 117.152 115.611 117.219 115.55C117.286 115.489 117.338 115.417 117.373 115.339C117.407 115.261 117.423 115.178 117.42 115.094C117.412 114.928 117.33 114.77 117.191 114.653C117.052 114.537 116.866 114.47 116.672 114.467H116.657" stroke="#1B1B1C" stroke-linecap="round" stroke-linejoin="round"/>
</svg>
