<svg width="346" height="346" viewBox="0 0 346 346" fill="none" xmlns="http://www.w3.org/2000/svg">
    <path d="M67.576 296.447C67.576 294.967 66.7921 293.547 65.3966 292.501C64.0011 291.454 62.1085 290.866 60.135 290.866H30.3707C28.3973 290.866 26.5046 291.454 25.1091 292.501C23.7137 293.547 22.9297 294.967 22.9297 296.447V335.513H67.576V296.447Z" fill="#CE7783"/>
    <path d="M15.8984 339.643V292.653C15.8984 290.67 16.6863 288.768 18.0888 287.365C19.4912 285.963 21.3933 285.175 23.3767 285.175H53.2897C55.2731 285.175 57.1752 285.963 58.5777 287.365C59.9801 288.768 60.768 290.67 60.768 292.653V331.607" stroke="#E3E3E3" stroke-width="2" stroke-linecap="round" stroke-linejoin="round"/>
    <path d="M157.76 223.153C157.76 221.456 156.976 219.828 155.58 218.628C154.185 217.428 152.292 216.754 150.319 216.754H120.554C118.581 216.754 116.688 217.428 115.293 218.628C113.897 219.828 113.113 221.456 113.113 223.153V331.941H157.76V223.153Z" fill="#EAB669"/>
    <path d="M105.637 339.644V266.312M150.506 337.858V217.871C150.506 215.887 149.718 213.985 148.316 212.583C146.914 211.18 145.011 210.393 143.028 210.393H113.115C111.132 210.393 109.229 211.18 107.827 212.583C106.425 213.985 105.637 215.887 105.637 217.871V233.274" stroke="#E3E3E3" stroke-width="2" stroke-linecap="round" stroke-linejoin="round"/>
    <path d="M247.947 269.213C247.947 267.614 247.163 266.081 245.768 264.951C244.372 263.821 242.48 263.186 240.506 263.186H210.742C208.768 263.186 206.876 263.821 205.48 264.951C204.085 266.081 203.301 267.614 203.301 269.213V335.513H247.947V269.213Z" fill="#CE7783"/>
    <path d="M195.379 327.031V262.74C195.379 260.757 196.167 258.854 197.569 257.452C198.972 256.05 200.874 255.262 202.857 255.262H232.77C234.754 255.262 236.656 256.05 238.058 257.452C239.461 258.854 240.248 260.757 240.248 262.74V277.027M240.248 337.746V307.386" stroke="#E3E3E3" stroke-width="2" stroke-linecap="round" stroke-linejoin="round"/>
    <path d="M342.596 157.373C342.596 155.597 341.812 153.893 340.416 152.637C339.021 151.381 337.128 150.676 335.154 150.676H305.39C303.417 150.676 301.524 151.381 300.129 152.637C298.733 153.893 297.949 155.597 297.949 157.373V338.19H342.596V157.373Z" fill="#71A5D2"/>
    <path d="M285.113 338.19V219.877M329.983 330.154V143.086C329.983 141.102 329.195 139.2 327.793 137.798C326.39 136.395 324.488 135.607 322.505 135.607H292.592C290.608 135.607 288.706 136.395 287.304 137.798C285.901 139.2 285.113 141.102 285.113 143.086V175.231" stroke="#E3E3E3" stroke-width="2" stroke-linecap="round" stroke-linejoin="round"/>
    <path d="M1 345H345" stroke="#E3E3E3" stroke-width="2" stroke-linecap="round" stroke-linejoin="round"/>
    <path d="M52.0625 121.94L86.3268 87.7266" stroke="#E3E3E3" stroke-width="2" stroke-linecap="round" stroke-linejoin="round"/>
    <path d="M139.027 75.9004L169.818 93.5305" stroke="#E3E3E3" stroke-width="2" stroke-linecap="round" stroke-linejoin="round"/>
    <path d="M226.43 94.6927L275.628 53.7949" stroke="#E3E3E3" stroke-width="2" stroke-linecap="round" stroke-linejoin="round"/>
    <path d="M307.608 1C291.088 1 277.695 14.3925 277.695 30.913C277.695 47.4336 291.088 60.8261 307.608 60.8261C324.129 60.8261 337.521 47.4336 337.521 30.913C337.521 21.9895 333.614 13.9785 327.417 8.49784" stroke="#E3E3E3" stroke-width="2" stroke-linecap="round" stroke-linejoin="round"/>
    <path d="M232.826 113.174C232.826 96.6533 219.434 83.2607 202.913 83.2607C186.393 83.2607 173 96.6533 173 113.174C173 129.694 186.393 143.087 202.913 143.087C212.938 143.087 221.811 138.155 227.239 130.586" stroke="#E3E3E3" stroke-width="2" stroke-linecap="round" stroke-linejoin="round"/>
    <path d="M97.0428 35.6325C101.697 32.646 107.234 30.9141 113.175 30.9141C129.695 30.9141 143.088 44.3066 143.088 60.8271C143.088 77.3476 129.695 90.7402 113.175 90.7402C96.6542 90.7402 83.2617 77.3476 83.2617 60.8271C83.2617 58.0836 83.6311 55.4264 84.3227 52.9024" stroke="#E3E3E3" stroke-width="2" stroke-linecap="round" stroke-linejoin="round"/>
    <path d="M1.85938 135.943C5.06213 122.872 16.8555 113.174 30.9141 113.174C47.4347 113.174 60.8272 126.566 60.8272 143.087C60.8272 159.607 47.4347 173 30.9141 173C18.6825 173 8.16551 165.658 3.52931 155.141" stroke="#E3E3E3" stroke-width="2" stroke-linecap="round" stroke-linejoin="round"/>
</svg>
