<svg width="400" height="281" viewBox="0 0 400 281" fill="none" xmlns="http://www.w3.org/2000/svg">
    <g clip-path="url(#clip0_7947_7212)">
        <path d="M158.426 241.221H199.095" stroke="#E3E3E3" stroke-width="2" stroke-linecap="round" stroke-linejoin="round"/>
        <path d="M337.371 134.814H361.773" stroke="#E3E3E3" stroke-width="2" stroke-linecap="round" stroke-linejoin="round"/>
        <path d="M65.6992 268.006H85.2205" stroke="#E3E3E3" stroke-width="2" stroke-linecap="round" stroke-linejoin="round"/>
        <path d="M318.66 235.52H334.928" stroke="#E3E3E3" stroke-width="2" stroke-linecap="round" stroke-linejoin="round"/>
        <path d="M29.0938 96.6445H48.615" stroke="#E3E3E3" stroke-width="2" stroke-linecap="round" stroke-linejoin="round"/>
        <path d="M20.1484 169.736H29.9091" stroke="#E3E3E3" stroke-width="2" stroke-linecap="round" stroke-linejoin="round"/>
        <path d="M253.59 238.77H263.35" stroke="#E3E3E3" stroke-width="2" stroke-linecap="round" stroke-linejoin="round"/>
        <path d="M271.484 53.6016H281.245" stroke="#E3E3E3" stroke-width="2" stroke-linecap="round" stroke-linejoin="round"/>
        <path d="M140.531 38.1699H150.292" stroke="#E3E3E3" stroke-width="2" stroke-linecap="round" stroke-linejoin="round"/>
        <path d="M158.426 257.465H199.095" stroke="#E3E3E3" stroke-width="2" stroke-linecap="round" stroke-linejoin="round"/>
        <path d="M337.371 144.561H361.773" stroke="#E3E3E3" stroke-width="2" stroke-linecap="round" stroke-linejoin="round"/>
        <path d="M65.6992 275.314H85.2205" stroke="#E3E3E3" stroke-width="2" stroke-linecap="round" stroke-linejoin="round"/>
        <path d="M318.66 242.018H334.928" stroke="#E3E3E3" stroke-width="2" stroke-linecap="round" stroke-linejoin="round"/>
        <path d="M29.0938 103.953H48.615" stroke="#E3E3E3" stroke-width="2" stroke-linecap="round" stroke-linejoin="round"/>
        <path d="M20.1484 173.797H29.9091" stroke="#E3E3E3" stroke-width="2" stroke-linecap="round" stroke-linejoin="round"/>
        <path d="M253.59 242.83H263.35" stroke="#E3E3E3" stroke-width="2" stroke-linecap="round" stroke-linejoin="round"/>
        <path d="M271.484 57.6621H281.245" stroke="#E3E3E3" stroke-width="2" stroke-linecap="round" stroke-linejoin="round"/>
        <path d="M140.531 42.2305H150.292" stroke="#E3E3E3" stroke-width="2" stroke-linecap="round" stroke-linejoin="round"/>
        <path d="M178.758 257.465V265.586" stroke="#E3E3E3" stroke-width="2" stroke-linecap="round" stroke-linejoin="round"/>
        <path d="M349.57 144.561V149.433" stroke="#E3E3E3" stroke-width="2" stroke-linecap="round" stroke-linejoin="round"/>
        <path d="M75.457 275.314V279.375" stroke="#E3E3E3" stroke-width="2" stroke-linecap="round" stroke-linejoin="round"/>
        <path d="M326.797 242.018V245.266" stroke="#E3E3E3" stroke-width="2" stroke-linecap="round" stroke-linejoin="round"/>
        <path d="M38.8555 103.953V108.014" stroke="#E3E3E3" stroke-width="2" stroke-linecap="round" stroke-linejoin="round"/>
        <path d="M25.0273 173.797V175.421" stroke="#E3E3E3" stroke-width="2" stroke-linecap="round" stroke-linejoin="round"/>
        <path d="M258.469 242.83V244.454" stroke="#E3E3E3" stroke-width="2" stroke-linecap="round" stroke-linejoin="round"/>
        <path d="M276.363 57.6621V59.2864" stroke="#E3E3E3" stroke-width="2" stroke-linecap="round" stroke-linejoin="round"/>
        <path d="M145.41 42.2305V43.8547" stroke="#E3E3E3" stroke-width="2" stroke-linecap="round" stroke-linejoin="round"/>
        <path d="M173.901 208.156C173.901 209.167 174.303 210.137 175.019 210.852C175.735 211.567 176.707 211.968 177.719 211.968H208.267C209.279 211.968 210.251 211.567 210.967 210.852C211.683 210.137 212.085 209.167 212.085 208.156V201.76C226.055 198.27 238.485 190.287 247.457 179.042C256.428 167.797 261.442 153.916 261.724 139.544C261.203 121.857 253.673 105.099 240.786 92.9498C227.9 80.8004 210.711 74.2521 192.993 74.7425C175.275 74.2521 158.086 80.8004 145.2 92.9498C132.313 105.099 124.783 121.857 124.262 139.544C124.544 153.916 129.558 167.797 138.529 179.042C147.501 190.287 159.931 198.27 173.901 201.76V208.156Z" fill="#EAB669"/>
        <path d="M251.964 147.805C251.664 163.117 246.324 177.903 236.768 189.882C227.213 201.861 213.973 210.366 199.094 214.084V220.898C199.094 221.975 198.666 223.008 197.903 223.769C197.14 224.531 196.106 224.958 195.027 224.958H162.492C161.413 224.958 160.379 224.531 159.616 223.769C158.853 223.008 158.425 221.975 158.425 220.898V214.084C150.754 212.167 143.519 208.978 137 204.697M229.664 98.1695C215.939 85.2269 197.631 78.2511 178.76 78.7735C159.888 78.2511 141.58 85.2269 127.855 98.1695C114.13 111.112 106.11 128.964 105.555 147.805C105.855 163.117 111.195 177.903 120.751 189.882" stroke="#E3E3E3" stroke-width="2" stroke-linecap="round" stroke-linejoin="round"/>
        <path d="M349.074 113.114C349.074 113.7 349.307 114.262 349.722 114.677C350.138 115.091 350.701 115.324 351.288 115.324H369.002C369.589 115.324 370.152 115.091 370.568 114.677C370.983 114.262 371.216 113.7 371.216 113.114V109.405C379.317 107.381 386.525 102.751 391.728 96.2305C396.93 89.7098 399.837 81.6608 400.001 73.3262C399.699 63.07 395.332 53.3526 387.86 46.3074C380.387 39.2622 370.419 35.4649 360.145 35.7493C349.871 35.4649 339.903 39.2622 332.431 46.3074C324.958 53.3526 320.591 63.07 320.289 73.3262C320.453 81.6608 323.36 89.7098 328.563 96.2305C333.765 102.751 340.973 107.381 349.074 109.405V113.114Z" fill="#71A5D2"/>
        <path d="M319.029 49.0093C327.264 41.2452 338.249 37.0605 349.571 37.3738C360.894 37.0605 371.879 41.2452 380.114 49.0093C388.349 56.7734 393.161 67.4824 393.494 78.7852C393.314 87.9702 390.11 96.8406 384.377 104.027C378.643 111.213 370.7 116.315 361.772 118.545V122.632C361.772 123.279 361.515 123.898 361.057 124.355C360.6 124.812 359.979 125.068 359.332 125.068H339.811C339.164 125.068 338.543 124.812 338.085 124.355C337.628 123.898 337.371 123.279 337.371 122.632V118.545C328.443 116.315 320.5 111.213 314.766 104.027C309.033 96.8406 305.829 87.9702 305.648 78.7852" stroke="#E3E3E3" stroke-width="2" stroke-linecap="round" stroke-linejoin="round"/>
        <path d="M67.0988 245.199C67.0988 245.648 67.2749 246.078 67.5885 246.395C67.9021 246.713 68.3273 246.891 68.7708 246.891H82.1465C82.5899 246.891 83.0152 246.713 83.3287 246.395C83.6423 246.078 83.8184 245.648 83.8184 245.199V242.361C89.9353 240.812 95.3782 237.269 99.3066 232.279C103.235 227.288 105.43 221.128 105.554 214.75C105.326 206.901 102.028 199.464 96.3859 194.072C90.7434 188.68 83.2168 185.774 75.4586 185.992C67.7004 185.774 60.1738 188.68 54.5313 194.072C48.8888 199.464 45.5915 206.901 45.3633 214.75C45.4868 221.128 47.6822 227.288 51.6106 232.279C55.539 237.269 60.9819 240.812 67.0988 242.361V245.199Z" fill="#71A5D2"/>
        <path d="M108.807 225.127C108.67 232.186 106.238 239.003 101.884 244.526C97.5313 250.048 91.5 253.969 84.7218 255.683V258.824C84.7218 259.321 84.5266 259.797 84.1792 260.148C83.8317 260.499 83.3605 260.697 82.8691 260.697H68.0474C67.556 260.697 67.0848 260.499 66.7373 260.148C66.3899 259.797 66.1947 259.321 66.1947 258.824V255.683C59.4165 253.969 53.3852 250.048 49.0321 244.526C44.679 239.003 42.2462 232.186 42.1094 225.127C42.3623 216.441 46.0161 208.211 52.2686 202.244C58.5211 196.277 66.8613 193.061 75.4583 193.302C84.0552 193.061 92.3954 196.277 98.648 202.244" stroke="#E3E3E3" stroke-width="2" stroke-linecap="round" stroke-linejoin="round"/>
        <path d="M327.701 219.457C327.701 219.84 327.853 220.207 328.124 220.478C328.395 220.749 328.763 220.901 329.147 220.901H340.715C341.098 220.901 341.466 220.749 341.737 220.478C342.009 220.207 342.161 219.84 342.161 219.457V217.035C347.451 215.713 352.158 212.69 355.556 208.431C358.954 204.173 360.852 198.917 360.959 193.474C360.762 186.776 357.91 180.43 353.03 175.829C348.15 171.228 341.641 168.748 334.931 168.934C328.221 168.748 321.711 171.228 316.831 175.829C311.951 180.43 309.1 186.776 308.902 193.474C309.009 198.917 310.908 204.173 314.305 208.431C317.703 212.69 322.41 215.713 327.701 217.035V219.457Z" fill="#CE7783"/>
        <path d="M355.265 199.025C355.148 204.978 353.072 210.728 349.356 215.385C345.64 220.043 340.491 223.35 334.705 224.795V227.445C334.705 227.863 334.538 228.265 334.241 228.561C333.945 228.857 333.542 229.024 333.123 229.024H320.47C320.051 229.024 319.649 228.857 319.352 228.561C319.055 228.265 318.889 227.863 318.889 227.445V224.795C313.102 223.35 307.954 220.043 304.238 215.385C300.522 210.728 298.445 204.978 298.328 199.025C298.544 191.699 301.663 184.758 307.001 179.726C312.338 174.694 319.458 171.981 326.797 172.184C334.136 171.981 341.255 174.694 346.593 179.726" stroke="#E3E3E3" stroke-width="2" stroke-linecap="round" stroke-linejoin="round"/>
        <path d="M23.5354 75.3942C23.5354 75.8608 23.7211 76.3082 24.0516 76.6382C24.3821 76.9681 24.8304 77.1535 25.2978 77.1535H39.3965C39.8639 77.1535 40.3121 76.9681 40.6426 76.6382C40.9731 76.3082 41.1588 75.8608 41.1588 75.3942V72.442C47.6063 70.8313 53.3434 67.1465 57.4842 61.9566C61.6249 56.7667 63.9391 50.3603 64.0692 43.7267C63.8287 35.5636 60.3531 27.8293 54.4056 22.2219C48.4581 16.6145 40.5247 13.5922 32.3471 13.8185C24.1695 13.5922 16.2361 16.6145 10.2886 22.2219C4.34111 27.8293 0.865571 35.5636 0.625 43.7267C0.75517 50.3603 3.06929 56.7667 7.21004 61.9566C11.3508 67.1465 17.0879 70.8313 23.5354 72.442V75.3942Z" fill="#CE7783"/>
        <path d="M66.5698 71.7681C62.0043 77.4903 55.6789 81.5531 48.57 83.329V86.5839C48.57 87.0983 48.3653 87.5917 48.0009 87.9555C47.6365 88.3193 47.1423 88.5236 46.6269 88.5236H31.0822C30.5669 88.5236 30.0726 88.3193 29.7082 87.9555C29.3438 87.5917 29.1391 87.0983 29.1391 86.5839V83.329C22.0303 81.5531 15.7048 77.4903 11.1393 71.7681C6.57389 66.0459 4.02243 58.9825 3.87891 51.6684C4.14415 42.6681 7.97616 34.1406 14.5337 27.958C21.0912 21.7755 29.8382 18.4432 38.8546 18.6928C47.8709 18.4432 56.618 21.7755 63.1755 27.958C69.733 34.1406 73.565 42.6681 73.8302 51.6684" stroke="#E3E3E3" stroke-width="2" stroke-linecap="round" stroke-linejoin="round"/>
        <path d="M25.0295 133.197C29.2231 133.081 33.2915 134.631 36.3415 137.507C39.3915 140.383 41.1738 144.349 41.2972 148.535C41.2305 151.937 40.0437 155.222 37.9203 157.884C35.7968 160.545 32.8547 162.435 29.5483 163.261V164.775C29.5483 165.014 29.4531 165.244 29.2836 165.413C29.1141 165.582 28.8842 165.677 28.6445 165.677H21.4144C21.1747 165.677 20.9448 165.582 20.7754 165.413C20.6059 165.244 20.5106 165.014 20.5106 164.775V163.261C17.2042 162.435 14.2621 160.545 12.1387 157.884C10.0152 155.222 8.82847 151.937 8.76172 148.535" stroke="#E3E3E3" stroke-width="2" stroke-linecap="round" stroke-linejoin="round"/>
        <path d="M242.203 217.566C242.326 213.38 244.109 209.414 247.159 206.538C250.209 203.663 254.277 202.113 258.471 202.229C262.665 202.113 266.733 203.663 269.783 206.538C272.833 209.414 274.615 213.38 274.739 217.566C274.672 220.968 273.485 224.253 271.362 226.915C269.238 229.576 266.296 231.466 262.99 232.292V233.806C262.99 234.045 262.895 234.275 262.725 234.444C262.556 234.613 262.326 234.708 262.086 234.708H254.856C254.616 234.708 254.386 234.613 254.217 234.444C254.047 234.275 253.952 234.045 253.952 233.806V232.292C252.126 231.836 250.412 231.056 248.885 230" stroke="#E3E3E3" stroke-width="2" stroke-linecap="round" stroke-linejoin="round"/>
        <path d="M287.677 21.3702C290.727 24.2458 292.51 28.2121 292.633 32.3983C292.566 35.8002 291.38 39.0855 289.256 41.747C287.133 44.4085 284.191 46.2981 280.884 47.1241V48.638C280.884 48.8773 280.789 49.1068 280.619 49.276C280.45 49.4452 280.22 49.5402 279.98 49.5402H272.75C272.511 49.5402 272.281 49.4452 272.111 49.276C271.942 49.1068 271.847 48.8773 271.847 48.638V47.1241C268.54 46.2981 265.598 44.4085 263.475 41.747C261.351 39.0855 260.164 35.8002 260.098 32.3983C260.221 28.2121 262.003 24.2458 265.053 21.3702C268.103 18.4946 272.172 16.9447 276.365 17.0608" stroke="#E3E3E3" stroke-width="2" stroke-linecap="round" stroke-linejoin="round"/>
        <path d="M129.141 16.9686C129.264 12.7824 131.046 8.81611 134.096 5.94051C137.146 3.06492 141.215 1.51502 145.408 1.63108C149.602 1.51502 153.67 3.06492 156.72 5.94051C159.77 8.81611 161.553 12.7824 161.676 16.9686C161.609 20.3705 160.423 23.6558 158.299 26.3173C156.176 28.9788 153.234 30.8684 149.927 31.6944V33.2083C149.927 33.4476 149.832 33.6771 149.662 33.8463C149.493 34.0155 149.263 34.1105 149.023 34.1105H141.793C141.554 34.1105 141.324 34.0155 141.154 33.8463C140.985 33.6771 140.89 33.4476 140.89 33.2083V31.6944C139.427 31.3292 138.037 30.756 136.756 30" stroke="#E3E3E3" stroke-width="2" stroke-linecap="round" stroke-linejoin="round"/>
        <path d="M190.944 127.506H177.116C174.833 127.489 172.606 128.209 170.767 129.561C168.928 130.912 167.577 132.821 166.915 135.003C166.253 137.185 166.316 139.522 167.095 141.665C167.874 143.808 169.326 145.642 171.236 146.892L186.202 156.849C188.108 158.097 189.558 159.926 190.338 162.064C191.118 164.202 191.185 166.535 190.529 168.714C189.874 170.893 188.53 172.803 186.7 174.158C184.869 175.513 182.649 176.241 180.37 176.234H166.542" stroke="#161617" stroke-width="2" stroke-linecap="round" stroke-linejoin="round"/>
        <path d="M182.824 127.522V119.4" stroke="#161617" stroke-width="2" stroke-linecap="round" stroke-linejoin="round"/>
        <path d="M174.691 184.371V176.25" stroke="#161617" stroke-width="2" stroke-linecap="round" stroke-linejoin="round"/>
        <path d="M178.758 35.7344V62.941" stroke="#E3E3E3" stroke-width="2" stroke-linecap="round"/>
        <path d="M242.812 53.6016L229.188 77.1632" stroke="#E3E3E3" stroke-width="2" stroke-linecap="round"/>
        <path d="M285.219 95.9395L261.621 109.543" stroke="#E3E3E3" stroke-width="2" stroke-linecap="round"/>
        <path d="M295.48 154.307L268.232 154.307" stroke="#E3E3E3" stroke-width="2" stroke-linecap="round"/>
        <path d="M88.8789 154.307L61.6304 154.307" stroke="#E3E3E3" stroke-width="2" stroke-linecap="round"/>
        <path d="M72.2031 95.9395L95.801 109.543" stroke="#E3E3E3" stroke-width="2" stroke-linecap="round"/>
        <path d="M114.5 53.6016L128.124 77.1632" stroke="#E3E3E3" stroke-width="2" stroke-linecap="round"/>
    </g>
    <defs>
        <clipPath id="clip0_7947_7212">
            <rect width="400" height="281" fill="white"/>
        </clipPath>
    </defs>
</svg>
