<svg width="331" height="260" viewBox="0 0 331 260" fill="none" xmlns="http://www.w3.org/2000/svg">
<path d="M92.7915 75.2673C92.7915 75.5255 92.7244 75.7792 92.5966 76.0041C92.4687 76.2289 92.2845 76.4174 92.0617 76.5509L72.3674 88.4169C72.1791 88.5298 71.9683 88.6007 71.7496 88.6248C71.5308 88.6488 71.3094 88.6255 71.1007 88.5562L44.6654 79.757C44.3646 79.6564 44.1031 79.4648 43.9178 79.2091C43.7326 78.9533 43.6329 78.6463 43.6328 78.3314V57.5051C43.6331 57.1969 43.7289 56.8961 43.9072 56.6436C44.0855 56.3911 44.3377 56.199 44.6296 56.0932L65.4915 48.5612C65.7507 48.4678 66.0308 48.447 66.3011 48.5011L91.5743 53.4442C91.9184 53.5112 92.2285 53.6946 92.4514 53.963C92.6744 54.2315 92.7965 54.5684 92.797 54.9162V65.8182C92.7763 70.5228 92.7979 70.6534 92.7915 75.2673Z" fill="url(#paint0_linear_13918_3498)"/>
<path d="M70.7012 87.2408C70.6257 87.2412 70.5506 87.229 70.479 87.2049L42.7281 77.9813C42.5884 77.9348 42.4669 77.846 42.3807 77.7276C42.2946 77.6092 42.248 77.4671 42.2476 77.3211V71.1178C42.2483 71.0816 42.2631 71.047 42.289 71.0214C42.3149 70.9958 42.3498 70.981 42.3864 70.9803C42.4233 70.9803 42.4586 70.9948 42.4846 71.0206C42.5107 71.0464 42.5253 71.0814 42.5253 71.1178V77.3211C42.5255 77.4095 42.5537 77.4956 42.6061 77.5672C42.6584 77.6388 42.7322 77.6922 42.817 77.7199L70.5651 86.9437C70.6245 86.9637 70.6876 86.9706 70.75 86.964C70.8123 86.9573 70.8725 86.9372 70.9262 86.9051L88.8139 76.1437C88.8294 76.1341 88.8467 76.1276 88.8647 76.1246C88.8827 76.1216 88.9012 76.1223 88.919 76.1264C88.9368 76.1304 88.9536 76.138 88.9685 76.1485C88.9833 76.1591 88.9959 76.1724 89.0056 76.1877C89.0152 76.2032 89.0215 76.2204 89.0243 76.2384C89.0271 76.2563 89.0263 76.2747 89.0219 76.2924C89.0176 76.31 89.0097 76.3267 88.9988 76.3413C88.9878 76.3559 88.9741 76.3682 88.9584 76.3775L71.0707 87.139C70.9594 87.206 70.8315 87.2413 70.7012 87.2408Z" fill="white"/>
<path d="M42.3864 59.9471C42.3496 59.9471 42.3143 59.9326 42.2882 59.9068C42.2622 59.881 42.2476 59.846 42.2476 59.8096V54.9955C42.2483 54.8526 42.2931 54.7133 42.376 54.5963C42.4589 54.4793 42.576 54.3902 42.7114 54.3409L64.6377 46.4376C64.7584 46.3933 64.8892 46.3827 65.0155 46.4072L77.073 48.762C77.0909 48.7656 77.1079 48.7727 77.123 48.7828C77.1381 48.7929 77.1511 48.8059 77.1611 48.821C77.1712 48.836 77.1782 48.8529 77.1816 48.8707C77.1851 48.8884 77.185 48.9067 77.1814 48.9244C77.178 48.942 77.1712 48.9587 77.1613 48.9737C77.1513 48.9887 77.1385 49.0015 77.1235 49.0114C77.1085 49.0214 77.0917 49.0284 77.0739 49.0319C77.0562 49.0353 77.038 49.0352 77.0203 49.0316L64.9599 46.6768C64.8846 46.6625 64.8067 46.6692 64.735 46.6962L42.8059 54.5994C42.7246 54.63 42.6546 54.6841 42.605 54.7548C42.5554 54.8255 42.5286 54.9094 42.5281 54.9955V59.8096C42.5281 59.8278 42.5244 59.846 42.5173 59.8629C42.5101 59.8797 42.4996 59.8949 42.4864 59.9077C42.4733 59.9205 42.4576 59.9307 42.4404 59.9374C42.4233 59.9442 42.4049 59.9475 42.3864 59.9471Z" fill="white"/>
<path d="M91.9764 64.2908C91.9396 64.2908 91.9042 64.2763 91.8782 64.2505C91.8521 64.2247 91.8375 64.1897 91.8375 64.1532V52.2639C91.8368 52.1664 91.8022 52.072 91.7395 51.9969C91.6767 51.9217 91.5897 51.8703 91.4931 51.8513L87.0128 50.9766C86.9766 50.9692 86.9447 50.9481 86.9239 50.9177C86.9031 50.8874 86.8952 50.8502 86.9017 50.8142C86.9098 50.7788 86.9313 50.7479 86.9618 50.7279C86.9924 50.7079 87.0296 50.7004 87.0656 50.707L91.5486 51.5817C91.7059 51.6156 91.8468 51.7018 91.9478 51.8259C92.0489 51.95 92.104 52.1045 92.1042 52.2639V64.1532C92.1036 64.1877 92.0903 64.2208 92.0668 64.2462C92.0432 64.2715 92.011 64.2874 91.9764 64.2908Z" fill="white"/>
<path d="M69.8936 60.6207L62.2525 58.9921C62.2168 58.9841 62.1855 58.9628 62.1653 58.9326C62.1451 58.9023 62.1375 58.8655 62.1442 58.8298C62.1478 58.8118 62.155 58.7948 62.1654 58.7796C62.1758 58.7644 62.1891 58.7514 62.2047 58.7414C62.2202 58.7314 62.2376 58.7247 62.2558 58.7214C62.2741 58.7182 62.2927 58.7185 62.3108 58.7225L69.8687 60.3346L91.7561 51.7436C91.7731 51.7369 91.7912 51.7336 91.8095 51.7338C91.8277 51.7341 91.8457 51.7378 91.8625 51.745C91.8793 51.7521 91.8944 51.7625 91.9072 51.7755C91.9199 51.7884 91.9299 51.8038 91.9366 51.8206C91.9434 51.8374 91.9468 51.8553 91.9465 51.8734C91.9463 51.8915 91.9424 51.9094 91.9352 51.926C91.928 51.9427 91.9175 51.9576 91.9044 51.9702C91.8913 51.9828 91.8758 51.9927 91.8589 51.9994L69.8936 60.6207Z" fill="white"/>
<path d="M51.2528 56.646H51.225L42.4784 54.7809C42.4605 54.7773 42.4435 54.7702 42.4284 54.7601C42.4133 54.75 42.4003 54.737 42.3903 54.722C42.3802 54.7069 42.3732 54.69 42.3698 54.6723C42.3663 54.6545 42.3664 54.6362 42.3701 54.6185C42.3781 54.5826 42.4 54.5512 42.4312 54.5311C42.4624 54.511 42.5003 54.504 42.5367 54.5113L51.2833 56.3791C51.3011 56.3826 51.318 56.3897 51.333 56.3999C51.348 56.41 51.3608 56.423 51.3707 56.4382C51.3805 56.4533 51.3872 56.4703 51.3903 56.488C51.3934 56.5057 51.393 56.5239 51.3889 56.5415C51.3819 56.5717 51.3645 56.5987 51.3397 56.6177C51.3149 56.6368 51.2842 56.6467 51.2528 56.646Z" fill="white"/>
<path d="M70.7666 87.2354C70.7307 87.2354 70.6962 87.2216 70.6703 87.197C70.6444 87.1723 70.6292 87.1389 70.6277 87.1033L69.7417 60.4969C69.7409 60.4786 69.7439 60.4603 69.7504 60.4431C69.7568 60.426 69.7667 60.4104 69.7794 60.3971C69.7921 60.3837 69.8073 60.373 69.8242 60.3656C69.8411 60.3582 69.8593 60.3542 69.8778 60.3538C69.9139 60.3545 69.9485 60.3688 69.9743 60.3938C70.0001 60.4189 70.0153 60.4529 70.0167 60.4887L70.9027 87.1088C70.9035 87.1268 70.9006 87.1446 70.8943 87.1614C70.8879 87.1782 70.8783 87.1936 70.8658 87.2066C70.8534 87.2197 70.8385 87.2302 70.8219 87.2375C70.8054 87.2448 70.7875 87.2487 70.7694 87.2491L70.7666 87.2354Z" fill="white"/>
<path d="M242.366 57.6607V78.8464C242.367 79.1666 242.468 79.4786 242.656 79.7387C242.844 79.9987 243.109 80.1938 243.414 80.2964L270.226 89.2475C270.437 89.3181 270.662 89.3417 270.884 89.3168C271.106 89.2918 271.32 89.2189 271.51 89.103L291.485 77.0351C291.711 76.8987 291.897 76.7069 292.026 76.4782C292.155 76.2495 292.223 75.9916 292.223 75.7293V55.0271C292.223 54.6736 292.1 54.3309 291.874 54.0578C291.648 53.7847 291.334 53.598 290.986 53.5297L265.352 48.5015C265.077 48.4467 264.792 48.4677 264.528 48.5625L243.377 56.2189C243.08 56.3268 242.824 56.5231 242.643 56.7811C242.462 57.039 242.365 57.3462 242.366 57.6607Z" fill="url(#paint1_linear_13918_3498)"/>
<path d="M269.431 87.9415C269.355 87.942 269.279 87.9296 269.206 87.905L255.947 83.4282C255.929 83.4228 255.913 83.4139 255.899 83.4021C255.885 83.3902 255.874 83.3756 255.865 83.3592C255.857 83.3427 255.852 83.3247 255.851 83.3063C255.85 83.2879 255.852 83.2694 255.858 83.2519C255.87 83.2171 255.895 83.1884 255.928 83.1717C255.96 83.155 255.998 83.1517 256.033 83.1624L269.295 87.6393C269.354 87.6588 269.416 87.6655 269.477 87.6587C269.539 87.6519 269.598 87.6319 269.651 87.6001L290.358 74.925C290.42 74.8864 290.471 74.8325 290.506 74.7683C290.542 74.7042 290.56 74.6319 290.56 74.5585V67.8432C290.56 67.8061 290.575 67.7705 290.601 67.7443C290.627 67.718 290.662 67.7033 290.699 67.7033C290.736 67.7033 290.771 67.718 290.797 67.7443C290.823 67.7705 290.838 67.8061 290.838 67.8432V74.5585C290.838 74.6804 290.806 74.8001 290.747 74.9063C290.688 75.0126 290.602 75.1018 290.499 75.1656L269.795 87.8267C269.687 87.8987 269.561 87.9385 269.431 87.9415Z" fill="white"/>
<path d="M245.144 79.7629C245.13 79.7655 245.116 79.7655 245.102 79.7629L241.459 78.5316C241.32 78.4842 241.199 78.3939 241.113 78.2734C241.027 78.1529 240.981 78.0084 240.981 77.8601V55.1429C240.982 54.9981 241.026 54.8569 241.109 54.7383C241.191 54.6197 241.308 54.5295 241.442 54.4797L263.379 46.4382C263.499 46.3932 263.629 46.3826 263.754 46.4074L275.278 48.699C275.314 48.7058 275.346 48.7267 275.367 48.7571C275.388 48.7875 275.396 48.825 275.389 48.8613C275.382 48.8979 275.361 48.9299 275.33 48.9508C275.299 48.9717 275.262 48.9798 275.225 48.9732L263.702 46.6817C263.625 46.6671 263.547 46.6738 263.474 46.7012L241.537 54.74C241.455 54.7707 241.385 54.8258 241.335 54.8978C241.286 54.9697 241.259 55.0552 241.259 55.1429V77.8601C241.258 77.9484 241.285 78.0347 241.334 78.1073C241.384 78.1799 241.455 78.2354 241.537 78.2659L245.177 79.497C245.195 79.5024 245.211 79.5112 245.225 79.5231C245.239 79.535 245.251 79.5497 245.259 79.5662C245.267 79.5826 245.272 79.6006 245.273 79.619C245.275 79.6374 245.272 79.6558 245.266 79.6733C245.256 79.6983 245.239 79.72 245.218 79.7358C245.196 79.7517 245.171 79.7611 245.144 79.7629Z" fill="white"/>
<path d="M290.699 57.048C290.662 57.048 290.627 57.0332 290.6 57.007C290.574 56.9807 290.56 56.9452 290.56 56.9081V52.3752C290.559 52.2765 290.524 52.1812 290.462 52.1049C290.4 52.0286 290.314 51.9758 290.218 51.9555L284.337 50.7887C284.301 50.7813 284.269 50.7599 284.248 50.729C284.227 50.6982 284.219 50.6603 284.226 50.6237C284.229 50.6055 284.236 50.5881 284.246 50.5727C284.256 50.5573 284.269 50.5441 284.285 50.5339C284.3 50.5237 284.317 50.5167 284.335 50.5134C284.353 50.5101 284.372 50.5104 284.39 50.5145L290.271 51.6813C290.428 51.7157 290.569 51.8034 290.67 51.9296C290.771 52.0559 290.826 52.213 290.826 52.3752V56.9081C290.827 56.9433 290.813 56.9773 290.79 57.0033C290.766 57.0292 290.734 57.0451 290.699 57.048Z" fill="white"/>
<path d="M268.626 60.8675L259.924 58.9788C259.888 58.9701 259.857 58.9478 259.837 58.9165C259.818 58.8851 259.811 58.8472 259.818 58.8109C259.822 58.7928 259.83 58.7759 259.84 58.7607C259.851 58.7456 259.864 58.7326 259.88 58.7228C259.895 58.7129 259.912 58.7062 259.93 58.7031C259.949 58.7 259.967 58.7005 259.985 58.7046L268.593 60.5737L290.475 51.8355C290.492 51.8286 290.51 51.8252 290.528 51.8255C290.546 51.8257 290.564 51.8295 290.581 51.8368C290.598 51.8441 290.613 51.8546 290.626 51.8678C290.638 51.881 290.648 51.8966 290.655 51.9137C290.668 51.9483 290.667 51.9865 290.653 52.0204C290.638 52.0544 290.611 52.0813 290.577 52.0956L268.626 60.8675Z" fill="white"/>
<path d="M248.435 56.4887H248.405L241.216 54.9274C241.198 54.9237 241.181 54.9165 241.166 54.9062C241.151 54.8959 241.138 54.8826 241.128 54.8673C241.118 54.8519 241.112 54.8347 241.109 54.8167C241.106 54.7987 241.106 54.7802 241.11 54.7623C241.114 54.7444 241.121 54.7273 241.131 54.7122C241.141 54.6971 241.154 54.6842 241.17 54.6743C241.185 54.6644 241.202 54.6577 241.22 54.6545C241.238 54.6514 241.256 54.6519 241.274 54.656L248.474 56.2089C248.511 56.2169 248.542 56.2391 248.563 56.2705C248.583 56.3019 248.59 56.3401 248.583 56.3768C248.576 56.4104 248.557 56.4403 248.53 56.4609C248.503 56.4816 248.469 56.4914 248.435 56.4887Z" fill="white"/>
<path d="M269.497 87.9385C269.461 87.9378 269.427 87.9233 269.401 87.8978C269.375 87.8723 269.36 87.8379 269.359 87.8015L269.034 77.8992C269.033 77.8808 269.036 77.8625 269.042 77.8452C269.048 77.828 269.058 77.8122 269.071 77.7986C269.083 77.7851 269.098 77.7741 269.114 77.7664C269.131 77.7587 269.149 77.7544 269.167 77.7537C269.185 77.7521 269.204 77.7545 269.221 77.7605C269.239 77.7666 269.255 77.7762 269.269 77.7888C269.282 77.8014 269.293 77.8168 269.3 77.8339C269.308 77.851 269.312 77.8694 269.311 77.888L269.636 87.793C269.637 87.8116 269.634 87.8302 269.628 87.8476C269.621 87.8651 269.611 87.8811 269.599 87.8946C269.586 87.9082 269.571 87.9191 269.554 87.9266C269.537 87.9342 269.519 87.9381 269.5 87.9385H269.497Z" fill="white"/>
<path d="M268.868 68.6856C268.832 68.6856 268.798 68.6717 268.772 68.6467C268.746 68.6216 268.731 68.5874 268.729 68.5513L268.474 60.7168C268.473 60.6986 268.476 60.6804 268.482 60.6632C268.488 60.6461 268.498 60.6305 268.51 60.6172C268.523 60.6039 268.538 60.5933 268.554 60.5859C268.571 60.5785 268.589 60.5745 268.607 60.5742C268.625 60.5722 268.644 60.5742 268.662 60.58C268.679 60.5859 268.696 60.5956 268.709 60.6083C268.723 60.621 268.734 60.6365 268.741 60.6538C268.748 60.6711 268.752 60.6897 268.751 60.7085L269.007 68.543C269.008 68.5612 269.005 68.5794 268.998 68.5965C268.992 68.6136 268.982 68.6293 268.97 68.6426C268.958 68.6559 268.943 68.6665 268.926 68.6739C268.909 68.6813 268.892 68.6853 268.873 68.6856H268.868Z" fill="white"/>
<path d="M152.347 8.54783V25.0683C152.347 25.3182 152.425 25.5618 152.57 25.7641C152.714 25.9665 152.918 26.1174 153.151 26.1953L173.632 33.1749C173.793 33.2305 173.965 33.2495 174.134 33.2307C174.304 33.2119 174.467 33.1557 174.613 33.066L189.869 23.6556C190.041 23.5485 190.182 23.399 190.281 23.2208C190.379 23.0426 190.431 22.8419 190.432 22.6376V6.49814C190.432 6.22206 190.337 5.95456 190.165 5.74118C189.992 5.5278 189.752 5.38163 189.486 5.32755L169.917 1.40773C169.707 1.36525 169.49 1.38225 169.289 1.45677L153.13 7.42908C152.902 7.51096 152.704 7.66239 152.564 7.86265C152.424 8.06291 152.348 8.30218 152.347 8.54783Z" fill="url(#paint2_linear_13918_3498)"/>
<path d="M172.65 31.8528C172.589 31.8524 172.528 31.8426 172.469 31.8236L159.731 27.5537C159.714 27.5483 159.698 27.5396 159.685 27.528C159.671 27.5165 159.66 27.5023 159.652 27.4865C159.645 27.4706 159.64 27.4534 159.639 27.4357C159.638 27.418 159.64 27.4003 159.646 27.3835C159.657 27.3505 159.681 27.3234 159.713 27.308C159.744 27.2926 159.78 27.2901 159.813 27.3011L172.554 31.571C172.595 31.5854 172.638 31.5904 172.681 31.5858C172.724 31.5812 172.765 31.5671 172.802 31.5444L179.226 27.6467C179.241 27.6376 179.257 27.6315 179.274 27.6289C179.291 27.6262 179.309 27.627 179.326 27.6312C179.343 27.6354 179.359 27.643 179.372 27.6534C179.386 27.6638 179.398 27.677 179.407 27.692C179.416 27.7068 179.422 27.7233 179.425 27.7405C179.428 27.7578 179.428 27.7754 179.424 27.7925C179.42 27.8095 179.412 27.8256 179.402 27.8398C179.392 27.8541 179.379 27.8662 179.364 27.8754L172.938 31.7704C172.851 31.8232 172.752 31.8517 172.65 31.8528Z" fill="white"/>
<path d="M152.959 24.8846H152.916L151.348 24.3528C151.236 24.3156 151.139 24.2442 151.07 24.1489C151.001 24.0535 150.963 23.9389 150.962 23.8211V6.64579C150.962 6.52951 150.997 6.41585 151.064 6.32059C151.131 6.22533 151.225 6.15317 151.335 6.11405L168.056 0.033548C168.152 -0.000657366 168.256 -0.00886842 168.357 0.00966111L176.78 1.66876C176.815 1.67584 176.845 1.69618 176.865 1.72549C176.885 1.7548 176.893 1.79072 176.886 1.82558C176.883 1.84269 176.876 1.85888 176.866 1.87335C176.856 1.88783 176.844 1.90033 176.829 1.90996C176.815 1.91959 176.798 1.92625 176.781 1.92957C176.764 1.93289 176.746 1.9328 176.729 1.92931L168.306 0.270209C168.253 0.259997 168.198 0.264543 168.147 0.283451L151.415 6.36395C151.357 6.38468 151.308 6.42267 151.272 6.47261C151.237 6.52255 151.218 6.5821 151.218 6.64319V23.8183C151.218 23.8805 151.238 23.9412 151.274 23.9918C151.31 24.0423 151.361 24.0802 151.42 24.1002L152.991 24.6319C153.024 24.6434 153.051 24.6674 153.067 24.6988C153.082 24.7301 153.085 24.7664 153.073 24.7995C153.065 24.8233 153.049 24.8439 153.029 24.859C153.009 24.8741 152.984 24.883 152.959 24.8846Z" fill="white"/>
<path d="M187.352 22.6536C187.329 22.6535 187.306 22.6476 187.286 22.6365C187.266 22.6253 187.249 22.6093 187.237 22.5899C187.228 22.5749 187.222 22.5581 187.219 22.5408C187.216 22.5234 187.217 22.5057 187.221 22.4886C187.226 22.4715 187.233 22.4556 187.244 22.4415C187.254 22.4273 187.267 22.4154 187.282 22.4064L188.64 21.5822C188.685 21.5546 188.722 21.5152 188.747 21.4685C188.772 21.4217 188.784 21.3692 188.781 21.3163V4.53711C188.781 4.46833 188.757 4.40184 188.713 4.34861C188.67 4.29538 188.609 4.25875 188.541 4.24475L184.261 3.40183C184.244 3.39865 184.228 3.39212 184.213 3.38262C184.199 3.37311 184.186 3.36088 184.176 3.34653C184.167 3.33217 184.16 3.31599 184.157 3.29902C184.153 3.28205 184.153 3.26468 184.157 3.24774C184.16 3.23039 184.167 3.21382 184.176 3.19905C184.186 3.18428 184.199 3.17156 184.213 3.16167C184.228 3.15177 184.244 3.1449 184.262 3.14141C184.279 3.13793 184.297 3.13782 184.314 3.14128L188.595 3.9842C188.722 4.01046 188.837 4.07965 188.919 4.18036C189.002 4.28107 189.047 4.40704 189.047 4.53711V21.3163C189.048 21.4126 189.024 21.5073 188.977 21.5915C188.93 21.6758 188.863 21.7467 188.781 21.7976L187.426 22.6217C187.404 22.6386 187.379 22.6497 187.352 22.6536Z" fill="white"/>
<path d="M172.076 11.0059L166.443 9.79354C166.426 9.79008 166.41 9.78323 166.395 9.77341C166.381 9.7636 166.369 9.75103 166.359 9.73642C166.35 9.7218 166.343 9.70551 166.34 9.68838C166.337 9.67125 166.338 9.65366 166.342 9.63671C166.345 9.61943 166.351 9.60295 166.361 9.58829C166.371 9.57363 166.383 9.56111 166.398 9.55142C166.413 9.54174 166.429 9.53511 166.446 9.53195C166.464 9.52879 166.482 9.52912 166.499 9.53299L172.055 10.7294L188.738 4.12262C188.771 4.11025 188.807 4.11107 188.84 4.12496C188.872 4.13884 188.898 4.16465 188.911 4.19701C188.918 4.21324 188.921 4.23055 188.921 4.24803C188.92 4.2655 188.917 4.28286 188.91 4.29891C188.903 4.31497 188.893 4.32945 188.88 4.34163C188.868 4.3538 188.853 4.36335 188.837 4.3698L172.076 11.0059Z" fill="white"/>
<path d="M159.585 8.3157H159.556L151.162 6.51043C151.128 6.50276 151.098 6.48204 151.079 6.45279C151.059 6.42354 151.052 6.38796 151.059 6.35348C151.067 6.31906 151.088 6.28916 151.118 6.26987C151.147 6.25058 151.183 6.24346 151.218 6.24988L159.612 8.05502C159.629 8.05879 159.645 8.06598 159.66 8.07605C159.674 8.08613 159.686 8.099 159.696 8.11383C159.705 8.12866 159.712 8.14521 159.715 8.16251C159.718 8.17982 159.717 8.19746 159.713 8.21457C159.706 8.2434 159.69 8.26917 159.667 8.28753C159.644 8.30589 159.615 8.31585 159.585 8.3157Z" fill="white"/>
<path d="M172.742 31.473C172.708 31.4724 172.674 31.4586 172.65 31.4343C172.625 31.4101 172.61 31.3774 172.609 31.3428L171.933 10.8708C171.932 10.8359 171.945 10.8023 171.969 10.7769C171.993 10.7515 172.026 10.7365 172.061 10.7351C172.078 10.7336 172.096 10.7358 172.113 10.7416C172.13 10.7473 172.145 10.7566 172.158 10.7686C172.171 10.7806 172.181 10.7951 172.188 10.8113C172.196 10.8275 172.199 10.845 172.199 10.8627L172.875 31.3348C172.876 31.3525 172.873 31.3701 172.867 31.3867C172.861 31.4033 172.851 31.4185 172.839 31.4314C172.827 31.4442 172.812 31.4546 172.796 31.4617C172.78 31.4689 172.763 31.4727 172.745 31.473H172.742Z" fill="white"/>
<path d="M2.77734 125.259V155.422C2.7778 155.878 2.92128 156.322 3.18756 156.691C3.45385 157.061 3.82952 157.338 4.26164 157.484L42.2455 170.231C42.5456 170.332 42.8639 170.365 43.1782 170.33C43.4926 170.295 43.7955 170.191 44.0659 170.027L72.3615 152.841C72.6809 152.647 72.9449 152.375 73.1282 152.049C73.3114 151.724 73.4076 151.357 73.4075 150.983V121.512C73.4078 121.008 73.2331 120.52 72.9134 120.131C72.5936 119.742 72.1486 119.475 71.6544 119.378L35.3538 112.219C34.9647 112.141 34.5617 112.173 34.1895 112.31L4.2213 123.216C3.79953 123.367 3.43451 123.644 3.17608 124.01C2.91765 124.375 2.7784 124.812 2.77734 125.259Z" fill="url(#paint3_linear_13918_3498)"/>
<path d="M41.8014 168.959C41.6984 168.958 41.596 168.942 41.4982 168.909L1.35021 155.436C1.16123 155.372 0.996878 155.251 0.880278 155.089C0.763678 154.928 0.700697 154.733 0.700195 154.534V144.813C0.700895 144.777 0.715506 144.743 0.740965 144.717C0.766425 144.692 0.800755 144.677 0.836753 144.677C0.872971 144.677 0.907707 144.691 0.933316 144.717C0.958926 144.742 0.973311 144.777 0.973311 144.813V154.534C0.97396 154.676 1.01909 154.815 1.10236 154.93C1.18564 155.045 1.30287 155.131 1.43761 155.176L41.5856 168.65C41.6792 168.681 41.7785 168.692 41.8766 168.681C41.9746 168.67 42.0692 168.638 42.1537 168.587L52.6277 162.223C52.6431 162.213 52.6602 162.207 52.6781 162.204C52.6959 162.202 52.7141 162.203 52.7316 162.207C52.7492 162.211 52.7657 162.219 52.7802 162.23C52.7947 162.24 52.8069 162.254 52.8162 162.269C52.8255 162.285 52.8317 162.301 52.8345 162.319C52.8372 162.337 52.8364 162.355 52.8321 162.372C52.8277 162.389 52.82 162.406 52.8093 162.42C52.7986 162.434 52.7851 162.446 52.7697 162.455L42.2957 168.819C42.1469 168.91 41.9759 168.959 41.8014 168.959Z" fill="white"/>
<path d="M67.7664 153.324C67.7433 153.324 67.7207 153.318 67.7006 153.306C67.6806 153.295 67.6637 153.278 67.6517 153.258C67.6419 153.243 67.6353 153.226 67.6324 153.208C67.6294 153.19 67.6301 153.172 67.6345 153.154C67.6388 153.137 67.6467 153.12 67.6577 153.106C67.6686 153.091 67.6824 153.079 67.6982 153.07L72.1172 150.385C72.2167 150.324 72.2989 150.239 72.3558 150.137C72.4127 150.035 72.4425 149.92 72.4422 149.803V117.931C72.4421 117.774 72.3876 117.621 72.2881 117.5C72.1885 117.378 72.0499 117.295 71.8959 117.264L33.5122 109.693C33.3909 109.669 33.2654 109.678 33.149 109.72L1.42657 121.268C1.29577 121.317 1.18282 121.404 1.10279 121.518C1.02276 121.632 0.979461 121.768 0.97866 121.908V127.357C0.97866 127.393 0.964271 127.428 0.938662 127.453C0.913052 127.479 0.87832 127.493 0.842102 127.493C0.806104 127.492 0.771774 127.478 0.746314 127.453C0.720855 127.427 0.706244 127.393 0.705544 127.357V121.908C0.706372 121.712 0.766993 121.521 0.879276 121.361C0.991558 121.201 1.15013 121.079 1.33371 121.012L33.0561 109.463C33.2191 109.406 33.3944 109.392 33.5641 109.425L71.9478 116.997C72.164 117.039 72.3587 117.156 72.4986 117.326C72.6385 117.497 72.7151 117.71 72.7153 117.931V149.803C72.7158 149.967 72.6741 150.129 72.5943 150.273C72.5144 150.416 72.399 150.537 72.2592 150.623L67.8374 153.308C67.8157 153.319 67.7912 153.325 67.7664 153.324Z" fill="white"/>
<path d="M40.6323 130.072L35.4076 128.947C35.3718 128.939 35.3407 128.917 35.3207 128.886C35.3008 128.856 35.2937 128.819 35.301 128.783C35.3049 128.765 35.3122 128.748 35.3226 128.734C35.3329 128.719 35.3461 128.706 35.3613 128.697C35.3766 128.687 35.3936 128.68 35.4113 128.677C35.4291 128.674 35.4473 128.675 35.4649 128.679L40.6104 129.788L72.2918 117.223C72.3085 117.217 72.3263 117.214 72.3443 117.214C72.3622 117.214 72.38 117.218 72.3965 117.225C72.4129 117.232 72.4279 117.242 72.4404 117.255C72.4529 117.268 72.4627 117.283 72.4694 117.3C72.4821 117.334 72.4812 117.371 72.4669 117.404C72.4527 117.437 72.4261 117.464 72.3929 117.477L40.6323 130.072Z" fill="white"/>
<path d="M19.3892 125.494H19.3565L0.983946 121.539C0.966332 121.535 0.949663 121.528 0.934895 121.517C0.920127 121.507 0.907555 121.494 0.897905 121.479C0.888256 121.463 0.881722 121.446 0.878677 121.429C0.875632 121.411 0.876137 121.393 0.880165 121.375C0.88372 121.358 0.890744 121.341 0.900823 121.326C0.910901 121.311 0.923828 121.299 0.938846 121.289C0.953864 121.279 0.970667 121.273 0.988263 121.27C1.00586 121.267 1.02389 121.267 1.0413 121.271L19.4138 125.226C19.4314 125.23 19.4481 125.237 19.4629 125.248C19.4776 125.258 19.4902 125.271 19.4998 125.287C19.5095 125.302 19.516 125.319 19.5191 125.337C19.5221 125.354 19.5216 125.373 19.5176 125.39C19.5109 125.419 19.4946 125.445 19.4713 125.464C19.448 125.483 19.4191 125.494 19.3892 125.494Z" fill="white"/>
<path d="M41.8991 168.953C41.8638 168.953 41.8299 168.939 41.8044 168.915C41.779 168.89 41.764 168.857 41.7625 168.822L40.4816 129.935C40.4809 129.917 40.4837 129.899 40.4899 129.882C40.4961 129.865 40.5055 129.85 40.5177 129.837C40.5299 129.824 40.5446 129.813 40.5609 129.805C40.5772 129.798 40.5948 129.794 40.6127 129.793C40.6306 129.792 40.6486 129.795 40.6654 129.801C40.6823 129.807 40.6977 129.817 40.7109 129.829C40.7241 129.841 40.7348 129.856 40.7423 129.872C40.7498 129.888 40.754 129.906 40.7547 129.924L42.0247 168.811C42.0255 168.829 42.0226 168.847 42.0165 168.863C42.0103 168.88 42.0008 168.896 41.9886 168.909C41.9765 168.922 41.9618 168.933 41.9455 168.94C41.9292 168.948 41.9116 168.952 41.8936 168.953H41.8991Z" fill="white"/>
<path d="M258.985 124.881V155.757C258.985 156.224 259.132 156.679 259.403 157.058C259.675 157.437 260.058 157.72 260.499 157.869L299.229 170.92C299.535 171.023 299.859 171.058 300.18 171.022C300.501 170.986 300.81 170.88 301.085 170.711L329.934 153.114C330.26 152.916 330.529 152.637 330.716 152.304C330.903 151.971 331.001 151.595 331 151.212V121.043C331 120.528 330.822 120.028 330.496 119.629C330.17 119.231 329.717 118.958 329.213 118.857L292.199 111.527C291.802 111.448 291.392 111.481 291.012 111.62L260.458 122.789C260.028 122.943 259.655 123.226 259.392 123.601C259.128 123.975 258.986 124.422 258.985 124.881Z" fill="url(#paint4_linear_13918_3498)"/>
<path d="M260.917 156.398C260.902 156.401 260.887 156.401 260.873 156.398L257.564 155.293C257.373 155.229 257.207 155.107 257.089 154.943C256.971 154.779 256.908 154.583 256.908 154.381V121.376C256.908 121.179 256.969 120.986 257.083 120.824C257.196 120.663 257.357 120.54 257.542 120.473L289.567 108.774C289.732 108.714 289.91 108.699 290.083 108.733L296.855 110.073C296.891 110.079 296.922 110.1 296.943 110.13C296.964 110.16 296.972 110.197 296.965 110.233C296.958 110.269 296.937 110.301 296.906 110.321C296.876 110.342 296.839 110.35 296.802 110.344L290.03 109.003C289.907 108.979 289.78 108.989 289.663 109.034L257.636 120.713C257.504 120.762 257.39 120.85 257.309 120.966C257.228 121.081 257.184 121.219 257.183 121.36V154.364C257.184 154.508 257.229 154.648 257.313 154.765C257.397 154.881 257.516 154.968 257.652 155.014L260.961 156.119C260.995 156.131 261.024 156.156 261.04 156.188C261.056 156.221 261.058 156.258 261.047 156.293C261.04 156.322 261.023 156.349 261 156.368C260.976 156.387 260.947 156.397 260.917 156.398Z" fill="white"/>
<path d="M329.475 128.753C329.438 128.753 329.403 128.739 329.377 128.713C329.351 128.687 329.337 128.652 329.337 128.615V117.339C329.337 117.18 329.282 117.026 329.181 116.904C329.081 116.781 328.941 116.696 328.785 116.665L315.55 114.051C315.532 114.048 315.515 114.041 315.5 114.03C315.485 114.02 315.472 114.007 315.462 113.992C315.452 113.977 315.445 113.96 315.442 113.942C315.438 113.924 315.438 113.906 315.442 113.888C315.449 113.852 315.47 113.821 315.501 113.8C315.531 113.779 315.569 113.771 315.605 113.778L328.84 116.394C329.059 116.438 329.255 116.556 329.396 116.728C329.538 116.9 329.615 117.116 329.615 117.339V128.615C329.615 128.634 329.612 128.652 329.605 128.669C329.597 128.686 329.587 128.701 329.574 128.714C329.561 128.727 329.545 128.737 329.528 128.744C329.511 128.751 329.493 128.754 329.475 128.753Z" fill="white"/>
<path d="M298.402 168.958C298.298 168.959 298.195 168.942 298.096 168.909L272.005 160.136C271.97 160.124 271.942 160.098 271.926 160.065C271.909 160.032 271.906 159.994 271.917 159.959C271.929 159.925 271.955 159.896 271.988 159.88C272.021 159.864 272.058 159.862 272.093 159.874L298.184 168.646C298.279 168.679 298.379 168.69 298.478 168.679C298.577 168.668 298.673 168.635 298.758 168.583L329.007 150.17C329.107 150.108 329.19 150.022 329.247 149.92C329.305 149.817 329.335 149.702 329.335 149.584V141.477C329.335 141.441 329.349 141.405 329.375 141.379C329.401 141.354 329.436 141.339 329.473 141.339C329.509 141.339 329.544 141.354 329.57 141.379C329.596 141.405 329.611 141.441 329.611 141.477V149.584C329.611 149.75 329.569 149.914 329.489 150.059C329.408 150.204 329.292 150.326 329.15 150.413L298.901 168.829C298.749 168.916 298.577 168.961 298.402 168.958Z" fill="white"/>
<path d="M271.442 124.056H271.414L257.194 120.989C257.176 120.986 257.16 120.978 257.145 120.968C257.13 120.958 257.117 120.945 257.107 120.93C257.098 120.915 257.091 120.897 257.088 120.88C257.085 120.862 257.085 120.844 257.089 120.826C257.093 120.808 257.1 120.791 257.11 120.776C257.12 120.761 257.133 120.748 257.148 120.738C257.164 120.728 257.18 120.722 257.198 120.718C257.216 120.715 257.234 120.715 257.252 120.718L271.472 123.788C271.49 123.792 271.507 123.799 271.522 123.809C271.536 123.819 271.549 123.832 271.559 123.847C271.569 123.863 271.575 123.88 271.578 123.897C271.582 123.915 271.581 123.934 271.577 123.951C271.57 123.982 271.553 124.009 271.528 124.028C271.503 124.047 271.473 124.057 271.442 124.056Z" fill="white"/>
<path d="M297.215 129.621L288.491 127.739C288.473 127.736 288.456 127.728 288.441 127.718C288.426 127.707 288.413 127.694 288.404 127.678C288.394 127.663 288.387 127.646 288.384 127.628C288.381 127.61 288.382 127.591 288.386 127.574C288.389 127.556 288.396 127.539 288.406 127.524C288.416 127.508 288.429 127.495 288.444 127.486C288.46 127.476 288.477 127.469 288.495 127.466C288.513 127.463 288.531 127.464 288.548 127.469L297.193 129.334L329.179 116.624C329.196 116.617 329.214 116.614 329.232 116.614C329.25 116.614 329.268 116.618 329.285 116.625C329.302 116.632 329.317 116.643 329.329 116.656C329.342 116.669 329.352 116.684 329.359 116.701C329.371 116.735 329.371 116.773 329.356 116.806C329.342 116.84 329.315 116.866 329.281 116.881L297.215 129.621Z" fill="white"/>
<path d="M297.204 163.189C297.168 163.189 297.133 163.175 297.107 163.149C297.081 163.123 297.066 163.088 297.066 163.051V129.477C297.066 129.441 297.081 129.406 297.107 129.38C297.133 129.354 297.168 129.339 297.204 129.339C297.241 129.339 297.276 129.354 297.302 129.38C297.328 129.406 297.342 129.441 297.342 129.477V163.051C297.342 163.088 297.328 163.123 297.302 163.149C297.276 163.175 297.241 163.189 297.204 163.189Z" fill="white"/>
<path d="M128.112 202.778V240.84C128.112 241.415 128.292 241.976 128.627 242.442C128.961 242.909 129.432 243.259 129.974 243.442L177.64 259.528C178.017 259.655 178.416 259.697 178.811 259.653C179.205 259.608 179.586 259.478 179.925 259.271L215.433 237.584C215.834 237.339 216.165 236.995 216.395 236.585C216.625 236.174 216.746 235.711 216.746 235.239V198.049C216.746 197.414 216.527 196.798 216.126 196.306C215.724 195.815 215.166 195.479 214.546 195.356L168.992 186.322C168.504 186.224 167.998 186.264 167.531 186.437L129.924 200.2C129.395 200.39 128.936 200.74 128.612 201.201C128.288 201.662 128.113 202.213 128.112 202.778Z" fill="url(#paint5_linear_13918_3498)"/>
<path d="M215.215 210.255C215.179 210.255 215.144 210.24 215.119 210.215C215.093 210.189 215.079 210.154 215.079 210.117V191.934L201.87 189.315C201.852 189.312 201.835 189.305 201.82 189.295C201.805 189.285 201.791 189.272 201.781 189.257C201.771 189.242 201.764 189.225 201.76 189.207C201.757 189.189 201.757 189.171 201.76 189.153C201.764 189.135 201.77 189.118 201.78 189.103C201.79 189.088 201.803 189.075 201.818 189.065C201.833 189.055 201.85 189.048 201.868 189.044C201.886 189.041 201.904 189.042 201.922 189.046L215.352 191.708V210.12C215.351 210.156 215.337 210.19 215.311 210.216C215.285 210.241 215.251 210.255 215.215 210.255Z" fill="white"/>
<path d="M197.386 244.342C197.363 244.342 197.339 244.336 197.319 244.324C197.298 244.313 197.281 244.296 197.269 244.276C197.259 244.261 197.253 244.244 197.25 244.226C197.248 244.208 197.248 244.19 197.253 244.173C197.257 244.155 197.265 244.139 197.276 244.124C197.286 244.11 197.3 244.098 197.315 244.089L215.087 233.24V227.469C215.087 227.432 215.102 227.397 215.127 227.372C215.153 227.346 215.188 227.331 215.224 227.331C215.26 227.331 215.295 227.346 215.321 227.372C215.346 227.397 215.361 227.432 215.361 227.469V233.402L197.463 244.328C197.439 244.34 197.413 244.345 197.386 244.342Z" fill="white"/>
<path d="M176.857 256.9L155.156 249.579C155.122 249.567 155.093 249.542 155.077 249.509C155.06 249.476 155.058 249.438 155.069 249.403C155.075 249.386 155.084 249.37 155.096 249.357C155.108 249.343 155.122 249.332 155.139 249.324C155.155 249.316 155.173 249.312 155.191 249.311C155.209 249.309 155.227 249.312 155.244 249.318L176.825 256.598L186.941 250.42C186.972 250.402 187.01 250.396 187.045 250.405C187.08 250.414 187.111 250.436 187.13 250.467C187.139 250.482 187.145 250.5 187.148 250.518C187.151 250.536 187.15 250.554 187.146 250.571C187.142 250.589 187.134 250.606 187.123 250.62C187.112 250.635 187.099 250.647 187.083 250.656L176.857 256.9Z" fill="white"/>
<path d="M136.869 243.402H136.825L125.342 239.527V201.233C125.342 201.197 125.356 201.162 125.382 201.136C125.407 201.11 125.442 201.096 125.479 201.096C125.515 201.096 125.55 201.11 125.575 201.136C125.601 201.162 125.615 201.197 125.615 201.233V239.329L136.913 243.141C136.947 243.152 136.975 243.177 136.99 243.21C137.006 243.242 137.009 243.279 136.998 243.314C136.988 243.34 136.97 243.363 136.947 243.378C136.924 243.394 136.897 243.402 136.869 243.402Z" fill="white"/>
<path d="M166.165 185.897C166.129 185.897 166.094 185.883 166.068 185.857C166.043 185.832 166.028 185.797 166.028 185.761V182.251C166.028 182.215 166.043 182.181 166.068 182.155C166.094 182.129 166.129 182.115 166.165 182.115C166.201 182.115 166.236 182.129 166.262 182.155C166.287 182.181 166.302 182.215 166.302 182.251V185.761C166.302 185.797 166.287 185.832 166.262 185.857C166.236 185.883 166.201 185.897 166.165 185.897Z" fill="white"/>
<path d="M141.05 191.385C141.022 191.384 140.995 191.376 140.973 191.36C140.95 191.345 140.932 191.323 140.922 191.297C140.91 191.262 140.912 191.224 140.927 191.191C140.942 191.158 140.97 191.132 141.004 191.118L166.118 182.123C166.152 182.111 166.189 182.113 166.222 182.128C166.255 182.144 166.28 182.171 166.293 182.206C166.299 182.223 166.302 182.241 166.302 182.259C166.301 182.277 166.297 182.295 166.289 182.311C166.281 182.328 166.27 182.342 166.257 182.354C166.244 182.367 166.228 182.376 166.211 182.382L141.097 191.385C141.081 191.387 141.066 191.387 141.05 191.385Z" fill="white"/>
<path d="M196.164 187.941H196.137L175.223 183.794C175.205 183.791 175.188 183.784 175.173 183.774C175.158 183.765 175.145 183.752 175.135 183.737C175.125 183.721 175.117 183.704 175.114 183.687C175.11 183.669 175.11 183.65 175.114 183.632C175.122 183.597 175.143 183.566 175.173 183.546C175.203 183.526 175.24 183.519 175.275 183.525L196.189 187.672C196.224 187.679 196.256 187.699 196.276 187.729C196.297 187.759 196.305 187.796 196.298 187.831C196.291 187.862 196.275 187.89 196.25 187.91C196.226 187.93 196.196 187.941 196.164 187.941Z" fill="white"/>
<path d="M180.131 209.307C180.105 209.307 180.08 209.3 180.058 209.287C180.037 209.273 180.019 209.253 180.008 209.23C179.993 209.197 179.991 209.16 180.003 209.125C180.014 209.091 180.039 209.062 180.071 209.046L197.961 200.203C197.977 200.195 197.994 200.19 198.012 200.189C198.03 200.188 198.048 200.19 198.065 200.196C198.082 200.202 198.098 200.211 198.112 200.223C198.125 200.235 198.136 200.25 198.144 200.266C198.152 200.282 198.156 200.3 198.158 200.318C198.159 200.336 198.156 200.354 198.15 200.371C198.145 200.388 198.135 200.404 198.124 200.418C198.112 200.431 198.097 200.442 198.081 200.45L180.191 209.293C180.173 209.303 180.152 209.308 180.131 209.307Z" fill="white"/>
<path d="M176.842 256.886C176.806 256.886 176.771 256.872 176.745 256.846C176.72 256.82 176.705 256.785 176.705 256.749V210.895L154.367 204.872C154.35 204.867 154.333 204.859 154.319 204.849C154.304 204.838 154.292 204.824 154.283 204.808C154.274 204.793 154.268 204.776 154.266 204.758C154.263 204.74 154.264 204.722 154.269 204.704C154.279 204.669 154.302 204.639 154.334 204.621C154.366 204.603 154.403 204.599 154.438 204.608L176.97 210.692V256.749C176.97 256.784 176.957 256.818 176.933 256.843C176.909 256.869 176.877 256.884 176.842 256.886Z" fill="white"/>
<path d="M133.305 86.5566L121.187 80.3245M109.069 74.0925L100.067 76.8623M109.069 74.0925L113.224 66.8217M109.069 74.0925L121.187 80.3245M99.0288 64.3981L100.067 76.8623M89.6807 84.4793L100.067 76.8623M121.187 80.3245L104.915 93.4812L118.417 103.175" stroke="white" stroke-linecap="round" stroke-linejoin="round"/>
<path d="M118.41 104.56C119.175 104.56 119.795 103.94 119.795 103.175C119.795 102.411 119.175 101.791 118.41 101.791C117.645 101.791 117.025 102.411 117.025 103.175C117.025 103.94 117.645 104.56 118.41 104.56Z" fill="white"/>
<path d="M99.0285 66.4754C99.7933 66.4754 100.413 65.8554 100.413 65.0905C100.413 64.3257 99.7933 63.7056 99.0285 63.7056C98.2636 63.7056 97.6436 64.3257 97.6436 65.0905C97.6436 65.8554 98.2636 66.4754 99.0285 66.4754Z" fill="white"/>
<path d="M113.57 67.8604C114.335 67.8604 114.955 67.2403 114.955 66.4755C114.955 65.7106 114.335 65.0906 113.57 65.0906C112.805 65.0906 112.185 65.7106 112.185 66.4755C112.185 67.2403 112.805 67.8604 113.57 67.8604Z" fill="white"/>
<path d="M88.6417 86.5566C89.4066 86.5566 90.0266 85.9366 90.0266 85.1717C90.0266 84.4068 89.4066 83.7868 88.6417 83.7868C87.8769 83.7868 87.2568 84.4068 87.2568 85.1717C87.2568 85.9366 87.8769 86.5566 88.6417 86.5566Z" fill="white"/>
<path d="M131.92 143.338L133.305 130.181L110.454 122.218M131.92 143.338L120.148 149.224M131.92 143.338L108.03 148.012M86.2179 139.529L84.1406 152.686M70.2915 163.765L84.1406 152.686M84.1406 152.686L108.03 148.012M108.03 148.012L101.752 174.523" stroke="white" stroke-linecap="round" stroke-linejoin="round"/>
<path d="M119.789 150.804C120.554 150.804 121.174 150.184 121.174 149.419C121.174 148.654 120.554 148.034 119.789 148.034C119.024 148.034 118.404 148.654 118.404 149.419C118.404 150.184 119.024 150.804 119.789 150.804Z" fill="white"/>
<path d="M101.798 175.806C102.563 175.806 103.183 175.186 103.183 174.421C103.183 173.656 102.563 173.036 101.798 173.036C101.033 173.036 100.413 173.656 100.413 174.421C100.413 175.186 101.033 175.806 101.798 175.806Z" fill="white"/>
<path d="M110.138 123.441C110.903 123.441 111.523 122.821 111.523 122.056C111.523 121.291 110.903 120.671 110.138 120.671C109.373 120.671 108.753 121.291 108.753 122.056C108.753 122.821 109.373 123.441 110.138 123.441Z" fill="white"/>
<path d="M70.2916 165.15C71.0565 165.15 71.6765 164.53 71.6765 163.765C71.6765 163 71.0565 162.38 70.2916 162.38C69.5268 162.38 68.9067 163 68.9067 163.765C68.9067 164.53 69.5268 165.15 70.2916 165.15Z" fill="white"/>
<path d="M86.2409 140.568C87.0057 140.568 87.6258 139.948 87.6258 139.183C87.6258 138.418 87.0057 137.798 86.2409 137.798C85.476 137.798 84.856 138.418 84.856 139.183C84.856 139.948 85.476 140.568 86.2409 140.568Z" fill="white"/>
<path d="M171.39 72.0151V48.1255M171.39 48.1255L161.003 43.9707M171.39 48.1255L182.469 42.9321M140.922 42.9321L161.003 43.9707M144.384 52.9726L161.003 43.9707" stroke="white" stroke-linecap="round" stroke-linejoin="round"/>
<path d="M141.268 44.317C142.033 44.317 142.653 43.6969 142.653 42.9321C142.653 42.1672 142.033 41.5472 141.268 41.5472C140.503 41.5472 139.883 42.1672 139.883 42.9321C139.883 43.6969 140.503 44.317 141.268 44.317Z" fill="white"/>
<path d="M182.123 44.317C182.888 44.317 183.508 43.6969 183.508 42.9321C183.508 42.1672 182.888 41.5472 182.123 41.5472C181.358 41.5472 180.738 42.1672 180.738 42.9321C180.738 43.6969 181.358 44.317 182.123 44.317Z" fill="white"/>
<path d="M144.038 54.7038C144.803 54.7038 145.423 54.0837 145.423 53.3189C145.423 52.554 144.803 51.934 144.038 51.934C143.273 51.934 142.653 52.554 142.653 53.3189C142.653 54.0837 143.273 54.7038 144.038 54.7038Z" fill="white"/>
<path d="M228.517 82.0557L227.824 67.8604M228.517 82.0557L244.789 88.634M228.517 82.0557L218.996 84.3062M218.996 84.3062L209.474 86.5567L206.358 61.9746L192.855 58.5123M218.996 84.3062L227.824 94.5199V103.868" stroke="white" stroke-linecap="round" stroke-linejoin="round"/>
<path d="M227.824 69.2454C228.589 69.2454 229.209 68.6254 229.209 67.8605C229.209 67.0956 228.589 66.4756 227.824 66.4756C227.059 66.4756 226.439 67.0956 226.439 67.8605C226.439 68.6254 227.059 69.2454 227.824 69.2454Z" fill="white"/>
<path d="M244.443 90.019C245.208 90.019 245.828 89.3989 245.828 88.6341C245.828 87.8692 245.208 87.2491 244.443 87.2491C243.679 87.2491 243.059 87.8692 243.059 88.6341C243.059 89.3989 243.679 90.019 244.443 90.019Z" fill="white"/>
<path d="M227.824 105.253C228.589 105.253 229.209 104.633 229.209 103.868C229.209 103.103 228.589 102.483 227.824 102.483C227.059 102.483 226.439 103.103 226.439 103.868C226.439 104.633 227.059 105.253 227.824 105.253Z" fill="white"/>
<path d="M193.141 59.8973C193.906 59.8973 194.526 59.2772 194.526 58.5123C194.526 57.7475 193.906 57.1274 193.141 57.1274C192.376 57.1274 191.756 57.7475 191.756 58.5123C191.756 59.2772 192.376 59.8973 193.141 59.8973Z" fill="white"/>
<path d="M246.867 161.342L245.829 149.57M246.867 161.342L259.678 166.189M246.867 161.342L228.864 141.607M228.864 141.607L209.129 129.835L206.013 155.802L216.746 163.073M228.864 141.607L238.212 126.719" stroke="white" stroke-linecap="round" stroke-linejoin="round"/>
<path d="M216.746 164.284C217.511 164.284 218.131 163.664 218.131 162.9C218.131 162.135 217.511 161.515 216.746 161.515C215.981 161.515 215.361 162.135 215.361 162.9C215.361 163.664 215.981 164.284 216.746 164.284Z" fill="white"/>
<path d="M245.829 150.955C246.594 150.955 247.214 150.335 247.214 149.57C247.214 148.805 246.594 148.185 245.829 148.185C245.064 148.185 244.444 148.805 244.444 149.57C244.444 150.335 245.064 150.955 245.829 150.955Z" fill="white"/>
<path d="M259.678 167.574C260.443 167.574 261.063 166.954 261.063 166.189C261.063 165.424 260.443 164.804 259.678 164.804C258.913 164.804 258.293 165.424 258.293 166.189C258.293 166.954 258.913 167.574 259.678 167.574Z" fill="white"/>
<path d="M238.212 128.104C238.976 128.104 239.596 127.484 239.596 126.719C239.596 125.954 238.976 125.334 238.212 125.334C237.447 125.334 236.827 125.954 236.827 126.719C236.827 127.484 237.447 128.104 238.212 128.104Z" fill="white"/>
<path d="M171.39 144.376V160.303M170.351 175.191L158.233 179.692M170.351 175.191L171.39 160.303M170.351 175.191L185.585 178.307M200.819 181.423L185.585 178.307M171.39 160.303L151.655 152.34M185.585 178.307L191.817 157.533" stroke="white" stroke-linecap="round" stroke-linejoin="round"/>
<path d="M200.819 182.808C201.584 182.808 202.204 182.188 202.204 181.423C202.204 180.658 201.584 180.038 200.819 180.038C200.054 180.038 199.434 180.658 199.434 181.423C199.434 182.188 200.054 182.808 200.819 182.808Z" fill="white"/>
<path d="M191.549 159.609C192.314 159.609 192.934 158.989 192.934 158.224C192.934 157.459 192.314 156.839 191.549 156.839C190.784 156.839 190.164 157.459 190.164 158.224C190.164 158.989 190.784 159.609 191.549 159.609Z" fill="white"/>
<path d="M157.887 181.423C158.652 181.423 159.272 180.803 159.272 180.038C159.272 179.273 158.652 178.653 157.887 178.653C157.122 178.653 156.502 179.273 156.502 180.038C156.502 180.803 157.122 181.423 157.887 181.423Z" fill="white"/>
<path d="M151.304 153.511C152.069 153.511 152.689 152.891 152.689 152.126C152.689 151.361 152.069 150.741 151.304 150.741C150.539 150.741 149.919 151.361 149.919 152.126C149.919 152.891 150.539 153.511 151.304 153.511Z" fill="white"/>
<path fill-rule="evenodd" clip-rule="evenodd" d="M171.419 72.2518L179.949 76.9249L179.673 77.4211L171.143 72.7481L171.419 72.2518Z" fill="white"/>
<path d="M171.307 73.5903C171.939 73.5903 172.45 73.0826 172.45 72.4565C172.45 71.8303 171.939 71.3227 171.307 71.3227C170.676 71.3227 170.165 71.8303 170.165 72.4565C170.165 73.0826 170.676 73.5903 171.307 73.5903Z" fill="white"/>
<path d="M179.811 78.3067C180.442 78.3067 180.954 77.7991 180.954 77.173C180.954 76.5468 180.442 76.0392 179.811 76.0392C179.18 76.0392 178.668 76.5468 178.668 77.173C178.668 77.7991 179.18 78.3067 179.811 78.3067Z" fill="white"/>
<path fill-rule="evenodd" clip-rule="evenodd" d="M171.42 72.7473L162.888 77.4827L162.609 76.988L171.141 72.2526L171.42 72.7473Z" fill="white"/>
<path d="M162.749 78.3067C163.38 78.3067 163.892 77.7991 163.892 77.173C163.892 76.5468 163.38 76.0392 162.749 76.0392C162.118 76.0392 161.606 76.5468 161.606 77.173C161.606 77.7991 162.118 78.3067 162.749 78.3067Z" fill="white"/>
<path fill-rule="evenodd" clip-rule="evenodd" d="M171.143 143.99L179.673 139.315L179.949 139.811L171.419 144.486L171.143 143.99Z" fill="white"/>
<path d="M171.307 145.415C171.939 145.415 172.45 144.908 172.45 144.281C172.45 143.655 171.939 143.148 171.307 143.148C170.676 143.148 170.165 143.655 170.165 144.281C170.165 144.908 170.676 145.415 171.307 145.415Z" fill="white"/>
<path d="M179.811 140.697C180.442 140.697 180.954 140.189 180.954 139.563C180.954 138.937 180.442 138.429 179.811 138.429C179.18 138.429 178.668 138.937 178.668 139.563C178.668 140.189 179.18 140.697 179.811 140.697Z" fill="white"/>
<path fill-rule="evenodd" clip-rule="evenodd" d="M171.141 144.485L162.609 139.75L162.888 139.255L171.42 143.991L171.141 144.485Z" fill="white"/>
<path d="M162.749 140.697C163.38 140.697 163.892 140.189 163.892 139.563C163.892 138.937 163.38 138.429 162.749 138.429C162.118 138.429 161.606 138.937 161.606 139.563C161.606 140.189 162.118 140.697 162.749 140.697Z" fill="white"/>
<path fill-rule="evenodd" clip-rule="evenodd" d="M139.776 90.2658L148.11 85.2526L148.407 85.7374L140.073 90.7505L139.776 90.2658Z" fill="white"/>
<path d="M139.9 91.5966C140.531 91.5966 141.043 91.089 141.043 90.4628C141.043 89.8367 140.531 89.329 139.9 89.329C139.269 89.329 138.757 89.8367 138.757 90.4628C138.757 91.089 139.269 91.5966 139.9 91.5966Z" fill="white"/>
<path d="M133.313 87.8438C133.944 87.8438 134.456 87.3362 134.456 86.71C134.456 86.0838 133.944 85.5762 133.313 85.5762C132.682 85.5762 132.17 86.0838 132.17 86.71C132.17 87.3362 132.682 87.8438 133.313 87.8438Z" fill="white"/>
<path d="M148.259 86.6288C148.89 86.6288 149.402 86.1212 149.402 85.495C149.402 84.8688 148.89 84.3612 148.259 84.3612C147.627 84.3612 147.116 84.8688 147.116 85.495C147.116 86.1212 147.627 86.6288 148.259 86.6288Z" fill="white"/>
<path fill-rule="evenodd" clip-rule="evenodd" d="M140.21 90.5114L140.1 100.207L139.528 100.201L139.639 90.5049L140.21 90.5114Z" fill="white"/>
<path d="M139.761 101.307C140.392 101.307 140.904 100.8 140.904 100.174C140.904 99.5475 140.392 99.0399 139.761 99.0399C139.13 99.0399 138.618 99.5475 138.618 100.174C138.618 100.8 139.13 101.307 139.761 101.307Z" fill="white"/>
<path fill-rule="evenodd" clip-rule="evenodd" d="M133.253 86.381L140.067 90.2623L139.783 90.7539L132.969 86.8726L133.253 86.381Z" fill="white"/>
<path fill-rule="evenodd" clip-rule="evenodd" d="M202.35 126.225L202.513 116.56L203.085 116.569L202.921 126.235L202.35 126.225Z" fill="white"/>
<path d="M202.687 127.364C203.318 127.364 203.83 126.856 203.83 126.23C203.83 125.604 203.318 125.096 202.687 125.096C202.056 125.096 201.544 125.604 201.544 126.23C201.544 126.856 202.056 127.364 202.687 127.364Z" fill="white"/>
<path d="M209.274 131.114C209.906 131.114 210.417 130.607 210.417 129.981C210.417 129.355 209.906 128.847 209.274 128.847C208.643 128.847 208.131 129.355 208.131 129.981C208.131 130.607 208.643 131.114 209.274 131.114Z" fill="white"/>
<path d="M202.799 117.698C203.43 117.698 203.942 117.19 203.942 116.564C203.942 115.938 203.43 115.431 202.799 115.431C202.168 115.431 201.656 115.938 201.656 116.564C201.656 117.19 202.168 117.698 202.799 117.698Z" fill="white"/>
<path fill-rule="evenodd" clip-rule="evenodd" d="M202.782 126.473L194.395 131.454L194.102 130.968L202.489 125.987L202.782 126.473Z" fill="white"/>
<path d="M194.302 132.377C194.933 132.377 195.445 131.869 195.445 131.243C195.445 130.617 194.933 130.109 194.302 130.109C193.67 130.109 193.159 130.617 193.159 131.243C193.159 131.869 193.67 132.377 194.302 132.377Z" fill="white"/>
<path fill-rule="evenodd" clip-rule="evenodd" d="M209.307 130.357L202.493 126.476L202.778 125.984L209.592 129.865L209.307 130.357Z" fill="white"/>
<path fill-rule="evenodd" clip-rule="evenodd" d="M139.711 126.36L139.513 116.695L140.084 116.683L140.282 126.349L139.711 126.36Z" fill="white"/>
<path d="M139.945 127.488C140.576 127.488 141.088 126.981 141.088 126.354C141.088 125.728 140.576 125.221 139.945 125.221C139.314 125.221 138.802 125.728 138.802 126.354C138.802 126.981 139.314 127.488 139.945 127.488Z" fill="white"/>
<path d="M133.373 131.264C134.005 131.264 134.516 130.756 134.516 130.13C134.516 129.504 134.005 128.996 133.373 128.996C132.742 128.996 132.23 129.504 132.23 130.13C132.23 130.756 132.742 131.264 133.373 131.264Z" fill="white"/>
<path d="M139.799 117.823C140.43 117.823 140.942 117.315 140.942 116.689C140.942 116.063 140.43 115.555 139.799 115.555C139.167 115.555 138.656 116.063 138.656 116.689C138.656 117.315 139.167 117.823 139.799 117.823Z" fill="white"/>
<path fill-rule="evenodd" clip-rule="evenodd" d="M140.142 126.111L148.547 131.062L148.255 131.549L139.851 126.598L140.142 126.111Z" fill="white"/>
<path d="M148.348 132.471C148.979 132.471 149.49 131.964 149.49 131.337C149.49 130.711 148.979 130.204 148.348 130.204C147.716 130.204 147.205 130.711 147.205 131.337C147.205 131.964 147.716 132.471 148.348 132.471Z" fill="white"/>
<path fill-rule="evenodd" clip-rule="evenodd" d="M133.055 130.015L139.854 126.109L140.14 126.6L133.342 130.506L133.055 130.015Z" fill="white"/>
<path fill-rule="evenodd" clip-rule="evenodd" d="M202.429 90.6471L194.078 85.666L194.372 85.1802L202.723 90.1612L202.429 90.6471Z" fill="white"/>
<path d="M202.601 91.4945C203.232 91.4945 203.744 90.9869 203.744 90.3607C203.744 89.7345 203.232 89.2269 202.601 89.2269C201.97 89.2269 201.458 89.7345 201.458 90.3607C201.458 90.9869 201.97 91.4945 202.601 91.4945Z" fill="white"/>
<path d="M209.175 87.719C209.806 87.719 210.318 87.2114 210.318 86.5852C210.318 85.959 209.806 85.4514 209.175 85.4514C208.543 85.4514 208.032 85.959 208.032 86.5852C208.032 87.2114 208.543 87.719 209.175 87.719Z" fill="white"/>
<path d="M194.225 86.5569C194.856 86.5569 195.368 86.0493 195.368 85.4231C195.368 84.7969 194.856 84.2893 194.225 84.2893C193.594 84.2893 193.082 84.7969 193.082 85.4231C193.082 86.0493 193.594 86.5569 194.225 86.5569Z" fill="white"/>
<path fill-rule="evenodd" clip-rule="evenodd" d="M202.862 90.4L203.007 100.098L202.435 100.106L202.291 90.4084L202.862 90.4Z" fill="white"/>
<path d="M202.774 101.203C203.406 101.203 203.917 100.696 203.917 100.07C203.917 99.4435 203.406 98.9359 202.774 98.9359C202.143 98.9359 201.631 99.4435 201.631 100.07C201.631 100.696 202.143 101.203 202.774 101.203Z" fill="white"/>
<path fill-rule="evenodd" clip-rule="evenodd" d="M209.518 86.7455L202.719 90.6495L202.433 90.1589L209.232 86.2549L209.518 86.7455Z" fill="white"/>
<path d="M179.928 92.2672L171.247 87.2956L162.566 92.2672L171.247 97.2388L179.928 92.2672Z" fill="#9589EA"/>
<path d="M171.247 107.182V97.2388L162.566 92.2672V102.21L171.247 107.182Z" fill="#6559A2"/>
<path d="M171.247 107.182V97.2388L179.928 92.2672V102.21L171.247 107.182Z" fill="#6559A2"/>
<path d="M171.247 87.0783L162.376 92.1595V102.32L171.247 107.401L180.118 102.32V92.1595L171.247 87.0783ZM179.547 92.2672L171.247 97.0215L162.947 92.2691L171.247 87.5148L179.547 92.2691V92.2672ZM162.757 92.5941L171.057 97.3466V106.853L162.757 102.099V92.5923V92.5941ZM171.438 106.853V97.3466L179.737 92.5923V102.099L171.438 106.853Z" fill="white"/>
<path d="M170.403 108.896L161.723 103.924L153.042 108.896L161.723 113.868L170.403 108.896Z" fill="#6559A2"/>
<path d="M161.723 123.811V113.868L153.042 108.896V118.839L161.723 123.811Z" fill="#9589EA"/>
<path d="M161.723 123.811V113.868L170.403 108.896V118.839L161.723 123.811Z" fill="#6559A2"/>
<path d="M161.722 103.707L152.851 108.788V118.949L161.722 124.03L170.593 118.949V108.788L161.722 103.707ZM170.022 108.896L161.722 113.65L153.423 108.898L161.722 104.144L170.022 108.898V108.896ZM153.232 109.223L161.532 113.975V123.482L153.232 118.728V109.221V109.223ZM161.913 123.482V113.975L170.212 109.221V118.728L161.913 123.482Z" fill="white"/>
<path d="M189.452 108.896L180.771 103.924L172.091 108.896L180.771 113.868L189.452 108.896Z" fill="#6559A2"/>
<path d="M180.771 123.811V113.868L172.091 108.896V118.839L180.771 123.811Z" fill="#6559A2"/>
<path d="M180.771 123.811V113.868L189.452 108.896V118.839L180.771 123.811Z" fill="#9589EA"/>
<path d="M180.771 103.707L171.9 108.788V118.949L180.771 124.03L189.643 118.949V108.788L180.771 103.707ZM189.071 108.896L180.771 113.65L172.472 108.898L180.771 104.144L189.071 108.898V108.896ZM172.281 109.223L180.581 113.975V123.482L172.281 118.73V109.223ZM180.962 123.484V113.977L189.262 109.223V118.73L180.962 123.484Z" fill="white"/>
<path d="M189.452 97.9361L180.771 92.9645L172.091 97.9361L180.771 102.908L189.452 97.9361Z" fill="#9589EA"/>
<path d="M180.771 112.851V102.908L172.091 97.9361V107.879L180.771 112.851Z" fill="#6559A2"/>
<path d="M180.771 112.851V102.908L189.452 97.9361V107.879L180.771 112.851Z" fill="#9589EA"/>
<path d="M180.771 92.7472L171.9 97.8284V107.989L180.771 113.07L189.643 107.989V97.8284L180.771 92.7472ZM189.071 97.9361L180.771 102.69L172.472 97.938L180.771 93.1837L189.071 97.938V97.9361ZM172.281 98.263L180.581 103.015V112.522L172.281 107.77V98.263ZM180.962 112.524V103.017L189.262 98.263V107.77L180.962 112.524Z" fill="white"/>
<path d="M170.403 97.9361L161.723 92.9645L153.042 97.9361L161.723 102.908L170.403 97.9361Z" fill="#9589EA"/>
<path d="M161.723 112.851V102.908L153.042 97.9361V107.879L161.723 112.851Z" fill="#9589EA"/>
<path d="M161.723 112.851V102.908L170.403 97.9361V107.879L161.723 112.851Z" fill="#6559A2"/>
<path d="M161.722 92.7472L152.851 97.8284V107.989L161.722 113.07L170.593 107.989V97.8284L161.722 92.7472ZM170.022 97.9361L161.722 102.69L153.423 97.938L161.722 93.1837L170.022 97.938V97.9361ZM153.232 98.263L161.532 103.015V112.522L153.232 107.768V98.2611V98.263ZM161.913 112.522V103.015L170.212 98.2611V107.768L161.913 112.522Z" fill="white"/>
<path d="M179.928 114.376L171.247 109.404L162.566 114.376L171.247 119.348L179.928 114.376Z" fill="#6559A2"/>
<path d="M171.247 129.291V119.348L162.566 114.376V124.319L171.247 129.291Z" fill="#9589EA"/>
<path d="M171.247 129.291V119.348L179.928 114.376V124.319L171.247 129.291Z" fill="#9589EA"/>
<path d="M171.247 109.187L162.376 114.268V124.429L171.247 129.51L180.118 124.429V114.268L171.247 109.187ZM179.547 114.376L171.247 119.13L162.947 114.378L171.247 109.623L179.547 114.378V114.376ZM162.757 114.703L171.057 119.455V128.962L162.757 124.21V114.703ZM171.438 128.964V119.457L179.737 114.703V124.21L171.438 128.964Z" fill="white"/>
<path d="M179.928 103.605L171.247 98.6334L162.566 103.605L171.247 108.577L179.928 103.605Z" fill="#9589EA"/>
<path d="M171.247 118.52V108.577L162.566 103.605V113.548L171.247 118.52Z" fill="#9589EA"/>
<path d="M171.247 118.52V108.577L179.928 103.605V113.548L171.247 118.52Z" fill="#9589EA"/>
<path d="M171.247 118.739L162.376 113.658V103.497L171.247 98.4161L180.118 103.497V113.658L171.247 118.739ZM162.757 113.441L171.247 118.303L179.737 113.441V103.715L171.247 98.8526L162.757 103.715V113.439V113.441Z" fill="white"/>
<path d="M162.665 103.446L162.475 103.773L171.155 108.745L171.346 108.418L162.665 103.446Z" fill="white"/>
<path d="M179.839 103.462L171.157 108.432L171.348 108.759L180.029 103.789L179.839 103.462Z" fill="white"/>
<path d="M171.438 108.577H171.057V118.52H171.438V108.577Z" fill="white"/>
<path d="M198.803 92.1863L171.662 76.6422V86.4607L190.231 97.0955L198.803 92.1863Z" fill="#71BEDB"/>
<path d="M172.043 77.2957L198.043 92.186L190.233 96.6587L172.043 86.2412V77.2957ZM171.662 76.6418V86.4604L190.233 97.0952L198.805 92.186L171.662 76.64V76.6418Z" fill="white"/>
<path d="M152.276 97.1255L170.9 86.4604V76.6418L143.704 92.2162L152.276 97.1255Z" fill="#71BEDB"/>
<path d="M170.52 77.2957V86.2412L152.279 96.6889L144.468 92.2162L170.52 77.2957ZM170.901 76.6418L143.707 92.2162L152.279 97.1255L170.901 86.4604V76.6418Z" fill="white"/>
<path d="M190.597 97.7585V119.074L199.169 123.983V92.8492L190.597 97.7585Z" fill="#71BEDB"/>
<path d="M198.788 93.5049V123.329L190.978 118.856V97.9777L198.788 93.5049ZM199.169 92.8511L190.597 97.7604V119.074L199.169 123.983V92.8492V92.8511Z" fill="white"/>
<path d="M151.964 97.8189L143.392 92.9097V123.922L151.964 119.013V97.8189Z" fill="#71BEDB"/>
<path d="M143.773 93.5635L151.583 98.0362V118.794L143.773 123.267V93.5635ZM143.392 92.9097V123.922L151.964 119.013V97.8189L143.392 92.9097Z" fill="white"/>
<path d="M143.788 124.569L170.9 140.096V130.277L152.36 119.659L143.788 124.569Z" fill="#71BEDB"/>
<path d="M152.36 120.096L170.519 130.496V139.442L144.55 124.569L152.36 120.096ZM152.36 119.659L143.788 124.569L170.9 140.096V130.277L152.36 119.659Z" fill="white"/>
<path d="M171.663 130.277V140.096L198.722 124.599L190.15 119.69L171.663 130.277Z" fill="#71BEDB"/>
<path d="M190.149 120.126L197.959 124.599L172.041 139.442V130.496L190.149 120.126ZM190.149 119.69L171.66 130.279V140.098L198.721 124.599L190.149 119.69Z" fill="white"/>
<path d="M179.928 103.605L171.247 98.6334L162.566 103.605L171.247 108.577L179.928 103.605Z" fill="#9589EA"/>
<path d="M171.247 118.52V108.577L162.566 103.605V113.548L171.247 118.52Z" fill="#9589EA"/>
<path d="M171.247 118.52V108.577L179.928 103.605V113.548L171.247 118.52Z" fill="#9589EA"/>
<path d="M171.247 98.4161L162.376 103.497V113.658L171.247 118.739L180.118 113.658V103.497L171.247 98.4161ZM179.547 103.605L171.247 108.359L162.947 103.607L171.247 98.8526L179.547 103.607V103.605ZM162.757 103.932L171.057 108.684V118.191L162.757 113.437V103.93V103.932ZM171.438 118.191V108.684L179.737 103.93V113.437L171.438 118.191Z" fill="white"/>
<defs>
<linearGradient id="paint0_linear_13918_3498" x1="114.278" y1="85.5922" x2="39.4503" y2="45.2285" gradientUnits="userSpaceOnUse">
<stop stop-color="#252525"/>
<stop offset="0.68236" stop-color="#7ED1FF" stop-opacity="0"/>
</linearGradient>
<linearGradient id="paint1_linear_13918_3498" x1="210.532" y1="102.581" x2="270.677" y2="68.8991" gradientUnits="userSpaceOnUse">
<stop stop-color="#252525"/>
<stop offset="1" stop-color="#7ED1FF" stop-opacity="0"/>
</linearGradient>
<linearGradient id="paint2_linear_13918_3498" x1="167.878" y1="8.6871" x2="175.32" y2="58.4383" gradientUnits="userSpaceOnUse">
<stop stop-color="#7CE0FF" stop-opacity="0"/>
<stop offset="1" stop-color="#252525"/>
</linearGradient>
<linearGradient id="paint3_linear_13918_3498" x1="101.661" y1="158.386" x2="38.0924" y2="128.474" gradientUnits="userSpaceOnUse">
<stop stop-color="#252525"/>
<stop offset="1" stop-color="#AE92FF" stop-opacity="0"/>
</linearGradient>
<linearGradient id="paint4_linear_13918_3498" x1="247.659" y1="185.425" x2="305.08" y2="147.144" gradientUnits="userSpaceOnUse">
<stop stop-color="#252525"/>
<stop offset="1" stop-color="#AE92FF" stop-opacity="0"/>
</linearGradient>
<linearGradient id="paint5_linear_13918_3498" x1="172.429" y1="186.27" x2="172.429" y2="236.247" gradientUnits="userSpaceOnUse">
<stop stop-color="#464C7C"/>
<stop offset="1" stop-color="#252525" stop-opacity="0"/>
</linearGradient>
</defs>
</svg>
