<svg width="183" height="200" viewBox="0 0 183 200" fill="none" xmlns="http://www.w3.org/2000/svg">
    <path d="M91.9251 62.6906C106.498 62.6906 118.311 50.9326 118.311 36.4283C118.311 21.924 106.498 10.166 91.9251 10.166C77.3525 10.166 65.5391 21.924 65.5391 36.4283C65.5391 50.9326 77.3525 62.6906 91.9251 62.6906Z" fill="#252525"/>
    <g clip-path="url(#clip0_6416_9046)">
        <path d="M85.7806 31.8319C88.4294 31.8319 90.5768 29.7586 90.5768 27.2011C90.5768 24.6436 88.4294 22.5703 85.7806 22.5703C83.1317 22.5703 80.9844 24.6436 80.9844 27.2011C80.9844 29.7586 83.1317 31.8319 85.7806 31.8319Z" fill="#CE7783"/>
        <path d="M105.043 40.998H79.9432C79.4248 40.998 78.9275 40.7992 78.5609 40.4452C78.1943 40.0912 77.9883 39.6111 77.9883 39.1105V14.8855C77.987 14.6368 78.0365 14.3903 78.1342 14.1602C78.2318 13.93 78.3756 13.7209 78.5573 13.5446C78.739 13.3683 78.9549 13.2284 79.1928 13.133C79.4306 13.0375 79.6857 12.9883 79.9432 12.9883H105.033C105.551 12.9896 106.048 13.1888 106.414 13.5425C106.781 13.8962 106.987 14.3755 106.988 14.8757V39.1007C106.99 39.6009 106.786 40.0813 106.421 40.4369C106.057 40.7924 105.562 40.9941 105.043 40.998ZM79.9432 14.4553C79.8277 14.4553 79.7169 14.4996 79.6353 14.5785C79.5536 14.6573 79.5077 14.7642 79.5077 14.8757V39.1007C79.507 39.1561 79.5178 39.211 79.5395 39.2624C79.5611 39.3137 79.5932 39.3605 79.6338 39.3996C79.6743 39.4388 79.7226 39.4697 79.7758 39.4906C79.8289 39.5115 79.8859 39.5218 79.9432 39.5212H105.033C105.149 39.5212 105.26 39.4771 105.341 39.3982C105.423 39.3193 105.469 39.2122 105.469 39.1007V14.8757C105.468 14.7646 105.421 14.6585 105.34 14.5799C105.259 14.5013 105.148 14.4565 105.033 14.4553H79.9432Z" fill="#E3E3E3"/>
        <path d="M87.7203 31.7722C86.0932 31.7696 84.5334 31.1444 83.3829 30.0335C82.2323 28.9226 81.5847 27.4166 81.582 25.8455C81.5847 24.2749 82.2325 22.7696 83.3832 21.6594C84.5339 20.5493 86.0937 19.9251 87.7203 19.9238C89.347 19.9251 90.9068 20.5493 92.0575 21.6594C93.2083 22.7696 93.856 24.2749 93.8587 25.8455C93.856 27.4166 93.2084 28.9226 92.0579 30.0335C90.9073 31.1444 89.3475 31.7696 87.7203 31.7722ZM87.7203 21.3908C86.4966 21.3921 85.3233 21.8616 84.4576 22.6966C83.5918 23.5317 83.1041 24.664 83.1014 25.8455C83.1028 27.0279 83.5898 28.1614 84.4558 28.9975C85.3217 29.8336 86.4957 30.3039 87.7203 30.3052C88.945 30.3039 90.119 29.8336 90.985 28.9975C91.8509 28.1614 92.3379 27.0279 92.3393 25.8455C92.3366 24.664 91.8489 23.5317 90.9832 22.6966C90.1174 21.8616 88.9441 21.3921 87.7203 21.3908Z" fill="#E3E3E3"/>
        <path d="M96.8192 16.1641H90.9746C90.8212 16.1634 90.6692 16.1919 90.5273 16.2481C90.3854 16.3044 90.2564 16.3872 90.1477 16.4917C90.039 16.5962 89.9527 16.7204 89.8939 16.8572C89.835 16.994 89.8047 17.1406 89.8047 17.2887V19.582C90.9907 19.7102 92.0965 20.2237 92.9404 21.0385C93.7843 21.8533 94.3162 22.921 94.449 24.0661H96.8192C97.1295 24.0661 97.4271 23.9473 97.6465 23.7354C97.8659 23.5236 97.9891 23.2361 97.9891 22.9365V17.2887C97.9891 17.1406 97.9588 16.994 97.9 16.8572C97.8411 16.7204 97.7549 16.5962 97.6462 16.4917C97.5375 16.3872 97.4084 16.3044 97.2665 16.2481C97.1246 16.1919 96.9726 16.1634 96.8192 16.1641Z" fill="#EAB669"/>
        <path d="M95.4828 26.0031H93.062C92.8754 26.003 92.6954 25.9368 92.5562 25.8168C92.4171 25.6969 92.3285 25.5316 92.3073 25.3527C92.1955 24.3497 91.7334 23.4135 90.9969 22.698C90.2605 21.9825 89.2936 21.5305 88.2556 21.4163C88.0698 21.397 87.8981 21.3117 87.7737 21.1771C87.6492 21.0425 87.581 20.8683 87.582 20.6878V18.3699C87.582 17.8693 87.788 17.3892 88.1546 17.0352C88.5212 16.6812 89.0185 16.4824 89.537 16.4824H95.5082C96.0266 16.4824 96.5239 16.6812 96.8905 17.0352C97.2571 17.3892 97.4631 17.8693 97.4631 18.3699V24.1352C97.4605 24.3835 97.4071 24.6289 97.3061 24.8572C97.2051 25.0856 97.0584 25.2923 96.8744 25.4658C96.6905 25.6394 96.4729 25.7762 96.2341 25.8684C95.9953 25.9606 95.74 26.0063 95.4828 26.0031ZM93.7051 24.5361H95.4828C95.5402 24.5367 95.5972 24.5264 95.6503 24.5055C95.7035 24.4846 95.7517 24.4537 95.7923 24.4145C95.8329 24.3754 95.865 24.3286 95.8866 24.2773C95.9083 24.2259 95.9191 24.171 95.9184 24.1156V18.3699C95.9184 18.2584 95.8725 18.1515 95.7908 18.0726C95.7091 17.9938 95.5984 17.9494 95.4828 17.9494H89.5117C89.3966 17.9507 89.2865 17.9952 89.2051 18.0738C89.1237 18.1524 89.0774 18.2587 89.0761 18.3699V20.0912C90.2057 20.3301 91.2413 20.8752 92.0613 21.6625C92.8812 22.4499 93.4515 23.4467 93.7051 24.5361Z" fill="#E3E3E3"/>
        <path d="M103.849 21.3908H100.264C100.062 21.3908 99.8689 21.3135 99.7264 21.1759C99.5839 21.0384 99.5039 20.8519 99.5039 20.6573C99.5039 20.4628 99.5839 20.276 99.7264 20.1385C99.8689 20.0009 100.062 19.9238 100.264 19.9238H103.849C104.051 19.9238 104.244 20.0009 104.387 20.1385C104.529 20.276 104.609 20.4628 104.609 20.6573C104.609 20.8519 104.529 21.0384 104.387 21.1759C104.244 21.3135 104.051 21.3908 103.849 21.3908Z" fill="#E3E3E3"/>
        <path d="M102.654 23.6994H100.264C100.062 23.6994 99.8689 23.6221 99.7264 23.4845C99.5839 23.347 99.5039 23.1605 99.5039 22.9659C99.5039 22.7714 99.5839 22.5849 99.7264 22.4473C99.8689 22.3098 100.062 22.2324 100.264 22.2324H102.654C102.856 22.2324 103.049 22.3098 103.191 22.4473C103.334 22.5849 103.414 22.7714 103.414 22.9659C103.414 23.1605 103.334 23.347 103.191 23.4845C103.049 23.6221 102.856 23.6994 102.654 23.6994Z" fill="#E3E3E3"/>
        <path d="M93.1146 35.2346H82.3573C82.1563 35.2333 81.9638 35.1555 81.8216 35.0182C81.6794 34.881 81.599 34.6952 81.5977 34.5011C81.5977 34.3065 81.6777 34.1198 81.8202 33.9822C81.9626 33.8447 82.1559 33.7676 82.3573 33.7676H93.1146C93.3161 33.7676 93.5093 33.8447 93.6518 33.9822C93.7942 34.1198 93.8743 34.3065 93.8743 34.5011C93.873 34.6952 93.7925 34.881 93.6503 35.0182C93.5081 35.1555 93.3157 35.2333 93.1146 35.2346Z" fill="#E3E3E3"/>
        <path d="M85.9275 37.5373H82.3417C82.1402 37.5373 81.947 37.46 81.8045 37.3224C81.6621 37.1849 81.582 36.9983 81.582 36.8038C81.5834 36.6097 81.6638 36.4237 81.806 36.2864C81.9482 36.1491 82.1407 36.0716 82.3417 36.0703H85.9275C86.129 36.0703 86.3222 36.1474 86.4647 36.285C86.6071 36.4225 86.6872 36.6093 86.6872 36.8038C86.6872 36.9983 86.6071 37.1849 86.4647 37.3224C86.3222 37.46 86.129 37.5373 85.9275 37.5373Z" fill="#E3E3E3"/>
        <path d="M99.1899 31.8364C99.0048 31.8426 98.8241 31.7815 98.6834 31.6652L94.7178 28.477C94.5633 28.3515 94.4664 28.1719 94.4484 27.9777C94.4303 27.7835 94.4926 27.5903 94.6216 27.4402C94.7507 27.2913 94.9357 27.1981 95.136 27.1807C95.3364 27.1633 95.5357 27.2231 95.6903 27.3474L99.6558 30.5406C99.7328 30.602 99.7964 30.6775 99.8429 30.7627C99.8895 30.8479 99.918 30.9411 99.927 31.037C99.9359 31.133 99.9251 31.2298 99.8951 31.3217C99.865 31.4135 99.8164 31.4987 99.7521 31.5724C99.6838 31.6531 99.5982 31.7185 99.5011 31.7641C99.404 31.8097 99.2978 31.8344 99.1899 31.8364Z" fill="#E3E3E3"/>
        <path d="M100.377 31.8262H98.2605C97.6787 31.8262 97.207 32.2816 97.207 32.8433V36.9264C97.207 37.4882 97.6787 37.9435 98.2605 37.9435H100.377C100.959 37.9435 101.431 37.4882 101.431 36.9264V32.8433C101.431 32.2816 100.959 31.8262 100.377 31.8262Z" fill="#71A5D2"/>
        <path d="M102.387 38.4516H100.002C99.4833 38.4516 98.9861 38.2528 98.6195 37.8988C98.2528 37.5449 98.0469 37.0647 98.0469 36.5641V31.948C98.0469 31.4474 98.2528 30.9673 98.6195 30.6133C98.9861 30.2593 99.4833 30.0605 100.002 30.0605H102.387C102.906 30.0605 103.403 30.2593 103.77 30.6133C104.136 30.9673 104.342 31.4474 104.342 31.948V36.5641C104.342 37.0647 104.136 37.5449 103.77 37.8988C103.403 38.2528 102.906 38.4516 102.387 38.4516ZM100.002 31.5275C99.9446 31.5275 99.888 31.5384 99.8351 31.5595C99.7823 31.5807 99.7343 31.6117 99.6938 31.6507C99.6534 31.6898 99.6213 31.7361 99.5994 31.7871C99.5775 31.8381 99.5663 31.8928 99.5663 31.948V36.5641C99.5663 36.6193 99.5775 36.674 99.5994 36.725C99.6213 36.7761 99.6534 36.8223 99.6938 36.8614C99.7343 36.9004 99.7823 36.9315 99.8351 36.9526C99.888 36.9737 99.9446 36.9846 100.002 36.9846H102.387C102.503 36.9846 102.614 36.9403 102.695 36.8614C102.777 36.7825 102.823 36.6757 102.823 36.5641V31.948C102.823 31.8365 102.777 31.7296 102.695 31.6507C102.614 31.5719 102.503 31.5275 102.387 31.5275H100.002Z" fill="#E3E3E3"/>
        <path d="M89.5135 37.5373H88.3183C88.1168 37.5373 87.9236 37.46 87.7811 37.3224C87.6386 37.1849 87.5586 36.9983 87.5586 36.8038C87.5586 36.6093 87.6386 36.4225 87.7811 36.285C87.9236 36.1474 88.1168 36.0703 88.3183 36.0703H89.5135C89.715 36.0703 89.9082 36.1474 90.0507 36.285C90.1932 36.4225 90.2732 36.6093 90.2732 36.8038C90.2732 36.9983 90.1932 37.1849 90.0507 37.3224C89.9082 37.46 89.715 37.5373 89.5135 37.5373Z" fill="#E3E3E3"/>
        <path d="M103.849 19.0822H100.264C100.062 19.0822 99.8689 19.0049 99.7264 18.8673C99.5839 18.7298 99.5039 18.5433 99.5039 18.3487C99.5039 18.1542 99.5839 17.9677 99.7264 17.8301C99.8689 17.6926 100.062 17.6152 100.264 17.6152H103.849C104.051 17.6152 104.244 17.6926 104.387 17.8301C104.529 17.9677 104.609 18.1542 104.609 18.3487C104.609 18.5433 104.529 18.7298 104.387 18.8673C104.244 19.0049 104.051 19.0822 103.849 19.0822Z" fill="#E3E3E3"/>
    </g>
    <path d="M36.7736 174.21C35.306 174.265 33.8406 174.056 32.4473 173.595C32.386 173.576 32.3291 173.546 32.2804 173.504C32.2317 173.463 32.192 173.412 32.164 173.355C32.1359 173.298 32.1203 173.235 32.1176 173.172C32.1149 173.108 32.1254 173.045 32.1485 172.985C32.1717 172.926 32.2069 172.872 32.252 172.827C32.2971 172.782 32.351 172.746 32.4105 172.722C32.47 172.699 32.5338 172.688 32.5978 172.69C32.6619 172.692 32.7248 172.707 32.7827 172.734C35.6467 173.835 41.9242 173.271 50.9446 171.097C51.0054 171.078 51.0692 171.072 51.1324 171.079C51.1957 171.086 51.2568 171.105 51.3121 171.137C51.3674 171.168 51.4157 171.21 51.454 171.26C51.4922 171.311 51.5197 171.368 51.5347 171.43C51.5497 171.491 51.5518 171.555 51.541 171.617C51.5302 171.68 51.5067 171.739 51.4719 171.792C51.4371 171.845 51.3917 171.89 51.3387 171.925C51.2856 171.96 51.226 171.983 51.1634 171.994C45.0395 173.47 40.2337 174.21 36.7736 174.21Z" fill="#E3E3E3"/>
    <path d="M110.002 196.674C109.894 196.676 109.789 196.642 109.704 196.576C109.619 196.51 109.56 196.417 109.536 196.313C109.51 196.193 109.532 196.068 109.599 195.965C109.665 195.862 109.77 195.789 109.89 195.762C119.67 193.644 123.963 192.062 131.088 188.611C140.02 184.304 155.257 171.495 156.608 170.172C156.608 170.125 156.52 169.876 156.031 169.543C154.606 168.562 151.146 167.692 147.453 169.399C144.342 170.819 140.63 173.771 137.356 176.37C134.832 178.378 132.653 180.113 131.302 180.691C128.331 181.945 110.16 183.693 107.375 183.226C106.91 183.152 106.146 182.995 105.047 182.763C100.39 181.838 90.7503 179.881 84.6125 179.881H84.5659C84.365 179.88 84.1702 179.812 84.0122 179.688C83.8543 179.565 83.7422 179.393 83.6932 179.199C83.6442 179.006 83.6612 178.802 83.7416 178.619C83.822 178.436 83.9613 178.284 84.1375 178.188C87.9608 176.167 97.6099 171.37 104.628 170.542C106.868 170.273 108.721 170.135 110.36 170.01C115.017 169.658 116.941 169.515 117.811 167.234C117.873 167.08 117.891 166.912 117.862 166.749C117.833 166.585 117.76 166.433 117.649 166.309C115.939 163.996 105.894 162.294 99.3561 162.664C96.7222 162.75 94.0856 162.608 91.4767 162.238C87.3088 161.776 83.3691 161.313 79.2896 163.006C76.7982 164.038 71.3217 166.041 65.1793 168.002C65.1209 168.021 65.0594 168.028 64.9983 168.022C64.9372 168.017 64.8777 168 64.8232 167.973C64.7687 167.945 64.7202 167.906 64.6806 167.86C64.6411 167.813 64.6111 167.759 64.5924 167.701C64.5738 167.643 64.5668 167.582 64.5719 167.522C64.5771 167.461 64.5941 167.402 64.6222 167.348C64.6503 167.294 64.6888 167.245 64.7357 167.206C64.7825 167.167 64.8367 167.137 64.8951 167.119C71.0096 165.171 76.4582 163.177 78.931 162.155C83.234 160.374 87.2901 160.832 91.5838 161.322C94.1408 161.68 96.7239 161.821 99.3049 161.743C105.541 161.392 116.303 162.927 118.398 165.763C118.597 166.009 118.728 166.302 118.778 166.614C118.827 166.925 118.795 167.244 118.682 167.54C117.606 170.366 115.208 170.546 110.435 170.907C108.805 171.032 106.961 171.171 104.74 171.435C97.9544 172.239 88.5336 176.902 84.6917 178.933C90.9272 178.933 100.59 180.895 105.247 181.834C106.281 182.042 107.11 182.204 107.529 182.296C110.156 182.759 128.145 181.001 130.935 179.821C132.187 179.289 134.32 177.596 136.793 175.63C140.109 172.993 143.867 170.005 147.085 168.539C151.798 166.397 156.315 168.021 157.33 169.464C157.494 169.654 157.582 169.898 157.575 170.149C157.568 170.399 157.467 170.638 157.293 170.819C156.492 171.61 141.105 184.813 131.526 189.429C124.326 192.904 120.009 194.518 110.104 196.655C110.071 196.666 110.037 196.673 110.002 196.674Z" fill="#E3E3E3"/>
    <path d="M81.9138 199.505C58.918 199.505 27.2975 197.141 26.9296 197.113C26.8069 197.104 26.693 197.046 26.6127 196.954C26.5324 196.861 26.4923 196.74 26.5012 196.618C26.5108 196.496 26.5686 196.383 26.662 196.303C26.7554 196.223 26.8766 196.184 26.9994 196.193C27.4279 196.225 69.9082 199.403 92.1262 198.381C92.2497 198.375 92.3704 198.419 92.4616 198.502C92.5529 198.584 92.6073 198.7 92.6128 198.823C92.6184 198.945 92.5748 199.065 92.4914 199.156C92.408 199.246 92.2918 199.3 92.1683 199.306C89.0854 199.449 85.6114 199.505 81.9138 199.505Z" fill="#E3E3E3"/>
    <path d="M109.164 182.18C109.064 182.181 108.965 182.149 108.884 182.09C108.803 182.03 108.744 181.946 108.715 181.85C108.686 181.754 108.689 181.652 108.724 181.558C108.759 181.464 108.824 181.384 108.908 181.329C115.326 177.138 124.546 175.362 126.074 175.089C127.005 173.544 133.394 162.835 138.601 157.376C140.418 155.422 142.643 153.886 145.12 152.875C147.137 152.103 148.846 152.019 149.633 152.653C149.861 152.829 150.536 153.504 149.712 154.762C148.338 156.863 139.392 169.436 134.186 176.745C134.151 176.795 134.106 176.837 134.054 176.87C134.002 176.903 133.944 176.925 133.883 176.935C133.823 176.946 133.761 176.944 133.701 176.93C133.641 176.917 133.584 176.891 133.534 176.856C133.484 176.821 133.441 176.776 133.408 176.725C133.375 176.673 133.353 176.615 133.342 176.555C133.332 176.495 133.334 176.433 133.347 176.374C133.361 176.314 133.386 176.258 133.422 176.208C138.629 168.909 147.565 156.344 148.934 154.258C149.214 153.828 149.256 153.532 149.06 153.379C148.166 152.685 143.644 153.444 139.281 158.005C133.762 163.792 126.847 175.616 126.777 175.736L126.665 175.926L126.446 175.958C126.348 175.958 116.238 177.647 109.425 182.097C109.349 182.15 109.258 182.179 109.164 182.18Z" fill="#E3E3E3"/>
    <path d="M105.304 180.747C105.213 180.747 105.124 180.72 105.048 180.67C104.972 180.62 104.913 180.549 104.877 180.466C104.841 180.383 104.831 180.291 104.847 180.202C104.864 180.113 104.906 180.031 104.969 179.966C108.927 175.909 115.125 172.754 119.223 170.672C120.839 169.849 122.511 168.997 122.73 168.697C125.578 164.897 128.662 161.277 131.964 157.858C137.413 152.108 142.182 154.435 142.382 154.537C142.488 154.595 142.567 154.691 142.603 154.806C142.639 154.921 142.628 155.046 142.573 155.153C142.517 155.26 142.422 155.342 142.308 155.38C142.193 155.419 142.068 155.412 141.958 155.36C141.777 155.272 137.585 153.274 132.644 158.492C129.368 161.878 126.31 165.465 123.489 169.233C123.154 169.696 122.069 170.26 119.647 171.496C115.6 173.549 109.49 176.663 105.639 180.609C105.595 180.653 105.543 180.688 105.486 180.712C105.428 180.736 105.366 180.748 105.304 180.747Z" fill="#E3E3E3"/>
    <path d="M124.397 167.726C124.334 167.726 124.271 167.713 124.213 167.689C124.155 167.664 124.103 167.628 124.059 167.582C124.016 167.537 123.982 167.483 123.96 167.424C123.938 167.366 123.928 167.303 123.931 167.24C124.309 158.382 124.323 148.737 123.708 147.562C122.725 147.714 118.446 152.567 115.586 160.149C115.567 160.209 115.537 160.265 115.495 160.312C115.454 160.36 115.404 160.399 115.347 160.427C115.29 160.455 115.228 160.471 115.164 160.474C115.101 160.477 115.038 160.467 114.978 160.445C114.919 160.423 114.865 160.389 114.819 160.345C114.773 160.302 114.737 160.249 114.712 160.191C114.688 160.133 114.675 160.071 114.676 160.008C114.676 159.945 114.69 159.883 114.715 159.825C117.537 152.336 121.817 147.025 123.531 146.659C123.672 146.62 123.822 146.619 123.964 146.655C124.107 146.692 124.237 146.765 124.341 146.868C124.625 147.155 125.221 147.747 125.114 157.679C125.063 162.499 124.867 167.236 124.863 167.282C124.858 167.401 124.807 167.514 124.72 167.597C124.633 167.68 124.517 167.726 124.397 167.726Z" fill="#E3E3E3"/>
    <path d="M108.996 177.615C108.949 177.616 108.901 177.608 108.857 177.592C104.79 176.399 100.642 175.498 96.446 174.895C96.3225 174.877 96.2112 174.811 96.1365 174.712C96.0618 174.613 96.0299 174.488 96.0478 174.365C96.0657 174.243 96.132 174.132 96.232 174.058C96.332 173.984 96.4576 173.952 96.5811 173.97C100.833 174.578 105.035 175.492 109.155 176.704C109.278 176.722 109.389 176.788 109.463 176.888C109.538 176.988 109.569 177.113 109.551 177.236C109.532 177.358 109.465 177.469 109.365 177.542C109.264 177.616 109.139 177.647 109.015 177.629L108.996 177.615Z" fill="#E3E3E3"/>
    <path d="M91.8197 53.3717C87.8467 53.3716 83.9235 52.4934 80.3334 50.8003C76.7433 49.1072 73.576 46.6417 71.0606 43.5819C68.5451 40.5221 66.7443 36.9444 65.7883 33.1075C64.8322 29.2707 64.7446 25.2704 65.5321 21.3958C66.3197 17.5212 67.9627 13.8691 70.3421 10.7034C72.7216 7.53777 75.7782 4.93765 79.291 3.09094C82.8037 1.24423 86.6848 0.197124 90.654 0.0252405C94.6232 -0.146643 98.5813 0.561017 102.242 2.09708C102.315 2.12455 102.381 2.16634 102.438 2.22001C102.494 2.27368 102.539 2.33817 102.569 2.40947C102.6 2.48077 102.616 2.5574 102.616 2.63494C102.616 2.71247 102.6 2.7893 102.57 2.86069C102.54 2.93208 102.495 2.9966 102.439 3.05043C102.383 3.10427 102.316 3.14624 102.243 3.17393C102.171 3.20161 102.093 3.21437 102.015 3.21148C101.937 3.20859 101.861 3.19019 101.791 3.15719C96.1971 0.805739 89.9467 0.503912 84.1507 2.30539C78.3548 4.10686 73.3888 7.89486 70.1352 12.9961C66.8816 18.0973 65.5515 24.1813 66.3812 30.1663C67.2108 36.1514 70.1464 41.6499 74.6664 45.6843C79.1864 49.7187 84.9979 52.0276 91.0676 52.2006C97.1373 52.3737 103.072 50.3997 107.817 46.6295C112.561 42.8592 115.809 37.5371 116.982 31.6092C118.154 25.6812 117.177 19.5315 114.222 14.2533C114.145 14.1196 114.125 13.961 114.166 13.8125C114.206 13.6639 114.305 13.5375 114.439 13.4611C114.573 13.3847 114.733 13.3645 114.882 13.405C115.031 13.4455 115.158 13.5434 115.235 13.6771C117.508 17.7401 118.676 22.3233 118.621 26.973C118.567 31.6228 117.293 36.1778 114.926 40.1871C112.558 44.1964 109.179 47.5208 105.124 49.8313C101.068 52.1418 96.4759 53.3583 91.8024 53.3602L91.8197 53.3717Z" fill="#E3E3E3"/>
    <path d="M60.8353 139.736C75.4079 139.736 87.2213 127.977 87.2213 113.473C87.2213 98.969 75.4079 87.2109 60.8353 87.2109C46.2627 87.2109 34.4492 98.969 34.4492 113.473C34.4492 127.977 46.2627 139.736 60.8353 139.736Z" fill="#252525"/>
    <g clip-path="url(#clip1_6416_9046)">
        <path d="M51.6559 111.053H48.5563C47.8845 111.053 47.2403 110.78 46.7653 110.293C46.2903 109.807 46.0234 109.148 46.0234 108.46V90.5972C46.0234 89.9091 46.2901 89.2492 46.765 88.7622C47.2399 88.2753 47.8841 88.0012 48.5563 88H59.7769C60.4491 88.0012 61.0933 88.2753 61.5682 88.7622C62.0431 89.2492 62.3098 89.9091 62.3098 90.5972V96.3399C62.3098 96.5202 62.2398 96.6931 62.1152 96.8206C61.9907 96.9481 61.8217 97.0198 61.6456 97.0198C61.4694 97.0198 61.3005 96.9481 61.1759 96.8206C61.0514 96.6931 60.9814 96.5202 60.9814 96.3399V90.5972C60.9814 90.2698 60.8546 89.9558 60.6289 89.7238C60.4031 89.4919 60.0968 89.361 59.7769 89.3598H48.5563C48.2364 89.361 47.9301 89.4919 47.7044 89.7238C47.4786 89.9558 47.3518 90.2698 47.3519 90.5972V108.46C47.3519 108.787 47.4787 109.101 47.7046 109.332C47.9305 109.563 48.2368 109.693 48.5563 109.693H51.6559C51.8321 109.693 52.001 109.765 52.1256 109.892C52.2501 110.02 52.3201 110.192 52.3201 110.373C52.3201 110.553 52.2501 110.726 52.1256 110.853C52.001 110.981 51.8321 111.053 51.6559 111.053Z" fill="#E3E3E3"/>
        <path d="M51.6541 105.973H46.6681C46.492 105.973 46.323 105.901 46.1984 105.774C46.0739 105.646 46.0039 105.473 46.0039 105.293C46.0039 105.113 46.0739 104.94 46.1984 104.812C46.323 104.685 46.492 104.613 46.6681 104.613H51.6541C51.8302 104.613 51.9992 104.685 52.1238 104.812C52.2483 104.94 52.3183 105.113 52.3183 105.293C52.3183 105.473 52.2483 105.646 52.1238 105.774C51.9992 105.901 51.8302 105.973 51.6541 105.973Z" fill="#E3E3E3"/>
        <path d="M59.129 110.419C58.9529 110.419 58.7839 110.348 58.6594 110.22C58.5348 110.093 58.4648 109.92 58.4648 109.739V98.8928C58.4648 98.7125 58.5348 98.5396 58.6594 98.4121C58.7839 98.2846 58.9529 98.2129 59.129 98.2129C59.3052 98.2129 59.4741 98.2846 59.5987 98.4121C59.7233 98.5396 59.7933 98.7125 59.7933 98.8928V109.739C59.7933 109.92 59.7233 110.093 59.5987 110.22C59.4741 110.348 59.3052 110.419 59.129 110.419Z" fill="#E3E3E3"/>
        <path d="M61.6221 93.1899H46.6642C46.488 93.1899 46.3191 93.1184 46.1945 92.9909C46.07 92.8634 46 92.6903 46 92.51C46 92.3296 46.07 92.1568 46.1945 92.0293C46.3191 91.9018 46.488 91.8301 46.6642 91.8301H61.6221C61.7983 91.8301 61.9672 91.9018 62.0918 92.0293C62.2164 92.1568 62.2863 92.3296 62.2863 92.51C62.2863 92.6903 62.2164 92.8634 62.0918 92.9909C61.9672 93.1184 61.7983 93.1899 61.6221 93.1899Z" fill="#E3E3E3"/>
        <path d="M71.5822 109.779C71.406 109.779 71.2371 109.707 71.1125 109.579C70.988 109.452 70.918 109.279 70.918 109.099V102.082C70.918 101.902 70.988 101.729 71.1125 101.602C71.2371 101.474 71.406 101.402 71.5822 101.402C71.7583 101.402 71.9273 101.474 72.0518 101.602C72.1764 101.729 72.2464 101.902 72.2464 102.082V109.099C72.2464 109.279 72.1764 109.452 72.0518 109.579C71.9273 109.707 71.7583 109.779 71.5822 109.779Z" fill="#E3E3E3"/>
        <path d="M56.0133 114.882C55.3419 114.881 54.6984 114.607 54.2236 114.121C53.7489 113.635 53.4816 112.976 53.4805 112.289V100.804C53.4816 100.116 53.7489 99.4576 54.2236 98.9716C54.6984 98.4857 55.3419 98.2121 56.0133 98.2109H73.4687C74.1401 98.2121 74.7836 98.4857 75.2584 98.9716C75.7331 99.4576 76.0003 100.116 76.0015 100.804V110.372C76.0015 110.552 75.9315 110.725 75.807 110.853C75.6824 110.98 75.5135 111.052 75.3373 111.052C75.1611 111.052 74.9922 110.98 74.8676 110.853C74.7431 110.725 74.6731 110.552 74.6731 110.372V100.804C74.6731 100.477 74.5462 100.163 74.3203 99.9319C74.0945 99.7007 73.7881 99.5707 73.4687 99.5707H56.0133C55.6939 99.5707 55.3875 99.7007 55.1617 99.9319C54.9358 100.163 54.8089 100.477 54.8089 100.804V112.289C54.8089 112.451 54.84 112.611 54.9006 112.761C54.9611 112.911 55.0498 113.046 55.1617 113.161C55.2735 113.275 55.4063 113.366 55.5524 113.428C55.6985 113.49 55.8551 113.522 56.0133 113.522C56.1895 113.522 56.3584 113.594 56.483 113.721C56.6075 113.849 56.6775 114.022 56.6775 114.202C56.6775 114.382 56.6075 114.555 56.483 114.683C56.3584 114.81 56.1895 114.882 56.0133 114.882Z" fill="#E3E3E3"/>
        <path d="M63.8206 118.083L60.1807 113.605C59.9371 113.305 59.8194 112.919 59.8534 112.53C59.8874 112.142 60.0704 111.784 60.3623 111.533C60.656 111.286 61.0334 111.166 61.4124 111.202C61.7913 111.238 62.1412 111.425 62.3859 111.724L64.6265 114.488V104.875C64.6265 104.486 64.777 104.113 65.0451 103.838C65.3132 103.563 65.677 103.407 66.0568 103.406C66.4373 103.406 66.8022 103.561 67.0712 103.836C67.3403 104.112 67.4914 104.485 67.4914 104.875V111.221H70.3608C71.3743 111.221 72.3463 111.632 73.0629 112.366C73.7796 113.1 74.1822 114.095 74.1822 115.132V118.069L63.8206 118.083Z" fill="#EAB669"/>
        <path d="M63.4689 120.023C63.3718 120.022 63.276 120 63.1881 119.957C63.1002 119.915 63.0222 119.854 62.9596 119.778L59.0275 114.933C58.6574 114.472 58.4796 113.881 58.5326 113.287C58.5857 112.693 58.8653 112.144 59.3109 111.76C59.5344 111.569 59.7925 111.425 60.0704 111.336C60.3483 111.247 60.6406 111.215 60.9306 111.242C61.2206 111.269 61.5025 111.354 61.7603 111.493C62.018 111.631 62.2465 111.821 62.4327 112.05L63.677 113.591V105.065C63.677 104.768 63.7343 104.473 63.8455 104.198C63.9568 103.923 64.1199 103.673 64.3255 103.463C64.5311 103.252 64.7751 103.085 65.0437 102.971C65.3124 102.857 65.6003 102.799 65.891 102.799C66.4782 102.799 67.0413 103.038 67.4566 103.463C67.8718 103.888 68.105 104.464 68.105 105.065V111.261H70.5405C71.812 111.262 73.031 111.78 73.9301 112.7C74.8292 113.62 75.3349 114.868 75.336 116.17V119.343C75.336 119.523 75.2661 119.696 75.1415 119.823C75.0169 119.951 74.848 120.023 74.6718 120.023C74.4957 120.023 74.3267 119.951 74.2022 119.823C74.0776 119.696 74.0076 119.523 74.0076 119.343V116.17C74.0064 115.229 73.6408 114.327 72.9908 113.662C72.3409 112.996 71.4596 112.622 70.5405 112.621H67.4408C67.2647 112.621 67.0957 112.549 66.9712 112.422C66.8466 112.294 66.7766 112.121 66.7766 111.941V105.065C66.7766 104.825 66.6833 104.594 66.5172 104.424C66.3511 104.254 66.1259 104.159 65.891 104.159C65.6561 104.159 65.4309 104.254 65.2648 104.424C65.0987 104.594 65.0054 104.825 65.0054 105.065V115.458C65.005 115.599 64.9623 115.735 64.883 115.85C64.8037 115.964 64.6918 116.051 64.5626 116.097C64.434 116.144 64.2944 116.149 64.1629 116.112C64.0314 116.075 63.9143 115.997 63.8275 115.889L61.4054 112.902C61.3307 112.81 61.2392 112.735 61.136 112.68C61.0328 112.625 60.92 112.591 60.804 112.58C60.688 112.57 60.5711 112.583 60.4601 112.618C60.349 112.654 60.2459 112.712 60.1567 112.789C59.9769 112.942 59.8638 113.162 59.8423 113.401C59.8207 113.64 59.8923 113.878 60.0416 114.062L63.9781 118.908C64.0901 119.047 64.1437 119.225 64.1271 119.404C64.1105 119.584 64.025 119.749 63.8895 119.864C63.7713 119.965 63.6227 120.021 63.4689 120.023Z" fill="#E3E3E3"/>
    </g>
    <path d="M60.8376 130.372C56.8638 130.376 52.9389 129.501 49.3467 127.809C45.7544 126.118 42.5847 123.653 40.067 120.593C37.5494 117.533 35.7468 113.953 34.7895 110.114C33.8322 106.275 33.7443 102.273 34.5321 98.3958C35.3198 94.5189 36.9635 90.8646 39.3443 87.6977C41.7251 84.5307 44.7833 81.9303 48.2979 80.0843C51.8124 78.2383 55.6954 77.1932 59.6656 77.0243C63.6358 76.8555 67.5938 77.5672 71.2537 79.1081C71.3948 79.1678 71.5064 79.2808 71.5639 79.4222C71.6214 79.5637 71.6203 79.7221 71.5606 79.8627C71.5006 80.0031 71.3871 80.1141 71.2449 80.1713C71.1028 80.2286 70.9437 80.2274 70.8025 80.168C65.2156 77.821 58.9736 77.5219 53.186 79.3238C47.3985 81.1257 42.4403 84.9119 39.1928 90.0094C35.9453 95.1069 34.6189 101.185 35.4493 107.165C36.2796 113.144 39.2128 118.636 43.7278 122.666C48.2428 126.695 54.047 129 60.1086 129.172C66.1702 129.344 72.0967 127.37 76.8344 123.603C81.5722 119.835 84.8143 114.518 85.9847 108.595C87.155 102.672 86.1776 96.5288 83.2264 91.2559C83.1884 91.1901 83.1638 91.1174 83.154 91.0421C83.1442 90.9669 83.1494 90.8904 83.1693 90.8172C83.1892 90.7439 83.2233 90.6752 83.2699 90.6151C83.3164 90.5549 83.3744 90.5045 83.4406 90.4667C83.5067 90.4289 83.5797 90.4045 83.6553 90.3947C83.7309 90.385 83.8077 90.3901 83.8813 90.4099C83.955 90.4297 84.0238 90.4637 84.0842 90.51C84.1446 90.5564 84.1954 90.6141 84.2334 90.6799C86.5068 94.7413 87.6747 99.3233 87.6215 103.972C87.5683 108.621 86.2959 113.176 83.9302 117.185C81.5645 121.193 78.1876 124.517 74.1341 126.827C70.0805 129.137 65.4912 130.353 60.8204 130.354L60.8376 130.372Z" fill="#E3E3E3"/>
    <path d="M125.949 139.736C140.286 139.736 151.909 127.977 151.909 113.473C151.909 98.969 140.286 87.2109 125.949 87.2109C111.611 87.2109 99.9883 98.969 99.9883 113.473C99.9883 127.977 111.611 139.736 125.949 139.736Z" fill="#252525"/>
    <g clip-path="url(#clip2_6416_9046)">
        <path d="M121.03 88H137.68C138.826 88 139.924 88.4604 140.734 89.28C141.544 90.0996 141.999 91.2112 141.999 92.3703V93.1544H116.711V92.3703C116.711 91.2112 117.166 90.0996 117.976 89.28C118.786 88.4604 119.884 88 121.03 88Z" fill="#EAB669"/>
        <path d="M140.604 95.3054H114.582C114.402 95.3054 114.229 95.2331 114.101 95.1041C113.974 94.9751 113.902 94.8 113.902 94.6176C113.902 94.4351 113.974 94.2602 114.101 94.1312C114.229 94.0022 114.402 93.9297 114.582 93.9297H140.604C140.785 93.9297 140.958 94.0022 141.085 94.1312C141.213 94.2602 141.284 94.4351 141.284 94.6176C141.284 94.8 141.213 94.9751 141.085 95.1041C140.958 95.2331 140.785 95.3054 140.604 95.3054Z" fill="#E3E3E3"/>
        <path d="M127.375 91.041C127.127 91.041 126.89 91.1406 126.715 91.3178C126.54 91.4949 126.441 91.7352 126.441 91.9857C126.443 92.2355 126.541 92.4746 126.716 92.6507C126.891 92.8269 127.128 92.9257 127.375 92.9257C127.497 92.9263 127.619 92.9026 127.732 92.8556C127.845 92.8087 127.948 92.7394 128.035 92.6521C128.122 92.5647 128.19 92.4608 128.237 92.3464C128.284 92.2321 128.309 92.1096 128.309 91.9857C128.309 91.7352 128.21 91.4949 128.035 91.3178C127.86 91.1406 127.623 91.041 127.375 91.041Z" fill="#E3E3E3"/>
        <path d="M123.305 91.041C123.057 91.041 122.82 91.1406 122.645 91.3178C122.469 91.4949 122.371 91.7352 122.371 91.9857C122.371 92.1096 122.395 92.2321 122.442 92.3464C122.489 92.4608 122.558 92.5647 122.645 92.6521C122.732 92.7394 122.835 92.8087 122.948 92.8556C123.061 92.9026 123.182 92.9263 123.305 92.9257C123.551 92.9257 123.787 92.8268 123.962 92.6505C124.136 92.4742 124.234 92.235 124.234 91.9857C124.234 91.8619 124.211 91.7391 124.164 91.6245C124.118 91.51 124.05 91.4058 123.963 91.318C123.877 91.2302 123.774 91.1606 123.661 91.1131C123.548 91.0656 123.427 91.041 123.305 91.041Z" fill="#E3E3E3"/>
        <path d="M119.332 91.041C119.084 91.041 118.847 91.1406 118.672 91.3178C118.497 91.4949 118.398 91.7352 118.398 91.9857C118.398 92.1096 118.423 92.2321 118.47 92.3464C118.517 92.4608 118.585 92.5647 118.672 92.6521C118.759 92.7394 118.862 92.8087 118.975 92.8556C119.088 92.9026 119.21 92.9263 119.332 92.9257C119.454 92.9263 119.576 92.9026 119.689 92.8556C119.802 92.8087 119.905 92.7394 119.992 92.6521C120.079 92.5647 120.147 92.4608 120.194 92.3464C120.241 92.2321 120.266 92.1096 120.266 91.9857C120.266 91.7352 120.167 91.4949 119.992 91.3178C119.817 91.1406 119.58 91.041 119.332 91.041Z" fill="#E3E3E3"/>
        <path d="M138.003 109.786H127.58C127.399 109.786 127.227 109.714 127.099 109.585C126.972 109.456 126.9 109.281 126.9 109.098C126.9 108.916 126.972 108.741 127.099 108.612C127.227 108.483 127.399 108.411 127.58 108.411H138.003C138.512 108.409 139 108.204 139.361 107.84C139.721 107.475 139.924 106.982 139.925 106.466V91.9843C139.924 91.469 139.721 90.9752 139.361 90.6108C139 90.2464 138.512 90.041 138.003 90.0398H117.183C116.674 90.0398 116.185 90.2448 115.825 90.6094C115.464 90.9741 115.262 91.4686 115.262 91.9843V101.197C115.262 101.38 115.19 101.554 115.063 101.683C114.935 101.812 114.762 101.885 114.582 101.885C114.402 101.885 114.229 101.812 114.101 101.683C113.974 101.554 113.902 101.38 113.902 101.197V91.9843C113.902 91.1037 114.248 90.2592 114.863 89.6365C115.479 89.0139 116.313 88.6641 117.183 88.6641H138.003C138.434 88.6641 138.861 88.75 139.259 88.9169C139.657 89.0837 140.019 89.3282 140.323 89.6365C140.628 89.9448 140.87 90.311 141.035 90.7138C141.199 91.1166 141.284 91.5483 141.284 91.9843V106.466C141.283 107.346 140.937 108.19 140.322 108.812C139.707 109.435 138.873 109.785 138.003 109.786Z" fill="#E3E3E3"/>
        <path d="M123.71 103.84H114.406C113.766 103.84 113.246 104.365 113.246 105.014V114.428C113.246 115.077 113.766 115.602 114.406 115.602H123.71C124.351 115.602 124.871 115.077 124.871 114.428V105.014C124.871 104.365 124.351 103.84 123.71 103.84Z" fill="#71A5D2"/>
        <path d="M122.388 119.004H111.965C111.44 119.004 110.936 118.793 110.564 118.418C110.193 118.042 109.984 117.532 109.984 117V106.453C109.984 105.922 110.193 105.412 110.564 105.036C110.936 104.66 111.44 104.449 111.965 104.449H122.388C122.914 104.449 123.418 104.66 123.79 105.036C124.162 105.412 124.372 105.921 124.373 106.453V117C124.372 117.532 124.162 118.042 123.79 118.418C123.418 118.793 122.914 119.004 122.388 119.004ZM111.965 105.839C111.8 105.839 111.642 105.905 111.526 106.023C111.409 106.14 111.344 106.3 111.344 106.467V117.014C111.344 117.181 111.409 117.341 111.526 117.459C111.642 117.576 111.8 117.643 111.965 117.643H122.388C122.553 117.643 122.712 117.576 122.829 117.459C122.946 117.341 123.012 117.181 123.014 117.014V106.467C123.014 106.384 122.997 106.302 122.966 106.225C122.935 106.149 122.888 106.08 122.83 106.021C122.772 105.963 122.703 105.916 122.627 105.885C122.551 105.854 122.47 105.838 122.388 105.839H111.965Z" fill="#E3E3E3"/>
        <path d="M115.557 115.712C115.377 115.712 115.204 115.639 115.076 115.511C114.95 115.381 114.879 115.206 114.879 115.024C114.879 114.843 114.95 114.668 115.076 114.539L117.85 111.732L115.076 108.93C114.95 108.8 114.879 108.624 114.879 108.442C114.879 108.259 114.95 108.084 115.076 107.953C115.204 107.825 115.377 107.754 115.557 107.754C115.736 107.754 115.909 107.825 116.037 107.953L119.291 111.246C119.418 111.375 119.49 111.55 119.49 111.732C119.49 111.914 119.418 112.089 119.291 112.218L116.037 115.511C115.974 115.575 115.899 115.626 115.817 115.66C115.734 115.695 115.646 115.713 115.557 115.712Z" fill="#E3E3E3"/>
        <path d="M131.088 119.004H126.942C126.761 119.004 126.588 118.932 126.461 118.803C126.333 118.674 126.262 118.499 126.262 118.316C126.262 118.134 126.333 117.959 126.461 117.83C126.588 117.701 126.761 117.628 126.942 117.628H131.088C131.659 117.628 132.117 116.651 132.117 115.844V111.717C132.117 111.535 132.189 111.36 132.316 111.231C132.444 111.102 132.616 111.029 132.797 111.029C132.977 111.029 133.15 111.102 133.277 111.231C133.405 111.36 133.477 111.535 133.477 111.717V115.844C133.477 117.362 132.566 119.004 131.088 119.004Z" fill="#E3E3E3"/>
        <path d="M135.395 115.051C135.306 115.051 135.218 115.034 135.135 114.999C135.053 114.964 134.978 114.913 134.915 114.849L132.794 112.703L130.673 114.849C130.61 114.913 130.536 114.964 130.453 114.999C130.371 115.034 130.282 115.052 130.193 115.052C130.103 115.052 130.015 115.034 129.932 114.999C129.85 114.964 129.775 114.913 129.712 114.849C129.649 114.786 129.598 114.71 129.564 114.627C129.529 114.543 129.512 114.453 129.512 114.363C129.512 114.273 129.529 114.183 129.564 114.1C129.598 114.016 129.649 113.94 129.712 113.877L132.314 111.245C132.441 111.116 132.614 111.043 132.794 111.043C132.974 111.043 133.147 111.116 133.275 111.245L135.876 113.877C135.939 113.94 135.99 114.016 136.024 114.1C136.059 114.183 136.077 114.273 136.077 114.363C136.077 114.453 136.059 114.543 136.024 114.627C135.99 114.71 135.939 114.786 135.876 114.849C135.814 114.914 135.739 114.966 135.656 115C135.574 115.035 135.485 115.052 135.395 115.051Z" fill="#E3E3E3"/>
    </g>
    <path d="M26.812 79.6344C41.1496 79.6344 52.7725 68.066 52.7725 53.7957C52.7725 39.5254 41.1496 27.957 26.812 27.957C12.4745 27.957 0.851562 39.5254 0.851562 53.7957C0.851562 68.066 12.4745 79.6344 26.812 79.6344Z" fill="#252525"/>
    <g clip-path="url(#clip3_6416_9046)">
        <path d="M25.4336 39.5117H21.8642C21.3826 39.5117 20.9922 39.8814 20.9922 40.3373V43.7169C20.9922 44.1728 21.3826 44.5424 21.8642 44.5424H25.4336C25.9151 44.5424 26.3055 44.1728 26.3055 43.7169V40.3373C26.3055 39.8814 25.9151 39.5117 25.4336 39.5117Z" fill="#CE7783"/>
        <path d="M11 51.418H39.7671C39.7671 52.3603 39.3717 53.2641 38.6679 53.9304C37.9641 54.5968 37.0096 54.9711 36.0143 54.9711H14.7528C13.7575 54.9711 12.8029 54.5968 12.0992 53.9304C11.3954 53.2641 11 52.3603 11 51.418V51.418Z" fill="#71A5D2"/>
        <path d="M23.2973 29H33.8914C34.9721 29 36.0085 29.4065 36.7726 30.13C37.5368 30.8535 37.9661 31.8347 37.9661 32.8579V33.7375H19.2227V32.8579C19.2227 31.8347 19.6519 30.8535 20.4161 30.13C21.1802 29.4065 22.2166 29 23.2973 29V29Z" fill="#EAB669"/>
        <path d="M40.1393 54.4504H13.8699C13.3764 54.4494 12.9034 54.2633 12.5544 53.9329C12.2054 53.6025 12.0089 53.1547 12.0078 52.6874V37.2903C12.0089 36.8231 12.2054 36.3752 12.5544 36.0448C12.9034 35.7144 13.3764 35.5284 13.8699 35.5273H15.1209C15.283 35.5273 15.4384 35.5882 15.553 35.6967C15.6677 35.8052 15.7321 35.9526 15.7321 36.106C15.7321 36.2595 15.6677 36.4067 15.553 36.5152C15.4384 36.6237 15.283 36.6847 15.1209 36.6847H13.8699C13.7006 36.6857 13.5385 36.7497 13.4188 36.8631C13.299 36.9765 13.2313 37.13 13.2302 37.2903V52.6874C13.2313 52.8477 13.299 53.0011 13.4188 53.1144C13.5385 53.2278 13.7006 53.292 13.8699 53.293H40.1393C40.3086 53.292 40.4707 53.2278 40.5904 53.1144C40.7102 53.0011 40.7779 52.8477 40.779 52.6874V37.2903C40.7779 37.13 40.7102 36.9765 40.5904 36.8631C40.4707 36.7497 40.3086 36.6857 40.1393 36.6847H38.8883C38.7262 36.6847 38.5708 36.6237 38.4562 36.5152C38.3415 36.4067 38.2771 36.2595 38.2771 36.106C38.2771 35.9526 38.3415 35.8052 38.4562 35.6967C38.5708 35.5882 38.7262 35.5273 38.8883 35.5273H40.1393C40.6328 35.5284 41.1058 35.7144 41.4548 36.0448C41.8038 36.3752 42.0003 36.8231 42.0014 37.2903V52.6874C42.0003 53.1547 41.8038 53.6025 41.4548 53.9329C41.1058 54.2633 40.6328 54.4494 40.1393 54.4504Z" fill="#E3E3E3"/>
        <path d="M33.255 58.005H20.7499C20.5878 58.005 20.4323 57.944 20.3177 57.8355C20.2031 57.727 20.1387 57.5798 20.1387 57.4263C20.1387 57.2729 20.2031 57.1257 20.3177 57.0172C20.4323 56.9087 20.5878 56.8477 20.7499 56.8477H33.255C33.4171 56.8477 33.5726 56.9087 33.6872 57.0172C33.8018 57.1257 33.8662 57.2729 33.8662 57.4263C33.8662 57.5798 33.8018 57.727 33.6872 57.8355C33.5726 57.944 33.4171 58.005 33.255 58.005Z" fill="#E3E3E3"/>
        <path d="M25.1268 58.0035C24.9647 58.0035 24.8093 57.9425 24.6946 57.8339C24.58 57.7254 24.5156 57.5783 24.5156 57.4248V53.8717C24.5156 53.7182 24.58 53.571 24.6946 53.4625C24.8093 53.354 24.9647 53.293 25.1268 53.293C25.2889 53.293 25.4444 53.354 25.559 53.4625C25.6736 53.571 25.738 53.7182 25.738 53.8717V57.4402C25.7338 57.591 25.6675 57.7342 25.5533 57.8394C25.4392 57.9446 25.2861 58.0035 25.1268 58.0035Z" fill="#E3E3E3"/>
        <path d="M28.8807 58.0035C28.7186 58.0035 28.5632 57.9425 28.4485 57.8339C28.3339 57.7254 28.2695 57.5783 28.2695 57.4248V53.8717C28.2695 53.7182 28.3339 53.571 28.4485 53.4625C28.5632 53.354 28.7186 53.293 28.8807 53.293C29.0428 53.293 29.1983 53.354 29.3129 53.4625C29.4275 53.571 29.4919 53.7182 29.4919 53.8717V57.4402C29.4877 57.591 29.4214 57.7342 29.3073 57.8394C29.1931 57.9446 29.04 58.0035 28.8807 58.0035Z" fill="#E3E3E3"/>
        <path d="M36.3792 48.5284C36.2171 48.5284 36.0617 48.4674 35.9471 48.3589C35.8324 48.2504 35.768 48.1032 35.768 47.9497V31.3607C35.768 31.2 35.7006 31.0461 35.5807 30.9325C35.4607 30.8189 35.298 30.755 35.1283 30.755H18.8582C18.6889 30.756 18.5268 30.8202 18.407 30.9336C18.2873 31.047 18.2196 31.2003 18.2185 31.3607V47.9497C18.2185 48.1032 18.1541 48.2504 18.0395 48.3589C17.9249 48.4674 17.7694 48.5284 17.6073 48.5284C17.4452 48.5284 17.2897 48.4674 17.1751 48.3589C17.0605 48.2504 16.9961 48.1032 16.9961 47.9497V31.3607C16.9972 30.8934 17.1937 30.4455 17.5427 30.1151C17.8917 29.7847 18.3647 29.5987 18.8582 29.5977H35.1202C35.6137 29.5987 36.0867 29.7847 36.4357 30.1151C36.7847 30.4455 36.9812 30.8934 36.9823 31.3607V47.9497C36.9823 48.1019 36.919 48.2479 36.8062 48.3562C36.6933 48.4645 36.5399 48.5264 36.3792 48.5284Z" fill="#E3E3E3"/>
        <path d="M24.5025 43.7898H20.7497C20.4255 43.7898 20.1146 43.6677 19.8854 43.4507C19.6561 43.2336 19.5273 42.9393 19.5273 42.6324V39.0793C19.5273 38.7723 19.6561 38.4778 19.8854 38.2608C20.1146 38.0437 20.4255 37.9219 20.7497 37.9219H24.5025C24.8267 37.9219 25.1376 38.0437 25.3669 38.2608C25.5961 38.4778 25.7249 38.7723 25.7249 39.0793V42.6324C25.7249 42.9393 25.5961 43.2336 25.3669 43.4507C25.1376 43.6677 24.8267 43.7898 24.5025 43.7898ZM20.7497 39.0521V42.6053H24.5188V39.0406L20.7497 39.0521Z" fill="#E3E3E3"/>
        <path d="M33.8833 42.6066H27.7714C27.6093 42.6066 27.4538 42.5458 27.3392 42.4372C27.2245 42.3287 27.1602 42.1814 27.1602 42.0279C27.1602 41.8744 27.2245 41.7273 27.3392 41.6188C27.4538 41.5102 27.6093 41.4492 27.7714 41.4492H33.8833C34.0454 41.4492 34.2009 41.5102 34.3155 41.6188C34.4301 41.7273 34.4945 41.8744 34.4945 42.0279C34.4945 42.1814 34.4301 42.3287 34.3155 42.4372C34.2009 42.5458 34.0454 42.6066 33.8833 42.6066Z" fill="#E3E3E3"/>
        <path d="M33.8833 39.6476H27.7714C27.6093 39.6476 27.4538 39.5866 27.3392 39.4781C27.2245 39.3695 27.1602 39.2224 27.1602 39.0689C27.1602 38.9154 27.2245 38.7683 27.3392 38.6598C27.4538 38.5512 27.6093 38.4902 27.7714 38.4902H33.8833C34.0454 38.4902 34.2009 38.5512 34.3155 38.6598C34.4301 38.7683 34.4945 38.9154 34.4945 39.0689C34.4945 39.2224 34.4301 39.3695 34.3155 39.4781C34.2009 39.5866 34.0454 39.6476 33.8833 39.6476Z" fill="#E3E3E3"/>
        <path d="M33.883 46.1593H20.1229C19.9608 46.1593 19.8054 46.0985 19.6907 45.99C19.5761 45.8815 19.5117 45.7341 19.5117 45.5806C19.5117 45.4272 19.5761 45.28 19.6907 45.1715C19.8054 45.063 19.9608 45.002 20.1229 45.002H33.883C34.0451 45.002 34.2006 45.063 34.3152 45.1715C34.4298 45.28 34.4942 45.4272 34.4942 45.5806C34.4942 45.7341 34.4298 45.8815 34.3152 45.99C34.2006 46.0985 34.0451 46.1593 33.883 46.1593Z" fill="#E3E3E3"/>
        <path d="M41.3902 50.882H12.619C12.4569 50.882 12.3015 50.821 12.1868 50.7124C12.0722 50.6039 12.0078 50.4568 12.0078 50.3033C12.0078 50.1498 12.0722 50.0027 12.1868 49.8941C12.3015 49.7856 12.4569 49.7246 12.619 49.7246H41.3902C41.5523 49.7246 41.7077 49.7856 41.8224 49.8941C41.937 50.0027 42.0014 50.1498 42.0014 50.3033C42.0014 50.4568 41.937 50.6039 41.8224 50.7124C41.7077 50.821 41.5523 50.882 41.3902 50.882Z" fill="#E3E3E3"/>
        <path d="M36.382 35.5011H17.6385C17.4764 35.5011 17.321 35.4401 17.2064 35.3316C17.0917 35.2231 17.0273 35.0759 17.0273 34.9224C17.0273 34.769 17.0917 34.6218 17.2064 34.5133C17.321 34.4048 17.4764 34.3438 17.6385 34.3438H36.382C36.5441 34.3438 36.6995 34.4048 36.8142 34.5133C36.9288 34.6218 36.9932 34.769 36.9932 34.9224C36.9932 35.0759 36.9288 35.2231 36.8142 35.3316C36.6995 35.4401 36.5441 35.5011 36.382 35.5011Z" fill="#E3E3E3"/>
        <path d="M26.1522 33.2162C26.6203 33.2162 26.9997 32.857 26.9997 32.4138C26.9997 31.9706 26.6203 31.6113 26.1522 31.6113C25.6841 31.6113 25.3047 31.9706 25.3047 32.4138C25.3047 32.857 25.6841 33.2162 26.1522 33.2162Z" fill="#E3E3E3"/>
        <path d="M23.7733 33.2182C24.2414 33.2182 24.6208 32.8589 24.6208 32.4157C24.6208 31.9725 24.2414 31.6133 23.7733 31.6133C23.3052 31.6133 22.9258 31.9725 22.9258 32.4157C22.9258 32.8589 23.3052 33.2182 23.7733 33.2182Z" fill="#E3E3E3"/>
        <path d="M21.246 33.2182C21.714 33.2182 22.0935 32.8589 22.0935 32.4157C22.0935 31.9725 21.714 31.6133 21.246 31.6133C20.7779 31.6133 20.3984 31.9725 20.3984 32.4157C20.3984 32.8589 20.7779 33.2182 21.246 33.2182Z" fill="#E3E3E3"/>
    </g>
    <path d="M26.8205 70.3717C22.8474 70.3716 18.924 69.4934 15.3338 67.8003C11.7435 66.1072 8.57614 63.6417 6.06061 60.5819C3.54507 57.5221 1.74425 53.9444 0.788156 50.1075C-0.167934 46.2707 -0.25532 42.2704 0.53228 38.3958C1.31988 34.5212 2.96266 30.8691 5.34217 27.7034C7.72169 24.5378 10.7784 21.9376 14.2913 20.0909C17.8042 18.2442 21.6857 17.1971 25.655 17.0252C29.6243 16.8534 33.5823 17.561 37.2432 19.0971C37.3844 19.1568 37.4961 19.2698 37.5537 19.4113C37.6112 19.5528 37.6097 19.7112 37.55 19.8518C37.49 19.9923 37.3767 20.1033 37.2344 20.1606C37.0922 20.2178 36.933 20.2167 36.7917 20.1572C31.1981 17.8057 24.9477 17.5039 19.1515 19.3054C13.3554 21.1069 8.38891 24.8949 5.13521 29.9961C1.88152 35.0973 0.551355 41.1813 1.38105 47.1663C2.21075 53.1514 5.14646 58.6499 9.66661 62.6843C14.1868 66.7187 19.9985 69.0276 26.0684 69.2007C32.1383 69.3737 38.073 67.3997 42.8179 63.6295C47.5629 59.8593 50.8105 54.5371 51.9833 48.6092C53.1562 42.6812 52.1783 36.5315 49.2236 31.2533C49.1468 31.1203 49.1263 30.9624 49.1664 30.8144C49.2066 30.6664 49.3043 30.5403 49.4379 30.4639C49.5715 30.3875 49.7302 30.3671 49.8789 30.4071C50.0277 30.4471 50.1544 30.5442 50.2312 30.6771C52.5063 34.7398 53.675 39.3235 53.6215 43.9739C53.5681 48.6243 52.2943 53.1801 49.9264 57.1899C47.5585 61.1998 44.1786 64.5245 40.1217 66.8346C36.0648 69.1447 31.4716 70.36 26.7973 70.3602L26.8205 70.3717Z" fill="#E3E3E3"/>
    <path d="M156.187 79.6344C170.525 79.6344 182.148 68.066 182.148 53.7957C182.148 39.5254 170.525 27.957 156.187 27.957C141.849 27.957 130.227 39.5254 130.227 53.7957C130.227 68.066 141.849 79.6344 156.187 79.6344Z" fill="#252525"/>
    <g clip-path="url(#clip4_6416_9046)">
        <path d="M174.001 47.8164C174.022 48.3487 173.843 48.8684 173.502 49.2632C173.161 49.658 172.686 49.8964 172.179 49.9268H157.383V35.0125C157.397 34.5299 157.227 34.0614 156.912 33.7098C156.596 33.3583 156.16 33.1524 155.7 33.1375H152.238V31.3154C152.351 30.9286 152.58 30.5904 152.891 30.3512C153.202 30.112 153.578 29.9847 153.964 29.9884H172.179C172.685 30.0188 173.16 30.2565 173.501 30.6504C173.842 31.0444 174.021 31.563 174.001 32.0946V47.8164Z" fill="#CE7783"/>
        <path d="M154.568 36.1293V46.904C154.556 47.2736 154.404 47.6232 154.147 47.8758C153.889 48.1284 153.547 48.2636 153.195 48.2515H150.394C150.217 48.257 150.045 48.1887 149.916 48.0617C149.787 47.9347 149.712 47.7593 149.706 47.5738V43.3855C149.706 42.5982 148.932 41.9611 147.984 41.9611H144.274C144.187 41.9644 144.1 41.9494 144.018 41.9173C143.936 41.8852 143.861 41.8366 143.797 41.7741C143.733 41.7115 143.682 41.6362 143.645 41.5527C143.609 41.4692 143.589 41.3791 143.586 41.2874V36.1293C143.598 35.7597 143.749 35.4101 144.007 35.1575C144.264 34.9049 144.607 34.7699 144.959 34.782H153.195C153.547 34.7699 153.889 34.9049 154.147 35.1575C154.404 35.4101 154.556 35.7597 154.568 36.1293Z" fill="#EAB669"/>
        <path d="M144.853 44.3711H140.172C139.525 44.3711 139 44.9216 139 45.6008V54.1922C139 54.8714 139.525 55.4219 140.172 55.4219H144.853C145.5 55.4219 146.025 54.8714 146.025 54.1922V45.6008C146.025 44.9216 145.5 44.3711 144.853 44.3711Z" fill="#71A5D2"/>
        <path d="M170.329 53.8797H150.987C150.834 53.8797 150.686 53.8155 150.577 53.7013C150.468 53.5872 150.407 53.4324 150.407 53.2709C150.407 53.1095 150.468 52.9545 150.577 52.8403C150.686 52.7262 150.834 52.6622 150.987 52.6622H170.329C170.732 52.6611 171.119 52.4921 171.404 52.1923C171.689 51.8926 171.849 51.4864 171.849 51.063V33.7949C171.849 33.5855 171.81 33.3781 171.733 33.1846C171.657 32.9911 171.545 32.8153 171.404 32.6672C171.262 32.5191 171.095 32.4016 170.91 32.3214C170.726 32.2413 170.528 32.2 170.329 32.2H149.622C149.26 32.205 148.911 32.343 148.636 32.5899C148.361 32.8368 148.178 33.1771 148.117 33.5514C148.093 33.7106 148.01 33.8534 147.886 33.9485C147.762 34.0436 147.607 34.0832 147.456 34.0587C147.38 34.0468 147.308 34.0194 147.243 33.978C147.178 33.9367 147.121 33.8821 147.076 33.8175C147.031 33.753 146.999 33.6799 146.981 33.6021C146.963 33.5244 146.96 33.4437 146.972 33.3647C147.067 32.6998 147.387 32.0929 147.874 31.6554C148.36 31.2179 148.981 30.979 149.622 30.9825H170.329C171.039 30.9835 171.721 31.2802 172.223 31.8074C172.726 32.3346 173.008 33.0494 173.009 33.7949V51.0753C173.006 51.8195 172.723 52.5321 172.22 53.0575C171.718 53.5829 171.038 53.8786 170.329 53.8797Z" fill="#E3E3E3"/>
        <path d="M159.858 56.7812C159.704 56.7812 159.556 56.717 159.447 56.6029C159.338 56.4887 159.277 56.3339 159.277 56.1725V53.2748C159.277 53.1133 159.338 52.9585 159.447 52.8444C159.556 52.7302 159.704 52.666 159.858 52.666C160.011 52.666 160.159 52.7302 160.268 52.8444C160.377 52.9585 160.438 53.1133 160.438 53.2748V56.1764C160.437 56.3372 160.375 56.491 160.267 56.6043C160.158 56.7175 160.011 56.7812 159.858 56.7812Z" fill="#E3E3E3"/>
        <path d="M166.207 56.8503H153.697C153.544 56.8503 153.396 56.7861 153.287 56.672C153.178 56.5578 153.117 56.403 153.117 56.2416C153.117 56.0801 153.178 55.9253 153.287 55.8112C153.396 55.697 153.544 55.6328 153.697 55.6328H166.207C166.361 55.6328 166.509 55.697 166.618 55.8112C166.726 55.9253 166.788 56.0801 166.788 56.2416C166.787 56.4027 166.725 56.5568 166.617 56.6708C166.508 56.7847 166.361 56.8493 166.207 56.8503Z" fill="#E3E3E3"/>
        <path d="M172.418 48.3386H159.912C159.758 48.3386 159.611 48.2746 159.502 48.1604C159.393 48.0463 159.332 47.8913 159.332 47.7298C159.332 47.5684 159.393 47.4136 159.502 47.2994C159.611 47.1853 159.758 47.1211 159.912 47.1211H172.418C172.572 47.1211 172.72 47.1853 172.829 47.2994C172.937 47.4136 172.999 47.5684 172.999 47.7298C172.999 47.8913 172.937 48.0463 172.829 48.1604C172.72 48.2746 172.572 48.3386 172.418 48.3386Z" fill="#E3E3E3"/>
        <path d="M155.689 39.7487H147.623C147.469 39.7487 147.322 39.6846 147.213 39.5704C147.104 39.4562 147.043 39.3014 147.043 39.14C147.043 38.9785 147.104 38.8238 147.213 38.7096C147.322 38.5954 147.469 38.5312 147.623 38.5312H155.689C155.842 38.5312 155.99 38.5954 156.099 38.7096C156.208 38.8238 156.269 38.9785 156.269 39.14C156.269 39.3014 156.208 39.4562 156.099 39.5704C155.99 39.6846 155.842 39.7487 155.689 39.7487Z" fill="#E3E3E3"/>
        <path d="M148.579 46.6316H142.076C141.922 46.6316 141.775 46.5674 141.666 46.4532C141.557 46.3391 141.496 46.1843 141.496 46.0228C141.496 45.8614 141.557 45.7066 141.666 45.5924C141.775 45.4782 141.922 45.4141 142.076 45.4141H148.579C148.733 45.4141 148.88 45.4782 148.989 45.5924C149.098 45.7066 149.159 45.8614 149.159 46.0228C149.159 46.1843 149.098 46.3391 148.989 46.4532C148.88 46.5674 148.733 46.6316 148.579 46.6316Z" fill="#E3E3E3"/>
        <path d="M146.837 54.5691H140.334C140.18 54.5691 140.033 54.5049 139.924 54.3907C139.815 54.2766 139.754 54.1218 139.754 53.9603C139.754 53.7989 139.815 53.6441 139.924 53.5299C140.033 53.4157 140.18 53.3516 140.334 53.3516H146.837C146.991 53.3516 147.138 53.4157 147.247 53.5299C147.356 53.6441 147.417 53.7989 147.417 53.9603C147.417 54.1218 147.356 54.2766 147.247 54.3907C147.138 54.5049 146.991 54.5691 146.837 54.5691Z" fill="#E3E3E3"/>
        <path d="M155.686 48.5378H150.99C150.837 48.5378 150.689 48.4736 150.58 48.3595C150.471 48.2453 150.41 48.0905 150.41 47.9291C150.41 47.7676 150.471 47.6128 150.58 47.4987C150.689 47.3845 150.837 47.3203 150.99 47.3203H155.686C155.84 47.3203 155.988 47.3845 156.097 47.4987C156.206 47.6128 156.267 47.7676 156.267 47.9291C156.267 48.0905 156.206 48.2453 156.097 48.3595C155.988 48.4736 155.84 48.5378 155.686 48.5378Z" fill="#E3E3E3"/>
        <path d="M154.104 51.3294H151.117C150.963 51.3294 150.816 51.2652 150.707 51.151C150.598 51.0369 150.537 50.8821 150.537 50.7206C150.537 50.5592 150.598 50.4044 150.707 50.2902C150.816 50.1761 150.963 50.1119 151.117 50.1119H154.104C154.367 50.1108 154.618 50.0004 154.804 49.8049C154.99 49.6094 155.094 49.3449 155.094 49.069V37.7057C155.094 37.4301 154.99 37.1657 154.804 36.9709C154.618 36.7761 154.366 36.6667 154.104 36.6667H146.12C145.857 36.6667 145.605 36.7761 145.419 36.9709C145.234 37.1657 145.129 37.4301 145.129 37.7057V41.6665C145.129 41.8279 145.068 41.9827 144.959 42.0969C144.85 42.2111 144.703 42.2752 144.549 42.2752C144.395 42.2752 144.248 42.2111 144.139 42.0969C144.03 41.9827 143.969 41.8279 143.969 41.6665V37.7057C143.969 37.1072 144.195 36.5332 144.599 36.1101C145.002 35.6869 145.549 35.4492 146.12 35.4492H154.104C154.674 35.4503 155.22 35.6883 155.623 36.1113C156.026 36.5342 156.253 37.1076 156.254 37.7057V49.069C156.253 49.6674 156.027 50.2412 155.623 50.6647C155.22 51.0883 154.674 51.3272 154.104 51.3294Z" fill="#E3E3E3"/>
        <path d="M147.459 56.9958H141.502C141.039 56.9947 140.595 56.8011 140.267 56.4574C139.939 56.1136 139.755 55.6476 139.754 55.1614V44.6098C139.755 44.1236 139.939 43.6578 140.267 43.314C140.595 42.9702 141.039 42.7765 141.502 42.7754H147.459C147.923 42.7765 148.367 42.9702 148.695 43.314C149.022 43.6578 149.207 44.1236 149.208 44.6098V55.1614C149.207 55.6476 149.022 56.1136 148.695 56.4574C148.367 56.8011 147.923 56.9947 147.459 56.9958ZM141.502 44.0091C141.346 44.0091 141.197 44.0742 141.087 44.1899C140.976 44.3055 140.914 44.4624 140.914 44.626V55.1776C140.914 55.2586 140.93 55.3388 140.959 55.4136C140.989 55.4885 141.032 55.5565 141.087 55.6138C141.141 55.6711 141.206 55.7165 141.277 55.7475C141.349 55.7785 141.425 55.7945 141.502 55.7945H147.459C147.537 55.7945 147.613 55.7785 147.684 55.7475C147.756 55.7165 147.821 55.6711 147.875 55.6138C147.93 55.5565 147.973 55.4885 148.003 55.4136C148.032 55.3388 148.047 55.2586 148.047 55.1776V44.626C148.047 44.4624 147.986 44.3055 147.875 44.1899C147.765 44.0742 147.615 44.0091 147.459 44.0091H141.502Z" fill="#E3E3E3"/>
    </g>
    <path d="M155.883 70.6803C151.91 70.6802 147.987 69.802 144.396 68.1089C140.806 66.4158 137.639 63.9503 135.123 60.8905C132.608 57.8307 130.807 54.253 129.851 50.4161C128.895 46.5793 128.807 42.579 129.595 38.7044C130.382 34.8298 132.025 31.1777 134.405 28.012C136.784 24.8464 139.841 22.2462 143.354 20.3995C146.867 18.5528 150.748 17.5057 154.717 17.3338C158.687 17.162 162.645 17.8696 166.306 19.4057C166.447 19.4654 166.559 19.5784 166.616 19.7199C166.674 19.8614 166.672 20.0198 166.613 20.1604C166.553 20.3009 166.439 20.4119 166.297 20.4692C166.155 20.5264 165.995 20.5253 165.854 20.4658C160.26 18.1143 154.01 17.8125 148.214 19.614C142.418 21.4155 137.452 25.2035 134.198 30.3047C130.944 35.4059 129.614 41.4898 130.444 47.4749C131.274 53.46 134.209 58.9585 138.729 62.9929C143.249 67.0273 149.061 69.3362 155.131 69.5092C161.201 69.6823 167.136 67.7083 171.88 63.9381C176.625 60.1678 179.873 54.8457 181.046 48.9177C182.219 42.9898 181.241 36.8401 178.286 31.5619C178.209 31.4289 178.189 31.271 178.229 31.123C178.269 30.975 178.367 30.8489 178.5 30.7725C178.634 30.6961 178.793 30.6757 178.941 30.7157C179.09 30.7557 179.217 30.8528 179.294 30.9857C181.569 35.048 182.737 39.631 182.684 44.2809C182.631 48.9309 181.358 53.4864 178.99 57.4961C176.623 61.5058 173.244 64.8305 169.188 67.1411C165.132 69.4516 160.539 70.6676 155.866 70.6688L155.883 70.6803Z" fill="#E3E3E3"/>
    <path d="M125.837 130.372C121.863 130.376 117.938 129.501 114.346 127.809C110.754 126.118 107.585 123.653 105.067 120.593C102.549 117.533 100.747 113.953 99.7896 110.114C98.8324 106.275 98.7442 102.273 99.5319 98.3958C100.32 94.5189 101.964 90.8646 104.344 87.6977C106.725 84.5307 109.783 81.9303 113.298 80.0843C116.812 78.2383 120.695 77.1932 124.665 77.0243C128.635 76.8555 132.593 77.5672 136.253 79.1081C136.394 79.1678 136.505 79.2808 136.563 79.4222C136.62 79.5637 136.619 79.7221 136.559 79.8627C136.499 80.0031 136.386 80.1141 136.244 80.1713C136.102 80.2286 135.943 80.2274 135.801 80.168C130.215 77.821 123.973 77.5219 118.186 79.3238C112.398 81.1257 107.44 84.9119 104.193 90.0094C100.945 95.1069 99.6191 101.185 100.449 107.165C101.28 113.144 104.213 118.636 108.728 122.666C113.242 126.695 119.046 129 125.108 129.172C131.169 129.344 137.095 127.37 141.833 123.603C146.57 119.835 149.813 114.517 150.983 108.595C152.153 102.672 151.176 96.5288 148.225 91.2559C148.187 91.1897 148.162 91.1166 148.153 91.041C148.143 90.9654 148.148 90.8886 148.169 90.815C148.189 90.7415 148.223 90.6727 148.27 90.6124C148.317 90.5521 148.375 90.5017 148.442 90.4639C148.508 90.4261 148.582 90.4017 148.658 90.392C148.734 90.3824 148.811 90.3877 148.885 90.4078C148.958 90.4278 149.028 90.4622 149.088 90.5089C149.149 90.5556 149.199 90.6137 149.237 90.6799C151.509 94.742 152.676 99.3242 152.621 103.973C152.567 108.622 151.294 113.176 148.928 117.184C146.562 121.193 143.185 124.516 139.132 126.826C135.079 129.136 130.49 130.353 125.82 130.354L125.837 130.372Z" fill="#E3E3E3"/>
    <defs>
        <clipPath id="clip0_6416_9046">
            <rect width="29" height="28" fill="white" transform="translate(78 13)"/>
        </clipPath>
        <clipPath id="clip1_6416_9046">
            <rect width="30" height="32" fill="white" transform="translate(46 88)"/>
        </clipPath>
        <clipPath id="clip2_6416_9046">
            <rect width="32" height="31" fill="white" transform="translate(110 88)"/>
        </clipPath>
        <clipPath id="clip3_6416_9046">
            <rect width="31" height="29" fill="white" transform="translate(11 29)"/>
        </clipPath>
        <clipPath id="clip4_6416_9046">
            <rect width="35" height="27" fill="white" transform="translate(139 30)"/>
        </clipPath>
    </defs>
</svg>
