<svg width="148" height="148" viewBox="0 0 148 148" fill="none" xmlns="http://www.w3.org/2000/svg">
    <path fill-rule="evenodd" clip-rule="evenodd" d="M64.25 70.8203C64.25 70.5442 64.4739 70.3203 64.75 70.3203H83.25C83.5261 70.3203 83.75 70.5442 83.75 70.8203C83.75 71.0965 83.5261 71.3203 83.25 71.3203H64.75C64.4739 71.3203 64.25 71.0965 64.25 70.8203Z" fill="#E3E3E3"/>
    <path d="M96.1984 36.2401C96.0741 31.901 94.2799 27.7735 91.184 24.704C88.0881 21.6345 83.925 19.8557 79.5484 19.7324C75.1719 19.8557 71.0088 21.6345 67.9129 24.704C64.8169 27.7735 63.0228 31.901 62.8984 36.2401C62.9604 39.0527 63.7607 41.8007 65.2206 44.2131C66.478 46.2908 68.1872 48.0577 70.2179 49.3882C70.8248 49.7859 71.2234 50.4463 71.2234 51.1719V53.4991C71.2234 54.6037 72.1189 55.4991 73.2234 55.4991H85.8734C86.978 55.4991 87.8734 54.6037 87.8734 53.4991V51.1714C87.8734 50.4461 88.2717 49.7858 88.8783 49.3881C90.9085 48.0571 92.6174 46.2899 93.8748 44.2122C95.3346 41.8 96.1354 39.0525 96.1984 36.2401Z" fill="#EAB669"/>
    <path fill-rule="evenodd" clip-rule="evenodd" d="M73.9858 17.9045C73.9953 17.9042 74.0047 17.9042 74.0142 17.9045C79.0047 18.0463 83.7518 20.0921 87.282 23.6223C90.8122 27.1525 92.858 31.8996 92.9998 36.8901C93 36.8985 93.0001 36.907 92.9999 36.9154C92.9279 40.154 92.0136 43.318 90.3469 46.0958C88.7307 48.7895 86.461 51.0299 83.75 52.6108V58.4876C83.75 58.7638 83.5261 58.9876 83.25 58.9876H64.75C64.4739 58.9876 64.25 58.7638 64.25 58.4876V52.6109C61.5382 51.0309 59.2679 48.7907 57.6515 46.0968C55.9846 43.3187 55.0708 40.1542 55.0001 36.9152C54.9999 36.9068 55 36.8985 55.0002 36.8901C55.0938 33.5966 56.0167 30.4091 57.6481 27.6075C57.7871 27.3689 58.0932 27.2881 58.3318 27.4271C58.5705 27.566 58.6513 27.8721 58.5123 28.1108C56.9663 30.7656 56.091 33.7854 56.0002 36.9059C56.0691 39.9667 56.9337 42.9569 58.509 45.5823C60.0863 48.2112 62.3218 50.3836 64.9949 51.885C65.1525 51.9735 65.25 52.1402 65.25 52.321V57.9876H82.75V52.321C82.75 52.1403 82.8475 51.9737 83.005 51.8851C85.6773 50.3827 87.9122 48.2101 89.4894 45.5813C91.0646 42.9561 91.9297 39.9664 91.9998 36.9058C91.8622 32.1753 89.9215 27.6761 86.5749 24.3294C83.2286 20.9832 78.73 19.0426 74 18.9045C71.0862 18.9895 68.2602 19.7586 65.7373 21.119C65.4942 21.2501 65.191 21.1593 65.0599 20.9162C64.9288 20.6732 65.0196 20.3699 65.2627 20.2388C67.9259 18.8028 70.9096 17.9919 73.9858 17.9045Z" fill="#E3E3E3"/>
    <path d="M28.3667 120.866C33.8159 120.866 38.2333 116.449 38.2333 110.999C38.2333 105.55 33.8159 101.133 28.3667 101.133C22.9175 101.133 18.5 105.55 18.5 110.999C18.5 116.449 22.9175 120.866 28.3667 120.866Z" fill="#CE7783"/>
    <path fill-rule="evenodd" clip-rule="evenodd" d="M24.1667 101.654C24.1667 101.378 24.3905 101.154 24.6667 101.154C30.9029 101.154 35.9583 106.21 35.9583 112.446C35.9583 118.682 30.9029 123.738 24.6667 123.738C18.4305 123.738 13.375 118.682 13.375 112.446C13.375 112.17 13.5989 111.946 13.875 111.946C14.1511 111.946 14.375 112.17 14.375 112.446C14.375 118.13 18.9827 122.738 24.6667 122.738C30.3506 122.738 34.9583 118.13 34.9583 112.446C34.9583 106.762 30.3506 102.154 24.6667 102.154C24.3905 102.154 24.1667 101.93 24.1667 101.654Z" fill="#E3E3E3"/>
    <path d="M46.7844 141.834C47.4463 141.834 47.9255 141.202 47.6983 140.58C46.4683 137.215 44.1736 134.246 41.0897 132.058C37.628 129.601 33.369 128.268 28.9852 128.268C24.6013 128.268 20.3423 129.601 16.8806 132.058C13.7967 134.246 11.502 137.215 10.2721 140.58C10.0448 141.202 10.5241 141.834 11.1859 141.834H46.7844Z" fill="#71A5D2"/>
    <path fill-rule="evenodd" clip-rule="evenodd" d="M10.6922 132.333C14.6883 129.229 19.6048 127.543 24.6654 127.543C29.726 127.543 34.6424 129.229 38.6386 132.333C42.6347 135.438 45.4828 139.786 46.7332 144.69C46.7713 144.839 46.7382 144.998 46.6435 145.12C46.5488 145.242 46.4031 145.313 46.2487 145.313H3.08204C2.92766 145.313 2.78193 145.242 2.68721 145.12C2.59249 144.998 2.55939 144.839 2.59754 144.69C3.13339 142.588 3.96263 140.589 5.04989 138.746C5.19019 138.508 5.49674 138.429 5.73458 138.569C5.97242 138.71 6.0515 139.016 5.91119 139.254C4.97978 140.833 4.24641 142.532 3.73542 144.313H45.5953C44.3238 139.88 41.6754 135.959 38.025 133.123C34.2044 130.154 29.5038 128.543 24.6654 128.543C19.827 128.543 15.1264 130.154 11.3057 133.123C11.0877 133.293 10.7736 133.253 10.6041 133.035C10.4347 132.817 10.4741 132.503 10.6922 132.333Z" fill="#E3E3E3"/>
    <path d="M78.9331 120.866C84.3823 120.866 88.7997 116.449 88.7997 110.999C88.7997 105.55 84.3823 101.133 78.9331 101.133C73.4839 101.133 69.0664 105.55 69.0664 110.999C69.0664 116.449 73.4839 120.866 78.9331 120.866Z" fill="#CE7783"/>
    <path fill-rule="evenodd" clip-rule="evenodd" d="M73.9987 102.154C68.3148 102.154 63.707 106.762 63.707 112.446C63.707 118.13 68.3148 122.738 73.9987 122.738C79.6826 122.738 84.2904 118.13 84.2904 112.446C84.2904 112.17 84.5142 111.946 84.7904 111.946C85.0665 111.946 85.2904 112.17 85.2904 112.446C85.2904 118.682 80.2349 123.738 73.9987 123.738C67.7625 123.738 62.707 118.682 62.707 112.446C62.707 106.21 67.7625 101.154 73.9987 101.154C74.2748 101.154 74.4987 101.378 74.4987 101.654C74.4987 101.93 74.2748 102.154 73.9987 102.154Z" fill="#E3E3E3"/>
    <path d="M96.1164 141.834C96.7783 141.834 97.2575 141.202 97.0303 140.58C95.8003 137.215 93.5057 134.246 90.4217 132.058C86.96 129.601 82.701 128.268 78.3172 128.268C73.9333 128.268 69.6744 129.601 66.2127 132.058C63.1287 134.246 60.8341 137.215 59.6041 140.58C59.3769 141.202 59.8561 141.834 60.5179 141.834H96.1164Z" fill="#71A5D2"/>
    <path fill-rule="evenodd" clip-rule="evenodd" d="M60.0281 132.333C64.0242 129.229 68.9407 127.543 74.0013 127.543C79.0619 127.543 83.9784 129.229 87.9745 132.333C91.9706 135.438 94.8187 139.786 96.0691 144.69C96.1073 144.839 96.0742 144.998 95.9795 145.12C95.8847 145.242 95.739 145.313 95.5846 145.313H74.0013C73.7252 145.313 73.5013 145.089 73.5013 144.813C73.5013 144.537 73.7252 144.313 74.0013 144.313H94.9313C93.6597 139.88 91.0113 135.959 87.3609 133.123C83.5403 130.154 78.8397 128.543 74.0013 128.543C69.1629 128.543 64.4623 130.154 60.6417 133.123C56.9913 135.959 54.3429 139.88 53.0714 144.313H59C59.2761 144.313 59.5 144.537 59.5 144.813C59.5 145.089 59.2761 145.313 59 145.313H52.418C52.2636 145.313 52.1179 145.242 52.0231 145.12C51.9284 144.998 51.8953 144.839 51.9335 144.69C53.1839 139.786 56.032 135.438 60.0281 132.333Z" fill="#E3E3E3"/>
    <path d="M120.867 119.634C126.316 119.634 130.733 115.216 130.733 109.767C130.733 104.318 126.316 99.9004 120.867 99.9004C115.417 99.9004 111 104.318 111 109.767C111 115.216 115.417 119.634 120.867 119.634Z" fill="#CE7783"/>
    <path fill-rule="evenodd" clip-rule="evenodd" d="M123.335 102.154C117.651 102.154 113.043 106.762 113.043 112.446C113.043 118.13 117.651 122.738 123.335 122.738C123.611 122.738 123.835 122.961 123.835 123.238C123.835 123.514 123.611 123.738 123.335 123.738C117.098 123.738 112.043 118.682 112.043 112.446C112.043 106.21 117.098 101.154 123.335 101.154C129.571 101.154 134.626 106.21 134.626 112.446C134.626 112.722 134.402 112.946 134.126 112.946C133.85 112.946 133.626 112.722 133.626 112.446C133.626 106.762 129.019 102.154 123.335 102.154Z" fill="#E3E3E3"/>
    <path d="M144.227 141.834C144.885 141.834 145.364 141.208 145.145 140.587C143.955 137.219 141.734 134.248 138.747 132.058C135.397 129.601 131.275 128.268 127.033 128.268C122.791 128.268 118.669 129.601 115.319 132.058C112.332 134.248 110.111 137.219 108.921 140.587C108.702 141.208 109.181 141.834 109.839 141.834H144.227Z" fill="#71A5D2"/>
    <path fill-rule="evenodd" clip-rule="evenodd" d="M109.36 132.333C113.356 129.229 118.273 127.543 123.333 127.543C128.394 127.543 133.31 129.229 137.307 132.333C141.303 135.438 144.151 139.786 145.401 144.69C145.439 144.839 145.406 144.998 145.312 145.12C145.217 145.242 145.071 145.313 144.917 145.313H138C137.724 145.313 137.5 145.089 137.5 144.813C137.5 144.537 137.724 144.313 138 144.313H144.263C142.992 139.88 140.343 135.959 136.693 133.123C132.872 130.154 128.172 128.543 123.333 128.543C118.495 128.543 113.794 130.154 109.974 133.123C106.323 135.959 103.675 139.88 102.403 144.313H123.333C123.609 144.313 123.833 144.537 123.833 144.813C123.833 145.089 123.609 145.313 123.333 145.313H101.75C101.596 145.313 101.45 145.242 101.355 145.12C101.26 144.998 101.227 144.839 101.266 144.69C102.516 139.786 105.364 135.438 109.36 132.333Z" fill="#E3E3E3"/>
    <path fill-rule="evenodd" clip-rule="evenodd" d="M74 2.48633C74.2761 2.48633 74.5 2.71019 74.5 2.98633V9.153C74.5 9.42914 74.2761 9.653 74 9.653C73.7239 9.653 73.5 9.42914 73.5 9.153V2.98633C73.5 2.71019 73.7239 2.48633 74 2.48633Z" fill="#E3E3E3"/>
    <path fill-rule="evenodd" clip-rule="evenodd" d="M98.3345 12.5683C98.5297 12.7636 98.5297 13.0802 98.3345 13.2754L93.9746 17.6353C93.7794 17.8305 93.4628 17.8305 93.2675 17.6353C93.0723 17.44 93.0723 17.1234 93.2675 16.9282L97.6274 12.5683C97.8226 12.3731 98.1392 12.3731 98.3345 12.5683Z" fill="#E3E3E3"/>
    <path fill-rule="evenodd" clip-rule="evenodd" d="M101.25 33.8203C101.25 33.5442 101.474 33.3203 101.75 33.3203H107.917C108.193 33.3203 108.417 33.5442 108.417 33.8203C108.417 34.0965 108.193 34.3203 107.917 34.3203H101.75C101.474 34.3203 101.25 34.0965 101.25 33.8203Z" fill="#E3E3E3"/>
    <path fill-rule="evenodd" clip-rule="evenodd" d="M49.666 12.5683C49.8612 12.3731 50.1778 12.3731 50.3731 12.5683L54.7329 16.9282C54.9282 17.1234 54.9282 17.44 54.7329 17.6353C54.5377 17.8305 54.2211 17.8305 54.0258 17.6353L49.666 13.2754C49.4707 13.0802 49.4707 12.7636 49.666 12.5683Z" fill="#E3E3E3"/>
    <path fill-rule="evenodd" clip-rule="evenodd" d="M39.582 33.8203C39.582 33.5442 39.8059 33.3203 40.082 33.3203H46.2487C46.5248 33.3203 46.7487 33.5442 46.7487 33.8203C46.7487 34.0965 46.5248 34.3203 46.2487 34.3203H40.082C39.8059 34.3203 39.582 34.0965 39.582 33.8203Z" fill="#E3E3E3"/>
    <path fill-rule="evenodd" clip-rule="evenodd" d="M67.332 83.1523C67.332 82.8762 67.5559 82.6523 67.832 82.6523H80.1654C80.4415 82.6523 80.6654 82.8762 80.6654 83.1523C80.6654 83.4285 80.4415 83.6523 80.1654 83.6523H67.832C67.5559 83.6523 67.332 83.4285 67.332 83.1523Z" fill="#E3E3E3"/>
</svg>
