<svg width="525" height="402" viewBox="0 0 525 402" fill="none" xmlns="http://www.w3.org/2000/svg">
    <path d="M521.639 238.01C556.959 18.3301 286.813 16.9514 147.325 43.7221C124.77 47.8898 71.0218 64.5931 36.4702 98.0644C-93.5801 237.528 159.802 276.963 270.177 288.505C380.551 300.047 492.846 379.878 521.639 238.01Z" fill="#314C63"/>
    <path d="M87.4996 170.001C68.6996 181.601 63 214.5 65.5012 228.501C65.3679 227.667 65.681 229.5 68.0002 243.5C70.2963 257.361 116.368 265.34 136.888 268.894L137.499 269C134.665 261.5 128.599 245.1 126.999 239.5C125.399 233.9 130.332 233.167 132.999 233.5C145.799 229.9 144.332 216.667 141.999 210.5C149.599 202.5 145.165 192.833 141.999 189C142.665 189.5 144.299 189 145.499 183C146.999 170.5 126.999 172.001 125.499 148.001C123.999 124.001 101.999 120.001 100.999 132.501C100.199 142.501 91.6659 161.667 87.4996 170.001Z" fill="#161617"/>
    <path d="M296.988 67.1598C304.269 51.0414 300.022 30.3818 296.988 22.0667C294.593 13.272 281.372 -3.1662 247.649 1.43905C208.179 7.19562 203.101 51.1694 205.496 72.4367C175.989 91.6252 173.402 126.484 175.797 141.515C170.528 139.117 159.032 140.556 155.2 165.501C151.367 190.446 170.847 203.079 181.066 206.277C189.88 217.79 203.261 225.785 208.849 228.344C171.294 232.949 149.454 255.885 143.227 265H340.581C339.048 241.59 310.879 225.785 296.988 222.587C320.747 220.284 325.409 205.637 324.771 198.601C328.922 202.439 339.716 202.727 349.679 173.177C362.134 136.239 340.578 154.468 337.225 118.489C334.543 89.7064 309.283 72.2768 296.988 67.1598Z" fill="#161617"/>
    <path d="M89.8649 281.574C91.2533 299.02 93.9587 315.989 96.6919 330.011C96.7576 330.339 96.7063 330.68 96.547 330.974C96.3877 331.268 96.1305 331.497 95.8201 331.621C95.5096 331.745 95.1655 331.756 94.8479 331.652C94.5303 331.548 94.2591 331.335 94.0817 331.052C84.7556 316.283 68.3725 283.171 78.2143 241.01C78.3796 240.306 78.7063 239.651 79.1682 239.096C79.6301 238.54 80.2147 238.1 80.8758 237.81C81.5369 237.52 82.2563 237.388 82.9772 237.424C83.6981 237.46 84.4007 237.664 85.0294 238.019C90.6306 241.133 101.174 244.295 117.954 239.437C118.628 239.239 119.338 239.196 120.03 239.311C120.723 239.427 121.38 239.699 121.953 240.105C122.526 240.512 122.999 241.044 123.337 241.66C123.675 242.276 123.869 242.961 123.905 243.663V243.687C123.918 243.995 123.87 244.301 123.762 244.59C123.655 244.878 123.49 245.141 123.278 245.364C123.066 245.586 122.811 245.764 122.529 245.885C122.247 246.007 121.943 246.07 121.635 246.071C109.164 246.134 87.4055 250.603 89.8649 281.574Z" fill="#EAB669"/>
    <path d="M450.475 393.955H455.057C456.669 393.952 458.213 393.309 459.351 392.166C460.489 391.024 461.128 389.476 461.126 387.862V340.541C461.126 340.339 461.087 340.138 461.009 339.951C460.932 339.764 460.819 339.595 460.676 339.451C460.533 339.308 460.363 339.195 460.176 339.117C459.99 339.04 459.79 339 459.587 339H416.539C416.337 339 416.137 339.04 415.95 339.117C415.763 339.195 415.594 339.308 415.451 339.451C415.308 339.595 415.195 339.764 415.117 339.951C415.04 340.138 415 340.339 415 340.541V387.862C415 389.478 415.641 391.028 416.782 392.171C417.923 393.313 419.471 393.955 421.085 393.955H450.475Z" fill="#CE7783"/>
    <path d="M115.056 316.175L126.135 391.703C126.261 392.548 126.686 393.321 127.332 393.88C127.979 394.439 128.804 394.747 129.658 394.749H379.117C379.971 394.747 380.796 394.439 381.442 393.88C382.089 393.321 382.513 392.548 382.64 391.703L389.625 344.1L395.972 300.85L398.689 282.332C399.013 280.114 398.856 277.852 398.228 275.7C397.601 273.548 396.518 271.556 395.054 269.86C393.59 268.164 391.778 266.804 389.742 265.872C387.706 264.939 385.493 264.457 383.254 264.457H125.528C123.289 264.457 121.077 264.939 119.041 265.872C117.005 266.804 115.193 268.164 113.729 269.86C112.264 271.556 111.182 273.548 110.554 275.7C109.927 277.852 109.77 280.114 110.093 282.332L111.553 292.262L115.056 316.175Z" fill="#222223"/>
    <path d="M267.231 326.781V326.813C267.232 329.237 266.744 331.636 265.796 333.866C264.849 336.097 263.461 338.113 261.717 339.794C259.973 341.474 257.908 342.785 255.645 343.647C253.383 344.509 250.97 344.905 248.551 344.811C244.032 344.618 239.751 342.735 236.552 339.533C233.353 336.331 231.47 332.045 231.276 327.52C231.181 325.097 231.575 322.679 232.435 320.413C233.296 318.146 234.604 316.076 236.283 314.328C237.961 312.58 239.975 311.189 242.203 310.239C244.431 309.289 246.828 308.799 249.249 308.799H249.273C249.273 313.568 251.165 318.142 254.533 321.514C257.901 324.886 262.468 326.781 267.231 326.781Z" fill="white"/>
    <path d="M260.607 82.551C278.874 82.551 293.682 67.7226 293.682 49.4308C293.682 31.139 278.874 16.3105 260.607 16.3105C242.34 16.3105 227.531 31.139 227.531 49.4308C227.531 67.7226 242.34 82.551 260.607 82.551Z" fill="#333333"/>
    <path d="M326.094 136.091C326.094 136.091 328.097 80.4806 268.305 76.6474C208.512 72.8142 177.159 100.636 187.012 149.513C188.341 155.094 196.739 139.714 211.087 125.382C225.435 111.051 248.542 130.673 298.663 108.862C306.886 105.557 326.887 164.505 326.094 136.091Z" fill="#333333"/>
    <path d="M184.324 118.579C188.894 95.7982 203.861 70.9124 247.873 72.8746C275.391 74.1179 293.777 78.9084 306.051 85.0375" stroke="#E3E3E3" stroke-width="2" stroke-miterlimit="10"/>
    <path d="M340.08 144.247C343.233 146.201 345.518 151.234 343.618 162.98C339.306 189.665 329.219 193.264 319.504 191.099C319.504 191.099 321.666 203.353 313.74 207.683C305.814 212.013 220.158 244.446 187.039 199.028C187.039 199.028 166.157 199.028 164.725 175.965C163.293 152.902 168.319 141.01 183.798 154.336C182.995 149.39 182.572 144.388 182.532 139.377" stroke="#E3E3E3" stroke-width="2" stroke-miterlimit="10" stroke-linecap="round"/>
    <path d="M325.695 101.736C329 107.019 330.727 113.139 330.67 119.373V139.961" stroke="#E3E3E3" stroke-width="2" stroke-miterlimit="10"/>
    <path d="M184.324 118.579C188.894 95.7982 203.861 70.9124 247.873 72.8746C275.391 74.1179 293.777 78.9084 306.051 85.0375" stroke="#E3E3E3" stroke-width="2" stroke-miterlimit="10" stroke-linecap="round"/>
    <path d="M325.695 101.736C329 107.019 330.726 113.139 330.669 119.373V140.33C330.67 142.87 329.884 145.347 328.42 147.421L322.525 155.762C322.444 155.873 322.331 155.956 322.201 155.999C322.07 156.043 321.93 156.044 321.799 156.003C321.668 155.963 321.552 155.882 321.469 155.772C321.386 155.663 321.339 155.53 321.335 155.393C321.244 147.278 320.399 117.736 312.751 113.288C305.611 109.141 270.552 122.586 232.383 121.029" stroke="#E3E3E3" stroke-width="2" stroke-miterlimit="10" stroke-linecap="round"/>
    <path d="M276.996 165.383C276.996 165.383 293.534 158.022 311.726 165.383H276.996Z" stroke="#E3E3E3" stroke-width="2" stroke-miterlimit="10"/>
    <path d="M204.613 165.383C204.613 165.383 221.151 158.022 239.343 165.383H204.613Z" stroke="#E3E3E3" stroke-width="2" stroke-miterlimit="10"/>
    <path d="M264.211 157.836C264.211 157.836 306.26 151.428 314.257 153.069L303.626 149.542L311.655 145.148C311.655 145.148 267.674 152.719 264.211 157.836Z" stroke="#E3E3E3" stroke-width="2" stroke-miterlimit="10"/>
    <path d="M211.303 147.715C224.533 150.376 242.955 154.599 245.152 157.836C245.152 157.836 223.025 154.464 207.82 153.236" stroke="#E3E3E3" stroke-width="2" stroke-miterlimit="10"/>
    <path d="M250.052 187.343C252.567 187.95 258.025 188.908 263.726 187.541C263.807 187.517 263.895 187.523 263.972 187.559C264.049 187.595 264.111 187.658 264.145 187.736C264.179 187.814 264.183 187.902 264.157 187.983C264.131 188.064 264.076 188.133 264.003 188.177C261.127 189.897 255.245 192.336 249.747 187.962C249.683 187.912 249.639 187.842 249.622 187.763C249.604 187.684 249.614 187.602 249.65 187.529C249.685 187.457 249.745 187.399 249.818 187.365C249.891 187.331 249.974 187.323 250.052 187.343Z" fill="#E3E3E3"/>
    <path d="M246.336 210.508C246.336 210.508 255.614 213.348 264.187 210.508" stroke="#E3E3E3" stroke-width="2" stroke-miterlimit="10" stroke-linecap="round"/>
    <path d="M243.9 68.3181C246.613 66.4233 255.031 61.7202 265.511 67.3687C265.607 67.4005 265.688 67.4677 265.736 67.5566C265.784 67.6456 265.796 67.7495 265.77 67.8473C265.745 67.9451 265.683 68.0293 265.597 68.0828C265.511 68.1364 265.408 68.1551 265.309 68.1353C261.029 67.9129 249.727 67.4839 244.087 68.7312C244.034 68.7442 243.979 68.7385 243.931 68.715C243.882 68.6915 243.843 68.6517 243.821 68.6025C243.799 68.5534 243.795 68.4979 243.809 68.446C243.824 68.394 243.856 68.3487 243.9 68.3181Z" fill="#E3E3E3"/>
    <path d="M234.395 200.465C234.395 200.465 257.113 203.313 278.879 201.784" stroke="#E3E3E3" stroke-width="2" stroke-miterlimit="10" stroke-linecap="round"/>
    <path d="M215.835 59.8221C215.546 57.9652 215.401 56.0887 215.402 54.2094C215.402 44.532 219.242 35.251 226.075 28.408C232.909 21.5651 242.177 17.7207 251.842 17.7207C261.505 17.7218 270.773 21.5665 277.606 28.4094C284.439 35.2522 288.277 44.5327 288.277 54.2094C288.287 60.7368 286.54 67.1463 283.22 72.7636" stroke="#E3E3E3" stroke-width="2" stroke-miterlimit="10" stroke-linecap="round"/>
    <path d="M186.062 182.321C186.062 182.321 183.638 162.821 175.352 157.836" stroke="#E3E3E3" stroke-width="2" stroke-miterlimit="10" stroke-linecap="round"/>
    <path d="M331.495 156.863C331.495 156.863 322.728 166.035 324.561 175.338" stroke="#E3E3E3" stroke-width="2" stroke-miterlimit="10" stroke-linecap="round"/>
    <path d="M253.307 108.323C243.786 93.4508 223.496 70.3246 204.931 104.99C179.579 152.331 203.344 172.434 203.563 179.08C203.781 185.725 199.679 193.042 199.679 193.042C199.679 193.042 210.739 186.885 206.074 157.594C206.074 157.594 218.767 143.334 223.282 127.6C223.282 127.6 226.733 110.003 243.041 115.048C259.348 120.092 253.307 108.323 253.307 108.323Z" fill="#333333"/>
    <path d="M251.842 109.442C241.401 93.1562 219.187 67.8255 198.857 105.792C171.089 157.645 197.104 179.675 197.354 186.94C197.604 194.205 193.101 202.233 193.101 202.233C193.101 202.233 205.216 195.48 200.107 163.409C200.107 163.409 214.026 147.79 218.953 130.555" stroke="#E3E3E3" stroke-width="2" stroke-miterlimit="10" stroke-linecap="round"/>
    <path d="M324.718 249.411H194.078C191.893 249.411 191.452 246.317 193.551 245.713C205.238 242.312 217.098 239.541 229.082 237.411C229.082 237.411 243.041 233.678 270.527 234.273C276.724 234.408 283.598 234.762 291.155 235.429C303.056 237.34 314.262 240.99 323.929 247.032C324.945 247.66 325.024 248.474 324.718 249.411Z" fill="#EAB669"/>
    <path d="M226.313 232.088C201.008 235.345 189.215 239.119 172.082 246.09" stroke="#E3E3E3" stroke-width="2" stroke-miterlimit="10" stroke-linecap="round"/>
    <path d="M322.194 241.534C309.639 236.811 296.933 232 281.363 230.447" stroke="#E3E3E3" stroke-width="2" stroke-miterlimit="10" stroke-linecap="round"/>
    <path d="M108.485 235.434C126.078 236.006 128.716 229.297 128.716 229.297C143.346 223.644 137.201 209.765 137.201 209.765C139.752 207.013 141.128 204.506 141.699 202.29C143.02 197.229 140.307 193.65 138.645 192.021C138.281 191.646 137.882 191.306 137.455 191.005C144.635 174.031 127.435 171.974 123.591 170.186C119.747 168.399 122.055 163.497 121.02 148.649C119.985 133.801 105.625 127.509 102.729 143.716C98.8019 170.953 87.655 176.875 87.655 176.875C57.1103 204.883 90.9951 232.125 90.9951 232.125C91.5345 232.632 92.1069 233.103 92.7087 233.535" stroke="#E3E3E3" stroke-width="2" stroke-miterlimit="10" stroke-linecap="round"/>
    <path d="M123.597 170.182C123.597 170.182 113.545 169.427 107.77 170.838" stroke="#E3E3E3" stroke-width="2" stroke-miterlimit="10" stroke-linecap="round"/>
    <path d="M137.458 191.001C137.458 191.001 127.64 189.857 118.762 191.001" stroke="#E3E3E3" stroke-width="2" stroke-miterlimit="10" stroke-linecap="round"/>
    <path d="M137.199 209.765C137.199 209.765 127.496 209.459 120.312 209.765" stroke="#E3E3E3" stroke-width="2" stroke-miterlimit="10" stroke-linecap="round"/>
    <path d="M123.595 226.754C123.595 226.754 116.161 226.857 111.512 226.154" stroke="#E3E3E3" stroke-width="2" stroke-miterlimit="10" stroke-linecap="round"/>
    <path d="M273.06 229.836L255.959 246.097C255.587 246.45 255.008 246.465 254.619 246.131L235.629 229.836H273.06Z" fill="#161617"/>
    <path d="M98.1425 282.61L96.6431 272.374C96.3082 270.092 96.468 267.764 97.1117 265.55C97.7553 263.335 98.8676 261.285 100.373 259.539C101.879 257.794 103.742 256.393 105.836 255.433C107.931 254.473 110.207 253.975 112.511 253.975H377.571C379.875 253.976 382.151 254.474 384.245 255.434C386.339 256.394 388.202 257.795 389.707 259.541C391.212 261.286 392.325 263.336 392.969 265.55C393.613 267.765 393.773 270.092 393.439 272.374L390.642 291.421" stroke="#E3E3E3" stroke-width="2" stroke-miterlimit="10" stroke-linecap="round"/>
    <path d="M133.267 387.992H116.765C115.886 387.992 115.036 387.676 114.371 387.1C113.707 386.525 113.27 385.729 113.143 384.858L101.746 307.162" stroke="#E3E3E3" stroke-width="2" stroke-miterlimit="10" stroke-linecap="round"/>
    <path d="M384.129 335.898L376.949 384.86C376.82 385.731 376.383 386.527 375.718 387.102C375.052 387.677 374.202 387.994 373.323 387.994H166.012" stroke="#E3E3E3" stroke-width="2" stroke-miterlimit="10" stroke-linecap="round"/>
    <path d="M78.4114 226.154C78.4114 226.154 54.5508 319.39 93.7473 341.209" stroke="#E3E3E3" stroke-width="2" stroke-miterlimit="10" stroke-linecap="round"/>
    <path d="M113.062 239.076L115.403 249.368" stroke="#E3E3E3" stroke-width="2" stroke-miterlimit="10" stroke-linecap="round"/>
    <path d="M498.5 398.688H61" stroke="#E3E3E3" stroke-width="2" stroke-miterlimit="10" stroke-linecap="round"/>
    <path d="M349.366 392.652H374.873C375.25 392.652 375.613 392.803 375.88 393.07C376.147 393.337 376.297 393.7 376.297 394.078V397.256C376.297 397.444 376.261 397.63 376.189 397.803C376.118 397.977 376.013 398.134 375.881 398.267C375.749 398.4 375.592 398.505 375.419 398.577C375.246 398.649 375.06 398.686 374.873 398.686H115.373C114.995 398.685 114.633 398.534 114.366 398.266C114.099 397.998 113.949 397.635 113.949 397.256V394.078C113.949 393.7 114.099 393.337 114.366 393.07C114.634 392.803 114.996 392.652 115.373 392.652H302.212" stroke="#E3E3E3" stroke-width="2" stroke-miterlimit="10" stroke-linecap="round"/>
    <path d="M432.599 398.693H416.363C414.679 398.693 413.065 398.024 411.875 396.832C410.684 395.64 410.016 394.024 410.016 392.338V369.986" stroke="#E3E3E3" stroke-width="2" stroke-miterlimit="10" stroke-linecap="round"/>
    <path d="M410.004 353.447V342.869C410.004 342.657 410.046 342.447 410.127 342.252C410.208 342.057 410.326 341.879 410.476 341.73C410.625 341.58 410.803 341.462 410.998 341.381C411.194 341.3 411.403 341.259 411.614 341.26H456.602C456.814 341.259 457.023 341.3 457.219 341.381C457.414 341.462 457.592 341.58 457.741 341.73C457.891 341.879 458.009 342.057 458.09 342.252C458.171 342.447 458.213 342.657 458.213 342.869V392.326C458.213 394.012 457.544 395.629 456.354 396.82C455.164 398.012 453.549 398.682 451.866 398.682H447.082" stroke="#E3E3E3" stroke-width="2" stroke-miterlimit="10" stroke-linecap="round"/>
    <path d="M466.803 354.5C464.133 353.175 461.205 352.455 458.227 352.391" stroke="#E3E3E3" stroke-width="2" stroke-miterlimit="10" stroke-linecap="round"/>
    <path d="M460.133 387.426C469.538 386.329 476.794 378.937 476.794 369.976C476.779 367.69 476.3 365.431 475.386 363.336C474.471 361.242 473.14 359.356 471.474 357.793" stroke="#E3E3E3" stroke-width="2" stroke-miterlimit="10" stroke-linecap="round"/>
    <path d="M462.868 381.746C467.921 379.867 471.488 375.307 471.488 369.976C471.488 363.124 465.597 357.543 458.227 357.301" stroke="#E3E3E3" stroke-width="2" stroke-miterlimit="10" stroke-linecap="round"/>
    <path d="M421.296 309.41C414.917 315.797 421.296 320.981 421.296 320.981C421.296 320.981 427.08 327.122 421.296 332.898" stroke="#E3E3E3" stroke-width="2" stroke-miterlimit="10" stroke-linecap="round"/>
    <path d="M421.297 296.979C421.297 296.979 424.827 300.327 424.01 304.673" stroke="#E3E3E3" stroke-width="2" stroke-miterlimit="10" stroke-linecap="round"/>
    <path d="M441.526 309.586C441.526 309.586 447.905 315.636 441.526 322.019C435.148 328.402 441.526 333.594 441.526 333.594C441.526 333.594 444.803 337.07 443.954 341.26" stroke="#E3E3E3" stroke-width="2" stroke-miterlimit="10" stroke-linecap="round"/>
    <path d="M429.987 314.166C429.856 315.648 430.273 317.344 431.939 319.02" stroke="#E3E3E3" stroke-width="2" stroke-miterlimit="10" stroke-linecap="round"/>
    <path d="M431.939 291.422C431.939 291.422 427.04 296.065 431.939 300.955C436.838 305.845 431.939 309.841 431.939 309.841" stroke="#E3E3E3" stroke-width="2" stroke-miterlimit="10" stroke-linecap="round"/>
    <path d="M271.137 231.758L258.18 244.261" stroke="#E3E3E3" stroke-width="2" stroke-linecap="round"/>
    <path d="M238.984 232.238L250.502 242.818" stroke="#E3E3E3" stroke-width="2" stroke-linecap="round"/>
</svg>
