<svg width="672" height="887" viewBox="0 0 672 887" fill="none" xmlns="http://www.w3.org/2000/svg">
    <path d="M153.187 271.075C150.8 266.11 149.565 260.669 149.574 255.16C149.574 245.402 153.451 236.044 160.353 229.145C167.254 222.245 176.614 218.369 186.375 218.369C196.135 218.369 205.495 222.245 212.396 229.145C219.298 236.044 223.175 245.402 223.175 255.16C223.175 264.917 219.298 274.275 212.396 281.175C205.495 288.074 196.135 291.95 186.375 291.95C183.312 291.952 180.262 291.571 177.294 290.818" stroke="#E3E3E3" stroke-width="2" stroke-miterlimit="10" stroke-linecap="round"/>
    <path d="M233.713 788.324C231.134 782.958 229.799 777.078 229.809 771.125C229.809 760.58 233.998 750.468 241.456 743.012C248.914 735.556 259.03 731.367 269.577 731.367C280.124 731.367 290.239 735.556 297.697 743.012C305.155 750.468 309.345 760.58 309.345 771.125C309.345 781.669 305.155 791.782 297.697 799.238C290.239 806.694 280.124 810.882 269.577 810.882C266.268 810.884 262.971 810.473 259.764 809.659" stroke="#E3E3E3" stroke-width="2" stroke-miterlimit="10" stroke-linecap="round"/>
    <path d="M643.505 298.564C646.068 297.332 648.877 296.695 651.721 296.699C656.759 296.699 661.59 298.7 665.152 302.261C668.714 305.822 670.715 310.652 670.715 315.688C670.715 320.724 668.714 325.554 665.152 329.115C661.59 332.676 656.759 334.677 651.721 334.677C646.684 334.677 641.853 332.676 638.291 329.115C634.729 325.554 632.728 320.724 632.728 315.688C632.727 314.108 632.924 312.534 633.312 311.002" stroke="#333333" stroke-width="2" stroke-miterlimit="10" stroke-linecap="round"/>
    <path d="M180.532 39.8409C183.096 38.6093 185.904 37.972 188.748 37.9766C193.786 37.9766 198.617 39.9772 202.179 43.5383C205.741 47.0993 207.742 51.9292 207.742 56.9653C207.742 62.0014 205.741 66.8313 202.179 70.3924C198.617 73.9534 193.786 75.954 188.748 75.954C183.711 75.954 178.88 73.9534 175.318 70.3924C171.756 66.8313 169.755 62.0014 169.755 56.9653C169.754 55.3852 169.951 53.8113 170.339 52.2798" stroke="#333333" stroke-width="2" stroke-miterlimit="10" stroke-linecap="round"/>
    <path d="M88.7779 391.864C91.3416 390.633 94.1503 389.995 96.9946 390C102.032 390 106.863 392.001 110.425 395.562C113.987 399.123 115.988 403.953 115.988 408.989C115.988 414.025 113.987 418.855 110.425 422.416C106.863 425.977 102.032 427.977 96.9946 427.977C91.9571 427.977 87.126 425.977 83.564 422.416C80.002 418.855 78.0009 414.025 78.0009 408.989C78.0003 407.409 78.1967 405.835 78.5855 404.303" stroke="#333333" stroke-width="2" stroke-miterlimit="10" stroke-linecap="round"/>
    <path d="M88.1021 783.296C90.6658 782.064 93.4745 781.427 96.3188 781.432C101.356 781.432 106.187 783.432 109.749 786.993C113.311 790.554 115.312 795.384 115.312 800.42C115.312 805.456 113.311 810.286 109.749 813.847C106.187 817.408 101.356 819.409 96.3188 819.409C91.2813 819.409 86.4502 817.408 82.8882 813.847C79.3262 810.286 77.3251 805.456 77.3251 800.42C77.3245 798.84 77.5208 797.266 77.9097 795.735" stroke="#333333" stroke-width="2" stroke-miterlimit="10" stroke-linecap="round"/>
    <path d="M366.953 79.943C370.623 82.4489 373.68 85.7506 375.895 89.602C379.831 96.4167 380.897 104.515 378.86 112.116C376.823 119.717 371.849 126.197 365.033 130.132C358.216 134.066 350.116 135.133 342.513 133.096C334.91 131.059 328.428 126.087 324.492 119.272C320.557 112.457 319.49 104.359 321.527 96.7578C323.565 89.157 328.539 82.6765 335.355 78.7421C337.493 77.5068 339.777 76.5428 342.154 75.8724" stroke="#6C6C6C" stroke-width="2" stroke-miterlimit="10" stroke-linecap="round"/>
    <path d="M433.289 709.855V867.41" stroke="#E3E3E3" stroke-width="2" stroke-linecap="round"/>
    <path d="M382.246 674.877V804.83" stroke="#333333" stroke-width="2" stroke-linecap="round"/>
    <path d="M654.547 628.516V817.348" stroke="#E3E3E3" stroke-width="2" stroke-linecap="round"/>
    <path d="M602.273 750.408V843.466" stroke="#333333" stroke-width="2" stroke-linecap="round"/>
    <g clip-path="url(#clip0_6774_10226)">
        <path d="M460.141 184.29C464.784 182.175 469.838 181.101 474.945 181.144C480.051 181.187 485.086 182.347 489.692 184.541" stroke="#E3E3E3" stroke-width="1.5" stroke-miterlimit="10" stroke-linecap="round"/>
        <path d="M581.728 81.1668C604.254 81.1668 622.514 62.997 622.514 40.5834C622.514 18.1698 604.254 0 581.728 0C559.202 0 540.941 18.1698 540.941 40.5834C540.941 62.997 559.202 81.1668 581.728 81.1668Z" fill="#EAB669"/>
        <path d="M559.316 88.3742C551.749 84.9874 545.327 79.4969 540.822 72.5635C536.318 65.6301 533.923 57.5492 533.926 49.2932C533.925 43.667 535.037 38.0957 537.2 32.8974C539.363 27.6991 542.534 22.9758 546.532 18.9971C550.53 15.0184 555.276 11.8622 560.5 9.70888C565.724 7.55556 571.323 6.44728 576.977 6.44728C580.756 6.444 584.518 6.93716 588.167 7.91395" stroke="#E3E3E3" stroke-width="2" stroke-miterlimit="10" stroke-linecap="round"/>
        <path d="M617.426 34.4492C619.202 39.1995 620.115 44.2262 620.123 49.2946C620.129 55.3088 618.859 61.2567 616.397 66.7491C613.934 72.2415 610.334 77.1547 605.832 81.1675" stroke="#E3E3E3" stroke-width="2" stroke-miterlimit="10" stroke-linecap="round"/>
        <path d="M349.746 350.855C372.217 350.855 390.434 332.729 390.434 310.37C390.434 288.011 372.217 269.885 349.746 269.885C327.275 269.885 309.059 288.011 309.059 310.37C309.059 332.729 327.275 350.855 349.746 350.855Z" fill="#EAB669"/>
        <path d="M307.14 338.538C304.343 332.755 302.896 326.417 302.906 319.999C302.906 314.371 304.021 308.797 306.187 303.598C308.353 298.398 311.527 293.674 315.528 289.696C319.53 285.718 324.28 282.563 329.508 280.413C334.735 278.262 340.337 277.157 345.994 277.162C351.648 277.161 357.247 278.268 362.471 280.42C367.696 282.573 372.443 285.728 376.441 289.706C380.44 293.684 383.612 298.406 385.776 303.604C387.94 308.802 389.054 314.373 389.054 319.999C389.055 323.035 388.733 326.063 388.092 329.032" stroke="#E3E3E3" stroke-width="2" stroke-miterlimit="10" stroke-linecap="round"/>
        <path d="M459.623 408.688C460.298 408.728 460.958 408.905 461.562 409.209C462.166 409.512 462.701 409.935 463.135 410.452C463.568 410.969 463.891 411.568 464.083 412.214C464.275 412.859 464.333 413.537 464.252 414.205L450.249 538.299C449.391 545.978 445.899 553.129 440.362 558.546L350.305 646.268C343.395 653.017 334.103 656.806 324.42 656.82H202.852L329.867 562.132C337.658 556.327 343.792 548.599 347.662 539.712L411.089 394.048C411.365 393.414 411.773 392.845 412.285 392.378C412.797 391.911 413.402 391.557 414.061 391.338C414.72 391.12 415.418 391.042 416.109 391.11C416.8 391.177 417.469 391.389 418.073 391.732C429.199 398.054 448.514 408.124 459.623 408.688Z" fill="#314C63"/>
        <path d="M209.641 646.097H313.26C323.651 646.097 333.628 642.045 341.051 634.811L437.66 540.695C443.616 534.893 447.375 527.223 448.302 518.981L462.331 397.83" stroke="#E3E3E3" stroke-width="2" stroke-miterlimit="10" stroke-linecap="round"/>
        <path d="M424.472 331.284C424.474 331.481 424.434 331.676 424.355 331.856L421.092 339.351L402.802 381.383L340.93 523.478C336.964 532.545 330.691 540.427 322.73 546.346L35.3017 760.62C33.8166 761.728 32.0508 762.402 30.2022 762.568C28.3536 762.733 26.4952 762.383 24.8353 761.557C23.1753 760.731 21.7794 759.461 20.804 757.89C19.8285 756.318 19.3121 754.508 19.3125 752.661V674.758C19.305 670.441 20.5368 666.212 22.8631 662.568C25.1894 658.924 28.5133 656.017 32.4436 654.189L270.817 543.484C270.975 543.416 271.1 543.289 271.165 543.129C271.229 542.97 271.226 542.792 271.158 542.634C271.091 542.477 270.962 542.352 270.802 542.288C270.642 542.225 270.463 542.227 270.305 542.294L73.3469 618.113C71.7478 618.735 70.0202 618.959 68.3143 618.766C66.6084 618.572 64.9759 617.967 63.5586 617.002C62.1413 616.038 60.9821 614.744 60.1818 613.233C59.3815 611.721 58.9644 610.038 58.9665 608.33V536.249C58.9647 530.989 60.6321 525.862 63.7307 521.6C66.8294 517.338 71.2012 514.158 76.223 512.514L319.692 432.76C329.088 429.684 337.328 423.851 343.33 416.028L378.841 369.721L401.472 340.209L421.829 313.666C422.015 313.423 422.272 313.245 422.565 313.156C422.858 313.068 423.172 313.073 423.462 313.172C423.752 313.271 424.003 313.459 424.179 313.708C424.356 313.958 424.449 314.256 424.445 314.561L424.472 331.284Z" fill="#71A5D2"/>
        <path d="M429.173 288.25L400.098 326.159" stroke="#E3E3E3" stroke-width="2" stroke-linecap="round" stroke-linejoin="round"/>
        <path d="M419.77 325.527L429.171 303.947" stroke="#E3E3E3" stroke-width="2" stroke-linecap="round" stroke-linejoin="round"/>
        <path d="M209.641 626.153L319.147 544.557C327.505 538.326 334.084 530.035 338.237 520.501L398.455 382.152" stroke="#E3E3E3" stroke-width="2" stroke-miterlimit="10" stroke-linecap="round"/>
        <path d="M0.859375 721.817V760.907C0.858958 762.845 1.40096 764.745 2.42466 766.394C3.44837 768.043 4.91334 769.376 6.65539 770.243C8.39744 771.11 10.3477 771.477 12.2878 771.304C14.2278 771.13 16.0809 770.422 17.6395 769.26L138.543 679.123" stroke="#E3E3E3" stroke-width="2" stroke-miterlimit="10" stroke-linecap="round"/>
        <path d="M42.5176 599.575V609.565C42.5178 611.353 42.9558 613.114 43.7937 614.696C44.6317 616.278 45.8443 617.633 47.3267 618.644C48.8091 619.655 50.5168 620.292 52.3019 620.498C54.087 620.705 55.8959 620.476 57.5721 619.831L264.201 540.301C264.367 540.23 264.556 540.228 264.725 540.295C264.893 540.362 265.028 540.493 265.099 540.659C265.171 540.825 265.173 541.012 265.106 541.18C265.038 541.348 264.907 541.482 264.74 541.553L14.6736 657.678C10.5496 659.584 7.05863 662.623 4.61137 666.436C2.16411 670.25 0.862407 674.679 0.859375 679.204V687.038" stroke="#E3E3E3" stroke-width="2" stroke-miterlimit="10" stroke-linecap="round"/>
        <path d="M112.637 492.035L60.6248 509.072C55.358 510.795 50.7725 514.129 47.5221 518.598C44.2717 523.067 42.5223 528.443 42.5234 533.96V573.238" stroke="#E3E3E3" stroke-width="2" stroke-miterlimit="10" stroke-linecap="round"/>
        <path d="M372.128 367.002L340.788 407.863C334.492 416.07 325.848 422.19 315.991 425.418L206.547 461.27" stroke="#E3E3E3" stroke-width="2" stroke-miterlimit="10" stroke-linecap="round"/>
        <path d="M599.448 86.7366V179.744C599.445 185.444 598.155 191.071 595.673 196.208L572.188 244.742C570.801 247.62 570.08 250.77 570.076 253.962V401.379C570.077 402.66 569.825 403.93 569.332 405.114C568.84 406.298 568.118 407.374 567.207 408.281C566.296 409.187 565.215 409.905 564.025 410.395C562.834 410.885 561.559 411.137 560.271 411.136H508.142C506.226 411.132 504.353 410.57 502.755 409.517C501.157 408.465 499.905 406.969 499.154 405.215C499.073 405.036 498.992 404.858 498.92 404.679L474.896 351.074C474.748 350.737 474.485 350.463 474.153 350.3C473.822 350.137 473.443 350.097 473.084 350.186C472.725 350.275 472.41 350.487 472.193 350.786C471.977 351.085 471.874 351.45 471.903 351.817L473.701 376.669C473.833 378.607 473.452 380.546 472.594 382.291C471.737 384.036 470.434 385.527 468.816 386.614C467.198 387.7 465.321 388.345 463.374 388.483C461.427 388.621 459.477 388.248 457.72 387.401L384.587 352.103C383.744 351.702 383.008 351.109 382.438 350.373C381.868 349.637 381.48 348.777 381.305 347.864C381.13 346.951 381.173 346.01 381.431 345.117C381.689 344.223 382.154 343.403 382.789 342.722C385.575 339.748 388.18 336.613 390.591 333.331C391.157 332.564 391.899 331.942 392.756 331.519C393.613 331.096 394.559 330.883 395.516 330.899L437.201 331.614C438.154 331.627 439.1 331.452 439.983 331.098C440.867 330.744 441.671 330.22 442.35 329.554C443.028 328.888 443.566 328.095 443.934 327.221C444.301 326.346 444.49 325.408 444.49 324.46V264.899C444.489 261.297 445.909 257.839 448.445 255.268L458.943 244.652C460.338 243.236 462.004 242.111 463.842 241.343C465.68 240.575 467.654 240.18 469.647 240.181H504.232C507.201 240.184 510.13 239.511 512.797 238.213C522.071 238.195 531.33 237.456 540.489 236.005C569.106 230.97 564.908 211.313 564.908 211.313C578.695 211.313 584.295 188.383 584.798 170.542C585.203 156.376 575.073 154.194 570.885 153.899L577.293 94.4098C577.376 93.6464 577.646 92.9147 578.078 92.2786C578.51 91.6426 579.093 91.1215 579.774 90.761C584.029 88.484 588.096 85.8733 591.935 82.9538C592.639 82.4463 593.471 82.1417 594.338 82.0733C595.205 82.005 596.074 82.1755 596.85 82.5662C597.626 82.957 598.279 83.5529 598.738 84.2886C599.196 85.0242 599.442 85.8711 599.448 86.7366Z" fill="#CE7783"/>
        <ellipse rx="31.8666" ry="24.3295" transform="matrix(0.981927 -0.189261 0.189357 0.981908 522.304 281.186)" fill="#161617"/>
        <path d="M499.465 293.228C496.348 290.29 494.192 286.639 493.388 282.469C490.844 269.276 502.791 255.88 520.072 252.549C537.353 249.218 553.425 257.213 555.969 270.407C558.514 283.601 546.567 296.997 529.286 300.328C526.416 300.881 523.58 301.122 520.833 301.078" stroke="#E3E3E3" stroke-width="2" stroke-linecap="round"/>
        <path d="M537.376 262.58C537.565 262.101 537.583 261.775 537.363 261.414C536.471 259.885 533.691 259.848 532.35 260.644C531.747 260.99 531.223 261.549 531.264 262.288C530.657 267.674 530.379 281.503 529.62 286.778C529.562 286.967 529.44 287.094 529.28 287.209C529.157 287.273 529.057 287.262 528.979 287.113C528.94 287.038 528.914 286.988 528.9 286.901C528.467 284.149 526.497 274.186 527.06 269.616C527.165 269.276 527.132 268.913 526.976 268.615C526.213 267.334 523.431 267.711 522.274 268.379C521.597 268.764 520.767 269.578 521.036 270.514C523.693 278.249 523.41 285.397 526.118 291.965C526.184 292.152 526.275 292.327 526.39 292.488C527.424 294.229 529.298 294.453 530.827 293.718C531.846 294.167 532.548 294.371 533.004 294.101C533.41 293.858 533.634 293.265 533.708 292.086C534.013 286.542 533.489 273.701 537.376 262.58Z" fill="#E3E3E3"/>
        <path d="M553.981 429.347V616.819C553.981 620.758 553.56 624.685 552.723 628.535L529.427 734.956C529.181 736.148 528.621 737.253 527.804 738.158C526.988 739.063 525.944 739.736 524.78 740.108L524.358 740.215C520.862 741.02 514.193 735.43 508.539 729.814C505.881 727.162 504.346 723.596 504.252 719.852C503.237 683.668 501.879 625.798 502.392 623.813C503.29 620.235 513.114 599.506 518.696 587.853C519.883 585.373 520.555 582.68 520.67 579.935C520.786 577.191 520.344 574.451 519.37 571.881C511.236 550.525 490.114 490.025 488.38 433.344C488.38 432.146 488.245 430.957 488.101 429.767C488.034 429.177 488.093 428.579 488.275 428.013C488.457 427.447 488.757 426.926 489.157 426.484C489.556 426.042 490.045 425.689 490.591 425.449C491.137 425.208 491.728 425.086 492.325 425.09H549.73C550.291 425.089 550.847 425.198 551.365 425.412C551.883 425.626 552.353 425.94 552.748 426.336C553.144 426.732 553.456 427.202 553.668 427.718C553.88 428.235 553.986 428.789 553.981 429.347Z" fill="#333333"/>
        <path d="M506.371 112.038C522.161 112.038 534.961 99.3015 534.961 83.5903C534.961 67.8791 522.161 55.1426 506.371 55.1426C490.581 55.1426 477.781 67.8791 477.781 83.5903C477.781 99.3015 490.581 112.038 506.371 112.038Z" fill="#333333"/>
        <path d="M562.981 158.031C562.981 158.031 564.715 110.267 513.018 106.967C461.32 103.667 434.231 127.536 442.752 169.568C443.902 174.361 451.155 161.152 463.558 148.838C475.961 136.523 495.914 153.381 539.271 134.645C546.416 131.802 563.673 182.437 562.981 158.031Z" fill="#333333"/>
        <path d="M440.426 143.017C444.371 123.45 457.314 102.058 495.359 103.757C519.15 104.83 535.04 108.944 545.691 114.212" stroke="#E3E3E3" stroke-width="2" stroke-miterlimit="10"/>
        <path d="M575.071 165.035C577.767 166.716 579.772 171.036 578.127 181.132C574.397 204.053 565.679 207.139 557.284 205.279C557.284 205.279 559.154 215.805 552.296 219.525C545.438 223.245 471.406 251.103 442.771 212.093C442.771 212.093 424.724 212.093 423.483 192.284C422.243 172.476 426.584 162.245 439.967 173.701C439.274 169.451 438.911 165.155 438.879 160.85" stroke="#E3E3E3" stroke-width="2" stroke-miterlimit="10" stroke-linecap="round"/>
        <path d="M562.602 128.521C565.457 133.06 566.947 138.317 566.898 143.671V161.351" stroke="#E3E3E3" stroke-width="2" stroke-miterlimit="10"/>
        <path d="M440.426 143.017C444.371 123.45 457.314 102.058 495.359 103.757C519.15 104.83 535.04 108.944 545.691 114.212" stroke="#E3E3E3" stroke-width="2" stroke-miterlimit="10" stroke-linecap="round"/>
        <path d="M562.601 128.521C565.456 133.06 566.947 138.317 566.897 143.671V161.682C566.895 163.863 566.217 165.989 564.956 167.772L559.86 174.927C559.79 175.024 559.691 175.097 559.577 175.135C559.464 175.174 559.341 175.176 559.226 175.142C559.111 175.107 559.01 175.038 558.936 174.943C558.863 174.848 558.822 174.733 558.817 174.614C558.745 167.638 558.008 142.267 551.402 138.448C545.228 134.871 514.921 146.434 481.918 145.102" stroke="#E3E3E3" stroke-width="2" stroke-miterlimit="10" stroke-linecap="round"/>
        <path d="M509.469 176.703C509.469 176.703 545.824 171.203 552.736 172.607L543.541 169.584L550.489 165.811C550.489 165.811 512.471 172.312 509.469 176.703Z" stroke="#E3E3E3" stroke-width="1.5" stroke-miterlimit="10"/>
        <path d="M463.734 168.059C475.166 170.348 491.092 173.97 492.989 176.751C492.989 176.751 473.863 173.854 460.723 172.807" stroke="#E3E3E3" stroke-width="1.5" stroke-miterlimit="10"/>
        <path d="M497.244 202.04C501.119 202.996 505.162 203.054 509.063 202.21C509.135 202.187 509.213 202.192 509.281 202.223C509.35 202.254 509.405 202.31 509.435 202.378C509.465 202.447 509.468 202.525 509.445 202.596C509.421 202.667 509.371 202.727 509.305 202.764C506.816 204.24 501.729 206.341 496.974 202.576C496.925 202.53 496.892 202.47 496.88 202.403C496.868 202.337 496.878 202.269 496.908 202.208C496.939 202.148 496.988 202.099 497.048 202.069C497.109 202.038 497.177 202.028 497.244 202.04Z" fill="#E3E3E3"/>
        <path d="M494.027 221.957C494.027 221.957 502.053 224.389 509.468 221.957" stroke="#E3E3E3" stroke-width="1.5" stroke-miterlimit="10" stroke-linecap="round"/>
        <path d="M491.926 99.8125C494.641 97.9255 497.84 96.8463 501.148 96.7006C504.457 96.5549 507.739 97.3489 510.611 98.9898C510.685 99.0252 510.744 99.085 510.778 99.1589C510.812 99.2329 510.818 99.3163 510.797 99.3948C510.776 99.4733 510.728 99.542 510.661 99.5888C510.594 99.6357 510.513 99.6579 510.431 99.6516C506.737 99.4638 496.95 99.0971 492.087 100.161C492.043 100.171 491.997 100.165 491.957 100.145C491.917 100.125 491.885 100.092 491.866 100.051C491.847 100.011 491.843 99.965 491.853 99.9216C491.864 99.8781 491.89 99.8396 491.926 99.8125Z" fill="#E3E3E3"/>
        <path d="M483.711 213.326C483.711 213.326 503.349 215.768 522.161 214.462" stroke="#E3E3E3" stroke-width="1.5" stroke-miterlimit="10" stroke-linecap="round"/>
        <path d="M467.658 92.5146C467.412 90.9165 467.288 89.3021 467.289 87.6853C467.289 79.3839 470.603 71.4224 476.503 65.5525C482.402 59.6825 490.403 56.3848 498.746 56.3848C507.089 56.3848 515.09 59.6825 520.99 65.5525C526.889 71.4224 530.203 79.3839 530.203 87.6853C530.213 93.2943 528.704 98.8023 525.835 103.631" stroke="#E3E3E3" stroke-width="2" stroke-miterlimit="10" stroke-linecap="round"/>
        <path d="M441.915 197.739C441.915 197.739 439.821 180.989 432.676 176.705" stroke="#E3E3E3" stroke-width="2" stroke-miterlimit="10" stroke-linecap="round"/>
        <path d="M567.65 175.873C567.65 175.873 560.073 183.752 561.655 191.738" stroke="#E3E3E3" stroke-width="2" stroke-miterlimit="10" stroke-linecap="round"/>
        <path d="M500.06 134.174C491.818 121.403 474.283 101.532 458.24 131.312C436.318 171.985 456.855 189.254 457.053 194.959C457.251 200.665 453.692 206.952 453.692 206.952C453.692 206.952 463.255 201.667 459.228 176.546C459.228 176.546 470.211 164.294 474.103 150.781C474.103 150.781 477.087 135.667 491.18 139.996C505.273 144.324 500.06 134.174 500.06 134.174Z" fill="#333333"/>
        <path d="M498.783 135.138C489.795 121.142 470.552 99.3658 452.945 131.999C428.948 176.544 451.435 195.494 451.651 201.754C451.867 208.015 447.975 214.892 447.975 214.892C447.975 214.892 458.446 209.097 454.033 181.534C454.033 181.534 466.067 168.12 470.328 153.319" stroke="#E3E3E3" stroke-width="2" stroke-miterlimit="10" stroke-linecap="round"/>
        <path d="M507.484 642.93C507.664 662.336 508.743 707.078 509.587 737.189" stroke="#E3E3E3" stroke-width="2" stroke-miterlimit="10" stroke-linecap="round"/>
        <path d="M541.074 731.904L536.535 752.634" stroke="#E3E3E3" stroke-width="2" stroke-miterlimit="10" stroke-linecap="round"/>
        <path d="M562.882 437.912V625.939C562.878 630.149 562.423 634.346 561.525 638.459L546.371 707.678" stroke="#E3E3E3" stroke-width="2" stroke-miterlimit="10" stroke-linecap="round"/>
        <path d="M513.615 619.232C517.273 611.237 521.821 601.659 525.056 594.916C526.329 592.256 527.049 589.368 527.171 586.425C527.293 583.482 526.815 580.545 525.767 577.79C517.057 554.905 494.426 490.059 492.512 429.336" stroke="#E3E3E3" stroke-width="2" stroke-miterlimit="10" stroke-linecap="round"/>
        <path d="M570.555 89.4198L571.157 83.8304V77.0606L564.057 64.1201C563.163 64.1209 562.278 63.9459 561.453 63.6052C560.628 63.2644 559.878 62.7648 559.248 62.1348C558.616 61.5074 558.115 60.7615 557.774 59.9403C557.433 59.1191 557.259 58.2387 557.262 57.3502V52.3869C557.261 50.8363 557.567 49.3007 558.162 47.868C558.758 46.4352 559.632 45.1334 560.734 44.037C561.836 42.9406 563.144 42.0711 564.584 41.4783C566.024 40.8855 567.567 40.5809 569.126 40.582H573.386" stroke="#E3E3E3" stroke-width="2" stroke-miterlimit="10" stroke-linecap="round"/>
        <path d="M585.681 40.7812C587.842 41.2223 589.784 42.3924 591.177 44.0936C592.571 45.7949 593.331 47.9229 593.33 50.1177V73.4948C587.985 78.5178 582.088 82.9247 575.75 86.632" stroke="#E3E3E3" stroke-width="2" stroke-miterlimit="10" stroke-linecap="round"/>
        <path d="M336.649 342.993L333.953 341.705" stroke="#E3E3E3" stroke-width="2" stroke-miterlimit="10" stroke-linecap="round"/>
        <path d="M362.396 355.413L349.75 349.314" stroke="#E3E3E3" stroke-width="2" stroke-miterlimit="10" stroke-linecap="round"/>
        <path d="M333.978 341.703C331.764 340.636 329.897 338.971 328.59 336.897C327.284 334.824 326.59 332.426 326.59 329.979V307.764C326.585 306.294 326.944 304.845 327.635 303.546C328.327 302.246 329.33 301.137 330.556 300.315C331.782 299.494 333.192 298.985 334.662 298.836C336.132 298.686 337.616 298.899 338.984 299.456L344.017 301.495C345.251 301.989 346.294 302.864 346.993 303.99C347.692 305.117 348.009 306.436 347.9 307.755C347.9 307.872 347.9 307.979 347.9 308.095C347.909 308.93 348.158 309.744 348.616 310.443C349.075 311.141 349.724 311.695 350.488 312.039L357.786 315.42C359.695 316.304 361.328 317.684 362.513 319.416C363.698 321.148 364.391 323.166 364.518 325.257L364.95 331.982C365.034 333.353 365.637 334.641 366.638 335.587C367.638 336.533 368.962 337.066 370.342 337.08L378.557 337.223C375.045 342.296 371.096 347.057 366.756 351.451" stroke="#E3E3E3" stroke-width="2" stroke-miterlimit="10" stroke-linecap="round"/>
        <path d="M589.416 197.57L565.068 247.92C563.624 250.898 562.874 254.163 562.875 257.471V293.144" stroke="#E3E3E3" stroke-width="2" stroke-miterlimit="10" stroke-linecap="round"/>
        <path d="M575.75 86.6744C582.088 82.9671 587.985 78.5601 593.33 73.5371V168.056" stroke="#E3E3E3" stroke-width="2" stroke-miterlimit="10" stroke-linecap="round"/>
        <path d="M567.379 118.871L570.552 89.457" stroke="#E3E3E3" stroke-width="2" stroke-miterlimit="10" stroke-linecap="round"/>
        <path d="M366.66 351.434C371 347.04 374.949 342.28 378.461 337.206L424.946 338.011C425.932 338.027 426.913 337.848 427.829 337.484C428.745 337.12 429.579 336.578 430.283 335.889C430.987 335.201 431.545 334.38 431.927 333.474C432.308 332.569 432.505 331.597 432.504 330.615V268.845C432.504 265.108 433.979 261.521 436.612 258.856L447.496 247.838C448.947 246.373 450.676 245.21 452.583 244.416C454.491 243.622 456.538 243.214 458.605 243.215H494.466C497.183 243.214 499.873 242.672 502.376 241.622C504.88 240.571 507.147 239.033 509.044 237.098" stroke="#E3E3E3" stroke-width="2" stroke-miterlimit="10" stroke-linecap="round"/>
        <path d="M420.896 383.638L362.395 355.414" stroke="#E3E3E3" stroke-width="2" stroke-miterlimit="10" stroke-linecap="round"/>
        <path d="M538.689 420.466H494.451C493.572 420.464 492.715 420.187 492.004 419.673C491.292 419.159 490.761 418.435 490.487 417.604C490.056 416.298 489.561 415.02 489.004 413.768L464.099 358.169C463.944 357.82 463.67 357.537 463.325 357.369C462.98 357.202 462.587 357.161 462.215 357.254C461.843 357.347 461.516 357.568 461.291 357.878C461.067 358.188 460.96 358.566 460.989 358.947L462.787 384.721C462.929 386.731 462.537 388.744 461.65 390.556C460.763 392.369 459.413 393.917 457.735 395.046C456.056 396.175 454.109 396.845 452.089 396.988C450.068 397.132 448.045 396.744 446.222 395.864L438.637 392.197" stroke="#E3E3E3" stroke-width="2" stroke-miterlimit="10" stroke-linecap="round"/>
        <path d="M562.877 333.412V416.823C562.875 417.79 562.487 418.715 561.8 419.398C561.113 420.08 560.181 420.463 559.21 420.463H553.539" stroke="#E3E3E3" stroke-width="2" stroke-miterlimit="10" stroke-linecap="round"/>
        <path d="M669.944 488.334L629.382 587.485C628.65 589.306 627.461 590.91 625.929 592.144C624.396 593.378 622.571 594.2 620.628 594.532H620.556C617.348 595.051 613.789 593.826 610.283 591.724C608.653 590.741 607.327 589.329 606.451 587.644C605.576 585.958 605.185 584.065 605.322 582.173L609.196 525.152C609.635 518.68 611.893 512.461 615.712 507.204L632.852 483.621C633.174 483.176 633.367 482.652 633.41 482.105C633.452 481.558 633.341 481.01 633.09 480.521C632.839 480.033 632.457 479.623 631.987 479.337C631.517 479.05 630.976 478.899 630.425 478.899H575.6C574.581 478.897 573.605 478.492 572.885 477.775C572.166 477.057 571.762 476.085 571.762 475.072V426.6C571.762 425.952 571.929 425.315 572.245 424.748C572.562 424.182 573.018 423.705 573.571 423.362C574.124 423.02 574.755 422.823 575.406 422.79C576.056 422.757 576.704 422.89 577.289 423.175L660.588 463.866C664.967 466.012 668.367 469.729 670.103 474.269C671.839 478.808 671.782 483.834 669.944 488.334Z" fill="#333333"/>
        <path d="M601.963 544.86L602.862 532.143C603.337 525.239 605.747 518.606 609.819 512.996L628.109 487.839C628.453 487.363 628.658 486.802 628.703 486.218C628.747 485.634 628.628 485.048 628.36 484.527C628.091 484.005 627.683 483.568 627.18 483.262C626.678 482.956 626.1 482.795 625.511 482.795H582.02" stroke="#E3E3E3" stroke-width="2" stroke-miterlimit="10" stroke-linecap="round"/>
        <path d="M569.926 423.908L657.655 466.754C662.332 469.044 665.963 473.012 667.816 477.86C669.669 482.707 669.606 488.073 667.641 492.877L624.158 599.111" stroke="#E3E3E3" stroke-width="2" stroke-miterlimit="10" stroke-linecap="round"/>
        <path d="M599.94 574.678L598.934 589.434" stroke="#E3E3E3" stroke-width="2" stroke-miterlimit="10" stroke-linecap="round"/>
        <path d="M540.213 882.513C536.618 891.59 528.439 885.017 520.332 873.293L512.261 860.567L506.572 848.529C501.674 837.672 498.483 827.549 498.995 822.979C500.236 812.471 509.035 791.679 513.448 781.743C515.099 778.015 515.885 773.965 515.748 769.893C515.623 766.414 515.47 761.657 515.308 756.041C515.265 755.468 515.408 754.898 515.715 754.412C516.022 753.927 516.477 753.552 517.014 753.343C517.551 753.134 518.141 753.101 518.698 753.25C519.255 753.4 519.749 753.722 520.108 754.172C526.282 761.326 531.998 766.692 534.632 765.887C534.883 765.806 535.153 765.717 535.432 765.601C535.892 765.406 536.398 765.342 536.892 765.417C537.387 765.491 537.851 765.701 538.232 766.023C538.614 766.345 538.898 766.767 539.052 767.24C539.207 767.713 539.226 768.22 539.108 768.704L535.171 786.706C535.171 786.706 548.841 860.915 540.213 882.513Z" fill="#CE7783"/>
        <path d="M500.586 843.916C495.391 832.379 491.958 821.621 492.497 816.765C493.818 805.595 503.165 783.515 507.857 772.944C509.618 768.988 510.453 764.686 510.302 760.361C510.113 754.996 509.861 746.875 509.592 737.217C517.977 747.662 526.821 757.196 530.372 756.104C532.585 755.241 534.663 754.07 536.546 752.626L530.947 778.221C530.947 778.221 545.435 857.08 536.267 880.028C532.412 889.677 523.747 882.711 515.137 870.191" stroke="#E3E3E3" stroke-width="2" stroke-miterlimit="10" stroke-linecap="round"/>
        <path d="M613.203 637.656C614.372 652.09 617.751 702.689 607.982 710.738C602.265 715.451 597.286 707.563 593.493 696.608L591.093 685.188L587.696 673.794C586.986 670.02 586.456 666.64 586.123 663.957C584.506 651.383 594.859 625.565 598.553 616.89C599.4 614.901 599.905 612.785 600.045 610.63L600.809 599.433C600.832 599.112 600.945 598.804 601.137 598.544C601.329 598.285 601.59 598.085 601.892 597.968C602.193 597.851 602.522 597.821 602.839 597.883C603.157 597.944 603.45 598.094 603.685 598.315C609.617 603.905 616.268 608.761 620.367 607.106L620.654 606.99C620.966 606.855 621.311 606.815 621.645 606.875C621.98 606.936 622.288 607.095 622.531 607.331C622.775 607.567 622.942 607.87 623.011 608.202C623.08 608.533 623.048 608.877 622.919 609.19L614.363 630.108C613.382 632.497 612.985 635.084 613.203 637.656Z" fill="#CE7783"/>
        <path d="M584.686 672.625C583.931 668.6 583.365 664.987 583.006 662.17C581.28 648.756 592.326 621.22 596.263 611.964C597.163 609.847 597.7 607.595 597.854 605.302L598.941 589.428C605.844 596.403 614.553 603.576 619.541 601.546C621.144 600.876 622.686 600.071 624.152 599.14L613.133 626.076C612.1 628.609 611.675 631.347 611.892 634.071C613.151 649.462 616.746 703.451 606.32 712.037C600.226 717.063 594.915 708.656 590.87 696.959" stroke="#E3E3E3" stroke-width="2" stroke-miterlimit="10" stroke-linecap="round"/>
        <path d="M518.781 185.235C523.589 182.663 528.941 181.259 534.399 181.137C539.857 181.016 545.266 182.181 550.184 184.538" stroke="#E3E3E3" stroke-width="1.5" stroke-miterlimit="10" stroke-linecap="round"/>
    </g>
    <defs>
        <clipPath id="clip0_6774_10226">
            <rect width="671.376" height="886.772" fill="white"/>
        </clipPath>
    </defs>
</svg>
