<svg width="200" height="195" viewBox="0 0 200 195" fill="none" xmlns="http://www.w3.org/2000/svg">
    <g clip-path="url(#clip0_4864_28173)">
        <path d="M152.692 85.095C168.099 85.095 180.589 72.6243 180.589 57.2409C180.589 41.8574 168.099 29.3867 152.692 29.3867C137.285 29.3867 124.795 41.8574 124.795 57.2409C124.795 72.6243 137.285 85.095 152.692 85.095Z" fill="#71A5D2"/>
        <path d="M30.5746 194.897C30.4784 194.911 30.3804 194.905 30.2876 194.88C30.1988 194.857 30.1155 194.819 30.0431 194.766C29.9706 194.713 29.9103 194.648 29.8653 194.572C29.8203 194.497 29.7916 194.414 29.7809 194.328C29.7702 194.242 29.7776 194.154 29.8028 194.07C30.7439 190.877 35.2154 186.15 43.0236 180.017C43.093 179.947 43.1773 179.892 43.2705 179.856C43.3638 179.819 43.4639 179.802 43.5642 179.804C43.6645 179.807 43.7628 179.83 43.8522 179.872C43.9415 179.914 44.0199 179.973 44.0822 180.046C44.1446 180.119 44.1892 180.205 44.2133 180.296C44.2374 180.387 44.2406 180.483 44.2221 180.576C44.2037 180.669 44.1642 180.758 44.1065 180.836C44.0488 180.915 43.974 180.981 43.8874 181.03C36.4163 186.899 32.0008 191.525 31.1346 194.413C31.0989 194.534 31.0271 194.645 30.928 194.73C30.8288 194.816 30.7063 194.874 30.5746 194.897Z" fill="#E3E3E3"/>
        <path d="M55.7102 171.396C55.5855 171.414 55.4578 171.399 55.3415 171.35C55.2251 171.302 55.1245 171.223 55.0505 171.121C54.9974 171.048 54.9593 170.966 54.9383 170.878C54.9173 170.791 54.9139 170.7 54.9283 170.612C54.9427 170.523 54.9747 170.438 55.0222 170.361C55.0697 170.285 55.132 170.218 55.2054 170.166C60.5769 166.349 65.5887 163.096 67.9731 161.677C71.7996 159.409 73.8381 155.971 75.9759 152.269C77.2735 149.905 78.7732 147.656 80.4582 145.547C84.7291 140.465 89.4301 131.321 88.5788 128.576C88.5565 128.446 88.4969 128.326 88.4071 128.229C88.3173 128.132 88.2013 128.063 88.0729 128.03C85.8952 127.409 84.7446 128.582 81.4434 132.353C80.3413 133.615 79.0717 135.053 77.5021 136.716C72.5114 141.954 62.6238 146.921 58.6025 148.818C58.373 148.929 58.1125 148.959 57.8635 148.905C57.6144 148.85 57.3915 148.714 57.2301 148.517C57.0688 148.321 56.9787 148.076 56.9746 147.823C56.9705 147.57 57.0524 147.322 57.2073 147.121C60.9444 142.139 65.2425 133.041 67.3078 128.674C67.7809 127.665 68.146 126.906 68.3686 126.493C69.6833 123.923 82.2915 110.087 85.1591 108.417C86.5004 107.637 89.2814 106.912 92.4966 106.074C96.641 104.994 101.333 103.77 104.402 102.097C105.612 101.473 106.675 100.603 107.524 99.5426C108.372 98.4824 108.986 97.2563 109.324 95.9444C109.445 95.4915 109.457 95.0168 109.359 94.5586C106.793 95.0032 87.5368 99.5298 78.7133 104.089C71.4187 107.869 67.6739 110.263 59.8883 117.009C59.8222 117.077 59.7423 117.131 59.654 117.167C59.5658 117.204 59.4709 117.221 59.3755 117.219C59.2801 117.216 59.1862 117.194 59.0998 117.154C59.0134 117.114 58.9367 117.056 58.8741 116.984C58.8115 116.913 58.7645 116.829 58.7363 116.738C58.708 116.648 58.699 116.552 58.71 116.458C58.7209 116.364 58.7514 116.273 58.7997 116.191C58.848 116.109 58.9131 116.038 58.9905 115.983C66.8117 109.198 70.7808 106.632 78.0795 102.879C87.7452 97.8695 108.142 93.3524 109.27 93.1843C109.575 93.1414 109.884 93.2136 110.138 93.3866C110.392 93.5597 110.571 93.8211 110.64 94.1191C111.253 95.9263 109.875 100.66 105.075 103.288C101.865 105.037 97.0917 106.279 92.8745 107.384C89.8794 108.162 87.059 108.9 85.8841 109.586C83.2139 111.137 70.8497 124.702 69.6136 127.102C69.4103 127.505 69.0918 128.25 68.5885 129.243C66.6095 133.445 62.5784 141.964 58.8953 147.166C63.2553 145.073 72.0295 140.507 76.5465 135.768C78.1232 134.152 79.3559 132.698 80.4454 131.445C83.7225 127.698 85.3634 125.818 88.4912 126.705C88.8388 126.801 89.1551 126.986 89.4082 127.241C89.6612 127.496 89.8423 127.813 89.9334 128.16C91.0579 131.797 85.6362 141.551 81.5669 146.404C79.935 148.456 78.4819 150.642 77.2234 152.94C75.0204 156.761 72.8781 160.387 68.7323 162.841C66.372 164.235 61.3986 167.469 56.058 171.261C55.9585 171.34 55.8373 171.387 55.7102 171.396Z" fill="#E3E3E3"/>
        <path d="M8.10551 185.077C7.97648 185.095 7.84495 185.076 7.72637 185.021C7.60779 184.967 7.50714 184.88 7.43614 184.771C7.36514 184.661 7.32659 184.534 7.32541 184.404C7.32422 184.273 7.36039 184.145 7.42938 184.035C7.65694 183.661 30.9031 146.862 45.2964 129.231C45.4114 129.091 45.5773 129.002 45.7575 128.985C45.9378 128.967 46.1178 129.021 46.2582 129.136C46.3286 129.193 46.387 129.263 46.4301 129.343C46.4731 129.423 46.5 129.51 46.509 129.601C46.5181 129.691 46.5091 129.782 46.4828 129.868C46.4565 129.955 46.4135 130.036 46.3559 130.105C32.0143 147.666 8.84657 184.392 8.58414 184.763C8.53179 184.847 8.4621 184.919 8.37944 184.973C8.29679 185.027 8.20329 185.062 8.10551 185.077Z" fill="#E3E3E3"/>
        <path d="M69.9903 126.469C69.8096 126.514 69.6185 126.488 69.4588 126.395C69.2991 126.303 69.1838 126.153 69.1386 125.977C69.0934 125.801 69.1218 125.615 69.2176 125.459C69.3133 125.303 69.4689 125.19 69.6496 125.144C77.5902 122.304 85.2683 115.094 85.3422 115.021L85.5845 114.799L85.9075 114.834C86.0458 114.813 100.276 116.371 108.544 115.38C115.037 114.611 118.362 111.393 118.337 110.427C118.309 110.245 117.779 110.2 117.722 110.195C115.013 110.042 97.1488 109.692 89.6308 109.568C89.4427 109.564 89.2645 109.488 89.1352 109.355C89.006 109.223 88.9361 109.046 88.9413 108.863C88.9465 108.68 89.0264 108.505 89.1631 108.379C89.2997 108.252 89.4821 108.183 89.6701 108.187C99.049 108.371 115.192 108.695 117.816 108.847C119.562 108.944 119.73 110.054 119.738 110.39C119.793 112.445 115.52 115.894 108.679 116.742C100.848 117.682 88.2801 116.461 86.0471 116.229C84.6439 117.518 77.6163 123.744 70.098 126.432C70.0637 126.449 70.0274 126.461 69.9903 126.469Z" fill="#E3E3E3"/>
        <path d="M69.8981 130.878L69.4803 130.94C69.2986 130.967 69.1133 130.919 68.9649 130.806C68.8166 130.694 68.7175 130.526 68.6894 130.34C68.6614 130.154 68.7067 129.964 68.8153 129.813C68.9239 129.662 69.087 129.563 69.2687 129.535C74.8913 128.827 81.2271 125.599 85.4203 123.538C87.9665 122.261 89.1138 121.695 89.761 121.714C94.6353 121.726 99.5029 121.43 104.336 120.827C111.629 119.998 112.471 115.177 112.484 115.125C112.52 114.945 112.622 114.787 112.77 114.684C112.917 114.581 113.099 114.541 113.276 114.572C113.453 114.603 113.611 114.704 113.719 114.852C113.826 115 113.874 115.184 113.851 115.366C113.811 115.609 112.842 121.311 104.507 122.237C99.611 122.848 94.6805 123.146 89.7433 123.131C88.4687 123.597 87.2309 124.161 86.0401 124.817C81.896 126.878 75.6455 130.021 69.8981 130.878Z" fill="#E3E3E3"/>
        <path d="M106.422 136.391C103.239 136.865 97.5058 136.501 91.873 135.017C91.7847 134.993 91.7028 134.953 91.6314 134.9C91.56 134.846 91.5005 134.779 91.4568 134.704C91.4131 134.628 91.3862 134.544 91.3769 134.458C91.3676 134.372 91.3764 134.285 91.4029 134.201C91.4294 134.118 91.4731 134.04 91.5313 133.972C91.5896 133.903 91.6614 133.847 91.7426 133.804C91.8237 133.762 91.9127 133.735 92.0044 133.725C92.0961 133.714 92.1888 133.721 92.2771 133.745C100.133 135.823 106.392 135.343 107.592 134.791C106.581 133.45 98.7397 128.034 91.4012 123.369C91.3188 123.324 91.2476 123.263 91.1918 123.19C91.136 123.117 91.0969 123.034 91.0768 122.946C91.0568 122.858 91.0562 122.767 91.0752 122.678C91.0942 122.589 91.1327 122.505 91.1877 122.43C91.2426 122.355 91.313 122.291 91.3948 122.242C91.4766 122.194 91.5678 122.161 91.6629 122.147C91.7579 122.133 91.8547 122.137 91.9472 122.159C92.0398 122.182 92.1263 122.222 92.2011 122.278C98.394 126.208 108.82 133.064 109.071 134.731C109.097 134.907 109.072 135.088 109 135.254C108.928 135.42 108.811 135.566 108.661 135.677C107.99 136.093 107.218 136.339 106.422 136.391Z" fill="#E3E3E3"/>
        <path d="M68.9539 141.989C68.8022 142.012 68.647 141.984 68.5117 141.909C68.4296 141.864 68.3571 141.802 68.298 141.729C68.2389 141.655 68.1947 141.57 68.1676 141.479C68.1406 141.388 68.1312 141.293 68.1404 141.198C68.1495 141.104 68.177 141.012 68.2209 140.929C70.3284 136.927 72.1528 132.776 73.6804 128.506C73.7425 128.325 73.8726 128.177 74.0423 128.095C74.212 128.013 74.4075 128.003 74.5854 128.067C74.7634 128.132 74.9092 128.266 74.9911 128.439C75.073 128.613 75.0844 128.812 75.0223 128.993C73.4691 133.333 71.614 137.553 69.4714 141.62C69.4195 141.718 69.3458 141.803 69.256 141.867C69.1661 141.931 69.0627 141.973 68.9539 141.989Z" fill="#E3E3E3"/>
        <path d="M144.329 90.3212C139.675 90.3181 135.083 89.2629 130.896 87.2346C126.709 85.2064 123.036 82.2579 120.153 78.6102C117.271 74.9625 115.252 70.7104 114.25 66.1728C113.248 61.6352 113.288 56.9299 114.367 52.41C114.403 52.256 114.498 52.1224 114.632 52.0386C114.766 51.9547 114.928 51.9275 115.083 51.9629C115.237 51.9983 115.371 52.0935 115.455 52.2274C115.539 52.3614 115.566 52.5232 115.53 52.6772C114.091 58.662 114.555 64.9461 116.858 70.6555C119.161 76.365 123.188 81.2161 128.38 84.5343C133.572 87.8526 139.671 89.4731 145.828 89.1705C151.985 88.868 157.895 86.6573 162.735 82.846C167.576 79.0347 171.107 73.8122 172.837 67.9046C174.567 61.9969 174.41 55.6977 172.389 49.8829C170.368 44.0681 166.582 39.0266 161.559 35.4595C156.535 31.8923 150.523 29.9768 144.358 29.9792C136.848 29.9693 129.615 32.8158 124.132 37.9401C124.017 38.0327 123.872 38.0785 123.725 38.0683C123.578 38.058 123.44 37.9924 123.34 37.8848C123.24 37.7771 123.184 37.6354 123.184 37.4883C123.184 37.3412 123.24 37.1997 123.341 37.0922C127.01 33.6584 131.465 31.1732 136.318 29.8534C141.17 28.5337 146.272 28.4195 151.179 29.5208C156.085 30.6221 160.647 32.9054 164.467 36.1716C168.287 39.4379 171.248 43.5878 173.093 48.2592C174.937 52.9307 175.609 57.9818 175.049 62.9719C174.49 67.9621 172.715 72.7397 169.882 76.888C167.048 81.0362 163.24 84.4291 158.791 86.7706C154.342 89.1121 149.387 90.3311 144.358 90.3212H144.329Z" fill="#E3E3E3"/>
        <path d="M90.2687 48.3288C94.7621 48.3288 98.4047 44.6919 98.4047 40.2054C98.4047 35.719 94.7621 32.082 90.2687 32.082C85.7754 32.082 82.1328 35.719 82.1328 40.2054C82.1328 44.6919 85.7754 48.3288 90.2687 48.3288Z" fill="#CE7783"/>
        <path d="M178.497 24.2309C180.742 24.2309 182.562 22.4137 182.562 20.1721C182.562 17.9305 180.742 16.1133 178.497 16.1133C176.252 16.1133 174.432 17.9305 174.432 20.1721C174.432 22.4137 176.252 24.2309 178.497 24.2309Z" fill="#EAB669"/>
        <path d="M83.3824 51.9114C83.2805 51.9121 83.1802 51.886 83.0916 51.8359C81.2617 50.7929 79.822 49.1831 78.9903 47.2502C78.1587 45.3172 77.9803 43.1663 78.4823 41.1231C78.9844 39.0799 80.1396 37.2556 81.7729 35.9265C83.4061 34.5973 85.4286 33.8357 87.5342 33.7568C89.6397 33.6779 91.7136 34.2861 93.442 35.4893C95.1704 36.6925 96.4593 38.4252 97.1133 40.4251C97.7673 42.425 97.751 44.5832 97.0667 46.573C96.3825 48.5627 95.0675 50.2758 93.321 51.4527C93.2584 51.5025 93.186 51.5388 93.1086 51.5595C93.0312 51.5801 92.9504 51.5845 92.8712 51.5725C92.792 51.5605 92.7163 51.5322 92.6486 51.4896C92.5809 51.4469 92.5226 51.3907 92.4776 51.3246C92.4327 51.2584 92.4018 51.1836 92.3871 51.105C92.3724 51.0264 92.3741 50.9456 92.3922 50.8677C92.4102 50.7897 92.4441 50.7164 92.4918 50.6522C92.5396 50.588 92.6001 50.5344 92.6696 50.4946C94.2073 49.4599 95.3656 47.9532 95.969 46.2026C96.5723 44.452 96.5881 42.5528 96.0138 40.7924C95.4395 39.032 94.3063 37.5064 92.786 36.4465C91.2657 35.3866 89.4408 34.8501 87.5878 34.9182C85.7348 34.9863 83.9547 35.6554 82.5166 36.824C81.0784 37.9927 80.0607 39.5974 79.6176 41.3952C79.1745 43.1929 79.3302 45.0859 80.0609 46.7875C80.7916 48.489 82.0575 49.9066 83.6672 50.8256C83.7788 50.8887 83.8663 50.9869 83.9162 51.1049C83.9661 51.2229 83.9757 51.3541 83.9432 51.4779C83.9107 51.6018 83.8379 51.7115 83.7365 51.7899C83.635 51.8683 83.5106 51.911 83.3824 51.9114Z" fill="#E3E3E3"/>
        <path d="M177.473 27.674C177.339 27.6738 177.209 27.6274 177.105 27.5426C177.001 27.4579 176.93 27.3401 176.904 27.209C176.877 27.0779 176.897 26.9416 176.959 26.8232C177.021 26.7049 177.122 26.6116 177.246 26.5591C178.191 26.1605 178.973 25.4536 179.464 24.5538C179.955 23.6541 180.126 22.6147 179.949 21.6055C179.772 20.5962 179.257 19.6767 178.489 18.9971C177.721 18.3176 176.745 17.9182 175.72 17.8641C174.695 17.81 173.683 18.1044 172.847 18.6994C172.012 19.2943 171.403 20.1545 171.12 21.1395C170.837 22.1245 170.898 23.176 171.291 24.1225C171.684 25.0689 172.387 25.8542 173.285 26.3501C173.352 26.3882 173.411 26.4391 173.458 26.4999C173.505 26.5606 173.54 26.6301 173.56 26.7042C173.58 26.7784 173.586 26.8557 173.576 26.932C173.566 27.0082 173.541 27.0818 173.503 27.1485C173.465 27.2152 173.414 27.2739 173.353 27.3209C173.293 27.368 173.223 27.4025 173.149 27.4228C173.074 27.443 172.997 27.4484 172.921 27.4387C172.844 27.429 172.77 27.4044 172.704 27.3663C171.577 26.7439 170.694 25.7585 170.201 24.5707C169.707 23.383 169.631 22.0631 169.986 20.8268C170.34 19.5906 171.104 18.5108 172.152 17.7639C173.201 17.0171 174.472 16.6473 175.758 16.7149C177.044 16.7825 178.269 17.2834 179.234 18.1361C180.198 18.9887 180.844 20.1426 181.067 21.4092C181.289 22.6758 181.075 23.9804 180.459 25.1098C179.843 26.2393 178.862 27.1268 177.676 27.6276C177.611 27.6542 177.542 27.6699 177.473 27.674Z" fill="#E3E3E3"/>
        <path d="M97.0082 10.5266C96.1053 10.5302 95.2202 10.2777 94.4554 9.79867C93.6905 9.31961 93.0777 8.63362 92.688 7.82045C92.2983 7.00728 92.1476 6.10036 92.2538 5.20515C92.36 4.30994 92.7188 3.46326 93.288 2.7635C93.8572 2.06375 94.6136 1.5397 95.4694 1.25232C96.3251 0.964937 97.2448 0.926046 98.1219 1.14011C98.9989 1.35418 99.7972 1.81239 100.424 2.46155C101.05 3.11071 101.479 3.92412 101.661 4.80715C101.676 4.8834 101.676 4.96194 101.661 5.03822C101.646 5.11451 101.616 5.18708 101.573 5.25179C101.529 5.31649 101.474 5.37204 101.409 5.41531C101.345 5.45858 101.272 5.48873 101.195 5.50398C101.119 5.51923 101.04 5.51929 100.964 5.50419C100.888 5.4891 100.815 5.45915 100.75 5.41602C100.685 5.37288 100.63 5.31739 100.586 5.25278C100.543 5.18817 100.513 5.11568 100.497 5.03943C100.334 4.24814 99.909 3.53472 99.2904 3.01393C98.6717 2.49314 97.8958 2.19523 97.0871 2.16817C96.2784 2.14112 95.484 2.38652 94.8319 2.86479C94.1797 3.34307 93.7076 4.02643 93.4916 4.80502C93.2755 5.58362 93.328 6.41218 93.6407 7.15735C93.9533 7.90253 94.5079 8.52102 95.2152 8.91336C95.9226 9.30571 96.7415 9.4491 97.5403 9.32043C98.3392 9.19177 99.0716 8.7985 99.6195 8.20399C99.7238 8.09108 99.8685 8.02403 100.022 8.0175C100.176 8.01097 100.326 8.06553 100.44 8.16918C100.496 8.22083 100.542 8.28318 100.575 8.35269C100.608 8.42221 100.626 8.49752 100.629 8.5742C100.632 8.65087 100.62 8.72738 100.594 8.79939C100.567 8.8714 100.527 8.93743 100.474 8.99367C100.032 9.47193 99.4963 9.8547 98.9002 10.1183C98.3041 10.382 97.6601 10.5209 97.0082 10.5266Z" fill="#E3E3E3"/>
        <path d="M195.029 83.1097C194.298 83.1117 193.581 82.9106 192.958 82.529C192.828 82.4486 192.734 82.3198 192.698 82.1708C192.662 82.0218 192.687 81.8646 192.766 81.7335C192.806 81.6681 192.859 81.6113 192.921 81.5662C192.983 81.5212 193.053 81.4888 193.128 81.471C193.203 81.4532 193.28 81.4503 193.356 81.4625C193.431 81.4746 193.504 81.5016 193.569 81.5419C194.097 81.8644 194.717 82.0029 195.332 81.9358C195.948 81.8687 196.523 81.5998 196.969 81.1712C197.415 80.7426 197.706 80.1785 197.796 79.5672C197.886 78.9559 197.771 78.3319 197.468 77.7929C197.165 77.254 196.692 76.8306 196.123 76.5889C195.553 76.3472 194.919 76.301 194.321 76.4574C193.722 76.6138 193.192 76.9641 192.814 77.4534C192.436 77.9426 192.231 78.5433 192.231 79.1612C192.231 79.4368 192.272 79.7109 192.354 79.9742C192.399 80.122 192.384 80.2818 192.311 80.4185C192.239 80.5551 192.115 80.6575 191.967 80.7029C191.819 80.7483 191.659 80.7331 191.522 80.6607C191.385 80.5883 191.283 80.4646 191.237 80.3167C191.125 79.9398 191.068 79.5486 191.068 79.1554C191.067 78.3731 191.299 77.608 191.733 76.957C192.168 76.3059 192.785 75.7982 193.509 75.498C194.233 75.1978 195.029 75.1187 195.798 75.2706C196.566 75.4225 197.273 75.7987 197.827 76.3514C198.382 76.9042 198.759 77.6088 198.913 78.376C199.066 79.1432 198.988 79.9386 198.688 80.6615C198.389 81.3844 197.881 82.0023 197.229 82.4371C196.578 82.8718 195.812 83.1039 195.029 83.1039V83.1097Z" fill="#E3E3E3"/>
        <path d="M151.256 107.09C150.317 107.09 149.416 106.717 148.752 106.054C148.088 105.391 147.715 104.492 147.715 103.554C147.715 102.616 148.088 101.717 148.752 101.053C149.416 100.39 150.317 100.018 151.256 100.018C151.583 100.018 151.908 100.063 152.222 100.151C152.37 100.193 152.495 100.292 152.57 100.426C152.645 100.559 152.664 100.718 152.623 100.865C152.602 100.939 152.567 101.008 152.519 101.068C152.472 101.128 152.413 101.178 152.346 101.216C152.279 101.253 152.205 101.276 152.129 101.285C152.053 101.294 151.976 101.287 151.902 101.266C151.422 101.134 150.913 101.155 150.446 101.327C149.979 101.498 149.577 101.812 149.298 102.224C149.019 102.636 148.877 103.125 148.89 103.621C148.904 104.118 149.074 104.598 149.376 104.994C149.677 105.389 150.095 105.68 150.571 105.826C151.048 105.971 151.557 105.964 152.029 105.805C152.501 105.646 152.91 105.343 153.201 104.939C153.491 104.536 153.647 104.051 153.646 103.554C153.641 103.147 153.533 102.747 153.332 102.393C153.256 102.26 153.235 102.103 153.275 101.955C153.314 101.807 153.41 101.68 153.542 101.603C153.608 101.564 153.681 101.539 153.757 101.529C153.832 101.518 153.91 101.523 153.984 101.542C154.058 101.562 154.127 101.595 154.188 101.642C154.249 101.688 154.3 101.746 154.339 101.812C154.648 102.35 154.811 102.959 154.81 103.579C154.81 104.2 154.647 104.809 154.336 105.346C154.026 105.884 153.58 106.33 153.042 106.641C152.505 106.952 151.895 107.117 151.274 107.119L151.256 107.09Z" fill="#E3E3E3"/>
        <path d="M68.0583 84.3986C67.4568 84.3978 66.8655 84.244 66.34 83.9519C65.8145 83.6597 65.3722 83.2388 65.0548 82.7287C64.7374 82.2186 64.5554 81.6362 64.5258 81.0364C64.4962 80.4366 64.6199 79.8391 64.8856 79.3004C65.1512 78.7616 65.55 78.2993 66.0441 77.957C66.5383 77.6146 67.1117 77.4036 67.7101 77.3438C68.3086 77.2839 68.9124 77.3773 69.4647 77.615C70.0171 77.8526 70.4998 78.2269 70.8672 78.7023C70.9613 78.8248 71.0027 78.9795 70.9825 79.1325C70.9623 79.2855 70.8822 79.4242 70.7596 79.5182C70.637 79.6121 70.482 79.6536 70.3288 79.6334C70.1756 79.6133 70.0367 79.5332 69.9426 79.4107C69.6957 79.0915 69.3712 78.8404 69.0002 78.6809C68.6291 78.5215 68.2236 78.4591 67.8217 78.4995C67.4198 78.5399 67.035 78.6818 66.7032 78.9119C66.3714 79.142 66.1036 79.4526 65.9254 79.8145C65.7472 80.1765 65.6642 80.5778 65.6843 80.9806C65.7045 81.3834 65.827 81.7745 66.0404 82.117C66.2538 82.4594 66.5509 82.742 66.904 82.938C67.257 83.134 67.6543 83.237 68.0583 83.2373C68.5473 83.2361 69.024 83.0851 69.4244 82.8047C69.8248 82.5244 70.1295 82.1281 70.2973 81.6695C70.3528 81.5289 70.4609 81.4154 70.5989 81.3532C70.7368 81.2909 70.8938 81.2849 71.0362 81.3364C71.1785 81.3878 71.2951 81.4926 71.3613 81.6285C71.4275 81.7645 71.438 81.9208 71.3905 82.0644C71.1415 82.7474 70.6883 83.3376 70.0923 83.7551C69.4963 84.1726 68.7863 84.3973 68.0583 84.3986Z" fill="#E3E3E3"/>
    </g>
    <defs>
        <clipPath id="clip0_4864_28173">
            <rect width="200" height="195" fill="white"/>
        </clipPath>
    </defs>
</svg>
