<svg width="881" height="146" viewBox="0 0 881 146" fill="none" xmlns="http://www.w3.org/2000/svg">
    <path d="M60.6324 12.1833C76.6409 12.1833 89.1142 16.0447 98.0523 23.7674C107.124 31.357 111.66 42.1423 111.66 56.1231C111.66 70.104 107.124 80.9558 98.0523 88.6785C89.1142 96.2681 76.6409 100.063 60.6324 100.063H34.4184V144.003H0V12.1833H60.6324ZM55.2295 74.2982C69.7706 74.2982 77.0411 68.2399 77.0411 56.1231C77.0411 44.0064 69.7706 37.948 55.2295 37.948H34.4184V74.2982H55.2295Z" fill="#202020"/>
    <path d="M130.263 144.003V44.1395H160.279L161.68 65.71C164.081 58.3867 167.75 52.6612 172.686 48.5335C177.755 44.2727 184.225 42.1423 192.096 42.1423C194.631 42.1423 196.765 42.4086 198.5 42.9412C200.367 43.3406 201.835 43.8067 202.902 44.3393L199.5 72.301C198.166 71.9015 196.432 71.5021 194.297 71.1026C192.296 70.7031 189.828 70.5034 186.894 70.5034C180.757 70.5034 175.421 72.4341 170.885 76.2955C166.483 80.1569 164.281 85.9489 164.281 93.6717V144.003H130.263Z" fill="#202020"/>
    <path d="M232.255 32.5554C225.318 32.5554 220.249 31.2905 217.047 28.7606C213.979 26.0976 212.445 21.9699 212.445 16.3776C212.445 10.6521 213.979 6.52439 217.047 3.99452C220.249 1.33151 225.318 0 232.255 0C239.059 0 244.062 1.33151 247.263 3.99452C250.465 6.52439 252.066 10.6521 252.066 16.3776C252.066 21.9699 250.465 26.0976 247.263 28.7606C244.062 31.2905 239.059 32.5554 232.255 32.5554ZM249.264 44.1395V144.003H215.246V44.1395H249.264Z" fill="#202020"/>
    <path d="M320.105 42.1423C330.644 42.1423 339.849 44.2061 347.72 48.3338C355.724 52.4615 361.928 58.3867 366.33 66.1094C370.866 73.8322 373.134 83.1528 373.134 94.0711C373.134 104.99 370.866 114.31 366.33 122.033C361.928 129.756 355.724 135.681 347.72 139.808C339.849 143.936 330.644 146 320.105 146C309.7 146 300.495 143.936 292.491 139.808C284.62 135.681 278.416 129.756 273.881 122.033C269.478 114.31 267.277 104.99 267.277 94.0711C267.277 83.1528 269.478 73.8322 273.881 66.1094C278.416 58.3867 284.62 52.4615 292.491 48.3338C300.495 44.2061 309.7 42.1423 320.105 42.1423ZM320.105 66.3092C314.235 66.3092 309.633 68.5062 306.298 72.9001C303.096 77.161 301.495 84.218 301.495 94.0711C301.495 103.791 303.096 110.848 306.298 115.242C309.633 119.636 314.235 121.833 320.105 121.833C326.108 121.833 330.711 119.636 333.913 115.242C337.248 110.848 338.915 103.791 338.915 94.0711C338.915 84.218 337.248 77.161 333.913 72.9001C330.711 68.5062 326.108 66.3092 320.105 66.3092Z" fill="#202020"/>
    <path d="M391.27 144.003V44.1395H421.286L422.687 65.71C425.088 58.3867 428.756 52.6612 433.692 48.5335C438.762 44.2727 445.232 42.1423 453.103 42.1423C455.637 42.1423 457.772 42.4086 459.506 42.9412C461.374 43.3406 462.841 43.8067 463.909 44.3393L460.507 72.301C459.173 71.9015 457.438 71.5021 455.304 71.1026C453.303 70.7031 450.835 70.5034 447.9 70.5034C441.763 70.5034 436.427 72.4341 431.891 76.2955C427.489 80.1569 425.288 85.9489 425.288 93.6717V144.003H391.27Z" fill="#202020"/>
    <path d="M493.262 32.5554C486.325 32.5554 481.255 31.2905 478.054 28.7606C474.985 26.0976 473.451 21.9699 473.451 16.3776C473.451 10.6521 474.985 6.52439 478.054 3.99452C481.255 1.33151 486.325 0 493.262 0C500.065 0 505.068 1.33151 508.27 3.99452C511.471 6.52439 513.072 10.6521 513.072 16.3776C513.072 21.9699 511.471 26.0976 508.27 28.7606C505.068 31.2905 500.065 32.5554 493.262 32.5554ZM510.271 44.1395V144.003H476.253V44.1395H510.271Z" fill="#202020"/>
    <path d="M605.125 44.1395V68.3064H575.309V108.451C575.309 113.245 576.443 116.707 578.711 118.837C581.112 120.834 584.38 121.833 588.516 121.833C591.717 121.833 594.452 121.5 596.72 120.834C598.988 120.036 601.122 118.904 603.124 117.439L606.725 138.41C603.39 140.674 599.121 142.538 593.919 144.003C588.849 145.334 583.713 146 578.51 146C567.038 146 557.966 143.603 551.296 138.81C544.759 133.883 541.424 125.628 541.291 114.044V68.3064H524.081V44.1395H541.291V21.7702L575.309 12.383V44.1395H605.125Z" fill="#202020"/>
    <path d="M636.846 32.5554C629.909 32.5554 624.84 31.2905 621.638 28.7606C618.57 26.0976 617.036 21.9699 617.036 16.3776C617.036 10.6521 618.57 6.52439 621.638 3.99452C624.84 1.33151 629.909 0 636.846 0C643.65 0 648.653 1.33151 651.854 3.99452C655.056 6.52439 656.657 10.6521 656.657 16.3776C656.657 21.9699 655.056 26.0976 651.854 28.7606C648.653 31.2905 643.65 32.5554 636.846 32.5554ZM653.855 44.1395V144.003H619.837V44.1395H653.855Z" fill="#202020"/>
    <path d="M725.897 146C709.221 146 696.014 141.473 686.276 132.419C676.671 123.364 671.868 110.582 671.868 94.0711C671.868 83.1528 674.069 73.8322 678.471 66.1094C683.007 58.2535 689.144 52.3283 696.881 48.3338C704.752 44.2061 713.891 42.1423 724.296 42.1423C734.835 42.1423 743.773 44.2061 751.11 48.3338C758.581 52.3283 764.251 57.9207 768.119 65.1108C771.988 72.1678 773.922 80.29 773.922 89.4774C773.922 92.0073 773.789 94.4706 773.522 96.8673C773.389 99.1309 773.255 101.062 773.122 102.659H704.886C705.819 109.583 708.087 114.576 711.689 117.639C715.291 120.568 720.027 122.033 725.897 122.033C730.966 122.033 734.968 121.034 737.903 119.037C740.972 117.04 743.239 114.243 744.707 110.648L771.921 119.636C770.054 125.362 766.785 130.222 762.116 134.216C757.58 138.078 752.111 141.007 745.707 143.004C739.437 145.001 732.834 146 725.897 146ZM724.296 65.9097C713.49 65.9097 707.087 72.1012 705.086 84.4843H741.705C740.238 72.1012 734.435 65.9097 724.296 65.9097Z" fill="#202020"/>
    <path d="M833.975 146C823.97 146 814.698 144.402 806.16 141.207C797.622 137.878 790.485 133.151 784.749 127.026L800.757 108.252C804.092 112.513 808.495 116.108 813.964 119.037C819.567 121.833 825.77 123.231 832.574 123.231C836.71 123.231 840.111 122.632 842.78 121.434C845.448 120.235 846.782 118.371 846.782 115.841C846.782 114.11 846.115 112.646 844.781 111.447C843.447 110.249 840.779 109.25 836.776 108.451L822.769 105.655C810.229 103.125 801.291 99.3972 795.955 94.4706C790.752 89.4109 788.15 82.8199 788.15 74.6977C788.15 69.2385 789.818 64.0456 793.153 59.119C796.488 54.1924 801.624 50.1313 808.561 46.9357C815.498 43.7401 824.37 42.1423 835.176 42.1423C855.853 42.1423 870.928 47.8678 880.4 59.3187L864.191 77.6936C860.989 73.699 856.854 70.57 851.784 68.3064C846.715 66.0429 841.646 64.9111 836.576 64.9111C826.838 64.9111 821.968 67.3744 821.968 72.301C821.968 74.0319 822.769 75.5632 824.37 76.8947C826.104 78.2262 829.239 79.2914 833.775 80.0903L851.984 83.6854C862.257 85.6826 869.661 89.1446 874.196 94.0711C878.732 98.8646 881 104.723 881 111.647C881 121.367 877.065 129.556 869.194 136.213C861.456 142.738 849.717 146 833.975 146Z" fill="#202020"/>
</svg>
