<svg width="1264" height="187" viewBox="0 0 1264 187" fill="none" xmlns="http://www.w3.org/2000/svg">
    <path d="M120.571 12.187V38.7586H77.5815V144.046H43.1897V38.7586H0V12.187H120.571Z" fill="#202020"/>
    <path d="M167.265 146.044C150.602 146.044 137.405 141.515 127.674 132.458C118.077 123.401 113.278 110.615 113.278 94.0994C113.278 83.1777 115.477 73.8543 119.876 66.1293C124.408 58.271 130.54 52.344 138.272 48.3483C146.136 44.2194 155.268 42.1549 165.665 42.1549C176.196 42.1549 185.127 44.2194 192.459 48.3483C199.924 52.344 205.589 57.938 209.455 65.1303C213.32 72.1895 215.253 80.3141 215.253 89.5043C215.253 92.0349 215.12 94.4989 214.853 96.8964C214.72 99.1606 214.587 101.092 214.454 102.69H146.27C147.203 109.616 149.469 114.611 153.068 117.674C156.667 120.604 161.4 122.069 167.265 122.069C172.33 122.069 176.329 121.071 179.262 119.073C182.328 117.075 184.594 114.278 186.06 110.682L213.254 119.672C211.388 125.399 208.122 130.261 203.456 134.256C198.924 138.119 193.459 141.049 187.06 143.047C180.795 145.045 174.196 146.044 167.265 146.044ZM165.665 65.9295C154.868 65.9295 148.469 72.1229 146.47 84.5096H183.061C181.595 72.1229 175.796 65.9295 165.665 65.9295Z" fill="#202020"/>
    <path d="M280.658 42.1549C290.789 42.1549 299.187 43.62 305.852 46.5502C312.65 49.4804 317.916 53.2764 321.648 57.938C325.381 62.5997 327.78 67.661 328.847 73.1218L297.454 83.5107C296.654 77.7835 294.988 73.5214 292.455 70.7244C289.923 67.7942 286.323 66.3291 281.658 66.3291C275.259 66.3291 270.394 68.5933 267.061 73.1218C263.862 77.6503 262.262 84.776 262.262 94.4989C262.262 104.355 263.995 111.414 267.461 115.676C271.06 119.805 275.859 121.87 281.858 121.87C291.322 121.87 296.854 116.475 298.454 105.687L329.047 115.476C327.58 124.134 322.715 131.393 314.45 137.253C306.319 143.114 295.521 146.044 282.058 146.044C265.662 146.044 252.531 141.515 242.667 132.458C232.936 123.268 228.071 110.482 228.071 94.0994C228.071 83.1777 230.27 73.8543 234.669 66.1293C239.201 58.4042 245.4 52.4772 253.265 48.3483C261.129 44.2194 270.261 42.1549 280.658 42.1549Z" fill="#202020"/>
    <path d="M345.719 144.046V1.79808H379.711V62.3333C382.644 55.6738 386.843 50.6791 392.308 47.3494C397.773 43.8864 404.105 42.1549 411.303 42.1549C421.568 42.1549 429.899 45.1517 436.297 51.1453C442.696 57.1389 445.895 65.9295 445.895 77.5171V144.046H411.903V86.9071C411.903 79.7147 410.57 74.7867 407.904 72.1229C405.372 69.3259 401.972 67.9274 397.707 67.9274C392.908 67.9274 388.709 69.792 385.11 73.5214C381.511 77.1175 379.711 83.1111 379.711 91.5021V144.046H345.719Z" fill="#202020"/>
    <path d="M468.713 144.046V44.1528H499.106L500.106 64.3312C503.172 57.0057 507.637 51.4783 513.503 47.7489C519.368 44.0196 526.299 42.1549 534.298 42.1549C544.562 42.1549 552.893 45.1517 559.292 51.1453C565.69 57.1389 568.889 65.9295 568.889 77.5171V144.046H534.897V86.5075C534.897 79.5816 533.564 74.7867 530.898 72.1229C528.232 69.4591 524.833 68.1271 520.701 68.1271C515.769 68.1271 511.503 69.8586 507.904 73.3216C504.438 76.7845 502.705 82.7115 502.705 91.1026V144.046H468.713Z" fill="#202020"/>
    <path d="M639.296 42.1549C649.827 42.1549 659.025 44.2194 666.889 48.3483C674.887 52.4772 681.086 58.4042 685.485 66.1293C690.017 73.8543 692.283 83.1777 692.283 94.0994C692.283 105.021 690.017 114.344 685.485 122.069C681.086 129.795 674.887 135.722 666.889 139.85C659.025 143.979 649.827 146.044 639.296 146.044C628.898 146.044 619.701 143.979 611.703 139.85C603.838 135.722 597.639 129.795 593.107 122.069C588.708 114.344 586.509 105.021 586.509 94.0994C586.509 83.1777 588.708 73.8543 593.107 66.1293C597.639 58.4042 603.838 52.4772 611.703 48.3483C619.701 44.2194 628.898 42.1549 639.296 42.1549ZM639.296 66.3291C633.431 66.3291 628.832 68.5267 625.499 72.922C622.3 77.1841 620.7 84.2432 620.7 94.0994C620.7 103.822 622.3 110.881 625.499 115.277C628.832 119.672 633.431 121.87 639.296 121.87C645.294 121.87 649.893 119.672 653.093 115.277C656.425 110.881 658.091 103.822 658.091 94.0994C658.091 84.2432 656.425 77.1841 653.093 72.922C649.893 68.5267 645.294 66.3291 639.296 66.3291Z" fill="#202020"/>
    <path d="M743.997 1.79808V110.082C743.997 114.478 744.731 117.608 746.197 119.472C747.663 121.337 750.129 122.269 753.595 122.269C755.595 122.269 757.261 122.136 758.594 121.87C759.927 121.603 761.527 121.204 763.393 120.671L761.193 141.049C758.794 142.514 755.661 143.713 751.796 144.645C747.93 145.578 744.131 146.044 740.398 146.044C729.734 146.044 722.003 143.58 717.204 138.652C712.405 133.724 710.006 125.666 710.006 114.478V1.79808H743.997Z" fill="#202020"/>
    <path d="M822.409 42.1549C832.939 42.1549 842.137 44.2194 850.002 48.3483C858 52.4772 864.199 58.4042 868.597 66.1293C873.13 73.8543 875.396 83.1777 875.396 94.0994C875.396 105.021 873.13 114.344 868.597 122.069C864.199 129.795 858 135.722 850.002 139.85C842.137 143.979 832.939 146.044 822.409 146.044C812.011 146.044 802.813 143.979 794.815 139.85C786.95 135.722 780.752 129.795 776.219 122.069C771.821 114.344 769.621 105.021 769.621 94.0994C769.621 83.1777 771.821 73.8543 776.219 66.1293C780.752 58.4042 786.95 52.4772 794.815 48.3483C802.813 44.2194 812.011 42.1549 822.409 42.1549ZM822.409 66.3291C816.543 66.3291 811.944 68.5267 808.612 72.922C805.413 77.1841 803.813 84.2432 803.813 94.0994C803.813 103.822 805.413 110.881 808.612 115.277C811.944 119.672 816.543 121.87 822.409 121.87C828.407 121.87 833.006 119.672 836.205 115.277C839.538 110.881 841.204 103.822 841.204 94.0994C841.204 84.2432 839.538 77.1841 836.205 72.922C833.006 68.5267 828.407 66.3291 822.409 66.3291Z" fill="#202020"/>
    <path d="M954.536 121.87C966.134 121.87 974.998 124.334 981.13 129.262C987.395 134.057 990.528 140.983 990.528 150.04C990.528 162.559 985.529 171.816 975.531 177.81C965.667 183.937 952.337 187 935.541 187C917.412 187 904.348 184.736 896.35 180.207C888.352 175.679 884.353 169.552 884.353 161.827C884.353 157.298 885.819 153.436 888.752 150.239C891.818 147.043 896.684 144.845 903.349 143.646C893.618 140.05 888.752 133.324 888.752 123.468C888.752 118.806 890.152 114.744 892.951 111.281C895.75 107.685 899.616 105.088 904.548 103.489C893.884 97.6289 888.552 88.5053 888.552 76.1186C888.552 65.3301 892.751 57.0057 901.149 51.1453C909.68 45.1517 921.611 42.1549 936.941 42.1549C944.672 42.1549 951.67 42.9541 957.936 44.5523C958.469 39.7575 959.802 35.2956 961.935 31.1667C964.201 27.0378 967.267 23.708 971.132 21.1774C975.131 18.5135 979.997 17.1816 985.729 17.1816C986.129 17.1816 986.595 17.2482 987.129 17.3814C987.662 17.3814 988.262 17.3814 988.928 17.3814L991.727 40.157C990.261 39.7575 988.662 39.5577 986.929 39.5577C982.263 39.5577 978.531 40.49 975.731 42.3547C972.932 44.2194 971.066 46.6168 970.133 49.547C980.13 55.4074 985.129 64.2646 985.129 76.1186C985.129 86.9071 980.863 95.2315 972.332 101.092C963.934 106.952 952.137 109.882 936.941 109.882C930.009 109.882 923.744 109.283 918.145 108.084C913.746 109.416 911.547 111.747 911.547 115.077C911.547 119.605 915.279 121.87 922.744 121.87H954.536ZM936.941 61.5342C932.542 61.5342 928.943 62.7995 926.143 65.3301C923.477 67.8608 922.144 71.4569 922.144 76.1186C922.144 80.6471 923.477 84.1766 926.143 86.7073C928.943 89.2379 932.542 90.5032 936.941 90.5032C941.206 90.5032 944.739 89.2379 947.538 86.7073C950.337 84.1766 951.737 80.6471 951.737 76.1186C951.737 71.4569 950.337 67.8608 947.538 65.3301C944.739 62.7995 941.206 61.5342 936.941 61.5342ZM935.741 165.023C945.339 165.023 952.47 164.025 957.136 162.027C961.935 160.162 964.334 157.765 964.334 154.834C964.334 152.837 963.534 151.238 961.935 150.04C960.468 148.974 957.869 148.441 954.136 148.441H918.345C915.812 148.441 913.746 149.107 912.146 150.439C910.68 151.771 909.947 153.436 909.947 155.434C909.947 158.497 912.213 160.828 916.745 162.426C921.278 164.158 927.609 165.023 935.741 165.023Z" fill="#202020"/>
    <path d="M1020.03 32.5652C1013.1 32.5652 1008.04 31.2999 1004.84 28.7692C1001.77 26.1054 1000.24 21.9765 1000.24 16.3825C1000.24 10.6553 1001.77 6.52635 1004.84 3.99572C1008.04 1.33191 1013.1 0 1020.03 0C1026.83 0 1031.83 1.33191 1035.03 3.99572C1038.23 6.52635 1039.83 10.6553 1039.83 16.3825C1039.83 21.9765 1038.23 26.1054 1035.03 28.7692C1031.83 31.2999 1026.83 32.5652 1020.03 32.5652ZM1037.03 44.1528V144.046H1003.04V44.1528H1037.03Z" fill="#202020"/>
    <path d="M1109.02 146.044C1092.35 146.044 1079.16 141.515 1069.43 132.458C1059.83 123.401 1055.03 110.615 1055.03 94.0994C1055.03 83.1777 1057.23 73.8543 1061.63 66.1293C1066.16 58.271 1072.29 52.344 1080.02 48.3483C1087.89 44.2194 1097.02 42.1549 1107.42 42.1549C1117.95 42.1549 1126.88 44.2194 1134.21 48.3483C1141.68 52.344 1147.34 57.938 1151.21 65.1303C1155.07 72.1895 1157.01 80.3141 1157.01 89.5043C1157.01 92.0349 1156.87 94.4989 1156.61 96.8964C1156.47 99.1606 1156.34 101.092 1156.21 102.69H1088.02C1088.95 109.616 1091.22 114.611 1094.82 117.674C1098.42 120.604 1103.15 122.069 1109.02 122.069C1114.08 122.069 1118.08 121.071 1121.01 119.073C1124.08 117.075 1126.35 114.278 1127.81 110.682L1155.01 119.672C1153.14 125.399 1149.87 130.261 1145.21 134.256C1140.68 138.119 1135.21 141.049 1128.81 143.047C1122.55 145.045 1115.95 146.044 1109.02 146.044ZM1107.42 65.9295C1096.62 65.9295 1090.22 72.1229 1088.22 84.5096H1124.81C1123.35 72.1229 1117.55 65.9295 1107.42 65.9295Z" fill="#202020"/>
    <path d="M1217.01 146.044C1207.01 146.044 1197.75 144.446 1189.22 141.249C1180.69 137.919 1173.55 133.191 1167.82 127.064L1183.82 108.284C1187.15 112.546 1191.55 116.142 1197.02 119.073C1202.61 121.87 1208.81 123.268 1215.61 123.268C1219.74 123.268 1223.14 122.669 1225.81 121.47C1228.48 120.271 1229.81 118.407 1229.81 115.876C1229.81 114.145 1229.14 112.679 1227.81 111.481C1226.48 110.282 1223.81 109.283 1219.81 108.484L1205.81 105.687C1193.28 103.156 1184.35 99.427 1179.02 94.4989C1173.82 89.4377 1171.22 82.8447 1171.22 74.7201C1171.22 69.2593 1172.89 64.0648 1176.22 59.1368C1179.55 54.2087 1184.69 50.1464 1191.62 46.9498C1198.55 43.7532 1207.41 42.1549 1218.21 42.1549C1238.87 42.1549 1253.94 47.8821 1263.4 59.3365L1247.2 77.7169C1244 73.7212 1239.87 70.5912 1234.81 68.3269C1229.74 66.0627 1224.68 64.9306 1219.61 64.9306C1209.88 64.9306 1205.01 67.3946 1205.01 72.3227C1205.01 74.0541 1205.81 75.5858 1207.41 76.9177C1209.15 78.2496 1212.28 79.3152 1216.81 80.1143L1235.01 83.7105C1245.27 85.7083 1252.67 89.1713 1257.2 94.0994C1261.73 98.8942 1264 104.755 1264 111.681C1264 121.404 1260.07 129.595 1252.2 136.254C1244.47 142.781 1232.74 146.044 1217.01 146.044Z" fill="#202020"/>
</svg>
