<svg width="750" height="127" viewBox="0 0 750 127" fill="none" xmlns="http://www.w3.org/2000/svg">
<g clip-path="url(#clip0_12035_13852)">
<path d="M657.121 36.9141H634.906C633.387 36.9141 632.095 38.019 631.858 39.5193L622.874 96.4683C622.698 97.5922 623.565 98.6084 624.704 98.6084H636.102C637.164 98.6084 638.071 97.8358 638.236 96.7847L640.783 80.6402C641.02 79.1399 642.313 78.035 643.833 78.035H650.862C665.493 78.035 673.938 70.9549 676.145 56.9235C677.139 50.7867 676.185 45.9645 673.311 42.5887C670.152 38.8765 664.553 36.9141 657.121 36.9141ZM659.685 57.7131C658.471 65.6855 652.382 65.6855 646.49 65.6855H643.14L645.49 50.8007C645.633 49.9003 646.408 49.2376 647.319 49.2376H648.855C652.865 49.2376 656.653 49.2376 658.605 51.5214C659.774 52.8889 660.126 54.9142 659.685 57.7131Z" fill="white"/>
<path d="M498.683 36.9141H476.469C474.951 36.9141 473.658 38.019 473.42 39.5193L464.437 96.4683C464.26 97.5922 465.129 98.6084 466.267 98.6084H476.874C478.392 98.6084 479.685 97.5044 479.923 96.0041L482.347 80.6402C482.584 79.1399 483.876 78.035 485.395 78.035H492.425C507.057 78.035 515.501 70.9549 517.709 56.9235C518.702 50.7867 517.749 45.9645 514.875 42.5887C511.714 38.8765 506.114 36.9141 498.683 36.9141ZM501.247 57.7131C500.033 65.6855 493.943 65.6855 488.054 65.6855H484.702L487.052 50.8007C487.195 49.9003 487.97 49.2376 488.881 49.2376H490.418C494.427 49.2376 498.215 49.2376 500.167 51.5214C501.335 52.8889 501.689 54.9142 501.247 57.7131Z" fill="white"/>
<path d="M565.078 57.4592H554.442C553.531 57.4592 552.755 58.1219 552.612 59.0223L552.145 61.9959L551.401 60.9188C549.097 57.5759 543.963 56.459 538.837 56.459C527.086 56.459 517.046 65.3627 515.092 77.8499C514.075 84.0795 515.519 90.0337 519.052 94.1891C522.298 98.0071 526.93 99.5962 532.449 99.5962C541.921 99.5962 547.175 93.5113 547.175 93.5113L546.7 96.4679C546.521 97.5919 547.39 98.609 548.529 98.609H558.108C559.627 98.609 560.919 97.505 561.157 96.0057L566.907 59.5992C567.085 58.4743 566.216 57.4592 565.078 57.4592ZM550.254 78.1593C549.227 84.2353 544.402 88.3148 538.248 88.3148C535.163 88.3148 532.693 87.3226 531.105 85.444C529.532 83.5824 528.94 80.9293 529.439 77.9747C530.396 71.9527 535.299 67.7414 541.36 67.7414C544.38 67.7414 546.833 68.7425 548.451 70.6391C550.08 72.5486 550.72 75.2187 550.254 78.1593Z" fill="white"/>
<path d="M723.515 57.4592H712.879C711.967 57.4592 711.192 58.1219 711.05 59.0223L710.582 61.9959L709.838 60.9188C707.534 57.5759 702.4 56.459 697.273 56.459C685.521 56.459 675.483 65.3627 673.53 77.8499C672.512 84.0795 673.956 90.0337 677.489 94.1891C680.735 98.0071 685.368 99.5962 690.887 99.5962C700.358 99.5962 705.613 93.5113 705.613 93.5113L705.137 96.4679C704.959 97.5919 705.827 98.609 706.967 98.609H716.546C718.065 98.609 719.356 97.505 719.594 96.0057L725.345 59.5992C725.522 58.4743 724.653 57.4592 723.515 57.4592ZM708.692 78.1593C707.664 84.2353 702.84 88.3148 696.686 88.3148C693.6 88.3148 691.131 87.3226 689.543 85.444C687.97 83.5824 687.377 80.9293 687.876 77.9747C688.835 71.9527 693.736 67.7414 699.796 67.7414C702.816 67.7414 705.269 68.7425 706.889 70.6391C708.517 72.5486 709.157 75.2187 708.692 78.1593Z" fill="white"/>
<path d="M621.736 57.458H611.044C610.022 57.458 609.065 57.9661 608.49 58.8116L593.742 80.5279L587.491 59.659C587.1 58.3534 585.898 57.457 584.535 57.457H574.025C572.756 57.457 571.864 58.7048 572.272 59.9066L584.045 94.4554L572.972 110.075C572.102 111.302 572.98 112.998 574.483 112.998H585.164C586.176 112.998 587.124 112.501 587.701 111.669L623.257 60.3637C624.108 59.137 623.229 57.458 621.736 57.458Z" fill="white"/>
<path d="M736.055 38.4792L726.937 96.4702C726.76 97.5932 727.629 98.6093 728.766 98.6093H737.936C739.455 98.6093 740.748 97.5053 740.985 96.0051L749.975 39.0561C750.152 37.9322 749.284 36.916 748.146 36.916H737.885C736.973 36.915 736.197 37.5788 736.055 38.4792Z" fill="white"/>
<path opacity="0.68" d="M420.859 39.8985C422.055 32.2744 420.851 27.0879 416.727 22.3885C412.186 17.216 403.983 15 393.488 15H363.024C360.879 15 359.052 16.5602 358.719 18.6793L346.032 99.1044C345.783 100.691 347.01 102.126 348.615 102.126H367.423L366.125 110.356C365.906 111.744 366.978 112.999 368.384 112.999H384.237C386.113 112.999 387.711 111.634 388.003 109.781L388.159 108.974L391.145 90.0409L391.338 88.9948C391.63 87.1422 393.228 85.7757 395.104 85.7757H397.475C412.833 85.7757 424.859 79.5381 428.372 61.4971C429.84 53.9588 429.081 47.6663 425.198 43.2424C424.025 41.9069 422.563 40.8009 420.859 39.8985Z" fill="white"/>
<path opacity="0.7" d="M420.859 39.8985C422.055 32.2744 420.851 27.0879 416.727 22.3885C412.186 17.216 403.983 15 393.488 15H363.024C360.879 15 359.052 16.5602 358.719 18.6793L346.032 99.1044C345.783 100.691 347.01 102.126 348.615 102.126H367.423L372.147 72.1736L372 73.1129C372.335 70.9947 374.145 69.4336 376.29 69.4336H385.23C402.785 69.4336 416.532 62.3026 420.548 41.6803C420.667 41.0714 420.768 40.4795 420.859 39.8985Z" fill="white"/>
<path d="M377.223 39.9993C377.423 38.7257 378.242 37.6816 379.343 37.1545C379.844 36.915 380.404 36.7812 380.99 36.7812H404.87C407.699 36.7812 410.337 36.9669 412.748 37.3552C413.437 37.466 414.108 37.5937 414.76 37.7385C415.411 37.8832 416.044 38.0439 416.656 38.2236C416.962 38.3124 417.263 38.4072 417.559 38.5051C418.743 38.8983 419.847 39.3615 420.861 39.8995C422.057 32.2754 420.853 27.0889 416.729 22.3895C412.186 17.216 403.983 15 393.488 15H363.024C360.879 15 359.052 16.5602 358.719 18.6793L346.032 99.1044C345.783 100.691 347.01 102.126 348.615 102.126H367.423L372.147 72.1736L377.223 39.9993Z" fill="white"/>
</g>
<path fill-rule="evenodd" clip-rule="evenodd" d="M296.595 65.1608C296.595 44.6484 286.379 28.4629 266.854 28.4629C247.246 28.4629 235.383 44.6484 235.383 65.0006C235.383 89.1186 249.388 101.298 269.49 101.298C279.294 101.298 286.709 99.1344 292.311 96.0896V80.0643C286.709 82.7886 280.283 84.4713 272.127 84.4713C264.135 84.4713 257.05 81.747 256.144 72.2921H296.43C296.43 71.2504 296.595 67.0839 296.595 65.1608ZM255.897 57.5488C255.897 48.4945 261.581 44.7286 266.771 44.7286C271.797 44.7286 277.152 48.4945 277.152 57.5488H255.897Z" fill="white"/>
<path fill-rule="evenodd" clip-rule="evenodd" d="M203.562 28.4629C195.488 28.4629 190.298 32.1487 187.414 34.7128L186.343 29.7449H168.219V123.172L188.815 118.926L188.897 96.2499C191.863 98.3332 196.23 101.298 203.48 101.298C218.226 101.298 231.655 89.7597 231.655 64.3596C231.573 41.1229 217.979 28.4629 203.562 28.4629ZM198.619 83.6701C193.758 83.6701 190.875 81.9874 188.897 79.9041L188.815 50.1772C190.957 47.8535 193.923 46.251 198.619 46.251C206.116 46.251 211.306 54.4239 211.306 64.9205C211.306 75.6574 206.198 83.6701 198.619 83.6701Z" fill="white"/>
<path fill-rule="evenodd" clip-rule="evenodd" d="M139.898 23.7351L160.577 19.4083V3.14258L139.898 7.38928V23.7351Z" fill="white"/>
<path d="M160.577 29.8242H139.898V99.9349H160.577V29.8242Z" fill="white"/>
<path fill-rule="evenodd" clip-rule="evenodd" d="M117.723 35.7537L116.405 29.8243H98.6094V99.935H119.206V52.42C124.066 46.2503 132.305 47.372 134.859 48.2534V29.8243C132.222 28.8628 122.583 27.1 117.723 35.7537Z" fill="white"/>
<path fill-rule="evenodd" clip-rule="evenodd" d="M76.5437 12.4355L56.4418 16.6021L56.3594 80.7835C56.3594 92.6422 65.5041 101.376 77.6971 101.376C84.4527 101.376 89.3958 100.174 92.1145 98.7318V82.4661C89.4781 83.5078 76.4613 87.1936 76.4613 75.3349V46.8899H92.1145V29.823H76.4613L76.5437 12.4355Z" fill="white"/>
<path fill-rule="evenodd" clip-rule="evenodd" d="M20.8434 50.1772C20.8434 47.0522 23.4797 45.8503 27.8461 45.8503C34.1074 45.8503 42.0163 47.6932 48.2776 50.9784V32.1487C41.4396 29.5045 34.6841 28.4629 27.8461 28.4629C11.122 28.4629 0 36.9563 0 51.1387C0 73.2536 31.3063 69.728 31.3063 79.2631C31.3063 82.9489 28.0109 84.1508 23.3973 84.1508C16.5594 84.1508 7.82657 81.4265 0.906234 77.7407V96.8108C8.56804 100.016 16.3122 101.378 23.3973 101.378C40.5334 101.378 52.3145 93.125 52.3145 78.7823C52.2321 54.9046 20.8434 59.1513 20.8434 50.1772Z" fill="white"/>
<defs>
<clipPath id="clip0_12035_13852">
<rect width="404" height="98" fill="white" transform="translate(346 15)"/>
</clipPath>
</defs>
</svg>
