<svg width="210" height="210" viewBox="0 0 210 210" fill="none" xmlns="http://www.w3.org/2000/svg">
    <g clip-path="url(#clip0_4757_18002)">
        <path d="M116.495 153.247C114.184 148.49 118.937 141.651 127.11 137.972C135.284 134.293 143.783 135.167 146.094 139.924C148.404 144.681 143.651 151.52 135.478 155.199C127.304 158.878 118.805 158.004 116.495 153.247Z" fill="#71A5D2"/>
        <path d="M153.545 102.417V102.663C153.634 108.29 154.689 113.864 156.667 119.159C158.048 123.021 160.65 126.371 164.109 128.737C168.397 131.596 172.494 132.011 175.816 130.174C176.427 129.808 176.988 129.369 177.484 128.867C178.932 127.421 180.743 126.359 182.742 125.784C184.741 125.209 186.86 125.141 188.895 125.585C190.032 125.787 191.205 125.671 192.275 125.25C193.345 124.829 194.267 124.121 194.932 123.21C198.708 118.194 201.993 112.852 204.746 107.252C206.51 103.609 204.226 100.173 200.106 99.5657C194.365 98.7509 184.256 98.9354 166.92 99.1967C163.109 99.2625 159.307 99.5809 155.541 100.15C154.979 100.228 154.465 100.502 154.097 100.92C153.73 101.338 153.533 101.87 153.545 102.417Z" fill="#CE7783"/>
        <path d="M48.3815 73.7688C48.3815 73.7688 68.065 69.3259 76.1539 70.8556C84.2428 72.3852 98.0088 74.1224 98.0088 74.1224L82.917 99.9266C82.917 99.9266 89.3052 102.233 99.8136 100.618C110.322 99.0042 117.325 99.8036 117.325 99.8036C117.325 99.8036 126.148 86.3212 127.051 80.8329C127.051 80.8329 142.917 90.3951 154.28 96.5982C154.476 96.7054 154.708 96.7356 154.927 96.6828C159.615 95.7159 164.387 95.178 169.18 95.0763C169.373 95.0664 169.559 95.0023 169.715 94.8918C169.84 94.8036 169.939 94.6862 170.003 94.5508C170.068 94.4154 170.095 94.2665 170.083 94.118C170.071 93.9696 170.02 93.8265 169.935 93.7023C169.849 93.5781 169.733 93.4769 169.595 93.4083C163.559 90.2798 141.919 78.8036 136.465 72.9464C130.077 66.0898 120.191 57.8728 106.225 56.9657C92.2595 56.0587 46.9201 62.4771 46.9201 62.4771C46.9201 62.4771 45.1236 69.9409 48.3815 73.7688Z" fill="#EAB669"/>
        <path d="M117.542 67.1085L123 61.32C120.103 58.632 111.448 56.82 108 56.5L114.388 66.7912C115.08 67.9068 116.641 68.0638 117.542 67.1085Z" fill="#161617"/>
        <path d="M169.555 94.3154C169.663 94.3152 169.767 94.2737 169.843 94.2001C170.06 93.9772 170.22 93.7076 170.308 93.4135C170.396 93.1195 170.41 92.8095 170.35 92.5091C170.289 92.2088 170.155 91.9266 169.958 91.686C169.762 91.4455 169.508 91.2533 169.22 91.1255C164.516 89.0654 148.85 81.9629 144.793 77.1127C139.811 71.1478 126.515 61.8008 126.38 61.7393C126.338 61.71 126.29 61.689 126.24 61.6774C126.189 61.6658 126.137 61.6639 126.086 61.6717C126.035 61.6796 125.986 61.6971 125.941 61.7232C125.897 61.7493 125.859 61.7835 125.829 61.8239C125.798 61.8642 125.776 61.91 125.764 61.9585C125.752 62.007 125.75 62.0573 125.759 62.1066C125.767 62.1558 125.785 62.203 125.812 62.2455C125.839 62.288 125.875 62.325 125.916 62.3542C126.044 62.4542 139.251 71.7397 144.17 77.62C148.219 82.478 162.808 89.1961 168.924 91.8557C169.101 91.933 169.256 92.0503 169.375 92.1975C169.495 92.3447 169.576 92.5175 169.611 92.7012C169.649 92.8832 169.64 93.0713 169.586 93.2494C169.532 93.4275 169.434 93.5902 169.3 93.7236C169.243 93.7767 169.205 93.845 169.189 93.9196C169.174 93.9941 169.182 94.0714 169.213 94.1412C169.245 94.211 169.297 94.2702 169.364 94.3109C169.43 94.3516 169.508 94.3719 169.587 94.3692L169.555 94.3154Z" fill="#E3E3E3"/>
        <path d="M83.3634 103.162C83.4283 103.163 83.4923 103.147 83.5494 103.118C83.6066 103.088 83.6552 103.045 83.691 102.993C86.0865 99.5958 93.9598 81.6859 97.2656 74.1376C97.3942 73.8475 97.4485 73.532 97.4239 73.2176C97.3993 72.9032 97.2967 72.5991 97.1245 72.3308C96.9523 72.0626 96.7155 71.8381 96.4344 71.6763C96.1532 71.5145 95.8357 71.4201 95.5088 71.4011C91.7877 71.1551 82.6769 70.4633 78.333 69.3641C73.2864 68.0805 54.1941 70.6171 48.4688 71.4318C48.2692 71.4616 48.0647 71.445 47.873 71.3835C47.6814 71.322 47.5078 71.2173 47.3666 71.0783C45.1627 68.8107 45.2505 64.9289 45.506 62.7843C45.532 62.5014 45.6624 62.2367 45.8733 62.038C46.0841 61.8392 46.3618 61.7196 46.6562 61.7005C48.333 61.5698 51.5029 61.3239 55.3676 61.0087C55.4201 61.0048 55.4712 60.991 55.5182 60.968C55.5651 60.945 55.6068 60.9133 55.641 60.8747C55.6751 60.8362 55.7013 60.7915 55.7174 60.7432C55.7335 60.695 55.7393 60.6441 55.7349 60.5936C55.7248 60.4923 55.6743 60.3988 55.5938 60.3328C55.5133 60.2669 55.4092 60.2336 55.3037 60.24C51.4389 60.5629 48.2691 60.8089 46.5922 60.9318C46.1138 60.9702 45.6638 61.1675 45.32 61.4901C44.9762 61.8127 44.7596 62.2403 44.7075 62.6998C44.444 64.952 44.3642 69.1105 46.7837 71.601C47.0118 71.8308 47.2946 72.004 47.6075 72.1057C47.9204 72.2075 48.2541 72.2347 48.5803 72.1851C54.2737 71.4165 73.2223 68.8645 78.1252 70.102C82.3732 71.1782 90.8057 71.8546 95.453 72.1698C95.6525 72.1832 95.846 72.242 96.0172 72.3415C96.1884 72.441 96.3326 72.5782 96.4379 72.7419C96.5432 72.9056 96.6065 73.091 96.6227 73.2829C96.6389 73.4747 96.6075 73.6676 96.5311 73.8455C93.9758 79.7104 85.4716 99.1269 83.0601 102.563C83.0023 102.648 82.9815 102.751 83.0024 102.85C83.0233 102.95 83.0845 103.037 83.172 103.093C83.228 103.133 83.2941 103.157 83.3634 103.162Z" fill="#E3E3E3"/>
        <path d="M73.1358 59.3796H73.1759C80.7219 58.611 85.513 57.9268 87.4134 57.3811C93.4901 55.6439 103.902 56.0129 104.006 56.0205C104.059 56.0237 104.112 56.0165 104.161 55.9994C104.211 55.9824 104.257 55.9558 104.296 55.9214C104.334 55.8869 104.366 55.8452 104.387 55.7989C104.409 55.7525 104.421 55.7024 104.422 55.6516C104.424 55.6011 104.415 55.5507 104.397 55.5033C104.379 55.4559 104.351 55.4124 104.316 55.3752C104.28 55.3381 104.238 55.3081 104.19 55.2869C104.142 55.2658 104.091 55.2539 104.038 55.2519C103.607 55.2519 93.3941 54.8675 87.1896 56.6432C85.3291 57.1735 80.5858 57.8346 73.0878 58.6186C72.9819 58.6248 72.8829 58.6711 72.8126 58.7475C72.7422 58.8239 72.7064 58.9241 72.7128 59.026C72.7191 59.128 72.7671 59.2233 72.8465 59.291C72.9259 59.3588 73.0299 59.3934 73.1358 59.3873V59.3796Z" fill="#E3E3E3"/>
        <path d="M121.486 98.512C121.561 98.5105 121.635 98.4889 121.698 98.4495C121.762 98.4102 121.812 98.3546 121.845 98.2891C123.841 94.2766 127.378 86.9051 128.6 82.5775C128.63 82.4649 128.693 82.3628 128.781 82.2826C128.868 82.2025 128.977 82.1475 129.095 82.124C129.21 82.1017 129.328 82.1099 129.438 82.1479C129.548 82.1858 129.645 82.252 129.718 82.3392C132.682 85.8952 136.004 89.1601 139.636 92.0859C142.83 94.5226 145.936 96.0445 150.99 98.1661C151.039 98.1863 151.091 98.1971 151.143 98.198C151.196 98.1989 151.248 98.1898 151.297 98.1712C151.346 98.1526 151.391 98.125 151.429 98.0898C151.467 98.0546 151.497 98.0126 151.518 97.9662C151.539 97.9198 151.55 97.8698 151.551 97.8192C151.552 97.7686 151.542 97.7183 151.523 97.6712C151.504 97.6241 151.475 97.5811 151.438 97.5446C151.402 97.5082 151.358 97.4791 151.31 97.4589C146.319 95.3681 143.221 93.8692 140.131 91.4863C136.545 88.595 133.266 85.3687 130.341 81.8549C130.172 81.6588 129.951 81.5111 129.7 81.4279C129.45 81.3446 129.181 81.3292 128.923 81.3831C128.664 81.437 128.426 81.5583 128.234 81.7336C128.042 81.909 127.903 82.1318 127.834 82.3776C126.628 86.6437 123.115 93.9691 121.126 97.9585C121.103 98.0039 121.089 98.0533 121.086 98.1038C121.083 98.1543 121.09 98.2049 121.107 98.2527C121.124 98.3006 121.151 98.3447 121.186 98.3826C121.22 98.4205 121.263 98.4514 121.31 98.4735C121.365 98.4981 121.425 98.5112 121.486 98.512Z" fill="#E3E3E3"/>
        <path d="M115.94 68.5C116.139 68.5008 116.336 68.4623 116.518 68.3869C116.701 68.3115 116.865 68.2009 117.002 68.0619L123.086 61.5C123.122 61.4632 123.15 61.4198 123.169 61.3724C123.188 61.3251 123.197 61.2746 123.195 61.2239C123.194 61.1733 123.182 61.1234 123.16 61.0771C123.139 61.0308 123.108 60.9891 123.07 60.9543C123.031 60.9194 122.987 60.8922 122.937 60.8741C122.888 60.856 122.836 60.8475 122.783 60.8489C122.73 60.8503 122.679 60.8617 122.631 60.8824C122.583 60.9031 122.539 60.9328 122.503 60.9696L116.419 67.5315C116.349 67.6032 116.264 67.6587 116.168 67.6936C116.073 67.7286 115.971 67.7422 115.869 67.7333C115.767 67.7244 115.669 67.6933 115.582 67.6423C115.494 67.5914 115.42 67.5219 115.365 67.4392L108.502 56.4994C108.474 56.4562 108.438 56.4189 108.395 56.3896C108.352 56.3603 108.303 56.3397 108.252 56.3289C108.201 56.3181 108.147 56.3175 108.096 56.327C108.044 56.3364 107.995 56.3559 107.951 56.3841C107.862 56.4392 107.8 56.526 107.778 56.6255C107.755 56.7249 107.774 56.8288 107.831 56.9145L114.695 67.8543C114.816 68.0352 114.977 68.1872 115.168 68.2991C115.359 68.4109 115.574 68.4796 115.796 68.5H115.94Z" fill="#E3E3E3"/>
        <path d="M151.948 138.483C152.023 138.485 152.096 138.465 152.16 138.428C152.224 138.39 152.276 138.336 152.308 138.271C152.341 138.207 152.354 138.134 152.345 138.063C152.336 137.991 152.307 137.924 152.26 137.868C148.147 132.649 146.343 130.427 145.872 130.143C145.781 130.092 145.674 130.077 145.572 130.101C145.471 130.126 145.383 130.188 145.328 130.274C145.3 130.317 145.281 130.365 145.272 130.415C145.263 130.466 145.265 130.517 145.278 130.567C145.291 130.616 145.314 130.663 145.346 130.704C145.378 130.745 145.418 130.779 145.464 130.804C145.935 131.111 149.233 135.285 151.645 138.337C151.681 138.381 151.727 138.417 151.779 138.442C151.832 138.468 151.889 138.482 151.948 138.483Z" fill="#E3E3E3"/>
        <path d="M169.932 158.723C170.189 158.721 170.445 158.682 170.69 158.607C173.469 157.777 176.344 152.458 178.069 149.237C178.42 148.576 178.724 148.007 178.963 147.6C179.482 146.716 181.199 145.348 183.187 143.757C187.276 140.49 192.362 136.424 192.881 132.365C193.05 131.667 192.961 130.934 192.629 130.293C192.297 129.651 191.742 129.142 191.061 128.852C187.659 127.315 180.744 129.621 177.853 132.511C174.108 136.285 161.196 133.28 159.719 132.442C158.553 131.812 156.421 128.376 155.726 127.107C155.701 127.063 155.668 127.024 155.627 126.992C155.586 126.96 155.539 126.936 155.488 126.922C155.438 126.908 155.385 126.903 155.333 126.908C155.28 126.914 155.229 126.929 155.183 126.954C155.092 127.004 155.024 127.086 154.994 127.184C154.964 127.281 154.975 127.386 155.024 127.476C155.303 127.961 157.786 132.257 159.36 133.111C160.933 133.964 174.292 137.254 178.46 133.041C181.366 130.113 187.914 128.253 190.749 129.544C191.269 129.777 191.69 130.176 191.94 130.673C192.191 131.17 192.255 131.735 192.123 132.273C191.643 136.032 186.477 140.152 182.708 143.165C180.576 144.871 178.891 146.239 178.3 147.216C178.061 147.631 177.749 148.207 177.39 148.884C175.833 151.766 172.95 157.139 170.483 157.869C170.281 157.936 170.066 157.962 169.853 157.945C169.64 157.928 169.433 157.868 169.245 157.769C167.529 156.878 161.771 149.806 157.587 144.564C157.522 144.483 157.427 144.431 157.322 144.418C157.218 144.405 157.112 144.433 157.028 144.495C156.945 144.557 156.89 144.648 156.875 144.748C156.861 144.848 156.886 144.95 156.948 145.033C163.767 153.565 167.441 157.708 168.862 158.446C169.19 158.622 169.557 158.717 169.932 158.723Z" fill="#E3E3E3"/>
        <path d="M168.262 154.103C168.355 154.104 168.446 154.073 168.518 154.015C168.59 153.957 168.637 153.877 168.653 153.788C171.152 140.229 188.424 130.643 188.615 130.551C188.661 130.526 188.701 130.492 188.733 130.452C188.765 130.412 188.789 130.366 188.803 130.317C188.816 130.268 188.82 130.217 188.813 130.167C188.806 130.117 188.789 130.068 188.763 130.025C188.737 129.981 188.702 129.942 188.66 129.911C188.619 129.88 188.571 129.858 188.52 129.844C188.469 129.831 188.416 129.828 188.364 129.834C188.312 129.841 188.262 129.857 188.216 129.882C188.04 129.982 170.449 139.737 167.886 153.65C167.876 153.699 167.876 153.75 167.887 153.8C167.897 153.849 167.918 153.896 167.948 153.938C167.978 153.979 168.016 154.015 168.06 154.042C168.104 154.069 168.154 154.087 168.205 154.095L168.262 154.103Z" fill="#E3E3E3"/>
        <path d="M41.9386 79.488C42.1759 79.4867 42.4092 79.4286 42.6174 79.3189C42.8092 79.2171 42.9748 79.0752 43.102 78.9036C43.2292 78.732 43.3145 78.535 43.3519 78.3273C43.4874 77.2897 43.9124 76.3069 44.5817 75.4832C45.4247 74.6094 46.0164 73.5391 46.2984 72.3778C46.317 72.278 46.2939 72.1751 46.234 72.0915C46.1742 72.008 46.0826 71.9507 45.9791 71.932C45.9276 71.922 45.8745 71.9221 45.8231 71.9323C45.7717 71.9425 45.7228 71.9625 45.6796 71.9912C45.6364 72.0199 45.5998 72.0566 45.5716 72.0993C45.5435 72.1419 45.5245 72.1896 45.5159 72.2395C45.2629 73.2633 44.7468 74.2096 44.0148 74.9913C43.2442 75.9264 42.7504 77.0444 42.5854 78.2274C42.5702 78.3209 42.5326 78.4098 42.4758 78.4872C42.419 78.5645 42.3444 78.6282 42.2579 78.6732C42.1786 78.7117 42.0913 78.7318 42.0025 78.7318C41.9137 78.7318 41.826 78.7117 41.7467 78.6732C41.5832 78.613 41.4347 78.5203 41.3108 78.4011C41.187 78.2819 41.0907 78.1389 41.0281 77.9814C40.6209 76.9975 41.1961 75.3602 41.4516 74.8068L41.7389 74.1842L41.0363 74.2687C39.3355 74.4763 37.299 74.5455 36.9717 74.3379C36.8279 74.238 36.7882 73.9228 36.7482 73.5692C36.7622 73.2346 36.6791 72.9029 36.5085 72.6111C36.3378 72.3192 36.0864 72.0788 35.7821 71.9166C35.1193 71.6399 35.0873 70.6406 35.0553 69.7643C35.0553 69.5875 35.0553 69.4261 35.0553 69.2647C35.0328 68.999 34.93 68.7454 34.7598 68.5351C34.5895 68.3248 34.3595 68.1669 34.0973 68.081C33.7779 67.9272 33.5781 67.8196 33.4903 67.5583C33.9853 66.8665 38.7686 64.8525 43.2162 63.2691C43.3158 63.2344 43.3967 63.1631 43.4416 63.0708C43.4865 62.9786 43.4916 62.873 43.4556 62.7771C43.4163 62.682 43.3405 62.6051 43.2439 62.5622C43.1474 62.5193 43.0374 62.5137 42.9367 62.5466C32.3405 66.3284 32.6039 67.343 32.6918 67.6736C32.7644 67.922 32.8971 68.1504 33.0789 68.34C33.2607 68.5297 33.4865 68.6754 33.7379 68.7651C34.1211 68.9572 34.241 69.0418 34.265 69.3185C34.265 69.4646 34.265 69.626 34.265 69.7874C34.265 70.7867 34.3447 72.1472 35.4706 72.6238C35.8379 72.7775 35.8939 73.1157 35.9657 73.6615C35.9576 73.8986 36.0024 74.1345 36.0975 74.3534C36.1926 74.5722 36.3356 74.7688 36.5166 74.9298C37.1155 75.3295 39.2475 75.1911 40.5092 75.0681C40.0912 76.0736 40.0267 77.1833 40.3256 78.2274C40.4252 78.4813 40.579 78.7124 40.7771 78.9057C40.9751 79.0989 41.2129 79.2502 41.4754 79.3496C41.6194 79.4231 41.7766 79.47 41.9386 79.488Z" fill="#E3E3E3"/>
        <path d="M195.617 125.669C195.677 125.669 195.737 125.656 195.791 125.631C195.845 125.606 195.892 125.569 195.929 125.523C201.215 119.214 205.712 112.328 209.328 105.007C209.752 104.213 209.973 103.333 209.973 102.44C209.973 101.547 209.752 100.667 209.328 99.8726C208.815 99.0239 208.102 98.3033 207.246 97.7692C206.39 97.235 205.415 96.9023 204.401 96.7979C198.811 96.0292 188.998 96.1599 172.764 96.4059H171.167C161.403 96.6369 151.741 98.3731 142.549 101.548C142.452 101.585 142.374 101.656 142.331 101.748C142.288 101.839 142.284 101.942 142.319 102.037C142.355 102.131 142.427 102.208 142.52 102.251C142.614 102.295 142.721 102.302 142.82 102.271C151.928 99.1258 161.501 97.4052 171.175 97.1745H172.772C188.974 96.9286 198.748 96.7748 204.281 97.5589C205.172 97.6472 206.029 97.9352 206.783 98.3997C207.538 98.8642 208.168 99.4924 208.625 100.234C208.994 100.921 209.186 101.682 209.186 102.455C209.186 103.228 208.994 103.99 208.625 104.677C205.037 111.944 200.572 118.778 195.322 125.039C195.257 125.118 195.227 125.22 195.239 125.32C195.251 125.421 195.304 125.513 195.386 125.577C195.452 125.628 195.533 125.66 195.617 125.669Z" fill="#E3E3E3"/>
        <path d="M76.3696 180.883C77.2192 180.882 78.0648 180.773 78.8849 180.56C83.7797 179.284 97.2506 175.64 132.649 165.556C141.953 162.989 150.937 159.447 159.438 154.994C159.53 154.944 159.598 154.861 159.628 154.764C159.658 154.666 159.647 154.561 159.598 154.471C159.573 154.427 159.539 154.388 159.498 154.356C159.457 154.324 159.41 154.3 159.36 154.286C159.31 154.272 159.256 154.267 159.204 154.273C159.152 154.278 159.101 154.293 159.055 154.318C150.603 158.743 141.673 162.264 132.425 164.818C97.0508 174.903 83.5639 178.546 78.677 179.822C77.4729 180.145 76.2098 180.208 74.9773 180.008C73.7448 179.807 72.5735 179.347 71.5466 178.661C68.4404 176.555 64.4797 172.397 63.266 164.51C63.0991 163.354 63.1911 162.177 63.5354 161.059C63.8797 159.94 64.4684 158.905 65.2622 158.023C73.2353 149.037 81.8766 140.621 91.1179 132.841C91.1578 132.809 91.1905 132.769 91.2142 132.724C91.2379 132.679 91.2522 132.63 91.2559 132.58C91.2596 132.53 91.2528 132.48 91.236 132.432C91.2192 132.384 91.1928 132.341 91.158 132.303C91.0874 132.227 90.9883 132.18 90.8824 132.173C90.7765 132.166 90.6722 132.199 90.5911 132.265C81.326 140.07 72.6605 148.512 64.6634 157.523C63.7962 158.489 63.1536 159.623 62.779 160.848C62.4044 162.073 62.3063 163.361 62.4912 164.625C63.7369 172.773 67.8572 177.101 71.0912 179.292C72.6403 180.329 74.4827 180.884 76.3696 180.883Z" fill="#E3E3E3"/>
        <path d="M140.842 194.204C141.875 194.22 142.884 193.903 143.709 193.305C147.19 190.768 144.363 186.748 141.624 182.858C139.836 180.306 137.975 177.662 137.68 175.325C136.881 169.445 142.064 162.565 142.112 162.496C142.144 162.456 142.167 162.41 142.18 162.36C142.193 162.311 142.195 162.259 142.187 162.209C142.179 162.159 142.16 162.111 142.132 162.068C142.104 162.024 142.067 161.987 142.023 161.958C141.938 161.9 141.833 161.877 141.73 161.892C141.627 161.908 141.535 161.962 141.473 162.043C141.249 162.335 136.075 169.238 136.881 175.418C137.209 177.939 139.117 180.66 140.97 183.289C143.724 187.209 146.104 190.599 143.229 192.69C141.888 193.666 140.131 193.689 138.015 192.766C133.623 190.845 128.88 185.126 128.728 183.02C128.601 181.382 126.788 179.568 124.872 177.639L124.073 176.87C124.036 176.834 123.992 176.806 123.943 176.786C123.895 176.767 123.842 176.757 123.79 176.757C123.737 176.757 123.685 176.767 123.636 176.786C123.587 176.806 123.543 176.834 123.506 176.87C123.469 176.905 123.439 176.947 123.419 176.994C123.399 177.04 123.389 177.089 123.389 177.139C123.389 177.19 123.399 177.239 123.419 177.285C123.439 177.332 123.469 177.373 123.506 177.408L124.305 178.216C126.125 180.045 127.842 181.767 127.946 183.127C128.122 185.503 132.905 191.414 137.696 193.512C138.682 193.954 139.754 194.189 140.842 194.204Z" fill="#E3E3E3"/>
        <path d="M82.1825 194.342H82.2624C82.3138 194.332 82.3625 194.313 82.4059 194.284C82.4494 194.256 82.4869 194.22 82.5159 194.178C82.5448 194.136 82.5648 194.089 82.5747 194.039C82.5847 193.989 82.5845 193.938 82.574 193.889L79.771 179.968C79.7605 179.918 79.7399 179.87 79.7102 179.827C79.6804 179.784 79.642 179.748 79.5975 179.719C79.553 179.691 79.5033 179.671 79.4509 179.661C79.3984 179.651 79.3442 179.651 79.2918 179.661C79.2394 179.671 79.1896 179.691 79.1452 179.72C79.1008 179.748 79.0626 179.785 79.0329 179.828C79.0033 179.871 78.9829 179.919 78.9725 179.969C78.9621 180.02 78.962 180.072 78.9725 180.122L81.7755 194.043C81.7974 194.13 81.8495 194.207 81.9236 194.262C81.9977 194.317 82.0892 194.345 82.1825 194.342Z" fill="#E3E3E3"/>
        <path d="M86.8849 205.749C87.7195 205.751 88.5218 205.44 89.1206 204.88L128.503 169.352C128.541 169.316 128.57 169.274 128.591 169.227C128.611 169.18 128.621 169.13 128.621 169.079C128.621 169.029 128.611 168.978 128.591 168.931C128.57 168.885 128.541 168.842 128.503 168.806C128.467 168.771 128.423 168.742 128.375 168.723C128.327 168.703 128.276 168.693 128.224 168.693C128.172 168.693 128.12 168.703 128.072 168.723C128.024 168.742 127.981 168.771 127.944 168.806L88.5619 204.342C88.2358 204.635 87.8338 204.839 87.3981 204.933C86.9623 205.026 86.5083 205.005 86.0837 204.873C85.6591 204.74 85.2793 204.501 84.9834 204.179C84.6876 203.857 84.4868 203.465 84.4017 203.043L84.1381 201.728C84.1169 201.628 84.0554 201.54 83.9673 201.482C83.8793 201.425 83.7714 201.403 83.6667 201.421C83.6148 201.43 83.5657 201.449 83.5217 201.477C83.4777 201.505 83.4397 201.541 83.4106 201.584C83.3815 201.626 83.3616 201.674 83.3521 201.724C83.3426 201.774 83.344 201.825 83.3556 201.875L83.6192 203.189C83.7268 203.747 83.99 204.267 84.381 204.692C84.7721 205.117 85.2761 205.432 85.8389 205.603C86.1772 205.705 86.5304 205.754 86.8849 205.749Z" fill="#E3E3E3"/>
        <path d="M70.6378 152.066C70.7341 152.065 70.8273 152.033 70.9014 151.973C70.9388 151.938 70.9685 151.895 70.9887 151.848C71.009 151.801 71.0195 151.751 71.0195 151.7C71.0195 151.65 71.009 151.599 70.9887 151.553C70.9685 151.506 70.9388 151.463 70.9014 151.428L61.471 141.081C61.395 141.01 61.2933 140.971 61.1875 140.971C61.0817 140.971 60.98 141.01 60.904 141.081C60.8669 141.116 60.8373 141.158 60.8171 141.204C60.7969 141.251 60.7867 141.3 60.7867 141.35C60.7867 141.4 60.7969 141.45 60.8171 141.496C60.8373 141.542 60.8669 141.584 60.904 141.619L70.3345 151.935C70.373 151.976 70.4199 152.008 70.4721 152.031C70.5243 152.053 70.5806 152.065 70.6378 152.066Z" fill="#E3E3E3"/>
        <path d="M55.4572 135.447C55.5533 135.445 55.6457 135.413 55.7204 135.355C55.794 135.282 55.8354 135.184 55.8354 135.082C55.8354 134.98 55.794 134.882 55.7204 134.809L53.3888 132.265C53.1103 131.957 52.9175 131.586 52.8285 131.186C52.7396 130.787 52.7575 130.372 52.8804 129.981C53.0032 129.59 53.2271 129.236 53.5311 128.951C53.8351 128.666 54.2093 128.46 54.6185 128.352L75.0445 123.11C75.1453 123.08 75.2304 123.014 75.2823 122.925C75.3342 122.836 75.3491 122.732 75.324 122.633C75.296 122.536 75.2288 122.453 75.1377 122.403C75.0465 122.352 74.9387 122.338 74.837 122.364L54.4271 127.622C53.8869 127.764 53.3932 128.035 52.9927 128.412C52.5921 128.788 52.2979 129.257 52.138 129.773C51.9781 130.29 51.9576 130.837 52.0787 131.363C52.1998 131.889 52.4585 132.377 52.8301 132.78L55.1617 135.324C55.1987 135.364 55.2444 135.396 55.2954 135.417C55.3464 135.438 55.4016 135.448 55.4572 135.447Z" fill="#E3E3E3"/>
        <path d="M167.805 131.003C167.892 131.001 167.977 130.972 168.045 130.919C168.128 130.857 168.182 130.765 168.196 130.664C168.209 130.563 168.181 130.461 168.116 130.381C158.327 118.39 157.911 104.046 158.191 98.4273C158.191 98.3254 158.149 98.2276 158.074 98.1555C157.999 98.0835 157.897 98.043 157.792 98.043C157.686 98.043 157.584 98.0835 157.509 98.1555C157.434 98.2276 157.392 98.3254 157.392 98.4273C157.113 104.123 157.536 118.697 167.486 130.888C167.528 130.928 167.578 130.958 167.633 130.978C167.688 130.998 167.746 131.007 167.805 131.003Z" fill="#E3E3E3"/>
        <path d="M105.899 173.12C105.984 173.12 106.067 173.095 106.136 173.047C106.205 172.999 106.256 172.93 106.282 172.852C106.308 172.774 106.307 172.69 106.28 172.612C106.252 172.535 106.2 172.467 106.13 172.42C95.5101 165.126 90.8389 153.327 88.7947 144.748C88.7835 144.699 88.7619 144.652 88.7315 144.611C88.7012 144.57 88.6624 144.535 88.6177 144.508C88.573 144.482 88.523 144.464 88.4711 144.456C88.4192 144.449 88.3664 144.451 88.3155 144.464C88.264 144.475 88.2152 144.495 88.172 144.525C88.1289 144.554 88.0922 144.591 88.064 144.634C88.0358 144.676 88.0164 144.724 88.0075 144.774C87.9986 144.824 88.0004 144.876 88.0122 144.925C90.0963 153.665 94.8473 165.679 105.667 173.089C105.74 173.12 105.82 173.131 105.899 173.12Z" fill="#E3E3E3"/>
        <path d="M85.7447 173.12C85.841 173.119 85.9342 173.087 86.0082 173.027C86.0875 172.959 86.1361 172.864 86.1435 172.762C86.151 172.66 86.1166 172.56 86.048 172.482C78.566 164.119 75.6675 154.549 74.5975 148C74.5806 147.898 74.5222 147.806 74.4353 147.746C74.3485 147.685 74.2402 147.66 74.1343 147.677C74.0284 147.693 73.9336 147.749 73.8707 147.833C73.8078 147.916 73.7821 148.021 73.799 148.123C74.9009 154.772 77.7916 164.488 85.4253 172.989C85.4656 173.032 85.5149 173.065 85.57 173.088C85.6251 173.111 85.6848 173.121 85.7447 173.12Z" fill="#E3E3E3"/>
        <path d="M40.1912 167.538C34.5378 170.789 21.027 184.548 24.3727 189.991C27.7185 195.433 46.7311 190.498 52.4165 187.254C55.0531 185.657 56.9361 183.13 57.6629 180.214C58.3898 177.298 57.9027 174.224 56.3061 171.649C54.7094 169.074 52.1296 167.202 49.1183 166.434C46.107 165.666 42.9031 166.062 40.1912 167.538Z" fill="#CE7783"/>
        <path d="M34.6629 195.672C42.5762 195.672 53.6116 192.251 57.4364 190.06C60.4552 188.321 62.6339 185.499 63.4947 182.215C64.3554 178.931 63.8279 175.453 62.0279 172.542C61.1351 171.101 59.9559 169.844 58.5582 168.841C57.1604 167.839 55.5712 167.111 53.8814 166.7C52.1915 166.289 50.4341 166.202 48.7094 166.445C46.9847 166.688 45.3267 167.255 43.8298 168.115C42.1373 169.151 40.5468 170.335 39.0785 171.651C38.9991 171.719 38.9512 171.815 38.9452 171.917C38.9392 172.02 38.9756 172.12 39.0465 172.196C39.1175 172.273 39.2171 172.319 39.3234 172.325C39.4297 172.331 39.534 172.296 39.6135 172.227C41.0433 170.945 42.5908 169.79 44.2369 168.776C47.0762 167.181 50.4549 166.73 53.6381 167.52C56.8212 168.311 59.5515 170.279 61.2352 172.997C62.919 175.715 63.4202 178.962 62.6295 182.034C61.8388 185.106 59.8203 187.753 57.013 189.399C50.4732 193.15 30.6622 197.901 27.2845 192.474C25.9271 190.283 27.2845 186.278 31.1094 181.213C31.1719 181.13 31.1976 181.027 31.1811 180.926C31.1647 180.826 31.1075 180.735 31.0217 180.675C30.9359 180.615 30.8286 180.59 30.7238 180.606C30.619 180.622 30.525 180.677 30.4626 180.759C27.6119 184.534 24.6336 189.699 26.5979 192.866C27.8675 194.903 30.9179 195.672 34.6629 195.672Z" fill="#E3E3E3"/>
        <path d="M127.592 161.359C131.085 161.298 134.522 160.512 137.67 159.053C146.03 155.294 150.877 148.215 148.481 143.272C147.3 140.843 144.6 139.298 140.871 138.914C136.768 138.623 132.659 139.39 128.966 141.135C120.605 144.902 115.759 151.981 118.154 156.924C119.336 159.353 122.035 160.898 125.764 161.282C126.371 161.339 126.982 161.364 127.592 161.359ZM139.035 139.582C139.619 139.582 140.203 139.612 140.784 139.675C144.225 140.028 146.701 141.42 147.755 143.595C149.967 148.145 145.295 154.771 137.326 158.353C133.77 160.045 129.807 160.789 125.851 160.506C122.41 160.152 119.934 158.761 118.88 156.585C116.661 152.035 121.34 145.409 129.301 141.827C132.34 140.412 135.66 139.647 139.035 139.582Z" fill="#E3E3E3"/>
        <path d="M128.207 27.2175C128.207 27.2175 124.215 13.443 115.279 20.6838C106.344 27.9247 105.769 38.7782 105.913 41.9913C106.056 45.2043 103.517 46.8954 102.679 46.6033C102.679 46.6033 105.569 47.518 109.274 42.5985C111.103 40.4309 110.017 36.8105 110.871 35.6805C111.726 34.5506 119.958 24.4733 128.207 27.2175Z" fill="#252525"/>
        <path d="M129.016 19.0783C124.245 19.0783 120.377 15.3547 120.377 10.7613C120.377 6.16798 124.245 2.44434 129.016 2.44434C133.788 2.44434 137.656 6.16798 137.656 10.7613C137.656 15.3547 133.788 19.0783 129.016 19.0783Z" fill="#252525"/>
        <path d="M144.433 40.9012C144.433 40.9012 151.971 22.8145 125.005 16.6498C98.0396 10.485 104.787 36.6351 104.787 36.6351C104.787 36.6351 114.114 28.5026 116.07 27.5648C118.026 26.6271 130.571 31.5465 137.342 31.3621C144.114 31.1776 141.646 46.8738 144.433 40.9012Z" fill="#252525"/>
        <path d="M130.1 58.9416C131.289 58.966 132.479 58.9095 133.661 58.7725C136.408 58.3343 138.947 52.0543 139.051 51.7853C139.681 50.3099 140.215 48.7978 140.648 47.2578C140.653 47.186 140.629 47.1152 140.581 47.0595C140.534 47.0039 140.466 46.9676 140.392 46.9581C140.355 46.9538 140.317 46.9569 140.281 46.967C140.245 46.9772 140.211 46.9943 140.182 47.0173C140.153 47.0402 140.129 47.0686 140.112 47.1007C140.094 47.1328 140.084 47.1679 140.081 47.204C139.641 48.6942 139.108 50.1573 138.484 51.5854C137.789 53.3303 135.545 57.9116 133.525 58.2344C131.928 58.4958 123.144 58.7341 114.984 56.528C114.888 56.528 105.401 54.0759 102.263 48.6338C101.559 47.504 100.981 46.306 100.539 45.0595V44.9288L100.403 44.8827C100.179 44.8058 94.8694 42.9533 96.5942 36.9808C97.728 33.0298 99.1093 30.7545 100.475 30.5854C101.393 30.4701 102.399 31.2926 103.453 33.0298L103.86 33.7062L103.98 32.9376C104.237 31.5588 104.597 30.1998 105.058 28.8713C105.07 28.837 105.075 28.8007 105.073 28.7645C105.07 28.7283 105.06 28.693 105.043 28.6606C105.026 28.6283 105.002 28.5997 104.973 28.5764C104.944 28.5532 104.911 28.5358 104.874 28.5254C104.839 28.5134 104.802 28.5082 104.765 28.5102C104.728 28.5122 104.691 28.5213 104.658 28.5371C104.625 28.5529 104.594 28.5749 104.57 28.6019C104.545 28.629 104.527 28.6604 104.515 28.6945C104.128 29.8296 103.805 30.9844 103.549 32.1535C102.503 30.6162 101.441 29.9167 100.403 30.0474C98.7498 30.2549 97.2805 32.5379 96.0428 36.8424C94.334 42.7611 99.1892 44.998 100.076 45.3592C100.53 46.5938 101.107 47.7831 101.8 48.9105C105.058 54.5602 114.481 56.9661 114.88 57.066C119.847 58.3243 124.963 58.9548 130.1 58.9416Z" fill="#E3E3E3"/>
        <path d="M145.097 42.0542L147.077 36.5505C147.703 34.8393 147.814 32.9927 147.396 31.2236L146.838 31.3389C147.24 33.0079 147.135 34.7532 146.534 36.366L144.554 41.8774L145.097 42.0542Z" fill="#45E5E5"/>
        <path d="M143.259 25.2739C143.333 25.2719 143.404 25.2447 143.459 25.197C143.486 25.1713 143.507 25.1408 143.521 25.1071C143.536 25.0735 143.543 25.0374 143.543 25.001C143.543 24.9646 143.536 24.9285 143.521 24.8949C143.507 24.8613 143.486 24.8307 143.459 24.805C140.225 21.6304 135.138 18.7018 128.351 16.1037C118.465 12.3295 111.039 14.3742 106.272 22.1762C106.242 22.2388 106.237 22.3099 106.259 22.3757C106.28 22.4415 106.327 22.4972 106.388 22.5318C106.45 22.5664 106.524 22.5775 106.594 22.5629C106.664 22.5484 106.726 22.5091 106.767 22.4529C111.367 14.92 118.553 12.9522 128.135 16.611C134.859 19.1784 139.873 22.0686 143.051 25.1894C143.078 25.2162 143.11 25.2375 143.146 25.252C143.182 25.2666 143.22 25.274 143.259 25.2739Z" fill="#E3E3E3"/>
        <path d="M140.928 45.7512C141.028 45.7503 141.126 45.7209 141.208 45.6667L143.651 43.9756C144.305 43.5237 144.797 42.8869 145.057 42.1539L147.077 36.5503C147.703 34.8391 147.814 32.9925 147.396 31.2234C147.389 31.1876 147.374 31.1536 147.352 31.1236C147.331 31.0936 147.303 31.068 147.271 31.0486C147.239 31.0292 147.203 31.0163 147.166 31.0107C147.128 31.005 147.09 31.0068 147.053 31.0159C147.017 31.0231 146.983 31.0373 146.952 31.0576C146.921 31.0778 146.895 31.1037 146.875 31.1338C146.855 31.1638 146.841 31.1974 146.835 31.2326C146.829 31.2678 146.829 31.3039 146.838 31.3387C147.24 33.0077 147.135 34.753 146.534 36.3658L144.522 41.9771C144.298 42.5991 143.876 43.1372 143.316 43.5144L141.104 45.0517C142.19 41.8618 144.298 34.8746 142.614 32.9913C141.815 32.1304 139.38 31.7768 135.643 31.2388C131.235 30.6008 125.206 29.7014 119.401 27.5415C119.331 27.52 119.255 27.525 119.189 27.5553C119.123 27.5857 119.072 27.6392 119.045 27.7049C119.019 27.7706 119.019 27.8436 119.047 27.9089C119.074 27.9743 119.127 28.027 119.193 28.0565C125.062 30.2702 131.131 31.1312 135.554 31.7845C138.908 32.2611 141.552 32.6454 142.182 33.3219C143.444 34.7285 142.126 40.3321 140.473 45.1055C140.449 45.1749 140.443 45.2488 140.454 45.3211C140.466 45.3935 140.495 45.4621 140.539 45.5214C140.584 45.5808 140.642 45.6291 140.71 45.6623C140.778 45.6956 140.852 45.7129 140.928 45.7128V45.7512Z" fill="#E3E3E3"/>
        <path d="M103.358 47.604L104.348 47.4349C104.516 47.4349 108.54 46.6201 110.233 37.6036C111.031 37.1424 115.822 34.3598 118.609 30.5473C118.647 30.4871 118.659 30.4153 118.644 30.3466C118.629 30.2779 118.587 30.2173 118.527 30.1772C118.467 30.1371 118.393 30.1205 118.321 30.1307C118.249 30.1409 118.184 30.1771 118.138 30.2321C115.192 34.283 109.889 37.1501 109.833 37.1501L109.722 37.2116V37.3423C108.796 42.3694 107.134 44.7599 105.889 45.8822C106.485 45.1749 106.945 44.3704 107.246 43.507C107.349 42.8092 107.308 42.0989 107.127 41.4162C106.56 38.0264 105.378 30.9623 115.375 22.0689C118.441 19.3478 121.132 18.2947 123.36 18.9481C126.834 19.955 128.567 24.936 129.285 27.8108C129.306 27.8816 129.354 27.9423 129.419 27.9808C129.484 28.0193 129.562 28.0327 129.637 28.0183C129.709 28.0002 129.771 27.9555 129.81 27.8937C129.849 27.832 129.861 27.7581 129.844 27.6878C128.926 24.029 127.081 19.4554 123.52 18.4177C121.076 17.7105 118.21 18.802 114.984 21.6691C104.763 30.7548 105.969 38.0187 106.552 41.5085C106.708 42.1085 106.756 42.7298 106.695 43.3456C106.136 44.712 105.256 45.9354 104.124 46.9199L103.358 47.604Z" fill="#E3E3E3"/>
        <path d="M140.059 45.5359L139.005 44.8826C137.859 44.1875 136.567 43.7445 135.223 43.5851C133.879 43.4256 132.514 43.5537 131.227 43.9602L130.141 44.3522L140.059 45.5359ZM134.118 44.0831C135.21 44.0767 136.294 44.2697 137.312 44.652L133.048 44.1446C133.408 44.1033 133.771 44.0827 134.134 44.0831H134.118Z" fill="#E3E3E3"/>
        <path d="M124.941 43.1673L123.831 42.2372C120.79 39.7381 116.879 38.4392 112.884 38.6014L111.542 38.7091L124.941 43.1673ZM114.72 39.1856C117.349 39.3945 119.882 40.2378 122.083 41.6377L114.72 39.1856Z" fill="#E3E3E3"/>
        <path d="M139.724 43.2071C139.836 43.2071 139.868 43.2071 139.9 43.2071L140.004 43.1379V42.9996C140.004 42.8766 140.004 42.6921 139.053 42.0541C140.028 41.9388 140.027 41.7774 140.027 41.5929V41.4238L139.852 41.3315C139.501 41.1624 132.146 40.0709 131.14 40.7935L130.669 41.1317L131.236 41.2777C137.776 42.9304 139.293 43.2071 139.724 43.2071ZM138.223 41.5314L137.321 41.5852L138.119 42.0464C138.383 42.1925 138.654 42.3692 138.918 42.5307C137.592 42.2463 135.005 41.6083 132.841 41.0548C134.64 41.1168 136.434 41.276 138.215 41.5314H138.223Z" fill="#E3E3E3"/>
        <path d="M125.446 40.1704C125.483 40.1784 125.521 40.1784 125.558 40.1704C125.593 40.157 125.625 40.1369 125.652 40.1112C125.679 40.0855 125.7 40.0549 125.714 40.0211C125.728 39.9873 125.735 39.9511 125.734 39.9147C125.734 39.8782 125.725 39.8423 125.71 39.8091C125.183 38.6023 118.523 35.7198 114.618 34.1133C114.548 34.0851 114.47 34.0846 114.399 34.112C114.329 34.1393 114.273 34.1923 114.243 34.2594C114.216 34.3269 114.216 34.4018 114.244 34.4689C114.273 34.5361 114.326 34.5903 114.395 34.6206C120.631 37.1803 124.871 39.3018 125.19 40.0013C125.21 40.0512 125.245 40.0942 125.291 40.1244C125.336 40.1547 125.391 40.1707 125.446 40.1704Z" fill="#E3E3E3"/>
        <path d="M125.455 40.1709C125.511 40.1717 125.566 40.1563 125.612 40.1268C125.659 40.0973 125.695 40.055 125.717 40.0054C125.738 39.9557 125.744 39.901 125.733 39.8483C125.722 39.7956 125.694 39.7473 125.654 39.7097L125.551 39.6405C125.455 39.6405 124.433 39.2869 122.484 38.6874C120.089 37.9187 116.408 36.8118 114.675 36.2584C115.05 36.2046 115.474 36.1431 115.913 36.097L116.575 36.0201L114.435 34.3367C114.409 34.3099 114.378 34.2886 114.343 34.274C114.308 34.2595 114.27 34.252 114.232 34.252C114.194 34.252 114.156 34.2595 114.121 34.274C114.086 34.2886 114.054 34.3099 114.028 34.3367C113.981 34.3931 113.959 34.4649 113.967 34.5367C113.974 34.6085 114.011 34.6746 114.068 34.721L115.186 35.5896C113.286 35.8279 113.286 35.874 113.286 36.1354C113.286 36.3967 113.285 36.3814 122.309 39.1716L125.343 40.1094C125.374 40.1387 125.413 40.1599 125.455 40.1709Z" fill="#E3E3E3"/>
        <path d="M134.135 17.0335C134.179 17.0335 134.223 17.0238 134.263 17.0052C134.304 16.9866 134.339 16.9595 134.366 16.9259C135.374 15.6154 136.054 14.0989 136.354 12.4942C136.653 10.8895 136.564 9.23994 136.094 7.67377C135.623 6.1076 134.783 4.66706 133.64 3.46417C132.497 2.26129 131.081 1.3285 129.502 0.738336C127.923 0.148177 126.224 -0.0834394 124.537 0.0615034C122.85 0.206446 121.22 0.72404 119.775 1.57403C118.33 2.42402 117.108 3.58349 116.204 4.96227C115.3 6.34104 114.739 7.90196 114.564 9.52361C114.508 10.0676 114.492 10.6147 114.516 11.1609C114.518 11.1969 114.527 11.2322 114.543 11.2646C114.56 11.2971 114.583 11.326 114.611 11.3497C114.639 11.3733 114.673 11.3913 114.708 11.4024C114.744 11.4136 114.782 11.4177 114.819 11.4145C114.856 11.4136 114.893 11.4054 114.927 11.3904C114.961 11.3755 114.992 11.3542 115.017 11.3276C115.042 11.3011 115.062 11.27 115.075 11.236C115.087 11.2021 115.092 11.1661 115.09 11.1301C115.061 10.6175 115.074 10.1034 115.13 9.59279C115.295 8.05397 115.827 6.57254 116.684 5.26381C117.541 3.95507 118.7 2.85432 120.071 2.04724C121.442 1.24017 122.988 0.748524 124.588 0.610579C126.189 0.472634 127.801 0.692107 129.299 1.25192C130.797 1.81173 132.141 2.69679 133.226 3.83819C134.311 4.9796 135.107 6.34657 135.553 7.83272C136 9.31887 136.084 10.8841 135.799 12.4066C135.514 13.9291 134.868 15.3678 133.911 16.6107C133.888 16.6392 133.871 16.6719 133.861 16.7069C133.851 16.7419 133.849 16.7785 133.854 16.8144C133.859 16.8503 133.872 16.8848 133.892 16.9158C133.911 16.9469 133.937 16.9738 133.967 16.9951C134.017 17.0256 134.076 17.0391 134.135 17.0335Z" fill="#E3E3E3"/>
        <path d="M101.123 40.6852C101.188 40.6837 101.25 40.6618 101.301 40.6229C101.351 40.584 101.387 40.5303 101.403 40.4699C101.45 40.2393 102.608 34.874 100.716 32.6987C100.662 32.6489 100.591 32.6211 100.516 32.6211C100.442 32.6211 100.37 32.6489 100.317 32.6987C100.264 32.7516 100.235 32.8217 100.235 32.8947C100.235 32.9677 100.264 33.0379 100.317 33.0907C102.034 35.0585 100.892 40.3393 100.884 40.3931C100.875 40.4279 100.874 40.464 100.881 40.4992C100.887 40.5343 100.901 40.5679 100.921 40.598C100.941 40.6281 100.967 40.654 100.998 40.6742C101.028 40.6944 101.063 40.7086 101.099 40.7159L101.123 40.6852Z" fill="#E3E3E3"/>
        <path d="M128.625 48.4492C128.625 48.4492 128.146 50.4324 125.119 49.4792C125.119 49.4792 127.419 49.5792 128.625 48.4492Z" fill="#E3E3E3"/>
        <path d="M129.208 54.2448C129.281 54.2469 129.352 54.2216 129.406 54.1742C129.459 54.1268 129.491 54.0611 129.496 53.9911C129.498 53.9548 129.493 53.9184 129.48 53.884C129.468 53.8496 129.448 53.818 129.423 53.7908C129.397 53.7637 129.367 53.7416 129.333 53.7259C129.299 53.7101 129.262 53.701 129.224 53.699C129.168 53.699 122.964 53.3531 119.331 51.9849C119.296 51.9713 119.259 51.9645 119.222 51.9649C119.184 51.9652 119.148 51.9728 119.113 51.9872C119.079 52.0015 119.048 52.0223 119.022 52.0483C118.996 52.0743 118.977 52.105 118.963 52.1386C118.949 52.1724 118.942 52.2086 118.942 52.2451C118.943 52.2816 118.95 52.3177 118.965 52.3513C118.98 52.3849 119.002 52.4153 119.029 52.4408C119.056 52.4663 119.088 52.4864 119.123 52.4999C122.836 53.8989 128.937 54.2371 129.192 54.2448H129.208Z" fill="#E3E3E3"/>
        <path d="M118.308 13.013C118.308 13.013 121.406 9.93833 127.02 13.7817C127.02 13.797 121.598 11.9984 118.308 13.013Z" fill="#E3E3E3"/>
        <path d="M125.478 56.4278C125.555 56.4278 125.627 56.3987 125.681 56.3468C125.735 56.2949 125.766 56.2245 125.766 56.1511C125.766 56.0777 125.735 56.0073 125.681 55.9554C125.627 55.9035 125.555 55.8744 125.478 55.8744C124.275 55.8212 123.081 55.6434 121.917 55.344C121.845 55.3215 121.767 55.3264 121.698 55.3579C121.63 55.3894 121.577 55.4449 121.55 55.5131C121.526 55.5825 121.531 55.6579 121.564 55.7237C121.597 55.7895 121.654 55.8407 121.725 55.8667C122.941 56.1816 124.189 56.3697 125.446 56.4278H125.478Z" fill="#E3E3E3"/>
        <path d="M85.623 128.712C89.0086 129.927 93.2727 129.819 97.7842 128.989C111.119 126.545 126.666 117.843 128.551 118.796C131.09 120.072 141.231 132.963 141.231 132.963C141.231 132.963 148.825 125.876 154.007 128.428C158.711 130.734 143.683 110.941 138.373 106.175C137.976 105.781 137.518 105.449 137.015 105.191C133.885 104.061 118.585 104.576 118.585 104.576C110.727 104.6 102.877 105.042 95.0694 105.898C91.0599 106.325 87.0058 106.151 83.0516 105.383C82.9607 105.516 82.8594 105.642 82.7483 105.76C80.5523 108.027 72.2 123.877 85.623 128.712Z" fill="#252525"/>
        <path d="M142.869 130.588C143.468 130.587 144.048 130.389 144.514 130.027C147.045 128.098 151.82 125.123 155.35 126.876C155.997 127.191 156.46 127.183 156.707 126.837C158.169 124.847 143.971 107.013 139.899 103.324C139.464 102.878 138.954 102.506 138.39 102.225C135.196 101.041 120.12 101.541 119.481 101.564C111.476 101.595 103.479 102.049 95.5255 102.924C95.4197 102.935 95.3228 102.987 95.2561 103.067C95.1895 103.147 95.1587 103.249 95.1703 103.351C95.182 103.453 95.235 103.546 95.3181 103.61C95.4012 103.674 95.5074 103.704 95.6133 103.693C103.54 102.818 111.511 102.363 119.489 102.332C119.665 102.332 135.028 101.817 138.102 102.947C138.572 103.182 138.994 103.497 139.348 103.877C144.881 108.897 156.117 124.37 156.053 126.322C155.937 126.29 155.824 126.246 155.717 126.192C151.788 124.239 146.702 127.383 144.019 129.428C143.821 129.577 143.594 129.687 143.352 129.752C143.109 129.816 142.856 129.833 142.606 129.802C142.356 129.772 142.116 129.693 141.898 129.572C141.68 129.451 141.489 129.29 141.336 129.097C137.871 124.739 131.754 117.275 129.782 116.268C129.055 115.892 127.49 116.337 123.066 118.151C122.971 118.192 122.895 118.267 122.857 118.36C122.818 118.454 122.818 118.558 122.859 118.651C122.878 118.698 122.907 118.741 122.944 118.777C122.98 118.813 123.024 118.841 123.073 118.861C123.121 118.88 123.173 118.89 123.225 118.889C123.278 118.889 123.329 118.879 123.377 118.859C124.974 118.19 128.792 116.637 129.406 116.945C130.764 117.636 134.876 122.233 140.697 129.558C140.915 129.835 141.189 130.067 141.501 130.24C141.814 130.413 142.16 130.524 142.518 130.565C142.634 130.581 142.752 130.589 142.869 130.588Z" fill="#E3E3E3"/>
        <path d="M91.958 128.136C94.1041 128.114 96.2432 127.895 98.3461 127.482C103.353 126.455 108.25 124.983 112.975 123.086C113.023 123.067 113.068 123.039 113.106 123.004C113.143 122.969 113.173 122.927 113.194 122.88C113.215 122.834 113.226 122.784 113.227 122.734C113.227 122.683 113.217 122.633 113.198 122.586C113.179 122.539 113.15 122.496 113.113 122.46C113.077 122.424 113.033 122.395 112.985 122.375C112.937 122.355 112.885 122.344 112.833 122.343C112.78 122.343 112.728 122.352 112.679 122.371C108 124.248 103.151 125.707 98.1944 126.729C93.1798 127.659 89.0913 127.567 86.041 126.46C82.2161 125.069 79.8605 122.617 79.038 119.242C77.5129 112.939 81.7927 104.983 83.3019 103.431C83.4327 103.295 83.5502 103.149 83.6532 102.993C83.6903 102.952 83.7183 102.904 83.7347 102.852C83.7511 102.8 83.7559 102.745 83.7488 102.691C83.7416 102.637 83.7224 102.585 83.693 102.539C83.6635 102.493 83.6246 102.453 83.578 102.422C83.5314 102.392 83.4783 102.371 83.4228 102.361C83.3673 102.352 83.3103 102.354 83.2555 102.367C83.2008 102.38 83.1497 102.404 83.1054 102.438C83.0611 102.472 83.0247 102.514 82.9986 102.562C82.9131 102.683 82.8197 102.799 82.719 102.908C81.122 104.584 76.6503 112.732 78.2633 119.419C79.1416 123.086 81.6652 125.691 85.7536 127.183C87.7454 127.857 89.8472 128.179 91.958 128.136Z" fill="#E3E3E3"/>
        <path d="M177.484 96.9751C177.551 96.9757 177.617 96.9598 177.676 96.9288C177.734 96.8978 177.784 96.8529 177.82 96.7983C177.877 96.7126 177.896 96.6087 177.874 96.5093C177.851 96.4098 177.789 96.323 177.7 96.2679C176.059 95.2328 174.295 94.3915 172.446 93.762C172.393 93.7469 172.338 93.7418 172.284 93.7472C172.229 93.7525 172.176 93.7681 172.128 93.7931C172.08 93.8181 172.037 93.8519 172.003 93.8928C171.968 93.9336 171.942 93.9806 171.927 94.0311C171.911 94.0815 171.906 94.1345 171.911 94.1869C171.917 94.2393 171.933 94.2902 171.959 94.3366C171.985 94.383 172.02 94.424 172.062 94.4573C172.105 94.4906 172.154 94.5156 172.206 94.5307C173.988 95.1369 175.688 95.9473 177.269 96.9443C177.335 96.9758 177.411 96.9866 177.484 96.9751Z" fill="#E3E3E3"/>
        <path d="M21.1122 209.97C21.1491 209.977 21.1872 209.977 21.2241 209.97L74.5164 194.32C74.5688 194.305 74.618 194.281 74.6607 194.248C74.7033 194.215 74.7384 194.174 74.7648 194.128C74.7911 194.082 74.8079 194.032 74.8139 193.979C74.8199 193.927 74.8151 193.874 74.7999 193.824C74.7847 193.773 74.7595 193.726 74.7254 193.685C74.6913 193.644 74.6488 193.61 74.601 193.585C74.5532 193.559 74.5009 193.543 74.4466 193.538C74.3924 193.532 74.3372 193.536 74.2848 193.551L20.9925 209.201C20.8917 209.233 20.8078 209.301 20.7586 209.392C20.7093 209.482 20.6987 209.587 20.7289 209.685C20.7516 209.767 20.8016 209.838 20.8708 209.89C20.9401 209.941 21.0248 209.969 21.1122 209.97Z" fill="#E3E3E3"/>
        <path d="M14.3582 173.12C14.4188 173.118 14.4786 173.105 14.534 173.081C19.1814 170.837 59.9211 151.151 60.8074 150.375C60.8868 150.307 60.9348 150.211 60.9408 150.108C60.9468 150.006 60.9103 149.906 60.8394 149.829C60.7685 149.753 60.6689 149.707 60.5626 149.701C60.4562 149.695 60.3519 149.73 60.2725 149.798C59.2025 150.567 26.6393 166.371 14.1746 172.39C14.082 172.437 14.0119 172.517 13.9792 172.613C13.9465 172.709 13.9534 172.814 13.9987 172.905C14.0309 172.97 14.082 173.025 14.1457 173.063C14.2094 173.101 14.2832 173.121 14.3582 173.12Z" fill="#E3E3E3"/>
        <path d="M0.399994 189.261C0.449934 189.272 0.501724 189.272 0.551664 189.261L21.2649 180.883C21.3607 180.842 21.4365 180.768 21.4767 180.675C21.5168 180.582 21.5182 180.477 21.4806 180.383C21.4605 180.336 21.4307 180.293 21.3932 180.257C21.3557 180.221 21.3113 180.192 21.2622 180.173C21.2132 180.154 21.1608 180.144 21.1078 180.145C21.0548 180.145 21.0021 180.156 20.9534 180.176L0.248325 188.554C0.199274 188.574 0.154793 188.602 0.117319 188.638C0.0798454 188.674 0.0500507 188.717 0.0299816 188.764C0.0099144 188.812 -0.000106812 188.862 0.000350952 188.913C0.000806808 188.964 0.0117989 189.015 0.032711 189.062C0.0676975 189.125 0.120844 189.178 0.185942 189.213C0.25104 189.249 0.325331 189.265 0.399994 189.261Z" fill="#E3E3E3"/>
        <path d="M60.5192 204.359C60.5562 204.366 60.5942 204.366 60.6311 204.359L91.4135 195.696C91.4644 195.682 91.512 195.659 91.5535 195.628C91.595 195.597 91.6295 195.558 91.6549 195.513C91.6802 195.469 91.6961 195.42 91.7013 195.369C91.7065 195.319 91.7007 195.268 91.6849 195.219C91.6552 195.121 91.5867 195.039 91.4938 194.99C91.401 194.941 91.2918 194.929 91.1901 194.958L60.4073 203.621C60.357 203.635 60.3102 203.658 60.2693 203.69C60.2284 203.722 60.1943 203.761 60.1691 203.805C60.1439 203.849 60.128 203.898 60.1223 203.948C60.1166 203.998 60.1213 204.049 60.136 204.097C60.1619 204.175 60.2131 204.242 60.2822 204.289C60.3513 204.337 60.4346 204.361 60.5192 204.359Z" fill="#E3E3E3"/>
        <path d="M34.6705 150.475C34.7285 150.485 34.7883 150.485 34.8463 150.475L66.5071 135.025C66.5997 134.977 66.6697 134.897 66.7025 134.801C66.7352 134.705 66.7278 134.601 66.6826 134.51C66.6597 134.464 66.6278 134.423 66.5882 134.39C66.5487 134.357 66.5025 134.331 66.4525 134.316C66.4026 134.3 66.3497 134.294 66.2974 134.298C66.245 134.302 66.1941 134.317 66.1476 134.34L34.4868 149.783C34.4047 149.821 34.3387 149.885 34.2997 149.965C34.2607 150.044 34.2513 150.134 34.2728 150.219C34.2942 150.305 34.3454 150.381 34.4178 150.434C34.4902 150.487 34.5792 150.515 34.6705 150.513V150.475Z" fill="#E3E3E3"/>
    </g>
    <defs>
        <clipPath id="clip0_4757_18002">
            <rect width="210" height="210" fill="white" transform="matrix(-1 0 0 1 210 0)"/>
        </clipPath>
    </defs>
</svg>
