<svg width="38" height="38" viewBox="0 0 38 38" fill="none" xmlns="http://www.w3.org/2000/svg">
    <path d="M16.61 5.4502C13.457 5.4502 10.3747 6.38518 7.75309 8.13691C5.13143 9.88864 3.0881 12.3784 1.88149 15.2915C0.674876 18.2045 0.359171 21.4099 0.974298 24.5024C1.58942 27.5948 3.10776 30.4354 5.33729 32.6649C7.56682 34.8945 10.4074 36.4128 13.4999 37.0279C16.5923 37.6431 19.7977 37.3274 22.7108 36.1207C25.6238 34.9141 28.1136 32.8708 29.8653 30.2491C31.617 27.6275 32.552 24.5453 32.552 21.3922H17.4071C17.1957 21.3922 16.993 21.3082 16.8435 21.1588C16.694 21.0093 16.61 20.8065 16.61 20.5951V5.4502Z" stroke="#161617" stroke-linecap="round" stroke-linejoin="round"/>
    <path d="M21.3906 15.8119C21.3906 16.0233 21.4746 16.2261 21.6241 16.3756C21.7736 16.525 21.9763 16.609 22.1877 16.609H37.3327C37.3327 12.3809 35.6531 8.32601 32.6633 5.3363C29.6736 2.34659 25.6187 0.666992 21.3906 0.666992V15.8119Z" stroke="#161617" stroke-linecap="round" stroke-linejoin="round"/>
</svg>
