<svg width="77" height="75" viewBox="0 0 77 75" fill="none" xmlns="http://www.w3.org/2000/svg">
    <path d="M76.7102 1.45366C76.9608 1.33755 77.0698 1.04032 76.9537 0.78977C76.8375 0.539223 76.5403 0.430238 76.2898 0.546345L76.7102 1.45366ZM2.56729 74.7505C2.70564 74.9895 3.01154 75.0711 3.25052 74.9327L7.14494 72.678C7.38392 72.5397 7.46549 72.2338 7.32713 71.9948C7.18877 71.7558 6.88288 71.6743 6.6439 71.8126L3.1822 73.8168L1.17805 70.3551C1.03969 70.1161 0.733799 70.0345 0.494819 70.1729C0.255838 70.3112 0.174266 70.6171 0.312624 70.8561L2.56729 74.7505ZM76.2898 0.546345C66.0018 5.31395 49.9862 14.7135 35.3347 27.435C20.6903 40.1501 7.35431 56.2308 2.51688 74.3712L3.48312 74.6288C8.24569 56.7692 21.4097 40.8499 35.9903 28.19C50.5638 15.5365 66.4982 6.18605 76.7102 1.45366L76.2898 0.546345Z" fill="#E3E3E3"/>
</svg>
