<svg width="576" height="220" viewBox="0 0 576 220" fill="none" xmlns="http://www.w3.org/2000/svg">
<path d="M331.029 161.486C373.189 151.603 385.429 124.372 360.419 97.0045C335.408 69.6373 259.419 62.5948 259.419 62.5948C259.419 60.313 257.555 50.7774 257.555 50.7774C259.221 45.9142 260.221 37.8361 260.636 33.8516C260.657 33.6143 260.616 33.3755 260.516 33.159C260.417 32.9426 260.262 32.7561 260.068 32.6183C259.874 32.4804 259.647 32.3959 259.41 32.3733C259.173 32.3507 258.935 32.3907 258.718 32.4894L243.473 39.3619C229.193 37.9111 214.491 41.8479 214.491 41.8479L196.05 38.5855C195.801 38.5406 195.545 38.566 195.309 38.659C195.074 38.752 194.869 38.9088 194.718 39.1118C194.567 39.3148 194.475 39.556 194.454 39.8084C194.432 40.0607 194.481 40.3141 194.595 40.5402L202.075 55.5247C198.144 72.7296 205.597 100.301 205.597 100.301C187.999 117.097 169.557 144.465 178.479 146.12C187.4 147.775 211.799 119.556 211.799 119.556C215.314 122.669 226.697 124.74 226.697 124.74C216.348 131.551 193.377 158.945 207.861 157.705C222.345 156.466 245.941 129.099 245.941 129.099C253.333 131.394 301.612 133.383 315.872 133.928C318.415 134.028 320.922 134.564 323.284 135.515C325.65 136.455 328.044 137.347 330.084 138.076C330.754 138.314 331.35 138.724 331.813 139.264C332.275 139.805 332.589 140.457 332.723 141.156C332.857 141.855 332.807 142.577 332.576 143.251C332.346 143.924 331.944 144.526 331.41 144.996C326.228 149.444 314.478 155.212 288.284 155.642C247.362 156.261 253.482 208.435 278.479 215.253C279.474 215.516 280.529 215.424 281.464 214.995C282.399 214.565 283.157 213.823 283.606 212.896C284.1 211.88 284.19 210.714 283.858 209.634C283.526 208.554 282.797 207.641 281.818 207.079C276.378 203.96 267.069 196.774 268.014 184.739C268.464 179.533 270.74 174.655 274.438 170.97C278.136 167.285 283.017 165.03 288.217 164.605C301.619 163.495 321.4 163.74 331.029 161.486Z" fill="#B8935D"/>
<path d="M196.707 63.5566C196.662 63.5557 196.618 63.546 196.577 63.528C196.536 63.5101 196.5 63.4843 196.469 63.452C196.438 63.4198 196.413 63.3818 196.397 63.3401C196.381 63.2984 196.373 63.254 196.374 63.2092C196.358 59.4014 196.743 55.6026 197.523 51.8756L189.907 36.639C189.761 36.3516 189.697 36.0288 189.725 35.7073C189.753 35.3858 189.87 35.0786 190.063 34.8205C190.256 34.56 190.517 34.3583 190.817 34.238C191.117 34.1177 191.445 34.0835 191.763 34.1394L208.689 37.1294C208.777 37.146 208.856 37.1967 208.908 37.2704C208.96 37.3442 208.981 37.4353 208.967 37.5245C208.96 37.5689 208.944 37.6113 208.92 37.6494C208.896 37.6875 208.865 37.7205 208.828 37.7465C208.792 37.7725 208.75 37.7909 208.706 37.8007C208.663 37.8105 208.617 37.8115 208.573 37.8037L191.641 34.8137C191.449 34.7758 191.25 34.7943 191.068 34.8667C190.886 34.9392 190.728 35.0625 190.614 35.2223C190.494 35.3772 190.42 35.5635 190.402 35.759C190.384 35.9546 190.422 36.1512 190.512 36.3257L198.237 51.7938V51.9095C197.447 55.6259 197.057 59.4164 197.074 63.2161C197.073 63.2629 197.063 63.309 197.044 63.3518C197.025 63.3945 196.997 63.4329 196.963 63.4647C196.929 63.4965 196.888 63.521 196.844 63.5368C196.8 63.5526 196.754 63.5594 196.707 63.5566Z" fill="white"/>
<path d="M190.005 110.315C189.923 110.314 189.843 110.286 189.78 110.233C189.713 110.173 189.671 110.088 189.665 109.998C189.659 109.908 189.688 109.819 189.746 109.749C193.321 105.509 197.112 101.456 201.102 97.6052C199.232 90.2149 197.869 82.7051 197.022 75.1285C197.012 75.0391 197.039 74.9495 197.095 74.8794C197.151 74.8092 197.232 74.7641 197.321 74.7538C197.366 74.7491 197.411 74.7534 197.454 74.7663C197.497 74.7792 197.537 74.8005 197.572 74.829C197.607 74.8575 197.636 74.8925 197.657 74.9322C197.678 74.9719 197.691 75.0155 197.695 75.0603C198.546 82.6707 199.923 90.2129 201.816 97.6325L201.87 97.83L201.721 97.9662C197.695 101.852 193.873 105.944 190.27 110.226C190.235 110.259 190.193 110.284 190.147 110.3C190.101 110.315 190.053 110.32 190.005 110.315Z" fill="white"/>
<path d="M202.883 156.93C200.741 156.93 199.402 156.215 198.905 154.784C196.702 148.436 213.287 129.29 222.25 122.956C219.591 122.425 211.206 120.586 207.881 117.943C205.318 120.878 183.884 145.065 174.507 145.065C174.217 145.068 173.928 145.043 173.643 144.99C173.127 144.924 172.637 144.722 172.224 144.404C171.812 144.085 171.492 143.662 171.298 143.178C169.938 139.875 173.283 132.083 180.45 121.791C180.475 121.755 180.508 121.723 180.545 121.699C180.582 121.675 180.624 121.659 180.668 121.651C180.711 121.644 180.756 121.645 180.799 121.655C180.843 121.665 180.883 121.683 180.919 121.709C180.993 121.76 181.043 121.838 181.06 121.926C181.076 122.014 181.058 122.105 181.008 122.179C174.079 132.13 170.685 139.888 171.93 142.919C172.081 143.297 172.332 143.627 172.655 143.874C172.978 144.121 173.362 144.276 173.766 144.322C182.606 145.971 207.337 117.534 207.589 117.241L207.813 116.982L208.072 117.214C211.56 120.3 223.032 122.425 223.174 122.445L224.004 122.595L223.324 123.065C214.919 128.623 197.484 148.429 199.578 154.559C200.027 155.86 201.448 156.412 203.815 156.215C207.031 155.935 210.982 154.335 215.545 151.447C215.582 151.422 215.625 151.405 215.669 151.397C215.713 151.39 215.759 151.391 215.803 151.401C215.846 151.411 215.888 151.43 215.924 151.457C215.96 151.483 215.991 151.517 216.014 151.556C216.039 151.593 216.056 151.636 216.063 151.68C216.071 151.724 216.07 151.77 216.06 151.814C216.05 151.858 216.031 151.899 216.004 151.936C215.978 151.972 215.944 152.003 215.905 152.026C211.247 154.968 207.201 156.603 203.869 156.889C203.525 156.916 203.196 156.93 202.883 156.93Z" fill="white"/>
<path d="M224.657 145.445C224.607 145.446 224.557 145.435 224.511 145.414C224.465 145.392 224.424 145.361 224.392 145.322C224.336 145.253 224.309 145.163 224.318 145.074C224.327 144.985 224.371 144.903 224.44 144.846C230.9 139.341 236.96 133.382 242.575 127.014L242.725 126.844L242.936 126.912C245.17 127.46 247.444 127.835 249.736 128.036C249.825 128.048 249.907 128.094 249.963 128.165C250.019 128.237 250.044 128.327 250.035 128.417C250.023 128.507 249.976 128.589 249.905 128.645C249.834 128.701 249.744 128.726 249.654 128.717C247.39 128.508 245.143 128.144 242.929 127.627C237.326 133.947 231.286 139.864 224.855 145.336C224.803 145.394 224.734 145.432 224.657 145.445Z" fill="white"/>
<path d="M286.942 219.639C286.569 219.64 286.199 219.589 285.84 219.489C279.843 217.895 271.56 213.822 266.12 203.483C261.408 194.56 259.184 181.006 264.821 170.789C269.16 162.923 277.456 158.311 288.818 157.46C313.428 155.614 327.578 154.15 332.753 145.513C333.223 144.729 333.501 143.844 333.565 142.932C333.628 142.019 333.476 141.104 333.12 140.262C332.765 139.398 332.21 138.63 331.5 138.023C330.791 137.415 329.948 136.985 329.04 136.768L319.779 134.472C319.736 134.462 319.695 134.443 319.659 134.417C319.624 134.391 319.593 134.358 319.571 134.32C319.548 134.282 319.533 134.239 319.527 134.195C319.52 134.151 319.523 134.107 319.534 134.064C319.555 133.976 319.61 133.901 319.686 133.854C319.763 133.806 319.854 133.791 319.942 133.812L329.204 136.107C330.211 136.353 331.145 136.834 331.931 137.511C332.717 138.189 333.332 139.042 333.725 140.003C334.125 140.943 334.296 141.965 334.225 142.985C334.155 144.004 333.843 144.992 333.317 145.868C327.735 155.219 312.238 156.384 288.846 158.128C277.728 158.959 269.622 163.447 265.393 171.103C259.878 181.101 262.074 194.417 266.698 203.176C272.043 213.305 280.162 217.289 286.024 218.842C286.558 218.984 287.117 219 287.658 218.89C288.199 218.78 288.708 218.547 289.145 218.209C289.588 217.87 289.948 217.433 290.194 216.932C290.441 216.431 290.568 215.879 290.566 215.321C290.571 214.481 290.284 213.667 289.754 213.017C289.224 212.366 288.484 211.922 287.663 211.759C275.3 209.402 267.786 195.555 268.521 184.105C269.201 173.058 276.823 166.035 288.825 165.327C320.037 163.474 341.797 156.629 342.015 156.561C358.64 150.588 369.371 140.895 372.227 129.351C374.947 118.378 370.656 106.343 359.864 94.5524C354.533 88.7289 346.482 83.355 335.942 78.5872C335.901 78.5695 335.864 78.5436 335.833 78.5112C335.802 78.4788 335.778 78.4406 335.762 78.3986C335.746 78.3566 335.739 78.3119 335.741 78.2671C335.742 78.2222 335.753 78.1781 335.772 78.1375C335.809 78.0555 335.877 77.9915 335.961 77.9596C336.046 77.9277 336.139 77.9304 336.221 77.9673C346.849 82.7759 354.968 88.1841 360.361 94.0893C371.316 106.063 375.647 118.31 372.886 129.507C369.976 141.304 359.089 151.139 342.232 157.201C342.008 157.276 320.16 164.142 288.866 165.994C277.238 166.675 269.887 173.487 269.201 184.139C268.48 195.303 275.776 208.789 287.792 211.084C288.768 211.277 289.648 211.805 290.278 212.577C290.908 213.349 291.251 214.317 291.246 215.314C291.244 215.973 291.091 216.623 290.799 217.213C290.506 217.804 290.082 218.319 289.56 218.719C288.815 219.312 287.893 219.636 286.942 219.639Z" fill="white"/>
<path d="M306.172 68.357H306.083C289.821 64.1861 273.279 61.195 256.587 59.4071H256.274V59.0938C256.274 56.8189 254.39 47.1539 254.377 47.0518V46.9631V46.8747C256.049 41.9979 257.096 33.9335 257.525 29.6084C257.546 29.4238 257.517 29.2368 257.441 29.0676C257.364 28.8984 257.243 28.7534 257.09 28.6481C256.94 28.5377 256.763 28.4694 256.577 28.4502C256.392 28.431 256.205 28.4618 256.036 28.5392L243.524 34.2127C243.442 34.2496 243.348 34.2525 243.264 34.2205C243.18 34.1886 243.112 34.1245 243.075 34.0424C243.056 34.0019 243.045 33.9579 243.043 33.9131C243.041 33.8682 243.049 33.8235 243.065 33.7815C243.081 33.7396 243.105 33.7012 243.136 33.6688C243.167 33.6364 243.204 33.6106 243.245 33.593L255.757 27.9192C256.035 27.7907 256.343 27.7394 256.648 27.7706C256.953 27.8017 257.244 27.9142 257.491 28.0963C257.734 28.2755 257.925 28.5164 258.045 28.7941C258.164 29.0718 258.208 29.3764 258.171 29.6766C257.715 34.0357 256.702 42.0592 255.023 47.0109C255.22 48.0189 256.784 56.1378 256.913 58.7873C273.543 60.5868 290.022 63.5754 306.226 67.7303C306.27 67.7414 306.31 67.7611 306.346 67.788C306.382 67.8149 306.412 67.8487 306.435 67.8873C306.458 67.9259 306.472 67.9684 306.479 68.0128C306.485 68.0572 306.482 68.1025 306.471 68.1458C306.446 68.2055 306.404 68.2569 306.351 68.2942C306.299 68.3315 306.236 68.3533 306.172 68.357Z" fill="white"/>
<path d="M275.354 135.903C260.714 135.168 253.016 133.479 252.486 130.863C252.078 128.895 252.663 126.817 254.165 124.862C257.654 120.333 265.127 117.37 274.157 116.853C277.142 116.696 280.046 116.655 282.854 116.621C289.906 116.526 295.999 116.444 297.06 114.298C297.488 113.447 297.06 112.173 295.87 110.518C289.865 102.345 287.744 96.2488 294.686 89.2947C294.717 89.2621 294.754 89.2361 294.795 89.2183C294.836 89.2006 294.88 89.1914 294.924 89.1914C294.969 89.1914 295.013 89.2006 295.054 89.2183C295.095 89.2361 295.132 89.2621 295.162 89.2947C295.194 89.3263 295.219 89.3639 295.237 89.4054C295.254 89.4469 295.263 89.4915 295.263 89.5365C295.263 89.5814 295.254 89.6258 295.237 89.6673C295.219 89.7088 295.194 89.7466 295.162 89.7782C288.573 96.385 290.634 102.236 296.42 110.116C297.814 112.017 298.229 113.488 297.671 114.605C296.42 117.118 290.443 117.2 282.868 117.329C280.06 117.363 277.163 117.404 274.191 117.561C265.494 118.031 258.028 121 254.703 125.305C253.343 127.096 252.785 128.983 253.152 130.754C253.363 131.782 255.947 134.275 275.388 135.249C275.477 135.255 275.56 135.295 275.62 135.361C275.68 135.427 275.711 135.514 275.708 135.604C275.697 135.689 275.655 135.767 275.59 135.823C275.524 135.879 275.44 135.907 275.354 135.903Z" fill="white"/>
<path d="M294.86 136.183C294.771 136.181 294.687 136.146 294.623 136.084C294.56 136.022 294.523 135.938 294.52 135.849C294.519 135.759 294.554 135.673 294.616 135.608C294.678 135.543 294.763 135.505 294.853 135.502C302.333 135.372 308.738 134.971 311.948 134.433C322.467 132.675 321.468 124.175 321.427 123.814C321.421 123.769 321.425 123.724 321.437 123.68C321.449 123.637 321.469 123.596 321.497 123.561C321.525 123.525 321.559 123.496 321.599 123.474C321.638 123.452 321.681 123.438 321.726 123.433C321.815 123.421 321.906 123.445 321.977 123.5C322.048 123.555 322.095 123.636 322.107 123.726C322.107 123.821 323.236 133.261 312.057 135.107C308.82 135.645 302.394 136.047 294.866 136.183H294.86Z" fill="white"/>
<path d="M254.399 130.563C254.308 130.563 254.222 130.527 254.158 130.463C254.094 130.4 254.059 130.313 254.059 130.222C254.059 126.313 259.941 122.819 260.179 122.669C260.217 122.646 260.259 122.631 260.303 122.624C260.348 122.618 260.392 122.621 260.436 122.632C260.479 122.644 260.519 122.664 260.554 122.691C260.59 122.718 260.619 122.753 260.641 122.792C260.686 122.87 260.698 122.964 260.675 123.051C260.652 123.139 260.596 123.215 260.519 123.261C260.464 123.296 254.725 126.708 254.725 130.222C254.725 130.31 254.691 130.395 254.63 130.459C254.569 130.522 254.486 130.559 254.399 130.563Z" fill="white"/>
<path d="M259.51 132.186C259.42 132.186 259.334 132.15 259.27 132.086C259.206 132.022 259.17 131.935 259.17 131.845C259.136 130.477 259.467 129.125 260.128 127.928C260.789 126.731 261.756 125.732 262.931 125.034C263.01 124.993 263.102 124.985 263.188 125.012C263.273 125.038 263.344 125.098 263.386 125.177C263.408 125.217 263.421 125.26 263.425 125.305C263.429 125.35 263.425 125.395 263.412 125.438C263.398 125.481 263.376 125.521 263.348 125.556C263.319 125.591 263.283 125.619 263.244 125.64C262.182 126.278 261.308 127.187 260.711 128.273C260.114 129.359 259.815 130.585 259.844 131.825C259.846 131.87 259.84 131.916 259.824 131.96C259.809 132.003 259.785 132.043 259.754 132.076C259.723 132.11 259.685 132.137 259.643 132.156C259.601 132.175 259.556 132.185 259.51 132.186Z" fill="white"/>
<path d="M201.569 153.668H201.501C201.458 153.658 201.416 153.64 201.379 153.614C201.342 153.588 201.311 153.555 201.287 153.517C201.263 153.479 201.247 153.437 201.239 153.392C201.232 153.348 201.233 153.303 201.243 153.259C201.297 153 202.664 146.979 204.759 145.549C204.834 145.498 204.926 145.48 205.015 145.496C205.104 145.513 205.182 145.563 205.235 145.637C205.283 145.713 205.301 145.805 205.285 145.893C205.268 145.982 205.219 146.061 205.146 146.114C203.269 147.395 201.916 153.347 201.903 153.409C201.884 153.483 201.841 153.549 201.781 153.596C201.72 153.643 201.646 153.668 201.569 153.668Z" fill="white"/>
<path d="M204.949 153.667H204.854C204.811 153.654 204.771 153.632 204.736 153.604C204.702 153.575 204.673 153.539 204.652 153.5C204.631 153.46 204.618 153.416 204.615 153.371C204.611 153.326 204.616 153.281 204.629 153.238C204.691 153.04 206.153 148.341 208.165 147.19C208.243 147.145 208.335 147.133 208.422 147.156C208.508 147.179 208.582 147.235 208.628 147.312C208.651 147.351 208.665 147.394 208.671 147.438C208.677 147.483 208.674 147.528 208.661 147.571C208.649 147.615 208.629 147.655 208.601 147.69C208.573 147.725 208.538 147.754 208.499 147.775C206.724 148.797 205.289 153.395 205.275 153.436C205.253 153.504 205.21 153.564 205.151 153.606C205.092 153.648 205.021 153.669 204.949 153.667Z" fill="white"/>
<path d="M225.587 66.4782C225.474 66.4773 225.362 66.4525 225.259 66.4055C225.156 66.3586 225.064 66.2905 224.989 66.2057L223.228 64.2101C223.122 64.0954 223.053 63.9521 223.029 63.7982C223.005 63.6443 223.027 63.4866 223.092 63.345C223.155 63.2036 223.258 63.0838 223.389 63.0003C223.519 62.9168 223.671 62.8734 223.826 62.8751H227.349C227.503 62.8725 227.656 62.9157 227.786 62.9993C227.917 63.0829 228.02 63.2031 228.083 63.345C228.149 63.4859 228.172 63.6433 228.149 63.7972C228.126 63.9511 228.058 64.0946 227.954 64.2101L226.193 66.2057C226.116 66.2907 226.023 66.3588 225.918 66.4057C225.814 66.4526 225.701 66.4774 225.587 66.4782ZM223.826 63.5562C223.803 63.5546 223.78 63.5603 223.761 63.5725C223.741 63.5848 223.726 63.603 223.717 63.6244C223.703 63.6442 223.695 63.6679 223.695 63.6924C223.695 63.7169 223.703 63.7408 223.717 63.7606L225.479 65.7562C225.54 65.8243 225.594 65.8243 225.662 65.7562L227.423 63.7606C227.438 63.7408 227.445 63.7169 227.445 63.6924C227.445 63.6679 227.438 63.6442 227.423 63.6244C227.413 63.6024 227.397 63.5839 227.376 63.5717C227.356 63.5595 227.332 63.5541 227.308 63.5562H223.826Z" fill="white"/>
<path d="M220.406 69.5976C219.378 69.5747 218.389 69.1998 217.604 68.5352C217.533 68.48 217.487 68.3987 217.475 68.3094C217.464 68.22 217.488 68.1297 217.543 68.0583C217.599 67.9886 217.68 67.9433 217.769 67.9319C217.857 67.9205 217.947 67.9439 218.019 67.9971C218.423 68.349 218.899 68.6085 219.413 68.7579C219.927 68.9072 220.468 68.9429 220.997 68.8621C223.275 68.4535 224.935 65.8244 224.955 65.7971C225.004 65.7216 225.08 65.668 225.168 65.6477C225.255 65.6273 225.347 65.6418 225.424 65.6881C225.5 65.737 225.553 65.8134 225.573 65.9011C225.594 65.9887 225.579 66.081 225.533 66.1581C225.458 66.2807 223.697 69.0732 221.12 69.5296C220.884 69.5725 220.645 69.5952 220.406 69.5976Z" fill="white"/>
<path d="M230.496 69.9375C227.26 69.9375 225.641 66.1575 225.621 66.1098C225.589 66.0265 225.59 65.934 225.624 65.8516C225.658 65.7691 225.723 65.7032 225.804 65.6672C225.845 65.6492 225.889 65.6395 225.933 65.6387C225.977 65.638 226.021 65.6462 226.063 65.6627C226.104 65.6792 226.141 65.7037 226.173 65.7348C226.204 65.766 226.229 65.8031 226.246 65.8441C226.328 66.0348 228.239 70.4552 232.047 68.9363C232.088 68.9197 232.133 68.9116 232.177 68.9122C232.222 68.9128 232.266 68.9223 232.307 68.94C232.348 68.9577 232.386 68.9834 232.417 69.0155C232.448 69.0476 232.472 69.0854 232.489 69.1271C232.505 69.1686 232.514 69.2132 232.513 69.2579C232.512 69.3027 232.503 69.3468 232.485 69.388C232.468 69.4291 232.442 69.4663 232.41 69.4975C232.378 69.5287 232.34 69.5534 232.299 69.5699C231.727 69.8073 231.115 69.932 230.496 69.9375Z" fill="white"/>
<path d="M207.35 59.6397L206.595 59.374C204.113 58.4953 202.338 57.0242 201.971 55.5189C201.87 55.1629 201.864 54.7864 201.955 54.4275C202.046 54.0687 202.23 53.7402 202.488 53.4755C202.772 53.1745 203.163 52.9982 203.576 52.9852L206.922 52.9102H207.54L207.221 53.4414C206.73 54.3355 206.484 55.3435 206.507 56.3635C206.496 57.2347 206.67 58.0982 207.017 58.8972L207.35 59.6397ZM206.364 53.6254L203.603 53.6935C203.488 53.6955 203.375 53.7206 203.27 53.7674C203.164 53.8142 203.07 53.8817 202.991 53.9659C202.818 54.1421 202.694 54.3605 202.631 54.5993C202.568 54.8382 202.568 55.0893 202.631 55.3282C202.91 56.452 204.249 57.6304 206.119 58.4273C205.922 57.7526 205.824 57.0528 205.827 56.3498C205.82 55.4146 206.003 54.4877 206.364 53.6254Z" fill="white"/>
<path d="M210.974 60.1495C210.688 60.1495 210.396 60.1495 210.103 60.1086L209.484 60.0609L209.858 59.5637C210.481 58.6202 210.794 57.5062 210.756 56.3761C210.779 55.348 210.528 54.3323 210.028 53.4337L209.709 52.916H210.321C219.943 52.916 220.521 53.7266 220.766 54.0263C220.912 54.2515 220.985 54.5167 220.974 54.7852C220.963 55.0538 220.869 55.3122 220.704 55.5247C219.603 57.5204 215.387 60.1495 210.974 60.1495ZM210.729 59.4684C215.21 59.5842 219.242 56.7439 220.106 55.2046C220.215 55.0071 220.378 54.646 220.222 54.4417C220.065 54.2374 219.202 53.6448 210.885 53.6039C211.261 54.4813 211.449 55.4282 211.436 56.3829C211.456 57.4517 211.213 58.5091 210.729 59.4616V59.4684Z" fill="white"/>
<path d="M210.293 60.1165H210.15H209.96C208.819 60.0111 207.696 59.7663 206.614 59.3876L206.478 59.3401L206.417 59.2037C206.028 58.3179 205.833 57.3586 205.846 56.3908C205.817 55.245 206.1 54.1129 206.662 53.1146L206.757 52.9512H206.947C207.974 52.9512 209.13 52.9512 210.347 52.9512H210.538L210.633 53.1146C211.203 54.1178 211.49 55.2574 211.462 56.4113C211.506 57.6915 211.144 58.9527 210.429 60.0144L210.293 60.1165ZM206.954 58.7543C207.93 59.086 208.941 59.3031 209.967 59.4013C210.51 58.481 210.784 57.4257 210.755 56.3567C210.774 55.3926 210.557 54.4387 210.123 53.5779H207.131C206.703 54.4358 206.489 55.3843 206.505 56.3431C206.493 57.1754 206.646 58.0019 206.954 58.7747V58.7543Z" fill="white"/>
<path d="M235.502 59.2383L234.72 59.0407C232.17 58.3596 230.273 57.0791 229.77 55.6351C229.645 55.2947 229.61 54.9277 229.668 54.5697C229.726 54.2117 229.876 53.8747 230.103 53.5918C230.229 53.4278 230.387 53.291 230.566 53.1892C230.746 53.0874 230.945 53.0229 231.15 52.9993L234.475 52.6247L235.087 52.5566L234.815 53.115C234.406 54.0501 234.249 55.0766 234.36 56.0916C234.429 56.9591 234.681 57.8019 235.101 58.564L235.502 59.2383ZM233.979 53.3399C232.748 53.4693 231.769 53.585 231.259 53.6531C231.145 53.6631 231.034 53.6967 230.933 53.7518C230.832 53.8069 230.744 53.8823 230.674 53.9733C230.513 54.1674 230.406 54.4007 230.365 54.6495C230.323 54.8984 230.347 55.1538 230.436 55.39C230.817 56.4866 232.258 57.5424 234.19 58.169C233.93 57.5157 233.769 56.8269 233.714 56.1257C233.6 55.1906 233.681 54.242 233.952 53.3399H233.979Z" fill="white"/>
<path d="M237.658 59.4683L237.984 58.937C238.523 57.9425 238.739 56.8046 238.603 55.6813C238.531 54.6544 238.188 53.665 237.61 52.8138L237.25 52.3303L237.855 52.2757C247.443 51.4244 248.109 52.1668 248.361 52.4392C248.519 52.6556 248.61 52.9138 248.622 53.1815C248.634 53.4493 248.567 53.7147 248.429 53.9444C247.45 56.1649 242.989 59.3934 238.277 59.4615L237.658 59.4683ZM238.481 52.9023C238.935 53.7438 239.207 54.6724 239.276 55.6268C239.389 56.6927 239.242 57.7702 238.848 58.7668C243.329 58.4739 247.083 55.3204 247.804 53.6789C247.899 53.4677 248.021 53.093 247.851 52.9023C247.681 52.7116 246.763 52.2008 238.481 52.9023Z" fill="white"/>
<path d="M238.186 59.4623H238.125C236.978 59.4611 235.837 59.3192 234.725 59.0399L234.582 58.9992L234.514 58.8765C234.048 58.038 233.767 57.1088 233.691 56.152C233.566 55.0133 233.744 53.8618 234.208 52.8146L234.29 52.6443H234.48L237.88 52.3242H238.07L238.179 52.4809C238.839 53.4274 239.227 54.5369 239.301 55.6889C239.469 56.9561 239.231 58.2439 238.621 59.367L238.533 59.51H238.363L238.186 59.4623ZM235.024 58.4133C236.024 58.6524 237.049 58.7758 238.077 58.7812C238.539 57.8179 238.72 56.7438 238.601 55.6821C238.531 54.7155 238.228 53.7804 237.717 52.9576C236.663 53.053 235.677 53.1483 234.738 53.2436C234.388 54.1349 234.258 55.0974 234.358 56.0499C234.421 56.8806 234.648 57.6907 235.024 58.4338V58.4133Z" fill="white"/>
<path d="M237.746 34.5956L236.386 31.3671L232.734 22.5876L229.164 13.9851L225.084 4.12256C224.974 3.88853 224.8 3.69063 224.582 3.55203C224.364 3.41342 224.112 3.33984 223.853 3.33984C223.595 3.33984 223.343 3.41342 223.125 3.55203C222.907 3.69063 222.733 3.88853 222.623 4.12256L220.617 9.01291L217.72 16.083L215.762 20.8507L212.858 27.9206L208.968 37.4221C208.544 38.4477 208.507 39.5931 208.865 40.6438C209.223 41.6944 209.951 42.5783 210.913 43.1299C221.168 48.933 231.313 43.5046 236.155 40.0717C236.652 39.7228 237.074 39.2755 237.392 38.7572C237.779 38.1425 238.013 37.4437 238.075 36.7196C238.136 35.9954 238.024 35.267 237.746 34.5956Z" fill="#804F55"/>
<path d="M235.781 22.2251C231.201 20.9949 226.842 19.0551 222.861 16.4764C222.669 16.3432 222.529 16.1481 222.463 15.9238C222.397 15.6994 222.411 15.4595 222.5 15.2437L224.704 9.8696C224.761 9.72622 224.85 9.59786 224.965 9.49429C225.079 9.39073 225.216 9.31467 225.364 9.27197C225.512 9.22927 225.668 9.22101 225.82 9.24786C225.972 9.2747 226.116 9.33602 226.24 9.42695C228.572 11.1037 231.081 12.5198 233.72 13.6498C233.964 13.7551 234.159 13.9502 234.264 14.1947L237.025 20.8424C237.104 21.0224 237.129 21.2212 237.097 21.4151C237.066 21.609 236.979 21.7898 236.848 21.9357C236.717 22.0816 236.546 22.1866 236.357 22.2379C236.168 22.2892 235.968 22.2847 235.781 22.2251Z" fill="#161617"/>
<path d="M236.767 23.6977L236.087 23.5274C229.648 21.9064 224.344 19.611 220.339 16.7163L220.121 16.5597L223.406 8.54297L223.759 8.81535C226.469 10.9016 229.441 12.6214 232.599 13.9305L232.728 13.9851L236.767 23.6977ZM220.978 16.3212C224.697 18.9571 229.743 21.1572 235.618 22.6965L232.218 14.5232C229.193 13.2556 226.338 11.6151 223.718 9.63963L220.978 16.3212Z" fill="white"/>
<path d="M240.268 38.1292C234.373 37.0462 224.458 34.4375 218.366 28.5936C218.1 28.334 217.917 28.0011 217.841 27.6373C217.764 27.2734 217.798 26.895 217.937 26.5502L219.297 23.1447C219.41 22.8736 219.586 22.6334 219.81 22.4438C220.034 22.2541 220.299 22.1205 220.585 22.054C220.871 21.9875 221.168 21.9899 221.452 22.0611C221.737 22.1324 222 22.2703 222.221 22.4636C227.227 26.7862 233.288 29.7028 239.786 30.9163C240.092 30.9737 240.38 31.1063 240.624 31.3024C240.867 31.4985 241.058 31.752 241.179 32.0401L242.118 34.2946C242.418 35.0199 242.526 35.8105 242.431 36.5898C242.391 36.8339 242.304 37.0677 242.173 37.2776C242.043 37.4875 241.872 37.6692 241.671 37.8124C241.47 37.9556 241.242 38.0575 241.001 38.1119C240.76 38.1662 240.511 38.172 240.268 38.1292Z" fill="#161617"/>
<path d="M241.187 40.4121L240.963 40.378C234.272 39.3018 222.025 36.4003 215.252 29.0034L215.109 28.8468L218.407 20.8164L218.768 21.1842C224.548 26.9569 232.007 30.7459 240.072 32.0071H240.262L241.724 35.542C242.035 36.2922 242.161 37.1059 242.094 37.9151C242.026 38.7243 241.767 39.5057 241.337 40.1941L241.187 40.4121ZM215.905 28.7038C222.487 35.7465 234.265 38.5866 240.847 39.6696C241.171 39.0875 241.359 38.4397 241.398 37.7746C241.437 37.1095 241.325 36.4441 241.072 35.8282L239.752 32.6473C231.805 31.351 224.447 27.6422 218.673 22.022L215.905 28.7038Z" fill="white"/>
<path d="M223.45 47.5895C219.891 47.5828 216.396 46.6435 213.311 44.865C212.238 44.2513 211.426 43.2662 211.026 42.0949C210.627 40.9235 210.668 39.6464 211.142 38.5034L226.932 0L241.694 35.5473C242.006 36.2972 242.134 37.1112 242.066 37.9207C241.999 38.7302 241.738 39.5116 241.307 40.1993C240.958 40.7753 240.495 41.2736 239.947 41.6637C238.726 42.5366 237.451 43.3327 236.132 44.0476C236.093 44.0691 236.05 44.0828 236.005 44.0876C235.961 44.0925 235.915 44.0885 235.872 44.0758C235.829 44.0632 235.789 44.042 235.755 44.0138C235.72 43.9856 235.691 43.9508 235.67 43.9114C235.648 43.8726 235.635 43.8299 235.63 43.7858C235.625 43.7417 235.629 43.6971 235.642 43.6546C235.655 43.6121 235.676 43.5727 235.704 43.5384C235.732 43.5041 235.766 43.4758 235.806 43.4551C237.1 42.7489 238.351 41.9665 239.552 41.1121C240.031 40.7755 240.436 40.3443 240.742 39.8451C241.116 39.2479 241.343 38.5696 241.402 37.867C241.461 37.1644 241.351 36.4578 241.082 35.8062L226.945 1.75051L211.788 38.735C211.375 39.7229 211.338 40.8277 211.682 41.8414C212.027 42.8552 212.729 43.7077 213.658 44.2383C217.813 46.6173 222.684 47.4177 227.38 46.4928C227.425 46.485 227.47 46.4862 227.514 46.496C227.558 46.5058 227.599 46.5242 227.636 46.5502C227.672 46.5762 227.704 46.609 227.727 46.6471C227.751 46.6852 227.767 46.7277 227.775 46.772C227.791 46.8605 227.771 46.9518 227.72 47.0258C227.669 47.0998 227.591 47.1506 227.503 47.1671C226.167 47.4283 224.811 47.5697 223.45 47.5895Z" fill="white"/>
<path d="M225.648 91.0526C216.146 90.9649 207.046 87.1961 200.257 80.5363C200.225 80.5046 200.2 80.467 200.182 80.4255C200.165 80.384 200.156 80.3394 200.156 80.2945C200.156 80.2495 200.165 80.2051 200.182 80.1636C200.2 80.1221 200.225 80.0844 200.257 80.0527C200.288 80.0208 200.326 79.9955 200.368 79.9782C200.409 79.9609 200.453 79.9519 200.498 79.9519C200.543 79.9519 200.588 79.9609 200.629 79.9782C200.67 79.9955 200.708 80.0208 200.74 80.0527C200.869 80.1957 214.095 94.4446 234.699 89.1796C245.463 86.4551 251.644 80.6862 254.942 76.3543C257.013 73.7131 258.578 70.7111 259.559 67.4998C259.569 67.4562 259.587 67.4149 259.613 67.3786C259.639 67.3423 259.672 67.3118 259.71 67.2888C259.749 67.2658 259.791 67.2509 259.835 67.2451C259.88 67.2392 259.924 67.2424 259.967 67.2545C260.055 67.2756 260.13 67.3304 260.177 67.407C260.224 67.4836 260.239 67.5757 260.219 67.6633C260.178 67.8335 255.874 84.4664 234.869 89.8336C231.858 90.6218 228.76 91.0312 225.648 91.0526Z" fill="white"/>
<path d="M226.648 99.4846C226.009 99.4901 225.387 99.2802 224.881 98.8886C224.375 98.497 224.016 97.9465 223.86 97.3255C222.5 93.1299 228.654 90.3577 228.919 90.2419L229.049 90.1875L229.178 90.2351C229.388 90.3168 230.442 90.9161 231.014 94.6214C231.374 96.9576 229.484 98.9124 227.519 99.3892C227.233 99.4533 226.941 99.4853 226.648 99.4846ZM229.021 90.9503C228.056 91.4202 223.452 93.8586 224.506 97.1212C224.579 97.4197 224.713 97.7 224.899 97.9445C225.085 98.1889 225.319 98.3923 225.587 98.5419C225.855 98.6915 226.151 98.784 226.457 98.8138C226.762 98.8436 227.07 98.8099 227.362 98.7149C229.035 98.3198 230.633 96.6171 230.34 94.7236C229.932 92.0537 229.273 91.1886 229.021 90.9503Z" fill="white"/>
<path d="M231.91 99.4836C231.619 99.4817 231.329 99.4475 231.046 99.3815C229.081 98.9116 227.184 96.9568 227.544 94.6137C228.122 90.9085 229.176 90.309 229.38 90.2272L229.509 90.1797L229.639 90.2341C229.904 90.3499 236.058 93.1221 234.705 97.3177C234.548 97.9399 234.187 98.4915 233.681 98.8842C233.174 99.2768 232.55 99.4879 231.91 99.4836ZM229.543 90.9493C229.285 91.1877 228.632 92.0527 228.218 94.7227C227.925 96.6162 229.523 98.3188 231.203 98.7139C231.494 98.8079 231.802 98.8408 232.108 98.8105C232.413 98.7803 232.708 98.6876 232.976 98.5381C233.244 98.3887 233.478 98.1858 233.664 97.9418C233.851 97.6979 233.985 97.4182 234.059 97.1202C235.079 93.8509 230.482 91.4192 229.516 90.9493H229.543Z" fill="white"/>
<path d="M575.735 104H382.265C382.195 104 382.127 103.947 382.078 103.854C382.028 103.76 382 103.633 382 103.5C382 103.367 382.028 103.24 382.078 103.146C382.127 103.053 382.195 103 382.265 103H575.735C575.805 103 575.873 103.053 575.922 103.146C575.972 103.24 576 103.367 576 103.5C576 103.633 575.972 103.76 575.922 103.854C575.873 103.947 575.805 104 575.735 104Z" fill="white"/>
<path d="M179.703 103.533H0.339998C0.249825 103.533 0.163371 103.497 0.0996088 103.433C0.0358468 103.369 0 103.282 0 103.192C0 103.102 0.0358468 103.015 0.0996088 102.951C0.163371 102.887 0.249825 102.852 0.339998 102.852H179.709C179.8 102.852 179.886 102.887 179.95 102.951C180.014 103.015 180.049 103.102 180.049 103.192C180.049 103.237 180.04 103.282 180.023 103.324C180.005 103.366 179.98 103.404 179.947 103.435C179.915 103.467 179.877 103.492 179.835 103.509C179.793 103.525 179.748 103.534 179.703 103.533Z" fill="white"/>
</svg>
