<svg width="200" height="78" viewBox="0 0 200 78" fill="none"
  xmlns="http://www.w3.org/2000/svg">
  <path d="M72.4359 77.5974C63.03 77.5974 55.378 70.0238 55.378 60.7142V17.403C55.378 8.09348 63.03 0.519897 72.4359 0.519897C81.8419 0.519897 89.4939 8.09348 89.4939 17.403V60.7201C89.4879 70.0238 81.8359 77.5974 72.4359 77.5974ZM72.4359 6.19861C66.199 6.19861 61.1215 11.2241 61.1215 17.3971V60.7142C61.1215 66.8873 66.199 71.9128 72.4359 71.9128C78.6729 71.9128 83.7504 66.8873 83.7504 60.7142V17.403C83.7504 11.2241 78.6729 6.19861 72.4359 6.19861Z" fill="#BD969E"/>
  <path d="M127.783 77.5974C118.377 77.5974 110.725 70.0238 110.725 60.7142V53.4761C110.725 51.9049 112.01 50.6338 113.597 50.6338C115.185 50.6338 116.469 51.9049 116.469 53.4761V60.7142C116.469 66.8873 121.546 71.9128 127.783 71.9128C134.074 71.9128 139.199 66.8873 139.199 60.7142C139.199 60.6966 139.199 60.673 139.199 60.6554C139.312 55.2062 138.931 51.7578 137.992 49.8041C137.278 48.3211 136.28 47.6562 134.092 46.285C133.259 45.7672 132.326 45.1787 131.303 44.4549L117.402 36.2046C117.331 36.1634 117.26 36.1163 117.194 36.0692C110.607 31.3438 110.66 25.8063 110.72 19.3979C110.725 18.7565 110.731 18.0915 110.731 17.403C110.731 8.09348 118.383 0.519897 127.789 0.519897C137.195 0.519897 144.847 8.09348 144.847 17.403V23.8526C144.847 25.4238 143.563 26.6949 141.976 26.6949C140.388 26.6949 139.104 25.4238 139.104 23.8526V17.403C139.104 11.23 134.026 6.20449 127.789 6.20449C121.552 6.20449 116.475 11.23 116.475 17.403C116.475 18.1092 116.469 18.7859 116.463 19.4509C116.404 25.8122 116.54 28.5368 120.47 31.4027C120.47 31.4027 136.333 40.977 137.16 41.489C139.508 42.9543 141.72 44.3372 143.177 47.3678C144.55 50.2278 145.079 54.2293 144.942 60.7496C144.919 70.0415 137.231 77.5974 127.783 77.5974Z" fill="#BD969E"/>
  <path d="M182.269 0.519897C172.863 0.519897 165.211 8.09348 165.211 17.403V74.7257C165.211 76.2969 166.495 77.568 168.083 77.568C169.67 77.568 170.954 76.2969 170.954 74.7257V42.4718H193.589V74.7257C193.589 76.2969 194.874 77.568 196.461 77.568C198.048 77.568 199.333 76.2969 199.333 74.7257V17.403C199.321 8.09348 191.669 0.519897 182.269 0.519897ZM170.948 36.793V17.403C170.948 11.23 176.026 6.20449 182.263 6.20449C188.5 6.20449 193.577 11.23 193.577 17.403V36.793H170.948Z" fill="#BD969E"/>
  <path d="M36.5305 77.568C35.4306 77.568 34.3782 76.9383 33.9025 75.8791L21.7022 48.5977C18.8186 42.154 20.1385 35.6514 25.1447 31.6263C28.9023 28.6075 29.1817 25.6887 29.0628 17.4442C28.9736 11.1417 24.0031 6.20449 17.7484 6.20449C11.5114 6.20449 6.43388 11.23 6.43388 17.403V74.7257C6.43388 76.2969 5.14963 77.568 3.56215 77.568C1.97468 77.568 0.69043 76.2969 0.69043 74.7257V17.403C0.69043 8.09348 8.34241 0.519897 17.7484 0.519897C27.1781 0.519897 34.6695 7.91694 34.8063 17.3618C34.9311 25.8299 34.6992 31.2614 28.7715 36.0339C27.6656 36.9225 24.2707 40.2885 26.9581 46.2968L39.1584 73.5782C39.8006 75.014 39.1466 76.6912 37.6958 77.3267C37.3094 77.4856 36.917 77.568 36.5305 77.568Z" fill="#BD969E"/>
  <path d="M61.1632 16.2143C60.4616 7.45792 66.098 3.81531 72.4182 3.81531C79.434 3.81531 84.3748 7.86397 83.6732 16.2379C82.8348 10.0766 77.9059 6.21626 72.4479 6.19861C67.2158 6.17507 61.9123 9.92949 61.1632 16.2143Z" fill="#9C727D"/>
  <path d="M171.008 16.2143C170.306 7.45792 175.943 3.81531 182.263 3.81531C189.279 3.81531 194.219 7.86397 193.518 16.2379C192.68 10.0766 187.751 6.21626 182.293 6.19861C177.066 6.17507 171.763 9.92949 171.008 16.2143Z" fill="#9C727D"/>
  <path d="M83.673 61.9324C84.3746 70.6888 78.7382 74.3314 72.418 74.3314C65.4023 74.3314 60.4615 70.2827 61.1631 61.9088C62.0014 68.0701 66.9303 71.9305 72.3883 71.9481C77.6204 71.9717 82.9239 68.2172 83.673 61.9324Z" fill="#9C727D"/>
  <path d="M116.528 16.2379C115.827 7.48146 121.505 3.81531 127.825 3.81531C134.841 3.81531 139.782 7.86397 139.08 16.2379C138.242 10.0766 133.313 6.21626 127.855 6.19861C122.629 6.17507 117.278 9.94715 116.528 16.2379Z" fill="#9C727D"/>
  <path d="M139.133 61.9324C139.835 70.6888 134.199 74.3314 127.878 74.3314C120.863 74.3314 115.827 70.2827 116.528 61.9088C117.367 68.0701 122.391 71.9305 127.849 71.9481C133.075 71.9717 138.378 68.2172 139.133 61.9324Z" fill="#9C727D"/>
  <path d="M193.583 36.793H170.948C171.864 37.0814 171.501 38.3996 183.131 38.3996C193.024 38.3996 192.739 37.1343 193.583 36.793Z" fill="#9C727D"/>
  <path d="M117.064 27.0951C117.284 30.6376 119.59 32.8032 123.83 35.2042C129.585 38.4702 131.054 38.3525 134.175 39.7236C131.499 37.97 121.624 32.1794 120.482 31.3909C118.33 29.8962 117.706 28.7251 117.064 27.0951Z" fill="#9C727D"/>
  <path d="M26.958 32.0971C29.3244 30.3081 29.0984 26.4301 28.9974 24.2587C28.2958 31.0202 24.2171 31.5145 22.1837 34.8394C24.4906 33.2858 25.2933 33.3564 26.958 32.0971Z" fill="#9C727D"/>
  <path d="M6.49321 16.2202C5.79163 7.46384 11.4281 3.82123 17.7482 3.82123C24.764 3.82123 29.7048 7.86988 29.0032 16.2438C28.1649 10.0825 23.236 6.22217 17.7779 6.20452C12.5458 6.18098 7.24235 9.9354 6.49321 16.2202Z" fill="#9C727D"/>
</svg>
