<svg width="89" height="52" viewBox="0 0 89 52" fill="none" xmlns="http://www.w3.org/2000/svg">
<path d="M67.1188 26.6823C66.97 26.6049 66.8211 26.5275 66.6475 26.5017C65.6055 26.2695 64.6131 26.4243 63.596 26.5275C62.8765 26.6049 61.6112 26.6307 61.6856 25.573C61.8593 23.3802 64.5883 23.3544 65.9528 22.4257C66.1265 22.3225 66.2505 22.1161 66.2753 21.9098C66.2753 21.7808 66.2505 21.6518 66.2009 21.5228C64.8612 17.9111 61.512 15.5894 58.1628 14.2737C55.6074 13.2676 53.3002 12.8806 50.596 13.4998C49.9758 13.6546 49.3555 13.8351 48.7353 14.0673C48.2391 14.2479 47.6933 14.4801 47.1475 14.7122C46.2048 15.2024 44.493 16.0279 43.9472 14.6349C42.9548 12.0809 41.5159 9.39796 39.6552 7.35996C38.4892 6.09588 36.7773 5.50254 35.1399 5.83791C33.2544 6.25067 32.2869 7.79852 31.1209 9.24318C30.5254 9.96551 28.5655 12.1841 27.7964 10.4041C27.4987 9.73333 27.6972 8.9852 27.5484 8.28867C27.1266 6.27647 25.2163 5.70892 23.4797 5.73472C21.9415 5.76052 20.4033 6.04429 18.9396 6.58604C17.4759 7.12778 16.1362 8.0049 14.598 8.39186C12.4644 8.93361 10.3309 6.74082 8.02361 7.66953C7.50262 7.85012 7.03125 8.10809 6.58468 8.46926C5.74117 9.11419 5.14576 10.0687 4.92247 11.1522C4.89767 11.2296 4.89767 11.2812 4.87286 11.3586C4.40148 14.6607 3.43393 17.679 2.51599 20.6199C1.4492 23.9478 0.357603 27.4046 0.035085 31.1711C0.010276 31.5064 -0.0145327 31.8418 0.0102763 32.1772C0.0102763 32.1772 0.0102763 32.203 0.0102763 32.2288C0.134322 35.0149 1.97019 37.3625 4.57515 38.0332C5.29461 38.7555 6.33659 39.5036 7.75071 39.5036C7.80033 39.5036 7.87475 39.5036 7.92437 39.5036C8.94154 39.4263 9.9091 38.9877 10.6534 38.2396C11.4721 37.2593 12.266 36.2532 13.035 35.2471C14.4988 37.1303 17.1037 38.1106 19.3117 37.7752C19.4606 37.7752 19.6095 37.7752 19.7583 37.7752C22.0655 37.9816 24.1743 36.6143 26.3079 36.6143C28.4911 36.8207 30.6991 36.8723 32.7831 36.5369C33.4777 36.4337 34.1476 36.279 34.8174 36.0726C35.0903 36.6917 35.6113 37.1561 36.2315 37.3625C36.9014 37.543 37.596 37.5946 38.2907 37.4914C39.8537 37.1819 41.7143 36.3564 42.7811 36.8981C44.3441 37.6978 46.1055 37.8268 47.9414 37.672C48.5368 37.6204 49.1571 37.5172 49.7773 37.4141C54.2429 36.6401 59.0311 35.8146 62.4795 32.4867C62.4795 34.3699 58.3364 35.0665 59.5769 37.1819C59.7009 37.4141 63.3975 35.7372 63.7696 35.5566C64.9108 35.0407 66.4738 34.4731 67.1188 33.2865C67.1933 33.1575 67.2429 33.0027 67.2677 32.8221C67.3173 32.1256 66.4242 31.7128 66.1265 31.1453C65.7543 30.5003 65.804 29.6748 66.2753 29.1073C66.573 28.7461 66.8956 28.4365 67.2677 28.1785C67.7639 27.8174 67.8135 27.1208 67.1188 26.6823Z" fill="#E22741"/>
<path d="M24.2495 12.3907C24.5968 12.0811 24.7457 11.8232 24.7209 11.4362C24.6464 9.81096 22.4632 8.59848 21.0739 8.67587C20.4537 8.70167 19.8087 8.93385 19.5358 9.55299C16.8316 13.6806 10.9022 24.8509 8.09877 28.8237C7.97473 28.9527 7.82587 29.0043 7.65221 29.0301C7.52817 29.0301 7.45374 28.9785 7.45374 28.8237C7.45374 28.7463 7.45374 28.6947 7.47855 28.6173C8.27244 26.1924 10.8278 17.2406 13.1598 13.758C13.3831 13.5258 13.5072 13.2162 13.5072 12.9067C13.4327 11.5394 11.0759 10.6623 9.88503 10.7139C9.19037 10.7397 8.19801 11.0492 8.02435 11.9264C6.93275 19.356 3.75718 25.0573 3.18658 31.584C3.16177 31.7646 3.16177 31.9452 3.18658 32.1258C3.28581 33.9832 4.67512 34.9635 6.18847 35.0151C6.8087 35.8148 7.28008 36.2792 7.75145 36.2534C8.1732 36.2276 8.59496 35.8406 9.14076 34.9119C11.6961 30.4748 16.5835 19.7946 24.2495 12.3907Z" fill="white"/>
<path d="M58.5836 20.4393C58.4843 20.4393 58.4347 20.5167 58.3355 20.6457C57.7897 21.4712 54.8374 25.4956 53.9691 26.5791C52.7534 28.1012 51.116 29.9586 50.7935 30.2424C50.5951 30.5004 50.347 30.6551 50.0493 30.7325C49.8508 30.7325 49.6771 30.5777 49.6771 30.2166C49.5779 28.1012 52.7038 24.051 53.721 22.5805C53.9443 22.271 54.0683 21.9098 54.0931 21.5486C54.0435 20.3361 51.6867 20.2845 50.7439 19.6654C50.8183 19.6654 51.2649 18.4787 51.2153 17.55C51.1905 16.9051 50.8928 16.3375 50.0741 16.3891C47.3203 16.5439 45.1371 18.5561 45.2115 20.2072C45.2611 21.1101 45.9061 21.9098 47.4443 22.2968C47.3947 22.3741 47.3203 22.4515 47.2458 22.5547C46.7745 23.1481 46.2038 23.8188 45.7573 24.3863C44.7897 25.6246 43.7229 26.1406 42.8298 26.1922H42.7554C43.971 23.922 44.7897 21.884 44.7649 21.2906C44.7153 20.233 43.4997 18.9431 41.8623 19.0205C40.9939 18.5561 40.473 17.5758 39.7287 17.6274C37.8432 17.7048 34.7421 22.7869 33.5512 27.2757C33.4768 27.3789 33.3776 27.482 33.3279 27.5594C32.41 28.8751 31.3184 30.0876 30.1276 31.1453C30.0531 31.1969 29.9787 31.2485 29.9043 31.2485C29.7058 31.2485 29.6066 31.0421 29.5818 30.7583C29.4825 28.9267 34.6676 18.2207 37.9672 13.9642C38.8356 12.8291 39.1581 11.9262 39.1333 11.2296C39.0588 9.44959 36.826 8.85625 35.7344 8.90785C34.8165 8.95944 34.5436 9.08843 34.5684 9.29481C34.5684 9.52699 34.9157 9.86236 34.9405 10.2493C34.9405 10.3783 34.9157 10.5331 34.8413 10.6363C32.41 15.2024 27.5474 25.0829 26.7783 29.3137C26.7535 29.3137 26.7287 29.2879 26.7287 29.2879C26.431 29.649 25.1906 30.9389 24.5207 30.9647C24.1238 30.9905 23.8013 30.6809 23.7764 30.2682C23.7268 29.0557 25.8604 25.3667 26.5303 24.4121C26.6543 24.2574 26.7287 24.051 26.7535 23.8704C26.7287 23.1997 25.5379 22.5805 24.1486 22.6579C23.8013 22.6579 23.4291 22.7353 23.1066 22.8385C22.66 25.831 19.5341 32.2804 17.6238 32.3836C17.4005 32.3836 17.3013 32.1514 17.2765 31.7386C17.1772 29.4685 19.6829 22.3741 24.3719 22.142C24.8929 22.1162 25.4138 22.1936 25.9348 22.3225C26.0589 22.3483 26.1829 22.3741 26.2822 22.3741C26.828 22.3483 27.2993 21.3422 27.2497 20.2845C27.2001 19.1237 26.5303 17.9628 24.6696 18.0402C19.0627 18.2981 14.7459 27.5336 14.9692 32.332C15.0436 33.8282 16.4081 34.6538 17.8223 34.6022C18.6906 34.5506 20.1295 33.4929 21.4196 31.8676C21.5684 33.1059 22.2383 33.6734 23.2058 33.6477C24.2478 33.5961 25.6123 32.7447 26.8032 31.0679C27.1257 32.4868 28.2917 34.241 29.5073 34.1894C29.8547 34.1636 30.1772 34.0088 30.4253 33.7508C31.2192 33.0285 32.2363 31.687 33.1295 30.4746C33.1295 30.6551 33.1295 30.8357 33.1295 30.9905C33.2287 32.8995 34.097 34.1894 36.1314 34.0862C37.744 34.0088 39.9272 31.2227 41.7134 28.256C41.9367 28.3076 42.1848 28.3076 42.4329 28.2818C43.9214 28.2044 45.6332 27.3015 46.8737 25.3925C47.4939 24.4379 48.1142 23.4318 48.6103 22.5805C48.8832 22.6321 49.1809 22.6321 49.4786 22.6579C48.3374 25.1861 46.6504 29.5716 46.7745 32.0998C46.8241 33.2865 47.2954 34.0346 48.387 33.983C50.4214 33.8798 53.5721 29.9328 54.9118 27.869C56.6237 25.3151 58.3851 22.5547 59.179 21.1359C59.1046 21.0069 58.8813 20.4135 58.5836 20.4393ZM39.3317 25.5988C39.3565 26.0116 39.4558 26.4244 39.6543 26.8113C38.5627 29.2879 36.5779 32.203 35.7096 32.2546C35.5111 32.2546 35.3871 32.1514 35.3623 31.8676C35.1886 28.2044 38.3642 23.3544 39.7287 23.2771H39.8279C39.4806 23.9736 39.3069 24.7991 39.3317 25.5988Z" fill="white"/>
<path d="M7.75039 43.606H6.16261V43.2448C6.16261 42.9094 6.08818 42.5483 5.91452 42.2645C5.71604 41.9807 5.39352 41.8259 5.0462 41.8517C4.87253 41.8517 4.67406 41.8775 4.52521 41.9807C4.40116 42.0581 4.27712 42.1613 4.20269 42.3161C4.12826 42.4709 4.05384 42.6257 4.02903 42.8062C4.00422 42.9868 3.97941 43.1674 3.97941 43.3738C3.97941 43.5544 3.97941 43.7607 4.00422 43.9413C4.02903 44.0703 4.05384 44.2251 4.12826 44.3541C4.20269 44.4831 4.27712 44.5863 4.40116 44.6637C4.55002 44.7668 4.72368 44.8442 4.89734 44.9216L6.11299 45.4118C6.4107 45.515 6.70841 45.6956 6.9813 45.9019C7.20459 46.0825 7.37825 46.3147 7.5023 46.5469C7.62634 46.8306 7.70077 47.1144 7.72558 47.424C7.77519 47.7851 7.8 48.1721 7.77519 48.5591C7.77519 49.0234 7.72558 49.462 7.62634 49.9005C7.55191 50.2875 7.40306 50.6487 7.17978 50.9582C6.9565 51.2678 6.65879 51.5 6.31146 51.6806C5.91451 51.8612 5.46795 51.9643 5.02139 51.9385C4.64925 51.9385 4.27712 51.8612 3.9546 51.7322C3.63208 51.6032 3.33437 51.3968 3.08628 51.1388C2.83819 50.8809 2.66453 50.5971 2.51567 50.2617C2.36682 49.9263 2.29239 49.5652 2.3172 49.1782V48.5591H3.90498V49.075C3.90498 49.3588 3.97941 49.6684 4.15307 49.9005C4.37635 50.1585 4.69887 50.2875 5.02139 50.2617C5.24467 50.2617 5.44314 50.2359 5.64162 50.1327C5.79047 50.0553 5.91452 49.9263 5.98894 49.7974C6.08818 49.6426 6.1378 49.4362 6.1378 49.2556C6.16261 49.0492 6.16261 48.8171 6.16261 48.5591C6.16261 48.3011 6.16261 48.0689 6.1378 47.8109C6.1378 47.6562 6.08818 47.4756 6.01375 47.3466C5.93932 47.2176 5.84009 47.1402 5.71604 47.0628C5.56719 46.9596 5.39352 46.8822 5.24467 46.8306L4.10345 46.3405C3.4088 46.0567 2.96224 45.6698 2.71415 45.1796C2.46606 44.6121 2.34201 43.9929 2.36682 43.3738C2.36682 42.961 2.41644 42.5483 2.54048 42.1355C2.63972 41.7743 2.81338 41.439 3.06147 41.1294C3.28475 40.8456 3.58246 40.6134 3.90498 40.4587C4.27712 40.2781 4.69887 40.2007 5.12063 40.2007C5.49276 40.2007 5.8649 40.2781 6.21222 40.4329C6.53474 40.5876 6.80764 40.7682 7.05573 41.0262C7.50229 41.4906 7.77519 42.1355 7.77519 42.8062L7.75039 43.606Z" fill="white"/>
<path d="M8.84059 43.0122C8.84059 42.5994 8.91502 42.1609 9.06387 41.7739C9.21273 41.4385 9.4112 41.129 9.6841 40.871C9.93219 40.6388 10.2299 40.4582 10.5276 40.3551C11.4704 39.9939 12.5371 40.2003 13.3062 40.871C13.5543 41.129 13.7776 41.4127 13.9016 41.7739C14.0753 42.1609 14.1497 42.5736 14.1249 43.0122V49.1004C14.1249 49.539 14.0505 49.9517 13.9016 50.3387C13.7528 50.6741 13.5543 50.9578 13.3062 51.19C13.0581 51.4222 12.7604 51.6028 12.4379 51.7318C11.8177 51.9639 11.1478 51.9639 10.5276 51.7318C10.2051 51.6028 9.93219 51.4222 9.6841 51.19C9.4112 50.9578 9.21273 50.6741 9.06387 50.3387C8.89021 49.9517 8.81578 49.5132 8.84059 49.1004V43.0122ZM10.4284 49.1004C10.4036 49.4358 10.5276 49.7453 10.7509 49.9775C11.1975 50.3645 11.8177 50.3645 12.2642 49.9775C12.4875 49.7453 12.6116 49.4358 12.5868 49.1004V43.0122C12.6116 42.6768 12.4875 42.3673 12.2642 42.1351C11.8177 41.7481 11.1975 41.7481 10.7509 42.1351C10.5276 42.3673 10.4036 42.6768 10.4284 43.0122V49.1004Z" fill="white"/>
<path d="M15.5664 51.8093V40.2778H20.3049V41.8257H17.1542V45.3341H19.8832V46.882H17.1542V51.8093H15.5664Z" fill="white"/>
<path d="M22.9101 51.8093V41.8257H21.0742V40.2778H26.3337V41.8257H24.4979V51.8093H22.9101Z" fill="white"/>
<path d="M35.7836 40.3037L34.1214 51.8352H32.6328L31.4172 44.3539H31.3924L30.2015 51.8352H28.713L27.0508 40.3037H28.7378L29.5317 47.6302H29.5565L30.797 40.3037H32.0126L33.3027 47.8108H33.3275L34.0966 40.3037H35.7836Z" fill="white"/>
<path d="M35.6094 51.8093L38.0903 40.2778H39.4052L41.8861 51.8093H40.2983L39.8269 49.3328H37.6685L37.1972 51.8093H35.6094ZM39.5292 47.7849L38.7601 43.6057H38.7353L37.9662 47.7849H39.5292Z" fill="white"/>
<path d="M43.2031 51.8093V40.2778H45.7585C47.6191 40.2778 48.5619 41.4129 48.5619 43.6573C48.5867 44.2506 48.4626 44.844 48.2642 45.3857C48.0409 45.8759 47.6688 46.2887 47.1974 46.5466L48.9092 51.8093H47.2222L45.7336 46.882H44.7909V51.8093H43.2031ZM44.7909 41.8515V45.4373H45.684C45.9073 45.4373 46.1306 45.4115 46.3539 45.3083C46.5027 45.231 46.6516 45.102 46.7508 44.9472C46.8501 44.7666 46.8997 44.586 46.9245 44.3796C46.9741 43.8637 46.9741 43.3477 46.9245 42.8318C46.8997 42.6254 46.8252 42.4448 46.726 42.2642C46.5275 41.9547 46.1554 41.7999 45.6096 41.7999L44.7909 41.8515Z" fill="white"/>
<path d="M50.1016 51.8093V40.2778H54.8401V41.8257H51.6893V45.2052H54.4183V46.753H51.6893V50.1583H54.8401V51.8093H50.1016Z" fill="white"/>
<path d="M72.9728 6.27686H67.8125V9.32096H72.9728V6.27686Z" fill="#FECB3D"/>
<path d="M80.9131 42.651L78.4322 42.4446L76.7948 40.9741L69.228 41.9802L65.5315 42.006L65.457 50.1064H70.8406C71.2127 49.9775 74.6116 49.1777 76.1249 49.2551C77.6383 49.3325 80.1936 49.8227 80.9379 50.1064C80.9379 50.1064 83.5181 50.029 84.4608 49.8227C85.4035 49.6163 87.4875 48.507 87.4875 48.507L80.9131 42.651Z" fill="#E22741"/>
<path d="M65.2831 50.3647C64.5884 50.3647 63.9434 50.803 63.6953 51.499C63.6953 51.499 68.6571 51.5248 68.7812 51.5248C69.0541 51.4732 69.3022 51.3185 69.4758 51.1123C69.5751 50.8803 69.6743 50.6225 69.7239 50.3647H65.2831Z" fill="#FFEFD1"/>
<path d="M88.4044 50.7771C88.2555 50.6223 88.057 50.4933 87.8586 50.4159C87.6601 50.3385 87.4616 50.2869 87.2383 50.2869C87.1887 50.2869 87.1391 50.2869 87.0647 50.2869H86.8662C86.767 50.2869 86.6429 50.2869 86.5437 50.2611C86.0971 50.2096 85.6754 50.0548 85.2784 49.8226L85.204 49.771L82.9712 50.3385C82.9464 50.6223 82.996 50.9061 83.0952 51.1641C83.2441 51.4736 83.9387 51.5768 84.1868 51.5768L88.6276 51.5252V51.3188C88.6524 51.1125 88.5532 50.9319 88.4044 50.7771Z" fill="#FFEFD1"/>
<path d="M80.5664 39.8395L82.0053 36.9502C82.0053 36.9502 83.3202 37.2082 83.9404 37.5693C84.1389 37.6725 84.9328 38.2143 85.0072 38.4722C85.0817 38.7302 84.7095 39.6331 84.6847 39.7621C85.0072 40.0201 85.1313 40.4587 84.9824 40.8456C84.7591 41.31 83.8412 41.1552 83.4691 41.1036C83.0969 41.052 80.5664 39.8395 80.5664 39.8395Z" fill="#FFEFD1"/>
<path d="M68.7809 31.5328C67.0938 31.5328 65.4316 31.3006 63.8191 30.7846C63.2733 30.6041 62.7523 30.3977 62.2561 30.1397C62.008 30.0107 61.7599 29.8559 61.5366 29.7012C61.4374 29.6238 61.3381 29.5206 61.2389 29.4432C61.2389 29.4432 61.2389 29.4432 61.2141 29.4174H61.1645L61.1149 29.2626L61.2637 29.1852L61.1149 29.2626L61.0652 29.1078L60.966 28.7466C60.7923 28.1791 60.6187 27.6116 60.4202 27.044C60.445 27.2246 60.4698 27.431 60.4946 27.6374L60.5443 27.8953L60.2962 27.8695C59.8992 27.8437 59.5519 27.6889 59.2294 27.431C58.8572 27.1214 58.5347 26.7086 58.3114 26.2701C57.9145 25.4704 57.5424 23.355 57.5175 22.9164C57.4927 22.5552 57.5175 22.2199 57.5672 21.8587C57.592 21.6265 57.6664 21.3944 57.7408 21.1622C57.7904 20.9816 57.9393 20.8268 58.1378 20.7494C58.237 20.7236 58.3362 20.7236 58.4355 20.7236C58.758 20.7236 59.1053 20.8526 59.3534 21.059C59.7007 21.3686 59.9736 21.7555 60.1721 22.1941C60.2962 22.4521 60.3706 22.7358 60.4202 23.0196C60.5691 22.7358 60.8172 22.2457 61.0652 21.7813C62.0328 19.8207 63.6454 16.5186 65.382 15.5641L65.4068 15.5383H65.4316C66.0767 15.3835 66.7465 15.2804 67.4164 15.203C68.1606 15.1256 68.9049 15.074 69.674 15.074H69.6988C71.1874 15.074 72.7007 15.2288 74.1644 15.5125H74.1893C74.2141 15.5125 74.2389 15.5125 74.2389 15.5125H74.2637C75.0576 15.2288 75.8515 14.9708 76.6453 14.7644C77.3896 14.558 78.1339 14.429 78.903 14.3774H79.0022L79.0766 14.4548C79.2007 14.6354 79.2999 14.816 79.424 15.0224C79.548 15.2804 79.6721 15.5383 79.7713 15.8221C79.9698 16.3638 80.1434 16.9314 80.2675 17.4989C80.4908 18.6598 80.59 19.8207 80.5652 21.0074C80.5404 21.1106 80.6148 21.188 80.714 21.2138C80.7885 21.2138 80.8629 21.188 80.8877 21.1106V21.0848C80.9621 20.8784 81.0862 20.6978 81.2102 20.4914V20.4657C81.3343 20.2593 81.5079 20.0787 81.6816 19.9239C82.0289 19.6143 82.5003 19.5111 82.9469 19.6143C83.0957 19.6401 83.2446 19.7949 83.3438 20.0271C83.443 20.2593 83.4926 20.4914 83.5175 20.7236C83.5671 21.059 83.5919 21.4202 83.5671 21.7813L83.5175 22.3489C83.4182 23.3034 83.1453 24.2579 82.7236 25.1092C82.5003 25.5478 82.1778 25.9347 81.8056 26.2443C81.4583 26.5023 81.0614 26.657 80.6396 26.657C80.59 26.657 80.5652 26.657 80.5156 26.657H80.3419V26.4765C80.3419 26.2443 80.3171 26.0121 80.3171 25.7799C80.2675 26.0637 80.193 26.3217 80.1682 26.5539C80.1434 26.7086 80.1186 26.8634 80.0938 27.0182C80.069 27.1472 80.0442 27.2762 80.0194 27.431L79.945 27.8695C79.945 27.9211 79.9201 27.9985 79.9201 28.0501V28.0759H79.8705L79.9201 28.1017V28.1275L79.8953 28.1533C79.8953 28.1791 79.8705 28.1791 79.8705 28.2049C79.6969 28.4113 79.5232 28.5919 79.2999 28.7466C79.0766 28.9272 78.8534 29.082 78.6053 29.211C78.1091 29.4948 77.6129 29.7528 77.0919 29.9591C74.9831 30.8104 72.7751 31.3264 70.5423 31.4812C69.8973 31.507 69.3267 31.5328 68.7809 31.5328Z" fill="#FFEFD1"/>
<path d="M74.6104 38.7814C74.5856 38.7814 74.6104 38.7814 74.6104 38.7814C74.9082 39.1168 75.8261 40.0455 75.8261 40.0455L71.807 40.4325C71.4349 39.7617 70.6162 39.5037 69.9712 39.8907C69.7479 40.0197 69.5742 40.2003 69.4502 40.4325L66.3242 40.2777C66.3242 40.2777 69.2517 37.1562 69.8471 36.3048C70.4425 35.4535 72.6009 31.5581 72.6009 31.5581C72.6009 31.5581 75.9749 33.3123 77.5131 34.0347C79.2001 34.8086 82.3261 35.9953 82.3261 35.9953L80.2669 39.7101C80.2669 39.7101 78.9024 38.8072 78.5303 39.5811C78.1581 40.3551 79.9444 41.0516 79.9444 41.0516L78.5055 42.0577C78.5303 42.0577 75.057 39.1168 74.6104 38.7814Z" fill="white"/>
<path d="M66.3982 31.8417L65.4306 31.6611L59.0547 40.4581C59.0547 40.4581 61.4115 42.2639 61.9325 42.5219C62.8257 42.9862 65.1081 43.6828 65.1081 43.6828C65.1081 43.6828 65.2321 37.7493 65.3314 36.898C65.4306 37.7493 65.5299 40.1743 65.5299 40.1743L66.4478 40.2517C66.4478 40.2517 67.9363 38.7296 68.4077 38.0589C68.6806 37.7235 69.8963 35.5308 69.8963 35.5308L66.3982 31.8417Z" fill="white"/>
<path d="M67.9607 40.8453C67.2165 40.8195 66.4722 40.7937 65.7031 40.7422C65.7031 40.9742 65.7031 41.2062 65.7279 41.4382C66.5466 41.4898 67.3901 41.4898 68.2337 41.4898C68.5314 41.4898 68.8291 41.4898 69.1268 41.464C69.102 41.3351 69.0772 41.2062 69.0772 41.0773C69.0772 41 69.0772 40.9226 69.102 40.8195C68.7298 40.8711 68.3577 40.8711 67.9607 40.8453Z" fill="#FCBD19"/>
<path d="M66.8477 31.9196L72.132 31.8164C71.5366 33.2095 70.7675 34.4993 69.8247 35.6602C68.6587 34.5767 67.6415 33.3127 66.8477 31.9196Z" fill="#F9BC8D"/>
<path d="M83.418 37.1048L85.0057 34.5767L85.9237 35.1958L84.3855 37.6724L83.418 37.1048Z" fill="#FCBD19"/>
<path d="M76.2734 40.7676C76.0997 40.613 75.9261 40.4325 75.7524 40.2778C74.5368 40.5098 73.3211 40.6645 72.1055 40.7418C72.1303 40.8707 72.1551 40.9739 72.1551 41.1027C72.1551 41.1801 72.1551 41.2832 72.1303 41.3605C73.5444 41.2574 74.9089 41.077 76.2734 40.7676Z" fill="#FCBD19"/>
<path d="M75.1328 42.3413C75.1328 42.3413 77.6633 46.9075 81.4095 48.7907C81.4343 48.7907 75.6042 42.5477 75.1328 42.3413Z" fill="#010101"/>
<path d="M77.0917 48.3525C75.5535 47.5786 74.2139 46.3661 73.1719 45.1794L73.8665 44.9473C75.4791 46.6241 77.0917 48.3525 77.0917 48.3525Z" fill="#010101"/>
<path d="M70.6438 42.2124C71.264 42.2124 71.7602 41.6965 71.7602 41.0515C71.7602 40.4066 71.264 39.8906 70.6438 39.8906C70.0235 39.8906 69.5273 40.4066 69.5273 41.0515C69.5273 41.6965 70.0235 42.2124 70.6438 42.2124Z" fill="#FECB3D"/>
<path d="M69.3245 40.6646L65.5039 40.5615L65.5287 41.67L69.3741 41.7216L69.3245 40.6646Z" fill="#FECB3D"/>
<path d="M75.8275 40.0713L71.8828 40.5614L71.9076 41.5933C73.5202 41.6191 75.1576 41.387 76.6958 40.8968L75.8275 40.0713Z" fill="#FECB3D"/>
<path d="M71.3864 42.2646L70.1211 42.471L70.4436 46.1859L73.1478 45.025L71.3864 42.2646Z" fill="#FECB3D"/>
<path d="M61.6588 44.1729C60.7409 43.4248 60.7657 41.877 60.7657 41.877L63.5443 43.3732C63.5443 43.3732 62.5768 44.9211 61.6588 44.1729Z" fill="#FFEFD1"/>
<path d="M64.8596 48.9975C64.1401 48.9459 62.0562 48.6105 62.0562 48.6105C61.9321 48.6621 69.5981 46.9337 71.4588 45.9018C73.6668 45.102 79.3977 41.8516 80.2908 41.2324L81.1592 41.7226C80.4397 42.7545 77.3138 45.2052 75.9741 46.005C74.4855 46.9595 69.747 49.436 69.747 49.436C69.747 49.436 65.1325 49.0233 64.8596 48.9975Z" fill="white"/>
<path d="M83.2724 42.8835C82.8259 42.7803 78.8564 40.407 78.8564 40.407C78.6083 40.2522 78.5091 39.9168 78.6083 39.633C78.782 39.2719 79.303 39.2977 79.427 39.3751C79.427 39.3751 83.6942 41.7226 83.8927 42.0064C84.0911 42.2902 84.1656 42.4966 84.0415 42.7287C83.9175 42.9609 83.719 43.0125 83.2724 42.8835Z" fill="#FCBD19"/>
<path d="M60.3722 38.6265L59.5039 39.8647C59.5039 39.8647 62.481 42.0575 65.0611 42.8315V41.1288C65.086 41.103 62.0592 39.9679 60.3722 38.6265Z" fill="#E22741"/>
<path d="M65.681 31.7904L65.3089 31.7388L64.7383 32.5385C65.7555 34.6281 68.7822 37.3626 68.7822 37.3626L69.7001 36.0985C67.5913 34.8603 65.681 31.7904 65.681 31.7904Z" fill="#E22741"/>
<path d="M73.3472 31.8936C73.3472 31.8936 70.3949 38.4461 66.9961 40.4841L69.0801 40.5357C69.0801 40.5357 72.5037 38.1108 74.9598 33.0544L73.3472 31.8936Z" fill="#E22741"/>
<path d="M79.6486 39.452C79.6486 39.452 81.3604 36.6143 81.6085 35.6855C81.6333 35.6082 79.5741 34.9116 79.5741 34.9116C78.9291 37.4398 76.8203 40.6387 76.8203 40.6387L78.2841 41.7996C78.6066 41.4126 78.9043 40.974 79.1772 40.5613C79.1772 40.5613 78.4081 40.1227 78.7306 39.581C79.0531 39.0392 79.6486 39.452 79.6486 39.452Z" fill="#E22741"/>
<path d="M58.51 22.9675C56.7238 22.7095 57.6913 25.0055 57.6913 25.0055L58.4604 26.5533C58.4604 26.5533 57.8898 25.3409 58.8325 25.1603C59.7753 24.9797 60.1226 26.0632 60.1226 26.0632C60.1226 26.0632 60.2714 23.2513 58.51 22.9675Z" fill="#F9BC8D"/>
<path d="M83.4931 22.5809C83.5179 21.807 82.6744 21.936 81.7813 22.2713C80.8882 22.6067 80.3672 25.5218 80.3672 25.5218L80.5408 26.2957C80.5408 26.2957 81.2355 23.6128 82.1534 23.587C83.0714 23.5612 82.9225 24.9027 82.9225 24.9027C82.9225 24.9027 83.4683 23.3548 83.4931 22.5809Z" fill="#F9BC8D"/>
<path d="M63.2225 28.5915C63.8427 27.9723 64.2148 27.1468 64.2892 26.2697C64.3637 24.825 63.7186 23.0192 63.9915 22.6322C63.9915 22.6322 68.4572 22.8644 69.1766 22.6322C69.8961 22.4001 70.5163 20.749 69.1766 19.5881C69.3255 20.0783 69.3999 20.5684 69.4495 21.0844C69.4992 21.4456 69.4247 21.7809 69.3007 22.1163C69.3007 22.1163 68.9285 22.1421 67.1423 21.2392C66.4228 20.9038 65.7034 20.5168 65.0335 20.1041C65.0335 20.1041 66.6709 17.4469 66.1251 15.6411L64.8599 15.7185C64.8599 15.7185 64.2396 18.2725 63.7683 19.0464C63.2969 19.8203 61.8828 22.0647 62.2301 23.1998C62.5774 24.3349 63.2969 26.2955 63.3217 26.7856C63.3465 27.2758 63.2225 28.5915 63.2225 28.5915Z" fill="#F9BC8D"/>
<path d="M75.5064 21.2908C75.5064 21.2908 75.9033 18.3757 78.2106 17.2922C76.8213 17.1632 75.4816 17.8081 74.6629 18.969C73.2488 20.9812 72.5293 21.4714 72.5293 21.4714C72.5293 21.4714 71.4377 21.5745 71.1648 20.1557L71.0408 20.749C70.9911 20.8264 71.264 22.4517 72.1324 22.8128C73.0007 23.174 74.8365 22.5806 74.8365 22.5806H79.1533C78.285 21.4714 76.8709 20.9812 75.5064 21.2908Z" fill="#F9BC8D"/>
<path d="M69.4531 25.522C69.4531 25.522 69.8997 27.3536 70.8424 27.5084C71.7852 27.6632 72.4054 25.522 72.4054 25.522C72.4054 25.522 71.6115 26.3475 70.8672 26.2959C70.123 26.2443 69.4531 25.522 69.4531 25.522Z" fill="#F9BC8D"/>
<path d="M68.6328 29.4167C68.6328 29.4167 71.1881 29.9065 72.8255 29.0815C72.8255 29.0815 72.0068 30.422 70.5431 30.3962C69.0794 30.3705 68.6328 29.4167 68.6328 29.4167Z" fill="#F9BC8D"/>
<path d="M88.6531 50.5452C88.4794 50.3646 88.2561 50.2099 88.008 50.1067C87.7848 50.0035 87.5367 49.9519 87.2886 49.9261C87.0157 49.9003 86.842 49.9003 86.6435 49.8745C86.4451 49.8487 86.2714 49.7713 86.0977 49.6939C86.6683 49.4359 87.239 49.1264 87.7351 48.7394C87.7599 48.7394 87.7599 48.7136 87.7848 48.6878C87.884 48.5846 87.8592 48.404 87.7599 48.3266L81.3096 42.3416C81.3592 42.29 81.4088 42.2384 81.4584 42.2126C81.6073 42.29 81.7561 42.3932 81.905 42.4706L82.6245 42.9092L82.9966 43.1413C83.071 43.1929 83.1455 43.2187 83.2199 43.2703C83.3191 43.3219 83.4184 43.3219 83.5176 43.3477H83.5424C84.0138 43.3477 84.4107 42.9608 84.4107 42.4706C84.4107 42.2384 84.3363 42.032 84.1874 41.8773C84.1378 41.8257 84.113 41.7741 84.0634 41.7483L84.0138 41.6967L83.9642 41.6451L83.7905 41.5419C83.7409 41.5161 83.7161 41.4903 83.6664 41.4645C83.7657 41.4645 83.8401 41.4903 83.9393 41.4903C84.2371 41.5161 84.5348 41.4645 84.8077 41.3613C84.9813 41.2839 85.1054 41.1549 85.2046 40.9743C85.279 40.8196 85.3287 40.6132 85.279 40.4326C85.2294 40.1746 85.0806 39.9166 84.8573 39.7877C84.9565 39.6587 85.0309 39.5297 85.1054 39.3749C85.2294 39.1685 85.3038 38.9621 85.3783 38.7558C85.4031 38.6784 85.4031 38.5752 85.4031 38.4978C85.4031 38.472 85.3783 38.4204 85.3783 38.3946L85.3535 38.343C85.3287 38.3172 85.3038 38.2656 85.3038 38.2398C85.2294 38.1366 85.155 38.0334 85.0558 37.956C84.9813 37.8786 84.9069 37.827 84.8325 37.7497L86.321 35.3505C86.3954 35.2215 86.3706 35.0409 86.2466 34.9635L85.2046 34.267C85.0806 34.1896 84.9069 34.2154 84.8325 34.3444L83.2695 36.8209C83.0214 36.7178 82.7733 36.6404 82.5252 36.563L82.7237 36.1502C82.7237 36.1244 82.7485 36.1244 82.7485 36.0986C82.7981 35.9438 82.6989 35.789 82.5748 35.7633C80.9374 35.1699 79.3249 34.4734 77.7371 33.6995C76.4718 33.0803 75.2066 32.4354 73.9413 31.7646C75.1073 31.5067 76.2237 31.1455 77.3153 30.6553C77.8611 30.4232 78.3821 30.1394 78.8783 29.8298C79.1264 29.675 79.3745 29.4945 79.6226 29.3139C79.8955 29.1075 80.1187 28.8753 80.3172 28.5915C80.342 28.54 80.3668 28.4884 80.3916 28.4368C80.3916 28.411 80.4165 28.3852 80.4165 28.3336L80.4413 28.282V28.2562C80.4661 28.153 80.4661 28.1014 80.4909 28.024C80.5157 27.8692 80.5157 27.7144 80.5405 27.5596C80.5405 27.4049 80.5405 27.2501 80.5653 27.1211C81.0863 27.1469 81.6073 26.9921 82.029 26.6825C82.4508 26.3472 82.8229 25.9344 83.0958 25.4443C83.592 24.5155 83.9145 23.4578 84.0386 22.4001C84.113 21.8584 84.113 21.3167 84.0634 20.7749C84.0386 20.4911 83.9642 20.2074 83.8649 19.9236C83.7905 19.7688 83.7161 19.614 83.592 19.485C83.5176 19.4076 83.468 19.356 83.3687 19.3044C83.3191 19.2787 83.2695 19.2529 83.2199 19.2271C83.1703 19.2013 83.1455 19.2013 83.0958 19.1755C82.7981 19.0981 82.5004 19.0981 82.2027 19.1755C82.029 19.2271 81.8802 19.2786 81.7313 19.3818C81.8058 18.9433 81.8554 18.5047 81.8802 18.0662C81.9298 17.2406 81.9298 16.3893 81.8802 15.5638C81.8554 15.3574 81.8554 15.151 81.8306 14.9189C81.8306 14.8157 81.8058 14.6867 81.781 14.5835C81.7561 14.4803 81.7313 14.3513 81.7065 14.2481C81.5825 13.8354 81.384 13.4226 81.1607 13.0615C80.6894 12.3391 80.1436 11.72 79.4985 11.1782C78.2333 10.1205 76.8191 9.29502 75.281 8.75327C75.0081 8.65008 74.76 8.57269 74.4871 8.49529C75.0577 8.00514 75.802 7.17962 75.9508 6.07033C76.0997 5.06423 75.802 3.38739 74.76 2.07172C74.0653 1.1946 72.7753 0.111105 70.5176 0.00791514C68.6818 -0.0694774 67.1932 0.420675 66.1264 1.47837C65.1093 2.51027 64.5386 3.92914 64.5386 5.39959C64.5138 6.94744 65.531 8.03094 66.2505 8.59848C66.0768 8.65008 65.928 8.70167 65.7543 8.77907C64.2161 9.37241 62.8268 10.3527 61.7352 11.6168C61.1894 12.2617 60.7677 13.0357 60.47 13.8354C60.2219 14.6351 60.0482 15.4864 59.9986 16.3377C59.8993 17.9888 59.9986 19.614 60.2715 21.2393C60.2715 21.2651 60.2715 21.2651 60.2715 21.2909C60.1226 21.0845 59.949 20.9039 59.7505 20.7233C59.5024 20.5169 59.2295 20.3879 58.9318 20.3106C58.6341 20.2332 58.3116 20.2332 58.0139 20.3106C57.9642 20.3106 57.9146 20.3363 57.8898 20.3621C57.8402 20.3879 57.7906 20.4137 57.741 20.4395C57.6665 20.4911 57.5921 20.5685 57.5177 20.6459C57.4184 20.7749 57.3192 20.9297 57.2448 21.0845C57.1455 21.3682 57.0711 21.652 57.0463 21.9358C56.9967 22.4775 56.9967 23.0193 57.0711 23.561C57.1952 24.6187 57.5177 25.6764 58.0387 26.6051C58.3116 27.0953 58.6589 27.5081 59.1055 27.8176C59.5024 28.0756 59.949 28.2304 60.4203 28.2046C60.4948 28.5915 60.5692 28.9785 60.6684 29.3655L60.6932 29.4687L60.718 29.5203C60.718 29.5461 60.7429 29.5719 60.7429 29.5977C60.7925 29.7008 60.8421 29.804 60.9165 29.8814C61.0158 30.0104 61.1398 30.1136 61.2887 30.2168C61.5367 30.3974 61.7848 30.578 62.0577 30.7327C62.5787 31.0165 63.1245 31.2745 63.6703 31.4551C64.0425 31.5841 64.4146 31.6872 64.7867 31.7904L58.8325 40.4068C58.7581 40.51 58.7829 40.6648 58.8822 40.7422C59.3535 41.1291 59.8249 41.4903 60.2963 41.8257C60.2963 41.8773 60.2963 41.9031 60.2963 41.9547C60.3459 42.419 60.47 42.8834 60.6436 43.3219C60.8173 43.8121 61.0902 44.2248 61.4871 44.5602C61.6112 44.6376 61.7352 44.715 61.8593 44.7666C61.9337 44.7924 62.0081 44.8182 62.0825 44.8182H62.1322H62.1818H62.281C62.5539 44.8182 62.8268 44.7408 63.0501 44.6118C63.3726 44.4054 63.6207 44.0958 63.7448 43.7347C64.1169 43.8895 64.5138 43.9927 64.9108 44.0958C64.9108 44.973 64.9108 45.8501 64.9108 46.7272C64.9108 47.1142 64.9108 47.4753 64.9356 47.8623C63.8936 48.1203 62.8268 48.3524 61.76 48.5588C61.6856 48.5588 61.636 48.6362 61.636 48.6878C61.6112 48.7652 61.6856 48.8684 61.76 48.8684C62.8268 49.049 63.8936 49.2038 64.9604 49.3327C64.9604 49.6165 64.9852 49.9003 64.9852 50.1841C64.8364 50.2356 64.7123 50.2872 64.5634 50.3388C64.365 50.442 64.1913 50.5452 64.0177 50.6742C63.8192 50.829 63.6703 51.0096 63.5711 51.2418C63.5463 51.3191 63.5215 51.4223 63.5215 51.4997C63.5463 51.6287 63.5959 51.7319 63.6703 51.8093C63.7944 51.9125 63.9432 51.9641 64.0921 51.9383H64.6627H65.8039C66.5482 51.9383 67.3173 51.9641 68.0863 51.9899C68.2848 51.9899 68.4585 51.9899 68.6569 51.9899C68.8802 51.9899 69.1283 51.9383 69.3268 51.8351C69.5749 51.7319 69.7734 51.5513 69.8974 51.3191C69.9966 51.1386 70.0711 50.9322 70.0959 50.7258H70.8402C70.8898 50.7258 70.9394 50.7258 70.989 50.7C71.7581 50.3388 72.552 50.0809 73.3707 49.9261C74.2142 49.7713 75.0577 49.6939 75.9012 49.6681C76.7447 49.6681 77.5882 49.7455 78.4317 49.9261C79.2504 50.0809 80.0691 50.3388 80.8134 50.7C80.8382 50.7258 80.8878 50.7258 80.9126 50.7258H80.9374C81.0615 50.7258 81.1855 50.7258 81.3096 50.7258C81.7065 50.7258 82.1035 50.7 82.4756 50.6742C82.5004 50.8032 82.5252 50.9064 82.55 51.0354C82.5997 51.1902 82.6741 51.3191 82.7733 51.4481C82.947 51.6803 83.2199 51.8609 83.4928 51.9383C83.7409 51.9899 83.989 52.0157 84.2371 51.9899L84.9069 51.9641C85.8 51.9383 86.6683 51.9383 87.5615 51.9383H88.2313H88.405C88.4794 51.9383 88.5538 51.9383 88.6034 51.9383C88.7275 51.9125 88.8267 51.8609 88.9012 51.7577C88.9756 51.6803 89.0004 51.5513 89.0004 51.4481C88.9756 51.0612 88.8515 50.7516 88.6531 50.5452ZM84.8077 38.5752V38.5494C84.8077 38.5494 84.8077 38.5494 84.8077 38.5752ZM84.1626 38.0592C84.3115 38.1624 84.4851 38.2656 84.6092 38.3688C84.6836 38.4204 84.7332 38.472 84.7829 38.5236L84.8077 38.5494C84.7332 38.9363 84.6092 39.3233 84.4851 39.6845L84.4603 39.7361C84.4355 39.7877 84.4851 39.8651 84.5348 39.8909C84.6836 40.0198 84.758 40.2004 84.758 40.4068C84.758 40.5616 84.6588 40.6906 84.5348 40.7164C84.3363 40.768 84.1378 40.768 83.9393 40.7422C83.7161 40.7164 83.468 40.6648 83.2447 40.6132C82.7733 40.4842 82.3268 40.3294 81.8802 40.1488C81.5329 39.994 81.1855 39.8651 80.8382 39.6845L82.1035 37.1305C82.8229 37.4143 83.5176 37.6981 84.1626 38.0592ZM77.4394 34.2412C78.9527 34.9635 80.4909 35.5827 82.0539 36.1244L80.218 39.4523L80.0691 39.3749L79.697 39.1685C79.5233 39.0653 79.3497 38.9879 79.1512 38.9879C78.6798 38.9879 78.3077 39.3749 78.3325 39.8651C78.3325 40.0714 78.4069 40.3036 78.5558 40.4584C78.6054 40.51 78.6302 40.5358 78.6798 40.5616C78.7046 40.5874 78.7294 40.5874 78.7294 40.5874L78.7791 40.6132L78.9775 40.7164L79.5978 41.0517C79.2752 41.2839 78.9279 41.5419 78.5806 41.7741C78.1836 41.3871 77.7867 41.0259 77.3649 40.6648C76.9432 40.3036 76.5214 39.9424 76.0749 39.6071C75.6283 39.2717 75.2065 38.9105 74.7352 38.601C74.2886 38.2656 73.842 37.956 73.3707 37.6465C73.718 38.085 74.1149 38.4978 74.4871 38.9105C74.7848 39.2459 75.1073 39.5813 75.4298 39.8909C74.2638 40.0714 73.0978 40.1746 71.9318 40.2004C71.4604 39.4523 70.4928 39.2717 69.7982 39.7619C69.6245 39.8909 69.4757 40.0456 69.3516 40.2262C68.905 40.2262 68.4585 40.2004 68.0119 40.1746C67.615 40.1488 67.2428 40.123 66.8459 40.0972C67.3669 39.6329 67.8631 39.1427 68.3096 38.6268C68.6073 38.2656 68.905 37.9302 69.2028 37.5433C69.4757 37.1821 69.7485 36.7952 70.0214 36.4082C70.5424 35.6601 71.0634 34.8861 71.5348 34.0864C71.9566 33.3899 72.3535 32.6418 72.7256 31.9194H72.7504C74.2886 32.7192 75.8516 33.4931 77.4394 34.2412ZM75.8268 43.4251C75.802 43.4251 74.0901 44.328 73.2466 44.7408C72.9737 44.328 72.7256 43.9153 72.5024 43.4509C72.2791 42.9866 72.0806 42.4964 71.8821 42.0062C73.5195 41.8773 75.1321 41.5935 76.7199 41.2065C76.7447 41.2323 77.5138 41.9289 77.8611 42.2126C77.2409 42.5996 76.6207 42.9608 75.9756 43.3219C75.6779 42.9866 75.3802 42.6512 75.1073 42.3158C75.3554 42.7028 75.5787 43.0897 75.8268 43.4251ZM69.1283 41.5161C68.8306 41.5161 68.5329 41.5161 68.2352 41.5161C67.3917 41.5161 66.573 41.4903 65.7295 41.4645C65.7295 41.2323 65.7295 41.0001 65.7047 40.768C66.4489 40.8196 67.218 40.8454 67.9623 40.8712C68.3344 40.8712 68.7066 40.8712 69.1035 40.8712C69.0787 40.9485 69.0787 41.0259 69.0787 41.1033C69.0787 41.2323 69.1035 41.3871 69.1283 41.5161ZM65.7543 42.9608C65.7543 42.7028 65.7543 42.4448 65.7543 42.2126C66.3001 42.2384 66.8459 42.2384 67.3917 42.2384V42.5222V43.0897C67.4165 43.4509 67.4165 43.8379 67.4413 44.199C67.4661 44.5602 67.4909 44.9472 67.5405 45.3083C67.5902 45.6695 67.6398 46.0565 67.7142 46.4176C67.7886 46.0565 67.8382 45.6695 67.8879 45.3083C67.9375 44.9472 67.9623 44.5602 67.9871 44.199C68.0119 43.8379 68.0367 43.4509 68.0367 43.0897L68.0615 42.5222V42.2384C68.1112 42.2384 69.0539 42.2126 69.4508 42.1868C69.5005 42.2384 69.5501 42.29 69.5997 42.3416C69.5997 42.3416 69.5997 42.3416 69.5997 42.3674C69.6493 43.0381 69.6989 43.7089 69.7982 44.3796C69.8726 44.973 69.9718 45.5405 70.1207 46.1081C68.6818 46.6756 67.1932 47.1399 65.7047 47.5527C65.7047 47.2431 65.7295 46.9594 65.7295 46.6498C65.7543 45.4115 65.7543 44.199 65.7543 42.9608ZM69.8974 41.4903C69.7982 41.2839 69.7734 41.0517 69.8478 40.8454C69.9718 40.4068 70.4432 40.1488 70.865 40.3036C71.0882 40.381 71.2867 40.5616 71.3611 40.7938C71.4108 40.897 71.4108 41.0001 71.4108 41.1033C71.4108 41.2065 71.3859 41.3097 71.3611 41.4129C71.3363 41.4903 71.2867 41.5677 71.2371 41.6193C71.2123 41.6709 71.1875 41.6967 71.1379 41.7225C70.989 41.8515 70.7905 41.9289 70.5921 41.9289C70.3192 41.9547 70.0463 41.7741 69.8974 41.4903ZM70.6169 42.7028L71.5348 45.5147C71.4356 45.5663 71.3611 45.5921 71.2619 45.6437C71.0634 45.7211 70.8401 45.7985 70.6417 45.9017C70.5424 45.3857 70.468 44.844 70.4432 44.3022C70.3936 43.7605 70.3936 43.2187 70.3688 42.7028C70.4432 42.7028 70.5176 42.7028 70.6169 42.7028ZM71.2867 42.548C71.3115 42.548 71.3363 42.5222 71.3611 42.5222C71.5844 42.935 71.8077 43.3477 72.0558 43.7605C72.3039 44.1732 72.5768 44.5602 72.8745 44.9472C72.552 45.1019 72.2295 45.2309 71.8821 45.3857L71.2867 42.548ZM72.1302 40.7422C73.3459 40.6648 74.5615 40.51 75.7772 40.2778C75.9508 40.4584 76.1245 40.6132 76.2982 40.768C74.9337 41.0517 73.5443 41.2581 72.155 41.3613C72.1798 41.1549 72.1798 40.9485 72.1302 40.7422ZM69.7982 35.3247C69.5749 35.0925 69.3764 34.8603 69.1779 34.6282C68.8802 34.2928 68.6073 33.9316 68.3344 33.5705C67.9623 33.1061 67.615 32.6418 67.2924 32.1516C68.384 32.2548 69.4508 32.2806 70.5424 32.2032C70.9642 32.1774 71.3611 32.1258 71.7829 32.0742C71.1379 33.1835 70.468 34.267 69.7982 35.3247ZM69.5749 7.4376C69.9222 7.20542 70.3192 7.07643 70.7409 7.05063H70.8898H71.0634C71.1627 7.05063 71.2619 7.07643 71.3611 7.07643C71.5596 7.10223 71.7333 7.17962 71.9069 7.28281C72.0558 7.386 72.1798 7.54079 72.2543 7.69557C72.2791 7.74717 72.3039 7.79876 72.3039 7.87615C71.6837 7.77296 71.0634 7.72137 70.4432 7.74717C69.9966 7.74717 69.5749 7.77296 69.1283 7.82456C69.2524 7.69557 69.4012 7.54079 69.5749 7.4376ZM63.8688 30.6038C63.3478 30.449 62.8268 30.2168 62.3554 29.9588C62.1074 29.8298 61.8841 29.7008 61.6608 29.5461C61.5616 29.4687 61.4623 29.3913 61.3879 29.3139C61.3631 29.2881 61.3135 29.2365 61.3135 29.2365L61.2887 29.2107L61.2638 29.1591L61.239 29.0559C60.9165 27.9208 60.5444 26.8115 60.073 25.728C60.0978 26.3988 60.1722 27.0437 60.2715 27.6886C59.9242 27.6628 59.6016 27.5081 59.3287 27.3017C58.9814 26.9921 58.6837 26.6309 58.4852 26.1924C58.0635 25.3411 57.8154 24.4382 57.741 23.4836C57.8402 23.4063 57.9394 23.3805 58.0635 23.3547C58.1627 23.3547 58.2371 23.3547 58.3364 23.3547C58.3612 23.3547 58.386 23.3547 58.386 23.3547C58.4108 23.3547 58.4356 23.3547 58.4604 23.3805C58.51 23.3805 58.5348 23.4062 58.5845 23.4062C58.7829 23.4836 58.9566 23.561 59.1303 23.6642C59.3287 23.7932 59.552 23.9222 59.8001 24.0512C59.7753 23.4062 59.3784 22.8645 58.7829 22.6581C58.7085 22.6323 58.6093 22.6065 58.5348 22.6065C58.51 22.6065 58.4604 22.6065 58.4356 22.6065C58.386 22.6065 58.3364 22.6065 58.3116 22.6065C58.1379 22.6323 57.989 22.6839 57.8402 22.7871C57.7906 22.8129 57.7658 22.8387 57.7161 22.8903C57.6913 22.4517 57.7161 22.039 57.7906 21.6004C57.8154 21.2909 58.0387 21.0329 58.3364 20.9555C58.6589 20.9297 58.9814 21.0329 59.2543 21.2393C59.5768 21.4972 60.0482 22.3486 60.0482 22.3486C60.073 22.4001 60.1226 22.4259 60.1722 22.4775C60.1971 22.7871 60.2467 23.0967 60.3211 23.3805C60.5196 24.1028 60.7925 24.8251 61.1646 25.4701C61.3383 25.8054 61.5119 26.115 61.7104 26.4246C61.9089 26.7083 62.0577 27.0179 62.2066 27.3275C62.4299 27.9724 62.3306 28.6947 61.9585 29.2623C61.9337 29.2881 61.9337 29.3139 61.9337 29.3397C61.9337 29.3397 61.9337 29.3397 61.9337 29.3655C61.9337 29.4171 61.9833 29.4687 62.0577 29.4429H62.0825C62.4051 29.3913 62.7276 29.2365 62.9757 29.0301C63.2486 28.7979 63.4718 28.4884 63.5711 28.153C63.7199 27.4823 63.7199 26.7599 63.5215 26.115C63.3726 25.4701 63.1741 24.8509 63.0253 24.2576C62.9509 23.9738 62.8764 23.6642 62.8268 23.3805C62.7772 23.0967 62.7772 22.8129 62.802 22.5291C62.8764 21.9358 63.0501 21.3682 63.2982 20.8523C63.3478 20.7233 63.4222 20.6201 63.4719 20.4911L63.5463 20.5169L63.9184 20.5943C64.1665 20.6459 64.4146 20.7233 64.6627 20.7749C65.1589 20.9039 65.6551 21.0071 66.1264 21.1619C66.5978 21.3167 67.094 21.4456 67.5902 21.6262C68.0615 21.8068 68.5329 21.9358 69.0291 22.1164C68.6321 21.781 68.2104 21.4972 67.7886 21.2393C67.3421 20.9555 66.8707 20.6975 66.4241 20.4653C65.9776 20.2332 65.4814 20.001 64.9852 19.7946C64.7371 19.6914 64.489 19.614 64.2409 19.5108L64.1169 19.4592C64.1665 19.4076 64.1913 19.3302 64.2409 19.2787C64.4146 19.0207 64.5883 18.7885 64.7619 18.4273C64.9108 18.1178 65.0348 17.8082 65.1341 17.4728C65.3077 16.9311 65.4318 16.3635 65.531 15.796C66.176 15.6412 66.8459 15.538 67.4909 15.4606C68.2352 15.3832 68.9795 15.3574 69.7237 15.3316C71.2123 15.3316 72.7008 15.4864 74.1646 15.7702C74.239 15.796 74.2886 15.7702 74.363 15.7444C75.1321 15.4606 75.926 15.2026 76.7447 14.9963C77.4642 14.7899 78.2084 14.6867 78.9775 14.6093C79.1016 14.7899 79.2008 14.9705 79.3 15.151C79.4241 15.409 79.5481 15.667 79.6474 15.925C79.8458 16.4667 80.0195 17.0085 80.1187 17.576C80.342 18.7111 80.4413 19.872 80.3916 21.0329C80.3668 21.2393 80.5157 21.4198 80.7142 21.4198C80.7886 21.4198 80.8878 21.394 80.9374 21.3425C80.9623 21.3167 80.9871 21.3167 81.0119 21.2909C81.0367 21.2651 81.0615 21.2393 81.0615 21.2135C81.0615 21.2135 81.0615 21.2135 81.0615 21.1877V21.1619C81.1359 20.9555 81.2352 20.7749 81.3592 20.6201C81.4832 20.4395 81.6321 20.259 81.8058 20.1042C82.0787 19.872 82.426 19.7688 82.7733 19.7946C83.0958 19.8462 83.2447 20.1816 83.2943 20.4911C83.3191 20.6459 83.3439 20.8265 83.3687 20.9813C83.3935 21.1103 83.3935 21.2393 83.3935 21.3682C83.3935 21.4456 83.3935 21.4972 83.3935 21.5746C83.3935 21.6004 83.3687 21.7552 83.3935 21.7552C83.3439 21.7036 83.3191 21.6778 83.2695 21.6262C83.1206 21.523 82.9718 21.4714 82.7981 21.4456C82.7485 21.4456 82.6989 21.4456 82.6741 21.4456C82.6493 21.4456 82.5997 21.4456 82.5748 21.4456C82.4756 21.4456 82.4012 21.4714 82.3268 21.4972C81.7561 21.7036 81.3344 22.2454 81.3096 22.8903C81.5825 22.7613 81.781 22.6065 81.9794 22.5033C82.1531 22.4001 82.3268 22.297 82.5252 22.2454C82.5748 22.2454 82.6245 22.2196 82.6493 22.2196C82.6741 22.2196 82.6989 22.2196 82.7237 22.1938H82.7733C82.8726 22.1938 82.947 22.1938 83.0462 22.1938C83.1703 22.2196 83.2943 22.2454 83.3935 22.3228C83.2943 23.2515 83.0462 24.1802 82.6245 25.0057C82.426 25.4185 82.1283 25.7796 81.7561 26.0892C81.4336 26.3472 81.0119 26.4762 80.6149 26.4504C80.6149 25.8828 80.5653 25.3153 80.4413 24.7477C80.2676 25.3153 80.1187 25.9086 80.0195 26.502C79.9699 26.7857 79.9203 27.0953 79.8707 27.3791L79.7962 27.7918C79.7962 27.8692 79.7714 27.9208 79.7466 27.9982V28.024C79.7466 28.024 79.7218 28.0498 79.7218 28.0756C79.5729 28.2562 79.3993 28.4368 79.2008 28.5915C78.9775 28.7463 78.7542 28.9011 78.531 29.0559C78.0596 29.3397 77.5634 29.5719 77.0424 29.804C74.9585 30.6296 72.7753 31.1455 70.5424 31.3003C68.2352 31.4809 66.0024 31.2487 63.8688 30.6038ZM62.7028 43.9411C62.4299 44.07 62.1074 44.0443 61.8593 43.8637C61.6112 43.6057 61.4127 43.2961 61.2887 42.935C61.2142 42.7286 61.1398 42.5222 61.0902 42.3158C61.3383 42.4706 61.5615 42.5996 61.8096 42.7544C62.281 43.0123 62.7524 43.2445 63.2486 43.4767C63.1245 43.6831 62.9261 43.8379 62.7028 43.9411ZM64.8612 42.9608C64.8612 43.0381 64.8612 43.1155 64.8612 43.1929C63.9184 42.935 63.0005 42.5996 62.1322 42.1352C61.6112 41.8773 61.0902 41.5677 60.594 41.2581C60.1722 41.0001 59.7257 40.7164 59.3287 40.4068L65.5062 31.8678C65.7543 31.9194 66.0272 31.971 66.2753 32.0226C66.7963 32.6933 67.3421 33.3125 67.8879 33.9574C68.4089 34.5508 68.9795 35.1183 69.5997 35.6085C69.5253 35.7375 69.4508 35.8406 69.3764 35.9696C69.1283 36.3566 68.8802 36.7178 68.6073 37.1047C68.3592 37.4659 68.0863 37.8528 67.8134 38.214C67.3421 38.859 66.8459 39.4781 66.3249 40.0714C66.1016 40.0456 65.9031 40.0456 65.6799 40.0198C65.6799 39.7877 65.6799 39.5555 65.655 39.3233C65.6302 38.085 65.5062 36.8725 65.2829 35.6601C65.0596 36.8725 64.9356 38.085 64.9108 39.3233C64.886 40.5358 64.8612 41.7483 64.8612 42.9608ZM64.886 48.8168C64.2161 48.7652 63.5463 48.7136 62.8764 48.6362C63.5463 48.533 64.1913 48.404 64.8612 48.2492C65.1589 48.1976 65.4318 48.1203 65.7295 48.0687C66.052 47.9913 66.3745 47.9139 66.6722 47.8365C68.3096 47.3979 69.8974 46.9078 71.4852 46.2886C73.073 45.6953 74.6111 44.9988 76.0997 44.199C76.1493 44.1732 76.2237 44.1216 76.2733 44.0958C76.3478 44.0443 76.447 43.9927 76.5214 43.9669C77.8363 43.2445 79.1016 42.4448 80.2924 41.5161L80.4413 41.5935C80.5653 41.6709 80.6894 41.7483 80.8134 41.7999C80.1187 42.4964 79.3745 43.1671 78.5806 43.7605C78.1588 44.0958 77.7123 44.4054 77.2657 44.715C77.1665 44.7924 77.0672 44.844 76.9928 44.9214C76.571 45.2051 76.1493 45.4889 75.7275 45.7469C73.7676 46.9594 71.7581 48.0687 69.6493 49.049C68.3344 49.0232 67.0444 48.9716 65.7295 48.8942C65.4318 48.8426 65.1589 48.8168 64.886 48.8168ZM69.2772 50.8806C69.2276 50.9838 69.1283 51.087 69.0043 51.1386C68.8802 51.216 68.7314 51.2418 68.5825 51.2418C68.4089 51.2418 63.9928 51.2933 63.968 51.2933C64.0425 51.1644 64.1417 51.0612 64.2409 50.9838C64.365 50.8806 64.5386 50.8032 64.6875 50.7516C64.8612 50.6742 65.0596 50.6484 65.2581 50.6226H69.3268C69.3516 50.7516 69.3268 50.829 69.2772 50.8806ZM82.6741 49.8745C82.1283 49.9261 81.5825 49.9261 81.0367 49.9003C80.218 49.6165 79.3993 49.3843 78.531 49.2553C77.6626 49.1006 76.7695 49.049 75.9012 49.049C75.0329 49.049 74.1398 49.1264 73.2714 49.2811C72.8249 49.3585 72.4031 49.4359 71.9814 49.5391C71.5844 49.6423 71.1627 49.7455 70.7657 49.9003H65.655C65.655 49.7197 65.6799 49.5133 65.6799 49.3327C66.9947 49.4617 68.3344 49.5649 69.6741 49.6423C69.7237 49.6423 69.7486 49.6423 69.7982 49.6165C70.865 49.1264 71.9069 48.5846 72.9489 48.0429C73.718 47.6301 74.4871 47.1915 75.2314 46.753L75.3802 46.6498C75.5787 46.5208 75.7772 46.4176 76.0004 46.2886C76.4718 46.0049 76.9184 45.6953 77.3897 45.4115C77.5634 45.5921 77.7371 45.7727 77.9107 45.9533C78.9775 47.0368 80.1436 47.9913 81.4088 48.791C80.3172 47.7591 79.2256 46.7272 78.1588 45.6695C78.01 45.5147 77.8363 45.3599 77.6875 45.1793C78.1092 44.8956 78.531 44.6118 78.9279 44.3022C79.5481 43.8379 80.1684 43.3477 80.739 42.8318L87.1397 48.4814C86.2466 48.9458 85.279 49.3327 84.3115 49.6165C83.7905 49.7455 83.2447 49.8229 82.6741 49.8745ZM88.2065 51.3191H87.5367C86.6435 51.3191 85.7752 51.3191 84.8821 51.2933H84.2122C84.0138 51.2933 83.8401 51.2676 83.6416 51.216C83.4928 51.1644 83.3687 51.087 83.2943 50.958C83.2447 50.9064 83.2199 50.829 83.1951 50.7516C83.1703 50.6742 83.1703 50.6226 83.1703 50.5452C83.592 50.4678 84.0386 50.3904 84.4603 50.2872C84.7084 50.2099 84.9565 50.1325 85.2046 50.0551C85.6264 50.2872 86.0729 50.442 86.5443 50.5194C86.7924 50.5452 87.0405 50.5194 87.2141 50.5452C87.4126 50.5452 87.5863 50.5968 87.7848 50.6742C87.9584 50.7516 88.1073 50.8548 88.2561 50.9838C88.3554 51.087 88.4298 51.216 88.4794 51.3707L88.2065 51.3191Z" fill="#010101"/>
<path d="M69.9741 26.3469C70.247 26.5531 70.5943 26.6562 70.9417 26.6562C71.289 26.6562 71.6115 26.5273 71.8844 26.3211C72.1573 26.1407 72.3558 25.8571 72.4302 25.522C71.9588 25.7282 71.4379 25.8571 70.9169 25.8829C70.3959 25.8829 69.8997 25.754 69.4531 25.522C69.5027 25.8571 69.7012 26.1664 69.9741 26.3469Z" fill="#010101"/>
<path d="M68.9522 28.127C69.2251 28.1786 69.498 28.256 69.7461 28.3334C70.019 28.4108 70.6392 28.5914 70.6641 28.5914C70.6641 28.5914 72.3263 27.9723 72.5992 27.8691C72.6488 27.8433 72.6984 27.8433 72.7728 27.8175C72.8224 27.8175 72.8721 27.8175 72.9217 27.8433C73.0705 27.8949 73.2194 27.9465 73.3682 27.998L74.2862 28.4108C74.0629 28.127 73.8396 27.8691 73.5667 27.6369C73.4179 27.5079 73.269 27.4047 73.0953 27.3273C72.9961 27.2757 72.8721 27.2499 72.7728 27.2241C72.6736 27.2241 72.5495 27.2241 72.4503 27.2499C72.103 27.3273 71.7805 27.4563 71.4579 27.6111C71.185 27.7659 70.9121 27.9207 70.6889 28.127C70.4656 27.9723 70.2175 27.8433 69.9694 27.7401C69.6717 27.6111 69.3492 27.5337 69.0267 27.5079C68.853 27.5079 68.6545 27.5337 68.4809 27.5853C68.332 27.6627 68.1831 27.7401 68.0343 27.8433C67.7862 28.0496 67.5629 28.2818 67.4141 28.5656C67.7118 28.4366 67.9847 28.3076 68.2328 28.2044C68.456 28.127 68.7041 28.1012 68.9522 28.127Z" fill="#010101"/>
<path d="M66.5219 22.2712C66.125 22.2196 65.728 22.1938 65.3063 22.1938C64.9093 22.1938 64.4876 22.2196 64.0906 22.2712C63.6689 22.3227 63.2719 22.4259 62.875 22.5805C63.2719 22.7352 63.6689 22.8383 64.0906 22.8899C64.4876 22.9414 64.8845 22.9672 65.3063 22.9672C65.7032 22.9672 66.125 22.9414 66.5219 22.8899C66.9437 22.8383 67.3406 22.7352 67.7376 22.5805C67.3406 22.4259 66.9189 22.3227 66.5219 22.2712Z" fill="#010101"/>
<path d="M76.4477 22.1938C76.0012 22.1938 75.5298 22.2196 75.0832 22.2712C74.6119 22.3227 74.1653 22.4259 73.7188 22.5805C74.1653 22.7352 74.6119 22.8383 75.0832 22.8899C75.5298 22.9414 75.9764 22.9672 76.4477 22.9672C76.8943 22.9672 77.3657 22.9414 77.8122 22.8899C78.2836 22.8383 78.7302 22.7352 79.1767 22.5805C78.7302 22.4259 78.2836 22.3227 77.8122 22.2712C77.3657 22.2196 76.9191 22.1938 76.4477 22.1938Z" fill="#010101"/>
<path d="M74.9854 19.098C75.9034 18.3241 76.9454 17.7307 78.0866 17.3438C78.1362 17.318 78.1858 17.318 78.2354 17.2922C78.2354 17.2922 78.037 16.544 76.9454 16.7762C77.2679 16.4924 77.4415 16.0797 77.4415 15.6411H77.4167C76.7965 15.9507 76.2011 16.3634 75.6553 16.8278C75.1343 17.2922 74.6629 17.7823 74.2412 18.3241C73.8194 18.8658 73.4473 19.4075 73.0999 20.0009C72.7526 20.5684 72.4797 21.1876 72.2812 21.8325C73.1248 20.8522 74.0179 19.9235 74.9854 19.098Z" fill="#010101"/>
<path d="M69.2516 22.1165C69.4006 21.9617 69.5247 21.7554 69.5992 21.5232C69.6737 21.291 69.6985 21.0588 69.6737 20.8267C69.6489 20.5945 69.5992 20.3623 69.5247 20.1559C69.4503 19.9495 69.3013 19.7432 69.1523 19.5884C69.2268 20.0527 69.3013 20.4397 69.3261 20.8525C69.3261 21.291 69.3013 21.7038 69.2516 22.1165Z" fill="#010101"/>
<path d="M71.3362 21.5229C71.4852 21.6777 71.659 21.8067 71.8824 21.8583C71.659 21.5487 71.4852 21.1876 71.361 20.8264C71.2617 20.4395 71.1624 20.0525 71.1376 19.6655C71.0383 19.8461 70.9638 20.0783 70.939 20.2847C70.9142 20.5168 70.939 20.7232 71.0135 20.9554C71.088 21.1618 71.1873 21.3682 71.3362 21.5229Z" fill="#010101"/>
<path d="M83.6403 42.2387C83.6403 42.2387 83.6651 42.2387 83.6651 42.2645L83.6899 42.2903C83.7395 42.3419 83.7643 42.3935 83.7643 42.4451C83.7643 42.5741 83.6651 42.703 83.5162 42.703H83.541C83.4914 42.703 83.4666 42.703 83.417 42.6772C83.3922 42.6772 83.3177 42.6257 83.2681 42.5999L82.896 42.3935L82.1517 41.9807C82.0277 41.9033 81.9036 41.8517 81.7796 41.7743C81.5811 41.6711 81.3578 41.5422 81.1593 41.4132C80.9857 41.31 80.8368 41.2326 80.6632 41.1294L80.5639 41.0778L80.0181 40.7424L79.1994 40.2523C79.0754 40.1749 78.9265 40.0975 78.9265 40.0459C78.8769 39.9943 78.8521 39.9169 78.8769 39.8395C78.8769 39.6847 79.001 39.5815 79.1498 39.5815C79.2242 39.5815 79.2491 39.6073 79.3979 39.6847L79.77 39.9169L79.9189 39.9943L80.1422 40.1233L80.5143 40.3297C80.5143 40.3297 80.5391 40.3297 80.5391 40.3555C81.0105 40.6392 81.5067 40.923 81.9781 41.2068C82.4742 41.4906 82.9704 41.7743 83.4666 42.0323L83.6651 42.1355L83.6403 42.2387C83.6154 42.2129 83.6403 42.2387 83.6403 42.2387Z" fill="#FECB3D"/>
<path d="M85.0793 34.8604L85.6499 35.2473L84.3351 37.3885C84.1366 37.2595 83.9381 37.1305 83.7148 37.0273L85.0793 34.8604Z" fill="#FECB3D"/>
</svg>
