<svg width="154" height="154" viewBox="0 0 154 154" fill="none" xmlns="http://www.w3.org/2000/svg">
    <path d="M133.238 82.5612C132.534 82.5716 131.849 82.3362 131.298 81.895C130.746 81.4538 130.364 80.8339 130.214 80.1406C129.662 77.2849 128.141 74.7116 125.913 72.8616C123.684 71.0116 120.887 70 118 70C115.113 70 112.316 71.0116 110.088 72.8616C107.859 74.7116 106.339 77.2849 105.786 80.1406C105.637 80.8339 105.254 81.4538 104.703 81.895C104.152 82.3362 103.466 82.5716 102.762 82.5612H90.0003V95.423C89.9901 96.1323 90.2236 96.8234 90.6614 97.3789C91.0992 97.9345 91.7142 98.3202 92.4021 98.4707C95.2357 99.0278 97.7889 100.56 99.6245 102.806C101.46 105.052 102.464 107.871 102.464 110.781C102.464 113.69 101.46 116.509 99.6245 118.755C97.7889 121.001 95.2357 122.533 92.4021 123.091C91.7142 123.241 91.0992 123.627 90.6614 124.182C90.2236 124.738 89.9901 125.429 90.0003 126.138V139H139.778C141.428 139 143.011 138.339 144.178 137.163C145.344 135.987 146 134.392 146 132.729V82.5612H133.238Z" fill="#EAB669"/>
    <path d="M141.168 128.335C141.168 130.037 140.492 131.669 139.289 132.872C138.086 134.075 136.453 134.752 134.752 134.752H83.4183V121.591C83.4077 120.865 83.6486 120.158 84.1 119.59C84.5515 119.021 85.1858 118.626 85.8951 118.472C88.8173 117.902 91.4503 116.334 93.3433 114.036C95.2362 111.738 96.2714 108.854 96.2714 105.877C96.2714 102.899 95.2362 100.015 93.3433 97.7168C91.4503 95.4189 88.8173 93.8506 85.8951 93.2806C85.1858 93.1266 84.5515 92.7319 84.1 92.1635C83.6486 91.595 83.4077 90.8879 83.4183 90.1621V77.0015H96.5789C97.3047 77.0121 98.0118 76.7712 98.5803 76.3198C99.1487 75.8683 99.5434 75.2341 99.6974 74.5247C100.267 71.6025 101.836 68.9695 104.134 67.0765C106.432 65.1836 109.316 64.1484 112.293 64.1484C115.271 64.1484 118.155 65.1836 120.453 67.0765C122.751 68.9695 124.319 71.6025 124.889 74.5247C125.043 75.2341 125.438 75.8683 126.006 76.3198C126.575 76.7712 127.282 77.0121 128.008 77.0015H141.168V91.5" stroke="#E3E3E3" stroke-linecap="round" stroke-linejoin="round"/>
    <path d="M133.138 16.0003C132.429 15.9901 131.738 16.2236 131.182 16.6614C130.627 17.0992 130.241 17.7142 130.091 18.4021C129.533 21.2356 128.001 23.7888 125.755 25.6244C123.509 27.46 120.69 28.4638 117.781 28.4638C114.871 28.4638 112.052 27.46 109.806 25.6244C107.56 23.7888 106.028 21.2356 105.471 18.4021C105.32 17.7142 104.934 17.0992 104.379 16.6614C103.823 16.2236 103.132 15.9901 102.423 16.0003H89.5612V28.762C89.5716 29.4658 89.3362 30.1515 88.895 30.7027C88.4538 31.2539 87.8339 31.6366 87.1406 31.7859C84.2849 32.3387 81.7116 33.8594 79.8616 36.0876C78.0116 38.3159 77 41.113 77 44C77 46.887 78.0116 49.6841 79.8616 51.9124C81.7116 54.1406 84.2849 55.6613 87.1406 56.2141C87.8339 56.3634 88.4538 56.7461 88.895 57.2973C89.3362 57.8485 89.5716 58.5342 89.5612 59.238V71.9997H102.423C103.132 72.0099 103.823 71.7764 104.379 71.3386C104.934 70.9008 105.32 70.2858 105.471 69.5979C106.028 66.7644 107.56 64.2112 109.806 62.3756C112.052 60.54 114.871 59.5362 117.781 59.5362C120.69 59.5362 123.509 60.54 125.755 62.3756C128.001 64.2112 129.533 66.7644 130.091 69.5979C130.241 70.2858 130.627 70.9008 131.182 71.3386C131.738 71.7764 132.429 72.0099 133.138 71.9997H146V22.2225C146 20.5723 145.339 18.9896 144.163 17.8228C142.987 16.6559 141.392 16.0003 139.729 16.0003H133.138Z" fill="#CE7783"/>
    <path d="M141.166 38V25.667C141.166 23.9652 140.49 22.3331 139.286 21.1297C138.083 19.9264 136.451 19.2503 134.749 19.2503H128.005C127.279 19.2397 126.572 19.4806 126.004 19.9321C125.435 20.3835 125.04 21.0178 124.886 21.7272C124.316 24.6493 122.748 27.2823 120.45 29.1753C118.152 31.0683 115.268 32.1034 112.291 32.1034C109.313 32.1034 106.429 31.0683 104.131 29.1753C101.833 27.2823 100.265 24.6493 99.6947 21.7272C99.5407 21.0178 99.146 20.3835 98.5775 19.9321C98.0091 19.4806 97.302 19.2397 96.5762 19.2503H83.4156V32.4109C83.4262 33.1367 83.1853 33.8439 82.7338 34.4123C82.2824 34.9807 81.6481 35.3754 80.9387 35.5294C78.0166 36.0994 75.3836 37.6677 73.4906 39.9656C71.5976 42.2635 70.5625 45.1481 70.5625 48.1253C70.5625 51.1025 71.5976 53.9871 73.4906 56.285C75.3836 58.583 78.0166 60.1512 80.9387 60.7213C81.6481 60.8752 82.2824 61.2699 82.7338 61.8384C83.1853 62.4068 83.4262 63.1139 83.4156 63.8398V77.0003H96.5762C97.302 77.0109 98.0091 76.7701 98.5775 76.3186C99.146 75.8671 99.5407 75.2329 99.6947 74.5235C100.265 71.6014 101.833 68.9683 104.131 67.0754C106.429 65.1824 109.313 64.1473 112.291 64.1473C115.268 64.1473 118.152 65.1824 120.45 67.0754C122.748 68.9683 124.316 71.6014 124.886 74.5235C125.04 75.2329 125.435 75.8671 126.004 76.3186C126.572 76.7701 127.279 77.0109 128.005 77.0003H141.166V57.5002" stroke="#E3E3E3" stroke-linecap="round" stroke-linejoin="round"/>
    <path d="M46.3836 19.25H32.085C30.3832 19.25 28.7511 19.926 27.5477 21.1294C26.3443 22.3328 25.6683 23.9649 25.6683 25.6667V32.4106C25.6577 33.1364 25.8986 33.8435 26.35 34.412C26.8015 34.9804 27.4358 35.3751 28.1451 35.5291C31.0673 36.0991 33.7003 37.6674 35.5933 39.9653C37.4862 42.2632 38.5214 45.1478 38.5214 48.125C38.5214 51.1022 37.4862 53.9868 35.5933 56.2847C33.7003 58.5826 31.0673 60.1509 28.1451 60.7209C27.4358 60.8749 26.8015 61.2696 26.35 61.838C25.8986 62.4065 25.6577 63.1136 25.6683 63.8394V77H38.8289C39.5547 76.9894 40.2618 77.2303 40.8303 77.6817C41.3987 78.1332 41.7934 78.7675 41.9474 79.4768C42.5174 82.399 44.0857 85.032 46.3836 86.925C48.6815 88.8179 51.5661 89.8531 54.5433 89.8531C57.5205 89.8531 60.4051 88.8179 62.703 86.925C65.0009 85.032 66.5692 82.399 67.1392 79.4768C67.2932 78.7675 67.6879 78.1332 68.2563 77.6817C68.8248 77.2303 69.5319 76.9894 70.2577 77H83.4183V63.8394C83.4289 63.1136 83.188 62.4065 82.7366 61.838C82.2851 61.2696 81.6509 60.8749 80.9415 60.7209C78.0193 60.1509 75.3863 58.5826 73.4933 56.2847C71.6004 53.9868 70.5652 51.1022 70.5652 48.125C70.5652 45.1478 71.6004 42.2632 73.4933 39.9653C75.3863 37.6674 78.0193 36.0991 80.9415 35.5291C81.6509 35.3751 82.2851 34.9804 82.7366 34.412C83.188 33.8435 83.4289 33.1364 83.4183 32.4106V19.25H69" stroke="#E3E3E3" stroke-linecap="round" stroke-linejoin="round"/>
    <path d="M78.0535 98.786C77.3735 98.6367 76.7655 98.2539 76.3327 97.7028C75.9 97.1516 75.6691 96.4658 75.6792 95.762V83.0003H63.0636C62.3679 82.9901 61.69 83.2236 61.1451 83.6614C60.6003 84.0992 60.2219 84.7142 60.0743 85.4021C59.5279 88.2357 58.0245 90.7889 55.8218 92.6245C53.619 94.4601 50.8539 95.4638 48 95.4638C45.1461 95.4638 42.381 94.4601 40.1782 92.6245C37.9755 90.7889 36.4721 88.2357 35.9257 85.4021C35.7781 84.7142 35.3997 84.0992 34.8549 83.6614C34.31 83.2236 33.6321 82.9901 32.9364 83.0003H20.3208V95.762C20.3309 96.4658 20.1 97.1516 19.6673 97.7028C19.2345 98.2539 18.6265 98.6367 17.9465 98.786C15.1454 99.3388 12.6214 100.859 10.8068 103.088C8.99226 105.316 8 108.113 8 111C8 113.887 8.99226 116.684 10.8068 118.913C12.6214 121.141 15.1454 122.662 17.9465 123.214C18.6265 123.364 19.2345 123.746 19.6673 124.298C20.1 124.849 20.3309 125.534 20.3208 126.238V132.778C20.3208 134.428 20.9688 136.011 22.1224 137.178C23.2759 138.344 24.8404 139 26.4717 139H75.6792V126.238C75.6691 125.534 75.9 124.849 76.3327 124.298C76.7655 123.746 77.3735 123.364 78.0535 123.214C80.8546 122.662 83.3786 121.141 85.1932 118.913C87.0077 116.684 88 113.887 88 111C88 108.113 87.0077 105.316 85.1932 103.088C83.3786 100.859 80.8546 99.3388 78.0535 98.786Z" fill="#71A5D2"/>
    <path d="M41.9447 134.75H32.0822C30.3804 134.75 28.7483 134.074 27.545 132.871C26.3416 131.668 25.6656 130.035 25.6656 128.334V121.59C25.6762 120.864 25.4353 120.157 24.9838 119.588C24.5324 119.02 23.8981 118.625 23.1887 118.471C20.2666 117.901 17.6336 116.333 15.7406 114.035C13.8476 111.737 12.8125 108.853 12.8125 105.875C12.8125 102.898 13.8476 100.014 15.7406 97.7156C17.6336 95.4177 20.2666 93.8494 23.1887 93.2794C23.8981 93.1254 24.5324 92.7307 24.9838 92.1623C25.4353 91.5939 25.6762 90.8867 25.6656 90.1609V77.0003H38.8262C39.552 76.9897 40.2591 77.2306 40.8275 77.6821C41.396 78.1335 41.7907 78.7678 41.9447 79.4772C42.5147 82.3993 44.0829 85.0323 46.3809 86.9253C48.6788 88.8183 51.5634 89.8534 54.5406 89.8534C57.5178 89.8534 60.4024 88.8183 62.7003 86.9253C64.9982 85.0323 66.5665 82.3993 67.1365 79.4772C67.2905 78.7678 67.6852 78.1335 68.2536 77.6821C68.822 77.2306 69.5292 76.9897 70.255 77.0003H83.4156V90.1609C83.405 90.8867 83.6459 91.5939 84.0973 92.1623C84.5488 92.7307 85.183 93.1254 85.8924 93.2794C88.8145 93.8494 91.4476 95.4177 93.3405 97.7156C95.2335 100.014 96.2686 102.898 96.2686 105.875C96.2686 108.853 95.2335 111.737 93.3405 114.035C91.4476 116.333 88.8145 117.901 85.8924 118.471C85.183 118.625 84.5488 119.02 84.0973 119.588C83.6459 120.157 83.405 120.864 83.4156 121.59V134.75H66" stroke="#E3E3E3" stroke-linecap="round" stroke-linejoin="round"/>
</svg>
