<svg width="152" height="150" viewBox="0 0 152 150" fill="none" xmlns="http://www.w3.org/2000/svg">
    <path d="M18.4727 109.674C18.4727 108.017 19.8158 106.674 21.4727 106.674H35.4138C37.0707 106.674 38.4138 108.017 38.4138 109.674V146.374H18.4727V109.674Z" fill="#CE7783"/>
    <path d="M37.1562 69.3104L42.216 64.7854L49.6567 58.2168" stroke="#E3E3E3" stroke-linecap="round"/>
    <path d="M98.4742 79.651L73.9704 63.1256L65.6875 57.3809" stroke="#E3E3E3" stroke-linecap="round"/>
    <path d="M129.426 10.9238V15.0109" stroke="#E3E3E3" stroke-linecap="round"/>
    <path d="M129.426 31.0684V35.1555" stroke="#E3E3E3" stroke-linecap="round"/>
    <path d="M124.07 44.3477L125.516 46.2225C127.117 48.2998 130.25 48.2998 131.852 46.2225L133.297 44.3477" stroke="#E3E3E3" stroke-linecap="round"/>
    <path d="M15.8867 149H146.546" stroke="#E3E3E3" stroke-linecap="round"/>
    <path d="M121.285 82.5273C121.285 80.8705 122.628 79.5273 124.285 79.5273H138.226C139.883 79.5273 141.226 80.8705 141.226 82.5273V146.375H121.285V82.5273Z" fill="#71A5D2"/>
    <path d="M139.441 145.204V129.294M119.5 146.809V85.1504C119.5 83.4935 120.843 82.1504 122.5 82.1504H136.441C138.098 82.1504 139.441 83.4935 139.441 85.1504V103.168" stroke="#E3E3E3" stroke-linecap="round"/>
    <path d="M43.7734 89.959C43.7734 88.3021 45.1166 86.959 46.7734 86.959H60.7146C62.3715 86.959 63.7146 88.3021 63.7146 89.959V147.25H43.7734V89.959Z" fill="#333333"/>
    <path d="M65.4959 145.642V108.277M45.5547 140.533V85.1504C45.5547 83.4935 46.8978 82.1504 48.5547 82.1504H62.4959C64.1527 82.1504 65.4959 83.4935 65.4959 85.1504V92.5133" stroke="#E3E3E3" stroke-linecap="round"/>
    <path d="M69.4492 93.6191C69.4492 91.9623 70.7924 90.6191 72.4492 90.6191H86.3904C88.0472 90.6191 89.3904 91.9623 89.3904 93.6191V145.207H69.4492V93.6191Z" fill="#EAB669"/>
    <path d="M91.1834 143.308V111.343M71.2422 146.519V131.193M91.1834 100.396V97.4121C91.1834 95.7553 89.8402 94.4121 88.1834 94.4121H74.2422C72.5853 94.4121 71.2422 95.7553 71.2422 97.4121V121.706" stroke="#E3E3E3" stroke-linecap="round"/>
    <path d="M96.8359 115.293C96.8359 113.636 98.1791 112.293 99.8359 112.293H112.84C114.496 112.293 115.84 113.636 115.84 115.293V146.373H96.8359V115.293Z" fill="#CE7783"/>
    <path d="M114.691 144.038V112.301C114.691 110.644 113.348 109.301 111.691 109.301H97.75C96.0931 109.301 94.75 110.644 94.75 112.301V123.896M94.75 147.104V136.449" stroke="#E3E3E3" stroke-linecap="round"/>
    <path d="M39.6912 144.038V112.301C39.6912 110.644 38.348 109.301 36.6912 109.301H22.75C21.0931 109.301 19.75 110.644 19.75 112.301V123.896M19.75 147.104V136.449" stroke="#E3E3E3" stroke-linecap="round"/>
    <circle cx="132.5" cy="61.5" r="8.5" fill="#EAB669"/>
    <circle cx="98" cy="80" r="9" fill="#333333"/>
    <circle cx="26" cy="75" r="9" fill="#333333"/>
    <circle cx="60.5" cy="49.5" r="8.5" fill="#71A5D2"/>
    <path d="M128.682 52.959C134.271 52.959 138.801 57.4026 138.801 62.884C138.801 68.3655 134.271 72.8091 128.682 72.8091C123.093 72.8091 118.562 68.3655 118.562 62.884C118.562 61.5956 118.813 60.3646 119.268 59.2351" stroke="#E3E3E3" stroke-linecap="round"/>
    <path d="M110.844 81.7629C110.844 76.2815 106.314 71.8379 100.725 71.8379C95.1361 71.8379 90.6055 76.2815 90.6055 81.7629C90.6055 87.2444 95.1361 91.688 100.725 91.688C102.568 91.688 104.296 91.2047 105.785 90.3602" stroke="#E3E3E3" stroke-linecap="round"/>
    <path d="M29.8694 86.2368C24.2806 86.2368 19.75 81.7932 19.75 76.3118C19.75 70.8303 24.2806 66.3867 29.8694 66.3867C35.4582 66.3867 39.9888 70.8303 39.9888 76.3118C39.9888 78.5592 39.2272 80.6322 37.9432 82.296" stroke="#E3E3E3" stroke-linecap="round"/>
    <path d="M67.3677 51.4973C67.3677 46.0159 62.8371 41.5723 57.2483 41.5723C51.6595 41.5723 47.1289 46.0159 47.1289 51.4973C47.1289 56.9788 51.6595 61.4224 57.2483 61.4224C59.2157 61.4224 61.052 60.8717 62.6056 59.9189" stroke="#E3E3E3" stroke-linecap="round"/>
    <path d="M57.2544 71.3545C68.432 71.3545 77.4932 62.4673 77.4932 51.5044C77.4932 40.5415 68.432 31.6543 57.2544 31.6543C54.5705 31.6543 52.0086 32.1667 49.6649 33.0972M37.3038 48.1474C37.1143 49.2386 37.0156 50.3602 37.0156 51.5044C37.0156 58.7306 40.9525 65.0549 46.8374 68.5267" stroke="#E3E3E3" stroke-linecap="round"/>
    <path d="M9.036 22.8906H5C2.79086 22.8906 1 24.6815 1 26.8906V41.3679C1 43.5771 2.79086 45.3679 5 45.3679H17.6673M19.8995 22.8906H43.1326C45.3417 22.8906 47.1326 24.6815 47.1326 26.8906V41.3679C47.1326 43.5771 45.3417 45.3679 43.1326 45.3679H27.0426" stroke="#E3E3E3" stroke-linecap="round"/>
    <rect x="9.24219" y="32.7363" width="9.1194" height="3.37904" rx="1.68952" stroke="#E3E3E3"/>
    <rect x="21.7383" y="32.7363" width="16.8578" height="3.37904" rx="1.68952" stroke="#E3E3E3"/>
    <path d="M124.064 44.3189C121.194 43.7273 118.526 42.5946 116.177 41.0347M133.291 44.3189C143.406 42.2343 151 33.4338 151 22.8935C151 20.9772 150.749 19.1185 150.277 17.3471M139.821 3.91913C136.542 2.0624 132.736 1 128.678 1C116.349 1 106.355 10.8021 106.355 22.8935C106.355 27.2483 107.652 31.3061 109.887 34.716" stroke="#E3E3E3" stroke-linecap="round"/>
    <path d="M136.568 15.0098H126.293C123.995 15.0098 122.133 16.8722 122.133 19.1695V19.1695C122.133 21.4669 123.995 23.3293 126.293 23.3293H132.773C134.869 23.3293 136.568 25.0283 136.568 27.1242V27.1242C136.568 29.22 134.869 30.919 132.773 30.919H122.133" stroke="#E3E3E3" stroke-linecap="round"/>
    <path d="M119.594 67.5059L108.812 75.4679" stroke="#E3E3E3" stroke-linecap="round"/>
</svg>
