<svg width="256" height="55" viewBox="0 0 256 55" fill="none" xmlns="http://www.w3.org/2000/svg">
<g clip-path="url(#clip0_13617_22638)">
<path d="M48.0779 15.4673C48.0804 17.7749 47.5668 20.0528 46.574 22.1346C45.5811 24.2164 44.1346 26.0495 42.3409 27.4984L1.08964 4.06261C0.932103 3.97231 0.786051 3.86396 0.653949 3.73836C0.447179 3.5356 0.283077 3.29343 0.170667 3.02664C0.0582564 2.75903 0 2.47172 0 2.18194C0 1.60321 0.229744 1.04828 0.638359 0.639478C1.04697 0.229851 1.60164 0 2.1801 0H32.6252C36.7237 0 40.6539 1.62948 43.552 4.53052C46.4501 7.43075 48.0779 11.3653 48.0779 15.4673Z" fill="#18B4F4"/>
<path d="M48.0779 39.5284C48.0788 41.5601 47.6792 43.5721 46.903 45.4487C46.1268 47.3261 44.9887 49.0319 43.5536 50.4685C42.1186 51.905 40.4144 53.0445 38.5395 53.8218C36.6646 54.6 34.6544 54.9998 32.6252 54.9998H2.18009C1.7485 54.9949 1.3284 54.8627 0.972297 54.6189C0.617015 54.3751 0.340502 54.0312 0.180502 53.6306C0.0196814 53.23 -0.0188827 52.7908 0.0705532 52.368C0.159169 51.9461 0.370861 51.5595 0.679374 51.2574C0.802451 51.1342 0.940297 51.0267 1.08963 50.9372L17.3243 41.7145L42.3376 27.5015C44.1305 28.9503 45.577 30.7826 46.5707 32.8636C47.5643 34.9445 48.0788 37.2225 48.0779 39.5284Z" fill="#FD6B3C"/>
<path d="M42.341 27.4983L17.3244 41.7146L1.09051 50.9373C0.934608 51.0243 0.790197 51.1302 0.661377 51.2542C6.85133 44.8996 10.3122 36.373 10.3049 27.4983C10.3164 18.6219 6.85625 10.0937 0.664659 3.73828C0.796762 3.86388 0.942813 3.97224 1.10117 4.06253L42.341 27.4983Z" fill="#A97FF2"/>
<path d="M81.888 20.1703C89.0199 20.1703 93.0495 25.8722 93.0495 32.7792C93.0495 39.6854 89.0199 45.3438 81.888 45.3438C78.1818 45.3438 75.3477 43.8605 73.7814 41.3436L73.1348 44.7766H68.6729V11.6379H74.1957V23.8758C75.5397 21.8211 78.1818 20.1703 81.888 20.1703ZM80.7754 40.4743C84.9436 40.4743 87.5373 37.0922 87.5373 32.7792C87.5373 28.3751 84.9436 25.0357 80.7754 25.0357C76.608 25.0357 74.0103 28.3677 74.0103 32.7792C74.0103 37.0955 76.5613 40.4743 80.7754 40.4743Z" fill="white"/>
<path d="M112.456 34.8668V20.7301H117.968V34.5868C117.968 40.769 115.145 45.3438 107.362 45.3438C99.5791 45.3438 96.7557 40.7542 96.7557 34.5868V20.7301H102.268V34.8668C102.268 38.6199 104.026 40.4743 107.354 40.4743C110.683 40.4743 112.456 38.6199 112.456 34.8668Z" fill="white"/>
<path d="M122.379 13.3109C122.361 12.8265 122.443 12.3438 122.62 11.8932C122.797 11.4425 123.065 11.0329 123.408 10.6914C123.751 10.3499 124.162 10.0831 124.613 9.90742C125.064 9.73257 125.548 9.65295 126.031 9.67429C128.124 9.67429 129.631 11.1831 129.631 13.3289C129.631 15.4747 128.124 16.8826 126.031 16.8826C123.938 16.8826 122.379 15.4025 122.379 13.3109Z" fill="white"/>
<path d="M220.716 13.3109C220.697 12.8282 220.779 12.3471 220.954 11.8973C221.131 11.4482 221.397 11.0394 221.739 10.6988C222.08 10.3573 222.488 10.0897 222.937 9.91317C223.386 9.7375 223.867 9.65541 224.349 9.67429C226.442 9.67429 227.95 11.1831 227.95 13.3289C227.95 15.4747 226.442 16.8826 224.349 16.8826C222.256 16.8826 220.716 15.4025 220.716 13.3109Z" fill="white"/>
<path d="M210.11 41.4273C210.091 40.9447 210.171 40.4636 210.348 40.0138C210.523 39.5639 210.791 39.1551 211.131 38.8136C211.472 38.4721 211.881 38.2045 212.33 38.0288C212.78 37.8523 213.26 37.7719 213.743 37.7908C215.836 37.7908 217.343 39.2996 217.343 41.4273C217.343 43.5551 215.836 44.9843 213.743 44.9843C211.65 44.9843 210.11 43.5223 210.11 41.4273Z" fill="white"/>
<path d="M128.763 20.7268H123.251V44.7881H128.763V20.7268Z" fill="white"/>
<path d="M134.275 44.7881V11.6379H139.787V44.7955L134.275 44.7881Z" fill="white"/>
<path d="M162.529 11.6379H168.041V44.7955H163.59L162.943 41.3617C161.417 43.8679 158.583 45.3627 154.841 45.3627C147.751 45.3627 143.722 39.66 143.722 32.7973C143.722 25.9346 147.751 20.1883 154.841 20.1883C158.59 20.1883 161.185 21.8539 162.529 23.8938V11.6379ZM155.989 25.0431C151.821 25.0431 149.227 28.3817 149.227 32.7866C149.227 37.0996 151.821 40.4817 155.989 40.4817C160.156 40.4817 162.75 37.0996 162.75 32.7866C162.758 28.3677 160.211 25.0357 155.996 25.0357L155.989 25.0431Z" fill="white"/>
<path d="M194.951 38.2053C193.239 42.515 189.253 45.3438 184.021 45.3438C176.754 45.3438 172.03 39.9177 172.03 32.7316C172.03 25.731 176.848 20.1703 183.981 20.1703C191.114 20.1703 195.793 25.5923 195.793 32.6405C195.816 33.2159 195.766 33.7914 195.645 34.3537H177.444C177.858 38.1577 180.315 40.613 184.159 40.613C186.8 40.613 188.977 39.3144 189.995 36.9067L194.951 38.2053ZM177.535 30.2771H190.321C189.856 26.9385 187.542 24.6655 183.974 24.6655C180.405 24.6655 178.092 26.9853 177.535 30.2771Z" fill="white"/>
<path d="M212.646 25.6875C212.231 25.6292 211.814 25.598 211.395 25.5923C207.504 25.5923 205.19 27.633 205.19 32.2694V44.7881H199.678V20.7301H204.129L204.771 24.0654C205.651 22.5377 207.678 20.497 211.861 20.497C212.089 20.497 212.646 20.5446 212.646 20.5446V25.6875Z" fill="white"/>
<path d="M227.099 20.7268H221.588V44.7881H227.099V20.7268Z" fill="white"/>
<path d="M231.034 32.7792C231.034 26.0109 235.852 20.1703 243.494 20.1703C251.135 20.1703 256 26.0109 256 32.7792C256 39.5475 251.186 45.3438 243.494 45.3438C235.801 45.3438 231.034 39.5475 231.034 32.7792ZM243.494 40.4743C247.527 40.4743 250.488 37.4156 250.488 32.7792C250.488 28.142 247.527 25.0365 243.494 25.0365C239.46 25.0365 236.539 28.0944 236.539 32.7792C236.539 37.4632 239.511 40.4743 243.494 40.4743Z" fill="white"/>
</g>
<defs>
<clipPath id="clip0_13617_22638">
<rect width="256" height="55" fill="white"/>
</clipPath>
</defs>
</svg>
