<svg width="74" height="74" viewBox="0 0 74 74" fill="none" xmlns="http://www.w3.org/2000/svg">
<path fill-rule="evenodd" clip-rule="evenodd" d="M50.7421 7.17401C44.9047 4.3178 38.3676 3.35815 31.9923 4.42155C25.617 5.48494 19.703 8.52149 15.0297 13.1309C8.93392 19.2182 61.5252 12.4787 50.7421 7.17401Z" fill="#FCC397"/>
<path fill-rule="evenodd" clip-rule="evenodd" d="M61.8859 16.392C61.8859 16.392 59.3635 20.0879 51.3761 21.1314C35.3589 23.3055 7.88622 23.4359 7.92827 23.3055C9.64232 19.4789 12.0465 16.0256 15.0119 13.131C18.4919 14.2582 22.1828 14.5043 25.774 13.8484C31.6595 12.6962 36.8723 9.2177 42.6949 7.78282C45.3255 7.15618 48.0336 6.95088 50.7244 7.17409C55.0662 9.34196 58.881 12.4924 61.8859 16.392Z" fill="#FC9F95"/>
<path fill-rule="evenodd" clip-rule="evenodd" d="M68.5538 31.8281C68.5538 31.9586 32.4631 35.4805 14.8696 34.4587C11.4356 34.3692 8.17372 32.8853 5.78906 30.3281C6.26344 27.9219 7.004 25.5803 7.99612 23.3494C13.1459 20.4122 18.931 18.8714 24.8119 18.8709C32.0847 18.8709 39.2105 21.458 46.5041 21.2623C51.9575 21.0648 57.2642 19.3851 61.8906 16.3925C65.3849 20.8425 67.6831 26.1666 68.5538 31.8281Z" fill="#F77C88"/>
<path fill-rule="evenodd" clip-rule="evenodd" d="M68.9554 37.0023V37.5457C61.4239 39.2921 53.7198 40.1167 46.0019 40.0023C32.3362 39.6229 18.698 38.5272 5.13965 36.7197C5.16262 34.5726 5.38078 32.4326 5.79126 30.3278C10.1857 33.1503 15.3571 34.3958 20.505 33.8715C24.5159 33.2505 28.4176 32.0275 32.0868 30.241C35.752 28.4623 39.5563 27.0078 43.4586 25.8928C47.8229 24.8426 52.361 24.8311 56.7305 25.8592C61.1 26.8873 65.1866 28.9283 68.6821 31.828C68.9112 33.5419 69.0026 35.2727 68.9554 37.0023Z" fill="#F25192"/>
<path fill-rule="evenodd" clip-rule="evenodd" d="M32.7596 47.7194C23.1956 49.6543 6.75822 47.48 6.71618 47.3062C5.66572 43.9794 5.13358 40.501 5.1397 37.0013V36.7187C6.63015 35.5106 8.24433 34.4753 9.95322 33.6314C14.0834 31.5799 18.676 30.7307 23.2377 31.1749C27.706 31.8396 32.0507 33.2031 36.1226 35.2185C39.5494 36.8585 43.0577 38.3099 46.6326 39.5667C47.179 39.7187 43.3114 45.6974 32.7596 47.7194Z" fill="#D34CA3"/>
<path fill-rule="evenodd" clip-rule="evenodd" d="M67.7949 45.8072C67.1224 46.9813 60.7746 50.9163 52.1564 51.5903C40.7426 52.4816 27.2691 48.9162 31.7463 47.1116C38.7669 44.2419 44.8835 39.1112 52.1564 36.959C57.688 35.3739 63.5563 35.5787 68.9722 37.5459C68.9275 40.3408 68.5317 43.1179 67.7949 45.8072Z" fill="#9A50A5"/>
<path fill-rule="evenodd" clip-rule="evenodd" d="M64.699 53.4604C59.1918 63.3524 19.2333 65.8307 13.3898 59.178C10.3934 55.7409 8.11758 51.6995 6.70557 47.3078C11.5993 44.3851 17.2866 43.2087 22.8907 43.9597C30.0374 44.9598 36.4273 49.0907 43.49 50.6994C49.2022 52.0322 55.1619 51.6704 60.6842 49.6558C63.1943 48.7218 65.5812 47.4655 67.7887 45.9164C67.0695 48.5555 66.0313 51.0901 64.699 53.4604Z" fill="#59569E"/>
<path fill-rule="evenodd" clip-rule="evenodd" d="M64.7602 53.3718C62.2601 57.897 58.7592 61.7455 54.5443 64.602C50.3293 67.4585 45.5201 69.2418 40.5104 69.806C35.5009 70.3703 30.4333 69.6992 25.7226 67.8479C21.012 65.9964 16.7924 63.0174 13.4092 59.1547C14.3761 59.5461 15.5111 59.8722 16.457 60.1766C22.0451 61.7457 27.943 61.6932 33.5039 60.0245C37.0564 58.9374 40.3774 57.2198 43.8458 55.9372C50.5738 53.4454 57.7613 52.5683 64.8653 53.3718H64.7602Z" fill="#39477F"/>
</svg>
