<svg width="81" height="75" viewBox="0 0 81 75" fill="none" xmlns="http://www.w3.org/2000/svg">
<path d="M80 45.5492V35.4628M56.4274 74.1612H20.3982H6C3.23858 74.1612 1 71.9227 1 69.1612V13.6466C1 10.8852 3.23858 8.64664 6 8.64664H16.1768H34.771H75C77.7614 8.64664 80 10.8852 80 13.6466V14.0737" stroke="#E3E3E3" stroke-linecap="round"/>
<path d="M61.91 14.14L57.09 11H6.00001C4.34001 11 3.00001 12.34 3.00001 14V24C3.00001 25.66 2.99994 25 3.00007 27H41.6C47 25 56.24 20.42 61.92 14.14H61.91Z" fill="#EAB669"/>
<path d="M1.31934 23.6097H47.5266" stroke="#E3E3E3" stroke-linecap="round"/>
<ellipse cx="10.2421" cy="17.3411" rx="2.01018" ry="2.02206" fill="#1B1B1C"/>
<ellipse cx="17.4784" cy="17.3411" rx="2.01018" ry="2.02206" fill="#1B1B1C"/>
<ellipse cx="24.7153" cy="17.3411" rx="2.01018" ry="2.02206" fill="#1B1B1C"/>
<rect x="26.0098" y="48.232" width="7.64516" height="19.1544" rx="2" fill="#EAB669"/>
<path d="M23.4668 53.4746V52.1475C23.4668 51.0429 24.3622 50.1475 25.4668 50.1475H29.112C30.2165 50.1475 31.112 51.0429 31.112 52.1475V67.3019C31.112 68.4064 30.2165 69.3019 29.112 69.3019H25.4668C24.3622 69.3019 23.4668 68.4064 23.4668 67.3019V59.9186" stroke="#E3E3E3" stroke-linecap="round"/>
<rect x="46.9399" y="40.571" width="7.64516" height="26.8161" rx="2" fill="#71A5D2"/>
<rect x="65.4404" y="34.4227" width="7.84489" height="33.0606" rx="2" fill="#71A5D2"/>
<path d="M45.0312 50.1125V44.4862C45.0312 43.3816 45.9267 42.4862 47.0312 42.4862H50.6764C51.781 42.4862 52.6764 43.3816 52.6764 44.4862V67.3023C52.6764 68.4069 51.781 69.3023 50.6764 69.3023H47.0313C45.9267 69.3023 45.0312 68.4069 45.0312 67.3023V61.3195" stroke="#E3E3E3" stroke-linecap="round"/>
<path d="M63.7593 45.9069V38.6641C63.7593 37.5595 64.6547 36.6641 65.7593 36.6641H69.6042C70.7087 36.6641 71.6042 37.5595 71.6042 38.6641V67.1644C71.6042 68.2689 70.7087 69.1644 69.6042 69.1644H65.7593C64.6547 69.1644 63.7593 68.2689 63.7593 67.1644V59.4894" stroke="#E3E3E3" stroke-linecap="round"/>
<rect x="7.22949" y="55.8941" width="7.64516" height="11.4926" rx="2" fill="#CE7783"/>
<path d="M5.94678 61.3195V59.8096C5.94678 58.7051 6.84221 57.8096 7.94678 57.8096H11.5919C12.6965 57.8096 13.5919 58.7051 13.5919 59.8096V67.3023C13.5919 68.4068 12.6965 69.3023 11.5919 69.3023H7.94678C6.84221 69.3023 5.94678 68.4068 5.94678 67.3023V65.3109" stroke="#E3E3E3" stroke-linecap="round"/>
<path d="M65.6782 13.4774C52.4734 28.0808 30.6192 32.1405 21.3427 32.3449L25.178 37.8039L16.6896 41.5379C42.5147 43.4214 64.1767 26.2494 71.6762 16.411L75.6979 18.8001L74.5401 5.47077L60.4351 10.6532L65.6782 13.4774Z" fill="#CE7783"/>
</svg>
