<svg width="60" height="73" viewBox="0 0 60 73" fill="none" xmlns="http://www.w3.org/2000/svg">
<path d="M22.3545 64.7682H35.4525" stroke="#E3E3E3" stroke-linecap="round" stroke-linejoin="round"/>
<path d="M22.3545 69.3704H35.4525" stroke="#E3E3E3" stroke-linecap="round" stroke-linejoin="round"/>
<path d="M28.9136 69.3704V72" stroke="#E3E3E3" stroke-linecap="round" stroke-linejoin="round"/>
<path d="M26.3919 57.0187C26.1701 56.7961 26.0455 56.4943 26.0455 56.1795V54.1881C21.7191 53.1016 17.8695 50.616 15.091 47.1151C12.3125 43.6142 10.7597 39.2927 10.6724 34.8179C10.8338 29.3114 13.1659 24.0942 17.1568 20.3117C21.1476 16.5291 26.471 14.4904 31.9583 14.6431C37.4455 14.4904 42.7689 16.5291 46.7598 20.3117C53.5498 26.7473 54.5587 39.8913 48.8255 47.1151C46.047 50.616 42.1974 53.1016 37.871 54.1881V56.1795C37.871 56.4943 37.7464 56.7961 37.5246 57.0187C37.3029 57.2412 37.0021 57.3663 36.6885 57.3663H27.2281C26.9144 57.3663 26.6136 57.2412 26.3919 57.0187Z" fill="#EAB669"/>
<g clip-path="url(#clip0_13875_3046)">
<path d="M31.1102 47.836H27.89C27.7176 47.836 27.5522 47.7679 27.4298 47.6465C27.3074 47.5251 27.238 47.3602 27.2366 47.1878V45.3425C27.2375 45.314 27.2287 45.2861 27.2116 45.2633C27.1945 45.2405 27.17 45.2242 27.1424 45.2171C26.0677 44.9668 25.0418 44.5411 24.1055 43.9572C24.0833 43.9394 24.0554 43.9297 24.0269 43.9297C23.9984 43.9297 23.9708 43.9394 23.9485 43.9572L22.6417 45.2641C22.518 45.3829 22.3532 45.4493 22.1817 45.4493C22.0102 45.4493 21.8454 45.3829 21.7218 45.2641L19.4425 42.985C19.3225 42.8618 19.2551 42.6969 19.2543 42.5249C19.2536 42.4396 19.27 42.355 19.3023 42.276C19.3346 42.197 19.3821 42.1253 19.4425 42.0649L20.7493 40.7581C20.7671 40.7358 20.7769 40.7082 20.7769 40.6796C20.7769 40.6511 20.7671 40.6235 20.7493 40.6012C20.1654 39.6649 19.74 38.6388 19.4897 37.5641C19.4826 37.5365 19.4663 37.5122 19.4435 37.4951C19.4207 37.478 19.3926 37.4691 19.3641 37.47H17.5189C17.3465 37.4686 17.1817 37.3992 17.0603 37.2768C16.9388 37.1544 16.8706 36.989 16.8706 36.8166V33.5965C16.8706 33.4241 16.9388 33.2587 17.0603 33.1363C17.1817 33.0139 17.3465 32.9445 17.5189 32.9431H19.3641C19.3931 32.9428 19.421 32.9328 19.4437 32.9149C19.4664 32.8969 19.4827 32.8719 19.4897 32.8438C19.741 31.771 20.1664 30.7468 20.7493 29.8119C20.7671 29.7897 20.7769 29.762 20.7769 29.7335C20.7769 29.705 20.7671 29.6773 20.7493 29.6551L19.4425 28.3482C19.3224 28.2252 19.2554 28.0601 19.2554 27.8882C19.2554 27.7163 19.3224 27.5512 19.4425 27.4282L21.7218 25.149C21.8454 25.0302 22.0102 24.9638 22.1817 24.9638C22.3532 24.9638 22.518 25.0302 22.6417 25.149L23.9485 26.4559C23.9704 26.4747 23.9981 26.485 24.0269 26.485C24.0557 26.485 24.0837 26.4747 24.1055 26.4559C25.0432 25.8758 26.0687 25.452 27.1424 25.2013C27.1696 25.1934 27.1936 25.1769 27.2106 25.1543C27.2275 25.1316 27.2366 25.1041 27.2366 25.0758V23.2306C27.2366 23.145 27.2535 23.0603 27.2864 22.9813C27.3193 22.9023 27.3675 22.8306 27.4283 22.7703C27.489 22.7101 27.5612 22.6625 27.6404 22.6302C27.7196 22.5979 27.8045 22.5817 27.89 22.5824H31.1102C31.1958 22.5817 31.2806 22.5979 31.3598 22.6302C31.4391 22.6625 31.5112 22.7101 31.5719 22.7703C31.6327 22.8306 31.6807 22.9023 31.7136 22.9813C31.7465 23.0603 31.7636 23.145 31.7636 23.2306V25.0758C31.7648 25.1046 31.7749 25.1322 31.7927 25.1547C31.8106 25.1773 31.8352 25.1936 31.8629 25.2013C32.9346 25.4531 33.9584 25.8768 34.8947 26.4559C34.9165 26.4747 34.9443 26.485 34.9731 26.485C35.0018 26.485 35.0299 26.4747 35.0517 26.4559L36.3585 25.149C36.4822 25.0302 36.647 24.9638 36.8185 24.9638C36.99 24.9638 37.1548 25.0302 37.2784 25.149L39.5575 27.4282C39.6776 27.5512 39.7449 27.7163 39.7449 27.8882C39.7449 28.0601 39.6776 28.2252 39.5575 28.3482L38.2507 29.6551C38.2328 29.6773 38.2234 29.705 38.2234 29.7335C38.2234 29.762 38.2328 29.7897 38.2507 29.8119C38.8298 30.7482 39.2536 31.772 39.5054 32.8438C39.5132 32.8715 39.5294 32.896 39.5519 32.9138C39.5744 32.9317 39.602 32.942 39.6308 32.9431H41.4762C41.6495 32.9431 41.8156 33.0119 41.9382 33.1345C42.0607 33.257 42.1296 33.4232 42.1296 33.5965V36.8166C42.1296 36.9899 42.0607 37.1561 41.9382 37.2786C41.8156 37.4012 41.6495 37.47 41.4762 37.47H39.6308C39.6025 37.47 39.575 37.4792 39.5524 37.4962C39.5298 37.5131 39.5134 37.537 39.5054 37.5641C39.2547 38.6378 38.8308 39.6636 38.2507 40.6012C38.2328 40.6235 38.2234 40.6511 38.2234 40.6796C38.2234 40.7082 38.2328 40.7358 38.2507 40.7581L39.5575 42.0649C39.6178 42.1253 39.6656 42.197 39.6979 42.276C39.7302 42.355 39.7466 42.4396 39.7459 42.5249C39.7451 42.6969 39.6774 42.8618 39.5575 42.985L37.2784 45.2641C37.1548 45.3829 36.99 45.4493 36.8185 45.4493C36.647 45.4493 36.4822 45.3829 36.3585 45.2641L35.0517 43.9572C35.0294 43.9394 35.0016 43.9297 34.9731 43.9297C34.9446 43.9297 34.917 43.9394 34.8947 43.9572C33.9598 44.5402 32.9356 44.9658 31.8629 45.2171C31.8348 45.224 31.8097 45.2401 31.7917 45.2628C31.7737 45.2855 31.7639 45.3136 31.7636 45.3425V47.1878C31.7622 47.3602 31.6928 47.5251 31.5704 47.6465C31.448 47.7679 31.2826 47.836 31.1102 47.836ZM24.0374 43.4188C24.1587 43.4191 24.2778 43.4516 24.3825 43.5129C25.2714 44.0653 26.2441 44.4696 27.2626 44.71C27.405 44.7433 27.5317 44.8241 27.622 44.939C27.7123 45.054 27.7608 45.1963 27.7593 45.3425V47.1878C27.7607 47.2216 27.7751 47.2534 27.7994 47.2768C27.8238 47.3002 27.8563 47.3133 27.89 47.3133H31.1102C31.144 47.3133 31.1764 47.3002 31.2008 47.2768C31.2252 47.2534 31.2395 47.2216 31.2409 47.1878V45.3425C31.2407 45.1927 31.2927 45.0475 31.3882 44.932C31.4836 44.8165 31.6164 44.738 31.7636 44.71C32.7819 44.4686 33.7544 44.0644 34.6438 43.5129C34.7682 43.4361 34.9149 43.4036 35.0601 43.4207C35.2053 43.4378 35.3406 43.5034 35.4437 43.607L36.7506 44.9138C36.7608 44.9279 36.7739 44.9393 36.7894 44.9472C36.8048 44.9551 36.8221 44.9592 36.8394 44.9592C36.8568 44.9592 36.8737 44.9551 36.8892 44.9472C36.9046 44.9393 36.9181 44.9279 36.9282 44.9138L39.2073 42.6347C39.2304 42.6108 39.2436 42.5791 39.2441 42.5459C39.2439 42.5111 39.2307 42.4775 39.2073 42.4517L37.9005 41.1501C37.7964 41.046 37.7311 40.9095 37.7149 40.7632C37.6988 40.6169 37.7328 40.4694 37.8116 40.3451C38.3602 39.4567 38.7627 38.486 39.0036 37.47C39.0316 37.3228 39.11 37.1901 39.2254 37.0947C39.3409 36.9992 39.4863 36.9471 39.6361 36.9473H41.4813C41.516 36.9473 41.5492 36.9336 41.5737 36.909C41.5982 36.8845 41.612 36.8512 41.612 36.8166V33.5965C41.612 33.5619 41.5982 33.5286 41.5737 33.5041C41.5492 33.4796 41.516 33.4659 41.4813 33.4659H39.6361C39.4863 33.4661 39.3409 33.4139 39.2254 33.3185C39.11 33.223 39.0316 33.0903 39.0036 32.9431C38.7618 31.9258 38.3593 30.9536 37.8116 30.0628C37.7332 29.9393 37.6993 29.7927 37.7154 29.6473C37.7316 29.5019 37.7969 29.3663 37.9005 29.263L39.2073 27.9562C39.2197 27.9449 39.2297 27.9312 39.2364 27.9159C39.2432 27.9006 39.2466 27.884 39.2466 27.8673C39.2466 27.8505 39.2432 27.834 39.2364 27.8187C39.2297 27.8034 39.2197 27.7897 39.2073 27.7784L36.9282 25.4993C36.9189 25.4842 36.9058 25.4716 36.8902 25.463C36.8747 25.4543 36.8572 25.4498 36.8394 25.4498C36.8216 25.4498 36.8042 25.4543 36.7886 25.463C36.7731 25.4716 36.76 25.4842 36.7506 25.4993L35.4437 26.8061C35.3406 26.9097 35.2053 26.9753 35.0601 26.9924C34.9149 27.0095 34.7682 26.977 34.6438 26.9002C33.7544 26.3488 32.7819 25.9445 31.7636 25.7031C31.6164 25.6751 31.4836 25.5966 31.3882 25.4811C31.2927 25.3656 31.2407 25.2204 31.2409 25.0706V23.2253C31.2395 23.1916 31.2252 23.1597 31.2008 23.1363C31.1764 23.1129 31.144 23.0998 31.1102 23.0999H27.89C27.8563 23.0998 27.8238 23.1129 27.7994 23.1363C27.7751 23.1597 27.7607 23.1916 27.7593 23.2253V25.0706C27.7608 25.2168 27.7123 25.3591 27.622 25.4741C27.5317 25.5891 27.405 25.6698 27.2626 25.7031C26.2441 25.9436 25.2714 26.3479 24.3825 26.9002C24.2573 26.9774 24.1097 27.0101 23.9636 26.993C23.8175 26.976 23.6814 26.9101 23.5774 26.8061L22.2759 25.4993C22.208 25.4313 22.1609 25.4313 22.0929 25.4993L19.8136 27.7784C19.7912 27.8026 19.7789 27.8343 19.7789 27.8673C19.7789 27.9002 19.7912 27.932 19.8136 27.9562L21.1204 29.263C21.224 29.3662 21.2897 29.5013 21.3068 29.6465C21.3238 29.7917 21.2914 29.9384 21.2146 30.0628C20.6632 30.9522 20.2589 31.9249 20.0175 32.9431C19.9895 33.0903 19.9109 33.223 19.7955 33.3185C19.68 33.4139 19.5348 33.4661 19.385 33.4659H17.5399C17.5061 33.4672 17.4742 33.4816 17.4508 33.5059C17.4274 33.5303 17.4142 33.5628 17.4143 33.5965V36.8166C17.4142 36.8504 17.4274 36.8828 17.4508 36.9072C17.4742 36.9316 17.5061 36.9459 17.5399 36.9473H19.385C19.5348 36.9471 19.68 36.9992 19.7955 37.0947C19.9109 37.1901 19.9895 37.3228 20.0175 37.47C20.258 38.4869 20.6623 39.458 21.2146 40.3451C21.2918 40.4703 21.3246 40.6179 21.3075 40.7639C21.2904 40.91 21.2244 41.0461 21.1204 41.1501L19.8136 42.4517C19.7902 42.4775 19.7773 42.5111 19.7771 42.5459C19.7775 42.5791 19.7905 42.6108 19.8136 42.6347L22.0929 44.9138C22.1036 44.9279 22.1174 44.9394 22.1332 44.9472C22.1491 44.9551 22.1666 44.9591 22.1843 44.9591C22.202 44.9591 22.2195 44.9551 22.2353 44.9472C22.2512 44.9394 22.2652 44.9279 22.2759 44.9138L23.5774 43.607C23.7003 43.4866 23.8653 43.4191 24.0374 43.4188Z" fill="black"/>
<path d="M29.497 40.0471C28.2196 40.0443 26.9953 39.5357 26.0921 38.6324C25.1888 37.7291 24.68 36.5048 24.6772 35.2274C24.68 33.95 25.1888 32.7257 26.0921 31.8225C26.9953 30.9192 28.2196 30.4105 29.497 30.4077C30.7749 30.4091 32 30.9174 32.9035 31.8209C33.8071 32.7245 34.3152 33.9496 34.3166 35.2274C34.3152 36.5053 33.8071 37.7304 32.9035 38.6339C32 39.5375 30.7749 40.0457 29.497 40.0471ZM29.497 30.9305C28.3578 30.9318 27.2657 31.385 26.4601 32.1905C25.6546 32.9961 25.2014 34.0882 25.2 35.2274C25.2014 36.3666 25.6546 37.4587 26.4601 38.2643C27.2657 39.0698 28.3578 39.523 29.497 39.5244C30.6362 39.523 31.7284 39.0698 32.5339 38.2643C33.3395 37.4587 33.7924 36.3666 33.7938 35.2274C33.7924 34.0882 33.3395 32.9961 32.5339 32.1905C31.7284 31.385 30.6362 30.9318 29.497 30.9305Z" fill="black"/>
</g>
<path d="M51.8293 35.5729C51.7366 40.323 50.0882 44.9104 47.1387 48.6268C44.1893 52.3431 40.1027 54.9817 35.5101 56.1351V58.249C35.5101 58.5831 35.3778 58.9036 35.1424 59.1398C34.907 59.3761 34.5877 59.5088 34.2548 59.5088H24.2122C23.8793 59.5088 23.56 59.3761 23.3246 59.1398C23.0891 58.9036 22.9569 58.5831 22.9569 58.249V56.1351C20.5892 55.5405 18.356 54.5511 16.3438 53.2228M44.9458 20.1739C40.7094 16.1586 35.0584 13.9944 29.2335 14.1565C23.4086 13.9944 17.7576 16.1586 13.5211 20.1739C9.2847 24.1892 6.80906 29.7275 6.6377 35.5729C6.73042 40.323 8.37877 44.9104 11.3283 48.6268" stroke="#E3E3E3" stroke-linecap="round" stroke-linejoin="round"/>
<path d="M28.9136 1V8.80689" stroke="#E3E3E3" stroke-linecap="round"/>
<path d="M59.457 10.008L53.9527 15.5442" stroke="#E3E3E3" stroke-linecap="round"/>
<path d="M1.10596 10.008L6.61028 15.5442" stroke="#E3E3E3" stroke-linecap="round"/>
<defs>
<clipPath id="clip0_13875_3046">
<rect width="25.2223" height="25.2223" fill="white" transform="translate(16.8892 22.619)"/>
</clipPath>
</defs>
</svg>
