<svg width="167" height="140" viewBox="0 0 167 140" fill="none" xmlns="http://www.w3.org/2000/svg">
    <rect x="4" width="157" height="16" rx="8" fill="#71A5D2"/>
    <path d="M107.01 3H9.5C4.80558 3 1 6.80558 1 11.5V11.5C1 16.1944 4.80558 20 9.5 20H157.5C162.194 20 166 16.1944 166 11.5V11.5C166 6.80558 162.194 3 157.5 3H145.482" stroke="#E3E3E3" stroke-linecap="round"/>
    <path d="M8.69336 35.502V136.178C8.69336 137.835 10.0365 139.178 11.6934 139.178H110M159.16 29.3203V136.178C159.16 137.835 157.817 139.178 156.16 139.178H141" stroke="#E3E3E3" stroke-linecap="round"/>
    <circle cx="136.933" cy="40.3138" r="10.2591" fill="#CE7783"/>
    <path d="M122.398 42.0208C122.398 47.6867 126.992 52.2799 132.658 52.2799C138.323 52.2799 142.917 47.6867 142.917 42.0208C142.917 36.3549 138.323 31.7617 132.658 31.7617" stroke="#E3E3E3" stroke-linecap="round"/>
    <path d="M31.3496 126.077C31.5262 118.659 33.1696 108.729 37.1039 98.2921M106.583 43.1497L86.4921 35.8828M106.583 43.1497L92.4766 59.3932M106.583 43.1497C79.1557 47.2956 61.0727 60.4014 49.5253 75.6367" stroke="#E3E3E3" stroke-linecap="round"/>
    <path fill-rule="evenodd" clip-rule="evenodd" d="M113.461 76.3102C113.266 76.115 112.949 76.115 112.754 76.3102C112.559 76.5055 112.559 76.8221 112.754 77.0173L120.41 84.6735L112.754 92.33C112.559 92.5253 112.559 92.8419 112.754 93.0371C112.949 93.2324 113.266 93.2324 113.461 93.0371L121.118 85.3806L128.774 93.0371C128.969 93.2324 129.286 93.2324 129.481 93.0371C129.676 92.8419 129.676 92.5253 129.481 92.33L121.825 84.6735L129.481 77.0173C129.676 76.8221 129.676 76.5055 129.481 76.3102C129.286 76.115 128.969 76.115 128.774 76.3102L121.118 83.9664L113.461 76.3102Z" fill="#E3E3E3"/>
    <path fill-rule="evenodd" clip-rule="evenodd" d="M64.0785 103.228C63.8833 103.033 63.5667 103.033 63.3714 103.228C63.1762 103.423 63.1762 103.74 63.3714 103.935L71.0276 111.592L63.3711 119.248C63.1759 119.443 63.1759 119.76 63.3711 119.955C63.5664 120.15 63.883 120.15 64.0782 119.955L71.7347 112.299L79.3912 119.955C79.5865 120.15 79.9031 120.15 80.0983 119.955C80.2936 119.76 80.2936 119.443 80.0983 119.248L72.4418 111.592L80.0981 103.935C80.2933 103.74 80.2933 103.423 80.0981 103.228C79.9028 103.033 79.5862 103.033 79.3909 103.228L71.7347 110.884L64.0785 103.228Z" fill="#E3E3E3"/>
    <path fill-rule="evenodd" clip-rule="evenodd" d="M27.3168 31.4157C27.1215 31.2204 26.805 31.2204 26.6097 31.4157C26.4144 31.611 26.4144 31.9275 26.6097 32.1228L34.2659 39.779L26.6094 47.4355C26.4141 47.6308 26.4141 47.9474 26.6094 48.1426C26.8047 48.3379 27.1213 48.3379 27.3165 48.1426L34.973 40.4861L42.6295 48.1426C42.8248 48.3379 43.1414 48.3379 43.3366 48.1426C43.5319 47.9474 43.5319 47.6308 43.3366 47.4355L35.6801 39.779L43.3363 32.1228C43.5316 31.9275 43.5316 31.611 43.3363 31.4157C43.1411 31.2204 42.8245 31.2204 42.6292 31.4157L34.973 39.0719L27.3168 31.4157Z" fill="#E3E3E3"/>
</svg>
