<svg width="128" height="128" viewBox="0 0 128 128" fill="none" xmlns="http://www.w3.org/2000/svg">
    <path d="M26.0002 23.2364V61.0874C25.9803 73.3691 29.6702 85.3697 36.5855 95.5135C43.5009 105.657 53.3183 113.47 64.7487 117.926L70.0303 119.978C73.5497 121.341 77.4503 121.341 80.9697 119.978L86.2513 117.926C97.6817 113.47 107.499 105.657 114.414 95.5135C121.33 85.3697 125.02 73.3691 125 61.0874V23.2364C125.012 21.7739 124.602 20.3389 123.821 19.1031C123.04 17.8673 121.92 16.883 120.594 16.2679C106.387 10.0188 91.0168 6.86147 75.5 7.00466C59.9832 6.86147 44.6128 10.0188 30.4057 16.2679C29.0804 16.883 27.9602 17.8673 27.1789 19.1031C26.3976 20.3389 25.9884 21.7739 26.0002 23.2364Z" fill="#71A5D2"/>
    <path d="M105.928 97.9097C113.379 86.9941 117.355 74.0805 117.333 60.8644V20.1338C117.346 18.56 116.905 17.0158 116.063 15.686C115.221 14.3562 114.014 13.297 112.586 12.6351C97.2789 5.91062 80.7182 2.51304 63.9996 2.66713C47.2811 2.51304 30.7203 5.91062 15.413 12.6351C13.985 13.297 12.778 14.3562 11.9362 15.686C11.0944 17.0158 10.6536 18.56 10.6663 20.1338V40.4991M11.2912 70C12.6783 79.9695 16.3504 89.5286 22.0714 97.9097C29.5223 108.825 40.1 117.232 52.4156 122.027L58.1063 124.235C61.8983 125.702 66.101 125.702 69.893 124.235L75.5836 122.027C79.7753 120.395 83.7657 118.345 87.5 115.919" stroke="#E3E3E3" stroke-linecap="round" stroke-linejoin="round"/>
    <path d="M69.9061 31.7512L72.0049 38.6578C72.3505 39.8041 73.1192 40.7761 74.155 41.3766C75.1908 41.9771 76.4161 42.1612 77.5827 41.8916L84.5806 40.2719C85.9083 39.9683 87.2984 40.0985 88.5465 40.6435C89.7947 41.1886 90.8351 42.1196 91.5149 43.2998C92.1946 44.48 92.4779 45.8471 92.3231 47.2002C92.1682 48.5533 91.5834 49.8211 90.6546 50.8172L85.7612 56.0928C84.9451 56.9741 84.4917 58.131 84.4917 59.3322C84.4917 60.5334 84.9451 61.6903 85.7612 62.5717L90.6546 67.8472C91.5807 68.8425 92.1637 70.1081 92.3184 71.4588C92.4731 72.8095 92.1912 74.1742 91.5141 75.353C90.837 76.5319 89.8003 77.463 88.5557 78.01C87.3111 78.5569 85.924 78.691 84.5977 78.3926L77.5998 76.7728C76.4333 76.5033 75.2079 76.6874 74.1721 77.2879C73.1363 77.8884 72.3676 78.8603 72.022 80.0066L69.9232 86.9133C69.5316 88.2151 68.731 89.3562 67.64 90.1673C66.549 90.9784 65.2257 91.4164 63.8663 91.4164C62.5068 91.4164 61.1835 90.9784 60.0926 90.1673C59.0016 89.3562 58.201 88.2151 57.8094 86.9133L55.6935 80.0066C55.3478 78.8603 54.5792 77.8884 53.5434 77.2879C52.5076 76.6874 51.2822 76.5033 50.1157 76.7728L43.1177 78.3926C41.79 78.6962 40.4 78.5659 39.1518 78.0209C37.9037 77.4759 36.8632 76.5449 36.1835 75.3647C35.5037 74.1845 35.2204 72.8174 35.3753 71.4642C35.5301 70.1111 36.1149 68.8433 37.0437 67.8472L41.9372 62.5717C42.7533 61.6903 43.2067 60.5334 43.2067 59.3322C43.2067 58.131 42.7533 56.9741 41.9372 56.0928L37.0437 50.8172C36.1149 49.8211 35.5301 48.5533 35.3753 47.2002C35.2204 45.8471 35.5037 44.48 36.1835 43.2998C36.8632 42.1196 37.9037 41.1886 39.1518 40.6435C40.4 40.0985 41.79 39.9683 43.1177 40.2719L50.1157 41.8916C51.2822 42.1612 52.5076 41.9771 53.5434 41.3766C54.5792 40.7761 55.3478 39.8041 55.6935 38.6578L57.7923 31.7512C58.1839 30.4493 58.9845 29.3083 60.0754 28.4972C61.1664 27.6861 62.4897 27.248 63.8492 27.248C65.2086 27.248 66.5319 27.6861 67.6229 28.4972C68.7139 29.3083 69.5145 30.4493 69.9061 31.7512Z" stroke="#1B1B1C" stroke-linecap="round" stroke-linejoin="round"/>
    <path d="M67.7697 64.6801C71.707 64.6801 74.8989 61.4883 74.8989 57.551C74.8989 53.6137 71.707 50.4219 67.7697 50.4219C63.8324 50.4219 60.6406 53.6137 60.6406 57.551C60.6406 61.4883 63.8324 64.6801 67.7697 64.6801Z" fill="#CE7783"/>
    <path d="M70.9789 59.3322C70.9789 63.2695 67.7871 66.4613 63.8498 66.4613C59.9125 66.4613 56.7207 63.2695 56.7207 59.3322C56.7207 55.3949 59.9125 52.2031 63.8498 52.2031" stroke="#1B1B1C" stroke-linecap="round" stroke-linejoin="round"/>
</svg>
