<svg width="152" height="152" viewBox="0 0 152 152" fill="none" xmlns="http://www.w3.org/2000/svg">
    <path d="M87.785 129C86.3112 125.344 85.5 121.35 85.5 117.167C85.5 99.6777 99.6777 85.5 117.167 85.5C134.656 85.5 148.833 99.6777 148.833 117.167C148.833 134.656 134.656 148.833 117.167 148.833C113.432 148.833 109.849 148.187 106.523 147" stroke="#E3E3E3" stroke-linecap="round" stroke-linejoin="round"/>
    <path d="M117.166 98.166V117.166H129.833" stroke="#E3E3E3" stroke-linecap="round" stroke-linejoin="round"/>
    <path d="M11 92C11 82.7174 14.6348 73.815 21.1048 67.2513C27.5748 60.6875 36.35 57 45.5 57C54.65 57 63.4252 60.6875 69.8952 67.2513C76.3652 73.815 80 82.7174 80 92H11Z" fill="#71A5D2"/>
    <path d="M14.296 71.296C21.4223 64.1696 31.0878 60.166 41.166 60.166C51.2442 60.166 60.9097 64.1696 68.0361 71.296C75.1625 78.4223 79.166 88.0878 79.166 98.166H3.16602C3.16602 93.9893 3.85362 89.8835 5.16615 86" stroke="#E3E3E3" stroke-linecap="round" stroke-linejoin="round"/>
    <path d="M47 46C58.598 46 68 36.598 68 25C68 13.402 58.598 4 47 4C35.402 4 26 13.402 26 25C26 36.598 35.402 46 47 46Z" fill="#CE7783"/>
    <path d="M29.0242 6.5C32.5771 4.38246 36.7295 3.16602 41.166 3.16602C54.2828 3.16602 64.916 13.7993 64.916 26.916C64.916 40.0328 54.2828 50.666 41.166 50.666C28.0492 50.666 17.416 40.0328 17.416 26.916C17.416 23.7627 18.0305 20.753 19.1463 18" stroke="#E3E3E3" stroke-linecap="round" stroke-linejoin="round"/>
    <path d="M107 52C119.15 52 129 42.1503 129 30C129 17.8497 119.15 8 107 8C94.8497 8 85 17.8497 85 30C85 42.1503 94.8497 52 107 52Z" fill="#EAB669"/>
    <path d="M123.285 36C124.444 33.2016 125.084 30.1335 125.084 26.916C125.084 13.7993 114.451 3.16602 101.334 3.16602C88.2172 3.16602 77.584 13.7993 77.584 26.916C77.584 40.0328 88.2172 50.666 101.334 50.666C104.972 50.666 108.418 49.8482 111.5 48.3864" stroke="#E3E3E3" stroke-linecap="round" stroke-linejoin="round"/>
    <path d="M123.308 67.1657C117.391 62.9701 110.396 60.5557 103.151 60.2078C95.9055 59.8599 88.7119 61.593 82.4199 65.2024" stroke="#E3E3E3" stroke-linecap="round" stroke-linejoin="round"/>
</svg>
