<svg width="56" height="56" viewBox="0 0 56 56" fill="none" xmlns="http://www.w3.org/2000/svg">
<path d="M50.4129 38.0961V48.24C50.4129 49.7617 49.2061 51 47.7233 51H44.1362C42.6534 51 41.4466 49.7617 41.4466 48.24V38.0961C40.1673 37.9792 37.8605 36.958 37.8605 34.221V28.955C37.8605 27.0938 38.7194 24.8518 42.5494 24.1176C42.1101 23.4101 41.8895 22.4791 41.8895 21.3318C41.8895 18.9214 43.6754 16.96 45.8692 16.96H45.9903C48.1841 16.96 49.97 18.9214 49.97 21.3318C49.97 22.4791 49.7494 23.4101 49.3101 24.1176C53.1401 24.8518 53.999 27.0938 53.999 28.955V34.221C53.999 36.958 51.6922 37.9792 50.4129 38.0961ZM52.206 28.955C52.206 28.1702 52.206 26.0873 47.63 25.7534C47.1611 25.7184 46.798 25.3182 46.798 24.8352V24.4341C46.798 24.0937 46.9809 23.7809 47.2741 23.6217C47.4973 23.4994 48.1769 23.1295 48.1769 21.3318C48.1769 19.9353 47.1961 18.8 45.9903 18.8H45.8692C44.6634 18.8 43.6826 19.9353 43.6826 21.3318C43.6826 23.1295 44.3622 23.4994 44.5854 23.6217C44.8777 23.7809 45.0615 24.0937 45.0615 24.4341V24.8352C45.0615 25.3182 44.6975 25.7184 44.2286 25.7534C39.6535 26.0873 39.6535 28.1702 39.6535 28.955V34.221C39.6535 35.7271 40.9069 36.1337 41.4466 36.2404V29.7894C41.4466 29.2816 41.8483 28.8694 42.3432 28.8694C42.8389 28.8694 43.2397 29.2816 43.2397 29.7894V48.24C43.2397 48.7469 43.6422 49.16 44.1362 49.16H45.0337V38.5009C45.0337 37.993 45.4353 37.5809 45.9302 37.5809C46.4251 37.5809 46.8267 37.993 46.8267 38.5009V49.16H47.7233C48.2173 49.16 48.6198 48.7469 48.6198 48.24V29.7894C48.6198 29.2816 49.0215 28.8694 49.5163 28.8694C50.0112 28.8694 50.4129 29.2816 50.4129 29.7894V36.2404C50.9526 36.1337 52.206 35.7271 52.206 34.221V28.955ZM42.9205 15.6002C42.3485 14.5662 40.9168 13.958 38.6647 13.7934C38.1958 13.7584 37.8327 13.3582 37.8327 12.8752V12.4741C37.8327 12.1337 38.0156 11.8209 38.3087 11.6617C38.532 11.5394 39.2116 11.1695 39.2116 9.37184C39.2116 7.97528 38.2307 6.84 37.0249 6.84H36.9039C35.698 6.84 34.7172 7.97528 34.7172 9.37184C34.7172 11.1695 35.3968 11.5394 35.62 11.6617C35.9123 11.8209 36.0961 12.1337 36.0961 12.4741V12.8752C36.0961 13.3582 35.7321 13.7584 35.2632 13.7934C32.9681 13.9608 31.5255 14.5901 30.9751 15.6619C30.8146 15.9747 30.5035 16.1532 30.1807 16.1532C30.0409 16.1532 29.8974 16.1191 29.7648 16.0474C29.3263 15.81 29.1578 15.2543 29.3891 14.8044C30.0866 13.4447 31.4942 12.5578 33.584 12.1576C33.1456 11.4501 32.9241 10.5191 32.9241 9.37184C32.9241 6.96144 34.71 5 36.9039 5H37.0249C39.2187 5 41.0046 6.96144 41.0046 9.37184C41.0046 10.5191 40.7832 11.4501 40.3448 12.1576C42.3754 12.5468 43.7633 13.3959 44.4805 14.6922C44.7244 15.1338 44.5737 15.695 44.1434 15.9462C43.7113 16.1964 43.1644 16.0409 42.9205 15.6002ZM32.0393 21.3318C32.0393 22.4791 31.8187 23.4101 31.3794 24.1176C35.2094 24.8518 36.0683 27.0938 36.0683 28.955V34.221C36.0683 36.958 33.7615 37.9792 32.4822 38.0961V48.24C32.4822 49.7617 31.2754 51 29.7925 51H26.2055C24.7226 51 23.5159 49.7617 23.5159 48.24V38.0961C22.2365 37.9792 19.9297 36.958 19.9297 34.221V28.955C19.9297 27.0938 20.7886 24.8518 24.6186 24.1176C24.1793 23.4101 23.9588 22.4791 23.9588 21.3318C23.9588 18.9214 25.7447 16.96 27.9385 16.96H28.0595C30.2534 16.96 32.0393 18.9214 32.0393 21.3318ZM28.0595 18.8H27.9385C26.7327 18.8 25.7519 19.9353 25.7519 21.3318C25.7519 23.1295 26.4314 23.4994 26.6547 23.6217C26.9478 23.7809 27.1307 24.0937 27.1307 24.4341V24.8352C27.1307 25.3182 26.7667 25.7184 26.2978 25.7534C21.7228 26.0873 21.7228 28.1702 21.7228 28.955V34.221C21.7228 35.7271 22.9762 36.1337 23.5159 36.2404V29.7894C23.5159 29.2816 23.9175 28.8694 24.4124 28.8694C24.9082 28.8694 25.309 29.2816 25.309 29.7894V48.24C25.309 48.7469 25.7115 49.16 26.2055 49.16H27.1029V38.5009C27.1029 37.993 27.5046 37.5809 27.9995 37.5809C28.4944 37.5809 28.896 37.993 28.896 38.5009V49.16H29.7925C30.2865 49.16 30.6891 48.7469 30.6891 48.24V29.7894C30.6891 29.2816 31.0907 28.8694 31.5856 28.8694C32.0805 28.8694 32.4822 29.2816 32.4822 29.7894V36.2404C33.0219 36.1337 34.2752 35.7271 34.2752 34.221V28.955C34.2752 28.1702 34.2752 26.0873 29.6993 25.7534C29.2304 25.7184 28.8673 25.3182 28.8673 24.8352V24.4341C28.8673 24.0937 29.0502 23.7809 29.3434 23.6217C29.5666 23.4994 30.2462 23.1295 30.2462 21.3318C30.2462 19.9353 29.2654 18.8 28.0595 18.8ZM25.7411 16.0142C25.4345 16.0142 25.1368 15.8532 24.9692 15.5634C24.3846 14.5514 22.96 13.9562 20.7339 13.7934C20.2651 13.7584 19.902 13.3582 19.902 12.8752V12.4741C19.902 12.1337 20.0849 11.8209 20.378 11.6617C20.6013 11.5394 21.2808 11.1695 21.2808 9.37184C21.2808 7.97528 20.3 6.84 19.0942 6.84H18.9731C17.7673 6.84 16.7865 7.97528 16.7865 9.37184C16.7865 11.1695 17.4661 11.5394 17.6893 11.6617C17.9816 11.8209 18.1654 12.1337 18.1654 12.4741V12.8752C18.1654 13.3582 17.8014 13.7584 17.3325 13.7934C15.1073 13.9562 13.6827 14.5514 13.0981 15.5634C12.8462 16.0004 12.2948 16.144 11.8699 15.8854C11.444 15.6269 11.3033 15.062 11.5552 14.625C12.2832 13.3674 13.6576 12.5403 15.6533 12.1576C15.2149 11.4501 14.9934 10.5191 14.9934 9.37184C14.9934 6.96144 16.7793 5 18.9731 5H19.0942C21.2889 5 23.0739 6.96144 23.0739 9.37184C23.0739 10.5191 22.8534 11.4501 22.4141 12.1576C24.4097 12.5403 25.785 13.3674 26.5121 14.625C26.764 15.062 26.6233 15.6269 26.1983 15.8854C26.0549 15.9728 25.8971 16.0142 25.7411 16.0142ZM14.1085 21.3318C14.1085 22.4791 13.888 23.4101 13.4487 24.1176C17.2787 24.8518 18.1376 27.0938 18.1376 28.955V34.221C18.1376 36.958 15.8308 37.9792 14.5514 38.0961V48.24C14.5514 49.7617 13.3447 51 11.8618 51H8.27478C6.79191 51 5.58517 49.7617 5.58517 48.24V38.0961C4.30581 37.9792 1.99902 36.958 1.99902 34.221V28.955C1.99902 27.0938 2.85791 24.8518 6.68791 24.1176C6.2495 23.4101 6.02806 22.4791 6.02806 21.3318C6.02806 18.9214 7.81396 16.96 10.0078 16.96H10.1288C12.3226 16.96 14.1085 18.9214 14.1085 21.3318ZM10.1288 18.8H10.0078C8.80194 18.8 7.82113 19.9353 7.82113 21.3318C7.82113 23.1295 8.5007 23.4994 8.72394 23.6217C9.01711 23.7809 9.2 24.0937 9.2 24.4341V24.8352C9.2 25.3182 8.83601 25.7184 8.36712 25.7534C3.7921 26.0873 3.7921 28.1702 3.7921 28.955V34.221C3.7921 35.7271 5.04545 36.1337 5.58517 36.2404V29.7894C5.58517 29.2816 5.98682 28.8694 6.4817 28.8694C6.97749 28.8694 7.37824 29.2816 7.37824 29.7894V48.24C7.37824 48.7469 7.78079 49.16 8.27478 49.16H9.17221V38.5009C9.17221 37.993 9.57386 37.5809 10.0687 37.5809C10.5636 37.5809 10.9653 37.993 10.9653 38.5009V49.16H11.8618C12.3558 49.16 12.7584 48.7469 12.7584 48.24V29.7894C12.7584 29.2816 13.16 28.8694 13.6549 28.8694C14.1498 28.8694 14.5514 29.2816 14.5514 29.7894V36.2404C15.0911 36.1337 16.3445 35.7271 16.3445 34.221V28.955C16.3445 28.1702 16.3445 26.0873 11.7686 25.7534C11.2997 25.7184 10.9366 25.3182 10.9366 24.8352V24.4341C10.9366 24.0937 11.1195 23.7809 11.4127 23.6217C11.6359 23.4994 12.3155 23.1295 12.3155 21.3318C12.3155 19.9353 11.3347 18.8 10.1288 18.8Z" fill="#162B44"/>
</svg>
