<svg width="56" height="56" viewBox="0 0 56 56" fill="none" xmlns="http://www.w3.org/2000/svg">
<path d="M53.9047 12.1088L45.1465 44.3841C45.0389 44.7832 44.6728 45.0466 44.2741 45.0466C44.1972 45.0466 44.1186 45.0367 44.0399 45.0153C43.5571 44.8876 43.2714 44.3984 43.4007 43.9225L52.158 11.6472C52.2927 11.1481 51.9925 10.6338 51.4871 10.4999L44.0399 8.52937C43.5571 8.40169 43.2714 7.91241 43.4007 7.43564C43.53 6.95975 44.0236 6.67672 44.5073 6.8044L51.9555 8.7749C52.667 8.96329 53.261 9.41417 53.629 10.0436C53.9979 10.6731 54.0955 11.4061 53.9047 12.1088ZM38.8494 53H17.1496C15.6542 53 14.4372 51.7982 14.4372 50.3215V5.67852C14.4372 4.20176 15.6542 3 17.1496 3H38.8494C40.3448 3 41.5617 4.20176 41.5617 5.67852V50.3215C41.5617 51.7982 40.3448 53 38.8494 53ZM39.7535 5.67852C39.7535 5.18657 39.3475 4.78568 38.8494 4.78568H17.1496C16.6514 4.78568 16.2455 5.18657 16.2455 5.67852V10.1427H39.7535V5.67852ZM39.7535 11.9284H16.2455V40.5002H39.7535V11.9284ZM39.7535 42.2859H16.2455V50.3215C16.2455 50.8134 16.6514 51.2143 17.1496 51.2143H38.8494C39.3475 51.2143 39.7535 50.8134 39.7535 50.3215V42.2859ZM27.9999 49.4286C26.5036 49.4286 25.2876 48.2269 25.2876 46.7501C25.2876 45.2725 26.5036 44.0716 27.9999 44.0716C29.4953 44.0716 30.7123 45.2725 30.7123 46.7501C30.7123 48.2269 29.4953 49.4286 27.9999 49.4286ZM27.9999 45.8573C27.5008 45.8573 27.0949 46.2573 27.0949 46.7501C27.0949 47.2421 27.5008 47.643 27.9999 47.643C28.4981 47.643 28.9031 47.2421 28.9031 46.7501C28.9031 46.2573 28.4981 45.8573 27.9999 45.8573ZM26.1917 6.57136H29.8073C30.3072 6.57136 30.7123 6.97136 30.7123 7.46421C30.7123 7.95795 30.3072 8.35705 29.8073 8.35705H26.1917C25.6917 8.35705 25.2876 7.95795 25.2876 7.46421C25.2876 6.97136 25.6917 6.57136 26.1917 6.57136ZM12.5983 43.9225C12.7275 44.3984 12.4418 44.8876 11.959 45.0153C11.8813 45.0367 11.8017 45.0466 11.7249 45.0466C11.3253 45.0466 10.96 44.7832 10.8524 44.3841L2.0942 12.1088C1.70091 10.6597 2.5752 9.16328 4.04348 8.7749L11.4916 6.8044C11.9717 6.67583 12.469 6.95975 12.5983 7.43564C12.7275 7.91241 12.4418 8.40169 11.959 8.52937L4.51182 10.4999C4.00642 10.6338 3.70625 11.1481 3.84096 11.6472L12.5983 43.9225Z" fill="#162B44"/>
</svg>
