<svg width="56" height="56" viewBox="0 0 56 56" fill="none" xmlns="http://www.w3.org/2000/svg">
<path d="M51.2143 53H4.78659C3.24983 53 2 51.7537 2 50.2223V28.0005C2 26.4681 3.24983 25.2227 4.78659 25.2227H26.1434V18.7414C26.1434 16.1886 28.2261 14.1118 30.7861 14.1118H36.3575C37.8933 14.1118 39.1431 12.8656 39.1431 11.3341V3.92683C39.1431 3.41481 39.5591 3 40.0717 3C40.5842 3 41.0002 3.41481 41.0002 3.92683V11.3341C41.0002 13.8859 38.9175 15.9636 36.3575 15.9636H30.7861C29.2503 15.9636 28.0005 17.209 28.0005 18.7414V25.2227H51.2143C52.7502 25.2227 54 26.4681 54 28.0005V50.2223C54 51.7537 52.7502 53 51.2143 53ZM52.1429 28.0005C52.1429 27.4894 51.726 27.0746 51.2143 27.0746H4.78659C4.27403 27.0746 3.85711 27.4894 3.85711 28.0005V50.2223C3.85711 50.7334 4.27403 51.1482 4.78659 51.1482H51.2143C51.726 51.1482 52.1429 50.7334 52.1429 50.2223V28.0005ZM47.5001 45.5927C47.2587 45.5927 47.0173 45.4909 46.8408 45.3242C46.6737 45.1474 46.5716 44.9076 46.5716 44.6668C46.5716 44.4159 46.6737 44.1844 46.8408 44.0094C47.1937 43.6668 47.8158 43.6668 48.1594 44.0094C48.3265 44.1844 48.4287 44.4261 48.4287 44.6668C48.4287 44.9076 48.3265 45.1474 48.1594 45.3242C47.983 45.4909 47.7415 45.5927 47.5001 45.5927ZM47.5001 40.0373C47.2587 40.0373 47.0173 39.9354 46.8408 39.7688C46.6737 39.5919 46.5716 39.3521 46.5716 39.1114C46.5716 38.8706 46.6737 38.629 46.8408 38.454C47.1844 38.1114 47.8158 38.1114 48.1594 38.454C48.3265 38.629 48.4287 38.8706 48.4287 39.1114C48.4287 39.3521 48.3265 39.5919 48.1594 39.7688C47.983 39.9354 47.7508 40.0373 47.5001 40.0373ZM47.5001 34.4818C47.2587 34.4818 47.0173 34.379 46.8408 34.2133C46.6737 34.0365 46.5716 33.805 46.5716 33.5559C46.5716 33.305 46.6737 33.0643 46.8408 32.8985C47.1844 32.5559 47.8158 32.5559 48.1594 32.8985C48.3265 33.0735 48.4287 33.3152 48.4287 33.5559C48.4287 33.7967 48.3265 34.0365 48.1594 34.2133C47.983 34.379 47.7415 34.4818 47.5001 34.4818ZM41.9288 45.5927C41.6874 45.5927 41.4459 45.4909 41.2695 45.3242C41.1024 45.1474 41.0002 44.9159 41.0002 44.6668C41.0002 44.4159 41.1024 44.1761 41.2788 44.0094C41.6131 43.6668 42.2343 43.6668 42.5881 44.0094C42.7543 44.1844 42.8573 44.4261 42.8573 44.6668C42.8573 44.9076 42.7543 45.1474 42.5881 45.3242C42.4116 45.4909 42.1702 45.5927 41.9288 45.5927ZM41.9288 40.0373C41.6874 40.0373 41.4459 39.9354 41.2695 39.7688C41.1024 39.5919 41.0002 39.3521 41.0002 39.1114C41.0002 38.8706 41.1024 38.629 41.2695 38.454C41.6224 38.1114 42.2445 38.1114 42.5881 38.454C42.7543 38.629 42.8573 38.8604 42.8573 39.1114C42.8573 39.3521 42.7543 39.5919 42.5881 39.7688C42.4116 39.9354 42.1702 40.0373 41.9288 40.0373ZM41.9288 34.4818C41.6874 34.4818 41.4459 34.379 41.2695 34.2133C41.1024 34.0365 41.0002 33.7967 41.0002 33.5559C41.0002 33.3152 41.1024 33.0735 41.2695 32.8985C41.6224 32.5559 42.2445 32.5559 42.5881 32.8985C42.7543 33.0735 42.8573 33.305 42.8573 33.5559C42.8573 33.805 42.7543 34.0365 42.5881 34.2133C42.4116 34.379 42.1702 34.4818 41.9288 34.4818ZM36.3575 45.5927H19.6435C19.13 45.5927 18.7149 45.1788 18.7149 44.6668C18.7149 44.1548 19.13 43.7409 19.6435 43.7409H36.3575C36.87 43.7409 37.286 44.1548 37.286 44.6668C37.286 45.1788 36.87 45.5927 36.3575 45.5927ZM36.3575 40.0373C36.116 40.0373 35.8746 39.9354 35.6982 39.7688C35.531 39.5919 35.4289 39.3521 35.4289 39.1114C35.4289 38.8706 35.531 38.629 35.6982 38.454C36.0408 38.1114 36.663 38.1114 37.0167 38.454C37.1839 38.629 37.286 38.8706 37.286 39.1114C37.286 39.3521 37.1839 39.5919 37.0167 39.7688C36.8403 39.9354 36.5989 40.0373 36.3575 40.0373ZM36.3575 34.4818C36.116 34.4818 35.8746 34.379 35.6982 34.2133C35.531 34.0365 35.4289 33.805 35.4289 33.5559C35.4289 33.305 35.531 33.0643 35.6982 32.8985C36.0408 32.5559 36.663 32.5559 37.0167 32.8985C37.1839 33.0735 37.286 33.3152 37.286 33.5559C37.286 33.7967 37.1839 34.0365 37.0167 34.2133C36.8403 34.379 36.5989 34.4818 36.3575 34.4818ZM30.7861 40.0373C30.5447 40.0373 30.3033 39.9354 30.1269 39.7688C29.9597 39.5919 29.8576 39.3521 29.8576 39.1114C29.8576 38.8706 29.9597 38.629 30.1269 38.454C30.4797 38.1114 31.1018 38.1114 31.4454 38.454C31.6125 38.629 31.7147 38.8706 31.7147 39.1114C31.7147 39.3521 31.6125 39.5919 31.4454 39.7688C31.269 39.9354 31.0276 40.0373 30.7861 40.0373ZM30.7861 34.4818C30.5447 34.4818 30.3033 34.379 30.1269 34.2133C29.9597 34.0365 29.8576 33.7967 29.8576 33.5559C29.8576 33.3152 29.9597 33.0735 30.1269 32.8985C30.4695 32.5559 31.1018 32.5559 31.4454 32.8985C31.6125 33.0735 31.7147 33.3152 31.7147 33.5559C31.7147 33.7967 31.6125 34.0365 31.4454 34.2133C31.269 34.379 31.0276 34.4818 30.7861 34.4818ZM25.2148 40.0373C24.9734 40.0373 24.732 39.9354 24.5555 39.7688C24.3884 39.5919 24.2862 39.3521 24.2862 39.1114C24.2862 38.8604 24.3884 38.629 24.5555 38.454C24.8991 38.1114 25.5305 38.1114 25.8741 38.454C26.0403 38.629 26.1434 38.8706 26.1434 39.1114C26.1434 39.3521 26.0403 39.5919 25.8741 39.7688C25.6976 39.9354 25.4553 40.0373 25.2148 40.0373ZM25.2148 34.4818C24.9734 34.4818 24.732 34.379 24.5555 34.2133C24.3884 34.0365 24.2862 33.805 24.2862 33.5559C24.2862 33.305 24.3884 33.0735 24.5639 32.8985C24.8991 32.5559 25.5305 32.5559 25.8741 32.8985C26.0403 33.0735 26.1434 33.3152 26.1434 33.5559C26.1434 33.7967 26.0403 34.0365 25.8741 34.2133C25.6976 34.379 25.4553 34.4818 25.2148 34.4818ZM19.6435 40.0373C19.4011 40.0373 19.1606 39.9354 18.9842 39.7688C18.8171 39.5919 18.7149 39.3521 18.7149 39.1114C18.7149 38.8706 18.8171 38.629 18.9842 38.454C19.3268 38.1114 19.949 38.1114 20.3027 38.454C20.469 38.629 20.572 38.8706 20.572 39.1114C20.572 39.3521 20.469 39.5919 20.3027 39.7688C20.1263 39.9354 19.884 40.0373 19.6435 40.0373ZM19.6435 34.4818C19.4011 34.4818 19.1606 34.379 18.9842 34.2133C18.8171 34.0365 18.7149 33.7967 18.7149 33.5559C18.7149 33.3152 18.8171 33.0735 18.9842 32.8985C19.3268 32.5559 19.9583 32.5559 20.3027 32.8985C20.469 33.0735 20.572 33.3152 20.572 33.5559C20.572 33.7967 20.469 34.0365 20.3027 34.2133C20.1263 34.379 19.884 34.4818 19.6435 34.4818ZM14.0721 45.5927C13.8298 45.5927 13.5893 45.4909 13.4129 45.3242C13.2448 45.1474 13.1436 44.9076 13.1436 44.6668C13.1436 44.4261 13.2448 44.1844 13.4129 44.0094C13.7555 43.6668 14.3776 43.6668 14.7314 44.0094C14.8976 44.1844 15.0007 44.4261 15.0007 44.6668C15.0007 44.9076 14.8976 45.1474 14.7314 45.3242C14.555 45.4909 14.3126 45.5927 14.0721 45.5927ZM14.0721 40.0373C13.8298 40.0373 13.5893 39.9354 13.4129 39.7688C13.2448 39.5919 13.1436 39.3521 13.1436 39.1114C13.1436 38.8706 13.2448 38.629 13.4129 38.454C13.7657 38.1114 14.3869 38.1114 14.7314 38.454C14.8976 38.629 15.0007 38.8706 15.0007 39.1114C15.0007 39.3521 14.8976 39.5919 14.7314 39.7688C14.555 39.9354 14.3126 40.0373 14.0721 40.0373ZM14.0721 34.4818C13.8298 34.4818 13.5893 34.379 13.4129 34.2133C13.2448 34.0365 13.1436 33.7967 13.1436 33.5559C13.1436 33.3152 13.2448 33.0735 13.4129 32.8985C13.7657 32.5559 14.3869 32.5559 14.7314 32.8985C14.8976 33.0735 15.0007 33.305 15.0007 33.5559C15.0007 33.805 14.8976 34.0365 14.7212 34.2133C14.555 34.379 14.3126 34.4818 14.0721 34.4818ZM8.49988 45.5927C8.25846 45.5927 8.01796 45.4909 7.84154 45.3242C7.6744 45.1474 7.57226 44.9076 7.57226 44.6668C7.57226 44.4159 7.6744 44.1844 7.84154 44.0094C8.19439 43.6668 8.81559 43.6668 9.15916 44.0094C9.3263 44.1844 9.42844 44.4261 9.42844 44.6668C9.42844 44.9076 9.3263 45.1474 9.15916 45.3242C8.98273 45.4909 8.75152 45.5927 8.49988 45.5927ZM8.49988 40.0373C8.25846 40.0373 8.01796 39.9354 7.84154 39.7688C7.6744 39.5919 7.57226 39.3521 7.57226 39.1114C7.57226 38.8604 7.6744 38.629 7.84154 38.454C8.18418 38.1114 8.81559 38.1114 9.15916 38.454C9.3263 38.629 9.42844 38.8604 9.42844 39.1114C9.42844 39.3521 9.3263 39.5919 9.15916 39.7688C8.98273 39.9354 8.74131 40.0373 8.49988 40.0373ZM8.49988 34.4818C8.25846 34.4818 8.01796 34.379 7.84154 34.2133C7.6744 34.0365 7.57226 33.805 7.57226 33.5559C7.57226 33.305 7.6744 33.0643 7.84154 32.8985C8.18418 32.5559 8.81559 32.5559 9.15916 32.8985C9.3263 33.0735 9.42844 33.3152 9.42844 33.5559C9.42844 33.7967 9.3263 34.0365 9.15916 34.2133C8.98273 34.379 8.74131 34.4818 8.49988 34.4818Z" fill="#162B44"/>
</svg>
