<svg width="56" height="56" viewBox="0 0 56 56" fill="none" xmlns="http://www.w3.org/2000/svg">
<path d="M47.0667 49C43.2438 49 40.1333 45.8597 40.1333 41.9993V35.8753C40.1333 35.3923 39.7442 34.9994 39.2667 34.9994H38.3125C37.9103 36.9944 36.1597 38.5002 34.0667 38.5002C31.9745 38.5002 30.2239 36.9944 29.8209 34.9994H26.1791C25.7761 36.9944 24.0255 38.5002 21.9333 38.5002C19.8412 38.5002 18.0905 36.9944 17.6875 34.9994H16.7333C16.2558 34.9994 15.8667 35.3923 15.8667 35.8753V41.9993C15.8667 45.8597 12.7562 49 8.93333 49C5.11047 49 2 45.8597 2 41.9993V23.6247C2 16.6825 7.36987 10.9978 14.1333 10.5446V9.62495C14.1333 8.17773 15.2999 7 16.7333 7H20.2C21.6335 7 22.8 8.17773 22.8 9.62495V10.4999H33.2V9.62495C33.2 8.17773 34.3665 7 35.8 7H39.2667C40.701 7 41.8667 8.17773 41.8667 9.62495V10.5446C48.631 10.9978 54 16.6825 54 23.6247V41.9993C54 45.8597 50.8904 49 47.0667 49ZM34.0667 36.7494C35.501 36.7494 36.6667 35.5725 36.6667 34.1244C36.6667 32.6772 35.501 31.4995 34.0667 31.4995C32.6332 31.4995 31.4667 32.6772 31.4667 34.1244C31.4667 35.5725 32.6332 36.7494 34.0667 36.7494ZM21.9333 36.7494C23.3668 36.7494 24.5333 35.5725 24.5333 34.1244C24.5333 32.6772 23.3668 31.4995 21.9333 31.4995C20.4999 31.4995 19.3333 32.6772 19.3333 34.1244C19.3333 35.5725 20.4999 36.7494 21.9333 36.7494ZM21.0667 9.62495C21.0667 9.14196 20.6775 8.74996 20.2 8.74996H16.7333C16.2558 8.74996 15.8667 9.14196 15.8667 9.62495V10.4999H21.0667V9.62495ZM33.2 12.2499H22.8V17.4998H33.2V12.2499ZM40.1333 9.62495C40.1333 9.14196 39.7442 8.74996 39.2667 8.74996H35.8C35.3225 8.74996 34.9333 9.14196 34.9333 9.62495V10.4999H40.1333V9.62495ZM52.2667 23.6247C52.2667 17.3528 47.2131 12.2499 41 12.2499H34.9333V18.3748C34.9333 18.8586 34.5451 19.2497 34.0667 19.2497H21.9333C21.4549 19.2497 21.0667 18.8586 21.0667 18.3748V12.2499H15C8.78687 12.2499 3.73333 17.3528 3.73333 23.6247V41.9993C3.73333 44.8946 6.06553 47.25 8.93333 47.25C11.8003 47.25 14.1333 44.8946 14.1333 41.9993V35.8753C14.1333 34.4272 15.2999 33.2503 16.7333 33.2503H17.6867C17.6875 33.2486 17.6875 33.2477 17.6884 33.2468C17.6901 33.2346 17.6953 33.2241 17.6979 33.2127C17.7517 32.9563 17.8297 32.7096 17.9259 32.4725C17.9597 32.3893 18.0047 32.3141 18.0429 32.2345C18.12 32.0735 18.1997 31.9151 18.2951 31.7655C18.3505 31.6797 18.4129 31.6001 18.4736 31.5187C18.5707 31.3875 18.6712 31.2606 18.7821 31.1416C18.8541 31.0637 18.9295 30.9911 19.0075 30.9194C19.1236 30.81 19.2458 30.7094 19.3732 30.614C19.4581 30.5501 19.5431 30.4889 19.6332 30.432C19.771 30.3445 19.914 30.2684 20.0613 30.1966C20.1541 30.152 20.2433 30.1039 20.3387 30.0663C20.5051 29.9989 20.6784 29.9499 20.8543 29.9044C20.9401 29.8816 21.0225 29.851 21.11 29.8344C21.3769 29.7819 21.6517 29.7495 21.9333 29.7495C22.2159 29.7495 22.4897 29.7819 22.7567 29.8344C22.8442 29.851 22.9265 29.8816 23.0123 29.9035C23.1883 29.9499 23.3616 29.9989 23.528 30.0663C23.6233 30.1039 23.7126 30.152 23.8045 30.1966C23.9518 30.2684 24.0965 30.3445 24.2343 30.432C24.3236 30.4889 24.4085 30.5501 24.4935 30.614C24.6209 30.7094 24.7431 30.8109 24.8601 30.9194C24.9372 30.9911 25.0126 31.0637 25.0845 31.1416C25.1955 31.2606 25.296 31.3875 25.3931 31.5187C25.4537 31.6001 25.5161 31.6797 25.5716 31.7655C25.6669 31.9151 25.7458 32.0726 25.8229 32.2327C25.8619 32.3132 25.907 32.3893 25.9408 32.4725C26.0353 32.7061 26.1107 32.9485 26.1653 33.1996C26.1687 33.2162 26.1757 33.2311 26.1791 33.2477C26.1791 33.2486 26.1791 33.2495 26.18 33.2503H29.8209C29.8209 33.2495 29.8209 33.2486 29.8209 33.2477C29.8243 33.2311 29.8321 33.2162 29.8356 33.1987C29.8893 32.9485 29.9647 32.7061 30.0592 32.4725C30.093 32.3893 30.1389 32.3132 30.1771 32.2318C30.2542 32.0726 30.3339 31.9151 30.4284 31.7664C30.4839 31.6797 30.5463 31.6001 30.6078 31.5179C30.7049 31.3875 30.8045 31.2606 30.9146 31.1416C30.9874 31.0637 31.0628 30.9911 31.1408 30.9185C31.2569 30.81 31.3791 30.7094 31.5065 30.614C31.5915 30.5501 31.6764 30.4889 31.7665 30.432C31.9043 30.3445 32.0473 30.2684 32.1947 30.1966C32.2874 30.152 32.3767 30.1039 32.472 30.0663C32.6384 29.9989 32.8117 29.9499 32.9877 29.9044C33.0735 29.8816 33.1558 29.851 33.2433 29.8344C33.5103 29.7819 33.785 29.7495 34.0667 29.7495C34.3492 29.7495 34.6231 29.7819 34.89 29.8344C34.9784 29.851 35.0599 29.8816 35.1465 29.9044C35.3216 29.9499 35.4949 29.9989 35.6613 30.0663C35.7575 30.1048 35.8468 30.152 35.9387 30.1966C36.086 30.2684 36.2299 30.3445 36.3668 30.432C36.4569 30.4889 36.5419 30.551 36.6277 30.614C36.7551 30.7094 36.8764 30.81 36.9925 30.9185C37.0705 30.9911 37.1468 31.0637 37.2187 31.1425C37.3288 31.2606 37.4285 31.3866 37.5255 31.517C37.5871 31.6001 37.6503 31.6797 37.7058 31.7664C37.8003 31.9142 37.8791 32.0717 37.9554 32.231C37.9944 32.3123 38.0403 32.3893 38.0741 32.4733C38.1695 32.7061 38.2449 32.9485 38.2986 33.1996C38.3021 33.2162 38.309 33.2311 38.3125 33.2477C38.3125 33.2486 38.3133 33.2495 38.3133 33.2503H39.2667C40.701 33.2503 41.8667 34.4272 41.8667 35.8753V41.9993C41.8667 44.8946 44.1997 47.25 47.0667 47.25C49.9345 47.25 52.2667 44.8946 52.2667 41.9993V23.6247ZM47.9333 26.2496C46.4999 26.2496 45.3342 25.0727 45.3342 23.6247C45.3342 22.1774 46.4999 20.9997 47.9333 20.9997C49.3677 20.9997 50.5333 22.1774 50.5333 23.6247C50.5333 25.0727 49.3677 26.2496 47.9333 26.2496ZM47.9333 22.7497C47.4558 22.7497 47.0667 23.1425 47.0667 23.6247C47.0667 24.1076 47.4558 24.4996 47.9333 24.4996C48.4117 24.4996 48.8 24.1076 48.8 23.6247C48.8 23.1425 48.4117 22.7497 47.9333 22.7497ZM42.7333 20.9997C41.2999 20.9997 40.1333 19.8229 40.1333 18.3748C40.1333 16.9275 41.2999 15.7498 42.7333 15.7498C44.1677 15.7498 45.3342 16.9275 45.3342 18.3748C45.3342 19.8229 44.1677 20.9997 42.7333 20.9997ZM42.7333 17.4998C42.2558 17.4998 41.8667 17.8918 41.8667 18.3748C41.8667 18.8578 42.2558 19.2497 42.7333 19.2497C43.2117 19.2497 43.6 18.8578 43.6 18.3748C43.6 17.8918 43.2117 17.4998 42.7333 17.4998ZM37.5333 26.2496C36.0999 26.2496 34.9333 25.0727 34.9333 23.6247C34.9333 22.1774 36.0999 20.9997 37.5333 20.9997C38.9677 20.9997 40.1333 22.1774 40.1333 23.6247C40.1333 25.0727 38.9677 26.2496 37.5333 26.2496ZM37.5333 22.7497C37.0558 22.7497 36.6667 23.1425 36.6667 23.6247C36.6667 24.1076 37.0558 24.4996 37.5333 24.4996C38.0117 24.4996 38.4 24.1076 38.4 23.6247C38.4 23.1425 38.0117 22.7497 37.5333 22.7497ZM42.7333 26.2496C44.1677 26.2496 45.3342 27.4273 45.3342 28.8745C45.3342 30.3226 44.1677 31.4995 42.7333 31.4995C41.2999 31.4995 40.1333 30.3226 40.1333 28.8745C40.1333 27.4273 41.2999 26.2496 42.7333 26.2496ZM42.7333 29.7495C43.2117 29.7495 43.6 29.3575 43.6 28.8745C43.6 28.3924 43.2117 27.9996 42.7333 27.9996C42.2558 27.9996 41.8667 28.3924 41.8667 28.8745C41.8667 29.3575 42.2558 29.7495 42.7333 29.7495ZM15.8667 26.2496H14.1333V27.9996C14.1333 28.9647 13.3559 29.7495 12.4 29.7495H10.6667C9.71073 29.7495 8.93333 28.9647 8.93333 27.9996V26.2496H7.2C6.24407 26.2496 5.46667 25.4647 5.46667 24.4996V22.7497C5.46667 21.7854 6.24407 20.9997 7.2 20.9997H8.93333V19.2497C8.93333 18.2855 9.71073 17.4998 10.6667 17.4998H12.4C13.3559 17.4998 14.1333 18.2855 14.1333 19.2497V20.9997H15.8667C16.8226 20.9997 17.6 21.7854 17.6 22.7497V24.4996C17.6 25.4647 16.8226 26.2496 15.8667 26.2496ZM15.8667 22.7497H13.2667C12.7883 22.7497 12.4 22.3586 12.4 21.8747V19.2497H10.6667V21.8747C10.6667 22.3586 10.2784 22.7497 9.8 22.7497H7.2V24.4996H9.8C10.2784 24.4996 10.6667 24.8916 10.6667 25.3746V27.9996H12.4017L12.4 25.3746C12.4 24.8916 12.7883 24.4996 13.2667 24.4996H15.8667V22.7497Z" fill="#162B44"/>
</svg>
