<svg width="56" height="56" viewBox="0 0 56 56" fill="none" xmlns="http://www.w3.org/2000/svg">
<path d="M51.4 52H37.5336C36.0993 52 34.9337 50.8463 34.9337 49.4286V20.2854C34.9337 18.8677 36.0993 17.714 37.5336 17.714H51.4C52.8335 17.714 54 18.8677 54 20.2854V49.4286C54 50.8463 52.8335 52 51.4 52ZM52.2667 20.2854C52.2667 19.8131 51.8776 19.4283 51.4 19.4283H37.5336C37.0561 19.4283 36.667 19.8131 36.667 20.2854V24.5711H52.2667V20.2854ZM52.2667 26.2853H36.667V43.4287H52.2667V26.2853ZM52.2667 45.143H36.667V49.4286C36.667 49.9009 37.0561 50.2857 37.5336 50.2857H51.4C51.8776 50.2857 52.2667 49.9009 52.2667 49.4286V45.143ZM44.4668 48.5715C44.2415 48.5715 44.0162 48.4764 43.8515 48.3229C43.6955 48.1601 43.6002 47.9458 43.6002 47.7144C43.6002 47.4907 43.6955 47.2687 43.8515 47.1058C44.1722 46.7887 44.7615 46.7887 45.0822 47.1058C45.2381 47.2687 45.3335 47.4907 45.3335 47.7144C45.3335 47.9458 45.2381 48.1601 45.0822 48.3229C44.9175 48.4764 44.6922 48.5715 44.4668 48.5715ZM43.6002 21.1426H45.3335C45.8119 21.1426 46.2001 21.5265 46.2001 21.9997C46.2001 22.4737 45.8119 22.8568 45.3335 22.8568H43.6002C43.1218 22.8568 42.7335 22.4737 42.7335 21.9997C42.7335 21.5265 43.1218 21.1426 43.6002 21.1426ZM23.9185 34.6089C23.7625 34.446 23.6672 34.2317 23.6672 34.0003C23.6672 33.7766 23.7625 33.5538 23.9185 33.3918C24.2383 33.0738 24.819 33.0738 25.1491 33.3918C25.3043 33.5538 25.4005 33.7766 25.4005 34.0003C25.4005 34.2223 25.3043 34.446 25.1491 34.6089C24.9845 34.7623 24.7592 34.8566 24.5338 34.8566C24.2998 34.8566 24.0832 34.7623 23.9185 34.6089ZM46.2001 15.9998C45.7217 15.9998 45.3335 15.6158 45.3335 15.1427V6.57138C45.3335 6.09911 44.9444 5.71426 44.4668 5.71426H4.59996C4.12243 5.71426 3.7333 6.09911 3.7333 6.57138V29.7138H32.3337C32.8121 29.7138 33.2003 30.0978 33.2003 30.571C33.2003 31.0449 32.8121 31.4281 32.3337 31.4281H3.7333V35.7137C3.7333 36.1869 4.12243 36.5717 4.59996 36.5717H20.2006H28.8671H32.3337C32.8121 36.5717 33.2003 36.9548 33.2003 37.428C33.2003 37.902 32.8121 38.286 32.3337 38.286H29.7337V43.4287H32.3337C32.8121 43.4287 33.2003 43.8119 33.2003 44.2859C33.2003 44.759 32.8121 45.143 32.3337 45.143H28.8671H20.2006H16.734C16.2556 45.143 15.8673 44.759 15.8673 44.2859C15.8673 43.8119 16.2556 43.4287 16.734 43.4287H19.3339V38.286H4.59996C3.16651 38.286 2 37.1323 2 35.7137V6.57138C2 5.15369 3.16651 4 4.59996 4H44.4668C45.9003 4 47.0668 5.15369 47.0668 6.57138V15.1427C47.0668 15.6158 46.6785 15.9998 46.2001 15.9998ZM21.0672 43.4287H28.0004V38.286H21.0672V43.4287Z" fill="#162B44"/>
</svg>
