<svg width="56" height="56" viewBox="0 0 56 56" fill="none" xmlns="http://www.w3.org/2000/svg">
<path d="M53.0714 45.48H35.4286C31.1154 45.48 28.9286 47.0274 28.9286 50.08C28.9286 50.5888 28.5126 51 28 51C27.4874 51 27.0714 50.5888 27.0714 50.08C27.0714 47.0274 24.8846 45.48 20.5714 45.48H2.92857C2.416 45.48 2 45.0678 2 44.56V9.6C2 9.09124 2.416 8.68 2.92857 8.68H5.71429V5.92C5.71429 5.41124 6.13029 5 6.64286 5H23.3571C25.2932 5 27.0009 5.98256 28 7.47112C28.9991 5.98256 30.7068 5 32.6429 5H38.2143H43.7857H49.3571C49.8697 5 50.2857 5.41124 50.2857 5.92V8.68H53.0714C53.584 8.68 54 9.09124 54 9.6V44.56C54 45.0678 53.584 45.48 53.0714 45.48ZM5.71429 40.88V10.52H3.85714V43.64H20.5714C23.4017 43.64 25.5671 44.3226 26.9916 45.5656C26.609 43.0742 24.4659 41.8 20.5714 41.8H6.64286C6.13029 41.8 5.71429 41.3888 5.71429 40.88ZM27.0714 10.52C27.0714 8.49048 25.4056 6.84 23.3571 6.84H7.57143V39.96H20.5714C23.4491 39.96 25.6479 40.6592 27.0714 41.9417V10.52ZM42.8571 6.84H39.1429V16.04L40.2571 14.568C40.4326 14.3362 40.7075 14.2 41 14.2C41.2925 14.2 41.5674 14.3362 41.7429 14.568L42.8571 16.04V6.84ZM48.4286 6.84H44.7143V18.8C44.7143 19.1956 44.4589 19.547 44.0791 19.6722C43.9826 19.7044 43.8832 19.72 43.7857 19.72C43.4988 19.72 43.2221 19.5875 43.0429 19.3511L41 16.6536L38.9571 19.3511C38.7166 19.6685 38.3016 19.801 37.9209 19.6722C37.5411 19.547 37.2857 19.1956 37.2857 18.8V6.84H32.6429C30.5944 6.84 28.9286 8.49048 28.9286 10.52V41.9417C30.3521 40.6592 32.5509 39.96 35.4286 39.96H48.4286V6.84ZM52.1429 10.52H50.2857V40.88C50.2857 41.3888 49.8697 41.8 49.3571 41.8H35.4286C31.5341 41.8 29.391 43.0742 29.0084 45.5656C30.4329 44.3226 32.5983 43.64 35.4286 43.64H52.1429V10.52ZM32.6429 35.36C32.6429 34.8512 33.0589 34.44 33.5714 34.44H43.7857C44.2983 34.44 44.7143 34.8512 44.7143 35.36C44.7143 35.8678 44.2983 36.28 43.7857 36.28H33.5714C33.0589 36.28 32.6429 35.8678 32.6429 35.36ZM43.7857 30.76H33.5714C33.0589 30.76 32.6429 30.3478 32.6429 29.84C32.6429 29.3312 33.0589 28.92 33.5714 28.92H43.7857C44.2983 28.92 44.7143 29.3312 44.7143 29.84C44.7143 30.3478 44.2983 30.76 43.7857 30.76ZM43.7857 25.24H33.5714C33.0589 25.24 32.6429 24.8288 32.6429 24.32C32.6429 23.8112 33.0589 23.4 33.5714 23.4H43.7857C44.2983 23.4 44.7143 23.8112 44.7143 24.32C44.7143 24.8288 44.2983 25.24 43.7857 25.24ZM11.2857 35.36C11.2857 34.8512 11.7017 34.44 12.2143 34.44H22.4286C22.9411 34.44 23.3571 34.8512 23.3571 35.36C23.3571 35.8678 22.9411 36.28 22.4286 36.28H12.2143C11.7017 36.28 11.2857 35.8678 11.2857 35.36ZM22.4286 30.76H12.2143C11.7017 30.76 11.2857 30.3478 11.2857 29.84C11.2857 29.3312 11.7017 28.92 12.2143 28.92H22.4286C22.9411 28.92 23.3571 29.3312 23.3571 29.84C23.3571 30.3478 22.9411 30.76 22.4286 30.76ZM22.4286 25.24H12.2143C11.7017 25.24 11.2857 24.8288 11.2857 24.32C11.2857 23.8112 11.7017 23.4 12.2143 23.4H22.4286C22.9411 23.4 23.3571 23.8112 23.3571 24.32C23.3571 24.8288 22.9411 25.24 22.4286 25.24ZM22.4286 19.72H12.2143C11.7017 19.72 11.2857 19.3078 11.2857 18.8C11.2857 18.2912 11.7017 17.88 12.2143 17.88H22.4286C22.9411 17.88 23.3571 18.2912 23.3571 18.8C23.3571 19.3078 22.9411 19.72 22.4286 19.72ZM18.7143 14.2H15.9286C15.416 14.2 15 13.7878 15 13.28C15 12.7712 15.416 12.36 15.9286 12.36H18.7143C19.2269 12.36 19.6429 12.7712 19.6429 13.28C19.6429 13.7878 19.2269 14.2 18.7143 14.2Z" fill="#162B44"/>
</svg>
