<svg width="56" height="56" viewBox="0 0 56 56" fill="none" xmlns="http://www.w3.org/2000/svg">
<path fill-rule="evenodd" clip-rule="evenodd" d="M5.67857 52H50.3214C51.7982 52 53 50.7575 53 49.2308V6.76923C53 5.24246 51.7982 4 50.3214 4H5.67857C4.20179 4 3 5.24246 3 6.76923V49.2308C3 50.7575 4.20179 52 5.67857 52ZM50.3214 5.84615C50.8143 5.84615 51.2143 6.26062 51.2143 6.76923V13.2308H4.78571V6.76923C4.78571 6.26062 5.18661 5.84615 5.67857 5.84615H50.3214ZM4.78571 15.0769H51.2143V49.2308C51.2143 49.7394 50.8143 50.1538 50.3214 50.1538H5.67857C5.18661 50.1538 4.78571 49.7394 4.78571 49.2308V15.0769ZM10.1429 9.53846C10.1429 8.52031 9.34196 7.69231 8.35714 7.69231C7.37232 7.69231 6.57143 8.52031 6.57143 9.53846C6.57143 10.5566 7.37232 11.3846 8.35714 11.3846C9.34196 11.3846 10.1429 10.5566 10.1429 9.53846ZM15.5 9.53846C15.5 8.52031 14.6991 7.69231 13.7143 7.69231C12.7295 7.69231 11.9286 8.52031 11.9286 9.53846C11.9286 10.5566 12.7295 11.3846 13.7143 11.3846C14.6991 11.3846 15.5 10.5566 15.5 9.53846ZM20.8571 9.53846C20.8571 8.52031 20.0562 7.69231 19.0714 7.69231C18.0866 7.69231 17.2857 8.52031 17.2857 9.53846C17.2857 10.5566 18.0866 11.3846 19.0714 11.3846C20.0562 11.3846 20.8571 10.5566 20.8571 9.53846ZM20.2959 26.295C20.6859 25.904 21.3189 25.904 21.7099 26.295C22.0999 26.685 22.0999 27.318 21.7099 27.709L16.4169 33.002L21.7099 38.295C22.0999 38.685 22.0999 39.318 21.7099 39.709C21.5139 39.904 21.2579 40.002 21.0019 40.002C20.7469 40.002 20.4909 39.904 20.2959 39.709L14.2959 33.709C13.9049 33.318 13.9049 32.685 14.2959 32.295L20.2959 26.295ZM30.1079 26.554C30.3549 26.061 30.9549 25.862 31.4499 26.107C31.9439 26.354 32.1439 26.955 31.8969 27.449L25.8969 39.449C25.7219 39.8 25.3689 40.002 25.0019 40.002C24.8519 40.002 24.6989 39.967 24.5549 39.896C24.0609 39.649 23.8609 39.049 24.1079 38.554L30.1079 26.554ZM34.2959 26.295C34.6859 25.904 35.3189 25.904 35.7099 26.295L41.7099 32.295C42.0999 32.685 42.0999 33.318 41.7099 33.709L35.7099 39.709C35.5149 39.904 35.2589 40.002 35.0029 40.002C34.7469 40.002 34.4909 39.904 34.2959 39.709C33.9049 39.318 33.9049 38.685 34.2959 38.295L39.5889 33.002L34.2959 27.709C33.9049 27.318 33.9049 26.685 34.2959 26.295Z" fill="#162B44"/>
</svg>
