<svg width="1401" height="331" viewBox="0 0 1401 331" fill="none" xmlns="http://www.w3.org/2000/svg">
<g clip-path="url(#clip0)">
<rect width="1400" height="331" transform="translate(0.310547)" fill="#112339"/>
<g clip-path="url(#clip1)">
<rect x="-0.310547" width="1399" height="344" fill="#031A32"/>
<path d="M1400 -45.9H983.8L1400 370.4V-45.9Z" fill="#1B2B4A"/>
<path d="M676.3 -45.9V398.2H1176.1L732.1 -45.9H676.3Z" fill="#031A32"/>
<path d="M1410 490V340.9L1023.2 -45.9H793L1328.9 490H1410Z" fill="#0C203E"/>
<path d="M793 -45.9H732.1L1176.1 398.2H1237L793 -45.9Z" fill="#021B35"/>
<path d="M676.3 556.8C763.893 556.8 834.9 485.792 834.9 398.2C834.9 310.608 763.893 239.6 676.3 239.6C588.708 239.6 517.7 310.608 517.7 398.2C517.7 485.792 588.708 556.8 676.3 556.8Z" fill="#0C203E"/>
<path d="M676.3 489.6C726.779 489.6 767.7 448.679 767.7 398.2C767.7 347.721 726.779 306.8 676.3 306.8C625.821 306.8 584.9 347.721 584.9 398.2C584.9 448.679 625.821 489.6 676.3 489.6Z" fill="#001B38"/>
<path d="M1005 326.1C1059.18 326.1 1103.1 282.179 1103.1 228C1103.1 173.821 1059.18 129.9 1005 129.9C950.821 129.9 906.9 173.821 906.9 228C906.9 282.179 950.821 326.1 1005 326.1Z" fill="#0C203E"/>
<path d="M1005.19 258C1021.48 258 1034.69 244.569 1034.69 228C1034.69 211.431 1021.48 198 1005.19 198C988.897 198 975.689 211.431 975.689 228C975.689 244.569 988.897 258 1005.19 258Z" fill="#021B35"/>
<path d="M1404.19 355C1451.41 355 1489.69 316.72 1489.69 269.5C1489.69 222.28 1451.41 184 1404.19 184C1356.97 184 1318.69 222.28 1318.69 269.5C1318.69 316.72 1356.97 355 1404.19 355Z" fill="#021B35"/>
<path d="M1005 228V398.2H834.9L1005 228Z" fill="#021B35"/>
<path d="M1005 398.2V228L1176.1 398.2H1005Z" fill="#001B38"/>
<path d="M1005.7 311.2V398.2H1092.7L1005.7 311.2Z" fill="#0B2441"/>
<path d="M918.3 398.2H1005.7V311.2L918.3 398.2Z" fill="#0C203E"/>
<path d="M1213.41 53.5091L1347.26 -80.3449L1213.41 -214.199L1079.56 -80.3449L1213.41 53.5091Z" fill="#001B38"/>
<path d="M1374.6 210.473L1508.45 76.6192L1374.6 -57.2348L1240.74 76.6191L1374.6 210.473Z" fill="#0C203E"/>
<path d="M1374.59 114.302L1412.28 76.6138L1374.59 38.9254L1336.9 76.6137L1374.59 114.302Z" fill="#021B35"/>
<path d="M1134.94 95.7832L1172.63 58.0947L1134.94 20.4063L1097.26 58.0948L1134.94 95.7832Z" fill="#021B35"/>
<path d="M793.012 155.111V-7.78937L767.712 -7.78937V155.111H793.012Z" fill="#1B2B4C"/>
<path d="M1115.85 313.114V276.414H1095.25V313.114H1115.85Z" fill="#1B2B4C"/>
<path d="M945.969 87.3751V16.6751L926.169 16.6751V87.3751H945.969Z" fill="#1B2B4C"/>
<path d="M945.997 129.302V118.902H926.197V129.302H945.997Z" fill="#1B2B4C"/>
<path d="M678 -45.9H357.5L678 274.6V-45.9Z" fill="#1B2B4A"/>
<path d="M-30 -45.9V398.2H549.8L105.7 -45.9H-30Z" fill="#031A32"/>
<path d="M678 398.2V274.6L357.5 -45.9H166.7L610.7 398.2H678Z" fill="#0C203E"/>
<path d="M317.989 389.1V265.5L-2.51054 -55H-193.311L250.689 389.1H317.989Z" fill="#0C203E"/>
<path d="M166.7 -45.9H105.7L549.8 398.2H610.7L166.7 -45.9Z" fill="#021B35"/>
<path d="M49.9999 556.8C137.592 556.8 208.6 485.792 208.6 398.2C208.6 310.608 137.592 239.6 49.9999 239.6C-37.5925 239.6 -108.6 310.608 -108.6 398.2C-108.6 485.792 -37.5925 556.8 49.9999 556.8Z" fill="#0C203E"/>
<path d="M50.0001 489.6C100.479 489.6 141.4 448.679 141.4 398.2C141.4 347.721 100.479 306.8 50.0001 306.8C-0.478725 306.8 -41.3999 347.721 -41.3999 398.2C-41.3999 448.679 -0.478725 489.6 50.0001 489.6Z" fill="#001B38"/>
<path d="M378.7 326.1C432.879 326.1 476.8 282.179 476.8 228C476.8 173.821 432.879 129.9 378.7 129.9C324.521 129.9 280.6 173.821 280.6 228C280.6 282.179 324.521 326.1 378.7 326.1Z" fill="#0C203E"/>
<path d="M378.7 283.8C409.517 283.8 434.5 258.818 434.5 228C434.5 197.183 409.517 172.2 378.7 172.2C347.882 172.2 322.9 197.183 322.9 228C322.9 258.818 347.882 283.8 378.7 283.8Z" fill="#021B35"/>
<path d="M679.689 275C711.17 275 736.689 249.256 736.689 217.5C736.689 185.744 711.17 160 679.689 160C648.209 160 622.689 185.744 622.689 217.5C622.689 249.256 648.209 275 679.689 275Z" fill="#021B35"/>
<path d="M378.7 228V398.2H208.6L378.7 228Z" fill="#021B35"/>
<path d="M378.7 398.2V228L549.8 398.2H378.7Z" fill="#001B38"/>
<path d="M379.4 311.2V398.2H466.4L379.4 311.2Z" fill="#1B2B4A"/>
<path d="M292 398.2H379.4V311.2L292 398.2Z" fill="#0C203E"/>
<path d="M549.748 41.7644L666.844 -75.3313L549.748 -192.427L432.652 -75.3313L549.748 41.7644Z" fill="#001B38"/>
<path d="M690.751 179.12L807.847 62.024L690.751 -55.0718L573.655 62.024L690.751 179.12Z" fill="#0C203E"/>
<path d="M690.749 94.9719L723.771 61.9504L690.749 28.9288L657.727 61.9503L690.749 94.9719Z" fill="#021B35"/>
<path d="M497.201 94.9933L530.223 61.9717L497.201 28.9501L464.18 61.9717L497.201 94.9933Z" fill="#021B35"/>
<path d="M166.689 274L166.689 113H141.689L141.689 274H166.689Z" fill="#1B2B4C"/>
<path d="M489.545 313.122V276.422H468.945V313.122H489.545Z" fill="#1B2B4C"/>
<path d="M319.662 87.383V16.683L299.862 16.683V87.383H319.662Z" fill="#1B2B4C"/>
<path d="M319.688 129.31V118.91H299.888V129.31H319.688Z" fill="#1B2B4C"/>
<path d="M166.689 87V77H141.689V87H166.689Z" fill="#1B2B4C"/>
</g>
</g>
<defs>
<clipPath id="clip0">
<rect width="1400" height="331" fill="white" transform="translate(0.310547)"/>
</clipPath>
<clipPath id="clip1">
<rect width="1400" height="393" fill="white" transform="translate(0 -25)"/>
</clipPath>
</defs>
</svg>
