<svg width="56" height="56" viewBox="0 0 56 56" fill="none" xmlns="http://www.w3.org/2000/svg">
<path fill-rule="evenodd" clip-rule="evenodd" d="M27.1311 53.8886C27.4172 53.9595 27.7033 54 27.9894 54C28.2861 54 28.5722 53.9595 28.8477 53.8886C29.1338 53.8177 29.4093 53.7164 29.653 53.5746L50.347 42.1597C50.8556 41.8761 51.2689 41.471 51.555 40.9949C51.8411 40.5189 52 39.972 52 39.4048V16.575C52 15.9977 51.8411 15.4507 51.555 14.9747C51.2689 14.5088 50.8556 14.1036 50.347 13.82L29.653 2.39501C29.1656 2.13167 28.5828 2 28 2C27.4066 2 26.8238 2.13167 26.3364 2.38489V2.39501L5.66358 13.8099H5.65298C5.14437 14.0834 4.73113 14.4885 4.44503 14.9646C4.15894 15.4406 4 15.9977 4 16.5649V39.3946C4 39.9618 4.15894 40.5189 4.44503 40.9848C4.73113 41.4608 5.14437 41.866 5.65298 42.1496L11.0252 45.1071C13.4305 46.2415 14.2675 46.2415 15.3272 46.2415C16.9801 46.2415 18.2623 45.7857 19.1099 44.9349C19.9682 44.074 20.4344 42.7573 20.4344 41.0557V18.9349H18.6543V41.0456C18.6543 41.5925 18.5272 42.1395 18.2623 42.6358C17.9762 43.1928 17.5311 43.679 16.9483 44.0335C16.3656 44.3779 15.6556 44.5906 14.8503 44.5906C14.0662 44.5906 13.1762 44.3981 12.2013 43.9322L12.1483 43.9018L6.53245 40.8025C6.25695 40.6708 6.02384 40.4581 5.8755 40.215C5.72715 39.972 5.64238 39.6884 5.64238 39.4048V16.575C5.64238 16.2914 5.71656 16.0179 5.8649 15.7748C6.01325 15.5317 6.21457 15.3292 6.47947 15.1772L27.1523 3.76237C27.4066 3.62057 27.7033 3.54967 27.9894 3.54967C28.2755 3.54967 28.5616 3.62057 28.8265 3.7725L49.4993 15.1671L49.5205 15.1874C49.7748 15.3292 49.9762 15.5317 50.1245 15.7748C50.2623 16.0078 50.347 16.2813 50.347 16.5649V39.4048C50.347 39.6782 50.2623 39.9517 50.1245 40.1948C49.9868 40.4277 49.7748 40.6404 49.5205 40.7822H49.5099L28.8477 52.187C28.5934 52.3389 28.2861 52.4199 27.9894 52.4199C27.7033 52.4199 27.4066 52.349 27.1523 52.1971H27.1417L22.0556 49.3105C21.4728 49.6245 21.0808 49.827 20.6675 50.0094C20.5404 50.06 20.4132 50.1106 20.2861 50.1613L26.3364 53.5847C26.5801 53.7164 26.845 53.8177 27.1311 53.8886ZM43.6715 32.487C43.6715 30.7246 43.0676 29.6307 41.849 28.9116C40.4503 28.081 38.2252 27.6252 35.1841 27.2404C31.8676 26.8251 30.0238 26.501 28.9748 26.0756C27.4596 25.478 27.2053 24.7386 27.2053 23.6042C27.2053 22.7635 27.4066 21.7912 28.4768 20.991C29.3669 20.3327 30.9033 19.8465 33.5523 19.8465C35.8517 19.8465 37.4623 20.0997 38.649 20.7682C39.8464 21.4367 40.5351 22.4394 40.9377 23.9182H42.8026C42.5589 22.0849 41.7854 20.7378 40.4609 19.8566C38.9351 18.8337 36.657 18.3475 33.5523 18.3475C30.8079 18.3475 28.657 18.8742 27.2159 19.8465C25.8808 20.748 25.1603 22.0748 25.1603 23.7359C25.1603 25.4982 25.849 26.6225 27.1099 27.3416C28.5404 28.1621 30.702 28.5672 33.3934 28.8204C36.9219 29.1445 38.8715 29.5801 39.9523 30.1067C41.4252 30.8259 41.6265 31.6767 41.6265 32.649C41.6265 34.148 40.9907 35.2217 39.6026 35.9205C38.4371 36.5181 36.7205 36.7916 34.3788 36.7916C31.4225 36.7916 29.5788 36.4067 28.3709 35.6369C27.1311 34.857 26.6013 33.7834 26.3364 32.3857H24.4715C24.5457 33.7024 24.9907 35.0799 26.2093 36.1434C27.6397 37.3993 30.151 38.2906 34.3894 38.2906C37.4517 38.2906 39.8252 37.7234 41.4146 36.6802C42.8768 35.7078 43.6715 34.2898 43.6715 32.487Z" fill="#162B44"/>
</svg>
