<svg width="56" height="56" viewBox="0 0 56 56" fill="none" xmlns="http://www.w3.org/2000/svg">
<path d="M42.3446 54C35.918 54 30.6893 48.7713 30.6893 42.3448C30.6893 35.9183 35.918 30.6897 42.3446 30.6897C48.7712 30.6897 54 35.9183 54 42.3448C54 48.7713 48.7712 54 42.3446 54ZM42.3446 32.4828C36.9069 32.4828 32.4824 36.9072 32.4824 42.3448C32.4824 47.7824 36.9069 52.2069 42.3446 52.2069C47.7823 52.2069 52.2069 47.7824 52.2069 42.3448C52.2069 36.9072 47.7823 32.4828 42.3446 32.4828ZM41.8829 46.8948C41.7323 47.1091 41.4965 47.2463 41.2365 47.2714C41.2078 47.2741 41.1782 47.2759 41.1495 47.2759C40.92 47.2759 40.6976 47.1871 40.53 47.0284L37.2432 43.8905C36.8845 43.548 36.8711 42.9805 37.2136 42.6228C37.5552 42.2632 38.1227 42.2507 38.4813 42.5923L41.015 45.0121L46.0941 37.7948C46.3792 37.3896 46.9377 37.2901 47.3439 37.5779C47.7482 37.8621 47.846 38.4215 47.5609 38.8259L41.8829 46.8948ZM49.5172 19.931H40.5515C40.0566 19.931 39.6549 19.5303 39.6549 19.0345C39.6549 18.5387 40.0566 18.1379 40.5515 18.1379H47.1081C43.7863 9.5149 35.5406 3.7931 26.2064 3.7931C16.4733 3.7931 7.90838 10.0053 4.89322 19.2506C4.73991 19.7212 4.23514 19.9786 3.76265 19.8252C3.29195 19.671 3.03464 19.1654 3.18795 18.6938C6.44428 8.7089 15.6951 2 26.2064 2C36.1332 2 44.9294 7.98807 48.6206 17.063V10.069C48.6206 9.57317 49.0223 9.17241 49.5172 9.17241C50.0121 9.17241 50.4137 9.57317 50.4137 10.069V19.0345C50.4137 19.5303 50.0121 19.931 49.5172 19.931ZM12.7579 33.3793C12.7579 33.8751 12.3571 34.2759 11.8613 34.2759H5.30564C8.62653 42.8989 16.8732 48.6207 26.2064 48.6207C26.964 48.6207 27.7629 48.5705 28.7195 48.4629C29.2036 48.4136 29.6555 48.7623 29.7111 49.2546C29.7658 49.7468 29.4116 50.1906 28.9194 50.2452C27.8938 50.36 27.0322 50.4138 26.2064 50.4138C16.2796 50.4138 7.4843 44.4257 3.79224 35.3499V42.3448C3.79224 42.8406 3.39147 43.2414 2.89657 43.2414C2.40077 43.2414 2 42.8406 2 42.3448V33.3793C2 32.8835 2.40077 32.4828 2.89657 32.4828H11.8613C12.3571 32.4828 12.7579 32.8835 12.7579 33.3793Z" fill="#162B44"/>
</svg>
