<svg width="56" height="56" viewBox="0 0 56 56" fill="none" xmlns="http://www.w3.org/2000/svg">
<path d="M51 54H21C19.346 54 18 52.654 18 51V46H13C11.346 46 10 44.654 10 43V38H5C3.346 38 2 36.654 2 35V5C2 3.346 3.346 2 5 2H35C36.654 2 38 3.346 38 5V10H43C44.654 10 46 11.346 46 13V18H51C52.654 18 54 19.346 54 21V51C54 52.654 52.654 54 51 54ZM36 11V5C36 4.449 35.551 4 35 4H5C4.449 4 4 4.449 4 5V35C4 35.551 4.449 36 5 36H11H35C35.551 36 36 35.551 36 35V11ZM44 13C44 12.449 43.551 12 43 12H38V35C38 36.654 36.654 38 35 38H12V43C12 43.551 12.449 44 13 44H19H43C43.551 44 44 43.551 44 43V19V13ZM52 21C52 20.449 51.551 20 51 20H46V43C46 44.654 44.654 46 43 46H20V51C20 51.551 20.449 52 21 52H51C51.551 52 52 51.551 52 51V21Z" fill="#162B44"/>
</svg>
