<svg width="56" height="56" viewBox="0 0 56 56" fill="none" xmlns="http://www.w3.org/2000/svg">
<path d="M51.4 50H4.60082C3.16651 50 2 48.8611 2 47.4615V31.3846C2 31.245 2.03553 31.1071 2.104 30.9835L8.17056 19.9835C8.32136 19.7094 8.61516 19.5385 8.93322 19.5385H14.134C14.6124 19.5385 14.9998 19.9167 14.9998 20.3846C14.9998 20.8525 14.6124 21.2308 14.134 21.2308H9.45148L3.85117 31.3846H18.4673C18.9456 31.3846 19.3339 31.7628 19.3339 32.2308V37.3077C19.3339 37.7748 19.7222 38.1538 20.2006 38.1538H35.8003C36.2778 38.1538 36.667 37.7748 36.667 37.3077V32.2308C36.667 31.7628 37.0552 31.3846 37.5336 31.3846H52.1488L46.5494 21.2308H41.8669C41.3885 21.2308 41.0002 20.8525 41.0002 20.3846C41.0002 19.9167 41.3885 19.5385 41.8669 19.5385H47.0668C47.3857 19.5385 47.6786 19.7094 47.8294 19.9835L53.896 30.9835C53.9645 31.1071 54 31.245 54 31.3846V47.4615C54 48.8611 52.8335 50 51.4 50ZM52.2667 33.0769H38.4003V37.3077C38.4003 38.7072 37.2337 39.8462 35.8003 39.8462H20.2006C18.7671 39.8462 17.6006 38.7072 17.6006 37.3077V33.0769H3.73417V47.4615C3.73417 47.9286 4.12243 48.3077 4.60082 48.3077H51.4C51.8776 48.3077 52.2667 47.9286 52.2667 47.4615V33.0769ZM28.0004 28C21.7874 28 16.734 23.0652 16.734 17C16.734 10.9348 21.7874 6 28.0004 6C34.2126 6 39.2669 10.9348 39.2669 17C39.2669 23.0652 34.2126 28 28.0004 28ZM28.0004 7.69231C22.7433 7.69231 18.4673 11.8681 18.4673 17C18.4673 22.1319 22.7433 26.3077 28.0004 26.3077C33.2567 26.3077 37.5336 22.1319 37.5336 17C37.5336 11.8681 33.2567 7.69231 28.0004 7.69231ZM27.5532 21.2942C27.4085 21.4956 27.1797 21.6259 26.9292 21.6496C26.9007 21.6522 26.8721 21.6538 26.8443 21.6538C26.6225 21.6538 26.4084 21.5701 26.2463 21.4203L23.0683 18.4588C22.7225 18.1355 22.7095 17.5999 23.0406 17.2623C23.3699 16.923 23.9185 16.9112 24.2652 17.2335L26.7152 19.5173L31.6248 12.7058C31.8995 12.3225 32.4403 12.2294 32.8329 12.501C33.2237 12.7692 33.3182 13.2972 33.0426 13.6788L27.5532 21.2942Z" fill="#162B44"/>
</svg>
