<svg width="56" height="56" viewBox="0 0 56 56" fill="none" xmlns="http://www.w3.org/2000/svg">
<path d="M47 51.1429C47 51.616 46.6131 52 46.1364 52H9.86277C9.38605 52 9 51.616 9 51.1429V4.85714C9 4.38314 9.38605 4 9.86277 4H37.5C37.6149 4 37.728 4.02314 37.8325 4.06686C37.937 4.10971 38.032 4.17314 38.1115 4.252L46.7461 12.8217C46.8255 12.9006 46.8886 12.994 46.9326 13.0986C46.9767 13.2023 47 13.3137 47 13.4286V51.1429ZM10.7273 50.2857H45.2727V14.2857H37.5C37.0233 14.2857 36.6364 13.9026 36.6364 13.4286V5.71429H10.7273V50.2857ZM44.0515 12.5714L38.3636 6.92629V12.5714H44.0515ZM32.3182 22.8571H23.6818C23.2051 22.8571 22.8182 22.4731 22.8182 22C22.8182 21.526 23.2051 21.1429 23.6818 21.1429H32.3182C32.7949 21.1429 33.1818 21.526 33.1818 22C33.1818 22.4731 32.7949 22.8571 32.3182 22.8571ZM40.0909 28.8571C40.0909 29.3303 39.704 29.7143 39.2273 29.7143H16.7727C16.296 29.7143 15.9091 29.3303 15.9091 28.8571C15.9091 28.3831 16.296 28 16.7727 28H39.2273C39.704 28 40.0909 28.3831 40.0909 28.8571ZM16.7727 34.8571H39.2273C39.704 34.8571 40.0909 35.2403 40.0909 35.7143C40.0909 36.1883 39.704 36.5714 39.2273 36.5714H16.7727C16.296 36.5714 15.9091 36.1883 15.9091 35.7143C15.9091 35.2403 16.296 34.8571 16.7727 34.8571Z" fill="#162B44"/>
</svg>
