<svg width="56" height="56" viewBox="0 0 56 56" fill="none" xmlns="http://www.w3.org/2000/svg">
<path d="M48.8 54H7.2C4.33272 54 2 51.6673 2 48.8V7.2C2 4.33272 4.33272 2 7.2 2H48.8C51.6673 2 54 4.33272 54 7.2V48.8C54 51.6673 51.6673 54 48.8 54ZM51.92 7.2C51.92 5.47984 50.5202 4.08 48.8 4.08H7.2C5.4788 4.08 4.08 5.47984 4.08 7.2V48.8C4.08 50.5202 5.4788 51.92 7.2 51.92H48.8C50.5202 51.92 51.92 50.5202 51.92 48.8V7.2ZM48.8 49.84H7.2C6.62488 49.84 6.16 49.3741 6.16 48.8V7.2C6.16 6.62592 6.62488 6.16 7.2 6.16H48.8C49.3741 6.16 49.84 6.62592 49.84 7.2V48.8C49.84 49.3741 49.3741 49.84 48.8 49.84ZM47.76 8.24H8.24V47.76H47.76V8.24ZM12.0984 27.2616C12.2856 27.4592 12.4 27.7296 12.4 28C12.4 28.2704 12.2856 28.5408 12.0984 28.7384C11.9008 28.9256 11.6304 29.04 11.36 29.04C11.0792 29.04 10.8192 28.9256 10.6216 28.7384C10.4344 28.5408 10.32 28.2808 10.32 28C10.32 27.7296 10.4344 27.4592 10.6216 27.2616C11.0064 26.8768 11.7032 26.8768 12.0984 27.2616ZM16.56 26.96H25.0714C25.3875 26.0833 26.0791 25.3854 26.96 25.0714V15.52C26.96 14.9459 27.4259 14.48 28 14.48C28.5741 14.48 29.04 14.9459 29.04 15.52V25.0714C30.2474 25.5019 31.12 26.6459 31.12 28C31.12 29.7202 29.7202 31.12 28 31.12C26.6459 31.12 25.5019 30.2474 25.0714 29.04H16.56C15.9859 29.04 15.52 28.5741 15.52 28C15.52 27.4259 15.9859 26.96 16.56 26.96ZM28 29.04C28.573 29.04 29.04 28.573 29.04 28C29.04 27.427 28.573 26.96 28 26.96C27.4259 26.96 26.96 27.427 26.96 28C26.96 28.573 27.4259 29.04 28 29.04ZM28.7384 43.9016C28.9256 44.0992 29.04 44.3696 29.04 44.64C29.04 44.9104 28.9256 45.1808 28.7384 45.3784C28.5408 45.5656 28.2704 45.68 28 45.68C27.7296 45.68 27.4592 45.5656 27.2616 45.3784C27.0744 45.1808 26.96 44.9104 26.96 44.64C26.96 44.3696 27.0744 44.0992 27.2616 43.9016C27.6464 43.5168 28.3536 43.5168 28.7384 43.9016ZM45.3784 27.2616C45.5656 27.4592 45.68 27.7296 45.68 28C45.68 28.2704 45.5656 28.5408 45.3784 28.7384C45.1808 28.9256 44.9104 29.04 44.64 29.04C44.3696 29.04 44.0992 28.9256 43.9016 28.7384C43.7144 28.5408 43.6 28.2704 43.6 28C43.6 27.7296 43.7144 27.4592 43.9016 27.2616C44.2864 26.8768 44.9936 26.8768 45.3784 27.2616ZM28 12.4C27.7296 12.4 27.4592 12.2856 27.2616 12.0984C27.0744 11.9008 26.96 11.6304 26.96 11.36C26.96 11.0896 27.0744 10.8192 27.2616 10.6216C27.6464 10.2368 28.3536 10.2368 28.7384 10.6216C28.9256 10.8192 29.04 11.0896 29.04 11.36C29.04 11.6304 28.9256 11.9008 28.7384 12.0984C28.5408 12.2856 28.2704 12.4 28 12.4Z" fill="#162B44"/>
</svg>
