<svg width="56" height="56" viewBox="0 0 56 56" fill="none" xmlns="http://www.w3.org/2000/svg">
<path d="M53.1034 28.8966H50.369C49.9046 40.5392 40.5392 49.9046 28.8966 50.3681V53.1034C28.8966 53.5983 28.4949 54 28 54C27.5051 54 27.1034 53.5983 27.1034 53.1034V50.3681C15.4617 49.9046 6.09545 40.5383 5.63193 28.8966H2.89655C2.40166 28.8966 2 28.4949 2 28C2 27.5051 2.40166 27.1034 2.89655 27.1034H5.63193C6.09545 15.4608 15.4617 6.09545 27.1034 5.63193V2.89655C27.1034 2.40166 27.5051 2 28 2C28.4949 2 28.8966 2.40166 28.8966 2.89655V5.63193C40.5392 6.09545 49.9046 15.4608 50.369 27.1034H53.1034C53.5992 27.1034 54 27.5051 54 28C54 28.4949 53.5992 28.8966 53.1034 28.8966ZM27.1034 27.1034V16.3906C21.3924 16.8281 16.8281 21.3924 16.3906 27.1034H27.1034ZM16.3906 28.8966C16.8281 34.6076 21.3924 39.1719 27.1034 39.6094V28.8966H16.3906ZM28.8966 28.8966V39.6094C34.6085 39.1719 39.1719 34.6076 39.6103 28.8966H28.8966ZM39.6103 27.1034C39.1719 21.3924 34.6085 16.8281 28.8966 16.3906V27.1034H39.6103ZM27.1034 48.575V41.4026C20.4044 40.9579 15.0421 35.5956 14.5974 28.8966H7.42503C7.88676 39.5494 16.4506 48.1141 27.1034 48.575ZM7.42503 27.1034H14.5974C15.0421 20.4044 20.4044 15.0421 27.1034 14.5974V7.42503C16.4506 7.88586 7.88676 16.4497 7.42503 27.1034ZM28.8966 7.42503V14.5974C35.5965 15.0421 40.9579 20.4044 41.4034 27.1034H48.5759C48.1141 16.4497 39.5503 7.88586 28.8966 7.42503ZM41.4034 28.8966C40.9579 35.5956 35.5965 40.9579 28.8966 41.4026V48.575C39.5503 48.1141 48.1141 39.5503 48.5759 28.8966H41.4034Z" fill="#162B44"/>
</svg>
