<svg width="56" height="56" viewBox="0 0 56 56" fill="none" xmlns="http://www.w3.org/2000/svg">
<path d="M51.4 49H4.6C3.16653 49 2 47.8503 2 46.4376V10.5624C2 9.14883 3.16653 8 4.6 8H51.4C52.8335 8 54 9.14883 54 10.5624V17.3956V34.4786V46.4376C54 47.8503 52.8335 49 51.4 49ZM52.2667 18.2498H45.3333V33.6245H52.2667V18.2498ZM52.2667 35.3328H44.4667C43.9883 35.3328 43.6 34.9501 43.6 34.4786V17.3956C43.6 16.9241 43.9883 16.5415 44.4667 16.5415H52.2667V10.5624C52.2667 10.091 51.8775 9.7083 51.4 9.7083H4.6C4.12247 9.7083 3.73333 10.091 3.73333 10.5624V16.5415H11.5333C12.0117 16.5415 12.4 16.9241 12.4 17.3956V34.4786C12.4 34.9501 12.0117 35.3328 11.5333 35.3328H3.73333V46.4376C3.73333 46.9082 4.12247 47.2917 4.6 47.2917H51.4C51.8775 47.2917 52.2667 46.9082 52.2667 46.4376V35.3328ZM3.76973 18.2498V33.6245H10.6667V18.2498H3.76973ZM44.4667 41.3118H44.4303C43.9519 41.3118 43.5645 40.93 43.5645 40.4577C43.5645 39.9862 43.9519 39.6035 44.4303 39.6035C44.9095 39.6035 45.3151 39.9862 45.3151 40.4577C45.3151 40.93 44.9451 41.3118 44.4667 41.3118ZM40.0033 34.9279C39.9652 34.9894 39.9019 35.0236 39.8508 35.0722C39.8439 35.0791 39.8369 35.0851 39.83 35.0919C39.7563 35.1568 39.6835 35.2123 39.5925 35.2491C39.5301 35.2781 39.4617 35.2875 39.3923 35.3012C39.349 35.3071 39.3117 35.3328 39.2667 35.3328H39.2303H16.7333C16.6276 35.3328 16.5271 35.308 16.4317 35.273C16.404 35.2627 16.3797 35.2499 16.3529 35.2371C16.2844 35.2038 16.222 35.1619 16.1639 35.1115C16.1449 35.0953 16.1249 35.0816 16.1067 35.0629C16.0417 34.9954 15.9845 34.9194 15.9438 34.8314C15.9429 34.8288 15.9438 34.8262 15.9429 34.8228C15.8953 34.7178 15.8667 34.6016 15.8667 34.4786V17.3956C15.8667 16.9241 16.2549 16.5415 16.7333 16.5415H39.2303C39.7095 16.5415 40.0978 16.9241 40.0978 17.3956V34.3548C40.1273 34.5521 40.1134 34.7536 40.0033 34.9279ZM37.8644 33.6245L33.0752 24.1853L27.8431 31.5514C27.7053 31.7453 27.493 31.8743 27.2564 31.9076C27.0198 31.9418 26.7789 31.8769 26.5917 31.7291L22.9066 28.8224L18.6435 33.6245H37.8644ZM17.6 18.2498V32.2057L22.1483 27.0825C22.4533 26.7392 22.9794 26.693 23.3417 26.9783L26.9531 29.8261L32.4902 22.0311C32.6653 21.7843 32.9599 21.645 33.2633 21.6689C33.5683 21.6912 33.8387 21.8697 33.9757 22.1387L38.3645 30.7895V18.2498H17.6ZM21.0667 23.3747C20.1107 23.3747 19.3333 22.6085 19.3333 21.6664C19.3333 20.7243 20.1107 19.9581 21.0667 19.9581C22.0226 19.9581 22.8 20.7243 22.8 21.6664C22.8 22.6085 22.0226 23.3747 21.0667 23.3747ZM16.6969 39.6035C17.1762 39.6035 17.5818 39.9862 17.5818 40.4577C17.5818 40.93 17.2117 41.3118 16.7333 41.3118H16.6969C16.2185 41.3118 15.8311 40.93 15.8311 40.4577C15.8311 39.9862 16.2185 39.6035 16.6969 39.6035ZM21.8978 39.6035C22.3762 39.6035 22.7827 39.9862 22.7827 40.4577C22.7827 40.93 22.4117 41.3118 21.9333 41.3118H21.8978C21.4185 41.3118 21.0303 40.93 21.0303 40.4577C21.0303 39.9862 21.4185 39.6035 21.8978 39.6035ZM28 38.7494C28.9559 38.7494 29.7333 39.5155 29.7333 40.4577C29.7333 41.3998 28.9559 42.166 28 42.166C27.0441 42.166 26.2667 41.3998 26.2667 40.4577C26.2667 39.5155 27.0441 38.7494 28 38.7494ZM34.0311 39.6035C34.5095 39.6035 34.916 39.9862 34.916 40.4577C34.916 40.93 34.5451 41.3118 34.0667 41.3118H34.0311C33.5519 41.3118 33.1636 40.93 33.1636 40.4577C33.1636 39.9862 33.5519 39.6035 34.0311 39.6035ZM39.2303 39.6035C39.7095 39.6035 40.1151 39.9862 40.1151 40.4577C40.1151 40.93 39.7451 41.3118 39.2667 41.3118H39.2303C38.7519 41.3118 38.3645 40.93 38.3645 40.4577C38.3645 39.9862 38.7519 39.6035 39.2303 39.6035ZM11.5333 41.3118H11.4969C11.0185 41.3118 10.6303 40.93 10.6303 40.4577C10.6303 39.9862 11.0185 39.6035 11.4969 39.6035C11.9762 39.6035 12.3818 39.9862 12.3818 40.4577C12.3818 40.93 12.0117 41.3118 11.5333 41.3118Z" fill="#162B44"/>
</svg>
