<svg width="56" height="56" viewBox="0 0 56 56" fill="none" xmlns="http://www.w3.org/2000/svg">
<path d="M53.3868 42.7582L51.2709 43.4587C51.1409 43.8391 50.9849 44.2107 50.8065 44.5716L51.8043 46.5484C51.9765 46.8907 51.9092 47.304 51.6358 47.5742L49.537 49.6551C49.2662 49.9271 48.8493 49.9947 48.5023 49.8222L46.5066 48.832C46.1435 49.0107 45.7688 49.1636 45.385 49.2933L44.6794 51.392C44.5575 51.7547 44.215 52 43.8295 52H40.861C40.4746 52 40.1321 51.7547 40.0102 51.392L39.3046 49.2933C38.9209 49.1636 38.5461 49.0107 38.183 48.832L36.1873 49.8222C35.8412 49.9938 35.4252 49.9262 35.1527 49.6551L33.0548 47.5742C32.7813 47.304 32.7132 46.8907 32.8862 46.5484L33.8841 44.5716C33.7057 44.2107 33.5497 43.8391 33.4197 43.4587L31.3029 42.7582C30.9362 42.6382 30.6897 42.2987 30.6897 41.9156V38.9733C30.6897 38.5902 30.9362 38.2507 31.3029 38.1298L33.4197 37.4302C33.5497 37.0498 33.7057 36.6782 33.8841 36.3173L32.8862 34.3404C32.7132 33.9982 32.7813 33.5849 33.0548 33.3138L35.1527 31.2338C35.4252 30.9627 35.8421 30.896 36.1873 31.0667L38.183 32.056C38.5461 31.8782 38.9209 31.7244 39.3046 31.5956L40.0102 29.4969C40.1321 29.1333 40.4746 28.8889 40.861 28.8889H43.8295C44.215 28.8889 44.5575 29.1333 44.6794 29.4969L45.385 31.5956C45.7688 31.7244 46.1435 31.8782 46.5066 32.056L48.5023 31.0667C48.8484 30.8951 49.2653 30.9627 49.537 31.2338L51.6358 33.3138C51.9092 33.5849 51.9765 33.9982 51.8043 34.3404L50.8065 36.3173C50.9849 36.6782 51.1409 37.0498 51.2709 37.4302L53.3868 38.1298C53.7535 38.2507 54 38.5902 54 38.9733V41.9156C54 42.2987 53.7535 42.6382 53.3868 42.7582ZM52.2069 39.6133L50.2686 38.9733C49.987 38.88 49.771 38.6551 49.6894 38.3733C49.5289 37.8098 49.3021 37.2676 49.0161 36.76C48.8717 36.5031 48.8646 36.1929 48.9972 35.9298L49.9117 34.1182L48.7265 32.9431L46.8984 33.8498C46.6321 33.9804 46.3192 33.9742 46.0601 33.8311C45.5482 33.5467 45.0013 33.3218 44.4356 33.1636C44.1505 33.0836 43.9228 32.8684 43.8295 32.5893L43.1831 30.6667H41.5075L40.861 32.5893C40.7669 32.8684 40.5401 33.0836 40.255 33.1636C39.6883 33.3218 39.1423 33.5467 38.6304 33.8311C38.3713 33.9724 38.0575 33.9804 37.7921 33.8498L35.9641 32.9431L34.7788 34.1182L35.6933 35.9298C35.826 36.1929 35.8188 36.5031 35.6736 36.76C35.3885 37.2676 35.1617 37.8098 35.0003 38.3733C34.9196 38.6551 34.7035 38.88 34.4211 38.9733L32.4828 39.6133V41.2756L34.4211 41.9156C34.7035 42.0089 34.9196 42.2338 35.0003 42.5156C35.1617 43.0791 35.3885 43.6213 35.6736 44.128C35.8188 44.3849 35.826 44.696 35.6933 44.9591L34.7788 46.7707L35.9641 47.9449L37.7921 47.0391C38.0575 46.9067 38.3713 46.9129 38.6304 47.0578C39.1423 47.3422 39.6883 47.5671 40.255 47.7253C40.5401 47.8053 40.7669 48.0204 40.861 48.2996L41.5075 50.2222H43.1831L43.8295 48.2996C43.9228 48.0204 44.1505 47.8053 44.4356 47.7253C45.0013 47.5671 45.5482 47.3422 46.0601 47.0578C46.3192 46.9147 46.6321 46.9067 46.8984 47.0391L48.7265 47.9449L49.9117 46.7707L48.9972 44.9591C48.8646 44.696 48.8717 44.3849 49.0161 44.128C49.3021 43.6213 49.5289 43.0791 49.6894 42.5156C49.771 42.2338 49.987 42.0089 50.2686 41.9156L52.2069 41.2756V39.6133ZM42.3448 44C40.3679 44 38.7586 42.4053 38.7586 40.4444C38.7586 38.4836 40.3679 36.8889 42.3448 36.8889C44.3226 36.8889 45.931 38.4836 45.931 40.4444C45.931 42.4053 44.3226 44 42.3448 44ZM42.3448 38.6667C41.3559 38.6667 40.5517 39.464 40.5517 40.4444C40.5517 41.424 41.3559 42.2222 42.3448 42.2222C43.3337 42.2222 44.1379 41.424 44.1379 40.4444C44.1379 39.464 43.3337 38.6667 42.3448 38.6667ZM51.3103 27.1111C50.8154 27.1111 50.4138 26.7138 50.4138 26.2222V14.6667H3.7931V47.5556C3.7931 48.0462 4.19566 48.4444 4.68966 48.4444H28C28.4949 48.4444 28.8966 48.8418 28.8966 49.3333C28.8966 49.8249 28.4949 50.2222 28 50.2222H4.68966C3.20676 50.2222 2 49.0258 2 47.5556V6.66667C2 5.19644 3.20676 4 4.68966 4H49.5181C51.001 4 52.2069 5.19644 52.2069 6.66667V26.2222C52.2069 26.7138 51.8061 27.1111 51.3103 27.1111ZM50.4138 6.66667C50.4138 6.176 50.0121 5.77778 49.5181 5.77778H4.68966C4.19566 5.77778 3.7931 6.176 3.7931 6.66667V12.8889H50.4138V6.66667ZM7.37931 7.55556C8.36821 7.55556 9.17241 8.35378 9.17241 9.33333C9.17241 10.3138 8.36821 11.1111 7.37931 11.1111C6.39041 11.1111 5.58621 10.3138 5.58621 9.33333C5.58621 8.35378 6.39041 7.55556 7.37931 7.55556ZM12.7586 7.55556C13.7475 7.55556 14.5517 8.35378 14.5517 9.33333C14.5517 10.3138 13.7475 11.1111 12.7586 11.1111C11.7697 11.1111 10.9655 10.3138 10.9655 9.33333C10.9655 8.35378 11.7697 7.55556 12.7586 7.55556ZM18.1379 7.55556C19.1268 7.55556 19.931 8.35378 19.931 9.33333C19.931 10.3138 19.1268 11.1111 18.1379 11.1111C17.149 11.1111 16.3448 10.3138 16.3448 9.33333C16.3448 8.35378 17.149 7.55556 18.1379 7.55556Z" fill="#162B44"/>
</svg>
