<svg width="56" height="56" viewBox="0 0 56 56" fill="none" xmlns="http://www.w3.org/2000/svg">
<path d="M54 28C54 28.3707 53.779 28.7078 53.433 28.8676L40.727 34.7407L53.433 40.6139C53.779 40.7737 54 41.1107 54 41.4815C54 41.8522 53.779 42.1893 53.433 42.3491L28.433 53.9047C28.296 53.9682 28.148 54 28 54C27.852 54 27.704 53.9682 27.567 53.9047L2.567 42.3491C2.221 42.1893 2 41.8522 2 41.4815C2 41.1107 2.221 40.7737 2.567 40.6139L15.273 34.7407L2.567 28.8676C2.221 28.7078 2 28.3707 2 28C2 27.6293 2.221 27.2922 2.567 27.1324L15.273 21.2593L2.567 15.3861C2.221 15.2263 2 14.8893 2 14.5185C2 14.1478 2.221 13.8107 2.567 13.6509L27.567 2.09533C27.841 1.96822 28.159 1.96822 28.433 2.09533L53.433 13.6509C53.779 13.8107 54 14.1478 54 14.5185C54 14.8893 53.779 15.2263 53.433 15.3861L40.727 21.2593L53.433 27.1324C53.779 27.2922 54 27.6293 54 28ZM5.311 41.4815L28 51.9691L50.689 41.4815L38.417 35.8087L28.433 40.4232C28.159 40.5503 27.841 40.5503 27.567 40.4232L17.584 35.8087L5.311 41.4815ZM50.689 14.5185L28 4.03089L5.311 14.5185L28 25.0061L50.689 14.5185ZM38.417 22.3272L28.433 26.9417C28.159 27.0688 27.841 27.0688 27.567 26.9417L17.584 22.3272L5.311 28L28 38.4876L50.689 28L38.417 22.3272ZM27.29 30.6096C27.11 30.4267 27 30.1763 27 29.9259C27 29.6756 27.11 29.4252 27.29 29.2422C27.67 28.8859 28.34 28.8859 28.71 29.2422C28.89 29.4252 29 29.6756 29 29.9259C29 30.1763 28.89 30.4267 28.71 30.6096C28.52 30.783 28.26 30.8889 28 30.8889C27.74 30.8889 27.48 30.783 27.29 30.6096ZM31.9 30.6674C32.4 30.8889 32.61 31.4667 32.37 31.9481C32.2 32.2948 31.84 32.497 31.47 32.497C31.33 32.497 31.18 32.4681 31.04 32.4007C30.54 32.1696 30.33 31.5919 30.57 31.1104C30.81 30.6385 31.41 30.4363 31.9 30.6674ZM35.38 32.2659C35.87 32.497 36.09 33.0748 35.85 33.5563C35.67 33.8933 35.31 34.0956 34.94 34.0956C34.8 34.0956 34.65 34.0667 34.51 34.0089C34.01 33.7778 33.8 33.2 34.04 32.7185C34.28 32.237 34.88 32.0348 35.38 32.2659ZM24.96 32.4007C24.82 32.4681 24.67 32.497 24.53 32.497C24.16 32.497 23.8 32.2948 23.63 31.9481C23.39 31.4667 23.599 30.8889 24.1 30.6578C24.59 30.4363 25.19 30.6385 25.43 31.1104C25.67 31.5919 25.46 32.1696 24.96 32.4007ZM21.49 33.9993C21.35 34.0667 21.2 34.0956 21.06 34.0956C20.68 34.0956 20.33 33.8933 20.15 33.5563C19.92 33.0748 20.12 32.497 20.62 32.2659C21.12 32.0348 21.72 32.237 21.96 32.7185C22.2 33.2 21.99 33.7778 21.49 33.9993ZM27.29 17.1281C27.11 16.9452 27 16.6948 27 16.4444C27 16.1941 27.11 15.9437 27.29 15.7607C27.66 15.4044 28.34 15.4044 28.71 15.7607C28.89 15.9437 29 16.1941 29 16.4444C29 16.6948 28.89 16.9452 28.71 17.1281C28.52 17.3015 28.26 17.4074 28 17.4074C27.74 17.4074 27.48 17.3015 27.29 17.1281ZM31.9 17.1763C32.4 17.4074 32.61 17.9852 32.37 18.4667C32.2 18.8133 31.84 19.0156 31.47 19.0156C31.33 19.0156 31.18 18.977 31.04 18.9193C30.54 18.6881 30.33 18.1104 30.57 17.6289C30.81 17.157 31.41 16.9548 31.9 17.1763ZM35.38 18.7844C35.87 19.0156 36.09 19.5933 35.85 20.0748C35.67 20.4215 35.32 20.6141 34.94 20.6141C34.8 20.6141 34.65 20.5852 34.51 20.5178C34.01 20.2963 33.8 19.7185 34.04 19.237C34.28 18.7556 34.88 18.5533 35.38 18.7844ZM24.96 18.9193C24.82 18.977 24.67 19.0156 24.53 19.0156C24.16 19.0156 23.8 18.8133 23.63 18.4667C23.39 17.9852 23.599 17.4074 24.09 17.1859C24.59 16.9548 25.19 17.157 25.43 17.6289C25.67 18.1104 25.46 18.6881 24.96 18.9193ZM21.49 20.5178C21.35 20.5852 21.2 20.6141 21.05 20.6141C20.68 20.6141 20.33 20.4119 20.15 20.0748C19.92 19.5933 20.12 19.0156 20.62 18.7844C21.12 18.5533 21.72 18.7556 21.96 19.237C22.19 19.7185 21.99 20.2963 21.49 20.5178Z" fill="#162B44"/>
</svg>
