<svg width="129" height="143" viewBox="0 0 129 143" fill="none" xmlns="http://www.w3.org/2000/svg">
<mask id="mask0" mask-type="alpha" maskUnits="userSpaceOnUse" x="0" y="0" width="129" height="143">
<path d="M64.2824 0L0 23.6766L10.16 111.824L64.2824 143L118.844 111.404L129 23.2598L64.2824 0Z" fill="white"/>
</mask>
<g mask="url(#mask0)">
<path d="M64.2824 0L0 23.6766L10.16 111.824L64.2824 143L118.844 111.404L129 23.2598L64.2824 0Z" fill="#DD0031"/>
<path d="M135 0H64V151H135V0Z" fill="#C3002F"/>
<path fill-rule="evenodd" clip-rule="evenodd" d="M51 61H72.1262C75.233 61 77.822 60.0939 79.8932 58.2817C81.9644 56.4695 83 53.8579 83 50.4467C83 46.6091 82.068 43.9086 80.2039 42.3452C78.3398 40.7817 75.6473 40 72.1262 40H51V61ZM37 29H72.8156C79.4214 29 84.7197 30.5406 88.7107 33.6218C92.7017 36.7031 94.6971 41.3599 94.6971 47.5924C94.6971 51.374 93.7854 54.6127 91.9619 57.3088C90.1385 60.0049 87.5409 62.0882 84.1692 63.5588V63.7689C88.7107 64.7493 92.1511 66.9377 94.4907 70.334C96.8302 73.7304 98 77.9846 98 83.0966C98 86.0378 97.4839 88.7864 96.4518 91.3424C95.4196 93.8985 93.8026 96.1043 91.6007 97.9601C89.3988 99.8158 86.5776 101.286 83.1371 102.372C79.6965 103.457 75.6024 104 70.8545 104H37V29ZM51 93H73.6833C77.5836 93 80.6114 91.9858 82.7669 89.9574C84.9223 87.929 86 85.0583 86 81.3453C86 77.701 84.9223 74.8991 82.7669 72.9395C80.6114 70.9798 77.5836 70 73.6833 70H51V93Z" fill="white"/>
</g>
</svg>
