<svg width="340" height="248" viewBox="0 0 340 248" fill="none" xmlns="http://www.w3.org/2000/svg">
<path d="M305.647 8H34.3523C28.9357 8 24.525 11.8612 24.525 16.603V180.195H315.475V16.603C315.475 11.8612 311.064 8 305.647 8Z" fill="#DAE1EF"/>
<path d="M334.597 177.599H5.40015C3.46824 177.599 2 178.894 2 180.512V184.268C2 185.887 3.54552 187.117 5.40015 187.117H334.597C336.529 187.117 337.997 185.822 337.997 184.268V180.512C338.074 178.894 336.529 177.599 334.597 177.599Z" fill="#DAE1EF"/>
<path d="M305.613 11.4613H35.3257C32.0012 11.4613 29.2179 13.8328 29.2179 16.814V177.599H311.721V16.7463C311.721 13.8328 309.015 11.4613 305.613 11.4613Z" fill="#223D5D"/>
<path d="M301.491 23.4972H39.2147V171.836H301.491V23.4972Z" fill="#162B44"/>
<path d="M198.623 181.446H142.084C141.31 181.446 140.769 181.989 140.769 182.599C140.769 183.277 141.388 183.752 142.084 183.752H198.623C199.396 183.752 199.938 183.209 199.938 182.599C200.015 181.921 199.396 181.446 198.623 181.446Z" fill="#15365D"/>
<g opacity="0.25">
<path opacity="0.25" d="M98.461 31.6857H72.1637V35.746H98.461V31.6857Z" fill="#D98E9D"/>
<path opacity="0.25" d="M59.2472 31.6857H48.4189V35.746H59.2472V31.6857Z" fill="white"/>
<path opacity="0.25" d="M59.2472 39.1296H48.4189V43.1901H59.2472V39.1296Z" fill="white"/>
<path opacity="0.25" d="M59.2472 47.9271H48.4189V51.9875H59.2472V47.9271Z" fill="white"/>
<path opacity="0.25" d="M59.2472 56.7246H48.4189V60.785H59.2472V56.7246Z" fill="white"/>
<path opacity="0.25" d="M59.2472 65.5222H48.4189V69.5825H59.2472V65.5222Z" fill="white"/>
<path opacity="0.25" d="M59.2472 74.3196H48.4189V78.38H59.2472V74.3196Z" fill="white"/>
<path opacity="0.25" d="M192.048 31.6857H103.875V35.746H192.048V31.6857Z" fill="#E0E4ED"/>
<g opacity="0.25">
<path opacity="0.25" d="M107.742 39.1296H81.4452V43.1901H107.742V39.1296Z" fill="#D98E9D"/>
<path opacity="0.25" d="M201.33 39.1296H113.157V43.1901H201.33V39.1296Z" fill="#E0E4ED"/>
</g>
<g opacity="0.25">
<path opacity="0.25" d="M123.211 47.9271H96.9142V51.9875H123.211V47.9271Z" fill="#D98E9D"/>
<path opacity="0.25" d="M216.799 47.9271H128.626V51.9875H216.799V47.9271Z" fill="#E0E4ED"/>
</g>
<g opacity="0.25">
<path opacity="0.25" d="M138.68 56.7246H112.383V60.785H138.68V56.7246Z" fill="#D98E9D"/>
<path opacity="0.25" d="M232.268 56.7246H144.094V60.785H232.268V56.7246Z" fill="#E0E4ED"/>
</g>
<g opacity="0.25">
<path opacity="0.25" d="M123.211 65.5222H96.9142V69.5825H123.211V65.5222Z" fill="#D98E9D"/>
<path opacity="0.25" d="M263.206 65.5221H128.626V69.5825H263.206V65.5221Z" fill="#E0E4ED"/>
</g>
<g opacity="0.25">
<path opacity="0.25" d="M107.742 74.3196H81.4452V78.38H107.742V74.3196Z" fill="#D98E9D"/>
<path opacity="0.25" d="M170.392 74.3195H113.157V78.38H170.392V74.3195Z" fill="#E0E4ED"/>
</g>
</g>
<g opacity="0.25">
<path opacity="0.25" d="M98.461 85.824H72.1637V89.8844H98.461V85.824Z" fill="#D98E9D"/>
<path opacity="0.25" d="M59.2472 85.824H48.4189V89.8844H59.2472V85.824Z" fill="white"/>
<path opacity="0.25" d="M59.2472 93.2681H48.4189V97.3285H59.2472V93.2681Z" fill="white"/>
<path opacity="0.25" d="M59.2472 102.066H48.4189V106.126H59.2472V102.066Z" fill="white"/>
<path opacity="0.25" d="M59.2472 110.863H48.4189V114.923H59.2472V110.863Z" fill="white"/>
<path opacity="0.25" d="M59.2472 119.66H48.4189V123.721H59.2472V119.66Z" fill="white"/>
<path opacity="0.25" d="M59.2472 128.458H48.4189V132.518H59.2472V128.458Z" fill="white"/>
<path opacity="0.25" d="M192.048 85.824H103.875V89.8844H192.048V85.824Z" fill="#E0E4ED"/>
<g opacity="0.25">
<path opacity="0.25" d="M107.742 93.2681H81.4452V97.3285H107.742V93.2681Z" fill="#D98E9D"/>
<path opacity="0.25" d="M201.33 93.2681H113.157V97.3285H201.33V93.2681Z" fill="#E0E4ED"/>
</g>
<g opacity="0.25">
<path opacity="0.25" d="M123.211 102.066H96.9142V106.126H123.211V102.066Z" fill="#D98E9D"/>
<path opacity="0.25" d="M216.799 102.066H128.626V106.126H216.799V102.066Z" fill="#E0E4ED"/>
</g>
<path opacity="0.25" d="M98.461 139.962H72.1637V144.023H98.461V139.962Z" fill="#D98E9D"/>
<path opacity="0.25" d="M59.2472 139.962H48.4189V144.023H59.2472V139.962Z" fill="white"/>
<path opacity="0.25" d="M59.2472 147.406H48.4189V151.467H59.2472V147.406Z" fill="white"/>
<path opacity="0.25" d="M59.2472 156.204H48.4189V160.264H59.2472V156.204Z" fill="white"/>
<path opacity="0.25" d="M192.048 139.962H103.875V144.023H192.048V139.962Z" fill="#E0E4ED"/>
<g opacity="0.25">
<path opacity="0.25" d="M107.742 147.406H81.4452V151.467H107.742V147.406Z" fill="#D98E9D"/>
<path opacity="0.25" d="M201.33 147.406H113.157V151.467H201.33V147.406Z" fill="#E0E4ED"/>
</g>
<g opacity="0.25">
<path opacity="0.25" d="M123.211 156.204H96.9142V160.264H123.211V156.204Z" fill="#D98E9D"/>
<path opacity="0.25" d="M216.799 156.204H128.626V160.264H216.799V156.204Z" fill="#E0E4ED"/>
</g>
<g opacity="0.25">
<path opacity="0.25" d="M138.68 110.863H112.383V114.923H138.68V110.863Z" fill="#D98E9D"/>
<path opacity="0.25" d="M278.675 110.863H144.094V114.923H278.675V110.863Z" fill="#E0E4ED"/>
</g>
<g opacity="0.25">
<path opacity="0.25" d="M123.211 119.66H96.9142V123.721H123.211V119.66Z" fill="#D98E9D"/>
<path opacity="0.25" d="M216.799 119.66H128.626V123.721H216.799V119.66Z" fill="#E0E4ED"/>
</g>
<g opacity="0.25">
<path opacity="0.25" d="M107.742 128.458H81.4452V132.518H107.742V128.458Z" fill="#D98E9D"/>
<path opacity="0.25" d="M201.33 128.458H113.157V132.518H201.33V128.458Z" fill="#E0E4ED"/>
</g>
</g>
<path opacity="0.3" d="M85.1579 176.469H74.871V186.988H85.1579V176.469Z" fill="#E9EDF6"/>
<path opacity="0.3" d="M105.19 176.469H94.9033V186.988H105.19V176.469Z" fill="#E9EDF6"/>
<path opacity="0.3" d="M258.488 176.469H248.201V186.988H258.488V176.469Z" fill="#E9EDF6"/>
<path opacity="0.3" d="M276.277 176.469H265.99V186.988H276.277V176.469Z" fill="#E9EDF6"/>
<path d="M90.253 218.28L90.3301 223.417C90.3301 223.417 89.6365 226.698 89.097 230.194C88.5575 233.689 88.0951 237.398 88.7117 238.326C89.8677 240.038 92.1027 238.326 92.488 236.614C92.8733 234.902 93.4128 224.13 93.4128 224.13L93.7981 217.21L90.253 218.28Z" fill="#365272"/>
<path d="M84.5502 217.567L85.3979 222.204C85.3979 222.204 87.0934 234.83 86.1686 236.756C85.2438 238.682 82.2382 237.826 82.3923 235.187C82.5464 232.619 81.8528 223.416 81.8528 223.416L80.1573 217.852L84.5502 217.567Z" fill="#365272"/>
<path d="M86.8631 161.282L87.2484 166.989L71.3726 174.052C68.5211 175.478 67.1339 178.546 68.0587 181.471L79.0022 219.208L84.474 217.638L79.6188 182.897C79.3105 180.757 80.8519 178.76 83.1639 178.403L88.7898 177.619L94.801 171.983L87.865 177.761C86.1695 179.188 85.3217 181.257 85.63 183.325L90.0999 218.352L95.0322 219.493L97.2672 184.966C97.4213 182.755 99.0397 180.9 101.275 180.258L111.062 177.405C112.604 176.548 113.605 174.979 113.605 173.267L113.22 161.14L86.8631 161.282Z" fill="#15365D"/>
<path d="M114.298 173.98L111.678 126.827C111.678 126.827 100.811 126.256 97.6516 126.256C95.879 126.256 92.8734 127.041 90.5614 127.754C88.3264 128.397 86.4768 128.325 85.3979 130.251L67.5953 161.782L78.5389 162.709L82.161 158.857L80.3114 156.289L86.9392 141.808L85.6291 168.131L114.298 173.98Z" fill="#EAD18C"/>
<path opacity="0.5" d="M86.708 136.029L74.9166 155.718L78.6159 159.713C78.6159 159.713 80.0801 159.999 81.5444 159.57L82.161 158.857L80.3113 156.289L86.9391 141.808L86.708 136.029Z" fill="url(#paint0_linear)"/>
<path d="M100.811 134.531C104.356 134.531 107.285 131.821 107.285 128.539C107.285 127.897 107.131 127.255 106.977 126.613C103.663 126.47 99.4241 126.256 97.6515 126.256C96.8808 126.256 95.8019 126.399 94.723 126.684C94.4918 127.255 94.4147 127.897 94.4147 128.539C94.3376 131.821 97.2662 134.531 100.811 134.531Z" fill="white"/>
<path d="M112.988 134.959L114.298 174.266L96.8037 170.342L112.988 134.959Z" fill="url(#paint1_linear)"/>
<path d="M96.5726 121.405C96.8809 121.976 99.0388 129.681 99.0388 129.681C99.0388 129.681 99.8095 130.965 101.659 130.822C103.509 130.679 104.279 128.325 104.279 128.325L101.12 118.623L96.5726 121.405Z" fill="#EEBCC5"/>
<path d="M107.824 116.63C107.824 121.981 101.736 127.83 95.9561 127.83C90.176 127.83 87.0162 121.909 87.0162 116.63C87.0162 111.28 91.7173 107 97.4203 107C103.123 107 107.824 111.28 107.824 116.63Z" fill="#EEBCC5"/>
<path d="M108.713 119.105C109.754 113.194 105.421 107.622 99.0359 106.658C92.6504 105.695 86.6301 109.705 85.5892 115.616C84.5482 121.526 88.8808 127.099 95.2663 128.062C101.652 129.026 107.672 125.016 108.713 119.105Z" fill="#EEBCC5"/>
<path d="M88.8659 125.472C87.4786 125.472 85.9373 124.402 85.4749 123.046C85.1666 122.333 85.2437 121.62 85.629 121.192C85.9373 120.764 86.4768 120.55 87.1704 120.55C88.5576 120.55 90.0989 121.62 90.5613 122.975C90.8696 123.688 90.7925 124.402 90.4072 124.83C90.0219 125.258 89.4824 125.472 88.8659 125.472ZM87.0933 120.906C86.5538 120.906 86.1685 121.12 85.9373 121.406C85.629 121.762 85.629 122.333 85.8602 122.975C86.3226 124.188 87.7098 125.115 88.8659 125.115C89.4053 125.115 89.7907 124.901 90.0219 124.616C90.3301 124.259 90.3301 123.688 90.0989 123.046C89.6365 121.834 88.3264 120.906 87.0933 120.906Z" fill="#EFF2F7"/>
<path d="M95.7249 125.472C94.3376 125.472 92.7963 124.402 92.3339 123.046C92.0256 122.333 92.1027 121.62 92.488 121.192C92.7963 120.764 93.3358 120.55 94.0294 120.55C95.4166 120.55 96.9579 121.62 97.4203 122.975C97.7286 123.688 97.6515 124.402 97.2662 124.83C96.9579 125.258 96.4185 125.472 95.7249 125.472ZM94.0294 120.906C93.4899 120.906 93.1046 121.12 92.8734 121.406C92.5651 121.762 92.5651 122.333 92.7963 122.975C93.2587 124.188 94.6459 125.115 95.8019 125.115C96.3414 125.115 96.7267 124.901 96.9579 124.616C97.2662 124.259 97.2662 123.688 97.035 123.046C96.5726 121.834 95.1854 120.906 94.0294 120.906Z" fill="#EFF2F7"/>
<path d="M90.0988 123.618C90.2529 123.905 90.2529 124.263 90.0217 124.406C89.7905 124.549 89.4822 124.406 89.251 124.048C89.0198 123.69 89.0969 123.404 89.3281 123.26C89.5593 123.189 89.8676 123.332 90.0988 123.618Z" fill="#2D2B42"/>
<path d="M95.2624 123.904C95.4165 124.19 95.4165 124.548 95.1853 124.691C94.9541 124.834 94.6459 124.691 94.4147 124.333C94.2605 124.047 94.2605 123.689 94.4917 123.546C94.8 123.403 95.1083 123.546 95.2624 123.904Z" fill="#2D2B42"/>
<path d="M99.347 169.486C98.8846 169.344 95.0313 167.632 92.3339 167.632C89.6365 167.632 86.2456 170.271 86.2456 170.271C86.2456 170.271 85.7832 171.698 87.6328 171.412C89.4824 171.127 87.4016 172.482 87.4016 172.482C87.4016 172.482 87.4787 172.554 89.6365 172.839C91.7944 173.124 100.041 172.696 100.041 172.696L99.347 169.486Z" fill="#EEBCC5"/>
<path d="M111.678 126.827L113.142 157.858L99.3469 169.415L100.041 172.625L119.461 163.066C121.311 162.139 122.39 160.213 122.082 158.286L118.537 134.531C118.228 131.535 116.302 128.967 113.45 127.612L111.678 126.827Z" fill="#EAD18C"/>
<path d="M100.734 175.341H65.6686V172.982H100.734C101.428 172.982 102.044 173.482 102.044 174.197C102.044 174.769 101.505 175.341 100.734 175.341Z" fill="white"/>
<path d="M91.1008 175.336H57.2682C55.8039 175.336 54.4938 174.408 54.1085 173.053L48.0972 152.223C47.5577 150.297 49.0991 148.371 51.257 148.371H80.7738C82.238 148.371 83.5482 149.298 83.9335 150.653L91.1008 175.336Z" fill="white"/>
<path d="M51.3356 148.371C49.1777 148.371 47.5593 150.297 48.1759 152.223L54.1871 173.053C54.3412 173.695 54.8036 174.266 55.266 174.623L75.843 148.371H51.3356V148.371Z" fill="url(#paint2_linear)"/>
<path d="M64.9771 161.253L65.9782 165.037L68.9816 166.383L71.6209 165.037V161.253L68.1625 160.244L64.9771 161.253Z" fill="#DD0031"/>
<path d="M66.7063 164.873H67.4344L67.7984 164.032H69.5277L70.0737 164.957H70.8018L68.2535 160.92L66.7063 164.873ZM68.4355 162.182L69.1636 163.443H67.9805L68.4355 162.182Z" fill="white"/>
<path d="M96.9738 105.855C90.5904 105.855 85.3528 110.317 84.6162 116.064C86.744 117.577 89.6083 118.182 92.2272 117.803C95.337 117.274 98.2014 115.308 99.5108 112.661C99.4289 113.947 99.3471 115.232 99.5108 116.518C99.7563 117.803 100.329 119.013 101.393 119.845C101.475 118.938 101.557 118.03 102.048 117.274C102.539 116.518 103.603 115.988 104.503 116.291C105.158 116.518 105.567 117.123 105.649 117.803C105.73 118.408 105.567 119.089 105.321 119.694C104.912 120.602 104.339 121.509 103.603 122.265C105.076 122.492 106.631 122.643 108.104 122.492C108.922 120.98 109.331 119.316 109.331 117.501C109.413 110.997 103.848 105.855 96.9738 105.855Z" fill="#15365D"/>
<path d="M107.208 119.194C107.208 120.977 105.589 122.476 103.663 122.476C101.736 122.476 100.118 120.977 100.118 119.194C100.118 117.411 101.736 115.913 103.663 115.913C105.589 115.913 107.208 117.411 107.208 119.194Z" fill="#EEBCC5"/>
<path d="M84.5499 217.567L85.1665 221.062L81.4672 222.132L80.3883 218.708L84.5499 217.567Z" fill="#EEBCC5"/>
<path d="M90.2529 222.133L93.3356 222.632L93.5669 219.065L90.2529 218.28V222.133Z" fill="#EEBCC5"/>
<path d="M249.814 218.269L249.737 223.408C249.737 223.408 250.43 226.691 250.969 230.189C251.509 233.686 251.971 237.398 251.354 238.325C250.199 240.039 247.965 238.326 247.579 236.612C247.194 234.899 246.655 224.122 246.655 224.122L246.27 217.198L249.814 218.269Z" fill="#365272"/>
<path d="M255.515 217.555L254.667 222.195C254.667 222.195 252.972 234.828 253.897 236.755C254.821 238.682 257.826 237.826 257.672 235.185C257.518 232.615 258.211 223.408 258.211 223.408L259.906 217.841L255.515 217.555Z" fill="#365272"/>
<path d="M253.204 161.24L252.818 166.95L268.689 174.016C271.54 175.444 272.926 178.513 272.002 181.439L261.062 219.197L255.592 217.627L260.446 182.867C260.754 180.725 259.213 178.727 256.902 178.37L251.277 177.585L245.268 171.946L252.202 177.728C253.897 179.155 254.744 181.225 254.436 183.295L249.968 218.34L245.037 219.482L242.803 184.937C242.649 182.724 241.031 180.868 238.797 180.226L229.012 177.371C227.471 176.514 226.47 174.944 226.47 173.231L226.855 161.097L253.204 161.24Z" fill="#6A7F99"/>
<path d="M225.699 173.945L228.319 126.765C228.319 126.765 239.182 126.194 242.34 126.194C244.112 126.194 247.117 126.98 249.428 127.693C251.663 128.336 253.512 128.264 254.59 130.191L272.387 161.739L261.447 162.667L257.826 158.813L259.675 156.244L253.049 141.754L254.359 168.092L225.699 173.945Z" fill="#D98E9D"/>
<path opacity="0.5" d="M253.357 135.973L265.145 155.673L261.447 159.67C261.447 159.67 259.983 159.955 258.519 159.527L257.903 158.813L259.752 156.244L253.126 141.754L253.357 135.973Z" fill="url(#paint3_linear)"/>
<path d="M242.88 140.47C239.336 140.47 232.71 131.833 232.71 128.478C232.71 127.836 232.864 127.194 233.018 126.551C236.331 126.409 240.568 126.194 242.34 126.194C243.111 126.194 244.189 126.337 245.268 126.623C245.499 127.194 245.576 127.836 245.576 128.478C245.653 131.762 246.424 140.47 242.88 140.47Z" fill="white"/>
<path d="M227.086 134.902L225.699 174.23L243.265 170.305L227.086 134.902Z" fill="url(#paint4_linear)"/>
<path d="M243.496 121.341C243.188 121.912 241.031 129.621 241.031 129.621C241.031 129.621 240.26 130.905 238.411 130.763C236.562 130.62 235.792 128.264 235.792 128.264L238.951 118.557L243.496 121.341Z" fill="#EEBCC5"/>
<path d="M232.248 116.563C232.248 121.916 238.334 127.769 244.112 127.769C249.891 127.769 253.049 121.845 253.049 116.563C253.049 111.21 248.35 106.927 242.649 106.927C236.947 106.927 232.248 111.21 232.248 116.563Z" fill="#EEBCC5"/>
<path d="M244.77 128.075C251.153 127.111 255.484 121.536 254.444 115.622C253.403 109.708 247.385 105.695 241.001 106.659C234.618 107.623 230.287 113.199 231.327 119.113C232.368 125.027 238.386 129.039 244.77 128.075Z" fill="#EEBCC5"/>
<path d="M250.584 123.269C250.353 123.627 250.353 124.056 250.661 124.199C250.969 124.342 251.355 124.199 251.586 123.77C251.817 123.412 251.817 122.983 251.509 122.84C251.277 122.697 250.815 122.911 250.584 123.269Z" fill="#2D2B42"/>
<path d="M244.729 123.84C244.498 124.269 244.498 124.698 244.806 124.913C245.114 125.056 245.576 124.842 245.807 124.484C246.038 124.055 246.038 123.626 245.73 123.411C245.422 123.196 244.96 123.411 244.729 123.84Z" fill="#2D2B42"/>
<path d="M240.646 169.448C241.108 169.305 244.96 167.592 247.657 167.592C250.353 167.592 253.743 170.233 253.743 170.233C253.743 170.233 254.205 171.661 252.356 171.375C250.507 171.09 252.587 172.446 252.587 172.446C252.587 172.446 252.51 172.517 250.353 172.803C248.196 173.088 239.952 172.66 239.952 172.66L240.646 169.448Z" fill="#EEBCC5"/>
<path d="M228.319 126.766L226.855 157.814L240.646 169.377L239.952 172.589L220.538 163.024C218.689 162.096 217.61 160.169 217.918 158.242L221.462 134.474C221.77 131.476 223.696 128.907 226.547 127.551L228.319 126.766Z" fill="#D98E9D"/>
<path d="M239.259 175.306H274.313V172.945H239.259C238.565 172.945 237.949 173.446 237.949 174.161C237.949 174.734 238.565 175.306 239.259 175.306Z" fill="white"/>
<path d="M248.889 175.301H282.711C284.174 175.301 285.484 174.373 285.869 173.017L291.879 152.175C292.418 150.248 290.877 148.321 288.72 148.321H259.213C257.749 148.321 256.439 149.249 256.054 150.605L248.889 175.301Z" fill="white"/>
<path d="M288.72 148.321C290.877 148.321 292.495 150.248 291.879 152.175L285.869 173.017C285.715 173.659 285.253 174.23 284.791 174.587L264.22 148.321H288.72V148.321Z" fill="url(#paint5_linear)"/>
<path d="M242.761 105.782C249.142 105.782 254.378 110.246 255.115 115.996C252.988 117.51 250.124 118.115 247.506 117.737C244.397 117.207 241.534 115.24 240.225 112.592C240.307 113.878 240.389 115.164 240.225 116.45C239.979 117.737 239.407 118.947 238.343 119.78C238.261 118.872 238.18 117.964 237.689 117.207C237.198 116.45 236.134 115.921 235.234 116.223C234.58 116.45 234.171 117.056 234.089 117.737C234.007 118.342 234.171 119.023 234.416 119.628C234.825 120.536 235.398 121.444 236.134 122.201C234.662 122.428 233.107 122.579 231.635 122.428C230.817 120.915 230.408 119.25 230.408 117.434C230.326 110.927 235.889 105.782 242.761 105.782Z" fill="#15365D"/>
<path d="M232.787 119.128C232.787 120.913 234.405 122.412 236.331 122.412C238.257 122.412 239.875 120.913 239.875 119.128C239.875 117.344 238.257 115.845 236.331 115.845C234.405 115.845 232.787 117.344 232.787 119.128Z" fill="#EEBCC5"/>
<path d="M255.515 217.555L254.821 221.052L258.596 222.123L259.598 218.697L255.515 217.555Z" fill="#EEBCC5"/>
<path d="M249.814 222.123L246.732 222.623L246.501 219.054L249.814 218.269V222.123Z" fill="#EEBCC5"/>
<path d="M236.637 111.836C240.784 111.836 244.145 108.737 244.145 104.914C244.145 101.09 240.784 97.9912 236.637 97.9912C232.49 97.9912 229.129 101.09 229.129 104.914C229.129 108.737 232.49 111.836 236.637 111.836Z" fill="#15365D"/>
<path opacity="0.3" d="M161.033 176.469H150.746V186.988H161.033V176.469Z" fill="#DAE1EF"/>
<path opacity="0.3" d="M196.921 177.042H186.634V186.988H196.921V177.042Z" fill="#DAE1EF"/>
<path d="M165.383 107.569L161.207 112.284L159.119 116.285L157.186 121.357C157.186 121.357 153.783 124.286 154.015 124.286C154.17 124.358 153.783 127.858 154.17 128.359C154.557 128.859 158.346 133.074 158.346 133.074C158.346 133.074 162.058 135.288 163.527 135.574C164.997 135.86 172.421 138.861 172.421 138.861L176.983 134.86L175.282 132.788C175.282 132.788 179.999 130.145 180.618 129.787C181.159 129.43 183.48 127.358 183.48 127.358C183.48 127.358 183.402 125.501 183.016 124.358C182.706 123.143 180.386 117.356 180.386 117.356C180.386 117.356 177.37 113.356 176.983 112.641C176.597 111.927 174.895 109.641 174.895 109.641L165.383 107.569Z" fill="#37354C"/>
<path d="M183.789 163.29L154.711 163.504L154.479 136.142C154.479 134.499 155.871 133.213 157.65 133.213L180.464 133.07C182.242 133.07 183.634 134.356 183.634 135.999L183.789 163.29Z" fill="#15365D"/>
<path d="M163.45 133.141C163.45 133.141 165.615 135.499 165.615 140.428C165.615 145.358 165.77 154.36 165.77 154.36H172.266V140.143C172.266 140.143 171.725 135.285 175.901 131.57L168.786 131.712L163.45 133.141Z" fill="#37354C"/>
<path d="M168.786 138.857C166.853 138.857 165.229 137.428 165.229 135.642L165.151 125.711C165.151 125.497 165.383 125.283 165.615 125.283L171.725 125.211C171.957 125.211 172.189 125.426 172.189 125.64L172.266 135.57C172.266 137.356 170.719 138.857 168.786 138.857Z" fill="#EEBCC5"/>
<path d="M181.082 123.357C181.082 123.214 181.082 123.143 181.082 123C181.082 122 180.927 121.071 180.695 120.142V118.857C180.695 112.641 175.205 107.497 168.399 107.497C161.671 107.497 156.103 112.57 156.103 118.857V123.286H181.082V123.357Z" fill="#9B5342"/>
<path d="M179.767 120.21V119.139C179.767 113.352 174.663 108.708 168.477 108.708C162.213 108.708 157.186 113.423 157.186 119.139V123.425C157.186 123.711 157.186 123.997 157.263 124.282C158.037 129.498 162.831 133.499 168.631 133.499C174.973 133.499 180.154 128.712 180.154 122.854C180.154 121.925 179.999 121.068 179.767 120.21Z" fill="#EEBCC5"/>
<path d="M164.919 124.713C164.919 125.142 164.533 125.5 164.069 125.5C163.605 125.5 163.218 125.142 163.218 124.713C163.218 124.283 163.605 123.925 164.069 123.925C164.533 123.925 164.919 124.283 164.919 124.713Z" fill="#37354C"/>
<path d="M173.194 124.713C173.194 125.142 172.808 125.5 172.343 125.5C171.879 125.5 171.493 125.142 171.493 124.713C171.493 124.283 171.879 123.925 172.343 123.925C172.808 123.925 173.194 124.283 173.194 124.713Z" fill="#37354C"/>
<path d="M160.358 124.354C160.358 125.997 158.888 127.283 157.186 127.283C155.407 127.283 154.015 125.926 154.015 124.354C154.015 122.782 155.485 121.425 157.186 121.425C158.965 121.425 160.358 122.711 160.358 124.354Z" fill="#EEBCC5"/>
<path d="M182.939 124.354C182.939 125.997 181.47 127.283 179.768 127.283C177.989 127.283 176.597 125.926 176.597 124.354C176.597 122.782 178.066 121.425 179.768 121.425C181.547 121.425 182.939 122.711 182.939 124.354Z" fill="#EEBCC5"/>
<path d="M169.328 175.435L155.021 181.651L157.65 221.873H152.546L142.261 180.579C141.797 178.793 142.648 176.864 144.349 175.864L157.882 168.22L169.328 175.435Z" fill="#B9C2D7"/>
<path d="M157.109 122.425C156.026 122.496 155.175 123.354 155.175 124.354C155.175 125.354 156.026 126.211 157.109 126.283V122.425Z" fill="#D98E9D"/>
<path d="M179.536 122.425C180.618 122.496 181.469 123.354 181.469 124.354C181.469 125.354 180.618 126.211 179.536 126.283V122.425Z" fill="#D98E9D"/>
<path d="M172.344 141.357H165.77V173.792H172.344V141.357Z" fill="#37354C"/>
<path d="M176.365 120.21C176.674 121.139 177.138 122.139 178.066 122.425C178.84 122.639 179.613 122.211 180.309 121.854C180.696 121.639 181.083 121.353 181.083 120.925C181.16 120.568 180.928 120.282 180.773 119.925C180.077 118.781 179.381 117.567 178.453 116.638C177.602 115.781 176.055 114.352 175.205 115.852C174.663 116.853 176.055 119.21 176.365 120.21Z" fill="#37354C"/>
<path d="M177.602 113.495C175.127 111.78 172.034 110.78 168.631 110.78L168.786 108.922C165.461 108.922 162.213 111.78 159.738 113.495C161.903 115.781 165.074 117.924 168.709 117.924C172.189 117.924 175.437 115.781 177.602 113.495Z" fill="#37354C"/>
<path d="M138.548 157.86C138.084 157.289 138.007 156.574 138.162 155.86C139.786 149.787 151.541 135.57 152.005 134.999C152.778 134.07 156.799 133.284 156.799 133.284L157.263 143.072L146.669 154.574C145.972 155.36 145.818 156.36 146.282 157.289L154.634 173.006L150.226 174.149L138.548 157.86Z" fill="#15365D"/>
<path d="M176.674 168.22L190.208 175.864C191.909 176.864 192.76 178.722 192.296 180.579L181.933 221.801H176.829L179.458 181.579L165.151 175.364L176.674 168.22Z" fill="#B9C2D7"/>
<path d="M197.786 157.575C198.096 157.003 198.25 156.36 198.096 155.789C196.781 149.859 186.341 135.642 185.8 134.999C185.026 134.07 181.005 133.284 181.005 133.284L180.541 143.072L189.666 154.288C190.285 155.074 190.44 156.003 190.053 156.932L183.17 173.006L187.578 174.149L197.786 157.575Z" fill="#15365D"/>
<path d="M160.589 120.21C160.28 121.139 159.816 122.139 158.888 122.425C158.114 122.639 157.341 122.211 156.645 121.854C156.258 121.639 155.871 121.353 155.871 120.925C155.794 120.568 156.026 120.282 156.181 119.925C156.877 118.781 157.573 117.567 158.501 116.638C159.352 115.781 160.899 114.352 161.749 115.852C162.291 116.853 160.899 119.21 160.589 120.21Z" fill="#37354C"/>
<path d="M156.644 173.078C156.644 174.935 155.02 176.507 152.932 176.507C150.844 176.507 149.22 175.007 149.22 173.078C149.22 171.149 150.844 169.648 152.932 169.648C155.02 169.648 156.644 171.22 156.644 173.078Z" fill="#EEBCC5"/>
<path d="M178.685 110.708C177.138 107.065 168.708 105.779 168.631 105.779C168.554 105.779 160.047 107.065 158.578 110.708C157.031 114.423 152.546 124.711 152.7 127.569C152.855 130.355 158.423 133.213 158.423 133.213H163.527C163.527 133.213 155.948 128.498 155.175 126.354C154.402 124.282 157.263 121.996 158.036 121.425C161.207 116.424 164.3 113.352 166.311 111.637C167.626 110.494 169.714 110.494 171.029 111.637C173.039 113.352 176.133 116.424 179.303 121.425C180.077 121.996 182.861 124.282 182.165 126.354C181.391 128.426 174.586 133.141 174.586 133.141H178.917C178.917 133.141 184.407 130.355 184.639 127.497C184.717 124.783 180.154 114.423 178.685 110.708Z" fill="#15365D"/>
<path d="M188.815 173.721C188.97 171.863 187.423 170.22 185.335 170.149C183.325 170.006 181.546 171.435 181.469 173.363C181.314 175.221 182.861 176.864 184.949 176.936C186.959 177.007 188.738 175.578 188.815 173.721Z" fill="#EEBCC5"/>
<path d="M183.402 158.289V172.935C183.402 172.935 174.432 176.007 173.194 175.864C171.88 175.721 171.88 162.861 171.88 162.861L173.504 158.932L183.402 158.289Z" fill="#15365D"/>
<path d="M154.711 158.289V172.935C154.711 172.935 163.682 176.007 164.919 175.864C166.234 175.721 166.234 162.861 166.234 162.861L164.61 158.932L154.711 158.289Z" fill="#15365D"/>
<path d="M157.65 221.801L158.346 227.803C158.346 227.803 151.772 237.876 149.143 238.162C146.514 238.376 147.674 234.161 149.143 232.232C150.612 230.303 153.551 226.231 153.551 226.231L154.634 221.873H157.65V221.801Z" fill="#365272"/>
<path d="M177.834 221.801L177.138 227.803C177.138 227.803 183.712 237.876 186.341 238.162C188.97 238.376 187.81 234.161 186.341 232.232C184.872 230.303 181.933 226.231 181.933 226.231L180.85 221.873H177.834V221.801Z" fill="#365272"/>
<path d="M152.546 177.15H186.032C187.269 177.15 188.429 176.364 188.661 175.221L191.522 164.004C191.909 161.861 190.13 159.861 187.733 159.861L149.375 160.147C146.978 160.147 145.199 162.147 145.663 164.362L149.917 175.507C150.381 176.435 151.386 177.15 152.546 177.15Z" fill="white"/>
<path d="M173.039 159.933L149.375 160.076C146.978 160.076 145.199 162.076 145.663 164.291L149.917 175.436C150.303 176.436 151.309 177.079 152.469 177.079H158.501L173.039 159.933Z" fill="url(#paint6_linear)"/>
<path d="M168.213 166.922L164.699 167.919L165.42 171.741L168.573 173.07L171.547 171.741L171.907 167.919L168.213 166.922Z" fill="#DD0031"/>
<path d="M168.304 167.67L166.231 171.658H167.042L167.403 170.744H169.295L169.836 171.658H170.647L168.304 167.67ZM169.115 170.163H167.763L168.394 168.917L169.115 170.163Z" fill="white"/>
<path d="M272.018 161.095L268.547 162.108V165.907L271.196 167.258L274.211 165.907L275.215 162.108L272.018 161.095Z" fill="#DD0031"/>
<path d="M271.927 161.771L269.278 165.823H270.009L270.557 164.894H272.292L272.566 165.823H273.297L271.927 161.771ZM272.201 164.303H270.922L271.653 163.037L272.201 164.303Z" fill="white"/>
<defs>
<linearGradient id="paint0_linear" x1="74.9217" y1="147.922" x2="86.9326" y2="147.922" gradientUnits="userSpaceOnUse">
<stop stop-color="#EAD18C" stop-opacity="0"/>
<stop offset="1" stop-color="#524F63" stop-opacity="0.7"/>
</linearGradient>
<linearGradient id="paint1_linear" x1="78.7031" y1="167.418" x2="143.175" y2="139.868" gradientUnits="userSpaceOnUse">
<stop stop-color="#EAD18C" stop-opacity="0"/>
<stop offset="1" stop-color="#524F63" stop-opacity="0.7"/>
</linearGradient>
<linearGradient id="paint2_linear" x1="75.7369" y1="161.729" x2="17.2708" y2="160.237" gradientUnits="userSpaceOnUse">
<stop stop-color="#484EC2" stop-opacity="0"/>
<stop offset="1" stop-color="#444BCC" stop-opacity="0.5"/>
</linearGradient>
<linearGradient id="paint3_linear" x1="265.103" y1="147.872" x2="253.096" y2="147.872" gradientUnits="userSpaceOnUse">
<stop stop-color="#D37897" stop-opacity="0"/>
<stop offset="0.8988" stop-color="#BC547C"/>
</linearGradient>
<linearGradient id="paint4_linear" x1="261.323" y1="167.379" x2="196.854" y2="139.854" gradientUnits="userSpaceOnUse">
<stop stop-color="#D37897" stop-opacity="0"/>
<stop offset="0.8988" stop-color="#BC547C"/>
</linearGradient>
<linearGradient id="paint5_linear" x1="222.155" y1="160.526" x2="370.799" y2="153.46" gradientUnits="userSpaceOnUse">
<stop stop-color="#484EC2" stop-opacity="0"/>
<stop offset="1" stop-color="#464DC7" stop-opacity="0.247379"/>
<stop offset="1" stop-color="#444BCC" stop-opacity="0.5"/>
</linearGradient>
<linearGradient id="paint6_linear" x1="163.188" y1="168.421" x2="128.513" y2="169.308" gradientUnits="userSpaceOnUse">
<stop stop-color="#484EC2" stop-opacity="0"/>
<stop offset="1" stop-color="#444BCC" stop-opacity="0.5"/>
</linearGradient>
</defs>
</svg>
