<svg width="101" height="82" viewBox="0 0 101 82" fill="none" xmlns="http://www.w3.org/2000/svg">
<path fill-rule="evenodd" clip-rule="evenodd" d="M50.6442 3.81327L86.1763 16.2494L84.3699 31.619L97.6294 30.7554L93.2927 39.066L98.3119 47.0908L96.0312 47.2234C95.6762 47.2441 95.1664 47.2739 94.5471 47.3101C93.5398 47.3691 92.2428 47.4452 90.8511 47.5275V51.4225L89.8984 51.4969L89.7409 51.509C89.6809 51.5135 89.6043 51.5193 89.5115 51.5262C89.4433 51.5313 89.3665 51.537 89.2811 51.5433C88.8777 51.573 88.2842 51.6158 87.5223 51.6682C86.1654 51.7616 84.2744 51.8854 81.9722 52.0202L80.771 62.2404L50.6442 78.0363L20.5175 62.2404L19.3178 52.0329C16.9941 51.8953 15.1 51.7684 13.7463 51.6726C12.9871 51.6189 12.3978 51.5749 11.9979 51.5444C11.4775 51.5046 10.9575 51.4615 10.4373 51.4193V47.5273C9.04564 47.4451 7.74866 47.3689 6.74136 47.31C6.12204 47.2737 5.61225 47.244 5.2573 47.2233L2.97656 47.0907L7.99581 39.0659L3.6589 30.7554L16.9185 31.619L15.1121 16.2494L50.6442 3.81327ZM6.54959 45.2597C6.6509 45.2656 6.75579 45.2718 6.86402 45.2781C8.10299 45.3506 9.78021 45.4491 11.5331 45.553L12.5046 45.6106V49.5412C12.8696 49.5686 13.3356 49.6028 13.8945 49.6424C15.4048 49.7492 17.5936 49.8952 20.3052 50.0515L21.1718 50.1015L22.4464 60.9457L50.6442 75.7302L78.8421 60.9457L80.1182 50.0878L80.9853 50.0383C83.6727 49.8848 85.8617 49.742 87.3783 49.6377C87.9431 49.5989 88.4147 49.5653 88.7839 49.5386V45.6108L89.7554 45.5532C91.5083 45.4493 93.1855 45.3508 94.4244 45.2783C94.5327 45.2719 94.6376 45.2658 94.7389 45.2599L90.9214 39.1563L94.1215 33.0238L82.0312 33.8113L83.9336 17.6247L50.6442 5.97351L17.3548 17.6247L19.2572 33.8113L7.16688 33.0238L10.3671 39.1562L6.54959 45.2597Z" fill="white"/>
<path d="M19.5024 47.0589C16.2027 46.8399 4.76318 46.175 4.76318 46.175L9.18147 39.111L5.41288 31.8896C5.41288 31.8896 20.0445 32.8427 20.1343 32.8484C20.5268 32.8709 20.8306 33.1937 20.8213 33.5837L20.4928 46.3733C20.4886 46.5677 20.4037 46.7504 20.2534 46.8854C20.1155 47.0081 19.9396 47.075 19.7564 47.075C19.7558 47.0748 19.6675 47.0699 19.5024 47.0589Z" fill="#2F3C42"/>
<path d="M81.786 47.059C85.0858 46.8401 96.5253 46.1752 96.5253 46.1752L92.107 39.1112L95.8755 31.8896C95.8755 31.8896 81.244 32.8427 81.1541 32.8484C80.7618 32.8709 80.458 33.1937 80.4671 33.5837L80.7958 46.3733C80.7998 46.5677 80.8848 46.7504 81.0351 46.8854C81.173 47.0081 81.3489 47.075 81.5321 47.075C81.5321 47.075 81.6211 47.07 81.786 47.059Z" fill="#2F3C42"/>
<path d="M11.4709 37.4889L22.3677 33.4171L21.7771 38.4789L11.4709 37.4889Z" fill="#1E2427"/>
<path d="M89.8175 37.4889L78.9208 33.4171L79.5114 38.4789L89.8175 37.4889Z" fill="#1E2427"/>
<path d="M50.6442 4.89342L16.2334 16.9371L21.4819 61.5931L50.6442 76.8833L79.8065 61.5931L85.055 16.9371L50.6442 4.89342Z" fill="#DD0031"/>
<path d="M50.6442 76.8833L79.8065 61.593L85.0549 16.937L50.6442 4.89336V76.8833Z" fill="#C3002F"/>
<path fill-rule="evenodd" clip-rule="evenodd" d="M21.3595 20.0806L25.8907 58.6337L50.6442 71.6123L75.3976 58.6337L79.9288 20.0806L50.6442 9.83109L21.3595 20.0806ZM50.6442 4.89342L16.2334 16.9371L21.4819 61.5931L50.6442 76.8833L79.8065 61.5931L85.055 16.9371L50.6442 4.89342Z" fill="#192838"/>
<path fill-rule="evenodd" clip-rule="evenodd" d="M32.005 56.6361L50.6442 16.1418L69.2834 56.6361H62.3217L58.5682 47.5597H42.7201L38.9666 56.6361H32.005ZM56.0659 41.9647L50.6442 29.3263L45.2225 41.9647H56.0659Z" fill="white"/>
<path d="M50.6442 47.5597H58.5682L62.3217 56.6361H69.2833L50.6442 16.1418V29.3263L56.0659 41.9647H50.6442V47.5597Z" fill="#B4B4B3"/>
<path d="M65.1105 26.2634C65.7006 26.3359 66.2318 26.1938 66.711 25.8346C67.188 25.4731 67.4701 24.9983 67.5508 24.4059C67.6964 23.3352 67.842 22.2648 67.9877 21.1942C67.613 21.1409 67.2381 21.0894 66.863 21.0398C66.7274 22.1105 66.5917 23.1814 66.456 24.2522C66.382 24.8277 65.8182 25.2527 65.2342 25.1811C64.6446 25.1086 64.2008 24.5635 64.2625 23.983C64.3786 22.9097 64.4946 21.8365 64.6107 20.7633C64.235 20.7208 63.8592 20.6802 63.4832 20.6412C63.3769 21.7166 63.2706 22.792 63.1642 23.8674C63.1055 24.4625 63.2694 24.9921 63.6488 25.4587C64.0286 25.9233 64.5137 26.1901 65.1105 26.2634ZM68.9303 26.7481C69.0904 26.4987 69.2513 26.2498 69.4129 26.001C70.0229 26.099 70.6323 26.202 71.2412 26.31C71.316 26.5986 71.3901 26.8873 71.4633 27.1761C71.8477 27.2454 72.2317 27.3168 72.6156 27.3903C72.1384 25.4456 71.6229 23.5027 71.069 21.5626C69.9356 23.2175 68.8381 24.8879 67.7769 26.5725C68.1616 26.6291 68.5461 26.6876 68.9303 26.7481ZM70.6629 24.0971C70.7678 24.4976 70.8711 24.8981 70.9728 25.2988C70.6436 25.2417 70.3142 25.186 69.9846 25.1318C70.2093 24.7864 70.4353 24.4413 70.6629 24.0971Z" fill="#B4B4B3"/>
<path d="M32.2896 27.1798C31.9622 25.3214 31.6349 23.4629 31.3077 21.6046C30.9114 21.676 30.5154 21.7493 30.1195 21.8245C30.4639 23.6797 30.8084 25.535 31.1528 27.3903C31.5315 27.3182 31.9104 27.248 32.2896 27.1798ZM33.569 26.9633C33.9485 26.8989 34.3285 26.8365 34.7086 26.7758C34.547 25.7406 34.3855 24.7052 34.224 23.67C35.5601 24.5546 36.8685 25.4604 38.1487 26.3863C37.9038 24.4713 37.659 22.5562 37.4141 20.6412C37.0144 20.6935 36.6149 20.7476 36.2154 20.8038C36.358 21.8419 36.5004 22.88 36.6429 23.9181C35.3311 23.0087 33.9912 22.12 32.6241 21.2532C32.939 23.1566 33.2541 25.06 33.569 26.9633Z" fill="white"/>
<path d="M50.6444 51.5745C30.6323 51.5745 15.5325 50.2102 11.6455 49.9138V37.5139C15.824 37.8421 30.8019 39.1502 50.6444 39.1502C69.5339 39.1502 85.3534 37.8354 89.6433 37.5139V49.9138C85.6356 50.2051 69.675 51.5745 50.6444 51.5745Z" fill="white"/>
<path d="M88.2802 39.1298V49.0716C83.4878 49.4127 67.1393 50.4727 50.7787 50.4727C33.6024 50.4727 17.6589 49.4225 13.0083 49.0768V39.1359C17.9799 39.5152 33.7865 40.5744 50.7787 40.5744C66.9851 40.5744 83.1775 39.5031 88.2802 39.1298ZM89.8175 37.4889C89.8175 37.4889 70.4682 39.0546 50.7787 39.0546C30.0127 39.0546 11.4709 37.4889 11.4709 37.4889V50.4823C11.4709 50.4823 30.0127 51.9924 50.7787 51.9924C70.4682 51.9924 89.8175 50.4823 89.8175 50.4823V37.4889Z" fill="#263238"/>
<path fill-rule="evenodd" clip-rule="evenodd" d="M19.101 45.449C20.1737 45.5127 21.2465 45.5731 22.3195 45.6303C22.3408 45.2685 22.3621 44.9067 22.3834 44.5449C21.3129 44.4879 20.2423 44.4275 19.172 44.364C19.1484 44.7257 19.1247 45.0874 19.101 45.449ZM33.3896 45.4256C32.1143 44.1989 30.8488 42.9676 29.593 41.7319C29.4998 43.8401 29.4065 45.9484 29.3133 48.0566C29.7555 48.0743 30.1977 48.0915 30.64 48.1081C30.6875 46.963 30.735 45.818 30.7826 44.6729C32.0507 45.9071 33.3287 47.1369 34.6165 48.362C34.6869 46.2518 34.7573 44.1414 34.8277 42.0311C34.3896 42.0178 33.9517 42.0041 33.5137 41.9898C33.4722 43.135 33.4309 44.2804 33.3896 45.4256ZM39.0672 44.8741C39.0576 45.2696 39.0479 45.6652 39.0383 46.0608C39.6634 46.0745 40.2887 46.0873 40.9138 46.0989C40.6144 46.6764 39.9418 47.1641 39.0855 47.1453C38.5297 47.1331 38.0631 46.9375 37.6867 46.5594C37.3049 46.1811 37.122 45.7318 37.1368 45.2122C37.1515 44.6925 37.3594 44.2536 37.759 43.8946C38.1561 43.5329 38.6282 43.3584 39.1769 43.3704C39.7148 43.3822 40.178 43.5773 40.5679 43.9563C40.8868 43.6665 41.2052 43.3766 41.5229 43.0864C40.9986 42.5802 40.2054 42.1443 39.1991 42.1222C39.1978 42.1184 39.1967 42.1144 39.1954 42.1106C38.2815 42.0905 37.4961 42.3796 36.8352 42.9795C36.169 43.5818 35.8205 44.3135 35.7937 45.1761C35.7665 46.0464 36.0693 46.7956 36.7058 47.4221C37.3338 48.0509 38.1141 48.3765 39.0427 48.3969C39.9632 48.4172 40.7597 48.1263 41.4285 47.5259C42.0914 46.9304 42.5087 46.0965 42.4348 44.938C41.3124 44.9202 40.1897 44.8989 39.0672 44.8741ZM50.7615 42.289C49.254 42.2886 47.7465 42.2819 46.2391 42.2687C46.2351 42.6797 46.2312 43.0907 46.2272 43.5017C46.7639 43.5064 47.3005 43.5103 47.8372 43.5134C47.8267 45.1664 47.8162 46.8193 47.8058 48.4723C48.2496 48.4749 48.6935 48.4768 49.1374 48.4783C49.1433 46.8253 49.1493 45.1723 49.1552 43.5193C49.6906 43.521 50.2259 43.522 50.7611 43.5221C50.7613 43.1109 50.7614 42.7 50.7615 42.289ZM50.5667 48.4809C51.0447 48.4811 51.5228 48.4809 52.0008 48.4799C52.1489 48.1659 52.2968 47.8518 52.4444 47.5377C53.1969 47.5355 53.9492 47.5318 54.7017 47.5266C54.8526 47.8393 55.004 48.1517 55.1556 48.4643C55.6349 48.4605 56.1144 48.4561 56.5937 48.451C55.5639 46.3555 54.5473 44.257 53.5435 42.1557C52.5641 44.2669 51.572 46.3753 50.5667 48.4809ZM54.1707 46.4313C53.7681 46.4338 53.3656 46.4358 52.9631 46.4374C53.1639 46 53.3641 45.5624 53.5638 45.1248C53.7655 45.5605 53.9678 45.996 54.1707 46.4313ZM58.9772 47.1834C58.9498 45.5318 58.9225 43.8803 58.895 42.2289C58.4582 42.2354 58.0212 42.2414 57.5844 42.247C57.6131 44.3108 57.6418 46.3746 57.6703 48.4385C58.9976 48.4218 60.325 48.4003 61.6522 48.3737C61.6431 47.9616 61.634 47.5493 61.6249 47.1371C60.7425 47.1547 59.8599 47.1701 58.9772 47.1834ZM67.0679 42.0433C66.5638 42.0586 66.0597 42.0733 65.5556 42.0872C65.0267 43.0151 64.4946 43.9421 63.9593 44.8684C63.9347 43.9558 63.9101 43.0432 63.8855 42.1305C63.4501 42.1411 63.0146 42.1513 62.5793 42.1608C62.6292 44.2242 62.6793 46.2877 62.7293 48.3512C63.1704 48.3415 63.6113 48.3313 64.0524 48.3205C64.029 47.4553 64.0058 46.5899 63.9824 45.7247C64.6441 46.5744 65.3091 47.4228 65.9775 48.2701C66.5154 48.2551 67.0532 48.2391 67.5911 48.2225C66.8002 47.2312 66.0138 46.238 65.2321 45.2432C65.8482 44.1775 66.4602 43.1108 67.0679 42.0433ZM70.5077 44.5981C70.0473 44.4874 69.2946 44.3651 69.2735 43.8075C69.2606 43.4641 69.5509 43.1685 69.9154 43.1554C70.2739 43.1427 70.5869 43.4168 70.6007 43.7564C71.0324 43.6534 71.4637 43.5499 71.895 43.4458C71.7197 42.5335 70.8594 41.8607 69.8579 41.8964C68.7599 41.9356 67.8979 42.8044 67.9339 43.8482C67.9632 44.6909 68.6913 45.2881 69.502 45.5173C69.9617 45.6501 70.7696 45.6994 70.7929 46.2641C70.8071 46.6075 70.4154 46.9077 70.0497 46.9207C70.0518 46.9225 70.0539 46.9243 70.0559 46.9261C69.6844 46.9394 69.2743 46.6715 69.2614 46.3261C68.8272 46.4286 68.3928 46.5307 67.9581 46.6322C68.1394 47.549 69.0878 48.2218 70.1095 48.1852C71.2217 48.1457 72.1839 47.2631 72.1374 46.2199C72.0994 45.3589 71.3434 44.7931 70.5077 44.5981ZM82.1174 44.3935C81.0471 44.456 79.9765 44.5153 78.9058 44.5713C78.9267 44.9331 78.9477 45.295 78.9686 45.6567C80.0416 45.6005 81.1146 45.5411 82.1874 45.4785C82.1641 45.1167 82.1408 44.7551 82.1174 44.3935Z" fill="#263238"/>
</svg>
