<svg width="56" height="56" viewBox="0 0 56 56" fill="none" xmlns="http://www.w3.org/2000/svg">
<path d="M28 4C14.7665 4 4 14.7665 4 28C4 41.2326 14.7665 52 28 52C41.2326 52 52 41.2326 52 28C52 14.7665 41.2345 4 28 4ZM38.7065 22.507C38.7172 22.7449 38.723 22.9846 38.723 23.2244C38.723 30.5241 33.1681 38.9385 23.0049 38.9385C19.8853 38.9385 16.9812 38.0269 14.5373 36.4589C14.9695 36.5101 15.4093 36.5362 15.855 36.5362C18.4439 36.5362 20.8249 35.6526 22.7159 34.1716C20.299 34.1271 18.2583 32.5301 17.5555 30.3346C17.8919 30.3985 18.2389 30.4342 18.5937 30.4342C19.0974 30.4342 19.5866 30.3685 20.0496 30.2418C17.5226 29.7353 15.6191 27.5031 15.6191 24.8253C15.6191 24.8021 15.6191 24.7779 15.6201 24.7557C16.3645 25.1685 17.2161 25.4179 18.121 25.4459C16.64 24.4569 15.6645 22.7652 15.6645 20.8491C15.6645 19.836 15.9362 18.8867 16.4118 18.0707C19.1351 21.4137 23.207 23.612 27.797 23.844C27.7022 23.439 27.6549 23.0184 27.6549 22.5844C27.6549 19.5344 30.1278 17.0605 33.1778 17.0605C34.7671 17.0605 36.2008 17.7314 37.21 18.8045C38.4697 18.557 39.6491 18.0988 40.7192 17.4636C40.3036 18.7542 39.4306 19.836 38.287 20.5204C39.4055 20.387 40.4727 20.0912 41.4598 19.6513C40.7231 20.7573 39.7864 21.7308 38.7065 22.507Z" fill="#DAE1EF"/>
</svg>
