<svg width="56" height="56" viewBox="0 0 56 56" fill="none" xmlns="http://www.w3.org/2000/svg">
<path fill-rule="evenodd" clip-rule="evenodd" d="M4 28C4 14.7665 14.7665 4 28 4C41.2345 4 52 14.7665 52 28C52 41.2326 41.2326 52 28 52C14.7665 52 4 41.2326 4 28ZM41.8919 33.8719C42.2747 32.9593 42.5725 32.0071 42.7697 31.0384C42.9727 30.0437 43.0752 29.0238 43.0752 27.999C43.0752 26.9772 42.9746 25.9554 42.7706 24.9645C42.5734 23.9958 42.2747 23.0417 41.8919 22.13C41.5139 21.2377 41.046 20.3764 40.5017 19.5711C39.9642 18.7726 39.3446 18.0224 38.664 17.3409C37.9824 16.6593 37.2294 16.0406 36.4328 15.5002C35.6265 14.954 34.7671 14.489 33.8719 14.11C32.9593 13.7263 32.0071 13.4285 31.0384 13.2323C30.0446 13.0283 29.0238 12.9248 28.001 12.9248C26.9791 12.9248 25.9583 13.0283 24.9645 13.2323C23.9968 13.4285 23.0416 13.7272 22.131 14.11C21.2387 14.489 20.3764 14.9559 19.5701 15.5002C18.7706 16.0396 18.0214 16.6583 17.3399 17.3409C16.6583 18.0214 16.0406 18.7735 15.5002 19.5711C14.9569 20.3754 14.49 21.2358 14.112 22.13C13.7263 23.0426 13.4295 23.9958 13.2313 24.9645C13.0283 25.9563 12.9258 26.9772 12.9258 27.999C12.9258 29.0238 13.0283 30.0475 13.2313 31.0384C13.4295 32.0071 13.7272 32.9622 14.111 33.8719C14.489 34.7623 14.9569 35.6265 15.5012 36.4328C16.0396 37.2332 16.6583 37.9815 17.3409 38.664C18.0214 39.3446 18.7726 39.9604 19.5701 40.5017C20.3764 41.047 21.2377 41.5129 22.132 41.8919C23.0426 42.2757 23.9968 42.5725 24.9654 42.7716C25.9592 42.9756 26.9791 43.0761 28.0019 43.0761C29.0238 43.0761 30.0466 42.9756 31.0384 42.7716C32.0071 42.5725 32.9622 42.2757 33.8719 41.8919C34.7632 41.5139 35.6265 41.046 36.4328 40.5017C37.2332 39.9633 37.9824 39.3446 38.664 38.664C39.3426 37.9815 39.9623 37.2294 40.5017 36.4328C41.046 35.6265 41.512 34.7652 41.8919 33.8719ZM36.5037 18.3378C34.2348 16.3405 31.2612 15.1263 28.0004 15.1263C26.9544 15.1263 25.9393 15.2539 24.9658 15.4888C25.1592 15.744 27.577 18.9565 29.7792 23.0013C34.6379 21.178 36.4728 18.388 36.5037 18.3378ZM27.2868 23.7735C25.0751 19.8423 22.712 16.634 22.5105 16.3605L22.5063 16.3548C18.9159 18.0514 16.2371 21.3586 15.3999 25.3464C15.7392 25.3522 21.1046 25.416 27.2868 23.7735ZM20.0902 38.1444C20.1469 38.0243 22.643 32.7379 30.1917 30.1078C30.2187 30.0972 30.2468 30.0885 30.2748 30.0807C32.0855 34.7868 32.8357 38.7291 33.0261 39.8544C31.4813 40.5117 29.7837 40.8772 27.9991 40.8772C25.0148 40.8772 22.2722 39.8515 20.0894 38.1461L20.0902 38.1444ZM28.8912 28.1005C29.0594 28.0454 29.2296 27.9942 29.3968 27.9468C29.0759 27.2131 28.723 26.4803 28.3527 25.7572C21.8096 27.7165 15.5245 27.5993 15.1473 27.5922L15.1356 27.592L15.1334 27.6523C15.1292 27.7671 15.125 27.8812 15.125 27.998C15.125 31.3062 16.373 34.3214 18.4225 36.6029L18.4177 36.5952C18.4177 36.5952 18.4181 36.5945 18.419 36.593L18.4235 36.5853C18.5853 36.3088 22.1049 30.2937 28.8912 28.1005ZM32.689 29.4828C34.3788 34.1231 35.0642 37.902 35.1947 38.6802C38.0872 36.7265 40.1395 33.632 40.7138 30.0444C40.447 29.9565 36.8449 28.8196 32.689 29.4828ZM31.6251 26.7843C31.3554 26.154 31.0692 25.5305 30.7676 24.9166C35.8545 22.842 37.9204 19.8568 37.9426 19.8229C39.7466 22.0145 40.8409 24.8161 40.868 27.8719C40.6843 27.8323 36.3263 26.8945 31.9025 27.4494C31.8728 27.3781 31.8434 27.3067 31.814 27.235C31.7523 27.0852 31.6905 26.9348 31.6251 26.7843Z" fill="#DAE1EF"/>
</svg>
