<svg width="56" height="56" viewBox="0 0 56 56" fill="none" xmlns="http://www.w3.org/2000/svg">
<path d="M27.997 4C14.746 4 4 15.0173 4 28.6083C4 39.4786 10.876 48.7005 20.416 51.9573C21.616 52.184 22.054 51.4242 22.054 50.7716C22.054 50.1865 22.033 48.6393 22.021 46.5865C15.346 48.0725 13.936 43.2868 13.936 43.2868C12.847 40.4436 11.272 39.6869 11.272 39.6869C9.091 38.1611 11.434 38.1918 11.434 38.1918C13.843 38.3664 15.109 40.7286 15.109 40.7286C17.251 44.4878 20.728 43.4033 22.096 42.7721C22.312 41.182 22.933 40.0974 23.62 39.4816C18.292 38.8597 12.688 36.7487 12.688 27.3215C12.688 24.6345 13.624 22.4378 15.16 20.716C14.911 20.094 14.089 17.5909 15.394 14.2054C15.394 14.2054 17.41 13.5437 21.994 16.7269C23.908 16.1816 25.96 15.9089 28.003 15.8997C30.04 15.912 32.095 16.1816 34.012 16.73C38.593 13.5467 40.606 14.2085 40.606 14.2085C41.914 17.597 41.092 20.0971 40.846 20.719C42.385 22.4409 43.312 24.6376 43.312 27.3245C43.312 36.7763 37.702 38.8566 32.356 39.4663C33.217 40.2261 33.985 41.7274 33.985 44.0221C33.985 47.3126 33.955 49.9659 33.955 50.7716C33.955 51.4304 34.387 52.1963 35.605 51.9543C45.13 48.6944 52 39.4755 52 28.6083C52 15.0173 41.254 4 27.997 4Z" fill="#DAE1EF"/>
</svg>
