<svg width="56" height="56" viewBox="0 0 56 56" fill="none" xmlns="http://www.w3.org/2000/svg">
<path fill-rule="evenodd" clip-rule="evenodd" d="M4 28C4 14.7665 14.7665 4 28 4C41.2345 4 52 14.7665 52 28C52 41.2326 41.2326 52 28 52C14.7665 52 4 41.2326 4 28ZM39.535 20.0622H32.2468V22.2383H39.535V20.0622ZM22.9488 36.689C22.9488 36.689 28.5617 36.8649 28.5617 31.4735C28.5617 31.4735 28.8063 27.0874 25.2535 27.0884C25.2535 27.0884 27.9488 26.8873 27.9488 23.7271C27.9488 20.5659 25.7437 19.022 22.9488 19.022H17.8078H17.657H13.7572V36.689H17.657H17.8078H22.9488ZM33.0415 31.1834H42.1974C42.1973 31.1834 42.1976 31.1814 42.198 31.1775C42.2258 30.9373 43.0842 23.5153 36.0499 23.5153C29.2558 23.5153 29.2625 30.3037 29.2625 30.3037C29.2625 30.3037 28.7966 37.0563 36.0499 37.0563C36.0499 37.0563 42.0959 37.4034 42.0959 32.359H38.984C38.984 32.359 39.0864 34.2596 36.1515 34.2596C36.1515 34.2596 33.0415 34.4664 33.0415 31.1834ZM22.9487 22.1606C22.9487 22.1606 24.1986 22.1606 24.1986 23.9974C24.1986 25.8371 23.4639 26.103 22.6296 26.103H17.8047V22.1606H17.8066H22.2864H22.9487ZM33.0078 28.8234C33.0078 28.8234 33.3887 26.103 36.1158 26.103C38.8459 26.103 38.8101 28.8253 38.8101 28.8234H33.0078ZM22.9487 28.8257H17.8076V33.5491H22.3619C22.3848 33.5491 22.411 33.5495 22.4401 33.5498H22.4402C22.509 33.5507 22.5938 33.5518 22.6896 33.5491C23.4214 33.5308 24.8125 33.3219 24.8125 31.2541C24.8125 28.8025 22.9487 28.8257 22.9487 28.8257Z" fill="#DAE1EF"/>
</svg>
