<svg xmlns="http://www.w3.org/2000/svg" viewBox="0 0 444.32 252.55"><defs><style>.cls-1{isolation:isolate;}.cls-2{fill:#cd181e;}.cls-3{fill:#fff;}.cls-4{fill:#ffefd1;}.cls-5{fill:#fdbd10;}.cls-6{fill:#e2b88d;}.cls-7{fill:#adcede;mix-blend-mode:multiply;}.cls-8{fill:#782c1c;}</style></defs><title>02-svg-valor-software-logo-white-text</title><g class="cls-1"><g id="Capa_2" data-name="Capa 2"><path class="cls-2" d="M283,160.06c.15-.82.43-2.48-1.53-2.45-11.62-.68-25.64,1.41-31.08-1.65-1.86-.75-3.48-3.16-9.44-2.89l5.95-.26.34-2.48c-7.82-.5-17.67-.82-25.55-1.17l.3-2.48-4,.25c-3.34-5.56,25.18-10.38,25.18-10.38l.22-1.65c9.67-.43,18-.73,27.2-1a3.18,3.18,0,0,0-2.85-1.57c8-.23,17.92.42,26.22-1.29,2.15-.84.59-3.32-5.3-4.07l-16.12.3.25-1.65c4-.11,10,.6,14.13-.28,2.16-.86-3.62-2.42-1.47-3.28,2,0-8.08.14-14-.52-1.9-.78-3.8-1.54-3.56-3.2-9.18,1-16.35-.59-21.77-3.69,3.4-9.36,9.41-20.05,22.26-24.84,4.81-1,10.5,3.58,12.59,1.82,3.3-2.8-3.88-7.16-.59-10-32.3-6.31-65.44-3.66-98.93-4.25-6.22,2.38-28.64,3.92-52,5.22s-47.56,2.26-57.36,1.68l-1.83.23C59.52,84.5,46.18,86.15,36.51,91,32,94,27.38,97.46,22.83,100.86a55.39,55.39,0,0,1,4.85,5.06c-4.29.08-8.6.19-10.45,2.34-9.66,5.53-4.88,10.64-2.11,17.92,2.19,3.11-4.47,15.88-7.24,16,.6,4.17,1.39-.05.39,5.24-.19,1.06-9.73,8.72-2.56,13.73-2.59.07-5.85,3.34-4.63,3.3,0,0-1.7,3.3-.84,4.75,3.44,3,6.58,7.68,8.59,7.63,15.88,1.1,32,1.77,48.14,1.33.67,1.4-1.65,3.64-1.66,5.5,4-1.44,5.93.7,9.89-.73,0,.81,11.84-.16,17.79-1,0,0,2-1.1,8-1.92,2-.27,2-1.09,2-1.9l0,1.63c2-1.9,6-.8,8-1.88l-.06,1.64c4-2.15,7.92-1,11.92-2.32l-.08,1.63c2-.24,4-.48,3.92.34l-.08,1.64c1.94.57,6-1.54,5.9.11l.08-1.65a121.34,121.34,0,0,1,19.68-.57c15.57,1.59,35.35-1.88,53.22-4.84,2-.14,4.1-1.94,2.3-3.44l5.91-.42c3.94-.27,2.24-2.62,6.18-2.87,32.09-6.2,62.91-3.17,94.34-5.46C296.52,160.78,291,159.14,283,160.06Z"/><path class="cls-3" d="M108.47,87.94a4,4,0,0,0,1.76-3.44c-.29-5.88-8.51-10.25-13.7-10-2.28.11-4.79.92-5.76,3.16-10.14,14.93-32.44,55.29-43,69.65a2.94,2.94,0,0,1-1.65.77c-.49,0-.74-.19-.77-.77a1.71,1.71,0,0,1,.08-.7c2.95-8.81,12.58-41.18,21.39-53.74a4.47,4.47,0,0,0,1.29-3.07c-.25-5-9.12-8.13-13.59-7.93-2.65.12-6.35,1.22-7,4.37-4.09,26.92-16,47.48-18.2,71.06a12,12,0,0,0,0,2c.34,6.7,5.6,10.27,11.3,10.47,2.33,2.91,4.11,4.56,5.91,4.48,1.57-.08,3.19-1.54,5.2-4.87C61.3,153.39,79.68,114.72,108.47,87.94Z"/><path class="cls-3" d="M237.59,117.06c-.36,0-.59.25-.93.74-2,3-13.16,17.49-16.46,21.46-4.56,5.53-10.77,12.18-11.93,13.27a4.84,4.84,0,0,1-2.81,1.75c-.72,0-1.36-.51-1.43-1.9-.38-7.61,11.35-22.27,15.19-27.65a6.58,6.58,0,0,0,1.39-3.77c-.23-4.38-9.07-4.56-12.57-6.82.24,0,2-4.26,1.8-7.61-.12-2.3-1.19-4.34-4.33-4.19-10.38.59-18.6,7.79-18.31,13.8.17,3.23,2.61,6.12,8.38,7.59-.23.29-.46.61-.71.94-1.81,2.15-3.88,4.56-5.57,6.64-3.65,4.45-7.67,6.37-11.05,6.52H178c4.55-8.19,7.69-15.62,7.59-17.7-.2-3.81-4.79-8.45-10.94-8.17-3.24-1.7-5.23-5.2-8-5.07-7.11.33-18.74,18.69-23.24,34.89l-.85,1a73.83,73.83,0,0,1-12.06,12.93,1.61,1.61,0,0,1-.82.39c-.73,0-1.13-.76-1.19-1.8-.33-6.58,19.15-45.3,31.56-60.68,3.31-4.09,4.47-7.38,4.34-9.92-.32-6.47-8.66-8.62-12.77-8.43-3.5.16-4.44.66-4.4,1.35s1.31,2,1.38,3.41a2.18,2.18,0,0,1-.42,1.41C139,98,120.77,133.75,117.91,149l-.2-.07c-1.15,1.32-5.75,5.93-8.29,6.05a2.7,2.7,0,0,1-2.79-2.54c-.22-4.38,7.82-17.71,10.31-21.18a4,4,0,0,0,.87-2c-.13-2.43-4.59-4.65-9.79-4.41a15.52,15.52,0,0,0-4,.64c-1.63,10.84-13.41,34.17-20.65,34.5-.84,0-1.25-.87-1.33-2.37-.41-8.19,9.07-33.85,26.7-34.66a21.58,21.58,0,0,1,5.84.66,6.45,6.45,0,0,0,1.33.17c2.06-.09,3.81-3.76,3.62-7.57-.21-4.16-2.73-8.44-9.73-8.12-21.12,1-37.35,34.35-36.49,51.66.28,5.43,5.4,8.43,10.71,8.18,3.25-.15,8.63-4,13.53-9.87.59,4.48,3.12,6.56,6.74,6.4,3.92-.19,9-3.31,13.53-9.37,1.21,5.15,5.62,11.49,10.16,11.29a5.69,5.69,0,0,0,3.43-1.55c3-2.64,6.83-7.42,10.13-11.87,0,.65,0,1.3,0,1.91.35,6.93,3.6,11.53,11.33,11.17,6-.28,14.24-10.38,21-21.09a10.12,10.12,0,0,0,2.66.11c5.56-.26,12-3.57,16.66-10.49,2.3-3.45,4.64-7.12,6.53-10.21,1,.15,2.13.22,3.25.27-4.26,9.11-10.6,25-10.14,34.14.22,4.27,1.93,7,6,6.78,7.6-.35,19.47-14.67,24.54-22.07,6.44-9.2,13.07-19.23,16.08-24.34C239.51,119.17,238.68,117,237.59,117.06ZM165.2,135.77a10.2,10.2,0,0,0,1.19,4.34c-4.14,9-11.6,19.51-14.87,19.66-.71,0-1.22-.41-1.27-1.44-.68-13.28,11.27-30.83,16.46-31.07l.36,0A18.08,18.08,0,0,0,165.2,135.77Z"/><path class="cls-3" d="M44.08,191.8a5.52,5.52,0,0,1-1.53,3.7,10.94,10.94,0,0,0-5.1-1.17c-2.88,0-4.64.94-4.64,3,0,1.82.59,3.12,2.11,5.23l5.64,7.22c2.82,3.64,3.52,6.23,3.52,9.58,0,5.87-2.17,11.45-10.68,11.45-5.29,0-7.7-1.88-7.7-3.94a9.4,9.4,0,0,1,1.47-4.75A8.57,8.57,0,0,0,32.63,224c3.23,0,4.29-1.76,4.29-4.52,0-2-.59-3.52-2.64-6.22l-5.35-7.17c-2.7-3.58-3.29-6-3.29-8.63,0-5.29,3.52-9,10.45-9C42,188.51,44.08,189.75,44.08,191.8Z"/><path class="cls-3" d="M57.35,188.57c7.63,0,10.46,4.41,10.46,20.62,0,16.5-3.41,21.55-11.11,21.55s-10.57-3.93-10.57-21.32C46.13,193.45,49.77,188.57,57.35,188.57Zm-.29,35.36c2.87,0,3.52-4.11,3.52-14.51,0-10.22-.29-14.1-3.46-14.1-2.7,0-3.47,4.06-3.47,15.57C53.65,220.05,54.06,223.93,57.06,223.93Z"/><path class="cls-3" d="M70.67,230.21V190.28a1.21,1.21,0,0,1,1.18-1.18H85.94c0,5.29,0,5.58-1.18,5.58H77.25V205h7.11c0,4.93,0,6-1.12,6h-6V229a1,1,0,0,1-1.06,1.17Z"/><path class="cls-3" d="M100.56,195.21V229c0,1.17-.12,1.17-6.58,1.17v-35H86.82v-4.93c0-.83.35-1.18,1.17-1.18h20V194c0,.94-.35,1.18-1.17,1.18Z"/><path class="cls-3" d="M110.42,189.1h5.52l2.88,19.15c.88,5.81,1.41,11.39,1.64,15.27h.47a112.21,112.21,0,0,1,1.47-15.27l2.53-15.63c.17-1.23.35-1.76,1.58-1.76h4.64l3,17.39c1,5.81,1.4,11.39,1.7,15.27h.47c.18-4.29.7-10.34,1.41-15.27l2.47-17.39c.18-1.23.41-1.76,1.58-1.76h5.7l-7,41.11a38,38,0,0,1-5.76.35c-2,0-3-1.35-3.52-3.7l-1.3-6.34c-.81-4.17-1.52-10.39-1.93-15.09-.47,4.7-1.12,10.92-1.82,15.09l-1.59,9.69a49.48,49.48,0,0,1-6.28.3c-1.76,0-2.76-1.59-3.17-3.65-1.94-9.51-6.17-36.06-6.17-36.06C108.72,189.51,108.89,189.1,110.42,189.1Z"/><path class="cls-3" d="M161.21,220.87H153.4l-1.7,8.23c-.18.82-.35,1.23-3,1.23a40.31,40.31,0,0,1-4.17-.24l9.81-39.87c.18-.88,1.11-1.24,2.65-1.24a16.11,16.11,0,0,1,3.11.24l9.81,39.94c.17.76-.3,1.17-2.95,1.17-.88,0-2.11,0-3.81-.12Zm-6.57-5.93H160l-1.12-5.46c-.64-3.11-1.17-7.4-1.52-11.1-.42,3.7-1,8-1.59,11.1Z"/><path class="cls-3" d="M190,201.2c0,5.81-1.7,9.16-4.11,11,1.94,2.53,4.7,7.52,5,16.68,0,1.12-.23,1.47-3.41,1.47-1.06,0-2.41-.06-3.87-.18-.24-9.16-2.35-13.8-3.82-15.85h-1.41V229c0,1.17-.12,1.17-6.58,1.17V190.28A1.16,1.16,0,0,1,173,189.1h5.52C185.93,189.1,190,191.57,190,201.2Zm-10-6.4h-1.58v13.51h1.18c1.82,0,3-1.36,3-7.46C182.58,196.62,181.82,194.8,180,194.8Z"/><path class="cls-3" d="M208.24,224.34c0,5.52,0,5.87-1.18,5.87H193.38V190.28a1.2,1.2,0,0,1,1.17-1.18h14.1c0,5.29,0,5.87-1.18,5.87H200v10h7.1c0,4.93,0,6-1.11,6h-6v13.39Z"/><path class="cls-4" d="M408.44,195.69a64.25,64.25,0,0,0,6.92,2.27,22.48,22.48,0,0,0,3.46.62,8.76,8.76,0,0,0,3.06-.16,1.53,1.53,0,0,0,1.16-1.55,3.12,3.12,0,0,0-1.09-2.46.58.58,0,0,1-.44-.7v0l.07-.27a52.11,52.11,0,0,0,1.59-5.52v0h0l-.13-.14a6.5,6.5,0,0,0-.88-.82,20.28,20.28,0,0,0-2.31-1.56,44.66,44.66,0,0,0-10.25-4.17l-6.43,12.34C404.91,194.25,406.68,195,408.44,195.69Z"/><path class="cls-3" d="M423.17,187.66a.26.26,0,0,0,0,.14C423.2,187.68,423.19,187.61,423.17,187.66Z"/><path class="cls-4" d="M350.69,152.28A114.3,114.3,0,0,0,383.5,145a61.72,61.72,0,0,0,7.51-3.6,35.2,35.2,0,0,0,3.43-2.2,12.68,12.68,0,0,0,2.67-2.45l.13-.2s0,0,0,0v0l0-.13c.06-.27.13-.61.19-.94l.36-2.05c.27-1.39.46-2.8.76-4.21a63.86,63.86,0,0,1,2.1-8.47,46.86,46.86,0,0,1,.83,8.22,8.84,8.84,0,0,0,5.82-1.75,16,16,0,0,0,4.37-5.21,35.51,35.51,0,0,0,3.93-13.06,3.73,3.73,0,0,0-1.7-.65,6.66,6.66,0,0,0-1.34,0l-.29,0a3.32,3.32,0,0,0-.41.07c-.11,0-.38.09-.57.15a14.76,14.76,0,0,0-2.78,1.31c-1,.58-2.09,1.26-3.42,1.93a7.58,7.58,0,0,1,5.11-6.78,6.93,6.93,0,0,1,1.31-.25,3.65,3.65,0,0,1,.56,0,4.08,4.08,0,0,1,.67.05,5.42,5.42,0,0,1,2.39.87,4.32,4.32,0,0,1,.69.58,26.81,26.81,0,0,0-.23-4.93,12.86,12.86,0,0,0-.84-3.11c-.41-.93-1-1.44-1.33-1.48A6.42,6.42,0,0,0,408,98.08a12.06,12.06,0,0,0-2.27,2.48s0,0,0,0a14.81,14.81,0,0,0-1.51,2.67l0,.09h0v0a1.85,1.85,0,0,1-3.54-.86,70.05,70.05,0,0,0-1.44-16.76,48.12,48.12,0,0,0-2.43-8,40.81,40.81,0,0,0-1.76-3.72,25.2,25.2,0,0,0-1.63-2.58,60.67,60.67,0,0,0-11.23,1.82c-4,1-8.07,2.2-12,3.57h0a1.82,1.82,0,0,1-.95.07,121.75,121.75,0,0,0-22.46-2.09,111.21,111.21,0,0,0-11.25.56,82.21,82.21,0,0,0-9.91,1.6,61.39,61.39,0,0,1-2,8.15,29.35,29.35,0,0,1-1.92,4.62c-.92,1.7-1.84,2.77-2.69,4.08l-.59.87L319,95c1.27.4,2.52.83,3.74,1.33,2.48,1,4.88,2.06,7.25,3.24s4.7,2.42,6.95,3.8a45.29,45.29,0,0,1,6.4,4.6c-2.46-.92-4.9-1.78-7.33-2.62s-4.89-1.59-7.37-2.25-5-1.23-7.43-1.82c-1.25-.27-2.48-.58-3.71-.87l-1.85-.42-.37-.07c-.3.57-.6,1.15-.87,1.73a25.17,25.17,0,0,0-2.5,8.19,15.77,15.77,0,0,0,.09,4.12,35,35,0,0,0,1,4.29c.81,2.93,1.83,5.91,2.52,9s1.26,6.52.24,10a8.44,8.44,0,0,1-3,4.32,11,11,0,0,1-4.55,2l-.13,0a.49.49,0,0,1-.57-.39.5.5,0,0,1,.15-.45h0a10.54,10.54,0,0,0,1.25-9.4,31.84,31.84,0,0,0-2.49-4.42c-.93-1.51-1.87-3-2.74-4.62a44.51,44.51,0,0,1-4.22-10.16,27.67,27.67,0,0,1-.77-4.38A1.78,1.78,0,0,1,298,109l-.05-.12a14.06,14.06,0,0,0-3.87-5.1,6.44,6.44,0,0,0-5.4-1.3c-.28,0-.83.48-1.23,1.39a11.6,11.6,0,0,0-.83,3.07,26.26,26.26,0,0,0-.26,4.8,3.75,3.75,0,0,1,.57-.47,5.59,5.59,0,0,1,2.4-.87,5.43,5.43,0,0,1,.67,0c.19,0,.26,0,.55,0a6.78,6.78,0,0,1,1.31.25,7.57,7.57,0,0,1,5.12,6.79c-1.33-.68-2.4-1.36-3.42-1.93a14.31,14.31,0,0,0-2.79-1.32l-.57-.15a2.28,2.28,0,0,0-.41-.06s-.2,0-.29,0a6.67,6.67,0,0,0-1.34,0,3.65,3.65,0,0,0-1.61.6,36.58,36.58,0,0,0,3.78,13.14,16.93,16.93,0,0,0,4.32,5.35,9.09,9.09,0,0,0,4.81,1.92,75.25,75.25,0,0,1-1-9.53,140.88,140.88,0,0,1,5.84,16.22l.17.49.08.23c0-.11.07.17.06.11s.17.25.34.4a9.73,9.73,0,0,0,1.37,1.18,26,26,0,0,0,3.45,2.06,49.63,49.63,0,0,0,7.7,3.07A88.44,88.44,0,0,0,350.69,152.28Zm44-42.16a34.39,34.39,0,0,1-6.87,1.46,58.57,58.57,0,0,1-6.86.4,60.87,60.87,0,0,1-6.87-.4,35.85,35.85,0,0,1-6.87-1.46,35.82,35.82,0,0,1,6.87-1.45,58.61,58.61,0,0,1,6.87-.4,56.48,56.48,0,0,1,6.86.4A35.07,35.07,0,0,1,394.73,110.12Zm-30.5-12.4a72.65,72.65,0,0,1,5.71-8.17,54.62,54.62,0,0,1,7.13-7.31,43,43,0,0,1,8.86-5.81l.07,0c2.22-1.09-7.84,5.55-6.75,7.77s12.92-.84,10.7.26a4.2,4.2,0,0,1-.77.29,45.51,45.51,0,0,0-15.63,8.46c-4.92,3.83-9.12,8.59-13.45,13.47A41.58,41.58,0,0,1,364.23,97.72ZM354.13,96a35,35,0,0,0,1.18,5.64,18.16,18.16,0,0,0,2.64,5,5.71,5.71,0,0,1-2.73-1.64,7.34,7.34,0,0,1-1.67-2.8,8.16,8.16,0,0,1-.37-3.2A6.43,6.43,0,0,1,354.13,96Zm6.47,28.38a7,7,0,0,1-2.77,3.89,8.45,8.45,0,0,1-4.74,1.59,8,8,0,0,1-4.85-1.44,6.26,6.26,0,0,1-2.63-4,15.38,15.38,0,0,0,7.39,1.78A24.4,24.4,0,0,0,360.6,124.37ZM345.94,98.43a10.31,10.31,0,0,1,.79,3.26,9.54,9.54,0,0,1-.4,3.36,7,7,0,0,1-1.7,2.87,32,32,0,0,0,.24-6.11,60.33,60.33,0,0,0-.82-6.11A7.5,7.5,0,0,1,345.94,98.43ZM324.7,112a48.37,48.37,0,0,1-6.12-.4,29,29,0,0,1-6.11-1.46,29,29,0,0,1,6.11-1.45,46.59,46.59,0,0,1,6.12-.4,44.89,44.89,0,0,1,6.11.4,28.37,28.37,0,0,1,6.11,1.45,27.82,27.82,0,0,1-6.11,1.46A46.55,46.55,0,0,1,324.7,112Zm10.56,27.38a11.74,11.74,0,0,1,3.19-3.55,9.75,9.75,0,0,1,2.22-1.25,6.49,6.49,0,0,1,2.74-.42,16,16,0,0,1,4.76,1.13,19.18,19.18,0,0,1,3.69,1.89,21.55,21.55,0,0,1,3.93-2.53,21.3,21.3,0,0,1,5-1.81,5.68,5.68,0,0,1,1.66-.13,5.3,5.3,0,0,1,1.65.5,12.75,12.75,0,0,1,2.32,1.47,21.47,21.47,0,0,1,3.68,3.7l-4.69-2a19.37,19.37,0,0,0-2.21-.76,2.26,2.26,0,0,0-.8-.09,4.12,4.12,0,0,0-.83.23c-1.37.53-2.9,1.24-4.41,1.86a31.13,31.13,0,0,1-4.78,1.58l-.52.11a.4.4,0,0,1-.35-.09c-1.45-.34-2.88-.78-4.28-1.19a32,32,0,0,0-4.07-1,7.26,7.26,0,0,0-3.72.56C338.09,138.1,336.72,138.72,335.26,139.36Z"/><path class="cls-3" d="M362.07,155.5c-1.9,3.62-3.91,7.14-6.06,10.59-2.38,3.87-4.94,7.63-7.62,11.3q-2,2.76-4.12,5.45c-1.45,1.76-2.93,3.5-4.45,5.2a75.29,75.29,0,0,1-7.42,7.2c2,.13,3.91.25,5.86.34q3.39.16,6.78.24a7.78,7.78,0,0,1,13-.07,159.76,159.76,0,0,0,17.64-1.5c-1.6-1.56-3.19-3.13-4.73-4.76-1.92-2-3.83-4-5.64-6.17,2.39,1.46,4.68,3,6.95,4.64s4.5,3.26,6.71,4.93,4.38,3.39,6.5,5.17,4.14,3.49,6.1,5.36c1.76-1.12,3.48-2.28,5.17-3.46l-3.14-1.68-1-.49-.29-.16-.28-.18a3.94,3.94,0,0,1-.63-.55,4.16,4.16,0,0,1-1.13-2.91,4.28,4.28,0,0,1,4.19-4.17,5.46,5.46,0,0,1,2.76.84l1.9,1,.73.38,9.28-16.14a245,245,0,0,1-23.27-9.19c-8-3.56-15.88-7.3-23.71-11.22Z"/><path class="cls-3" d="M324.68,173.59a111.6,111.6,0,0,1,1.91,17.76c0,1.14.06,2.28.08,3.41,1.08.1,2.15.2,3.22.28,2.61-2.93,5.1-5.95,7.5-9,1.37-1.75,2.7-3.55,4-5.36s2.62-3.61,3.88-5.45c.4-.59.78-1.18,1.17-1.76a71.23,71.23,0,0,1-8.62-8c-2.82-3-5.56-6.12-8.18-9.35-1.31-.2-2.62-.44-3.92-.71l-31.24,41.42c2.08,1.43,4.25,2.81,6.43,4.11,2.53,1.52,5.12,2.94,7.75,4.24a67,67,0,0,0,13.76,5.1c0-.37,0-.74,0-1.11q.07-8.88.36-17.77A110.46,110.46,0,0,1,324.68,173.59Z"/><path class="cls-5" d="M338.16,198.87c-3.8-.07-7.58-.22-11.39-.45,0,1.12.05,2.24.07,3.37,4.19.19,8.42.28,12.63.28,1.52,0,3,0,4.56-.06a6.58,6.58,0,0,1-.15-3.12C342,198.9,340.07,198.9,338.16,198.87Z"/><path class="cls-2" d="M349.17,224.27a68.66,68.66,0,0,1-1.63-8.37c-.45-3.26-.78-6.51-1-9.81,0,0,0-.05,0-.08a7.67,7.67,0,0,1-.77-.74c-2.09.09-4.18.17-6.27.21h-.8v1.4l-.07,2.71c-.1,1.81-.13,3.62-.3,5.43s-.31,3.62-.52,5.43-.48,3.62-.89,5.42c-.41-1.8-.64-3.62-.89-5.42s-.4-3.62-.52-5.43-.2-3.62-.3-5.43l-.07-2.71v-1.36h0c-2.73,0-5.48,0-8.23-.07,0,1.23,0,2.45.05,3.67q.1,8.88,0,17.77c0,1.46-.05,2.93-.07,4.39C334.43,229.29,341.88,227,349.17,224.27Z"/><path class="cls-2" d="M435.09,235.81,402.83,208.4c-3,2.53-6,4.91-9.16,7.16-2.07,1.48-4.18,2.9-6.31,4.29.79.78,1.56,1.56,2.36,2.33,5.3,5.2,10.84,10.13,16.38,15.17a99.22,99.22,0,0,1-17.67-13.84c-.88-.87-1.75-1.76-2.61-2.66q-3.48,2.21-7,4.32c-1,.6-2.05,1.17-3.07,1.76a18.24,18.24,0,0,1,2.57,3.34,15.89,15.89,0,0,1,2.16,5.35,15.87,15.87,0,0,1-3.74-4.39,19,19,0,0,1-1.79-3.84c-3.81,2.18-7.65,4.31-11.55,6.32-5.24,2.68-10.49,5.27-15.89,7.68l0,0a1.41,1.41,0,0,1-.6.1Q336.77,241,326.71,240c0,.92-.07,1.85-.11,2.77h25.75a50.44,50.44,0,0,1,6.07-1.77c2.18-.53,4.36-.95,6.56-1.27a94.66,94.66,0,0,1,13.22-1.09,76.73,76.73,0,0,1,13.29,1,74.53,74.53,0,0,1,12.59,3.14,56.43,56.43,0,0,0,8.31-.13,68.83,68.83,0,0,0,8.94-1.33A85.28,85.28,0,0,0,435.09,235.81Zm-22.78-8.89a82.33,82.33,0,0,1-13.05-10c4.83,2.63,9.41,5.53,14,8.39s9.17,5.73,13.9,8.53A58.59,58.59,0,0,1,412.31,226.92Z"/><path class="cls-6" d="M351,156.88a101.2,101.2,0,0,1-16.42-.2c1.74,2.33,3.49,4.64,5.31,6.89,1.41,1.73,2.83,3.46,4.3,5.13q1.51,1.73,3.12,3.36,5.16-7.8,9.93-15.86C355.2,156.47,353.13,156.7,351,156.88Z"/><path class="cls-5" d="M427.43,171.6l-2.93-1.89-6.87,10.48a33.32,33.32,0,0,1,3.13,1.76Z"/><path class="cls-5" d="M362.88,218.67a50.09,50.09,0,0,1-4.18-5.75c-1.24-1.95-2.37-4-3.46-6l-.32.17,3,13.7C359.59,220.1,361.23,219.39,362.88,218.67Z"/><path class="cls-5" d="M358,36a7.37,7.37,0,0,0-2.74-1,13.21,13.21,0,0,0-1.51-.18h-.83l-.77,0a12.19,12.19,0,0,0-5.85,1.81,9.86,9.86,0,0,0-2.25,2h0q3.3-.35,6.6-.4a59.36,59.36,0,0,1,9.44.66,4.31,4.31,0,0,0-.29-.83A5.24,5.24,0,0,0,358,36Z"/><path class="cls-5" d="M380.14,198.49c-.87-.8-1.72-1.61-2.58-2.42a158.49,158.49,0,0,1-18.41,2.28,7.59,7.59,0,0,1,.21,1.73,7.47,7.47,0,0,1-.13,1.26A155.51,155.51,0,0,0,380.14,198.49Z"/><path class="cls-6" d="M326.06,246.51h-1.42a10.3,10.3,0,0,0-2.86.57,8.76,8.76,0,0,0-2.24,1.14,4.34,4.34,0,0,0-1.4,1.47,1.22,1.22,0,0,0,.34,0l2.86,0,5.74,0c3.83,0,7.65-.09,11.48-.15.93,0,1.94,0,2.82-.07a5.67,5.67,0,0,0,2.11-.56,3,3,0,0,0,1.32-1.29,2.9,2.9,0,0,0,.36-1.05H326.06Z"/><path class="cls-5" d="M351.65,223.31c1.05-.4,2.1-.79,3.14-1.21.47-.18.93-.39,1.4-.58l-4.71-13.65a6.67,6.67,0,0,1-1.19-.12c0,2.6.16,5.22.36,7.81A67.81,67.81,0,0,0,351.65,223.31Z"/><path class="cls-6" d="M303.47,206a31.11,31.11,0,0,0,1,3,11.33,11.33,0,0,0,2.83,4.49,4.5,4.5,0,0,0,4.32.36,6.25,6.25,0,0,0,2.72-2.31c-2.47-1.05-4.88-2.21-7.21-3.48C305.89,207.39,304.67,206.69,303.47,206Z"/><path class="cls-2" d="M388.24,205.51c-1.81-1.45-3.57-3-5.31-4.49-.16-.15-.32-.3-.49-.44A157.24,157.24,0,0,1,358,204.49c.94,2.38,2,4.76,3.12,7.06a45.16,45.16,0,0,0,3.7,6.24q6.45-2.94,12.72-6.23l.3-.16a63.25,63.25,0,0,1-3.49-5.37c1.43,1.67,2.9,3.28,4.38,4.88C381.93,209.17,385.12,207.39,388.24,205.51Z"/><path class="cls-6" d="M438.33,246.28a9.14,9.14,0,0,0-2.85-.62c-.9-.07-2.18.06-3.42-.11a19.15,19.15,0,0,1-6.74-2.24c-1.23.41-2.47.8-3.72,1.12a63.17,63.17,0,0,1-6.52,1.3v.06a3.86,3.86,0,0,0,.12,1,3,3,0,0,0,.45,1,3.4,3.4,0,0,0,1.81,1.3,8.78,8.78,0,0,0,2.86.33l3.34.05c4.46.1,8.91.11,13.38.14l3.35,0,1.36,0a3.31,3.31,0,0,0-1.07-1.91A7.06,7.06,0,0,0,438.33,246.28Z"/><path class="cls-3" d="M326.81,237.75q9.9.63,19.81.77a282.8,282.8,0,0,0,30.63-16c2.16-1.3,4.27-2.66,6.37-4l1.44-1c2.25-1.51,4.48-3.06,6.65-4.66A110,110,0,0,0,403,203.37c-.63-.35-1.24-.72-1.88-1.06l-.72-.39a141.6,141.6,0,0,1-19,11.85l-1.25.67-.88.47a208,208,0,0,1-23.34,10.18,241.58,241.58,0,0,1-24.29,7.51c-1.6.4-3.2.77-4.8,1.14-1.44.33-2.88.64-4.33.93-3.33.69-6.67,1.32-10,1.86,3.35.37,6.72.66,10.09.92l4.18.3Z"/><path class="cls-5" d="M417.28,205.52l-.12-.06-1-.5c-2.53-1.3-5-2.64-7.54-4s-4.87-2.78-7.31-4.17l-.11-.06h0l-1.82-1.07-1.11-.65-.74-.43-1.84-1.09c-.77-.45-.86-.54-1.22-.56a1.3,1.3,0,0,0-1.37,1.2,1.42,1.42,0,0,0,.31,1,5.69,5.69,0,0,0,1.41.94l4.14,2.39,2.77,1.6.48.29c.83.47,1.67.9,2.5,1.36,1,.58,2.09,1.15,3.14,1.72.63.33,1.24.69,1.86,1l3.8,2,1.9,1a8.68,8.68,0,0,0,.8.39,1.58,1.58,0,0,0,.6.08h-.09a1.27,1.27,0,0,0,1.2-1.28,1.19,1.19,0,0,0-.36-.81l-.12-.1-.15-.09S417.17,205.45,417.28,205.52Z"/><path class="cls-5" d="M354.27,203.12a2,2,0,0,1,.49-.52,4,4,0,0,0,.89-2.52,4.11,4.11,0,0,0-4.09-4.09,4.09,4.09,0,0,0-3.88,2.84,3.9,3.9,0,0,0,.25,3.1,4.08,4.08,0,0,0,3.63,2.25A4,4,0,0,0,354.27,203.12Z"/><path class="cls-2" d="M295.51,194s15.07,10.6,28.12,14.38v-8.32s-15.37-5.52-23.79-12.08"/><path class="cls-2" d="M326.6,154.78s9.62,15,20.36,21.05L342.33,182s-15.3-13.26-20.48-23.46"/><path class="cls-2" d="M365.27,155.36S350.36,187.15,333.21,197l10.58.3s17.34-11.73,29.64-36.38"/><path class="cls-2" d="M407.6,174.17,397.17,192s-4.25-1-4.79.55a5.68,5.68,0,0,0,.31,3.51l2,1.27s-2.55,4.66-4.48,6.08l-7.34-5.61s11.36-16,13.06-28.1"/><path class="cls-7" d="M317.22,164.13s12.38,14.1,30.71,13.88,30.12-14.88,30.12-14.88l-16.41-10.49-2,3.56-12.16,17.89L332,155.48l-7.49-1.24"/><polyline class="cls-7" points="324.68 173.59 309.57 207.83 323.63 211.91"/><polyline class="cls-7" points="365.31 183.32 367.66 196.61 378.05 195.22"/><path class="cls-6" d="M290.1,129.44s-2.85-6,1.86-6.72,6.55,4.4,6.55,4.4.79-13.75-8.17-15.06-4.87,11.28-4.87,11.28"/><path class="cls-6" d="M400.65,124.37s2.63-14.24,7.18-15.79,8.73-2.25,8.66,1.54-2.94,11.21-2.94,11.21.62-6.64-3.94-6.41-8.11,13.2-8.11,13.2"/><path class="cls-6" d="M314.13,139.36a17.11,17.11,0,0,0,5.33-11.24c.38-7-2.82-15.84-1.54-17.68,0,0,22.52,1.16,26.13,0s6.74-9.09,0-14.74a35.83,35.83,0,0,1,1.35,7.24c.17,3.4-.6,4.87-.6,4.87s-2.09.23-11.13-4.17S323,98.08,323,98.08s8.31-12.93,5.51-21.68l-6.36.43S319,89.27,316.68,93s-9.58,14.6-7.8,20.16,5.4,15,5.48,17.37S314.13,139.36,314.13,139.36Z"/><path class="cls-6" d="M353.68,101.32c-.29.32,1.08,8.27,5.56,10s13.68-1.17,13.68-1.17h21.81a18.68,18.68,0,0,0-18.49-6.25s2-14.17,13.71-19.44a19.81,19.81,0,0,0-17.88,8.16c-7.11,9.74-10.78,12.21-10.78,12.21s-5.54.54-6.92-6.41"/><path class="cls-6" d="M345.61,124.37s2.21,8.93,7.07,9.71,7.92-9.71,7.92-9.71-4.05,4-7.73,3.75S345.61,124.37,345.61,124.37Z"/><path class="cls-6" d="M341.48,143.27s12.9,2.37,21.16-1.63c0,0-4.08,6.5-11.54,6.42S341.48,143.27,341.48,143.27Z"/><path class="cls-7" d="M324.68,207.83a121,121,0,0,0,22.95.57l-.16-4.22-3.44-.76H325.6"/><path class="cls-7" d="M358.9,208.69a99.61,99.61,0,0,0,16-2.08l3.94,5.3,11.82-6.64-7.73-5.19-26.23,3.34"/><path class="cls-7" d="M385.39,218.28s18.43,19.43,24.8,21.67c0,0-11.05-15.66-4.64-19.73s21.64,7.91,21.64,7.91L403,206.05"/><path class="cls-6" d="M409.18,197.34s5.33-9.43,5.89-15.39l-5.89-2.5-7.57,14.84"/><path d="M348.24,128.41a8,8,0,0,0,4.85,1.44,8.45,8.45,0,0,0,4.74-1.59,7,7,0,0,0,2.77-3.89,24.4,24.4,0,0,1-7.6,1.78,15.38,15.38,0,0,1-7.39-1.78A6.26,6.26,0,0,0,348.24,128.41Z"/><path d="M343.16,137.05a32,32,0,0,1,4.07,1c1.4.41,2.83.85,4.28,1.19a.4.4,0,0,0,.35.09l.52-.11a31.13,31.13,0,0,0,4.78-1.58c1.51-.62,3-1.33,4.41-1.86a4.12,4.12,0,0,1,.83-.23,2.26,2.26,0,0,1,.8.09,19.37,19.37,0,0,1,2.21.76l4.69,2a21.47,21.47,0,0,0-3.68-3.7,12.75,12.75,0,0,0-2.32-1.47,5.3,5.3,0,0,0-1.65-.5,5.68,5.68,0,0,0-1.66.13,21.3,21.3,0,0,0-5,1.81,21.55,21.55,0,0,0-3.93,2.53,19.18,19.18,0,0,0-3.69-1.89,16,16,0,0,0-4.76-1.13,6.49,6.49,0,0,0-2.74.42,9.75,9.75,0,0,0-2.22,1.25,11.74,11.74,0,0,0-3.19,3.55c1.46-.64,2.83-1.26,4.18-1.75A7.26,7.26,0,0,1,343.16,137.05Z"/><path d="M442.56,245.94a9.6,9.6,0,0,0-3.2-2.15,13.56,13.56,0,0,0-3.63-.93c-1.32-.16-2.28-.1-3.25-.3a10.12,10.12,0,0,1-2.77-.91,46.72,46.72,0,0,0,8.31-4.58h0a1.31,1.31,0,0,0,.25-.22,1.26,1.26,0,0,0-.09-1.78l0,0-32.55-29.1.74-.69c.74.43,1.51.83,2.24,1.27l3.68,2.18,1.84,1.09a9.88,9.88,0,0,0,1.08.6,4.49,4.49,0,0,0,1.49.34h.09a4.33,4.33,0,0,0,4.36-4.09,4.41,4.41,0,0,0-1.08-3.11,4,4,0,0,0-.66-.62l-.29-.2-.3-.19-.91-.54-.61-.36c.45,0,.9.1,1.36.12a10.12,10.12,0,0,0,4.37-.65,4.37,4.37,0,0,0,2-1.83,4,4,0,0,0,.42-2.62,4.63,4.63,0,0,0-2.13-3.17,23.37,23.37,0,0,0,1.31-2,13.13,13.13,0,0,0,1.36-3,2.53,2.53,0,0,0-.08-1.83l-.14-.31a4.79,4.79,0,0,0-.31-.47,9.51,9.51,0,0,0-1.22-1.34c-.38-.36-.77-.68-1.17-1l7.47-11.59a1.39,1.39,0,0,0-.42-1.92l-5.25-3.4a1.4,1.4,0,0,0-1.92.41l-7.87,12a35.15,35.15,0,0,0-3.71-1.25l1-2,0-.06a1.6,1.6,0,0,0,.1-.23,1.36,1.36,0,0,0-.92-1.68,233,233,0,0,1-24.36-10c-6.43-3-12.8-6.17-19.11-9.42a94,94,0,0,0,17-5.41,64.85,64.85,0,0,0,7.93-4,40,40,0,0,0,3.77-2.53,16.15,16.15,0,0,0,3.52-3.5,4.12,4.12,0,0,0,.4-.73,4,4,0,0,0,.19-.5l.08-.29,0-.13c.08-.44.13-.8.19-1.19.08-.75.14-1.48.19-2.22s.06-1.45.08-2.18a11.62,11.62,0,0,0,7.45-2.12,18.9,18.9,0,0,0,5.33-6,38.73,38.73,0,0,0,4.74-14.78,33.09,33.09,0,0,0,.07-7.9,14.87,14.87,0,0,0-1.06-4.1,7.24,7.24,0,0,0-1.32-2.06,5.17,5.17,0,0,0-1.09-.91,4.71,4.71,0,0,0-.78-.39c-.36-.13-.22-.07-.65-.2a10,10,0,0,0-4.53,0,9.45,9.45,0,0,0-2.43.95c.34-2.12.57-4.22.74-6.36a88.12,88.12,0,0,0,0-12.16c-.07-1-.13-2-.25-3.07-.05-.44-.15-1.1-.27-1.63s-.26-1.08-.42-1.61a23.64,23.64,0,0,0-2.8-5.81,41.48,41.48,0,0,0-8.43-9.13,73.84,73.84,0,0,0-21.29-11.83c-1.31-.47-2.65-.9-4-1.31,2.82-2.37,6.58-6.44,7.44-11.8.79-4.86-.74-13-6-19.41-3.48-4.27-10-9.48-21.4-10-9.28-.4-16.77,2-22.18,7.12-7.12,6.75-8,15.57-8,19.05-.09,7.5,5,12.72,8.65,15.48-.83.28-1.65.56-2.46.87a49.7,49.7,0,0,0-20.25,13.81,34.93,34.93,0,0,0-6.36,10.78,46.86,46.86,0,0,0-2.33,12.15,101.67,101.67,0,0,0,1.37,23.83c0,.07,0,.14,0,.22a15,15,0,0,0-2.57-2.72,10.65,10.65,0,0,0-4.08-2,9.89,9.89,0,0,0-4.59,0,4.89,4.89,0,0,0-.67.21,4.24,4.24,0,0,0-.8.4,5.28,5.28,0,0,0-1.13.94,7.68,7.68,0,0,0-1.34,2.11,15.53,15.53,0,0,0-1.07,4.14,33.23,33.23,0,0,0,.12,7.92A37.9,37.9,0,0,0,287.81,129a18.38,18.38,0,0,0,5.39,5.9,11.34,11.34,0,0,0,6.59,1.92c.36,1.89.76,3.78,1.24,5.67l.15.55.08.28a3.34,3.34,0,0,0,.15.38,5.48,5.48,0,0,0,.9,1.36,13.52,13.52,0,0,0,1.83,1.69,31.2,31.2,0,0,0,3.87,2.48,55.06,55.06,0,0,0,8.18,3.54c1.86.64,3.74,1.17,5.62,1.66l-30.07,41.89,0,0A1.21,1.21,0,0,0,292,198h0c2.34,1.85,4.73,3.58,7.2,5.22a1.61,1.61,0,0,0,0,.58,28,28,0,0,0,1.74,6.61,13.36,13.36,0,0,0,4.28,6,7.74,7.74,0,0,0,1.93,1,6.79,6.79,0,0,0,1.09.22l.28,0,.19,0h.5a7.94,7.94,0,0,0,3.88-1,8.22,8.22,0,0,0,3.49-4.21,36.5,36.5,0,0,0,5.88,1.73c0,4.24-.06,8.48,0,12.72,0,1.84.06,3.68.1,5.52q-8,2-16,3.43h0a.79.79,0,0,0,0,1.56h0c5.38.92,10.77,1.61,16.17,2.2q.06,2,.15,4.08a16.31,16.31,0,0,0-2.09.78,13.81,13.81,0,0,0-2.74,1.66,6.74,6.74,0,0,0-2.25,2.74,3,3,0,0,0-.19,1.29,2.27,2.27,0,0,0,.78,1.46,3.35,3.35,0,0,0,2.17.66h2.88l5.73,0c3.82,0,7.64.13,11.47.2,1,0,1.87.05,2.91,0a9,9,0,0,0,3.44-.7,6.54,6.54,0,0,0,2.9-2.47,7.54,7.54,0,0,0,1.05-2.86h3.8a1.9,1.9,0,0,0,.76-.17h0a48.59,48.59,0,0,1,12-3.77,77.07,77.07,0,0,1,12.79-1.24A64,64,0,0,1,391,242.54,53.17,53.17,0,0,1,403,246.35a1.54,1.54,0,0,0,.52.14h.1a55.21,55.21,0,0,0,7.76-.28,7.44,7.44,0,0,0,.4,1.72,7.22,7.22,0,0,0,1.07,2,6.77,6.77,0,0,0,3.67,2.34,12.72,12.72,0,0,0,3.77.29l3.34-.07q6.69-.17,13.38-.17h4.17a6,6,0,0,0,1.05,0,2.36,2.36,0,0,0,1.51-.86,2.58,2.58,0,0,0,.55-1.51A5.6,5.6,0,0,0,442.56,245.94Zm-25.23-40.4.15.09.12.1a1.19,1.19,0,0,1,.36.81,1.27,1.27,0,0,1-1.2,1.28h.09a1.58,1.58,0,0,1-.6-.08,8.68,8.68,0,0,1-.8-.39l-1.9-1-3.8-2c-.62-.33-1.23-.69-1.86-1-1.05-.57-2.1-1.14-3.14-1.72-.83-.46-1.67-.89-2.5-1.36l-.48-.29-2.77-1.6L394.86,196a5.69,5.69,0,0,1-1.41-.94,1.42,1.42,0,0,1-.31-1,1.3,1.3,0,0,1,1.37-1.2c.36,0,.45.11,1.22.56l1.84,1.09.74.43,1.11.65,1.82,1.07h0l.11.06c2.44,1.39,4.86,2.81,7.31,4.17s5,2.73,7.54,4l1,.5.12.06C417.17,205.45,417.32,205.54,417.33,205.54Zm5.86-17.74a.26.26,0,0,1,0-.14S423.2,187.68,423.19,187.8Zm1.31-18.09,2.93,1.89L420.76,182a33.32,33.32,0,0,0-3.13-1.76Zm-4.64,15.6a20.28,20.28,0,0,1,2.31,1.56,6.5,6.5,0,0,1,.88.82l.13.14h0v0a52.11,52.11,0,0,1-1.59,5.52l-.07.27v0a.58.58,0,0,0,.44.7,3.12,3.12,0,0,1,1.09,2.46,1.53,1.53,0,0,1-1.16,1.55,8.76,8.76,0,0,1-3.06.16,22.48,22.48,0,0,1-3.46-.62,64.25,64.25,0,0,1-6.92-2.27c-1.76-.69-3.53-1.44-5.26-2.21l6.43-12.34A44.66,44.66,0,0,1,419.86,185.31ZM385.91,166.7a245,245,0,0,0,23.27,9.19L399.9,192l-.73-.38-1.9-1a5.46,5.46,0,0,0-2.76-.84,4.28,4.28,0,0,0-4.19,4.17,4.16,4.16,0,0,0,1.13,2.91,3.94,3.94,0,0,0,.63.55l.28.18.29.16,1,.49,3.14,1.68c-1.69,1.18-3.41,2.34-5.17,3.46-2-1.87-4-3.62-6.1-5.36s-4.3-3.48-6.5-5.17-4.42-3.34-6.71-4.93-4.56-3.18-6.95-4.64c1.81,2.14,3.72,4.16,5.64,6.17,1.54,1.63,3.13,3.2,4.73,4.76a159.76,159.76,0,0,1-17.64,1.5,7.78,7.78,0,0,0-13,.07q-3.39-.07-6.78-.24c-1.95-.09-3.91-.21-5.86-.34a75.29,75.29,0,0,0,7.42-7.2c1.52-1.7,3-3.44,4.45-5.2s2.78-3.61,4.12-5.45c2.68-3.67,5.24-7.43,7.62-11.3,2.15-3.45,4.16-7,6.06-10.59l.13,0C370,159.4,377.91,163.14,385.91,166.7Zm-8.07,44.7-.3.16q-6.26,3.3-12.72,6.23a45.16,45.16,0,0,1-3.7-6.24c-1.14-2.3-2.18-4.68-3.12-7.06a157.24,157.24,0,0,0,24.44-3.91c.17.14.33.29.49.44,1.74,1.53,3.5,3,5.31,4.49-3.12,1.88-6.31,3.66-9.51,5.4-1.48-1.6-3-3.21-4.38-4.88A63.25,63.25,0,0,0,377.84,211.4ZM344,202c-1.52,0-3,.06-4.56.06-4.21,0-8.44-.09-12.63-.28,0-1.13,0-2.25-.07-3.37,3.81.23,7.59.38,11.39.45,1.91,0,3.81,0,5.72,0A6.58,6.58,0,0,0,344,202ZM327,209.12c0-1.22,0-2.44-.05-3.67,2.75.07,5.5.09,8.23.07h0v1.36l.07,2.71c.1,1.81.13,3.62.3,5.43s.31,3.62.52,5.43.48,3.62.89,5.42c.41-1.8.64-3.62.89-5.42s.4-3.62.52-5.43.2-3.62.3-5.43l.07-2.71v-1.4h.8c2.09,0,4.18-.12,6.27-.21a7.67,7.67,0,0,0,.77.74s0,.05,0,.08c.22,3.3.55,6.55,1,9.81a68.66,68.66,0,0,0,1.63,8.37c-7.29,2.7-14.74,5-22.27,7,0-1.46.07-2.93.07-4.39Q327.06,218,327,209.12Zm21-7.19a3.9,3.9,0,0,1-.25-3.1,4.07,4.07,0,0,1,7.67-.27,4,4,0,0,1,.3,1.52,4,4,0,0,1-.89,2.52,3,3,0,0,1-.49.52,4,4,0,0,1-2.71,1.06A4.08,4.08,0,0,1,347.93,201.93Zm3.55,5.94,4.71,13.65c-.47.19-.93.4-1.4.58-1,.42-2.09.81-3.14,1.21a67.81,67.81,0,0,1-1-7.75c-.2-2.59-.31-5.21-.36-7.81A6.67,6.67,0,0,0,351.48,207.87Zm3.44-.78.32-.17c1.09,2,2.22,4.05,3.46,6a50.09,50.09,0,0,0,4.18,5.75c-1.65.72-3.29,1.43-4.95,2.12Zm4.23-8.74a158.49,158.49,0,0,0,18.41-2.28c.86.81,1.71,1.62,2.58,2.42a155.51,155.51,0,0,1-20.91,2.85,7.47,7.47,0,0,0,.13-1.26A7.59,7.59,0,0,0,359.15,198.35Zm-11.8-26.29q-1.61-1.63-3.12-3.36c-1.47-1.67-2.89-3.4-4.3-5.13-1.82-2.25-3.57-4.56-5.31-6.89a101.2,101.2,0,0,0,16.42.2c2.09-.18,4.16-.41,6.24-.68Q352.53,164.24,347.35,172.06ZM344,38.55a9.86,9.86,0,0,1,2.25-2,12.19,12.19,0,0,1,5.85-1.81l.77,0h.83a13.21,13.21,0,0,1,1.51.18A7.37,7.37,0,0,1,358,36a5.24,5.24,0,0,1,1.79,2,4.31,4.31,0,0,1,.29.83,59.36,59.36,0,0,0-9.44-.66q-3.3.06-6.6.4Zm-26.6,110.54a49.63,49.63,0,0,1-7.7-3.07,26,26,0,0,1-3.45-2.06,9.73,9.73,0,0,1-1.37-1.18c-.17-.15-.35-.45-.34-.4s-.1-.22-.06-.11l-.08-.23-.17-.49a140.88,140.88,0,0,0-5.84-16.22,75.25,75.25,0,0,0,1,9.53,9.09,9.09,0,0,1-4.81-1.92,16.93,16.93,0,0,1-4.32-5.35,36.58,36.58,0,0,1-3.78-13.14,3.65,3.65,0,0,1,1.61-.6,6.67,6.67,0,0,1,1.34,0c.09,0,.3,0,.29,0a2.28,2.28,0,0,1,.41.06l.57.15a14.31,14.31,0,0,1,2.79,1.32c1,.57,2.09,1.25,3.42,1.93a7.57,7.57,0,0,0-5.12-6.79,6.78,6.78,0,0,0-1.31-.25c-.29,0-.36,0-.55,0a5.43,5.43,0,0,0-.67,0,5.59,5.59,0,0,0-2.4.87,3.75,3.75,0,0,0-.57.47,26.26,26.26,0,0,1,.26-4.8,11.6,11.6,0,0,1,.83-3.07c.4-.91.95-1.37,1.23-1.39a6.44,6.44,0,0,1,5.4,1.3,14.06,14.06,0,0,1,3.87,5.1l.05.12a1.78,1.78,0,0,0,.73.78,27.67,27.67,0,0,0,.77,4.38,44.51,44.51,0,0,0,4.22,10.16c.87,1.58,1.81,3.11,2.74,4.62a31.84,31.84,0,0,1,2.49,4.42,10.54,10.54,0,0,1-1.25,9.4h0a.5.5,0,0,0-.15.45.49.49,0,0,0,.57.39l.13,0a11,11,0,0,0,4.55-2,8.44,8.44,0,0,0,3-4.32c1-3.44.44-6.85-.24-10s-1.71-6.12-2.52-9a35,35,0,0,1-1-4.29,15.77,15.77,0,0,1-.09-4.12,25.17,25.17,0,0,1,2.5-8.19c.27-.58.57-1.16.87-1.73l.37.07,1.85.42c1.23.29,2.46.6,3.71.87,2.47.59,5,1.16,7.43,1.82s4.93,1.43,7.37,2.25,4.87,1.7,7.33,2.62a45.29,45.29,0,0,0-6.4-4.6c-2.25-1.38-4.59-2.61-6.95-3.8s-4.77-2.29-7.25-3.24c-1.22-.5-2.47-.93-3.74-1.33l-.65-.21.59-.87c.85-1.31,1.77-2.38,2.69-4.08a29.35,29.35,0,0,0,1.92-4.62,61.39,61.39,0,0,0,2-8.15,82.21,82.21,0,0,1,9.91-1.6,111.21,111.21,0,0,1,11.25-.56A121.75,121.75,0,0,1,369.14,77a1.82,1.82,0,0,0,.95-.07h0c3.9-1.37,7.94-2.58,12-3.57a60.67,60.67,0,0,1,11.23-1.82,25.2,25.2,0,0,1,1.63,2.58,40.81,40.81,0,0,1,1.76,3.72,48.12,48.12,0,0,1,2.43,8,70.05,70.05,0,0,1,1.44,16.76v0h0v0a1.83,1.83,0,0,0,1.09,1.78,1.85,1.85,0,0,0,1.74-.19h0a1.73,1.73,0,0,0,.35-.31,1.91,1.91,0,0,0,.28-.4l.05-.06v0h0l0-.09a14.81,14.81,0,0,1,1.51-2.67s0,0,0,0A12.06,12.06,0,0,1,408,98.08a6.42,6.42,0,0,1,5.51-1.36c.36,0,.92.55,1.33,1.48a12.86,12.86,0,0,1,.84,3.11,26.81,26.81,0,0,1,.23,4.93,4.32,4.32,0,0,0-.69-.58,5.42,5.42,0,0,0-2.39-.87,4.08,4.08,0,0,0-.67-.05,3.65,3.65,0,0,0-.56,0,6.93,6.93,0,0,0-1.31.25,7.58,7.58,0,0,0-5.11,6.78c1.33-.67,2.39-1.35,3.42-1.93a14.76,14.76,0,0,1,2.78-1.31c.19-.06.46-.13.57-.15a3.32,3.32,0,0,1,.41-.07l.29,0a6.66,6.66,0,0,1,1.34,0,3.73,3.73,0,0,1,1.7.65A35.51,35.51,0,0,1,411.71,122a16,16,0,0,1-4.37,5.21,8.84,8.84,0,0,1-5.82,1.75,46.86,46.86,0,0,0-.83-8.22,63.86,63.86,0,0,0-2.1,8.47c-.3,1.41-.49,2.82-.76,4.21l-.36,2.05c-.06.33-.13.67-.19.94l0,.13v0s0,0,0,0l-.13.2a12.68,12.68,0,0,1-2.67,2.45,35.2,35.2,0,0,1-3.43,2.2,61.72,61.72,0,0,1-7.51,3.6,114.3,114.3,0,0,1-32.81,7.32A88.44,88.44,0,0,1,317.42,149.09Zm-5.8,64.77a4.5,4.5,0,0,1-4.32-.36,11.33,11.33,0,0,1-2.83-4.49,31.11,31.11,0,0,1-1-3c1.2.73,2.42,1.43,3.66,2.11,2.33,1.27,4.74,2.43,7.21,3.48A6.25,6.25,0,0,1,311.62,213.86Zm10.79-4.74c0,.37,0,.74,0,1.11a67,67,0,0,1-13.76-5.1c-2.63-1.3-5.22-2.72-7.75-4.24-2.18-1.3-4.35-2.68-6.43-4.11l31.24-41.42c1.3.27,2.61.51,3.92.71,2.62,3.23,5.36,6.32,8.18,9.35a71.23,71.23,0,0,0,8.62,8c-.39.58-.77,1.17-1.17,1.76-1.26,1.84-2.56,3.65-3.88,5.45s-2.62,3.61-4,5.36c-2.4,3.09-4.89,6.11-7.5,9-1.07-.08-2.14-.18-3.22-.28,0-1.13-.05-2.27-.08-3.41a111.6,111.6,0,0,0-1.91-17.76,110.46,110.46,0,0,0-1.91,17.76Q322.5,200.25,322.41,209.12Zm.17,28.33c-3.37-.26-6.74-.55-10.09-.92,3.36-.54,6.7-1.17,10-1.86,1.45-.29,2.89-.6,4.33-.93,1.6-.37,3.2-.74,4.8-1.14a241.58,241.58,0,0,0,24.29-7.51,208,208,0,0,0,23.34-10.18l.88-.47,1.25-.67a141.6,141.6,0,0,0,19-11.85l.72.39c.64.34,1.25.71,1.88,1.06a110,110,0,0,1-11.31,9.51c-2.17,1.6-4.4,3.15-6.65,4.66l-1.44,1c-2.1,1.38-4.21,2.74-6.37,4a282.8,282.8,0,0,1-30.63,16q-9.92-.15-19.81-.77h-.05Zm22.23,10.11a3,3,0,0,1-1.32,1.29,5.67,5.67,0,0,1-2.11.56c-.88.05-1.89.05-2.82.07-3.83.06-7.65.15-11.48.15l-5.74,0-2.86,0a1.22,1.22,0,0,1-.34,0,4.34,4.34,0,0,1,1.4-1.47,8.76,8.76,0,0,1,2.24-1.14,10.31,10.31,0,0,1,2.84-.57h1.44c.27,0,1.39,0,1.48,0h17.63A2.9,2.9,0,0,1,344.81,247.56Zm67.58-4.88a56.43,56.43,0,0,1-8.31.13,74.53,74.53,0,0,0-12.59-3.14,76.73,76.73,0,0,0-13.29-1A94.66,94.66,0,0,0,365,239.76c-2.2.32-4.38.74-6.56,1.27a50.44,50.44,0,0,0-6.07,1.77H326.6c0-.92.08-1.85.11-2.77q10.05,1,20.17,1.48a1.41,1.41,0,0,0,.6-.1l0,0c5.4-2.41,10.65-5,15.89-7.68,3.9-2,7.74-4.14,11.55-6.32a19,19,0,0,0,1.79,3.84,15.87,15.87,0,0,0,3.74,4.39,15.89,15.89,0,0,0-2.16-5.35,18.24,18.24,0,0,0-2.57-3.34c1-.59,2.06-1.16,3.07-1.76q3.51-2.11,7-4.32c.86.9,1.73,1.79,2.61,2.66a99.22,99.22,0,0,0,17.67,13.84c-5.54-5-11.08-10-16.38-15.17-.8-.77-1.57-1.55-2.36-2.33,2.13-1.39,4.24-2.81,6.31-4.29,3.13-2.25,6.2-4.63,9.16-7.16l32.26,27.41a86.07,86.07,0,0,1-14.23,5.57A71.29,71.29,0,0,1,412.39,242.68Zm28,7-3.35,0c-4.47,0-8.92,0-13.38-.14l-3.34-.05a8.78,8.78,0,0,1-2.86-.33,3.4,3.4,0,0,1-1.81-1.3,3,3,0,0,1-.45-1,3.86,3.86,0,0,1-.12-1v-.06a63.17,63.17,0,0,0,6.52-1.3c1.25-.32,2.49-.71,3.72-1.12a19.15,19.15,0,0,0,6.74,2.24c1.24.17,2.52,0,3.42.11a9.14,9.14,0,0,1,2.85.62,7.06,7.06,0,0,1,2.35,1.5,3.31,3.31,0,0,1,1.07,1.91Z"/><path d="M330.81,108.67a44.89,44.89,0,0,0-6.11-.4,46.59,46.59,0,0,0-6.12.4,29,29,0,0,0-6.11,1.45,29,29,0,0,0,6.11,1.46,48.37,48.37,0,0,0,6.12.4,46.55,46.55,0,0,0,6.11-.4,27.82,27.82,0,0,0,6.11-1.46A28.37,28.37,0,0,0,330.81,108.67Z"/><path d="M381,108.27a58.61,58.61,0,0,0-6.87.4,35.82,35.82,0,0,0-6.87,1.45,35.85,35.85,0,0,0,6.87,1.46,60.87,60.87,0,0,0,6.87.4,58.57,58.57,0,0,0,6.86-.4,34.39,34.39,0,0,0,6.87-1.46,35.07,35.07,0,0,0-6.87-1.45A56.48,56.48,0,0,0,381,108.27Z"/><path d="M373.55,93.18a45.51,45.51,0,0,1,15.63-8.46,4.2,4.2,0,0,0,.77-.29s-1-3.58-6.49-2.54A7.23,7.23,0,0,0,386,76.4l-.07,0a43,43,0,0,0-8.86,5.81,54.62,54.62,0,0,0-7.13,7.31,72.65,72.65,0,0,0-5.71,8.17,41.58,41.58,0,0,0-4.13,8.93C364.43,101.77,368.63,97,373.55,93.18Z"/><path d="M413.29,225.35c-4.62-2.86-9.2-5.76-14-8.39a82.33,82.33,0,0,0,13.05,10,58.59,58.59,0,0,0,14.88,7C422.46,231.08,417.9,228.23,413.29,225.35Z"/><path d="M344.63,107.92a7,7,0,0,0,1.7-2.87,9.54,9.54,0,0,0,.4-3.36,10.31,10.31,0,0,0-.79-3.26,7.5,7.5,0,0,0-1.89-2.73,60.33,60.33,0,0,1,.82,6.11A32,32,0,0,1,344.63,107.92Z"/><path d="M355.22,105a5.71,5.71,0,0,0,2.73,1.64,18.16,18.16,0,0,1-2.64-5A35,35,0,0,1,354.13,96a6.43,6.43,0,0,0-.95,3,8.16,8.16,0,0,0,.37,3.2A7.34,7.34,0,0,0,355.22,105Z"/><path class="cls-8" d="M340.33,57.22a18.25,18.25,0,0,0-6.64-3.62,19.27,19.27,0,0,0-15.42,1.22,17.26,17.26,0,0,0-6.1,5.41,18.32,18.32,0,0,0-2.91,7.37,37.27,37.27,0,0,0-.43,7.56,18.16,18.16,0,0,1-.85,6.48c-1,4.32-2.81,8.65-4.16,13.22a37.69,37.69,0,0,0-1.43,7.1,26.33,26.33,0,0,0,.36,7.25c.93,4.78,3.13,9,5.2,13.18a49.44,49.44,0,0,1,2.89,6.29,16.9,16.9,0,0,1,.82,3.35,6.26,6.26,0,0,1-.35,3.4A6.47,6.47,0,0,0,312,132a17.35,17.35,0,0,0-.55-3.5,42.05,42.05,0,0,0-2.44-6.6c-1.81-4.27-3.69-8.56-4.27-13a24.11,24.11,0,0,1,.07-6.68,34.79,34.79,0,0,1,1.75-6.48c1.53-4.29,3.65-8.46,5-13.16a36,36,0,0,0,1-7.33A19.32,19.32,0,0,1,314.1,69a23.06,23.06,0,0,1,7.16-9.2,15.56,15.56,0,0,1,5.38-2.23,20.66,20.66,0,0,1,6.21-.17,19.18,19.18,0,0,1,6.2,1.69,11.77,11.77,0,0,1,5,4.37A10.74,10.74,0,0,0,340.33,57.22Z"/><path class="cls-8" d="M382.27,50.61a66.45,66.45,0,0,0-24.63-8.11,72.42,72.42,0,0,0-25.87,1.59A47,47,0,0,0,319.7,49c-3.68,2.25-7.21,5-9.46,8.65a34.55,34.55,0,0,1,10.66-6.21,57.39,57.39,0,0,1,11.77-3.11,82,82,0,0,1,12.14-1c3.1,0,6.27.06,9.36.34a43,43,0,0,1,.17,4.81c0,2.09-.14,4.18-.31,6.26s-.36,3.9-.59,5.84a39.26,39.26,0,0,0-2.92-4.6,33,33,0,0,0-8.76-8.2A31.74,31.74,0,0,1,349,61a36.16,36.16,0,0,1,2.27,5.29,31.14,31.14,0,0,1,1.28,5.14s0,0,0,.06a1.85,1.85,0,0,0,1,1.65l.08,0,.14.06a1.81,1.81,0,0,0,1.24.07,1.84,1.84,0,0,0,1.28-2.15c0-4.16-.06-8.26-.33-12.38-.14-2.12-.33-4.24-.61-6.34a46.65,46.65,0,0,0-.86-4.72c.85.08,1.71.17,2.55.28a82.47,82.47,0,0,1,23.37,6.47A95.45,95.45,0,0,1,401.5,67.41,58.85,58.85,0,0,0,382.27,50.61Z"/><path class="cls-8" d="M362,68.28c.31-2.17.56-4.32.72-6.5.12-1.67.19-3.34.16-5a22.25,22.25,0,0,0-.56-5,21.3,21.3,0,0,1-.14,4.92c-.2,1.63-.49,3.24-.84,4.84A93.33,93.33,0,0,1,358.71,71v0c0,.06,0,.12-.05.18a1.4,1.4,0,0,0,1.13,1.62,1.32,1.32,0,0,0,.74-.07,1,1,0,0,0,1-.21,28.62,28.62,0,0,0,3.36-4,39.69,39.69,0,0,0,2.73-4.46c1.59-3.09,3-6.46,3.11-10a74.8,74.8,0,0,1-5.17,8.79C364.32,64.67,363.11,66.46,362,68.28Z"/><path class="cls-8" d="M328.43,24.91a12.16,12.16,0,0,1,1.36-4.06c.43-.75.74-1.34,1.16-2a19.33,19.33,0,0,1,1.3-1.78c3.58-4.48,8.95-6.46,14.83-7l.29.38a15.43,15.43,0,0,1,1.17,1.89,20.06,20.06,0,0,1,1.67,4.32,32.29,32.29,0,0,1,.91,9.66,33.41,33.41,0,0,0,1.28-10,23.31,23.31,0,0,0-.68-4.86,16.78,16.78,0,0,1,1.4,1.62,18.14,18.14,0,0,1,2.56,4.9,25,25,0,0,1,.86,11.55,26.26,26.26,0,0,0,1.3-12.06,21.18,21.18,0,0,0-1.87-6.1c-.17-.33-.36-.66-.54-1l.77.17a27.3,27.3,0,0,1,8.08,3.53,18,18,0,0,1,6,6.39,15.22,15.22,0,0,1,1.55,9.07,13.78,13.78,0,0,0,.92-10,18.62,18.62,0,0,0-5.87-8.78,25.87,25.87,0,0,0-9.24-5.17,24.19,24.19,0,0,0-5.31-1.09,33.26,33.26,0,0,0-5.29,0,27.62,27.62,0,0,0-10.33,2.66,19.66,19.66,0,0,0-8,7.35A23.33,23.33,0,0,0,327.42,17a17.85,17.85,0,0,0-1,2.42,15,15,0,0,0-.76,5.41,18,18,0,0,0,3.43,9.49A22,22,0,0,1,328.43,24.91Z"/></g></g></svg>