<svg width="56" height="56" viewBox="0 0 56 56" fill="none" xmlns="http://www.w3.org/2000/svg">
<path d="M29.9529 3.23587C32.9855 9.44813 35.0121 16.0721 36.0097 22.9335L41.5385 25.7701V23.6667C41.5385 21.2773 43.4364 19.3333 45.7692 19.3333C48.1021 19.3333 50 21.2773 50 23.6667V37.5333C50 39.9227 48.1021 41.8667 45.7692 41.8667C43.4364 41.8667 41.5385 39.9227 41.5385 37.5333V36.3763L36.4201 33.7547C36.3168 35.4975 35.7296 37.1061 34.7658 38.4234C34.7658 38.4295 34.7692 38.4347 34.7692 38.4407V40.3613C34.7692 42.0651 34.127 43.6199 33.0769 44.8081V46.3751C33.0769 49.1683 30.7999 51.4407 28 51.4407C25.2001 51.4407 22.9231 49.1683 22.9231 46.3751V44.8081C21.873 43.6199 21.2308 42.0651 21.2308 40.3613V38.4407C21.2308 38.4347 21.2342 38.4295 21.2342 38.4234C20.2704 37.1061 19.6832 35.4975 19.5799 33.7547L14.4615 36.3763V37.5333C14.4615 39.9227 12.5636 41.8667 10.2308 41.8667C7.89792 41.8667 6 39.9227 6 37.5333L6 23.6667C6 21.2773 7.89792 19.3333 10.2308 19.3333C12.5636 19.3333 14.4615 21.2773 14.4615 23.6667V25.764L19.9954 22.8988C20.9947 16.0487 23.0195 9.43687 26.0462 3.23587C26.4194 2.47407 27.1682 2 28 2C28.8318 2 29.5806 2.47407 29.9529 3.23587ZM36.3016 25.023L36.4539 26.193C36.459 26.2303 36.4615 26.2693 36.4615 26.3074V27.5043L41.5385 30.1043V27.7088L36.3016 25.023ZM43.2308 37.5333C43.2308 38.9677 44.3697 40.1333 45.7692 40.1333C47.1688 40.1333 48.3077 38.9677 48.3077 37.5333V23.6667C48.3077 22.2332 47.1688 21.0667 45.7692 21.0667C44.3697 21.0667 43.2308 22.2332 43.2308 23.6667V27.1741V35.8407V37.5333ZM41.5385 34.4376V32.043L36.4615 29.443V31.8376L41.5385 34.4376ZM24.6154 46.1939V46.3751C24.6154 48.2124 26.1334 49.7074 28 49.7074C29.8666 49.7074 31.3846 48.2124 31.3846 46.3751V46.1939C30.3878 46.7711 29.2337 47.1074 28 47.1074C26.7663 47.1074 25.6122 46.7711 24.6154 46.1939ZM22.9231 40.3613C22.9231 43.1251 25.2001 45.3741 28 45.3741C30.7999 45.3741 33.0769 43.1251 33.0769 40.3613V40.1567C31.6605 41.2505 29.9055 41.9074 28 41.9074C26.0945 41.9074 24.3395 41.2505 22.9231 40.1567V40.3613ZM28 40.1741C31.7324 40.1741 34.7692 37.0636 34.7692 33.2407V32.3515C33.2242 34.4645 30.7695 35.8407 28 35.8407C25.2305 35.8407 22.775 34.4645 21.2308 32.3515V33.2407C21.2308 37.0636 24.2676 40.1741 28 40.1741ZM19.5385 31.8376V29.443L14.4615 32.043V34.4376L19.5385 31.8376ZM12.7692 23.6667C12.7692 22.2332 11.6303 21.0667 10.2308 21.0667C8.83123 21.0667 7.69231 22.2332 7.69231 23.6667L7.69231 37.5333C7.69231 38.9677 8.83123 40.1333 10.2308 40.1333C11.6303 40.1333 12.7692 38.9677 12.7692 37.5333V35.8407L12.7692 27.1741V23.6667ZM14.4615 27.7062V30.1043L19.5385 27.5043V26.3074C19.5385 26.2693 19.541 26.2303 19.5461 26.193L19.7018 24.9927L14.4615 27.7062ZM27.56 4.01153C24.4665 10.3503 22.434 17.1268 21.5185 24.1529L21.2308 26.3646V27.1741C21.2308 30.9969 24.2676 34.1074 28 34.1074C31.7324 34.1074 34.7692 30.9969 34.7692 27.1741V26.3646L34.4815 24.152C33.566 17.1268 31.5335 10.3503 28.4392 4.01153C28.3173 3.7602 28.0914 3.73333 28 3.73333C27.9086 3.73333 27.6827 3.7602 27.56 4.01153ZM12.5357 43.0687C12.7303 42.8122 13.0493 42.6883 13.3615 42.7489C13.6738 42.8096 13.9268 43.0445 14.0165 43.3565C14.3075 44.3765 14.4615 45.5266 14.4615 46.6845C14.4615 50.7864 12.6034 54 10.2308 54C7.85815 54 6 50.7864 6 46.6845C6 45.5266 6.154 44.3765 6.44508 43.3565C6.53477 43.0445 6.78777 42.8096 7.1 42.7489C7.41223 42.6883 7.73123 42.8122 7.92585 43.0687L9.82462 45.576C9.84915 45.602 9.99469 45.68 10.2308 45.68C10.4668 45.68 10.6124 45.602 10.6378 45.5734L12.5357 43.0687ZM11.9738 46.6385C11.6058 47.1239 10.9542 47.4133 10.2308 47.4133C9.50646 47.4133 8.85577 47.1239 8.48769 46.6385L7.73969 45.6505C7.70838 45.9903 7.69231 46.3361 7.69231 46.6845C7.69231 49.9743 9.03008 52.2667 10.2308 52.2667C11.4315 52.2667 12.7692 49.9743 12.7692 46.6845C12.7692 46.3361 12.7532 45.9903 12.7218 45.6505L11.9738 46.6385ZM41.5385 46.6845C41.5385 45.5266 41.6925 44.3765 41.9835 43.3565C42.0732 43.0445 42.3262 42.8096 42.6385 42.7489C42.9507 42.6883 43.2697 42.8122 43.4643 43.0687L45.3631 45.576C45.3876 45.602 45.5332 45.68 45.7692 45.68C46.0053 45.68 46.1508 45.602 46.1762 45.5734L48.0733 43.0687C48.2688 42.8122 48.5878 42.6883 48.9 42.7489C49.2122 42.8096 49.4652 43.0445 49.5549 43.3565C49.846 44.3765 50 45.5266 50 46.6845C50 50.7864 48.1418 54 45.7692 54C43.3966 54 41.5385 50.7864 41.5385 46.6845ZM48.3077 46.6845C48.3077 46.3361 48.2916 45.9903 48.2603 45.6505L47.5115 46.6385C47.1442 47.1239 46.4927 47.4133 45.7692 47.4133C45.0449 47.4133 44.3942 47.1239 44.0262 46.6385L43.2782 45.6505C43.246 45.9903 43.2308 46.3361 43.2308 46.6845C43.2308 49.9743 44.5685 52.2667 45.7692 52.2667C46.9699 52.2667 48.3077 49.9743 48.3077 46.6845Z" fill="#162B44"/>
</svg>
