<svg width="56" height="56" viewBox="0 0 56 56" fill="none" xmlns="http://www.w3.org/2000/svg">
<path d="M52.3 50H3.7C2.2114 50 1 48.7671 1 47.2501V8.74994C1 7.23381 2.2114 6 3.7 6H52.3C53.7886 6 55 7.23381 55 8.74994V47.2501C55 48.7671 53.7886 50 52.3 50ZM53.2 8.74994C53.2 8.24487 52.7959 7.83421 52.3 7.83421H3.7C3.2041 7.83421 2.8 8.24487 2.8 8.74994V47.2501C2.8 47.756 3.2041 48.1667 3.7 48.1667H52.3C52.7959 48.1667 53.2 47.756 53.2 47.2501V8.74994ZM34.3 44.5001C25.8634 44.5001 19 37.5098 19 28.9171C19 20.3245 25.8634 13.3341 34.3 13.3341C42.7366 13.3341 49.6 20.3245 49.6 28.9171C49.6 37.5098 42.7366 44.5001 34.3 44.5001ZM20.8 28.9171C20.8 36.4987 26.8561 42.6668 34.3 42.6668C39.7171 42.6668 44.3863 39.3926 46.5346 34.692L33.9769 29.7723C33.7303 29.6761 33.5386 29.4744 33.4513 29.2205C33.3631 28.9675 33.3892 28.687 33.5224 28.4551L40.3012 16.6184C38.4904 15.6981 36.4573 15.1674 34.3 15.1674C26.8561 15.1674 20.8 21.3355 20.8 28.9171ZM41.8618 17.5333L35.6104 28.4487L47.1952 32.987C47.5876 31.7 47.8 30.3333 47.8 28.9171C47.8 24.1872 45.442 20.0082 41.8618 17.5333ZM21.7 13.3341H7.3C6.8032 13.3341 6.4 12.9234 6.4 12.4174C6.4 11.9105 6.8032 11.5008 7.3 11.5008H21.7C22.1968 11.5008 22.6 11.9105 22.6 12.4174C22.6 12.9234 22.1968 13.3341 21.7 13.3341ZM7.3 15.1674H14.5C14.9968 15.1674 15.4 15.5771 15.4 16.084C15.4 16.59 14.9968 17.0007 14.5 17.0007H7.3C6.8032 17.0007 6.4 16.59 6.4 16.084C6.4 15.5771 6.8032 15.1674 7.3 15.1674ZM7.3 26.1672H10.9C11.3968 26.1672 11.8 26.5778 11.8 27.0838C11.8 27.5898 11.3968 28.0005 10.9 28.0005H7.3C6.8032 28.0005 6.4 27.5898 6.4 27.0838C6.4 26.5778 6.8032 26.1672 7.3 26.1672ZM7.3 29.8338H10.9C11.3968 29.8338 11.8 30.2444 11.8 30.7504C11.8 31.2564 11.3968 31.667 10.9 31.667H7.3C6.8032 31.667 6.4 31.2564 6.4 30.7504C6.4 30.2444 6.8032 29.8338 7.3 29.8338Z" fill="#162B44"/>
</svg>
