<svg width="56" height="56" viewBox="0 0 56 56" fill="none" xmlns="http://www.w3.org/2000/svg">
<path d="M47.5068 19.6902C47.3331 19.5106 47.227 19.2648 47.227 19.019C47.227 18.7732 47.3331 18.5274 47.5068 18.3477C47.8736 17.9979 48.5095 17.9979 48.8772 18.3477C49.0499 18.5274 49.157 18.7732 49.157 19.019C49.157 19.2648 49.0499 19.5106 48.8772 19.6902C48.6938 19.8595 48.4429 19.9644 48.192 19.9644C47.9411 19.9644 47.6902 19.8595 47.5068 19.6902ZM51.8958 49.7351C51.5879 50.8895 50.6547 51.7536 49.46 51.9919C44.8608 52.908 37.3915 54 27.9266 54C18.26 54 10.9509 52.9269 6.52151 52.0269C5.32585 51.7839 4.3975 50.9132 4.09834 49.7541C3.79919 48.594 4.19388 47.3952 5.12802 46.6237C8.33671 43.9756 12.6716 42.1792 18.0091 41.2839C18.3903 41.109 19.3167 39.4555 18.7348 37.4464C18.3063 36.6504 15.8436 31.9497 15.4672 28.4601C13.2274 26.8557 13.1068 22.865 13.1068 22.034C13.1068 20.8238 13.8827 19.9947 14.4453 19.4624C14.3883 19.175 14.3459 18.9689 14.3054 18.7732C14.2253 18.3846 14.1529 18.0348 14.0004 17.2047C13.8016 16.455 13.7408 15.1824 14.4163 14.3599V8.95011L7.48074 7.65582C7.02525 7.57073 6.69617 7.18026 6.69617 6.72646C6.69617 6.27265 7.02525 5.88313 7.48074 5.79804L27.7452 2.01631C27.8639 1.99456 27.9874 1.99456 28.1061 2.01631L48.3725 5.79804C48.4149 5.8056 48.4497 5.82829 48.4892 5.84153C48.5327 5.85571 48.5742 5.86895 48.6147 5.88786C48.6842 5.92189 48.744 5.96444 48.8019 6.01171C48.8337 6.03818 48.8675 6.06087 48.8955 6.09113C48.9515 6.14974 48.993 6.21687 49.0316 6.28777C49.0489 6.31992 49.0711 6.34639 49.0847 6.37948C49.129 6.48821 49.157 6.6045 49.157 6.72646C49.157 6.7274 49.157 6.7274 49.157 6.7274V6.72835V16.2611C49.157 16.784 48.7247 17.2066 48.192 17.2066C47.6593 17.2066 47.227 16.784 47.227 16.2611V7.86948L41.4369 8.95011V14.3722C41.4369 14.4043 41.4127 14.4327 41.4079 14.4639C41.4436 14.5026 41.488 14.5424 41.517 14.5802C42.2475 15.5275 41.8962 16.9107 41.8181 17.1782L41.7042 17.8239C41.5836 18.4848 41.5295 18.7826 41.3992 19.4614C41.9618 19.9928 42.7387 20.8229 42.7387 22.034C42.7387 22.8499 42.619 26.7848 40.3802 28.4459C40.0106 31.9185 37.5594 36.5955 37.1088 37.4313C36.605 39.5093 37.4658 41.1119 37.8663 41.2934C43.2617 42.0809 47.6641 43.8725 50.9008 46.6077C51.8205 47.3848 52.2026 48.5836 51.8958 49.7351ZM43.034 6.72646L27.9256 3.90717L12.8183 6.72646L27.9256 9.54574L43.034 6.72646ZM22.619 19.9644C24.1206 19.9644 25.4465 20.716 26.2262 21.8553H29.627C30.4067 20.716 31.7317 19.9644 33.2342 19.9644C34.6171 19.9644 35.8369 20.613 36.633 21.6028L39.4181 19.5569C39.6101 18.551 39.6612 18.2711 39.805 17.4902L39.9401 16.7509C40.0656 16.2886 40.0579 15.8225 39.9768 15.7194C39.9797 15.7232 39.9488 15.7185 39.9044 15.7147C36.7614 16.9948 29.6955 17.5063 27.9266 17.5063C26.3613 17.5063 19.0272 16.974 15.8754 15.658C15.7741 15.9142 15.7953 16.4465 15.8861 16.8057C16.0491 17.6793 16.1196 18.0197 16.1978 18.3988C16.2566 18.6881 16.3213 19.0038 16.4265 19.5503L19.2202 21.6028C20.0154 20.613 21.2352 19.9644 22.619 19.9644ZM20.2064 24.2189C20.2064 25.5217 21.2892 26.5824 22.619 26.5824C23.9488 26.5824 25.0315 25.5217 25.0315 24.2189C25.0315 22.9161 23.9488 21.8553 22.619 21.8553C21.2892 21.8553 20.2064 22.9161 20.2064 24.2189ZM30.8217 24.2189C30.8217 25.5217 31.9034 26.5824 33.2342 26.5824C34.564 26.5824 35.6468 25.5217 35.6468 24.2189C35.6468 22.9161 34.564 21.8553 33.2342 21.8553C31.9034 21.8553 30.8217 22.9161 30.8217 24.2189ZM39.5068 13.8824V9.31032L28.1061 11.4375C28.0472 11.4489 27.9864 11.4536 27.9256 11.4536C27.8658 11.4536 27.805 11.4489 27.7452 11.4375L16.3464 9.31032V13.8938C17.7727 14.4696 23.3437 15.6154 27.9266 15.6154C32.4564 15.6154 37.6897 14.5717 39.3264 13.977C39.3843 13.9411 39.4402 13.9061 39.5068 13.8824ZM38.4907 27.8654C38.5061 27.5345 38.6972 27.2357 38.9934 27.0778C40.2402 26.4151 40.8086 23.9986 40.8086 22.034C40.8086 21.7267 40.6349 21.4487 40.4111 21.1906L37.4822 23.3424C37.543 23.6261 37.5768 23.9182 37.5768 24.2189C37.5768 26.5645 35.6284 28.4733 33.2342 28.4733C30.839 28.4733 28.8916 26.5645 28.8916 24.2189C28.8916 24.0572 28.9225 23.9031 28.9399 23.7461H26.9124C26.9307 23.9031 26.9616 24.0572 26.9616 24.2189C26.9616 26.5645 25.0132 28.4733 22.619 28.4733C20.2238 28.4733 18.2764 26.5645 18.2764 24.2189C18.2764 23.9182 18.3102 23.6261 18.371 23.3424L15.4373 21.1878C15.2125 21.4468 15.0368 21.7257 15.0368 22.034C15.0368 23.7017 15.5136 26.4189 16.825 27.0646C17.1367 27.2178 17.3394 27.5231 17.3558 27.8644C17.5005 30.8965 19.9526 35.6444 20.4187 36.5218C24.1746 39.827 25.9319 40.3423 26.4849 40.4151C26.8052 40.2922 27.3572 40.1144 28.081 40.1144C28.7758 40.1144 29.3288 40.2704 29.6521 40.3829C30.4993 40.0672 33.3336 38.598 35.4016 36.5473C35.8301 35.7475 38.3449 30.9295 38.4907 27.8654ZM20.1099 41.664C20.5867 42.7493 23.6332 45.3729 27.9662 45.3729C32.2692 45.3729 34.9925 42.8893 35.7606 41.6914C35.4238 41.0911 35.1469 40.2959 35.0552 39.3571C32.8241 41.074 30.3324 42.3173 29.6038 42.3173C29.4108 42.3173 29.2699 42.2634 29.157 42.2199C28.9901 42.1556 28.5983 42.0053 28.081 42.0053C27.6014 42.0053 27.2646 42.1433 27.1025 42.2104C26.9925 42.2558 26.8419 42.3173 26.6364 42.3173C25.0373 42.3173 22.811 40.9124 20.8173 39.3382C20.7295 40.2647 20.4506 41.0646 20.1099 41.664ZM49.6395 48.039C46.6837 45.5422 42.6094 43.8971 37.5305 43.1502C37.4031 43.1322 37.2786 43.0916 37.1551 43.0443C35.8349 44.7886 32.6629 47.2638 27.9662 47.2638C23.4682 47.2638 20.0212 44.8643 18.7058 43.0311C18.5833 43.0812 18.4598 43.1266 18.3343 43.1474C13.3394 43.985 9.31427 45.6414 6.37193 48.0693C6.00136 48.3756 5.85082 48.8313 5.96951 49.2908C6.08725 49.7484 6.44044 50.0793 6.9133 50.1757C11.254 51.0578 18.4231 52.1091 27.9266 52.1091C37.2313 52.1091 44.5635 51.038 49.075 50.1389C49.5498 50.0443 49.9059 49.7153 50.0284 49.2577C50.1491 48.802 50.0043 48.3473 49.6395 48.039ZM29.8566 35.0913H25.9966C25.4639 35.0913 25.0315 34.6678 25.0315 34.1459C25.0315 33.624 25.4639 33.2005 25.9966 33.2005H29.8566C30.3893 33.2005 30.8217 33.624 30.8217 34.1459C30.8217 34.6678 30.3893 35.0913 29.8566 35.0913Z" fill="#162B44"/>
</svg>
