<svg width="56" height="56" viewBox="0 0 56 56" fill="none" xmlns="http://www.w3.org/2000/svg">
<path d="M28 4C14.7472 4 4 14.7472 4 28C4 41.2528 14.7472 52 28 52C41.2528 52 52 41.2528 52 28C52 14.7472 41.2528 4 28 4ZM21.0259 40.2812H15.1808V22.6962H21.0259V40.2812ZM18.1035 20.2949H18.0654C16.104 20.2949 14.8354 18.9447 14.8354 17.2572C14.8354 15.5316 16.1428 14.2188 18.1423 14.2188C20.1418 14.2188 21.3723 15.5316 21.4104 17.2572C21.4104 18.9447 20.1418 20.2949 18.1035 20.2949ZM42.1021 40.2812H36.2577V30.8737C36.2577 28.5094 35.4114 26.897 33.2965 26.897C31.6819 26.897 30.7202 27.9846 30.2976 29.0345C30.1431 29.4103 30.1053 29.9354 30.1053 30.4609V40.2812H24.2606C24.2606 40.2812 24.3372 24.3459 24.2606 22.6962H30.1053V25.186C30.8821 23.9878 32.2719 22.2834 35.3729 22.2834C39.2185 22.2834 42.1021 24.7968 42.1021 30.198V40.2812Z" fill="#365272"/>
</svg>
