<svg width="1400" height="331" viewBox="0 0 1400 331" fill="none" xmlns="http://www.w3.org/2000/svg">
<g clip-path="url(#clip0)">
<path d="M1399.31 0H0.310303V330.764H1399.31V0Z" fill="#112339"/>
<path d="M1397.69 0H-0.310303V343.754H1397.69V0Z" fill="#031A32"/>
<path d="M1399 -45.8673H983.098L1399 370.135V-45.8673Z" fill="#1B2B4A"/>
<path d="M675.817 -45.8673V397.916H1175.26L731.577 -45.8673H675.817Z" fill="#031A32"/>
<path d="M1408.99 489.65V340.657L1022.47 -45.8673H792.434L1327.95 489.65H1408.99Z" fill="#0C203E"/>
<path d="M792.434 -45.8673H731.577L1175.26 397.916H1236.12L792.434 -45.8673Z" fill="#021B35"/>
<path d="M675.817 556.403C763.348 556.403 834.304 485.445 834.304 397.916C834.304 310.386 763.348 239.429 675.817 239.429C588.288 239.429 517.33 310.386 517.33 397.916C517.33 485.445 588.288 556.403 675.817 556.403Z" fill="#0C203E"/>
<path d="M675.817 489.251C726.26 489.251 767.152 448.359 767.152 397.916C767.152 347.473 726.26 306.581 675.817 306.581C625.374 306.581 584.482 347.473 584.482 397.916C584.482 448.359 625.374 489.251 675.817 489.251Z" fill="#001B38"/>
<path d="M1004.28 325.867C1058.42 325.867 1102.31 281.978 1102.31 227.837C1102.31 173.697 1058.42 129.807 1004.28 129.807C950.142 129.807 906.253 173.697 906.253 227.837C906.253 281.978 950.142 325.867 1004.28 325.867Z" fill="#0C203E"/>
<path d="M1004.47 257.816C1020.75 257.816 1033.95 244.394 1033.95 227.837C1033.95 211.28 1020.75 197.859 1004.47 197.859C988.191 197.859 974.992 211.28 974.992 227.837C974.992 244.394 988.191 257.816 1004.47 257.816Z" fill="#021B35"/>
<path d="M1403.19 354.747C1450.37 354.747 1488.63 316.494 1488.63 269.308C1488.63 222.121 1450.37 183.869 1403.19 183.869C1356 183.869 1317.75 222.121 1317.75 269.308C1317.75 316.494 1356 354.747 1403.19 354.747Z" fill="#021B35"/>
<path d="M1004.28 227.837V397.916H834.304L1004.28 227.837Z" fill="#021B35"/>
<path d="M1004.28 397.916V227.837L1175.26 397.916H1004.28Z" fill="#001B38"/>
<path d="M1004.98 310.978V397.916H1091.92L1004.98 310.978Z" fill="#0B2441"/>
<path d="M917.644 397.916H1004.98V310.978L917.644 397.916Z" fill="#0C203E"/>
<path d="M1212.54 53.4709L1346.3 -80.2876L1212.54 -214.046L1078.79 -80.2876L1212.54 53.4709Z" fill="#001B38"/>
<path d="M1373.62 210.323L1507.37 76.5645L1373.62 -57.194L1239.85 76.5644L1373.62 210.323Z" fill="#0C203E"/>
<path d="M1373.61 114.22L1411.27 76.5591L1373.61 38.8976L1335.95 76.559L1373.61 114.22Z" fill="#021B35"/>
<path d="M1134.13 95.7148L1171.79 58.0532L1134.13 20.3917L1096.48 58.0533L1134.13 95.7148Z" fill="#021B35"/>
<path d="M792.446 155V-7.78381H767.164V155H792.446Z" fill="#1B2B4C"/>
<path d="M1115.05 312.891V276.217H1094.47V312.891H1115.05Z" fill="#1B2B4C"/>
<path d="M945.294 87.3127V16.6632H925.508V87.3127H945.294Z" fill="#1B2B4C"/>
<path d="M945.322 129.21V118.817H925.536V129.21H945.322Z" fill="#1B2B4C"/>
<path d="M677.516 -45.8673H357.245L677.516 274.404V-45.8673Z" fill="#1B2B4A"/>
<path d="M-29.9788 -45.8673V397.916H549.407L105.624 -45.8673H-29.9788Z" fill="#031A32"/>
<path d="M677.516 397.916V274.404L357.245 -45.8673H166.581L610.264 397.916H677.516Z" fill="#0C203E"/>
<path d="M317.762 388.822V265.31L-2.50882 -54.9608H-193.173L250.51 388.822H317.762Z" fill="#0C203E"/>
<path d="M166.581 -45.8673H105.625L549.407 397.916H610.264L166.581 -45.8673Z" fill="#021B35"/>
<path d="M49.9642 556.403C137.494 556.403 208.451 485.445 208.451 397.916C208.451 310.386 137.494 239.429 49.9642 239.429C-37.5656 239.429 -108.522 310.386 -108.522 397.916C-108.522 485.445 -37.5656 556.403 49.9642 556.403Z" fill="#0C203E"/>
<path d="M49.9644 489.251C100.407 489.251 141.299 448.359 141.299 397.916C141.299 347.473 100.407 306.581 49.9644 306.581C-0.4784 306.581 -41.3704 347.473 -41.3704 397.916C-41.3704 448.359 -0.4784 489.251 49.9644 489.251Z" fill="#001B38"/>
<path d="M378.43 325.867C432.57 325.867 476.46 281.978 476.46 227.837C476.46 173.697 432.57 129.807 378.43 129.807C324.289 129.807 280.4 173.697 280.4 227.837C280.4 281.978 324.289 325.867 378.43 325.867Z" fill="#0C203E"/>
<path d="M378.43 283.597C409.225 283.597 434.19 258.633 434.19 227.837C434.19 197.042 409.225 172.077 378.43 172.077C347.634 172.077 322.669 197.042 322.669 227.837C322.669 258.633 347.634 283.597 378.43 283.597Z" fill="#021B35"/>
<path d="M679.204 274.804C710.662 274.804 736.163 249.078 736.163 217.345C736.163 185.611 710.662 159.886 679.204 159.886C647.746 159.886 622.244 185.611 622.244 217.345C622.244 249.078 647.746 274.804 679.204 274.804Z" fill="#021B35"/>
<path d="M378.43 227.837V397.916H208.451L378.43 227.837Z" fill="#021B35"/>
<path d="M378.43 397.916V227.837L549.407 397.916H378.43Z" fill="#001B38"/>
<path d="M379.129 310.978V397.916H466.067L379.129 310.978Z" fill="#1B2B4A"/>
<path d="M291.792 397.916H379.129V310.978L291.792 397.916Z" fill="#0C203E"/>
<path d="M549.356 41.7346L666.368 -75.2776L549.356 -192.29L432.343 -75.2776L549.356 41.7346Z" fill="#001B38"/>
<path d="M690.258 178.992L807.27 61.9797L690.258 -55.0325L573.246 61.9797L690.258 178.992Z" fill="#0C203E"/>
<path d="M690.256 94.904L723.254 61.9061L690.256 28.9081L657.257 61.906L690.256 94.904Z" fill="#021B35"/>
<path d="M496.846 94.9255L529.844 61.9275L496.846 28.9294L463.849 61.9275L496.846 94.9255Z" fill="#021B35"/>
<path d="M166.57 273.804V112.919H141.588V273.804H166.57Z" fill="#1B2B4C"/>
<path d="M489.195 312.898V276.225H468.61V312.898H489.195Z" fill="#1B2B4C"/>
<path d="M319.434 87.3206V16.671H299.648V87.3206H319.434Z" fill="#1B2B4C"/>
<path d="M319.46 129.218V118.825H299.674V129.218H319.46Z" fill="#1B2B4C"/>
<path d="M166.57 86.9379V76.9451H141.588V86.9379H166.57Z" fill="#1B2B4C"/>
</g>
<defs>
<clipPath id="clip0">
<rect width="1400" height="330.764" fill="white"/>
</clipPath>
</defs>
</svg>
