<svg width="240" height="240" viewBox="0 0 240 240" fill="none" xmlns="http://www.w3.org/2000/svg">
<path d="M137.142 0C135.458 0 133.894 0.360912 132.45 0.842102C135.518 2.88721 137.202 5.59398 138.044 8.66164C138.105 9.08268 138.225 9.38345 138.285 9.80448C138.345 10.1654 138.405 10.5263 138.405 10.8872C138.646 16.1804 137.022 16.8421 135.879 19.9699C134.135 24 134.616 28.3308 136.721 31.8195C136.902 32.2405 137.142 32.7217 137.443 33.1428C135.157 17.9248 147.849 15.6391 150.195 10.8872C150.375 6.73683 146.947 3.96991 144.24 2.0451C141.653 0.481203 139.307 0 137.142 0ZM156.27 3.42857C156.029 4.81202 156.21 4.45112 156.15 5.17293C156.089 5.65412 156.089 6.25564 156.029 6.73683C155.909 7.21803 155.789 7.69922 155.608 8.18045C155.488 8.66164 155.308 9.14284 155.127 9.62403C154.886 10.1053 154.706 10.5263 154.466 11.0075C154.285 11.2482 154.165 11.4887 153.984 11.7293C153.864 11.9098 153.744 12.0902 153.623 12.2707C153.323 12.6917 153.022 13.1128 152.721 13.4737C152.36 13.8346 152.06 14.2556 151.638 14.5564C151.638 14.6166 151.638 14.6166 151.638 14.6166C151.278 14.9174 150.917 15.2783 150.496 15.579C149.232 16.5414 147.789 17.2632 146.466 18.1655C146.045 18.4662 145.623 18.7068 145.263 19.0677C144.842 19.3685 144.481 19.6692 144.12 20.0301C143.699 20.391 143.398 20.7519 143.037 21.173C142.736 21.5339 142.375 21.9549 142.135 22.376C141.834 22.797 141.533 23.2181 141.293 23.6391C141.052 24.1203 140.872 24.5414 140.631 25.0226C140.451 25.5038 140.27 25.9248 140.15 26.406C139.969 26.9474 139.849 27.4286 139.729 27.9098C139.669 28.1505 139.669 28.4511 139.609 28.6917C139.548 28.9324 139.548 29.1729 139.488 29.4136C139.488 29.8948 139.428 30.4361 139.428 30.9173C139.428 31.2782 139.428 31.6391 139.488 32C139.488 32.4812 139.549 32.9624 139.669 33.5038C139.729 33.985 139.849 34.4662 139.97 34.9474C140.15 35.4286 140.27 35.9098 140.451 36.391C140.571 36.6917 140.751 36.9925 140.872 37.2331L127.037 31.8797C124.691 31.2181 122.406 30.6166 120.06 30.0752C118.797 29.7745 117.534 29.4737 116.27 29.1729C112.661 28.4512 108.992 27.9098 105.323 27.5489C105.203 27.5489 105.143 27.4887 105.022 27.4887C101.413 27.1278 97.8644 26.9473 94.2554 26.9473C91.6087 26.9473 88.9621 27.0675 86.3757 27.2481C82.7065 27.4888 79.0373 27.9699 75.3682 28.5714C74.4659 28.6916 73.5637 28.8721 72.6614 29.0526C70.7967 29.4135 68.9922 29.8345 67.2479 30.2556C66.3456 30.4963 65.4434 30.7368 64.5411 30.9774C63.6389 31.3383 62.7968 31.7593 61.9546 32.1202C61.293 32.421 60.6313 32.7217 59.9697 33.0225C59.8495 33.0827 59.729 33.0827 59.669 33.1427C59.0674 33.4435 58.5261 33.684 57.9848 33.9848C57.8043 34.0451 57.684 34.105 57.5637 34.1653C56.902 34.466 56.2404 34.8269 55.699 35.1277C55.278 35.3081 54.8569 35.5487 54.496 35.7292C54.3156 35.8494 54.075 35.9699 53.9547 36.0299C53.4133 36.3307 52.872 36.6314 52.3908 36.9322C51.8494 37.2329 51.3682 37.5337 50.9472 37.8344C50.5261 38.1352 50.1051 38.3758 49.7441 38.6765C49.6839 38.7367 49.6239 38.7367 49.5637 38.7967C49.2028 39.0374 48.7818 39.3381 48.4209 39.6388C48.4209 39.6388 48.3606 39.6991 48.3006 39.7591C47.9999 39.9998 47.6991 40.2402 47.3984 40.4808C47.2782 40.5411 47.1577 40.6613 47.0375 40.7215C46.7367 40.9622 46.436 41.2629 46.1353 41.5035C46.075 41.6237 45.9548 41.6839 45.8946 41.7442C45.5336 42.1051 45.1727 42.4058 44.8118 42.7667C44.7516 42.7667 44.7516 42.827 44.6916 42.8869C44.3307 43.1877 43.9698 43.5486 43.6089 43.9095C43.5487 43.9697 43.5487 44.0297 43.4887 44.0297C43.188 44.3305 42.8872 44.6312 42.5865 44.9921C42.4663 45.1123 42.2857 45.2328 42.1654 45.353C41.8647 45.7139 41.5038 46.0748 41.1429 46.4357C41.0826 46.5559 40.9624 46.6162 40.9022 46.7365C40.421 47.2177 39.9999 47.6989 39.5187 48.1801C39.4585 48.2403 39.3985 48.3003 39.3383 48.3605C38.3758 49.3831 37.3533 50.4056 36.2706 51.3079C35.1879 52.2703 34.045 53.1725 32.9022 53.9545C31.6992 54.7966 30.5563 55.5184 29.2932 56.2402C28.0902 56.9018 26.827 57.5034 25.5037 58.0447C24.2405 58.5861 22.9172 59.0673 21.5939 59.4883C19.0676 60.0297 16.4812 61.0522 14.2556 61.2327C13.7744 61.2327 13.233 61.3529 12.7518 61.4131C12.2105 61.5333 11.7293 61.6538 11.2481 61.774C10.7669 61.9545 10.2857 62.1349 9.80448 62.3154C9.32329 62.4958 8.84209 62.7364 8.3609 62.977C7.93983 63.2778 7.45864 63.5184 7.03757 63.8191C6.61653 64.1199 6.19547 64.4808 5.83457 64.8417C5.41353 65.1425 4.99247 65.5635 4.63156 65.9244C4.27066 66.3455 3.90975 66.7064 3.60901 67.1274C3.30827 67.6086 2.94736 68.0297 2.70675 68.5109C2.40601 68.9319 2.10526 69.4131 1.86465 69.8943C1.62395 70.4357 1.38345 70.9169 1.203 71.4582C1.02255 71.9394 0.842097 72.4808 0.661645 73.0221C0.541438 73.5033 0.420948 73.9845 0.360901 74.4657C0.360901 74.526 0.300658 74.5859 0.300658 74.6462C0.180451 75.1875 0.180451 75.9094 0.120206 76.2703C0.0599629 76.6913 0 77.0522 0 77.4733C0 77.714 0 78.0146 0.0602428 78.2552C0.120486 78.6763 0.180448 79.0372 0.30094 79.3981C0.421146 79.7589 0.541637 80.1199 0.721976 80.4808C0.721976 80.541 0.721976 80.541 0.721976 80.541C0.902427 80.9019 1.14304 81.2628 1.38362 81.6237C1.62432 81.9846 1.86485 82.3455 2.16559 82.7064C2.46634 83.0072 2.82724 83.3681 3.18814 83.6688C3.54905 84.0297 3.90995 84.3305 4.33099 84.6312C5.7746 85.8944 6.13551 86.3154 8.00016 87.2778C8.30091 87.4583 8.60168 87.5786 8.96258 87.759C9.02284 87.759 9.08279 87.8193 9.14303 87.8193C9.14303 87.9395 9.14303 87.9997 9.20329 88.12C9.26353 88.6013 9.38374 89.0824 9.50403 89.5636C9.62424 90.105 9.8048 90.5862 9.98526 91.0073C10.1657 91.3682 10.286 91.7291 10.4665 92.09C10.5267 92.2102 10.5867 92.3307 10.6469 92.3907C10.8876 92.8719 11.1281 93.293 11.3687 93.714C11.6695 94.1351 11.9702 94.5561 12.2709 94.9772C12.5717 95.3381 12.9326 95.7591 13.2935 96.12C13.6544 96.4809 14.0153 96.7817 14.4364 97.1426C14.4364 97.1426 14.4966 97.2029 14.5566 97.2029C14.9175 97.5037 15.2784 97.8044 15.6393 98.045C16.0603 98.3457 16.4814 98.5863 16.9626 98.8269C17.3836 99.0676 17.8648 99.3081 18.346 99.4886C18.7069 99.669 19.128 99.7894 19.549 99.9096C19.6093 99.97 19.6693 99.97 19.7897 100.03C20.0304 100.09 20.3311 100.15 20.5717 100.21C20.3912 103.458 20.331 106.526 20.8124 107.609C21.3537 108.812 24.0003 105.143 26.6469 100.932C26.286 105.082 26.0454 109.955 26.6469 111.398C27.3086 112.902 30.9176 108.21 34.0454 103.037C76.6919 93.1728 115.609 122.646 119.699 164.27C118.917 157.774 110.917 154.165 107.248 155.067C105.444 159.518 102.376 165.233 97.4438 168.782C97.8649 164.812 97.6845 160.721 96.8423 156.752C95.519 162.285 92.9325 167.458 89.3836 171.909C83.6694 172.33 77.9551 169.564 74.9476 165.413C74.7069 165.233 74.6468 164.872 74.4664 164.631C74.2859 164.21 74.1055 163.789 73.9852 163.368C73.8047 162.947 73.6844 162.526 73.6243 162.105C73.564 161.684 73.564 161.263 73.564 160.782C73.564 160.481 73.564 160.18 73.564 159.879C73.6243 159.458 73.7445 159.037 73.8648 158.616C73.985 158.195 74.1055 157.774 74.2858 157.353C74.5265 156.932 74.7069 156.511 75.0076 156.09C76.0302 153.203 76.0302 150.857 74.1655 149.473C73.8046 149.233 73.4437 149.052 73.0227 148.872C72.782 148.812 72.4813 148.691 72.2407 148.631C72.0603 148.571 71.94 148.511 71.7595 148.451C71.3385 148.33 70.9174 148.21 70.4964 148.15C70.0753 148.03 69.6543 147.969 69.2332 147.969C68.8122 147.909 68.3309 147.849 67.9099 147.849C67.6092 147.849 67.3084 147.91 67.0076 147.91C66.5264 147.91 66.1054 147.97 65.6843 148.09C65.2633 148.15 64.8422 148.21 64.4212 148.331C64.0001 148.451 63.5791 148.571 63.158 148.752C62.737 148.932 62.3761 149.113 61.955 149.293C61.5941 149.474 61.2332 149.714 60.8122 149.895C46.7972 159.037 55.1581 180.451 64.7219 186.646C61.1129 187.308 57.4438 188.09 56.4212 188.872C56.361 188.932 56.301 188.992 56.301 188.992C58.8875 190.556 61.5942 191.879 64.4213 193.022C68.2709 194.285 72.3611 195.428 74.1656 195.909V195.97C79.1581 196.992 84.2107 197.353 89.3235 197.052C115.97 195.188 137.805 174.917 141.775 148.21C141.895 148.752 142.015 149.233 142.135 149.774C142.316 150.857 142.556 152 142.677 153.143C142.677 153.143 142.677 153.143 142.677 153.203C142.797 153.744 142.857 154.286 142.917 154.767C142.917 154.887 142.917 154.947 142.917 155.008C142.978 155.549 143.038 156.09 143.038 156.571C143.098 157.233 143.158 157.895 143.158 158.556C143.158 158.857 143.158 159.158 143.158 159.519C143.158 159.82 143.218 160.18 143.218 160.481C143.218 160.842 143.158 161.203 143.158 161.564C143.158 161.865 143.158 162.165 143.158 162.406C143.158 162.827 143.098 163.188 143.098 163.609C143.098 163.85 143.098 164.09 143.037 164.391C143.037 164.812 142.977 165.233 142.977 165.714C142.917 165.895 142.917 166.075 142.917 166.256C142.857 166.737 142.797 167.158 142.736 167.639C142.736 167.82 142.736 168 142.676 168.181C142.616 168.782 142.496 169.323 142.435 169.925V169.985V170.045C142.315 170.587 142.195 171.188 142.074 171.73C142.074 171.79 142.074 171.85 142.074 171.91C141.954 172.451 141.834 172.993 141.714 173.534C141.714 173.594 141.653 173.715 141.653 173.775C141.533 174.316 141.413 174.857 141.232 175.399C141.232 175.459 141.232 175.519 141.232 175.579C141.052 176.181 140.871 176.722 140.751 177.263C140.691 177.324 140.691 177.384 140.691 177.384C140.51 177.985 140.33 178.587 140.15 179.188C139.909 179.79 139.729 180.331 139.488 180.933C139.247 181.534 139.067 182.136 138.826 182.677C138.586 183.278 138.345 183.82 138.104 184.421H138.044C137.803 184.963 137.563 185.564 137.262 186.106C137.202 186.286 137.142 186.406 137.082 186.527C137.021 186.587 137.022 186.647 136.962 186.707C133.052 194.587 127.277 201.504 120.059 206.917C119.578 207.218 119.097 207.579 118.616 207.94C118.495 208.06 118.315 208.12 118.195 208.241C117.774 208.541 117.353 208.842 116.871 209.143L117.052 209.504H117.112C117.954 209.384 118.796 209.263 119.638 209.143H119.699C121.262 208.902 122.826 208.602 124.39 208.301C124.811 208.241 125.293 208.12 125.714 208C126.014 207.94 126.255 207.88 126.556 207.82C126.977 207.759 127.398 207.639 127.819 207.579C128.18 207.459 128.541 207.399 128.902 207.278C134.917 205.835 140.751 203.85 146.345 201.504C136.781 214.556 123.969 225.083 108.992 232C115.909 231.519 122.826 230.376 129.503 228.451C153.744 221.293 174.135 204.993 186.345 183.038C183.879 196.932 178.345 210.165 170.165 221.714C175.999 217.865 181.353 213.414 186.225 208.361C199.698 194.286 208.54 176.421 211.548 157.233C213.593 166.737 214.195 176.541 213.292 186.226C256.721 125.654 216.901 62.8575 200.24 46.3162C200.179 46.196 200.12 46.1358 200.12 46.0155C200.059 46.0757 200.059 46.0757 200.059 46.1357C200.059 46.0754 200.059 46.0754 199.999 46.0155C199.999 46.7373 199.939 47.4591 199.879 48.1809C199.698 49.5643 199.518 50.8876 199.277 52.2109C198.977 53.5342 198.616 54.8575 198.255 56.1808C197.834 57.444 197.353 58.7673 196.811 60.0305C196.27 61.2334 195.668 62.4966 195.007 63.6996C194.345 64.8425 193.623 66.0455 192.841 67.1282C192.059 68.2711 191.217 69.3537 190.375 70.3763C189.473 71.459 188.51 72.4214 187.548 73.3838C186.946 73.9252 186.405 74.4064 185.804 74.8875C185.322 75.3086 184.901 75.6695 184.42 76.0905C183.337 76.9327 182.255 77.7146 181.052 78.4364C179.909 79.1582 178.706 79.88 177.503 80.4815C176.24 81.083 174.977 81.6244 173.713 82.1658C172.45 82.6469 171.127 83.068 169.804 83.4289C168.48 83.7898 167.097 84.0906 165.774 84.3312C164.39 84.5718 163.007 84.692 161.683 84.8124C160.721 84.8726 159.759 84.9326 158.796 84.9326C157.413 84.9326 156.029 84.8124 154.706 84.6919C153.323 84.5717 151.939 84.3911 150.616 84.0903C149.232 83.8497 147.909 83.4888 146.586 83.0678H146.525C147.849 82.9476 149.172 82.8271 150.495 82.5866C151.879 82.3459 153.202 82.0453 154.525 81.6843C155.849 81.3234 157.172 80.9024 158.435 80.4212C159.758 79.94 161.022 79.3385 162.225 78.737C163.488 78.1355 164.631 77.4738 165.834 76.752C166.977 75.9701 168.119 75.1881 169.202 74.346C170.285 73.5039 171.307 72.6017 172.27 71.6393C173.292 70.737 174.195 69.7144 175.097 68.6919C175.999 67.6092 176.841 66.5265 177.623 65.4438C177.743 65.2633 177.864 65.0227 177.984 64.8423C178.586 63.8799 179.187 62.9175 179.728 61.9551C180.39 60.7521 180.992 59.549 181.533 58.2859C182.074 57.0228 182.555 55.7596 182.976 54.4363C183.398 53.1731 183.698 51.8498 183.999 50.5265C184.24 49.1431 184.48 47.8198 184.601 46.4965C184.721 45.113 184.841 43.7295 184.841 42.4063C184.841 41.4438 184.781 40.4814 184.721 39.519C184.601 38.1356 184.42 36.8123 184.24 35.489C183.999 34.1055 183.698 32.7822 183.338 31.4589C182.917 30.1958 182.495 28.8724 182.014 27.6093C181.533 26.3461 180.932 25.083 180.33 23.88C179.668 22.677 179.007 21.474 178.285 20.3311C177.503 19.1883 176.721 18.1056 175.879 17.0228C174.977 16.0003 174.074 14.9777 173.112 13.9552C172.631 13.474 172.089 12.9326 171.548 12.4514C168.841 10.3462 166.014 8.36121 163.187 6.55671C162.766 6.31602 162.405 6.13566 161.984 5.9552C159.999 4.69206 158.135 4.03038 156.27 3.4289L156.27 3.42857Z" fill="#E0234E"/>
</svg>
