<svg width="94" height="94" viewBox="0 0 94 94" fill="none" xmlns="http://www.w3.org/2000/svg">
<g filter="url(#filter0_d)">
<path d="M3 10C3 5.58172 6.58172 2 11 2H83C87.4183 2 91 5.58172 91 10V90H11C6.58172 90 3 86.4183 3 82V10Z" fill="white"/>
</g>
<g clip-path="url(#clip0)">
<path d="M72.3 44.9C72.3 42.5661 71.3729 40.3278 69.7226 38.6775C68.0722 37.0271 65.8339 36.1 63.5 36.1H30.5C28.1661 36.1 25.9278 37.0271 24.2775 38.6775C22.6272 40.3278 21.7 42.5661 21.7 44.9V67.8196C21.701 68.2846 21.795 68.7446 21.9763 69.1728C22.1577 69.6009 22.4228 69.9885 22.756 70.3127C23.0893 70.637 23.484 70.8913 23.917 71.0609C24.3499 71.2304 24.8124 71.3117 25.2772 71.3C29.3252 71.245 27.596 72.1074 35.1552 59.1824C35.7371 58.1847 36.5701 57.3567 37.5713 56.7809C38.5725 56.205 39.707 55.9013 40.862 55.9H53.1358C54.2867 55.8998 55.4177 56.2007 56.4165 56.7726C57.4152 57.3445 58.247 58.1677 58.8294 59.1604C66.2192 71.8324 64.6 71.2846 68.692 71.3C69.1631 71.3038 69.6302 71.2145 70.0667 71.0372C70.5031 70.8599 70.9003 70.5982 71.2353 70.2671C71.5703 69.9359 71.8367 69.5419 72.019 69.1075C72.2013 68.6731 72.2961 68.2071 72.2978 67.736L72.3 44.9Z" stroke="#D91538" stroke-width="1.7" stroke-linecap="round" stroke-linejoin="round"/>
<path d="M32.7 42.6978V51.4978" stroke="#D91538" stroke-width="1.7" stroke-linecap="round" stroke-linejoin="round"/>
<path d="M37.0999 47.0978H28.3021" stroke="#D91538" stroke-width="1.7" stroke-linecap="round" stroke-linejoin="round"/>
<path d="M42.6 51.4978H44.8" stroke="#D91538" stroke-width="1.7" stroke-linecap="round" stroke-linejoin="round"/>
<path d="M49.2 51.4978H51.3999" stroke="#D91538" stroke-width="1.7" stroke-linecap="round" stroke-linejoin="round"/>
<path d="M51.4 33.9C51.4 33.3165 51.1682 32.7569 50.7556 32.3444C50.343 31.9318 49.7834 31.7 49.2 31.7H44.8C44.2165 31.7 43.6569 31.9318 43.2443 32.3444C42.8318 32.7569 42.6 33.3165 42.6 33.9V36.1H51.4V33.9Z" stroke="#D91538" stroke-width="1.7" stroke-linecap="round" stroke-linejoin="round"/>
<path d="M47 31.7V26.2C46.9959 24.7426 46.4151 23.346 45.3846 22.3154C44.354 21.2848 42.9574 20.7041 41.5 20.7H31.6" stroke="#D91538" stroke-width="1.7" stroke-linecap="round" stroke-linejoin="round"/>
<path d="M61.3 42.1478C61.4459 42.1478 61.5857 42.2058 61.6889 42.3089C61.792 42.412 61.85 42.5519 61.85 42.6978" stroke="#D91538" stroke-width="1.7" stroke-linecap="round" stroke-linejoin="round"/>
<path d="M60.75 42.7C60.75 42.5541 60.8079 42.4142 60.9111 42.3111C61.0142 42.2079 61.1541 42.15 61.3 42.15" stroke="#D91538" stroke-width="1.7" stroke-linecap="round" stroke-linejoin="round"/>
<path d="M61.3 43.2478C61.1541 43.2478 61.0142 43.1899 60.9111 43.0867C60.8079 42.9836 60.75 42.8437 60.75 42.6978" stroke="#D91538" stroke-width="1.7" stroke-linecap="round" stroke-linejoin="round"/>
<path d="M61.85 42.7C61.85 42.8459 61.792 42.9858 61.6889 43.0889C61.5857 43.192 61.4459 43.25 61.3 43.25" stroke="#D91538" stroke-width="1.7" stroke-linecap="round" stroke-linejoin="round"/>
<path d="M56.9 46.5478C57.0458 46.5478 57.1857 46.6058 57.2889 46.7089C57.392 46.812 57.45 46.9519 57.45 47.0978" stroke="#D91538" stroke-width="1.7" stroke-linecap="round" stroke-linejoin="round"/>
<path d="M56.35 47.1C56.35 46.9541 56.4079 46.8142 56.5111 46.7111C56.6142 46.6079 56.7541 46.55 56.9 46.55" stroke="#D91538" stroke-width="1.7" stroke-linecap="round" stroke-linejoin="round"/>
<path d="M56.9 47.6478C56.7541 47.6478 56.6142 47.5899 56.5111 47.4867C56.4079 47.3836 56.35 47.2437 56.35 47.0978" stroke="#D91538" stroke-width="1.7" stroke-linecap="round" stroke-linejoin="round"/>
<path d="M57.45 47.1C57.45 47.2459 57.392 47.3858 57.2889 47.4889C57.1857 47.592 57.0458 47.65 56.9 47.65" stroke="#D91538" stroke-width="1.7" stroke-linecap="round" stroke-linejoin="round"/>
<path d="M61.3 50.9478C61.4459 50.9478 61.5857 51.0058 61.6889 51.1089C61.792 51.212 61.85 51.3519 61.85 51.4978" stroke="#D91538" stroke-width="1.7" stroke-linecap="round" stroke-linejoin="round"/>
<path d="M60.75 51.5C60.75 51.3541 60.8079 51.2142 60.9111 51.1111C61.0142 51.0079 61.1541 50.95 61.3 50.95" stroke="#D91538" stroke-width="1.7" stroke-linecap="round" stroke-linejoin="round"/>
<path d="M61.3 52.0478C61.1541 52.0478 61.0142 51.9899 60.9111 51.8867C60.8079 51.7836 60.75 51.6437 60.75 51.4978" stroke="#D91538" stroke-width="1.7" stroke-linecap="round" stroke-linejoin="round"/>
<path d="M61.85 51.5C61.85 51.6459 61.792 51.7857 61.6889 51.8889C61.5857 51.992 61.4459 52.05 61.3 52.05" stroke="#D91538" stroke-width="1.7" stroke-linecap="round" stroke-linejoin="round"/>
<path d="M65.7 46.5478C65.8458 46.5478 65.9857 46.6058 66.0889 46.7089C66.192 46.812 66.25 46.9519 66.25 47.0978" stroke="#D91538" stroke-width="1.7" stroke-linecap="round" stroke-linejoin="round"/>
<path d="M65.1478 47.1C65.1478 46.9541 65.2058 46.8142 65.3089 46.7111C65.4121 46.6079 65.552 46.55 65.6978 46.55" stroke="#D91538" stroke-width="1.7" stroke-linecap="round" stroke-linejoin="round"/>
<path d="M65.7 47.6478C65.5541 47.6478 65.4142 47.5899 65.3111 47.4867C65.2079 47.3836 65.15 47.2437 65.15 47.0978" stroke="#D91538" stroke-width="1.7" stroke-linecap="round" stroke-linejoin="round"/>
<path d="M66.2478 47.1C66.2478 47.2459 66.1899 47.3858 66.0867 47.4889C65.9836 47.592 65.8437 47.65 65.6978 47.65" stroke="#D91538" stroke-width="1.7" stroke-linecap="round" stroke-linejoin="round"/>
</g>
<defs>
<filter id="filter0_d" x="0" y="0" width="94" height="94" filterUnits="userSpaceOnUse" color-interpolation-filters="sRGB">
<feFlood flood-opacity="0" result="BackgroundImageFix"/>
<feColorMatrix in="SourceAlpha" type="matrix" values="0 0 0 0 0 0 0 0 0 0 0 0 0 0 0 0 0 0 127 0"/>
<feOffset dy="1"/>
<feGaussianBlur stdDeviation="1.5"/>
<feColorMatrix type="matrix" values="0 0 0 0 0.184314 0 0 0 0 0.223529 0 0 0 0 0.243137 0 0 0 0.16 0"/>
<feBlend mode="normal" in2="BackgroundImageFix" result="effect1_dropShadow"/>
<feBlend mode="normal" in="SourceGraphic" in2="effect1_dropShadow" result="shape"/>
</filter>
<clipPath id="clip0">
<rect width="52.8" height="52.8" fill="white" transform="translate(20.6 19.6)"/>
</clipPath>
</defs>
</svg>
