<svg width="94" height="94" viewBox="0 0 94 94" fill="none" xmlns="http://www.w3.org/2000/svg">
<g filter="url(#filter0_d)">
<path d="M3 10C3 5.58172 6.58172 2 11 2H83C87.4183 2 91 5.58172 91 10V90H11C6.58172 90 3 86.4183 3 82V10Z" fill="white"/>
</g>
<path d="M53.5035 44.9473V63.886" stroke="#D91538" stroke-width="1.7" stroke-linecap="round" stroke-linejoin="round"/>
<path d="M64.0251 61.7817C64.6379 61.7813 65.2433 61.9147 65.7992 62.1725C66.3551 62.4304 66.8479 62.8066 67.2433 63.2747C67.6387 63.7428 67.9271 64.2917 68.0884 64.8829C68.2496 65.474 68.2798 66.0933 68.1769 66.6974C67.9742 67.7018 67.4246 68.603 66.6244 69.2432C65.8243 69.8833 64.8244 70.2216 63.7999 70.1989H32.1323C31.3389 70.2021 30.5607 69.981 29.8876 69.561C29.2144 69.141 28.6737 68.5393 28.3277 67.8253C27.5834 66.2667 27.198 64.561 27.1998 62.8339C27.1998 56.8408 30.834 51.8536 36.6692 51.2602L40.5453 43.5101" stroke="#D91538" stroke-width="1.7" stroke-linecap="round" stroke-linejoin="round"/>
<path d="M52.1905 25.7434C50.9392 25.2239 49.5977 24.9564 48.2428 24.9564C46.888 24.9564 45.5465 25.2239 44.2952 25.7434L38.7735 21.8V33.3736C38.921 35.7426 39.9994 37.957 41.7734 39.5339C43.5473 41.1108 45.873 41.9221 48.2428 41.7908C50.6127 41.9221 52.9384 41.1108 54.7123 39.5339C56.4863 37.957 57.5647 35.7426 57.7122 33.3736V21.8L52.1905 25.7434Z" stroke="#D91538" stroke-width="1.7" stroke-linecap="round" stroke-linejoin="round"/>
<path d="M51.9254 30.2172C52.0649 30.2172 52.1987 30.2726 52.2973 30.3713C52.396 30.4699 52.4514 30.6037 52.4514 30.7433" stroke="#D91538" stroke-width="1.7" stroke-linecap="round" stroke-linejoin="round"/>
<path d="M51.3993 30.7433C51.3993 30.6037 51.4547 30.4699 51.5534 30.3713C51.652 30.2726 51.7858 30.2172 51.9254 30.2172" stroke="#D91538" stroke-width="1.7" stroke-linecap="round" stroke-linejoin="round"/>
<path d="M51.9254 31.2693C51.7858 31.2693 51.652 31.2139 51.5534 31.1153C51.4547 31.0166 51.3993 30.8828 51.3993 30.7433" stroke="#D91538" stroke-width="1.7" stroke-linecap="round" stroke-linejoin="round"/>
<path d="M52.4514 30.7433C52.4514 30.8828 52.396 31.0166 52.2973 31.1153C52.1987 31.2139 52.0649 31.2693 51.9254 31.2693" stroke="#D91538" stroke-width="1.7" stroke-linecap="round" stroke-linejoin="round"/>
<path d="M44.5603 30.2172C44.6998 30.2172 44.8336 30.2726 44.9323 30.3713C45.031 30.4699 45.0864 30.6037 45.0864 30.7433" stroke="#D91538" stroke-width="1.7" stroke-linecap="round" stroke-linejoin="round"/>
<path d="M44.0342 30.7433C44.0342 30.6037 44.0896 30.4699 44.1883 30.3713C44.2869 30.2726 44.4207 30.2172 44.5603 30.2172" stroke="#D91538" stroke-width="1.7" stroke-linecap="round" stroke-linejoin="round"/>
<path d="M44.5603 31.2693C44.4207 31.2693 44.2869 31.2139 44.1883 31.1153C44.0896 31.0166 44.0342 30.8828 44.0342 30.7433" stroke="#D91538" stroke-width="1.7" stroke-linecap="round" stroke-linejoin="round"/>
<path d="M45.0864 30.7433C45.0864 30.8828 45.031 31.0166 44.9323 31.1153C44.8336 31.2139 44.6998 31.2693 44.5603 31.2693" stroke="#D91538" stroke-width="1.7" stroke-linecap="round" stroke-linejoin="round"/>
<defs>
<filter id="filter0_d" x="0" y="0" width="94" height="94" filterUnits="userSpaceOnUse" color-interpolation-filters="sRGB">
<feFlood flood-opacity="0" result="BackgroundImageFix"/>
<feColorMatrix in="SourceAlpha" type="matrix" values="0 0 0 0 0 0 0 0 0 0 0 0 0 0 0 0 0 0 127 0"/>
<feOffset dy="1"/>
<feGaussianBlur stdDeviation="1.5"/>
<feColorMatrix type="matrix" values="0 0 0 0 0.184314 0 0 0 0 0.223529 0 0 0 0 0.243137 0 0 0 0.16 0"/>
<feBlend mode="normal" in2="BackgroundImageFix" result="effect1_dropShadow"/>
<feBlend mode="normal" in="SourceGraphic" in2="effect1_dropShadow" result="shape"/>
</filter>
</defs>
</svg>
