<svg width="94" height="94" viewBox="0 0 94 94" fill="none" xmlns="http://www.w3.org/2000/svg">
<g filter="url(#filter0_d)">
<path d="M3 10C3 5.58172 6.58172 2 11 2H83C87.4183 2 91 5.58172 91 10V90H11C6.58172 90 3 86.4183 3 82V10Z" fill="white"/>
</g>
<path d="M47.0007 70.2C42.9888 70.2001 39.0397 69.2028 35.5089 67.2978C31.9781 65.3928 28.9763 62.6399 26.7736 59.2867C24.5709 55.9335 23.2364 52.0853 22.8901 48.0883C22.5439 44.0914 23.1969 40.071 24.7902 36.389C26.3835 32.707 28.8673 29.4789 32.018 26.9952C35.1686 24.5114 38.8874 22.85 42.8396 22.1603C46.7918 21.4706 50.8535 21.7743 54.6592 23.0441C58.4649 24.3139 61.8952 26.5099 64.6415 29.4346L58.5073 35.1963C57.0365 33.6175 55.255 32.3602 53.2748 31.5033C51.2945 30.6465 49.1584 30.2086 47.0007 30.2174C44.1087 30.2235 41.274 31.0242 38.8061 32.5319C36.3382 34.0397 34.332 36.1966 33.0066 38.767C31.6812 41.3375 31.0876 44.2227 31.2906 47.1076C31.4935 49.9925 32.4853 52.7661 34.1575 55.1257C35.8297 57.4853 38.1181 59.34 40.7728 60.4873C43.4275 61.6347 46.3464 62.0306 49.2108 61.6317C52.0752 61.2329 54.775 60.0547 57.0153 58.2257C59.2555 56.3968 60.9502 53.9875 61.9142 51.2608H50.1572V42.8435H71.2007V47.2626C70.877 53.4595 68.1851 59.2952 63.6813 63.564C59.1776 67.8328 53.2061 70.2084 47.0007 70.2V70.2Z" stroke="#D91538" stroke-width="1.7" stroke-linecap="round" stroke-linejoin="round"/>
<path d="M33.3225 38.0035L26.6896 32.6984" stroke="#D91538" stroke-width="1.7" stroke-linecap="round" stroke-linejoin="round"/>
<path d="M33.4908 54.0554L27.1083 59.8003" stroke="#D91538" stroke-width="1.7" stroke-linecap="round" stroke-linejoin="round"/>
<path d="M56.4093 58.6871L62.0279 65.0106" stroke="#D91538" stroke-width="1.7" stroke-linecap="round" stroke-linejoin="round"/>
<defs>
<filter id="filter0_d" x="0" y="0" width="94" height="94" filterUnits="userSpaceOnUse" color-interpolation-filters="sRGB">
<feFlood flood-opacity="0" result="BackgroundImageFix"/>
<feColorMatrix in="SourceAlpha" type="matrix" values="0 0 0 0 0 0 0 0 0 0 0 0 0 0 0 0 0 0 127 0"/>
<feOffset dy="1"/>
<feGaussianBlur stdDeviation="1.5"/>
<feColorMatrix type="matrix" values="0 0 0 0 0.184314 0 0 0 0 0.223529 0 0 0 0 0.243137 0 0 0 0.16 0"/>
<feBlend mode="normal" in2="BackgroundImageFix" result="effect1_dropShadow"/>
<feBlend mode="normal" in="SourceGraphic" in2="effect1_dropShadow" result="shape"/>
</filter>
</defs>
</svg>
