<svg width="94" height="94" viewBox="0 0 94 94" fill="none" xmlns="http://www.w3.org/2000/svg">
<g filter="url(#filter0_d)">
<path d="M3 10C3 5.58172 6.58172 2 11 2H83C87.4183 2 91 5.58172 91 10V90H11C6.58172 90 3 86.4183 3 82V10Z" fill="white"/>
</g>
<path d="M25.0825 60.7167C28.4553 65.7397 33.4448 69.4432 39.2063 71.2233C39.7339 71.3864 40.2831 71.0679 40.426 70.5345L44.4025 55.694C44.5455 55.1605 44.2261 54.6174 43.7116 54.4164C42.0029 53.7488 40.5297 52.5732 39.4982 51.0371C38.2801 49.223 37.7607 47.0289 38.0361 44.8611C38.3115 42.6934 39.3631 40.6989 40.9961 39.247C42.6292 37.7951 44.7331 36.9841 46.9181 36.9643C49.1032 36.9445 51.2214 37.7172 52.8805 39.1393C54.5397 40.5613 55.6272 42.5365 55.9419 44.6988C56.2565 46.8612 55.7769 49.0644 54.5919 50.9003C53.5884 52.4549 52.1368 53.657 50.4404 54.3554C49.9297 54.5657 49.6202 55.1146 49.7728 55.6453L54.0176 70.4113C54.1702 70.9421 54.725 71.2505 55.2497 71.0779C60.978 69.1937 65.8995 65.4004 69.1807 60.317C72.6429 54.9531 74.0442 48.5163 73.1249 42.1986C72.2056 35.8808 69.0281 30.1103 64.1808 25.9555C59.3335 21.8007 53.1448 19.5432 46.7608 19.601C40.3768 19.6589 34.23 22.0282 29.4588 26.2702C24.6876 30.5121 21.6152 36.3394 20.8105 42.6727C20.0059 49.0061 21.5236 55.4164 25.0825 60.7167Z" stroke="#D91538" stroke-width="1.7" stroke-linecap="round" stroke-linejoin="round"/>
<defs>
<filter id="filter0_d" x="0" y="0" width="94" height="94" filterUnits="userSpaceOnUse" color-interpolation-filters="sRGB">
<feFlood flood-opacity="0" result="BackgroundImageFix"/>
<feColorMatrix in="SourceAlpha" type="matrix" values="0 0 0 0 0 0 0 0 0 0 0 0 0 0 0 0 0 0 127 0"/>
<feOffset dy="1"/>
<feGaussianBlur stdDeviation="1.5"/>
<feColorMatrix type="matrix" values="0 0 0 0 0.184314 0 0 0 0 0.223529 0 0 0 0 0.243137 0 0 0 0.16 0"/>
<feBlend mode="normal" in2="BackgroundImageFix" result="effect1_dropShadow"/>
<feBlend mode="normal" in="SourceGraphic" in2="effect1_dropShadow" result="shape"/>
</filter>
</defs>
</svg>
