<svg width="94" height="94" viewBox="0 0 94 94" fill="none" xmlns="http://www.w3.org/2000/svg">
<g filter="url(#filter0_d)">
<path d="M3 10C3 5.58172 6.58172 2 11 2H83C87.4183 2 91 5.58172 91 10V90H11C6.58172 90 3 86.4183 3 82V10Z" fill="white"/>
</g>
<rect x="18.4001" y="26.2" width="55.44" height="39.6" rx="1" stroke="#D91538" stroke-width="1.7" stroke-linecap="round" stroke-linejoin="round"/>
<path d="M19.39 27.19L72.85 64.81" stroke="#D91538" stroke-width="1.7"/>
<path d="M72.8499 27.19L19.3898 64.81" stroke="#D91538" stroke-width="1.7"/>
<path fill-rule="evenodd" clip-rule="evenodd" d="M42.16 42.04V26.2H50.08V42.04H73.8402V49.96H50.08V65.8H42.16V49.96H18.4001V42.04H42.16Z" fill="white"/>
<path d="M42.16 26.2V25.35C41.6905 25.35 41.31 25.7306 41.31 26.2H42.16ZM42.16 42.04V42.89C42.6294 42.89 43.01 42.5095 43.01 42.04H42.16ZM50.08 26.2H50.93C50.93 25.7306 50.5494 25.35 50.08 25.35V26.2ZM50.08 42.04H49.23C49.23 42.5095 49.6105 42.89 50.08 42.89V42.04ZM73.8402 42.04H74.6902C74.6902 41.5706 74.3096 41.19 73.8402 41.19V42.04ZM73.8402 49.96V50.81C74.3096 50.81 74.6902 50.4294 74.6902 49.96H73.8402ZM50.08 49.96V49.11C49.6105 49.11 49.23 49.4906 49.23 49.96H50.08ZM50.08 65.8V66.65C50.5494 66.65 50.93 66.2694 50.93 65.8H50.08ZM42.16 65.8H41.31C41.31 66.2694 41.6905 66.65 42.16 66.65V65.8ZM42.16 49.96H43.01C43.01 49.4906 42.6294 49.11 42.16 49.11V49.96ZM18.4001 49.96H17.5501C17.5501 50.4294 17.9307 50.81 18.4001 50.81V49.96ZM18.4001 42.04V41.19C17.9307 41.19 17.5501 41.5706 17.5501 42.04H18.4001ZM41.31 26.2V42.04H43.01V26.2H41.31ZM50.08 25.35H42.16V27.05H50.08V25.35ZM50.93 42.04V26.2H49.23V42.04H50.93ZM73.8402 41.19H50.08V42.89H73.8402V41.19ZM74.6902 49.96V42.04H72.9902V49.96H74.6902ZM50.08 50.81H73.8402V49.11H50.08V50.81ZM50.93 65.8V49.96H49.23V65.8H50.93ZM42.16 66.65H50.08V64.95H42.16V66.65ZM41.31 49.96V65.8H43.01V49.96H41.31ZM18.4001 50.81H42.16V49.11H18.4001V50.81ZM17.5501 42.04V49.96H19.2501V42.04H17.5501ZM42.16 41.19H18.4001V42.89H42.16V41.19Z" fill="#D91538"/>
<defs>
<filter id="filter0_d" x="0" y="0" width="94" height="94" filterUnits="userSpaceOnUse" color-interpolation-filters="sRGB">
<feFlood flood-opacity="0" result="BackgroundImageFix"/>
<feColorMatrix in="SourceAlpha" type="matrix" values="0 0 0 0 0 0 0 0 0 0 0 0 0 0 0 0 0 0 127 0"/>
<feOffset dy="1"/>
<feGaussianBlur stdDeviation="1.5"/>
<feColorMatrix type="matrix" values="0 0 0 0 0.184314 0 0 0 0 0.223529 0 0 0 0 0.243137 0 0 0 0.16 0"/>
<feBlend mode="normal" in2="BackgroundImageFix" result="effect1_dropShadow"/>
<feBlend mode="normal" in="SourceGraphic" in2="effect1_dropShadow" result="shape"/>
</filter>
</defs>
</svg>
