<svg width="94" height="94" viewBox="0 0 94 94" fill="none" xmlns="http://www.w3.org/2000/svg">
<g filter="url(#filter0_d)">
<path d="M3 10C3 5.58172 6.58172 2 11 2H83C87.4183 2 91 5.58172 91 10V90H11C6.58172 90 3 86.4183 3 82V10Z" fill="white"/>
</g>
<g clip-path="url(#clip0)">
<path d="M67.8998 29.5001V24.0001C67.8998 23.4166 67.6681 22.857 67.2555 22.4444C66.8429 22.0318 66.2833 21.8001 65.6998 21.8001H39.2999C38.7164 21.8001 38.1568 22.0318 37.7442 22.4444C37.3316 22.857 37.0999 23.4166 37.0999 24.0001V41.6001C37.0999 42.1835 37.3316 42.7431 37.7442 43.1557C38.1568 43.5683 38.7164 43.8001 39.2999 43.8001H42.5999V48.2001L48.0999 43.8001H55.7998" stroke="#D91538" stroke-width="1.7" stroke-linecap="round" stroke-linejoin="round"/>
<path d="M21.6999 70.2001C23.2139 70.0245 24.6767 69.5441 26.0001 68.7879C27.3234 68.0317 28.48 67.0153 29.3999 65.8001L26.0999 61.4001H31.5999C31.8916 61.4001 32.1714 61.2842 32.3777 61.0779C32.584 60.8716 32.6999 60.5918 32.6999 60.3001V57.0001H35.3201C35.5077 57.0001 35.6921 56.9521 35.8559 56.8607C36.0198 56.7693 36.1575 56.6375 36.256 56.4779C36.3546 56.3183 36.4107 56.1362 36.419 55.9488C36.4273 55.7614 36.3875 55.575 36.3035 55.4073L33.6371 50.0723C33.6371 38.3001 28.0249 35.0001 21.6999 35.0001" stroke="#D91538" stroke-width="1.7" stroke-linecap="round" stroke-linejoin="round"/>
<path d="M26.6499 49.3C26.7586 49.3 26.865 49.3323 26.9554 49.3927C27.0459 49.4532 27.1164 49.5391 27.158 49.6396C27.1996 49.7401 27.2105 49.8506 27.1893 49.9573C27.1681 50.064 27.1157 50.162 27.0388 50.2389C26.9618 50.3159 26.8638 50.3682 26.7572 50.3895C26.6505 50.4107 26.5399 50.3998 26.4394 50.3582C26.3389 50.3165 26.253 50.246 26.1925 50.1556C26.1321 50.0652 26.0999 49.9588 26.0999 49.85C26.0999 49.7042 26.1578 49.5643 26.2609 49.4611C26.3641 49.358 26.504 49.3 26.6499 49.3" fill="#D91538"/>
<path d="M26.6499 49.3C26.7586 49.3 26.865 49.3323 26.9554 49.3927C27.0459 49.4532 27.1164 49.5391 27.158 49.6396C27.1996 49.7401 27.2105 49.8506 27.1893 49.9573C27.1681 50.064 27.1157 50.162 27.0388 50.2389C26.9618 50.3159 26.8638 50.3682 26.7572 50.3895C26.6505 50.4107 26.5399 50.3998 26.4394 50.3582C26.3389 50.3165 26.253 50.246 26.1925 50.1556C26.1321 50.0652 26.0999 49.9588 26.0999 49.85C26.0999 49.7042 26.1578 49.5643 26.2609 49.4611C26.3641 49.358 26.504 49.3 26.6499 49.3" stroke="#D91538" stroke-width="1.7" stroke-linecap="round" stroke-linejoin="round"/>
<path d="M72.2999 70.2001C70.7859 70.0245 69.3231 69.5441 67.9997 68.7879C66.6764 68.0317 65.5199 67.0153 64.5999 65.8001L67.8999 61.4001H62.3999C62.1082 61.4001 61.8284 61.2842 61.6221 61.0779C61.4158 60.8716 61.2999 60.5918 61.2999 60.3001V57.0001H58.6797C58.4922 57.0001 58.3077 56.9521 58.1439 56.8607C57.9801 56.7693 57.8423 56.6375 57.7438 56.4779C57.6452 56.3183 57.5892 56.1362 57.5809 55.9488C57.5725 55.7614 57.6123 55.575 57.6963 55.4073L60.3627 50.0723C60.3627 38.3001 65.9749 35.0001 72.2999 35.0001" stroke="#D91538" stroke-width="1.7" stroke-linecap="round" stroke-linejoin="round"/>
<path d="M67.3499 49.3C67.2411 49.3 67.1347 49.3323 67.0443 49.3927C66.9539 49.4532 66.8834 49.5391 66.8417 49.6396C66.8001 49.7401 66.7892 49.8506 66.8104 49.9573C66.8317 50.064 66.884 50.162 66.961 50.2389C67.0379 50.3159 67.1359 50.3682 67.2426 50.3895C67.3493 50.4107 67.4598 50.3998 67.5603 50.3582C67.6608 50.3165 67.7467 50.246 67.8072 50.1556C67.8676 50.0652 67.8999 49.9588 67.8999 49.85C67.8999 49.7042 67.8419 49.5643 67.7388 49.4611C67.6356 49.358 67.4957 49.3 67.3499 49.3Z" fill="#D91538" stroke="#D91538" stroke-width="1.7" stroke-linecap="round" stroke-linejoin="round"/>
<path d="M52.4998 37.2V39.4" stroke="#D91538" stroke-width="1.7" stroke-linecap="round" stroke-linejoin="round"/>
<path d="M52.4998 26.2V28.4" stroke="#D91538" stroke-width="1.7" stroke-linecap="round" stroke-linejoin="round"/>
<path d="M48.0999 37.2001H54.6999C55.2833 37.2001 55.8429 36.9683 56.2555 36.5557C56.6681 36.1431 56.8999 35.5835 56.8999 35.0001C56.8999 34.4166 56.6681 33.857 56.2555 33.4444C55.8429 33.0319 55.2833 32.8001 54.6999 32.8001H50.2999C49.7164 32.8001 49.1568 32.5683 48.7442 32.1557C48.3316 31.7431 48.0999 31.1835 48.0999 30.6001C48.0999 30.0166 48.3316 29.457 48.7442 29.0444C49.1568 28.6319 49.7164 28.4001 50.2999 28.4001H56.8999" stroke="#D91538" stroke-width="1.7" stroke-linecap="round" stroke-linejoin="round"/>
</g>
<defs>
<filter id="filter0_d" x="0" y="0" width="94" height="94" filterUnits="userSpaceOnUse" color-interpolation-filters="sRGB">
<feFlood flood-opacity="0" result="BackgroundImageFix"/>
<feColorMatrix in="SourceAlpha" type="matrix" values="0 0 0 0 0 0 0 0 0 0 0 0 0 0 0 0 0 0 127 0"/>
<feOffset dy="1"/>
<feGaussianBlur stdDeviation="1.5"/>
<feColorMatrix type="matrix" values="0 0 0 0 0.184314 0 0 0 0 0.223529 0 0 0 0 0.243137 0 0 0 0.16 0"/>
<feBlend mode="normal" in2="BackgroundImageFix" result="effect1_dropShadow"/>
<feBlend mode="normal" in="SourceGraphic" in2="effect1_dropShadow" result="shape"/>
</filter>
<clipPath id="clip0">
<rect width="52.8" height="52.8" fill="white" transform="translate(20.5999 19.6)"/>
</clipPath>
</defs>
</svg>
