<svg width="300" height="300" viewBox="0 0 300 300" fill="none" xmlns="http://www.w3.org/2000/svg">
<mask id="mask0" mask-type="alpha" maskUnits="userSpaceOnUse" x="40" y="28" width="220" height="244">
<path d="M149.629 28L40 68.3788L57.3272 218.707L149.629 271.876L242.679 217.991L260 67.6679L149.629 28Z" fill="white"/>
</mask>
<g mask="url(#mask0)">
<path d="M149.629 28L40 68.3788L57.3272 218.707L149.629 271.876L242.679 217.991L260 67.6679L149.629 28Z" fill="#DD0031"/>
<path d="M270.236 28H149.15V285.519H270.236V28Z" fill="#C3002F"/>
<path fill-rule="evenodd" clip-rule="evenodd" d="M126.978 132.031H163.007C168.305 132.031 172.72 130.486 176.253 127.395C179.785 124.305 181.551 119.851 181.551 114.033C181.551 107.488 179.962 102.883 176.783 100.216C173.604 97.5501 169.012 96.217 163.007 96.217H126.978V132.031ZM103.102 77.4573H164.182C175.448 77.4573 184.484 80.0847 191.29 85.3395C198.097 90.5943 201.5 98.5362 201.5 109.165C201.5 115.614 199.945 121.138 196.835 125.736C193.725 130.334 189.295 133.887 183.545 136.395V136.753C191.29 138.425 197.158 142.157 201.148 147.949C205.138 153.742 207.133 160.997 207.133 169.715C207.133 174.731 206.252 179.419 204.492 183.778C202.732 188.137 199.974 191.899 196.219 195.064C192.464 198.228 187.652 200.736 181.785 202.588C175.917 204.439 168.935 205.364 160.838 205.364H103.102V77.4573ZM126.978 186.605H165.662C172.314 186.605 177.478 184.875 181.154 181.416C184.829 177.956 186.667 173.061 186.667 166.728C186.667 160.513 184.829 155.735 181.154 152.393C177.478 149.051 172.314 147.38 165.662 147.38H126.978V186.605Z" fill="white"/>
</g>
</svg>
