<svg width="76" height="70" viewBox="0 0 76 70" fill="none" xmlns="http://www.w3.org/2000/svg">
<path d="M12.6035 49.7526H14.5634C16.0992 49.7526 17.6199 50.0558 19.0388 50.6449C20.4577 51.234 21.7469 52.0974 22.8329 53.186C23.9188 54.2745 24.7803 55.5667 25.368 56.989C25.9557 58.4112 26.2582 59.9355 26.2582 61.4749V65.8132H0.911621V61.4749C0.911621 58.3665 2.14335 55.3853 4.33591 53.187C6.52847 50.9887 9.50233 49.7533 12.6035 49.7526Z" fill="#CE7783"/>
<path d="M61.583 50.7676H63.5429C66.6446 50.7676 69.6192 52.0026 71.8124 54.201C74.0056 56.3993 75.2377 59.381 75.2377 62.4899V66.8282H49.8911V62.4899C49.8911 59.3815 51.1228 56.4003 53.3154 54.202C55.508 52.0037 58.4818 50.7684 61.583 50.7676Z" fill="#CE7783"/>
<path d="M36.1587 23.5677H38.1186C39.6544 23.5677 41.1751 23.8709 42.594 24.46C44.0129 25.0491 45.3021 25.9126 46.3881 27.0011C47.474 28.0896 48.3355 29.3819 48.9232 30.8041C49.5109 32.2263 49.8134 33.7506 49.8134 35.29V39.6283H24.4668V35.29C24.4668 32.1816 25.6985 29.2004 27.8911 27.0021C30.0836 24.8038 33.0575 23.5685 36.1587 23.5677Z" fill="#CE7783"/>
<path d="M40.5834 19.3468C45.7229 19.3468 49.8894 15.1705 49.8894 10.0188C49.8894 4.86712 45.7229 0.690857 40.5834 0.690857C35.4438 0.690857 31.2773 4.86712 31.2773 10.0188C31.2773 15.1705 35.4438 19.3468 40.5834 19.3468Z" fill="#EAB669"/>
<path d="M37.1395 22.2527C34.1966 22.2491 31.3752 21.0757 29.2943 18.9897C27.2135 16.9036 26.0432 14.0755 26.04 11.1256C26.0435 8.17598 27.2141 5.34819 29.2949 3.2625C31.3757 1.17681 34.1968 0.00351819 37.1395 0C40.0824 0.00312732 42.904 1.17624 44.9851 3.26198C47.0662 5.34771 48.2369 8.17572 48.2404 11.1256C48.2373 14.0757 47.0667 16.9041 44.9856 18.9902C42.9044 21.0762 40.0827 22.2495 37.1395 22.2527ZM37.1395 0.443133C34.3139 0.446261 31.605 1.57272 29.6071 3.57539C27.6091 5.57807 26.4853 8.29338 26.4821 11.1256C26.4853 13.9579 27.609 16.6734 29.607 18.6763C31.6049 20.6792 34.3138 21.806 37.1395 21.8095C39.9653 21.806 42.6744 20.6793 44.6725 18.6764C46.6707 16.6735 47.7948 13.9581 47.7983 11.1256C47.7948 8.29325 46.6707 5.57793 44.6725 3.5753C42.6743 1.57267 39.9652 0.44626 37.1395 0.443133Z" fill="#E3E3E3"/>
<path d="M46.1008 44.9088H29.3558C29.2972 44.9088 29.241 44.8854 29.1995 44.8439C29.1581 44.8023 29.1348 44.746 29.1348 44.6872C29.1352 44.6286 29.1586 44.5724 29.2 44.531C29.2413 44.4895 29.2973 44.466 29.3558 44.4656H46.1008C46.1594 44.4656 46.2156 44.489 46.2571 44.5305C46.2985 44.5721 46.3218 44.6284 46.3218 44.6872C46.3218 44.746 46.2985 44.8023 46.2571 44.8439C46.2156 44.8854 46.1594 44.9088 46.1008 44.9088Z" fill="#E3E3E3"/>
<path d="M46.0992 28.2332C46.0569 28.2331 46.0154 28.2208 45.9798 28.1977C43.3438 26.4957 40.2736 25.5925 37.138 25.5965C34.2376 25.5952 31.3893 26.3681 28.8857 27.8358C28.8605 27.8507 28.8327 27.8604 28.8038 27.8644C28.7749 27.8685 28.7455 27.8667 28.7173 27.8593C28.6891 27.8519 28.6626 27.839 28.6394 27.8212C28.6162 27.8035 28.5967 27.7814 28.5821 27.7561C28.5545 27.7061 28.5474 27.6474 28.5623 27.5922C28.5771 27.5371 28.6128 27.4899 28.6617 27.4606C31.2336 25.9528 34.1599 25.1589 37.1395 25.1608C40.3597 25.1563 43.5128 26.0836 46.2201 27.8314C46.2446 27.8471 46.2658 27.8676 46.2824 27.8916C46.2991 27.9156 46.3108 27.9426 46.317 27.9712C46.3231 27.9997 46.3236 28.0292 46.3183 28.058C46.3131 28.0867 46.3022 28.1141 46.2864 28.1386C46.2654 28.1687 46.2373 28.193 46.2047 28.2095C46.172 28.226 46.1358 28.2342 46.0992 28.2332Z" fill="#E3E3E3"/>
<path d="M55.0947 46.8686C60.2896 46.8686 64.5009 42.6474 64.5009 37.4402C64.5009 32.2331 60.2896 28.0118 55.0947 28.0118C49.8998 28.0118 45.6885 32.2331 45.6885 37.4402C45.6885 42.6474 49.8998 46.8686 55.0947 46.8686Z" fill="#EAB669"/>
<path d="M57.9822 46.6255C55.0393 46.6223 52.2178 45.4492 50.1367 43.3635C48.0556 41.2777 46.8849 38.4497 46.8813 35.4999C46.8845 32.5497 48.055 29.7214 50.1362 27.6353C52.2173 25.5492 55.039 24.3759 57.9822 24.3728C60.9252 24.3763 63.7465 25.5498 65.8274 27.6358C67.9082 29.7218 69.0786 32.55 69.0817 35.4999C69.0782 38.4495 67.9076 41.2773 65.8269 43.363C63.7461 45.4486 60.9249 46.6219 57.9822 46.6255ZM57.9822 24.8159C55.1564 24.8195 52.4474 25.9462 50.4492 27.9491C48.451 29.9519 47.3269 32.6674 47.3234 35.4999C47.3269 38.3322 48.4511 41.0475 50.4493 43.0502C52.4475 45.0528 55.1565 46.1792 57.9822 46.1823C60.8078 46.1792 63.5167 45.0527 65.5147 43.0501C67.5126 41.0474 68.6365 38.3321 68.6396 35.4999C68.6365 32.6675 67.5127 29.9521 65.5148 27.9492C63.5168 25.9462 60.8079 24.8195 57.9822 24.8159Z" fill="#E3E3E3"/>
<path d="M74.7697 69.2826H41.1929V66.352C41.1979 61.8904 42.9684 57.6128 46.1159 54.458C49.2634 51.3031 53.5308 49.5284 57.982 49.5233C62.4331 49.5284 66.7004 51.3031 69.8476 54.458C72.9949 57.613 74.765 61.8905 74.7697 66.352V69.2826ZM41.635 68.8395H74.3276V66.352C74.3249 62.0074 72.602 57.8415 69.5372 54.7692C66.4724 51.697 62.3164 49.9696 57.982 49.9664C53.6479 49.9711 49.4927 51.699 46.4281 54.7709C43.3634 57.8427 41.6396 62.0078 41.635 66.352V68.8395Z" fill="#E3E3E3"/>
<path d="M14.0605 45.5717C19.6102 45.5717 24.1092 41.0621 24.1092 35.4993C24.1092 29.9365 19.6102 25.4269 14.0605 25.4269C8.5107 25.4269 4.01172 29.9365 4.01172 35.4993C4.01172 41.0621 8.5107 45.5717 14.0605 45.5717Z" fill="#EAB669"/>
<path d="M17.4779 46.6255C14.5352 46.6219 11.7141 45.4486 9.63327 43.363C7.55248 41.2773 6.38193 38.4495 6.37842 35.4999C6.38154 32.55 7.5519 29.7218 9.63273 27.6358C11.7136 25.5498 14.5349 24.3763 17.4779 24.3728C20.4211 24.3759 23.2428 25.5492 25.3239 27.6353C27.4051 29.7214 28.5757 32.5497 28.5788 35.4999C28.5753 38.4497 27.4046 41.2777 25.3234 43.3635C23.2423 45.4492 20.4208 46.6223 17.4779 46.6255ZM17.4779 24.8159C14.6522 24.8195 11.9433 25.9462 9.94533 27.9492C7.94741 29.9521 6.82363 32.6675 6.82051 35.4999C6.82363 38.3321 7.94748 41.0474 9.94544 43.0501C11.9434 45.0527 14.6523 46.1792 17.4779 46.1823C20.3036 46.1792 23.0126 45.0528 25.0108 43.0502C27.009 41.0475 28.1332 38.3322 28.1367 35.4999C28.1332 32.6674 27.0091 29.9519 25.0109 27.9491C23.0128 25.9462 20.3037 24.8195 17.4779 24.8159Z" fill="#E3E3E3"/>
<path d="M34.2668 69.2826H0.689941V66.352C0.694622 61.8905 2.46474 57.613 5.61199 54.458C8.75924 51.3031 13.0266 49.5284 17.4776 49.5233C21.9288 49.5284 26.1963 51.3031 29.3438 54.458C32.4912 57.6128 34.2617 61.8904 34.2668 66.352V69.2826ZM1.13203 68.8395H33.8247V66.352C33.82 62.0078 32.0962 57.8427 29.0316 54.7709C25.9669 51.699 21.8117 49.9711 17.4776 49.9664C13.1432 49.9696 8.98723 51.697 5.92247 54.7692C2.85771 57.8415 1.13477 62.0074 1.13203 66.352V68.8395Z" fill="#E3E3E3"/>
</svg>
