<svg width="296" height="230" viewBox="0 0 296 230" fill="none" xmlns="http://www.w3.org/2000/svg">
    <g clip-path="url(#clip0_4821_23184)">
        <path d="M263.71 185.99C259.975 179.344 250.8 178.14 245.361 183.517C239.921 188.894 241.142 197.961 247.866 201.653C248.696 202.11 249.596 202.563 250.567 203.013C258.558 206.678 268.187 211.509 274.076 214.495C274.442 214.68 274.858 214.745 275.263 214.682C275.669 214.619 276.044 214.43 276.334 214.143C276.625 213.855 276.816 213.484 276.879 213.083C276.943 212.682 276.876 212.271 276.689 211.91C273.661 206.084 268.784 196.57 265.076 188.673C264.631 187.704 264.172 186.813 263.71 185.99Z" fill="#CE7783"/>
        <path d="M55.3044 98.4609L64.0495 100C64.0989 100.008 64.1495 100.006 64.1979 99.9931C64.2462 99.9801 64.2911 99.9567 64.3294 99.9248L71.0485 94.1811C71.1015 94.1358 71.1675 94.1079 71.2372 94.1012C71.307 94.0945 71.3771 94.1094 71.438 94.1437C71.4988 94.1781 71.5474 94.2302 71.5771 94.293C71.6067 94.3557 71.6159 94.4261 71.6034 94.4942L70.0465 103.139C70.0373 103.188 70.0395 103.238 70.0526 103.286C70.0658 103.334 70.0897 103.378 70.1227 103.416L75.9306 110.058C75.9761 110.11 76.0041 110.175 76.0109 110.243C76.0177 110.312 76.003 110.381 75.9686 110.441C75.9342 110.501 75.8819 110.549 75.8188 110.579C75.7557 110.608 75.685 110.618 75.6163 110.606L66.8712 109.065C66.8216 109.056 66.7709 109.059 66.7225 109.073C66.6741 109.086 66.6293 109.11 66.5913 109.142L59.8722 114.884C59.8193 114.929 59.7536 114.956 59.6842 114.963C59.6147 114.97 59.5449 114.955 59.4842 114.921C59.4234 114.887 59.3748 114.836 59.3449 114.773C59.3151 114.711 59.3054 114.641 59.3172 114.573L60.8742 105.928C60.883 105.879 60.8807 105.829 60.8676 105.781C60.8544 105.733 60.8306 105.689 60.798 105.651L54.9877 99.0047C54.9438 98.9521 54.9171 98.8874 54.9113 98.8195C54.9056 98.7515 54.9209 98.6834 54.9554 98.6242C54.9898 98.5651 55.0417 98.5178 55.104 98.4886C55.1664 98.4594 55.2363 98.4497 55.3044 98.4609Z" fill="#EAB669"/>
        <path d="M77.0074 109.33C76.9272 109.409 76.8287 109.467 76.7205 109.5C76.6122 109.533 76.4974 109.54 76.3861 109.519L66.3591 107.754L58.6554 114.338C58.5449 114.432 58.4075 114.49 58.2621 114.505C58.1167 114.519 57.9705 114.488 57.8435 114.417C57.7165 114.346 57.6149 114.237 57.5527 114.106C57.4905 113.976 57.4708 113.829 57.4962 113.687L59.2816 103.775L52.6215 96.1598C52.5259 96.0506 52.467 95.9149 52.4526 95.7712C52.4383 95.6274 52.4692 95.4829 52.5414 95.3574C52.6135 95.2318 52.7232 95.1314 52.8554 95.0699C52.9876 95.0084 53.1358 94.9889 53.2797 95.0141L63.3066 96.7789L71.0128 90.1953C71.1234 90.1017 71.2606 90.0442 71.4054 90.0305C71.5503 90.0168 71.6959 90.0477 71.8224 90.1188C71.9489 90.19 72.0501 90.298 72.1122 90.4281C72.1743 90.5582 72.1944 90.7042 72.1695 90.8459L70.3842 100.758L77.0443 108.376C77.141 108.484 77.2008 108.619 77.2154 108.763C77.2299 108.907 77.1984 109.052 77.1253 109.177C77.0928 109.232 77.0532 109.284 77.0074 109.33ZM58.2379 113.733L65.8876 107.193C65.967 107.125 66.0611 107.075 66.1628 107.048C66.2645 107.021 66.371 107.016 66.4746 107.036L76.4327 108.788L69.8169 101.224C69.7476 101.145 69.6974 101.052 69.6697 100.952C69.6421 100.851 69.6378 100.746 69.6572 100.644L71.4304 90.8022L63.7781 97.3397C63.6985 97.408 63.6046 97.4577 63.5031 97.4854C63.4015 97.5131 63.2949 97.5181 63.1912 97.4999L53.2354 95.7472L59.8489 103.309C59.9179 103.388 59.9683 103.481 59.9964 103.581C60.0244 103.681 60.0294 103.787 60.011 103.889L58.2379 113.733ZM53.2159 95.3734L53.152 95.7301L53.2159 95.3734Z" fill="#E3E3E3"/>
        <path d="M179.45 14.8619L188.195 16.401C188.245 16.4096 188.296 16.4071 188.344 16.3936C188.393 16.3802 188.438 16.3562 188.475 16.3233L195.194 10.582C195.247 10.537 195.313 10.5093 195.382 10.5026C195.452 10.4958 195.522 10.5105 195.582 10.5445C195.643 10.5785 195.692 10.6302 195.722 10.6926C195.752 10.7549 195.761 10.8248 195.749 10.8928L194.192 19.5374C194.183 19.5862 194.185 19.6366 194.198 19.6845C194.211 19.7325 194.236 19.7768 194.269 19.8142L200.076 26.4585C200.123 26.5105 200.151 26.5753 200.158 26.6441C200.165 26.7128 200.15 26.7821 200.116 26.8421C200.081 26.9022 200.029 26.9501 199.965 26.9793C199.902 27.0084 199.831 27.0173 199.762 27.0048L191.017 25.4656C190.968 25.4566 190.917 25.459 190.868 25.4725C190.82 25.4859 190.775 25.5102 190.737 25.5433L184.018 31.2749C183.965 31.3198 183.9 31.3476 183.83 31.3543C183.761 31.361 183.691 31.3464 183.63 31.3124C183.569 31.2784 183.521 31.2267 183.491 31.1644C183.461 31.102 183.451 31.0322 183.463 30.9642L185.02 22.3194C185.029 22.2706 185.027 22.2205 185.014 22.1727C185 22.1248 184.977 22.0804 184.944 22.0428L179.131 15.4081C179.086 15.3555 179.058 15.2902 179.052 15.2214C179.046 15.1527 179.061 15.0836 179.096 15.0238C179.131 14.964 179.184 14.9164 179.247 14.8874C179.311 14.8584 179.382 14.8495 179.45 14.8619Z" fill="#EAB669"/>
        <path d="M197.25 29.5894C197.17 29.6684 197.072 29.727 196.964 29.76C196.856 29.793 196.742 29.7994 196.631 29.7787L186.601 28.0138L178.893 34.6C178.782 34.6938 178.645 34.7514 178.499 34.7651C178.354 34.7788 178.208 34.7477 178.082 34.6762C177.955 34.6047 177.854 34.4963 177.792 34.3658C177.73 34.2352 177.711 34.0888 177.736 33.9468L179.521 24.0375L172.861 16.4197C172.765 16.3108 172.706 16.1751 172.691 16.0312C172.676 15.8874 172.707 15.7426 172.78 15.617C172.852 15.4913 172.962 15.391 173.095 15.33C173.227 15.2689 173.376 15.2502 173.519 15.2763L183.546 17.0412L191.25 10.4575C191.361 10.363 191.498 10.3047 191.643 10.2905C191.789 10.2763 191.935 10.307 192.062 10.3783C192.189 10.4496 192.291 10.5581 192.353 10.6888C192.415 10.8194 192.435 10.9659 192.409 11.1081L190.624 21.0199L197.284 28.6353C197.38 28.7446 197.439 28.8807 197.453 29.0247C197.467 29.1687 197.435 29.3134 197.363 29.4388C197.333 29.4942 197.295 29.545 197.25 29.5894ZM178.48 33.9931L186.132 27.4555C186.212 27.3875 186.305 27.3378 186.406 27.3101C186.507 27.2824 186.613 27.2773 186.717 27.2953L196.675 29.048L190.062 21.4836C189.993 21.4053 189.942 21.3128 189.914 21.2129C189.886 21.1129 189.881 21.008 189.899 20.9059L191.673 11.062L184.023 17.5995C183.944 17.6681 183.85 17.7182 183.748 17.746C183.646 17.7737 183.54 17.7784 183.436 17.7597L173.478 16.0069L180.091 23.5714C180.16 23.6495 180.211 23.742 180.239 23.842C180.267 23.942 180.272 24.047 180.253 24.1491L178.48 33.9931ZM173.458 15.6331L173.394 15.9924L173.458 15.6331Z" fill="#E3E3E3"/>
        <path d="M189.256 92.7416C189.187 92.8098 189.093 92.848 188.996 92.848C188.898 92.848 188.804 92.8098 188.735 92.7416C182.552 86.6847 160.334 65.334 134.133 44.9544C134.093 44.9256 134.059 44.889 134.033 44.8469C134.008 44.8047 133.991 44.7579 133.984 44.7091C133.977 44.6604 133.98 44.6109 133.993 44.5635C134.006 44.516 134.029 44.4716 134.06 44.4331C134.091 44.3945 134.129 44.3625 134.173 44.3391C134.217 44.3156 134.265 44.3011 134.314 44.2965C134.364 44.2919 134.414 44.2973 134.461 44.3123C134.509 44.3273 134.553 44.3517 134.59 44.3839C160.82 64.7757 183.062 86.1603 189.253 92.2244C189.288 92.258 189.315 92.2982 189.334 92.3423C189.352 92.3865 189.362 92.4339 189.362 92.4817C189.362 92.5296 189.352 92.5771 189.334 92.6213C189.315 92.6654 189.288 92.7054 189.253 92.7391L189.256 92.7416Z" fill="#E3E3E3"/>
        <path d="M250.699 171.404L228.44 193.408C227.572 194.264 226.474 194.856 225.276 195.115C224.079 195.373 222.831 195.286 221.681 194.865L206.338 189.206C205.478 188.889 204.698 188.392 204.051 187.749L190.27 174.123C190.233 174.09 190.204 174.05 190.184 174.005C190.164 173.96 190.153 173.912 190.152 173.863C190.152 173.814 190.161 173.766 190.179 173.721C190.198 173.675 190.225 173.634 190.26 173.599C190.295 173.565 190.337 173.538 190.383 173.519C190.429 173.501 190.478 173.492 190.527 173.493C190.577 173.494 190.625 173.504 190.671 173.524C190.716 173.544 190.756 173.573 190.79 173.609L204.574 187.232C205.146 187.8 205.836 188.239 206.596 188.519L221.939 194.178C222.956 194.551 224.059 194.628 225.118 194.401C226.178 194.173 227.149 193.65 227.917 192.893L250.176 170.89C250.942 170.131 251.472 169.17 251.703 168.123C251.933 167.075 251.855 165.984 251.477 164.979L245.753 149.811C245.47 149.06 245.026 148.378 244.451 147.813L204.695 108.513C204.626 108.444 204.587 108.351 204.587 108.255C204.588 108.158 204.627 108.065 204.696 107.997C204.765 107.929 204.859 107.89 204.957 107.891C205.055 107.891 205.149 107.929 205.218 107.998L244.972 147.298C245.623 147.937 246.126 148.708 246.445 149.558L252.17 164.724C252.596 165.86 252.684 167.093 252.423 168.277C252.162 169.461 251.564 170.546 250.699 171.404Z" fill="#E3E3E3"/>
        <path d="M173.314 156.849C173.245 156.917 173.151 156.955 173.054 156.955C172.957 156.955 172.863 156.917 172.794 156.849L151.63 135.904C151.529 135.807 141.443 125.895 128.386 111.669C128.327 111.596 128.298 111.504 128.306 111.412C128.314 111.319 128.357 111.232 128.427 111.17C128.497 111.108 128.589 111.075 128.683 111.077C128.777 111.08 128.867 111.118 128.933 111.184C141.974 125.392 152.047 135.292 152.148 135.392L173.327 156.325C173.361 156.36 173.388 156.401 173.406 156.447C173.423 156.492 173.432 156.541 173.431 156.589C173.43 156.638 173.419 156.686 173.399 156.731C173.379 156.775 173.35 156.816 173.314 156.849Z" fill="#E3E3E3"/>
        <path d="M113.378 94.2218L113.356 94.2437C113.281 94.306 113.185 94.3366 113.088 94.3288C112.991 94.3211 112.901 94.2757 112.838 94.2025C99.9348 79.1732 89.4757 65.5568 81.7547 53.7514C71.9439 38.744 66.5804 26.6522 65.8142 17.823C65.7296 16.8608 65.859 15.892 66.1934 14.9846C66.5278 14.0771 67.059 13.253 67.7499 12.5701C68.4407 11.8872 69.2743 11.3621 70.1923 11.0315C71.1103 10.701 72.0904 10.573 73.0637 10.6567C83.9797 11.5816 99.7139 19.2408 119.824 33.4228C119.899 33.4806 119.948 33.5646 119.962 33.6574C119.975 33.7501 119.952 33.8443 119.897 33.9206C119.842 33.9969 119.759 34.0493 119.666 34.0669C119.573 34.0845 119.476 34.066 119.397 34.0151C99.3946 19.9108 83.7882 12.2978 72.9999 11.3826C72.1337 11.3078 71.2614 11.4214 70.4443 11.7154C69.6271 12.0094 68.885 12.4766 68.2701 13.0844C67.6553 13.6923 67.1826 14.4259 66.8852 15.2336C66.5877 16.0413 66.4728 16.9036 66.5486 17.7599C67.4916 28.6258 76.3717 50.6271 113.397 93.7436C113.453 93.8122 113.482 93.8985 113.478 93.9864C113.475 94.0743 113.439 94.1579 113.378 94.2218Z" fill="#E3E3E3"/>
        <path d="M275.328 217.752C274.964 218.121 274.488 218.363 273.973 218.442C273.458 218.522 272.931 218.435 272.47 218.194C268.378 216.116 264.415 214.13 260.682 212.298C260.594 212.254 260.528 212.179 260.497 212.087C260.466 211.995 260.473 211.895 260.516 211.808C260.56 211.722 260.636 211.656 260.729 211.625C260.822 211.595 260.923 211.601 261.011 211.645C264.741 213.48 268.707 215.466 272.799 217.546C273.122 217.71 273.49 217.768 273.849 217.712C274.208 217.656 274.54 217.489 274.797 217.235C275.054 216.981 275.223 216.653 275.28 216.298C275.336 215.943 275.278 215.579 275.112 215.259C271.561 208.431 266.517 198.55 262.622 190.27C258.821 182.171 254.7 179.049 251.91 177.857C251.324 177.605 250.674 177.535 250.047 177.654C249.419 177.774 248.843 178.078 248.393 178.527L235.64 191.134C235.186 191.578 234.878 192.148 234.757 192.768C234.636 193.389 234.708 194.031 234.962 194.61C236.05 197.099 238.811 200.808 245.768 204.357C245.855 204.401 245.921 204.478 245.951 204.57C245.98 204.661 245.972 204.761 245.928 204.847C245.883 204.933 245.806 204.998 245.713 205.028C245.62 205.057 245.519 205.049 245.432 205.005C238.275 201.364 235.417 197.497 234.28 194.899C233.967 194.186 233.879 193.395 234.028 192.632C234.177 191.868 234.556 191.166 235.115 190.619L247.868 178.013C248.421 177.46 249.131 177.085 249.904 176.939C250.676 176.792 251.476 176.879 252.197 177.19C255.105 178.433 259.388 181.657 263.285 189.964C267.168 198.232 272.214 208.103 275.763 214.927C276.008 215.381 276.098 215.902 276.02 216.411C275.941 216.92 275.699 217.391 275.328 217.752Z" fill="#E3E3E3"/>
        <path d="M264.896 207.443C264.628 207.713 264.279 207.89 263.901 207.948C263.522 208.007 263.135 207.942 262.797 207.766C258.057 205.357 251.198 201.939 245.459 199.298C244.764 198.98 244.096 198.645 243.472 198.303C241.958 197.471 240.721 196.223 239.912 194.709C239.102 193.196 238.755 191.482 238.912 189.777C238.921 189.681 238.968 189.591 239.043 189.529C239.118 189.467 239.216 189.437 239.313 189.446C239.411 189.455 239.501 189.501 239.564 189.576C239.627 189.65 239.657 189.746 239.649 189.843C239.503 191.406 239.82 192.978 240.561 194.367C241.303 195.756 242.436 196.902 243.823 197.667C244.432 197.999 245.086 198.327 245.763 198.638C251.515 201.277 258.381 204.707 263.131 207.117C263.331 207.219 263.559 207.255 263.781 207.221C264.004 207.187 264.209 207.083 264.368 206.926C264.528 206.768 264.632 206.565 264.667 206.345C264.702 206.125 264.665 205.9 264.562 205.702C263.58 203.826 262.632 201.969 261.723 200.184C261.702 200.142 261.689 200.095 261.685 200.047C261.682 200 261.688 199.952 261.703 199.906C261.718 199.861 261.742 199.819 261.773 199.783C261.805 199.746 261.844 199.717 261.887 199.695C261.93 199.674 261.977 199.661 262.025 199.657C262.074 199.654 262.122 199.659 262.168 199.674C262.214 199.689 262.257 199.713 262.293 199.744C262.33 199.776 262.36 199.814 262.382 199.857C263.288 201.638 264.243 203.498 265.218 205.37C265.397 205.703 265.463 206.085 265.405 206.459C265.347 206.832 265.169 207.177 264.896 207.443Z" fill="#E3E3E3"/>
        <path d="M257.846 191.302C257.818 191.333 257.784 191.357 257.745 191.373C257.702 191.393 257.654 191.405 257.606 191.408C257.558 191.41 257.509 191.403 257.464 191.387C257.418 191.371 257.376 191.346 257.34 191.314C257.304 191.282 257.275 191.244 257.254 191.2C256.817 190.295 256.39 189.402 255.985 188.53C255.668 187.858 255.339 187.212 255.002 186.612C254.159 185.105 252.851 183.903 251.269 183.181C249.687 182.46 247.913 182.257 246.206 182.602C246.158 182.613 246.108 182.614 246.059 182.606C246.011 182.598 245.964 182.58 245.923 182.553C245.881 182.527 245.846 182.493 245.818 182.452C245.79 182.412 245.771 182.367 245.761 182.319C245.751 182.271 245.751 182.222 245.761 182.174C245.771 182.126 245.791 182.081 245.819 182.041C245.847 182.001 245.883 181.966 245.924 181.94C245.966 181.914 246.012 181.896 246.061 181.888C247.92 181.514 249.851 181.736 251.574 182.522C253.296 183.308 254.72 184.617 255.638 186.258C255.982 186.872 256.321 187.535 256.645 188.222C257.05 189.086 257.475 189.977 257.912 190.88C257.948 190.948 257.96 191.026 257.949 191.102C257.937 191.178 257.901 191.248 257.846 191.302Z" fill="#E3E3E3"/>
        <path d="M271.142 138.734C270.57 137.719 269.768 136.849 268.799 136.193C267.829 135.537 266.719 135.111 265.555 134.951C264.391 134.791 263.205 134.901 262.091 135.271C260.977 135.641 259.966 136.261 259.136 137.084C258.304 137.904 257.676 138.904 257.302 140.006C256.927 141.107 256.817 142.279 256.979 143.429C257.141 144.58 257.57 145.678 258.235 146.636C258.899 147.594 259.779 148.387 260.806 148.952C261.338 149.243 261.918 149.535 262.544 149.821C267.763 152.217 274.054 155.368 277.9 157.323C278.141 157.45 278.416 157.498 278.686 157.458C278.956 157.419 279.205 157.295 279.398 157.104C279.591 156.913 279.717 156.666 279.757 156.4C279.796 156.133 279.748 155.861 279.619 155.623C277.64 151.822 274.462 145.602 272.031 140.444C271.731 139.834 271.437 139.261 271.142 138.734Z" fill="#CE7783"/>
        <path d="M206.93 203.608C206.359 202.593 205.557 201.722 204.588 201.066C203.618 200.41 202.508 199.985 201.344 199.824C200.181 199.664 198.995 199.774 197.881 200.144C196.768 200.514 195.756 201.134 194.926 201.957C194.094 202.777 193.466 203.777 193.091 204.878C192.716 205.98 192.606 207.152 192.768 208.303C192.93 209.453 193.36 210.551 194.024 211.51C194.688 212.468 195.569 213.261 196.596 213.825C197.129 214.117 197.706 214.408 198.332 214.694C203.553 217.088 209.845 220.239 213.691 222.196C213.931 222.318 214.204 222.362 214.471 222.321C214.738 222.279 214.985 222.155 215.175 221.965C215.365 221.775 215.49 221.531 215.53 221.267C215.57 221.003 215.523 220.733 215.398 220.496C213.421 216.695 210.24 210.475 207.812 205.317C207.522 204.705 207.228 204.135 206.93 203.608Z" fill="#CE7783"/>
        <path d="M268.327 156.269C268.273 156.323 268.203 156.359 268.126 156.372C268.05 156.385 267.972 156.373 267.903 156.339C264.71 154.766 261.856 153.409 259.45 152.307C253.848 149.736 251.67 146.906 250.828 144.983C250.609 144.488 250.547 143.939 250.65 143.408C250.754 142.878 251.018 142.391 251.407 142.012L259.852 133.661C260.236 133.276 260.729 133.016 261.266 132.914C261.802 132.812 262.358 132.874 262.858 133.09C264.192 133.658 265.488 134.646 266.714 136.02C266.747 136.056 266.772 136.098 266.788 136.143C266.804 136.188 266.811 136.236 266.808 136.284C266.805 136.332 266.792 136.379 266.771 136.422C266.749 136.465 266.719 136.504 266.682 136.535C266.646 136.567 266.603 136.591 266.558 136.607C266.512 136.623 266.463 136.629 266.414 136.626C266.366 136.623 266.319 136.61 266.275 136.589C266.232 136.567 266.193 136.537 266.161 136.501C264.725 134.892 263.413 134.12 262.566 133.758C262.201 133.601 261.796 133.558 261.406 133.632C261.015 133.707 260.656 133.896 260.376 134.175L251.928 142.526C251.644 142.803 251.452 143.158 251.376 143.545C251.3 143.932 251.344 144.333 251.503 144.694C252.294 146.5 254.369 149.173 259.759 151.647C262.171 152.751 265.022 154.111 268.229 155.686C268.316 155.729 268.382 155.804 268.414 155.895C268.445 155.986 268.439 156.086 268.396 156.172C268.378 156.208 268.355 156.24 268.327 156.269Z" fill="#E3E3E3"/>
        <path d="M278.213 160.158C277.953 160.422 277.614 160.596 277.246 160.653C276.878 160.709 276.501 160.647 276.172 160.474L274.453 159.602C274.408 159.582 274.367 159.553 274.333 159.516C274.299 159.48 274.273 159.437 274.257 159.391C274.24 159.344 274.233 159.295 274.236 159.246C274.24 159.197 274.253 159.149 274.276 159.105C274.298 159.061 274.33 159.022 274.368 158.99C274.406 158.959 274.451 158.935 274.499 158.921C274.547 158.907 274.597 158.903 274.646 158.908C274.696 158.914 274.744 158.929 274.787 158.954L276.506 159.825C276.697 159.922 276.914 159.957 277.126 159.924C277.338 159.891 277.534 159.792 277.686 159.642C277.838 159.492 277.938 159.298 277.971 159.089C278.004 158.879 277.969 158.664 277.871 158.476C275.661 154.239 272.508 148.069 269.976 142.725C269.953 142.682 269.939 142.634 269.935 142.585C269.931 142.536 269.937 142.487 269.953 142.44C269.968 142.394 269.993 142.351 270.026 142.314C270.059 142.277 270.1 142.247 270.145 142.226C270.19 142.205 270.238 142.194 270.288 142.192C270.338 142.19 270.387 142.198 270.434 142.215C270.48 142.233 270.523 142.26 270.558 142.294C270.594 142.328 270.622 142.369 270.642 142.415C273.171 147.755 276.324 153.912 278.525 158.143C278.7 158.467 278.765 158.839 278.708 159.202C278.652 159.565 278.478 159.901 278.213 160.158Z" fill="#E3E3E3"/>
        <path d="M271.303 153.329C271.109 153.528 270.854 153.658 270.578 153.702C270.302 153.746 270.019 153.7 269.771 153.572C266.63 151.975 262.089 149.707 258.288 147.964C257.826 147.751 257.379 147.527 256.964 147.302C255.999 146.773 255.198 145.993 254.651 145.046C254.103 144.1 253.828 143.022 253.858 141.932C253.86 141.835 253.901 141.743 253.971 141.677C254.042 141.61 254.137 141.574 254.235 141.576C254.332 141.578 254.425 141.619 254.492 141.689C254.56 141.759 254.597 141.852 254.594 141.949C254.568 142.906 254.809 143.852 255.289 144.683C255.77 145.515 256.473 146.199 257.32 146.663C257.721 146.881 258.15 147.098 258.597 147.304C262.409 149.052 266.962 151.324 270.107 152.924C270.217 152.98 270.341 153 270.462 152.981C270.584 152.962 270.696 152.906 270.783 152.82C270.87 152.734 270.927 152.623 270.946 152.503C270.965 152.383 270.945 152.26 270.888 152.152C269.273 149.04 266.971 144.541 265.203 140.774C264.995 140.332 264.778 139.907 264.557 139.511C264.177 138.829 263.646 138.24 263.005 137.788C262.364 137.335 261.628 137.031 260.852 136.897C260.803 136.889 260.757 136.871 260.716 136.845C260.674 136.819 260.638 136.785 260.61 136.746C260.582 136.706 260.562 136.661 260.551 136.614C260.54 136.566 260.539 136.517 260.547 136.47C260.555 136.422 260.573 136.376 260.6 136.335C260.626 136.294 260.66 136.259 260.7 136.231C260.74 136.203 260.786 136.183 260.834 136.172C260.881 136.161 260.931 136.16 260.979 136.169C261.864 136.321 262.702 136.669 263.433 137.184C264.164 137.7 264.768 138.372 265.201 139.15C265.432 139.56 265.658 139.999 265.871 140.458C267.634 144.214 269.931 148.712 271.544 151.807C271.676 152.052 271.724 152.333 271.681 152.608C271.637 152.882 271.505 153.135 271.303 153.329Z" fill="#E3E3E3"/>
        <path d="M145.061 95.6283C151.706 95.6283 157.094 90.3026 157.094 83.7331C157.094 77.1636 151.706 71.8379 145.061 71.8379C138.415 71.8379 133.027 77.1636 133.027 83.7331C133.027 90.3026 138.415 95.6283 145.061 95.6283Z" fill="#71A5D2"/>
        <path d="M153.295 97.7907C151.845 99.2303 150.087 100.331 148.15 101.012C146.213 101.693 144.147 101.937 142.102 101.726C142.054 101.721 142.007 101.707 141.964 101.684C141.921 101.661 141.883 101.631 141.852 101.593C141.822 101.556 141.799 101.513 141.785 101.467C141.77 101.421 141.766 101.373 141.77 101.325C141.775 101.277 141.79 101.231 141.813 101.189C141.836 101.146 141.867 101.109 141.904 101.078C141.942 101.048 141.985 101.025 142.032 101.011C142.078 100.997 142.127 100.993 142.176 100.998C144.976 101.281 147.794 100.665 150.212 99.2412C152.63 97.8175 154.52 95.6616 155.602 93.093C156.684 90.5244 156.9 87.6796 156.218 84.9801C155.537 82.2806 153.993 79.8699 151.817 78.1051C149.641 76.3404 146.948 75.3154 144.137 75.182C141.325 75.0487 138.545 75.8142 136.208 77.3649C133.871 78.9156 132.102 81.1691 131.162 83.7917C130.222 86.4143 130.162 89.2664 130.99 91.9256C131.004 91.9713 131.009 92.0195 131.004 92.0671C131 92.1147 130.985 92.1609 130.963 92.2032C130.94 92.2454 130.909 92.2829 130.872 92.3134C130.835 92.3439 130.792 92.3667 130.745 92.3807C130.652 92.4091 130.551 92.3996 130.464 92.3543C130.378 92.309 130.313 92.2317 130.285 92.1393C129.563 89.8239 129.477 87.3606 130.035 85.0015C130.592 82.6423 131.773 80.4718 133.458 78.7119C135.142 76.952 137.269 75.6659 139.621 74.985C141.973 74.3041 144.466 74.2528 146.844 74.8365C149.223 75.4202 151.402 76.6179 153.159 78.3071C154.916 79.9963 156.187 82.1163 156.843 84.4505C157.499 86.7847 157.517 89.2494 156.893 91.5924C156.27 93.9354 155.028 96.0727 153.295 97.7858V97.7907Z" fill="#E3E3E3"/>
        <path d="M112.061 28.6427L89.7133 50.7338C89.6434 50.7981 89.551 50.8331 89.4556 50.8315C89.3601 50.8298 89.2691 50.7915 89.2016 50.7248C89.1341 50.6581 89.0955 50.5681 89.0938 50.4737C89.0921 50.3794 89.1275 50.2881 89.1926 50.2191L111.54 28.128C111.61 28.0637 111.702 28.0287 111.798 28.0303C111.893 28.032 111.984 28.0702 112.052 28.1369C112.119 28.2036 112.158 28.2936 112.16 28.3879C112.161 28.4823 112.126 28.5737 112.061 28.6427Z" fill="#E3E3E3"/>
        <path d="M146.966 54.8398L123.481 78.055C123.412 78.1226 123.318 78.1605 123.221 78.1605C123.123 78.1605 123.03 78.1226 122.96 78.055C122.926 78.0213 122.899 77.9812 122.88 77.937C122.861 77.8929 122.852 77.8455 122.852 77.7976C122.852 77.7498 122.861 77.7023 122.88 77.6581C122.899 77.614 122.926 77.5739 122.96 77.5403L146.445 54.3253C146.515 54.2609 146.607 54.2259 146.703 54.2276C146.798 54.2293 146.889 54.2674 146.957 54.3342C147.024 54.4009 147.063 54.4909 147.064 54.5852C147.066 54.6796 147.031 54.7708 146.966 54.8398Z" fill="#E3E3E3"/>
        <path d="M160.469 102.604L139.647 123.186C139.613 123.22 139.572 123.247 139.528 123.265C139.483 123.284 139.435 123.293 139.387 123.293C139.338 123.293 139.29 123.284 139.246 123.265C139.201 123.247 139.16 123.22 139.126 123.186C139.058 123.117 139.02 123.025 139.02 122.928C139.02 122.832 139.058 122.74 139.126 122.671L159.946 102.09C160.015 102.021 160.109 101.983 160.207 101.982C160.305 101.982 160.399 102.02 160.468 102.089C160.538 102.157 160.577 102.25 160.577 102.346C160.577 102.443 160.538 102.536 160.469 102.604Z" fill="#E3E3E3"/>
        <path d="M200.737 123.213L184.705 139.06C183.625 140.128 183.625 141.859 184.705 142.926L207.273 165.235C208.353 166.302 210.103 166.302 211.183 165.235L227.215 149.387C228.295 148.32 228.295 146.589 227.215 145.522L204.647 123.213C203.567 122.146 201.817 122.145 200.737 123.213Z" fill="#EAB669"/>
        <path d="M228.622 154.621L211.458 171.59C210.871 172.167 210.076 172.491 209.248 172.491C208.42 172.491 207.626 172.167 207.038 171.59L203.905 168.492C203.839 168.423 203.804 168.332 203.806 168.238C203.807 168.143 203.846 168.053 203.914 167.987C203.981 167.92 204.072 167.882 204.167 167.88C204.263 167.878 204.355 167.913 204.425 167.978L207.559 171.075C208.009 171.518 208.618 171.767 209.253 171.767C209.888 171.767 210.498 171.518 210.948 171.075L228.101 154.111C228.549 153.666 228.801 153.064 228.801 152.436C228.801 151.808 228.549 151.206 228.101 150.761L204.035 126.971C203.585 126.528 202.975 126.279 202.34 126.279C201.705 126.279 201.096 126.528 200.646 126.971L183.482 143.937C183.034 144.382 182.783 144.985 182.783 145.612C182.783 146.24 183.034 146.842 183.482 147.287L191.697 155.408C191.733 155.441 191.762 155.481 191.782 155.526C191.802 155.571 191.813 155.619 191.814 155.668C191.815 155.717 191.806 155.765 191.787 155.81C191.769 155.856 191.741 155.897 191.706 155.932C191.671 155.966 191.63 155.993 191.584 156.012C191.538 156.03 191.489 156.039 191.439 156.038C191.39 156.037 191.341 156.027 191.296 156.007C191.251 155.987 191.21 155.958 191.176 155.922L182.959 147.8C182.375 147.219 182.047 146.434 182.047 145.615C182.047 144.796 182.375 144.01 182.959 143.43L200.12 126.463C200.709 125.884 201.506 125.559 202.336 125.559C203.167 125.559 203.964 125.884 204.553 126.463L228.619 150.254C229.202 150.834 229.529 151.619 229.53 152.437C229.53 153.255 229.204 154.04 228.622 154.621Z" fill="#E3E3E3"/>
        <path d="M181.925 106.625L162.907 125.424C162.526 125.8 162.011 126.011 161.473 126.011C160.935 126.011 160.42 125.8 160.039 125.424L155.675 121.111C155.295 120.734 155.082 120.224 155.082 119.693C155.082 119.161 155.295 118.651 155.675 118.275L165.989 108.079C166.023 108.045 166.064 108.018 166.108 108C166.153 107.981 166.201 107.972 166.249 107.972C166.298 107.972 166.346 107.981 166.391 108C166.435 108.018 166.476 108.045 166.51 108.079C166.578 108.148 166.617 108.24 166.617 108.337C166.617 108.433 166.578 108.525 166.51 108.594L156.196 118.79C155.954 119.03 155.818 119.354 155.818 119.693C155.818 120.031 155.954 120.356 156.196 120.596L160.559 124.91C160.802 125.149 161.131 125.283 161.473 125.283C161.816 125.283 162.144 125.149 162.387 124.91L181.404 106.11C181.646 105.871 181.782 105.546 181.782 105.207C181.782 104.869 181.646 104.544 181.404 104.304L177.04 99.9905C176.798 99.7515 176.469 99.6173 176.127 99.6173C175.784 99.6173 175.456 99.7515 175.213 99.9905L173.334 101.848C173.3 101.881 173.259 101.908 173.214 101.926C173.17 101.945 173.122 101.954 173.073 101.954C173.025 101.954 172.977 101.944 172.932 101.926C172.887 101.907 172.847 101.88 172.813 101.846C172.778 101.812 172.751 101.772 172.733 101.728C172.714 101.684 172.705 101.636 172.705 101.588C172.705 101.54 172.715 101.493 172.734 101.449C172.752 101.404 172.779 101.364 172.814 101.331L174.693 99.4758C175.073 99.1005 175.589 98.8896 176.127 98.8896C176.664 98.8896 177.18 99.1005 177.561 99.4758L181.925 103.79C182.304 104.166 182.518 104.676 182.518 105.207C182.518 105.739 182.304 106.249 181.925 106.625Z" fill="#E3E3E3"/>
        <path d="M260.527 122.169L239.518 142.944L204.695 108.521C204.63 108.452 204.594 108.36 204.596 108.266C204.597 108.172 204.636 108.082 204.704 108.015C204.771 107.948 204.862 107.91 204.958 107.908C205.053 107.907 205.145 107.942 205.215 108.006L239.518 141.915L260.006 121.661C260.639 121.03 261.022 120.195 261.086 119.308C261.149 118.421 260.889 117.541 260.352 116.828C257.712 113.342 251.58 106.377 240.156 98.8637C223.54 87.9396 189.395 92.7948 189.051 92.8433C189.003 92.8504 188.954 92.8478 188.906 92.836C188.859 92.8242 188.814 92.8033 188.775 92.7745C188.696 92.7162 188.643 92.6291 188.629 92.5326C188.615 92.436 188.64 92.3378 188.699 92.2594C188.758 92.1811 188.846 92.1292 188.943 92.1151C195.375 91.284 201.858 90.9043 208.344 90.9789C226.161 91.195 235.704 95.0525 240.574 98.2496C252.089 105.816 258.282 112.854 260.956 116.376C261.599 117.233 261.909 118.288 261.83 119.351C261.751 120.415 261.289 121.414 260.527 122.169Z" fill="#E3E3E3"/>
        <path d="M259.597 131.944L249.671 141.756C249.108 142.311 248.345 142.623 247.55 142.623C246.755 142.623 245.993 142.311 245.43 141.756L243.976 140.319C243.906 140.251 243.867 140.158 243.867 140.062C243.867 139.965 243.906 139.872 243.975 139.803C244.044 139.735 244.137 139.696 244.235 139.696C244.333 139.696 244.427 139.734 244.496 139.802L245.95 141.242C246.375 141.658 246.949 141.892 247.547 141.892C248.145 141.892 248.718 141.658 249.143 141.242L259.069 131.427C259.491 131.008 259.728 130.44 259.728 129.849C259.728 129.258 259.491 128.691 259.069 128.271C259.033 128.238 259.004 128.198 258.984 128.153C258.964 128.108 258.953 128.06 258.952 128.011C258.951 127.962 258.96 127.914 258.979 127.868C258.997 127.823 259.025 127.782 259.06 127.747C259.095 127.713 259.136 127.685 259.182 127.667C259.228 127.649 259.277 127.64 259.327 127.641C259.376 127.642 259.425 127.652 259.47 127.672C259.515 127.692 259.556 127.721 259.59 127.756C260.151 128.312 260.466 129.064 260.468 129.849C260.469 130.633 260.156 131.387 259.597 131.944Z" fill="#E3E3E3"/>
        <path d="M250.871 126.519C250.142 127.242 249.29 127.832 248.354 128.262C248.266 128.303 248.164 128.308 248.073 128.275C247.981 128.242 247.906 128.174 247.864 128.086C247.823 127.999 247.819 127.899 247.852 127.808C247.885 127.717 247.954 127.643 248.042 127.602C249.6 126.89 250.888 125.705 251.717 124.22C252.547 122.735 252.876 121.027 252.655 119.344C252.435 117.661 251.678 116.092 250.494 114.864C249.309 113.636 247.759 112.814 246.069 112.517C244.38 112.22 242.638 112.464 241.098 113.212C239.558 113.961 238.3 115.176 237.506 116.681C236.713 118.185 236.426 119.901 236.686 121.577C236.947 123.254 237.742 124.805 238.956 126.005C239.021 126.074 239.057 126.165 239.055 126.259C239.053 126.354 239.015 126.444 238.947 126.51C238.88 126.577 238.789 126.615 238.693 126.617C238.598 126.619 238.505 126.584 238.436 126.519C237.205 125.303 236.367 123.753 236.028 122.066C235.689 120.379 235.863 118.63 236.529 117.041C237.196 115.451 238.323 114.093 239.77 113.138C241.217 112.182 242.918 111.672 244.658 111.672C246.399 111.672 248.1 112.182 249.547 113.138C250.993 114.093 252.121 115.451 252.787 117.041C253.453 118.63 253.628 120.379 253.289 122.066C252.949 123.753 252.112 125.303 250.881 126.519H250.871Z" fill="#E3E3E3"/>
        <path d="M217.061 220.608C216.801 220.871 216.462 221.044 216.094 221.1C215.727 221.157 215.351 221.094 215.022 220.921C212.682 219.732 209.114 217.935 205.418 216.134C205.372 216.114 205.331 216.086 205.296 216.05C205.262 216.014 205.235 215.972 205.218 215.926C205.201 215.879 205.193 215.83 205.196 215.781C205.198 215.732 205.211 215.684 205.233 215.639C205.255 215.595 205.286 215.556 205.324 215.523C205.362 215.491 205.406 215.467 205.453 215.452C205.501 215.437 205.551 215.432 205.6 215.437C205.65 215.442 205.698 215.457 205.742 215.481C209.443 217.285 213.016 219.083 215.359 220.275C215.548 220.378 215.767 220.415 215.981 220.383C216.194 220.35 216.391 220.248 216.54 220.093C216.696 219.946 216.799 219.752 216.832 219.54C216.866 219.329 216.828 219.113 216.724 218.926C216.174 217.865 215.536 216.632 214.848 215.284C214.823 215.242 214.807 215.194 214.802 215.145C214.796 215.096 214.8 215.047 214.815 214.999C214.829 214.952 214.853 214.908 214.885 214.87C214.917 214.832 214.956 214.801 215 214.779C215.045 214.757 215.093 214.743 215.143 214.74C215.193 214.737 215.243 214.744 215.29 214.76C215.337 214.776 215.38 214.802 215.417 214.835C215.454 214.869 215.483 214.909 215.504 214.954C216.191 216.294 216.83 217.525 217.38 218.596C217.554 218.92 217.617 219.291 217.559 219.654C217.502 220.017 217.327 220.352 217.061 220.608Z" fill="#E3E3E3"/>
        <path d="M212.778 210.145C212.75 210.173 212.718 210.196 212.682 210.213C212.595 210.255 212.494 210.261 212.402 210.23C212.31 210.199 212.234 210.134 212.191 210.048C210.75 207.169 209.49 204.586 208.449 202.367C205.949 197.038 203.245 194.99 201.418 194.205C201.052 194.049 200.647 194.005 200.255 194.08C199.864 194.155 199.505 194.345 199.225 194.625L190.777 202.976C190.493 203.252 190.3 203.607 190.224 203.994C190.149 204.381 190.194 204.781 190.354 205.142C191.047 206.727 192.795 209.099 197.177 211.393C197.258 211.44 197.319 211.517 197.345 211.607C197.371 211.697 197.36 211.794 197.316 211.877C197.272 211.96 197.197 212.023 197.107 212.052C197.017 212.082 196.918 212.076 196.833 212.036C192.26 209.642 190.418 207.123 189.679 205.431C189.46 204.936 189.399 204.388 189.502 203.858C189.605 203.328 189.868 202.841 190.256 202.462L198.704 194.111C199.088 193.726 199.58 193.465 200.117 193.363C200.654 193.26 201.209 193.322 201.71 193.538C203.655 194.37 206.518 196.524 209.119 202.061C210.155 204.273 211.413 206.851 212.852 209.725C212.885 209.794 212.896 209.871 212.883 209.947C212.869 210.022 212.833 210.091 212.778 210.145Z" fill="#E3E3E3"/>
        <path d="M210.155 213.776C209.96 213.975 209.705 214.107 209.429 214.15C209.152 214.194 208.868 214.148 208.62 214.019C205.482 212.424 200.941 210.155 197.139 208.412C196.678 208.2 196.231 207.977 195.816 207.749C194.85 207.222 194.049 206.442 193.501 205.496C192.953 204.549 192.679 203.472 192.709 202.381C192.71 202.333 192.721 202.286 192.741 202.243C192.76 202.199 192.788 202.159 192.823 202.126C192.858 202.093 192.899 202.067 192.945 202.05C192.99 202.033 193.038 202.025 193.086 202.026C193.135 202.027 193.182 202.037 193.227 202.057C193.271 202.076 193.311 202.104 193.344 202.138C193.378 202.173 193.404 202.214 193.421 202.258C193.439 202.303 193.447 202.351 193.446 202.398C193.42 203.356 193.661 204.301 194.141 205.133C194.622 205.964 195.324 206.649 196.172 207.113C196.572 207.331 197.002 207.547 197.449 207.751C201.26 209.499 205.811 211.774 208.957 213.371C209.066 213.428 209.191 213.449 209.313 213.43C209.435 213.412 209.548 213.356 209.635 213.27C209.723 213.183 209.78 213.072 209.799 212.951C209.818 212.831 209.797 212.707 209.74 212.599C208.124 209.492 205.826 204.996 204.055 201.223C203.846 200.779 203.628 200.354 203.407 199.959C203.06 199.333 202.585 198.785 202.013 198.349C201.442 197.913 200.785 197.599 200.084 197.427C199.989 197.403 199.908 197.343 199.858 197.26C199.808 197.177 199.793 197.077 199.817 196.984C199.842 196.89 199.902 196.81 199.986 196.76C200.07 196.711 200.171 196.696 200.266 196.72C201.064 196.917 201.813 197.275 202.465 197.772C203.116 198.269 203.657 198.893 204.052 199.607C204.281 200.017 204.507 200.459 204.723 200.915C206.489 204.678 208.782 209.169 210.396 212.267C210.525 212.51 210.571 212.789 210.528 213.061C210.485 213.333 210.354 213.584 210.155 213.776Z" fill="#E3E3E3"/>
        <path d="M199.639 182.358L178.642 203.126C177.878 203.876 176.867 204.329 175.793 204.404C174.719 204.479 173.654 204.172 172.79 203.537C169.227 200.9 162.105 194.776 154.453 183.388C151.56 179.081 149.487 173.257 148.294 166.076C148.286 166.029 148.288 165.98 148.299 165.933C148.311 165.886 148.331 165.841 148.36 165.802C148.389 165.763 148.425 165.729 148.467 165.704C148.508 165.679 148.555 165.662 148.603 165.654C148.652 165.646 148.701 165.648 148.749 165.659C148.796 165.671 148.841 165.691 148.881 165.72C148.921 165.748 148.954 165.784 148.98 165.825C149.006 165.866 149.023 165.912 149.03 165.96C150.207 173.036 152.24 178.766 155.077 182.985C162.667 194.275 169.716 200.337 173.249 202.947C173.971 203.477 174.861 203.734 175.758 203.672C176.655 203.609 177.5 203.23 178.139 202.604L198.627 182.351L190.297 174.117C190.261 174.083 190.232 174.043 190.212 173.998C190.192 173.954 190.181 173.906 190.18 173.857C190.179 173.808 190.188 173.759 190.207 173.714C190.226 173.669 190.253 173.627 190.288 173.593C190.323 173.558 190.365 173.531 190.411 173.513C190.456 173.494 190.506 173.485 190.555 173.486C190.605 173.487 190.653 173.498 190.699 173.518C190.744 173.538 190.784 173.566 190.818 173.602L199.639 182.358Z" fill="#E3E3E3"/>
        <path d="M173.311 156.849C173.242 156.917 173.148 156.955 173.051 156.955C172.954 156.955 172.86 156.917 172.791 156.849L148.862 133.195C148.234 138.22 147.887 143.275 147.823 148.338C147.823 148.435 147.784 148.527 147.715 148.596C147.646 148.664 147.552 148.702 147.454 148.702C147.357 148.702 147.263 148.664 147.194 148.596C147.125 148.527 147.086 148.435 147.086 148.338C147.144 142.999 147.527 137.668 148.233 132.374L148.338 131.658L173.311 156.342C173.377 156.411 173.414 156.501 173.414 156.596C173.414 156.69 173.377 156.781 173.311 156.849Z" fill="#E3E3E3"/>
        <path d="M198.445 192.392L188.516 202.205C187.953 202.76 187.19 203.071 186.395 203.071C185.6 203.071 184.838 202.76 184.275 202.205L182.801 200.748C182.752 200.679 182.729 200.594 182.736 200.509C182.742 200.425 182.779 200.345 182.839 200.284C182.899 200.224 182.979 200.185 183.064 200.177C183.15 200.168 183.236 200.189 183.307 200.236L184.781 201.692C185.205 202.109 185.779 202.343 186.377 202.343C186.975 202.343 187.549 202.109 187.973 201.692L197.899 191.88C198.322 191.461 198.559 190.894 198.559 190.302C198.559 189.711 198.322 189.143 197.899 188.724L196.335 187.178C196.267 187.109 196.228 187.017 196.228 186.921C196.228 186.824 196.267 186.732 196.335 186.663C196.369 186.629 196.41 186.602 196.454 186.584C196.499 186.565 196.547 186.556 196.595 186.556C196.644 186.556 196.692 186.565 196.736 186.584C196.781 186.602 196.822 186.629 196.856 186.663L198.422 188.21C198.984 188.763 199.301 189.513 199.305 190.297C199.309 191.08 199 191.833 198.445 192.392Z" fill="#E3E3E3"/>
        <path d="M183.035 193.58C182.072 194.531 180.899 195.248 179.609 195.675C178.318 196.102 176.945 196.228 175.598 196.042C174.25 195.856 172.964 195.363 171.841 194.603C170.719 193.842 169.79 192.835 169.127 191.66C168.465 190.484 168.088 189.173 168.025 187.829C167.962 186.486 168.215 185.146 168.765 183.915C169.314 182.684 170.145 181.596 171.192 180.737C172.239 179.877 173.473 179.269 174.798 178.961C174.846 178.948 174.895 178.945 174.944 178.952C174.993 178.958 175.041 178.975 175.083 179C175.125 179.025 175.162 179.058 175.192 179.098C175.221 179.137 175.242 179.182 175.253 179.23C175.264 179.277 175.265 179.327 175.257 179.375C175.248 179.423 175.23 179.469 175.203 179.51C175.176 179.551 175.141 179.587 175.1 179.614C175.06 179.641 175.013 179.66 174.965 179.67C173.226 180.074 171.673 181.037 170.547 182.408C169.422 183.779 168.789 185.48 168.748 187.245C168.706 189.01 169.259 190.739 170.318 192.16C171.378 193.581 172.885 194.615 174.603 195.098C176.32 195.581 178.152 195.487 179.81 194.831C181.467 194.174 182.858 192.992 183.763 191.47C184.668 189.948 185.036 188.172 184.81 186.421C184.584 184.67 183.777 183.042 182.514 181.794C182.261 181.544 181.992 181.31 181.708 181.095C181.67 181.066 181.638 181.029 181.614 180.988C181.59 180.946 181.574 180.9 181.568 180.853C181.561 180.806 181.565 180.757 181.577 180.711C181.59 180.665 181.611 180.622 181.641 180.584C181.67 180.546 181.707 180.514 181.749 180.49C181.791 180.466 181.837 180.451 181.885 180.445C181.933 180.438 181.982 180.441 182.029 180.454C182.076 180.466 182.119 180.488 182.158 180.517C182.466 180.751 182.759 181.005 183.035 181.277C184.682 182.91 185.608 185.122 185.608 187.428C185.608 189.735 184.682 191.947 183.035 193.58Z" fill="#E3E3E3"/>
        <path d="M256.005 62.8476C272.309 62.8476 285.526 49.7823 285.526 33.6655C285.526 17.5487 272.309 4.4834 256.005 4.4834C239.701 4.4834 226.484 17.5487 226.484 33.6655C226.484 49.7823 239.701 62.8476 256.005 62.8476Z" fill="#71A5D2"/>
        <path d="M277.003 61.6703C271.194 67.3994 263.324 70.6169 255.118 70.6169C246.913 70.6169 239.042 67.3994 233.234 61.6703C232.944 61.3838 232.657 61.0877 232.381 60.7939C232.316 60.7225 232.282 60.6288 232.285 60.5327C232.289 60.4366 232.331 60.3456 232.401 60.2793C232.436 60.2464 232.478 60.2209 232.523 60.2041C232.569 60.1873 232.617 60.1795 232.666 60.1813C232.714 60.1832 232.761 60.1945 232.805 60.2147C232.849 60.2348 232.889 60.2633 232.922 60.2987C233.192 60.5876 233.472 60.874 233.754 61.1556C236.68 64.0223 240.168 66.2673 244.003 67.7524C247.839 69.2375 251.941 69.9313 256.058 69.7913C260.175 69.6513 264.219 68.6804 267.943 66.9382C271.666 65.196 274.989 62.7195 277.709 59.6607C280.428 56.602 282.486 53.0258 283.755 49.1519C285.025 45.2781 285.479 41.1885 285.091 37.1346C284.703 33.0807 283.48 29.1481 281.497 25.5786C279.514 22.0092 276.814 18.8784 273.562 16.3787C273.485 16.3194 273.434 16.2322 273.422 16.1362C273.41 16.0401 273.436 15.943 273.496 15.8664C273.556 15.7898 273.644 15.7399 273.741 15.7276C273.839 15.7153 273.937 15.7416 274.014 15.8008C275.065 16.6053 276.063 17.4745 277.003 18.4033C282.799 24.1453 286.053 31.9255 286.053 40.0368C286.053 48.1482 282.799 55.9282 277.003 61.6703Z" fill="#E3E3E3"/>
        <path d="M228.297 54.3542C228.27 54.3793 228.24 54.4006 228.207 54.4174C228.164 54.4393 228.118 54.4527 228.07 54.4568C228.022 54.461 227.974 54.4559 227.929 54.4417C227.883 54.4274 227.841 54.4045 227.804 54.3741C227.768 54.3437 227.737 54.3064 227.715 54.2644C224.697 48.544 223.57 42.0317 224.493 35.6448C225.204 30.8149 227.072 26.223 229.943 22.2521C232.813 18.2812 236.603 15.0464 240.995 12.8178C245.388 10.5891 250.256 9.43114 255.193 9.44049C260.13 9.44983 264.994 10.6262 269.378 12.8715C269.465 12.9159 269.53 12.9926 269.56 13.0848C269.59 13.177 269.581 13.2771 269.536 13.363C269.491 13.449 269.413 13.5139 269.32 13.5432C269.227 13.5726 269.126 13.5641 269.039 13.5196C263.398 10.6469 256.991 9.58766 250.711 10.49C244.279 11.4296 238.325 14.3947 233.733 18.9451C229.141 23.4955 226.155 29.3885 225.22 35.7492C224.322 41.9845 225.422 48.3413 228.366 53.927C228.402 53.9961 228.415 54.0749 228.403 54.1518C228.391 54.2287 228.354 54.2996 228.297 54.3542Z" fill="#E3E3E3"/>
        <path d="M235.523 69.1044C235.515 69.1137 235.506 69.1219 235.496 69.1287C229.983 73.5809 225.159 77.0304 221.547 79.106C217.564 81.3952 215.12 82.0071 214.079 80.9778C212.407 79.3246 215.061 73.9231 221.982 64.9192C228.588 56.3182 238.19 45.6951 248.995 35.0016C259.801 24.308 270.562 14.8234 279.26 8.29802C288.369 1.46192 293.835 -1.16964 295.505 0.485981C296.515 1.48372 295.964 3.77784 293.823 7.50419C291.888 10.8713 288.636 15.3866 284.422 20.5574C284.36 20.6317 284.272 20.679 284.175 20.6894C284.078 20.6999 283.981 20.6725 283.904 20.6132C283.866 20.5833 283.835 20.5462 283.812 20.5043C283.788 20.4623 283.774 20.4162 283.768 20.3687C283.763 20.3211 283.767 20.2729 283.781 20.227C283.795 20.1811 283.817 20.1383 283.848 20.101C296.785 4.2294 295.39 1.40849 294.985 1.00066C294.493 0.51514 291.966 -0.32476 279.705 8.87825C271.033 15.3891 260.304 24.8494 249.516 35.5211C238.728 46.1928 229.15 56.7892 222.564 65.3634C213.254 77.4844 214.111 79.9897 214.595 80.468C214.939 80.8078 216.27 81.2982 221.174 78.4798C224.749 76.426 229.541 72.9982 235.024 68.5703C235.098 68.5157 235.189 68.4902 235.281 68.499C235.373 68.5078 235.458 68.5502 235.519 68.6178C235.581 68.6854 235.615 68.7733 235.614 68.8642C235.613 68.9552 235.578 69.0426 235.515 69.1092L235.523 69.1044Z" fill="#E3E3E3"/>
        <path d="M46.4131 230C64.5237 230 79.2052 215.487 79.2052 197.585C79.2052 179.682 64.5237 165.169 46.4131 165.169C28.3026 165.169 13.6211 179.682 13.6211 197.585C13.6211 215.487 28.3026 230 46.4131 230Z" fill="#CE7783"/>
        <path d="M73.1132 215.498C58.7395 229.707 35.3532 229.707 20.9795 215.498C6.6058 201.289 6.6058 178.171 20.9795 163.962C23.4845 161.481 26.339 159.369 29.4544 157.694C29.497 157.672 29.5437 157.657 29.5919 157.652C29.64 157.647 29.6886 157.652 29.735 157.666C29.7814 157.679 29.8247 157.702 29.8623 157.732C29.8998 157.762 29.931 157.799 29.9541 157.841C29.9772 157.883 29.9917 157.93 29.9967 157.977C30.0017 158.025 29.9972 158.073 29.9834 158.119C29.9696 158.165 29.9467 158.207 29.9162 158.244C29.8857 158.282 29.8481 158.312 29.8055 158.335C26.7531 159.978 23.9559 162.046 21.5001 164.477C7.41378 178.402 7.41378 201.058 21.5001 214.983C35.5865 228.908 58.5063 228.908 72.5803 214.983C86.6544 201.058 86.6667 178.402 72.5803 164.477C70.3376 162.257 67.8094 160.338 65.0607 158.77C64.976 158.721 64.9142 158.642 64.8889 158.549C64.8636 158.455 64.8768 158.356 64.9257 158.272C64.9745 158.188 65.055 158.127 65.1494 158.102C65.2439 158.077 65.3444 158.09 65.4291 158.139C68.2334 159.74 70.8128 161.699 73.101 163.965C87.487 178.171 87.4869 201.289 73.1132 215.498Z" fill="#E3E3E3"/>
        <path d="M17.576 71.2544C27.283 71.2544 35.152 63.4757 35.152 53.8802C35.152 44.2846 27.283 36.5059 17.576 36.5059C7.86905 36.5059 0 44.2846 0 53.8802C0 63.4757 7.86905 71.2544 17.576 71.2544Z" fill="#CE7783"/>
        <path d="M38.2451 70.8232C35.7508 73.2892 32.6535 75.0751 29.2542 76.0074C25.8549 76.9396 22.2693 76.9863 18.8464 76.1431C15.4234 75.2998 12.2794 73.5952 9.72016 71.1951C7.16095 68.795 5.27369 65.7812 4.24178 62.4465C3.20987 59.1118 3.06851 55.5699 3.83145 52.1653C4.59438 48.7606 6.23567 45.609 8.59563 43.0171C10.9556 40.4251 13.9539 38.481 17.299 37.3738C20.6442 36.2665 24.2222 36.0339 27.6852 36.6985C27.735 36.705 27.783 36.7216 27.826 36.7471C27.8691 36.7726 27.9064 36.8066 27.9357 36.8469C27.9651 36.8872 27.9858 36.9329 27.9965 36.9814C28.0073 37.0299 28.0079 37.08 27.9983 37.1288C27.9888 37.1775 27.9692 37.2238 27.9409 37.2648C27.9126 37.3058 27.8761 37.3406 27.8337 37.3671C27.7913 37.3937 27.7438 37.4114 27.6942 37.4192C27.6446 37.4269 27.594 37.4245 27.5453 37.4122C23.5608 36.6451 19.4339 37.1131 15.7285 38.7521C12.0232 40.3911 8.92041 43.1213 6.84397 46.5693C4.76754 50.0174 3.81884 54.0152 4.12763 58.0164C4.43641 62.0175 5.98761 65.8268 8.56913 68.9236C11.1507 72.0204 14.6366 74.2535 18.5505 75.318C22.4645 76.3824 26.6154 76.2262 30.4361 74.8705C34.2568 73.5148 37.5608 71.0259 39.8965 67.7439C42.2323 64.462 43.4858 60.5471 43.4858 56.5343C43.4858 56.4378 43.5245 56.3452 43.5936 56.2769C43.6627 56.2086 43.7565 56.1702 43.8542 56.1702C43.9519 56.1702 44.0456 56.2086 44.1146 56.2769C44.1837 56.3452 44.2226 56.4378 44.2226 56.5343C44.2313 59.1884 43.7075 61.8179 42.6815 64.2705C41.6554 66.7232 40.1475 68.9504 38.2451 70.8232Z" fill="#E3E3E3"/>
        <path d="M107.782 184.358C114.984 184.358 120.823 178.587 120.823 171.468C120.823 164.348 114.984 158.577 107.782 158.577C100.58 158.577 94.7422 164.348 94.7422 171.468C94.7422 178.587 100.58 184.358 107.782 184.358Z" fill="#71A5D2"/>
        <path d="M118.376 185.811C116.244 187.918 113.528 189.353 110.57 189.935C107.613 190.516 104.548 190.217 101.762 189.077C98.9768 187.936 96.5959 186.004 94.9208 183.526C93.2457 181.048 92.3516 178.134 92.3516 175.154C92.3516 172.173 93.2457 169.259 94.9208 166.781C96.5959 164.303 98.9768 162.371 101.762 161.23C104.548 160.09 107.613 159.791 110.57 160.372C113.528 160.954 116.244 162.389 118.376 164.496C121.231 167.325 122.833 171.158 122.833 175.154C122.833 179.149 121.231 182.981 118.376 185.811ZM97.3354 165.011C95.3058 167.017 93.9235 169.573 93.3634 172.356C92.8033 175.138 93.0906 178.023 94.1888 180.644C95.2871 183.265 97.147 185.506 99.5334 187.082C101.92 188.658 104.725 189.5 107.596 189.5C110.466 189.5 113.271 188.658 115.658 187.082C118.044 185.506 119.904 183.265 121.002 180.644C122.101 178.023 122.388 175.138 121.828 172.356C121.268 169.573 119.886 167.017 117.856 165.011C115.133 162.325 111.443 160.816 107.596 160.816C103.749 160.816 100.059 162.325 97.3354 165.011Z" fill="#E3E3E3"/>
    </g>
    <defs>
        <clipPath id="clip0_4821_23184">
            <rect width="296" height="230" fill="white"/>
        </clipPath>
    </defs>
</svg>
