<svg width="262" height="296" viewBox="0 0 262 296" fill="none" xmlns="http://www.w3.org/2000/svg">
    <path d="M55.675 198.539C48.1569 188.451 38.246 159.764 59.8904 137.985C64.1835 133.314 73.7134 136.859 71.979 146.759C71.979 146.759 70.5039 151.834 68.7773 154.603C60.5385 167.83 54.174 174.926 58.4075 190.383C58.4126 190.393 61.8606 206.831 55.675 198.539Z" fill="#71A5D2"/>
    <path d="M121.622 235.797C127.168 228.96 139.018 218.208 156.001 223.317C180.166 230.578 166.151 247.204 158.902 245.099C154.676 243.867 147.086 237.787 138.759 237.284C138.759 237.284 129.519 234.181 123.077 240.769C116.635 247.357 119.053 238.714 121.622 235.797Z" fill="#71A5D2"/>
    <path d="M165.61 240.953C161.174 240.953 156.319 240.433 152.095 239.978C150.672 239.825 149.329 239.681 148.121 239.571C148.019 239.561 147.924 239.513 147.859 239.436C147.793 239.359 147.762 239.261 147.771 239.161C147.776 239.112 147.79 239.064 147.814 239.02C147.838 238.976 147.87 238.937 147.909 238.906C147.949 238.874 147.994 238.85 148.043 238.835C148.091 238.82 148.143 238.815 148.194 238.82C149.41 238.933 150.755 239.071 152.181 239.229C161.742 240.257 176.192 241.81 178.341 235.525C179.78 231.319 179.822 228.46 178.474 226.259C176.993 223.842 173.724 222.219 168.482 221.296C168.432 221.288 168.384 221.269 168.341 221.242C168.297 221.216 168.26 221.181 168.231 221.14C168.202 221.099 168.181 221.053 168.171 221.004C168.16 220.956 168.159 220.906 168.169 220.857C168.178 220.808 168.196 220.762 168.224 220.72C168.252 220.679 168.287 220.643 168.329 220.615C168.371 220.587 168.419 220.567 168.468 220.557C168.518 220.547 168.57 220.546 168.62 220.555C174.098 221.518 177.54 223.259 179.143 225.874C180.594 228.246 180.576 231.39 179.08 235.762C177.686 239.832 172.096 240.953 165.61 240.953Z" fill="#E3E3E3"/>
    <path d="M116.524 243.569C116.428 243.567 116.335 243.53 116.265 243.466C116.19 243.397 116.147 243.302 116.145 243.202C116.142 243.102 116.181 243.006 116.252 242.933C120.262 238.86 126.642 232.998 134.254 228.187C143.327 222.455 151.896 219.611 159.769 219.712C159.82 219.712 159.87 219.723 159.917 219.742C159.964 219.762 160.007 219.79 160.042 219.825C160.078 219.861 160.106 219.903 160.125 219.949C160.144 219.995 160.153 220.044 160.153 220.093C160.151 220.192 160.109 220.287 160.036 220.356C159.964 220.425 159.866 220.465 159.764 220.465H159.38C151.763 220.465 136.424 223.551 116.814 243.456C116.777 243.493 116.732 243.523 116.682 243.542C116.632 243.562 116.578 243.571 116.524 243.569Z" fill="#E3E3E3"/>
    <path d="M159.755 232.446C159.712 232.446 159.669 232.44 159.628 232.425C155.336 230.981 150.774 230.448 146.251 230.863C146.2 230.867 146.149 230.862 146.1 230.848C146.051 230.834 146.005 230.81 145.966 230.778C145.926 230.747 145.894 230.708 145.87 230.664C145.846 230.621 145.831 230.573 145.826 230.523C145.816 230.424 145.848 230.325 145.913 230.248C145.979 230.17 146.073 230.121 146.176 230.111C150.809 229.689 155.482 230.235 159.88 231.712C159.928 231.728 159.972 231.753 160.011 231.786C160.049 231.819 160.08 231.859 160.103 231.903C160.125 231.948 160.138 231.996 160.141 232.046C160.144 232.095 160.137 232.145 160.121 232.192C160.095 232.266 160.045 232.33 159.98 232.375C159.914 232.421 159.836 232.445 159.755 232.446Z" fill="#E3E3E3"/>
    <path d="M116.82 246.535C116.723 246.532 116.63 246.494 116.56 246.429C116.524 246.394 116.495 246.352 116.475 246.306C116.455 246.261 116.445 246.211 116.445 246.161C116.445 246.112 116.455 246.062 116.475 246.017C116.495 245.971 116.524 245.929 116.56 245.894C122.264 240.218 128.245 235.979 134.324 233.293C134.371 233.272 134.421 233.26 134.472 233.258C134.524 233.256 134.575 233.264 134.623 233.281C134.671 233.299 134.716 233.325 134.753 233.359C134.791 233.393 134.821 233.434 134.842 233.479C134.886 233.57 134.89 233.675 134.854 233.769C134.818 233.863 134.745 233.939 134.65 233.982C128.657 236.627 122.759 240.813 117.12 246.424C117.081 246.462 117.034 246.492 116.982 246.511C116.931 246.53 116.875 246.538 116.82 246.535Z" fill="#E3E3E3"/>
    <path d="M85.3713 295.16L43.918 294.215L43.9387 293.828C43.9387 293.74 44.4417 284.76 45.8131 271.818C45.8266 271.723 45.8765 271.636 45.9529 271.576C46.0294 271.515 46.1267 271.485 46.2252 271.491C46.3276 271.501 46.4216 271.55 46.4868 271.627C46.5519 271.705 46.5827 271.804 46.5726 271.903C45.3619 283.315 44.8331 291.64 44.7217 293.492L85.3713 294.406C85.4747 294.409 85.5729 294.451 85.6443 294.523C85.7157 294.596 85.7546 294.693 85.7525 294.793C85.7498 294.89 85.7086 294.982 85.6377 295.05C85.5667 295.119 85.4714 295.158 85.3713 295.16Z" fill="#E3E3E3"/>
    <path d="M122.225 296L111.225 295.749C111.174 295.748 111.124 295.737 111.077 295.718C111.03 295.698 110.988 295.669 110.952 295.633C110.917 295.598 110.889 295.556 110.87 295.509C110.852 295.463 110.843 295.414 110.844 295.365C110.846 295.266 110.888 295.172 110.96 295.103C111.033 295.034 111.131 294.995 111.233 294.995L121.343 295.226C121.19 293.719 120.643 288.349 119.907 281.053C118.611 268.271 117.543 257.607 116.633 248.454C115.438 236.459 114.613 228.024 114.113 222.669C113.426 215.358 115.609 210.945 121.19 208.362C126.471 205.92 134.43 205.121 145.443 204.018C151.815 203.38 159.035 202.656 167.188 201.46C178.854 199.744 191.373 194.324 205.435 184.889C205.477 184.861 205.524 184.841 205.574 184.831C205.623 184.82 205.675 184.819 205.725 184.828C205.775 184.837 205.823 184.856 205.866 184.882C205.908 184.909 205.945 184.944 205.974 184.985C206.004 185.025 206.024 185.071 206.035 185.119C206.046 185.168 206.047 185.218 206.038 185.266C206.029 185.315 206.01 185.361 205.982 185.403C205.954 185.444 205.918 185.48 205.876 185.507C191.716 195.01 179.098 200.473 167.305 202.204C159.134 203.405 151.903 204.129 145.528 204.769C134.593 205.865 126.692 206.656 121.53 209.041C116.215 211.498 114.23 215.554 114.891 222.609C115.394 227.963 116.218 236.396 117.411 248.391C118.323 257.542 119.394 268.206 120.685 280.985C121.558 289.636 122.165 295.583 122.165 295.583L122.225 296Z" fill="#E3E3E3"/>
    <path d="M50.6118 240.021H50.547C50.4966 240.013 50.4484 239.995 50.4051 239.969C50.3618 239.943 50.3242 239.908 50.2946 239.868C50.265 239.828 50.2438 239.782 50.2324 239.734C50.221 239.685 50.2196 239.635 50.2281 239.587C54.9127 212.392 61.0776 192.543 68.549 180.593C68.5754 180.55 68.6102 180.513 68.6513 180.484C68.6924 180.454 68.7391 180.433 68.7887 180.421C68.8383 180.409 68.8898 180.407 68.9403 180.414C68.9908 180.422 69.0394 180.439 69.0831 180.464C69.171 180.516 69.2341 180.6 69.2584 180.697C69.2827 180.794 69.2663 180.897 69.2127 180.982C61.7957 192.852 55.6645 212.611 50.9955 239.712C50.9786 239.799 50.9311 239.877 50.8611 239.934C50.791 239.99 50.7029 240.021 50.6118 240.021Z" fill="#E3E3E3"/>
    <path d="M22.9156 115.646C25.4355 117.357 57.4341 137.004 36.2693 151.966C36.2693 151.966 18.1221 164.221 13.8446 137.004C9.567 109.787 20.3957 113.938 22.9181 115.646" fill="#CE7783"/>
    <path d="M25.7499 159.989C24.18 160 22.6245 159.699 21.1794 159.105C15.9245 156.919 12.4713 150.79 10.9132 140.891C8.8237 127.616 9.82178 119.646 13.879 117.207C16.487 115.634 19.6653 116.897 21.1379 117.892C21.2519 117.97 21.4256 118.086 21.6564 118.232C35.329 127.187 42.9405 136.408 43.0856 144.197C43.1738 148.971 40.5554 153.278 35.3083 156.994C35.0542 157.152 30.7792 159.989 25.7499 159.989ZM16.6763 117.217C15.8392 117.206 15.0159 117.424 14.3015 117.847C11.7091 119.408 9.15548 124.651 11.6935 140.78C13.2075 150.403 16.5051 156.336 21.4956 158.414C24.7854 159.783 28.2361 159.167 30.5382 158.414C32.0566 157.92 33.5056 157.244 34.8519 156.404C39.8839 152.846 42.396 148.75 42.3104 144.235C42.1704 136.697 34.6809 127.692 21.2234 118.88C20.9927 118.729 20.8164 118.614 20.7049 118.533C19.5216 117.726 18.1222 117.269 16.6763 117.217Z" fill="#E3E3E3"/>
    <path d="M55.2289 217.563C55.1695 217.563 55.1107 217.55 55.0573 217.525C55.0038 217.5 54.9571 217.463 54.9204 217.418C44.5273 204.462 37.8102 191.537 34.9585 178.994C34.9474 178.946 34.9462 178.896 34.9551 178.847C34.9639 178.799 34.9827 178.752 35.0102 178.71C35.0376 178.668 35.0732 178.632 35.1151 178.604C35.1569 178.575 35.2042 178.555 35.2541 178.545C35.304 178.534 35.3557 178.532 35.4061 178.541C35.4566 178.549 35.5047 178.567 35.5479 178.594C35.5911 178.62 35.6283 178.655 35.6575 178.696C35.6867 178.737 35.7074 178.783 35.7181 178.831C38.5517 191.264 45.222 204.091 55.5426 216.955C55.6058 217.034 55.6341 217.134 55.6215 217.234C55.6088 217.333 55.5563 217.423 55.4753 217.485C55.4046 217.537 55.3177 217.565 55.2289 217.563Z" fill="#E3E3E3"/>
    <path d="M34.0405 171.107C33.9427 171.107 33.8485 171.071 33.7765 171.007C33.7046 170.943 33.66 170.855 33.6516 170.76C32.8868 161.843 34.6186 156.78 34.6886 156.569C34.7047 156.522 34.7302 156.479 34.7638 156.441C34.7973 156.404 34.8381 156.373 34.8839 156.351C34.9297 156.329 34.9796 156.316 35.0306 156.313C35.0816 156.31 35.1328 156.317 35.1811 156.333C35.2782 156.365 35.3581 156.434 35.4033 156.523C35.4485 156.613 35.4553 156.716 35.4223 156.81C35.4067 156.861 33.6698 161.954 34.4216 170.698C34.4262 170.747 34.4206 170.797 34.4052 170.844C34.3897 170.891 34.3649 170.935 34.3319 170.973C34.2988 171.011 34.2583 171.042 34.2127 171.065C34.1672 171.087 34.1174 171.101 34.0664 171.105L34.0405 171.107Z" fill="#E3E3E3"/>
    <path d="M61.4467 196.826C61.3611 196.826 61.2778 196.799 61.2098 196.748C61.1419 196.698 61.093 196.627 61.0707 196.547C56.9046 181.346 61.8666 173.529 69.3666 161.699C70.4191 160.041 71.5079 158.327 72.6305 156.496C72.6833 156.41 72.7689 156.349 72.8685 156.324C72.968 156.3 73.0736 156.314 73.162 156.365C73.206 156.39 73.2443 156.424 73.2749 156.464C73.3055 156.503 73.3277 156.549 73.3402 156.597C73.3528 156.645 73.3553 156.695 73.3478 156.744C73.3404 156.793 73.3231 156.84 73.2968 156.883C72.1743 158.717 71.0828 160.433 70.0303 162.094C62.634 173.75 57.742 181.464 61.8225 196.364C61.8358 196.411 61.8393 196.461 61.8326 196.51C61.826 196.559 61.8095 196.606 61.7839 196.649C61.7584 196.692 61.7243 196.729 61.6838 196.759C61.6432 196.789 61.597 196.811 61.5477 196.823C61.5142 196.828 61.4804 196.829 61.4467 196.826Z" fill="#E3E3E3"/>
    <path d="M58.4096 205.877C58.3387 205.877 58.2691 205.859 58.2084 205.823C58.1476 205.788 58.0979 205.737 58.0648 205.676C51.41 193.437 38.5773 162.338 62.8168 137.961C65.0489 135.531 68.7017 134.89 71.8904 136.378C75.0454 137.848 78.0215 141.682 76.9094 148.036C76.9009 148.085 76.8826 148.132 76.8554 148.174C76.8283 148.216 76.7929 148.252 76.7513 148.281C76.7096 148.31 76.6625 148.33 76.6126 148.341C76.5628 148.352 76.5113 148.354 76.4609 148.346C76.4105 148.337 76.3623 148.32 76.319 148.293C76.2757 148.267 76.2381 148.233 76.2085 148.192C76.1788 148.152 76.1577 148.106 76.1463 148.058C76.1349 148.01 76.1335 147.96 76.142 147.911C76.8238 144.014 75.9762 139.117 71.5534 137.056C68.6758 135.717 65.3912 136.285 63.382 138.473C39.4847 162.509 52.1877 193.231 58.7544 205.324C58.801 205.412 58.81 205.514 58.7794 205.608C58.7488 205.702 58.6812 205.781 58.5911 205.827C58.5361 205.858 58.4736 205.876 58.4096 205.877Z" fill="#E3E3E3"/>
    <path d="M56.646 165.076C56.6056 165.076 56.5653 165.07 56.5268 165.059C56.4775 165.044 56.4318 165.02 56.3921 164.988C56.3524 164.957 56.3195 164.917 56.2954 164.873C56.2713 164.829 56.2565 164.781 56.2517 164.731C56.2469 164.682 56.2523 164.631 56.2675 164.584C57.5045 160.881 59.19 157.334 61.289 154.016C61.3432 153.93 61.4301 153.869 61.5307 153.846C61.6312 153.822 61.7373 153.838 61.8257 153.89C61.9131 153.943 61.9757 154.026 61.9999 154.123C62.0242 154.22 62.0082 154.322 61.9554 154.408C59.8872 157.675 58.2267 161.168 57.0089 164.815C56.9841 164.89 56.9358 164.955 56.8707 165.002C56.8056 165.049 56.7271 165.075 56.646 165.076Z" fill="#E3E3E3"/>
    <path d="M59.4689 202.54C59.3926 202.54 59.318 202.519 59.2543 202.478C59.1907 202.437 59.1409 202.379 59.1112 202.311C56.091 195.479 52.8141 184.868 54.3332 173.107C54.3468 173.008 54.4002 172.918 54.4817 172.857C54.5633 172.796 54.6665 172.768 54.7688 172.78C54.8708 172.793 54.9635 172.844 55.0267 172.923C55.0898 173.001 55.1184 173.101 55.1059 173.2C53.6075 184.793 56.8454 195.268 59.8241 202.015C59.8455 202.06 59.8573 202.11 59.8587 202.16C59.86 202.21 59.851 202.26 59.8322 202.307C59.8134 202.354 59.785 202.397 59.7489 202.433C59.7128 202.469 59.6697 202.497 59.6219 202.517C59.5729 202.534 59.5209 202.542 59.4689 202.54Z" fill="#E3E3E3"/>
    <path d="M47.9503 217.299C42.4076 210.462 30.5549 199.71 13.5718 204.819C-10.5925 212.08 3.42489 228.709 10.6708 226.601C14.8991 225.369 22.4898 219.289 30.8168 218.786C30.8168 218.786 40.0563 215.683 46.496 222.271C52.9356 228.859 50.522 220.216 47.9503 217.299Z" fill="#71A5D2"/>
    <path d="M11.9686 230.576C7.9736 230.576 3.17501 226.822 1.71546 222.183C1.03364 220.017 0.763968 216.721 3.33828 213.304C5.77778 210.067 10.2109 207.467 16.521 205.572C35.4977 199.871 48.7296 211.854 54.9282 219.487C54.9599 219.526 54.9835 219.571 54.9974 219.619C55.0113 219.666 55.0153 219.716 55.0093 219.765C55.0033 219.815 54.9874 219.862 54.9624 219.906C54.9373 219.949 54.9036 219.987 54.8634 220.017C54.7825 220.079 54.6798 220.107 54.5778 220.095C54.4758 220.083 54.3828 220.033 54.3191 219.955C48.2423 212.462 35.2852 200.723 16.7517 206.291C0.898837 211.065 1.47439 218.839 2.45953 221.962C4.015 226.879 9.485 230.756 13.3192 229.636C14.8592 229.189 16.845 228.128 19.1445 226.897C23.7513 224.43 29.4884 221.369 35.6663 220.99C35.7172 220.986 35.7684 220.993 35.8168 221.009C35.8652 221.025 35.9098 221.05 35.9482 221.082C35.9865 221.115 36.0177 221.155 36.0401 221.199C36.0625 221.244 36.0755 221.292 36.0784 221.342C36.0848 221.441 36.0503 221.539 35.9822 221.614C35.9142 221.689 35.8183 221.735 35.7155 221.741C29.7114 222.103 24.0495 225.128 19.5205 227.558C17.1873 228.814 15.1625 229.887 13.5448 230.359C13.033 230.505 12.502 230.578 11.9686 230.576Z" fill="#E3E3E3"/>
    <path d="M52.4981 229.9C52.433 229.9 52.3689 229.884 52.3118 229.854C52.2547 229.824 52.2064 229.78 52.1714 229.727C49.776 226.85 47.1705 224.724 44.4225 223.405C44.3307 223.361 44.2607 223.283 44.2277 223.189C44.1947 223.095 44.2014 222.992 44.2463 222.902C44.2926 222.814 44.3727 222.746 44.4696 222.715C44.5666 222.683 44.6725 222.689 44.7648 222.732C47.6165 224.103 50.3282 226.31 52.8014 229.287L53.0166 229.538L52.8066 229.754C52.7701 229.8 52.7233 229.837 52.6698 229.862C52.6163 229.887 52.5576 229.9 52.4981 229.9Z" fill="#E3E3E3"/>
    <path d="M53.705 224.128C53.6084 224.126 53.5161 224.09 53.4457 224.025C48.5874 219.555 40.5405 214.369 29.7999 215.033C29.749 215.036 29.6978 215.03 29.6494 215.014C29.601 214.998 29.5564 214.973 29.518 214.94C29.4797 214.908 29.4485 214.868 29.4261 214.823C29.4037 214.779 29.3906 214.73 29.3876 214.681C29.3841 214.632 29.3907 214.582 29.4071 214.535C29.4235 214.488 29.4493 214.445 29.4831 214.408C29.5168 214.371 29.5579 214.34 29.6038 214.319C29.6498 214.297 29.6997 214.284 29.7507 214.281C40.7686 213.598 49.01 218.907 53.9823 223.478C54.0551 223.548 54.0961 223.644 54.0961 223.744C54.0961 223.844 54.0551 223.94 53.9823 224.01C53.9467 224.047 53.9038 224.077 53.8561 224.097C53.8084 224.117 53.757 224.128 53.705 224.128Z" fill="#E3E3E3"/>
    <path d="M14.4967 219.548C14.4261 219.548 14.3568 219.53 14.2961 219.495C14.2354 219.46 14.1855 219.41 14.1519 219.35C14.1058 219.262 14.0968 219.161 14.1268 219.067C14.1568 218.973 14.2235 218.894 14.3126 218.847C16.3287 217.793 18.4252 216.891 20.5838 216.148C20.6319 216.131 20.6831 216.124 20.7343 216.126C20.7855 216.129 20.8356 216.141 20.8818 216.163C20.9279 216.184 20.9691 216.215 21.003 216.252C21.0369 216.289 21.0627 216.333 21.079 216.38C21.0962 216.426 21.1038 216.475 21.1013 216.525C21.0987 216.574 21.0861 216.623 21.0642 216.667C21.0422 216.712 21.0114 216.752 20.9734 216.785C20.9355 216.818 20.8912 216.843 20.843 216.86C18.7209 217.588 16.6598 218.475 14.6782 219.51C14.6218 219.537 14.5594 219.55 14.4967 219.548Z" fill="#E3E3E3"/>
    <path d="M223.27 134.014C223.2 134.014 223.13 133.995 223.069 133.96C223.008 133.924 222.959 133.874 222.926 133.813C222.879 133.725 222.87 133.623 222.901 133.529C222.931 133.435 222.999 133.356 223.089 133.31C233.744 127.868 242.854 123.3 246.377 122.536C249.61 121.835 251.951 122.147 253.335 123.463C255.046 125.094 254.891 127.855 254.468 129.883C254.447 129.981 254.387 130.066 254.301 130.121C254.215 130.176 254.11 130.196 254.009 130.177C253.959 130.167 253.911 130.148 253.869 130.121C253.826 130.093 253.79 130.058 253.762 130.016C253.733 129.975 253.714 129.928 253.704 129.88C253.695 129.831 253.695 129.781 253.706 129.732C254.095 127.886 254.253 125.393 252.791 124.004C251.606 122.875 249.506 122.629 246.546 123.27C243.116 124.024 234.058 128.559 223.449 133.976C223.394 134.003 223.332 134.016 223.27 134.014Z" fill="#E3E3E3"/>
    <path d="M85.2106 166.786C85.1429 166.786 85.0763 166.769 85.0175 166.737C84.9588 166.704 84.91 166.657 84.8761 166.6C84.8281 166.515 84.8155 166.416 84.8411 166.322C84.8667 166.228 84.9284 166.148 85.0135 166.097C90.7376 162.856 97.3951 159.313 104.268 155.833C104.359 155.79 104.464 155.782 104.56 155.812C104.657 155.842 104.738 155.907 104.786 155.994C104.832 156.082 104.84 156.184 104.809 156.278C104.778 156.372 104.71 156.451 104.62 156.497C97.758 159.964 91.111 163.507 85.3998 166.743C85.3415 166.773 85.2764 166.787 85.2106 166.786Z" fill="#E3E3E3"/>
    <path d="M142.797 170.844C142.159 170.844 141.814 170.844 141.786 170.844L140.521 170.788L141.599 170.145C141.698 170.087 151.562 164.193 161.46 156.878C174.749 147.056 181.925 139.272 182.2 134.368C182.257 133.725 182.161 133.078 181.919 132.477C181.678 131.876 181.298 131.337 180.807 130.9C180.193 130.38 179.444 130.032 178.64 129.895C177.45 129.667 176.234 129.595 175.024 129.679H174.985C174.127 129.722 173.17 129.817 172.156 129.963C171.949 129.988 171.747 130.018 171.537 130.054C171.327 130.089 171.112 130.119 170.899 130.157C170.482 130.227 170.049 130.307 169.566 130.408C169.338 130.45 169.113 130.496 168.885 130.546L168.182 130.694C167.708 130.797 167.226 130.91 166.733 131.028L165.989 131.209L165.232 131.403L164.454 131.606L164.001 131.727L163.879 131.762C163.765 131.79 163.658 131.82 163.547 131.853L163.396 131.893L162.878 132.041L162.155 132.25L162.009 132.292C161.75 132.365 161.491 132.438 161.247 132.516L160.534 132.732L160.48 132.747C159.834 132.943 159.127 133.164 158.31 133.428C157.014 133.848 155.788 134.252 154.6 134.664L154.429 134.724L153.942 134.893C153.442 135.06 152.939 135.238 152.433 135.425C145.262 137.988 137.057 141.328 128.046 145.348C126.169 146.187 124.248 147.059 122.342 147.943C122.249 147.986 122.142 147.991 122.045 147.957C121.948 147.924 121.869 147.855 121.824 147.765C121.802 147.72 121.789 147.672 121.786 147.622C121.783 147.573 121.79 147.523 121.807 147.476C121.825 147.43 121.851 147.387 121.885 147.35C121.92 147.313 121.962 147.284 122.008 147.263C123.924 146.378 125.847 145.504 127.727 144.664C136.759 140.644 144.982 137.287 152.171 134.717C152.69 134.536 153.185 134.358 153.688 134.184L154.175 134.013L154.346 133.956C155.541 133.541 156.76 133.134 158.074 132.712C158.893 132.448 159.606 132.224 160.254 132.028L160.309 132.011L161.024 131.797C161.284 131.719 161.543 131.641 161.802 131.569L161.945 131.528L162.678 131.317L163.197 131.169L163.345 131.126L163.682 131.033L163.803 131.001L164.262 130.878L165.04 130.674C165.299 130.606 165.559 130.543 165.802 130.481L166.557 130.295C167.052 130.177 167.539 130.064 168.016 129.961L168.727 129.807C168.96 129.757 169.191 129.712 169.424 129.669C169.906 129.574 170.349 129.491 170.769 129.418C170.985 129.378 171.205 129.342 171.423 129.312C171.64 129.282 171.843 129.247 172.055 129.217C173.092 129.069 174.072 128.966 174.974 128.928H175.011C176.285 128.841 177.566 128.919 178.819 129.162C179.761 129.329 180.637 129.743 181.354 130.358C181.924 130.871 182.366 131.501 182.648 132.203C182.93 132.905 183.046 133.659 182.985 134.41C182.682 139.617 175.597 147.378 161.929 157.476C153.96 163.366 146.011 168.338 143.134 170.102C148.485 170.067 169.631 169.142 197.22 157.662C200.552 156.278 203.898 154.768 207.173 153.177C215.451 149.148 223.434 144.573 231.065 139.483C247.213 129.935 258.177 126.862 261.166 131.038C263.499 134.32 259.844 141.23 252.987 146.438C250.135 148.604 246.168 152.217 241.58 156.391C239.379 158.401 236.885 160.662 234.282 162.984C234.244 163.018 234.2 163.044 234.152 163.061C234.104 163.078 234.054 163.085 234.002 163.083C233.951 163.081 233.901 163.069 233.855 163.048C233.809 163.027 233.767 162.998 233.732 162.961C233.663 162.888 233.626 162.791 233.63 162.691C233.634 162.591 233.678 162.497 233.753 162.429C236.346 160.11 238.741 157.941 241.048 155.843C245.658 151.652 249.637 148.031 252.515 145.845C258.942 140.963 262.625 134.378 260.533 131.468C259.372 129.845 256.512 129.536 252.261 130.571C247.042 131.845 240.055 135.056 231.495 140.119C223.84 145.223 215.832 149.812 207.528 153.853C204.241 155.451 200.878 156.966 197.534 158.358C169.211 170.125 147.616 170.844 142.797 170.844Z" fill="#E3E3E3"/>
    <path d="M162.137 149.28C161.414 149.291 160.701 149.123 160.063 148.793C155.863 146.577 156.838 137.682 156.882 137.303C156.888 137.254 156.903 137.206 156.928 137.163C156.952 137.12 156.985 137.081 157.025 137.051C157.065 137.02 157.11 136.997 157.159 136.983C157.208 136.97 157.259 136.965 157.31 136.971C157.361 136.976 157.41 136.991 157.455 137.015C157.5 137.039 157.54 137.071 157.572 137.11C157.604 137.149 157.628 137.193 157.642 137.241C157.656 137.289 157.661 137.339 157.655 137.388C157.655 137.476 156.693 146.157 160.436 148.132C162.51 149.228 165.725 148.072 169.982 144.7C173.16 142.187 178.361 137.599 177.446 135.25C176.927 133.906 174.379 133.7 173.44 133.742C173.338 133.744 173.239 133.708 173.164 133.64C173.089 133.573 173.044 133.48 173.038 133.38C173.036 133.331 173.044 133.281 173.061 133.235C173.079 133.188 173.106 133.145 173.14 133.109C173.175 133.072 173.217 133.043 173.264 133.022C173.31 133.002 173.36 132.99 173.412 132.988C173.57 132.988 177.344 132.87 178.174 134.999C179.004 137.127 176.497 140.526 170.472 145.3C167.122 147.944 164.33 149.278 162.137 149.28Z" fill="#E3E3E3"/>
    <path d="M241.557 150.675C241.509 150.675 241.462 150.667 241.417 150.65C241.369 150.632 241.326 150.605 241.289 150.571C241.252 150.537 241.222 150.496 241.201 150.451C241.181 150.406 241.169 150.357 241.168 150.307C241.167 150.258 241.176 150.209 241.194 150.162C244.668 141.368 255.315 138.677 255.424 138.649C255.524 138.626 255.63 138.641 255.718 138.693C255.806 138.744 255.87 138.827 255.896 138.923C255.908 138.971 255.911 139.021 255.903 139.07C255.896 139.119 255.879 139.166 255.852 139.209C255.826 139.251 255.791 139.288 255.75 139.318C255.709 139.347 255.663 139.369 255.613 139.381C255.51 139.406 245.243 142.016 241.92 150.436C241.891 150.507 241.841 150.567 241.776 150.609C241.712 150.652 241.635 150.675 241.557 150.675Z" fill="#E3E3E3"/>
    <path d="M180.674 153.717C180.597 153.717 180.521 153.694 180.457 153.652C180.393 153.61 180.343 153.551 180.314 153.481C180.293 153.435 180.282 153.384 180.281 153.334C180.281 153.283 180.291 153.232 180.311 153.185C180.331 153.138 180.361 153.096 180.398 153.06C180.436 153.025 180.48 152.997 180.529 152.979C192.073 148.456 210.666 138.767 210.861 138.672C210.951 138.627 211.055 138.618 211.152 138.646C211.249 138.675 211.331 138.739 211.379 138.825C211.426 138.912 211.436 139.014 211.407 139.108C211.377 139.202 211.31 139.281 211.221 139.327C211.035 139.425 192.405 149.127 180.82 153.67C180.775 153.694 180.725 153.711 180.674 153.717Z" fill="#E3E3E3"/>
    <g clip-path="url(#clip0_4821_23320)">
        <path d="M172.319 94.2237C190.342 94.2237 204.951 79.6362 204.951 61.6417C204.951 43.6471 190.342 29.0596 172.319 29.0596C154.297 29.0596 139.688 43.6471 139.688 61.6417C139.688 79.6362 154.297 94.2237 172.319 94.2237Z" fill="#EAB669"/>
        <path d="M175.599 97.6014H151.732L151.643 97.5704C145.392 95.441 139.824 91.6734 135.517 86.6589C135.414 86.5416 135.362 86.3882 135.372 86.2325C135.383 86.0768 135.454 85.9315 135.571 85.8286C135.688 85.7256 135.841 85.6736 135.997 85.6838C136.152 85.6939 136.297 85.7656 136.4 85.8829C140.547 90.7173 145.907 94.3554 151.925 96.4218H175.401C182.384 93.9339 188.427 89.3391 192.697 83.2694C196.967 77.1997 199.254 69.9533 199.246 62.5274C199.246 62.373 199.307 62.2249 199.416 62.1158C199.524 62.0066 199.672 61.9453 199.826 61.9453C199.98 61.9453 200.128 62.0066 200.237 62.1158C200.346 62.2249 200.407 62.373 200.407 62.5274C200.415 70.2116 198.042 77.7087 193.614 83.9832C189.187 90.2577 182.925 94.9999 175.692 97.5549L175.599 97.6014Z" fill="#E3E3E3"/>
        <path d="M130.493 78.3472C130.381 78.3466 130.272 78.3141 130.178 78.2537C130.084 78.1932 130.009 78.1072 129.962 78.0058C127.38 72.3702 126.252 66.1747 126.683 59.9885C127.115 53.8023 129.09 47.8239 132.429 42.6027C135.769 37.3814 140.364 33.0846 145.793 30.1073C151.222 27.13 157.31 25.5675 163.499 25.5635C170.489 25.5844 177.33 27.5836 183.235 31.3306C189.14 35.0776 193.868 40.42 196.874 46.7421C196.911 46.8117 196.933 46.8879 196.939 46.9662C196.946 47.0446 196.936 47.1234 196.911 47.198C196.887 47.2725 196.847 47.3412 196.795 47.4C196.743 47.4588 196.679 47.5064 196.608 47.54C196.537 47.5736 196.46 47.5924 196.382 47.5953C196.304 47.5983 196.226 47.5853 196.152 47.5571C196.079 47.529 196.012 47.4863 195.956 47.4316C195.9 47.3769 195.855 47.3113 195.825 47.2388C192.355 39.8819 186.488 33.928 179.191 30.3572C171.894 26.7863 163.601 25.8114 155.677 27.593C147.753 29.3745 140.67 33.8062 135.595 40.1587C130.52 46.5112 127.755 54.4057 127.755 62.5427C127.743 67.7139 128.857 72.8254 131.019 77.5207C131.052 77.5904 131.071 77.6659 131.075 77.743C131.078 77.82 131.066 77.8969 131.039 77.9692C131.013 78.0416 130.972 78.1078 130.919 78.164C130.867 78.2203 130.803 78.2654 130.733 78.2968C130.657 78.3304 130.575 78.3476 130.493 78.3472Z" fill="#E3E3E3"/>
        <path d="M163.662 118C160.37 117.997 157.214 116.686 154.886 114.353C152.558 112.021 151.249 108.858 151.246 105.56V96.4375H176.078V105.56C176.081 106.999 175.833 108.428 175.346 109.782C175.287 109.916 175.179 110.024 175.044 110.082C174.91 110.141 174.758 110.146 174.62 110.097C174.481 110.047 174.367 109.948 174.299 109.817C174.231 109.687 174.215 109.536 174.254 109.394C174.693 108.166 174.917 106.872 174.916 105.568V97.6094H152.404V105.568C152.405 107.396 152.85 109.196 153.699 110.813C154.549 112.431 155.778 113.817 157.28 114.854C158.783 115.89 160.514 116.545 162.325 116.763C164.137 116.981 165.973 116.754 167.678 116.103C167.819 116.061 167.97 116.074 168.102 116.139C168.234 116.204 168.337 116.317 168.389 116.455C168.442 116.592 168.441 116.744 168.387 116.881C168.333 117.018 168.229 117.13 168.096 117.193C166.679 117.73 165.177 118.004 163.662 118Z" fill="#E3E3E3"/>
        <path d="M172.619 101.133H151.827C151.673 101.133 151.525 101.072 151.416 100.962C151.307 100.853 151.246 100.705 151.246 100.551C151.246 100.396 151.307 100.248 151.416 100.139C151.525 100.03 151.673 99.9688 151.827 99.9688H172.619C172.774 99.9687 172.921 100.03 173.03 100.139C173.139 100.248 173.2 100.396 173.2 100.551C173.2 100.705 173.139 100.853 173.03 100.962C172.921 101.072 172.774 101.133 172.619 101.133Z" fill="#E3E3E3"/>
        <path d="M175.497 105.339H156.807C156.653 105.339 156.506 105.278 156.397 105.168C156.288 105.059 156.227 104.911 156.227 104.757C156.227 104.602 156.288 104.454 156.397 104.345C156.506 104.236 156.653 104.175 156.807 104.175H175.497C175.651 104.175 175.799 104.236 175.908 104.345C176.016 104.454 176.078 104.602 176.078 104.757C176.078 104.911 176.016 105.059 175.908 105.168C175.799 105.278 175.651 105.339 175.497 105.339Z" fill="#E3E3E3"/>
        <path d="M160.751 97.6016C160.596 97.6016 160.449 97.5403 160.34 97.4311C160.231 97.3219 160.17 97.1739 160.17 97.0195V73.3341H159.008C157.563 73.0819 156.402 72.2671 155.457 70.8469C155.124 70.2036 154.935 69.4956 154.903 68.772C154.871 68.0484 154.997 67.3264 155.271 66.6562C155.468 66.2303 155.778 65.8669 156.167 65.6061C156.556 65.3453 157.01 65.1971 157.478 65.1777H157.567C158.049 65.1452 158.532 65.2133 158.986 65.3776C159.44 65.5419 159.855 65.7989 160.205 66.1323C160.565 66.4713 160.852 66.8807 161.049 67.3351C161.245 67.7896 161.347 68.2795 161.347 68.7748V72.1701H165.994V68.7593C165.994 68.264 166.096 67.774 166.293 67.3196C166.489 66.8651 166.776 66.4558 167.137 66.1168C167.486 65.7834 167.901 65.5264 168.355 65.3621C168.809 65.1977 169.292 65.1297 169.774 65.1622H169.867C170.334 65.1822 170.787 65.3308 171.176 65.5916C171.564 65.8524 171.874 66.2153 172.07 66.6406C172.736 68.022 172.407 70.0476 171.884 70.8314C170.94 72.2516 169.778 73.0664 168.329 73.3186H168.233H167.156V82.1075C167.156 82.2619 167.095 82.4099 166.986 82.5191C166.877 82.6282 166.729 82.6896 166.575 82.6896C166.421 82.6896 166.273 82.6282 166.164 82.5191C166.055 82.4099 165.994 82.2619 165.994 82.1075V73.3341H161.347V97.004C161.349 97.083 161.335 97.1617 161.306 97.2352C161.277 97.3087 161.233 97.3754 161.177 97.4313C161.121 97.4872 161.055 97.5311 160.981 97.5604C160.908 97.5897 160.829 97.6037 160.751 97.6016ZM167.156 72.1545H168.178C168.747 72.0332 169.285 71.7947 169.757 71.454C170.229 71.1133 170.625 70.6779 170.92 70.1756C171.187 69.7875 171.517 68.1617 171.025 67.1412C170.915 66.899 170.738 66.6928 170.516 66.5466C170.294 66.4004 170.036 66.32 169.77 66.3147H169.704C169.381 66.2942 169.056 66.3404 168.751 66.4505C168.446 66.5606 168.167 66.7323 167.93 66.955C167.686 67.1851 167.492 67.4628 167.358 67.7711C167.225 68.0794 167.156 68.4117 167.156 68.7477V72.1545ZM159.143 72.1545H160.17V68.7438C160.169 68.4078 160.101 68.0755 159.967 67.7672C159.834 67.4589 159.639 67.1812 159.395 66.9511C159.161 66.7266 158.883 66.5537 158.578 66.4434C158.273 66.3331 157.949 66.288 157.625 66.3108H157.56C157.293 66.3154 157.034 66.3954 156.811 66.5417C156.588 66.688 156.411 66.8945 156.301 67.1373C155.809 68.1578 156.134 69.7643 156.406 70.1717C156.698 70.6772 157.093 71.1161 157.564 71.4602C158.036 71.8043 158.573 72.046 159.143 72.1701V72.1545Z" fill="#E3E3E3"/>
        <path d="M166.573 97.6011C166.419 97.6011 166.271 97.5398 166.162 97.4306C166.053 97.3215 165.992 97.1734 165.992 97.0191V90.667C165.992 90.5126 166.053 90.3646 166.162 90.2554C166.271 90.1463 166.419 90.085 166.573 90.085C166.727 90.085 166.875 90.1463 166.984 90.2554C167.093 90.3646 167.154 90.5126 167.154 90.667V97.0035C167.156 97.0813 167.143 97.1586 167.114 97.231C167.086 97.3035 167.044 97.3695 166.989 97.4252C166.935 97.4809 166.871 97.5251 166.799 97.5554C166.728 97.5856 166.651 97.6011 166.573 97.6011Z" fill="#E3E3E3"/>
        <path d="M163.499 18.9669C163.345 18.9669 163.197 18.9056 163.088 18.7964C162.979 18.6873 162.918 18.5392 162.918 18.3849V0.582045C162.918 0.427677 162.979 0.279628 163.088 0.170474C163.197 0.0613191 163.345 0 163.499 0C163.653 0 163.801 0.0613191 163.91 0.170474C164.019 0.279628 164.08 0.427677 164.08 0.582045V18.3849C164.08 18.5392 164.019 18.6873 163.91 18.7964C163.801 18.9056 163.653 18.9669 163.499 18.9669Z" fill="#E3E3E3"/>
        <path d="M207.991 108.788C207.915 108.789 207.839 108.775 207.768 108.745C207.698 108.716 207.634 108.672 207.58 108.617L192.14 93.1506C192.031 93.0415 191.969 92.8933 191.969 92.7387C191.968 92.5841 192.029 92.4356 192.138 92.326C192.247 92.2164 192.395 92.1547 192.549 92.1543C192.704 92.1539 192.852 92.215 192.961 92.3241L208.401 107.795C208.509 107.905 208.57 108.052 208.57 108.206C208.57 108.36 208.509 108.508 208.401 108.617C208.348 108.672 208.284 108.715 208.214 108.745C208.143 108.774 208.067 108.789 207.991 108.788Z" fill="#E3E3E3"/>
        <path d="M133.406 34.0579C133.33 34.0589 133.254 34.0443 133.183 34.0149C133.113 33.9856 133.049 33.9421 132.996 33.8871L118.597 19.4641C118.488 19.355 118.426 19.2068 118.426 19.0522C118.425 18.8976 118.486 18.7491 118.595 18.6395C118.704 18.5299 118.852 18.4681 119.006 18.4678C119.161 18.4674 119.309 18.5285 119.418 18.6376L133.817 33.0645C133.925 33.1741 133.985 33.3219 133.985 33.4759C133.985 33.6298 133.925 33.7775 133.817 33.8871C133.763 33.9417 133.699 33.985 133.629 34.0143C133.558 34.0437 133.483 34.0585 133.406 34.0579Z" fill="#E3E3E3"/>
        <path d="M119.008 108.789C118.931 108.79 118.855 108.775 118.785 108.746C118.714 108.716 118.651 108.673 118.597 108.618C118.543 108.564 118.5 108.5 118.47 108.43C118.441 108.359 118.426 108.283 118.426 108.207C118.426 108.13 118.441 108.054 118.47 107.984C118.5 107.913 118.543 107.849 118.597 107.795L134.088 92.2741C134.197 92.1661 134.345 92.1055 134.498 92.1055C134.652 92.1055 134.799 92.1661 134.909 92.2741C134.963 92.3279 135.006 92.392 135.036 92.4626C135.065 92.5332 135.08 92.6089 135.08 92.6854C135.08 92.762 135.065 92.8377 135.036 92.9083C135.006 92.9789 134.963 93.043 134.909 93.0968L119.418 108.618C119.365 108.673 119.301 108.716 119.23 108.745C119.16 108.774 119.084 108.789 119.008 108.789Z" fill="#E3E3E3"/>
        <path d="M193.594 34.0569C193.517 34.058 193.442 34.0433 193.371 34.014C193.3 33.9846 193.236 33.9411 193.183 33.8862C193.129 33.8324 193.086 33.7683 193.056 33.6977C193.027 33.6271 193.012 33.5514 193.012 33.4749C193.012 33.3984 193.027 33.3226 193.056 33.252C193.086 33.1814 193.129 33.1173 193.183 33.0635L207.582 18.6366C207.691 18.5275 207.839 18.4664 207.994 18.4668C208.148 18.4672 208.296 18.5289 208.405 18.6386C208.514 18.7482 208.575 18.8966 208.574 19.0512C208.574 19.2058 208.512 19.354 208.403 19.4631L194.004 33.8862C193.951 33.9408 193.887 33.984 193.816 34.0133C193.746 34.0427 193.67 34.0575 193.594 34.0569Z" fill="#E3E3E3"/>
        <path d="M119.448 64.211H100.581C100.427 64.211 100.279 64.1496 100.17 64.0405C100.061 63.9313 100 63.7833 100 63.6289C100 63.4746 100.061 63.3265 100.17 63.2173C100.279 63.1082 100.427 63.0469 100.581 63.0469H119.448C119.602 63.0469 119.75 63.1082 119.859 63.2173C119.968 63.3265 120.029 63.4746 120.029 63.6289C120.029 63.7833 119.968 63.9313 119.859 64.0405C119.75 64.1496 119.602 64.211 119.448 64.211Z" fill="#E3E3E3"/>
        <path d="M226.421 64.211H207.554C207.399 64.211 207.252 64.1496 207.143 64.0405C207.034 63.9313 206.973 63.7833 206.973 63.6289C206.973 63.4746 207.034 63.3265 207.143 63.2173C207.252 63.1082 207.399 63.0469 207.554 63.0469H226.421C226.575 63.0469 226.723 63.1082 226.832 63.2173C226.941 63.3265 227.002 63.4746 227.002 63.6289C227.002 63.7833 226.941 63.9313 226.832 64.0405C226.723 64.1496 226.575 64.211 226.421 64.211Z" fill="#E3E3E3"/>
    </g>
    <defs>
        <clipPath id="clip0_4821_23320">
            <rect width="127" height="118" fill="white" transform="translate(100)"/>
        </clipPath>
    </defs>
</svg>
