<svg width="241" height="144" viewBox="0 0 241 144" fill="none" xmlns="http://www.w3.org/2000/svg">
    <g clip-path="url(#clip0_6062_16202)">
        <path d="M148.16 25.0535C148.376 25.1304 148.572 25.2554 148.732 25.4191C148.893 25.5827 149.014 25.7806 149.086 25.9979C149.159 26.2152 149.18 26.4461 149.15 26.6732C149.12 26.9003 149.039 27.1176 148.912 27.3086C147.071 30.0785 143.938 35.9616 146.875 40.5189C147.845 42.1197 149.01 43.593 150.345 44.9046C150.903 45.4103 151.286 46.0801 151.438 46.8173C151.59 47.5546 151.504 48.3211 151.192 49.0062C149.078 53.6109 144.88 62.0982 141.837 64.1934C137.609 67.1112 144.205 61.1749 142.5 54.2619C141.084 48.586 131.297 48.7694 124.197 52.1075C123.935 52.2297 123.641 52.2671 123.357 52.2146C123.072 52.1621 122.811 52.0223 122.61 51.8146C122.409 51.6069 122.277 51.3416 122.234 51.0557C122.19 50.7699 122.237 50.4776 122.367 50.2195L124.854 45.3426L111.407 45.3958C110.865 45.3983 110.329 45.2821 109.836 45.0555C109.343 44.8288 108.906 44.4972 108.555 44.0839C108.204 43.6705 107.948 43.1855 107.805 42.6627C107.661 42.1399 107.633 41.592 107.724 41.0575C108.873 34.1564 111.638 20.9638 116.606 16.0158C117.101 15.5317 117.722 15.1972 118.399 15.0506C119.076 14.904 119.78 14.9513 120.431 15.1872L148.16 25.0535Z" fill="#252525"/>
        <path d="M226.562 121.823H195.547C193.074 121.823 191.07 123.827 191.07 126.298C191.07 128.769 193.074 130.772 195.547 130.772H226.562C229.034 130.772 231.039 128.769 231.039 126.298C231.039 123.827 229.034 121.823 226.562 121.823Z" fill="#CE7783"/>
        <path d="M92.4369 48.3434H117.478C117.798 48.3417 118.113 48.4198 118.395 48.5705C118.677 48.7212 118.917 48.9398 119.093 49.2065C119.27 49.4732 119.377 49.7796 119.405 50.0981C119.433 50.4166 119.381 50.7371 119.254 51.0305C116.893 56.3353 115.159 61.8968 114.085 67.6026C114.007 68.0478 113.774 68.4511 113.427 68.7413C113.08 69.0315 112.642 69.19 112.19 69.1888H80.9023V59.8906C80.9039 56.8317 82.119 53.8982 84.2813 51.7335C86.4436 49.5689 89.3766 48.3497 92.4369 48.3434Z" fill="#EAB669"/>
        <ellipse cx="90.5587" cy="58.5583" rx="2.5587" ry="2.55827" fill="#1B1B1C"/>
        <ellipse cx="97.7228" cy="58.5583" rx="2.55871" ry="2.55827" fill="#1B1B1C"/>
        <ellipse cx="104.887" cy="58.5583" rx="2.55871" ry="2.55827" fill="#1B1B1C"/>
        <path d="M237.525 59.8963V69.1944H149.926C149.503 69.193 149.088 69.0829 148.721 68.8745C148.354 68.6662 148.046 68.3667 147.829 68.005C147.611 67.6433 147.49 67.2316 147.478 66.8096C147.465 66.3877 147.562 65.9697 147.759 65.5959C150.15 60.9405 151.561 55.844 151.903 50.6218C151.916 50.4455 151.977 50.2763 152.08 50.1324C152.183 49.9885 152.323 49.8756 152.486 49.806C152.648 49.7363 152.827 49.7127 153.002 49.7375C153.177 49.7624 153.342 49.835 153.478 49.9471C163.053 57.523 177.838 57.2625 181.758 56.209C184.168 55.5639 186.294 52.7703 187.828 50.1069C188.129 49.571 188.568 49.1244 189.098 48.8125C189.629 48.5007 190.232 48.3347 190.847 48.3313H225.966C227.485 48.3313 228.989 48.6305 230.392 49.2119C231.795 49.7932 233.07 50.6453 234.143 51.7193C235.217 52.7934 236.068 54.0684 236.648 55.4715C237.228 56.8746 237.526 58.3781 237.525 59.8963Z" fill="#EAB669"/>
        <path d="M51.6523 57.931V65.2996C51.6523 65.7705 51.8393 66.2222 52.1725 66.5552C52.5056 66.8882 52.9576 67.0752 53.4287 67.0752H60.3211C60.4002 67.0744 60.4778 67.0535 60.5466 67.0145C60.6155 66.9755 60.6732 66.9197 60.7146 66.8523C60.756 66.7849 60.7798 66.7081 60.7834 66.6291C60.787 66.5501 60.7705 66.4714 60.7354 66.4005C58.2722 61.5176 54.0444 58.5761 52.3746 57.5581C52.3058 57.5111 52.2256 57.4835 52.1424 57.4784C52.0592 57.4733 51.9762 57.4908 51.9021 57.5291C51.8281 57.5673 51.7657 57.6248 51.7217 57.6955C51.6777 57.7663 51.6538 57.8477 51.6523 57.931Z" fill="#EAB669"/>
        <path d="M62.2555 66.6082H54.6287C54.0832 66.6066 53.5607 66.389 53.1756 66.0029C52.7904 65.6168 52.5742 65.0938 52.5742 64.5485V56.3809C52.5742 56.3024 52.6054 56.2271 52.661 56.1716C52.7165 56.1161 52.7918 56.085 52.8703 56.085C52.9483 56.0865 53.0227 56.1181 53.0779 56.1732C53.1331 56.2284 53.1648 56.3029 53.1663 56.3809V64.5485C53.1663 64.9368 53.3201 65.3093 53.5942 65.5844C53.8684 65.8595 54.2403 66.0148 54.6287 66.0163H62.2555C62.334 66.0163 62.4093 66.0475 62.4648 66.103C62.5203 66.1585 62.5516 66.2338 62.5516 66.3123C62.5516 66.3908 62.5203 66.4661 62.4648 66.5216C62.4093 66.5771 62.334 66.6082 62.2555 66.6082Z" fill="#E3E3E3"/>
        <path d="M60.3953 91.4428H38.3624C38.0794 91.4428 37.7991 91.387 37.5376 91.2788C37.2761 91.1705 37.0383 91.0118 36.8382 90.8118C36.638 90.6117 36.4793 90.3742 36.371 90.1128C36.2626 89.8514 36.207 89.5713 36.207 89.2884V58.2393C36.207 57.9564 36.2626 57.6762 36.371 57.4148C36.4793 57.1535 36.638 56.916 36.8382 56.7159C37.0383 56.5159 37.2761 56.3572 37.5376 56.2489C37.7991 56.1406 38.0794 56.085 38.3624 56.085H52.9345L53.0056 56.1264C53.2958 56.298 60.1702 60.3345 62.5209 66.188V66.3004V89.2765C62.5241 89.8449 62.3024 90.3914 61.9042 90.7972C61.5061 91.2029 60.9638 91.435 60.3953 91.4428ZM38.3624 56.6768C37.9483 56.6784 37.5517 56.8435 37.2589 57.1362C36.966 57.4289 36.8007 57.8253 36.7992 58.2393V89.2884C36.7992 89.7028 36.964 90.1002 37.2571 90.3932C37.5503 90.6862 37.9479 90.8509 38.3624 90.8509H60.3953C60.8099 90.8509 61.2075 90.6862 61.5006 90.3932C61.7938 90.1002 61.9586 89.7028 61.9586 89.2884V66.3715C59.7855 61.0448 53.5089 57.1148 52.7865 56.6768H38.3624Z" fill="#E3E3E3"/>
        <path d="M54.4736 76.6636C54.4345 77.6633 54.0096 78.609 53.2882 79.3024C52.5668 79.9958 51.6048 80.3831 50.604 80.3831C49.6032 80.3831 48.6412 79.9958 47.9198 79.3024C47.1984 78.609 46.7735 77.6633 46.7344 76.6636V74.7283C46.7735 73.7287 47.1984 72.783 47.9198 72.0896C48.6412 71.3961 49.6032 71.0088 50.604 71.0088C51.6048 71.0088 52.5668 71.3961 53.2882 72.0896C54.0096 72.783 54.4345 73.7287 54.4736 74.7283V76.6636Z" fill="#CE7783"/>
        <path d="M19.1833 123.954C19.1442 124.953 18.7193 125.899 17.9979 126.592C17.2765 127.286 16.3145 127.673 15.3137 127.673C14.3129 127.673 13.3509 127.286 12.6295 126.592C11.9081 125.899 11.4835 124.953 11.4444 123.954V122.018C11.424 121.498 11.5089 120.978 11.6942 120.491C11.8795 120.004 12.1612 119.559 12.5225 119.184C12.8838 118.808 13.3173 118.509 13.797 118.305C14.2766 118.101 14.7924 117.996 15.3137 117.996C15.835 117.996 16.3511 118.101 16.8307 118.305C17.3104 118.509 17.7438 118.808 18.1052 119.184C18.4665 119.559 18.7482 120.004 18.9335 120.491C19.1188 120.978 19.2037 121.498 19.1833 122.018V123.954Z" fill="#CE7783"/>
        <path d="M51.6325 122.202C51.6529 122.722 51.568 123.242 51.3827 123.729C51.1975 124.216 50.9157 124.66 50.5544 125.036C50.1931 125.411 49.7596 125.71 49.2799 125.914C48.8003 126.118 48.2845 126.224 47.7632 126.224C47.2419 126.224 46.7258 126.118 46.2462 125.914C45.7665 125.71 45.3331 125.411 44.9717 125.036C44.6104 124.66 44.3287 124.216 44.1434 123.729C43.9581 123.242 43.8732 122.722 43.8936 122.202V120.266C43.9327 119.267 44.3576 118.321 45.079 117.627C45.8004 116.934 46.7624 116.547 47.7632 116.547C48.764 116.547 49.726 116.934 50.4474 117.627C51.1688 118.321 51.5934 119.267 51.6325 120.266V122.202Z" fill="#CE7783"/>
        <path d="M49.3849 82.5762C48.1416 82.5746 46.9498 82.0803 46.0707 81.2015C45.1915 80.3228 44.6969 79.1314 44.6953 77.8887V75.6929C44.7385 74.4793 45.2511 73.3297 46.1253 72.4864C46.9995 71.6431 48.1671 71.1719 49.382 71.1719C50.5969 71.1719 51.7645 71.6431 52.6387 72.4864C53.5129 73.3297 54.0255 74.4793 54.0687 75.6929V77.8887C54.0687 79.1309 53.5753 80.3223 52.6971 81.2012C51.8189 82.0801 50.6276 82.5746 49.3849 82.5762ZM49.3849 71.6031C48.2992 71.6031 47.2579 72.0338 46.4896 72.8007C45.7213 73.5675 45.289 74.6077 45.2874 75.6929V77.8887C45.2665 78.4393 45.3568 78.9884 45.5531 79.5032C45.7495 80.018 46.0478 80.4879 46.43 80.8849C46.8123 81.2818 47.2707 81.5975 47.7779 81.8132C48.2852 82.0289 48.8308 82.14 49.382 82.14C49.9332 82.14 50.4785 82.0289 50.9858 81.8132C51.493 81.5975 51.9517 81.2818 52.3339 80.8849C52.7162 80.4879 53.0142 80.018 53.2106 79.5032C53.4069 78.9884 53.4975 78.4393 53.4766 77.8887V75.6929C53.475 74.6087 53.0434 73.5693 52.2764 72.8027C51.5094 72.036 50.4696 71.6047 49.3849 71.6031Z" fill="#E3E3E3"/>
        <path d="M53.7726 75.9893H44.9914C44.9129 75.9893 44.8376 75.9581 44.782 75.9026C44.7265 75.8471 44.6953 75.7719 44.6953 75.6934C44.6953 75.6149 44.7265 75.5396 44.782 75.4841C44.8376 75.4286 44.9129 75.3975 44.9914 75.3975H53.7726C53.8511 75.3975 53.9264 75.4286 53.9819 75.4841C54.0375 75.5396 54.0687 75.6149 54.0687 75.6934C54.0687 75.7719 54.0375 75.8471 53.9819 75.9026C53.9264 75.9581 53.8511 75.9893 53.7726 75.9893Z" fill="#E3E3E3"/>
        <path d="M44.9889 78.1851H42.7922C42.7136 78.1851 42.6384 78.1539 42.5828 78.0984C42.5273 78.0429 42.4961 77.9677 42.4961 77.8892C42.4976 77.8112 42.5291 77.7368 42.5843 77.6816C42.6395 77.6264 42.7141 77.5948 42.7922 77.5933H44.9889C45.0674 77.5933 45.1427 77.6245 45.1982 77.68C45.2538 77.7355 45.285 77.8107 45.285 77.8892C45.285 77.9677 45.2538 78.0429 45.1982 78.0984C45.1427 78.1539 45.0674 78.1851 44.9889 78.1851Z" fill="#E3E3E3"/>
        <path d="M55.9694 78.1846H53.7726C53.6941 78.1846 53.6188 78.1534 53.5633 78.0979C53.5078 78.0424 53.4766 77.9672 53.4766 77.8887C53.4781 77.8107 53.5095 77.7363 53.5647 77.6811C53.6199 77.626 53.6946 77.5943 53.7726 77.5928H55.9694C56.0479 77.5928 56.1232 77.624 56.1787 77.6795C56.2342 77.735 56.2654 77.8102 56.2654 77.8887C56.2654 77.9672 56.2342 78.0424 56.1787 78.0979C56.1232 78.1534 56.0479 78.1846 55.9694 78.1846Z" fill="#E3E3E3"/>
        <path d="M43.896 83.648C43.8172 83.6476 43.7414 83.6181 43.6829 83.5651C43.6283 83.5088 43.5977 83.4335 43.5977 83.355C43.5977 83.2766 43.6283 83.2013 43.6829 83.1449L46.0514 80.7775C46.1072 80.7218 46.1828 80.6904 46.2616 80.6904C46.3405 80.6904 46.4161 80.7218 46.4718 80.7775C46.5276 80.8332 46.5588 80.9088 46.5588 80.9876C46.5588 81.0664 46.5276 81.142 46.4718 81.1977L44.1033 83.5651C44.0471 83.6177 43.973 83.6473 43.896 83.648Z" fill="#E3E3E3"/>
        <path d="M45.7766 73.4855C45.6966 73.4853 45.6197 73.4534 45.5633 73.3967L42.6027 70.4374C42.575 70.4098 42.5534 70.377 42.5385 70.341C42.5235 70.3049 42.5156 70.2663 42.5156 70.2273C42.5156 70.1882 42.5235 70.1497 42.5385 70.1136C42.5534 70.0776 42.575 70.0448 42.6027 70.0172C42.6303 69.9896 42.6632 69.9677 42.6992 69.9528C42.7353 69.9379 42.7738 69.9302 42.8128 69.9302C42.8519 69.9302 42.8907 69.9379 42.9268 69.9528C42.9628 69.9677 42.9954 69.9896 43.023 70.0172L45.9837 72.9765C46.0242 73.0178 46.0518 73.0702 46.0629 73.127C46.074 73.1839 46.0682 73.2427 46.0461 73.2963C46.024 73.3499 45.9868 73.3958 45.9388 73.4284C45.8909 73.461 45.8346 73.4787 45.7766 73.4795V73.4855Z" fill="#E3E3E3"/>
        <path d="M54.8723 83.6479C54.7935 83.6474 54.7176 83.6179 54.6592 83.565L52.2907 81.1975C52.263 81.17 52.241 81.1373 52.226 81.1012C52.2109 81.0652 52.2031 81.0265 52.2031 80.9874C52.2031 80.9484 52.2109 80.9097 52.226 80.8737C52.241 80.8376 52.263 80.8049 52.2907 80.7774C52.3461 80.7231 52.4202 80.6927 52.4977 80.6927C52.5752 80.6927 52.6497 80.7231 52.705 80.7774L55.0735 83.1448C55.1282 83.2011 55.1588 83.2764 55.1588 83.3549C55.1588 83.4333 55.1282 83.5087 55.0735 83.565C55.0182 83.6153 54.947 83.6446 54.8723 83.6479Z" fill="#E3E3E3"/>
        <path d="M52.9892 73.4856C52.9092 73.4854 52.8326 73.4535 52.7761 73.3969C52.7219 73.3415 52.6914 73.2671 52.6914 73.1896C52.6914 73.1122 52.7219 73.0378 52.7761 72.9825L55.7367 70.0232C55.7921 69.969 55.8666 69.9386 55.944 69.9386C56.0215 69.9386 56.096 69.969 56.1513 70.0232C56.1791 70.0507 56.2011 70.0834 56.2161 70.1195C56.2311 70.1556 56.239 70.1942 56.239 70.2333C56.239 70.2724 56.2311 70.3111 56.2161 70.3472C56.2011 70.3832 56.1791 70.4159 56.1513 70.4434L53.1907 73.4027C53.1366 73.4549 53.0644 73.4845 52.9892 73.4856Z" fill="#E3E3E3"/>
        <path d="M16.0352 57.9316V65.3002C16.0352 65.7711 16.2222 66.2228 16.5553 66.5558C16.8884 66.8887 17.3404 67.0758 17.8115 67.0758H24.6978C24.777 67.075 24.8545 67.0541 24.9234 67.0151C24.9922 66.9761 25.0502 66.9203 25.0916 66.8529C25.133 66.7855 25.1565 66.7087 25.1602 66.6297C25.1638 66.5506 25.1472 66.472 25.1122 66.4011C22.6489 61.5182 18.4214 58.5767 16.7516 57.5587C16.6829 57.5132 16.6032 57.487 16.5209 57.4827C16.4386 57.4784 16.3566 57.4962 16.2835 57.5343C16.2104 57.5723 16.1488 57.6292 16.1051 57.6991C16.0614 57.7689 16.0373 57.8492 16.0352 57.9316Z" fill="#EAB669"/>
        <path d="M26.638 66.6082H19.0176C18.4711 66.6082 17.9469 66.3912 17.5604 66.0049C17.174 65.6187 16.957 65.0948 16.957 64.5485V56.3809C16.957 56.3024 16.988 56.2271 17.0435 56.1716C17.099 56.1161 17.1746 56.085 17.2531 56.085C17.3311 56.0865 17.4055 56.1181 17.4607 56.1732C17.5159 56.2284 17.5476 56.3029 17.5492 56.3809V64.5485C17.5492 64.9378 17.7037 65.3112 17.9791 65.5865C18.2545 65.8617 18.6281 66.0163 19.0176 66.0163H26.638C26.7165 66.0163 26.7918 66.0475 26.8473 66.103C26.9029 66.1585 26.9341 66.2338 26.9341 66.3123C26.9341 66.3908 26.9029 66.4661 26.8473 66.5216C26.7918 66.5771 26.7165 66.6082 26.638 66.6082Z" fill="#E3E3E3"/>
        <path d="M24.7878 91.4428H2.74916C2.17801 91.4412 1.6305 91.2137 1.22664 90.81C0.822775 90.4063 0.595313 89.8593 0.59375 89.2884V58.2393C0.595313 57.6684 0.822775 57.1213 1.22664 56.7176C1.6305 56.314 2.17801 56.0865 2.74916 56.085H17.3331L17.4042 56.1264C17.6943 56.298 24.5688 60.3345 26.9195 66.188V66.3004V89.2765C26.9227 89.8459 26.7002 90.3933 26.3008 90.7993C25.9014 91.2052 25.3574 91.4365 24.7878 91.4428ZM2.74916 56.6768C2.33505 56.6784 1.93811 56.8435 1.64529 57.1362C1.35247 57.4289 1.18743 57.8253 1.18587 58.2393V89.2884C1.18587 89.7028 1.3504 90.1002 1.64355 90.3932C1.93671 90.6862 2.33457 90.8509 2.74916 90.8509H24.7878C25.2014 90.8493 25.5975 90.684 25.8894 90.3911C26.1812 90.0983 26.345 89.7018 26.345 89.2884V66.3715C24.1719 61.0448 17.8956 57.1148 17.1732 56.6768H2.74916Z" fill="#E3E3E3"/>
        <path d="M18.8661 76.6636C18.8661 77.6901 18.4581 78.6747 17.7319 79.4006C17.0057 80.1265 16.0206 80.5344 14.9936 80.5344C13.9666 80.5344 12.9816 80.1265 12.2553 79.4006C11.5291 78.6747 11.1211 77.6901 11.1211 76.6636V74.7282C11.1211 73.7016 11.5291 72.7171 12.2553 71.9912C12.9816 71.2652 13.9666 70.8574 14.9936 70.8574C16.0206 70.8574 17.0057 71.2652 17.7319 71.9912C18.4581 72.7171 18.8661 73.7016 18.8661 74.7282V76.6636Z" fill="#CE7783"/>
        <path d="M13.7677 82.5762C12.5244 82.5746 11.3323 82.0803 10.4532 81.2015C9.57406 80.3228 9.07969 79.1314 9.07812 77.8887V75.6929C9.12129 74.4793 9.63392 73.3297 10.5081 72.4864C11.3823 71.6431 12.5499 71.1719 13.7648 71.1719C14.9797 71.1719 16.147 71.6431 17.0212 72.4864C17.8954 73.3297 18.408 74.4793 18.4512 75.6929V77.8887C18.4512 79.1309 17.9581 80.3223 17.0799 81.2012C16.2017 82.0801 15.0104 82.5746 13.7677 82.5762ZM13.7677 71.6031C12.6825 71.6047 11.6421 72.0358 10.8742 72.8023C10.1062 73.5688 9.67338 74.6082 9.67025 75.6929V77.8887C9.6493 78.4393 9.73962 78.9884 9.93595 79.5032C10.1323 80.018 10.4306 80.4879 10.8129 80.8849C11.1951 81.2818 11.6535 81.5975 12.1607 81.8132C12.668 82.0289 13.2136 82.14 13.7648 82.14C14.316 82.14 14.8613 82.0289 15.3686 81.8132C15.8758 81.5975 16.3342 81.2818 16.7165 80.8849C17.0987 80.4879 17.397 80.018 17.5934 79.5032C17.7897 78.9884 17.88 78.4393 17.8591 77.8887V75.6929C17.8575 74.6087 17.4262 73.5693 16.6592 72.8027C15.8922 72.036 14.8524 71.6047 13.7677 71.6031Z" fill="#E3E3E3"/>
        <path d="M18.1551 75.9893H9.37419C9.29567 75.9893 9.22038 75.9581 9.16486 75.9026C9.10934 75.8471 9.07812 75.7719 9.07812 75.6934C9.07964 75.6154 9.11111 75.5409 9.16631 75.4857C9.2215 75.4306 9.29614 75.399 9.37419 75.3975H18.1551C18.2336 75.3975 18.3092 75.4286 18.3647 75.4841C18.4203 75.5396 18.4512 75.6149 18.4512 75.6934C18.4512 75.7719 18.4203 75.8471 18.3647 75.9026C18.3092 75.9581 18.2336 75.9893 18.1551 75.9893Z" fill="#E3E3E3"/>
        <path d="M20.3678 78.1851H18.1711C18.0925 78.1851 18.0173 78.1539 17.9617 78.0984C17.9062 78.0429 17.875 77.9677 17.875 77.8892C17.8765 77.8112 17.9083 77.7368 17.9635 77.6816C18.0187 77.6264 18.093 77.5948 18.1711 77.5933H20.3678C20.4463 77.5933 20.5216 77.6245 20.5771 77.68C20.6327 77.7355 20.6639 77.8107 20.6639 77.8892C20.6639 77.9677 20.6327 78.0429 20.5771 78.0984C20.5216 78.1539 20.4463 78.1851 20.3678 78.1851Z" fill="#E3E3E3"/>
        <path d="M8.27638 83.648C8.21843 83.6472 8.16182 83.6294 8.11389 83.5969C8.06597 83.5643 8.02869 83.5183 8.00663 83.4648C7.98456 83.4112 7.97877 83.3524 7.98986 83.2955C8.00094 83.2386 8.0285 83.1863 8.06908 83.1449L10.4376 80.7775C10.4933 80.7218 10.5689 80.6904 10.6478 80.6904C10.7266 80.6904 10.8022 80.7218 10.858 80.7775C10.9137 80.8332 10.945 80.9088 10.945 80.9876C10.945 81.0664 10.9137 81.142 10.858 81.1977L8.48946 83.5651C8.4612 83.5924 8.42776 83.6138 8.39116 83.628C8.35456 83.6422 8.31563 83.649 8.27638 83.648Z" fill="#E3E3E3"/>
        <path d="M10.1609 73.4855C10.1222 73.4852 10.084 73.4773 10.0484 73.4621C10.0128 73.4468 9.98076 73.4246 9.95389 73.3967L6.99328 70.4374C6.96567 70.4098 6.94374 70.377 6.9288 70.341C6.91386 70.3049 6.90625 70.2663 6.90625 70.2273C6.90625 70.1882 6.91386 70.1497 6.9288 70.1136C6.94374 70.0776 6.96567 70.0448 6.99328 70.0172C7.02088 69.9896 7.05349 69.9677 7.08955 69.9528C7.12562 69.9379 7.16443 69.9302 7.20347 69.9302C7.24251 69.9302 7.28103 69.9379 7.31709 69.9528C7.35316 69.9677 7.38606 69.9896 7.41366 70.0172L10.3743 72.9765C10.4026 73.003 10.4251 73.0351 10.4405 73.0708C10.4559 73.1064 10.4639 73.1448 10.4639 73.1836C10.4639 73.2224 10.4559 73.2609 10.4405 73.2965C10.4251 73.3322 10.4026 73.3643 10.3743 73.3908C10.3477 73.4211 10.3148 73.4452 10.278 73.4616C10.2412 73.4779 10.2012 73.486 10.1609 73.4855Z" fill="#E3E3E3"/>
        <path d="M19.2551 83.6481C19.1763 83.6477 19.1001 83.6182 19.0417 83.5652L16.6733 81.1978C16.6455 81.1703 16.6235 81.1375 16.6085 81.1015C16.5935 81.0654 16.5859 81.0267 16.5859 80.9877C16.5859 80.9486 16.5935 80.9099 16.6085 80.8739C16.6235 80.8378 16.6455 80.8051 16.6733 80.7776C16.7296 80.723 16.8053 80.6924 16.8837 80.6924C16.9622 80.6924 17.0376 80.723 17.0939 80.7776L19.4624 83.145C19.4902 83.1725 19.5121 83.2053 19.5272 83.2413C19.5422 83.2774 19.5497 83.316 19.5497 83.3551C19.5497 83.3942 19.5422 83.4328 19.5272 83.4689C19.5121 83.505 19.4902 83.5377 19.4624 83.5652C19.4061 83.6178 19.3321 83.6473 19.2551 83.6481Z" fill="#E3E3E3"/>
        <path d="M17.372 73.4855C17.292 73.4853 17.2154 73.4535 17.1589 73.3968C17.1047 73.3415 17.0742 73.2671 17.0742 73.1896C17.0742 73.1121 17.1047 73.0378 17.1589 72.9825L20.1195 70.0231C20.1753 69.9674 20.2509 69.9362 20.3297 69.9362C20.4086 69.9362 20.4842 69.9674 20.5399 70.0231C20.5957 70.0789 20.627 70.1544 20.627 70.2332C20.627 70.3121 20.5957 70.3876 20.5399 70.4433L17.5793 73.4027C17.552 73.4295 17.5195 73.4506 17.4839 73.4649C17.4483 73.4791 17.4103 73.4861 17.372 73.4855Z" fill="#E3E3E3"/>
        <path d="M51.6523 103.026V110.388C51.6523 110.859 51.8393 111.311 52.1725 111.644C52.5056 111.977 52.9576 112.164 53.4287 112.164H60.315C60.3947 112.164 60.4732 112.144 60.5429 112.105C60.6125 112.067 60.6711 112.011 60.7132 111.944C60.7553 111.876 60.7795 111.799 60.7834 111.719C60.7873 111.64 60.7707 111.561 60.7354 111.489C58.2722 106.606 54.0444 103.665 52.3746 102.647C52.3053 102.6 52.2247 102.572 52.141 102.567C52.0573 102.562 51.9738 102.58 51.8995 102.619C51.8253 102.658 51.763 102.717 51.7194 102.788C51.6759 102.86 51.6528 102.942 51.6523 103.026Z" fill="#EAB669"/>
        <path d="M62.2555 111.702H54.6287C54.0832 111.7 53.5607 111.483 53.1756 111.097C52.7904 110.711 52.5742 110.188 52.5742 109.642V101.475C52.5742 101.396 52.6054 101.321 52.661 101.265C52.7165 101.21 52.7918 101.179 52.8703 101.179C52.9483 101.18 53.0227 101.212 53.0779 101.267C53.1331 101.322 53.1648 101.397 53.1663 101.475V109.642C53.1663 110.031 53.3201 110.403 53.5942 110.678C53.8684 110.953 54.2403 111.109 54.6287 111.11H62.2555C62.334 111.11 62.4093 111.141 62.4648 111.197C62.5203 111.252 62.5516 111.328 62.5516 111.406C62.5516 111.485 62.5203 111.56 62.4648 111.615C62.4093 111.671 62.334 111.702 62.2555 111.702Z" fill="#E3E3E3"/>
        <path d="M60.3953 136.537H38.3624C38.0794 136.537 37.7991 136.481 37.5376 136.373C37.2761 136.264 37.0383 136.106 36.8382 135.906C36.638 135.705 36.4793 135.468 36.371 135.207C36.2626 134.945 36.207 134.665 36.207 134.382V103.333C36.207 103.05 36.2626 102.77 36.371 102.509C36.4793 102.247 36.638 102.01 36.8382 101.81C37.0383 101.61 37.2761 101.451 37.5376 101.343C37.7991 101.234 38.0794 101.179 38.3624 101.179H52.9345L53.0056 101.22C53.2958 101.392 60.1702 105.428 62.5209 111.282V111.394V134.37C62.5241 134.939 62.3024 135.485 61.9042 135.891C61.5061 136.297 60.9638 136.529 60.3953 136.537ZM38.3624 101.771C37.9479 101.771 37.5503 101.935 37.2571 102.228C36.964 102.521 36.7992 102.919 36.7992 103.333V134.382C36.7992 134.797 36.964 135.194 37.2571 135.487C37.5503 135.78 37.9479 135.945 38.3624 135.945H60.3953C60.8099 135.945 61.2075 135.78 61.5006 135.487C61.7938 135.194 61.9586 134.797 61.9586 134.382V111.465C59.7855 106.139 53.5089 102.214 52.7865 101.776L38.3624 101.771Z" fill="#E3E3E3"/>
        <path d="M49.3849 127.671C48.1416 127.669 46.9498 127.175 46.0707 126.296C45.1915 125.418 44.6969 124.226 44.6953 122.983V120.788C44.7385 119.574 45.2511 118.425 46.1253 117.581C46.9995 116.738 48.1671 116.267 49.382 116.267C50.5969 116.267 51.7645 116.738 52.6387 117.581C53.5129 118.425 54.0255 119.574 54.0687 120.788V122.983C54.0687 124.226 53.5753 125.417 52.6971 126.296C51.8189 127.175 50.6276 127.669 49.3849 127.671ZM49.3849 116.698C48.2992 116.698 47.2579 117.129 46.4896 117.895C45.7213 118.662 45.289 119.702 45.2874 120.788V122.983C45.2665 123.534 45.3568 124.083 45.5531 124.598C45.7495 125.113 46.0478 125.583 46.43 125.98C46.8123 126.377 47.2707 126.692 47.7779 126.908C48.2852 127.124 48.8308 127.235 49.382 127.235C49.9332 127.235 50.4785 127.124 50.9858 126.908C51.493 126.692 51.9517 126.377 52.3339 125.98C52.7162 125.583 53.0142 125.113 53.2106 124.598C53.4069 124.083 53.4975 123.534 53.4766 122.983V120.788C53.475 119.703 53.0434 118.664 52.2764 117.897C51.5094 117.131 50.4696 116.699 49.3849 116.698Z" fill="#E3E3E3"/>
        <path d="M53.7726 121.083H44.9914C44.9129 121.083 44.8376 121.052 44.782 120.996C44.7265 120.941 44.6953 120.866 44.6953 120.787C44.6953 120.709 44.7265 120.633 44.782 120.578C44.8376 120.522 44.9129 120.491 44.9914 120.491H53.7726C53.8511 120.491 53.9264 120.522 53.9819 120.578C54.0375 120.633 54.0687 120.709 54.0687 120.787C54.0687 120.866 54.0375 120.941 53.9819 120.996C53.9264 121.052 53.8511 121.083 53.7726 121.083Z" fill="#E3E3E3"/>
        <path d="M44.9889 123.303H42.7922C42.7136 123.303 42.6384 123.271 42.5828 123.216C42.5273 123.16 42.4961 123.085 42.4961 123.007C42.4976 122.929 42.5291 122.854 42.5843 122.799C42.6395 122.744 42.7141 122.712 42.7922 122.711H44.9889C45.0674 122.711 45.1427 122.742 45.1982 122.797C45.2538 122.853 45.285 122.928 45.285 123.007C45.285 123.085 45.2538 123.16 45.1982 123.216C45.1427 123.271 45.0674 123.303 44.9889 123.303Z" fill="#E3E3E3"/>
        <path d="M55.9694 123.303H53.7726C53.6941 123.303 53.6188 123.272 53.5633 123.216C53.5078 123.161 53.4766 123.085 53.4766 123.007C53.4781 122.929 53.5095 122.854 53.5647 122.799C53.6199 122.744 53.6946 122.712 53.7726 122.711H55.9694C56.0479 122.711 56.1232 122.742 56.1787 122.798C56.2342 122.853 56.2654 122.928 56.2654 123.007C56.2654 123.085 56.2342 123.161 56.1787 123.216C56.1232 123.272 56.0479 123.303 55.9694 123.303Z" fill="#E3E3E3"/>
        <path d="M43.8955 128.765C43.8154 128.765 43.7389 128.733 43.6824 128.676C43.6281 128.621 43.5977 128.547 43.5977 128.469C43.5977 128.392 43.6281 128.317 43.6824 128.262L46.0509 125.895C46.1066 125.839 46.1822 125.808 46.2611 125.808C46.3399 125.808 46.4155 125.839 46.4712 125.895C46.527 125.95 46.5583 126.026 46.5583 126.105C46.5583 126.184 46.527 126.259 46.4712 126.315L44.1028 128.682C44.0754 128.709 44.0429 128.73 44.0073 128.744C43.9718 128.759 43.9338 128.766 43.8955 128.765Z" fill="#E3E3E3"/>
        <path d="M45.7769 118.568C45.6969 118.567 45.62 118.536 45.5636 118.479L42.6029 115.52C42.5752 115.492 42.5532 115.459 42.5382 115.423C42.5231 115.387 42.5156 115.349 42.5156 115.309C42.5156 115.27 42.5231 115.232 42.5382 115.196C42.5532 115.16 42.5752 115.127 42.6029 115.099C42.6593 115.045 42.7347 115.014 42.8131 115.014C42.8916 115.014 42.967 115.045 43.0233 115.099L45.9839 118.059C46.0245 118.1 46.0521 118.152 46.0632 118.209C46.0742 118.266 46.0685 118.325 46.0464 118.379C46.0243 118.432 45.987 118.478 45.9391 118.511C45.8912 118.543 45.8349 118.561 45.7769 118.562V118.568Z" fill="#E3E3E3"/>
        <path d="M54.8723 128.766C54.7923 128.765 54.7157 128.733 54.6592 128.677L52.2907 126.309C52.263 126.282 52.241 126.249 52.226 126.213C52.2109 126.177 52.2031 126.138 52.2031 126.099C52.2031 126.06 52.2109 126.022 52.226 125.985C52.241 125.949 52.263 125.917 52.2907 125.889C52.3461 125.835 52.4202 125.805 52.4977 125.805C52.5752 125.805 52.6497 125.835 52.705 125.889L55.0735 128.257C55.1141 128.298 55.1417 128.35 55.1528 128.407C55.1638 128.464 55.158 128.523 55.136 128.576C55.1139 128.63 55.0766 128.676 55.0287 128.709C54.9808 128.741 54.9242 128.759 54.8662 128.76L54.8723 128.766Z" fill="#E3E3E3"/>
        <path d="M52.9834 118.568C52.9255 118.567 52.8688 118.549 52.8209 118.517C52.773 118.484 52.7357 118.438 52.7137 118.385C52.6916 118.331 52.6858 118.272 52.6969 118.215C52.708 118.158 52.7355 118.106 52.7761 118.065L55.7367 115.105C55.7921 115.051 55.8665 115.021 55.944 115.021C56.0215 115.021 56.096 115.051 56.1513 115.105C56.1791 115.133 56.2011 115.166 56.2161 115.202C56.2311 115.238 56.2389 115.276 56.2389 115.315C56.2389 115.355 56.2311 115.393 56.2161 115.429C56.2011 115.465 56.1791 115.498 56.1513 115.526L53.1907 118.485C53.1348 118.538 53.0605 118.568 52.9834 118.568Z" fill="#E3E3E3"/>
        <path d="M15.4414 103.025V110.388C15.4414 110.859 15.6284 111.311 15.9615 111.644C16.2947 111.977 16.7467 112.164 17.2178 112.164H24.1041C24.1832 112.163 24.2607 112.142 24.3296 112.103C24.3985 112.064 24.4565 112.008 24.4979 111.941C24.5393 111.873 24.5628 111.797 24.5664 111.718C24.57 111.639 24.5535 111.56 24.5184 111.489C22.0552 106.606 17.8276 103.665 16.1579 102.647C16.0887 102.601 16.0085 102.575 15.9257 102.571C15.8429 102.567 15.7604 102.585 15.6872 102.624C15.6139 102.662 15.5523 102.72 15.5091 102.791C15.4658 102.861 15.4425 102.942 15.4414 103.025Z" fill="#EAB669"/>
        <path d="M26.0542 111.702H18.4278C17.8813 111.702 17.357 111.485 16.9706 111.099C16.5842 110.712 16.3672 110.189 16.3672 109.642V101.475C16.3672 101.396 16.3981 101.321 16.4536 101.265C16.5092 101.21 16.5847 101.179 16.6632 101.179C16.7418 101.179 16.8171 101.21 16.8726 101.265C16.9281 101.321 16.9593 101.396 16.9593 101.475V109.642C16.9593 110.032 17.1138 110.405 17.3892 110.68C17.6646 110.955 18.0383 111.11 18.4278 111.11H26.0542C26.1328 111.11 26.208 111.141 26.2636 111.197C26.3191 111.252 26.3503 111.328 26.3503 111.406C26.3488 111.484 26.317 111.558 26.2618 111.614C26.2066 111.669 26.1323 111.701 26.0542 111.702Z" fill="#E3E3E3"/>
        <path d="M24.1941 136.537H2.15541C1.58426 136.535 1.03675 136.307 0.632889 135.904C0.229025 135.5 0.00156266 134.953 0 134.382V103.333C0.00156266 102.762 0.229025 102.215 0.632889 101.811C1.03675 101.408 1.58426 101.18 2.15541 101.179H16.7393L16.8105 101.22C17.1006 101.392 23.975 105.428 26.3258 111.282V111.394V134.37C26.3289 134.94 26.1065 135.487 25.707 135.893C25.3076 136.299 24.7636 136.53 24.1941 136.537ZM2.15541 101.771C1.7413 101.772 1.34436 101.937 1.05154 102.23C0.758718 102.523 0.593683 102.919 0.592123 103.333V134.382C0.592123 134.797 0.756646 135.194 1.0498 135.487C1.34296 135.78 1.74082 135.945 2.15541 135.945H24.1941C24.6076 135.943 25.0037 135.778 25.2956 135.485C25.5875 135.192 25.7513 134.796 25.7513 134.382V111.465C23.5841 106.139 17.3018 102.214 16.5794 101.776L2.15541 101.771Z" fill="#E3E3E3"/>
        <path d="M13.1739 127.67C11.9307 127.669 10.7386 127.174 9.85944 126.296C8.98031 125.417 8.48594 124.226 8.48438 122.983V120.787C8.48438 119.544 8.97823 118.352 9.85771 117.472C10.7372 116.593 11.9302 116.099 13.1739 116.099C14.4177 116.099 15.6104 116.593 16.4899 117.472C17.3694 118.352 17.8635 119.544 17.8635 120.787V122.983C17.8619 124.226 17.3673 125.417 16.4882 126.296C15.609 127.174 14.4172 127.669 13.1739 127.67ZM13.1739 116.697C12.0887 116.699 11.0483 117.13 10.2804 117.897C9.51248 118.663 9.07963 119.702 9.0765 120.787V122.983C9.0765 124.069 9.50822 125.111 10.2766 125.879C11.0451 126.647 12.0872 127.079 13.1739 127.079C14.2607 127.079 15.3028 126.647 16.0712 125.879C16.8397 125.111 17.2714 124.069 17.2714 122.983V120.787C17.2683 119.702 16.8354 118.663 16.0675 117.897C15.2996 117.13 14.2592 116.699 13.1739 116.697Z" fill="#E3E3E3"/>
        <path d="M17.5674 121.083H8.78044C8.70192 121.083 8.62663 121.052 8.57111 120.996C8.51559 120.941 8.48438 120.866 8.48438 120.787C8.48589 120.709 8.51736 120.635 8.57256 120.58C8.62775 120.524 8.70239 120.493 8.78044 120.491H17.5674C17.6455 120.493 17.7198 120.524 17.775 120.58C17.8302 120.635 17.862 120.709 17.8635 120.787C17.8635 120.866 17.8323 120.941 17.7768 120.996C17.7213 121.052 17.646 121.083 17.5674 121.083Z" fill="#E3E3E3"/>
        <path d="M8.78 123.303H6.58903C6.51051 123.303 6.43523 123.272 6.37971 123.216C6.32418 123.161 6.29297 123.085 6.29297 123.007C6.29297 122.928 6.32418 122.853 6.37971 122.798C6.43523 122.742 6.51051 122.711 6.58903 122.711H8.78C8.85852 122.711 8.9338 122.742 8.98933 122.798C9.04485 122.853 9.07606 122.928 9.07606 123.007C9.07606 123.085 9.04485 123.161 8.98933 123.216C8.9338 123.272 8.85852 123.303 8.78 123.303Z" fill="#E3E3E3"/>
        <path d="M19.7761 123.303H17.5851C17.5066 123.303 17.4313 123.272 17.3758 123.216C17.3203 123.161 17.2891 123.085 17.2891 123.007C17.2891 122.928 17.3203 122.853 17.3758 122.798C17.4313 122.742 17.5066 122.711 17.5851 122.711H19.7761C19.8546 122.711 19.9299 122.742 19.9854 122.798C20.0409 122.853 20.0722 122.928 20.0722 123.007C20.0722 123.085 20.0409 123.161 19.9854 123.216C19.9299 123.272 19.8546 123.303 19.7761 123.303Z" fill="#E3E3E3"/>
        <path d="M7.68653 128.765C7.62859 128.764 7.57197 128.747 7.52405 128.714C7.47612 128.681 7.43885 128.636 7.41678 128.582C7.39472 128.528 7.38893 128.47 7.40001 128.413C7.4111 128.356 7.43866 128.304 7.47923 128.262L9.84773 125.895C9.90348 125.839 9.97908 125.808 10.0579 125.808C10.1368 125.808 10.2124 125.839 10.2681 125.895C10.3239 125.95 10.3551 126.026 10.3551 126.105C10.3551 126.184 10.3239 126.259 10.2681 126.315L7.89962 128.682C7.87199 128.71 7.83864 128.732 7.80189 128.747C7.76515 128.761 7.72591 128.767 7.68653 128.765Z" fill="#E3E3E3"/>
        <path d="M9.56715 118.568C9.52843 118.568 9.49028 118.56 9.45468 118.545C9.41909 118.529 9.38701 118.507 9.36014 118.479L6.39953 115.52C6.37192 115.492 6.34999 115.46 6.33505 115.424C6.32011 115.388 6.3125 115.349 6.3125 115.31C6.3125 115.271 6.32011 115.232 6.33505 115.196C6.34999 115.16 6.37192 115.127 6.39953 115.1C6.42713 115.072 6.45974 115.05 6.4958 115.035C6.53187 115.02 6.57068 115.013 6.60972 115.013C6.64876 115.013 6.68728 115.02 6.72334 115.035C6.75941 115.05 6.79231 115.072 6.81991 115.1L9.78053 118.059C9.83477 118.114 9.86495 118.189 9.86495 118.266C9.86495 118.344 9.83477 118.418 9.78053 118.473C9.75305 118.502 9.71998 118.526 9.68338 118.542C9.64679 118.558 9.60719 118.567 9.56715 118.568Z" fill="#E3E3E3"/>
        <path d="M18.6634 128.765C18.6246 128.766 18.586 128.758 18.5503 128.743C18.5147 128.728 18.4825 128.705 18.4561 128.677L16.0876 126.309C16.0599 126.282 16.0379 126.249 16.0228 126.213C16.0078 126.177 16 126.138 16 126.099C16 126.06 16.0078 126.021 16.0228 125.985C16.0379 125.949 16.0599 125.916 16.0876 125.889C16.1439 125.834 16.2193 125.804 16.2978 125.804C16.3763 125.804 16.4516 125.834 16.508 125.889L18.8765 128.256C18.9048 128.283 18.9273 128.315 18.9427 128.351C18.9581 128.386 18.9661 128.425 18.9661 128.464C18.9661 128.502 18.9581 128.541 18.9427 128.576C18.9273 128.612 18.9048 128.644 18.8765 128.671C18.8499 128.701 18.817 128.725 18.7802 128.741C18.7434 128.758 18.7037 128.766 18.6634 128.765Z" fill="#E3E3E3"/>
        <path d="M16.7813 118.568C16.7425 118.568 16.7039 118.561 16.6683 118.546C16.6326 118.53 16.6004 118.508 16.574 118.479C16.5457 118.453 16.5232 118.421 16.5078 118.385C16.4924 118.349 16.4844 118.311 16.4844 118.272C16.4844 118.233 16.4924 118.195 16.5078 118.159C16.5232 118.124 16.5457 118.092 16.574 118.065L19.5346 115.106C19.5904 115.05 19.666 115.019 19.7448 115.019C19.8236 115.019 19.8992 115.05 19.955 115.106C20.0107 115.161 20.0423 115.237 20.0423 115.316C20.0423 115.395 20.0107 115.47 19.955 115.526L16.9944 118.485C16.9663 118.513 16.933 118.534 16.8964 118.548C16.8597 118.563 16.8206 118.569 16.7813 118.568Z" fill="#E3E3E3"/>
        <path d="M176.513 25.213C176.513 25.213 172.96 12.4762 165.008 19.1701C157.056 25.8641 156.535 35.902 156.659 38.8672C156.783 41.8325 154.563 43.4068 153.781 43.1523C153.781 43.1523 156.351 43.9928 159.655 39.4414C161.283 37.4409 160.318 34.1146 161.1 33.0789C161.881 32.0431 169.165 22.6858 176.513 25.213Z" fill="#252525"/>
        <path d="M177.221 17.6853C181.472 17.6853 184.919 14.2405 184.919 9.99108C184.919 5.74169 181.472 2.29688 177.221 2.29688C172.97 2.29688 169.523 5.74169 169.523 9.99108C169.523 14.2405 172.97 17.6853 177.221 17.6853Z" fill="#252525"/>
        <path d="M190.96 37.8614C190.96 37.8614 197.669 21.1413 173.664 15.4416C149.659 9.74199 155.664 33.89 155.664 33.89C155.664 33.89 163.953 26.3674 165.73 25.5033C167.506 24.6392 178.638 29.1846 184.678 29.0189C190.717 28.8532 188.479 43.4012 190.96 37.8614Z" fill="#252525"/>
        <path d="M178.171 54.5817C173.599 54.5795 169.047 53.9826 164.629 52.8061C164.427 52.7529 159.537 51.4626 155.877 48.5447C155.46 48.2196 155.065 47.8677 154.693 47.4912C154.018 46.8269 153.438 46.0719 152.97 45.248C152.352 44.2125 151.838 43.118 151.436 41.981C150.59 41.6199 146.314 39.5247 147.83 34.0618C148.624 31.2031 149.53 29.2855 150.525 28.3681C150.743 28.1468 151.009 27.9784 151.303 27.8758C151.596 27.7732 151.909 27.7392 152.218 27.7763C153.071 27.8946 153.905 28.6167 154.758 29.9898L154.823 30.049V30.1852C154.824 30.2512 154.802 30.3154 154.762 30.3676C154.721 30.4198 154.665 30.4571 154.601 30.4734C154.537 30.4897 154.469 30.4842 154.408 30.4577C154.348 30.4312 154.298 30.3853 154.267 30.3272C153.515 29.1139 152.798 28.451 152.129 28.3622C151.909 28.345 151.688 28.3782 151.483 28.4592C151.278 28.5403 151.094 28.667 150.945 28.8298C150.045 29.6584 149.169 31.5287 148.417 34.2394C146.901 39.726 151.59 41.4306 151.792 41.5016L151.934 41.5489L151.975 41.6909C152.367 42.8403 152.879 43.9453 153.503 44.9877C153.947 45.7624 154.495 46.4732 155.131 47.1006C155.489 47.4565 155.867 47.7923 156.262 48.1067C159.815 50.9417 164.753 52.2497 164.801 52.2497C169.302 53.4353 173.942 54.0146 178.597 53.9721C179.499 53.9777 180.401 53.9302 181.297 53.83C182.724 53.5874 184.388 50.7701 185.442 48.2133C185.578 47.8996 185.643 47.7161 185.649 47.7102C186.204 46.3939 186.675 45.0437 187.058 43.6677C187.061 43.6291 187.072 43.5914 187.09 43.5569C187.108 43.5224 187.132 43.4919 187.162 43.467C187.192 43.4422 187.227 43.4236 187.264 43.4123C187.301 43.4011 187.34 43.3974 187.378 43.4014C187.417 43.4051 187.455 43.4165 187.489 43.4349C187.524 43.4533 187.555 43.4784 187.579 43.5087C187.604 43.5389 187.623 43.5738 187.634 43.6112C187.645 43.6487 187.649 43.6881 187.645 43.727C187.255 45.1557 186.772 46.5574 186.2 47.9233C186.2 47.9233 186.129 48.1186 185.987 48.4382C185.276 50.125 183.405 54.0727 181.374 54.41C180.447 54.5234 179.513 54.5748 178.579 54.5639L178.171 54.5817Z" fill="#E3E3E3"/>
        <path d="M191.588 38.9385L191.031 38.7491L192.808 33.6591C193.338 32.1735 193.43 30.5672 193.074 29.0307L193.666 28.9005C194.041 30.5439 193.941 32.2601 193.376 33.8485L191.588 38.9385Z" fill="#45E5E5"/>
        <path d="M189.912 23.4554C189.832 23.4552 189.756 23.4232 189.699 23.3666C186.875 20.4842 182.41 17.8208 176.436 15.4475C167.927 12.0739 161.538 13.8849 157.488 20.8275C157.447 20.8951 157.381 20.944 157.305 20.964C157.229 20.9839 157.148 20.9732 157.079 20.934C157.013 20.8935 156.965 20.8286 156.946 20.7534C156.927 20.6781 156.939 20.5984 156.978 20.5316C161.23 13.2931 167.862 11.3991 176.684 14.897C182.736 17.3 187.266 20.0107 190.155 22.9522C190.183 22.9792 190.204 23.0115 190.219 23.0471C190.234 23.0827 190.242 23.1209 190.242 23.1595C190.242 23.198 190.234 23.2362 190.219 23.2718C190.204 23.3074 190.183 23.3396 190.155 23.3666C190.124 23.3991 190.086 23.4241 190.044 23.4395C190.002 23.4549 189.957 23.4604 189.912 23.4554Z" fill="#E3E3E3"/>
        <path d="M187.84 42.3891C187.738 42.3875 187.639 42.3544 187.556 42.2944C187.477 42.235 187.418 42.1522 187.388 42.0577C187.359 41.9632 187.359 41.8617 187.39 41.7676C188.859 37.3642 190.037 32.2032 188.924 30.9188C188.367 30.2737 186.023 29.9245 183.05 29.4806C179.101 28.8887 173.694 28.0779 168.472 26.03C168.436 26.0157 168.403 25.9944 168.375 25.9672C168.347 25.9401 168.325 25.9077 168.309 25.872C168.294 25.8363 168.286 25.7979 168.285 25.7589C168.285 25.72 168.292 25.6814 168.306 25.6453C168.336 25.5733 168.393 25.5157 168.465 25.4848C168.537 25.4539 168.618 25.452 168.691 25.4796C173.849 27.5037 179.219 28.3087 183.139 28.8946C186.472 29.3918 188.675 29.7232 189.374 30.5282C190.866 32.2623 189.054 38.5834 188.071 41.596L189.942 40.2583C190.433 39.9061 190.802 39.4096 190.996 38.8379L192.773 33.6591C193.303 32.1736 193.395 30.5672 193.039 29.0307C193.03 28.9919 193.03 28.9517 193.037 28.9125C193.044 28.8734 193.058 28.836 193.08 28.8024C193.101 28.7689 193.129 28.7399 193.162 28.7172C193.194 28.6944 193.231 28.6783 193.27 28.6697C193.309 28.6612 193.349 28.6603 193.388 28.6673C193.427 28.6743 193.465 28.6889 193.498 28.7104C193.532 28.7318 193.561 28.7596 193.584 28.7922C193.606 28.8249 193.623 28.8617 193.631 28.9005C194.006 30.544 193.906 32.2602 193.341 33.8485L191.565 39.0332C191.327 39.7192 190.882 40.3146 190.292 40.7378L188.118 42.3003C188.037 42.3588 187.94 42.39 187.84 42.3891Z" fill="#E3E3E3"/>
        <path d="M154.25 44.1231L155.031 43.4248C156.032 42.5213 156.81 41.3992 157.305 40.1458C157.357 39.5802 157.314 39.0099 157.175 38.459C156.66 35.2275 155.576 28.5039 164.701 20.0817C167.579 17.4242 170.148 16.4122 172.339 17.0691C175.525 18.0339 177.177 22.2775 178 25.6689C178.009 25.7078 178.01 25.748 178.003 25.7873C177.997 25.8266 177.983 25.8643 177.962 25.8981C177.94 25.9319 177.913 25.9611 177.88 25.9843C177.848 26.0074 177.811 26.0239 177.772 26.0329C177.733 26.0418 177.693 26.043 177.654 26.0364C177.614 26.0297 177.577 26.0155 177.543 25.9943C177.509 25.9731 177.48 25.9456 177.456 25.9131C177.433 25.8806 177.417 25.8439 177.408 25.805C176.768 23.1535 175.229 18.5665 172.156 17.6373C170.178 17.0454 167.804 18.0102 165.086 20.5137C156.204 28.7229 157.246 35.2334 157.749 38.3643C157.915 39.0017 157.951 39.6659 157.856 40.3175C157.655 40.933 157.363 41.5154 156.991 42.0457C158.028 40.8619 159.259 38.6839 159.952 34.6001V34.458L160.076 34.3929C160.124 34.3929 164.813 31.7059 167.454 27.9712C167.477 27.9392 167.505 27.912 167.538 27.8911C167.571 27.8701 167.608 27.856 167.647 27.8494C167.685 27.8428 167.725 27.8438 167.763 27.8525C167.801 27.8613 167.837 27.8775 167.869 27.9002C167.901 27.9221 167.928 27.9501 167.949 27.9826C167.969 28.0151 167.984 28.0514 167.99 28.0894C167.997 28.1275 167.996 28.1665 167.987 28.2041C167.978 28.2417 167.963 28.2772 167.94 28.3086C165.447 31.8597 161.273 34.3811 160.491 34.8191C158.975 43.1643 155.369 43.8923 155.221 43.9219L154.25 44.1231Z" fill="#E3E3E3"/>
        <path d="M187.248 42.2174L178.059 41.081L179.184 40.6548C180.336 40.2803 181.557 40.163 182.761 40.3113C183.964 40.4596 185.12 40.8698 186.147 41.5131L187.248 42.2174ZM181.173 40.8679L184.246 41.2467C183.257 40.9173 182.213 40.7866 181.173 40.862V40.8679Z" fill="#E3E3E3"/>
        <path d="M173.795 40.0455L161.473 35.7901L162.864 35.6717C166.434 35.5234 169.928 36.7284 172.646 39.0453L173.795 40.0455ZM164.86 36.3346L170.751 38.3706C168.962 37.2556 166.944 36.5596 164.848 36.3346H164.86Z" fill="#E3E3E3"/>
        <path d="M186.757 40.0391C186.36 40.0391 184.981 39.761 179.201 38.2103L178.609 38.0505L179.095 37.6895C179.995 37.0148 186.585 38.0268 186.899 38.1866L187.065 38.2695V38.4648C187.065 38.672 187 38.8141 186.265 38.9147C187.071 39.471 187.053 39.6367 187.041 39.7728V39.909L186.923 39.9918C186.875 40.0274 186.816 40.0442 186.757 40.0391ZM180.877 38.0446C182.618 38.5062 184.596 39.0094 185.756 39.2757C185.59 39.1632 185.419 39.0508 185.253 38.9501L184.453 38.4589L185.004 38.4293C183.755 38.2577 182.067 38.0742 180.877 38.0742V38.0446Z" fill="#E3E3E3"/>
        <path d="M174.053 37.2284C173.994 37.2289 173.937 37.2116 173.888 37.1789C173.84 37.1461 173.802 37.0994 173.781 37.0449C173.508 36.3998 169.636 34.3993 164.194 32.0674C164.158 32.0525 164.126 32.0307 164.099 32.0033C164.072 31.9758 164.051 31.9431 164.036 31.9073C164.022 31.8715 164.015 31.8332 164.016 31.7946C164.016 31.756 164.025 31.7179 164.04 31.6826C164.07 31.6107 164.128 31.5535 164.2 31.5236C164.272 31.4937 164.353 31.4934 164.425 31.5229C167.919 33.0144 173.846 35.6659 174.325 36.8496C174.341 36.8853 174.349 36.9237 174.349 36.9626C174.35 37.0014 174.342 37.0399 174.327 37.0758C174.312 37.1117 174.29 37.1442 174.262 37.1714C174.234 37.1987 174.202 37.22 174.166 37.2343C174.128 37.2412 174.089 37.2391 174.053 37.2284Z" fill="#E3E3E3"/>
        <path d="M174.053 37.2341C174.007 37.2333 173.963 37.2212 173.923 37.1986L171.228 36.3286C163.176 33.7481 163.176 33.748 163.176 33.4876C163.176 33.2272 163.176 33.168 164.81 32.9608L163.898 32.2151C163.867 32.1904 163.842 32.1599 163.823 32.1254C163.805 32.0908 163.793 32.0528 163.789 32.0137C163.785 31.9745 163.789 31.935 163.801 31.8975C163.812 31.8599 163.831 31.8251 163.857 31.7949C163.906 31.7348 163.978 31.6967 164.055 31.689C164.133 31.6812 164.21 31.7044 164.271 31.7534L166.255 33.3752L165.568 33.4639L164.644 33.5823C166.243 34.1091 169.34 35.1034 171.406 35.7663L174.16 36.6541L174.248 36.7132C174.307 36.7656 174.343 36.8388 174.349 36.9173C174.354 36.9958 174.329 37.0734 174.278 37.1335C174.25 37.1649 174.215 37.1899 174.176 37.2073C174.137 37.2246 174.095 37.2337 174.053 37.2341Z" fill="#E3E3E3"/>
        <path d="M181.759 15.8149C181.698 15.8146 181.638 15.7961 181.587 15.7617C181.556 15.7388 181.529 15.7099 181.509 15.6766C181.488 15.6434 181.475 15.6065 181.469 15.5681C181.463 15.5296 181.464 15.4903 181.474 15.4524C181.483 15.4145 181.499 15.3788 181.522 15.3473C182.742 13.6981 183.379 11.6903 183.333 9.63968C183.287 7.58907 182.561 5.61192 181.268 4.01909C180.115 2.59839 178.568 1.55119 176.82 1.01C175.072 0.46881 173.203 0.457975 171.449 0.97879C169.695 1.4996 168.135 2.52866 166.966 3.93586C165.798 5.34306 165.073 7.06519 164.884 8.88425C164.834 9.36001 164.821 9.83871 164.842 10.3165C164.845 10.3551 164.839 10.3937 164.826 10.4302C164.814 10.4667 164.794 10.5003 164.768 10.529C164.742 10.5577 164.711 10.5808 164.675 10.5972C164.64 10.6136 164.603 10.6228 164.564 10.6243C164.525 10.6285 164.485 10.6243 164.448 10.6122C164.411 10.6001 164.377 10.5803 164.348 10.5541C164.319 10.5278 164.295 10.4957 164.28 10.4599C164.264 10.424 164.256 10.3853 164.256 10.3461C164.229 9.83893 164.241 9.33041 164.292 8.82501C164.448 7.31932 164.95 5.87006 165.758 4.58986C166.566 3.30966 167.659 2.23306 168.952 1.44378C170.244 0.654503 171.701 0.173763 173.21 0.0390499C174.718 -0.0956636 176.237 0.119252 177.649 0.667036C179.061 1.21482 180.327 2.08077 181.35 3.19748C182.372 4.31418 183.123 5.65154 183.544 7.10563C183.965 8.55972 184.045 10.0914 183.778 11.5814C183.51 13.0714 182.903 14.4795 182.002 15.6965C181.974 15.7337 181.937 15.7638 181.894 15.7844C181.852 15.8049 181.806 15.8154 181.759 15.8149Z" fill="#E3E3E3"/>
        <path d="M152.411 37.7014H152.352C152.314 37.6936 152.278 37.6784 152.245 37.6566C152.213 37.6349 152.186 37.607 152.164 37.5746C152.143 37.5421 152.128 37.5058 152.12 37.4676C152.113 37.4295 152.113 37.3903 152.121 37.3522C152.121 37.3048 153.14 32.4397 151.63 30.6346C151.604 30.6053 151.585 30.5711 151.573 30.5343C151.561 30.4974 151.556 30.4585 151.56 30.4199C151.563 30.3813 151.574 30.3437 151.592 30.3094C151.61 30.2751 151.635 30.2448 151.665 30.2202C151.726 30.1701 151.804 30.1458 151.883 30.1524C151.961 30.1591 152.034 30.1962 152.086 30.2558C153.779 32.2858 152.749 37.2634 152.678 37.4764C152.663 37.5373 152.629 37.5919 152.581 37.6323C152.533 37.6727 152.474 37.6969 152.411 37.7014Z" fill="#E3E3E3"/>
        <path d="M176.884 44.8395C176.884 44.8395 176.452 46.6742 173.758 45.7924C173.758 45.7687 175.813 45.8871 176.884 44.8395Z" fill="#E3E3E3"/>
        <path d="M177.407 50.2428C177.176 50.2428 171.741 49.9172 168.425 48.621C168.386 48.6092 168.35 48.5894 168.319 48.563C168.288 48.5366 168.262 48.5041 168.245 48.4675C168.227 48.4309 168.217 48.391 168.215 48.3503C168.213 48.3096 168.22 48.269 168.235 48.2311C168.249 48.1931 168.272 48.1586 168.3 48.1296C168.329 48.1007 168.363 48.078 168.401 48.063C168.439 48.0479 168.48 48.0408 168.52 48.0421C168.561 48.0435 168.601 48.0531 168.638 48.0706C171.865 49.3313 177.383 49.645 177.437 49.6509C177.515 49.6509 177.591 49.682 177.646 49.7375C177.702 49.793 177.733 49.8684 177.733 49.9468C177.733 50.0253 177.702 50.1006 177.646 50.1561C177.591 50.2116 177.515 50.2428 177.437 50.2428H177.407Z" fill="#E3E3E3"/>
        <path d="M167.695 12.0798C167.695 12.0798 170.455 9.21528 175.452 12.8079C175.452 12.8079 170.626 11.1447 167.695 12.0798Z" fill="#E3E3E3"/>
        <path d="M174.085 52.2792C172.96 52.2271 171.845 52.0524 170.758 51.7584C170.684 51.7316 170.623 51.677 170.589 51.6062C170.554 51.5355 170.549 51.4542 170.574 51.3796C170.601 51.3057 170.656 51.2452 170.726 51.211C170.797 51.1767 170.878 51.1714 170.953 51.1962C171.987 51.4703 173.047 51.6349 174.115 51.6874C174.153 51.6889 174.191 51.6981 174.226 51.7145C174.261 51.7308 174.293 51.754 174.319 51.7827C174.345 51.8113 174.365 51.8449 174.377 51.8814C174.39 51.9179 174.396 51.9566 174.393 51.9951C174.392 52.034 174.382 52.0722 174.366 52.1075C174.35 52.1428 174.327 52.1746 174.298 52.201C174.27 52.2274 174.236 52.2479 174.2 52.2613C174.163 52.2747 174.124 52.2808 174.085 52.2792Z" fill="#E3E3E3"/>
        <path d="M137.607 67.4307C137.529 67.4354 137.452 67.4087 137.393 67.3566C137.334 67.3044 137.298 67.231 137.294 67.1525C137.289 67.074 137.315 66.9969 137.368 66.9381C137.42 66.8793 137.493 66.8435 137.572 66.8388C138.487 66.7302 139.389 66.5319 140.266 66.247C146.951 63.6724 148.952 47.6033 148.97 47.4435L149 47.189L154.891 47.0352C154.97 47.0352 155.045 47.0664 155.101 47.1219C155.156 47.1774 155.187 47.2526 155.187 47.3311C155.187 47.4096 155.156 47.4848 155.101 47.5403C155.045 47.5958 154.97 47.627 154.891 47.627L149.509 47.7691C149.219 49.9412 147.081 64.2524 140.449 66.8034C139.531 67.1106 138.585 67.3267 137.625 67.4485L137.607 67.4307Z" fill="#E3E3E3"/>
        <path d="M123.992 50.3079H123.885C123.85 50.2942 123.818 50.2736 123.791 50.2473C123.763 50.2211 123.742 50.1897 123.727 50.155C123.712 50.1203 123.704 50.0829 123.704 50.0451C123.704 50.0074 123.711 49.97 123.725 49.935L123.767 49.8521L124.785 47.5912H110.616L110.545 47.4078C102.184 26.7932 116.715 14.6127 116.863 14.4943L116.999 14.3818L117.165 14.4469L150.868 28.3616C150.941 28.3922 150.999 28.4506 151.029 28.5239C151.059 28.5971 151.059 28.6793 151.028 28.7523C150.998 28.8253 150.939 28.8831 150.866 28.9131C150.792 28.9431 150.71 28.9427 150.637 28.9121L117.106 15.0684C115.678 16.3291 103.41 27.9651 111.018 47.029H125.703L124.282 50.1659C124.252 50.2141 124.208 50.2528 124.157 50.2779C124.106 50.303 124.049 50.3134 123.992 50.3079Z" fill="#E3E3E3"/>
        <path d="M154.53 30.4931C154.452 30.4931 154.377 30.4619 154.321 30.4064C154.266 30.3509 154.234 30.2756 154.234 30.1971V29.9012H154.465C154.526 29.878 154.594 29.878 154.655 29.9012L154.832 29.9841V30.4694H154.53V30.4931Z" fill="#E3E3E3"/>
        <path d="M152.413 37.6898C152.335 37.6898 152.259 37.6587 152.204 37.6032C152.148 37.5477 152.117 37.4724 152.117 37.3939V37.3051C152.17 36.7087 152.257 36.1159 152.378 35.5295C152.384 35.451 152.421 35.3783 152.481 35.3272C152.541 35.2762 152.619 35.251 152.697 35.2573C152.776 35.2636 152.849 35.3007 152.9 35.3607C152.951 35.4206 152.976 35.4984 152.97 35.5769V35.642C152.851 36.2166 152.766 36.7976 152.715 37.3821V37.4471C152.702 37.5171 152.665 37.5802 152.61 37.6247C152.554 37.6693 152.484 37.6924 152.413 37.6898Z" fill="#E3E3E3"/>
        <path d="M126.665 44.585C126.62 44.596 126.573 44.596 126.529 44.585C126.459 44.5473 126.408 44.4842 126.385 44.409C126.361 44.3338 126.368 44.2526 126.404 44.1825L132.752 32.0139C132.788 31.944 132.85 31.8914 132.925 31.8675C133 31.8436 133.082 31.8505 133.151 31.8866C133.221 31.9227 133.274 31.9851 133.298 32.06C133.322 32.135 133.315 32.2162 133.279 32.2861L126.949 44.4311C126.922 44.4815 126.88 44.5229 126.83 44.5503C126.779 44.5776 126.722 44.5896 126.665 44.585Z" fill="#E3E3E3"/>
        <path d="M144.874 62.3823C144.815 62.3824 144.757 62.3651 144.708 62.3325C144.658 62.2998 144.619 62.2534 144.596 62.1989C142.506 56.9491 139.551 53.5991 135.809 52.2379C130.983 50.4623 125.82 52.3384 122.344 54.2028C122.275 54.2391 122.194 54.2471 122.119 54.225C122.044 54.2029 121.98 54.1525 121.941 54.0845C121.923 54.0499 121.911 54.0121 121.908 53.9731C121.904 53.9341 121.908 53.8947 121.919 53.8572C121.931 53.8198 121.95 53.785 121.975 53.7549C122 53.7249 122.031 53.7 122.066 53.682C125.648 51.7584 130.983 49.8467 136.016 51.6815C139.918 53.1079 142.991 56.5703 145.147 61.9799C145.161 62.016 145.168 62.0546 145.168 62.0935C145.167 62.1324 145.159 62.1709 145.144 62.2066C145.128 62.2423 145.106 62.2746 145.078 62.3018C145.05 62.3289 145.017 62.3503 144.981 62.3646L144.874 62.3823Z" fill="#E3E3E3"/>
        <path d="M159.778 104.848C159.221 104.842 158.667 104.771 158.126 104.635C153.982 103.635 119.638 83.7425 117.347 74.6456C115.174 66.0695 123.363 50.5508 123.712 49.8938L123.742 49.8347C123.764 49.8022 123.792 49.7744 123.825 49.753C123.858 49.7315 123.894 49.7167 123.933 49.7095C123.972 49.7024 124.011 49.703 124.05 49.7113C124.088 49.7195 124.124 49.7353 124.156 49.7577C124.189 49.7791 124.216 49.8068 124.238 49.8391C124.259 49.8714 124.274 49.9077 124.281 49.9457C124.288 49.9838 124.288 50.0229 124.279 50.0607C124.271 50.0986 124.256 50.1345 124.233 50.1662C123.89 50.8231 115.802 66.1464 117.921 74.4976C120.112 83.1269 154.218 103.079 158.263 104.091C159.701 104.434 160.85 104.327 161.667 103.759C162.302 103.277 162.726 102.569 162.852 101.782L162.881 101.534H163.136C163.488 101.555 163.84 101.497 164.168 101.367C164.495 101.236 164.79 101.034 165.031 100.776C165.171 100.566 165.266 100.33 165.312 100.081C165.358 99.8332 165.353 99.5783 165.297 99.3321L165.22 99.0065L165.558 98.9651C167.506 98.7521 167.885 96.432 167.891 96.4083V96.3018L167.973 96.2307C169.655 94.7984 168.429 91.3419 168.417 91.3064L168.305 90.9928L168.631 90.9218C168.631 90.9218 170.591 90.4541 170.851 89.2349C171.059 88.2287 170.07 86.8675 167.991 85.3464C166.351 84.1627 164.77 83.7365 163.29 84.1627C160.181 85.0327 158.446 89.2172 158.429 89.2586L158.281 89.6255L135.294 71.4199L141.92 57.0199C141.927 56.981 141.942 56.9439 141.963 56.9107C141.984 56.8775 142.012 56.8488 142.045 56.8263C142.077 56.8037 142.114 56.7878 142.152 56.7794C142.191 56.771 142.231 56.7702 142.269 56.7772C142.308 56.7842 142.346 56.7988 142.379 56.8201C142.412 56.8415 142.441 56.8691 142.463 56.9015C142.486 56.934 142.502 56.9705 142.51 57.0091C142.518 57.0477 142.519 57.0875 142.512 57.1264L142.483 57.2566L136.07 71.2186L158.079 88.6549C158.588 87.5659 160.306 84.3698 163.166 83.5708C164.835 83.1032 166.588 83.5294 168.382 84.8552C170.697 86.5657 171.734 88.0749 171.467 89.3474C171.201 90.6199 169.762 91.194 169.099 91.3952C169.377 92.3303 170.046 95.1358 168.459 96.5977C168.353 97.0949 167.808 99.1013 165.931 99.4978C165.992 100.07 165.842 100.644 165.51 101.114C165.251 101.42 164.928 101.666 164.564 101.836C164.2 102.006 163.804 102.094 163.402 102.096C163.21 102.958 162.709 103.72 161.993 104.239C161.336 104.665 160.562 104.878 159.778 104.848Z" fill="#E3E3E3"/>
        <path d="M168.738 91.4605C168.699 91.4688 168.659 91.4688 168.62 91.4605C168.502 91.4131 165.719 90.188 165.156 88.2645C165.052 87.8916 165.034 87.4998 165.105 87.1191C165.176 86.7385 165.333 86.3791 165.565 86.0686C165.587 86.0362 165.615 86.0084 165.648 85.9869C165.68 85.9655 165.717 85.9507 165.756 85.9436C165.794 85.9364 165.834 85.937 165.872 85.9452C165.911 85.9535 165.947 85.9693 165.979 85.9917C166.012 86.0131 166.039 86.0408 166.06 86.0731C166.082 86.1053 166.097 86.1416 166.104 86.1797C166.111 86.2178 166.111 86.2569 166.102 86.2947C166.094 86.3326 166.078 86.3684 166.056 86.4001C165.872 86.6379 165.747 86.9153 165.689 87.2102C165.631 87.5051 165.644 87.8094 165.725 88.0988C166.204 89.756 168.827 90.9101 168.857 90.9219C168.893 90.9368 168.925 90.9585 168.952 90.986C168.979 91.0135 169 91.0461 169.015 91.082C169.029 91.1178 169.036 91.1561 169.036 91.1947C169.035 91.2333 169.026 91.2713 169.011 91.3066C168.984 91.3551 168.945 91.3953 168.896 91.4225C168.848 91.4497 168.794 91.4628 168.738 91.4605Z" fill="#E3E3E3"/>
        <path d="M110.792 47.5739H92.5547L92.6137 47.2306C95.0769 32.6944 108.34 30.3329 108.477 30.3152C108.515 30.3076 108.554 30.3079 108.593 30.3161C108.631 30.3244 108.667 30.3404 108.698 30.3632C108.73 30.3859 108.757 30.4149 108.776 30.4484C108.796 30.4819 108.809 30.5192 108.814 30.5579C108.821 30.596 108.82 30.6351 108.811 30.6729C108.803 30.7107 108.787 30.7463 108.764 30.7777C108.741 30.8092 108.713 30.8358 108.68 30.856C108.647 30.8761 108.61 30.8895 108.572 30.8952C108.441 30.8952 95.7995 33.1798 93.2593 46.982H110.792C110.87 46.982 110.946 47.0132 111.001 47.0687C111.057 47.1242 111.088 47.1995 111.088 47.278C111.088 47.3565 111.057 47.4317 111.001 47.4872C110.946 47.5427 110.87 47.5739 110.792 47.5739Z" fill="#E3E3E3"/>
        <path d="M186.757 67.2232C185.125 67.246 183.522 66.7914 182.145 65.9152C178.918 63.82 177.473 59.458 178.284 54.2378C178.624 52.1556 179.25 50.1301 180.143 48.2186C181.284 45.728 182.811 43.433 184.667 41.4181C184.768 41.3056 184.863 41.1991 184.963 41.0984C186.055 39.9436 187.265 38.908 188.575 38.0089C188.83 37.8255 189.09 37.6597 189.351 37.4999C189.935 37.1394 190.54 36.8133 191.163 36.5234C191.453 36.3813 191.755 36.257 192.033 36.1446H192.092C195.533 34.7774 198.783 34.9076 201.253 36.5115C204.539 38.6422 205.99 43.093 205.072 48.4138C204.491 51.67 203.247 54.7722 201.418 57.5285C198.884 61.4407 195.497 64.477 191.879 66.0691C190.271 66.8052 188.526 67.1982 186.757 67.2232ZM192.199 36.7127C191.938 36.8193 191.678 36.9318 191.417 37.056C190.808 37.3377 190.215 37.6538 189.641 38.003C189.398 38.1569 189.144 38.3226 188.895 38.4942C187.617 39.371 186.436 40.3809 185.372 41.5069C185.271 41.6075 185.182 41.7022 185.1 41.8028C184.122 42.8655 183.235 44.0077 182.447 45.2178C181.776 46.2561 181.183 47.3422 180.671 48.4672C179.795 50.3278 179.185 52.3022 178.859 54.3325C178.083 59.31 179.451 63.459 182.459 65.418C184.904 67.0042 188.161 67.0338 191.631 65.5068C195.1 63.9798 198.434 61.0028 200.909 57.1853C202.685 54.4983 203.894 51.4774 204.462 48.3073C205.32 43.2233 203.994 38.9974 200.909 36.9969C198.594 35.4935 195.515 35.387 192.24 36.7009L192.199 36.7127Z" fill="#E3E3E3"/>
        <path d="M151.6 110.731C151.541 110.732 151.483 110.713 151.435 110.678C151.402 110.656 151.374 110.628 151.353 110.595C151.332 110.562 151.317 110.526 151.31 110.487C151.302 110.449 151.303 110.409 151.311 110.371C151.32 110.332 151.335 110.296 151.358 110.264L156.041 103.44C156.063 103.406 156.091 103.376 156.124 103.353C156.156 103.33 156.194 103.314 156.233 103.306C156.272 103.298 156.313 103.298 156.352 103.306C156.392 103.314 156.429 103.33 156.462 103.353C156.495 103.376 156.523 103.405 156.544 103.439C156.565 103.473 156.579 103.511 156.586 103.551C156.592 103.591 156.59 103.631 156.58 103.67C156.57 103.709 156.552 103.745 156.527 103.777L151.843 110.601C151.816 110.641 151.78 110.674 151.738 110.696C151.696 110.719 151.648 110.731 151.6 110.731Z" fill="#E3E3E3"/>
        <path d="M168.725 85.7667C168.666 85.7656 168.609 85.7471 168.56 85.7135C168.527 85.6915 168.499 85.6633 168.478 85.6305C168.457 85.5977 168.442 85.561 168.435 85.5224C168.427 85.4839 168.428 85.4443 168.436 85.406C168.445 85.3677 168.46 85.3314 168.483 85.2992L182.066 65.5014C182.088 65.4689 182.116 65.4411 182.149 65.4197C182.182 65.3982 182.219 65.3835 182.257 65.3763C182.296 65.3692 182.335 65.3697 182.374 65.378C182.412 65.3863 182.448 65.402 182.481 65.4244C182.513 65.4459 182.541 65.4735 182.562 65.5058C182.583 65.5381 182.598 65.5744 182.605 65.6124C182.613 65.6505 182.612 65.6896 182.604 65.7275C182.595 65.7653 182.58 65.8012 182.558 65.8329L168.992 85.6365C168.963 85.6802 168.924 85.7153 168.877 85.7383C168.83 85.7612 168.778 85.771 168.725 85.7667Z" fill="#E3E3E3"/>
        <path d="M228.206 144.018H90.2411C86.8463 144.015 83.5915 142.666 81.1905 140.267C78.7894 137.868 77.4383 134.615 77.4336 131.222V59.8196C77.4383 56.4257 78.789 53.1722 81.1899 50.7724C83.5908 48.3726 86.8458 47.0223 90.2411 47.0176H125.176C125.255 47.0176 125.33 47.0488 125.386 47.1043C125.441 47.1598 125.472 47.235 125.472 47.3135C125.472 47.392 125.441 47.4672 125.386 47.5227C125.33 47.5782 125.255 47.6094 125.176 47.6094H90.2411C87.0028 47.6141 83.8986 48.9021 81.6088 51.1909C79.319 53.4797 78.0304 56.5827 78.0257 59.8196V131.204C78.0257 134.443 79.3122 137.55 81.6027 139.842C83.8933 142.134 87.0003 143.423 90.2411 143.426H228.206C231.443 143.423 234.547 142.136 236.836 139.848C239.125 137.56 240.412 134.458 240.415 131.222V59.8196C240.412 56.5832 239.125 53.4802 236.836 51.1912C234.547 48.9023 231.444 47.6141 228.206 47.6094H186.136C186.057 47.6094 185.982 47.5782 185.926 47.5227C185.871 47.4672 185.84 47.392 185.84 47.3135C185.84 47.235 185.871 47.1598 185.926 47.1043C185.982 47.0488 186.057 47.0176 186.136 47.0176H228.206C231.601 47.0223 234.855 48.3728 237.255 50.7728C239.655 53.1728 241.004 56.4262 241.008 59.8196V131.204C241.008 134.599 239.659 137.856 237.259 140.259C234.859 142.661 231.603 144.013 228.206 144.018Z" fill="#E3E3E3"/>
        <path d="M228.72 67.5316H144.046C143.968 67.5316 143.892 67.5004 143.837 67.4449C143.781 67.3894 143.75 67.3141 143.75 67.2356C143.75 67.1571 143.781 67.0819 143.837 67.0264C143.892 66.9709 143.968 66.9397 144.046 66.9397H228.72C228.798 66.9397 228.873 66.9709 228.929 67.0264C228.985 67.0819 229.016 67.1571 229.016 67.2356C229.016 67.3141 228.985 67.3894 228.929 67.4449C228.873 67.5004 228.798 67.5316 228.72 67.5316Z" fill="#E3E3E3"/>
        <path d="M112.338 67.5316H84.9875C84.9089 67.5316 84.8337 67.5004 84.7781 67.4449C84.7226 67.3894 84.6914 67.3141 84.6914 67.2356C84.6914 67.1571 84.7226 67.0819 84.7781 67.0264C84.8337 66.9709 84.9089 66.9397 84.9875 66.9397H112.338C112.416 66.9397 112.491 66.9709 112.547 67.0264C112.602 67.0819 112.634 67.1571 112.634 67.2356C112.634 67.3141 112.602 67.3894 112.547 67.4449C112.491 67.5004 112.416 67.5316 112.338 67.5316Z" fill="#E3E3E3"/>
        <path d="M96.1141 86.6071C95.3573 86.6071 94.6176 86.3827 93.9885 85.9623C93.3593 85.5419 92.8689 84.9444 92.5796 84.2454C92.2902 83.5464 92.215 82.7774 92.363 82.0355C92.5111 81.2937 92.8758 80.6124 93.4114 80.078C93.9469 79.5435 94.6292 79.1798 95.3716 79.033C96.114 78.8861 96.8831 78.9627 97.582 79.2529C98.2808 79.5432 98.878 80.0342 99.2976 80.6637C99.7172 81.2933 99.9404 82.0331 99.9392 82.7896C99.9376 83.8026 99.534 84.7736 98.8168 85.4893C98.0996 86.2051 97.1276 86.6071 96.1141 86.6071ZM96.1141 79.558C95.4747 79.558 94.8497 79.7475 94.3181 80.1026C93.7864 80.4577 93.3719 80.9624 93.1272 81.5529C92.8825 82.1434 92.8186 82.7932 92.9433 83.42C93.068 84.0469 93.3759 84.6227 93.828 85.0746C94.2802 85.5265 94.8564 85.8343 95.4835 85.959C96.1107 86.0837 96.7605 86.0197 97.3513 85.7751C97.942 85.5305 98.4471 85.1163 98.8024 84.5849C99.1576 84.0535 99.3471 83.4287 99.3471 82.7896C99.3393 81.9371 98.9954 81.1221 98.3901 80.5215C97.7848 79.9209 96.967 79.5832 96.1141 79.5817V79.558Z" fill="#E3E3E3"/>
        <path d="M121.622 83.1092H103.503C103.425 83.1092 103.349 83.0781 103.294 83.0226C103.238 82.9671 103.207 82.8918 103.207 82.8133C103.207 82.7348 103.238 82.6595 103.294 82.604C103.349 82.5485 103.425 82.5173 103.503 82.5173H121.622C121.701 82.5173 121.776 82.5485 121.831 82.604C121.887 82.6595 121.918 82.7348 121.918 82.8133C121.918 82.8918 121.887 82.9671 121.831 83.0226C121.776 83.0781 121.701 83.1092 121.622 83.1092Z" fill="#E3E3E3"/>
        <path d="M96.1141 100.936C95.3573 100.936 94.6176 100.712 93.9885 100.291C93.3593 99.871 92.8689 99.2735 92.5796 98.5745C92.2902 97.8755 92.215 97.1065 92.363 96.3646C92.5111 95.6228 92.8758 94.9415 93.4114 94.4071C93.9469 93.8726 94.6292 93.5089 95.3716 93.3621C96.114 93.2152 96.8831 93.2918 97.582 93.5821C98.2808 93.8723 98.878 94.3633 99.2976 94.9929C99.7172 95.6224 99.9404 96.3622 99.9392 97.1186C99.9376 98.1316 99.534 99.1026 98.8168 99.8184C98.0996 100.534 97.1276 100.936 96.1141 100.936ZM96.1141 93.8871C95.4747 93.8871 94.8497 94.0766 94.3181 94.4317C93.7864 94.7868 93.3719 95.2915 93.1272 95.8819C92.8825 96.4724 92.8186 97.1222 92.9433 97.7491C93.068 98.3759 93.3759 98.9518 93.828 99.4037C94.2802 99.8557 94.8564 100.163 95.4835 100.288C96.1107 100.413 96.7605 100.349 97.3513 100.104C97.942 99.8596 98.4471 99.4454 98.8024 98.914C99.1576 98.3826 99.3471 97.7578 99.3471 97.1186C99.3455 96.262 99.0044 95.441 98.3985 94.8353C97.7925 94.2296 96.9711 93.8887 96.1141 93.8871Z" fill="#E3E3E3"/>
        <path d="M139.753 97.4146H103.515C103.436 97.4146 103.361 97.3834 103.305 97.3279C103.25 97.2724 103.219 97.1972 103.219 97.1187C103.219 97.0402 103.25 96.965 103.305 96.9095C103.361 96.854 103.436 96.8228 103.515 96.8228H139.753C139.831 96.8228 139.907 96.854 139.962 96.9095C140.018 96.965 140.049 97.0402 140.049 97.1187C140.049 97.1972 140.018 97.2724 139.962 97.3279C139.907 97.3834 139.831 97.4146 139.753 97.4146Z" fill="#E3E3E3"/>
        <path d="M96.1142 115.241C95.3577 115.241 94.6182 115.017 93.9892 114.597C93.3601 114.177 92.8698 113.58 92.5803 112.881C92.2907 112.183 92.215 111.414 92.3626 110.672C92.5101 109.93 92.8745 109.249 93.4095 108.714C93.9444 108.18 94.626 107.816 95.368 107.668C96.11 107.521 96.8791 107.596 97.578 107.886C98.277 108.175 98.8745 108.665 99.2949 109.294C99.7152 109.923 99.9393 110.662 99.9393 111.418C99.9393 112.432 99.5363 113.405 98.819 114.122C98.1016 114.839 97.1287 115.241 96.1142 115.241ZM96.1142 108.192C95.4745 108.192 94.8494 108.382 94.3176 108.737C93.7858 109.093 93.3712 109.598 93.1267 110.189C92.8822 110.78 92.8185 111.43 92.9437 112.057C93.0689 112.684 93.3777 113.259 93.8304 113.711C94.2832 114.163 94.8596 114.47 95.4871 114.594C96.1146 114.718 96.7651 114.653 97.3557 114.408C97.9464 114.162 98.4508 113.747 98.8054 113.215C99.1599 112.683 99.3484 112.057 99.3472 111.418C99.3456 110.562 99.0044 109.742 98.3983 109.137C97.7921 108.532 96.9706 108.192 96.1142 108.192Z" fill="#E3E3E3"/>
        <path d="M147.048 111.714H103.515C103.436 111.714 103.361 111.683 103.305 111.627C103.25 111.572 103.219 111.496 103.219 111.418C103.22 111.34 103.252 111.266 103.307 111.21C103.362 111.155 103.437 111.124 103.515 111.122H147.048C147.126 111.122 147.201 111.153 147.257 111.209C147.313 111.264 147.344 111.34 147.344 111.418C147.344 111.496 147.313 111.572 147.257 111.627C147.201 111.683 147.126 111.714 147.048 111.714Z" fill="#E3E3E3"/>
        <path d="M162.887 111.714H155.64C155.561 111.714 155.486 111.683 155.43 111.627C155.375 111.572 155.344 111.496 155.344 111.418C155.344 111.34 155.375 111.264 155.43 111.209C155.486 111.153 155.561 111.122 155.64 111.122H162.887C162.966 111.122 163.041 111.153 163.097 111.209C163.152 111.264 163.183 111.34 163.183 111.418C163.183 111.496 163.152 111.572 163.097 111.627C163.041 111.683 162.966 111.714 162.887 111.714Z" fill="#E3E3E3"/>
        <path d="M217.178 124.895H195.737C195.659 124.893 195.585 124.862 195.53 124.807C195.475 124.751 195.443 124.677 195.441 124.599C195.441 124.52 195.473 124.445 195.528 124.39C195.584 124.334 195.659 124.303 195.737 124.303H217.178C217.257 124.303 217.332 124.334 217.388 124.39C217.443 124.445 217.474 124.52 217.474 124.599C217.474 124.677 217.443 124.753 217.388 124.808C217.332 124.864 217.257 124.895 217.178 124.895Z" fill="#E3E3E3"/>
        <path d="M96.1142 129.547C95.3577 129.547 94.6182 129.323 93.9892 128.902C93.3601 128.482 92.8698 127.885 92.5803 127.186C92.2907 126.488 92.215 125.719 92.3626 124.977C92.5101 124.236 92.8745 123.554 93.4095 123.02C93.9444 122.485 94.626 122.121 95.368 121.973C96.11 121.826 96.8791 121.902 97.578 122.191C98.277 122.48 98.8745 122.97 99.2949 123.599C99.7152 124.228 99.9393 124.967 99.9393 125.723C99.9393 126.737 99.5363 127.71 98.819 128.427C98.1016 129.144 97.1287 129.547 96.1142 129.547ZM96.1142 122.498C95.4745 122.498 94.8494 122.687 94.3176 123.043C93.7858 123.398 93.3712 123.903 93.1267 124.494C92.8822 125.085 92.8185 125.735 92.9437 126.362C93.0689 126.989 93.3777 127.565 93.8304 128.016C94.2832 128.468 94.8596 128.775 95.4871 128.899C96.1146 129.023 96.7651 128.959 97.3557 128.713C97.9464 128.468 98.4508 128.052 98.8054 127.52C99.1599 126.988 99.3484 126.363 99.3472 125.723C99.3456 124.867 99.0044 124.047 98.3983 123.442C97.7921 122.837 96.9706 122.498 96.1142 122.498Z" fill="#E3E3E3"/>
        <path d="M149.02 126.019H103.515C103.436 126.019 103.361 125.988 103.305 125.933C103.25 125.877 103.219 125.802 103.219 125.723C103.22 125.645 103.252 125.571 103.307 125.516C103.362 125.461 103.437 125.429 103.515 125.427H149.02C149.098 125.427 149.173 125.459 149.229 125.514C149.284 125.57 149.316 125.645 149.316 125.723C149.316 125.802 149.284 125.877 149.229 125.933C149.173 125.988 149.098 126.019 149.02 126.019Z" fill="#E3E3E3"/>
        <path d="M226.953 84.7373H195.156C192.684 84.7373 190.68 86.7406 190.68 89.2118V112.981C190.68 115.452 192.684 117.455 195.156 117.455H226.953C229.425 117.455 231.43 115.452 231.43 112.981V89.2118C231.43 86.7406 229.425 84.7373 226.953 84.7373Z" fill="#71A5D2"/>
        <path d="M223.627 115.827H189.284C188.019 115.826 186.806 115.323 185.911 114.428C185.017 113.534 184.513 112.322 184.512 111.057V85.4765C184.513 84.2118 185.017 82.9994 185.911 82.1051C186.806 81.2108 188.019 80.7077 189.284 80.7062H223.627C224.893 80.7077 226.106 81.2108 227 82.1051C227.895 82.9994 228.398 84.2118 228.4 85.4765V111.057C228.398 112.322 227.895 113.534 227 114.428C226.106 115.323 224.893 115.826 223.627 115.827ZM189.284 81.298C188.176 81.2996 187.114 81.7403 186.33 82.5236C185.546 83.3069 185.105 84.3688 185.104 85.4765V111.057C185.105 112.165 185.546 113.226 186.33 114.01C187.114 114.793 188.176 115.234 189.284 115.235H223.627C224.736 115.234 225.798 114.793 226.582 114.01C227.365 113.226 227.806 112.165 227.808 111.057V85.4765C227.806 84.3688 227.365 83.3069 226.582 82.5236C225.798 81.7403 224.736 81.2996 223.627 81.298H189.284Z" fill="#E3E3E3"/>
        <path d="M223.627 129.363H189.284C188.644 129.386 188.005 129.279 187.407 129.05C186.809 128.82 186.263 128.473 185.802 128.028C185.34 127.583 184.974 127.05 184.723 126.46C184.473 125.87 184.344 125.236 184.344 124.596C184.344 123.955 184.473 123.321 184.723 122.731C184.974 122.142 185.34 121.609 185.802 121.164C186.263 120.719 186.809 120.371 187.407 120.142C188.005 119.912 188.644 119.806 189.284 119.828H223.627C224.268 119.806 224.906 119.912 225.505 120.142C226.103 120.371 226.649 120.719 227.11 121.164C227.571 121.609 227.938 122.142 228.188 122.731C228.439 123.321 228.568 123.955 228.568 124.596C228.568 125.236 228.439 125.87 228.188 126.46C227.938 127.05 227.571 127.583 227.11 128.028C226.649 128.473 226.103 128.82 225.505 129.05C224.906 129.279 224.268 129.386 223.627 129.363ZM189.284 120.42C188.722 120.399 188.162 120.491 187.637 120.692C187.112 120.892 186.632 121.196 186.227 121.586C185.822 121.976 185.5 122.443 185.28 122.96C185.06 123.478 184.947 124.034 184.947 124.596C184.947 125.158 185.06 125.714 185.28 126.231C185.5 126.748 185.822 127.216 186.227 127.605C186.632 127.995 187.112 128.299 187.637 128.5C188.162 128.7 188.722 128.792 189.284 128.771H223.627C224.189 128.792 224.75 128.7 225.275 128.5C225.8 128.299 226.28 127.995 226.685 127.605C227.09 127.216 227.412 126.748 227.632 126.231C227.852 125.714 227.965 125.158 227.965 124.596C227.965 124.034 227.852 123.478 227.632 122.96C227.412 122.443 227.09 121.976 226.685 121.586C226.28 121.196 225.8 120.892 225.275 120.692C224.75 120.491 224.189 120.399 223.627 120.42H189.284Z" fill="#E3E3E3"/>
        <path d="M186.392 114.756C186.348 114.756 186.304 114.746 186.264 114.726C186.223 114.707 186.188 114.678 186.161 114.643C186.113 114.582 186.091 114.504 186.1 114.426C186.108 114.349 186.148 114.278 186.209 114.229L226.443 81.937C226.474 81.9125 226.508 81.8942 226.546 81.8832C226.583 81.8722 226.622 81.8686 226.661 81.8728C226.7 81.8769 226.738 81.8886 226.772 81.9072C226.806 81.9259 226.836 81.9511 226.861 81.9814C226.885 82.0117 226.903 82.0466 226.914 82.0839C226.925 82.1213 226.929 82.1604 226.925 82.1992C226.921 82.2379 226.909 82.2755 226.89 82.3097C226.872 82.3439 226.847 82.3742 226.816 82.3987L186.582 114.691C186.527 114.731 186.461 114.754 186.392 114.756Z" fill="#E3E3E3"/>
        <path d="M226.529 114.756C226.461 114.754 226.395 114.732 226.34 114.691L186.075 82.3989C186.045 82.3744 186.02 82.3442 186.001 82.31C185.982 82.2757 185.971 82.2382 185.967 82.1994C185.962 82.1607 185.966 82.1216 185.977 82.0842C185.988 82.0468 186.006 82.012 186.031 81.9817C186.055 81.9513 186.086 81.9261 186.12 81.9075C186.154 81.8888 186.191 81.8771 186.23 81.873C186.269 81.8689 186.308 81.8725 186.346 81.8835C186.383 81.8945 186.418 81.9127 186.448 81.9372L226.683 114.229C226.744 114.278 226.783 114.349 226.792 114.427C226.801 114.504 226.779 114.582 226.73 114.644C226.706 114.675 226.676 114.701 226.641 114.721C226.607 114.74 226.568 114.752 226.529 114.756Z" fill="#E3E3E3"/>
    </g>
    <defs>
        <clipPath id="clip0_6062_16202">
            <rect width="241" height="144" fill="white"/>
        </clipPath>
    </defs>
</svg>
