<svg width="272" height="110" viewBox="0 0 272 110" fill="none" xmlns="http://www.w3.org/2000/svg">
    <g clip-path="url(#clip0_6062_16427)">
        <path d="M169.368 56.3511C169.468 55.5504 169.853 54.8123 170.453 54.2715C171.053 53.7308 171.828 53.4235 172.636 53.4057C180.828 53.2191 203.681 53.5422 207.423 62.6953C211.99 73.8809 207.52 101.233 197.936 103.303C188.352 105.372 170.543 103.303 170.543 103.303C170.543 103.303 174.272 93.6664 169.722 88.6784C165.172 83.6903 157.647 77.7427 167.779 69.1461L169.368 56.3511Z" fill="#252525"/>
        <path d="M2.10088 88.7783C2.10088 88.7783 5.47583 62.2121 36.0571 47.7245C52.1472 40.1008 60.239 36.5888 64.2949 34.9695C64.6607 34.8225 65.0592 34.7763 65.449 34.8357C65.8387 34.8952 66.2052 35.0581 66.5103 35.3074C66.8153 35.5567 67.0477 35.8833 67.1829 36.2529C67.3182 36.6225 67.3515 37.0217 67.2793 37.4085C66.6717 40.574 66.408 45.1754 68.6145 49.1039C68.7755 49.3857 68.8721 49.6996 68.8974 50.023C68.9228 50.3465 68.8762 50.6714 68.761 50.9748C68.6459 51.2782 68.4651 51.5525 68.2314 51.778C67.9978 52.0035 67.7171 52.1747 67.4095 52.2793C59.4478 54.9449 37.4925 63.0584 37.803 71.1286C38.1802 80.9814 42.8837 107.481 34.6483 109.39C26.413 111.299 -4.16159 109.85 2.10088 88.7783Z" fill="#252525"/>
        <path d="M190.711 26.7726C190.711 26.7726 198.783 19.742 201.19 27.8089C203.596 35.8757 199.464 42.8796 198.055 44.8255C196.646 46.7714 197.454 48.8239 198.092 49.0005C198.092 49.0005 195.979 48.4241 195.772 43.8825C195.565 41.8067 197.708 39.9774 197.634 38.9411C197.561 37.9049 196.813 28.3253 190.711 26.7726Z" fill="#252525"/>
        <path d="M197.014 22.3944C200.456 22.3944 203.246 19.6092 203.246 16.1735C203.246 12.7378 200.456 9.95264 197.014 9.95264C193.572 9.95264 190.781 12.7378 190.781 16.1735C190.781 19.6092 193.572 22.3944 197.014 22.3944Z" fill="#252525"/>
        <path d="M175.301 28.882C175.301 28.882 178.215 14.6009 196.999 21.4282C215.783 28.2555 200.952 41.8969 200.952 41.8969C200.952 41.8969 198.692 33.127 197.897 31.7642C197.103 30.4014 187.522 28.5088 183.519 25.7166C179.517 22.9243 174.516 33.7234 175.301 28.882Z" fill="#252525"/>
        <path d="M192.945 51.7164C192.104 51.713 191.265 51.6539 190.432 51.5398C189.084 51.3571 187.755 51.0584 186.459 50.6469C180.567 48.7709 175.33 45.109 174.442 44.2927C172.986 42.9432 174.044 38.0385 174.088 37.8286C174.115 37.712 174.699 34.903 174.976 34.3732C174.996 34.3339 175.031 34.3043 175.074 34.2908C175.116 34.2774 175.162 34.2813 175.201 34.3016C175.24 34.3219 175.27 34.357 175.284 34.3992C175.297 34.4414 175.293 34.4872 175.273 34.5265C175.059 34.933 174.582 37.0989 174.415 37.8985C174.415 37.9485 173.353 42.8266 174.672 44.0494C175.537 44.8525 180.714 48.4711 186.556 50.3303C186.626 50.357 193.356 52.6061 197.505 50.4402C198.396 50.0115 199.238 49.4899 200.019 48.8842L200.082 48.8309L200.166 48.8509C200.336 48.8942 204.329 49.8505 205.764 45.4023C206.725 42.4201 206.826 40.4942 206.051 39.8278C205.527 39.378 204.569 39.4946 203.204 40.161L202.78 40.3742L202.98 39.9444C203.396 38.979 203.741 37.9846 204.011 36.9689C204.024 36.9264 204.053 36.8904 204.091 36.8686C204.13 36.8468 204.176 36.8409 204.218 36.8522C204.261 36.8639 204.297 36.8919 204.319 36.9299C204.341 36.968 204.347 37.0131 204.335 37.0555C204.094 37.9459 203.801 38.8215 203.457 39.6778C204.746 39.108 205.691 39.0714 206.268 39.5679C207.166 40.3409 207.103 42.3335 206.081 45.4956C204.666 49.8805 200.79 49.3107 200.169 49.1874C199.385 49.7823 198.544 50.299 197.659 50.7302C196.237 51.4799 194.531 51.7164 192.945 51.7164Z" fill="#E3E3E3"/>
        <path d="M205.798 32.4674C205.776 32.4666 205.754 32.4614 205.734 32.4522C205.715 32.4431 205.697 32.4301 205.682 32.414C205.667 32.3979 205.655 32.379 205.648 32.3584C205.64 32.3379 205.637 32.3161 205.638 32.2942C205.971 25.7434 202.446 21.655 195.142 20.1423C190.032 19.0827 185.815 18.8995 182.607 19.5925C182.586 19.5969 182.564 19.597 182.542 19.5929C182.521 19.5887 182.5 19.5803 182.482 19.5682C182.464 19.5562 182.448 19.5406 182.436 19.5225C182.423 19.5044 182.415 19.484 182.41 19.4626C182.406 19.4413 182.405 19.4193 182.409 19.3979C182.412 19.3764 182.42 19.3559 182.432 19.3376C182.444 19.3193 182.459 19.3034 182.478 19.2912C182.496 19.2789 182.516 19.2703 182.537 19.2659C185.789 18.5629 190.055 18.7495 195.222 19.8158C202.713 21.3652 206.332 25.5702 205.985 32.3108C205.984 32.3337 205.978 32.356 205.967 32.3764C205.957 32.3969 205.943 32.415 205.925 32.4297C205.908 32.4444 205.887 32.4553 205.866 32.4618C205.844 32.4683 205.821 32.4702 205.798 32.4674Z" fill="#E3E3E3"/>
        <path d="M175.617 33.3268C175.555 33.3274 175.494 33.3088 175.442 33.2736C175.391 33.2384 175.352 33.1884 175.33 33.1302L174.555 31.1076C174.35 30.5759 174.315 29.994 174.455 29.4416L175.554 25.1433C175.881 23.8319 176.576 22.6405 177.556 21.708C177.572 21.691 177.59 21.6773 177.611 21.6678C177.632 21.6583 177.655 21.6532 177.678 21.6529C177.701 21.6525 177.724 21.6569 177.745 21.6657C177.766 21.6745 177.785 21.6876 177.801 21.7042C177.817 21.7207 177.829 21.7404 177.837 21.7619C177.845 21.7834 177.848 21.8063 177.847 21.8291C177.846 21.852 177.84 21.8743 177.829 21.8948C177.819 21.9152 177.804 21.9333 177.787 21.9479C176.85 22.8352 176.191 23.9738 175.887 25.2266L174.789 29.5249C174.665 30.013 174.696 30.5274 174.876 30.9977L175.62 32.9402C176.258 30.5745 177.88 25.23 179.686 24.7202C180.491 24.4936 182.116 25.2466 184.58 26.3862C187.498 27.719 191.49 29.5815 195.893 30.5112C195.915 30.5155 195.935 30.5241 195.953 30.5364C195.971 30.5487 195.986 30.5645 195.998 30.5828C196.01 30.6012 196.018 30.6217 196.022 30.6431C196.025 30.6646 196.025 30.6866 196.02 30.7078C196.016 30.7292 196.007 30.7496 195.995 30.7678C195.983 30.7859 195.967 30.8014 195.948 30.8135C195.93 30.8255 195.91 30.834 195.888 30.8381C195.867 30.8423 195.845 30.8422 195.823 30.8378C191.383 29.8982 187.371 28.0422 184.44 26.686C182.217 25.6598 180.464 24.8468 179.766 25.0434C178.411 25.4232 176.885 29.4583 175.914 33.1068C175.897 33.1693 175.861 33.2248 175.811 33.2655C175.76 33.3062 175.698 33.3301 175.634 33.3335L175.617 33.3268Z" fill="#E3E3E3"/>
        <path d="M197.213 49.2071L196.783 48.8039C196.693 48.7173 194.606 46.6481 197.307 40.3572C197.03 39.8074 195.27 36.1422 195.167 32.6369C195.166 32.6151 195.17 32.5932 195.177 32.5727C195.185 32.5521 195.196 32.5332 195.211 32.5171C195.226 32.501 195.244 32.4881 195.264 32.4789C195.284 32.4697 195.305 32.4645 195.327 32.4637C195.35 32.4623 195.372 32.4655 195.393 32.4731C195.414 32.4807 195.433 32.4925 195.449 32.5078C195.466 32.5231 195.479 32.5415 195.487 32.562C195.496 32.5825 195.501 32.6046 195.501 32.6269C195.608 36.3388 197.617 40.2373 197.637 40.2906L197.674 40.3605L197.644 40.4338C195.935 44.3823 196.165 46.6214 196.546 47.7143C196.426 46.9059 196.465 46.0818 196.663 45.2886C196.763 44.9554 197.11 44.5722 197.59 44.0491C199.336 42.1465 202.965 38.1914 200.595 28.6585C199.87 25.7297 198.675 23.9936 197.046 23.5172C194.646 22.8041 191.769 24.85 189.779 26.7159C189.764 26.7314 189.746 26.7438 189.726 26.7522C189.706 26.7606 189.684 26.7649 189.662 26.7649C189.641 26.7649 189.619 26.7606 189.599 26.7522C189.579 26.7438 189.561 26.7314 189.545 26.7159C189.53 26.7004 189.517 26.6821 189.509 26.6618C189.5 26.6414 189.496 26.6196 189.496 26.5976C189.496 26.5757 189.5 26.5538 189.509 26.5335C189.517 26.5132 189.53 26.4949 189.545 26.4794C191.598 24.5668 194.579 22.4476 197.133 23.204C198.886 23.7238 200.138 25.5364 200.912 28.5852C203.319 38.2914 199.607 42.3364 197.824 44.279C197.478 44.5978 197.189 44.9731 196.97 45.3886C196.556 46.8047 197.04 48.6407 197.046 48.6573L197.213 49.2071Z" fill="#E3E3E3"/>
        <path d="M182.364 36.6026L176.195 33.5605H176.93C177.901 33.5807 178.855 33.8138 179.726 34.2434C180.596 34.673 181.362 35.2885 181.967 36.0462L182.364 36.6026ZM177.791 33.977L181.082 35.5997C180.168 34.7494 179.023 34.1853 177.791 33.977Z" fill="#E3E3E3"/>
        <path d="M195.858 40.4505L186.32 38.0248L187.168 37.9082C190.021 37.5765 192.895 38.3086 195.24 39.964L195.858 40.4505ZM188.18 38.1548L194.188 39.6841C192.369 38.6287 190.29 38.0992 188.186 38.1548H188.18Z" fill="#E3E3E3"/>
        <path d="M183.448 34.3967L183.114 34.29C177.239 32.3475 177.172 32.1842 177.136 32.0942L177.105 32.0209L177.142 31.9476C177.182 31.8743 177.246 31.7544 178.18 31.7544C177.58 31.2579 177.643 31.1613 177.706 31.0647L177.763 30.978H177.883C178.167 31.0113 183.021 33.2238 183.325 34.0635L183.448 34.3967ZM177.823 32.0975C178.718 32.4507 180.858 33.1838 182.547 33.747C181.25 32.9239 179.896 32.1956 178.494 31.5678C178.591 31.6444 178.688 31.7244 178.785 31.7944L179.205 32.1276L178.678 32.1109C178.391 32.0842 178.074 32.0875 177.823 32.0975Z" fill="#E3E3E3"/>
        <path d="M196.032 36.8119H196.002C191.178 35.9422 187.74 35.5923 187.242 35.9255C187.206 35.9496 187.161 35.9583 187.118 35.9495C187.074 35.9408 187.036 35.9154 187.012 35.8789C186.988 35.8417 186.979 35.7964 186.988 35.7527C186.996 35.7091 187.022 35.6707 187.059 35.6457C187.867 35.1092 193.044 35.9422 196.072 36.4854C196.094 36.4871 196.115 36.4931 196.135 36.5031C196.154 36.5131 196.172 36.5268 196.186 36.5435C196.2 36.5602 196.211 36.5796 196.218 36.6005C196.225 36.6214 196.227 36.6434 196.225 36.6653C196.224 36.6872 196.218 36.7085 196.208 36.728C196.198 36.7476 196.184 36.765 196.167 36.7792C196.15 36.7934 196.131 36.8042 196.11 36.811C196.089 36.8178 196.067 36.8203 196.045 36.8186L196.032 36.8119Z" fill="#E3E3E3"/>
        <path d="M195.876 38.3016C195.602 38.3016 194.504 37.9984 189.333 36.559C188.208 36.2458 187.234 35.9725 187.12 35.9459C187.076 35.9459 187.033 35.9283 187.002 35.8971C186.971 35.8658 186.953 35.8235 186.953 35.7793C186.953 35.7351 186.971 35.6927 187.002 35.6615C187.033 35.6302 187.076 35.6127 187.12 35.6127H187.163H187.203C187.277 35.6293 188.018 35.8359 189.433 36.2291C191.276 36.7423 194.107 37.5286 195.305 37.8484C195.075 37.6419 194.781 37.3887 194.501 37.1488L194.204 36.8989L196.096 36.7022C196.14 36.6976 196.184 36.7103 196.218 36.7378C196.253 36.7653 196.275 36.8052 196.28 36.8488C196.283 36.8706 196.281 36.8927 196.275 36.9138C196.269 36.9348 196.259 36.9545 196.246 36.9716C196.232 36.9887 196.215 37.0028 196.196 37.0132C196.176 37.0236 196.155 37.0301 196.133 37.0321L195.015 37.1488C196.106 38.0817 196.086 38.1084 195.996 38.245C195.98 38.2817 195.95 38.3016 195.876 38.3016Z" fill="#E3E3E3"/>
        <path d="M205.442 22.2181C205.406 22.218 205.371 22.2075 205.342 22.188C205.306 22.1615 205.283 22.1221 205.277 22.0784C205.27 22.0346 205.282 21.9902 205.308 21.9548C205.537 21.6372 205.743 21.303 205.923 20.9552C206.455 19.9241 206.742 18.7845 206.762 17.6246C206.783 16.4648 206.535 15.316 206.038 14.2672C205.542 13.2184 204.81 12.2978 203.899 11.5768C202.989 10.8559 201.924 10.3539 200.788 10.1098C199.652 9.8657 198.475 9.88608 197.348 10.1693C196.221 10.4526 195.175 10.9911 194.29 11.7431C193.405 12.4951 192.705 13.4406 192.246 14.5059C191.786 15.5713 191.578 16.728 191.638 17.8864C191.64 17.9083 191.637 17.9303 191.63 17.951C191.622 17.9717 191.611 17.9908 191.597 18.0072C191.582 18.0236 191.564 18.037 191.545 18.0466C191.525 18.0562 191.503 18.0618 191.482 18.063C191.459 18.0653 191.437 18.0631 191.416 18.0563C191.395 18.0495 191.375 18.0384 191.358 18.0237C191.342 18.0089 191.328 17.9909 191.319 17.9707C191.31 17.9505 191.305 17.9286 191.305 17.9064C191.239 16.6955 191.454 15.4858 191.932 14.3712C192.411 13.2566 193.141 12.2673 194.065 11.48C194.989 10.6928 196.083 10.1289 197.261 9.83206C198.439 9.53527 199.669 9.51353 200.857 9.76869C202.045 10.0239 203.158 10.549 204.109 11.3032C205.06 12.0575 205.825 13.0205 206.342 14.1176C206.86 15.2146 207.118 16.4161 207.095 17.6286C207.072 18.841 206.769 20.0318 206.21 21.1085C206.023 21.4704 205.807 21.8169 205.565 22.1448C205.551 22.1652 205.533 22.1824 205.512 22.195C205.49 22.2077 205.467 22.2156 205.442 22.2181Z" fill="#E3E3E3"/>
        <path d="M201.59 45.9054C201.57 45.9085 201.55 45.9085 201.53 45.9054C201.49 45.8884 201.457 45.8563 201.44 45.8159C201.422 45.7755 201.421 45.7299 201.437 45.6888C201.5 45.5288 203.009 41.737 205.025 41.1306C205.067 41.1181 205.113 41.1226 205.151 41.1432C205.19 41.1638 205.219 41.1988 205.232 41.2406C205.245 41.283 205.24 41.3286 205.22 41.3678C205.199 41.407 205.164 41.4367 205.122 41.4505C203.259 42.0102 201.761 45.7821 201.747 45.8121C201.732 45.8407 201.71 45.8645 201.682 45.881C201.654 45.8975 201.623 45.9059 201.59 45.9054Z" fill="#E3E3E3"/>
        <path d="M181.711 39.8774C181.711 39.8774 181.187 41.3069 183.38 41.91C183.397 41.9 181.958 41.0503 181.711 39.8774Z" fill="#E3E3E3"/>
        <path d="M185.814 46.1254H185.777C182.966 45.5289 179.041 43.2565 179 43.2332C178.962 43.2103 178.935 43.1734 178.923 43.1305C178.912 43.0875 178.918 43.0418 178.94 43.0032C178.951 42.9842 178.966 42.9675 178.983 42.9541C179 42.9407 179.02 42.931 179.041 42.9254C179.062 42.9198 179.084 42.9185 179.106 42.9215C179.128 42.9246 179.149 42.932 179.167 42.9433C179.207 42.9666 183.09 45.2157 185.844 45.7988C185.866 45.801 185.887 45.8075 185.906 45.8179C185.926 45.8283 185.943 45.8424 185.957 45.8594C185.971 45.8765 185.981 45.896 185.988 45.917C185.994 45.9381 185.996 45.9602 185.994 45.9821C185.992 46.004 185.985 46.0252 185.975 46.0446C185.965 46.064 185.95 46.0811 185.933 46.095C185.916 46.1089 185.897 46.1193 185.876 46.1257C185.854 46.132 185.832 46.1342 185.81 46.132L185.814 46.1254Z" fill="#E3E3E3"/>
        <path d="M202.532 21.8247C202.532 21.8247 201.942 18.6593 196.961 18.8625C196.961 18.8625 200.967 19.8855 202.532 21.8247Z" fill="#E3E3E3"/>
        <path d="M182.853 47.2079H182.813C181.953 46.9255 181.127 46.5501 180.349 46.0883C180.33 46.0776 180.313 46.0632 180.3 46.046C180.286 46.0287 180.277 46.0089 180.271 45.9878C180.265 45.9667 180.264 45.9446 180.267 45.923C180.27 45.9013 180.278 45.8805 180.289 45.8618C180.312 45.8237 180.349 45.7961 180.392 45.7849C180.435 45.7737 180.481 45.7798 180.519 45.8018C181.269 46.2467 182.065 46.6097 182.893 46.8847C182.936 46.8958 182.973 46.9232 182.996 46.9612C183.019 46.9992 183.026 47.0447 183.016 47.0879C183.006 47.1231 182.984 47.154 182.955 47.1756C182.925 47.1973 182.889 47.2087 182.853 47.2079Z" fill="#E3E3E3"/>
        <path d="M197.668 104.826H167.29V93.0503C167.29 93.0061 167.308 92.9637 167.339 92.9325C167.37 92.9012 167.413 92.8837 167.457 92.8837C167.501 92.8837 167.544 92.9012 167.575 92.9325C167.606 92.9637 167.624 93.0061 167.624 93.0503V104.492H197.668C198.174 104.492 198.66 104.292 199.019 103.934C199.378 103.577 199.58 103.092 199.581 102.586V101.09C199.581 100.688 199.69 100.293 199.896 99.9471C200.103 99.6012 200.398 99.3171 200.752 99.1246C205.573 96.4956 208.644 92.5671 209.886 87.4625C212.069 78.466 208.056 67.0738 203.112 59.77C196.025 49.3075 171.79 53.7157 171.546 53.7724L167.607 54.732V62.8055C167.606 62.8494 167.589 62.8913 167.557 62.9223C167.526 62.9534 167.484 62.9713 167.44 62.9721C167.396 62.9721 167.354 62.9546 167.322 62.9233C167.291 62.8921 167.273 62.8497 167.273 62.8055V54.4755L171.476 53.4492C171.73 53.3992 196.179 48.9509 203.386 59.5967C208.373 66.9605 212.419 78.4627 210.209 87.5524C208.944 92.7637 205.816 96.7621 200.916 99.4411C200.615 99.6042 200.363 99.8447 200.187 100.138C200.011 100.431 199.917 100.765 199.914 101.107V102.603C199.908 103.194 199.669 103.759 199.248 104.175C198.828 104.591 198.26 104.825 197.668 104.826Z" fill="#E3E3E3"/>
        <path d="M183.294 63.0851L181.675 54.5851C181.667 54.5418 181.676 54.4973 181.701 54.4611C181.726 54.4248 181.765 54.4 181.808 54.3919C181.83 54.3876 181.852 54.3876 181.873 54.392C181.895 54.3964 181.915 54.4051 181.933 54.4175C181.951 54.43 181.967 54.4459 181.978 54.4644C181.99 54.4829 181.998 54.5035 182.002 54.5252L183.517 62.4821L191.068 56.5644C191.103 56.537 191.148 56.5246 191.192 56.5299C191.236 56.5352 191.276 56.5578 191.304 56.5927C191.331 56.6276 191.343 56.672 191.338 56.716C191.333 56.7601 191.31 56.8002 191.275 56.8276L183.294 63.0851Z" fill="#E3E3E3"/>
        <path d="M197.016 100.834C192.244 100.452 187.536 99.4906 182.996 97.972C175.986 95.6395 166.455 90.9147 160.877 81.645L160.844 81.595V81.5317C160.844 81.4418 162.513 72.2221 170.962 67.7072L171.049 67.6572L171.135 67.7138L195.227 84.1274C195.246 84.1398 195.261 84.1556 195.273 84.1741C195.285 84.1925 195.294 84.2132 195.298 84.2349C195.302 84.2566 195.302 84.2789 195.297 84.3005C195.292 84.3221 195.283 84.3425 195.271 84.3606C195.259 84.3788 195.243 84.3944 195.225 84.4064C195.207 84.4185 195.186 84.4268 195.165 84.4308C195.143 84.4349 195.121 84.4345 195.1 84.4299C195.078 84.4253 195.058 84.4164 195.04 84.4039L171.029 68.047C163.154 72.312 161.348 80.7354 161.184 81.5284C171.783 99.0781 196.766 100.501 197.02 100.521C197.064 100.521 197.107 100.538 197.138 100.57C197.169 100.601 197.187 100.643 197.187 100.688C197.187 100.732 197.169 100.774 197.138 100.805C197.107 100.837 197.064 100.854 197.02 100.854L197.016 100.834Z" fill="#E3E3E3"/>
        <path d="M161.865 78.7953C161.829 78.7956 161.794 78.7838 161.765 78.762C161.488 78.5587 154.982 73.7106 154.291 71.9213C154.187 71.6848 154.134 71.4296 154.134 71.1716C154.134 70.9136 154.187 70.6584 154.291 70.4219C154.544 69.9369 154.955 69.5517 155.456 69.329C155.367 69.08 155.373 68.8076 155.472 68.5627C155.729 67.9163 156.561 67.4997 156.898 67.3531C156.851 67.1866 156.838 67.0125 156.859 66.8409C156.88 66.6694 156.935 66.5037 157.021 66.3535C157.355 65.7671 158.103 65.4605 158.527 65.3272C157.345 64.271 152.949 60.2126 153.586 58.6632C153.77 58.2134 154.317 57.9968 155.209 58.0568C160.109 58.33 170.117 67.6764 170.541 68.0729C170.573 68.1034 170.592 68.1454 170.593 68.1898C170.595 68.2341 170.578 68.2772 170.548 68.3094C170.517 68.3417 170.475 68.3605 170.431 68.3618C170.386 68.363 170.343 68.3466 170.311 68.3161C170.207 68.2195 159.962 58.6532 155.189 58.39C154.458 58.3534 154.02 58.4833 153.897 58.7865C153.386 60.0427 157.392 63.9112 158.981 65.294L159.235 65.5138L158.901 65.5838C158.901 65.5838 157.702 65.8371 157.308 66.5335C157.235 66.6648 157.193 66.811 157.184 66.9609C157.176 67.1109 157.201 67.2609 157.258 67.3998L157.312 67.5564L157.158 67.613C157.158 67.613 156.043 68.0262 155.779 68.6926C155.736 68.7998 155.717 68.9154 155.725 69.0308C155.732 69.1461 155.766 69.2583 155.823 69.359L155.906 69.5256L155.729 69.5889C155.244 69.7774 154.84 70.1315 154.591 70.5885C154.507 70.7843 154.463 70.9952 154.463 71.2083C154.463 71.4214 154.507 71.6322 154.591 71.828C155.259 73.5273 161.888 78.4721 161.955 78.5221C161.991 78.5486 162.014 78.5881 162.02 78.6318C162.027 78.6755 162.015 78.7199 161.989 78.7553C161.954 78.7844 161.91 78.7988 161.865 78.7953Z" fill="#E3E3E3"/>
        <path d="M263.119 105.538H227.327C227.283 105.538 227.24 105.521 227.209 105.489C227.178 105.458 227.16 105.416 227.16 105.372C227.161 105.328 227.179 105.286 227.21 105.255C227.241 105.224 227.283 105.206 227.327 105.205H263.119C263.163 105.206 263.205 105.224 263.236 105.255C263.267 105.286 263.285 105.328 263.286 105.372C263.286 105.416 263.269 105.458 263.237 105.489C263.206 105.521 263.164 105.538 263.119 105.538Z" fill="#E3E3E3"/>
        <path d="M246.386 105.538C246.341 105.538 246.299 105.52 246.268 105.489C246.236 105.458 246.219 105.415 246.219 105.371V93.8258C246.219 93.7816 246.236 93.7392 246.268 93.708C246.299 93.6767 246.341 93.6592 246.386 93.6592C246.43 93.6592 246.472 93.6767 246.504 93.708C246.535 93.7392 246.553 93.7816 246.553 93.8258V105.371C246.553 105.415 246.535 105.458 246.504 105.489C246.472 105.52 246.43 105.538 246.386 105.538Z" fill="#E3E3E3"/>
        <path d="M267.206 80.1315H223.242C221.971 80.1307 220.752 79.6264 219.852 78.7293C218.953 77.8323 218.447 76.6158 218.445 75.3467V70.7286C218.447 69.4592 218.953 68.2424 219.852 67.3448C220.751 66.4473 221.971 65.9422 223.242 65.9404H267.206C268.478 65.9422 269.697 66.4473 270.596 67.3448C271.496 68.2424 272.002 69.4592 272.003 70.7286V75.3467C272.002 76.6158 271.496 77.8323 270.596 78.7293C269.697 79.6264 268.478 80.1307 267.206 80.1315ZM223.242 66.2736C222.059 66.2754 220.925 66.7453 220.088 67.5804C219.252 68.4155 218.781 69.5476 218.779 70.7286V75.3467C218.781 76.5274 219.252 77.6591 220.088 78.4937C220.925 79.3282 222.059 79.7975 223.242 79.7983H267.206C268.389 79.7975 269.523 79.3282 270.36 78.4937C271.197 77.6591 271.668 76.5274 271.67 75.3467V70.7286C271.668 69.5476 271.197 68.4155 270.36 67.5804C269.524 66.7453 268.39 66.2754 267.206 66.2736H223.242Z" fill="#E3E3E3"/>
        <path d="M228.447 73.7808C228.299 73.7808 228.154 73.737 228.031 73.6548C227.908 73.5727 227.812 73.4559 227.756 73.3194C227.699 73.1828 227.685 73.0325 227.714 72.8876C227.743 72.7428 227.815 72.6098 227.919 72.5056C228.024 72.4013 228.158 72.3304 228.303 72.302C228.448 72.2736 228.599 72.2889 228.735 72.3459C228.872 72.4029 228.989 72.499 229.07 72.6222C229.152 72.7454 229.195 72.8901 229.195 73.0378C229.195 73.1357 229.175 73.2326 229.138 73.3229C229.1 73.4133 229.045 73.4953 228.975 73.5644C228.906 73.6334 228.824 73.6881 228.733 73.7253C228.642 73.7624 228.545 73.7813 228.447 73.7808ZM228.447 72.6246C228.365 72.6246 228.285 72.6489 228.217 72.6943C228.149 72.7397 228.096 72.8042 228.065 72.8797C228.033 72.9552 228.025 73.0383 228.041 73.1184C228.057 73.1986 228.096 73.2722 228.154 73.3299C228.212 73.3877 228.286 73.4271 228.366 73.443C228.446 73.4589 228.53 73.4508 228.605 73.4195C228.681 73.3882 228.746 73.3353 228.791 73.2674C228.837 73.1994 228.861 73.1195 228.861 73.0378C228.861 72.9282 228.817 72.8231 228.74 72.7456C228.662 72.6681 228.557 72.6246 228.447 72.6246Z" fill="#E3E3E3"/>
        <path d="M236.545 73.7808C236.397 73.7808 236.252 73.737 236.129 73.6548C236.006 73.5727 235.91 73.4559 235.853 73.3194C235.797 73.1828 235.782 73.0325 235.811 72.8876C235.841 72.7428 235.912 72.6098 236.017 72.5056C236.122 72.4013 236.256 72.3304 236.401 72.302C236.546 72.2736 236.697 72.2889 236.833 72.3459C236.97 72.4029 237.086 72.499 237.168 72.6222C237.25 72.7454 237.293 72.8901 237.292 73.0378C237.292 73.1357 237.273 73.2326 237.235 73.3229C237.198 73.4133 237.143 73.4953 237.073 73.5644C237.004 73.6334 236.921 73.6881 236.831 73.7253C236.74 73.7624 236.643 73.7813 236.545 73.7808ZM236.545 72.6246C236.463 72.6246 236.383 72.6489 236.315 72.6943C236.247 72.7397 236.194 72.8042 236.162 72.8797C236.131 72.9552 236.123 73.0383 236.139 73.1184C236.155 73.1986 236.194 73.2722 236.252 73.3299C236.31 73.3877 236.384 73.4271 236.464 73.443C236.544 73.4589 236.627 73.4508 236.703 73.4195C236.779 73.3882 236.843 73.3353 236.889 73.2674C236.934 73.1994 236.959 73.1195 236.959 73.0378C236.959 72.9282 236.915 72.8231 236.837 72.7456C236.76 72.6681 236.654 72.6246 236.545 72.6246Z" fill="#E3E3E3"/>
        <path d="M267.206 66.2737H223.242C221.971 66.2728 220.752 65.7685 219.852 64.8715C218.953 63.9745 218.447 62.758 218.445 61.489V56.8708C218.447 55.6017 218.953 54.3852 219.852 53.4881C220.752 52.5911 221.971 52.0868 223.242 52.0859H267.206C268.478 52.0868 269.697 52.5911 270.596 53.4881C271.496 54.3852 272.002 55.6017 272.003 56.8708V61.4923C272.001 62.7608 271.494 63.9764 270.595 64.8727C269.696 65.769 268.477 66.2728 267.206 66.2737ZM223.242 52.4158C222.059 52.4176 220.925 52.8875 220.088 53.7226C219.252 54.5577 218.781 55.6898 218.779 56.8708V61.4923C218.781 62.673 219.252 63.8047 220.088 64.6393C220.925 65.4738 222.059 65.943 223.242 65.9438H267.206C268.389 65.943 269.523 65.4738 270.36 64.6393C271.197 63.8047 271.668 62.673 271.67 61.4923V56.8708C271.667 55.6904 271.196 54.5591 270.359 53.7248C269.523 52.8904 268.389 52.4209 267.206 52.4191L223.242 52.4158Z" fill="#E3E3E3"/>
        <path d="M228.447 59.9234C228.299 59.9234 228.154 59.8795 228.031 59.7973C227.908 59.7152 227.812 59.5984 227.756 59.4619C227.699 59.3253 227.685 59.175 227.714 59.0301C227.743 58.8853 227.815 58.7523 227.919 58.6481C228.024 58.5438 228.158 58.473 228.303 58.4446C228.448 58.4162 228.599 58.4314 228.735 58.4884C228.872 58.5454 228.989 58.6416 229.07 58.7648C229.152 58.888 229.195 59.0326 229.195 59.1803C229.195 59.2782 229.175 59.3751 229.138 59.4654C229.1 59.5558 229.045 59.6379 228.975 59.707C228.906 59.776 228.824 59.8307 228.733 59.8678C228.642 59.9049 228.545 59.9238 228.447 59.9234ZM228.447 58.7671C228.365 58.7671 228.285 58.7914 228.217 58.8368C228.149 58.8822 228.096 58.9468 228.065 59.0223C228.033 59.0978 228.025 59.1808 228.041 59.2609C228.057 59.3411 228.096 59.4147 228.154 59.4725C228.212 59.5303 228.286 59.5697 228.366 59.5856C228.446 59.6015 228.53 59.5934 228.605 59.5621C228.681 59.5308 228.746 59.4778 228.791 59.4099C228.837 59.3419 228.861 59.262 228.861 59.1803C228.861 59.0707 228.817 58.9657 228.74 58.8882C228.662 58.8107 228.557 58.7671 228.447 58.7671Z" fill="#E3E3E3"/>
        <path d="M236.545 59.9234C236.397 59.9234 236.252 59.8795 236.129 59.7973C236.006 59.7152 235.91 59.5984 235.853 59.4619C235.797 59.3253 235.782 59.175 235.811 59.0301C235.841 58.8853 235.912 58.7523 236.017 58.6481C236.122 58.5438 236.256 58.473 236.401 58.4446C236.546 58.4162 236.697 58.4314 236.833 58.4884C236.97 58.5454 237.086 58.6416 237.168 58.7648C237.25 58.888 237.293 59.0326 237.292 59.1803C237.292 59.2782 237.273 59.3751 237.235 59.4654C237.198 59.5558 237.143 59.6379 237.073 59.707C237.004 59.776 236.921 59.8307 236.831 59.8678C236.74 59.9049 236.643 59.9238 236.545 59.9234ZM236.545 58.7671C236.463 58.7671 236.383 58.7914 236.315 58.8368C236.247 58.8822 236.194 58.9468 236.162 59.0223C236.131 59.0978 236.123 59.1808 236.139 59.2609C236.155 59.3411 236.194 59.4147 236.252 59.4725C236.31 59.5303 236.384 59.5697 236.464 59.5856C236.544 59.6015 236.627 59.5934 236.703 59.5621C236.779 59.5308 236.843 59.4778 236.889 59.4099C236.934 59.3419 236.959 59.262 236.959 59.1803C236.959 59.0707 236.915 58.9657 236.837 58.8882C236.76 58.8107 236.654 58.7671 236.545 58.7671Z" fill="#E3E3E3"/>
        <path d="M267.206 52.4162H223.242C221.971 52.4154 220.752 51.9111 219.852 51.014C218.953 50.117 218.447 48.9005 218.445 47.6315V43.01C218.447 41.7409 218.953 40.5245 219.852 39.6274C220.752 38.7304 221.971 38.2261 223.242 38.2252H267.206C268.478 38.2261 269.697 38.7304 270.596 39.6274C271.496 40.5245 272.002 41.7409 272.003 43.01V47.6315C272.002 48.9005 271.496 50.117 270.596 51.014C269.697 51.9111 268.478 52.4154 267.206 52.4162ZM223.242 38.5451C222.059 38.546 220.925 39.0151 220.088 39.8497C219.252 40.6842 218.781 41.816 218.779 42.9967V47.6182C218.782 48.7986 219.253 49.9298 220.089 50.7641C220.926 51.5985 222.06 52.068 223.242 52.0698H267.206C268.389 52.068 269.523 51.5985 270.359 50.7641C271.196 49.9298 271.667 48.7986 271.67 47.6182V43.01C271.668 41.8293 271.197 40.6975 270.36 39.863C269.523 39.0285 268.389 38.5593 267.206 38.5584L223.242 38.5451Z" fill="#E3E3E3"/>
        <path d="M228.447 46.065C228.299 46.065 228.155 46.0212 228.032 45.9392C227.909 45.8572 227.813 45.7407 227.756 45.6043C227.7 45.4679 227.685 45.3178 227.714 45.173C227.742 45.0283 227.814 44.8953 227.918 44.7909C228.023 44.6865 228.156 44.6154 228.301 44.5866C228.446 44.5578 228.596 44.5726 228.733 44.6291C228.87 44.6856 228.987 44.7812 229.069 44.9039C229.151 45.0267 229.195 45.171 229.195 45.3187C229.195 45.4168 229.176 45.514 229.139 45.6048C229.101 45.6955 229.046 45.778 228.977 45.8474C228.907 45.9168 228.825 45.9717 228.734 46.0091C228.643 46.0464 228.545 46.0655 228.447 46.065ZM228.447 44.9088C228.344 44.9181 228.248 44.9654 228.179 45.0416C228.109 45.1177 228.07 45.2171 228.07 45.3203C228.07 45.4235 228.109 45.5229 228.179 45.5991C228.248 45.6752 228.344 45.7226 228.447 45.7318C228.504 45.737 228.562 45.7302 228.616 45.7118C228.671 45.6935 228.721 45.664 228.763 45.6253C228.806 45.5866 228.84 45.5395 228.863 45.487C228.886 45.4345 228.898 45.3777 228.898 45.3203C228.898 45.2629 228.886 45.2062 228.863 45.1537C228.84 45.1012 228.806 45.054 228.763 45.0153C228.721 44.9766 228.671 44.9472 228.616 44.9288C228.562 44.9105 228.504 44.9037 228.447 44.9088Z" fill="#E3E3E3"/>
        <path d="M236.545 46.065C236.397 46.065 236.252 46.0212 236.129 45.9392C236.006 45.8572 235.91 45.7407 235.854 45.6043C235.797 45.4679 235.782 45.3178 235.811 45.173C235.84 45.0283 235.911 44.8953 236.016 44.7909C236.12 44.6865 236.254 44.6154 236.399 44.5866C236.544 44.5578 236.694 44.5726 236.831 44.6291C236.967 44.6856 237.084 44.7812 237.166 44.9039C237.249 45.0267 237.292 45.171 237.292 45.3187C237.293 45.4168 237.274 45.514 237.236 45.6048C237.199 45.6955 237.144 45.778 237.074 45.8474C237.005 45.9168 236.922 45.9717 236.831 46.0091C236.74 46.0464 236.643 46.0655 236.545 46.065ZM236.545 44.9088C236.442 44.9181 236.346 44.9654 236.276 45.0416C236.206 45.1177 236.168 45.2171 236.168 45.3203C236.168 45.4235 236.206 45.5229 236.276 45.5991C236.346 45.6752 236.442 45.7226 236.545 45.7318C236.602 45.737 236.66 45.7302 236.714 45.7118C236.769 45.6935 236.819 45.664 236.861 45.6253C236.903 45.5866 236.937 45.5395 236.961 45.487C236.984 45.4345 236.996 45.3777 236.996 45.3203C236.996 45.2629 236.984 45.2062 236.961 45.1537C236.937 45.1012 236.903 45.054 236.861 45.0153C236.819 44.9766 236.769 44.9472 236.714 44.9288C236.66 44.9105 236.602 44.9037 236.545 44.9088Z" fill="#E3E3E3"/>
        <path d="M267.206 93.9929H223.242C222.611 93.992 221.987 93.8671 221.405 93.6253C220.822 93.3836 220.293 93.0297 219.848 92.5838C219.402 92.138 219.049 91.6089 218.808 91.0268C218.568 90.4448 218.444 89.8211 218.445 89.1914V84.5732C218.447 83.3039 218.953 82.087 219.852 81.1895C220.752 80.2919 221.971 79.7869 223.242 79.7852H267.206C268.478 79.7869 269.697 80.2919 270.596 81.1895C271.496 82.087 272.002 83.3039 272.003 84.5732V89.1914C272.004 89.8211 271.881 90.4448 271.64 91.0268C271.4 91.6089 271.047 92.138 270.601 92.5838C270.156 93.0297 269.627 93.3836 269.044 93.6253C268.462 93.8671 267.837 93.992 267.206 93.9929ZM223.242 80.1317C222.059 80.1335 220.925 80.6034 220.088 81.4385C219.252 82.2736 218.781 83.4056 218.779 84.5866V89.1914C218.781 90.3724 219.252 91.5045 220.088 92.3396C220.925 93.1747 222.059 93.6446 223.242 93.6464H267.206C268.39 93.6446 269.524 93.1747 270.36 92.3396C271.197 91.5045 271.668 90.3724 271.67 89.1914V84.5732C271.668 83.3923 271.197 82.2602 270.36 81.4251C269.524 80.5901 268.39 80.1201 267.206 80.1184L223.242 80.1317Z" fill="#E3E3E3"/>
        <path d="M228.444 87.6385C228.297 87.6378 228.153 87.5936 228.032 87.5115C227.91 87.4295 227.815 87.3133 227.759 87.1775C227.703 87.0416 227.689 86.8923 227.718 86.7484C227.747 86.6045 227.818 86.4724 227.922 86.3688C228.027 86.2652 228.159 86.1948 228.304 86.1664C228.448 86.138 228.597 86.1529 228.733 86.2092C228.869 86.2656 228.985 86.3608 229.067 86.4829C229.148 86.605 229.192 86.7486 229.192 86.8954C229.192 86.9933 229.173 87.0902 229.135 87.1805C229.097 87.2709 229.042 87.3529 228.973 87.422C228.903 87.491 228.821 87.5457 228.73 87.5828C228.639 87.62 228.542 87.6389 228.444 87.6385ZM228.444 86.4855C228.363 86.4862 228.284 86.5108 228.217 86.5562C228.15 86.6016 228.098 86.6659 228.067 86.7409C228.037 86.8158 228.029 86.8981 228.045 86.9773C228.061 87.0566 228.101 87.1293 228.158 87.1863C228.216 87.2433 228.289 87.2821 228.369 87.2976C228.448 87.3131 228.531 87.3048 228.605 87.2737C228.68 87.2426 228.744 87.19 228.789 87.1227C228.834 87.0554 228.858 86.9763 228.858 86.8954C228.858 86.8413 228.847 86.7877 228.827 86.7378C228.806 86.6878 228.775 86.6425 228.737 86.6044C228.698 86.5663 228.653 86.5362 228.602 86.5158C228.552 86.4954 228.498 86.4851 228.444 86.4855Z" fill="#E3E3E3"/>
        <path d="M236.546 87.6386C236.399 87.6379 236.255 87.5937 236.133 87.5117C236.011 87.4296 235.916 87.3134 235.86 87.1776C235.805 87.0417 235.79 86.8925 235.819 86.7485C235.849 86.6046 235.92 86.4725 236.024 86.3689C236.128 86.2653 236.261 86.1949 236.405 86.1665C236.549 86.1381 236.699 86.153 236.835 86.2094C236.971 86.2657 237.087 86.3609 237.168 86.483C237.25 86.6051 237.294 86.7487 237.294 86.8955C237.294 86.9934 237.274 87.0903 237.237 87.1807C237.199 87.271 237.144 87.3531 237.074 87.4221C237.005 87.4911 236.922 87.5458 236.832 87.5829C236.741 87.6201 236.644 87.639 236.546 87.6386ZM236.546 86.4856C236.465 86.4863 236.386 86.5109 236.319 86.5563C236.251 86.6017 236.199 86.666 236.169 86.741C236.138 86.8159 236.131 86.8982 236.147 86.9775C236.163 87.0567 236.202 87.1295 236.26 87.1864C236.317 87.2434 236.391 87.2822 236.47 87.2977C236.55 87.3133 236.632 87.3049 236.707 87.2738C236.782 87.2427 236.846 87.1901 236.891 87.1228C236.936 87.0555 236.96 86.9765 236.96 86.8955C236.96 86.8414 236.949 86.7878 236.928 86.7379C236.907 86.6879 236.877 86.6427 236.838 86.6046C236.8 86.5665 236.754 86.5363 236.704 86.5159C236.654 86.4955 236.6 86.4852 236.546 86.4856Z" fill="#E3E3E3"/>
        <path d="M154.253 47.5145C154.282 48.4567 154.033 49.3868 153.537 50.189C153.041 50.9911 152.319 51.6299 151.462 52.026C150.426 52.2973 149.368 52.4812 148.301 52.5759C147.669 52.6409 147.037 52.4607 146.535 52.0727L144.532 50.5266C144.21 50.276 143.81 50.147 143.402 50.1623C142.994 50.1775 142.604 50.336 142.302 50.6099L140.159 52.5492C139.977 52.7152 139.738 52.8057 139.491 52.8024C139.237 52.7963 138.995 52.6911 138.817 52.5093C138.639 52.3275 138.54 52.0836 138.54 51.8295V51.2064C138.54 50.7328 138.354 50.2781 138.022 49.9398C137.69 49.6015 137.238 49.4067 136.764 49.3971C136.269 49.4059 135.798 49.6092 135.452 49.9629C135.106 50.3166 134.914 50.7922 134.918 51.2863V51.7895C134.918 51.8984 134.896 52.0062 134.853 52.1063C134.81 52.2063 134.746 52.2964 134.667 52.371C134.587 52.4457 134.493 52.5032 134.391 52.5402C134.288 52.5771 134.179 52.5926 134.07 52.5858L132.488 52.4792C131.662 52.2991 130.928 51.8313 130.416 51.1596C129.905 50.4879 129.65 49.6563 129.697 48.814C129.7 48.5528 129.731 48.2927 129.787 48.0376C129.899 47.5284 130.111 47.0463 130.41 46.6188C130.709 46.1912 131.09 45.8268 131.53 45.5461C131.97 45.2654 132.461 45.0741 132.976 44.9831C133.49 44.892 134.017 44.903 134.527 45.0155C134.667 43.146 135.516 41.4001 136.901 40.1343C138.286 38.8686 140.104 38.1784 141.982 38.2048C143.383 38.196 144.76 38.5801 145.954 39.3134C147.147 40.0468 148.111 41.1 148.735 42.3532H148.928C150.319 42.3362 151.66 42.8698 152.658 43.837C153.656 44.8042 154.229 46.1264 154.253 47.5145Z" fill="#71A5D2"/>
        <path d="M136.507 61.6822L132.952 58.1303C132.936 58.1149 132.924 58.0964 132.915 58.0761C132.907 58.0558 132.902 58.0341 132.902 58.0121C132.902 57.9901 132.907 57.9683 132.915 57.948C132.924 57.9277 132.936 57.9093 132.952 57.8938C132.983 57.8633 133.025 57.8461 133.069 57.8461C133.112 57.8461 133.154 57.8633 133.185 57.8938L136.507 61.2091L139.845 57.8938C139.877 57.8624 139.919 57.8447 139.964 57.8447C140.008 57.8447 140.051 57.8624 140.082 57.8938C140.114 57.9252 140.131 57.9677 140.131 58.0121C140.131 58.0564 140.114 58.099 140.082 58.1303L136.507 61.6822Z" fill="#E3E3E3"/>
        <path d="M136.507 61.6126C136.462 61.6126 136.42 61.595 136.389 61.5637C136.357 61.5325 136.34 61.4901 136.34 61.446V51.1467C136.34 51.1025 136.357 51.0602 136.389 51.0289C136.42 50.9977 136.462 50.9801 136.507 50.9801C136.551 50.9801 136.594 50.9977 136.625 51.0289C136.656 51.0602 136.674 51.1025 136.674 51.1467V61.446C136.674 61.4901 136.656 61.5325 136.625 61.5637C136.594 61.595 136.551 61.6126 136.507 61.6126Z" fill="#E3E3E3"/>
        <path d="M146.825 54.7453C146.782 54.7449 146.74 54.7282 146.709 54.6986L143.37 51.3833L140.032 54.6986C140.017 54.7142 139.998 54.7265 139.978 54.7349C139.958 54.7433 139.936 54.7476 139.914 54.7476C139.892 54.7476 139.87 54.7433 139.85 54.7349C139.829 54.7265 139.811 54.7142 139.795 54.6986C139.78 54.6831 139.767 54.6647 139.759 54.6444C139.75 54.6241 139.746 54.6023 139.746 54.5803C139.746 54.5584 139.75 54.5366 139.759 54.5163C139.767 54.496 139.78 54.4776 139.795 54.4621L143.354 50.9102L146.912 54.4621C146.943 54.4938 146.96 54.5362 146.96 54.5803C146.96 54.6245 146.943 54.6669 146.912 54.6986C146.888 54.7219 146.858 54.7381 146.825 54.7453Z" fill="#E3E3E3"/>
        <path d="M143.386 61.6126C143.341 61.6126 143.299 61.595 143.268 61.5637C143.236 61.5325 143.219 61.4901 143.219 61.446V51.1467C143.219 51.1025 143.236 51.0602 143.268 51.0289C143.299 50.9977 143.341 50.9801 143.386 50.9801C143.43 50.9801 143.472 50.9977 143.504 51.0289C143.535 51.0602 143.553 51.1025 143.553 51.1467V61.446C143.553 61.4901 143.535 61.5325 143.504 61.5637C143.472 61.595 143.43 61.6126 143.386 61.6126Z" fill="#E3E3E3"/>
        <path d="M46.4911 92.4503C46.4469 92.4503 46.4044 92.4327 46.3731 92.4015C46.3418 92.3702 46.3242 92.3279 46.3242 92.2837V66.4105C46.3242 66.3663 46.3418 66.3239 46.3731 66.2927C46.4044 66.2615 46.4469 66.2439 46.4911 66.2439C46.5354 66.2439 46.5779 66.2615 46.6092 66.2927C46.6405 66.3239 46.658 66.3663 46.658 66.4105V92.2837C46.658 92.3279 46.6405 92.3702 46.6092 92.4015C46.5779 92.4327 46.5354 92.4503 46.4911 92.4503Z" fill="#E3E3E3"/>
        <path d="M45.6669 39.3144C45.6226 39.3144 45.5802 39.2968 45.5489 39.2656C45.5176 39.2343 45.5 39.1919 45.5 39.1478V31.8806C45.5 28.7985 47.7733 26.2861 50.5674 26.2861H133.068C133.112 26.2861 133.154 26.3037 133.186 26.3349C133.217 26.3662 133.235 26.4085 133.235 26.4527C133.235 26.4969 133.217 26.5393 133.186 26.5705C133.154 26.6018 133.112 26.6193 133.068 26.6193H50.5674C47.9569 26.6193 45.8338 28.9818 45.8338 31.8806V39.1378C45.8352 39.1605 45.8319 39.1832 45.8241 39.2045C45.8163 39.2259 45.8043 39.2455 45.7886 39.2621C45.773 39.2786 45.7541 39.2918 45.7332 39.3008C45.7123 39.3098 45.6897 39.3144 45.6669 39.3144Z" fill="#E3E3E3"/>
        <path d="M167.44 61.3392C167.396 61.3392 167.354 61.3218 167.322 61.2905C167.291 61.2593 167.273 61.2168 167.273 61.1726V42.7566C167.273 42.7124 167.291 42.67 167.322 42.6388C167.354 42.6075 167.396 42.59 167.44 42.59C167.485 42.59 167.527 42.6075 167.558 42.6388C167.59 42.67 167.607 42.7124 167.607 42.7566V61.1726C167.607 61.2168 167.59 61.2593 167.558 61.2905C167.527 61.3218 167.485 61.3392 167.44 61.3392Z" fill="#E3E3E3"/>
        <path d="M162.508 108.627H51.3459C48.9223 108.627 46.8159 106.735 46.3386 104.129C46.3308 104.086 46.3405 104.041 46.3655 104.005C46.3905 103.969 46.4288 103.944 46.4721 103.936C46.5154 103.929 46.5596 103.939 46.5957 103.964C46.6317 103.988 46.6568 104.026 46.6657 104.069C47.1097 106.518 49.0759 108.294 51.3392 108.294H162.501C165.128 108.294 167.268 105.935 167.268 103.033V94.7027C167.268 94.6585 167.286 94.6162 167.317 94.5849C167.348 94.5537 167.391 94.5361 167.435 94.5361C167.479 94.537 167.521 94.5548 167.552 94.5858C167.583 94.6169 167.601 94.6588 167.602 94.7027V103.033C167.605 106.118 165.319 108.627 162.508 108.627Z" fill="#E3E3E3"/>
        <path d="M91.919 35.9123L87.5793 38.6646C87.3958 38.7815 87.1828 38.8438 86.9651 38.8444H76.1726C75.7964 38.8444 75.4355 38.9937 75.1695 39.2592C74.9034 39.5248 74.7539 39.885 74.7539 40.2605V49.5902C74.7539 49.9658 74.9034 50.326 75.1695 50.5916C75.4355 50.8572 75.7964 51.0063 76.1726 51.0063H96.569C96.9453 51.0063 97.3062 50.8572 97.5723 50.5916C97.8383 50.326 97.9878 49.9658 97.9878 49.5902V36.8786C97.9869 36.5757 97.866 36.2856 97.6515 36.0714C97.4369 35.8573 97.1462 35.7366 96.8428 35.7357H92.5265C92.3114 35.7366 92.1009 35.7978 91.919 35.9123Z" fill="#EAB669"/>
        <path d="M16.7169 30.1014C16.7169 30.1014 8.49154 22.9376 6.03463 31.1577C3.57771 39.3778 7.79384 46.515 9.22927 48.5008C10.6647 50.4867 9.84016 52.5759 9.18921 52.7525C9.18921 52.7525 11.3457 52.1661 11.556 47.5379C11.7663 45.4254 9.58313 43.5595 9.65657 42.5032C9.73001 41.447 10.4878 31.6841 16.7169 30.1014Z" fill="#252525"/>
        <path d="M10.2823 25.6397C13.7907 25.6397 16.6349 22.8008 16.6349 19.2988C16.6349 15.7969 13.7907 12.958 10.2823 12.958C6.77384 12.958 3.92969 15.7969 3.92969 19.2988C3.92969 22.8008 6.77384 25.6397 10.2823 25.6397Z" fill="#252525"/>
        <path d="M32.4078 32.264C32.4078 32.264 29.4368 17.7065 10.2956 24.6638C-8.84566 31.621 6.26636 45.5255 6.26636 45.5255C6.26636 45.5255 8.57308 36.5857 9.38092 35.1962C10.1888 33.8068 19.953 31.8809 24.0356 29.0353C28.1183 26.1898 33.2123 37.1854 32.4078 32.264Z" fill="#252525"/>
        <path d="M14.4358 55.5179C12.8201 55.5179 11.0776 55.278 9.62545 54.5183C8.72166 54.0804 7.86392 53.5536 7.06504 52.9456C6.43746 53.0689 2.48503 53.6553 1.05627 49.187C0.0147559 45.965 -0.0519935 43.9325 0.862674 43.1461C1.4502 42.643 2.41493 42.6796 3.73352 43.2627C3.38215 42.3925 3.08233 41.5024 2.83556 40.5971C2.8242 40.5542 2.83004 40.5087 2.85186 40.4701C2.87369 40.4315 2.90977 40.403 2.95239 40.3905C2.97365 40.385 2.9958 40.3837 3.01755 40.3868C3.0393 40.3898 3.06025 40.3971 3.07916 40.4083C3.09808 40.4194 3.11459 40.4342 3.12778 40.4517C3.14097 40.4692 3.15057 40.4892 3.15602 40.5104C3.43051 41.5463 3.78315 42.5599 4.2109 43.5426L4.41118 43.9725L3.98388 43.7625C2.59185 43.0694 1.61712 42.9529 1.07967 43.4127C0.291849 44.0791 0.391997 46.0583 1.37343 49.0971C2.8389 53.632 6.9115 52.659 7.08174 52.6157L7.1652 52.5957L7.22861 52.6491C8.02517 53.2659 8.88448 53.7975 9.79236 54.2351C14.0252 56.4442 20.8785 54.1484 20.9486 54.1251C26.9073 52.2292 32.1817 48.5407 33.0663 47.721C34.4016 46.4715 33.34 41.5001 33.3267 41.4501C33.1564 40.6338 32.659 38.4279 32.4554 38.0114C32.445 37.9922 32.4386 37.9712 32.4365 37.9495C32.4344 37.9278 32.4367 37.9059 32.4433 37.8851C32.4498 37.8643 32.4604 37.845 32.4746 37.8283C32.4887 37.8117 32.506 37.7981 32.5255 37.7882C32.5645 37.7682 32.6099 37.7643 32.6517 37.7774C32.6936 37.7905 32.7286 37.8195 32.7492 37.8582C33.0329 38.398 33.6271 41.2602 33.6538 41.3801C33.7006 41.5934 34.7788 46.5881 33.2933 47.9642C32.3987 48.7972 27.0609 52.5291 21.0521 54.4416C19.7332 54.8592 18.3807 55.1624 17.0096 55.3479C16.1564 55.462 15.2966 55.5187 14.4358 55.5179Z" fill="#E3E3E3"/>
        <path d="M1.33075 35.8997C1.28817 35.8998 1.24716 35.8836 1.21613 35.8545C1.1851 35.8254 1.1664 35.7856 1.16384 35.7431C0.809995 28.8758 4.50204 24.5908 12.1298 23.0114C17.3842 21.9218 21.7305 21.7353 25.0453 22.4517C25.0672 22.4563 25.088 22.4652 25.1065 22.4778C25.125 22.4904 25.1409 22.5065 25.1531 22.5252C25.1653 22.5439 25.1738 22.5649 25.1779 22.5869C25.182 22.6088 25.1818 22.6314 25.1772 22.6532C25.1726 22.6751 25.1637 22.6959 25.1511 22.7143C25.1384 22.7328 25.1223 22.7486 25.1035 22.7608C25.0847 22.773 25.0638 22.7815 25.0418 22.7856C25.0198 22.7897 24.9971 22.7895 24.9752 22.7849C21.7038 22.0818 17.4042 22.2717 12.1966 23.348C4.75572 24.8907 1.15381 29.0558 1.51433 35.7365C1.51568 35.7582 1.51269 35.7799 1.50549 35.8005C1.49829 35.821 1.48706 35.8399 1.47244 35.856C1.45782 35.8722 1.44011 35.8852 1.42036 35.8944C1.40062 35.9037 1.37923 35.9089 1.35745 35.9097L1.33075 35.8997Z" fill="#E3E3E3"/>
        <path d="M32.1019 36.7793C32.0361 36.7764 31.9731 36.7525 31.922 36.7111C31.8709 36.6697 31.8345 36.613 31.8181 36.5494C30.8167 32.8309 29.2744 28.7192 27.889 28.3294C27.188 28.1295 25.3987 28.9591 23.1321 29.9954C20.1478 31.3748 16.0585 33.2674 11.5352 34.2237C11.4919 34.2327 11.4468 34.2246 11.4094 34.2009C11.372 34.1773 11.3453 34.14 11.3349 34.097C11.3269 34.0534 11.3358 34.0084 11.3601 33.9712C11.3843 33.934 11.4219 33.9075 11.4651 33.8972C15.9517 32.9509 20.0209 31.0682 22.9919 29.6921C25.5023 28.5326 27.1613 27.7663 27.9792 27.9995C29.8219 28.516 31.4776 33.9771 32.1219 36.3828L32.8863 34.3836C33.0699 33.9048 33.1002 33.381 32.9731 32.8842L31.8548 28.5026C31.5439 27.2292 30.8717 26.0723 29.9187 25.1706C29.9031 25.1551 29.8906 25.1367 29.8821 25.1164C29.8737 25.0961 29.8693 25.0743 29.8693 25.0523C29.8693 25.0303 29.8737 25.0085 29.8821 24.9882C29.8906 24.9679 29.9031 24.9495 29.9187 24.934C29.9342 24.9184 29.9527 24.906 29.973 24.8975C29.9934 24.8891 30.0152 24.8848 30.0372 24.8848C30.0592 24.8848 30.081 24.8891 30.1014 24.8975C30.1217 24.906 30.1402 24.9184 30.1557 24.934C31.1556 25.8808 31.8604 27.0957 32.1853 28.4326L33.3036 32.8143C33.4478 33.3785 33.4129 33.9734 33.2035 34.5169L32.4157 36.5761C32.3922 36.6391 32.349 36.6929 32.2924 36.7295C32.2359 36.7661 32.1691 36.7836 32.1019 36.7793Z" fill="#E3E3E3"/>
        <path d="M10.092 52.9692L10.2456 52.3995C10.2456 52.3995 10.743 50.5102 10.3223 49.0674C10.0985 48.6431 9.80389 48.26 9.45107 47.9345C7.63175 45.9553 3.84959 41.8336 6.30317 31.9408C7.0743 28.832 8.36949 26.9861 10.1521 26.4597C12.7525 25.69 15.7903 27.8491 17.8834 29.7917C17.899 29.8072 17.9115 29.8256 17.9199 29.8459C17.9284 29.8662 17.9328 29.888 17.9328 29.91C17.9328 29.9319 17.9284 29.9538 17.9199 29.9741C17.9115 29.9944 17.899 30.0127 17.8834 30.0282C17.8681 30.0437 17.85 30.0561 17.8299 30.0645C17.8098 30.0729 17.7883 30.0773 17.7665 30.0773C17.7448 30.0773 17.7232 30.0729 17.7032 30.0645C17.6831 30.0561 17.6649 30.0437 17.6497 30.0282C15.6201 28.1423 12.6891 26.0298 10.2422 26.7695C8.57312 27.2593 7.36136 29.0253 6.62028 32.0108C4.2101 41.7269 7.91215 45.7587 9.69141 47.698C10.1788 48.2311 10.5327 48.6143 10.6361 48.9608C10.8389 49.7782 10.8775 50.6275 10.7496 51.4598C11.1435 50.3569 11.3973 48.0678 9.64137 44.0094L9.6113 43.9361L9.64801 43.8661C9.66804 43.8261 11.7177 39.8477 11.8279 36.0692C11.8296 36.0253 11.8483 35.9837 11.88 35.9533C11.9118 35.9229 11.9541 35.9059 11.9981 35.906C12.02 35.9064 12.0416 35.9111 12.0617 35.9199C12.0818 35.9286 12.1 35.9413 12.1152 35.9571C12.1304 35.9728 12.1423 35.9915 12.1503 36.0119C12.1583 36.0323 12.1621 36.054 12.1617 36.0759C12.0549 39.6545 10.2589 43.3896 9.97853 43.9494C12.7292 50.3569 10.6061 52.4628 10.5126 52.5494L10.092 52.9692Z" fill="#E3E3E3"/>
        <path d="M25.2227 40.111L25.6199 39.5646C26.2367 38.7927 27.0161 38.1657 27.9028 37.7281C28.7895 37.2904 29.7618 37.0529 30.7507 37.0322H31.4851L25.2227 40.111ZM29.8961 37.4454C28.6251 37.6557 27.4443 38.2352 26.5012 39.1114L29.8961 37.4454Z" fill="#E3E3E3"/>
        <path d="M11.4766 44.0326L12.0941 43.5495C14.4807 41.8598 17.4101 41.113 20.3161 41.4536L21.1673 41.5703L11.4766 44.0326ZM18.8773 41.7002C16.8589 41.7227 14.8807 42.2669 13.1356 43.2796L19.3013 41.7102L18.8773 41.7002Z" fill="#E3E3E3"/>
        <path d="M24.1172 37.8786L24.234 37.5454C24.5445 36.6924 29.4883 34.4366 29.7754 34.4033H29.8789L29.9557 34.4933C30.0191 34.5899 30.0859 34.6898 29.465 35.1963C30.4264 35.1963 30.4931 35.323 30.5299 35.3963L30.5666 35.4629L30.5365 35.5395C30.4998 35.6295 30.4331 35.7961 24.4443 37.7753L24.1172 37.8786ZM29.1812 34.9898C27.7375 35.6327 26.3438 36.3822 25.0118 37.2322C26.7443 36.6558 28.9542 35.8994 29.8622 35.5395C29.6052 35.5395 29.2713 35.5395 28.9742 35.5395L28.4435 35.5562L28.8674 35.2397C28.9709 35.1464 29.0711 35.0597 29.1812 34.9764V34.9898Z" fill="#E3E3E3"/>
        <path d="M11.288 40.3309C11.2438 40.3349 11.1998 40.3211 11.1656 40.2927C11.1315 40.2642 11.1101 40.2235 11.1061 40.1793C11.1022 40.1351 11.1159 40.0911 11.1444 40.0571C11.1729 40.023 11.2138 40.0017 11.258 39.9977C14.3292 39.4413 19.6035 38.5949 20.4314 39.1414C20.4497 39.1537 20.4654 39.1696 20.4775 39.188C20.4896 39.2065 20.4979 39.2272 20.502 39.2489C20.506 39.2706 20.5057 39.2929 20.501 39.3145C20.4963 39.336 20.4874 39.3565 20.4748 39.3746C20.4627 39.3927 20.4471 39.4083 20.4289 39.4204C20.4107 39.4324 20.3902 39.4407 20.3688 39.4448C20.3473 39.4488 20.3252 39.4485 20.3039 39.4439C20.2825 39.4393 20.2623 39.4305 20.2445 39.4179C19.7371 39.0847 16.2386 39.4379 11.3181 40.3242L11.288 40.3309Z" fill="#E3E3E3"/>
        <path d="M11.4457 41.8505C11.3689 41.8505 11.3555 41.8272 11.3355 41.8005C11.2454 41.6606 11.2287 41.6339 12.337 40.6809L11.1886 40.561C11.1443 40.5562 11.1038 40.534 11.076 40.4993C11.0481 40.4646 11.0352 40.4203 11.0401 40.3761C11.0449 40.3319 11.0672 40.2914 11.1019 40.2636C11.1367 40.2358 11.1811 40.223 11.2254 40.2278L13.1482 40.4277L12.8511 40.6776C12.5606 40.9242 12.2569 41.1874 12.0199 41.3974C13.2383 41.0642 16.1325 40.2711 18.0286 39.7314C19.4741 39.3282 20.2285 39.1182 20.3053 39.1016H20.3353H20.3687C20.4128 39.1089 20.4522 39.1333 20.4785 39.1695C20.5047 39.2057 20.5156 39.2507 20.5089 39.2948C20.5031 39.3316 20.4851 39.3652 20.4579 39.3906C20.4307 39.416 20.3958 39.4315 20.3587 39.4348C20.2018 39.4747 19.2337 39.7447 18.1187 40.0546C12.8343 41.544 11.7094 41.8505 11.4457 41.8505Z" fill="#E3E3E3"/>
        <path d="M1.69473 25.4433C1.6683 25.4435 1.64217 25.4377 1.61841 25.4261C1.59465 25.4146 1.57392 25.3976 1.55786 25.3767C1.3087 25.0421 1.08551 24.689 0.890216 24.3204C0.319484 23.2233 0.0100283 22.0095 -0.0140972 20.7735C-0.0382226 19.5375 0.223654 18.3126 0.751138 17.1941C1.27862 16.0756 2.0575 15.0936 3.0272 14.3245C3.9969 13.5555 5.13125 13.0201 6.34206 12.76C7.55286 12.4999 8.80749 12.5221 10.0083 12.8249C11.2091 13.1277 12.3237 13.7029 13.2655 14.5058C14.2072 15.3087 14.9508 16.3176 15.4382 17.4541C15.9256 18.5906 16.1437 19.824 16.0757 21.0584C16.0735 21.1026 16.0538 21.144 16.0209 21.1737C15.9881 21.2034 15.9447 21.2189 15.9005 21.2167C15.8562 21.2145 15.8146 21.1947 15.7849 21.1619C15.7551 21.1291 15.7397 21.0859 15.7419 21.0417C15.8076 19.8583 15.599 18.6757 15.1321 17.5859C14.6652 16.4962 13.9526 15.5286 13.0499 14.7586C12.1472 13.9886 11.0787 13.4369 9.92748 13.1464C8.77627 12.8559 7.57343 12.8344 6.41255 13.0837C5.25168 13.3329 4.16409 13.8463 3.23441 14.5836C2.30474 15.321 1.55803 16.2625 1.05244 17.3349C0.54685 18.4073 0.296002 19.5817 0.319397 20.7667C0.342792 21.9517 0.639795 23.1155 1.18732 24.1672C1.37122 24.5155 1.581 24.8497 1.8149 25.1668C1.82788 25.1845 1.83723 25.2045 1.84241 25.2258C1.84759 25.2472 1.84851 25.2693 1.8451 25.291C1.84169 25.3127 1.83401 25.3335 1.82252 25.3522C1.81104 25.3709 1.79598 25.3871 1.77819 25.4C1.7549 25.4218 1.72602 25.4368 1.69473 25.4433Z" fill="#E3E3E3"/>
        <path d="M5.61859 49.5972C5.58503 49.5977 5.55217 49.5877 5.52462 49.5686C5.49707 49.5494 5.47623 49.5222 5.46505 49.4906C5.46505 49.4507 3.92278 45.6121 2.02334 45.0424C1.98146 45.0293 1.94645 45.0003 1.92583 44.9617C1.90521 44.923 1.90067 44.8777 1.9132 44.8357C1.91893 44.8145 1.92891 44.7946 1.94254 44.7773C1.95616 44.76 1.97316 44.7457 1.99249 44.7351C2.01183 44.7245 2.0331 44.7179 2.05505 44.7158C2.07699 44.7136 2.09913 44.7159 2.12016 44.7225C4.17316 45.3389 5.70873 49.204 5.79218 49.3673C5.80023 49.3879 5.80408 49.4099 5.80355 49.4319C5.80303 49.454 5.79813 49.4757 5.78913 49.4958C5.78012 49.516 5.7672 49.5341 5.75111 49.5492C5.73501 49.5643 5.71606 49.5761 5.69536 49.5839C5.67094 49.5935 5.64482 49.598 5.61859 49.5972Z" fill="#E3E3E3"/>
        <path d="M25.8787 43.4463C25.8787 43.4463 26.4129 44.9024 24.1562 45.5188C24.1562 45.5188 25.6117 44.6525 25.8787 43.4463Z" fill="#E3E3E3"/>
        <path d="M21.6962 49.8201C21.6742 49.8223 21.6521 49.8201 21.631 49.8138C21.6099 49.8074 21.5903 49.797 21.5732 49.7831C21.5562 49.7692 21.5421 49.7521 21.5317 49.7327C21.5212 49.7133 21.5147 49.692 21.5126 49.6701C21.5104 49.6482 21.5125 49.6262 21.5189 49.6051C21.5252 49.5841 21.5357 49.5645 21.5496 49.5474C21.5636 49.5304 21.5808 49.5164 21.6002 49.506C21.6196 49.4956 21.6408 49.4891 21.6628 49.4869C24.4735 48.8905 28.4326 46.6014 28.4694 46.5781C28.508 46.5561 28.5537 46.5499 28.5968 46.5612C28.6398 46.5724 28.6768 46.6 28.6997 46.638C28.711 46.6568 28.7184 46.6776 28.7215 46.6992C28.7246 46.7208 28.7233 46.7428 28.7177 46.764C28.7121 46.7851 28.7023 46.8049 28.6889 46.8222C28.6755 46.8395 28.6587 46.8539 28.6396 46.8646C28.5995 46.8879 24.5971 49.197 21.7329 49.8135L21.6962 49.8201Z" fill="#E3E3E3"/>
        <path d="M4.66016 25.0569C4.66016 25.0569 5.26437 21.8348 10.3351 22.0414C10.3384 22.0414 6.25582 23.0843 4.66016 25.0569Z" fill="#E3E3E3"/>
        <path d="M24.7305 50.9064C24.693 50.9061 24.6568 50.8935 24.6272 50.8707C24.5976 50.8478 24.5764 50.8158 24.5669 50.7797C24.5568 50.7369 24.5642 50.6918 24.5873 50.6544C24.6105 50.6169 24.6475 50.5901 24.6904 50.5798C25.5341 50.2977 26.3454 49.9269 27.1106 49.4736C27.1492 49.4516 27.195 49.4455 27.238 49.4567C27.2811 49.4679 27.318 49.4955 27.3409 49.5335C27.3628 49.5716 27.3688 49.6167 27.3575 49.6591C27.3463 49.7016 27.3187 49.7378 27.2808 49.7601C26.4882 50.231 25.6464 50.6143 24.7705 50.903L24.7305 50.9064Z" fill="#E3E3E3"/>
        <path d="M33.9701 109.45C30.2981 109.45 24.8401 108.84 19.1952 107.731C14.5217 106.808 3.36878 104.252 1.16891 100.434C-0.520221 97.5081 -0.0261755 89.5812 2.37065 81.1612C7.04414 64.761 14.6419 59.1699 17.693 57.5405C28.8927 51.5429 55.0341 39.0078 65.7631 33.9032L66.0135 33.7832V34.0598C65.8199 38.4614 66.0135 46.5215 69.562 51.0531L69.6655 51.1863L69.5319 51.2897C63.4197 55.9545 41.6646 65.7307 40.0089 66.4737L39.8753 91.867V91.9303C39.881 91.974 39.8691 92.0182 39.8422 92.0532C39.8153 92.0882 39.7756 92.1111 39.7318 92.1169C39.7103 92.1202 39.6883 92.1192 39.6672 92.1139C39.6461 92.1086 39.6263 92.0992 39.6089 92.0862C39.5915 92.0731 39.5768 92.0568 39.5658 92.038C39.5549 92.0193 39.5477 91.9985 39.5449 91.977V91.887L39.6784 66.2571L39.7752 66.2138C40.0055 66.1105 62.7153 55.9645 69.1947 51.1231C65.7631 46.5748 65.496 38.7746 65.6696 34.3164C54.8004 39.4943 28.9828 51.8661 17.8732 57.8271C14.8689 59.4465 7.3546 64.9676 2.7145 81.2478C0.377757 89.4546 -0.139686 97.4515 1.48268 100.26C2.96484 102.826 9.62121 105.495 19.2886 107.398C27.554 109.024 35.6893 109.583 37.809 108.67C38.8873 108.207 39.625 106.848 40.0022 104.625C40.0103 104.582 40.0351 104.543 40.0713 104.518C40.1074 104.492 40.1521 104.482 40.1958 104.489C40.2391 104.497 40.2775 104.522 40.3025 104.558C40.3275 104.594 40.3371 104.639 40.3293 104.682C39.9354 107.014 39.1276 108.467 37.9392 108.977C37.1747 109.3 35.7961 109.45 33.9701 109.45Z" fill="#E3E3E3"/>
        <path d="M69.3698 51.3961L69.2664 51.2661C68.2626 49.9239 67.4981 48.4192 67.0064 46.8179C66.9946 46.7764 66.9993 46.732 67.0195 46.6939C67.0398 46.6559 67.0741 46.6272 67.1151 46.6138C67.1562 46.6004 67.2008 46.6035 67.2397 46.6223C67.2786 46.6411 67.3086 46.6741 67.3235 46.7146C67.7893 48.2254 68.5009 49.6494 69.4299 50.9296C69.7763 50.6669 70.1021 50.3785 70.4047 50.0666C71.4495 48.9371 71.9202 47.0144 71.8001 44.3521C71.8001 44.308 71.8177 44.2656 71.849 44.2344C71.8803 44.2031 71.9227 44.1855 71.967 44.1855C72.0112 44.1855 72.0537 44.2031 72.085 44.2344C72.1163 44.2656 72.1339 44.308 72.1339 44.3521C72.2574 47.1077 71.7567 49.1103 70.6484 50.3098C70.2944 50.6746 69.9102 51.009 69.5 51.3095L69.3698 51.3961Z" fill="#E3E3E3"/>
        <path d="M35.7912 108.054C35.7656 108.054 35.7402 108.048 35.717 108.037C35.6939 108.026 35.6735 108.01 35.6577 107.99C33.2875 104.941 35.7311 93.7092 36.1217 91.9965H16.5898L16.6199 91.8033C17.2875 87.3284 18.5627 78.8084 18.5794 78.5252C18.5811 78.4821 18.5995 78.4415 18.6306 78.4117C18.6617 78.3819 18.7032 78.3652 18.7463 78.3652C18.7894 78.3661 18.8306 78.3835 18.8611 78.414C18.8916 78.4444 18.9091 78.4855 18.9099 78.5285C18.9099 78.7284 17.3576 89.0943 16.9737 91.6633H36.5389L36.4922 91.8666C36.4622 91.9965 33.4878 104.688 35.918 107.797C35.945 107.832 35.9569 107.876 35.9513 107.92C35.9457 107.963 35.9229 108.003 35.888 108.03C35.8591 108.048 35.8251 108.056 35.7912 108.054Z" fill="#E3E3E3"/>
        <path d="M38.3757 104.852C37.1005 104.852 35.882 104.852 34.8505 104.822C34.8062 104.822 34.7638 104.804 34.7325 104.773C34.7012 104.742 34.6836 104.699 34.6836 104.655C34.6836 104.611 34.7012 104.568 34.7325 104.537C34.7638 104.506 34.8062 104.488 34.8505 104.488C38.162 104.542 46.0202 104.588 47.5591 103.949C48.6139 103.509 48.4637 103.099 48.2501 102.536C48.0998 102.129 47.9163 101.666 48.2734 101.203C48.911 100.327 48.2734 99.2471 48.2734 99.2371L48.2 99.1172L48.3068 99.0238C49.2348 98.2142 48.0865 96.2549 48.0765 96.2349L48.0298 96.1549L48.0732 96.0716C48.0732 96.0716 48.8376 94.5956 48.407 93.4827C48.3149 93.248 48.1733 93.0358 47.9919 92.8604C47.8104 92.6851 47.5934 92.5508 47.3554 92.4665L36.3093 92.0033C36.2875 92.0024 36.2661 91.9973 36.2464 91.9881C36.2266 91.9788 36.209 91.9658 36.1943 91.9497C36.1797 91.9335 36.1685 91.9146 36.1613 91.894C36.1541 91.8735 36.1511 91.8517 36.1524 91.83C36.1533 91.8081 36.1585 91.7867 36.1677 91.7668C36.1768 91.7469 36.1899 91.729 36.206 91.7142C36.2221 91.6993 36.241 91.6877 36.2616 91.6801C36.2822 91.6726 36.3041 91.6692 36.326 91.6701L47.4522 92.1466C47.7403 92.2456 48.0032 92.4063 48.2223 92.6176C48.4415 92.8289 48.6116 93.0855 48.7208 93.3694C49.1313 94.4723 48.5572 95.8018 48.3869 96.145C48.6039 96.5415 49.4685 98.2575 48.6006 99.1804C48.7708 99.5136 49.1714 100.513 48.5271 101.4C48.2901 101.733 48.4103 102.046 48.5505 102.422C48.7608 102.989 49.0245 103.692 47.6726 104.262C46.5342 104.722 42.2079 104.852 38.3757 104.852Z" fill="#E3E3E3"/>
        <path d="M79.4772 34.8528H79.4304C79.3878 34.8403 79.3518 34.8118 79.33 34.7732C79.3081 34.7346 79.3023 34.6891 79.3136 34.6462C79.6474 33.48 79.8544 31.9506 78.9364 31.3142C76.3192 29.4716 69.3124 32.6003 69.2556 32.647L65.9174 34.2397C65.8975 34.251 65.8755 34.2581 65.8527 34.2605C65.8299 34.263 65.8068 34.2607 65.7849 34.2539C65.7631 34.247 65.7428 34.2358 65.7255 34.2208C65.7082 34.2058 65.6942 34.1873 65.6843 34.1667C65.6744 34.146 65.6689 34.1236 65.6681 34.1007C65.6673 34.0778 65.6712 34.0551 65.6796 34.0338C65.688 34.0125 65.7007 33.9932 65.7169 33.977C65.7331 33.9609 65.7525 33.9481 65.7739 33.9398L69.1121 32.3471C69.4092 32.2105 76.3693 29.1051 79.1267 31.061C79.9946 31.6707 80.1648 32.9202 79.6374 34.7661C79.6214 34.794 79.5979 34.8169 79.5696 34.8322C79.5413 34.8475 79.5093 34.8546 79.4772 34.8528Z" fill="#E3E3E3"/>
        <path d="M67.1673 46.932C67.1359 46.9329 67.1048 46.9245 67.0781 46.9079C67.0514 46.8914 67.0302 46.8673 67.0171 46.8387C67.0074 46.819 67.0017 46.7976 67.0003 46.7758C66.9989 46.7539 67.0019 46.732 67.0091 46.7113C67.0162 46.6905 67.0273 46.6714 67.0419 46.655C67.0565 46.6385 67.0741 46.6251 67.0939 46.6155C67.1206 46.6155 69.7211 45.336 71.8909 44.1965C72.5385 43.8633 73.0659 43.5667 73.5032 43.3202C73.5417 43.2986 73.5873 43.2931 73.6298 43.305C73.6724 43.3168 73.7085 43.3451 73.7302 43.3835C73.7414 43.4024 73.7486 43.4233 73.7515 43.4451C73.7543 43.4669 73.7527 43.489 73.7468 43.5102C73.7409 43.5314 73.7307 43.5511 73.717 43.5683C73.7032 43.5854 73.6862 43.5996 73.6668 43.61C73.2295 43.8599 72.6987 44.1465 72.0478 44.4931C69.8746 45.6359 67.2641 46.9054 67.2374 46.9154C67.216 46.9271 67.1918 46.9328 67.1673 46.932Z" fill="#E3E3E3"/>
        <path d="M71.9848 38.8247C71.9406 38.8326 71.8949 38.8226 71.858 38.797C71.821 38.7714 71.7958 38.7322 71.7878 38.688C71.7799 38.6438 71.7898 38.5983 71.8155 38.5614C71.8412 38.5245 71.8804 38.4994 71.9247 38.4915C73.8609 37.7218 78.8148 35.346 78.4709 33.6367C78.4512 33.522 78.4039 33.4138 78.3329 33.3215C78.262 33.2292 78.1696 33.1555 78.0637 33.1069C76.5849 32.3838 72.105 34.5829 72.0549 34.6063C72.0352 34.6159 72.0138 34.6216 71.9918 34.623C71.9699 34.6244 71.9479 34.6214 71.9271 34.6143C71.9063 34.6072 71.8872 34.5961 71.8707 34.5815C71.8543 34.567 71.8408 34.5494 71.8312 34.5296C71.821 34.5102 71.8147 34.489 71.8129 34.4672C71.811 34.4453 71.8136 34.4233 71.8205 34.4025C71.8273 34.3817 71.8383 34.3624 71.8528 34.3459C71.8673 34.3294 71.8849 34.316 71.9047 34.3064C72.0949 34.2131 76.5781 32.0107 78.2039 32.807C78.3567 32.8776 78.4901 32.9842 78.5925 33.1178C78.6948 33.2513 78.7631 33.4077 78.7914 33.5734C79.2587 35.9058 72.3353 38.6847 72.0415 38.8013C72.0246 38.8133 72.0053 38.8213 71.9848 38.8247Z" fill="#E3E3E3"/>
        <path d="M29.5255 64.7778L20.5858 58.8069C20.5492 58.7824 20.5238 58.7446 20.5151 58.7015C20.5063 58.6584 20.5149 58.6137 20.5391 58.577C20.5642 58.5402 20.6027 58.5148 20.6464 58.506C20.6901 58.4973 20.7355 58.506 20.7728 58.5303L29.2051 64.1614L29.4388 53.8321C29.4404 53.7888 29.4587 53.7477 29.4897 53.7174C29.5208 53.687 29.5622 53.6696 29.6057 53.6688C29.6277 53.6688 29.6495 53.6733 29.6698 53.6819C29.6901 53.6905 29.7085 53.7031 29.7238 53.719C29.739 53.7349 29.7509 53.7537 29.7588 53.7743C29.7666 53.7948 29.7701 53.8168 29.7692 53.8388L29.5255 64.7778Z" fill="#E3E3E3"/>
        <path d="M97.5982 48.2342H75.1355C74.6771 48.2333 74.2378 48.0511 73.9137 47.7277C73.5896 47.4042 73.4071 46.9657 73.4062 46.5082V37.9516C73.4062 37.9074 73.4238 37.865 73.4551 37.8338C73.4865 37.8025 73.5289 37.785 73.5732 37.785C73.6172 37.7858 73.6592 37.8037 73.6903 37.8347C73.7214 37.8658 73.7392 37.9076 73.7401 37.9516V46.5082C73.741 46.8773 73.8883 47.2311 74.1498 47.4921C74.4113 47.7531 74.7657 47.9001 75.1355 47.901H97.5849C97.9552 47.901 98.3105 47.7543 98.5727 47.4932C98.8349 47.2321 98.9827 46.8779 98.9835 46.5082V31.4274H92.8279L87.4367 34.8528H78.3401C78.2959 34.8528 78.2534 34.8352 78.2221 34.804C78.1908 34.7727 78.1732 34.7304 78.1732 34.6862C78.1732 34.642 78.1908 34.5996 78.2221 34.5684C78.2534 34.5371 78.2959 34.5196 78.3401 34.5196H87.3533L92.7411 31.0942H99.3374V46.5082C99.3356 46.9671 99.1515 47.4067 98.8254 47.7303C98.4994 48.0538 98.058 48.2351 97.5982 48.2342Z" fill="#E3E3E3"/>
        <path d="M92.9041 60.1799L88.4977 62.9822C88.3115 63.1018 88.0948 63.1653 87.8734 63.1654H76.8907C76.5074 63.1654 76.1397 63.3175 75.8687 63.588C75.5976 63.8586 75.4453 64.2256 75.4453 64.6082V74.0878C75.4453 74.4704 75.5976 74.8374 75.8687 75.108C76.1397 75.3786 76.5074 75.5306 76.8907 75.5306H97.641C98.0244 75.5306 98.392 75.3786 98.6631 75.108C98.9342 74.8374 99.0864 74.4704 99.0864 74.0878V61.1629C99.0864 60.8545 98.9637 60.5587 98.7452 60.3406C98.5267 60.1225 98.2304 60 97.9214 60H93.5317C93.3097 60.0001 93.0923 60.0625 92.9041 60.1799Z" fill="#EAB669"/>
        <path d="M95.8877 74.567H73.0444C72.5778 74.567 72.1304 74.3819 71.8004 74.0526C71.4705 73.7233 71.2852 73.2767 71.2852 72.811V62.3717C71.286 61.9066 71.4718 61.4608 71.8016 61.1322C72.1314 60.8036 72.5784 60.6191 73.0444 60.6191H84.6947C85.1929 60.62 85.6808 60.4777 86.1001 60.2092L90.2128 57.5936C90.687 57.2935 91.2369 57.1341 91.7984 57.1338H96.6588C96.9216 57.1338 97.1738 57.2367 97.3612 57.4206C97.5485 57.6045 97.6559 57.8545 97.6603 58.1167V72.811C97.6603 73.0427 97.6144 73.2721 97.5251 73.486C97.4359 73.6999 97.3051 73.8941 97.1403 74.0573C96.9756 74.2205 96.78 74.3497 96.565 74.4371C96.35 74.5246 96.1199 74.5687 95.8877 74.567ZM73.0444 60.9523C72.6669 60.9523 72.3049 61.1017 72.0377 61.3678C71.7705 61.6339 71.6199 61.995 71.619 62.3717V72.811C71.619 73.1883 71.7692 73.5502 72.0365 73.817C72.3038 74.0838 72.6664 74.2338 73.0444 74.2338H95.8877C96.2652 74.2329 96.6269 74.0825 96.8935 73.8158C97.1601 73.5491 97.3098 73.1877 97.3098 72.811V58.1167C97.3055 57.9429 97.2332 57.7776 97.1084 57.6562C96.9837 57.5348 96.8164 57.4669 96.6422 57.467H91.7817C91.2838 57.4677 90.7964 57.6099 90.3764 57.8768L86.2637 60.4925C85.7892 60.7921 85.2395 60.9514 84.678 60.9523H73.0444Z" fill="#E3E3E3"/>
        <path d="M90.1971 80.7147L85.6505 83.6035C85.458 83.7258 85.2344 83.7906 85.0062 83.7901H73.6797C73.2839 83.7901 72.9044 83.947 72.6245 84.2263C72.3447 84.5056 72.1875 84.8845 72.1875 85.2795V95.059C72.1875 95.2545 72.2261 95.448 72.3012 95.6285C72.3762 95.809 72.4861 95.973 72.6247 96.111C72.7633 96.2491 72.9279 96.3584 73.1089 96.4329C73.2899 96.5074 73.4839 96.5455 73.6797 96.5451H95.0809C95.2767 96.5455 95.4706 96.5074 95.6517 96.4329C95.8327 96.3584 95.9972 96.2491 96.1358 96.111C96.2744 95.973 96.3844 95.809 96.4594 95.6285C96.5344 95.448 96.573 95.2545 96.573 95.059V81.731C96.5722 81.4134 96.4452 81.1091 96.2199 80.8849C95.9946 80.6606 95.6894 80.5347 95.3713 80.5347H90.8414C90.6138 80.5323 90.3903 80.5947 90.1971 80.7147Z" fill="#EAB669"/>
        <path d="M96.1873 100.084H72.6263C72.1476 100.083 71.6888 99.8925 71.3503 99.5546C71.0118 99.2167 70.8212 98.7588 70.8203 98.2809V87.5252C70.8212 87.0474 71.0118 86.5894 71.3503 86.2515C71.6888 85.9136 72.1476 85.7235 72.6263 85.7226H84.6438C85.1584 85.723 85.6624 85.5762 86.0959 85.2994L90.3421 82.6038C90.8286 82.2933 91.3938 82.128 91.9712 82.1273H96.9785C97.2441 82.1273 97.4988 82.2326 97.6866 82.4201C97.8744 82.6076 97.9799 82.8618 97.9799 83.1269V98.2843C97.9782 98.7592 97.7891 99.2143 97.4536 99.5511C97.1181 99.8879 96.6631 100.079 96.1873 100.084ZM72.6263 86.0424C72.2361 86.0433 71.8622 86.1984 71.5863 86.4738C71.3104 86.7491 71.155 87.1224 71.1541 87.5118V98.2809C71.155 98.6704 71.3104 99.0437 71.5863 99.319C71.8622 99.5944 72.2361 99.7495 72.6263 99.7503H96.1873C96.5781 99.7503 96.9528 99.5956 97.2295 99.3202C97.5061 99.0447 97.6619 98.671 97.6628 98.2809V83.1236C97.6628 82.9468 97.5924 82.7773 97.4672 82.6523C97.342 82.5274 97.1722 82.4572 96.9951 82.4572H91.9878C91.4733 82.4571 90.9694 82.6039 90.5357 82.8804L86.2929 85.5792C85.8051 85.8891 85.2387 86.0534 84.6605 86.0524L72.6263 86.0424Z" fill="#E3E3E3"/>
        <path d="M191.638 82.0239C191.608 82.0246 191.578 82.0164 191.552 82.0006C191.533 81.989 191.517 81.9739 191.504 81.9561C191.491 81.9382 191.482 81.918 191.477 81.8967C191.472 81.8753 191.471 81.8532 191.475 81.8316C191.479 81.81 191.486 81.7893 191.498 81.7707C191.525 81.724 194.322 77.1058 194.042 72.6776C194.04 72.6557 194.043 72.6338 194.051 72.6131C194.058 72.5923 194.069 72.5732 194.084 72.5568C194.098 72.5404 194.116 72.527 194.136 72.5174C194.155 72.5078 194.177 72.5023 194.199 72.501C194.241 72.5009 194.282 72.5171 194.313 72.5462C194.344 72.5753 194.363 72.6151 194.366 72.6576C194.653 77.1758 191.799 81.8973 191.772 81.9439C191.758 81.9671 191.738 81.9865 191.715 82.0004C191.692 82.0143 191.665 82.0224 191.638 82.0239Z" fill="#E3E3E3"/>
        <path d="M131.356 70.9785H123.344C122.091 70.9785 121.074 71.9929 121.074 73.2443V81.2411C121.074 82.4925 122.091 83.5069 123.344 83.5069H131.356C132.61 83.5069 133.626 82.4925 133.626 81.2411V73.2443C133.626 71.9929 132.61 70.9785 131.356 70.9785Z" fill="#CE7783"/>
        <path d="M129.7 82.451H120.706C120.06 82.4502 119.441 82.1936 118.984 81.7376C118.527 81.2817 118.27 80.6635 118.27 80.0187V71.0456C118.271 70.401 118.529 69.7833 118.985 69.3276C119.442 68.8718 120.061 68.6149 120.706 68.6132H129.7C130.345 68.6149 130.963 68.8718 131.42 69.3277C131.876 69.7836 132.132 70.4013 132.133 71.0456V80.0187C132.133 80.6632 131.877 81.2814 131.421 81.7375C130.964 82.1935 130.345 82.4502 129.7 82.451ZM120.706 68.9464C120.149 68.9472 119.615 69.1687 119.22 69.5622C118.826 69.9556 118.604 70.4891 118.603 71.0456V80.0187C118.604 80.5751 118.826 81.1086 119.22 81.502C119.615 81.8955 120.149 82.117 120.706 82.1178H129.7C130.257 82.117 130.791 81.8954 131.184 81.5018C131.578 81.1082 131.799 80.5748 131.799 80.0187V71.0456C131.799 70.4894 131.578 69.956 131.184 69.5624C130.791 69.1688 130.257 68.9472 129.7 68.9464H120.706Z" fill="#E3E3E3"/>
        <path d="M148.797 66.8672H140.786C139.532 66.8672 138.516 67.8816 138.516 69.133V77.1298C138.516 78.3812 139.532 79.3956 140.786 79.3956H148.797C150.051 79.3956 151.067 78.3812 151.067 77.1298V69.133C151.067 67.8816 150.051 66.8672 148.797 66.8672Z" fill="#CE7783"/>
        <path d="M148.352 82.4512H139.359C138.713 82.4503 138.093 82.1937 137.637 81.7377C137.18 81.2818 136.923 80.6636 136.922 80.0188V71.0457C136.924 70.4011 137.181 69.7835 137.638 69.3277C138.094 68.8719 138.713 68.615 139.359 68.6133H148.352C148.997 68.615 149.616 68.872 150.072 69.3278C150.528 69.7837 150.785 70.4014 150.785 71.0457V80.0188C150.785 80.6633 150.529 81.2815 150.073 81.7376C149.617 82.1936 148.998 82.4503 148.352 82.4512ZM139.359 68.9465C138.801 68.9474 138.267 69.1688 137.873 69.5623C137.478 69.9558 137.257 70.4892 137.256 71.0457V80.0188C137.257 80.5752 137.478 81.1087 137.873 81.5022C138.267 81.8956 138.801 82.1171 139.359 82.118H148.352C148.909 82.1171 149.443 81.8955 149.837 81.5019C150.231 81.1083 150.452 80.5749 150.452 80.0188V71.0457C150.452 70.4895 150.231 69.9561 149.837 69.5625C149.443 69.169 148.909 68.9474 148.352 68.9465H139.359Z" fill="#E3E3E3"/>
        <path d="M131.356 90.2207H123.344C122.091 90.2207 121.074 91.2351 121.074 92.4865V100.483C121.074 101.735 122.091 102.749 123.344 102.749H131.356C132.61 102.749 133.626 101.735 133.626 100.483V92.4865C133.626 91.2351 132.61 90.2207 131.356 90.2207Z" fill="#CE7783"/>
        <path d="M129.7 101.69H120.706C120.061 101.689 119.442 101.433 118.985 100.978C118.529 100.523 118.271 99.9052 118.27 99.261V90.2845C118.271 89.6403 118.529 89.0229 118.985 88.5677C119.442 88.1124 120.061 87.8563 120.706 87.8555H129.7C130.345 87.8564 130.963 88.1126 131.419 88.5679C131.876 89.0233 132.132 89.6406 132.133 90.2845V99.261C132.132 99.9049 131.876 100.522 131.419 100.978C130.963 101.433 130.345 101.689 129.7 101.69ZM120.706 88.192C120.149 88.192 119.615 88.4127 119.221 88.8057C118.826 89.1986 118.604 89.7317 118.603 90.2879V99.2643C118.604 99.8205 118.826 100.354 119.221 100.746C119.615 101.139 120.149 101.36 120.706 101.36H129.7C130.256 101.36 130.791 101.139 131.184 100.746C131.578 100.353 131.799 99.8201 131.799 99.2643V90.2879C131.799 89.732 131.578 89.1989 131.184 88.8059C130.791 88.4128 130.256 88.192 129.7 88.192H120.706Z" fill="#E3E3E3"/>
        <path d="M148.797 86.106H140.786C139.532 86.106 138.516 87.1204 138.516 88.3717V96.3686C138.516 97.6199 139.532 98.6343 140.786 98.6343H148.797C150.051 98.6343 151.067 97.6199 151.067 96.3686V88.3717C151.067 87.1204 150.051 86.106 148.797 86.106Z" fill="#CE7783"/>
        <path d="M148.352 101.69H139.359C138.713 101.689 138.095 101.433 137.638 100.978C137.181 100.523 136.924 99.9052 136.922 99.261V90.2845C136.924 89.6403 137.181 89.0229 137.638 88.5677C138.095 88.1124 138.713 87.8563 139.359 87.8555H148.352C148.997 87.8564 149.616 88.1126 150.072 88.5679C150.528 89.0233 150.785 89.6406 150.785 90.2845V99.261C150.785 99.9049 150.528 100.522 150.072 100.978C149.616 101.433 148.997 101.689 148.352 101.69ZM139.359 88.192C138.802 88.192 138.267 88.4127 137.873 88.8057C137.479 89.1986 137.257 89.7317 137.256 90.2879V99.2643C137.257 99.8205 137.479 100.354 137.873 100.746C138.267 101.139 138.802 101.36 139.359 101.36H148.352C148.909 101.36 149.443 101.139 149.837 100.746C150.23 100.353 150.452 99.8201 150.452 99.2643V90.2879C150.452 89.732 150.23 89.1989 149.837 88.8059C149.443 88.4128 148.909 88.192 148.352 88.192H139.359Z" fill="#E3E3E3"/>
        <path d="M130.216 53.3723H130.182C129.294 53.1836 128.503 52.6837 127.952 51.9631C127.401 51.2426 127.126 50.3489 127.178 49.4439C127.182 49.167 127.215 48.8912 127.275 48.6209C127.51 47.5545 128.149 46.6197 129.057 46.011C129.965 45.4022 131.074 45.1662 132.152 45.3521C132.351 43.4304 133.261 41.6519 134.705 40.365C136.148 39.0781 138.021 38.3756 139.957 38.3949H140.003C141.446 38.4008 142.859 38.8004 144.09 39.5504C145.321 40.3004 146.322 41.3723 146.987 42.6499H147.167C148.629 42.6506 150.032 43.2251 151.073 44.2494C152.114 45.2736 152.71 46.6654 152.732 48.1244C152.765 49.1247 152.502 50.1125 151.975 50.9642C151.448 51.8159 150.682 52.4936 149.771 52.9125C149.751 52.9221 149.729 52.9276 149.707 52.9287C149.685 52.9299 149.663 52.9267 149.642 52.9192C149.622 52.9118 149.602 52.9003 149.586 52.8854C149.57 52.8705 149.557 52.8525 149.547 52.8325C149.53 52.7917 149.529 52.7458 149.544 52.7043C149.56 52.6628 149.591 52.6288 149.631 52.6093C150.482 52.2178 151.198 51.5844 151.691 50.7885C152.183 49.9925 152.429 49.0693 152.398 48.1344C152.389 47.4479 152.244 46.7698 151.972 46.1392C151.7 45.5085 151.306 44.9377 150.813 44.4592C150.32 43.9807 149.737 43.604 149.097 43.3507C148.458 43.0974 147.775 42.9725 147.087 42.9831H146.893H146.787L146.737 42.8865C146.109 41.638 145.148 40.5875 143.959 39.8516C142.77 39.1158 141.399 38.7234 140 38.7181H139.857C137.989 38.7202 136.191 39.4254 134.821 40.6928C133.452 41.9603 132.612 43.6968 132.469 45.5554V45.7454L132.279 45.7054C131.776 45.5944 131.256 45.5835 130.749 45.6731C130.242 45.7628 129.758 45.9514 129.324 46.228C128.89 46.5047 128.514 46.8639 128.22 47.2854C127.925 47.7068 127.716 48.1821 127.605 48.6842C127.549 48.9346 127.518 49.1904 127.515 49.4472C127.467 50.2725 127.716 51.0879 128.218 51.7459C128.719 52.404 129.44 52.8615 130.249 53.0358C130.293 53.0407 130.334 53.0629 130.362 53.0975C130.39 53.1322 130.403 53.1765 130.398 53.2207C130.393 53.2649 130.371 53.3053 130.336 53.3331C130.301 53.3609 130.257 53.3739 130.212 53.369L130.216 53.3723Z" fill="#E3E3E3"/>
        <path d="M155.688 23.7173C158.006 23.7173 159.884 21.8421 159.884 19.5289C159.884 17.2158 158.006 15.3406 155.688 15.3406C153.371 15.3406 151.492 17.2158 151.492 19.5289C151.492 21.8421 153.371 23.7173 155.688 23.7173Z" fill="#71A5D2"/>
        <path d="M154.456 25.8233C153.475 25.824 152.515 25.534 151.699 24.9902C150.883 24.4464 150.246 23.6732 149.87 22.7683C149.495 21.8634 149.396 20.8676 149.587 19.9068C149.779 18.946 150.251 18.0634 150.945 17.3708C151.639 16.6781 152.523 16.2064 153.486 16.0155C154.448 15.8246 155.446 15.9229 156.353 16.2981C157.259 16.6733 158.034 17.3084 158.579 18.1232C159.124 18.9379 159.414 19.8957 159.413 20.8752C159.412 22.187 158.889 23.4445 157.959 24.3721C157.03 25.2996 155.77 25.8216 154.456 25.8233ZM154.456 16.3837C153.566 16.3837 152.696 16.6471 151.956 17.1406C151.216 17.6342 150.639 18.3357 150.299 19.1564C149.958 19.9772 149.869 20.8802 150.043 21.7515C150.216 22.6228 150.645 23.4231 151.274 24.0512C151.904 24.6794 152.705 25.1072 153.578 25.2805C154.451 25.4538 155.356 25.3648 156.178 25.0249C157 24.6849 157.703 24.1092 158.198 23.3706C158.692 22.632 158.956 21.7636 158.956 20.8752C158.955 19.6843 158.481 18.5424 157.637 17.7002C156.793 16.8581 155.649 16.3846 154.456 16.3837Z" fill="#E3E3E3"/>
        <path d="M154.586 38.4115C153.688 38.4115 152.828 38.056 152.193 37.423C151.559 36.7901 151.202 35.9316 151.201 35.0361V34.8795C151.172 34.4097 151.011 33.9575 150.735 33.5753C150.46 33.193 150.082 32.8962 149.645 32.7193C149.208 32.5423 148.73 32.4923 148.266 32.575C147.801 32.6578 147.37 32.8698 147.021 33.1868L146.928 33.2801C146.298 33.9092 145.444 34.2648 144.553 34.2698C143.662 34.2748 142.805 33.9288 142.168 33.3068L142.144 33.2835C141.511 32.6496 141.156 31.7911 141.156 30.8961C141.156 30.0011 141.511 29.1426 142.144 28.5087L142.244 28.4121C142.568 28.076 142.786 27.6526 142.872 27.1942C142.958 26.7357 142.907 26.2622 142.727 25.8322C142.546 25.4021 142.243 25.0342 141.855 24.7738C141.468 24.5135 141.012 24.372 140.545 24.367H140.275C139.396 24.3394 138.562 23.9716 137.95 23.3413C137.338 22.711 136.996 21.8677 136.996 20.99C136.996 20.1123 137.338 19.269 137.95 18.6387C138.562 18.0084 139.396 17.6405 140.275 17.613H140.418C140.89 17.5848 141.343 17.4239 141.727 17.149C142.111 16.874 142.408 16.4963 142.586 16.0595C142.763 15.6227 142.813 15.1446 142.73 14.6807C142.646 14.2168 142.433 13.7859 142.114 13.438L142.021 13.348C141.549 12.8748 141.228 12.273 141.098 11.6181C140.969 10.9633 141.036 10.2847 141.292 9.66803C141.548 9.05132 141.981 8.52404 142.536 8.15252C143.092 7.781 143.745 7.58191 144.414 7.58031C145.299 7.57738 146.15 7.92342 146.781 8.54323L146.808 8.56991L146.901 8.66656C147.239 8.99723 147.67 9.21876 148.136 9.30254C148.602 9.38631 149.082 9.32842 149.515 9.13634L149.608 9.11633H149.688C150.103 8.92957 150.455 8.62765 150.703 8.24656C150.95 7.86546 151.082 7.42131 151.084 6.96719V6.70061C151.084 5.80542 151.44 4.94694 152.074 4.31394C152.708 3.68094 153.569 3.32532 154.465 3.32532C155.362 3.32532 156.222 3.68094 156.857 4.31394C157.491 4.94694 157.847 5.80542 157.847 6.70061V6.84395C157.852 7.31066 157.994 7.76566 158.255 8.15276C158.517 8.53986 158.886 8.84209 159.317 9.02213C159.749 9.20217 160.223 9.25207 160.683 9.16579C161.142 9.0795 161.567 8.86077 161.903 8.53656L161.996 8.44325C162.632 7.81148 163.492 7.45675 164.388 7.45675C165.285 7.45675 166.145 7.81148 166.78 8.44325L166.807 8.46994C167.431 9.10453 167.779 9.95952 167.774 10.8488C167.77 11.7381 167.414 12.5896 166.783 13.2181L166.687 13.3147C166.355 13.652 166.132 14.0813 166.048 14.5467C165.964 15.0121 166.023 15.492 166.216 15.9237V16.0169V16.0936C166.403 16.5077 166.706 16.8593 167.087 17.1068C167.469 17.3543 167.914 17.4872 168.369 17.4897H168.636C169.533 17.4897 170.393 17.8454 171.027 18.4784C171.661 19.1114 172.018 19.9698 172.018 20.865C172.018 21.7602 171.661 22.6188 171.027 23.2518C170.393 23.8848 169.533 24.2404 168.636 24.2404H168.496C168.034 24.2412 167.581 24.3773 167.196 24.6319C166.81 24.8866 166.508 25.2487 166.326 25.6732C166.133 26.1058 166.075 26.5863 166.16 27.0522C166.245 27.5181 166.468 27.9478 166.8 28.2855L166.894 28.3788C167.523 29.0066 167.879 29.8568 167.885 30.745C167.89 31.6332 167.545 32.4878 166.924 33.1236L166.894 33.1502C166.582 33.4675 166.21 33.7193 165.8 33.891C165.389 34.0627 164.948 34.1507 164.503 34.1498C163.62 34.1517 162.771 33.807 162.14 33.1902L162.097 33.1469L162.016 33.0669C161.68 32.7421 161.256 32.5229 160.796 32.4365C160.336 32.3501 159.861 32.4002 159.43 32.5808C158.998 32.7614 158.629 33.0644 158.369 33.4523C158.108 33.8402 157.967 34.2959 157.964 34.7629V35.0295C157.965 35.925 157.609 36.7842 156.976 37.4183C156.343 38.0525 155.483 38.4097 154.586 38.4115ZM148.674 32.0807C149.069 32.0811 149.46 32.1639 149.822 32.3239C150.354 32.5182 150.814 32.8686 151.142 33.3289C151.47 33.7892 151.651 34.3379 151.661 34.9029V35.0495C151.661 35.8236 151.969 36.566 152.518 37.1134C153.066 37.6608 153.81 37.9683 154.586 37.9683C155.361 37.9683 156.105 37.6608 156.653 37.1134C157.202 36.566 157.51 35.8236 157.51 35.0495V34.7829C157.514 34.2259 157.682 33.6824 157.993 33.2198C158.304 32.7572 158.744 32.3958 159.259 32.1805C159.773 31.9651 160.34 31.9053 160.888 32.0084C161.437 32.1114 161.943 32.3729 162.344 32.7603L162.44 32.8603C162.712 33.1313 163.034 33.3462 163.388 33.4925C163.743 33.6389 164.123 33.7139 164.507 33.7133C165.271 33.7148 166.005 33.4155 166.55 32.8803L166.576 32.8536C166.848 32.5829 167.063 32.2614 167.21 31.9075C167.357 31.5536 167.433 31.1742 167.433 30.7911C167.433 30.408 167.357 30.0287 167.21 29.6748C167.063 29.3209 166.848 28.9994 166.576 28.7286L166.483 28.632C166.096 28.2332 165.835 27.7303 165.73 27.185C165.626 26.6397 165.684 26.0759 165.897 25.5631C166.11 25.0503 166.469 24.6109 166.929 24.2989C167.389 23.9869 167.93 23.816 168.486 23.8072H168.629C169.405 23.8072 170.149 23.4997 170.697 22.9523C171.246 22.405 171.554 21.6625 171.554 20.8884C171.554 20.1143 171.246 19.3718 170.697 18.8244C170.149 18.277 169.405 17.9695 168.629 17.9695H168.362C167.81 17.9681 167.27 17.8051 166.81 17.5007C166.35 17.1963 165.989 16.7639 165.772 16.2569L165.752 16.1669V16.087C165.534 15.5749 165.474 15.0098 165.578 14.4633C165.683 13.9169 165.948 13.4139 166.339 13.0181L166.433 12.9216C166.705 12.6504 166.921 12.3284 167.068 11.9739C167.216 11.6194 167.291 11.2394 167.291 10.8556C167.291 10.4719 167.216 10.0919 167.068 9.73742C166.921 9.38294 166.705 9.06091 166.433 8.7898L166.406 8.7632C165.855 8.2281 165.115 7.9309 164.346 7.93589C163.577 7.94087 162.841 8.2476 162.297 8.7898L162.203 8.88644C161.803 9.27481 161.297 9.53719 160.748 9.64103C160.199 9.74486 159.632 9.68559 159.117 9.47052C158.602 9.25545 158.161 8.8941 157.85 8.4313C157.539 7.9685 157.371 7.4246 157.366 6.86722V6.72396C157.366 5.94983 157.058 5.20739 156.51 4.66C155.961 4.11261 155.218 3.80511 154.442 3.80511C153.667 3.80511 152.923 4.11261 152.374 4.66C151.826 5.20739 151.518 5.94983 151.518 6.72396V6.99388C151.516 7.54501 151.353 8.0835 151.048 8.54299C150.743 9.00247 150.31 9.36285 149.802 9.57953H149.712H149.632C149.119 9.79702 148.553 9.85766 148.006 9.75386C147.458 9.65005 146.954 9.38647 146.557 8.99642L146.457 8.89645C145.908 8.34943 145.163 8.04265 144.387 8.04359C143.611 8.04453 142.867 8.35307 142.319 8.90141C141.771 9.44975 141.464 10.193 141.465 10.9675C141.466 11.742 141.775 12.4844 142.324 13.0315L142.418 13.1248C142.798 13.5361 143.054 14.0468 143.154 14.5974C143.255 15.148 143.197 15.7159 142.988 16.2349C142.778 16.754 142.425 17.2029 141.969 17.5294C141.514 17.856 140.975 18.0468 140.415 18.0795H140.265C139.507 18.1051 138.788 18.4236 138.261 18.9679C137.734 19.5122 137.439 20.2396 137.439 20.9967C137.439 21.7537 137.734 22.4812 138.261 23.0255C138.788 23.5698 139.507 23.8883 140.265 23.9139H140.535C141.094 23.9182 141.638 24.0861 142.102 24.3968C142.566 24.7074 142.928 25.1472 143.143 25.6614C143.359 26.1756 143.418 26.7417 143.314 27.2893C143.21 27.837 142.947 28.3421 142.558 28.742L142.461 28.8386C141.919 29.3823 141.612 30.1172 141.607 30.8847C141.603 31.6522 141.901 32.3905 142.438 32.9403L142.478 32.9836C143.028 33.5249 143.77 33.8269 144.543 33.8238C145.315 33.8207 146.055 33.5127 146.601 32.967L146.694 32.8737C147.221 32.3556 147.931 32.0659 148.67 32.0673L148.674 32.0807Z" fill="#E3E3E3"/>
        <path d="M129.483 12.4186C130.932 12.4186 132.107 11.2461 132.107 9.79963C132.107 8.35322 130.932 7.18066 129.483 7.18066C128.034 7.18066 126.859 8.35322 126.859 9.79963C126.859 11.2461 128.034 12.4186 129.483 12.4186Z" fill="#71A5D2"/>
        <path d="M127.244 13.1283C126.679 12.8904 126.197 12.4905 125.859 11.9793C125.522 11.4681 125.344 10.8685 125.348 10.2563C125.352 9.6441 125.537 9.04679 125.881 8.53994C126.225 8.03308 126.712 7.63945 127.28 7.40879C127.849 7.17813 128.472 7.12078 129.073 7.24406C129.674 7.36734 130.225 7.66573 130.656 8.10139C131.087 8.53705 131.378 9.09046 131.494 9.69166C131.61 10.2929 131.545 10.9149 131.306 11.479C131.148 11.8535 130.917 12.1933 130.628 12.4789C130.338 12.7645 129.994 12.9904 129.617 13.1435C129.24 13.2967 128.836 13.3741 128.429 13.3715C128.022 13.3689 127.619 13.2863 127.244 13.1283ZM129.54 7.68708C129.027 7.4719 128.462 7.41336 127.916 7.51877C127.37 7.62419 126.867 7.88888 126.471 8.27938C126.076 8.66988 125.805 9.16868 125.693 9.71273C125.582 10.2568 125.634 10.8217 125.844 11.336C126.054 11.8504 126.411 12.2911 126.872 12.6025C127.333 12.9138 127.876 13.0819 128.432 13.0854C128.989 13.089 129.533 12.9278 129.998 12.6223C130.463 12.3168 130.826 11.8806 131.043 11.369C131.333 10.6831 131.339 9.91037 131.059 9.22017C130.779 8.52997 130.237 7.97863 129.55 7.68708H129.54Z" fill="#E3E3E3"/>
        <path d="M124.254 20.4153C123.737 20.1977 123.328 19.7842 123.117 19.2656C122.905 18.747 122.908 18.1658 123.126 17.6497L123.159 17.5697C123.26 17.2908 123.279 16.9891 123.214 16.6998C123.149 16.4105 123.003 16.1457 122.793 15.9361C122.583 15.7265 122.318 15.5808 122.028 15.5161C121.738 15.4514 121.436 15.4703 121.156 15.5705L121.08 15.6005C120.564 15.8095 119.986 15.8072 119.471 15.5939C118.957 15.3806 118.548 14.9735 118.332 14.4609V14.4443C118.121 13.9259 118.124 13.345 118.341 12.8289C118.558 12.3129 118.972 11.904 119.491 11.692L119.571 11.6587C119.839 11.5427 120.067 11.3509 120.228 11.107C120.388 10.8631 120.474 10.5777 120.474 10.2859C120.474 9.99411 120.388 9.70869 120.228 9.46478C120.067 9.22086 119.839 9.02915 119.571 8.91316L119.417 8.84979C118.917 8.62114 118.526 8.20726 118.326 7.6957C118.127 7.18414 118.135 6.61508 118.348 6.10917C118.562 5.60325 118.964 5.20022 119.47 4.98534C119.976 4.77046 120.546 4.76064 121.06 4.95801L121.14 4.99136C121.419 5.09309 121.722 5.11299 122.013 5.04879C122.303 4.98459 122.569 4.83896 122.78 4.62895C122.99 4.41895 123.136 4.15335 123.2 3.86339C123.265 3.57342 123.245 3.27117 123.143 2.99215L123.113 2.91885C122.901 2.39963 122.905 1.8178 123.122 1.30116C123.34 0.784532 123.754 0.375313 124.274 0.163266C124.531 0.0561358 124.806 0.000976562 125.084 0.000976562C125.362 0.000976562 125.637 0.0561358 125.893 0.163266C126.403 0.378143 126.808 0.78356 127.022 1.29279V1.3128L127.052 1.39276C127.166 1.66531 127.36 1.89715 127.608 2.05819C127.857 2.21923 128.148 2.302 128.444 2.29573H128.504L128.547 2.3124C128.833 2.30693 129.111 2.21911 129.348 2.05949C129.585 1.89987 129.77 1.67528 129.882 1.41277L129.946 1.25951C130.175 0.76043 130.59 0.369912 131.102 0.17075C131.615 -0.0284115 132.185 -0.0206367 132.692 0.19247C133.198 0.405577 133.602 0.807309 133.818 1.31247C134.033 1.81763 134.043 2.38658 133.845 2.89884L133.811 2.98214C133.7 3.25244 133.67 3.54946 133.726 3.83638C133.783 4.1233 133.922 4.38752 134.127 4.59617C134.332 4.80482 134.594 4.9487 134.88 5.01007C135.167 5.07144 135.465 5.04753 135.738 4.94133L135.811 4.90806C136.331 4.69693 136.914 4.70042 137.432 4.91782C137.949 5.13522 138.359 5.54875 138.572 6.0676V6.09094C138.777 6.60811 138.77 7.1854 138.551 7.69716C138.332 8.20893 137.92 8.61368 137.403 8.82318L137.327 8.85312C137.053 8.96687 136.82 9.16032 136.658 9.40816C136.496 9.656 136.413 9.94679 136.419 10.2426V10.3026V10.3459C136.424 10.6313 136.512 10.909 136.672 11.1456C136.831 11.3821 137.057 11.5673 137.32 11.6787L137.473 11.742C137.738 11.8438 137.979 11.9974 138.183 12.194C138.387 12.3906 138.549 12.626 138.66 12.8864C138.771 13.1467 138.828 13.4266 138.829 13.7095C138.829 13.9924 138.773 14.2726 138.663 14.5333C138.553 14.7941 138.392 15.0301 138.188 15.2274C137.985 15.4247 137.745 15.5792 137.48 15.6818C137.216 15.7845 136.934 15.8332 136.651 15.8249C136.368 15.8167 136.089 15.7516 135.831 15.6338L135.748 15.6005C135.481 15.4894 135.187 15.4586 134.903 15.5119C134.619 15.5652 134.357 15.7002 134.149 15.9004C133.932 16.1025 133.781 16.3651 133.716 16.654C133.652 16.9429 133.675 17.2446 133.785 17.5197L133.818 17.5963C134.028 18.111 134.026 18.6874 133.813 19.2007C133.6 19.714 133.193 20.1228 132.68 20.3387H132.656C132.4 20.4451 132.125 20.4998 131.847 20.4998C131.569 20.4998 131.294 20.4451 131.037 20.3387C130.528 20.1261 130.122 19.7214 129.909 19.2124V19.1758L129.882 19.1124C129.766 18.8447 129.574 18.6167 129.33 18.4566C129.085 18.2964 128.799 18.2111 128.507 18.2111C128.215 18.2111 127.929 18.2964 127.684 18.4566C127.44 18.6167 127.248 18.8447 127.132 19.1124L127.068 19.2657C126.963 19.5285 126.806 19.7675 126.606 19.9685C126.406 20.1694 126.168 20.3282 125.905 20.4355C125.643 20.5427 125.361 20.5962 125.078 20.5927C124.794 20.5892 124.514 20.5289 124.254 20.4153ZM122.388 15.3273C122.822 15.5161 123.169 15.8604 123.361 16.2923C123.552 16.7242 123.574 17.2122 123.423 17.6597L123.39 17.7463C123.213 18.1905 123.218 18.6861 123.403 19.1267C123.588 19.5674 123.939 19.918 124.38 20.1033C124.822 20.2887 125.318 20.294 125.763 20.1181C126.208 19.9421 126.567 19.5991 126.761 19.1625L126.825 19.0092C126.962 18.6888 127.19 18.4156 127.482 18.2237C127.773 18.0317 128.115 17.9294 128.464 17.9294C128.813 17.9294 129.154 18.0317 129.446 18.2237C129.737 18.4156 129.966 18.6888 130.103 19.0092L130.136 19.0892C130.227 19.3144 130.363 19.5191 130.535 19.6908C130.707 19.8626 130.912 19.9979 131.138 20.0888C131.577 20.2757 132.073 20.2817 132.516 20.1054H132.54C132.762 20.015 132.964 19.8818 133.135 19.7133C133.306 19.5447 133.442 19.3442 133.535 19.1232C133.628 18.9023 133.676 18.6651 133.677 18.4254C133.678 18.1857 133.632 17.9481 133.541 17.7263L133.511 17.6497C133.384 17.3253 133.356 16.971 133.429 16.6307C133.502 16.2903 133.674 15.9788 133.922 15.7348C134.171 15.4908 134.486 15.3249 134.828 15.2578C135.171 15.1907 135.525 15.2253 135.848 15.3572L135.928 15.3906C136.149 15.4838 136.387 15.5325 136.627 15.5341C136.867 15.5356 137.106 15.49 137.328 15.3996C137.551 15.3093 137.753 15.176 137.924 15.0075C138.095 14.839 138.231 14.6386 138.325 14.4177C138.418 14.1967 138.467 13.9595 138.469 13.7197C138.47 13.4799 138.424 13.2421 138.334 13.0199C138.243 12.7978 138.11 12.5956 137.941 12.425C137.772 12.2543 137.571 12.1184 137.35 12.0252L137.193 11.9619C136.875 11.8267 136.604 11.6015 136.413 11.3144C136.222 11.0272 136.12 10.6906 136.118 10.3459V10.2892L136.138 10.246C136.136 9.89749 136.238 9.55635 136.432 9.26613C136.625 8.9759 136.9 8.74972 137.223 8.61656L137.3 8.58329C137.522 8.49294 137.725 8.35964 137.896 8.19111C138.066 8.02257 138.202 7.82208 138.295 7.60109C138.388 7.3801 138.437 7.14299 138.438 6.90329C138.439 6.66359 138.392 6.42599 138.301 6.20418V6.18091C138.113 5.73892 137.759 5.38842 137.314 5.20514C136.869 5.02187 136.37 5.02046 135.925 5.20124L135.848 5.23126C135.523 5.35694 135.168 5.38488 134.827 5.31171C134.486 5.23854 134.174 5.06745 133.93 4.81947C133.685 4.57149 133.519 4.25747 133.451 3.91618C133.383 3.5749 133.417 3.22127 133.548 2.89884L133.584 2.81888C133.773 2.3726 133.776 1.86981 133.594 1.42115C133.411 0.972493 133.057 0.614738 132.61 0.426509C132.163 0.238279 131.659 0.235016 131.209 0.417479C130.76 0.599943 130.401 0.953161 130.213 1.39943L130.149 1.55603C130.014 1.87306 129.788 2.14355 129.501 2.3342C129.213 2.52485 128.876 2.62731 128.53 2.62893H128.474L128.427 2.60892C128.078 2.61019 127.737 2.50794 127.447 2.31509C127.157 2.12224 126.931 1.84752 126.798 1.52601L126.765 1.44605C126.581 0.997564 126.227 0.640152 125.78 0.452377C125.332 0.264603 124.829 0.261885 124.379 0.444812C123.93 0.627739 123.572 0.98135 123.384 1.42782C123.196 1.8743 123.193 2.37707 123.376 2.82555L123.406 2.90218C123.526 3.23208 123.548 3.58901 123.472 3.93139C123.396 4.27378 123.224 4.58746 122.976 4.83582C122.727 5.08419 122.414 5.25699 122.071 5.33408C121.728 5.41117 121.37 5.38936 121.04 5.2712L120.953 5.23459C120.508 5.05819 120.011 5.06291 119.57 5.24777C119.128 5.43263 118.777 5.78291 118.591 6.22338C118.406 6.66385 118.4 7.15946 118.577 7.60378C118.753 8.0481 119.097 8.40567 119.534 8.59988L119.688 8.66325C120.009 8.80025 120.282 9.02833 120.474 9.31916C120.667 9.61 120.769 9.95078 120.769 10.2992C120.769 10.6477 120.667 10.9885 120.474 11.2793C120.282 11.5702 120.009 11.7982 119.688 11.9352L119.607 11.9686C119.164 12.1519 118.81 12.502 118.623 12.9434C118.435 13.3848 118.429 13.882 118.606 14.3277V14.3643C118.79 14.8113 119.143 15.1675 119.589 15.3549C120.035 15.5422 120.538 15.5454 120.986 15.3639L121.063 15.334C121.487 15.1594 121.962 15.157 122.388 15.3273Z" fill="#E3E3E3"/>
    </g>
    <defs>
        <clipPath id="clip0_6062_16427">
            <rect width="272" height="110" fill="white"/>
        </clipPath>
    </defs>
</svg>
