<svg width="215" height="144" viewBox="0 0 215 144" fill="none" xmlns="http://www.w3.org/2000/svg">
    <g clip-path="url(#clip0_6062_15856)">
        <path d="M185.336 80.1963V86.3003H68.1602V76.2975C68.1602 74.741 68.7814 73.2482 69.8873 72.1476C70.9932 71.0471 72.4931 70.4288 74.0571 70.4288H175.429C175.634 70.4265 175.838 70.4671 176.027 70.5482C176.215 70.6294 176.385 70.7491 176.524 70.8997C176.663 71.0502 176.769 71.2282 176.834 71.4221C176.9 71.616 176.924 71.8215 176.904 72.0252C176.808 72.8388 176.88 73.6633 177.114 74.4487C177.348 75.2341 177.739 75.9639 178.265 76.5941C178.791 77.2242 179.44 77.7415 180.173 78.1144C180.906 78.4874 181.708 78.7082 182.529 78.7636C182.92 78.7902 183.313 78.7782 183.701 78.7278C183.908 78.7055 184.117 78.7268 184.315 78.7905C184.513 78.8543 184.695 78.9589 184.849 79.0975C185.004 79.2362 185.127 79.4058 185.21 79.5951C185.294 79.7845 185.337 79.9893 185.336 80.1963Z" fill="#EAB669"/>
        <ellipse cx="78.8087" cy="77.237" rx="2.5587" ry="2.55827" fill="#1B1B1C"/>
        <ellipse cx="85.9728" cy="77.237" rx="2.55871" ry="2.55827" fill="#1B1B1C"/>
        <ellipse cx="93.1368" cy="77.237" rx="2.55871" ry="2.55827" fill="#1B1B1C"/>
        <path d="M132.871 53.1306C132.871 53.1306 108.367 60.391 106.563 64.1261C104.758 67.8612 172.757 68.5314 174.001 65.3847C175.246 62.2381 149.971 50.2756 147.472 51.2529C144.973 52.2301 138.393 54.2563 132.871 53.1306Z" fill="#252525"/>
        <path d="M139.921 16.4343C144.481 16.4343 148.178 12.7554 148.178 8.21717C148.178 3.67895 144.481 0 139.921 0C135.361 0 131.664 3.67895 131.664 8.21717C131.664 12.7554 135.361 16.4343 139.921 16.4343Z" fill="#252525"/>
        <path d="M156.267 29.7118C156.267 29.7118 156.781 15.8971 141.871 14.9659C126.961 14.0347 119.121 20.9164 121.578 33.0426C121.913 34.4241 124.01 30.6123 127.589 27.0563C131.167 23.5003 136.935 28.3661 149.444 22.963C151.47 22.1393 156.467 36.7572 156.267 29.7118Z" fill="#252525"/>
        <path d="M121.135 25.4191L120.621 25.3168C121.737 19.7755 125.439 13.2622 136.744 13.7738C142.94 14.0552 147.855 15.0786 151.366 16.8182L151.14 17.2787C147.69 15.5697 142.842 14.5618 136.719 14.2855C130.703 14.0245 123.089 15.7284 121.135 25.4191Z" fill="#45E5E5"/>
        <path d="M135.818 51.5287C130.317 51.5287 124.815 50.1012 121.422 45.573C120.579 45.5219 116.065 44.9847 115.726 39.6174C115.484 35.7032 116.003 33.4008 117.268 32.7715C118.065 32.3775 119.114 32.6589 120.384 33.6208C120.256 32.6022 120.184 31.5773 120.168 30.5509C120.167 30.5173 120.173 30.4839 120.185 30.4526C120.198 30.4213 120.216 30.3927 120.24 30.3685C120.263 30.3442 120.291 30.3248 120.322 30.3113C120.353 30.2979 120.386 30.2906 120.42 30.2899C120.488 30.2924 120.552 30.3199 120.601 30.3673C120.649 30.4146 120.678 30.4782 120.682 30.5457C120.694 31.7728 120.797 32.9973 120.99 34.2092L121.124 34.9255L120.574 34.4497C119.232 33.3036 118.194 32.9147 117.489 33.2473C116.461 33.7589 116.003 36.0205 116.23 39.6072C116.569 45.0256 121.34 45.087 121.546 45.087H121.674L121.751 45.1893C124.101 48.3922 129.119 51.9636 139.684 50.7868C146.162 50.0654 152.023 47.809 153.052 47.2666C154.841 46.2945 154.368 43.4497 154.363 43.419L154.296 43.0455L154.671 43.1273C155.15 43.2645 155.654 43.2989 156.147 43.2283C156.641 43.1578 157.114 42.9839 157.535 42.718C158.882 41.8073 159.838 39.6481 160.378 36.3633C160.758 34.0301 160.491 32.5156 159.612 31.9733C159.555 31.9365 159.515 31.8791 159.499 31.8133C159.484 31.7474 159.495 31.6782 159.53 31.6202C159.547 31.5911 159.57 31.5658 159.598 31.5458C159.625 31.5258 159.657 31.5115 159.69 31.5038C159.723 31.4962 159.757 31.4953 159.791 31.5013C159.824 31.5072 159.856 31.5198 159.884 31.5384C160.969 32.2086 161.309 33.8562 160.887 36.4451C160.316 39.9448 159.314 42.1347 157.802 43.1376C157.378 43.4174 156.903 43.6108 156.404 43.7066C155.904 43.8023 155.39 43.7985 154.892 43.6953C154.975 44.5702 154.99 46.7652 153.278 47.7117C151.71 48.556 143.761 51.5287 135.818 51.5287Z" fill="#E3E3E3"/>
        <path d="M157.657 30.6743H157.143V25.5577C157.161 24.0588 156.745 22.5863 155.945 21.3161L156.382 21.0449C157.229 22.3984 157.671 23.9636 157.657 25.5577V30.6743Z" fill="#45E5E5"/>
        <path d="M120.864 25.6231H120.812C120.779 25.6171 120.747 25.6043 120.719 25.5857C120.69 25.5671 120.666 25.5429 120.647 25.5147C120.629 25.4865 120.616 25.4549 120.61 25.4216C120.603 25.3884 120.604 25.3542 120.612 25.3213C121.727 19.7801 125.429 13.2667 136.735 13.7783C142.93 14.0598 147.845 15.083 151.357 16.8227C151.418 16.8525 151.465 16.9054 151.487 16.9697C151.51 17.034 151.505 17.1044 151.475 17.1655C151.445 17.2266 151.392 17.2732 151.327 17.2953C151.263 17.3174 151.192 17.313 151.131 17.2832C147.681 15.5742 142.832 14.5663 136.709 14.29C130.684 14.0291 123.069 15.7328 121.116 25.4236C121.103 25.4804 121.071 25.5312 121.025 25.5675C120.979 25.6038 120.922 25.6234 120.864 25.6231Z" fill="#E3E3E3"/>
        <path d="M155.239 34.9203C155.197 34.9253 155.153 34.9253 155.111 34.9203C155.026 34.8932 154.951 34.84 154.899 34.7683C154.846 34.6966 154.818 34.6101 154.818 34.5212C154.766 30.1159 154.216 25.117 152.802 24.2882C152.098 23.884 149.872 24.2882 147.054 24.7998C143.317 25.4905 138.206 26.4371 132.864 26.2222C132.83 26.2209 132.797 26.213 132.767 26.1989C132.736 26.1848 132.708 26.1648 132.685 26.1401C132.663 26.1154 132.645 26.0864 132.633 26.0549C132.621 26.0233 132.616 25.9898 132.617 25.9562C132.624 25.8896 132.655 25.8278 132.704 25.7824C132.753 25.7371 132.818 25.7115 132.885 25.7105C138.165 25.9306 143.245 24.984 146.957 24.2933C150.108 23.71 152.191 23.3211 153.059 23.8277C154.957 24.9226 155.28 31.2364 155.327 34.204L156.633 32.3621C156.969 31.8913 157.148 31.3278 157.147 30.7504V25.5673C157.164 24.0683 156.749 22.5959 155.949 21.3257C155.93 21.2974 155.917 21.2655 155.912 21.2322C155.906 21.1988 155.906 21.1647 155.914 21.1317C155.922 21.0987 155.936 21.0676 155.956 21.0402C155.976 21.0129 156.002 20.9899 156.031 20.9726C156.089 20.9379 156.159 20.927 156.225 20.9423C156.291 20.9576 156.349 20.9978 156.386 21.0545C157.232 22.408 157.674 23.9731 157.661 25.5673V30.7657C157.664 31.4493 157.452 32.1166 157.054 32.6742L155.584 34.7208C155.548 34.7801 155.497 34.8294 155.437 34.8642C155.377 34.8991 155.309 34.9184 155.239 34.9203Z" fill="#E3E3E3"/>
        <path d="M154.004 37.2331H142.801L143.906 36.7215C146.757 35.6093 149.924 35.6093 152.775 36.7215L154.004 37.2331ZM145.731 36.7215H151.022C149.281 36.3272 147.473 36.3272 145.731 36.7215Z" fill="#E3E3E3"/>
        <path d="M135.937 37.2331H124.734L125.84 36.7215C128.691 35.6093 131.858 35.6093 134.709 36.7215L135.937 37.2331ZM127.67 36.7215H132.955C131.216 36.3273 129.41 36.3273 127.67 36.7215Z" fill="#E3E3E3"/>
        <path d="M140.27 35.4476L140.604 34.936C141.503 33.6159 151.478 31.866 152.614 31.6818L154.156 31.4209L151.313 32.9559L153.406 33.6466L153.272 34.1582C151.344 33.7643 140.979 35.3248 140.876 35.3453L140.27 35.4476ZM151.143 32.4902C147.945 33.0838 143.992 33.9485 142.1 34.6597C144.341 34.3373 148.876 33.7285 151.565 33.6364L150.023 33.1247L151.143 32.4902Z" fill="#E3E3E3"/>
        <path d="M136.604 35.4473L136.023 35.3603C135.967 35.3603 130.466 34.5212 126.723 34.2193L126.764 33.7077C129.386 33.9174 132.861 34.3882 134.748 34.6542C132.398 33.8729 129.992 33.2675 127.55 32.843L127.648 32.3313C135.55 33.9123 136.085 34.6951 136.26 34.951L136.604 35.4473Z" fill="#E3E3E3"/>
        <path d="M137.285 42.4208C138.404 42.6966 139.572 42.7141 140.699 42.4719C140.709 42.4672 140.721 42.4647 140.732 42.4643C140.744 42.4639 140.755 42.4658 140.766 42.4699C140.776 42.4739 140.786 42.48 140.795 42.4878C140.803 42.4956 140.81 42.505 140.815 42.5155C140.819 42.5259 140.822 42.5371 140.822 42.5485C140.823 42.5599 140.821 42.5713 140.817 42.582C140.813 42.5927 140.806 42.6025 140.799 42.6108C140.791 42.6192 140.781 42.6259 140.771 42.6306C140.051 43.0552 138.586 43.6539 137.213 42.5743C137.197 42.5622 137.187 42.5452 137.182 42.5261C137.178 42.507 137.18 42.4869 137.188 42.4691C137.196 42.4514 137.21 42.4369 137.228 42.4281C137.246 42.4194 137.266 42.4168 137.285 42.4208Z" fill="#E3E3E3"/>
        <path d="M138.704 48.7401C137.885 48.7411 137.07 48.631 136.282 48.4127C136.218 48.3926 136.163 48.3481 136.132 48.2887C136.1 48.2294 136.093 48.1599 136.112 48.0955C136.122 48.0633 136.137 48.0333 136.158 48.0073C136.18 47.9813 136.206 47.9598 136.236 47.9441C136.266 47.9283 136.298 47.9187 136.332 47.9157C136.365 47.9127 136.399 47.9164 136.431 47.9266C137.841 48.3108 139.329 48.3108 140.739 47.9266C140.804 47.9056 140.875 47.9111 140.935 47.9418C140.996 47.9725 141.042 48.0259 141.063 48.0904C141.083 48.1548 141.077 48.2244 141.046 48.2845C141.016 48.3446 140.963 48.3905 140.899 48.4127C140.189 48.6366 139.448 48.7471 138.704 48.7401Z" fill="#E3E3E3"/>
        <path d="M135.771 12.9042C136.555 12.3591 137.478 12.047 138.433 12.0044C139.388 11.9618 140.336 12.1905 141.165 12.6637C141.186 12.674 141.204 12.6914 141.214 12.713C141.224 12.7346 141.226 12.759 141.22 12.7821C141.214 12.8051 141.2 12.8253 141.18 12.8392C141.161 12.8531 141.137 12.8598 141.113 12.8581C140.044 12.8018 137.226 12.6944 135.818 13.0065C135.804 13.0113 135.79 13.0109 135.777 13.0053C135.763 12.9998 135.753 12.9895 135.747 12.9766C135.741 12.9637 135.741 12.9491 135.745 12.9357C135.75 12.9222 135.759 12.911 135.771 12.9042Z" fill="#E3E3E3"/>
        <path d="M141.078 46.3713C138.502 46.3646 135.927 46.2177 133.366 45.9313C133.298 45.9225 133.236 45.8871 133.194 45.8329C133.153 45.7786 133.134 45.7101 133.143 45.6422C133.152 45.5744 133.187 45.5128 133.242 45.471C133.296 45.4293 133.365 45.4108 133.433 45.4196C137.101 45.8351 140.796 45.9447 144.482 45.7471C144.55 45.7428 144.617 45.7649 144.669 45.8089C144.721 45.8528 144.753 45.9151 144.76 45.9825C144.762 46.0161 144.757 46.0498 144.746 46.0816C144.735 46.1134 144.718 46.1428 144.695 46.168C144.673 46.1932 144.646 46.2137 144.615 46.2284C144.585 46.2431 144.552 46.2517 144.518 46.2536C143.351 46.3406 142.194 46.3713 141.078 46.3713Z" fill="#E3E3E3"/>
        <path d="M145.543 14.2597C145.498 14.26 145.453 14.2476 145.414 14.2239C145.356 14.1897 145.314 14.134 145.296 14.0689C145.279 14.0037 145.288 13.9344 145.322 13.876C146.012 12.7113 146.422 11.404 146.522 10.0557C146.621 8.70747 146.407 7.35451 145.896 6.10193C145.385 4.84935 144.591 3.73086 143.575 2.83336C142.559 1.93585 141.349 1.28346 140.039 0.926894C138.728 0.570324 137.353 0.51916 136.02 0.77737C134.686 1.03558 133.43 1.59621 132.35 2.41573C131.27 3.23525 130.394 4.2916 129.79 5.50271C129.187 6.71382 128.871 8.04712 128.87 9.39901C128.869 9.85311 128.905 10.3065 128.978 10.7549C128.986 10.8219 128.969 10.8897 128.929 10.9441C128.889 10.9985 128.829 11.0352 128.762 11.0465C128.728 11.0516 128.694 11.0501 128.661 11.042C128.628 11.034 128.598 11.0196 128.57 10.9996C128.543 10.9796 128.52 10.9545 128.503 10.9257C128.485 10.8969 128.474 10.8649 128.469 10.8316C128.395 10.3576 128.357 9.87871 128.355 9.39901C128.355 7.96736 128.687 6.55492 129.324 5.27158C129.962 3.98825 130.889 2.86861 132.032 1.99976C133.175 1.13091 134.505 0.536259 135.917 0.262093C137.329 -0.0120721 138.785 0.0416356 140.173 0.419019C141.56 0.796401 142.842 1.48731 143.918 2.43797C144.993 3.38863 145.834 4.57342 146.374 5.90019C146.915 7.22696 147.141 8.65994 147.034 10.0876C146.927 11.5153 146.491 12.8993 145.759 14.1318C145.737 14.1697 145.706 14.2014 145.668 14.2238C145.63 14.2462 145.587 14.2586 145.543 14.2597Z" fill="#E3E3E3"/>
        <path d="M121.314 41.4335C121.251 41.4329 121.191 41.4098 121.143 41.3685C121.096 41.3271 121.065 41.2703 121.057 41.2084C121.057 41.1623 120.445 36.4807 118.512 35.3244C118.483 35.307 118.457 35.2841 118.437 35.2569C118.417 35.2297 118.402 35.1988 118.394 35.166C118.386 35.1331 118.385 35.099 118.39 35.0656C118.395 35.0322 118.407 35.0002 118.424 34.9713C118.461 34.9137 118.518 34.8724 118.584 34.8562C118.65 34.84 118.72 34.8501 118.779 34.8843C120.923 36.1737 121.54 40.9423 121.566 41.147C121.575 41.2141 121.556 41.282 121.515 41.3357C121.473 41.3894 121.412 41.4246 121.345 41.4335H121.314Z" fill="#E3E3E3"/>
        <path d="M155.879 39.699C155.819 39.699 155.762 39.6786 155.716 39.6413C155.67 39.604 155.639 39.5521 155.627 39.4943C155.149 37.0844 157.334 34.782 157.426 34.6848C157.475 34.6416 157.537 34.6181 157.602 34.6192C157.667 34.6202 157.729 34.6456 157.776 34.6902C157.823 34.7349 157.851 34.7956 157.855 34.86C157.859 34.9245 157.838 34.988 157.796 35.0378C157.796 35.0634 155.709 37.2481 156.131 39.3971C156.138 39.4297 156.139 39.4636 156.133 39.4965C156.127 39.5294 156.114 39.5608 156.095 39.5886C156.076 39.6164 156.052 39.64 156.024 39.6581C155.995 39.6762 155.963 39.6884 155.93 39.6938L155.879 39.699Z" fill="#E3E3E3"/>
        <path d="M86.1279 143.714H74.3029C72.2011 143.711 70.1863 142.879 68.7001 141.4C67.214 139.921 66.3777 137.915 66.375 135.824V110.543C66.375 110.475 66.4021 110.41 66.4503 110.362C66.4985 110.314 66.5639 110.287 66.6321 110.287C66.7002 110.287 66.7656 110.314 66.8138 110.362C66.862 110.41 66.8891 110.475 66.8891 110.543V135.824C66.8919 137.78 67.6739 139.655 69.0637 141.038C70.4534 142.421 72.3375 143.199 74.3029 143.202H86.1279C86.1961 143.202 86.2615 143.229 86.3097 143.277C86.3579 143.325 86.385 143.39 86.385 143.458C86.385 143.526 86.3579 143.591 86.3097 143.639C86.2615 143.687 86.1961 143.714 86.1279 143.714Z" fill="#E3E3E3"/>
        <path d="M66.6516 90.2661C66.5838 90.2648 66.5193 90.2375 66.4713 90.1898C66.4234 90.1421 66.3958 90.0778 66.3945 90.0103V74.9626C66.3959 72.8705 67.2314 70.8645 68.7179 69.3852C70.2044 67.9059 72.2202 67.0742 74.3224 67.0729H92.9288C92.997 67.0729 93.0624 67.0998 93.1106 67.1478C93.1588 67.1958 93.1859 67.2609 93.1859 67.3287C93.1846 67.3961 93.157 67.4604 93.1091 67.5081C93.0612 67.5558 92.9966 67.5832 92.9288 67.5845H74.3224C72.3566 67.5859 70.4717 68.3636 69.0817 69.747C67.6916 71.1304 66.91 73.0062 66.9087 74.9626V90.0103C66.9087 90.0782 66.8816 90.1433 66.8334 90.1913C66.7851 90.2392 66.7198 90.2661 66.6516 90.2661Z" fill="#E3E3E3"/>
        <path d="M192.265 143.714H106.831C106.763 143.714 106.698 143.687 106.65 143.639C106.601 143.591 106.574 143.526 106.574 143.458C106.574 143.39 106.601 143.325 106.65 143.277C106.698 143.229 106.763 143.202 106.831 143.202H192.265C194.23 143.199 196.114 142.421 197.504 141.038C198.894 139.655 199.676 137.78 199.678 135.824V110.589C199.678 110.521 199.706 110.456 199.754 110.408C199.802 110.36 199.867 110.333 199.935 110.333C200.003 110.335 200.068 110.362 200.116 110.41C200.164 110.457 200.191 110.522 200.193 110.589V135.824C200.19 137.916 199.354 139.921 197.868 141.4C196.381 142.879 194.366 143.711 192.265 143.714Z" fill="#E3E3E3"/>
        <path d="M199.937 90.0049C199.869 90.0049 199.803 89.978 199.755 89.93C199.707 89.8821 199.68 89.817 199.68 89.7491V81.7776C199.68 81.7097 199.707 81.6447 199.755 81.5967C199.803 81.5487 199.869 81.5217 199.937 81.5217C200.005 81.523 200.069 81.5504 200.117 81.5981C200.165 81.6458 200.193 81.7101 200.194 81.7776V89.7491C200.194 89.817 200.167 89.8821 200.119 89.93C200.07 89.978 200.005 90.0049 199.937 90.0049Z" fill="#E3E3E3"/>
        <path d="M175.649 67.5845H102.534C102.466 67.5845 102.401 67.5576 102.353 67.5096C102.304 67.4616 102.277 67.3966 102.277 67.3287C102.277 67.2609 102.304 67.1958 102.353 67.1478C102.401 67.0998 102.466 67.0729 102.534 67.0729H175.649C175.717 67.0729 175.783 67.0998 175.831 67.1478C175.879 67.1958 175.906 67.2609 175.906 67.3287C175.905 67.3961 175.877 67.4604 175.829 67.5081C175.782 67.5558 175.717 67.5832 175.649 67.5845Z" fill="#E3E3E3"/>
        <path d="M85.4437 101.671C84.7888 101.671 84.1488 101.478 83.6043 101.115C83.0598 100.753 82.6354 100.239 82.3848 99.6367C82.1341 99.0346 82.0687 98.3721 82.1965 97.7329C82.3242 97.0937 82.6394 96.5066 83.1025 96.0458C83.5655 95.585 84.1555 95.2711 84.7978 95.144C85.44 95.0169 86.1059 95.0821 86.7109 95.3315C87.316 95.5809 87.833 96.0033 88.1969 96.5451C88.5607 97.087 88.7547 97.7241 88.7547 98.3758C88.7533 99.2492 88.404 100.087 87.7834 100.704C87.1628 101.322 86.3214 101.669 85.4437 101.671ZM85.4437 95.5923C84.8905 95.5923 84.3499 95.7556 83.89 96.0614C83.43 96.3673 83.0714 96.8019 82.8597 97.3105C82.648 97.8191 82.5926 98.3788 82.7006 98.9188C82.8085 99.4587 83.0748 99.9546 83.466 100.344C83.8571 100.733 84.3556 100.998 84.8982 101.106C85.4407 101.213 86.0031 101.158 86.5141 100.947C87.0252 100.737 87.462 100.38 87.7693 99.9221C88.0767 99.4644 88.2405 98.9263 88.2405 98.3758C88.2392 97.638 87.9441 96.9308 87.4199 96.4091C86.8957 95.8874 86.1851 95.5937 85.4437 95.5923Z" fill="#E3E3E3"/>
        <path d="M85.4438 111.863C84.7887 111.863 84.1485 111.67 83.6039 111.307C83.0593 110.945 82.6348 110.43 82.3843 109.828C82.1339 109.225 82.0686 108.563 82.1968 107.923C82.325 107.284 82.6408 106.697 83.1043 106.236C83.5679 105.776 84.1585 105.462 84.8011 105.336C85.4437 105.209 86.1096 105.275 86.7146 105.525C87.3195 105.775 87.8363 106.198 88.1995 106.741C88.5627 107.284 88.7558 107.921 88.7548 108.573C88.7534 109.446 88.404 110.283 87.7832 110.9C87.1624 111.517 86.321 111.863 85.4438 111.863ZM85.4438 105.79C84.8906 105.79 84.35 105.953 83.8901 106.259C83.4301 106.565 83.0715 106.999 82.8598 107.508C82.6481 108.016 82.5927 108.576 82.7007 109.116C82.8086 109.656 83.0749 110.152 83.4661 110.541C83.8572 110.93 84.3557 111.196 84.8983 111.303C85.4408 111.41 86.0032 111.355 86.5142 111.145C87.0253 110.934 87.4621 110.577 87.7694 110.119C88.0768 109.662 88.2406 109.124 88.2406 108.573C88.2393 107.835 87.9442 107.128 87.42 106.606C86.8958 106.085 86.1851 105.791 85.4438 105.79Z" fill="#E3E3E3"/>
        <path d="M85.4438 122.06C84.7887 122.06 84.1485 121.867 83.6039 121.505C83.0593 121.142 82.6348 120.627 82.3843 120.025C82.1339 119.423 82.0686 118.76 82.1968 118.12C82.325 117.481 82.6408 116.894 83.1043 116.433C83.5679 115.973 84.1585 115.659 84.8011 115.533C85.4437 115.406 86.1096 115.472 86.7146 115.722C87.3195 115.973 87.8363 116.396 88.1995 116.938C88.5627 117.481 88.7558 118.118 88.7548 118.77C88.7534 119.643 88.404 120.48 87.7832 121.097C87.1624 121.714 86.321 122.06 85.4438 122.06ZM85.4438 115.987C84.8906 115.987 84.35 116.15 83.8901 116.456C83.4301 116.762 83.0715 117.197 82.8598 117.705C82.6481 118.214 82.5927 118.773 82.7007 119.313C82.8086 119.853 83.0749 120.349 83.4661 120.738C83.8572 121.128 84.3557 121.393 84.8983 121.5C85.4408 121.608 86.0032 121.552 86.5142 121.342C87.0253 121.131 87.4621 120.774 87.7694 120.317C88.0768 119.859 88.2406 119.321 88.2406 118.77C88.2393 118.032 87.9442 117.325 87.42 116.804C86.8958 116.282 86.1851 115.988 85.4438 115.987Z" fill="#E3E3E3"/>
        <path d="M85.4437 132.257C84.7888 132.257 84.1488 132.064 83.6043 131.702C83.0598 131.34 82.6354 130.825 82.3848 130.223C82.1341 129.621 82.0687 128.959 82.1965 128.32C82.3242 127.68 82.6394 127.093 83.1025 126.632C83.5655 126.172 84.1555 125.858 84.7978 125.731C85.44 125.604 86.1059 125.669 86.7109 125.918C87.316 126.168 87.833 126.59 88.1969 127.132C88.5607 127.674 88.7547 128.311 88.7547 128.962C88.7533 129.836 88.404 130.673 87.7834 131.291C87.1628 131.909 86.3214 132.256 85.4437 132.257ZM85.4437 126.184C84.8903 126.184 84.3493 126.347 83.8892 126.654C83.4292 126.96 83.0708 127.395 82.8592 127.904C82.6477 128.412 82.5927 128.972 82.7011 129.512C82.8094 130.052 83.0763 130.548 83.468 130.937C83.8597 131.327 84.3583 131.591 84.9012 131.698C85.4441 131.805 86.0067 131.749 86.5176 131.538C87.0286 131.326 87.4651 130.969 87.7718 130.51C88.0786 130.052 88.2416 129.513 88.2405 128.962C88.2392 128.225 87.944 127.518 87.4196 126.998C86.8953 126.477 86.1846 126.184 85.4437 126.184Z" fill="#E3E3E3"/>
        <path d="M17.5608 75.6222C17.1415 75.6233 16.7311 75.5004 16.382 75.2691C16.0328 75.0379 15.7607 74.7087 15.5997 74.3233C15.4388 73.9379 15.3964 73.5137 15.478 73.1043C15.5595 72.6949 15.7613 72.3188 16.0579 72.0237C16.3544 71.7286 16.7322 71.5277 17.1436 71.4465C17.555 71.3653 17.9814 71.4075 18.3687 71.5677C18.756 71.7279 19.0868 71.9988 19.3191 72.3463C19.5515 72.6937 19.6749 73.102 19.6739 73.5194C19.6725 74.0767 19.4495 74.6108 19.0535 75.0049C18.6576 75.3989 18.1209 75.6209 17.5608 75.6222ZM17.5608 71.8207C17.223 71.8197 16.8925 71.9184 16.6112 72.1044C16.3298 72.2905 16.11 72.5554 15.98 72.8657C15.8501 73.176 15.8156 73.5178 15.8809 73.8476C15.9462 74.1775 16.1083 74.4807 16.3468 74.7187C16.5853 74.9568 16.8894 75.1191 17.2207 75.185C17.5519 75.251 17.8956 75.2177 18.2078 75.0892C18.52 74.9608 18.7867 74.7431 18.9745 74.4637C19.1622 74.1842 19.2627 73.8555 19.2627 73.5194C19.2647 73.2954 19.2222 73.0733 19.1376 72.8658C19.0531 72.6583 18.928 72.4694 18.7699 72.3101C18.6117 72.1508 18.4236 72.0242 18.2161 71.9376C18.0086 71.8509 17.7859 71.806 17.5608 71.8053V71.8207Z" fill="#E3E3E3"/>
        <path d="M12.087 75.6225C11.6678 75.6225 11.2581 75.4988 10.9096 75.2669C10.5612 75.0351 10.2895 74.7055 10.1294 74.32C9.9692 73.9345 9.92772 73.5104 10.0099 73.1014C10.092 72.6923 10.2943 72.3167 10.591 72.0221C10.8878 71.7275 11.2656 71.5271 11.6768 71.4464C12.088 71.3656 12.5142 71.4081 12.9011 71.5684C13.2881 71.7288 13.6184 71.9997 13.8506 72.3471C14.0827 72.6944 14.206 73.1025 14.205 73.5196C14.2037 74.0778 13.98 74.6127 13.5829 75.0069C13.1858 75.4011 12.6479 75.6225 12.087 75.6225ZM12.087 71.8209C11.7492 71.8199 11.4187 71.9186 11.1373 72.1047C10.8559 72.2907 10.6362 72.5557 10.5062 72.866C10.3762 73.1763 10.3417 73.518 10.407 73.8479C10.4723 74.1777 10.6344 74.4809 10.873 74.719C11.1115 74.9571 11.4156 75.1193 11.7468 75.1853C12.0781 75.2512 12.4215 75.2179 12.7337 75.0895C13.0459 74.9611 13.3128 74.7434 13.5006 74.4639C13.6884 74.1844 13.7888 73.8558 13.7888 73.5196C13.7908 73.2957 13.7483 73.0736 13.6638 72.866C13.5792 72.6585 13.4542 72.4697 13.296 72.3104C13.1378 72.1511 12.9497 72.0244 12.7422 71.9378C12.5347 71.8512 12.312 71.8062 12.087 71.8056V71.8209Z" fill="#E3E3E3"/>
        <path d="M6.61818 75.6222C6.19901 75.6222 5.78924 75.4985 5.44079 75.2667C5.09234 75.0348 4.82098 74.7052 4.66081 74.3198C4.50063 73.9343 4.45891 73.5102 4.54106 73.1011C4.62321 72.6921 4.82547 72.3165 5.12222 72.0219C5.41897 71.7273 5.79674 71.5269 6.20797 71.4461C6.61921 71.3654 7.04534 71.4078 7.4323 71.5682C7.81927 71.7285 8.14986 71.9995 8.38199 72.3468C8.61413 72.6942 8.73748 73.1022 8.73646 73.5194C8.7351 74.0775 8.51123 74.6124 8.11413 75.0067C7.71703 75.4009 7.17908 75.6222 6.61818 75.6222ZM6.61818 71.8207C6.28036 71.8197 5.94986 71.9184 5.66849 72.1044C5.38711 72.2905 5.1676 72.5554 5.03762 72.8657C4.90764 73.176 4.87293 73.5178 4.93821 73.8476C5.00349 74.1775 5.16563 74.4807 5.40414 74.7187C5.64265 74.9568 5.94676 75.1191 6.27801 75.185C6.60926 75.251 6.95291 75.2176 7.26511 75.0892C7.57731 74.9608 7.844 74.7431 8.03179 74.4637C8.21958 74.1842 8.31998 73.8555 8.31999 73.5194C8.32202 73.2954 8.27951 73.0733 8.19497 72.8658C8.11042 72.6583 7.98535 72.4694 7.82719 72.3101C7.66903 72.1508 7.4809 72.0242 7.27339 71.9376C7.06588 71.8509 6.8432 71.806 6.61818 71.8053V71.8207Z" fill="#E3E3E3"/>
        <path d="M139.663 59.7612L135.91 55.1564C135.886 55.1306 135.867 55.1001 135.855 55.0667C135.843 55.0334 135.838 54.9979 135.84 54.9626C135.843 54.9272 135.853 54.8928 135.87 54.8614C135.886 54.8301 135.909 54.8026 135.937 54.7805C135.965 54.7585 135.997 54.7424 136.032 54.7334C136.066 54.7244 136.102 54.7225 136.137 54.7281C136.172 54.7336 136.206 54.7463 136.236 54.7654C136.266 54.7846 136.291 54.8097 136.311 54.8392L139.622 58.9324L143.221 53.5293C143.24 53.5011 143.264 53.4769 143.292 53.458C143.321 53.4391 143.353 53.426 143.386 53.4193C143.419 53.4127 143.454 53.4126 143.487 53.4192C143.521 53.4258 143.553 53.4389 143.581 53.4577C143.609 53.4765 143.634 53.5007 143.653 53.5289C143.672 53.557 143.685 53.5887 143.691 53.6219C143.698 53.6552 143.698 53.6894 143.692 53.7227C143.685 53.756 143.672 53.7876 143.653 53.8159L139.663 59.7612Z" fill="#E3E3E3"/>
        <path d="M138.095 22.8248C135.72 19.1358 130.656 13.4002 126.024 21.9959C119.695 33.764 125.623 38.727 125.684 40.3746C125.634 41.5884 125.301 42.7742 124.713 43.8385C124.713 43.8385 127.474 42.3035 126.312 35.0431C126.312 35.0431 129.479 31.5076 130.605 27.6037C130.605 27.6037 131.463 23.2393 135.535 24.4928C139.607 25.7464 138.095 22.8248 138.095 22.8248Z" fill="#252525"/>
        <path d="M122.406 46.7807L122.848 45.9927C122.848 45.9927 123.938 44.0434 123.877 42.3344C123.75 41.8065 123.533 41.3044 123.234 40.8506C121.763 38.1184 118.699 32.4339 124.262 22.078C126.026 18.8086 128.015 17.1099 130.185 17.0229C133.331 16.9257 136.139 20.1849 137.928 22.9632C137.965 23.0202 137.977 23.0894 137.963 23.1556C137.948 23.2218 137.908 23.2795 137.851 23.3162C137.823 23.335 137.791 23.3479 137.758 23.3543C137.724 23.3606 137.69 23.3601 137.657 23.353C137.624 23.3458 137.592 23.3321 137.565 23.3126C137.537 23.2931 137.514 23.2682 137.496 23.2395C136.113 21.0957 133.383 17.5345 130.35 17.5345H130.206C128.231 17.6113 126.386 19.223 124.715 22.3185C119.265 32.4339 122.242 37.9547 123.686 40.6102C124.028 41.1278 124.265 41.7064 124.386 42.3139C124.394 43.0495 124.277 43.7812 124.041 44.4783C124.684 43.1633 125.239 40.7483 124.555 36.5271V36.4095L124.637 36.3174C124.668 36.2764 128.087 32.4339 129.265 28.269C129.273 28.236 129.288 28.205 129.309 28.1781C129.329 28.1511 129.356 28.1287 129.386 28.1124C129.416 28.096 129.449 28.086 129.483 28.0831C129.517 28.0801 129.551 28.0842 129.583 28.0951C129.648 28.1141 129.702 28.1574 129.735 28.2157C129.767 28.274 129.776 28.3427 129.758 28.4072C128.617 32.3776 125.645 35.9387 125.08 36.563C126.319 44.5089 123.311 46.2844 123.182 46.3407L122.406 46.7807Z" fill="#E3E3E3"/>
        <path d="M67.9324 102.607C66.9966 102.607 66.0507 102.551 65.1767 102.469C63.5212 102.315 62.462 101.732 62.0301 100.745C61.0481 98.4985 63.7012 95.0243 63.8143 94.8759C63.834 94.847 63.8595 94.8225 63.8891 94.8037C63.9187 94.785 63.9518 94.7724 63.9865 94.7669C64.0211 94.7614 64.0564 94.763 64.0904 94.7716C64.1244 94.7802 64.1563 94.7957 64.1841 94.817C64.2118 94.8384 64.2351 94.8652 64.2521 94.8957C64.2691 94.9263 64.2796 94.96 64.283 94.9947C64.2864 95.0295 64.2824 95.0646 64.2717 95.0978C64.2609 95.1311 64.2436 95.1618 64.2205 95.188C64.1948 95.2187 61.6499 98.5701 62.5033 100.54C62.8581 101.348 63.773 101.824 65.2229 101.962C69.5879 102.372 72.5443 101.85 73.5469 100.494C74.025 99.8492 74.0608 98.9947 73.6084 97.9356C73.2623 97.1292 72.6516 96.4636 71.876 96.0476C71.8205 96.0125 71.7807 95.9575 71.7648 95.894C71.7488 95.8305 71.7579 95.7634 71.7901 95.7064C71.8224 95.6494 71.8754 95.6068 71.9382 95.5875C72.001 95.5682 72.0688 95.5736 72.1278 95.6025C73.0023 96.0739 73.6908 96.8259 74.0814 97.7361C74.5955 98.9539 74.5494 99.9772 73.9581 100.806C72.9196 102.203 70.4465 102.607 67.9324 102.607Z" fill="#E3E3E3"/>
        <path d="M69.9936 107.534C68.9252 107.517 67.8623 107.376 66.8265 107.115C65.1658 106.721 64.1273 106.01 63.7417 105.002C63.1864 103.533 64.2559 102.029 64.2817 101.968C64.3007 101.94 64.325 101.917 64.3532 101.899C64.3814 101.881 64.4128 101.868 64.4458 101.863C64.4789 101.857 64.5128 101.858 64.5455 101.865C64.5782 101.873 64.6092 101.887 64.6364 101.906C64.6919 101.944 64.7301 102.003 64.7426 102.069C64.7551 102.135 64.7409 102.203 64.7032 102.259C64.7032 102.259 63.7622 103.615 64.2249 104.818C64.5437 105.657 65.4589 106.26 66.9447 106.613C69.7724 107.284 71.906 107.125 72.8058 106.148C73.289 105.636 73.3869 104.884 73.099 103.989C72.8411 103.206 72.3199 102.535 71.6234 102.09C71.5685 102.05 71.5311 101.991 71.5187 101.924C71.5063 101.858 71.5199 101.789 71.5566 101.732C71.596 101.677 71.6555 101.639 71.7228 101.626C71.79 101.614 71.8595 101.628 71.9163 101.666C72.7057 102.176 73.2955 102.94 73.5873 103.83C73.9369 104.915 73.7982 105.836 73.1863 106.496C72.5745 107.156 71.4486 107.534 69.9936 107.534Z" fill="#E3E3E3"/>
        <path d="M68.8043 111.203C68.4326 111.201 68.0621 111.16 67.699 111.081C67.1949 111.006 66.7129 110.823 66.2861 110.546C65.8593 110.269 65.4978 109.903 65.226 109.474C64.7138 108.449 64.6038 107.27 64.9175 106.169C64.925 106.101 64.9593 106.039 65.0128 105.996C65.0664 105.953 65.1347 105.934 65.2029 105.941C65.2711 105.948 65.3334 105.983 65.3764 106.036C65.4193 106.089 65.4391 106.157 65.4316 106.225V106.307C65.4316 106.307 64.9483 107.959 65.6886 109.213C65.9244 109.581 66.2379 109.894 66.6072 110.13C66.9765 110.366 67.3928 110.519 67.8275 110.579C69.3699 110.896 70.5061 110.502 70.9997 109.5C71.3853 108.707 71.2311 107.821 70.8352 107.494L70.9482 107.248L70.7888 107.448L71.0973 107.039L70.9379 107.238L71.1076 107.049L71.1847 107.115C71.7862 107.627 71.9148 108.799 71.4623 109.725C71.2154 110.205 70.8313 110.601 70.3583 110.864C69.8853 111.128 69.3446 111.245 68.8043 111.203Z" fill="#E3E3E3"/>
        <path d="M198.034 96.6565C195.437 96.6565 192.98 95.6332 191.772 94.3592C190.887 93.4177 190.743 92.4047 191.402 91.5758C193.628 88.7412 200.28 89.5292 201.993 90.1739C202.057 90.1976 202.109 90.2457 202.137 90.3076C202.166 90.3695 202.168 90.4401 202.144 90.5039C202.121 90.5677 202.072 90.6194 202.01 90.6477C201.948 90.676 201.877 90.6785 201.813 90.6548C200.013 89.9896 193.777 89.3808 191.808 91.893C191.186 92.681 191.648 93.4791 192.147 94.0113C193.957 95.9248 199.036 97.2295 202.584 94.8197C203.055 94.5362 203.451 94.1461 203.742 93.681C204.032 93.216 204.208 92.6892 204.255 92.1437C204.491 88.7719 199.998 84.6582 199.952 84.6173C199.928 84.594 199.909 84.5661 199.896 84.5354C199.883 84.5046 199.876 84.4715 199.876 84.4382C199.876 84.4048 199.883 84.3718 199.896 84.3411C199.909 84.3103 199.928 84.2825 199.952 84.2591C199.975 84.2351 200.004 84.2161 200.035 84.2031C200.066 84.1902 200.1 84.1835 200.134 84.1835C200.168 84.1835 200.202 84.1902 200.233 84.2031C200.264 84.2161 200.293 84.2351 200.317 84.2591C200.507 84.4382 205.036 88.5775 204.784 92.2C204.735 92.824 204.538 93.4275 204.209 93.961C203.88 94.4946 203.429 94.9431 202.892 95.2699C201.45 96.2079 199.757 96.6912 198.034 96.6565Z" fill="#E3E3E3"/>
        <path d="M198.817 102.607C196.302 102.607 193.824 102.203 192.791 100.801C192.194 99.9975 192.159 98.9742 192.668 97.7309C193.057 96.8198 193.746 96.0674 194.621 95.5973C194.68 95.5641 194.751 95.5558 194.816 95.574C194.882 95.5922 194.937 95.6355 194.971 95.6945C195.003 95.7538 195.01 95.8232 194.992 95.888C194.974 95.9529 194.931 96.0082 194.873 96.0424C194.098 96.4584 193.487 97.1241 193.14 97.9305C192.703 98.9538 192.724 99.8236 193.202 100.489C194.205 101.839 197.161 102.361 201.526 101.952C202.976 101.814 203.891 101.338 204.246 100.53C205.11 98.5598 202.554 95.2085 202.528 95.1778C202.492 95.1239 202.477 95.058 202.488 94.9937C202.498 94.9294 202.532 94.8715 202.584 94.8317C202.636 94.7919 202.701 94.7732 202.766 94.7795C202.831 94.7858 202.892 94.8166 202.935 94.8656C203.048 95.014 205.701 98.4881 204.719 100.729C204.282 101.722 203.223 102.305 201.572 102.459C200.698 102.551 199.752 102.607 198.817 102.607Z" fill="#E3E3E3"/>
        <path d="M196.753 107.534C195.298 107.534 194.183 107.186 193.561 106.511C192.939 105.836 192.81 104.93 193.16 103.845C193.452 102.955 194.041 102.191 194.831 101.681C194.859 101.662 194.89 101.649 194.923 101.642C194.956 101.636 194.991 101.636 195.024 101.642C195.057 101.648 195.088 101.661 195.117 101.68C195.145 101.698 195.169 101.722 195.188 101.75C195.207 101.778 195.22 101.809 195.227 101.842C195.234 101.875 195.234 101.909 195.227 101.942C195.221 101.975 195.208 102.007 195.189 102.035C195.171 102.063 195.147 102.087 195.119 102.106C194.424 102.552 193.905 103.222 193.648 104.004C193.36 104.899 193.458 105.646 193.941 106.163C194.841 107.13 196.975 107.299 199.802 106.629C201.288 106.276 202.203 105.672 202.522 104.833C202.985 103.625 202.054 102.275 202.044 102.275C202.009 102.219 201.997 102.152 202.01 102.088C202.024 102.024 202.062 101.967 202.116 101.93C202.17 101.892 202.236 101.877 202.301 101.887C202.366 101.897 202.425 101.931 202.466 101.983C202.512 102.044 203.561 103.554 203.005 105.017C202.62 106.04 201.581 106.736 199.921 107.13C198.884 107.386 197.821 107.522 196.753 107.534Z" fill="#E3E3E3"/>
        <path d="M197.943 111.202C197.406 111.24 196.87 111.12 196.401 110.858C195.932 110.595 195.551 110.2 195.305 109.724C194.853 108.798 194.981 107.621 195.598 107.099L195.66 107.048C195.714 107.006 195.782 106.987 195.85 106.994C195.918 107 195.98 107.032 196.025 107.084C196.068 107.134 196.089 107.2 196.083 107.266C196.077 107.333 196.045 107.394 195.994 107.437L195.932 107.493C195.536 107.82 195.382 108.706 195.768 109.499C196.282 110.522 197.418 110.895 198.94 110.578C199.375 110.518 199.791 110.365 200.161 110.129C200.53 109.893 200.843 109.58 201.079 109.212C201.819 107.958 201.336 106.326 201.336 106.306V106.229C201.33 106.161 201.351 106.094 201.395 106.041C201.439 105.989 201.502 105.956 201.57 105.95C201.638 105.944 201.706 105.965 201.758 106.009C201.811 106.053 201.844 106.115 201.85 106.183C201.912 106.418 202.364 108.102 201.537 109.473C201.264 109.903 200.902 110.269 200.474 110.546C200.046 110.824 199.563 111.006 199.058 111.08C198.692 111.16 198.318 111.202 197.943 111.202Z" fill="#E3E3E3"/>
        <path d="M103.193 64.3815C103.147 64.3824 103.102 64.3699 103.064 64.3457C103.005 64.3124 102.961 64.257 102.943 64.1918C102.925 64.1266 102.933 64.0568 102.966 63.9977C106.051 58.5179 128.735 52.3525 129.701 52.0915C129.77 52.0739 129.842 52.0839 129.903 52.1194C129.963 52.1549 130.007 52.213 130.025 52.2808C130.043 52.3487 130.033 52.4208 129.997 52.4812C129.962 52.5417 129.903 52.5855 129.835 52.6032C129.604 52.6646 106.391 58.9682 103.419 64.2638C103.395 64.3017 103.362 64.3325 103.322 64.3532C103.282 64.3739 103.237 64.3837 103.193 64.3815Z" fill="#E3E3E3"/>
        <path d="M171.331 64.3811C171.298 64.3815 171.264 64.3749 171.233 64.3617C171.202 64.3485 171.174 64.329 171.151 64.3044C166.061 59.0957 149.63 51.5591 149.465 51.513C149.434 51.4988 149.406 51.4785 149.384 51.4535C149.361 51.4285 149.343 51.3992 149.332 51.3673C149.32 51.3354 149.315 51.3016 149.317 51.2677C149.319 51.2339 149.327 51.2007 149.342 51.1702C149.356 51.1397 149.375 51.1122 149.4 51.0894C149.425 51.0666 149.454 51.049 149.485 51.0376C149.517 51.0261 149.551 51.0211 149.584 51.0228C149.618 51.0245 149.651 51.0328 149.681 51.0474C150.36 51.3544 166.365 58.6966 171.516 63.9718C171.552 64.0079 171.576 64.0536 171.585 64.1033C171.595 64.1529 171.589 64.2041 171.57 64.2507C171.55 64.2972 171.517 64.3368 171.474 64.3646C171.432 64.3924 171.382 64.407 171.331 64.4067V64.3811Z" fill="#E3E3E3"/>
        <path d="M196.677 63.7114C199.275 63.7114 201.381 61.6154 201.381 59.0298C201.381 56.4442 199.275 54.3481 196.677 54.3481C194.079 54.3481 191.973 56.4442 191.973 59.0298C191.973 61.6154 194.079 63.7114 196.677 63.7114Z" fill="#71A5D2"/>
        <path d="M195.289 66.0703C194.189 66.0703 193.114 65.7456 192.199 65.1373C191.284 64.5289 190.571 63.6643 190.15 62.6527C189.729 61.6411 189.619 60.528 189.833 59.4541C190.048 58.3802 190.578 57.3938 191.356 56.6195C192.134 55.8453 193.125 55.318 194.204 55.1044C195.283 54.8908 196.402 55.0004 197.418 55.4195C198.435 55.8385 199.304 56.5481 199.915 57.4585C200.526 58.3689 200.852 59.4392 200.852 60.5341C200.851 62.002 200.265 63.4093 199.222 64.4472C198.179 65.4852 196.764 66.0689 195.289 66.0703ZM195.289 55.5148C194.291 55.5148 193.314 55.8096 192.484 56.3619C191.654 56.9143 191.006 57.6993 190.624 58.6177C190.243 59.5361 190.143 60.5465 190.338 61.5213C190.533 62.4961 191.015 63.3914 191.721 64.0939C192.428 64.7964 193.328 65.2745 194.308 65.4678C195.287 65.6611 196.303 65.5609 197.225 65.1798C198.148 64.7987 198.936 64.1539 199.49 63.327C200.044 62.5 200.339 61.5281 200.338 60.5341C200.337 59.2024 199.804 57.9258 198.858 56.9847C197.911 56.0435 196.627 55.5148 195.289 55.5148Z" fill="#E3E3E3"/>
        <path d="M195.411 80.1509C194.405 80.1496 193.441 79.7513 192.729 79.0434C192.018 78.3356 191.618 77.3759 191.616 76.3749V76.2163C191.585 75.6901 191.405 75.1836 191.096 74.7552C190.788 74.3269 190.363 73.9944 189.873 73.7963C189.382 73.5981 188.845 73.5424 188.323 73.6357C187.802 73.7289 187.318 73.9673 186.927 74.3232L186.824 74.4255C186.118 75.1276 185.161 75.5245 184.162 75.5303C183.164 75.536 182.203 75.1502 181.488 74.4562H181.462C180.753 73.7467 180.354 72.7863 180.354 71.7853C180.354 70.7843 180.753 69.824 181.462 69.1145L181.57 69.0071C181.933 68.6315 182.178 68.1584 182.275 67.646C182.371 67.1336 182.315 66.6043 182.112 66.1234C181.91 65.6426 181.571 65.2311 181.137 64.9398C180.702 64.6485 180.192 64.49 179.668 64.484H179.365C178.358 64.484 177.393 64.0862 176.682 63.3781C175.97 62.6699 175.57 61.7095 175.57 60.708C175.57 59.7066 175.97 58.7461 176.682 58.038C177.393 57.3298 178.358 56.932 179.365 56.932H179.524C180.053 56.8999 180.561 56.7194 180.991 56.4117C181.421 56.1039 181.755 55.6814 181.954 55.1928C182.153 54.7043 182.209 54.1697 182.116 53.6508C182.022 53.132 181.783 52.65 181.426 52.2606L181.323 52.1583C180.795 51.6292 180.436 50.9565 180.29 50.2246C180.145 49.4927 180.221 48.7345 180.508 48.0454C180.795 47.3562 181.28 46.7669 181.903 46.3516C182.525 45.9363 183.257 45.7135 184.007 45.7114C184.999 45.7071 185.953 46.0933 186.66 46.7859L186.691 46.8166L186.799 46.924C187.18 47.2917 187.663 47.537 188.185 47.6283C188.708 47.7195 189.246 47.6524 189.73 47.4357H189.832H189.92C190.385 47.2262 190.78 46.8882 191.058 46.462C191.336 46.0357 191.485 45.5391 191.488 45.0309V44.6881C191.488 43.6867 191.888 42.7262 192.599 42.0181C193.311 41.3099 194.276 40.9121 195.282 40.9121C196.288 40.9121 197.253 41.3099 197.965 42.0181C198.677 42.7262 199.076 43.6867 199.076 44.6881V44.8467C199.081 45.369 199.24 45.8783 199.533 46.3117C199.826 46.745 200.241 47.0833 200.725 47.2848C201.209 47.4863 201.742 47.542 202.258 47.4452C202.773 47.3483 203.249 47.1031 203.626 46.7399L203.729 46.6375C204.441 45.9305 205.405 45.5333 206.41 45.5333C207.416 45.5333 208.38 45.9305 209.092 46.6375L209.122 46.6682C209.824 47.3758 210.217 48.3298 210.217 49.3237C210.217 50.3176 209.824 51.2716 209.122 51.9792L209.01 52.0867C208.64 52.4664 208.393 52.9479 208.301 53.4688C208.209 53.9897 208.277 54.526 208.495 55.0082V55.1105V55.1975C208.707 55.6568 209.046 56.0458 209.474 56.318C209.902 56.5902 210.399 56.7341 210.907 56.7325H211.205C212.211 56.7325 213.176 57.1303 213.888 57.8384C214.599 58.5466 214.999 59.507 214.999 60.5085C214.999 61.51 214.599 62.4704 213.888 63.1785C213.176 63.8866 212.211 64.2845 211.205 64.2845H211.045C210.527 64.287 210.02 64.4404 209.588 64.7258C209.156 65.0113 208.817 65.4163 208.614 65.891C208.395 66.3731 208.327 66.9096 208.418 67.4307C208.51 67.9518 208.757 68.4333 209.128 68.8126L209.236 68.9201C209.941 69.6227 210.34 70.5736 210.345 71.5667C210.351 72.5598 209.964 73.5152 209.267 74.2259L209.23 74.2566C208.881 74.6096 208.464 74.8896 208.004 75.0802C207.544 75.2708 207.05 75.3683 206.552 75.3669C205.562 75.3688 204.611 74.9828 203.904 74.2924L203.853 74.2413L203.765 74.1543C203.388 73.791 202.912 73.5459 202.397 73.449C201.881 73.3521 201.348 73.4079 200.864 73.6093C200.38 73.8108 199.965 74.1491 199.672 74.5825C199.379 75.0158 199.22 75.5252 199.215 76.0474V76.3493C199.218 76.848 199.122 77.3423 198.931 77.8037C198.741 78.2652 198.461 78.6846 198.108 79.038C197.754 79.3913 197.334 79.6716 196.871 79.8626C196.408 80.0536 195.912 80.1516 195.411 80.1509ZM188.783 73.0542C189.638 73.0664 190.456 73.3978 191.076 73.9826C191.696 74.5675 192.073 75.3629 192.13 76.2111V76.3749C192.13 77.2407 192.476 78.0709 193.091 78.6831C193.706 79.2953 194.541 79.6393 195.411 79.6393C196.281 79.6393 197.115 79.2953 197.73 78.6831C198.345 78.0709 198.691 77.2407 198.691 76.3749V76.073C198.696 75.4501 198.886 74.8426 199.235 74.3257C199.584 73.8087 200.078 73.4052 200.655 73.1649C201.233 72.9247 201.868 72.8584 202.483 72.9743C203.098 73.0901 203.666 73.383 204.115 73.8166L204.228 73.9241C204.53 74.2287 204.891 74.4702 205.288 74.6344C205.685 74.7987 206.111 74.8825 206.542 74.8808C207.398 74.8831 208.22 74.5483 208.83 73.9496L208.86 73.9189C209.473 73.3079 209.817 72.4798 209.817 71.6165C209.817 70.7532 209.473 69.9251 208.86 69.314L208.752 69.2066C208.317 68.7595 208.022 68.1949 207.906 67.5829C207.79 66.9709 207.856 66.3383 208.097 65.7636C208.339 65.1889 208.744 64.6973 209.264 64.3498C209.783 64.0023 210.394 63.8142 211.02 63.8086H211.179C212.049 63.8086 212.883 63.4647 213.498 62.8525C214.114 62.2403 214.459 61.41 214.459 60.5443C214.459 59.6785 214.114 58.8482 213.498 58.236C212.883 57.6238 212.049 57.2799 211.179 57.2799H210.881C210.261 57.2798 209.656 57.0983 209.139 56.758C208.623 56.4178 208.218 55.9338 207.976 55.3663V55.2692V55.177C207.731 54.6047 207.662 53.973 207.779 53.3618C207.895 52.7506 208.191 52.1875 208.629 51.7438L208.737 51.6364C209.347 51.024 209.69 50.1965 209.69 49.334C209.69 48.4714 209.347 47.6439 208.737 47.0315H208.706C208.092 46.4216 207.26 46.0791 206.392 46.0791C205.525 46.0791 204.693 46.4216 204.079 47.0315L203.971 47.1389C203.522 47.5726 202.954 47.8655 202.339 47.9813C201.724 48.0971 201.089 48.0308 200.511 47.7906C199.934 47.5504 199.44 47.1468 199.091 46.6299C198.741 46.1129 198.552 45.5054 198.547 44.8826V44.6881C198.547 43.8224 198.201 42.9921 197.586 42.3799C196.971 41.7677 196.137 41.4238 195.267 41.4238C194.397 41.4238 193.562 41.7677 192.947 42.3799C192.332 42.9921 191.986 43.8224 191.986 44.6881V44.9849C191.985 45.6016 191.802 46.2044 191.46 46.7189C191.118 47.2335 190.633 47.6373 190.064 47.8808H189.961H189.873C189.298 48.1226 188.663 48.1894 188.049 48.0729C187.435 47.9563 186.87 47.6617 186.424 47.2259L186.31 47.1134C185.681 46.5907 184.877 46.3213 184.058 46.3581C183.239 46.395 182.463 46.7354 181.883 47.3124C181.303 47.8895 180.962 48.6615 180.925 49.4767C180.888 50.292 181.158 51.0915 181.683 51.7182L181.786 51.8206C182.215 52.2809 182.504 52.8535 182.618 53.4712C182.731 54.089 182.666 54.7262 182.428 55.3081C182.19 55.8899 181.791 56.3922 181.277 56.756C180.762 57.1198 180.154 57.33 179.524 57.3618H179.359C178.489 57.3618 177.655 57.7057 177.04 58.3179C176.425 58.9301 176.079 59.7604 176.079 60.6262C176.079 61.4919 176.425 62.3222 177.04 62.9344C177.655 63.5466 178.489 63.8905 179.359 63.8905H179.663C180.289 63.896 180.899 64.0842 181.419 64.4317C181.938 64.7792 182.344 65.2708 182.585 65.8454C182.826 66.4201 182.893 67.0527 182.776 67.6647C182.66 68.2767 182.366 68.8413 181.93 69.2884L181.822 69.3959C181.208 70.0049 180.861 70.8305 180.856 71.6931C180.852 72.5556 181.189 73.3851 181.796 74.0008L181.843 74.0468C182.457 74.6555 183.289 74.9971 184.156 74.9971C185.023 74.9971 185.855 74.6555 186.47 74.0468L186.578 73.9445C187.172 73.369 187.97 73.0492 188.799 73.0542H188.783Z" fill="#E3E3E3"/>
        <path d="M121.715 98.6315H93.5461C93.4784 98.6302 93.4136 98.6028 93.3656 98.5552C93.3177 98.5075 93.2904 98.4431 93.2891 98.3757C93.2891 98.3079 93.3162 98.2427 93.3644 98.1948C93.4126 98.1468 93.478 98.1199 93.5461 98.1199H121.715C121.784 98.1199 121.849 98.1468 121.897 98.1948C121.945 98.2427 121.973 98.3079 121.973 98.3757C121.973 98.4436 121.945 98.5086 121.897 98.5566C121.849 98.6046 121.784 98.6315 121.715 98.6315Z" fill="#E3E3E3"/>
        <path d="M162.938 127.873H143.031C142.962 127.873 142.897 127.846 142.849 127.798C142.801 127.75 142.773 127.685 142.773 127.617C142.773 127.549 142.801 127.484 142.849 127.436C142.897 127.388 142.962 127.361 143.031 127.361H162.938C163.006 127.361 163.071 127.388 163.119 127.436C163.168 127.484 163.195 127.549 163.195 127.617C163.195 127.685 163.168 127.75 163.119 127.798C163.071 127.846 163.006 127.873 162.938 127.873Z" fill="#E3E3E3"/>
        <path d="M156.851 132.882H143.046C142.978 132.882 142.913 132.855 142.864 132.807C142.816 132.759 142.789 132.694 142.789 132.626C142.789 132.558 142.816 132.493 142.864 132.445C142.913 132.397 142.978 132.37 143.046 132.37H156.851C156.919 132.37 156.984 132.397 157.032 132.445C157.081 132.493 157.108 132.558 157.108 132.626C157.106 132.693 157.079 132.758 157.031 132.805C156.983 132.853 156.918 132.88 156.851 132.882Z" fill="#E3E3E3"/>
        <path d="M160.449 137.891H143.031C142.962 137.891 142.897 137.864 142.849 137.816C142.801 137.768 142.773 137.703 142.773 137.635C142.773 137.567 142.801 137.502 142.849 137.454C142.897 137.406 142.962 137.379 143.031 137.379H160.449C160.517 137.379 160.583 137.406 160.631 137.454C160.679 137.502 160.706 137.567 160.706 137.635C160.706 137.703 160.679 137.768 160.631 137.816C160.583 137.864 160.517 137.891 160.449 137.891Z" fill="#E3E3E3"/>
        <path d="M121.715 108.829H93.5461C93.4784 108.828 93.4136 108.8 93.3656 108.753C93.3177 108.705 93.2904 108.641 93.2891 108.573C93.2891 108.505 93.3162 108.44 93.3644 108.392C93.4126 108.344 93.478 108.317 93.5461 108.317H121.715C121.784 108.317 121.849 108.344 121.897 108.392C121.945 108.44 121.973 108.505 121.973 108.573C121.973 108.641 121.945 108.706 121.897 108.754C121.849 108.802 121.784 108.829 121.715 108.829Z" fill="#E3E3E3"/>
        <path d="M121.715 119.026H93.5461C93.4784 119.025 93.4136 118.997 93.3656 118.95C93.3177 118.902 93.2904 118.838 93.2891 118.77C93.2891 118.703 93.3162 118.637 93.3644 118.589C93.4126 118.541 93.478 118.515 93.5461 118.515H121.715C121.784 118.515 121.849 118.541 121.897 118.589C121.945 118.637 121.973 118.703 121.973 118.77C121.973 118.838 121.945 118.903 121.897 118.951C121.849 118.999 121.784 119.026 121.715 119.026Z" fill="#E3E3E3"/>
        <path d="M121.715 129.218H93.5461C93.478 129.218 93.4126 129.191 93.3644 129.143C93.3162 129.095 93.2891 129.03 93.2891 128.962C93.2904 128.895 93.3177 128.831 93.3656 128.783C93.4136 128.735 93.4784 128.708 93.5461 128.707H121.715C121.784 128.707 121.849 128.734 121.897 128.782C121.945 128.83 121.973 128.895 121.973 128.962C121.973 129.03 121.945 129.095 121.897 129.143C121.849 129.191 121.784 129.218 121.715 129.218Z" fill="#E3E3E3"/>
        <path d="M68.7088 96.6566C66.9902 96.6798 65.3044 96.1878 63.8707 95.2444C63.3343 94.9177 62.8831 94.4691 62.5543 93.9355C62.2254 93.4019 62.0284 92.7985 61.9789 92.1745C61.727 88.552 66.2564 84.4127 66.4467 84.2336L66.5237 84.1671H189.982C190.051 84.1671 190.116 84.194 190.164 84.242C190.212 84.29 190.239 84.3551 190.239 84.4229C190.239 84.4908 190.212 84.5558 190.164 84.6038C190.116 84.6518 190.051 84.6788 189.982 84.6788H66.7243C66.1433 85.2262 62.2719 89.0022 62.493 92.1387C62.5399 92.6842 62.7158 93.211 63.0061 93.676C63.2965 94.141 63.6932 94.5312 64.1639 94.8146C67.7115 97.2245 72.7909 95.9198 74.5955 94.0062C75.1096 93.4946 75.5622 92.6759 74.9401 91.888C72.9659 89.3757 66.714 89.9846 64.9351 90.6497C64.8711 90.6735 64.8 90.6709 64.7378 90.6426C64.6756 90.6143 64.6274 90.5626 64.6035 90.4988C64.5797 90.4351 64.5821 90.3644 64.6105 90.3025C64.639 90.2406 64.6911 90.1926 64.7551 90.1688C66.4672 89.5344 73.115 88.7362 75.3463 91.5707C75.9941 92.3996 75.8605 93.4127 74.971 94.3541C73.768 95.6435 71.3103 96.6566 68.7088 96.6566Z" fill="#E3E3E3"/>
        <path d="M135.534 139.922C135.466 139.922 135.401 139.895 135.353 139.847C135.304 139.799 135.277 139.734 135.277 139.666V90.0359C135.279 89.9684 135.306 89.9041 135.354 89.8564C135.402 89.8087 135.467 89.7813 135.534 89.78C135.603 89.78 135.668 89.807 135.716 89.855C135.764 89.903 135.791 89.968 135.791 90.0359V139.666C135.791 139.734 135.764 139.799 135.716 139.847C135.668 139.895 135.603 139.922 135.534 139.922Z" fill="#E3E3E3"/>
        <path d="M189.371 137.134C193.411 137.134 196.687 133.874 196.687 129.853C196.687 125.832 193.411 122.572 189.371 122.572C185.33 122.572 182.055 125.832 182.055 129.853C182.055 133.874 185.33 137.134 189.371 137.134Z" fill="#71A5D2"/>
        <path d="M186.989 139.344C185.297 139.344 183.643 138.845 182.236 137.909C180.829 136.974 179.732 135.644 179.085 134.089C178.437 132.533 178.268 130.821 178.598 129.169C178.928 127.518 179.743 126.001 180.939 124.81C182.136 123.619 183.66 122.809 185.32 122.48C186.979 122.151 188.699 122.32 190.263 122.965C191.826 123.609 193.162 124.7 194.102 126.1C195.042 127.5 195.544 129.146 195.544 130.83C195.541 133.088 194.639 135.252 193.035 136.848C191.431 138.444 189.257 139.342 186.989 139.344ZM186.989 122.828C185.398 122.828 183.844 123.297 182.521 124.177C181.199 125.056 180.168 126.306 179.56 127.768C178.951 129.23 178.792 130.839 179.102 132.392C179.413 133.944 180.178 135.37 181.303 136.489C182.428 137.608 183.86 138.37 185.42 138.679C186.98 138.988 188.597 138.829 190.066 138.223C191.535 137.618 192.791 136.592 193.675 135.276C194.558 133.96 195.03 132.413 195.03 130.83C195.027 128.709 194.179 126.676 192.671 125.177C191.164 123.677 189.12 122.835 186.989 122.833V122.828Z" fill="#E3E3E3"/>
        <path d="M185.449 134.007L182.693 131.27C182.644 131.222 182.617 131.157 182.617 131.088C182.617 131.02 182.644 130.955 182.693 130.907C182.741 130.859 182.807 130.832 182.876 130.832C182.944 130.832 183.01 130.859 183.058 130.907L185.449 133.286L190.919 127.837C190.968 127.79 191.033 127.763 191.102 127.763C191.17 127.763 191.235 127.79 191.284 127.837C191.308 127.861 191.327 127.889 191.34 127.92C191.353 127.951 191.36 127.985 191.36 128.019C191.36 128.052 191.353 128.086 191.34 128.117C191.327 128.148 191.308 128.176 191.284 128.2L185.449 134.007Z" fill="#E3E3E3"/>
        <path d="M72.2197 20.809V27.9722C72.2197 28.4281 72.4016 28.8654 72.7256 29.1878C73.0495 29.5102 73.489 29.6913 73.9471 29.6913H80.7029C80.7808 29.6909 80.8572 29.6707 80.9251 29.6326C80.9929 29.5945 81.0498 29.5399 81.0905 29.4738C81.1312 29.4077 81.1543 29.3324 81.1575 29.2549C81.1608 29.1775 81.1441 29.1005 81.1091 29.0313C78.6927 24.2627 74.5488 21.3923 72.9138 20.3997C72.8433 20.3551 72.7616 20.3308 72.6781 20.3295C72.5946 20.3282 72.5122 20.35 72.4404 20.3924C72.3685 20.4348 72.3099 20.4961 72.2709 20.5697C72.2319 20.6432 72.2143 20.726 72.2197 20.809Z" fill="#EAB669"/>
        <path d="M82.6222 29.2002H75.1467C74.6317 29.1988 74.1382 28.9946 73.774 28.6322C73.4098 28.2698 73.2045 27.7787 73.2031 27.2661V19.2945C73.2031 19.2666 73.2088 19.2389 73.2197 19.2131C73.2306 19.1873 73.2468 19.1639 73.2669 19.1444C73.287 19.1248 73.3108 19.1095 73.3369 19.0992C73.3631 19.089 73.3912 19.0841 73.4193 19.0848C73.4752 19.0848 73.5286 19.1069 73.5681 19.1462C73.6077 19.1855 73.6299 19.2389 73.6299 19.2945V27.2917C73.6365 27.69 73.7985 28.0701 74.0815 28.3517C74.3645 28.6334 74.7465 28.7945 75.1467 28.8011H82.6222C82.6503 28.8004 82.6781 28.8053 82.7043 28.8155C82.7305 28.8258 82.7545 28.8411 82.7746 28.8607C82.7947 28.8802 82.8106 28.9036 82.8215 28.9294C82.8324 28.9552 82.8381 28.9829 82.8381 29.0109C82.8318 29.0633 82.8061 29.1116 82.7663 29.1465C82.7265 29.1815 82.6753 29.2005 82.6222 29.2002Z" fill="#E3E3E3"/>
        <path d="M80.8024 53.4469H59.2089C58.6634 53.4469 58.1403 53.2313 57.7546 52.8475C57.3689 52.4637 57.1523 51.9431 57.1523 51.4003V21.1052C57.1523 20.5624 57.3689 20.0418 57.7546 19.658C58.1403 19.2742 58.6634 19.0586 59.2089 19.0586H73.4914L73.5378 19.0893C73.6098 19.1302 80.5402 23.1825 82.8384 28.8875V28.9642V51.4003C82.8384 51.9396 82.6247 52.4571 82.2434 52.8403C81.8622 53.2235 81.3443 53.4415 80.8024 53.4469ZM59.2089 19.5038C58.783 19.5051 58.3748 19.6744 58.0742 19.9746C57.7735 20.2748 57.6047 20.6814 57.6047 21.1052V51.4207C57.6047 51.8446 57.7735 52.2512 58.0742 52.5514C58.3748 52.8515 58.783 53.0209 59.2089 53.0222H80.8024C81.2288 53.0209 81.6374 52.8517 81.9389 52.5517C82.2404 52.2517 82.4103 51.8451 82.4116 51.4207V29.0256C80.2471 23.7096 73.9748 19.8722 73.3578 19.5038H59.2089Z" fill="#E3E3E3"/>
        <path d="M64.3097 18.0048C64.2524 18.0048 64.1975 17.9822 64.157 17.9419C64.1166 17.9016 64.0938 17.8469 64.0938 17.7899V15.0117H54.3253C54.268 15.0117 54.2131 14.989 54.1726 14.9487C54.1321 14.9084 54.1094 14.8538 54.1094 14.7968C54.1094 14.7688 54.1148 14.7411 54.1257 14.7153C54.1366 14.6895 54.1528 14.6661 54.1729 14.6466C54.193 14.627 54.2168 14.6117 54.2429 14.6015C54.2691 14.5912 54.2972 14.5863 54.3253 14.587H64.5103V17.7746C64.5131 17.803 64.5099 17.8316 64.5012 17.8588C64.4925 17.886 64.4786 17.9111 64.4598 17.9327C64.441 17.9542 64.4181 17.9717 64.3923 17.9841C64.3665 17.9965 64.3383 18.0036 64.3097 18.0048Z" fill="#E3E3E3"/>
        <path d="M64.5181 58.1443H54.3331C54.2758 58.1443 54.2209 58.1216 54.1804 58.0813C54.14 58.041 54.1172 57.9863 54.1172 57.9294C54.1172 57.9014 54.1226 57.8736 54.1335 57.8478C54.1444 57.8221 54.1606 57.7988 54.1807 57.7792C54.2008 57.7597 54.2246 57.7443 54.2507 57.734C54.2769 57.7238 54.305 57.7189 54.3331 57.7196H64.1016V54.9516C64.1016 54.9236 64.1073 54.8958 64.1182 54.87C64.1291 54.8443 64.145 54.8209 64.1651 54.8013C64.1852 54.7818 64.209 54.7665 64.2351 54.7562C64.2613 54.746 64.2894 54.7411 64.3175 54.7418C64.3734 54.7418 64.4271 54.7638 64.4666 54.8032C64.5061 54.8425 64.5284 54.8959 64.5284 54.9516L64.5181 58.1443Z" fill="#E3E3E3"/>
        <path d="M83.7372 58.1443H73.5625V54.9516C73.5625 54.9236 73.5682 54.8958 73.5791 54.8701C73.59 54.8443 73.6059 54.8209 73.626 54.8013C73.6461 54.7818 73.6701 54.7665 73.6963 54.7562C73.7225 54.746 73.7503 54.7411 73.7784 54.7418C73.8343 54.7418 73.888 54.7638 73.9275 54.8032C73.967 54.8425 73.9893 54.8959 73.9893 54.9516V57.7196H83.7578C83.8137 57.7196 83.8674 57.7417 83.9069 57.781C83.9465 57.8204 83.9687 57.8737 83.9687 57.9294C83.9696 57.9591 83.9639 57.9888 83.9524 58.0163C83.9408 58.0438 83.9235 58.0685 83.9016 58.0888C83.8798 58.1091 83.8537 58.1246 83.8253 58.1342C83.797 58.1437 83.767 58.1472 83.7372 58.1443Z" fill="#E3E3E3"/>
        <path d="M55.4811 31.8967H45.6458C45.6177 31.8974 45.5897 31.8925 45.5635 31.8822C45.5373 31.872 45.5136 31.8567 45.4935 31.8371C45.4733 31.8176 45.4572 31.7942 45.4463 31.7684C45.4353 31.7426 45.4297 31.7149 45.4297 31.687C45.4297 31.63 45.4525 31.5753 45.4929 31.535C45.5334 31.4947 45.5886 31.472 45.6458 31.472H55.4811C55.5093 31.472 55.5371 31.4776 55.563 31.4885C55.5889 31.4994 55.6124 31.5153 55.632 31.5353C55.6517 31.5553 55.6672 31.5791 55.6775 31.6051C55.6877 31.6312 55.6927 31.659 55.692 31.687C55.692 31.7426 55.6698 31.796 55.6303 31.8353C55.5907 31.8746 55.537 31.8967 55.4811 31.8967Z" fill="#E3E3E3"/>
        <path d="M74.9965 35.294H65.1612C65.1039 35.294 65.0488 35.2713 65.0083 35.231C64.9678 35.1907 64.9453 35.1361 64.9453 35.0791C64.9453 35.0511 64.9507 35.0234 64.9616 34.9976C64.9725 34.9718 64.9887 34.9485 65.0088 34.9289C65.0289 34.9094 65.0527 34.8941 65.0789 34.8838C65.105 34.8736 65.1331 34.8686 65.1612 34.8693H74.9965C75.0246 34.8686 75.0527 34.8736 75.0788 34.8838C75.105 34.8941 75.1288 34.9094 75.1489 34.9289C75.169 34.9485 75.1849 34.9718 75.1958 34.9976C75.2067 35.0234 75.2124 35.0511 75.2124 35.0791C75.2124 35.1361 75.1896 35.1907 75.1491 35.231C75.1086 35.2713 75.0538 35.294 74.9965 35.294Z" fill="#E3E3E3"/>
        <path d="M74.9965 38.8653H65.1612C65.1039 38.8653 65.0488 38.8427 65.0083 38.8024C64.9678 38.7621 64.9453 38.7074 64.9453 38.6504C64.9453 38.6224 64.9507 38.5947 64.9616 38.5689C64.9725 38.5431 64.9887 38.5198 65.0088 38.5002C65.0289 38.4807 65.0527 38.4653 65.0789 38.4551C65.105 38.4449 65.1331 38.4399 65.1612 38.4406H74.9965C75.0246 38.4399 75.0527 38.4449 75.0788 38.4551C75.105 38.4653 75.1288 38.4807 75.1489 38.5002C75.169 38.5198 75.1849 38.5431 75.1958 38.5689C75.2067 38.5947 75.2124 38.6224 75.2124 38.6504C75.2124 38.7074 75.1896 38.7621 75.1491 38.8024C75.1086 38.8427 75.0538 38.8653 74.9965 38.8653Z" fill="#E3E3E3"/>
        <path d="M74.9986 42.2876H65.1633C65.1326 42.2924 65.1009 42.2905 65.071 42.282C65.041 42.2735 65.0133 42.2586 64.9896 42.2385C64.966 42.2183 64.9469 42.1933 64.9339 42.1651C64.9209 42.1369 64.9141 42.1063 64.9141 42.0753C64.9141 42.0443 64.9209 42.0136 64.9339 41.9854C64.9469 41.9572 64.966 41.9322 64.9896 41.912C65.0133 41.8919 65.041 41.877 65.071 41.8685C65.1009 41.8601 65.1326 41.8581 65.1633 41.8629H74.9986C75.0294 41.8581 75.0608 41.8601 75.0908 41.8685C75.1208 41.877 75.1487 41.8919 75.1724 41.912C75.196 41.9322 75.2151 41.9572 75.2281 41.9854C75.2411 42.0136 75.2477 42.0443 75.2477 42.0753C75.2477 42.1063 75.2411 42.1369 75.2281 42.1651C75.2151 42.1933 75.196 42.2183 75.1724 42.2385C75.1487 42.2586 75.1208 42.2735 75.0908 42.282C75.0608 42.2905 75.0294 42.2924 74.9986 42.2876Z" fill="#E3E3E3"/>
        <path d="M55.4791 42.288H45.6438C45.613 42.2927 45.5814 42.2908 45.5514 42.2823C45.5215 42.2739 45.4938 42.259 45.4701 42.2388C45.4464 42.2187 45.4274 42.1936 45.4144 42.1655C45.4013 42.1373 45.3945 42.1067 45.3945 42.0756C45.3945 42.0446 45.4013 42.014 45.4144 41.9858C45.4274 41.9576 45.4464 41.9326 45.4701 41.9124C45.4938 41.8922 45.5215 41.8774 45.5514 41.8689C45.5814 41.8604 45.613 41.8585 45.6438 41.8633H55.4791C55.53 41.8712 55.5764 41.8969 55.6099 41.9359C55.6434 41.9748 55.6619 42.0244 55.6619 42.0756C55.6619 42.1269 55.6434 42.1765 55.6099 42.2154C55.5764 42.2544 55.53 42.2801 55.4791 42.288Z" fill="#E3E3E3"/>
        <path d="M97.4855 33.2935C98.8172 33.2935 99.8968 32.2191 99.8968 30.8938C99.8968 29.5685 98.8172 28.4941 97.4855 28.4941C96.1538 28.4941 95.0742 29.5685 95.0742 30.8938C95.0742 32.2191 96.1538 33.2935 97.4855 33.2935Z" fill="#71A5D2"/>
        <path d="M97.8488 44.4731C99.1805 44.4731 100.26 43.3988 100.26 42.0735C100.26 40.7482 99.1805 39.6738 97.8488 39.6738C96.5171 39.6738 95.4375 40.7482 95.4375 42.0735C95.4375 43.3988 96.5171 44.4731 97.8488 44.4731Z" fill="#71A5D2"/>
        <path d="M86.88 61.2397C88.2118 61.2397 89.2913 60.1654 89.2913 58.8401C89.2913 57.5148 88.2118 56.4404 86.88 56.4404C85.5483 56.4404 84.4688 57.5148 84.4688 58.8401C84.4688 60.1654 85.5483 61.2397 86.88 61.2397Z" fill="#71A5D2"/>
        <path d="M51.5519 61.2401C52.8836 61.2401 53.9632 60.1657 53.9632 58.8405C53.9632 57.5152 52.8836 56.4408 51.5519 56.4408C50.2202 56.4408 49.1406 57.5152 49.1406 58.8405C49.1406 60.1657 50.2202 61.2401 51.5519 61.2401Z" fill="#71A5D2"/>
        <path d="M41.9035 44.4731C43.2352 44.4731 44.3148 43.3988 44.3148 42.0735C44.3148 40.7482 43.2352 39.6738 41.9035 39.6738C40.5718 39.6738 39.4922 40.7482 39.4922 42.0735C39.4922 43.3988 40.5718 44.4731 41.9035 44.4731Z" fill="#71A5D2"/>
        <path d="M42.3136 33.0579C43.6453 33.0579 44.7249 31.9835 44.7249 30.6582C44.7249 29.3329 43.6453 28.2585 42.3136 28.2585C40.9819 28.2585 39.9023 29.3329 39.9023 30.6582C39.9023 31.9835 40.9819 33.0579 42.3136 33.0579Z" fill="#71A5D2"/>
        <path d="M52.2355 18.2916C53.5672 18.2916 54.6468 17.2173 54.6468 15.892C54.6468 14.5667 53.5672 13.4923 52.2355 13.4923C50.9038 13.4923 49.8242 14.5667 49.8242 15.892C49.8242 17.2173 50.9038 18.2916 52.2355 18.2916Z" fill="#71A5D2"/>
        <path d="M96.6976 34.2759C96.1778 34.2759 95.6697 34.1224 95.2376 33.8349C94.8054 33.5473 94.4685 33.1387 94.2698 32.6607C94.0711 32.1826 94.0194 31.6567 94.1212 31.1494C94.223 30.642 94.4737 30.1762 94.8417 29.8107C95.2096 29.4453 95.6783 29.1967 96.1883 29.0964C96.6982 28.9961 97.2266 29.0486 97.7066 29.2472C98.1865 29.4459 98.5966 29.7818 98.8847 30.2125C99.1728 30.6431 99.3258 31.1491 99.3248 31.6664C99.3234 32.359 99.0461 33.0227 98.5536 33.5119C98.061 34.0011 97.3935 34.2759 96.6976 34.2759ZM96.6976 29.4766C96.2622 29.4755 95.8363 29.6031 95.4738 29.8431C95.1112 30.0831 94.8283 30.4248 94.6609 30.8248C94.4936 31.2249 94.4493 31.6654 94.5336 32.0905C94.618 32.5156 94.8271 32.9063 95.1346 33.2131C95.4422 33.5199 95.8343 33.7289 96.2613 33.8138C96.6883 33.8988 97.1309 33.8557 97.5333 33.6901C97.9357 33.5245 98.2797 33.2438 98.5217 32.8836C98.7637 32.5234 98.893 32.0998 98.893 31.6664C98.893 31.0865 98.6619 30.5303 98.2503 30.1197C97.8388 29.7092 97.2803 29.4779 96.6976 29.4766Z" fill="#E3E3E3"/>
        <path d="M94.2962 31.8967H84.4609C84.405 31.8967 84.3514 31.8746 84.3118 31.8353C84.2723 31.796 84.2501 31.7426 84.2501 31.687C84.2494 31.659 84.2543 31.6312 84.2646 31.6051C84.2749 31.5791 84.2902 31.5553 84.3098 31.5353C84.3295 31.5153 84.3529 31.4994 84.3788 31.4885C84.4048 31.4776 84.4328 31.472 84.4609 31.472H94.2962C94.3246 31.472 94.3526 31.4776 94.3788 31.4884C94.405 31.4992 94.4288 31.515 94.4489 31.535C94.4689 31.555 94.485 31.5786 94.4958 31.6047C94.5067 31.6308 94.5121 31.6587 94.5121 31.687C94.5121 31.7149 94.5065 31.7426 94.4956 31.7684C94.4846 31.7942 94.4687 31.8176 94.4486 31.8371C94.4285 31.8567 94.4045 31.872 94.3783 31.8822C94.3522 31.8925 94.3243 31.8974 94.2962 31.8967Z" fill="#E3E3E3"/>
        <path d="M96.6976 44.6879C96.1778 44.6878 95.6697 44.5344 95.2376 44.2469C94.8054 43.9594 94.4685 43.5507 94.2698 43.0727C94.0711 42.5946 94.0194 42.0687 94.1212 41.5613C94.223 41.054 94.4737 40.5882 94.8417 40.2227C95.2096 39.8573 95.6783 39.6087 96.1883 39.5084C96.6982 39.408 97.2266 39.4606 97.7066 39.6592C98.1865 39.8579 98.5966 40.1938 98.8847 40.6244C99.1728 41.0551 99.3258 41.5611 99.3248 42.0784C99.3234 42.771 99.0461 43.4346 98.5536 43.9239C98.061 44.4131 97.3935 44.6879 96.6976 44.6879ZM96.6976 39.8885C96.2622 39.8875 95.8363 40.0151 95.4738 40.2551C95.1112 40.4951 94.8283 40.8368 94.6609 41.2368C94.4936 41.6369 94.4493 42.0774 94.5336 42.5025C94.618 42.9276 94.8271 43.3183 95.1346 43.6251C95.4422 43.9318 95.8343 44.1409 96.2613 44.2258C96.6883 44.3107 97.1309 44.2677 97.5333 44.1021C97.9357 43.9365 98.2797 43.6558 98.5217 43.2956C98.7637 42.9353 98.893 42.5118 98.893 42.0784C98.893 41.4985 98.6619 40.9423 98.2503 40.5318C97.8388 40.1212 97.2803 39.8899 96.6976 39.8885Z" fill="#E3E3E3"/>
        <path d="M94.2954 42.2876H84.4601C84.4092 42.2797 84.3628 42.254 84.3293 42.2151C84.2958 42.1761 84.2773 42.1265 84.2773 42.0753C84.2773 42.024 84.2958 41.9744 84.3293 41.9355C84.3628 41.8965 84.4092 41.8708 84.4601 41.8629H94.2954C94.3262 41.8581 94.3576 41.8601 94.3875 41.8685C94.4175 41.877 94.4454 41.8919 94.4691 41.912C94.4928 41.9322 94.5118 41.9572 94.5249 41.9854C94.5379 42.0136 94.5444 42.0443 94.5444 42.0753C94.5444 42.1063 94.5379 42.1369 94.5249 42.1651C94.5118 42.1933 94.4928 42.2183 94.4691 42.2385C94.4454 42.2586 94.4175 42.2735 94.3875 42.282C94.3576 42.2905 94.3262 42.2924 94.2954 42.2876Z" fill="#E3E3E3"/>
        <path d="M86.1479 60.5492C85.6281 60.5502 85.1196 60.3977 84.6869 60.111C84.2542 59.8244 83.9167 59.4164 83.7171 58.9387C83.5175 58.4611 83.4647 57.9352 83.5655 57.4277C83.6663 56.9202 83.916 56.4539 84.2832 56.0877C84.6504 55.7215 85.1185 55.472 85.6283 55.3707C86.138 55.2694 86.6667 55.3208 87.1471 55.5186C87.6274 55.7163 88.0381 56.0515 88.327 56.4816C88.6159 56.9116 88.7701 57.4173 88.7701 57.9346C88.7701 58.6272 88.494 59.2914 88.0024 59.7816C87.5108 60.2718 86.8438 60.5478 86.1479 60.5492ZM86.1479 55.7499C85.7123 55.7489 85.2863 55.8766 84.9236 56.1168C84.561 56.357 84.2779 56.699 84.1107 57.0993C83.9436 57.4997 83.8997 57.9405 83.9845 58.3657C84.0692 58.791 84.2787 59.1816 84.5867 59.4882C84.8948 59.7948 85.2876 60.0035 85.7149 60.0878C86.1422 60.1721 86.5849 60.1283 86.9872 59.962C87.3895 59.7956 87.7331 59.5141 87.9745 59.1532C88.2159 58.7923 88.3443 58.3682 88.3433 57.9346C88.3433 57.3547 88.1122 56.7985 87.7006 56.3879C87.2891 55.9774 86.7306 55.7461 86.1479 55.7447V55.7499Z" fill="#E3E3E3"/>
        <path d="M51.9214 60.5492C51.4016 60.5502 50.8931 60.3977 50.4604 60.111C50.0277 59.8244 49.69 59.4164 49.4904 58.9387C49.2907 58.4611 49.2382 57.9352 49.339 57.4277C49.4398 56.9202 49.6895 56.4539 50.0567 56.0877C50.4239 55.7215 50.892 55.472 51.4018 55.3707C51.9116 55.2694 52.44 55.3208 52.9203 55.5186C53.4007 55.7163 53.8113 56.0515 54.1002 56.4816C54.3891 56.9116 54.5433 57.4173 54.5433 57.9346C54.5433 58.6272 54.2675 59.2914 53.7759 59.7816C53.2843 60.2718 52.6173 60.5478 51.9214 60.5492ZM51.9214 55.7499C51.4858 55.7489 51.0595 55.8766 50.6969 56.1168C50.3342 56.357 50.0514 56.699 49.8842 57.0993C49.7171 57.4997 49.673 57.9405 49.7577 58.3657C49.8425 58.791 50.0522 59.1816 50.3602 59.4882C50.6683 59.7948 51.0608 60.0035 51.4881 60.0878C51.9155 60.1721 52.3584 60.1283 52.7607 59.962C53.163 59.7956 53.5066 59.5141 53.748 59.1532C53.9894 58.7923 54.1178 58.3682 54.1168 57.9346C54.1168 57.3547 53.8857 56.7985 53.4741 56.3879C53.0626 55.9774 52.5042 55.7461 51.9214 55.7447V55.7499Z" fill="#E3E3E3"/>
        <path d="M51.9214 17.427C51.4016 17.428 50.8931 17.2755 50.4604 16.9888C50.0277 16.7021 49.69 16.2942 49.4904 15.8165C49.2907 15.3389 49.2382 14.813 49.339 14.3055C49.4398 13.798 49.6895 13.3316 50.0567 12.9655C50.4239 12.5993 50.892 12.3498 51.4018 12.2485C51.9116 12.1472 52.44 12.1987 52.9203 12.3964C53.4007 12.5941 53.8113 12.9293 54.1002 13.3593C54.3891 13.7894 54.5433 14.2951 54.5433 14.8124C54.5433 15.505 54.2675 16.1692 53.7759 16.6594C53.2843 17.1496 52.6173 17.4256 51.9214 17.427ZM51.9214 12.6277C51.4858 12.6267 51.0595 12.7543 50.6969 12.9946C50.3342 13.2348 50.0514 13.5768 49.8842 13.9771C49.7171 14.3775 49.673 14.8182 49.7577 15.2435C49.8425 15.6688 50.0522 16.0595 50.3602 16.366C50.6683 16.6726 51.0608 16.8813 51.4881 16.9656C51.9155 17.0499 52.3584 17.0061 52.7607 16.8397C53.163 16.6734 53.5066 16.3919 53.748 16.031C53.9894 15.6701 54.1178 15.246 54.1168 14.8124C54.1154 14.2334 53.8835 13.6785 53.4721 13.2691C53.0607 12.8596 52.5033 12.629 51.9214 12.6277Z" fill="#E3E3E3"/>
        <path d="M43.2301 34.276C42.71 34.277 42.2013 34.1244 41.7685 33.8375C41.3357 33.5506 40.9982 33.1423 40.7987 32.6643C40.5992 32.1864 40.5466 31.6602 40.6479 31.1526C40.7491 30.6449 40.9994 30.1786 41.3671 29.8127C41.7348 29.4467 42.2036 29.1976 42.7137 29.0969C43.2238 28.9961 43.7525 29.0484 44.2327 29.2469C44.713 29.4454 45.1233 29.7813 45.4116 30.212C45.6999 30.6428 45.8532 31.149 45.8522 31.6665C45.8508 32.3582 45.5742 33.0211 45.0828 33.5102C44.5913 33.9993 43.9251 34.2746 43.2301 34.276ZM43.2301 29.4767C42.7946 29.4757 42.3688 29.6032 42.0062 29.8432C41.6437 30.0832 41.3607 30.4249 41.1934 30.8249C41.026 31.225 40.9818 31.6655 41.0661 32.0906C41.1504 32.5157 41.3595 32.9064 41.6671 33.2132C41.9746 33.52 42.3668 33.729 42.7938 33.814C43.2207 33.8989 43.6634 33.8558 44.0658 33.6902C44.4682 33.5246 44.8121 33.2439 45.0541 32.8837C45.2962 32.5235 45.4254 32.0999 45.4254 31.6665C45.4254 31.0866 45.1943 30.5304 44.7828 30.1199C44.3712 29.7093 43.8128 29.478 43.2301 29.4767Z" fill="#E3E3E3"/>
        <path d="M43.2301 44.6881C42.71 44.6891 42.2013 44.5365 41.7685 44.2496C41.3357 43.9627 40.9982 43.5544 40.7987 43.0765C40.5992 42.5985 40.5466 42.0724 40.6479 41.5647C40.7491 41.0571 40.9994 40.5907 41.3671 40.2248C41.7348 39.8588 42.2036 39.6097 42.7137 39.509C43.2238 39.4083 43.7525 39.4605 44.2327 39.659C44.713 39.8575 45.1233 40.1934 45.4116 40.6242C45.6999 41.0549 45.8532 41.5611 45.8522 42.0787C45.8508 42.7703 45.5742 43.4332 45.0828 43.9223C44.5913 44.4114 43.9251 44.6867 43.2301 44.6881ZM43.2301 39.8888C42.7946 39.8878 42.3688 40.0153 42.0062 40.2553C41.6437 40.4954 41.3607 40.837 41.1934 41.2371C41.026 41.6371 40.9818 42.0776 41.0661 42.5027C41.1504 42.9279 41.3595 43.3185 41.6671 43.6253C41.9746 43.9321 42.3668 44.1412 42.7938 44.2261C43.2207 44.311 43.6634 44.2679 44.0658 44.1023C44.4682 43.9367 44.8121 43.6561 45.0541 43.2958C45.2962 42.9356 45.4254 42.512 45.4254 42.0787C45.4254 41.4988 45.1943 40.9425 44.7828 40.532C44.3712 40.1215 43.8128 39.8901 43.2301 39.8888Z" fill="#E3E3E3"/>
        <path d="M52.3552 128.242H5.18355C3.80315 128.24 2.47965 127.694 1.50404 126.722C0.52843 125.75 -0.0195319 124.432 -0.0195312 123.059V72.4047C-0.0195319 71.031 0.52843 69.7134 1.50404 68.7415C2.47965 67.7697 3.80315 67.223 5.18355 67.2217H52.3346C53.7155 67.223 55.0395 67.7695 56.0159 68.7412C56.9923 69.7129 57.5414 71.0305 57.5428 72.4047V123.059C57.5414 124.429 56.9952 125.744 56.0232 126.715C55.0512 127.686 53.7325 128.235 52.3552 128.242ZM5.18355 67.7589C3.93993 67.7616 2.7482 68.2548 1.8693 69.1304C0.990408 70.006 0.495959 71.1927 0.494601 72.4303V123.084C0.494601 124.322 0.988608 125.51 1.8678 126.385C2.74699 127.261 3.93951 127.754 5.18355 127.755H52.3346C52.9511 127.755 53.5616 127.635 54.1311 127.4C54.7006 127.165 55.218 126.821 55.6539 126.387C56.0898 125.953 56.4355 125.438 56.6714 124.872C56.9073 124.305 57.0286 123.698 57.0286 123.084V72.4303C57.0273 71.1918 56.5324 70.0044 55.6524 69.1286C54.7724 68.2529 53.5792 67.7602 52.3346 67.7589H5.18355Z" fill="#E3E3E3"/>
        <rect x="3.58203" y="132.519" width="53.7328" height="9.20978" rx="4.60489" fill="#CE7783"/>
        <path d="M52.3528 144H5.18114C3.82885 143.958 2.5461 143.394 1.60456 142.427C0.663018 141.46 0.136719 140.166 0.136719 138.82C0.136719 137.473 0.663018 136.18 1.60456 135.213C2.5461 134.246 3.82885 133.682 5.18114 133.639H52.3322C53.0296 133.617 53.7242 133.735 54.375 133.986C55.0257 134.236 55.6192 134.614 56.1202 135.098C56.6213 135.581 57.0198 136.159 57.2918 136.799C57.5639 137.438 57.704 138.125 57.704 138.82C57.704 139.514 57.5639 140.201 57.2918 140.841C57.0198 141.48 56.6213 142.059 56.1202 142.542C55.6192 143.025 55.0257 143.403 54.375 143.654C53.7242 143.904 53.0296 144.022 52.3322 144H52.3528ZM5.18114 134.151C3.96377 134.191 2.80971 134.701 1.96279 135.572C1.11588 136.443 0.642316 137.608 0.642316 138.82C0.642316 140.032 1.11588 141.197 1.96279 142.068C2.80971 142.939 3.96377 143.448 5.18114 143.489H52.3322C52.9614 143.509 53.5883 143.404 54.1756 143.179C54.763 142.953 55.299 142.613 55.7514 142.177C56.2039 141.742 56.5636 141.22 56.8093 140.643C57.055 140.066 57.1816 139.446 57.1816 138.82C57.1816 138.193 57.055 137.573 56.8093 136.996C56.5636 136.42 56.2039 135.898 55.7514 135.462C55.299 135.027 54.763 134.686 54.1756 134.461C53.5883 134.236 52.9614 134.13 52.3322 134.151H5.18114Z" fill="#E3E3E3"/>
        <path d="M29.3898 85.3027H13.7961C13.728 85.3027 13.6626 85.2757 13.6144 85.2277C13.5662 85.1797 13.5391 85.1147 13.5391 85.0468C13.5391 84.979 13.5662 84.9139 13.6144 84.866C13.6626 84.818 13.728 84.791 13.7961 84.791H29.3898C29.458 84.791 29.5234 84.818 29.5716 84.866C29.6198 84.9139 29.6469 84.979 29.6469 85.0468C29.6469 85.1147 29.6198 85.1797 29.5716 85.2277C29.5234 85.2757 29.458 85.3027 29.3898 85.3027Z" fill="#E3E3E3"/>
        <path d="M35.3936 88.5058H13.8C13.7319 88.5058 13.6665 88.4788 13.6183 88.4308C13.5701 88.3829 13.543 88.3178 13.543 88.25C13.543 88.1821 13.5701 88.1171 13.6183 88.0691C13.6665 88.0211 13.7319 87.9941 13.8 87.9941H35.3936C35.4618 87.9941 35.5274 88.0211 35.5756 88.0691C35.6238 88.1171 35.6507 88.1821 35.6507 88.25C35.6507 88.3178 35.6238 88.3829 35.5756 88.4308C35.5274 88.4788 35.4618 88.5058 35.3936 88.5058Z" fill="#E3E3E3"/>
        <path d="M39.585 139.073H17.9914C17.9233 139.073 17.8579 139.046 17.8097 138.998C17.7615 138.95 17.7344 138.885 17.7344 138.817C17.7344 138.75 17.7615 138.684 17.8097 138.636C17.8579 138.588 17.9233 138.562 17.9914 138.562H39.585C39.6528 138.563 39.7173 138.59 39.7653 138.638C39.8132 138.686 39.8408 138.75 39.8421 138.817C39.8421 138.885 39.815 138.95 39.7668 138.998C39.7186 139.046 39.6532 139.073 39.585 139.073Z" fill="#E3E3E3"/>
        <path d="M41.9809 88.5058H37.4719C37.4037 88.5058 37.3384 88.4788 37.2902 88.4308C37.2419 88.3829 37.2148 88.3178 37.2148 88.25C37.2148 88.1821 37.2419 88.1171 37.2902 88.0691C37.3384 88.0211 37.4037 87.9941 37.4719 87.9941H41.9809C42.049 87.9941 42.1144 88.0211 42.1626 88.0691C42.2108 88.1171 42.2379 88.1821 42.2379 88.25C42.2379 88.3178 42.2108 88.3829 42.1626 88.4308C42.1144 88.4788 42.049 88.5058 41.9809 88.5058Z" fill="#E3E3E3"/>
        <path d="M37.4704 85.3032H31.3625C31.2944 85.3032 31.229 85.2762 31.1808 85.2282C31.1326 85.1802 31.1055 85.1152 31.1055 85.0473C31.1055 84.9795 31.1326 84.9144 31.1808 84.8665C31.229 84.8185 31.2944 84.7915 31.3625 84.7915H37.4704C37.5385 84.7915 37.6039 84.8185 37.6521 84.8665C37.7003 84.9144 37.7274 84.9795 37.7274 85.0473C37.7274 85.1152 37.7003 85.1802 37.6521 85.2282C37.6039 85.2762 37.5385 85.3032 37.4704 85.3032Z" fill="#E3E3E3"/>
        <path d="M172.677 112.185C172.633 112.185 172.589 112.173 172.551 112.152C172.512 112.13 172.48 112.1 172.456 112.063C172.422 112.003 172.412 111.933 172.43 111.867C172.447 111.801 172.489 111.745 172.548 111.709L183.031 105.518L172.389 99.1074C172.331 99.0714 172.29 99.0144 172.273 98.9485C172.257 98.8826 172.267 98.813 172.301 98.7544C172.338 98.6968 172.395 98.6555 172.461 98.6393C172.527 98.6231 172.597 98.6331 172.656 98.6674L184.029 105.518L172.811 112.17C172.768 112.187 172.722 112.193 172.677 112.185Z" fill="#E3E3E3"/>
        <path d="M158.179 112.185C158.134 112.186 158.089 112.173 158.051 112.149L146.832 105.498L158.205 98.6468C158.233 98.6293 158.265 98.6177 158.298 98.6126C158.332 98.6075 158.365 98.609 158.398 98.6171C158.431 98.6252 158.461 98.6397 158.488 98.6598C158.515 98.6798 158.537 98.705 158.554 98.7339C158.572 98.7624 158.584 98.7941 158.59 98.8274C158.596 98.8606 158.594 98.8945 158.587 98.9273C158.579 98.9601 158.565 98.9912 158.545 99.0185C158.526 99.0459 158.501 99.0691 158.472 99.0869L147.83 105.498L158.313 111.689C158.342 111.706 158.368 111.728 158.389 111.756C158.41 111.783 158.424 111.814 158.433 111.847C158.441 111.88 158.442 111.914 158.436 111.948C158.431 111.981 158.418 112.013 158.4 112.042C158.379 112.083 158.348 112.118 158.309 112.143C158.27 112.168 158.225 112.183 158.179 112.185Z" fill="#E3E3E3"/>
        <path d="M160.056 117.952C160.022 117.959 159.987 117.959 159.953 117.952C159.922 117.938 159.894 117.919 159.871 117.895C159.847 117.87 159.829 117.842 159.817 117.81C159.805 117.778 159.8 117.745 159.801 117.711C159.802 117.677 159.81 117.644 159.825 117.614L170.622 94.1392C170.651 94.0785 170.702 94.0315 170.766 94.0086C170.829 93.9856 170.9 93.9884 170.961 94.0164C170.992 94.0297 171.02 94.0491 171.044 94.0734C171.067 94.0977 171.085 94.1266 171.097 94.1581C171.109 94.1896 171.115 94.2232 171.114 94.2569C171.112 94.2906 171.104 94.3236 171.09 94.3541L160.293 117.829C160.268 117.868 160.233 117.9 160.191 117.922C160.15 117.943 160.103 117.954 160.056 117.952Z" fill="#E3E3E3"/>
        <path d="M21.058 104.173C21.0138 104.172 20.9705 104.161 20.9319 104.139C20.8934 104.118 20.8608 104.087 20.837 104.05C20.8031 103.991 20.7936 103.921 20.8109 103.855C20.8282 103.789 20.8707 103.732 20.9294 103.697L26.369 100.484L20.8421 97.153C20.7842 97.117 20.7427 97.06 20.7263 96.9941C20.71 96.9282 20.7203 96.8585 20.7547 96.7999C20.7726 96.7713 20.796 96.7465 20.8235 96.7269C20.851 96.7073 20.8819 96.6933 20.9149 96.6857C20.9478 96.6781 20.9822 96.677 21.0155 96.6826C21.0489 96.6882 21.0807 96.7002 21.1094 96.718L27.3664 100.489L21.1968 104.137C21.1551 104.162 21.1068 104.175 21.058 104.173Z" fill="#E3E3E3"/>
        <path d="M45.9466 90.5218C45.8905 90.5213 45.8361 90.5024 45.7917 90.4682C45.7474 90.434 45.7154 90.3864 45.7009 90.3325C45.6863 90.2785 45.69 90.2213 45.7111 90.1696C45.7323 90.1179 45.7698 90.0745 45.8181 90.046L51.2577 86.8328L45.7307 83.5019C45.7016 83.4846 45.6761 83.4617 45.6559 83.4345C45.6357 83.4073 45.6211 83.3764 45.613 83.3436C45.6049 83.3107 45.6033 83.2767 45.6085 83.2432C45.6137 83.2098 45.6256 83.1778 45.6434 83.1489C45.6795 83.0914 45.7368 83.0501 45.803 83.0338C45.8693 83.0176 45.9392 83.0277 45.9981 83.0619L52.255 86.8328L46.0854 90.486C46.0438 90.5114 45.9954 90.5238 45.9466 90.5218Z" fill="#E3E3E3"/>
        <path d="M13.2995 104.173C13.2524 104.174 13.2059 104.162 13.1657 104.138L6.99609 100.489L13.2533 96.7185C13.282 96.6976 13.3147 96.6828 13.3494 96.6751C13.3842 96.6674 13.42 96.6669 13.4549 96.6738C13.4898 96.6806 13.5231 96.6946 13.5523 96.7148C13.5815 96.735 13.606 96.761 13.6246 96.7912C13.6432 96.8215 13.6552 96.8552 13.66 96.8903C13.6648 96.9254 13.6622 96.9611 13.6525 96.9951C13.6427 97.0292 13.626 97.0609 13.6032 97.0881C13.5805 97.1154 13.5525 97.1376 13.5207 97.1535L7.99373 100.484L13.433 103.698C13.4918 103.733 13.5345 103.789 13.5518 103.855C13.5691 103.921 13.5597 103.991 13.5257 104.051C13.5014 104.088 13.4681 104.119 13.4285 104.141C13.389 104.162 13.3445 104.174 13.2995 104.173Z" fill="#E3E3E3"/>
        <path d="M10.3542 90.522C10.3071 90.523 10.2606 90.5106 10.2204 90.4862L4.05078 86.8329L10.3233 83.0621C10.3822 83.0278 10.4521 83.0177 10.5184 83.0339C10.5846 83.0502 10.6419 83.0915 10.678 83.1491C10.6957 83.1779 10.7075 83.21 10.7127 83.2434C10.7179 83.2768 10.7165 83.3108 10.7084 83.3437C10.7003 83.3765 10.6857 83.4074 10.6655 83.4346C10.6453 83.4618 10.6198 83.4847 10.5907 83.5021L5.06373 86.8329L10.5033 90.0462C10.5516 90.0746 10.5891 90.118 10.6102 90.1698C10.6314 90.2215 10.6348 90.2787 10.6203 90.3326C10.6057 90.3865 10.574 90.4342 10.5297 90.4684C10.4853 90.5026 10.4309 90.5214 10.3748 90.522H10.3542Z" fill="#E3E3E3"/>
        <path d="M14.3038 107.258C14.2682 107.266 14.2312 107.266 14.1956 107.258C14.1647 107.244 14.1372 107.224 14.1142 107.199C14.0913 107.174 14.0735 107.144 14.062 107.112C14.0505 107.081 14.0454 107.047 14.0472 107.013C14.049 106.979 14.0576 106.946 14.0723 106.915L19.8407 94.3543C19.8532 94.3216 19.8723 94.2918 19.8967 94.2668C19.9212 94.2417 19.9504 94.2219 19.9828 94.2085C20.0153 94.1951 20.0502 94.1885 20.0853 94.189C20.1204 94.1895 20.1549 94.1972 20.1869 94.2115C20.2189 94.2259 20.2476 94.2466 20.2713 94.2724C20.2949 94.2982 20.3131 94.3285 20.3245 94.3616C20.3359 94.3946 20.3403 94.4296 20.3376 94.4644C20.3349 94.4993 20.325 94.5332 20.3087 94.5641L14.5403 107.11C14.5184 107.154 14.4846 107.191 14.4429 107.217C14.4011 107.243 14.3531 107.258 14.3038 107.258Z" fill="#E3E3E3"/>
        <path d="M21.058 120.024C21.0132 120.023 20.9694 120.011 20.9307 119.988C20.892 119.966 20.8599 119.934 20.837 119.896C20.8197 119.867 20.8082 119.835 20.8034 119.802C20.7987 119.769 20.8006 119.735 20.8092 119.702C20.8178 119.67 20.833 119.64 20.8536 119.613C20.8743 119.586 20.9 119.564 20.9294 119.548L26.369 116.335L20.8421 113.004C20.7842 112.968 20.7427 112.911 20.7263 112.845C20.71 112.779 20.7203 112.709 20.7547 112.651C20.7909 112.593 20.8481 112.552 20.9144 112.536C20.9806 112.519 21.0505 112.53 21.1094 112.564L27.3664 116.335L21.1968 119.988C21.1541 120.011 21.1064 120.023 21.058 120.024Z" fill="#E3E3E3"/>
        <path d="M13.2995 120.023C13.2528 120.022 13.2069 120.01 13.1657 119.988L6.99609 116.334L13.2533 112.563C13.3119 112.528 13.3821 112.518 13.4486 112.534C13.5151 112.55 13.5726 112.592 13.608 112.65C13.6435 112.709 13.654 112.779 13.6376 112.845C13.6213 112.911 13.5793 112.968 13.5207 113.004L7.99373 116.334L13.433 119.548C13.4625 119.564 13.4885 119.586 13.5091 119.613C13.5298 119.639 13.5447 119.67 13.5533 119.702C13.5619 119.734 13.5641 119.768 13.5593 119.802C13.5546 119.835 13.5431 119.867 13.5257 119.895C13.5024 119.935 13.4692 119.967 13.4295 119.989C13.3899 120.012 13.3451 120.023 13.2995 120.023Z" fill="#E3E3E3"/>
        <path d="M14.3035 123.109C14.2679 123.116 14.231 123.116 14.1953 123.109C14.1646 123.095 14.1371 123.076 14.1142 123.051C14.0913 123.027 14.0735 122.998 14.062 122.966C14.0505 122.935 14.0455 122.901 14.0472 122.868C14.0489 122.834 14.0574 122.802 14.0721 122.771L19.8405 110.205C19.8685 110.144 19.9202 110.095 19.9838 110.072C20.0474 110.048 20.1178 110.05 20.1799 110.077C20.2413 110.107 20.2888 110.159 20.3127 110.223C20.3366 110.287 20.3351 110.357 20.3084 110.42L14.54 122.971C14.5168 123.013 14.4825 123.048 14.4408 123.073C14.3992 123.097 14.3518 123.11 14.3035 123.109Z" fill="#E3E3E3"/>
    </g>
    <defs>
        <clipPath id="clip0_6062_15856">
            <rect width="215" height="144" fill="white"/>
        </clipPath>
    </defs>
</svg>
