<svg width="248" height="121" viewBox="0 0 248 121" fill="none" xmlns="http://www.w3.org/2000/svg">
    <g clip-path="url(#clip0_6062_16085)">
        <path d="M153.743 17.6134C154.667 17.6134 155.416 16.8689 155.416 15.9506C155.416 15.0323 154.667 14.2878 153.743 14.2878C152.819 14.2878 152.07 15.0323 152.07 15.9506C152.07 16.8689 152.819 17.6134 153.743 17.6134Z" fill="#EAB669"/>
        <path d="M153.32 23.9214C154.975 23.9214 156.316 22.8412 156.316 21.5087C156.316 20.1762 154.975 19.0959 153.32 19.0959C151.666 19.0959 150.324 20.1762 150.324 21.5087C150.324 22.8412 151.666 23.9214 153.32 23.9214Z" fill="#CE7783"/>
        <path d="M209.929 43.6C214.314 43.6 217.87 40.7777 217.87 37.2961C217.87 33.8145 214.314 30.9922 209.929 30.9922C205.543 30.9922 201.988 33.8145 201.988 37.2961C201.988 40.7777 205.543 43.6 209.929 43.6Z" fill="#CE7783"/>
        <path d="M169.394 23.7715C171.049 23.7715 172.391 22.6913 172.391 21.3588C172.391 20.0263 171.049 18.946 169.394 18.946C167.74 18.946 166.398 20.0263 166.398 21.3588C166.398 22.6913 167.74 23.7715 169.394 23.7715Z" fill="#CE7783"/>
        <path d="M21.5057 28.3311C23.677 28.3311 25.4372 26.8116 25.4372 24.9371C25.4372 23.0626 23.677 21.543 21.5057 21.543C19.3344 21.543 17.5742 23.0626 17.5742 24.9371C17.5742 26.8116 19.3344 28.3311 21.5057 28.3311Z" fill="#CE7783"/>
        <path d="M168.309 18.5131C169.233 18.5131 169.982 17.7687 169.982 16.8504C169.982 15.9321 169.233 15.1876 168.309 15.1876C167.386 15.1876 166.637 15.9321 166.637 16.8504C166.637 17.7687 167.386 18.5131 168.309 18.5131Z" fill="#EAB669"/>
        <path d="M18.551 19.6062C20.1843 19.6062 21.5083 18.29 21.5083 16.6664C21.5083 15.0428 20.1843 13.7266 18.551 13.7266C16.9178 13.7266 15.5938 15.0428 15.5938 16.6664C15.5938 18.29 16.9178 19.6062 18.551 19.6062Z" fill="#EAB669"/>
        <path d="M208.76 26.6426C211.691 26.6426 214.066 24.2807 214.066 21.3672C214.066 18.4537 211.691 16.0918 208.76 16.0918C205.829 16.0918 203.453 18.4537 203.453 21.3672C203.453 24.2807 205.829 26.6426 208.76 26.6426Z" fill="#EAB669"/>
        <path d="M174.876 64.1016H156.451C155.404 64.1016 154.555 64.9458 154.555 65.9872V84.3032C154.555 85.3446 155.404 86.1888 156.451 86.1888H174.876C175.924 86.1888 176.773 85.3446 176.773 84.3032V65.9872C176.773 64.9458 175.924 64.1016 174.876 64.1016Z" fill="#EAB669"/>
        <path d="M78.0098 46.5399C78.874 46.2682 79.7892 46.196 80.6856 46.329C81.5821 46.4619 82.4361 46.7964 83.1829 47.3071C84.5882 48.3613 85.0366 49.5097 81.8509 52.0853C77.1089 56.0665 57.8738 56.1779 57.8738 56.1779C46.644 59.812 63.7623 76.3667 63.7623 76.3667C56.2916 77.1638 54.2181 85.4605 54.0155 85.3919C53.8129 85.3234 43.872 80.1508 43.3375 59.8463C43.1349 52.2825 48.6225 48.6098 55.5803 46.9899C55.5803 46.9899 58.8222 46.3171 61.2406 46.0643C63.659 45.8114 70.1468 48.9098 78.0098 46.5399Z" fill="#252525"/>
        <path d="M88.1567 69C82.7506 69 81.3285 65.6174 81.3082 62.6619C81.299 61.3207 80.3053 60.03 78.9645 60.0598L59.1556 60.5C58.027 63.5097 63.2971 71.7682 66.5625 76.2064C66.9329 76.7098 67.5227 77 68.1477 77H122.156C123.26 77 124.156 76.1046 124.156 75V71C124.156 69.8954 123.264 69 122.16 69H88.1567Z" fill="#EAB669"/>
        <path d="M73.8307 90.8859L63.3984 98.0169C63.2503 98.1196 63.0832 98.1921 62.9069 98.2302C62.7305 98.2683 62.5483 98.2714 62.3707 98.2391C62.1932 98.2068 62.0239 98.1399 61.8725 98.0422C61.7211 97.9445 61.5905 97.8179 61.4886 97.6698L60.1953 95.7928C61.5274 96.0585 62.2474 94.4514 62.2474 94.4514C64.5278 95.4714 65.2305 92.5787 65.2305 92.5787C66.0194 93.1272 70.3389 91.563 66.8902 86.9562C64.9072 84.3035 66.14 81.1622 67.1445 79.3623C67.4476 79.448 67.7104 79.6379 67.886 79.898L74.1799 88.9875C74.2827 89.1348 74.3551 89.3009 74.3932 89.4761C74.4312 89.6514 74.434 89.8324 74.4016 90.0087C74.3692 90.1851 74.3019 90.3533 74.2039 90.5039C74.106 90.6544 73.9793 90.7842 73.8307 90.8859Z" fill="#CE7783"/>
        <path d="M49.3326 88.6699H30.9683C29.9136 88.6699 29.0586 89.5199 29.0586 90.5684V108.079C29.0586 109.127 29.9136 109.977 30.9683 109.977H49.3326C50.3873 109.977 51.2423 109.127 51.2423 108.079V90.5684C51.2423 89.5199 50.3873 88.6699 49.3326 88.6699Z" fill="#71A5D2"/>
        <path d="M83.1825 96.5386V114.37C83.1803 114.873 82.9784 115.355 82.6207 115.71C82.2631 116.066 81.7785 116.267 81.2727 116.269H61.0117C60.5048 116.269 60.0187 116.069 59.6599 115.713C59.3011 115.357 59.0988 114.874 59.0977 114.37V100.023C59.0975 99.9384 59.1246 99.8562 59.1749 99.7883C59.2252 99.7204 59.296 99.6703 59.377 99.6454C59.458 99.6204 59.5449 99.622 59.6249 99.6498C59.705 99.6776 59.7742 99.7302 59.822 99.7999L61.6583 102.453C61.8283 102.697 62.089 102.865 62.3832 102.919C62.6774 102.973 62.981 102.908 63.2275 102.74L75.9101 95.133C76.3813 94.8364 76.9221 94.6665 77.4793 94.6401H81.2772C81.7826 94.6424 82.2665 94.8433 82.6235 95.1989C82.9804 95.5546 83.1814 96.0362 83.1825 96.5386V96.5386Z" fill="#71A5D2"/>
        <path d="M42.7075 75.2118C40.0173 70.728 39.4396 64.1596 39.5189 60.386C39.531 59.8092 39.0742 59.3252 38.4973 59.3252H22C19.7909 59.3252 18 61.1161 18 63.3252V76.9998H41.7908C42.651 76.9998 43.1501 75.9494 42.7075 75.2118Z" fill="#EAB669"/>
        <circle cx="23" cy="67" r="2" fill="#1B1B1C"/>
        <circle cx="29" cy="67" r="2" fill="#1B1B1C"/>
        <circle cx="35" cy="67" r="2" fill="#1B1B1C"/>
        <path d="M98.3951 41.5949C98.1555 41.5949 97.9213 41.5243 97.7221 41.392C97.5229 41.2597 97.3676 41.0716 97.2759 40.8515C97.1842 40.6315 97.1601 40.3894 97.2068 40.1558C97.2536 39.9222 97.369 39.7076 97.5384 39.5392C97.7078 39.3708 97.9237 39.2561 98.1587 39.2097C98.3937 39.1632 98.6372 39.187 98.8586 39.2782C99.0799 39.3693 99.2692 39.5237 99.4023 39.7217C99.5354 39.9197 99.6065 40.1526 99.6065 40.3907C99.6065 40.5489 99.5751 40.7054 99.5143 40.8515C99.4534 40.9976 99.364 41.1304 99.2516 41.2422C99.1391 41.354 99.0055 41.4427 98.8586 41.5033C98.7116 41.5638 98.5541 41.5949 98.3951 41.5949V41.5949ZM98.3951 39.615C98.2407 39.615 98.0898 39.6605 97.9615 39.7458C97.8331 39.831 97.7332 39.9522 97.6741 40.0939C97.6151 40.2356 97.5996 40.3916 97.6297 40.5421C97.6598 40.6925 97.7342 40.8307 97.8434 40.9392C97.9525 41.0476 98.0915 41.1215 98.2429 41.1515C98.3942 41.1814 98.551 41.1661 98.6935 41.1074C98.8361 41.0486 98.9581 40.9492 99.0438 40.8217C99.1295 40.6941 99.1754 40.5441 99.1754 40.3907C99.1754 40.2889 99.155 40.188 99.1158 40.0939C99.0766 39.9998 99.0192 39.9143 98.9468 39.8422C98.8743 39.7702 98.7882 39.7131 98.6935 39.6741C98.5989 39.6351 98.4975 39.615 98.3951 39.615Z" fill="#E3E3E3"/>
        <path d="M94.6995 41.5949C94.46 41.5949 94.2258 41.5243 94.0266 41.392C93.8274 41.2597 93.6723 41.0716 93.5806 40.8515C93.4889 40.6315 93.4648 40.3894 93.5115 40.1558C93.5583 39.9222 93.6736 39.7076 93.8431 39.5392C94.0125 39.3708 94.2284 39.2561 94.4634 39.2097C94.6983 39.1632 94.9419 39.187 95.1632 39.2782C95.3846 39.3693 95.5736 39.5237 95.7067 39.7217C95.8398 39.9197 95.9109 40.1526 95.9109 40.3907C95.9109 40.7101 95.7834 41.0164 95.5562 41.2422C95.3291 41.468 95.0208 41.5949 94.6995 41.5949V41.5949ZM94.6995 39.615C94.5452 39.615 94.3944 39.6605 94.2661 39.7458C94.1378 39.831 94.0379 39.9522 93.9788 40.0939C93.9198 40.2356 93.9043 40.3916 93.9344 40.5421C93.9645 40.6925 94.0387 40.8307 94.1478 40.9392C94.257 41.0476 94.396 41.1215 94.5474 41.1515C94.6987 41.1814 94.8556 41.1661 94.9982 41.1074C95.1408 41.0486 95.2627 40.9492 95.3485 40.8217C95.4342 40.6941 95.4798 40.5441 95.4798 40.3907C95.4798 40.185 95.3978 39.9877 95.2514 39.8422C95.1051 39.6968 94.9065 39.615 94.6995 39.615Z" fill="#E3E3E3"/>
        <path d="M90.7779 41.5948C90.5383 41.5948 90.3039 41.5242 90.1047 41.3919C89.9055 41.2595 89.7504 41.0715 89.6587 40.8514C89.567 40.6314 89.5429 40.3893 89.5897 40.1557C89.6364 39.9221 89.7518 39.7075 89.9212 39.5391C90.0906 39.3707 90.3065 39.256 90.5415 39.2095C90.7765 39.1631 91.02 39.1869 91.2414 39.2781C91.4627 39.3692 91.652 39.5235 91.7851 39.7216C91.9182 39.9196 91.989 40.1524 91.989 40.3906C91.989 40.71 91.8615 41.0163 91.6344 41.2421C91.4072 41.4679 91.0991 41.5948 90.7779 41.5948V41.5948ZM90.7779 39.6149C90.6236 39.6149 90.4726 39.6604 90.3443 39.7456C90.216 39.8309 90.116 39.952 90.0569 40.0938C89.9979 40.2355 89.9824 40.3915 90.0125 40.5419C90.0426 40.6924 90.1168 40.8306 90.226 40.939C90.3351 41.0475 90.4741 41.1214 90.6255 41.1513C90.7768 41.1813 90.9338 41.1659 91.0764 41.1072C91.2189 41.0485 91.3409 40.9491 91.4266 40.8216C91.5123 40.694 91.558 40.544 91.558 40.3906C91.558 40.1849 91.4759 39.9876 91.3296 39.8421C91.1832 39.6966 90.9848 39.6149 90.7779 39.6149Z" fill="#E3E3E3"/>
        <path d="M52.1176 85.5336L51.8029 85.1651C51.6736 85.0108 38.8703 69.7074 42.0948 56.8511C42.5274 55.1028 43.2563 53.4405 44.2503 51.9356C46.8713 47.9415 51.458 45.6274 58.683 44.6503C58.7109 44.6455 58.7395 44.6463 58.767 44.6529C58.7945 44.6594 58.8204 44.6715 58.843 44.6884C58.8656 44.7053 58.8846 44.7265 58.8986 44.751C58.9126 44.7754 58.9214 44.8024 58.9245 44.8303C58.9288 44.8582 58.9275 44.8866 58.9207 44.914C58.9139 44.9413 58.9017 44.9671 58.8849 44.9898C58.8681 45.0125 58.8469 45.0317 58.8226 45.0462C58.7983 45.0608 58.7715 45.0704 58.7435 45.0746C51.6478 46.0302 47.1601 48.2844 44.6081 52.167C43.6446 53.6325 42.9377 55.2495 42.5173 56.9496C40.8662 63.5449 43.5649 70.7831 46.1169 75.6899C47.7534 78.8125 49.6771 81.7778 51.8633 84.5479C52.2729 83.1594 54.204 78.9768 62.7697 77.3698C61.6618 75.257 54.7257 61.7664 55.7172 56.8553C55.9241 55.8482 56.4458 55.244 57.2692 55.0511C57.8728 54.926 58.4893 54.8742 59.1055 54.8969C59.1336 54.8968 59.1615 54.9024 59.1874 54.9132C59.2133 54.924 59.2368 54.9399 59.2564 54.9599C59.2761 54.9798 59.2915 55.0035 59.3019 55.0295C59.3122 55.0554 59.3174 55.0832 59.3168 55.1111C59.3168 55.168 59.2941 55.2224 59.2537 55.2626C59.2133 55.3028 59.1585 55.3254 59.1013 55.3254C58.5227 55.3044 57.9437 55.3533 57.3769 55.4711C56.7217 55.6211 56.3206 56.1011 56.1525 56.941C55.1265 62.0107 63.2139 77.2755 63.2958 77.4255L63.4336 77.687L63.1404 77.7384C53.0918 79.5126 52.2039 84.9979 52.1953 85.0536L52.1176 85.5336Z" fill="#E3E3E3"/>
        <path d="M57.7755 95.8058C57.4191 95.8014 57.0773 95.6637 56.8184 95.4202C55.7622 94.4988 52.9386 90.7062 52.2274 87.4921C52.2153 87.4353 52.2266 87.376 52.2585 87.3273C52.2904 87.2787 52.3405 87.2447 52.3976 87.2328C52.4548 87.2208 52.5144 87.232 52.5633 87.2637C52.6122 87.2955 52.6464 87.3452 52.6584 87.4021C53.3396 90.5047 56.1072 94.2031 57.1116 95.1159C57.2131 95.2136 57.3345 95.2887 57.4675 95.336C57.6006 95.3833 57.7424 95.4018 57.8833 95.3902C58.5687 95.3216 59.1765 94.5331 59.1765 94.5331L59.2885 94.3831L59.4567 94.4773C59.5984 94.5746 59.76 94.6396 59.9299 94.6677C60.0998 94.6959 60.2737 94.6865 60.4395 94.6402C60.8884 94.437 61.2482 94.0794 61.4526 93.6331L61.5389 93.4402L61.7372 93.526C61.9231 93.6243 62.1288 93.6799 62.3392 93.6888C62.5495 93.6977 62.7591 93.6596 62.9528 93.5774C63.7158 93.2046 64.009 92.0689 64.009 92.0561L64.0865 91.7518L64.341 91.9318C64.5306 92.0647 65.41 91.9661 66.0308 91.3318C66.893 90.4362 66.7034 89.0348 65.4704 87.3892C64.0048 85.4307 64.2289 82.8338 66.1171 79.8768C66.267 79.6463 66.3253 79.3686 66.2806 79.0977C66.236 78.8268 66.0917 78.5821 65.8756 78.4112C65.8311 78.3754 65.8026 78.3234 65.7965 78.2668C65.7904 78.2101 65.8072 78.1534 65.8432 78.1091C65.8792 78.0647 65.9315 78.0364 65.9885 78.0304C66.0455 78.0244 66.1026 78.0411 66.1472 78.0769C66.4442 78.3155 66.6426 78.6543 66.7046 79.0289C66.7666 79.4034 66.6877 79.7876 66.4833 80.1082C65.2375 82.0538 64.1123 84.8565 65.8194 87.1364C67.6731 89.6091 66.9404 90.9933 66.3368 91.6275C66.0877 91.8966 65.7798 92.1053 65.4368 92.2376C65.0937 92.3698 64.7247 92.4221 64.3582 92.3903C64.1638 93.0466 63.7302 93.6074 63.1424 93.9631C62.9252 94.0641 62.6892 94.1189 62.4495 94.1241C62.2097 94.1292 61.9714 94.0846 61.75 93.9931C61.4961 94.4723 61.0789 94.846 60.5731 95.0473C60.1828 95.1657 59.7614 95.1257 59.4007 94.9359C59.0274 95.3825 58.5089 95.6856 57.9348 95.793C57.8822 95.8027 57.829 95.8069 57.7755 95.8058V95.8058Z" fill="#E3E3E3"/>
        <path d="M63.3984 91.2327C63.3503 91.2336 63.3033 91.2185 63.2648 91.1898C62.4414 90.5384 60.9671 88.2286 60.9024 88.1343C60.8732 88.0857 60.8639 88.0277 60.8768 87.9726C60.8896 87.9174 60.9235 87.8694 60.9713 87.8386C61.0193 87.808 61.0776 87.7975 61.1333 87.8096C61.1891 87.8216 61.238 87.8552 61.2689 87.9029C61.2689 87.9286 62.7648 90.247 63.5321 90.8513C63.5768 90.8874 63.6054 90.9395 63.6119 90.9964C63.6183 91.0533 63.6019 91.1104 63.5664 91.1555C63.5459 91.18 63.5203 91.1996 63.4913 91.213C63.4622 91.2263 63.4305 91.233 63.3984 91.2327Z" fill="#E3E3E3"/>
        <path d="M60.6577 92.9475C60.607 92.9473 60.5579 92.9291 60.5196 92.896C59.8342 92.3132 58.3642 89.7334 58.2996 89.6262C58.2752 89.5771 58.2707 89.5205 58.287 89.4681C58.3032 89.4158 58.3391 89.3716 58.3871 89.3447C58.4352 89.3178 58.4918 89.3102 58.5452 89.3235C58.5987 89.3368 58.645 89.37 58.6747 89.4162C59.1058 90.1405 60.2784 92.1246 60.8 92.5703C60.8336 92.5989 60.8576 92.6371 60.8686 92.6797C60.8797 92.7223 60.8772 92.7672 60.8617 92.8084C60.8462 92.8496 60.8182 92.885 60.7817 92.9099C60.7452 92.9348 60.702 92.9479 60.6577 92.9475V92.9475Z" fill="#E3E3E3"/>
        <path d="M57.8734 93.8387C57.8336 93.8377 57.7947 93.8259 57.7612 93.8044C56.8603 93.2601 56.0369 91.2888 56.0369 91.2074C56.0228 91.181 56.0144 91.152 56.0123 91.1222C56.0101 91.0924 56.0143 91.0625 56.0245 91.0344C56.0347 91.0063 56.0507 90.9806 56.0714 90.959C56.0922 90.9374 56.1173 90.9203 56.1451 90.9089C56.1729 90.8975 56.2026 90.892 56.2326 90.8928C56.2627 90.8935 56.2924 90.9005 56.3196 90.9133C56.3467 90.926 56.3709 90.9443 56.3905 90.9669C56.4102 90.9895 56.4247 91.016 56.4335 91.0445C56.6533 91.5802 57.3518 93.0458 57.9985 93.4401C58.0229 93.4546 58.0442 93.4739 58.0612 93.4966C58.0781 93.5194 58.0902 93.5453 58.097 93.5727C58.1038 93.6002 58.1051 93.6288 58.1008 93.6568C58.0964 93.6848 58.0866 93.7116 58.0717 93.7358C58.0506 93.7687 58.0211 93.7955 57.9863 93.8136C57.9515 93.8316 57.9126 93.8403 57.8734 93.8387Z" fill="#E3E3E3"/>
        <path d="M15.9069 86.3564C15.8498 86.3564 15.795 86.3338 15.7546 86.2936C15.7141 86.2534 15.6914 86.1989 15.6914 86.1421V64.7148C15.6937 62.5878 16.5446 60.5486 18.0575 59.0446C19.5705 57.5406 21.6219 56.6947 23.7614 56.6924H40.1427C40.1999 56.6924 40.2547 56.715 40.2951 56.7552C40.3356 56.7953 40.3583 56.8498 40.3583 56.9067C40.3583 56.9635 40.3356 57.018 40.2951 57.0582C40.2547 57.0984 40.1999 57.1209 40.1427 57.1209H23.7614C21.7362 57.1232 19.7944 57.924 18.3623 59.3476C16.9303 60.7713 16.1248 62.7015 16.1225 64.7148V86.1421C16.1225 86.1989 16.0998 86.2534 16.0593 86.2936C16.0189 86.3338 15.9641 86.3564 15.9069 86.3564Z" fill="#E3E3E3"/>
        <path d="M89.1099 121H23.7614C21.6219 120.998 19.5705 120.152 18.0575 118.648C16.5446 117.144 15.6937 115.105 15.6914 112.978V104.6C15.6914 104.543 15.7141 104.488 15.7546 104.448C15.795 104.408 15.8498 104.385 15.9069 104.385C15.9638 104.386 16.0179 104.409 16.0581 104.449C16.0983 104.489 16.1214 104.543 16.1225 104.6V112.978C16.1248 114.991 16.9303 116.921 18.3623 118.345C19.7944 119.768 21.7362 120.569 23.7614 120.572H89.1099C89.167 120.572 89.2218 120.594 89.2622 120.634C89.3027 120.675 89.3254 120.729 89.3254 120.786C89.3254 120.843 89.3027 120.897 89.2622 120.937C89.2218 120.978 89.167 121 89.1099 121Z" fill="#E3E3E3"/>
        <path d="M119.87 121H110.481C110.424 121 110.369 120.978 110.329 120.937C110.288 120.897 110.266 120.843 110.266 120.786C110.267 120.729 110.29 120.675 110.33 120.636C110.37 120.596 110.424 120.573 110.481 120.572H119.87C121.896 120.57 123.839 119.77 125.272 118.346C126.705 116.923 127.511 114.992 127.514 112.978V69.266C127.514 69.2092 127.536 69.1547 127.577 69.1145C127.617 69.0743 127.672 69.0518 127.729 69.0518C127.786 69.0518 127.841 69.0743 127.881 69.1145C127.922 69.1547 127.945 69.2092 127.945 69.266V112.978C127.941 115.105 127.089 117.144 125.576 118.648C124.062 120.152 122.01 120.998 119.87 121V121Z" fill="#E3E3E3"/>
        <path d="M80.4894 57.1168H59.3444C59.2876 57.1157 59.2335 57.0927 59.1933 57.0528C59.1531 57.0128 59.13 56.959 59.1289 56.9025C59.1289 56.8457 59.1516 56.7911 59.1921 56.751C59.2325 56.7108 59.2873 56.6882 59.3444 56.6882H80.4894C80.5466 56.6882 80.6014 56.7108 80.6418 56.751C80.6822 56.7911 80.7049 56.8457 80.7049 56.9025C80.7049 56.9593 80.6822 57.0138 80.6418 57.054C80.6014 57.0942 80.5466 57.1168 80.4894 57.1168Z" fill="#E3E3E3"/>
        <path d="M131.404 66.3947H89.5584C88.3007 66.3947 87.0945 65.8981 86.2052 65.0141C85.3159 64.13 84.8164 62.931 84.8164 61.6807V41.1748C84.8164 39.9246 85.3159 38.7256 86.2052 37.8415C87.0945 36.9575 88.3007 36.4608 89.5584 36.4608H110.996C111.053 36.4608 111.108 36.4834 111.149 36.5236C111.189 36.5638 111.212 36.6183 111.212 36.6751C111.212 36.7319 111.189 36.7864 111.149 36.8266C111.108 36.8668 111.053 36.8894 110.996 36.8894H89.5584C88.415 36.8894 87.3185 37.3409 86.51 38.1446C85.7016 38.9482 85.2475 40.0382 85.2475 41.1748V61.6807C85.2475 62.8173 85.7016 63.9074 86.51 64.7111C87.3185 65.5147 88.415 65.9662 89.5584 65.9662H131.404C132.547 65.9662 133.644 65.5147 134.452 64.7111C135.261 63.9074 135.715 62.8173 135.715 61.6807V58.4709C135.715 58.4141 135.737 58.3596 135.778 58.3194C135.818 58.2792 135.873 58.2567 135.93 58.2567C135.987 58.2567 136.042 58.2792 136.083 58.3194C136.123 58.3596 136.146 58.4141 136.146 58.4709V61.6807C136.146 62.931 135.646 64.13 134.757 65.0141C133.868 65.8981 132.662 66.3947 131.404 66.3947Z" fill="#E3E3E3"/>
        <path d="M135.922 48.0445C135.864 48.0445 135.81 48.0219 135.769 47.9817C135.729 47.9416 135.706 47.8871 135.706 47.8302V41.1835C135.706 40.0469 135.252 38.9569 134.444 38.1532C133.635 37.3495 132.539 36.898 131.395 36.898C131.338 36.898 131.283 36.8754 131.243 36.8353C131.202 36.7951 131.18 36.7406 131.18 36.6838C131.18 36.6269 131.202 36.5724 131.243 36.5323C131.283 36.4921 131.338 36.4695 131.395 36.4695C132.653 36.4695 133.859 36.9661 134.748 37.8502C135.638 38.7342 136.137 39.9333 136.137 41.1835V47.8302C136.137 47.8871 136.114 47.9416 136.074 47.9817C136.034 48.0219 135.979 48.0445 135.922 48.0445Z" fill="#E3E3E3"/>
        <path d="M47.984 114.032C47.9269 114.032 47.8721 114.009 47.8316 113.969C47.7912 113.929 47.7685 113.874 47.7685 113.818C47.7685 113.761 47.7912 113.706 47.8316 113.666C47.8721 113.626 47.9269 113.603 47.984 113.603C48.9712 113.601 49.9172 113.21 50.6152 112.516C51.3132 111.822 51.7062 110.882 51.7085 109.901V94.9359C51.7062 93.9546 51.3132 93.0141 50.6152 92.3202C49.9172 91.6263 48.9712 91.2355 47.984 91.2332H29.8784C28.8913 91.2355 27.9453 91.6263 27.2472 92.3202C26.5492 93.0141 26.156 93.9546 26.1537 94.9359V98.5185C26.1537 98.5753 26.131 98.6298 26.0906 98.67C26.0502 98.7102 25.9954 98.7328 25.9382 98.7328C25.881 98.7328 25.8262 98.7102 25.7858 98.67C25.7454 98.6298 25.7227 98.5753 25.7227 98.5185V94.9359C25.7238 93.8406 26.1619 92.7904 26.941 92.0159C27.7201 91.2414 28.7766 90.8058 29.8784 90.8047H47.984C49.0858 90.8058 50.1422 91.2414 50.9212 92.0159C51.7003 92.7904 52.1384 93.8406 52.1396 94.9359V109.901C52.1384 110.996 51.7003 112.046 50.9212 112.821C50.1422 113.595 49.0858 114.031 47.984 114.032V114.032Z" fill="#E3E3E3"/>
        <path d="M35.996 114.032H29.8745C28.7727 114.031 27.7164 113.595 26.9373 112.821C26.1582 112.046 25.7199 110.996 25.7188 109.901V104.176C25.7188 104.119 25.7415 104.064 25.7819 104.024C25.8223 103.984 25.8771 103.961 25.9343 103.961C25.9915 103.961 26.0465 103.984 26.0869 104.024C26.1273 104.064 26.1498 104.119 26.1498 104.176V109.901C26.1521 110.882 26.5453 111.823 27.2433 112.517C27.9413 113.211 28.8874 113.601 29.8745 113.604H35.996C36.0532 113.604 36.108 113.626 36.1484 113.666C36.1888 113.707 36.2116 113.761 36.2116 113.818C36.2116 113.875 36.1888 113.929 36.1484 113.969C36.108 114.01 36.0532 114.032 35.996 114.032Z" fill="#E3E3E3"/>
        <path d="M79.914 114.032H61.8084C60.7058 114.032 59.6485 113.597 58.8684 112.822C58.0884 112.047 57.6496 110.997 57.6484 109.901V98.7583C57.6484 98.7015 57.6712 98.647 57.7116 98.6069C57.752 98.5667 57.8068 98.5441 57.864 98.5441C57.9211 98.5441 57.976 98.5667 58.0164 98.6069C58.0568 98.647 58.0795 98.7015 58.0795 98.7583V109.901C58.0818 110.883 58.4756 111.824 59.1745 112.518C59.8734 113.212 60.8205 113.602 61.8084 113.603H79.914C80.9019 113.602 81.849 113.212 82.5479 112.518C83.2468 111.824 83.6406 110.883 83.6429 109.901V94.9358C83.6406 93.9537 83.2468 93.0126 82.5479 92.3185C81.849 91.6245 80.9019 91.2342 79.914 91.2331H76.8015C76.7443 91.2331 76.6895 91.2105 76.6491 91.1703C76.6087 91.1302 76.5859 91.0757 76.5859 91.0188C76.5859 90.962 76.6087 90.9075 76.6491 90.8673C76.6895 90.8271 76.7443 90.8046 76.8015 90.8046H79.914C81.0166 90.8046 82.0739 91.2397 82.854 92.0143C83.634 92.7889 84.0728 93.8397 84.074 94.9358V109.901C84.0728 110.997 83.634 112.047 82.854 112.822C82.0739 113.597 81.0166 114.032 79.914 114.032V114.032Z" fill="#E3E3E3"/>
        <path d="M129.598 52.6296H121.86C121.307 52.6296 120.859 53.0748 120.859 53.6239V60.1763C120.859 60.7254 121.307 61.1706 121.86 61.1706H129.598C130.15 61.1706 130.598 60.7254 130.598 60.1763V53.6239C130.598 53.0748 130.15 52.6296 129.598 52.6296Z" fill="#EAB669"/>
        <path d="M128.406 64.1623H120.284C119.78 64.1611 119.297 63.9617 118.941 63.6075C118.585 63.2533 118.384 62.7732 118.383 62.2724V55.5442C118.384 55.0433 118.585 54.5633 118.941 54.2091C119.297 53.8549 119.78 53.6554 120.284 53.6543H128.406C128.909 53.6554 129.392 53.8549 129.749 54.2091C130.105 54.5633 130.306 55.0433 130.307 55.5442V62.2895C130.301 62.7874 130.098 63.2631 129.743 63.6135C129.387 63.964 128.906 64.1612 128.406 64.1623ZM120.284 54.0828C120.091 54.0828 119.9 54.1207 119.721 54.1941C119.543 54.2676 119.381 54.3752 119.245 54.5109C119.108 54.6466 119 54.8077 118.926 54.985C118.852 55.1623 118.814 55.3523 118.814 55.5442V62.2895C118.814 62.6771 118.969 63.0488 119.245 63.3228C119.52 63.5969 119.894 63.7509 120.284 63.7509H128.406C128.795 63.7509 129.169 63.5969 129.445 63.3228C129.721 63.0488 129.876 62.6771 129.876 62.2895V55.5614C129.876 55.3695 129.838 55.1794 129.764 55.0021C129.69 54.8248 129.581 54.6637 129.445 54.528C129.308 54.3923 129.147 54.2847 128.968 54.2112C128.79 54.1378 128.599 54.1 128.406 54.1L120.284 54.0828Z" fill="#E3E3E3"/>
        <path d="M42.5055 75.3601H25.9343C25.8771 75.3601 25.8223 75.3375 25.7819 75.2973C25.7415 75.2571 25.7188 75.2026 25.7188 75.1458C25.7188 75.089 25.7415 75.0345 25.7819 74.9943C25.8223 74.9541 25.8771 74.9315 25.9343 74.9315H42.5055C42.5623 74.9326 42.6164 74.9555 42.6566 74.9955C42.6968 75.0354 42.7199 75.0893 42.721 75.1458C42.721 75.2026 42.6983 75.2571 42.6579 75.2973C42.6174 75.3375 42.5626 75.3601 42.5055 75.3601Z" fill="#E3E3E3"/>
        <path d="M117.224 75.3602H64.9851C64.9279 75.3602 64.8731 75.3376 64.8327 75.2974C64.7923 75.2572 64.7695 75.2027 64.7695 75.1459C64.7695 75.0891 64.7923 75.0346 64.8327 74.9944C64.8731 74.9542 64.9279 74.9316 64.9851 74.9316H117.224C117.281 74.9327 117.335 74.9557 117.375 74.9956C117.416 75.0356 117.439 75.0894 117.44 75.1459C117.44 75.2027 117.417 75.2572 117.377 75.2974C117.336 75.3376 117.281 75.3602 117.224 75.3602Z" fill="#E3E3E3"/>
        <path d="M128.886 46.2744H89.7819C89.7251 46.2733 89.6708 46.2503 89.6306 46.2104C89.5904 46.1704 89.5675 46.1166 89.5664 46.0601C89.5664 46.0033 89.5891 45.9488 89.6296 45.9086C89.67 45.8684 89.7248 45.8458 89.7819 45.8458H128.886C128.943 45.8458 128.998 45.8684 129.038 45.9086C129.079 45.9488 129.101 46.0033 129.101 46.0601C129.101 46.1169 129.079 46.1714 129.038 46.2116C128.998 46.2518 128.943 46.2744 128.886 46.2744Z" fill="#E3E3E3"/>
        <path d="M29.1162 31.9396H10.0319C9.97478 31.9396 9.91998 31.9171 9.87955 31.8769C9.83913 31.8367 9.81641 31.7822 9.81641 31.7254C9.81641 31.6686 9.83913 31.614 9.87955 31.5738C9.91998 31.5336 9.97478 31.5111 10.0319 31.5111H29.1162C29.173 31.5122 29.2271 31.5351 29.2673 31.575C29.3075 31.615 29.3306 31.6689 29.3317 31.7254C29.3317 31.7822 29.309 31.8367 29.2686 31.8769C29.2282 31.9171 29.1733 31.9396 29.1162 31.9396Z" fill="#E3E3E3"/>
        <path d="M226.281 63.8836H181.38C181.323 63.8825 181.268 63.8596 181.228 63.8196C181.188 63.7797 181.165 63.7258 181.164 63.6694C181.164 63.6125 181.187 63.558 181.227 63.5179C181.268 63.4777 181.322 63.4551 181.38 63.4551H226.281C226.339 63.4551 226.394 63.4777 226.434 63.5179C226.474 63.558 226.497 63.6125 226.497 63.6694C226.497 63.7262 226.474 63.7807 226.434 63.8209C226.394 63.8611 226.339 63.8836 226.281 63.8836Z" fill="#E3E3E3"/>
        <path d="M216.813 115.597H171.911C171.854 115.597 171.799 115.574 171.758 115.534C171.718 115.494 171.695 115.439 171.695 115.382C171.696 115.326 171.72 115.272 171.76 115.232C171.8 115.192 171.854 115.169 171.911 115.168H216.813C216.87 115.168 216.925 115.191 216.965 115.231C217.006 115.271 217.028 115.325 217.028 115.382C217.028 115.439 217.006 115.494 216.965 115.534C216.925 115.574 216.87 115.597 216.813 115.597Z" fill="#E3E3E3"/>
        <path d="M174.325 93.702H147.731C147.674 93.702 147.619 93.6794 147.579 93.6392C147.538 93.599 147.516 93.5445 147.516 93.4877C147.516 93.4309 147.538 93.3763 147.579 93.3362C147.619 93.296 147.674 93.2734 147.731 93.2734H174.325C174.382 93.2734 174.437 93.296 174.477 93.3362C174.518 93.3763 174.54 93.4309 174.54 93.4877C174.54 93.5445 174.518 93.599 174.477 93.6392C174.437 93.6794 174.382 93.702 174.325 93.702Z" fill="#E3E3E3"/>
        <path d="M205.292 69.87H181.38C181.323 69.8689 181.268 69.846 181.228 69.806C181.188 69.7661 181.165 69.7122 181.164 69.6557C181.164 69.5989 181.187 69.5444 181.227 69.5042C181.268 69.464 181.322 69.4414 181.38 69.4414H205.292C205.349 69.4414 205.404 69.464 205.444 69.5042C205.485 69.5444 205.507 69.5989 205.507 69.6557C205.506 69.7122 205.483 69.7661 205.443 69.806C205.403 69.846 205.349 69.8689 205.292 69.87Z" fill="#E3E3E3"/>
        <path d="M205.292 80.8543H181.38C181.323 80.8532 181.268 80.8303 181.228 80.7904C181.188 80.7504 181.165 80.6965 181.164 80.64C181.164 80.5832 181.187 80.5287 181.227 80.4886C181.268 80.4484 181.322 80.4258 181.38 80.4258H205.292C205.349 80.4258 205.404 80.4484 205.444 80.4886C205.485 80.5287 205.507 80.5832 205.507 80.64C205.506 80.6965 205.483 80.7504 205.443 80.7904C205.403 80.8303 205.349 80.8532 205.292 80.8543Z" fill="#E3E3E3"/>
        <path d="M213.296 75.3602H181.395C181.338 75.3602 181.283 75.3376 181.243 75.2974C181.202 75.2572 181.18 75.2027 181.18 75.1459C181.181 75.0894 181.204 75.0356 181.244 74.9956C181.284 74.9557 181.338 74.9327 181.395 74.9316H213.296C213.352 74.9327 213.407 74.9557 213.447 74.9956C213.487 75.0356 213.51 75.0894 213.511 75.1459C213.511 75.2027 213.488 75.2572 213.448 75.2974C213.408 75.3376 213.353 75.3602 213.296 75.3602Z" fill="#E3E3E3"/>
        <path d="M25.9665 35.3338H13.1804C13.1236 35.3327 13.0694 35.3098 13.0293 35.2698C12.9891 35.2299 12.9659 35.176 12.9648 35.1195C12.9648 35.0627 12.9876 35.0082 13.028 34.968C13.0684 34.9279 13.1232 34.9053 13.1804 34.9053H25.9665C26.0237 34.9053 26.0785 34.9279 26.1189 34.968C26.1593 35.0082 26.182 35.0627 26.182 35.1195C26.182 35.1764 26.1593 35.2309 26.1189 35.2711C26.0785 35.3113 26.0237 35.3338 25.9665 35.3338Z" fill="#E3E3E3"/>
        <path d="M25.9665 37.9354H13.1804C13.1236 37.9343 13.0694 37.9114 13.0293 37.8714C12.9891 37.8315 12.9659 37.7776 12.9648 37.7211C12.9648 37.6643 12.9876 37.6097 13.028 37.5696C13.0684 37.5294 13.1232 37.5068 13.1804 37.5068H25.9665C26.0237 37.5068 26.0785 37.5294 26.1189 37.5696C26.1593 37.6097 26.182 37.6643 26.182 37.7211C26.182 37.7779 26.1593 37.8324 26.1189 37.8726C26.0785 37.9128 26.0237 37.9354 25.9665 37.9354Z" fill="#E3E3E3"/>
        <path d="M128.886 51.2927H89.7819C89.7251 51.2916 89.6708 51.2687 89.6306 51.2287C89.5904 51.1888 89.5675 51.1349 89.5664 51.0784C89.5664 51.0216 89.5891 50.9671 89.6296 50.9269C89.67 50.8867 89.7248 50.8641 89.7819 50.8641H128.886C128.943 50.8641 128.998 50.8867 129.038 50.9269C129.079 50.9671 129.101 51.0216 129.101 51.0784C129.101 51.1352 129.079 51.1898 129.038 51.23C128.998 51.2701 128.943 51.2927 128.886 51.2927Z" fill="#E3E3E3"/>
        <path d="M113.388 56.3925H89.7819C89.7248 56.3925 89.67 56.3699 89.6296 56.3298C89.5891 56.2896 89.5664 56.2351 89.5664 56.1783C89.5675 56.1218 89.5904 56.0679 89.6306 56.028C89.6708 55.988 89.7251 55.9651 89.7819 55.964H113.388C113.445 55.9651 113.499 55.988 113.539 56.028C113.579 56.0679 113.603 56.1218 113.604 56.1783C113.604 56.2351 113.581 56.2896 113.541 56.3298C113.5 56.3699 113.445 56.3925 113.388 56.3925Z" fill="#E3E3E3"/>
        <path d="M113.388 60.815H89.7819C89.7248 60.815 89.67 60.7924 89.6296 60.7522C89.5891 60.7121 89.5664 60.6576 89.5664 60.6007C89.5675 60.5443 89.5904 60.4903 89.6306 60.4504C89.6708 60.4105 89.7251 60.3876 89.7819 60.3865H113.388C113.445 60.3876 113.499 60.4105 113.539 60.4504C113.579 60.4903 113.603 60.5443 113.604 60.6007C113.604 60.6576 113.581 60.7121 113.541 60.7522C113.5 60.7924 113.445 60.815 113.388 60.815Z" fill="#E3E3E3"/>
        <path d="M117.221 92.1331H98.0202C97.9631 92.1331 97.9083 92.1106 97.8678 92.0704C97.8274 92.0302 97.8047 91.9757 97.8047 91.9189C97.8047 91.862 97.8274 91.8076 97.8678 91.7674C97.9083 91.7272 97.9631 91.7046 98.0202 91.7046H117.208C117.265 91.7046 117.32 91.7272 117.36 91.7674C117.401 91.8076 117.423 91.862 117.423 91.9189C117.422 91.9732 117.401 92.0253 117.364 92.0649C117.326 92.1046 117.275 92.1289 117.221 92.1331V92.1331Z" fill="#E3E3E3"/>
        <path d="M117.221 100.674H98.0202C97.9631 100.674 97.9083 100.651 97.8678 100.611C97.8274 100.571 97.8047 100.516 97.8047 100.46C97.8047 100.403 97.8274 100.348 97.8678 100.308C97.9083 100.268 97.9631 100.245 98.0202 100.245H117.208C117.265 100.245 117.32 100.268 117.36 100.308C117.401 100.348 117.423 100.403 117.423 100.46C117.422 100.514 117.401 100.566 117.364 100.606C117.326 100.645 117.275 100.67 117.221 100.674V100.674Z" fill="#E3E3E3"/>
        <path d="M117.221 109.211H92.7312C92.674 109.211 92.6192 109.188 92.5788 109.148C92.5384 109.108 92.5156 109.053 92.5156 108.996C92.5156 108.94 92.5384 108.885 92.5788 108.845C92.6192 108.805 92.674 108.782 92.7312 108.782H117.221C117.278 108.783 117.332 108.806 117.372 108.846C117.413 108.886 117.436 108.94 117.437 108.996C117.437 109.053 117.414 109.108 117.374 109.148C117.333 109.188 117.278 109.211 117.221 109.211Z" fill="#E3E3E3"/>
        <path d="M47.2689 83.5925H25.9343C25.8771 83.5925 25.8223 83.5699 25.7819 83.5298C25.7415 83.4896 25.7188 83.435 25.7188 83.3782C25.7188 83.3214 25.7415 83.2669 25.7819 83.2267C25.8223 83.1865 25.8771 83.1639 25.9343 83.1639H47.2689C47.3261 83.1639 47.3809 83.1865 47.4213 83.2267C47.4617 83.2669 47.4844 83.3214 47.4844 83.3782C47.4844 83.435 47.4617 83.4896 47.4213 83.5298C47.3809 83.5699 47.3261 83.5925 47.2689 83.5925Z" fill="#E3E3E3"/>
        <path d="M117.223 83.5926H73.4069C73.3498 83.5926 73.295 83.5701 73.2546 83.5299C73.2141 83.4897 73.1914 83.4352 73.1914 83.3783C73.1914 83.3215 73.2141 83.267 73.2546 83.2268C73.295 83.1867 73.3498 83.1641 73.4069 83.1641H117.223C117.28 83.1641 117.335 83.1867 117.375 83.2268C117.415 83.267 117.438 83.3215 117.438 83.3783C117.438 83.4352 117.415 83.4897 117.375 83.5299C117.335 83.5701 117.28 83.5926 117.223 83.5926Z" fill="#E3E3E3"/>
        <path d="M115.926 41.749C115.612 41.7457 115.3 41.6892 115.004 41.5819C112.745 40.7891 112.719 36.8679 112.719 36.6879C112.719 36.6311 112.742 36.5766 112.782 36.5364C112.823 36.4962 112.877 36.4736 112.935 36.4736C112.992 36.4736 113.047 36.4962 113.087 36.5364C113.127 36.5766 113.15 36.6311 113.15 36.6879C113.15 36.7265 113.176 40.4848 115.146 41.1791C117.116 41.8733 118.052 39.8934 118.09 39.7863L118.259 39.4349L118.47 39.7648C119.004 40.6219 119.604 41.0505 120.255 41.0805C121.431 41.1062 122.444 39.7649 122.453 39.752L122.578 39.5849L122.751 39.7006C123.69 40.3434 124.475 40.5577 125.087 40.292C126.005 39.9106 126.251 38.6206 126.251 38.6078L126.337 38.1493L126.635 38.5092C126.837 38.7578 127.497 39.4392 127.975 39.3063C128.307 39.212 128.54 38.6721 128.643 37.7893C128.716 37.4272 128.705 37.0535 128.611 36.6964C128.517 36.3393 128.342 36.0081 128.1 35.728C127.29 34.9052 125.871 35.0252 125.854 35.0252H125.725L125.652 34.9094C124.755 33.4567 122.975 34.1981 122.901 34.2281L122.742 34.2966L122.638 34.1552C120.879 31.6953 117.28 33.3495 117.246 33.3667L117.138 33.4181L117.039 33.3538C115.021 32.0682 112.883 33.0538 111.434 34.0995C110.463 34.8089 109.662 35.7236 109.089 36.7779C109.062 36.8279 109.016 36.865 108.961 36.8811C108.906 36.8972 108.846 36.8909 108.796 36.8636C108.746 36.8364 108.709 36.7903 108.692 36.7357C108.676 36.681 108.682 36.6222 108.71 36.5722C109.316 35.4642 110.159 34.5017 111.18 33.7524C112.706 32.6467 114.974 31.6096 117.164 32.9296C117.802 32.6639 121.078 31.4554 122.884 33.7866C123.397 33.6195 125.009 33.2338 125.941 34.588C126.35 34.588 127.596 34.588 128.402 35.4451C128.958 36.0065 129.178 36.8208 129.061 37.8535C128.936 38.9678 128.63 39.5677 128.087 39.7349C127.544 39.902 126.906 39.4306 126.561 39.0921C126.466 39.4371 126.3 39.7586 126.073 40.036C125.846 40.3135 125.563 40.5408 125.242 40.7034C124.531 40.9991 123.664 40.8234 122.656 40.1849C122.319 40.5834 121.362 41.5734 120.224 41.5262C119.504 41.5262 118.853 41.0976 118.28 40.3005C117.965 40.7934 117.172 41.749 115.926 41.749Z" fill="#E3E3E3"/>
        <path d="M126.265 37.4335C126.211 37.4326 126.16 37.4119 126.121 37.3754C126.082 37.339 126.058 37.2894 126.053 37.2363C126.045 36.8021 125.985 36.3704 125.872 35.9507C125.857 35.9282 125.846 35.9027 125.84 35.8757C125.834 35.8488 125.835 35.8211 125.84 35.7942C125.846 35.7673 125.857 35.7418 125.873 35.7193C125.889 35.6969 125.909 35.6779 125.933 35.6636C125.982 35.6325 126.042 35.6218 126.099 35.6338C126.156 35.6458 126.206 35.6796 126.239 35.7278C126.39 36.2037 126.472 36.6987 126.48 37.1977C126.483 37.2257 126.481 37.2539 126.472 37.2808C126.464 37.3077 126.451 37.3326 126.433 37.3542C126.414 37.3758 126.392 37.3935 126.367 37.4064C126.342 37.4193 126.314 37.427 126.286 37.4292L126.265 37.4335Z" fill="#E3E3E3"/>
        <path d="M123.023 38.325H122.963C122.935 38.3171 122.909 38.3039 122.887 38.286C122.864 38.2681 122.846 38.2459 122.832 38.2207C122.819 38.1956 122.81 38.1679 122.807 38.1395C122.805 38.111 122.808 38.0823 122.816 38.055C122.97 37.3135 122.963 36.5478 122.795 35.8094C122.782 35.7526 122.792 35.6929 122.823 35.6435C122.854 35.5941 122.903 35.5589 122.961 35.5459C123.018 35.5328 123.078 35.5429 123.127 35.5738C123.177 35.6048 123.213 35.654 123.226 35.7109C123.406 36.524 123.406 37.3662 123.226 38.1793C123.211 38.2215 123.184 38.2582 123.148 38.2843C123.112 38.3105 123.068 38.3247 123.023 38.325V38.325Z" fill="#E3E3E3"/>
        <path d="M118.334 37.8965H118.282C118.254 37.8905 118.228 37.879 118.205 37.8627C118.182 37.8464 118.162 37.8256 118.147 37.8016C118.132 37.7776 118.122 37.7509 118.118 37.7231C118.114 37.6952 118.115 37.6667 118.122 37.6394C118.579 35.681 117.894 34.8839 117.885 34.8796C117.846 34.8375 117.826 34.7819 117.828 34.7248C117.831 34.6677 117.856 34.6139 117.898 34.5753C117.941 34.5367 117.997 34.5163 118.054 34.5187C118.111 34.5212 118.165 34.5461 118.204 34.5882C118.239 34.6267 119.067 35.5352 118.541 37.738C118.529 37.7836 118.502 37.8241 118.465 37.8529C118.427 37.8817 118.381 37.897 118.334 37.8965V37.8965Z" fill="#E3E3E3"/>
        <path d="M112.935 36.9021C112.883 36.9015 112.833 36.882 112.794 36.8473C112.755 36.8126 112.73 36.7651 112.724 36.7135C112.698 36.495 112.508 34.5708 113.254 33.9923C113.276 33.973 113.302 33.9584 113.33 33.9495C113.358 33.9405 113.388 33.9374 113.417 33.9402C113.446 33.9431 113.475 33.9518 113.5 33.966C113.526 33.9801 113.549 33.9994 113.567 34.0225C113.585 34.0457 113.598 34.0723 113.605 34.1006C113.612 34.129 113.614 34.1585 113.609 34.1873C113.604 34.2162 113.594 34.2439 113.578 34.2685C113.562 34.2932 113.542 34.3144 113.517 34.3308C113.086 34.6565 113.086 35.9336 113.151 36.6664C113.157 36.7226 113.14 36.779 113.105 36.8231C113.069 36.8673 113.018 36.8957 112.961 36.9021H112.935Z" fill="#E3E3E3"/>
        <path d="M62.6708 100.944C62.5891 100.953 62.5069 100.953 62.4252 100.944C62.2514 100.913 62.0853 100.848 61.9373 100.752C61.7892 100.656 61.6621 100.532 61.563 100.387L58.7047 96.2644C58.6889 96.241 58.678 96.2147 58.6723 96.1871C58.6667 96.1595 58.6665 96.1311 58.6719 96.1034C58.6773 96.0758 58.6881 96.0495 58.7037 96.026C58.7193 96.0025 58.7396 95.9822 58.7631 95.9665C58.7865 95.9507 58.813 95.9397 58.8407 95.9341C58.8685 95.9285 58.8971 95.9284 58.9249 95.9337C58.9527 95.9391 58.9792 95.9499 59.0028 95.9654C59.0264 95.981 59.0467 96.001 59.0626 96.0243L61.9206 100.147C62.0581 100.343 62.2668 100.478 62.5026 100.524C62.6202 100.546 62.741 100.544 62.858 100.519C62.9749 100.494 63.0856 100.446 63.1838 100.378L74.3015 92.7674C74.5 92.632 74.6364 92.424 74.6809 92.1889C74.7246 91.9514 74.6719 91.7064 74.5343 91.5075L66.8826 80.4596C66.8625 80.4368 66.8476 80.41 66.8388 80.381C66.8299 80.352 66.8273 80.3215 66.8312 80.2915C66.8351 80.2615 66.8452 80.2326 66.8611 80.2067C66.877 80.1809 66.8982 80.1587 66.9234 80.1417C66.9485 80.1246 66.977 80.113 67.007 80.1077C67.0369 80.1024 67.0677 80.1034 67.0973 80.1108C67.1268 80.1182 67.1544 80.1316 67.1783 80.1504C67.2022 80.1691 67.2219 80.1927 67.236 80.2196L74.8878 91.2675C74.9879 91.4118 75.0585 91.5743 75.0953 91.7457C75.1322 91.9171 75.1347 92.094 75.1027 92.2664C75.0706 92.4388 75.0046 92.6032 74.9086 92.7502C74.8126 92.8972 74.6884 93.0239 74.543 93.1231L63.4294 100.73C63.2042 100.876 62.9397 100.951 62.6708 100.944Z" fill="#E3E3E3"/>
        <path d="M70.9554 52.2742L67.9679 48.5887C67.9496 48.5672 67.9358 48.5423 67.9274 48.5155C67.9191 48.4886 67.9162 48.4603 67.919 48.4323C67.9218 48.4044 67.9303 48.3772 67.9439 48.3526C67.9574 48.3279 67.9758 48.3062 67.998 48.2887C68.0433 48.2534 68.1009 48.2372 68.1581 48.2436C68.2154 48.2501 68.2677 48.2786 68.304 48.323L70.9208 51.5499L73.7703 47.2645C73.8023 47.2173 73.8518 47.1847 73.9079 47.1739C73.9641 47.163 74.0224 47.1748 74.0698 47.2067C74.1173 47.2385 74.15 47.2877 74.161 47.3436C74.1719 47.3994 74.1601 47.4573 74.1281 47.5045L70.9554 52.2742Z" fill="#E3E3E3"/>
        <path d="M74.8667 21.2602C74.8667 21.2602 71.8491 10.5036 65.094 16.1562C58.3389 21.8087 57.8992 30.2982 58.0069 32.7881C58.1147 35.2779 56.2221 36.6235 55.5625 36.405C55.5625 36.405 57.7439 37.1164 60.5503 33.2766C61.9298 31.5624 61.115 28.7597 61.7745 27.9026C62.4341 27.0455 68.6289 19.1131 74.8667 21.2602Z" fill="#231F20"/>
        <path d="M75.4728 14.9007C79.0821 14.9007 82.0081 11.992 82.0081 8.40399C82.0081 4.81593 79.0821 1.90723 75.4728 1.90723C71.8634 1.90723 68.9375 4.81593 68.9375 8.40399C68.9375 11.992 71.8634 14.9007 75.4728 14.9007Z" fill="#252525"/>
        <path d="M87.1306 31.9394C87.1306 31.9394 92.8294 17.7974 72.4433 13.0019C52.0572 8.20651 57.157 28.5839 57.157 28.5839C57.157 28.5839 64.2053 22.2328 65.6882 21.5C67.1711 20.7672 76.6507 24.6113 81.7677 24.4698C86.8847 24.3284 85.0269 36.602 87.1306 31.9394Z" fill="#252525"/>
        <path d="M76.2982 46.0298C72.4117 46.0373 68.5409 45.5403 64.7839 44.5513C64.4864 44.4741 57.365 42.5971 54.8992 38.1874C54.3783 37.3072 53.9451 36.3786 53.6059 35.4147C52.9291 35.1361 49.2649 33.3834 50.5538 28.7636C51.4893 25.4038 52.6013 23.6211 53.8472 23.4582C54.6404 23.3511 55.438 23.8868 56.2312 25.0996C56.4212 24.1877 56.6645 23.2877 56.9597 22.404C56.9774 22.3472 57.017 22.2997 57.07 22.2719C57.1229 22.2442 57.1848 22.2385 57.242 22.2562C57.2991 22.2738 57.3471 22.3133 57.375 22.3659C57.4029 22.4185 57.4085 22.48 57.3908 22.5369C57.0385 23.5744 56.7676 24.6375 56.5804 25.7167L56.4899 26.3209L56.1794 25.7938C55.3819 24.4353 54.6232 23.7968 53.9248 23.8825C52.8945 24.0154 51.8513 25.7895 50.9891 28.8794C49.6958 33.5419 53.7006 34.9904 53.873 35.0504L53.9766 35.0847L54.0067 35.1875C54.3377 36.1602 54.7712 37.0953 55.3 37.9774C57.6709 42.2328 64.8443 44.1184 64.9175 44.1356C71.1036 45.8498 77.7166 45.6784 78.9409 45.4727C80.4627 45.2198 82.161 41.6415 82.6826 40.283C83.1534 39.166 83.5537 38.021 83.8812 36.8546C83.8869 36.7978 83.915 36.7455 83.9595 36.7093C83.9815 36.6914 84.0067 36.678 84.034 36.6698C84.0612 36.6617 84.0899 36.6589 84.1182 36.6617C84.1465 36.6645 84.1739 36.6729 84.199 36.6863C84.2241 36.6996 84.2462 36.7178 84.2643 36.7397C84.2823 36.7616 84.2958 36.7867 84.304 36.8138C84.3123 36.8409 84.3151 36.8693 84.3123 36.8974C84.2519 37.5145 83.2085 40.133 83.0878 40.4329C83.0102 40.6386 81.092 45.5412 79.0142 45.8883C78.1131 45.9956 77.2056 46.0429 76.2982 46.0298Z" fill="#E3E3E3"/>
        <path d="M87.6362 32.8397L87.2266 32.6983L88.7225 28.4128C89.1776 27.1536 89.2569 25.7904 88.9509 24.4874L89.382 24.3931C89.6965 25.7751 89.6129 27.2173 89.1406 28.5543L87.6362 32.8397Z" fill="#45E5E5"/>
        <path d="M86.241 19.7346C86.1828 19.7345 86.1268 19.7114 86.0857 19.6704C83.6845 17.232 79.8911 14.9821 74.8086 12.9765C67.562 10.1138 62.126 11.6523 58.6515 17.5362C58.6219 17.5851 58.574 17.6206 58.5184 17.6351C58.4628 17.6495 58.4039 17.6417 58.354 17.6134C58.3294 17.5996 58.3076 17.5811 58.2903 17.5588C58.2729 17.5366 58.2605 17.5112 58.2532 17.484C58.246 17.4568 58.2442 17.4284 58.2482 17.4006C58.2522 17.3728 58.2618 17.346 58.2764 17.3219C61.8803 11.2237 67.4972 9.60811 74.9679 12.5779C80.1065 14.605 83.9476 16.8891 86.3962 19.3704C86.4164 19.3903 86.4324 19.414 86.4433 19.4401C86.4543 19.4662 86.4599 19.4942 86.4599 19.5225C86.4599 19.5508 86.4543 19.5788 86.4433 19.605C86.4324 19.6311 86.4164 19.6548 86.3962 19.6747C86.376 19.695 86.3518 19.7109 86.325 19.7212C86.2983 19.7316 86.2697 19.7361 86.241 19.7346V19.7346Z" fill="#E3E3E3"/>
        <path d="M84.4799 35.7194C84.4021 35.7181 84.3267 35.6926 84.2644 35.6465C84.203 35.6014 84.1578 35.538 84.1353 35.4655C84.1128 35.393 84.1142 35.3153 84.1393 35.2437C85.3895 31.5153 86.3853 27.1399 85.4326 26.0428C84.9541 25.49 82.954 25.1857 80.4235 24.8172C77.0697 24.3158 72.4828 23.6344 68.0512 21.9073C68.0229 21.8988 67.9965 21.8845 67.974 21.8653C67.9514 21.8462 67.9331 21.8226 67.9201 21.7961C67.9071 21.7696 67.8999 21.7408 67.8986 21.7113C67.8974 21.6819 67.9022 21.6524 67.9129 21.6249C67.9236 21.5975 67.9399 21.5725 67.9607 21.5516C67.9816 21.5306 68.0066 21.5141 68.0342 21.5032C68.0617 21.4923 68.0913 21.4872 68.1209 21.4881C68.1505 21.4891 68.1796 21.4961 68.2064 21.5088C72.5948 23.2229 77.1557 23.8958 80.4837 24.3929C83.3073 24.8214 85.1739 25.0914 85.7559 25.7642C87.0492 27.2342 85.4369 32.6853 84.6136 35.1923L86.2861 33.9966C86.7093 33.6957 87.0286 33.2721 87.2001 32.7838L88.7219 28.4041C89.177 27.1448 89.2563 25.7816 88.9503 24.4786C88.9441 24.4505 88.9436 24.4214 88.9486 24.393C88.9537 24.3647 88.9644 24.3376 88.98 24.3133C89.0115 24.2643 89.0613 24.2297 89.1185 24.2172C89.1757 24.2047 89.2355 24.2153 89.2848 24.2466C89.3341 24.2779 89.3688 24.3275 89.3814 24.3843C89.696 25.7664 89.6123 27.2086 89.14 28.5455L87.6139 32.9209C87.4184 33.4947 87.0459 33.9926 86.5492 34.3437L84.7041 35.6636C84.6368 35.7044 84.5586 35.7239 84.4799 35.7194Z" fill="#E3E3E3"/>
        <path d="M56.0781 37.1724L56.6471 36.6667C56.6471 36.6667 58.1386 35.3382 58.587 33.8811C58.6349 33.3986 58.5984 32.9114 58.4792 32.4412C58.0481 29.7157 57.1255 24.046 64.8592 16.9493C67.2948 14.7123 69.4675 13.8638 71.3255 14.4166C74.0155 15.2265 75.408 18.7963 76.1064 21.6505C76.1194 21.7056 76.1098 21.7635 76.0799 21.8117C76.05 21.8599 76.0022 21.8943 75.9469 21.9076C75.8909 21.9206 75.832 21.9113 75.7829 21.8816C75.7337 21.852 75.6982 21.8044 75.6839 21.749C75.1365 19.5034 73.8258 15.6165 71.2005 14.828C69.5106 14.318 67.4802 15.1365 65.1653 17.2664C57.604 24.2088 58.4964 29.7199 58.9231 32.3726C59.063 32.9053 59.0953 33.4603 59.0181 34.0054C58.7867 34.6792 58.4379 35.3073 57.9877 35.861C58.9318 35.0039 60.1906 33.1183 60.8889 29.1886V29.09L60.9752 29.0386C61.0183 29.0172 65.023 26.7716 67.2561 23.6089C67.2715 23.5842 67.2919 23.5629 67.3159 23.5462C67.3398 23.5296 67.367 23.5179 67.3956 23.5121C67.4243 23.5062 67.4537 23.5061 67.4824 23.512C67.511 23.5178 67.5383 23.5294 67.5623 23.546C67.5864 23.5626 67.6066 23.5838 67.6221 23.6085C67.6376 23.6331 67.6478 23.6607 67.6522 23.6895C67.6566 23.7182 67.6554 23.7475 67.648 23.7757C67.6407 23.8038 67.6276 23.8302 67.6097 23.8532C65.506 26.853 61.889 28.9957 61.2768 29.3643C59.9836 36.4053 56.9661 37.0181 56.8281 37.0395L56.0781 37.1724Z" fill="#E3E3E3"/>
        <path d="M83.8246 35.5607L76.3281 34.635L77.1427 34.3265C78.1163 34.011 79.1477 33.9123 80.1639 34.0375C81.1801 34.1627 82.1562 34.5086 83.0228 35.0507L83.8246 35.5607ZM78.505 34.4722L81.7295 34.8707C80.7046 34.4741 79.5965 34.3371 78.505 34.4722V34.4722Z" fill="#E3E3E3"/>
        <path d="M72.3962 33.6924L62.2656 30.2126L63.2743 30.1225C66.2976 30.0028 69.2556 31.0187 71.5599 32.9681L72.3962 33.6924ZM64.6667 30.5811L70.2363 32.4967C68.5701 31.4046 66.6554 30.7445 64.6667 30.5768V30.5811Z" fill="#E3E3E3"/>
        <path d="M83.5632 33.7395C83.2486 33.7395 82.0975 33.5209 77.1616 32.201L76.7305 32.0853L77.0883 31.8239C77.847 31.2582 83.4082 32.111 83.6754 32.2524L83.7961 32.3124V32.4538C83.7961 32.5995 83.796 32.7238 83.0545 32.8138C83.8046 33.3152 83.7874 33.4566 83.7788 33.5552V33.6538L83.6925 33.7137C83.6752 33.7266 83.6495 33.7395 83.5632 33.7395ZM78.261 32.051C79.9077 32.4795 81.8777 32.9852 82.8907 33.2081C82.7097 33.0838 82.4985 32.9509 82.3045 32.8309L81.7269 32.4753L82.4036 32.4324H82.451C81.0634 32.2202 79.6642 32.0928 78.261 32.051V32.051Z" fill="#E3E3E3"/>
        <path d="M72.7777 31.3697C72.735 31.37 72.6933 31.3575 72.6579 31.3338C72.6225 31.3101 72.5951 31.2763 72.5794 31.2368C72.3423 30.6754 69.1308 29.0169 64.4233 27.0156C64.3972 27.0044 64.3736 26.9883 64.3538 26.968C64.3341 26.9477 64.3184 26.9237 64.308 26.8974C64.2975 26.8711 64.2925 26.843 64.293 26.8148C64.2935 26.7865 64.2997 26.7587 64.3111 26.7328C64.3219 26.707 64.3378 26.6836 64.3578 26.664C64.3779 26.6444 64.4016 26.6289 64.4277 26.6186C64.4538 26.6082 64.4817 26.6031 64.5098 26.6035C64.5379 26.604 64.5658 26.6101 64.5915 26.6214C67.5531 27.877 72.5752 30.1269 72.9804 31.074C73.0007 31.1264 73 31.1846 72.9783 31.2364C72.9566 31.2883 72.9157 31.3299 72.864 31.3526C72.837 31.3648 72.8074 31.3706 72.7777 31.3697V31.3697Z" fill="#E3E3E3"/>
        <path d="M72.7819 31.3742C72.7471 31.3745 72.713 31.3656 72.6827 31.3486L70.3979 30.6157C63.578 28.4387 63.5781 28.4387 63.5781 28.2459C63.5781 28.053 63.5781 28.0059 65.0179 27.8173L64.1774 27.1359C64.1551 27.1181 64.1365 27.096 64.1229 27.0709C64.1093 27.0459 64.1008 27.0184 64.098 26.9901C64.0952 26.9617 64.098 26.9331 64.1065 26.9059C64.1149 26.8787 64.1287 26.8535 64.1471 26.8317C64.1833 26.7882 64.2352 26.7606 64.2917 26.755C64.3482 26.7494 64.4048 26.7661 64.4489 26.8016L66.0697 28.1173L65.5698 28.1816L64.63 28.3015C65.9448 28.7301 68.7037 29.6172 70.5315 30.2L72.8551 30.9457L72.9326 30.9971C72.9528 31.017 72.969 31.0407 72.98 31.0669C72.9909 31.093 72.9964 31.121 72.9964 31.1492C72.9964 31.1775 72.9909 31.2056 72.98 31.2317C72.969 31.2578 72.9528 31.2815 72.9326 31.3014C72.9138 31.3231 72.8908 31.3408 72.8648 31.3534C72.8389 31.3659 72.8107 31.373 72.7819 31.3742V31.3742Z" fill="#E3E3E3"/>
        <path d="M79.3218 13.2853C79.275 13.2863 79.2293 13.2712 79.1925 13.2425C79.1468 13.2084 79.1166 13.1576 79.1085 13.1014C79.1004 13.0451 79.1151 12.9879 79.1494 12.9425C79.8702 11.972 80.3562 10.8495 80.5698 9.66194C80.7833 8.47442 80.7186 7.25391 80.3805 6.09531C80.0425 4.93672 79.4402 3.87123 78.6206 2.98161C77.801 2.09198 76.7861 1.40219 75.6548 0.965838C74.5234 0.52949 73.3062 0.35834 72.0975 0.465676C70.8888 0.573011 69.7212 0.955917 68.6856 1.5847C67.65 2.21348 66.7743 3.0712 66.1262 4.09116C65.4782 5.11111 65.0755 6.26583 64.9494 7.46565C64.9071 7.86704 64.8971 8.27118 64.9193 8.67417C64.921 8.70267 64.917 8.7312 64.9075 8.75814C64.898 8.78507 64.883 8.80985 64.8637 8.83101C64.8444 8.85217 64.8211 8.86932 64.7951 8.88139C64.7691 8.89345 64.7411 8.90023 64.7124 8.90132C64.684 8.90433 64.6553 8.90134 64.6282 8.89258C64.6011 8.88382 64.5761 8.86948 64.5549 8.85047C64.5338 8.83146 64.5168 8.8082 64.5053 8.78225C64.4938 8.75631 64.488 8.72821 64.4882 8.69986C64.4651 8.27109 64.4764 7.84116 64.5225 7.41422C64.6555 6.1486 65.0806 4.93054 65.7642 3.85471C66.4478 2.77887 67.3718 1.87425 68.4644 1.21118C69.5569 0.548122 70.7886 0.144493 72.0636 0.0316366C73.3386 -0.0812201 74.6226 0.0997261 75.8158 0.560466C77.009 1.02121 78.0792 1.74934 78.9433 2.68818C79.8074 3.62702 80.4421 4.75128 80.7979 5.97363C81.1538 7.19598 81.2213 8.48346 80.9952 9.73597C80.7691 10.9885 80.2554 12.1722 79.4941 13.1953C79.4743 13.2225 79.4485 13.2447 79.4186 13.2603C79.3887 13.2759 79.3555 13.2845 79.3218 13.2853V13.2853Z" fill="#E3E3E3"/>
        <path d="M54.3849 31.7723H54.3375C54.3097 31.7662 54.2834 31.7547 54.2601 31.7385C54.2368 31.7222 54.217 31.7016 54.2018 31.6777C54.1865 31.6538 54.1763 31.6271 54.1715 31.5992C54.1667 31.5713 54.1674 31.5427 54.1738 31.5151C54.1738 31.4766 55.036 27.354 53.7427 25.8155C53.7055 25.7718 53.6873 25.7151 53.6922 25.6581C53.697 25.601 53.7246 25.5482 53.7686 25.5113C53.8126 25.4743 53.8695 25.4563 53.9269 25.4611C53.9843 25.4659 54.0375 25.4932 54.0746 25.5369C55.5015 27.2511 54.6263 31.4295 54.5918 31.6052C54.5812 31.6521 54.555 31.694 54.5175 31.7243C54.48 31.7547 54.4333 31.7716 54.3849 31.7723Z" fill="#E3E3E3"/>
        <path d="M75.1746 37.8359C75.1746 37.8359 74.8082 39.383 72.5234 38.6416C72.5321 38.6416 74.2693 38.7187 75.1746 37.8359Z" fill="#E3E3E3"/>
        <path d="M75.6037 42.3618C75.4097 42.3618 70.7971 42.0875 67.9864 40.9947C67.9339 40.9729 67.8921 40.9316 67.8696 40.8797C67.8471 40.8277 67.8455 40.7691 67.8656 40.7162C67.876 40.69 67.8917 40.6661 67.9115 40.6459C67.9312 40.6257 67.9547 40.6096 67.9807 40.5984C68.0068 40.5873 68.0347 40.5813 68.063 40.581C68.0914 40.5806 68.1196 40.5857 68.146 40.5962C70.892 41.6633 75.5822 41.929 75.6296 41.9332C75.6868 41.9332 75.7416 41.9558 75.782 41.996C75.8224 42.0362 75.8451 42.0907 75.8451 42.1475C75.8451 42.2043 75.8224 42.2588 75.782 42.299C75.7416 42.3392 75.6868 42.3618 75.6296 42.3618H75.6037Z" fill="#E3E3E3"/>
        <path d="M67.375 10.1651C67.375 10.1651 69.7201 7.74816 73.9663 10.778C73.9663 10.778 69.8667 9.37232 67.375 10.1651Z" fill="#E3E3E3"/>
        <path d="M72.8008 44.0591C71.8493 44.0208 70.9053 43.877 69.9859 43.6306C69.9594 43.6214 69.9349 43.6072 69.9141 43.5887C69.8932 43.5701 69.8764 43.5476 69.8644 43.5225C69.8524 43.4974 69.8453 43.4701 69.844 43.4423C69.8426 43.4146 69.8469 43.3867 69.8564 43.3606C69.875 43.3074 69.914 43.2637 69.9648 43.2388C70.0156 43.2139 70.0742 43.21 70.1279 43.2278C71.0089 43.462 71.9117 43.6056 72.8222 43.6563C72.8506 43.6574 72.8784 43.664 72.9041 43.6758C72.9299 43.6876 72.9531 43.7043 72.9723 43.725C72.9915 43.7457 73.0063 43.77 73.0161 43.7965C73.0259 43.8229 73.0303 43.851 73.0292 43.8792C73.0207 43.9321 72.9925 43.98 72.9502 44.0133C72.9079 44.0467 72.8546 44.063 72.8008 44.0591Z" fill="#E3E3E3"/>
        <path d="M6.79825 42.3619H4.74196C3.48431 42.3619 2.27811 41.8652 1.38882 40.9812C0.499535 40.0971 0 38.8981 0 37.6479V8.15956C0 6.90933 0.499535 5.71035 1.38882 4.8263C2.27811 3.94225 3.48431 3.44556 4.74196 3.44556H34.4051C35.6627 3.44556 36.8687 3.94225 37.758 4.8263C38.6473 5.71035 39.147 6.90933 39.147 8.15956V14.9006C39.147 14.9575 39.1243 15.012 39.0839 15.0521C39.0435 15.0923 38.9887 15.1149 38.9315 15.1149C38.8743 15.1149 38.8195 15.0923 38.7791 15.0521C38.7387 15.012 38.716 14.9575 38.716 14.9006V8.15956C38.716 7.02299 38.2617 5.93298 37.4532 5.1293C36.6448 4.32562 35.5484 3.8741 34.4051 3.8741H4.74196C3.59864 3.8741 2.50206 4.32562 1.69362 5.1293C0.885171 5.93298 0.431087 7.02299 0.431087 8.15956V37.6479C0.431087 38.7844 0.885171 39.8744 1.69362 40.6781C2.50206 41.4818 3.59864 41.9333 4.74196 41.9333H6.79825C6.85542 41.9333 6.91022 41.9559 6.95065 41.9961C6.99107 42.0363 7.01379 42.0908 7.01379 42.1476C7.01379 42.2044 6.99107 42.2589 6.95065 42.2991C6.91022 42.3393 6.85542 42.3619 6.79825 42.3619Z" fill="#E3E3E3"/>
        <path d="M34.405 42.3618H15.9069C15.8498 42.3618 15.795 42.3392 15.7546 42.299C15.7141 42.2588 15.6914 42.2043 15.6914 42.1475C15.6914 42.0907 15.7141 42.0362 15.7546 41.996C15.795 41.9558 15.8498 41.9332 15.9069 41.9332H34.405C35.5483 41.9332 36.6447 41.4817 37.4531 40.678C38.2615 39.8744 38.7158 38.7843 38.7158 37.6478V32.7709C38.7158 32.7141 38.7386 32.6596 38.779 32.6194C38.8194 32.5792 38.8742 32.5566 38.9314 32.5566C38.9885 32.5566 39.0434 32.5792 39.0838 32.6194C39.1242 32.6596 39.1469 32.7141 39.1469 32.7709V37.6478C39.1469 38.898 38.6472 40.097 37.7579 40.9811C36.8686 41.8651 35.6626 42.3618 34.405 42.3618Z" fill="#E3E3E3"/>
        <path d="M19.6233 28.5499C18.1052 28.5507 16.6057 28.2161 15.2337 27.5702C13.8617 26.9242 12.6513 25.9832 11.6901 24.8152C10.7288 23.6471 10.0407 22.2812 9.67566 20.8163C9.31058 19.3514 9.27749 17.8242 9.57904 16.3451C9.88059 14.866 10.5092 13.472 11.4192 12.2641C12.3292 11.0561 13.498 10.0643 14.8409 9.3605C16.1838 8.65668 17.6672 8.25845 19.184 8.19456C20.7007 8.13066 22.2128 8.40271 23.6108 8.99107C23.6613 9.01465 23.7004 9.05672 23.7203 9.10846C23.7402 9.1602 23.7393 9.21759 23.7176 9.26859C23.6958 9.31959 23.6549 9.36024 23.6037 9.382C23.5524 9.40377 23.4948 9.40498 23.4427 9.38535C22.2347 8.87567 20.9355 8.6147 19.6233 8.61824C17.6826 8.61824 15.7854 9.19038 14.1718 10.2623C12.5582 11.3343 11.3005 12.8578 10.558 14.6403C9.81555 16.4228 9.62152 18.3842 10.0004 20.2764C10.3794 22.1685 11.3144 23.9065 12.687 25.2704C14.0596 26.6343 15.8083 27.5629 17.7118 27.9388C19.6153 28.3146 21.5882 28.1209 23.381 27.382C25.1737 26.6431 26.7058 25.3922 27.7834 23.7877C28.861 22.1831 29.4356 20.2969 29.4347 18.3677C29.4349 17.8711 29.396 17.3754 29.3183 16.8849C29.3108 16.8288 29.3256 16.772 29.3594 16.7265C29.3931 16.6809 29.4432 16.6501 29.4993 16.6406C29.5274 16.6363 29.556 16.6376 29.5835 16.6444C29.6111 16.6511 29.6371 16.6632 29.6599 16.6799C29.6828 16.6967 29.7019 16.7177 29.7166 16.7418C29.7312 16.766 29.741 16.7927 29.7452 16.8206C29.8243 17.3326 29.8645 17.8497 29.8658 18.3677C29.8624 21.0671 28.7822 23.6551 26.8621 25.5639C24.942 27.4727 22.3387 28.5465 19.6233 28.5499V28.5499Z" fill="#E3E3E3"/>
        <path d="M19.6209 20.5364C18.9463 20.5364 18.2869 20.3375 17.726 19.9649C17.1652 19.5922 16.728 19.0625 16.47 18.4429C16.2121 17.8232 16.1449 17.1414 16.2768 16.4837C16.4087 15.8261 16.7339 15.2221 17.2112 14.7482C17.6885 14.2743 18.2965 13.9518 18.9583 13.8214C19.62 13.6911 20.3057 13.7589 20.9287 14.0161C21.5517 14.2733 22.0839 14.7085 22.4581 15.2665C22.8323 15.8245 23.0315 16.4803 23.0306 17.1509C23.0304 17.44 22.9942 17.7279 22.9229 18.008C22.9158 18.0362 22.9032 18.0626 22.8858 18.0859C22.8684 18.1092 22.8466 18.1289 22.8216 18.1438C22.7966 18.1588 22.769 18.1687 22.7402 18.1729C22.7113 18.1772 22.6817 18.1758 22.6534 18.1687C22.6251 18.1617 22.5986 18.1492 22.5751 18.1319C22.5517 18.1146 22.5318 18.093 22.5168 18.0681C22.5018 18.0432 22.4919 18.0156 22.4876 17.987C22.4833 17.9583 22.4847 17.929 22.4918 17.9009C22.5556 17.6604 22.5876 17.4125 22.5867 17.1638C22.5878 16.5029 22.3664 15.8607 21.958 15.3394C21.5495 14.818 20.9773 14.4474 20.3326 14.2866C19.6878 14.1258 19.0075 14.1841 18.3998 14.4521C17.7922 14.7201 17.2922 15.1825 16.9794 15.7656C16.6666 16.3487 16.559 17.0191 16.6738 17.67C16.7885 18.321 17.119 18.9151 17.6126 19.3577C18.1062 19.8004 18.7347 20.0662 19.3978 20.1128C20.0609 20.1594 20.7206 19.9842 21.272 19.6151C21.3202 19.5838 21.3787 19.5726 21.4351 19.5839C21.4915 19.5951 21.5412 19.6278 21.5736 19.6751C21.6048 19.7223 21.6161 19.7799 21.6048 19.8353C21.5935 19.8907 21.5604 19.9393 21.5132 19.9708C20.9527 20.3416 20.2942 20.5385 19.6209 20.5364V20.5364Z" fill="#E3E3E3"/>
        <path d="M25.3512 26.7623C25.3021 26.7625 25.2543 26.7461 25.2158 26.7157C25.1774 26.6853 25.1507 26.6428 25.1399 26.5952C24.8819 25.5372 24.3216 24.5761 23.5266 23.8275C22.7317 23.0788 21.7359 22.5748 20.6593 22.3759C19.5827 22.1771 18.4712 22.292 17.4588 22.7068C16.4464 23.1216 15.5763 23.8186 14.9533 24.7138C14.9379 24.7385 14.9175 24.7599 14.8935 24.7766C14.8696 24.7932 14.8424 24.8048 14.8138 24.8107C14.7851 24.8166 14.7557 24.8166 14.727 24.8108C14.6984 24.8049 14.6711 24.7934 14.6471 24.7768C14.623 24.7602 14.6027 24.7389 14.5873 24.7143C14.5718 24.6896 14.5616 24.6621 14.5572 24.6333C14.5527 24.6046 14.5542 24.5752 14.5616 24.5471C14.5689 24.5189 14.582 24.4926 14.5999 24.4696C15.2695 23.5053 16.2056 22.7543 17.2952 22.3073C18.3849 21.8604 19.5811 21.7367 20.7399 21.951C21.8988 22.1654 22.9704 22.7087 23.8253 23.5153C24.6803 24.3219 25.2822 25.3574 25.5581 26.4966C25.5651 26.5239 25.5664 26.5524 25.5621 26.5803C25.5578 26.6081 25.5481 26.6348 25.5333 26.6588C25.5184 26.6828 25.4987 26.7036 25.4756 26.7199C25.4525 26.7362 25.4262 26.7477 25.3985 26.7537L25.3512 26.7623Z" fill="#E3E3E3"/>
        <path d="M158.082 27.2984H147.684C147.627 27.2973 147.573 27.2744 147.533 27.2344C147.493 27.1945 147.47 27.1406 147.469 27.0841C147.469 27.0273 147.491 26.9728 147.532 26.9326C147.572 26.8925 147.627 26.8699 147.684 26.8699H158.082C158.139 26.8699 158.194 26.8925 158.235 26.9326C158.275 26.9728 158.298 27.0273 158.298 27.0841C158.298 27.141 158.275 27.1955 158.235 27.2357C158.194 27.2759 158.139 27.2984 158.082 27.2984Z" fill="#E3E3E3"/>
        <path d="M156.258 29.5609H149.274C149.217 29.5609 149.162 29.5383 149.122 29.4981C149.081 29.4579 149.059 29.4034 149.059 29.3466C149.059 29.2898 149.081 29.2353 149.122 29.1951C149.162 29.1549 149.217 29.1323 149.274 29.1323H156.258C156.315 29.1323 156.37 29.1549 156.41 29.1951C156.45 29.2353 156.473 29.2898 156.473 29.3466C156.473 29.4034 156.45 29.4579 156.41 29.4981C156.37 29.5383 156.315 29.5609 156.258 29.5609Z" fill="#E3E3E3"/>
        <path d="M156.258 31.8278H149.274C149.217 31.8278 149.162 31.8053 149.122 31.7651C149.081 31.7249 149.059 31.6704 149.059 31.6136C149.059 31.5567 149.081 31.5022 149.122 31.462C149.162 31.4218 149.217 31.3993 149.274 31.3993H156.258C156.315 31.3993 156.37 31.4218 156.41 31.462C156.45 31.5022 156.473 31.5567 156.473 31.6136C156.473 31.6704 156.45 31.7249 156.41 31.7651C156.37 31.8053 156.315 31.8278 156.258 31.8278Z" fill="#E3E3E3"/>
        <path d="M174.715 27.2987H164.321C164.264 27.2987 164.209 27.2761 164.169 27.2359C164.128 27.1958 164.105 27.1412 164.105 27.0844C164.105 27.0276 164.128 26.9731 164.169 26.9329C164.209 26.8927 164.264 26.8701 164.321 26.8701H174.715C174.772 26.8701 174.827 26.8927 174.867 26.9329C174.907 26.9731 174.93 27.0276 174.93 27.0844C174.93 27.1412 174.907 27.1958 174.867 27.2359C174.827 27.2761 174.772 27.2987 174.715 27.2987Z" fill="#E3E3E3"/>
        <path d="M166.399 38.0975H156.001C155.944 38.0964 155.89 38.0735 155.85 38.0335C155.809 37.9936 155.786 37.9397 155.785 37.8832C155.785 37.8264 155.808 37.7719 155.848 37.7317C155.889 37.6915 155.944 37.6689 156.001 37.6689H166.399C166.456 37.6689 166.511 37.6915 166.551 37.7317C166.591 37.7719 166.614 37.8264 166.614 37.8832C166.614 37.94 166.591 37.9945 166.551 38.0347C166.511 38.0749 166.456 38.0975 166.399 38.0975Z" fill="#E3E3E3"/>
        <path d="M172.887 29.5611H165.903C165.846 29.5611 165.791 29.5385 165.75 29.4983C165.71 29.4582 165.688 29.4037 165.688 29.3468C165.688 29.29 165.71 29.2355 165.75 29.1953C165.791 29.1552 165.846 29.1326 165.903 29.1326H172.887C172.944 29.1326 172.999 29.1552 173.039 29.1953C173.079 29.2355 173.102 29.29 173.102 29.3468C173.102 29.4037 173.079 29.4582 173.039 29.4983C172.999 29.5385 172.944 29.5611 172.887 29.5611Z" fill="#E3E3E3"/>
        <path d="M172.887 31.8282H165.903C165.846 31.8282 165.791 31.8056 165.75 31.7654C165.71 31.7253 165.688 31.6708 165.688 31.6139C165.688 31.5571 165.71 31.5026 165.75 31.4624C165.791 31.4222 165.846 31.3997 165.903 31.3997H172.887C172.944 31.3997 172.999 31.4222 173.039 31.4624C173.079 31.5026 173.102 31.5571 173.102 31.6139C173.102 31.6708 173.079 31.7253 173.039 31.7654C172.999 31.8056 172.944 31.8282 172.887 31.8282Z" fill="#E3E3E3"/>
        <path d="M148.423 43.8189H146.367C145.109 43.8189 143.903 43.3222 143.014 42.4382C142.125 41.5541 141.625 40.3551 141.625 39.1049V9.61659C141.625 8.36636 142.125 7.16733 143.014 6.28328C143.903 5.39923 145.109 4.90259 146.367 4.90259H176.047C177.305 4.90259 178.511 5.39923 179.4 6.28328C180.29 7.16733 180.789 8.36636 180.789 9.61659V16.3576C180.789 16.4144 180.767 16.469 180.726 16.5092C180.686 16.5494 180.631 16.5719 180.574 16.5719C180.517 16.5719 180.462 16.5494 180.421 16.5092C180.381 16.469 180.358 16.4144 180.358 16.3576V9.61659C180.358 8.48002 179.904 7.39001 179.096 6.58633C178.287 5.78265 177.191 5.33113 176.047 5.33113H146.389C145.245 5.33113 144.149 5.78265 143.34 6.58633C142.532 7.39001 142.078 8.48002 142.078 9.61659V39.1049C142.078 40.2414 142.532 41.3315 143.34 42.1351C144.149 42.9388 145.245 43.3903 146.389 43.3903H148.445C148.502 43.3903 148.557 43.4129 148.597 43.4531C148.638 43.4932 148.66 43.5478 148.66 43.6046C148.66 43.6344 148.653 43.6638 148.641 43.691C148.629 43.7182 148.611 43.7426 148.588 43.7627C148.566 43.7828 148.54 43.7981 148.512 43.8078C148.483 43.8175 148.453 43.8212 148.423 43.8189V43.8189Z" fill="#E3E3E3"/>
        <path d="M176.049 43.8192H157.512C157.455 43.8192 157.4 43.7966 157.36 43.7564C157.32 43.7162 157.297 43.6617 157.297 43.6049C157.297 43.5481 157.32 43.4936 157.36 43.4534C157.4 43.4132 157.455 43.3906 157.512 43.3906H176.049C177.192 43.3906 178.289 42.9391 179.097 42.1355C179.906 41.3318 180.36 40.2418 180.36 39.1052V34.224C180.36 34.1672 180.383 34.1127 180.423 34.0725C180.464 34.0324 180.518 34.0098 180.576 34.0098C180.633 34.0098 180.688 34.0324 180.728 34.0725C180.768 34.1127 180.791 34.1672 180.791 34.224V39.1052C180.791 40.3554 180.292 41.5545 179.402 42.4385C178.513 43.3225 177.307 43.8192 176.049 43.8192Z" fill="#E3E3E3"/>
        <path d="M152.883 23.7974C151.913 23.796 150.954 23.5803 150.078 23.1661C149.201 22.7518 148.428 22.1492 147.814 21.4018C147.2 20.6544 146.761 19.7808 146.528 18.8442C146.295 17.9075 146.274 16.931 146.466 15.9853C146.659 15.0396 147.061 14.1482 147.642 13.3755C148.223 12.6028 148.97 11.9679 149.828 11.5169C150.686 11.0659 151.634 10.8099 152.604 10.7673C153.573 10.7248 154.541 10.8968 155.435 11.2709C155.462 11.2812 155.487 11.2967 155.508 11.3167C155.529 11.3367 155.546 11.3606 155.557 11.3871C155.568 11.4136 155.574 11.4422 155.574 11.471C155.574 11.4999 155.569 11.5284 155.557 11.5549C155.546 11.5815 155.529 11.6055 155.508 11.6255C155.488 11.6455 155.463 11.6612 155.436 11.6715C155.409 11.6818 155.38 11.6865 155.351 11.6855C155.322 11.6844 155.293 11.6775 155.267 11.6652C154.054 11.1551 152.708 11.047 151.428 11.3567C150.149 11.6665 149.004 12.3777 148.162 13.385C147.321 14.3923 146.829 15.6422 146.758 16.9496C146.687 18.2569 147.041 19.5522 147.769 20.6436C148.496 21.735 149.558 22.5645 150.797 23.0092C152.035 23.454 153.385 23.4903 154.646 23.1128C155.907 22.7353 157.013 21.9641 157.798 20.9134C158.584 19.8627 159.009 18.5884 159.009 17.2792C159.01 16.9679 158.986 16.6571 158.94 16.3493C158.936 16.3214 158.937 16.2929 158.944 16.2656C158.95 16.2382 158.963 16.2124 158.979 16.1897C158.996 16.1671 159.017 16.1479 159.042 16.1334C159.066 16.1188 159.093 16.1091 159.121 16.105C159.178 16.0975 159.235 16.1121 159.28 16.1456C159.326 16.1792 159.357 16.2292 159.367 16.285C159.415 16.6142 159.439 16.9464 159.44 17.2792C159.438 19.0072 158.746 20.6638 157.517 21.8857C156.288 23.1076 154.621 23.7951 152.883 23.7974V23.7974Z" fill="#E3E3E3"/>
        <path d="M152.884 18.7274C152.415 18.731 151.956 18.5883 151.573 18.3193C151.189 18.0503 150.9 17.6685 150.746 17.2276C150.591 16.7868 150.58 16.309 150.713 15.8615C150.846 15.4139 151.117 15.0192 151.488 14.7326C151.858 14.446 152.31 14.2821 152.779 14.2638C153.248 14.2455 153.711 14.3738 154.103 14.6307C154.495 14.8876 154.796 15.2601 154.964 15.6959C155.132 16.1317 155.159 16.6089 155.04 17.0604C155.033 17.0875 155.021 17.1131 155.005 17.1357C154.988 17.1582 154.967 17.1772 154.943 17.1915C154.919 17.2059 154.892 17.2153 154.864 17.2193C154.837 17.2233 154.808 17.2217 154.781 17.2147C154.754 17.2077 154.728 17.1954 154.705 17.1785C154.682 17.1615 154.663 17.1403 154.649 17.116C154.635 17.0917 154.625 17.0648 154.621 17.0369C154.617 17.009 154.619 16.9805 154.626 16.9532C154.661 16.8129 154.679 16.6692 154.682 16.5247C154.682 16.1696 154.576 15.8224 154.378 15.5271C154.179 15.2319 153.897 15.0017 153.567 14.8658C153.237 14.7299 152.874 14.6943 152.523 14.7636C152.173 14.8329 151.851 15.0039 151.598 15.255C151.346 15.5061 151.174 15.8261 151.104 16.1744C151.035 16.5227 151.07 16.8838 151.207 17.2119C151.344 17.54 151.575 17.8204 151.872 18.0177C152.169 18.215 152.518 18.3203 152.876 18.3203C153.236 18.3209 153.587 18.2134 153.884 18.0118C153.933 17.9806 153.991 17.9693 154.048 17.9805C154.104 17.9917 154.154 18.0245 154.186 18.0717C154.217 18.119 154.229 18.1766 154.217 18.232C154.206 18.2874 154.173 18.3361 154.126 18.3675C153.757 18.607 153.325 18.7323 152.884 18.7274Z" fill="#E3E3E3"/>
        <path d="M156.506 22.666C156.458 22.6653 156.411 22.6484 156.374 22.6181C156.336 22.5877 156.31 22.5458 156.3 22.4989C156.141 21.8435 155.795 21.2479 155.303 20.784C154.811 20.3201 154.194 20.0078 153.527 19.885C152.861 19.7621 152.173 19.8339 151.546 20.0917C150.919 20.3495 150.381 20.7822 149.997 21.3375C149.963 21.3834 149.913 21.4144 149.857 21.424C149.8 21.4336 149.743 21.4211 149.695 21.389C149.65 21.3562 149.618 21.3069 149.609 21.2516C149.599 21.1963 149.612 21.1395 149.644 21.0932C150.076 20.4705 150.68 19.9855 151.383 19.6968C152.086 19.4081 152.859 19.328 153.607 19.4662C154.355 19.6045 155.047 19.9551 155.599 20.4758C156.151 20.9964 156.54 21.6649 156.718 22.4003C156.725 22.4276 156.726 22.4561 156.722 22.4839C156.718 22.5118 156.708 22.5385 156.693 22.5625C156.678 22.5865 156.658 22.6073 156.635 22.6236C156.612 22.6399 156.586 22.6514 156.558 22.6575L156.506 22.666Z" fill="#E3E3E3"/>
        <path d="M207.278 28.7816C206.042 28.7816 204.835 28.4174 203.807 27.7351C202.78 27.0528 201.98 26.0829 201.507 24.9483C201.034 23.8136 200.91 22.5651 201.151 21.3605C201.392 20.156 201.987 19.0495 202.861 18.1811C203.734 17.3126 204.847 16.7212 206.059 16.4816C207.271 16.242 208.527 16.365 209.668 16.835C210.81 17.305 211.785 18.1009 212.472 19.1221C213.158 20.1432 213.524 21.3438 213.524 22.5719C213.525 23.0954 213.459 23.6168 213.326 24.1233C213.319 24.1504 213.307 24.176 213.291 24.1985C213.274 24.2211 213.253 24.24 213.229 24.2544C213.205 24.2688 213.178 24.2782 213.151 24.2822C213.123 24.2862 213.094 24.2846 213.067 24.2776C213.04 24.2706 213.014 24.2583 212.991 24.2413C212.969 24.2244 212.949 24.2032 212.935 24.1789C212.921 24.1546 212.911 24.1277 212.907 24.0998C212.903 24.0718 212.905 24.0434 212.912 24.0161C213.252 22.7068 213.12 21.3204 212.538 20.0981C211.956 18.8758 210.961 17.895 209.727 17.3263C208.493 16.7576 207.097 16.637 205.783 16.9854C204.468 17.3338 203.319 18.1293 202.533 19.2334C201.748 20.3375 201.376 21.6804 201.484 23.0284C201.592 24.3764 202.171 25.6444 203.122 26.6116C204.073 27.5788 205.334 28.1841 206.687 28.3221C208.041 28.4602 209.4 28.1224 210.528 27.3674C210.552 27.3512 210.578 27.3397 210.606 27.3337C210.634 27.3277 210.663 27.3273 210.691 27.3325C210.719 27.3377 210.746 27.3484 210.769 27.3639C210.793 27.3795 210.814 27.3996 210.83 27.4231C210.861 27.471 210.873 27.5292 210.861 27.5853C210.85 27.6414 210.817 27.6909 210.769 27.7231C209.739 28.4161 208.522 28.7849 207.278 28.7816V28.7816Z" fill="#E3E3E3"/>
        <path d="M218.095 40.5404C218.047 40.5408 218 40.525 217.961 40.4955C217.923 40.4659 217.896 40.4244 217.884 40.3775C217.39 38.3421 216.315 36.4922 214.787 35.0513C213.258 33.6103 211.343 32.6398 209.273 32.2569C207.202 31.874 205.064 32.0951 203.117 32.8935C201.17 33.6919 199.497 35.0335 198.3 36.7563C198.266 36.7997 198.217 36.8285 198.162 36.8369C198.108 36.8452 198.052 36.8323 198.007 36.801C197.961 36.7696 197.93 36.7222 197.919 36.6685C197.907 36.6147 197.917 36.5587 197.946 36.512C199.191 34.7205 200.93 33.3254 202.955 32.4952C204.979 31.6649 207.202 31.4351 209.355 31.8334C211.508 32.2317 213.499 33.2412 215.088 34.7399C216.676 36.2386 217.794 38.1624 218.307 40.279C218.318 40.334 218.309 40.3914 218.279 40.4393C218.249 40.4872 218.202 40.5219 218.147 40.5361L218.095 40.5404Z" fill="#E3E3E3"/>
        <path d="M169.516 23.7974C168.545 23.796 167.587 23.5803 166.711 23.1661C165.834 22.7518 165.061 22.1492 164.447 21.4018C163.833 20.6544 163.394 19.7808 163.161 18.8442C162.927 17.9075 162.907 16.931 163.099 15.9853C163.292 15.0396 163.694 14.1482 164.275 13.3755C164.856 12.6028 165.603 11.9679 166.461 11.5169C167.319 11.0659 168.267 10.8099 169.237 10.7673C170.206 10.7248 171.173 10.8968 172.068 11.2709C172.097 11.2796 172.123 11.2943 172.146 11.3138C172.169 11.3333 172.187 11.3573 172.2 11.3844C172.213 11.4114 172.22 11.4407 172.221 11.4706C172.221 11.5004 172.216 11.5301 172.204 11.5577C172.193 11.5853 172.176 11.6103 172.154 11.6309C172.132 11.6515 172.107 11.6674 172.078 11.6775C172.05 11.6876 172.02 11.6918 171.99 11.6896C171.96 11.6875 171.931 11.6792 171.904 11.6652C170.66 11.1448 169.277 11.0493 167.971 11.3937C166.666 11.7381 165.513 12.5029 164.692 13.5685C163.871 14.6341 163.428 15.9403 163.434 17.2826C163.439 18.6249 163.892 19.9276 164.721 20.9867C165.551 22.0459 166.71 22.8017 168.018 23.1359C169.326 23.4701 170.708 23.3638 171.948 22.8337C173.189 22.3035 174.217 21.3795 174.873 20.2062C175.529 19.0328 175.775 17.6764 175.573 16.3493C175.565 16.2932 175.58 16.2364 175.614 16.1908C175.648 16.1452 175.698 16.1144 175.754 16.105C175.782 16.1007 175.81 16.102 175.838 16.1087C175.865 16.1155 175.892 16.1276 175.914 16.1443C175.937 16.161 175.956 16.182 175.971 16.2062C175.986 16.2303 175.995 16.2571 176 16.285C176.048 16.6142 176.072 16.9464 176.073 17.2792C176.071 19.0072 175.379 20.6638 174.15 21.8857C172.921 23.1076 171.254 23.7951 169.516 23.7974Z" fill="#E3E3E3"/>
        <path d="M169.515 18.7276C169.072 18.7276 168.64 18.5972 168.272 18.3528C167.904 18.1084 167.617 17.761 167.448 17.3546C167.278 16.9482 167.234 16.501 167.32 16.0695C167.407 15.6381 167.62 15.2418 167.933 14.9307C168.246 14.6197 168.644 14.4078 169.078 14.322C169.512 14.2362 169.962 14.2803 170.371 14.4486C170.78 14.617 171.129 14.902 171.375 15.2678C171.621 15.6335 171.752 16.0636 171.752 16.5035C171.751 16.6912 171.728 16.8781 171.683 17.0605C171.669 17.1174 171.632 17.1663 171.582 17.1964C171.531 17.2265 171.471 17.2355 171.414 17.2212C171.356 17.207 171.307 17.1709 171.277 17.1207C171.247 17.0704 171.238 17.0102 171.252 16.9534C171.286 16.8131 171.305 16.6693 171.308 16.5249C171.308 16.1697 171.202 15.8226 171.004 15.5273C170.805 15.232 170.523 15.0019 170.193 14.866C169.863 14.7301 169.5 14.6945 169.149 14.7638C168.799 14.833 168.477 15.0041 168.225 15.2552C167.972 15.5063 167.8 15.8263 167.73 16.1746C167.66 16.5229 167.696 16.8839 167.833 17.212C167.97 17.5401 168.201 17.8206 168.498 18.0179C168.795 18.2152 169.144 18.3205 169.502 18.3205C169.861 18.3211 170.213 18.2136 170.511 18.012C170.559 17.9807 170.617 17.9695 170.674 17.9807C170.73 17.9919 170.78 18.0246 170.812 18.0719C170.843 18.1191 170.855 18.1768 170.843 18.2321C170.832 18.2875 170.799 18.3362 170.752 18.3676C170.385 18.6069 169.954 18.7321 169.515 18.7276V18.7276Z" fill="#E3E3E3"/>
        <path d="M173.14 22.6662C173.091 22.6664 173.043 22.6499 173.005 22.6195C172.966 22.5892 172.94 22.5466 172.929 22.499C172.77 21.8436 172.424 21.248 171.932 20.7841C171.44 20.3202 170.823 20.008 170.157 19.8851C169.49 19.7622 168.802 19.8341 168.175 20.0918C167.549 20.3496 167.011 20.7823 166.626 21.3376C166.593 21.3832 166.544 21.4142 166.488 21.4238C166.433 21.4334 166.375 21.421 166.329 21.3891C166.305 21.3736 166.285 21.3535 166.27 21.3301C166.254 21.3068 166.243 21.2805 166.238 21.253C166.233 21.2254 166.233 21.1971 166.239 21.1697C166.245 21.1423 166.257 21.1163 166.273 21.0934C166.705 20.4707 167.309 19.9857 168.012 19.6969C168.716 19.4082 169.488 19.3281 170.236 19.4663C170.984 19.6046 171.676 19.9552 172.228 20.4759C172.78 20.9966 173.169 21.665 173.347 22.4005C173.354 22.4278 173.355 22.4562 173.351 22.4841C173.347 22.5119 173.337 22.5386 173.322 22.5626C173.307 22.5866 173.288 22.6074 173.264 22.6237C173.241 22.64 173.215 22.6516 173.187 22.6576L173.14 22.6662Z" fill="#E3E3E3"/>
        <path d="M245.706 87.2135C245.649 87.2135 245.594 87.191 245.554 87.1508C245.514 87.1106 245.491 87.0561 245.491 86.9993V61.3636C245.49 60.2376 245.039 59.1581 244.239 58.3619C243.438 57.5657 242.352 57.1179 241.219 57.1168H234.649C234.592 57.1168 234.537 57.0942 234.497 57.054C234.456 57.0138 234.434 56.9593 234.434 56.9025C234.434 56.8457 234.456 56.7911 234.497 56.751C234.537 56.7108 234.592 56.6882 234.649 56.6882H241.219C242.466 56.6894 243.662 57.1823 244.543 58.0589C245.425 58.9354 245.921 60.124 245.922 61.3636V86.9993C245.922 87.0561 245.899 87.1106 245.859 87.1508C245.818 87.191 245.764 87.2135 245.706 87.2135Z" fill="#E3E3E3"/>
        <path d="M241.218 102.478H175.391C175.334 102.478 175.279 102.456 175.239 102.415C175.199 102.375 175.176 102.321 175.176 102.264C175.176 102.207 175.199 102.152 175.239 102.112C175.279 102.072 175.334 102.05 175.391 102.05H241.218C242.351 102.05 243.438 101.602 244.239 100.806C245.04 100.009 245.49 98.929 245.49 97.8027V96.3842C245.49 96.3274 245.513 96.2728 245.553 96.2326C245.594 96.1925 245.649 96.1699 245.706 96.1699C245.763 96.1699 245.818 96.1925 245.858 96.2326C245.899 96.2728 245.921 96.3274 245.921 96.3842V97.8027C245.92 99.0423 245.424 100.231 244.543 101.107C243.661 101.984 242.465 102.477 241.218 102.478V102.478Z" fill="#E3E3E3"/>
        <path d="M156.892 102.633H146.352C143.765 102.633 141.645 99.6074 141.645 95.8919V63.4295C141.645 59.714 143.757 56.6885 146.352 56.6885H203.639C203.696 56.6885 203.751 56.711 203.792 56.7512C203.832 56.7914 203.855 56.8459 203.855 56.9027C203.855 56.9596 203.832 57.0141 203.792 57.0542C203.751 57.0944 203.696 57.117 203.639 57.117H146.352C143.994 57.117 142.076 59.9497 142.076 63.4295V95.8919C142.076 99.3717 143.994 102.204 146.352 102.204H156.892C156.949 102.204 157.004 102.227 157.045 102.267C157.085 102.307 157.108 102.362 157.108 102.419C157.108 102.475 157.085 102.53 157.045 102.57C157.004 102.61 156.949 102.633 156.892 102.633V102.633Z" fill="#E3E3E3"/>
        <path d="M161.498 88.7647H150.945C150.03 88.7647 149.153 88.4035 148.506 87.7606C147.859 87.1176 147.496 86.2456 147.496 85.3363V79.6752C147.496 79.6184 147.519 79.5639 147.559 79.5237C147.6 79.4835 147.654 79.4609 147.712 79.4609C147.769 79.4609 147.824 79.4835 147.864 79.5237C147.904 79.5639 147.927 79.6184 147.927 79.6752V85.3363C147.927 86.1319 148.245 86.8949 148.811 87.4575C149.377 88.0201 150.144 88.3362 150.945 88.3362H161.498C161.555 88.3362 161.61 88.3587 161.65 88.3989C161.691 88.4391 161.713 88.4936 161.713 88.5504C161.713 88.6073 161.691 88.6618 161.65 88.7019C161.61 88.7421 161.555 88.7647 161.498 88.7647Z" fill="#E3E3E3"/>
        <path d="M171.072 88.7644H169.486C169.429 88.7644 169.374 88.7418 169.333 88.7016C169.293 88.6615 169.27 88.607 169.27 88.5501C169.27 88.4933 169.293 88.4388 169.333 88.3986C169.374 88.3584 169.429 88.3359 169.486 88.3359H171.072C171.873 88.3359 172.64 88.0198 173.206 87.4572C173.772 86.8947 174.09 86.1317 174.09 85.336V65.3229C174.09 64.5273 173.772 63.7643 173.206 63.2017C172.64 62.6391 171.873 62.3231 171.072 62.3231H150.945C150.144 62.3231 149.377 62.6391 148.811 63.2017C148.245 63.7643 147.927 64.5273 147.927 65.3229V68.3227C147.926 68.3792 147.903 68.4331 147.863 68.473C147.823 68.513 147.768 68.5359 147.712 68.537C147.654 68.537 147.6 68.5145 147.559 68.4743C147.519 68.4341 147.496 68.3796 147.496 68.3227V65.3229C147.496 64.4136 147.859 63.5416 148.506 62.8987C149.153 62.2557 150.03 61.8945 150.945 61.8945H171.072C171.987 61.8945 172.864 62.2557 173.511 62.8987C174.158 63.5416 174.521 64.4136 174.521 65.3229V85.336C174.521 86.2453 174.158 87.1173 173.511 87.7603C172.864 88.4032 171.987 88.7644 171.072 88.7644Z" fill="#E3E3E3"/>
        <path d="M151.428 40.4332H148.889C148.21 40.4332 147.558 40.165 147.078 39.6876C146.598 39.2102 146.328 38.5628 146.328 37.8876C146.328 37.2125 146.598 36.565 147.078 36.0876C147.558 35.6102 148.21 35.342 148.889 35.342H165.447C165.504 35.342 165.559 35.3646 165.599 35.4048C165.64 35.445 165.662 35.4995 165.662 35.5563C165.662 35.6131 165.64 35.6676 165.599 35.7078C165.559 35.748 165.504 35.7706 165.447 35.7706H148.889C148.324 35.7706 147.782 35.9936 147.383 36.3907C146.984 36.7877 146.759 37.3262 146.759 37.8876C146.759 38.4491 146.984 38.9875 147.383 39.3846C147.782 39.7816 148.324 40.0046 148.889 40.0046H151.428C151.485 40.0046 151.54 40.0272 151.58 40.0674C151.621 40.1076 151.643 40.1621 151.643 40.2189C151.643 40.2757 151.621 40.3302 151.58 40.3704C151.54 40.4106 151.485 40.4332 151.428 40.4332Z" fill="#E3E3E3"/>
        <path d="M173.519 40.4329H154.426C154.37 40.4318 154.316 40.4089 154.275 40.369C154.235 40.329 154.212 40.2751 154.211 40.2187C154.211 40.1618 154.234 40.1073 154.274 40.0672C154.315 40.027 154.369 40.0044 154.426 40.0044H173.519C174.084 40.0044 174.626 39.7813 175.025 39.3843C175.425 38.9873 175.649 38.4489 175.649 37.8874C175.649 37.3259 175.425 36.7874 175.025 36.3904C174.626 35.9934 174.084 35.7703 173.519 35.7703H172.36C172.303 35.7703 172.248 35.7478 172.207 35.7076C172.167 35.6674 172.144 35.6129 172.144 35.5561C172.144 35.4992 172.167 35.4448 172.207 35.4046C172.248 35.3644 172.303 35.3418 172.36 35.3418H173.519C174.198 35.3418 174.85 35.61 175.33 36.0874C175.81 36.5647 176.08 37.2123 176.08 37.8874C176.08 38.5625 175.81 39.21 175.33 39.6874C174.85 40.1648 174.198 40.4329 173.519 40.4329Z" fill="#E3E3E3"/>
        <path d="M207.419 43.8192C203.597 43.8192 199.862 42.6927 196.685 40.5821C193.507 38.4716 191.031 35.4718 189.568 31.9621C188.106 28.4524 187.723 24.5904 188.469 20.8646C189.214 17.1387 191.055 13.7162 193.757 11.03C196.459 8.34381 199.902 6.51449 203.65 5.77337C207.398 5.03225 211.282 5.41263 214.813 6.86639C218.343 8.32016 221.361 10.782 223.484 13.9406C225.607 17.0993 226.74 20.8128 226.74 24.6117C226.733 29.7038 224.696 34.5853 221.074 38.1859C217.452 41.7866 212.541 43.8124 207.419 43.8192V43.8192ZM207.419 5.83285C203.683 5.83285 200.031 6.93421 196.924 8.99767C193.818 11.0611 191.396 13.994 189.967 17.4254C188.537 20.8568 188.163 24.6326 188.892 28.2753C189.62 31.9181 191.42 35.2641 194.061 37.8904C196.703 40.5167 200.069 42.3052 203.734 43.0298C207.398 43.7544 211.196 43.3825 214.648 41.9612C218.1 40.5399 221.05 38.1329 223.126 35.0447C225.201 31.9565 226.309 28.3258 226.309 24.6117C226.304 19.633 224.312 14.8598 220.77 11.3393C217.229 7.81885 212.427 5.83852 207.419 5.83285Z" fill="#E3E3E3"/>
        <path d="M153.775 121H144.55C143.775 120.994 143.034 120.684 142.49 120.136C141.945 119.588 141.641 118.848 141.645 118.077V112.691C141.64 111.92 141.943 111.178 142.488 110.63C143.033 110.081 143.775 109.769 144.55 109.764H205.295C205.352 109.764 205.407 109.786 205.447 109.826C205.487 109.867 205.51 109.921 205.51 109.978C205.51 110.035 205.487 110.089 205.447 110.129C205.407 110.17 205.352 110.192 205.295 110.192H144.55C143.889 110.198 143.257 110.464 142.793 110.933C142.329 111.401 142.071 112.033 142.076 112.691V118.077C142.072 118.734 142.331 119.365 142.794 119.833C143.258 120.3 143.89 120.566 144.55 120.572H153.775C153.832 120.573 153.886 120.596 153.927 120.636C153.967 120.676 153.99 120.729 153.991 120.786C153.991 120.843 153.968 120.897 153.928 120.937C153.887 120.978 153.833 121 153.775 121Z" fill="#E3E3E3"/>
        <path d="M245.055 121H169.817C169.76 121 169.705 120.977 169.665 120.937C169.624 120.897 169.602 120.843 169.602 120.786C169.603 120.729 169.626 120.675 169.666 120.635C169.706 120.595 169.76 120.573 169.817 120.571H245.055C245.721 120.571 246.359 120.309 246.83 119.841C247.302 119.374 247.567 118.739 247.568 118.077V112.691C247.568 112.028 247.303 111.392 246.832 110.924C246.361 110.455 245.721 110.192 245.055 110.192H225.281C225.224 110.192 225.169 110.17 225.128 110.129C225.088 110.089 225.065 110.035 225.065 109.978C225.065 109.921 225.088 109.866 225.128 109.826C225.169 109.786 225.224 109.764 225.281 109.764H245.055C245.836 109.764 246.585 110.072 247.137 110.621C247.689 111.17 247.999 111.914 247.999 112.691V118.077C247.998 118.853 247.687 119.596 247.135 120.144C246.583 120.692 245.835 121 245.055 121Z" fill="#E3E3E3"/>
    </g>
    <defs>
        <clipPath id="clip0_6062_16085">
            <rect width="248" height="121" fill="white"/>
        </clipPath>
    </defs>
</svg>
