<svg width="193" height="144" viewBox="0 0 193 144" fill="none" xmlns="http://www.w3.org/2000/svg">
    <g clip-path="url(#clip0_6062_16307)">
        <path d="M106.37 90.426H63.5781V83.8245C63.5776 82.8427 63.7701 81.8705 64.1444 80.9634C64.5187 80.0562 65.0675 79.232 65.7597 78.5377C66.4519 77.8435 67.2738 77.293 68.1782 76.9175C69.0827 76.5421 70.052 76.3491 71.0309 76.3497H88.5574C89.1196 76.3461 89.6701 76.5108 90.1385 76.8227C90.6069 77.1346 90.972 77.5795 91.1868 78.1006C92.207 80.6693 93.8546 83.2808 96.4968 84.9933C98.8487 86.5131 102.622 88.0543 106.536 89.4157C106.654 89.4541 106.753 89.5334 106.817 89.6392C106.881 89.7451 106.906 89.8704 106.885 89.9925C106.865 90.1146 106.802 90.2255 106.708 90.305C106.613 90.3845 106.493 90.4274 106.37 90.426Z" fill="#EAB669"/>
        <path d="M115.389 76.3497H130.875C131.027 76.3453 131.178 76.3816 131.311 76.4549C131.444 76.5283 131.555 76.6359 131.633 76.7669C131.711 76.8978 131.753 77.0472 131.754 77.1996C131.755 77.3521 131.715 77.5021 131.639 77.6341C131.507 77.8816 131.399 78.141 131.315 78.409L128.886 89.998C128.859 90.1195 128.791 90.2282 128.694 90.306C128.597 90.3838 128.477 90.4262 128.353 90.4261C128.217 90.4243 128.084 90.3937 127.961 90.3363C127.839 90.279 127.73 90.1962 127.641 90.0934C127.553 89.9906 127.487 89.8702 127.449 89.7401C127.41 89.61 127.4 89.4731 127.418 89.3387C127.442 89.1639 127.442 88.9868 127.418 88.8121C127.753 88.7161 128.06 88.5381 128.31 88.2941C128.445 88.1535 128.543 87.9809 128.594 87.7922C128.644 87.6035 128.647 87.405 128.6 87.2152C128.571 87.0749 128.522 86.9394 128.455 86.8128C128.74 86.6869 128.987 86.4888 129.173 86.2382C129.358 85.9875 129.476 85.6928 129.514 85.3829C129.514 85.3358 129.514 85.2887 129.535 85.2459C129.551 85.0836 129.551 84.9202 129.535 84.7579C129.531 84.6771 129.55 84.5969 129.59 84.5267C130.115 83.5591 129.488 82.2706 129.134 81.6712C129.082 81.5817 129.064 81.4765 129.084 81.375C129.104 81.2735 129.159 81.1825 129.24 81.1189C129.638 80.8555 129.927 80.4573 130.056 79.9973C130.071 79.9051 130.071 79.8111 130.056 79.719C130.005 79.1111 129.39 78.4004 127.495 77.7026C125.702 77.0347 124.507 77.4671 123.696 78.2677C123.265 78.7075 122.923 79.2265 122.688 79.7961C122.642 79.892 122.561 79.967 122.463 80.0066C122.364 80.0462 122.254 80.0475 122.155 80.0101L115.206 77.1632C115.119 77.121 115.049 77.0506 115.007 76.9635C114.965 76.8764 114.954 76.7777 114.975 76.6834C114.997 76.5891 115.049 76.5047 115.124 76.4442C115.199 76.3836 115.293 76.3503 115.389 76.3497Z" fill="#EAB669"/>
        <path d="M176.677 84.2398V90.0108C176.677 90.1243 176.632 90.2332 176.552 90.3135C176.472 90.3938 176.363 90.4389 176.25 90.4389H147.049C146.837 90.4384 146.628 90.3893 146.438 90.2955C146.248 90.2017 146.082 90.0656 145.952 89.8975C145.822 89.7294 145.733 89.5339 145.69 89.3257C145.647 89.1176 145.652 88.9023 145.704 88.6965C146.691 84.8434 147.271 80.481 145.508 78.7942C144.85 78.165 144.11 77.6265 143.31 77.1931C143.256 77.1784 143.205 77.1532 143.16 77.1189C143.115 77.0845 143.078 77.0417 143.05 76.9928C143.021 76.9439 143.003 76.8899 142.996 76.8339C142.988 76.7779 142.992 76.721 143.007 76.6665C143.021 76.612 143.047 76.5608 143.081 76.516C143.115 76.4712 143.158 76.4337 143.207 76.4055C143.255 76.3772 143.309 76.3589 143.365 76.3516C143.421 76.3442 143.478 76.3479 143.532 76.3626H168.797C169.83 76.3609 170.854 76.5633 171.809 76.9582C172.764 77.3532 173.632 77.933 174.364 78.6644C175.095 79.3959 175.676 80.2647 176.073 81.2214C176.47 82.178 176.675 83.2037 176.677 84.2398Z" fill="#EAB669"/>
        <path d="M114.841 73.2245H106.278L106.402 72.3682L106.726 70.2277L93.4941 67.9929C93.3105 69.5641 93.1142 71.3836 93.0672 73.2245H86.9973C86.6681 73.224 86.3443 73.1413 86.055 72.9837C85.7658 72.8262 85.5202 72.5987 85.3406 72.3221C85.1609 72.0454 85.0528 71.7283 85.0261 71.3992C84.9993 71.0701 85.0549 70.7396 85.1876 70.4375L91.8636 55.3251C92.999 52.7564 95.3636 51.0439 97.9801 49.9736C99.6363 49.2929 103.794 48.6893 107.589 50.877C111.383 53.0646 112.395 55.8816 112.395 55.8816C114.136 57.9751 115.976 66.623 116.792 70.8656C116.846 71.1532 116.837 71.4495 116.764 71.7331C116.691 72.0168 116.557 72.2807 116.371 72.5062C116.184 72.7316 115.95 72.9129 115.686 73.0371C115.421 73.1612 115.133 73.2252 114.841 73.2245Z" fill="#252525"/>
        <path d="M116.769 51.1638C117.861 51.1638 118.746 50.2763 118.746 49.1816C118.746 48.0869 117.861 47.1995 116.769 47.1995C115.678 47.1995 114.793 48.0869 114.793 49.1816C114.793 50.2763 115.678 51.1638 116.769 51.1638Z" fill="#71A5D2"/>
        <path d="M127.287 34.6814C127.585 35.7988 128.14 39.2579 125.093 42.777C124.815 43.0938 124.217 42.9354 124.239 42.5416C124.277 40.3368 124.461 35.6575 125.302 34.8783C125.615 34.5549 126.016 34.3303 126.454 34.2319C126.624 34.1938 126.801 34.2183 126.954 34.3009C127.107 34.3834 127.225 34.5186 127.287 34.6814Z" fill="#71A5D2"/>
        <path d="M110.543 21.1316C110.543 21.1316 104.857 11.0538 99.5173 18.4302C94.1774 25.8065 95.8763 34.4502 96.6104 36.9418C97.3446 39.4334 95.7867 41.2229 95.0781 41.1929C95.0781 41.1929 97.43 41.3642 99.2697 36.7962C100.222 34.7541 98.702 32.1127 99.1459 31.0809C99.5898 30.0492 103.782 20.5279 110.543 21.1316Z" fill="#252525"/>
        <path d="M107.93 14.7785C111.64 14.7785 114.648 11.7616 114.648 8.04001C114.648 4.31844 111.64 1.30151 107.93 1.30151C104.219 1.30151 101.211 4.31844 101.211 8.04001C101.211 11.7616 104.219 14.7785 107.93 14.7785Z" fill="#252525"/>
        <path d="M125.45 28.8247C125.45 28.8247 127.584 13.1857 106.063 13.4126C84.5409 13.6395 94.7084 32.9089 94.7084 32.9089C94.7084 32.9089 100.151 24.7747 101.448 23.6531C102.746 22.5314 113.161 24.0469 118.232 22.6256C123.303 21.2043 124.515 34.0262 125.45 28.8247Z" fill="#252525"/>
        <path d="M107.31 47.0968H106.311C106.089 47.0968 100.651 47.0154 96.7919 44.6908C96.081 44.2722 95.4317 43.7563 94.8626 43.1581C94.0938 42.3755 93.4086 41.5146 92.8179 40.5894C92.8027 40.5658 92.7925 40.5393 92.7879 40.5115C92.7833 40.4838 92.7845 40.4554 92.7913 40.4281C92.7981 40.4008 92.8105 40.3752 92.8275 40.3529C92.8446 40.3306 92.866 40.312 92.8905 40.2983C92.9139 40.2835 92.9402 40.2734 92.9676 40.2688C92.995 40.2643 93.0229 40.2652 93.0499 40.2716C93.0769 40.2779 93.1025 40.2897 93.1249 40.306C93.1474 40.3224 93.1664 40.3431 93.1808 40.3668C93.7572 41.2644 94.4269 42.0982 95.1785 42.8541C95.7206 43.423 96.3381 43.9143 97.0139 44.314C100.77 46.5745 106.264 46.6558 106.319 46.6558C112.927 46.8484 119.479 45.0118 120.644 44.5152C122.108 43.8773 122.907 39.8488 123.09 38.3504C123.205 37.4942 123.517 35.0925 123.423 34.6044C123.416 34.5489 123.43 34.4927 123.464 34.4478C123.498 34.403 123.547 34.3732 123.602 34.3647C123.63 34.3598 123.659 34.3607 123.686 34.3671C123.714 34.3736 123.74 34.3857 123.762 34.4025C123.785 34.4193 123.804 34.4405 123.819 34.4649C123.833 34.4893 123.842 34.5164 123.846 34.5445C123.94 35.1824 123.555 38.0764 123.513 38.3975C123.483 38.6244 122.8 44.0315 120.819 44.8963C119.688 45.3886 113.653 47.0968 107.31 47.0968Z" fill="#E3E3E3"/>
        <path d="M93.2251 21.5813H93.1653C93.111 21.5654 93.0652 21.5285 93.038 21.4788C93.0108 21.429 93.0044 21.3704 93.0203 21.3159C95.0862 14.2863 100.277 11.2809 108.472 12.3854C114.102 13.1432 118.512 14.4832 121.572 16.3712C121.596 16.3861 121.617 16.4055 121.633 16.4284C121.649 16.4513 121.661 16.4772 121.668 16.5047C121.674 16.5321 121.675 16.5605 121.67 16.5883C121.665 16.6161 121.655 16.6427 121.64 16.6666C121.61 16.714 121.562 16.7477 121.507 16.7605C121.452 16.7733 121.394 16.7641 121.346 16.7351C118.337 14.8813 113.987 13.5585 108.417 12.8093C100.469 11.739 95.4277 14.6416 93.43 21.4357C93.415 21.4783 93.3873 21.5151 93.3506 21.5412C93.3139 21.5672 93.2701 21.5813 93.2251 21.5813Z" fill="#E3E3E3"/>
        <path d="M123.665 33.2944C123.617 33.2946 123.569 33.2859 123.524 33.2687C123.453 33.2394 123.393 33.1885 123.353 33.1232C123.312 33.058 123.293 32.9816 123.298 32.9048C123.614 28.8378 123.516 24.1799 122.286 23.3108C121.663 22.8827 119.593 23.0753 116.972 23.3108C113.506 23.6447 108.76 24.1028 103.906 23.4735C103.878 23.4698 103.851 23.4607 103.827 23.4466C103.802 23.4324 103.781 23.4136 103.763 23.3911C103.746 23.3687 103.734 23.343 103.726 23.3157C103.719 23.2883 103.717 23.2597 103.721 23.2316C103.724 23.2035 103.733 23.1764 103.747 23.1518C103.762 23.1273 103.78 23.1057 103.803 23.0884C103.825 23.0711 103.851 23.0584 103.878 23.051C103.905 23.0436 103.934 23.0417 103.962 23.0454C108.768 23.6747 113.485 23.2209 116.934 22.887C119.853 22.6044 121.783 22.4203 122.53 22.9512C124.177 24.1114 123.938 30.0279 123.738 32.7293L125.129 31.0896C125.478 30.6814 125.69 30.1738 125.735 29.6383L126.162 24.852C126.301 23.4684 126.039 22.0741 125.407 20.8363C125.382 20.7856 125.379 20.7274 125.396 20.674C125.414 20.6206 125.451 20.576 125.5 20.5495C125.552 20.525 125.61 20.5211 125.664 20.5386C125.718 20.5561 125.764 20.5937 125.791 20.6437C126.451 21.9539 126.728 23.4249 126.589 24.8863L126.162 29.6768C126.111 30.308 125.863 30.907 125.454 31.3893L123.943 33.1745C123.908 33.2133 123.865 33.2441 123.817 33.2648C123.769 33.2855 123.717 33.2956 123.665 33.2944Z" fill="#E3E3E3"/>
        <path d="M95.7968 41.8137L96.2237 41.193C96.2237 41.193 97.3805 39.4806 97.4659 37.8966C97.3943 37.3973 97.2353 36.9147 96.9963 36.4709C95.878 33.838 93.5473 28.3667 99.4805 19.295C101.35 16.4395 103.288 15.0353 105.282 15.1381C108.163 15.2793 110.446 18.5244 111.851 21.2215C111.864 21.2465 111.872 21.2739 111.875 21.3021C111.878 21.3303 111.875 21.3588 111.866 21.3859C111.858 21.413 111.845 21.4381 111.826 21.4599C111.808 21.4817 111.786 21.4996 111.761 21.5127C111.711 21.5373 111.653 21.5417 111.6 21.525C111.547 21.5082 111.502 21.4717 111.475 21.4228C110.365 19.2822 108.082 15.7075 105.26 15.5662C103.446 15.4677 101.619 16.812 99.8392 19.5305C94.0298 28.4096 96.3005 33.7395 97.389 36.3039C97.6607 36.8036 97.832 37.352 97.8927 37.9179C97.8262 38.686 97.6223 39.4357 97.2908 40.1313C98.025 39.0396 98.8616 36.8391 98.5714 32.6051V32.5023L98.6439 32.4338C98.678 32.4039 102.114 29.1416 103.548 25.3956C103.57 25.3435 103.611 25.3019 103.663 25.2796C103.715 25.2572 103.773 25.2559 103.826 25.2758C103.852 25.2853 103.876 25.3 103.897 25.319C103.918 25.338 103.934 25.361 103.946 25.3865C103.957 25.4121 103.963 25.4397 103.964 25.4678C103.965 25.4958 103.96 25.5236 103.95 25.5497C102.597 29.0774 99.5233 32.1727 99.0111 32.6736C99.4977 40.0799 96.6207 41.4541 96.4969 41.5098L95.7968 41.8137Z" fill="#E3E3E3"/>
        <path d="M115.359 34.219L116.072 33.7224C116.964 33.1636 117.967 32.808 119.011 32.6808C120.054 32.5536 121.113 32.6578 122.112 32.986L123.004 33.2858L115.359 34.219ZM119.922 33.0503C119.057 33.0546 118.2 33.2201 117.395 33.5383L120.84 33.1102C120.542 33.0685 120.241 33.0484 119.939 33.0503H119.922Z" fill="#E3E3E3"/>
        <path d="M111.147 34.2489L100.25 33.2813L101.202 32.9517C104.186 32.1027 107.377 32.3862 110.166 33.748L111.147 34.2489ZM102.61 33.063L108.778 33.611C106.809 32.9042 104.691 32.7155 102.627 33.063H102.61Z" fill="#E3E3E3"/>
        <path d="M119.806 31.616C118.816 31.616 117.454 31.616 115.567 31.5646H115.141L115.418 31.2221C116.033 30.4686 121.791 29.9378 122.09 30.0106L122.218 30.0405L122.265 30.1775C122.303 30.3188 122.333 30.443 121.603 30.717C122.487 31.0381 122.508 31.1836 122.525 31.2863V31.3848L122.457 31.4662C122.406 31.5218 122.325 31.616 119.806 31.616ZM116.579 31.1537C118.355 31.1793 120.498 31.1965 121.56 31.1537C121.338 31.068 121.078 30.9781 120.843 30.901L120.199 30.6998L120.843 30.4943L120.941 30.4644C119.482 30.6071 118.032 30.8372 116.6 31.1537H116.579Z" fill="#E3E3E3"/>
        <path d="M110.933 31.826C110.9 31.8257 110.868 31.8178 110.838 31.803C110.809 31.7881 110.783 31.7668 110.763 31.7404C110.383 31.231 106.772 30.3619 101.564 29.5228C101.509 29.5133 101.459 29.4826 101.425 29.4371C101.392 29.3915 101.377 29.3348 101.385 29.2788C101.394 29.2222 101.425 29.1716 101.472 29.1379C101.518 29.1043 101.576 29.0903 101.632 29.0989C104.898 29.6255 110.468 30.6359 111.104 31.4836C111.121 31.5058 111.134 31.5313 111.142 31.5587C111.149 31.586 111.151 31.6145 111.147 31.6425C111.143 31.6705 111.133 31.6974 111.118 31.7215C111.104 31.7457 111.084 31.7667 111.062 31.7832C111.025 31.8119 110.98 31.827 110.933 31.826Z" fill="#E3E3E3"/>
        <path d="M110.94 31.8301H110.889L108.43 31.6631C101.088 31.175 101.089 31.1751 101.042 30.9867C100.995 30.7983 100.982 30.7512 102.378 30.2075L101.353 29.7194C101.303 29.6953 101.263 29.6521 101.244 29.5992C101.225 29.5464 101.227 29.4881 101.251 29.4369C101.276 29.3858 101.319 29.3464 101.373 29.3272C101.426 29.308 101.485 29.3105 101.537 29.3342L103.462 30.2461L102.996 30.4258L102.062 30.7983C103.466 30.9053 106.475 31.1065 108.464 31.2264C110.052 31.3292 110.886 31.3862 110.966 31.3977L111.055 31.4277C111.104 31.4578 111.138 31.5054 111.151 31.5606C111.165 31.6157 111.157 31.674 111.128 31.723C111.108 31.7554 111.081 31.7823 111.048 31.801C111.015 31.8197 110.978 31.8297 110.94 31.8301Z" fill="#E3E3E3"/>
        <path d="M112.942 11.9918C112.915 11.9962 112.887 11.9962 112.86 11.9918C112.834 11.981 112.81 11.9651 112.79 11.945C112.77 11.9249 112.754 11.901 112.744 11.8747C112.733 11.8484 112.728 11.8202 112.728 11.7918C112.728 11.7634 112.734 11.7353 112.745 11.7092C113.213 10.5544 113.41 9.30711 113.321 8.06371C113.233 6.8203 112.86 5.61405 112.232 4.5381C111.604 3.46215 110.738 2.54527 109.701 1.85832C108.664 1.17137 107.483 0.73268 106.25 0.576178C105.017 0.419676 103.765 0.549569 102.59 0.955742C101.415 1.36191 100.348 2.03351 99.4731 2.91873C98.5979 3.80394 97.9374 4.87908 97.5424 6.06106C97.1474 7.24304 97.0285 8.50024 97.195 9.73561C97.2547 10.1512 97.3445 10.5618 97.4639 10.9643C97.4799 11.0182 97.4742 11.0763 97.4478 11.126C97.4214 11.1757 97.3767 11.2129 97.3232 11.2297C97.2688 11.2459 97.2102 11.2402 97.16 11.2138C97.1098 11.1874 97.0718 11.1425 97.0541 11.0885C96.9284 10.668 96.8344 10.2387 96.7725 9.80412C96.5287 8.12292 96.789 6.40697 97.5203 4.8746C98.2517 3.34223 99.4211 2.06271 100.88 1.19885C102.338 0.334995 104.02 -0.0741909 105.711 0.023426C107.402 0.121043 109.026 0.72102 110.376 1.74701C111.893 2.88842 112.989 4.5041 113.489 6.33903C113.989 8.17396 113.865 10.1237 113.138 11.8805C113.119 11.9159 113.091 11.9452 113.056 11.9649C113.021 11.9846 112.981 11.994 112.942 11.9918Z" fill="#E3E3E3"/>
        <path d="M115.004 37.7383C115.004 37.7383 115.03 39.3865 112.562 39.211C112.562 39.211 114.317 38.8557 115.004 37.7383Z" fill="#E3E3E3"/>
        <path d="M110.441 42.8066C109.835 42.8113 109.229 42.7756 108.627 42.6996C108.599 42.6964 108.572 42.6877 108.548 42.6738C108.523 42.6599 108.502 42.6412 108.485 42.6188C108.467 42.5964 108.455 42.5708 108.448 42.5435C108.441 42.5162 108.44 42.4877 108.444 42.4598C108.451 42.4036 108.48 42.3527 108.525 42.3182C108.57 42.2837 108.627 42.2684 108.683 42.2757C111.671 42.6696 116.439 41.7663 116.485 41.7577C116.542 41.747 116.601 41.7591 116.648 41.7917C116.696 41.8242 116.729 41.8743 116.74 41.9311C116.75 41.9879 116.738 42.0466 116.706 42.0944C116.673 42.1422 116.623 42.1751 116.567 42.1859C114.545 42.5597 112.497 42.7673 110.441 42.8066Z" fill="#E3E3E3"/>
        <path d="M100.293 11.8373C100.293 11.8373 102.03 8.81479 107.02 10.8098C107.02 10.8098 102.581 10.4159 100.293 11.8373Z" fill="#E3E3E3"/>
        <path d="M111.684 44.8706C111.535 44.8706 111.39 44.8706 111.258 44.8706C111.201 44.8654 111.149 44.838 111.112 44.7943C111.076 44.7505 111.058 44.694 111.063 44.6373C111.068 44.5805 111.096 44.528 111.139 44.4915C111.183 44.455 111.239 44.4373 111.296 44.4424C112.234 44.457 113.171 44.3724 114.092 44.1899C114.119 44.1842 114.148 44.1841 114.175 44.1895C114.203 44.1948 114.229 44.2055 114.252 44.221C114.276 44.2365 114.296 44.2565 114.311 44.2798C114.327 44.3031 114.338 44.3293 114.344 44.3568C114.354 44.413 114.341 44.4708 114.31 44.518C114.278 44.5652 114.229 44.598 114.173 44.6094C113.352 44.7634 112.52 44.8507 111.684 44.8706Z" fill="#E3E3E3"/>
        <path d="M93.6215 74.2688H82.5234L91.0604 53.5524C91.6511 52.0943 92.5502 50.782 93.6953 49.7059C94.8405 48.6297 96.2045 47.8155 97.6937 47.3191C97.7503 47.3015 97.8115 47.3072 97.864 47.3349C97.9164 47.3626 97.9558 47.4101 97.9734 47.4668C97.9909 47.5236 97.9852 47.585 97.9576 47.6376C97.9299 47.6902 97.8826 47.7297 97.826 47.7473C96.3948 48.2246 95.0838 49.0077 93.9836 50.0424C92.8833 51.0772 92.0202 52.339 91.4533 53.7408L83.1637 73.8621H93.6215C93.6781 73.8621 93.7324 73.8847 93.7724 73.9248C93.8125 73.9649 93.835 74.0194 93.835 74.0762C93.8296 74.1292 93.805 74.1783 93.7655 74.2139C93.7261 74.2495 93.6746 74.2691 93.6215 74.2688Z" fill="#E3E3E3"/>
        <path d="M118.482 74.2692H105.42C105.364 74.2681 105.311 74.2452 105.271 74.2053C105.231 74.1654 105.208 74.1116 105.207 74.0551C105.207 73.9984 105.23 73.9439 105.27 73.9038C105.31 73.8636 105.364 73.8411 105.42 73.8411H117.983C117.637 71.7604 115.178 57.3031 112.925 54.3962C112.894 54.3511 112.882 54.296 112.89 54.2422C112.899 54.1884 112.928 54.14 112.971 54.1067C113.014 54.0734 113.068 54.0577 113.122 54.063C113.176 54.0683 113.226 54.094 113.262 54.135C115.746 57.333 118.337 73.3402 118.444 74.0209L118.482 74.2692Z" fill="#E3E3E3"/>
        <path d="M124.751 91.4661C123.118 91.3197 121.502 91.0332 119.919 90.6099C111.343 88.6534 96.9157 84.124 94.6918 80.3352C94.0375 79.107 93.6465 77.7553 93.5436 76.3666C93.2576 73.6995 93.5436 70.7283 93.8552 68.1511C93.8578 68.1227 93.866 68.0951 93.8796 68.07C93.8932 68.045 93.9118 68.0229 93.9342 68.0053C93.9566 67.9876 93.9823 67.9748 94.0099 67.9674C94.0374 67.9601 94.0661 67.9585 94.0943 67.9627C94.1218 67.9659 94.1484 67.9745 94.1726 67.9881C94.1968 68.0017 94.2181 68.02 94.2352 68.0419C94.2522 68.0638 94.2647 68.0889 94.272 68.1158C94.2794 68.1426 94.2812 68.1706 94.2777 68.1982C93.9789 70.7668 93.6844 73.6994 93.9661 76.3323C94.0631 77.6605 94.4353 78.9539 95.0588 80.1297C97.1035 83.6274 110.882 88.1354 120.012 90.2246C122.373 90.7683 124.183 91.0808 124.84 91.0465C125.2 91.0607 125.559 91.0012 125.895 90.8717C126.231 90.7421 126.537 90.5453 126.795 90.2931C126.961 90.0941 127.085 89.8629 127.158 89.614C127.232 89.3651 127.253 89.1037 127.222 88.8461L127.192 88.6663L127.367 88.6063C127.581 88.5593 127.783 88.4655 127.957 88.3315C128.131 88.1976 128.274 88.0269 128.375 87.8315C128.421 87.6812 128.437 87.523 128.422 87.3664C128.406 87.2098 128.36 87.0579 128.285 86.9196L128.165 86.7055L128.387 86.6113C129.514 86.1447 129.356 84.7234 129.348 84.6634V84.5863L129.39 84.5178C130.15 83.3534 128.806 81.4826 128.789 81.4611L128.648 81.2642L128.861 81.1486C128.861 81.1486 129.958 80.5236 129.898 79.7487C129.851 79.1065 129.015 78.4643 127.487 77.9035C126.283 77.4754 125.254 77.4754 124.435 77.9977C122.706 79.0765 122.386 81.9278 122.382 81.9577L122.356 82.2403L105.081 75.1593L105.828 70.1718C105.832 70.1437 105.842 70.1167 105.857 70.0923C105.871 70.068 105.891 70.0467 105.913 70.0298C105.936 70.0129 105.962 70.0007 105.99 69.9939C106.017 69.987 106.046 69.9856 106.074 69.9898C106.102 69.9941 106.129 70.0038 106.153 70.0184C106.177 70.0331 106.198 70.0524 106.215 70.0752C106.232 70.0981 106.244 70.1241 106.251 70.1516C106.258 70.1792 106.259 70.2079 106.255 70.236L105.559 74.8896L122.002 81.6324C122.13 80.8446 122.625 78.6356 124.213 77.6381C125.152 77.0516 126.304 77.0045 127.628 77.5011C129.335 78.139 130.253 78.8839 130.317 79.7187C130.381 80.5535 129.625 81.1443 129.254 81.3969C129.599 81.9406 130.474 83.516 129.779 84.6848C129.834 85.2927 129.672 86.3973 128.75 86.911C128.886 87.2517 128.895 87.6301 128.776 87.977C128.671 88.211 128.517 88.4196 128.325 88.5887C128.133 88.7579 127.906 88.8836 127.662 88.9574C127.696 89.5454 127.505 90.1243 127.128 90.5756C126.654 91.1236 125.894 91.4319 124.87 91.4747L124.751 91.4661Z" fill="#E3E3E3"/>
        <path d="M128.921 81.5469H128.895C128.81 81.5469 126.885 81.2814 126.198 80.194C126.066 79.9809 125.985 79.7405 125.961 79.4912C125.937 79.2419 125.969 78.9902 126.057 78.7556C126.075 78.7023 126.113 78.6583 126.164 78.6328C126.214 78.6073 126.272 78.6022 126.326 78.6186C126.352 78.6268 126.377 78.6404 126.399 78.6586C126.421 78.6767 126.438 78.6991 126.451 78.7243C126.464 78.7494 126.471 78.777 126.473 78.8052C126.475 78.8333 126.471 78.8616 126.462 78.8883C126.394 79.0625 126.367 79.2502 126.383 79.4366C126.4 79.623 126.459 79.8032 126.556 79.9629C127.137 80.8833 128.929 81.1188 128.946 81.123C129.003 81.1264 129.056 81.1522 129.094 81.1948C129.131 81.2373 129.15 81.2932 129.147 81.3499C129.144 81.4067 129.118 81.4598 129.075 81.4975C129.033 81.5353 128.977 81.5545 128.921 81.5511V81.5469Z" fill="#E3E3E3"/>
        <path d="M168.841 127.856H148.352C146.721 127.856 145.398 129.182 145.398 130.818V130.823C145.398 132.459 146.721 133.785 148.352 133.785H168.841C170.472 133.785 171.795 132.459 171.795 130.823V130.818C171.795 129.182 170.472 127.856 168.841 127.856Z" fill="#CE7783"/>
        <path d="M140.156 74.2689H118.233C118.176 74.2689 118.122 74.2464 118.082 74.2062C118.042 74.1661 118.02 74.1116 118.02 74.0549C118.02 73.9981 118.042 73.9437 118.082 73.9035C118.122 73.8634 118.176 73.8408 118.233 73.8408H140.156C140.212 73.8408 140.267 73.8634 140.307 73.9035C140.347 73.9437 140.369 73.9981 140.369 74.0549C140.369 74.1116 140.347 74.1661 140.307 74.2062C140.267 74.2464 140.212 74.2689 140.156 74.2689Z" fill="#E3E3E3"/>
        <path d="M169.739 144H70.2835C67.8362 143.997 65.4899 143.022 63.759 141.287C62.0282 139.551 61.0542 137.198 61.0508 134.744V83.1092C61.053 80.654 62.0266 78.2999 63.7576 76.5638C65.4886 74.8277 67.8355 73.8514 70.2835 73.8491H83.4135C83.4701 73.8491 83.5244 73.8717 83.5644 73.9119C83.6044 73.952 83.6269 74.0064 83.6269 74.0632C83.6269 74.12 83.6044 74.1744 83.5644 74.2145C83.5244 74.2547 83.4701 74.2773 83.4135 74.2773H70.2835C67.9491 74.2807 65.7113 75.2123 64.0606 76.8678C62.4099 78.5234 61.481 80.7679 61.4776 83.1092V134.744C61.481 137.085 62.41 139.329 64.0608 140.984C65.7116 142.639 67.9494 143.569 70.2835 143.572H169.739C172.073 143.569 174.31 142.639 175.961 140.984C177.611 139.328 178.539 137.084 178.541 134.744V83.1092C178.541 80.7668 177.614 78.5201 175.964 76.8626C174.314 75.205 172.075 74.2721 169.739 74.2687H162.436C162.379 74.2687 162.325 74.2461 162.285 74.206C162.245 74.1658 162.223 74.1114 162.223 74.0546C162.223 73.9979 162.245 73.9434 162.285 73.9033C162.325 73.8631 162.379 73.8406 162.436 73.8406H169.739C172.187 73.844 174.533 74.8208 176.263 76.5568C177.993 78.2928 178.966 80.6462 178.968 83.1007V134.735C178.967 137.191 177.994 139.545 176.264 141.282C174.534 143.019 172.187 143.996 169.739 144Z" fill="#E3E3E3"/>
        <path d="M170.117 88.6879H154.034C153.977 88.6879 153.923 88.6653 153.883 88.6252C153.843 88.585 153.82 88.5306 153.82 88.4738C153.82 88.4171 153.843 88.3626 153.883 88.3224C153.923 88.2823 153.977 88.2598 154.034 88.2598H170.117C170.174 88.2598 170.228 88.2823 170.268 88.3224C170.308 88.3626 170.331 88.4171 170.331 88.4738C170.331 88.5306 170.308 88.585 170.268 88.6252C170.228 88.6653 170.174 88.6879 170.117 88.6879Z" fill="#E3E3E3"/>
        <path d="M99.229 88.6879H66.5025C66.4459 88.6879 66.3916 88.6653 66.3516 88.6252C66.3116 88.585 66.2891 88.5306 66.2891 88.4738C66.2891 88.4171 66.3116 88.3626 66.3516 88.3224C66.3916 88.2823 66.4459 88.2598 66.5025 88.2598H99.229C99.2856 88.2598 99.3399 88.2823 99.3799 88.3224C99.4199 88.3626 99.4424 88.4171 99.4424 88.4738C99.4424 88.5306 99.4199 88.585 99.3799 88.6252C99.3399 88.6653 99.2856 88.6879 99.229 88.6879Z" fill="#E3E3E3"/>
        <path d="M70.2541 84.8503C71.4752 84.8503 72.4651 83.8574 72.4651 82.6327C72.4651 81.4079 71.4752 80.415 70.2541 80.415C69.0329 80.415 68.043 81.4079 68.043 82.6327C68.043 83.8574 69.0329 84.8503 70.2541 84.8503Z" fill="#1B1B1C"/>
        <path d="M77.2306 84.8503C78.4518 84.8503 79.4417 83.8574 79.4417 82.6327C79.4417 81.4079 78.4518 80.415 77.2306 80.415C76.0095 80.415 75.0195 81.4079 75.0195 82.6327C75.0195 83.8574 76.0095 84.8503 77.2306 84.8503Z" fill="#1B1B1C"/>
        <path d="M84.3947 84.8503C85.6158 84.8503 86.6058 83.8574 86.6058 82.6327C86.6058 81.4079 85.6158 80.415 84.3947 80.415C83.1735 80.415 82.1836 81.4079 82.1836 82.6327C82.1836 83.8574 83.1735 84.8503 84.3947 84.8503Z" fill="#1B1B1C"/>
        <path d="M70.2575 102.524C69.7121 102.524 69.179 102.362 68.7256 102.058C68.2721 101.754 67.9186 101.322 67.7099 100.817C67.5012 100.312 67.4466 99.7557 67.553 99.2192C67.6594 98.6827 67.922 98.19 68.3077 97.8032C68.6933 97.4164 69.1846 97.153 69.7195 97.0463C70.2544 96.9396 70.8089 96.9944 71.3127 97.2037C71.8166 97.413 72.2471 97.7675 72.5501 98.2223C72.8531 98.6771 73.0149 99.2118 73.0149 99.7588C73.0138 100.492 72.7229 101.195 72.206 101.713C71.6891 102.232 70.9884 102.523 70.2575 102.524ZM70.2575 97.4213C69.7965 97.4213 69.3458 97.5584 68.9625 97.8152C68.5793 98.072 68.2807 98.4371 68.1043 98.8643C67.9279 99.2914 67.8818 99.7614 67.9717 100.215C68.0616 100.668 68.2835 101.085 68.6095 101.412C68.9354 101.739 69.3506 101.961 69.8027 102.051C70.2548 102.142 70.7234 102.095 71.1493 101.918C71.5752 101.741 71.9391 101.442 72.1952 101.057C72.4513 100.673 72.5881 100.221 72.5881 99.7588C72.592 99.4491 72.5347 99.1417 72.4194 98.8544C72.3041 98.5671 72.1331 98.3056 71.9163 98.085C71.6996 97.8644 71.4414 97.6892 71.1566 97.5694C70.8719 97.4496 70.5663 97.3876 70.2575 97.387V97.4213Z" fill="#E3E3E3"/>
        <path d="M88.654 99.9554H75.5923C75.5357 99.9554 75.4815 99.9329 75.4414 99.8927C75.4014 99.8526 75.3789 99.7982 75.3789 99.7414C75.3789 99.6846 75.4014 99.6302 75.4414 99.5901C75.4815 99.5499 75.5357 99.5273 75.5923 99.5273H88.654C88.7106 99.5273 88.7648 99.5499 88.8049 99.5901C88.8449 99.6302 88.8674 99.6846 88.8674 99.7414C88.8674 99.7982 88.8449 99.8526 88.8049 99.8927C88.7648 99.9329 88.7106 99.9554 88.654 99.9554Z" fill="#E3E3E3"/>
        <path d="M70.2536 112.851C69.7081 112.851 69.1747 112.688 68.7211 112.384C68.2676 112.08 67.9143 111.648 67.7057 111.142C67.4971 110.637 67.4426 110.08 67.5494 109.544C67.6561 109.007 67.9192 108.514 68.3053 108.128C68.6914 107.741 69.183 107.478 69.7182 107.372C70.2534 107.266 70.808 107.321 71.3118 107.531C71.8156 107.741 72.2459 108.096 72.5484 108.552C72.8508 109.007 73.0119 109.542 73.0111 110.089C73.0099 110.822 72.719 111.524 72.202 112.042C71.685 112.56 70.9842 112.851 70.2536 112.851ZM70.2536 107.752C69.7927 107.752 69.342 107.889 68.9587 108.146C68.5754 108.403 68.2768 108.768 68.1004 109.195C67.924 109.622 67.8779 110.092 67.9679 110.545C68.0578 110.999 68.2797 111.415 68.6056 111.742C68.9316 112.069 69.3468 112.292 69.7989 112.382C70.251 112.472 70.7196 112.426 71.1455 112.249C71.5713 112.072 71.9353 111.772 72.1913 111.388C72.4474 111.003 72.5842 110.552 72.5842 110.089C72.5831 109.47 72.3372 108.876 71.9004 108.438C71.4636 108 70.8714 107.753 70.2536 107.752Z" fill="#E3E3E3"/>
        <path d="M99.8759 110.303H75.5923C75.5357 110.303 75.4815 110.281 75.4414 110.24C75.4014 110.2 75.3789 110.146 75.3789 110.089C75.3789 110.032 75.4014 109.978 75.4414 109.938C75.4815 109.898 75.5357 109.875 75.5923 109.875H99.8759C99.9325 109.875 99.9867 109.898 100.027 109.938C100.067 109.978 100.089 110.032 100.089 110.089C100.089 110.146 100.067 110.2 100.027 110.24C99.9867 110.281 99.9325 110.303 99.8759 110.303Z" fill="#E3E3E3"/>
        <path d="M70.2575 123.198C69.7121 123.198 69.179 123.036 68.7256 122.732C68.2721 122.428 67.9186 121.996 67.7099 121.491C67.5012 120.986 67.4466 120.43 67.553 119.893C67.6594 119.357 67.922 118.864 68.3077 118.477C68.6933 118.09 69.1846 117.827 69.7195 117.72C70.2544 117.613 70.8089 117.668 71.3127 117.877C71.8166 118.087 72.2471 118.441 72.5501 118.896C72.8531 119.351 73.0149 119.886 73.0149 120.433C73.0149 121.166 72.7244 121.87 72.2073 122.388C71.6901 122.907 70.9888 123.198 70.2575 123.198ZM70.2575 118.099C69.7963 118.099 69.3455 118.237 68.9621 118.494C68.5788 118.751 68.2801 119.116 68.1038 119.543C67.9276 119.971 67.8816 120.441 67.9719 120.895C68.0622 121.348 68.2846 121.765 68.6109 122.091C68.9373 122.418 69.353 122.64 69.8054 122.73C70.2578 122.82 70.7264 122.773 71.1522 122.595C71.578 122.418 71.9417 122.117 72.1973 121.732C72.4528 121.347 72.5889 120.895 72.5881 120.433C72.5869 119.813 72.341 119.22 71.904 118.783C71.4671 118.345 70.8748 118.099 70.2575 118.099Z" fill="#E3E3E3"/>
        <path d="M88.654 120.647H75.5923C75.5357 120.647 75.4815 120.624 75.4414 120.584C75.4014 120.544 75.3789 120.49 75.3789 120.433C75.3789 120.376 75.4014 120.322 75.4414 120.281C75.4815 120.241 75.5357 120.219 75.5923 120.219H88.654C88.7102 120.22 88.7638 120.243 88.8036 120.283C88.8434 120.323 88.8663 120.376 88.8674 120.433C88.8674 120.49 88.8449 120.544 88.8049 120.584C88.7648 120.624 88.7106 120.647 88.654 120.647Z" fill="#E3E3E3"/>
        <path d="M162.638 129.923H148.479C148.422 129.923 148.368 129.901 148.328 129.861C148.288 129.821 148.266 129.766 148.266 129.709C148.266 129.653 148.288 129.598 148.328 129.558C148.368 129.518 148.422 129.495 148.479 129.495H162.638C162.694 129.495 162.749 129.518 162.789 129.558C162.829 129.598 162.851 129.653 162.851 129.709C162.851 129.766 162.829 129.821 162.789 129.861C162.749 129.901 162.694 129.923 162.638 129.923Z" fill="#E3E3E3"/>
        <path d="M70.2575 133.545C69.7121 133.545 69.179 133.383 68.7256 133.079C68.2721 132.775 67.9186 132.343 67.7099 131.838C67.5012 131.332 67.4466 130.776 67.553 130.24C67.6594 129.703 67.922 129.21 68.3077 128.824C68.6933 128.437 69.1846 128.174 69.7195 128.067C70.2544 127.96 70.8089 128.015 71.3127 128.224C71.8166 128.433 72.2471 128.788 72.5501 129.243C72.8531 129.698 73.0149 130.232 73.0149 130.779C73.0149 131.513 72.7244 132.216 72.2073 132.735C71.6901 133.253 70.9888 133.545 70.2575 133.545ZM70.2575 128.446C69.7963 128.446 69.3455 128.583 68.9621 128.84C68.5788 129.097 68.2801 129.463 68.1038 129.89C67.9276 130.317 67.8816 130.788 67.9719 131.241C68.0622 131.695 68.2846 132.111 68.6109 132.438C68.9373 132.765 69.353 132.987 69.8054 133.077C70.2578 133.166 70.7264 133.119 71.1522 132.942C71.578 132.764 71.9417 132.464 72.1973 132.079C72.4528 131.694 72.5889 131.242 72.5881 130.779C72.5869 130.16 72.341 129.567 71.904 129.129C71.4671 128.692 70.8748 128.446 70.2575 128.446Z" fill="#E3E3E3"/>
        <path d="M96.5336 130.994H75.5923C75.5357 130.994 75.4815 130.971 75.4414 130.931C75.4014 130.891 75.3789 130.836 75.3789 130.779C75.3789 130.723 75.4014 130.668 75.4414 130.628C75.4815 130.588 75.5357 130.565 75.5923 130.565H96.5336C96.5902 130.565 96.6445 130.588 96.6845 130.628C96.7245 130.668 96.747 130.723 96.747 130.779C96.747 130.836 96.7245 130.891 96.6845 130.931C96.6445 130.971 96.5902 130.994 96.5336 130.994Z" fill="#E3E3E3"/>
        <path d="M168.562 100.105H150.297C148.515 100.105 147.07 101.555 147.07 103.342V116.785C147.07 118.572 148.515 120.021 150.297 120.021H168.562C170.344 120.021 171.789 118.572 171.789 116.785V103.342C171.789 101.555 170.344 100.105 168.562 100.105Z" fill="#71A5D2"/>
        <path d="M166.543 119.062H146.741C145.829 119.061 144.955 118.697 144.31 118.051C143.665 117.404 143.302 116.527 143.301 115.612V101.056C143.302 100.141 143.665 99.2642 144.31 98.6174C144.955 97.9705 145.829 97.6066 146.741 97.6055H166.543C167.455 97.6066 168.329 97.9705 168.974 98.6174C169.619 99.2642 169.982 100.141 169.983 101.056V115.612C169.982 116.527 169.619 117.404 168.974 118.051C168.329 118.697 167.455 119.061 166.543 119.062ZM146.741 98.0422C145.942 98.0433 145.176 98.3621 144.612 98.9286C144.047 99.4952 143.729 100.263 143.728 101.065V115.62C143.729 116.422 144.047 117.19 144.612 117.756C145.176 118.323 145.942 118.642 146.741 118.643H166.543C167.342 118.642 168.108 118.323 168.672 117.756C169.237 117.19 169.555 116.422 169.556 115.62V101.065C169.555 100.263 169.237 99.4952 168.672 98.9286C168.108 98.3621 167.342 98.0433 166.543 98.0422H146.741Z" fill="#E3E3E3"/>
        <path d="M166.892 132.869H144.222C143.382 132.869 142.576 132.534 141.982 131.938C141.388 131.343 141.055 130.535 141.055 129.692C141.055 128.85 141.388 128.042 141.982 127.446C142.576 126.85 143.382 126.516 144.222 126.516H166.892C167.732 126.516 168.537 126.85 169.131 127.446C169.725 128.042 170.059 128.85 170.059 129.692C170.059 130.535 169.725 131.343 169.131 131.938C168.537 132.534 167.732 132.869 166.892 132.869ZM144.222 126.927C143.495 126.927 142.798 127.216 142.284 127.732C141.77 128.247 141.482 128.946 141.482 129.675C141.482 130.404 141.77 131.103 142.284 131.619C142.798 132.134 143.495 132.424 144.222 132.424H166.892C167.619 132.424 168.316 132.134 168.83 131.619C169.343 131.103 169.632 130.404 169.632 129.675C169.632 128.946 169.343 128.247 168.83 127.732C168.316 127.216 167.619 126.927 166.892 126.927H144.222Z" fill="#E3E3E3"/>
        <path d="M136.669 127.855H116.18C114.549 127.855 113.227 129.182 113.227 130.818V130.822C113.227 132.458 114.549 133.785 116.18 133.785H136.669C138.3 133.785 139.623 132.458 139.623 130.822V130.818C139.623 129.182 138.3 127.855 136.669 127.855Z" fill="#CE7783"/>
        <path d="M130.466 129.923H116.307C116.251 129.923 116.196 129.901 116.156 129.861C116.116 129.821 116.094 129.766 116.094 129.709C116.094 129.653 116.116 129.598 116.156 129.558C116.196 129.518 116.251 129.495 116.307 129.495H130.466C130.522 129.495 130.577 129.518 130.617 129.558C130.657 129.598 130.679 129.653 130.679 129.709C130.679 129.766 130.657 129.821 130.617 129.861C130.577 129.901 130.522 129.923 130.466 129.923Z" fill="#E3E3E3"/>
        <path d="M134.724 132.869H112.054C111.214 132.869 110.408 132.534 109.814 131.938C109.22 131.343 108.887 130.535 108.887 129.692C108.887 128.85 109.22 128.042 109.814 127.446C110.408 126.85 111.214 126.516 112.054 126.516H134.724C135.564 126.516 136.37 126.85 136.964 127.446C137.558 128.042 137.891 128.85 137.891 129.692C137.891 130.535 137.558 131.343 136.964 131.938C136.37 132.534 135.564 132.869 134.724 132.869ZM112.054 126.927C111.327 126.927 110.63 127.216 110.116 127.732C109.602 128.247 109.314 128.946 109.314 129.675C109.314 130.404 109.602 131.103 110.116 131.619C110.63 132.134 111.327 132.424 112.054 132.424H134.724C135.451 132.424 136.148 132.134 136.662 131.619C137.175 131.103 137.464 130.404 137.464 129.675C137.464 128.946 137.175 128.247 136.662 127.732C136.148 127.216 135.451 126.927 134.724 126.927H112.054Z" fill="#E3E3E3"/>
        <path d="M144.474 118.412C144.442 118.411 144.41 118.404 144.381 118.39C144.353 118.376 144.327 118.356 144.307 118.331C144.289 118.309 144.275 118.284 144.267 118.257C144.259 118.23 144.256 118.202 144.259 118.174C144.262 118.146 144.27 118.119 144.283 118.095C144.297 118.07 144.315 118.048 144.337 118.031L168.748 98.3719C168.793 98.3361 168.849 98.3194 168.906 98.3254C168.962 98.3314 169.014 98.3597 169.049 98.404C169.085 98.4483 169.102 98.5049 169.096 98.5615C169.09 98.6181 169.062 98.67 169.018 98.7058L144.606 118.365C144.568 118.395 144.522 118.411 144.474 118.412Z" fill="#E3E3E3"/>
        <path d="M168.815 118.412C168.767 118.411 168.72 118.394 168.683 118.365L144.271 98.7055C144.249 98.6878 144.231 98.666 144.217 98.6413C144.204 98.6165 144.196 98.5893 144.193 98.5613C144.19 98.5333 144.192 98.5049 144.2 98.4779C144.208 98.4509 144.221 98.4257 144.239 98.4037C144.257 98.3818 144.278 98.3636 144.303 98.3501C144.328 98.3366 144.355 98.3282 144.383 98.3252C144.411 98.3222 144.439 98.3247 144.466 98.3327C144.493 98.3407 144.518 98.3539 144.54 98.3716L168.947 118.031C168.969 118.048 168.988 118.069 169.002 118.094C169.016 118.118 169.024 118.145 169.028 118.173C169.031 118.201 169.028 118.229 169.02 118.256C169.012 118.283 168.999 118.309 168.981 118.33C168.961 118.355 168.936 118.376 168.907 118.39C168.878 118.404 168.847 118.411 168.815 118.412Z" fill="#E3E3E3"/>
        <path d="M135.644 100.105H117.379C115.597 100.105 114.152 101.555 114.152 103.342V116.785C114.152 118.572 115.597 120.021 117.379 120.021H135.644C137.426 120.021 138.871 118.572 138.871 116.785V103.342C138.871 101.555 137.426 100.105 135.644 100.105Z" fill="#71A5D2"/>
        <path d="M133.625 119.062H113.819C112.907 119.061 112.033 118.697 111.388 118.05C110.743 117.403 110.38 116.526 110.379 115.612V101.056C110.38 100.141 110.743 99.264 111.388 98.6171C112.033 97.9703 112.907 97.6064 113.819 97.6052H133.625C134.537 97.6064 135.412 97.9703 136.057 98.6171C136.702 99.264 137.064 100.141 137.066 101.056V115.612C137.064 116.526 136.702 117.403 136.057 118.05C135.412 118.697 134.537 119.061 133.625 119.062ZM113.819 98.0419C113.02 98.043 112.255 98.3618 111.69 98.9284C111.125 99.495 110.807 100.263 110.806 101.064V115.62C110.807 116.421 111.125 117.19 111.69 117.756C112.255 118.323 113.02 118.642 113.819 118.643H133.625C134.424 118.642 135.19 118.323 135.755 117.756C136.32 117.19 136.638 116.421 136.639 115.62V101.064C136.638 100.263 136.32 99.495 135.755 98.9284C135.19 98.3618 134.424 98.043 133.625 98.0419H113.819Z" fill="#E3E3E3"/>
        <path d="M111.552 118.412C111.508 118.412 111.464 118.399 111.428 118.374C111.391 118.348 111.364 118.312 111.349 118.27C111.333 118.228 111.332 118.183 111.344 118.14C111.356 118.097 111.381 118.059 111.416 118.031L135.849 98.3719C135.87 98.3515 135.896 98.3358 135.923 98.3259C135.951 98.3159 135.981 98.3119 136.01 98.314C136.04 98.3161 136.069 98.3243 136.095 98.3382C136.121 98.352 136.144 98.3711 136.162 98.3943C136.181 98.4176 136.194 98.4443 136.201 98.4729C136.209 98.5016 136.21 98.5316 136.206 98.5608C136.201 98.5901 136.191 98.6181 136.175 98.6431C136.159 98.668 136.138 98.6894 136.113 98.7058L111.685 118.365C111.647 118.395 111.6 118.411 111.552 118.412Z" fill="#E3E3E3"/>
        <path d="M135.897 118.412C135.848 118.411 135.8 118.394 135.76 118.365L111.353 98.7058C111.331 98.6881 111.313 98.6662 111.3 98.6415C111.286 98.6167 111.278 98.5896 111.275 98.5615C111.272 98.5335 111.274 98.5052 111.282 98.4781C111.29 98.4511 111.303 98.4259 111.321 98.404C111.339 98.382 111.36 98.3638 111.385 98.3504C111.41 98.3369 111.437 98.3284 111.465 98.3254C111.493 98.3224 111.521 98.325 111.548 98.333C111.575 98.3409 111.6 98.3542 111.622 98.3719L136.029 118.031C136.051 118.048 136.07 118.069 136.084 118.094C136.098 118.118 136.106 118.145 136.11 118.173C136.113 118.201 136.11 118.23 136.102 118.257C136.094 118.284 136.081 118.309 136.063 118.331C136.043 118.355 136.018 118.375 135.989 118.389C135.96 118.403 135.929 118.411 135.897 118.412Z" fill="#E3E3E3"/>
        <path d="M91.06 40.5852C93.2807 40.5852 95.0809 36.5677 95.0809 31.6119C95.0809 26.6561 93.2807 22.6387 91.06 22.6387C88.8393 22.6387 87.0391 26.6561 87.0391 31.6119C87.0391 36.5677 88.8393 40.5852 91.06 40.5852Z" fill="#71A5D2"/>
        <path d="M92.3092 40.5252C91.9506 40.5201 91.5949 40.4594 91.2548 40.3453C88.3309 39.4121 87.3492 34.5144 87.6778 30.0706C87.9467 26.4488 89.1675 22.6429 91.2889 22.3004C91.6981 22.2138 92.1218 22.2248 92.5259 22.3326C92.93 22.4405 93.3032 22.6421 93.6154 22.9212C95.4508 24.5608 95.2759 28.6579 95.2673 28.8334C95.2668 28.8615 95.2606 28.8892 95.249 28.9149C95.2374 28.9405 95.2206 28.9634 95.1998 28.9823C95.179 29.0011 95.1545 29.0155 95.1279 29.0245C95.1013 29.0335 95.0733 29.0369 95.0453 29.0346C95.0175 29.0335 94.9901 29.0268 94.9649 29.015C94.9396 29.0031 94.9169 28.9864 94.8982 28.9657C94.8795 28.9449 94.8651 28.9206 94.8559 28.8942C94.8467 28.8678 94.8429 28.8399 94.8446 28.812C94.8446 28.7734 95.0154 24.7449 93.3336 23.2465C93.0665 23.0128 92.749 22.8444 92.4061 22.7545C92.0632 22.6646 91.7042 22.6557 91.3573 22.7285C89.7438 22.9896 88.4077 26.025 88.1047 30.1092C87.8016 34.1933 88.6937 39.0995 91.3871 39.9557C91.718 40.0931 92.0776 40.147 92.434 40.1126C92.7905 40.0783 93.133 39.9568 93.4317 39.7588C94.8403 38.7185 94.8446 35.7817 94.8446 35.756C94.8441 35.7279 94.849 35.6999 94.8592 35.6737C94.8694 35.6475 94.8846 35.6236 94.904 35.6033C94.9235 35.5831 94.9467 35.5668 94.9724 35.5556C94.9981 35.5443 95.0259 35.5382 95.0539 35.5376C95.0823 35.5371 95.1105 35.5422 95.1368 35.5527C95.1632 35.5632 95.1872 35.5789 95.2075 35.5988C95.2278 35.6187 95.2438 35.6425 95.2548 35.6688C95.2658 35.695 95.2715 35.7232 95.2715 35.7517C95.2715 35.8801 95.2716 38.9368 93.6837 40.1013C93.2841 40.3896 92.8012 40.5385 92.3092 40.5252Z" fill="#E3E3E3"/>
        <path d="M111.09 49.5498C99.6973 49.5498 93.7939 39.7503 93.7341 39.6433C93.7195 39.6195 93.7099 39.593 93.7056 39.5653C93.7013 39.5377 93.7026 39.5095 93.7093 39.4824C93.7161 39.4553 93.7283 39.4298 93.745 39.4074C93.7617 39.3851 93.7826 39.3662 93.8067 39.3521C93.8556 39.3234 93.9138 39.315 93.9688 39.3286C94.0238 39.3422 94.0714 39.3768 94.1014 39.4249C94.1697 39.5405 100.986 50.847 114.082 48.8991C114.11 48.8948 114.139 48.8962 114.166 48.9031C114.194 48.9099 114.22 48.9221 114.243 48.939C114.265 48.9559 114.284 48.9772 114.299 49.0015C114.314 49.0259 114.323 49.0529 114.328 49.081C114.332 49.1091 114.33 49.1378 114.324 49.1654C114.317 49.193 114.305 49.2189 114.288 49.2418C114.271 49.2646 114.25 49.2839 114.225 49.2986C114.201 49.3132 114.174 49.323 114.146 49.3272C113.134 49.4771 112.113 49.5515 111.09 49.5498Z" fill="#E3E3E3"/>
        <path d="M116.214 50.8128C115.77 50.8136 115.335 50.6822 114.965 50.4351C114.595 50.188 114.307 49.8363 114.137 49.4247C113.966 49.013 113.921 48.5599 114.008 48.1227C114.094 47.6854 114.308 47.2838 114.622 46.9686C114.937 46.6534 115.337 46.4389 115.773 46.3522C116.209 46.2654 116.661 46.3103 117.071 46.4813C117.482 46.6523 117.832 46.9416 118.079 47.3125C118.325 47.6835 118.456 48.1195 118.455 48.5652C118.454 49.161 118.218 49.732 117.798 50.1533C117.378 50.5745 116.808 50.8117 116.214 50.8128ZM116.214 46.7414C115.855 46.7406 115.502 46.8469 115.203 47.0467C114.903 47.2466 114.67 47.5312 114.531 47.8643C114.393 48.1975 114.356 48.5643 114.426 48.9184C114.496 49.2724 114.669 49.5978 114.923 49.8533C115.177 50.1088 115.501 50.2829 115.854 50.3536C116.207 50.4244 116.572 50.3885 116.905 50.2506C117.237 50.1127 117.522 49.8789 117.722 49.5789C117.922 49.2789 118.028 48.9261 118.028 48.5652C118.028 48.0823 117.837 47.6191 117.497 47.2772C117.157 46.9353 116.696 46.7426 116.214 46.7414Z" fill="#E3E3E3"/>
        <path d="M92.3574 22.7027H92.3105C92.2538 22.6932 92.203 22.662 92.1687 22.6157C92.1345 22.5694 92.1194 22.5115 92.1268 22.4544C92.1738 22.0776 95.6442 17.5825 101.458 15.0395C106.094 13.0102 113.346 11.8458 121.567 17.8308C121.611 17.8641 121.641 17.9137 121.65 17.9689C121.659 18.0241 121.646 18.0805 121.614 18.1262C121.598 18.1495 121.577 18.1692 121.553 18.1843C121.529 18.1993 121.502 18.2094 121.474 18.2138C121.446 18.2182 121.418 18.2168 121.39 18.2099C121.363 18.2029 121.337 18.1905 121.315 18.1732C115.595 14.012 109.709 12.8133 103.814 14.6157C96.8949 16.7348 92.6817 22.1376 92.5366 22.5272C92.531 22.5725 92.5104 22.6145 92.4778 22.6464C92.4453 22.6783 92.4027 22.6982 92.3574 22.7027Z" fill="#E3E3E3"/>
        <path d="M124.572 42.4991C124.515 42.4983 124.462 42.4752 124.422 42.4349C124.402 42.4153 124.386 42.392 124.376 42.3663C124.365 42.3406 124.359 42.313 124.359 42.285C124.359 42.2571 124.365 42.2295 124.376 42.2038C124.386 42.1781 124.402 42.1547 124.422 42.1352C128.524 37.9011 126.65 33.1876 126.633 33.1448C126.622 33.119 126.616 33.0912 126.616 33.0631C126.616 33.035 126.621 33.0072 126.632 32.9812C126.643 32.9553 126.659 32.9317 126.679 32.912C126.699 32.8923 126.722 32.8769 126.749 32.8666C126.774 32.8554 126.802 32.8496 126.83 32.8494C126.858 32.8492 126.886 32.8546 126.912 32.8654C126.937 32.8762 126.961 32.8921 126.98 32.9121C127 32.9322 127.016 32.956 127.026 32.9822C127.047 33.0293 129.032 37.9953 124.73 42.4349C124.709 42.4555 124.684 42.4718 124.657 42.4828C124.63 42.4938 124.601 42.4994 124.572 42.4991Z" fill="#E3E3E3"/>
        <path d="M175.429 36.1664H141.217C141.161 36.1664 141.106 36.1438 141.066 36.1037C141.026 36.0635 141.004 36.0091 141.004 35.9523C141.004 35.8956 141.026 35.8411 141.066 35.801C141.106 35.7608 141.161 35.7383 141.217 35.7383H175.429C175.486 35.7383 175.54 35.7608 175.58 35.801C175.62 35.8411 175.643 35.8956 175.643 35.9523C175.643 36.0091 175.62 36.0635 175.58 36.1037C175.54 36.1438 175.486 36.1664 175.429 36.1664Z" fill="#E3E3E3"/>
        <path d="M167.243 51.5023H141.206C141.149 51.5023 141.095 51.4798 141.055 51.4397C141.015 51.3995 140.992 51.3451 140.992 51.2883C140.992 51.2315 141.015 51.1771 141.055 51.1369C141.095 51.0968 141.149 51.0742 141.206 51.0742H167.243C167.3 51.0742 167.354 51.0968 167.394 51.1369C167.434 51.1771 167.457 51.2315 167.457 51.2883C167.457 51.3451 167.434 51.3995 167.394 51.4397C167.354 51.4798 167.3 51.5023 167.243 51.5023Z" fill="#E3E3E3"/>
        <path d="M185.732 51.5023H169.635C169.579 51.5012 169.525 51.4784 169.486 51.4385C169.446 51.3986 169.423 51.3447 169.422 51.2883C169.422 51.2315 169.444 51.1771 169.484 51.1369C169.524 51.0968 169.579 51.0742 169.635 51.0742H185.732C185.788 51.0742 185.843 51.0968 185.883 51.1369C185.923 51.1771 185.945 51.2315 185.945 51.2883C185.945 51.3451 185.923 51.3995 185.883 51.4397C185.843 51.4798 185.788 51.5023 185.732 51.5023Z" fill="#E3E3E3"/>
        <path d="M163.529 41.2699H141.217C141.161 41.2699 141.106 41.2473 141.066 41.2072C141.026 41.1671 141.004 41.1126 141.004 41.0559C141.004 40.9991 141.026 40.9446 141.066 40.9045C141.106 40.8643 141.161 40.8418 141.217 40.8418H163.529C163.585 40.8418 163.64 40.8643 163.68 40.9045C163.72 40.9446 163.742 40.9991 163.742 41.0559C163.742 41.1126 163.72 41.1671 163.68 41.2072C163.64 41.2473 163.585 41.2699 163.529 41.2699Z" fill="#E3E3E3"/>
        <path d="M157.685 46.3861H141.217C141.161 46.3861 141.106 46.3636 141.066 46.3234C141.026 46.2833 141.004 46.2288 141.004 46.1721C141.004 46.1153 141.026 46.0609 141.066 46.0207C141.106 45.9806 141.161 45.958 141.217 45.958H157.685C157.742 45.958 157.796 45.9806 157.836 46.0207C157.876 46.0609 157.899 46.1153 157.899 46.1721C157.899 46.2288 157.876 46.2833 157.836 46.3234C157.796 46.3636 157.742 46.3861 157.685 46.3861Z" fill="#E3E3E3"/>
        <path d="M177.869 46.3861H161.401C161.345 46.385 161.291 46.3621 161.251 46.3222C161.211 46.2823 161.189 46.2285 161.188 46.1721C161.188 46.1153 161.21 46.0609 161.25 46.0207C161.29 45.9806 161.344 45.958 161.401 45.958H177.869C177.925 45.958 177.98 45.9806 178.02 46.0207C178.06 46.0609 178.082 46.1153 178.082 46.1721C178.082 46.2288 178.06 46.2833 178.02 46.3234C177.98 46.3636 177.925 46.3861 177.869 46.3861Z" fill="#E3E3E3"/>
        <path d="M188.389 46.3861H180.155C180.098 46.3861 180.044 46.3636 180.004 46.3234C179.964 46.2833 179.941 46.2288 179.941 46.1721C179.941 46.1153 179.964 46.0609 180.004 46.0207C180.044 45.9806 180.098 45.958 180.155 45.958H188.389C188.445 45.958 188.5 45.9806 188.54 46.0207C188.58 46.0609 188.602 46.1153 188.602 46.1721C188.601 46.2285 188.578 46.2823 188.539 46.3222C188.499 46.3621 188.445 46.385 188.389 46.3861Z" fill="#E3E3E3"/>
        <path d="M184.139 41.2699H167.245C167.188 41.2699 167.134 41.2473 167.094 41.2072C167.054 41.1671 167.031 41.1126 167.031 41.0559C167.031 40.9991 167.054 40.9446 167.094 40.9045C167.134 40.8643 167.188 40.8418 167.245 40.8418H184.139C184.196 40.8418 184.25 40.8643 184.29 40.9045C184.33 40.9446 184.353 40.9991 184.353 41.0559C184.353 41.1126 184.33 41.1671 184.29 41.2072C184.25 41.2473 184.196 41.2699 184.139 41.2699Z" fill="#E3E3E3"/>
        <path d="M188.392 36.1664H179.889C179.833 36.1664 179.778 36.1438 179.738 36.1037C179.698 36.0635 179.676 36.0091 179.676 35.9523C179.677 35.8959 179.7 35.8421 179.74 35.8022C179.779 35.7623 179.833 35.7394 179.889 35.7383H188.392C188.448 35.7394 188.502 35.7623 188.542 35.8022C188.582 35.8421 188.604 35.8959 188.605 35.9523C188.605 36.0091 188.583 36.0635 188.543 36.1037C188.503 36.1438 188.449 36.1664 188.392 36.1664Z" fill="#E3E3E3"/>
        <path d="M107.944 70.4541C107.801 70.4532 107.658 70.4418 107.517 70.4199L92.9143 68.1167C92.5603 68.0658 92.2213 67.9388 91.9207 67.7445C91.6201 67.5502 91.3651 67.2931 91.1727 66.9907C91.009 66.7311 90.9039 66.4386 90.8648 66.1339C90.8258 65.8292 90.8535 65.5197 90.9463 65.2269L93.4136 57.4053C93.4219 57.3782 93.4354 57.353 93.4534 57.3312C93.4715 57.3094 93.4937 57.2915 93.5187 57.2783C93.5437 57.2652 93.571 57.2572 93.5991 57.2547C93.6273 57.2523 93.6556 57.2554 93.6825 57.264C93.7095 57.2722 93.7345 57.2858 93.7561 57.304C93.7777 57.3222 93.7954 57.3445 93.8082 57.3697C93.8209 57.3949 93.8284 57.4224 93.8303 57.4506C93.8322 57.4788 93.8283 57.5071 93.819 57.5337L91.3519 65.3554C91.2777 65.5893 91.2556 65.8367 91.2873 66.0801C91.319 66.3235 91.4038 66.5569 91.5355 66.7638C91.6957 67.0141 91.9079 67.2267 92.1577 67.3871C92.4074 67.5474 92.6887 67.6517 92.9824 67.6928L107.585 69.9961C107.89 70.0484 108.203 70.035 108.502 69.9567C108.802 69.8785 109.081 69.7372 109.322 69.5423C109.519 69.3882 109.681 69.1941 109.797 68.9727C109.913 68.7513 109.981 68.5077 109.997 68.2579L110.513 57.4695C110.513 57.4412 110.519 57.4131 110.53 57.3872C110.542 57.3613 110.558 57.3381 110.579 57.3191C110.6 57.3001 110.625 57.2857 110.652 57.277C110.679 57.2682 110.707 57.2653 110.735 57.2683C110.763 57.2694 110.791 57.276 110.816 57.2878C110.842 57.2996 110.865 57.3163 110.884 57.337C110.903 57.3576 110.918 57.3819 110.927 57.4083C110.937 57.4347 110.941 57.4628 110.94 57.4909L110.424 68.2794C110.405 68.5933 110.318 68.8995 110.171 69.1772C110.024 69.4549 109.819 69.6977 109.57 69.8891C109.106 70.2548 108.534 70.4538 107.944 70.4541Z" fill="#E3E3E3"/>
        <path d="M135.371 80.2974C134.341 80.2272 133.308 80.4018 132.358 80.8068C132.158 81.0402 132.018 81.3197 131.952 81.6203C131.077 84.1889 129.66 91.7622 129.66 91.7622C129.805 94.1254 132.614 94.5963 134.099 95.063C135.585 95.5296 139.315 95.8678 140.353 94.9346C141.39 94.0013 143.341 85.6359 143.255 83.8935C143.258 83.8422 143.258 83.7907 143.255 83.7394C143.085 82.7162 141.591 81.9542 139.806 81.2906C138.393 80.7171 136.894 80.3814 135.371 80.2974Z" fill="#252525"/>
        <path d="M138.594 95.1694C137.255 95.1726 135.922 94.9999 134.628 94.6557L133.988 94.4716C132.323 94.0007 129.809 93.2901 129.664 90.8841V90.8584V90.8326C129.724 90.4944 131.214 82.5487 132.157 79.8002C132.413 79.0382 132.584 78.8712 132.695 78.8027C133.228 78.5073 134.543 78.2247 136.063 78.2205C136.119 78.2205 136.174 78.243 136.214 78.2832C136.254 78.3233 136.276 78.3777 136.276 78.4345C136.276 78.4913 136.254 78.5457 136.214 78.5859C136.174 78.626 136.119 78.6486 136.063 78.6486C136.063 78.6486 136.033 78.6486 136.02 78.6486C134.955 78.6116 133.894 78.7907 132.9 79.1751C132.738 79.4063 132.622 79.6665 132.558 79.9415C131.653 82.5829 130.185 90.3703 130.087 90.8841C130.232 92.9647 132.464 93.5983 134.099 94.0606C134.334 94.1248 134.552 94.1848 134.752 94.249C136.396 94.7628 140.301 95.0752 141.326 94.1591C142.286 93.3029 144.489 84.3125 144.403 82.3475C144.408 82.3019 144.408 82.256 144.403 82.2105C144.22 81.1231 142.38 80.3054 140.796 79.7146C140.75 79.6906 140.713 79.6503 140.694 79.6012C140.675 79.5522 140.675 79.4978 140.694 79.4486C140.712 79.3993 140.748 79.3586 140.795 79.3343C140.841 79.3099 140.895 79.3036 140.946 79.3165C142.743 79.9843 144.608 80.8405 144.826 82.1334C144.826 82.1848 144.826 82.2533 144.826 82.326C144.907 84.2568 142.764 93.457 141.608 94.4759C141.044 94.9896 139.857 95.1694 138.594 95.1694Z" fill="#E3E3E3"/>
        <path d="M141.871 83.1054C140.512 83.086 139.16 82.9108 137.842 82.5831C136.288 82.2283 134.793 81.6516 133.402 80.8707C132.975 80.6318 132.577 80.3445 132.216 80.0144L132.113 79.9202L132.16 79.7875C132.416 79.0255 132.587 78.8585 132.698 78.79C133.232 78.4946 134.546 78.212 136.066 78.2078C136.122 78.2078 136.177 78.2303 136.217 78.2705C136.257 78.3106 136.279 78.365 136.279 78.4218C136.279 78.4786 136.257 78.5331 136.217 78.5732C136.177 78.6134 136.122 78.6359 136.066 78.6359C136.066 78.6359 136.036 78.6359 136.023 78.6359C134.958 78.5989 133.897 78.7781 132.903 79.1625C132.765 79.3528 132.665 79.5679 132.608 79.7961C132.92 80.0667 133.258 80.3061 133.616 80.511C134.972 81.2621 136.428 81.8157 137.94 82.155C139.473 82.5469 141.055 82.7085 142.635 82.6345C143.24 82.6135 143.835 82.4678 144.381 82.2064C144.197 81.119 142.358 80.3012 140.774 79.7104C140.727 79.6865 140.691 79.6462 140.672 79.5971C140.653 79.548 140.653 79.4937 140.672 79.4444C140.69 79.3952 140.726 79.3545 140.772 79.3301C140.819 79.3058 140.873 79.2994 140.924 79.3123C142.721 79.9802 144.586 80.8364 144.803 82.1293C144.803 82.1807 144.803 82.2492 144.803 82.322V82.4418L144.705 82.5103C144.076 82.8641 143.369 83.0567 142.648 83.0712C142.426 83.0926 142.153 83.1054 141.871 83.1054Z" fill="#E3E3E3"/>
        <path d="M139.41 79.2182H139.342L139.039 79.1154C138.643 78.983 138.238 78.8814 137.826 78.8115C137.771 78.8011 137.722 78.7691 137.69 78.7226C137.658 78.6761 137.646 78.6188 137.656 78.5632C137.666 78.5074 137.698 78.4578 137.744 78.425C137.79 78.3923 137.847 78.3789 137.903 78.3876C138.337 78.4649 138.765 78.5722 139.184 78.7087L139.487 78.8115C139.544 78.8206 139.594 78.8518 139.628 78.8984C139.661 78.9449 139.675 79.003 139.666 79.0598C139.657 79.1165 139.626 79.1674 139.579 79.2011C139.533 79.2348 139.475 79.2487 139.419 79.2396L139.41 79.2182Z" fill="#E3E3E3"/>
        <path d="M142.677 82.039C142.733 82.0901 142.772 82.1561 142.791 82.2291C142.81 82.3021 142.808 82.3791 142.784 82.4508C142.761 82.5225 142.717 82.5859 142.659 82.6336C142.601 82.6812 142.53 82.7111 142.455 82.7196C141.046 82.8092 139.632 82.6513 138.276 82.253C136.692 81.8386 135.206 81.1108 133.906 80.1125C133.901 80.0783 133.901 80.0438 133.906 80.0097C134.093 79.2006 136.321 79.222 138.883 80.0568C140.268 80.4548 141.558 81.129 142.677 82.039Z" fill="#EAB669"/>
        <path d="M141.874 83.1051C140.516 83.0857 139.164 82.9105 137.845 82.5828C136.291 82.228 134.796 81.6513 133.406 80.8704L133.312 80.8147V80.7077C133.302 80.6567 133.302 80.6045 133.312 80.5536C133.568 79.6117 136.791 80.2196 138.455 80.6734C140.654 81.2685 142.421 82.0904 142.848 82.7198L143.057 83.0237L142.685 83.0537C142.429 83.0922 142.156 83.1051 141.874 83.1051ZM133.794 80.622C135.102 81.3201 136.498 81.8398 137.943 82.1675C139.323 82.5103 140.739 82.68 142.16 82.6727C140.978 81.9526 139.69 81.4239 138.344 81.1058C135.736 80.3994 134.144 80.4379 133.794 80.622Z" fill="#E3E3E3"/>
        <path d="M131.657 82.6344H131.623C131.567 82.6249 131.516 82.5935 131.483 82.547C131.449 82.5006 131.435 82.4427 131.444 82.386C131.444 82.3304 131.645 80.9176 129.89 80.5323C129.863 80.5262 129.837 80.5148 129.813 80.4986C129.79 80.4823 129.771 80.4617 129.756 80.4378C129.741 80.4139 129.73 80.3873 129.726 80.3594C129.721 80.3315 129.722 80.303 129.728 80.2755C129.742 80.2208 129.777 80.1736 129.824 80.1434C129.872 80.1132 129.929 80.1023 129.984 80.1128C132.118 80.588 131.871 82.4374 131.866 82.4545C131.859 82.5048 131.834 82.5508 131.796 82.5839C131.757 82.6169 131.708 82.6349 131.657 82.6344Z" fill="#E3E3E3"/>
        <path d="M127.71 91.3935C127.197 91.3923 126.688 91.3084 126.203 91.1452C126.146 91.1271 126.099 91.0871 126.072 91.0341C126.045 90.9811 126.039 90.9194 126.058 90.8627C126.076 90.8059 126.116 90.7587 126.168 90.7314C126.221 90.7041 126.283 90.699 126.339 90.7171C126.911 90.9125 127.518 90.9815 128.118 90.9194C128.719 90.8573 129.298 90.6656 129.818 90.3575C129.841 90.3414 129.867 90.33 129.894 90.3241C129.921 90.3181 129.95 90.3178 129.977 90.323C130.005 90.3282 130.031 90.3388 130.054 90.3543C130.077 90.3698 130.097 90.3898 130.113 90.4131C130.144 90.4593 130.157 90.5161 130.147 90.5713C130.138 90.6266 130.107 90.6759 130.061 90.7086C129.358 91.1555 128.542 91.393 127.71 91.3935Z" fill="#E3E3E3"/>
        <path d="M137.806 79.7958C137.776 79.7968 137.747 79.7912 137.719 79.7794C137.692 79.7675 137.668 79.7497 137.648 79.7273C137.627 79.7016 135.621 77.3683 137.648 75.3262C138.156 74.8328 138.472 74.175 138.542 73.4696C138.611 72.7641 138.429 72.0568 138.028 71.4732C138.012 71.4506 138 71.4249 137.994 71.3977C137.988 71.3704 137.987 71.3422 137.992 71.3147C137.997 71.2872 138.007 71.2609 138.022 71.2374C138.037 71.2139 138.056 71.1937 138.079 71.1779C138.126 71.1458 138.183 71.1332 138.239 71.1428C138.295 71.1524 138.345 71.1834 138.378 71.2292C138.378 71.2549 139.97 73.5838 137.951 75.6088C136.201 77.3684 137.891 79.342 137.951 79.4233C137.988 79.4668 138.006 79.5228 138.002 79.5796C137.998 79.6364 137.972 79.6894 137.93 79.7273C137.898 79.7635 137.854 79.7877 137.806 79.7958Z" fill="#E3E3E3"/>
        <path d="M140.414 80.233C140.384 80.2326 140.354 80.226 140.327 80.2134C140.3 80.2009 140.276 80.1827 140.256 80.1602C139.974 79.8755 139.816 79.4908 139.816 79.0899C139.816 78.689 139.974 78.3043 140.256 78.0196C140.461 77.8189 140.588 77.5522 140.617 77.2664C140.645 76.9805 140.571 76.6939 140.41 76.457C140.378 76.4103 140.366 76.3531 140.377 76.2979C140.387 76.2426 140.419 76.1937 140.465 76.1616C140.488 76.1453 140.513 76.1336 140.54 76.1274C140.567 76.1211 140.596 76.1204 140.623 76.1252C140.65 76.13 140.677 76.1402 140.7 76.1553C140.724 76.1704 140.744 76.19 140.759 76.213C140.981 76.5314 141.083 76.9185 141.046 77.3053C141.01 77.692 140.837 78.053 140.559 78.3235C139.855 79.0257 140.537 79.8305 140.559 79.8647C140.598 79.9055 140.62 79.96 140.62 80.0168C140.62 80.0735 140.598 80.128 140.559 80.1687C140.52 80.208 140.469 80.2311 140.414 80.233Z" fill="#E3E3E3"/>
        <path d="M189.401 61.2372H139.264C138.31 61.2361 137.395 60.8555 136.721 60.1789C136.046 59.5023 135.666 58.585 135.665 57.6282V47.0238L132.272 45.4784C132.106 45.4046 131.963 45.285 131.862 45.1335C131.761 44.9819 131.705 44.8045 131.7 44.6221C131.693 44.4415 131.737 44.2626 131.826 44.1053C131.915 43.9481 132.046 43.8188 132.204 43.7317L135.665 41.8351V31.2436C135.666 30.2864 136.046 29.3687 136.72 28.6914C137.395 28.0142 138.309 27.6326 139.264 27.6304H189.397C190.352 27.6326 191.266 28.0142 191.941 28.6914C192.615 29.3687 192.994 30.2864 192.995 31.2436V57.6239C192.995 58.5807 192.617 59.4985 191.943 60.1759C191.27 60.8533 190.355 61.235 189.401 61.2372ZM139.264 28.0627C138.422 28.0639 137.616 28.4 137.021 28.9972C136.426 29.5944 136.092 30.4039 136.092 31.2479V42.092L132.408 44.1127C132.32 44.1621 132.248 44.2349 132.199 44.3231C132.149 44.4113 132.125 44.5115 132.129 44.6125C132.133 44.7136 132.165 44.8116 132.221 44.8956C132.277 44.9797 132.355 45.0465 132.447 45.0888L136.092 46.7456V57.6282C136.092 58.0459 136.174 58.4596 136.334 58.8455C136.493 59.2314 136.727 59.5821 137.021 59.8774C137.316 60.1728 137.665 60.4071 138.05 60.5669C138.435 60.7268 138.847 60.8091 139.264 60.8091H189.397C189.814 60.8091 190.226 60.7268 190.611 60.5669C190.996 60.4071 191.345 60.1728 191.64 59.8774C191.934 59.5821 192.168 59.2314 192.327 58.8455C192.487 58.4596 192.569 58.0459 192.569 57.6282V31.2479C192.569 30.4039 192.235 29.5944 191.64 28.9972C191.045 28.4 190.239 28.0639 189.397 28.0627H139.264Z" fill="#E3E3E3"/>
        <path d="M89.896 37.0616C89.8106 37.0615 89.7258 37.0485 89.6443 37.0231C89.5877 37.0061 89.5401 36.9672 89.5121 36.915C89.4841 36.8628 89.4779 36.8016 89.4948 36.7448C89.5118 36.6881 89.5506 36.6404 89.6026 36.6123C89.6546 36.5842 89.7156 36.578 89.7722 36.595C90.0326 36.6763 90.3741 36.4837 90.7156 36.0641C91.9065 34.5786 92.6707 30.9653 91.0017 28.0456C90.5023 27.1894 90.0028 26.6799 89.5119 26.59C89.3427 26.5677 89.1705 26.5842 89.0086 26.6383C88.8466 26.6925 88.6992 26.7828 88.5771 26.9025C88.5554 26.9207 88.5303 26.9344 88.5032 26.9428C88.4761 26.9512 88.4476 26.9541 88.4194 26.9513C88.3912 26.9485 88.3639 26.9401 88.3389 26.9266C88.314 26.9131 88.2919 26.8947 88.2741 26.8726C88.2387 26.8287 88.222 26.7727 88.2276 26.7166C88.2332 26.6605 88.2606 26.6088 88.3039 26.5729C88.4731 26.413 88.6763 26.2938 88.8981 26.2241C89.1199 26.1544 89.3546 26.136 89.5845 26.1705C90.2034 26.2818 90.8053 26.8426 91.3688 27.8358C93.1274 30.9182 92.3121 34.7498 91.0401 36.3296C90.9159 36.5294 90.7486 36.6988 90.5507 36.8255C90.3528 36.9522 90.1291 37.0328 89.896 37.0616Z" fill="#E3E3E3"/>
        <path d="M24.291 119H7.70897C6.21285 119 5 120.213 5 121.709V138.291C5 139.787 6.21285 141 7.70897 141H24.291C25.7872 141 27 139.787 27 138.291V121.709C27 120.213 25.7872 119 24.291 119Z" fill="#CE7783"/>
        <path d="M9.40238 130.78C9.40625 131.092 9.31875 131.399 9.15061 131.662C8.96921 131.934 8.71255 132.146 8.41217 132.274C8.0501 132.431 7.65808 132.507 7.26376 132.496C6.80506 132.514 6.35005 132.409 5.94486 132.193C5.70332 132.049 5.49868 131.851 5.34731 131.615C5.20795 131.405 5.1297 131.16 5.12117 130.908C5.12 130.844 5.13168 130.78 5.15577 130.721C5.17987 130.661 5.21575 130.607 5.26123 130.562C5.30672 130.517 5.36093 130.481 5.42047 130.458C5.48001 130.434 5.54362 130.423 5.60763 130.424C5.71636 130.423 5.82168 130.462 5.90213 130.536C5.99262 130.628 6.06129 130.739 6.10284 130.861C6.16259 131.012 6.23836 131.155 6.32898 131.289C6.41414 131.411 6.52877 131.51 6.66204 131.576C6.88131 131.666 7.11868 131.702 7.35463 131.682C7.59058 131.662 7.81824 131.586 8.01929 131.46C8.11277 131.399 8.18958 131.315 8.24251 131.216C8.29544 131.118 8.32301 131.007 8.32255 130.895C8.32552 130.817 8.31269 130.738 8.28482 130.665C8.25695 130.591 8.21447 130.524 8.16018 130.467C8.04069 130.348 7.89423 130.26 7.73333 130.21C7.56259 130.15 7.33225 130.09 7.042 130.022C6.70786 129.949 6.38171 129.843 6.06866 129.705C5.8221 129.596 5.60856 129.423 5.44965 129.204C5.29075 128.976 5.21005 128.703 5.21934 128.425C5.21464 128.141 5.29973 127.862 5.46257 127.629C5.63766 127.386 5.88159 127.201 6.16266 127.098C6.50756 126.968 6.87409 126.905 7.2425 126.914C7.53165 126.907 7.81993 126.948 8.0962 127.034C8.31568 127.105 8.51993 127.217 8.69812 127.363C8.84238 127.481 8.96136 127.627 9.04806 127.792C9.1164 127.924 9.15443 128.07 9.15915 128.22C9.15888 128.35 9.10841 128.476 9.01826 128.571C8.97719 128.621 8.9251 128.662 8.8659 128.69C8.80671 128.717 8.74186 128.731 8.67666 128.729C8.57309 128.734 8.47146 128.7 8.3907 128.635C8.30611 128.543 8.23573 128.439 8.18165 128.327C8.09883 128.143 7.97803 127.98 7.82733 127.847C7.632 127.718 7.399 127.657 7.16559 127.676C6.92387 127.665 6.68509 127.731 6.4828 127.864C6.40912 127.91 6.34728 127.973 6.30272 128.047C6.25816 128.122 6.23214 128.206 6.22665 128.292C6.22291 128.393 6.25283 128.493 6.31189 128.575C6.37825 128.658 6.46123 128.727 6.55533 128.776C6.6543 128.831 6.75872 128.876 6.86692 128.909C6.97363 128.943 7.14863 128.986 7.39194 129.05C7.67068 129.113 7.94578 129.192 8.21583 129.286C8.43879 129.359 8.64998 129.464 8.84318 129.598C9.02071 129.717 9.1671 129.877 9.27003 130.065C9.37069 130.289 9.4161 130.534 9.40238 130.78Z" fill="#E3E3E3"/>
        <path d="M11.1284 127.607L12.345 131.234L13.5699 127.582C13.6339 127.393 13.681 127.256 13.7151 127.184C13.748 127.103 13.8028 127.033 13.8731 126.982C13.9589 126.918 14.0647 126.886 14.1718 126.892C14.2632 126.891 14.3531 126.915 14.4321 126.961C14.5095 127.005 14.5744 127.068 14.6201 127.145C14.6642 127.216 14.6877 127.297 14.6883 127.381C14.694 127.439 14.694 127.498 14.6883 127.556C14.6883 127.62 14.6542 127.68 14.6328 127.74L14.5645 127.924L13.2627 131.456C13.2143 131.593 13.1673 131.722 13.1218 131.841C13.0799 131.954 13.0255 132.062 12.9596 132.163C12.8981 132.257 12.8145 132.335 12.7162 132.389C12.6013 132.453 12.4716 132.484 12.3406 132.479C12.2116 132.483 12.0838 132.453 11.9692 132.394C11.8703 132.336 11.7858 132.257 11.7218 132.163C11.6576 132.061 11.6031 131.953 11.5594 131.841C11.511 131.722 11.4643 131.593 11.4187 131.456L10.1382 127.954C10.1382 127.89 10.0912 127.83 10.0698 127.766C10.0443 127.702 10.0242 127.636 10.01 127.569C9.99484 127.51 9.98623 127.45 9.98438 127.389C9.98519 127.324 9.99921 127.261 10.0256 127.202C10.0521 127.143 10.0905 127.09 10.1382 127.047C10.1867 126.996 10.2451 126.956 10.3097 126.93C10.3744 126.903 10.4439 126.891 10.5138 126.892C10.5891 126.883 10.6655 126.894 10.7353 126.924C10.8051 126.954 10.8656 127.002 10.9106 127.064C11.0066 127.235 11.0799 127.417 11.1284 127.607Z" fill="#E3E3E3"/>
        <path d="M20.3256 130.189V131.208C20.3289 131.319 20.3161 131.43 20.2873 131.538C20.2586 131.624 20.2069 131.701 20.1378 131.76C20.0548 131.837 19.9614 131.902 19.8604 131.953C19.5631 132.117 19.2479 132.246 18.9213 132.338C18.5994 132.423 18.2679 132.464 17.9352 132.462C17.5497 132.467 17.1665 132.402 16.8041 132.27C16.4826 132.149 16.1912 131.959 15.9504 131.713C15.7032 131.462 15.5139 131.159 15.3956 130.827C15.2631 130.455 15.198 130.062 15.2034 129.667C15.1999 129.275 15.2634 128.885 15.3912 128.515C15.5054 128.18 15.6936 127.876 15.9419 127.625C16.1933 127.376 16.4965 127.186 16.8298 127.068C17.2093 126.934 17.6097 126.869 18.0121 126.876C18.3382 126.869 18.663 126.918 18.9726 127.021C19.2207 127.099 19.4523 127.222 19.6556 127.385C19.8137 127.517 19.9467 127.677 20.0482 127.856C20.125 127.986 20.1703 128.133 20.1806 128.284C20.1815 128.35 20.1683 128.416 20.1418 128.476C20.1153 128.537 20.0761 128.591 20.027 128.635C19.9787 128.683 19.9212 128.72 19.8581 128.745C19.7951 128.77 19.7275 128.782 19.6597 128.781C19.5809 128.781 19.5033 128.762 19.4336 128.725C19.3606 128.692 19.2985 128.638 19.2543 128.571C19.1509 128.404 19.0367 128.244 18.9127 128.091C18.8063 127.976 18.677 127.884 18.533 127.822C18.3432 127.74 18.1375 127.702 17.9311 127.71C17.6985 127.706 17.4676 127.75 17.2524 127.839C17.0569 127.926 16.8834 128.056 16.7445 128.22C16.5974 128.399 16.487 128.606 16.42 128.828C16.3444 129.088 16.3071 129.357 16.3091 129.628C16.2724 130.152 16.4238 130.671 16.736 131.092C16.8868 131.265 17.0744 131.401 17.2852 131.49C17.4959 131.579 17.724 131.618 17.9523 131.606C18.192 131.607 18.4306 131.574 18.661 131.508C18.8948 131.435 19.1208 131.339 19.3354 131.221V130.365H18.4817C18.323 130.373 18.1646 130.343 18.0207 130.275C17.9692 130.242 17.9277 130.195 17.9006 130.14C17.8736 130.085 17.862 130.023 17.8671 129.962C17.865 129.906 17.8754 129.85 17.8975 129.798C17.9197 129.746 17.9529 129.7 17.9951 129.663C18.0934 129.579 18.2203 129.536 18.3494 129.543H19.5872C19.718 129.539 19.8487 129.554 19.9757 129.585C20.0807 129.611 20.1722 129.675 20.2318 129.765C20.3047 129.894 20.3373 130.042 20.3256 130.189Z" fill="#E3E3E3"/>
        <path d="M54.2896 119H37.7104C36.2135 119 35 120.213 35 121.71V138.29C35 139.787 36.2135 141 37.7104 141H54.2896C55.7865 141 57 139.787 57 138.29V121.71C57 120.213 55.7865 119 54.2896 119Z" fill="#CE7783"/>
        <path d="M39.5078 130.78C39.5117 131.092 39.4242 131.399 39.256 131.662C39.0758 131.935 38.8188 132.148 38.5176 132.274C38.1556 132.431 37.7637 132.507 37.3694 132.496C36.912 132.514 36.4583 132.409 36.0547 132.193C35.8122 132.051 35.6073 131.852 35.4571 131.615C35.3148 131.406 35.2348 131.161 35.2266 130.908C35.2252 130.78 35.2743 130.657 35.3631 130.566C35.4087 130.519 35.4634 130.483 35.5236 130.459C35.5838 130.434 35.6484 130.423 35.7133 130.424C35.822 130.423 35.9273 130.462 36.0078 130.536C36.098 130.629 36.1678 130.739 36.2126 130.861C36.2693 131.012 36.3439 131.156 36.4346 131.289C36.5208 131.41 36.635 131.509 36.7675 131.576C36.9471 131.657 37.1429 131.695 37.3396 131.687C37.6205 131.701 37.8978 131.621 38.1291 131.46C38.222 131.398 38.2984 131.315 38.3513 131.216C38.4041 131.117 38.4318 131.007 38.4321 130.895C38.4343 130.816 38.4207 130.738 38.3921 130.664C38.3635 130.591 38.3207 130.524 38.2658 130.467C38.1463 130.348 37.9999 130.26 37.839 130.21C37.6682 130.15 37.4377 130.09 37.1474 130.022C36.8133 129.949 36.4873 129.843 36.1743 129.705C35.9285 129.594 35.7152 129.422 35.5553 129.204C35.3964 128.976 35.3155 128.703 35.3248 128.425C35.3201 128.141 35.4051 127.862 35.568 127.629C35.7451 127.388 35.9884 127.203 36.2681 127.098C36.613 126.968 36.9797 126.905 37.3481 126.914C37.6373 126.907 37.9255 126.948 38.2018 127.034C38.4213 127.105 38.6253 127.217 38.8035 127.363C38.949 127.48 39.0684 127.626 39.1537 127.792C39.222 127.924 39.2598 128.07 39.2646 128.22C39.2638 128.35 39.2152 128.475 39.1281 128.571C39.0851 128.62 39.032 128.66 38.9724 128.688C38.9127 128.715 38.8479 128.729 38.7823 128.729C38.6787 128.734 38.5771 128.7 38.4963 128.635C38.4131 128.542 38.3427 128.438 38.2871 128.327C38.2042 128.143 38.0834 127.98 37.9327 127.847C37.7374 127.718 37.5046 127.657 37.2712 127.676C37.0295 127.665 36.7905 127.731 36.5882 127.864C36.5145 127.91 36.4529 127.973 36.4083 128.047C36.3638 128.122 36.3376 128.206 36.3321 128.292C36.3302 128.393 36.3601 128.492 36.4175 128.575C36.4839 128.658 36.5666 128.727 36.6607 128.776C36.7597 128.831 36.8641 128.876 36.9723 128.909C37.079 128.943 37.254 128.986 37.4974 129.05C37.7761 129.113 38.0512 129.192 38.3212 129.286C38.5446 129.358 38.7561 129.464 38.9488 129.598C39.1199 129.718 39.259 129.878 39.3542 130.065C39.4644 130.286 39.5171 130.532 39.5078 130.78Z" fill="#E3E3E3"/>
        <path d="M41.2327 127.607L42.4536 131.234L43.6744 127.582C43.7384 127.393 43.7853 127.256 43.8194 127.184C43.8538 127.104 43.9083 127.035 43.9774 126.982C44.0649 126.918 44.1721 126.886 44.2805 126.892C44.3669 126.896 44.4512 126.92 44.5258 126.965C44.6003 127.009 44.6627 127.071 44.7073 127.145C44.7514 127.216 44.7751 127.297 44.7757 127.381C44.7744 127.44 44.7671 127.498 44.7542 127.556C44.7542 127.62 44.7201 127.68 44.6988 127.74C44.6774 127.8 44.656 127.864 44.6304 127.924L43.3286 131.456C43.2831 131.593 43.2361 131.722 43.1877 131.841C43.1475 131.955 43.0931 132.063 43.0255 132.163C42.964 132.257 42.8806 132.335 42.7823 132.389C42.6688 132.452 42.5405 132.483 42.4109 132.479C42.2805 132.483 42.1514 132.453 42.0353 132.394C41.9364 132.336 41.8518 132.257 41.7877 132.163C41.7235 132.061 41.669 131.953 41.6254 131.841C41.577 131.722 41.5302 131.593 41.4847 131.456L40.2041 127.954C40.1828 127.89 40.1571 127.83 40.1358 127.766C40.1121 127.701 40.0921 127.636 40.0759 127.569C40.064 127.51 40.0569 127.449 40.0547 127.389C40.0547 127.325 40.068 127.261 40.0937 127.202C40.1194 127.143 40.157 127.09 40.2041 127.047C40.2535 126.996 40.3126 126.956 40.378 126.93C40.4433 126.903 40.5134 126.891 40.5839 126.892C40.6586 126.884 40.7344 126.895 40.8033 126.925C40.8723 126.955 40.9321 127.003 40.9767 127.064C41.0861 127.233 41.172 127.415 41.2327 127.607Z" fill="#E3E3E3"/>
        <path d="M50.4353 130.189V131.208C50.4396 131.32 50.4251 131.431 50.3926 131.538C50.3639 131.624 50.3124 131.701 50.2433 131.76C50.1602 131.837 50.0667 131.902 49.9657 131.953C49.6687 132.118 49.3537 132.247 49.0268 132.338C48.7049 132.423 48.3734 132.464 48.0407 132.462C47.6552 132.467 47.272 132.402 46.9096 132.27C46.5881 132.149 46.2967 131.959 46.0559 131.713C45.8102 131.461 45.6209 131.159 45.5009 130.827C45.3684 130.455 45.3035 130.062 45.3089 129.667C45.3054 129.275 45.3689 128.885 45.4967 128.515C45.6108 128.18 45.7991 127.876 46.0474 127.625C46.2987 127.376 46.602 127.186 46.9352 127.068C47.315 126.935 47.7153 126.869 48.1176 126.876C48.445 126.869 48.7711 126.919 49.0822 127.021C49.3285 127.1 49.5584 127.223 49.7608 127.385C49.92 127.516 50.0534 127.676 50.1537 127.856C50.2323 127.985 50.2776 128.133 50.2858 128.284C50.2868 128.35 50.2736 128.416 50.2471 128.476C50.2206 128.537 50.1814 128.591 50.1322 128.635C50.0845 128.682 50.0278 128.72 49.9655 128.745C49.9032 128.77 49.8365 128.782 49.7694 128.781C49.6905 128.782 49.6127 128.762 49.5432 128.725C49.4695 128.691 49.406 128.638 49.3596 128.571C49.2562 128.404 49.1422 128.244 49.0182 128.091C48.9134 127.976 48.7854 127.884 48.6426 127.822C48.4513 127.74 48.2441 127.702 48.0363 127.71C47.8051 127.706 47.5757 127.75 47.3621 127.839C47.1646 127.925 46.9893 128.055 46.8498 128.22C46.7025 128.398 46.5935 128.605 46.5296 128.828C46.4505 129.087 46.4116 129.357 46.4144 129.628C46.3777 130.152 46.5291 130.671 46.8412 131.092C46.992 131.265 47.1799 131.401 47.3906 131.49C47.6014 131.579 47.8295 131.618 48.0578 131.606C48.2989 131.607 48.5388 131.574 48.7706 131.508C49.0028 131.434 49.2272 131.338 49.4407 131.221V130.365H48.587C48.4283 130.373 48.27 130.342 48.1262 130.275C48.0747 130.241 48.0332 130.195 48.0061 130.14C47.979 130.085 47.9673 130.023 47.9723 129.962C47.9703 129.906 47.9806 129.85 48.0028 129.798C48.0249 129.746 48.0584 129.7 48.1005 129.663C48.1989 129.578 48.3256 129.536 48.4546 129.543H49.6968C49.8262 129.54 49.9554 129.554 50.081 129.585C50.1859 129.611 50.2775 129.675 50.3371 129.765C50.4114 129.894 50.4456 130.041 50.4353 130.189Z" fill="#E3E3E3"/>
        <path d="M22.3075 142.446H3.13348C2.30175 142.445 1.5044 142.113 0.91628 141.523C0.328158 140.933 -0.00277695 140.133 -0.00390625 139.299V120.077C-0.00277695 119.243 0.328158 118.443 0.91628 117.853C1.5044 117.263 2.30175 116.932 3.13348 116.93H22.3075C23.1393 116.932 23.9366 117.263 24.5247 117.853C25.1128 118.443 25.4438 119.243 25.4449 120.077V139.308C25.4415 140.141 25.1097 140.938 24.5218 141.526C23.9339 142.114 23.1378 142.445 22.3075 142.446ZM3.13348 117.35C2.41496 117.351 1.72615 117.638 1.21808 118.147C0.710004 118.657 0.424072 119.348 0.422943 120.068V139.299C0.424072 140.02 0.710004 140.711 1.21808 141.22C1.72615 141.73 2.41496 142.017 3.13348 142.018H22.3075C23.026 142.017 23.7149 141.73 24.2229 141.22C24.731 140.711 25.0169 140.02 25.0181 139.299V120.077C25.0169 119.356 24.731 118.666 24.2229 118.156C23.7149 117.646 23.026 117.36 22.3075 117.359L3.13348 117.35Z" fill="#E3E3E3"/>
        <path d="M52.4169 142.446H33.2429C32.4111 142.445 31.6138 142.113 31.0257 141.523C30.4375 140.933 30.1066 140.133 30.1055 139.299V120.077C30.1066 119.243 30.4375 118.443 31.0257 117.853C31.6138 117.263 32.4111 116.932 33.2429 116.93H52.4169C53.2486 116.932 54.046 117.263 54.6341 117.853C55.2222 118.443 55.5532 119.243 55.5543 120.077V139.308C55.5509 140.141 55.2189 140.938 54.631 141.526C54.0431 142.114 53.2472 142.445 52.4169 142.446ZM33.2429 117.35C32.5243 117.351 31.8355 117.638 31.3275 118.147C30.8194 118.657 30.5334 119.348 30.5323 120.068V139.299C30.5334 140.02 30.8194 140.711 31.3275 141.22C31.8355 141.73 32.5243 142.017 33.2429 142.018H52.4169C53.1354 142.017 53.8242 141.73 54.3323 141.22C54.8404 140.711 55.1263 140.02 55.1274 139.299V120.077C55.1263 119.356 54.8404 118.666 54.3323 118.156C53.8242 117.646 53.1354 117.36 52.4169 117.359L33.2429 117.35Z" fill="#E3E3E3"/>
        <path d="M14.8173 87.2968V92.6225C14.8173 92.9631 14.9521 93.2898 15.1923 93.5306C15.4324 93.7715 15.7582 93.9068 16.0979 93.9068H21.0621C21.1195 93.9069 21.1759 93.8924 21.2261 93.8645C21.2763 93.8366 21.3187 93.7963 21.3491 93.7474C21.3794 93.6985 21.3967 93.6426 21.3995 93.5851C21.4023 93.5276 21.3906 93.4704 21.3651 93.4187C19.5894 89.8825 16.5417 87.7591 15.338 86.997C15.2862 86.9614 15.2256 86.9411 15.1629 86.9385C15.1002 86.9359 15.0381 86.9512 14.9836 86.9825C14.9292 87.0138 14.8847 87.06 14.8552 87.1156C14.8258 87.1712 14.8127 87.234 14.8173 87.2968Z" fill="#EAB669"/>
        <path d="M22.4595 93.5685H16.9617C16.5692 93.5673 16.1932 93.4105 15.9157 93.1321C15.6381 92.8538 15.4816 92.4766 15.4805 92.0829V86.175C15.4805 86.1182 15.503 86.0637 15.543 86.0236C15.583 85.9835 15.6373 85.9609 15.6939 85.9609C15.7505 85.9609 15.805 85.9835 15.845 86.0236C15.885 86.0637 15.9073 86.1182 15.9073 86.175V92.0829C15.9084 92.363 16.02 92.6313 16.2175 92.8294C16.4149 93.0275 16.6825 93.1392 16.9617 93.1403H22.4595C22.5161 93.1403 22.5704 93.1629 22.6104 93.2031C22.6504 93.2432 22.6729 93.2976 22.6729 93.3544C22.6729 93.4112 22.6504 93.4656 22.6104 93.5058C22.5704 93.5459 22.5161 93.5685 22.4595 93.5685Z" fill="#E3E3E3"/>
        <path d="M21.1209 111.537H5.23348C4.8214 111.537 4.42626 111.372 4.13488 111.08C3.8435 110.788 3.67969 110.391 3.67969 109.978V87.5408C3.67969 87.1275 3.8435 86.7311 4.13488 86.4389C4.42626 86.1466 4.8214 85.9824 5.23348 85.9824H15.7467L15.798 86.0124C16.0072 86.1323 20.9628 89.052 22.6574 93.2903V93.3674V109.991C22.6541 110.399 22.4912 110.79 22.2039 111.079C21.9165 111.368 21.5278 111.532 21.1209 111.537ZM5.23348 86.3892C4.93461 86.3892 4.64801 86.5082 4.43668 86.7202C4.22535 86.9321 4.10654 87.2196 4.10654 87.5193V109.978C4.10654 110.278 4.22535 110.565 4.43668 110.777C4.64801 110.989 4.93461 111.108 5.23348 111.108H21.1165C21.4154 111.108 21.702 110.989 21.9133 110.777C22.1247 110.565 22.2435 110.278 22.2435 109.978V93.3974C20.6769 89.5444 16.148 86.7017 15.6315 86.3892H5.23348Z" fill="#E3E3E3"/>
        <path d="M15.2355 102.404C15.2019 102.403 15.1694 102.392 15.1429 102.371C15.1165 102.35 15.0974 102.321 15.0883 102.289C15.0793 102.256 15.0808 102.222 15.0927 102.19C15.1046 102.159 15.1262 102.132 15.1544 102.113L18.4708 100.14L15.1031 98.0933C15.083 98.0839 15.0652 98.0704 15.0506 98.0536C15.0361 98.0369 15.0252 98.0172 15.0187 97.9959C15.0122 97.9747 15.0102 97.9523 15.0129 97.9302C15.0156 97.9081 15.0229 97.8869 15.0344 97.8679C15.0458 97.8488 15.0612 97.8324 15.0794 97.8197C15.0976 97.807 15.1182 97.7982 15.14 97.7941C15.1618 97.7899 15.1843 97.7904 15.2059 97.7955C15.2275 97.8006 15.2476 97.8101 15.2653 97.8236L19.0771 100.14L15.3122 102.383C15.2894 102.398 15.2627 102.405 15.2355 102.404Z" fill="#E3E3E3"/>
        <path d="M10.5021 102.404C10.4756 102.412 10.4475 102.412 10.421 102.404L6.65625 100.161L10.4723 97.8448C10.4896 97.8339 10.5088 97.8266 10.529 97.8233C10.5491 97.82 10.5699 97.8208 10.5898 97.8256C10.6097 97.8303 10.6284 97.839 10.6448 97.8512C10.6613 97.8633 10.6752 97.8786 10.6857 97.8962C10.6966 97.9139 10.704 97.9336 10.7074 97.9542C10.7107 97.9747 10.71 97.9957 10.7053 98.016C10.7005 98.0363 10.6918 98.0554 10.6796 98.0723C10.6675 98.0892 10.6521 98.1036 10.6344 98.1145L7.26651 100.161L10.5831 102.134C10.6007 102.145 10.6161 102.159 10.6282 102.176C10.6403 102.192 10.6488 102.211 10.6536 102.231C10.6584 102.251 10.6592 102.271 10.6559 102.292C10.6526 102.312 10.6453 102.331 10.6344 102.349C10.6191 102.369 10.5988 102.384 10.5756 102.394C10.5524 102.404 10.527 102.407 10.5021 102.404Z" fill="#E3E3E3"/>
        <path d="M11.111 104.301C11.0899 104.305 11.0682 104.305 11.047 104.301C11.0099 104.282 10.9813 104.25 10.967 104.211C10.9527 104.172 10.9538 104.129 10.9701 104.091L14.4875 96.3851C14.4958 96.366 14.5079 96.3486 14.5229 96.3341C14.538 96.3197 14.5556 96.3083 14.575 96.3007C14.5945 96.2932 14.6152 96.2896 14.6361 96.2901C14.6569 96.2906 14.6775 96.2953 14.6965 96.3038C14.7336 96.3223 14.7623 96.3543 14.7766 96.3934C14.7908 96.4324 14.7898 96.4754 14.7734 96.5136L11.2561 104.22C11.2415 104.245 11.2204 104.266 11.1948 104.28C11.1693 104.295 11.1403 104.302 11.111 104.301Z" fill="#E3E3E3"/>
        <path d="M44.2704 87.297V92.6227C44.2704 92.9633 44.4052 93.29 44.6454 93.5309C44.8855 93.7717 45.2114 93.907 45.551 93.907H50.5152C50.5726 93.9072 50.629 93.8926 50.6792 93.8647C50.7295 93.8368 50.7718 93.7965 50.8022 93.7476C50.8325 93.6988 50.8498 93.6429 50.8526 93.5854C50.8554 93.5279 50.8437 93.4706 50.8182 93.419C49.0426 89.8828 45.9948 87.7593 44.7911 86.9973C44.7394 86.9616 44.6787 86.9413 44.616 86.9388C44.5533 86.9362 44.4912 86.9514 44.4368 86.9828C44.3823 87.0141 44.3378 87.0602 44.3084 87.1158C44.2789 87.1714 44.2658 87.2342 44.2704 87.297Z" fill="#EAB669"/>
        <path d="M51.9126 93.5682H46.4149C46.0224 93.5671 45.6463 93.4102 45.3688 93.1319C45.0913 92.8535 44.9347 92.4763 44.9336 92.0827V86.1747C44.9336 86.118 44.9561 86.0635 44.9961 86.0234C45.0361 85.9832 45.0904 85.9607 45.147 85.9607C45.2036 85.9607 45.2581 85.9832 45.2981 86.0234C45.3381 86.0635 45.3604 86.118 45.3604 86.1747V92.0827C45.3616 92.3628 45.4731 92.6311 45.6706 92.8291C45.8681 93.0272 46.1356 93.139 46.4149 93.1401H51.9126C51.9692 93.1401 52.0235 93.1627 52.0635 93.2028C52.1035 93.2429 52.126 93.2974 52.126 93.3542C52.126 93.4109 52.1035 93.4654 52.0635 93.5055C52.0235 93.5457 51.9692 93.5682 51.9126 93.5682Z" fill="#E3E3E3"/>
        <path d="M50.574 111.537H34.6866C34.4826 111.537 34.2805 111.496 34.092 111.418C33.9035 111.34 33.7323 111.225 33.588 111.08C33.4437 110.935 33.3293 110.764 33.2512 110.575C33.1731 110.385 33.1328 110.183 33.1328 109.978V87.5408C33.1328 87.3361 33.1731 87.1335 33.2512 86.9444C33.3293 86.7554 33.4437 86.5836 33.588 86.4389C33.7323 86.2942 33.9035 86.1794 34.092 86.1011C34.2805 86.0227 34.4826 85.9824 34.6866 85.9824H45.1999L45.2511 86.0124C45.4603 86.1323 50.4159 89.052 52.1105 93.2903V93.3674V109.991C52.1072 110.399 51.9443 110.79 51.657 111.079C51.3697 111.368 50.9809 111.532 50.574 111.537ZM34.6866 86.3892C34.3877 86.3892 34.1011 86.5082 33.8898 86.7202C33.6785 86.9321 33.5597 87.2196 33.5597 87.5193V109.978C33.5597 110.278 33.6785 110.565 33.8898 110.777C34.1011 110.989 34.3877 111.108 34.6866 111.108H50.5697C50.8685 111.108 51.1551 110.989 51.3665 110.777C51.5778 110.565 51.6966 110.278 51.6966 109.978V93.3974C50.1301 89.5444 45.6011 86.7017 45.0846 86.3892H34.6866Z" fill="#E3E3E3"/>
        <path d="M44.6886 102.404C44.655 102.403 44.6225 102.392 44.5961 102.371C44.5696 102.35 44.5505 102.321 44.5415 102.289C44.5324 102.256 44.534 102.222 44.5458 102.19C44.5577 102.159 44.5793 102.132 44.6075 102.113L47.924 100.14L44.5563 98.0933C44.5362 98.0839 44.5183 98.0704 44.5037 98.0536C44.4892 98.0369 44.4783 98.0172 44.4718 97.9959C44.4654 97.9747 44.4633 97.9523 44.466 97.9302C44.4687 97.9081 44.476 97.8869 44.4875 97.8679C44.4989 97.8488 44.5143 97.8324 44.5325 97.8197C44.5507 97.807 44.5714 97.7982 44.5931 97.7941C44.6149 97.7899 44.6374 97.7904 44.659 97.7955C44.6806 97.8006 44.7008 97.8101 44.7184 97.8236L48.5303 100.14L44.7653 102.383C44.7425 102.398 44.7158 102.405 44.6886 102.404Z" fill="#E3E3E3"/>
        <path d="M39.9513 102.404C39.9248 102.412 39.8967 102.412 39.8702 102.404L36.1055 100.161L39.9215 97.8448C39.9388 97.8339 39.958 97.8266 39.9782 97.8233C39.9983 97.82 40.0192 97.8208 40.039 97.8256C40.0589 97.8303 40.0776 97.839 40.094 97.8512C40.1105 97.8633 40.1244 97.8786 40.1349 97.8962C40.1459 97.9139 40.1532 97.9336 40.1566 97.9542C40.1599 97.9747 40.1592 97.9957 40.1545 98.016C40.1497 98.0363 40.141 98.0554 40.1289 98.0723C40.1167 98.0892 40.1013 98.1036 40.0836 98.1145L36.7157 100.161L40.0324 102.134C40.0499 102.145 40.0653 102.159 40.0774 102.176C40.0895 102.192 40.098 102.211 40.1028 102.231C40.1076 102.251 40.1084 102.271 40.1051 102.292C40.1018 102.312 40.0945 102.331 40.0836 102.349C40.0683 102.369 40.0481 102.384 40.0249 102.394C40.0017 102.404 39.9763 102.407 39.9513 102.404Z" fill="#E3E3E3"/>
        <path d="M40.5641 104.301C40.543 104.305 40.5213 104.305 40.5002 104.301C40.4631 104.282 40.4344 104.25 40.4201 104.211C40.4058 104.172 40.4069 104.129 40.4233 104.091L43.9406 96.3851C43.9489 96.366 43.961 96.3486 43.976 96.3341C43.9911 96.3197 44.0087 96.3083 44.0281 96.3007C44.0476 96.2932 44.0684 96.2896 44.0892 96.2901C44.1101 96.2906 44.1306 96.2953 44.1496 96.3038C44.1867 96.3223 44.2154 96.3543 44.2297 96.3934C44.244 96.4324 44.2429 96.4754 44.2266 96.5136L40.7092 104.22C40.6946 104.245 40.6735 104.266 40.6479 104.28C40.6224 104.295 40.5934 104.302 40.5641 104.301Z" fill="#E3E3E3"/>
        <path d="M14.8164 56.7162V62.0419C14.8164 62.3826 14.9512 62.7092 15.1914 62.9501C15.4315 63.191 15.7573 63.3263 16.097 63.3263H21.0612C21.1186 63.3264 21.175 63.3118 21.2252 63.2839C21.2754 63.256 21.3178 63.2157 21.3482 63.1669C21.3785 63.118 21.3958 63.0622 21.3986 63.0047C21.4014 62.9471 21.3896 62.8899 21.3642 62.8383C19.5885 59.3063 16.5408 57.1786 15.337 56.4422C15.2871 56.408 15.229 56.3881 15.1686 56.3846C15.1083 56.3811 15.0481 56.3941 14.9946 56.4223C14.9411 56.4504 14.8962 56.4927 14.8648 56.5445C14.8334 56.5962 14.8167 56.6556 14.8164 56.7162Z" fill="#EAB669"/>
        <path d="M22.4595 63.0015H16.9617C16.5685 63.0004 16.1918 62.8429 15.9142 62.5636C15.6365 62.2843 15.4805 61.906 15.4805 61.5116V55.6037C15.4805 55.5469 15.503 55.4925 15.543 55.4523C15.583 55.4122 15.6373 55.3896 15.6939 55.3896C15.7502 55.3907 15.804 55.4137 15.8437 55.4536C15.8835 55.4935 15.9062 55.5473 15.9073 55.6037V61.5116C15.9073 61.7925 16.0184 62.0619 16.216 62.2609C16.4136 62.4599 16.6817 62.5723 16.9617 62.5734H22.4595C22.5161 62.5734 22.5704 62.5959 22.6104 62.636C22.6504 62.6762 22.6729 62.7307 22.6729 62.7874C22.6729 62.8442 22.6504 62.8986 22.6104 62.9388C22.5704 62.9789 22.5161 63.0015 22.4595 63.0015Z" fill="#E3E3E3"/>
        <path d="M21.1209 80.9651H5.23348C5.02944 80.9651 4.82736 80.9248 4.63885 80.8465C4.45034 80.7682 4.27916 80.6534 4.13488 80.5087C3.99061 80.364 3.87615 80.1922 3.79807 80.0031C3.71999 79.814 3.67969 79.6114 3.67969 79.4068V56.948C3.67969 56.7433 3.71999 56.5407 3.79807 56.3516C3.87615 56.1625 3.99061 55.9908 4.13488 55.8461C4.27916 55.7014 4.45034 55.5866 4.63885 55.5083C4.82736 55.43 5.02944 55.3896 5.23348 55.3896H15.7467L15.798 55.4196C16.0072 55.5437 20.9628 58.4635 22.6574 62.6975V62.7789V79.4068C22.6574 79.8171 22.4962 80.2109 22.2085 80.5027C21.9208 80.7944 21.53 80.9606 21.1209 80.9651ZM5.23348 55.8178C4.93461 55.8178 4.64801 55.9368 4.43668 56.1488C4.22535 56.3607 4.10654 56.6482 4.10654 56.948V79.4068C4.10654 79.5552 4.13578 79.7021 4.19241 79.8393C4.24904 79.9764 4.33204 80.101 4.43668 80.206C4.54132 80.3109 4.66553 80.3942 4.80225 80.451C4.93897 80.5078 5.08549 80.537 5.23348 80.537H21.1165C21.2645 80.537 21.411 80.5078 21.5478 80.451C21.6845 80.3942 21.8087 80.3109 21.9133 80.206C22.018 80.101 22.101 79.9764 22.1576 79.8393C22.2142 79.7021 22.2435 79.5552 22.2435 79.4068V62.8303C20.6769 58.9772 16.148 56.1346 15.6315 55.8178H5.23348Z" fill="#E3E3E3"/>
        <path d="M15.234 71.837C15.2065 71.8368 15.1795 71.8296 15.1556 71.8161C15.1317 71.8027 15.1117 71.7833 15.0972 71.76C15.0865 71.742 15.0794 71.7221 15.0764 71.7013C15.0733 71.6806 15.0744 71.6595 15.0795 71.6392C15.0847 71.6189 15.0938 71.5998 15.1064 71.583C15.119 71.5663 15.1348 71.5522 15.1529 71.5416L18.4651 69.5595L15.0972 67.5131C15.0793 67.5029 15.0637 67.4892 15.0512 67.4729C15.0386 67.4565 15.0297 67.4378 15.0245 67.4178C15.0193 67.3978 15.0182 67.3771 15.0212 67.3567C15.0241 67.3362 15.0311 67.3166 15.0418 67.299C15.0524 67.2809 15.0664 67.2652 15.0831 67.2526C15.0998 67.24 15.1189 67.2308 15.1391 67.2256C15.1594 67.2204 15.1804 67.2194 15.201 67.2224C15.2217 67.2254 15.2417 67.2326 15.2596 67.2434L19.0712 69.5637L15.3065 71.8071C15.2849 71.8224 15.2601 71.8326 15.234 71.837Z" fill="#E3E3E3"/>
        <path d="M10.5021 71.8372C10.4753 71.843 10.4477 71.843 10.421 71.8372L6.65625 69.5939L10.4723 67.2736C10.5076 67.2571 10.5478 67.2543 10.585 67.2657C10.6223 67.2771 10.6539 67.3019 10.674 67.3354C10.6941 67.3689 10.7013 67.4085 10.694 67.4469C10.6867 67.4853 10.6654 67.5196 10.6344 67.5433L7.26651 69.5896L10.5831 71.5633C10.6008 71.5742 10.6162 71.5885 10.6284 71.6055C10.6405 71.6224 10.6492 71.6415 10.654 71.6618C10.6588 71.6821 10.6594 71.7031 10.6561 71.7236C10.6527 71.7442 10.6454 71.7639 10.6344 71.7816C10.6183 71.8007 10.598 71.8157 10.575 71.8254C10.552 71.835 10.5269 71.8391 10.5021 71.8372Z" fill="#E3E3E3"/>
        <path d="M11.1107 73.7339C11.0896 73.7378 11.0679 73.7378 11.0468 73.7339C11.01 73.7162 10.9815 73.685 10.9671 73.6467C10.9528 73.6084 10.9537 73.566 10.9698 73.5284L14.4872 65.8224C14.4949 65.8021 14.5066 65.7836 14.5218 65.7681C14.5369 65.7526 14.5551 65.7403 14.5751 65.7322C14.5952 65.724 14.6166 65.72 14.6383 65.7205C14.6599 65.721 14.6814 65.726 14.701 65.7351C14.7207 65.7442 14.7383 65.7573 14.7527 65.7735C14.7671 65.7897 14.778 65.8088 14.7848 65.8294C14.7916 65.85 14.7939 65.8719 14.7919 65.8935C14.7899 65.9151 14.7836 65.9361 14.7731 65.9551L11.2558 73.6611C11.2404 73.6853 11.2188 73.7048 11.1933 73.7177C11.1677 73.7305 11.1392 73.7361 11.1107 73.7339Z" fill="#E3E3E3"/>
        <path d="M44.2695 56.716V62.0417C44.2695 62.3823 44.4043 62.709 44.6445 62.9499C44.8846 63.1907 45.2105 63.326 45.5501 63.326H50.5143C50.5717 63.3262 50.6281 63.3116 50.6783 63.2837C50.7285 63.2558 50.7709 63.2155 50.8013 63.1666C50.8316 63.1178 50.8489 63.0619 50.8517 63.0044C50.8545 62.9469 50.8428 62.8896 50.8173 62.838C49.0416 59.3061 45.9939 57.1783 44.7902 56.442C44.7403 56.4078 44.6821 56.3879 44.6218 56.3844C44.5614 56.3808 44.5013 56.3939 44.4477 56.422C44.3942 56.4502 44.3493 56.4924 44.3179 56.5442C44.2865 56.596 44.2698 56.6554 44.2695 56.716Z" fill="#EAB669"/>
        <path d="M51.9126 63.0013H46.4149C46.0216 63.0001 45.645 62.8426 45.3673 62.5634C45.0897 62.2841 44.9336 61.9058 44.9336 61.5114V55.6035C44.9336 55.5467 44.9561 55.4922 44.9961 55.4521C45.0361 55.4119 45.0904 55.3894 45.147 55.3894C45.2033 55.3905 45.2571 55.4134 45.2969 55.4533C45.3367 55.4932 45.3594 55.547 45.3604 55.6035V61.5114C45.3604 61.7922 45.4715 62.0616 45.6691 62.2606C45.8667 62.4596 46.1348 62.572 46.4149 62.5731H51.9126C51.9692 62.5731 52.0235 62.5957 52.0635 62.6358C52.1035 62.6759 52.126 62.7304 52.126 62.7872C52.126 62.844 52.1035 62.8984 52.0635 62.9385C52.0235 62.9787 51.9692 63.0013 51.9126 63.0013Z" fill="#E3E3E3"/>
        <path d="M50.574 80.9651H34.6866C34.4826 80.9651 34.2805 80.9248 34.092 80.8465C33.9035 80.7682 33.7323 80.6534 33.588 80.5087C33.4437 80.364 33.3293 80.1922 33.2512 80.0031C33.1731 79.814 33.1328 79.6114 33.1328 79.4068V56.948C33.1328 56.7433 33.1731 56.5407 33.2512 56.3516C33.3293 56.1625 33.4437 55.9908 33.588 55.8461C33.7323 55.7014 33.9035 55.5866 34.092 55.5083C34.2805 55.43 34.4826 55.3896 34.6866 55.3896H45.1999L45.2511 55.4196C45.4603 55.5437 50.4159 58.4635 52.1105 62.6975V62.7789V79.4068C52.1105 79.8171 51.9493 80.2109 51.6616 80.5027C51.3739 80.7944 50.9831 80.9606 50.574 80.9651ZM34.6866 55.8178C34.3877 55.8178 34.1011 55.9368 33.8898 56.1488C33.6785 56.3607 33.5597 56.6482 33.5597 56.948V79.4068C33.5597 79.5552 33.5889 79.7021 33.6455 79.8393C33.7022 79.9764 33.7852 80.101 33.8898 80.206C33.9944 80.3109 34.1187 80.3942 34.2554 80.451C34.3921 80.5078 34.5386 80.537 34.6866 80.537H50.5697C50.7176 80.537 50.8642 80.5078 51.0009 80.451C51.1376 80.3942 51.2618 80.3109 51.3665 80.206C51.4711 80.101 51.5541 79.9764 51.6107 79.8393C51.6674 79.7021 51.6966 79.5552 51.6966 79.4068V62.8303C50.1301 58.9772 45.6011 56.1346 45.0846 55.8178H34.6866Z" fill="#E3E3E3"/>
        <path d="M44.6871 71.837C44.6597 71.8368 44.6326 71.8296 44.6087 71.8161C44.5848 71.8027 44.5648 71.7833 44.5504 71.76C44.5396 71.742 44.5326 71.7221 44.5295 71.7013C44.5265 71.6806 44.5275 71.6595 44.5326 71.6392C44.5378 71.6189 44.547 71.5998 44.5595 71.583C44.5721 71.5663 44.588 71.5522 44.606 71.5416L47.9183 69.5595L44.5504 67.5131C44.5325 67.5029 44.5168 67.4892 44.5043 67.4729C44.4918 67.4565 44.4828 67.4378 44.4776 67.4178C44.4724 67.3978 44.4713 67.3771 44.4743 67.3567C44.4773 67.3362 44.4842 67.3166 44.4949 67.299C44.5055 67.2809 44.5195 67.2652 44.5362 67.2526C44.5529 67.24 44.572 67.2308 44.5922 67.2256C44.6125 67.2204 44.6335 67.2194 44.6541 67.2224C44.6748 67.2254 44.6948 67.2326 44.7127 67.2434L48.5243 69.5637L44.7596 71.8071C44.738 71.8224 44.7132 71.8326 44.6871 71.837Z" fill="#E3E3E3"/>
        <path d="M39.9513 71.8372C39.9246 71.843 39.8969 71.843 39.8702 71.8372L36.1055 69.5939L39.9215 67.2736C39.9568 67.2571 39.997 67.2543 40.0342 67.2657C40.0715 67.2771 40.1031 67.3019 40.1232 67.3354C40.1434 67.3689 40.1506 67.4085 40.1432 67.4469C40.1359 67.4853 40.1146 67.5196 40.0836 67.5433L36.7157 69.5896L40.0324 71.5633C40.05 71.5742 40.0654 71.5885 40.0776 71.6055C40.0897 71.6224 40.0985 71.6415 40.1032 71.6618C40.108 71.6821 40.1087 71.7031 40.1053 71.7236C40.102 71.7442 40.0946 71.7639 40.0836 71.7816C40.0675 71.8007 40.0472 71.8157 40.0242 71.8254C40.0012 71.835 39.9762 71.8391 39.9513 71.8372Z" fill="#E3E3E3"/>
        <path d="M40.5639 73.7342C40.5427 73.738 40.521 73.738 40.4999 73.7342C40.4631 73.7165 40.4346 73.6852 40.4203 73.6469C40.4059 73.6086 40.4068 73.5663 40.423 73.5287L43.9403 65.8227C43.948 65.8024 43.9598 65.7839 43.9749 65.7684C43.9901 65.7528 44.0082 65.7406 44.0283 65.7324C44.0483 65.7242 44.0698 65.7202 44.0914 65.7207C44.1131 65.7213 44.1345 65.7262 44.1542 65.7353C44.1738 65.7444 44.1914 65.7575 44.2058 65.7737C44.2202 65.79 44.2312 65.809 44.2379 65.8297C44.2447 65.8503 44.247 65.8721 44.245 65.8937C44.243 65.9154 44.2367 65.9363 44.2263 65.9553L40.7089 73.6614C40.6936 73.6855 40.672 73.7051 40.6464 73.7179C40.6208 73.7307 40.5924 73.7363 40.5639 73.7342Z" fill="#E3E3E3"/>
    </g>
    <defs>
        <clipPath id="clip0_6062_16307">
            <rect width="193" height="144" fill="white"/>
        </clipPath>
    </defs>
</svg>
