<svg width="538" height="255" viewBox="0 0 538 255" fill="none" xmlns="http://www.w3.org/2000/svg">
    <g clip-path="url(#clip0_4662_18726)">
        <path d="M198.893 135.552C199.129 136.03 199.204 136.572 199.107 137.096C199.01 137.621 198.746 138.1 198.354 138.463L189.634 146.567C189.045 147.113 188.322 147.497 187.539 147.678C186.756 147.86 185.938 147.834 185.168 147.603C181.136 146.37 176.593 145.111 171.628 143.931C151.337 139.092 127.198 159.785 124.348 164.637C121.314 169.882 122.706 176.15 123.034 181.684C123.058 182.075 122.987 182.466 122.828 182.825C122.669 183.183 122.426 183.498 122.12 183.743C121.814 183.988 121.453 184.157 121.068 184.234C120.683 184.312 120.286 184.296 119.908 184.189L88.8873 175.298C88.7899 175.263 88.7023 175.205 88.6334 175.128C88.5645 175.051 88.5165 174.958 88.4929 174.857C88.4694 174.757 88.4711 174.652 88.4987 174.553C88.5263 174.453 88.5787 174.362 88.6507 174.288L158.757 101.379C158.837 101.3 158.936 101.244 159.044 101.216C159.153 101.189 159.267 101.19 159.375 101.221L192.09 113.731C192.556 113.905 192.958 114.216 193.242 114.624C193.526 115.032 193.678 115.516 193.679 116.013C193.815 122.85 195.604 129.553 198.893 135.552Z" fill="#CE7783"/>
        <path d="M247.147 29.3213L157.314 81.4727C157.277 81.4869 157.245 81.5121 157.222 81.5449C157.2 81.5776 157.188 81.6165 157.188 81.6563C157.188 81.696 157.2 81.7347 157.222 81.7675C157.245 81.8003 157.277 81.8254 157.314 81.8397L165.982 87.6621C166.01 87.6782 166.041 87.6867 166.074 87.6867C166.106 87.6867 166.138 87.6782 166.166 87.6621L254.686 35.2091C254.716 35.1902 254.74 35.164 254.757 35.1331C254.774 35.1021 254.782 35.0674 254.782 35.0321C254.782 34.9968 254.774 34.962 254.757 34.9311C254.74 34.9001 254.716 34.874 254.686 34.855L247.344 29.3999C247.32 29.3715 247.289 29.3494 247.255 29.3357C247.221 29.322 247.184 29.3171 247.147 29.3213Z" fill="#CE7783"/>
        <path d="M417.001 88.2128L356.941 100.146C356.855 100.164 356.765 100.154 356.685 100.119C356.605 100.084 356.539 100.024 356.494 99.9491L338.541 69.5396C338.503 69.4817 338.48 69.4153 338.474 69.3464C338.468 69.2774 338.479 69.208 338.506 69.1444C338.534 69.0808 338.577 69.0249 338.631 68.9817C338.685 68.9386 338.749 68.9094 338.817 68.8969L399.782 57.3836C399.871 57.3662 399.964 57.377 400.046 57.4146C400.129 57.4523 400.196 57.5147 400.241 57.5933L417.315 87.5964C417.347 87.6563 417.365 87.7232 417.366 87.7913C417.367 87.8595 417.351 87.9268 417.32 87.9874C417.289 88.0481 417.244 88.1004 417.188 88.1397C417.132 88.1789 417.068 88.204 417.001 88.2128Z" fill="#71A5D2"/>
        <path d="M430.437 131.001L370.378 142.934C370.293 142.954 370.202 142.945 370.122 142.91C370.041 142.875 369.975 142.814 369.932 142.737L351.965 112.328C351.93 112.268 351.911 112.201 351.907 112.133C351.903 112.064 351.916 111.995 351.944 111.932C351.972 111.87 352.015 111.814 352.068 111.771C352.122 111.728 352.186 111.699 352.253 111.685L413.22 100.172C413.307 100.155 413.396 100.167 413.477 100.204C413.557 100.242 413.624 100.304 413.666 100.382L430.74 130.372C430.775 130.431 430.795 130.498 430.798 130.567C430.801 130.636 430.786 130.705 430.757 130.767C430.727 130.829 430.683 130.883 430.627 130.924C430.571 130.965 430.506 130.991 430.437 131.001Z" fill="#71A5D2"/>
        <path d="M451.938 171.535L391.88 183.468C391.794 183.482 391.706 183.47 391.627 183.436C391.548 183.401 391.479 183.344 391.432 183.271L373.466 152.848C373.431 152.789 373.411 152.722 373.407 152.653C373.403 152.584 373.417 152.516 373.445 152.453C373.474 152.39 373.516 152.335 373.57 152.292C373.624 152.249 373.687 152.219 373.754 152.206L434.72 140.692C434.807 140.679 434.896 140.693 434.975 140.73C435.055 140.767 435.122 140.827 435.168 140.902L452.241 170.905C452.273 170.965 452.29 171.032 452.291 171.1C452.293 171.168 452.278 171.235 452.249 171.296C452.219 171.358 452.176 171.411 452.122 171.453C452.068 171.494 452.005 171.522 451.938 171.535Z" fill="#71A5D2"/>
        <path d="M75.8348 181L65.9197 186.161L65 201.492L102.897 247L110.783 242.839V228.17L108.503 224.146L125.713 214.787L146.324 221.797L156 216.387V201.667L75.8348 181Z" fill="#71A5D2"/>
        <path d="M143.99 184.454L136 180.053V164.724C136 164.724 154.778 146.533 169.492 149.283C184.206 152.034 214 170.538 214 170.538V185.416L206.466 189.542L201.477 186.567C201.477 186.567 199.4 200.995 178.887 202.82C158.374 204.646 157.095 192.005 156.981 189.83C156.867 187.654 156.513 176.964 156.981 175.502C157.392 174.379 157.936 173.309 158.602 172.313C152.834 175.171 147.828 179.33 143.99 184.454Z" fill="#EAB669"/>
        <path d="M59.6788 191.046H59.4685L2.16727 171.377C1.65226 171.207 1.19006 170.907 0.825703 170.506C0.461343 170.105 0.207268 169.617 0.0882269 169.088C-0.0308143 168.56 -0.0106248 168.01 0.146584 167.492C0.303792 166.974 0.592773 166.505 0.985382 166.131C15.5373 152.035 81.4545 83.5179 93.1564 69.3163C93.574 68.8002 94.1455 68.4304 94.7878 68.2606C95.4302 68.0908 96.1097 68.13 96.7283 68.3722C104.924 71.5849 148.212 88.5272 195.821 106.584C195.902 106.614 195.976 106.66 196.039 106.719C196.103 106.778 196.154 106.848 196.189 106.927C196.225 107.005 196.246 107.09 196.249 107.177C196.252 107.263 196.238 107.349 196.208 107.43C196.178 107.511 196.132 107.585 196.073 107.648C196.014 107.712 195.943 107.763 195.864 107.798C195.786 107.834 195.701 107.855 195.615 107.858C195.528 107.861 195.442 107.847 195.361 107.817C147.739 89.7467 104.438 72.8044 96.2423 69.5916C95.8827 69.4507 95.4875 69.4282 95.1142 69.5273C94.741 69.6263 94.409 69.8418 94.1671 70.1424C82.452 84.449 16.4694 152.953 1.90434 167.062C1.6786 167.282 1.51338 167.555 1.42402 167.857C1.33466 168.159 1.32464 168.478 1.39452 168.785C1.4644 169.092 1.61165 169.375 1.8229 169.609C2.03414 169.842 2.30218 170.017 2.60078 170.118L59.902 189.788C59.9837 189.814 60.0596 189.857 60.1245 189.913C60.1895 189.969 60.2424 190.038 60.2804 190.115C60.3183 190.192 60.3402 190.276 60.3451 190.361C60.3501 190.447 60.338 190.533 60.3092 190.614C60.2626 190.743 60.1767 190.854 60.0636 190.931C59.9505 191.009 59.816 191.049 59.6788 191.046Z" fill="#E3E3E3"/>
        <path d="M246.777 255C246.429 254.994 246.083 254.937 245.752 254.829L162.881 226.439C162.792 226.417 162.71 226.376 162.638 226.32C162.566 226.264 162.507 226.193 162.464 226.113C162.421 226.033 162.396 225.945 162.389 225.854C162.382 225.764 162.394 225.673 162.424 225.587C162.454 225.501 162.502 225.423 162.564 225.356C162.626 225.29 162.701 225.237 162.785 225.201C162.869 225.166 162.959 225.148 163.05 225.149C163.141 225.149 163.231 225.169 163.314 225.207L246.186 253.584C246.44 253.669 246.711 253.699 246.978 253.672C247.246 253.645 247.504 253.561 247.736 253.426C268.369 241.467 327.85 174.524 339.513 161.227C339.721 160.991 339.864 160.705 339.929 160.397C339.993 160.089 339.976 159.77 339.88 159.47C339.784 159.17 339.613 158.899 339.383 158.683C339.154 158.468 338.872 158.314 338.566 158.237C330.24 156.375 313.68 151.077 289.33 142.501C289.156 142.444 289.011 142.32 288.929 142.156C288.846 141.993 288.833 141.803 288.89 141.629C288.948 141.456 289.071 141.311 289.235 141.229C289.399 141.147 289.589 141.133 289.764 141.19C314.074 149.753 330.581 155.038 338.842 156.926C339.383 157.042 339.885 157.298 340.295 157.669C340.706 158.039 341.011 158.511 341.18 159.037C341.349 159.553 341.381 160.104 341.27 160.636C341.16 161.167 340.911 161.66 340.551 162.066C324.068 180.792 268.724 242.778 248.446 254.528C247.943 254.833 247.366 254.996 246.777 255Z" fill="#E3E3E3"/>
        <path d="M301.927 218.113C301.34 218.113 300.767 217.934 300.285 217.601L297.185 215.477C297.103 215.434 297.031 215.374 296.973 215.302C296.916 215.229 296.874 215.145 296.851 215.055C296.829 214.965 296.826 214.871 296.842 214.78C296.859 214.689 296.894 214.602 296.946 214.526C296.999 214.449 297.067 214.385 297.146 214.336C297.226 214.288 297.313 214.257 297.405 214.245C297.498 214.233 297.591 214.241 297.68 214.268C297.769 214.295 297.851 214.341 297.921 214.402L301.02 216.513C301.209 216.644 301.425 216.734 301.651 216.777C301.877 216.82 302.109 216.815 302.333 216.762C312.669 214.284 332.869 204.567 362.353 187.913C362.429 187.865 362.513 187.833 362.601 187.819C362.689 187.804 362.78 187.808 362.866 187.83C362.953 187.851 363.034 187.89 363.105 187.944C363.176 187.998 363.234 188.066 363.278 188.144C363.322 188.222 363.349 188.307 363.359 188.396C363.368 188.485 363.361 188.574 363.335 188.659C363.308 188.745 363.264 188.823 363.206 188.891C363.148 188.959 363.077 189.014 362.997 189.054C333.407 205.812 313.09 215.569 302.583 218.073C302.367 218.111 302.146 218.124 301.927 218.113Z" fill="#E3E3E3"/>
        <path d="M138.623 75.4796C138.505 75.4814 138.388 75.4504 138.286 75.3903C138.184 75.3301 138.101 75.2431 138.045 75.1386C137.965 74.985 137.947 74.8062 137.996 74.6399C138.045 74.4735 138.157 74.3327 138.308 74.247C163.551 60.6486 210.752 34.4483 243.376 11.7099C243.877 11.3493 244.478 11.1553 245.096 11.1553C245.714 11.1553 246.316 11.3493 246.817 11.7099C250.757 14.6604 262.006 22.5914 281.785 36.8193C281.923 36.9238 282.016 37.0779 282.043 37.2491C282.069 37.4203 282.029 37.5953 281.93 37.7372C281.879 37.8071 281.814 37.8662 281.74 37.9113C281.666 37.9564 281.585 37.9866 281.5 38C281.415 38.0134 281.326 38.0098 281.242 37.9894C281.158 37.9691 281.08 37.9324 281.01 37.8814C261.231 23.6404 250.009 15.7226 246.043 12.7591C245.764 12.5614 245.431 12.4552 245.09 12.4552C244.748 12.4552 244.416 12.5614 244.138 12.7591C211.436 35.5367 164.181 61.7632 138.925 75.3879C138.833 75.4416 138.73 75.473 138.623 75.4796Z" fill="#E3E3E3"/>
        <path d="M377.626 198.207C376.979 198.202 376.345 198.026 375.789 197.696C375.233 197.367 374.774 196.896 374.46 196.331C370.258 188.831 359.042 168.794 345.909 145.111C345.828 144.957 345.81 144.779 345.859 144.612C345.908 144.446 346.02 144.305 346.171 144.219C346.246 144.178 346.33 144.152 346.416 144.142C346.502 144.133 346.589 144.141 346.672 144.165C346.755 144.19 346.833 144.23 346.9 144.284C346.968 144.339 347.023 144.406 347.065 144.482C360.198 168.177 371.4 188.188 375.603 195.702C375.806 196.061 376.1 196.36 376.455 196.569C376.81 196.778 377.213 196.891 377.626 196.895C388.888 196.522 400.105 195.295 411.181 193.224C411.353 193.197 411.529 193.238 411.671 193.338C411.814 193.439 411.911 193.59 411.943 193.761C411.958 193.847 411.957 193.934 411.938 194.018C411.919 194.103 411.883 194.183 411.833 194.254C411.783 194.324 411.719 194.384 411.646 194.43C411.572 194.476 411.49 194.508 411.405 194.522C400.258 196.597 388.971 197.829 377.638 198.207H377.626Z" fill="#E3E3E3"/>
        <path d="M448.26 186.942C448.11 186.943 447.965 186.893 447.848 186.8C447.731 186.707 447.649 186.577 447.616 186.431C447.58 186.261 447.612 186.083 447.705 185.937C447.799 185.79 447.945 185.685 448.115 185.644C486.202 176.793 524.29 165.332 535.033 162.04C535.358 161.931 535.653 161.752 535.901 161.516C536.149 161.279 536.343 160.992 536.468 160.674C536.593 160.355 536.647 160.013 536.626 159.672C536.605 159.33 536.51 158.997 536.346 158.697L510.315 109.981C510.236 109.826 510.22 109.646 510.272 109.479C510.323 109.312 510.438 109.172 510.591 109.089C510.668 109.048 510.752 109.023 510.839 109.014C510.925 109.006 511.012 109.015 511.095 109.04C511.178 109.066 511.255 109.108 511.322 109.163C511.389 109.219 511.444 109.287 511.484 109.365L537.502 158.08C537.756 158.557 537.902 159.084 537.929 159.623C537.956 160.162 537.865 160.701 537.66 161.201C537.454 161.698 537.139 162.144 536.739 162.504C536.339 162.865 535.863 163.132 535.347 163.286C524.565 166.591 486.439 178.065 448.352 186.89L448.26 186.942Z" fill="#E3E3E3"/>
        <path d="M335.127 124.904C335.01 124.903 334.893 124.871 334.791 124.811C334.69 124.751 334.607 124.665 334.549 124.563C308.991 78.1812 293.718 49.4763 289.16 39.2479C288.929 38.7378 288.818 38.1809 288.838 37.6211C288.859 37.0613 289.01 36.514 289.278 36.0221C289.541 35.5293 289.915 35.1045 290.371 34.7812C290.827 34.458 291.352 34.2453 291.905 34.16C310.883 31.0522 407.702 14.805 449.743 0.196832C450.567 -0.0887354 451.468 -0.06982 452.28 0.250137C453.092 0.570094 453.762 1.16986 454.169 1.94084L491.021 70.9296C491.1 71.0828 491.115 71.2609 491.063 71.4253C491.012 71.5897 490.897 71.7273 490.745 71.8082C490.669 71.8497 490.586 71.8759 490.5 71.8852C490.414 71.8945 490.328 71.8867 490.245 71.8623C490.162 71.8379 490.084 71.7975 490.017 71.7432C489.949 71.6889 489.894 71.6218 489.852 71.5458L453.013 2.58337C452.752 2.08944 452.322 1.70531 451.801 1.50079C451.281 1.29628 450.704 1.28497 450.176 1.46878C408.031 16.1163 311.119 32.3635 292.115 35.4713C291.762 35.5267 291.425 35.6633 291.133 35.8704C290.841 36.0775 290.602 36.3494 290.434 36.6647C290.26 36.9823 290.162 37.3361 290.148 37.6979C290.134 38.0598 290.205 38.4198 290.354 38.7496C294.846 48.7944 310.528 78.2598 335.705 123.986C335.746 124.061 335.772 124.145 335.782 124.23C335.791 124.316 335.783 124.403 335.758 124.486C335.734 124.569 335.694 124.646 335.639 124.713C335.585 124.781 335.518 124.836 335.442 124.877C335.341 124.913 335.233 124.922 335.127 124.904Z" fill="#E3E3E3"/>
        <path d="M33.2254 171.928C33.0731 171.928 32.9222 171.901 32.7791 171.849L26.8953 169.698C26.6865 169.624 26.4997 169.498 26.3528 169.332C26.2059 169.166 26.1038 168.966 26.0552 168.75C26.0067 168.534 26.0138 168.31 26.0758 168.097C26.1377 167.884 26.2522 167.691 26.4092 167.535L77.8664 114.479C78.0321 114.305 78.2422 114.181 78.4737 114.119C78.7052 114.056 78.9494 114.058 79.1798 114.125L84.4332 115.646C84.6546 115.707 84.8561 115.825 85.0174 115.989C85.1787 116.152 85.2939 116.355 85.3521 116.577C85.4235 116.803 85.432 117.045 85.3765 117.276C85.321 117.507 85.2038 117.719 85.0373 117.888L34.2239 171.56C34.0924 171.688 33.9354 171.786 33.7635 171.85C33.5916 171.913 33.4083 171.939 33.2254 171.928ZM78.8251 115.383L27.3417 168.44L33.2254 170.616L84.0522 116.931L78.8251 115.383Z" fill="#E3E3E3"/>
        <path d="M188.887 152.638C188.72 152.634 188.561 152.569 188.44 152.454C188.379 152.393 188.33 152.321 188.297 152.241C188.263 152.161 188.246 152.075 188.246 151.989C188.246 151.902 188.263 151.817 188.297 151.737C188.33 151.657 188.379 151.584 188.44 151.523L202.099 137.164C202.219 137.037 202.385 136.963 202.56 136.958C202.735 136.953 202.904 137.018 203.032 137.138C203.159 137.258 203.233 137.423 203.238 137.598C203.243 137.773 203.178 137.942 203.058 138.069L189.399 152.494C189.329 152.553 189.247 152.596 189.159 152.621C189.07 152.646 188.977 152.652 188.887 152.638Z" fill="#E3E3E3"/>
        <path d="M85.3527 173.055C85.1819 173.054 85.0184 172.988 84.8935 172.872C84.832 172.811 84.7826 172.738 84.7492 172.658C84.7159 172.578 84.6992 172.493 84.6992 172.406C84.6992 172.32 84.7159 172.234 84.7492 172.154C84.7826 172.074 84.832 172.002 84.8935 171.941L151.782 102.441C151.948 102.267 152.158 102.143 152.389 102.081C152.621 102.018 152.865 102.02 153.095 102.086L195.779 118.399C195.939 118.466 196.066 118.592 196.135 118.751C196.204 118.91 196.208 119.09 196.147 119.252C196.118 119.332 196.073 119.407 196.014 119.47C195.956 119.533 195.886 119.584 195.807 119.619C195.729 119.655 195.644 119.674 195.558 119.676C195.472 119.678 195.387 119.663 195.307 119.632L152.675 103.332L85.8125 172.832C85.6939 172.963 85.529 173.043 85.3527 173.055Z" fill="#E3E3E3"/>
        <path d="M47.5051 178.012C47.3565 178.006 47.2098 177.975 47.0716 177.92L44.13 176.806C43.9433 176.732 43.7773 176.614 43.6471 176.462C43.517 176.309 43.4264 176.127 43.3836 175.931C43.3407 175.735 43.347 175.532 43.4015 175.339C43.4561 175.146 43.5574 174.97 43.6965 174.826L82.296 134.948C82.4686 134.786 82.6817 134.674 82.9129 134.623C83.1441 134.573 83.3847 134.585 83.6094 134.66L85.9077 135.578C86.0921 135.652 86.2552 135.77 86.3836 135.921C86.5119 136.073 86.6012 136.253 86.6439 136.447C86.6866 136.641 86.6814 136.842 86.6285 137.033C86.5757 137.225 86.4768 137.4 86.3406 137.545L48.3721 177.632C48.1406 177.862 47.8313 177.997 47.5051 178.012ZM44.7341 175.639L47.5442 176.701L85.3293 136.719L83.1361 135.879L44.7341 175.639Z" fill="#E3E3E3"/>
        <path d="M61.1509 184.648C61.003 184.646 60.8564 184.619 60.7174 184.569L57.7752 183.454C57.5855 183.384 57.4176 183.266 57.2865 183.113C57.1554 182.959 57.0658 182.774 57.0268 182.576C56.9821 182.381 56.9863 182.179 57.039 181.987C57.0917 181.795 57.1913 181.619 57.3288 181.474L107.525 129.651C107.692 129.48 107.905 129.361 108.138 129.31C108.372 129.258 108.615 129.277 108.839 129.362L111.137 130.28C111.321 130.354 111.484 130.472 111.613 130.624C111.741 130.775 111.83 130.955 111.873 131.149C111.916 131.343 111.911 131.545 111.858 131.736C111.805 131.927 111.706 132.103 111.57 132.247L62.0307 184.267C61.9178 184.387 61.7812 184.483 61.6299 184.548C61.4786 184.614 61.3158 184.647 61.1509 184.648ZM58.3664 182.235L61.1772 183.31L110.533 131.368L108.339 130.542L58.3664 182.235Z" fill="#E3E3E3"/>
        <path d="M93.43 130.228C93.2818 130.229 93.1346 130.203 92.9965 130.149L90.0543 129.034C89.8635 128.964 89.6937 128.846 89.5605 128.693C89.4273 128.539 89.3351 128.354 89.2924 128.156C89.247 127.961 89.252 127.757 89.3072 127.564C89.3623 127.372 89.4661 127.196 89.6079 127.054L118.751 96.3168C118.916 96.1427 119.129 96.0222 119.363 95.9708C119.598 95.9193 119.842 95.9394 120.064 96.0284L122.363 96.9462C122.547 97.0186 122.711 97.135 122.839 97.2853C122.968 97.4356 123.057 97.6151 123.1 97.8081C123.143 98.001 123.138 98.2016 123.085 98.392C123.032 98.5825 122.933 98.7569 122.796 98.9001L94.2964 129.847C94.185 129.966 94.0509 130.061 93.902 130.126C93.753 130.191 93.5927 130.226 93.43 130.228ZM90.6584 127.854L93.4563 128.929L121.785 98.074L119.592 97.2478L90.6584 127.854Z" fill="#E3E3E3"/>
        <path d="M208.152 166.656C207.986 166.653 207.827 166.587 207.706 166.473C207.644 166.412 207.596 166.339 207.562 166.259C207.529 166.179 207.512 166.094 207.512 166.007C207.512 165.921 207.529 165.835 207.562 165.755C207.596 165.675 207.644 165.603 207.706 165.542L224.399 147.944C224.453 147.867 224.524 147.803 224.605 147.756C224.686 147.709 224.776 147.68 224.869 147.671C224.963 147.662 225.058 147.673 225.146 147.703C225.235 147.733 225.317 147.783 225.385 147.847C225.453 147.911 225.507 147.99 225.543 148.076C225.578 148.163 225.594 148.257 225.59 148.35C225.586 148.444 225.562 148.536 225.52 148.62C225.477 148.703 225.417 148.777 225.344 148.836L208.665 166.446C208.599 166.515 208.519 166.569 208.431 166.606C208.342 166.642 208.248 166.659 208.152 166.656Z" fill="#E3E3E3"/>
        <path d="M213.04 167.089C212.957 167.089 212.875 167.073 212.799 167.041C212.722 167.01 212.653 166.964 212.594 166.905C212.531 166.846 212.481 166.775 212.446 166.696C212.412 166.617 212.395 166.532 212.395 166.446C212.395 166.36 212.412 166.275 212.446 166.196C212.481 166.117 212.531 166.046 212.594 165.987L229.667 147.393C229.786 147.276 229.947 147.209 230.114 147.205C230.282 147.202 230.444 147.263 230.569 147.375C230.693 147.487 230.768 147.642 230.781 147.809C230.795 147.976 230.744 148.141 230.639 148.271L213.566 166.866C213.502 166.942 213.421 167.001 213.33 167.04C213.238 167.079 213.139 167.095 213.04 167.089Z" fill="#E3E3E3"/>
        <path d="M207.417 218.952C207.269 218.95 207.122 218.924 206.983 218.873L204.041 217.759C203.854 217.684 203.688 217.565 203.557 217.412C203.427 217.259 203.336 217.076 203.292 216.88C203.247 216.685 203.252 216.481 203.307 216.288C203.362 216.096 203.465 215.92 203.607 215.778L232.751 185.041C232.916 184.867 233.129 184.746 233.363 184.695C233.597 184.643 233.842 184.664 234.064 184.753L236.691 185.907C236.872 185.981 237.031 186.098 237.157 186.248C237.282 186.398 237.369 186.576 237.411 186.767C237.452 186.958 237.446 187.156 237.394 187.344C237.342 187.532 237.244 187.705 237.111 187.847L208.217 218.572C208.007 218.793 207.722 218.929 207.417 218.952ZM204.645 216.578L207.456 217.654L236.125 187.021L233.644 185.985L204.645 216.578Z" fill="#E3E3E3"/>
        <path d="M236.549 230.242C236.401 230.24 236.254 230.214 236.115 230.164L233.173 229.049C232.986 228.979 232.819 228.863 232.688 228.712C232.558 228.56 232.468 228.379 232.425 228.183C232.381 227.987 232.384 227.783 232.437 227.589C232.49 227.394 232.589 227.216 232.727 227.069L248.12 210.992C248.287 210.821 248.5 210.702 248.733 210.651C248.967 210.6 249.21 210.618 249.434 210.703L251.718 211.621C251.902 211.694 252.066 211.81 252.195 211.96C252.324 212.111 252.413 212.29 252.455 212.483C252.498 212.676 252.493 212.877 252.44 213.067C252.387 213.257 252.288 213.432 252.151 213.575L237.416 229.862C237.304 229.979 237.17 230.073 237.021 230.138C236.872 230.204 236.711 230.239 236.549 230.242ZM233.777 227.869L236.589 228.944L251.154 212.749L248.96 211.923L233.777 227.869Z" fill="#E3E3E3"/>
        <path d="M257.626 207.923C257.476 207.925 257.328 207.893 257.192 207.831L254.251 206.717C254.064 206.644 253.898 206.525 253.768 206.373C253.637 206.22 253.548 206.038 253.505 205.842C253.462 205.646 253.468 205.443 253.523 205.25C253.577 205.058 253.679 204.881 253.818 204.737L269.21 188.66C269.376 188.489 269.589 188.37 269.823 188.319C270.056 188.268 270.3 188.286 270.523 188.372L272.809 189.289C272.992 189.364 273.154 189.482 273.282 189.633C273.41 189.783 273.499 189.962 273.543 190.155C273.588 190.347 273.585 190.547 273.532 190.737C273.479 190.928 273.379 191.101 273.242 191.243L258.505 207.53C258.273 207.768 257.958 207.908 257.626 207.923ZM254.855 205.55L257.665 206.612L272.23 190.417L270.037 189.591L254.855 205.55Z" fill="#E3E3E3"/>
        <path d="M120.092 113.01C119.944 113.008 119.798 112.981 119.659 112.931L116.717 111.803C116.53 111.733 116.363 111.617 116.232 111.466C116.101 111.315 116.01 111.133 115.968 110.938C115.924 110.744 115.928 110.541 115.98 110.349C116.033 110.157 116.133 109.981 116.27 109.836L132.03 93.1562C132.203 92.9944 132.416 92.8822 132.647 92.8314C132.879 92.7806 133.119 92.7932 133.344 92.8677L135.629 93.7858C135.814 93.8577 135.978 93.9745 136.106 94.1256C136.235 94.2767 136.324 94.4572 136.365 94.6511C136.408 94.8424 136.404 95.0411 136.353 95.2306C136.303 95.42 136.208 95.5947 136.076 95.7396L120.998 112.616C120.759 112.86 120.434 113.001 120.092 113.01ZM117.321 110.636L120.131 111.698L135.025 94.9135L132.832 94.0873L117.321 110.636Z" fill="#E3E3E3"/>
        <path d="M54.2668 181.317C54.1174 181.318 53.9693 181.287 53.8333 181.225L50.8918 180.11C50.705 180.037 50.539 179.919 50.4089 179.766C50.2787 179.614 50.1881 179.431 50.1453 179.236C50.1025 179.04 50.1087 178.837 50.1633 178.644C50.2178 178.451 50.3192 178.275 50.4582 178.13L110.255 116.498C110.421 116.327 110.635 116.208 110.868 116.157C111.102 116.106 111.345 116.124 111.568 116.209L113.866 117.127C114.051 117.2 114.214 117.316 114.343 117.466C114.471 117.617 114.561 117.796 114.604 117.989C114.647 118.182 114.641 118.383 114.588 118.573C114.535 118.763 114.436 118.938 114.3 119.081L55.1992 180.923C55.0827 181.054 54.9385 181.157 54.7773 181.225C54.616 181.293 54.4417 181.324 54.2668 181.317ZM51.4958 178.943L54.3066 180.005L113.289 118.255L111.095 117.429L51.4958 178.943Z" fill="#E3E3E3"/>
        <path d="M197.579 231.448C194.283 231.448 191.695 229.954 191.695 228.039C191.695 226.124 194.322 224.629 197.579 224.629C200.836 224.629 203.463 226.124 203.463 228.039C203.463 229.954 200.81 231.448 197.579 231.448ZM197.579 225.941C194.887 225.941 193.009 227.042 193.009 228.039C193.009 229.036 194.887 230.137 197.579 230.137C200.271 230.137 202.149 229.036 202.149 228.039C202.149 227.042 200.206 225.941 197.579 225.941Z" fill="#E3E3E3"/>
        <path d="M229.482 241.415C226.186 241.415 223.598 239.92 223.598 238.005C223.598 236.091 226.225 234.596 229.482 234.596C232.739 234.596 235.365 236.091 235.365 238.005C235.365 239.92 232.779 241.415 229.482 241.415ZM229.482 235.907C226.79 235.907 224.911 237.009 224.911 238.005C224.911 239.002 226.79 240.103 229.482 240.103C232.174 240.103 234.052 239.002 234.052 238.005C234.052 237.009 232.174 235.907 229.482 235.907Z" fill="#E3E3E3"/>
        <path d="M164.234 91.9761C164.093 91.973 163.957 91.9248 163.846 91.8389C163.735 91.753 163.655 91.634 163.617 91.4989C163.578 91.3639 163.584 91.2201 163.634 91.0888C163.684 90.9576 163.774 90.8457 163.892 90.7696L252.871 37.5431L246.304 32.6648L154.108 86.7308C153.957 86.8187 153.779 86.8445 153.609 86.8029C153.44 86.7612 153.294 86.6554 153.202 86.5078C153.115 86.3561 153.091 86.1764 153.135 86.0073C153.179 85.8382 153.288 85.6932 153.438 85.6031L245.898 31.3929C246.032 31.3091 246.186 31.2646 246.344 31.2646C246.502 31.2646 246.657 31.3091 246.791 31.3929L254.172 36.8611C254.291 36.9388 254.388 37.0463 254.453 37.1728C254.517 37.2993 254.547 37.4405 254.54 37.5823C254.54 37.7306 254.501 37.8764 254.427 38.0052C254.353 38.134 254.247 38.2414 254.119 38.3167L164.575 91.8711C164.474 91.9382 164.355 91.9748 164.234 91.9761Z" fill="#E3E3E3"/>
        <path d="M263.812 42.6705L220.393 68.8969C220.36 68.913 220.331 68.9383 220.311 68.9696C220.292 69.0009 220.281 69.037 220.281 69.074C220.281 69.1109 220.292 69.1472 220.311 69.1785C220.331 69.2098 220.36 69.2349 220.393 69.251L228.574 74.3258C228.603 74.3389 228.635 74.3457 228.667 74.3457C228.698 74.3457 228.73 74.3389 228.759 74.3258L270.917 47.8109C270.947 47.7937 270.973 47.7688 270.99 47.7389C271.007 47.7089 271.016 47.675 271.016 47.6404C271.016 47.6059 271.007 47.5719 270.99 47.542C270.973 47.5121 270.947 47.4872 270.917 47.4699L263.996 42.6967C263.97 42.6776 263.94 42.6653 263.908 42.6607C263.876 42.6561 263.842 42.6594 263.812 42.6705Z" fill="#CE7783"/>
        <path d="M215.14 71.8734L178.721 93.3135C178.688 93.3296 178.659 93.3549 178.64 93.3862C178.62 93.4175 178.609 93.4536 178.609 93.4906C178.609 93.5275 178.62 93.5638 178.64 93.5951C178.659 93.6264 178.688 93.6515 178.721 93.6676L186.916 98.7424C186.944 98.7585 186.976 98.7671 187.008 98.7671C187.041 98.7671 187.072 98.7585 187.1 98.7424L222.245 77.0007C222.272 76.9813 222.294 76.9558 222.31 76.9261C222.325 76.8965 222.333 76.8636 222.333 76.8302C222.333 76.7969 222.325 76.7642 222.31 76.7345C222.294 76.7049 222.272 76.6792 222.245 76.6598L215.311 71.8865C215.285 71.8717 215.256 71.8627 215.227 71.8604C215.197 71.8582 215.168 71.8626 215.14 71.8734Z" fill="#CE7783"/>
        <path d="M224.623 74.47C224.527 74.4825 224.43 74.4825 224.335 74.47H224.217L216.06 69.4214C215.932 69.3588 215.823 69.2643 215.743 69.1472C215.662 69.03 215.613 68.8941 215.601 68.7526C215.587 68.5895 215.618 68.4257 215.693 68.2798C215.767 68.1338 215.881 68.0114 216.021 67.9265L259.44 41.7C259.571 41.6227 259.721 41.582 259.873 41.582C260.026 41.582 260.175 41.6227 260.307 41.7L267.294 46.5126C267.408 46.5889 267.502 46.6924 267.566 46.8137C267.63 46.9351 267.664 47.0704 267.662 47.2077C267.663 47.3595 267.623 47.5088 267.547 47.6402C267.471 47.7716 267.361 47.8803 267.229 47.955L225.162 74.3257C225.002 74.4291 224.813 74.4796 224.623 74.47ZM217.334 68.5429L224.636 73.0669L265.968 47.0634L259.873 42.854L217.334 68.5429Z" fill="#E3E3E3"/>
        <path d="M249.708 78.5353C249.598 78.5364 249.489 78.5091 249.393 78.4563C249.296 78.4035 249.214 78.3268 249.155 78.2336C249.061 78.0875 249.03 77.9102 249.067 77.7406C249.104 77.571 249.207 77.4229 249.353 77.3289L280.177 57.9475L274.07 53.7382L234.42 77.683C234.347 77.7367 234.264 77.7746 234.175 77.7944C234.086 77.8141 233.993 77.8152 233.904 77.7977C233.815 77.7802 233.731 77.7444 233.657 77.6926C233.582 77.6407 233.518 77.574 233.471 77.4966C233.423 77.4192 233.393 77.3328 233.381 77.2429C233.369 77.153 233.375 77.0614 233.4 76.9741C233.425 76.8869 233.468 76.8058 233.526 76.736C233.584 76.6661 233.656 76.609 233.738 76.5684L273.637 52.4662C273.77 52.3864 273.922 52.3442 274.077 52.3442C274.232 52.3442 274.384 52.3864 274.517 52.4662L281.49 57.2787C281.605 57.351 281.7 57.4518 281.765 57.5713C281.829 57.6908 281.861 57.8249 281.858 57.9606C281.861 58.1127 281.822 58.2626 281.745 58.3942C281.669 58.5259 281.558 58.6345 281.425 58.7081L250.115 78.4435C249.992 78.5157 249.85 78.5479 249.708 78.5353ZM280.728 58.3278H280.795H280.728Z" fill="#E3E3E3"/>
        <path d="M275.407 82.6788C275.295 82.6812 275.185 82.6533 275.087 82.5978C274.99 82.5424 274.91 82.4616 274.855 82.3641C274.809 82.2928 274.778 82.213 274.763 82.1295C274.748 82.0459 274.75 81.9603 274.768 81.8773C274.786 81.7944 274.82 81.7158 274.869 81.6464C274.918 81.5769 274.981 81.5179 275.053 81.4725L294.53 69.2117L288.422 65.0022L264.874 79.23C264.801 79.2838 264.717 79.3218 264.628 79.3416C264.539 79.3614 264.448 79.3625 264.359 79.345C264.27 79.3275 264.185 79.2917 264.11 79.2398C264.035 79.188 263.973 79.1211 263.925 79.0437C263.878 78.9663 263.846 78.8799 263.834 78.79C263.822 78.7001 263.828 78.6087 263.853 78.5214C263.878 78.4341 263.922 78.3529 263.98 78.2831C264.038 78.2132 264.109 78.1561 264.191 78.1155L287.989 63.6909C288.122 63.6138 288.274 63.5732 288.429 63.5732C288.583 63.5732 288.735 63.6138 288.869 63.6909L295.843 68.5035C295.959 68.578 296.053 68.6811 296.118 68.8028C296.182 68.9246 296.214 69.0609 296.21 69.1986C296.212 69.3491 296.175 69.4975 296.101 69.6288C296.027 69.7601 295.92 69.8695 295.791 69.9459L275.762 82.5477C275.657 82.6216 275.534 82.6667 275.407 82.6788Z" fill="#E3E3E3"/>
        <path d="M226.344 113.626C226.231 113.627 226.119 113.598 226.02 113.543C225.921 113.488 225.838 113.408 225.779 113.311C225.691 113.161 225.665 112.983 225.707 112.814C225.749 112.645 225.854 112.499 226.002 112.407L259.182 92.2826C259.255 92.237 259.337 92.2062 259.422 92.192C259.507 92.1779 259.594 92.1806 259.678 92.2C259.763 92.2195 259.843 92.2554 259.913 92.3055C259.983 92.3557 260.043 92.4191 260.089 92.4923C260.135 92.5655 260.165 92.647 260.179 92.7321C260.193 92.8172 260.19 92.9042 260.171 92.9882C260.151 93.0723 260.116 93.1516 260.066 93.2218C260.016 93.292 259.952 93.3516 259.879 93.3972L226.686 113.534C226.583 113.597 226.465 113.629 226.344 113.626Z" fill="#E3E3E3"/>
        <path d="M283.631 96.0676C283.519 96.0686 283.41 96.04 283.313 95.9847C283.216 95.9294 283.135 95.8494 283.079 95.7529C283.034 95.6808 283.004 95.6003 282.99 95.5162C282.975 95.4321 282.978 95.3461 282.997 95.2631C283.017 95.1801 283.053 95.1017 283.104 95.0327C283.154 94.9637 283.217 94.9054 283.29 94.8611L298.506 84.5878C298.58 84.543 298.663 84.5132 298.748 84.5002C298.834 84.4872 298.922 84.491 299.006 84.5117C299.09 84.5324 299.17 84.5695 299.24 84.6208C299.309 84.672 299.368 84.7366 299.413 84.8106C299.458 84.8846 299.487 84.9668 299.5 85.0523C299.513 85.1379 299.509 85.2252 299.488 85.3092C299.468 85.3932 299.431 85.4723 299.379 85.542C299.328 85.6117 299.264 85.6707 299.19 85.7155L283.986 95.9757C283.878 96.0368 283.755 96.0686 283.631 96.0676Z" fill="#E3E3E3"/>
        <path d="M322.874 149.045C322.732 149.045 322.595 148.999 322.482 148.914C322.368 148.829 322.285 148.71 322.246 148.574C322.206 148.439 322.21 148.294 322.26 148.161C322.309 148.029 322.4 147.916 322.519 147.839L334.785 140.128C334.858 140.083 334.94 140.052 335.025 140.038C335.11 140.024 335.197 140.026 335.282 140.046C335.366 140.065 335.446 140.101 335.516 140.151C335.587 140.201 335.646 140.265 335.692 140.338C335.738 140.411 335.769 140.493 335.783 140.578C335.797 140.663 335.794 140.75 335.774 140.834C335.755 140.918 335.719 140.997 335.669 141.067C335.619 141.138 335.555 141.197 335.482 141.243L323.215 148.94C323.116 149.012 322.996 149.049 322.874 149.045Z" fill="#E3E3E3"/>
        <path d="M339.777 168.361C339.664 168.359 339.554 168.329 339.455 168.274C339.357 168.219 339.273 168.141 339.213 168.046C339.123 167.897 339.095 167.72 339.134 167.551C339.174 167.383 339.277 167.235 339.423 167.141L351.559 159.601C351.631 159.554 351.713 159.521 351.798 159.506C351.884 159.491 351.972 159.493 352.056 159.513C352.141 159.532 352.221 159.569 352.291 159.62C352.361 159.671 352.42 159.736 352.464 159.811C352.511 159.883 352.544 159.963 352.559 160.047C352.574 160.132 352.572 160.219 352.553 160.302C352.533 160.386 352.496 160.464 352.445 160.533C352.394 160.602 352.328 160.66 352.254 160.703L340.119 168.256C340.018 168.322 339.898 168.358 339.777 168.361Z" fill="#E3E3E3"/>
        <path d="M342.929 157.044C342.819 157.045 342.71 157.018 342.614 156.965C342.517 156.913 342.436 156.836 342.378 156.743C342.332 156.67 342.301 156.588 342.286 156.503C342.272 156.418 342.275 156.331 342.294 156.247C342.314 156.163 342.35 156.083 342.401 156.013C342.451 155.943 342.514 155.883 342.588 155.838L348.222 152.402C348.372 152.312 348.551 152.284 348.721 152.326C348.891 152.368 349.037 152.476 349.128 152.625C349.218 152.775 349.246 152.954 349.205 153.124C349.163 153.293 349.054 153.439 348.904 153.53L343.284 156.952C343.176 157.013 343.053 157.045 342.929 157.044Z" fill="#E3E3E3"/>
        <path d="M326.722 57.1215C326.537 57.1205 326.355 57.0717 326.194 56.9798C326.033 56.8879 325.898 56.756 325.803 56.5969L319.459 46.2768C319.37 46.1272 319.317 45.9583 319.307 45.7842C319.296 45.6102 319.328 45.4363 319.399 45.277C319.47 45.1176 319.577 44.9774 319.713 44.8685C319.85 44.7595 320.01 44.6849 320.181 44.6508L381.134 33.1375C381.359 33.0966 381.591 33.1263 381.798 33.2226C382.006 33.3189 382.176 33.477 382.29 33.675L387.741 43.5887C387.815 43.742 387.853 43.9101 387.853 44.0804C387.853 44.2508 387.815 44.4189 387.741 44.5722C387.666 44.7225 387.559 44.8545 387.428 44.9587C387.296 45.063 387.142 45.1369 386.979 45.1753L326.906 57.1083L326.722 57.1215ZM320.747 45.8835L326.84 55.7839L386.44 43.982L381.187 34.5011L320.747 45.8835Z" fill="#E3E3E3"/>
        <path d="M350.835 98.6638C350.651 98.6618 350.469 98.6139 350.309 98.5246C350.148 98.4353 350.013 98.3074 349.915 98.1524L344.858 89.5894C344.813 89.5157 344.785 89.4338 344.773 89.3487C344.761 89.2635 344.765 89.1768 344.787 89.0937C344.809 89.0105 344.849 88.9326 344.901 88.8646C344.954 88.7966 345.02 88.7399 345.095 88.6978C345.243 88.6106 345.419 88.585 345.586 88.6267C345.753 88.6684 345.898 88.774 345.988 88.9206L350.953 97.3263L410.539 85.5243L393.715 55.9539L333.301 67.3757L337.11 73.8142C337.164 73.8883 337.201 73.9732 337.22 74.0629C337.239 74.1526 337.24 74.2453 337.221 74.335C337.202 74.4248 337.165 74.5096 337.111 74.5839C337.057 74.6583 336.988 74.7206 336.908 74.7668C336.829 74.8129 336.741 74.8418 336.649 74.8518C336.558 74.8617 336.466 74.8524 336.379 74.8244C336.291 74.7964 336.21 74.7503 336.141 74.6893C336.073 74.6282 336.018 74.5534 335.98 74.4698L332.04 67.769C331.959 67.6152 331.918 67.4442 331.918 67.2707C331.918 67.0971 331.959 66.9261 332.04 66.7724C332.112 66.6102 332.222 66.4681 332.362 66.3584C332.501 66.2487 332.667 66.1747 332.841 66.1429L393.794 54.6295C394.02 54.5857 394.254 54.6157 394.462 54.7148C394.67 54.8139 394.841 54.9771 394.95 55.1803L412.023 85.1571C412.101 85.3119 412.141 85.4825 412.141 85.6554C412.141 85.8284 412.101 85.999 412.023 86.1538C411.947 86.3055 411.838 86.4384 411.704 86.5427C411.57 86.6471 411.414 86.7202 411.249 86.7569L351.189 98.677C351.072 98.7098 350.948 98.7052 350.835 98.6638Z" fill="#E3E3E3"/>
        <path d="M371.966 139.393C371.781 139.395 371.599 139.349 371.438 139.259C371.276 139.17 371.142 139.039 371.046 138.882L353.08 108.459C353 108.306 352.957 108.135 352.957 107.961C352.957 107.787 353 107.616 353.08 107.463C353.152 107.301 353.262 107.158 353.402 107.049C353.542 106.939 353.706 106.865 353.88 106.833L414.833 95.3198C415.059 95.2782 415.292 95.309 415.5 95.4079C415.708 95.5068 415.879 95.6688 415.989 95.8707L433.062 125.861C433.14 126.013 433.18 126.181 433.18 126.352C433.18 126.523 433.14 126.692 433.062 126.844C432.99 126.999 432.883 127.134 432.748 127.239C432.613 127.344 432.455 127.415 432.288 127.447L422.884 129.309C422.799 129.327 422.712 129.327 422.627 129.311C422.543 129.294 422.462 129.261 422.39 129.214C422.318 129.166 422.256 129.105 422.208 129.034C422.16 128.963 422.126 128.882 422.109 128.798C422.078 128.626 422.116 128.449 422.214 128.304C422.312 128.16 422.464 128.059 422.635 128.024L431.723 126.228L414.899 96.6443L354.485 108.066L372.189 138.056L397.392 133.047C397.477 133.03 397.565 133.03 397.651 133.047C397.736 133.064 397.817 133.098 397.889 133.147C397.961 133.196 398.024 133.258 398.071 133.331C398.119 133.404 398.152 133.486 398.167 133.571C398.187 133.655 398.187 133.742 398.171 133.826C398.156 133.91 398.123 133.991 398.075 134.062C398.027 134.133 397.965 134.194 397.893 134.24C397.821 134.287 397.739 134.318 397.654 134.332L372.28 139.38L371.966 139.393Z" fill="#E3E3E3"/>
        <path d="M393.388 179.494C393.203 179.491 393.021 179.443 392.858 179.353C392.696 179.264 392.558 179.137 392.455 178.983L374.502 148.56C374.421 148.406 374.379 148.235 374.379 148.062C374.379 147.888 374.421 147.717 374.502 147.563C374.573 147.403 374.682 147.262 374.819 147.152C374.956 147.042 375.117 146.968 375.29 146.934L436.256 135.421C436.479 135.377 436.71 135.405 436.916 135.502C437.121 135.598 437.29 135.758 437.398 135.958L440.957 142.226C440.999 142.3 441.027 142.382 441.038 142.467C441.048 142.551 441.042 142.637 441.02 142.719C440.997 142.801 440.958 142.878 440.906 142.945C440.853 143.013 440.789 143.069 440.715 143.111C440.64 143.154 440.558 143.181 440.473 143.192C440.389 143.202 440.303 143.196 440.221 143.173C440.138 143.151 440.061 143.112 439.994 143.06C439.926 143.008 439.871 142.943 439.828 142.869L436.335 136.745L375.921 148.167L393.638 178.157L453.225 166.355L447.774 156.782C447.689 156.631 447.667 156.452 447.714 156.285C447.76 156.117 447.873 155.976 448.024 155.89C448.099 155.846 448.18 155.818 448.266 155.807C448.352 155.796 448.439 155.802 448.523 155.825C448.606 155.848 448.685 155.888 448.752 155.942C448.82 155.996 448.876 156.063 448.917 156.139L454.524 165.987C454.601 166.142 454.642 166.313 454.642 166.486C454.642 166.659 454.601 166.829 454.524 166.984C454.45 167.138 454.343 167.272 454.208 167.377C454.074 167.481 453.916 167.553 453.749 167.587L393.691 179.52L393.388 179.494Z" fill="#E3E3E3"/>
        <path d="M413.942 58.7735C413.631 58.7717 413.326 58.6929 413.053 58.5441C412.78 58.3954 412.548 58.1812 412.378 57.9211L409.029 52.6758C408.867 52.4309 408.766 52.1501 408.736 51.8577C408.706 51.5652 408.749 51.27 408.859 50.9974C408.963 50.7244 409.129 50.4799 409.346 50.2838C409.563 50.0878 409.824 49.9459 410.107 49.8697L451.082 38.6447C451.466 38.5409 451.875 38.5626 452.246 38.7065C452.617 38.8504 452.931 39.109 453.145 39.4446L456.35 44.4408C456.511 44.6837 456.611 44.9622 456.641 45.2524C456.671 45.5426 456.629 45.8355 456.52 46.1061C456.419 46.38 456.255 46.6264 456.041 46.8246C455.826 47.0229 455.567 47.1677 455.285 47.2471L414.453 58.6818C414.287 58.7318 414.115 58.7625 413.942 58.7735ZM451.568 39.9167H451.425L410.448 51.1417C410.364 51.161 410.287 51.2012 410.222 51.2585C410.158 51.3158 410.109 51.3884 410.08 51.4695C410.041 51.5467 410.021 51.632 410.021 51.7186C410.021 51.8052 410.041 51.8906 410.08 51.9678L413.429 57.2131C413.496 57.3094 413.592 57.3833 413.702 57.4254C413.812 57.4674 413.932 57.4756 414.047 57.4491L454.879 46.0012C454.962 45.9798 455.038 45.9388 455.102 45.8818C455.166 45.8248 455.216 45.7533 455.247 45.6734C455.286 45.5962 455.306 45.5109 455.306 45.4243C455.306 45.3377 455.286 45.2523 455.247 45.1751L452.042 40.179C451.993 40.0976 451.923 40.0303 451.84 39.9842C451.757 39.9382 451.663 39.9149 451.568 39.9167Z" fill="#E3E3E3"/>
        <path d="M400.728 35.4579C400.416 35.4558 400.11 35.3756 399.837 35.2244C399.564 35.0732 399.333 34.8559 399.166 34.5926L397.59 32.1535C397.429 31.908 397.328 31.6279 397.296 31.3362C397.264 31.0445 397.302 30.7495 397.406 30.475C397.519 30.1956 397.696 29.9471 397.925 29.7508C398.153 29.5545 398.426 29.4162 398.72 29.3473L439.695 18.1223C440.081 18.0175 440.492 18.0386 440.865 18.1825C441.238 18.3263 441.555 18.5855 441.77 18.9222L443.202 21.1384C443.357 21.3838 443.454 21.6619 443.484 21.9509C443.513 22.2399 443.476 22.532 443.373 22.8038C443.266 23.0875 443.09 23.3401 442.86 23.5392C442.631 23.7383 442.356 23.8776 442.06 23.9446L401.241 35.3793C401.075 35.431 400.902 35.4575 400.728 35.4579ZM440.129 19.3681H439.985L399.008 30.593C398.925 30.6144 398.849 30.6554 398.785 30.7124C398.721 30.7694 398.671 30.8409 398.64 30.9208C398.599 30.9973 398.577 31.0831 398.577 31.17C398.577 31.257 398.599 31.3426 398.64 31.4191L400.217 33.8582C400.28 33.9588 400.375 34.0362 400.486 34.0787C400.597 34.1213 400.719 34.1268 400.833 34.0943L441.652 22.6596C441.737 22.6368 441.814 22.5938 441.878 22.5344C441.942 22.475 441.991 22.401 442.02 22.3186C442.062 22.2421 442.083 22.1564 442.083 22.0694C442.083 21.9824 442.062 21.8968 442.02 21.8203L440.549 19.6303C440.502 19.5588 440.441 19.4984 440.368 19.4531C440.296 19.4078 440.213 19.3789 440.129 19.3681Z" fill="#E3E3E3"/>
        <path d="M459.831 45.5553C459.52 45.5558 459.214 45.4779 458.941 45.3289C458.668 45.1799 458.437 44.9646 458.269 44.7029L454.92 39.4576C454.757 39.2127 454.656 38.9319 454.627 38.6394C454.597 38.347 454.638 38.0516 454.748 37.779C454.859 37.4984 455.036 37.249 455.265 37.0525C455.494 36.8559 455.767 36.7181 456.062 36.6513L462.786 34.9597C463.169 34.8568 463.574 34.8791 463.943 35.023C464.312 35.167 464.625 35.4252 464.836 35.7597L468.04 40.7558C468.196 41.0005 468.293 41.2785 468.323 41.5673C468.353 41.8562 468.315 42.1479 468.211 42.4192C468.108 42.6906 467.942 42.9341 467.728 43.1303C467.514 43.3264 467.256 43.4697 466.976 43.5489L460.41 45.4634C460.221 45.5174 460.027 45.5483 459.831 45.5553ZM463.207 36.2318H463.049L456.312 37.9889C456.232 38.0131 456.158 38.0552 456.096 38.112C456.035 38.1688 455.988 38.2388 455.958 38.3167C455.919 38.3939 455.898 38.4792 455.898 38.5658C455.898 38.6524 455.919 38.7378 455.958 38.815L459.307 44.0603C459.372 44.1594 459.466 44.2355 459.577 44.2779C459.688 44.3202 459.809 44.3268 459.924 44.2964L466.49 42.3818C466.573 42.3603 466.649 42.3194 466.713 42.2624C466.777 42.2054 466.828 42.1339 466.858 42.054C466.898 41.9767 466.917 41.8915 466.917 41.8049C466.917 41.7183 466.898 41.6329 466.858 41.5556L463.653 36.5596C463.616 36.4697 463.555 36.3916 463.476 36.3339C463.398 36.2761 463.304 36.2408 463.207 36.2318Z" fill="#E3E3E3"/>
        <path d="M420.48 71.8867C420.169 71.8872 419.863 71.8095 419.59 71.6605C419.317 71.5116 419.086 71.2961 418.918 71.0343L415.555 65.789C415.398 65.5416 415.301 65.2613 415.271 64.9699C415.242 64.6786 415.28 64.3845 415.384 64.1107C415.496 63.8312 415.675 63.5828 415.904 63.3865C416.132 63.1902 416.404 63.0519 416.698 62.9829L457.662 51.7579C458.048 51.6553 458.456 51.6773 458.829 51.821C459.201 51.9647 459.52 52.2227 459.737 52.5578L462.941 57.5541C463.097 57.8007 463.193 58.0804 463.221 58.3707C463.25 58.6611 463.212 58.9542 463.107 59.2267C463.003 59.4991 462.836 59.7435 462.62 59.9403C462.404 60.1371 462.146 60.281 461.865 60.3603L421.046 71.795C420.864 71.8569 420.672 71.8878 420.48 71.8867ZM458.108 53.0299H457.963L416.986 64.2549C416.903 64.2764 416.827 64.3173 416.763 64.3743C416.699 64.4313 416.65 64.5028 416.619 64.5827C416.578 64.6593 416.557 64.7448 416.557 64.8318C416.557 64.9188 416.578 65.0045 416.619 65.081L419.968 70.3263C420.033 70.4254 420.128 70.5015 420.239 70.5439C420.35 70.5862 420.47 70.5927 420.585 70.5623L461.404 59.1144C461.488 59.0951 461.566 59.0549 461.63 58.9976C461.694 58.9403 461.743 58.8677 461.772 58.7866C461.811 58.7094 461.831 58.6241 461.831 58.5375C461.831 58.451 461.811 58.3655 461.772 58.2883L458.554 53.2923C458.51 53.2129 458.445 53.1466 458.367 53.1005C458.288 53.0544 458.199 53.03 458.108 53.0299Z" fill="#E3E3E3"/>
        <path d="M445.803 128.339C445.492 128.337 445.187 128.258 444.914 128.11C444.641 127.961 444.409 127.747 444.239 127.487L440.878 122.241C440.722 121.994 440.625 121.713 440.596 121.422C440.566 121.131 440.604 120.837 440.707 120.563C440.817 120.282 440.995 120.033 441.224 119.836C441.453 119.64 441.726 119.502 442.021 119.435L494.266 105.234C494.65 105.132 495.056 105.154 495.427 105.298C495.797 105.442 496.112 105.699 496.327 106.033L499.532 111.029C499.688 111.275 499.785 111.554 499.814 111.844C499.844 112.133 499.806 112.426 499.703 112.698C499.599 112.971 499.435 113.215 499.22 113.412C499.006 113.61 498.748 113.755 498.468 113.836L446.394 128.26C446.203 128.32 446.003 128.347 445.803 128.339ZM494.685 106.505H494.542L442.309 120.694C442.225 120.717 442.147 120.76 442.083 120.819C442.019 120.879 441.97 120.953 441.941 121.035C441.903 121.112 441.883 121.198 441.883 121.284C441.883 121.371 441.903 121.456 441.941 121.533L445.304 126.778C445.367 126.879 445.462 126.957 445.573 126.999C445.685 127.042 445.806 127.047 445.921 127.015L498.008 112.59C498.091 112.569 498.168 112.528 498.232 112.471C498.296 112.414 498.346 112.342 498.376 112.262C498.412 112.184 498.43 112.099 498.43 112.013C498.43 111.927 498.412 111.842 498.376 111.764L495.171 106.768C495.116 106.677 495.036 106.604 494.94 106.557C494.845 106.511 494.738 106.493 494.633 106.505H494.685Z" fill="#E3E3E3"/>
        <path d="M452.818 139.84C452.506 139.838 452.2 139.757 451.927 139.606C451.654 139.455 451.423 139.238 451.256 138.974L447.906 133.729C447.744 133.484 447.644 133.203 447.612 132.911C447.581 132.619 447.619 132.324 447.724 132.05C447.829 131.775 447.997 131.53 448.217 131.334C448.436 131.138 448.699 130.997 448.984 130.923L501.216 116.721C501.6 116.615 502.008 116.636 502.379 116.78C502.751 116.924 503.065 117.184 503.277 117.521L506.482 122.517C506.641 122.761 506.739 123.04 506.768 123.329C506.798 123.619 506.759 123.911 506.653 124.182C506.554 124.456 506.39 124.702 506.174 124.898C505.959 125.095 505.7 125.236 505.418 125.31L453.331 139.735C453.167 139.795 452.993 139.831 452.818 139.84ZM501.701 118.006H501.557L449.325 132.195C449.241 132.219 449.165 132.263 449.102 132.322C449.038 132.381 448.989 132.454 448.958 132.536C448.916 132.61 448.894 132.693 448.894 132.778C448.894 132.863 448.916 132.947 448.958 133.021L452.307 138.266C452.37 138.367 452.465 138.444 452.576 138.487C452.687 138.529 452.809 138.535 452.924 138.502L505.011 124.078C505.093 124.053 505.168 124.011 505.232 123.955C505.295 123.898 505.346 123.828 505.379 123.75C505.419 123.673 505.438 123.587 505.438 123.5C505.438 123.414 505.419 123.329 505.379 123.251L502.174 118.255C502.127 118.171 502.059 118.101 501.975 118.053C501.892 118.005 501.797 117.979 501.701 117.98V118.006Z" fill="#E3E3E3"/>
        <path d="M459.831 151.602C459.52 151.603 459.214 151.525 458.941 151.376C458.668 151.227 458.437 151.012 458.269 150.75L454.92 145.505C454.757 145.26 454.656 144.979 454.627 144.686C454.597 144.394 454.638 144.099 454.748 143.826C454.859 143.545 455.036 143.296 455.265 143.099C455.494 142.903 455.767 142.765 456.062 142.698L508.294 128.51C508.677 128.4 509.085 128.418 509.456 128.56C509.828 128.702 510.145 128.96 510.357 129.297L513.561 134.306C513.723 134.548 513.824 134.827 513.854 135.117C513.884 135.408 513.841 135.701 513.731 135.971C513.629 136.243 513.465 136.487 513.25 136.684C513.036 136.88 512.778 137.022 512.497 137.099L460.41 151.523C460.221 151.574 460.026 151.601 459.831 151.602ZM508.728 129.782H508.57L456.312 143.996C456.228 144.016 456.15 144.056 456.086 144.113C456.022 144.171 455.972 144.243 455.944 144.324C455.905 144.402 455.885 144.487 455.885 144.574C455.885 144.66 455.905 144.745 455.944 144.823L459.293 150.068C459.36 150.164 459.456 150.238 459.566 150.28C459.676 150.322 459.796 150.331 459.911 150.304L511.998 135.879C512.082 135.855 512.158 135.811 512.222 135.752C512.285 135.693 512.334 135.62 512.365 135.539C512.403 135.463 512.423 135.38 512.423 135.296C512.423 135.212 512.403 135.129 512.365 135.053L509.161 130.044C509.115 129.969 509.052 129.906 508.977 129.86C508.901 129.815 508.816 129.788 508.728 129.782Z" fill="#E3E3E3"/>
        <path d="M467.078 163.168C466.768 163.166 466.462 163.087 466.19 162.939C465.917 162.79 465.685 162.576 465.515 162.316L462.166 157.071C462.003 156.826 461.902 156.545 461.872 156.252C461.843 155.96 461.885 155.665 461.996 155.392C462.106 155.111 462.284 154.862 462.512 154.665C462.741 154.469 463.015 154.331 463.309 154.264L515.54 140.076C515.923 139.966 516.332 139.984 516.703 140.126C517.075 140.268 517.39 140.526 517.603 140.863L520.808 145.859C520.97 146.103 521.071 146.382 521.104 146.674C521.137 146.965 521.099 147.26 520.995 147.534C520.891 147.808 520.724 148.053 520.506 148.25C520.289 148.447 520.027 148.589 519.743 148.665L467.656 163.09C467.467 163.14 467.274 163.167 467.078 163.168ZM515.974 141.348H515.816L463.585 155.536C463.502 155.561 463.425 155.605 463.362 155.665C463.298 155.724 463.25 155.797 463.219 155.878C463.189 155.959 463.177 156.046 463.186 156.133C463.195 156.219 463.223 156.302 463.269 156.376L466.618 161.621C466.685 161.718 466.781 161.791 466.891 161.831C467.002 161.871 467.123 161.875 467.236 161.844L519.324 147.419C519.407 147.394 519.482 147.35 519.546 147.291C519.609 147.232 519.658 147.159 519.688 147.077C519.719 146.996 519.73 146.909 519.721 146.823C519.713 146.737 519.684 146.654 519.638 146.58L516.434 141.584C516.383 141.51 516.313 141.45 516.233 141.409C516.153 141.368 516.064 141.347 515.974 141.348Z" fill="#E3E3E3"/>
        <path d="M466.371 58.6685C466.06 58.6728 465.751 58.5965 465.478 58.4471C465.204 58.2978 464.973 58.0805 464.808 57.8161L461.446 52.5708C461.29 52.3242 461.194 52.0445 461.166 51.7542C461.137 51.4638 461.175 51.1707 461.28 50.8982C461.384 50.6258 461.551 50.3814 461.767 50.1846C461.983 49.9878 462.243 49.844 462.524 49.7646L469.247 48.0729C469.631 47.9691 470.039 47.9908 470.41 48.1347C470.781 48.2787 471.096 48.5374 471.309 48.873L474.515 53.869C474.67 54.1145 474.766 54.3927 474.795 54.6817C474.825 54.9707 474.788 55.2626 474.685 55.5344C474.584 55.8071 474.419 56.0517 474.204 56.2479C473.989 56.4441 473.731 56.5861 473.45 56.6622L466.883 58.5766C466.718 58.633 466.546 58.664 466.371 58.6685ZM469.733 49.345H469.589L462.878 51.1022C462.797 51.1245 462.723 51.166 462.661 51.223C462.599 51.2801 462.552 51.351 462.524 51.43C462.485 51.5072 462.463 51.5925 462.463 51.6791C462.463 51.7657 462.485 51.8511 462.524 51.9283L465.885 57.1736C465.947 57.2759 466.042 57.3546 466.153 57.3974C466.265 57.4401 466.388 57.4445 466.502 57.4097L473.069 55.4951C473.151 55.4749 473.228 55.4343 473.29 55.3769C473.352 55.3196 473.398 55.2474 473.424 55.1672C473.464 55.09 473.483 55.0047 473.483 54.9182C473.483 54.8316 473.464 54.7461 473.424 54.6689L470.219 49.6729C470.177 49.5781 470.11 49.4972 470.024 49.4392C469.938 49.3812 469.837 49.3485 469.733 49.345Z" fill="#E3E3E3"/>
        <path d="M427.269 84.1871C426.956 84.1874 426.648 84.1096 426.373 83.9607C426.098 83.8119 425.865 83.5966 425.694 83.3347L422.344 78.0894C422.185 77.8434 422.087 77.5636 422.057 77.2724C422.027 76.9812 422.065 76.6869 422.17 76.4136C422.275 76.1402 422.444 75.8954 422.661 75.699C422.878 75.5026 423.139 75.3601 423.422 75.2831L464.398 64.0583C464.783 63.9545 465.189 63.9762 465.56 64.1201C465.931 64.264 466.247 64.5226 466.461 64.8582L469.665 69.8544C469.823 70.0986 469.922 70.3769 469.952 70.6665C469.982 70.956 469.941 71.2484 469.835 71.5196C469.736 71.7934 469.573 72.0392 469.358 72.2357C469.143 72.4321 468.883 72.5735 468.601 72.6475L427.768 84.0954C427.606 84.1445 427.439 84.1752 427.269 84.1871ZM464.897 65.3302H464.74L423.763 76.5421C423.68 76.5672 423.604 76.6111 423.541 76.6703C423.477 76.7296 423.428 76.8027 423.397 76.8839C423.367 76.9651 423.356 77.0523 423.365 77.1386C423.374 77.2248 423.402 77.3079 423.449 77.3814L426.81 82.6267C426.873 82.7239 426.967 82.7981 427.076 82.8383C427.184 82.8785 427.303 82.8823 427.414 82.8495L468.246 71.4148C468.33 71.3901 468.407 71.3465 468.47 71.2874C468.534 71.2282 468.583 71.1551 468.614 71.0738C468.652 70.9986 468.672 70.9156 468.672 70.8313C468.672 70.7471 468.652 70.6639 468.614 70.5887L465.409 65.5795C465.354 65.4953 465.279 65.4276 465.188 65.3837C465.098 65.3398 464.997 65.3213 464.897 65.3302Z" fill="#E3E3E3"/>
        <path d="M437.111 112.499C436.8 112.497 436.495 112.418 436.222 112.269C435.949 112.12 435.718 111.906 435.549 111.646L434.038 109.942C433.862 109.698 433.746 109.416 433.703 109.119C433.66 108.822 433.69 108.519 433.789 108.236C433.888 107.952 434.054 107.697 434.274 107.492C434.493 107.286 434.759 107.137 435.048 107.057L476.025 95.8317C476.409 95.7279 476.817 95.7496 477.188 95.8935C477.559 96.0374 477.874 96.296 478.087 96.6316L479.401 98.1003C479.582 98.351 479.698 98.6427 479.739 98.9493C479.781 99.2559 479.746 99.5679 479.637 99.8576C479.536 100.132 479.372 100.378 479.157 100.576C478.943 100.774 478.684 100.919 478.403 100.998L437.571 112.433C437.422 112.476 437.266 112.498 437.111 112.499ZM476.511 97.0776H476.366L435.391 108.302C435.308 108.324 435.23 108.365 435.166 108.422C435.102 108.479 435.053 108.55 435.023 108.63C434.983 108.707 434.962 108.793 434.962 108.879C434.962 108.966 434.983 109.051 435.023 109.129L436.546 110.833C436.607 110.953 436.706 111.048 436.827 111.105C436.949 111.162 437.085 111.177 437.216 111.148L478.048 99.7002C478.131 99.6788 478.208 99.6377 478.272 99.5807C478.336 99.5236 478.385 99.4523 478.416 99.3724C478.455 99.2952 478.475 99.2097 478.475 99.1232C478.475 99.0366 478.455 98.9513 478.416 98.8741L477.102 97.4054C477.041 97.3043 476.953 97.2207 476.85 97.1632C476.746 97.1057 476.63 97.0763 476.511 97.0776Z" fill="#E3E3E3"/>
        <path d="M473.148 70.9688C472.837 70.967 472.531 70.888 472.258 70.7393C471.985 70.5905 471.754 70.3765 471.585 70.1164L468.236 64.8711C468.077 64.6252 467.978 64.3452 467.947 64.054C467.917 63.7628 467.957 63.4687 468.062 63.1953C468.166 62.922 468.334 62.6772 468.551 62.4808C468.769 62.2844 469.03 62.1418 469.313 62.0649L476.037 60.3732C476.417 60.2691 476.822 60.2893 477.191 60.4309C477.559 60.5724 477.873 60.828 478.086 61.1602L481.29 66.1693C481.446 66.4141 481.544 66.6919 481.573 66.9808C481.603 67.2696 481.565 67.5614 481.462 67.8328C481.358 68.1042 481.193 68.3477 480.978 68.5439C480.764 68.74 480.507 68.8833 480.227 68.9625L473.66 70.8769C473.493 70.926 473.322 70.9568 473.148 70.9688ZM476.51 61.6453H476.365L469.642 63.35C469.561 63.3723 469.485 63.4138 469.424 63.4708C469.362 63.5279 469.315 63.5988 469.286 63.6778C469.247 63.755 469.227 63.8405 469.227 63.927C469.227 64.0136 469.247 64.0989 469.286 64.1761L472.635 69.4214C472.702 69.5181 472.798 69.5916 472.908 69.6316C473.019 69.6715 473.14 69.6761 473.253 69.6444L479.82 67.7429C479.904 67.7182 479.98 67.6746 480.043 67.6154C480.107 67.5563 480.156 67.4834 480.187 67.4021C480.225 67.3269 480.245 67.2437 480.245 67.1594C480.245 67.0751 480.225 66.9921 480.187 66.9169L476.983 61.9075C476.94 61.8172 476.874 61.7402 476.791 61.6847C476.707 61.6293 476.61 61.5975 476.51 61.5928V61.6453Z" fill="#E3E3E3"/>
        <path d="M156.473 224.197C156.321 224.197 156.169 224.17 156.026 224.118L133.45 216.382L129.943 218.27C129.868 218.311 129.786 218.337 129.701 218.346C129.616 218.355 129.53 218.347 129.448 218.323C129.366 218.299 129.29 218.258 129.224 218.204C129.158 218.15 129.103 218.083 129.063 218.008C128.978 217.856 128.957 217.678 129.004 217.51C129.05 217.343 129.161 217.201 129.313 217.116L132.74 215.241C132.915 215.148 133.106 215.093 133.302 215.077C133.499 215.061 133.697 215.086 133.883 215.149L156.447 222.873L166.743 217.129V201.393L77.2778 178.104L66.6793 183.638L65.6417 200.37L72.2873 208.435C72.3962 208.569 72.4476 208.741 72.4303 208.913C72.4131 209.085 72.3283 209.243 72.195 209.353C72.13 209.409 72.0549 209.452 71.9731 209.478C71.8913 209.505 71.8049 209.515 71.7192 209.507C71.6335 209.5 71.5496 209.476 71.4736 209.436C71.3975 209.396 71.3305 209.341 71.276 209.274L64.7093 201.275C64.4828 200.999 64.3698 200.648 64.3938 200.292L65.3788 183.625C65.3952 183.385 65.4729 183.153 65.6039 182.951C65.7349 182.749 65.9152 182.584 66.1278 182.471L76.6346 176.95C76.9403 176.785 77.2989 176.747 77.6324 176.845L167.045 200.042C167.338 200.117 167.598 200.286 167.786 200.523C167.973 200.76 168.078 201.052 168.083 201.354V217.09C168.084 217.338 168.019 217.581 167.894 217.796C167.77 218.01 167.59 218.188 167.374 218.309L157.156 224.053C156.944 224.157 156.709 224.207 156.473 224.197Z" fill="#E3E3E3"/>
        <path d="M107.852 252.6C107.646 252.6 107.442 252.554 107.255 252.465C107.069 252.377 106.905 252.248 106.774 252.089L85.6429 226.557C85.5314 226.422 85.4781 226.247 85.4954 226.073C85.5126 225.898 85.5987 225.737 85.7346 225.626C85.8704 225.515 86.0451 225.462 86.22 225.479C86.3949 225.496 86.5555 225.582 86.667 225.718L107.786 251.263L115.85 247.053V230.99L113.736 227.226C113.638 227.066 113.576 226.888 113.553 226.702C113.531 226.517 113.548 226.329 113.604 226.151C113.654 225.973 113.74 225.808 113.855 225.664C113.97 225.52 114.112 225.4 114.274 225.311L119.527 222.44C119.68 222.356 119.861 222.337 120.028 222.386C120.196 222.435 120.337 222.549 120.42 222.702C120.504 222.855 120.523 223.035 120.474 223.202C120.425 223.369 120.311 223.51 120.157 223.594L114.904 226.465L116.979 230.308C117.098 230.516 117.161 230.75 117.163 230.99V246.974C117.163 247.229 117.093 247.478 116.961 247.695C116.829 247.913 116.641 248.09 116.415 248.207L108.456 252.443C108.268 252.538 108.062 252.592 107.852 252.6Z" fill="#E3E3E3"/>
        <path d="M107.669 252.797C107.583 252.797 107.498 252.78 107.419 252.747C107.34 252.714 107.269 252.665 107.209 252.604C107.149 252.543 107.102 252.471 107.07 252.391C107.039 252.312 107.023 252.227 107.025 252.141L107.209 235.553L65.5499 183.612C65.4402 183.475 65.3884 183.301 65.4056 183.127C65.4228 182.953 65.5074 182.793 65.6416 182.68C65.781 182.576 65.9555 182.528 66.1289 182.548C66.3023 182.567 66.4614 182.652 66.574 182.785L108.522 235.107L108.338 252.154C108.331 252.327 108.258 252.491 108.133 252.61C108.008 252.73 107.842 252.797 107.669 252.797Z" fill="#E3E3E3"/>
        <path d="M107.85 235.999C107.731 235.998 107.614 235.964 107.512 235.902C107.41 235.839 107.328 235.75 107.273 235.644C107.232 235.569 107.206 235.486 107.198 235.401C107.19 235.315 107.199 235.229 107.225 235.147C107.25 235.065 107.292 234.989 107.348 234.924C107.403 234.858 107.472 234.805 107.548 234.766L116.256 230.229C116.409 230.15 116.587 230.135 116.752 230.186C116.917 230.238 117.055 230.352 117.136 230.504C117.215 230.659 117.231 230.839 117.179 231.006C117.128 231.172 117.013 231.312 116.86 231.396L108.153 235.92C108.06 235.972 107.956 235.999 107.85 235.999Z" fill="#E3E3E3"/>
        <path d="M113.987 226.898C113.893 226.897 113.799 226.877 113.714 226.839C113.628 226.8 113.551 226.745 113.488 226.675L104.176 215.883L132.518 199.085L158.181 205.838L157.222 223.607C157.225 223.695 157.208 223.784 157.173 223.865C157.138 223.947 157.085 224.019 157.019 224.078C156.952 224.137 156.874 224.181 156.789 224.206C156.703 224.231 156.614 224.237 156.526 224.223C156.353 224.21 156.192 224.13 156.077 224C155.962 223.87 155.901 223.701 155.909 223.528L156.815 206.835L132.741 200.475L106.212 216.211L114.499 225.823C114.579 225.918 114.629 226.034 114.645 226.157C114.662 226.28 114.642 226.406 114.59 226.518C114.538 226.631 114.455 226.726 114.35 226.794C114.246 226.861 114.124 226.897 114 226.898H113.987Z" fill="#E3E3E3"/>
        <path d="M157.482 207.005C157.339 207.004 157.2 206.956 157.087 206.868C156.973 206.78 156.892 206.658 156.854 206.52C156.817 206.382 156.827 206.235 156.881 206.103C156.935 205.97 157.031 205.859 157.154 205.786L167.122 200.2C167.197 200.156 167.279 200.127 167.365 200.116C167.451 200.105 167.538 200.111 167.622 200.135C167.705 200.158 167.783 200.198 167.85 200.252C167.918 200.306 167.974 200.373 168.015 200.449C168.1 200.6 168.122 200.779 168.075 200.946C168.028 201.113 167.917 201.255 167.765 201.34L157.797 206.927C157.7 206.979 157.592 207.006 157.482 207.005Z" fill="#E3E3E3"/>
        <path d="M133.358 216.329C133.188 216.329 133.025 216.264 132.903 216.146C132.78 216.029 132.708 215.869 132.701 215.699L131.966 199.859C131.961 199.772 131.974 199.686 132.003 199.605C132.032 199.524 132.077 199.449 132.135 199.385C132.193 199.321 132.263 199.27 132.341 199.233C132.419 199.196 132.503 199.175 132.59 199.17C132.676 199.166 132.762 199.179 132.843 199.208C132.924 199.237 133 199.281 133.064 199.339C133.128 199.397 133.179 199.467 133.216 199.545C133.253 199.623 133.275 199.707 133.279 199.793L134.001 215.647C134.006 215.732 133.995 215.818 133.966 215.899C133.938 215.98 133.894 216.054 133.836 216.118C133.779 216.181 133.709 216.233 133.632 216.269C133.554 216.305 133.47 216.326 133.384 216.329H133.358Z" fill="#E3E3E3"/>
        <path d="M99.5249 211.241L77.4609 183.861L124.597 196.62L99.5249 211.241ZM81.0201 186.169L99.8404 209.524L121.235 197.053L81.0201 186.169Z" fill="#E3E3E3"/>
        <path d="M104.002 208.461H103.832L95.7149 206.271C95.5407 206.226 95.3918 206.114 95.3006 205.959C95.2095 205.804 95.1835 205.619 95.2288 205.445C95.2741 205.271 95.3872 205.122 95.5424 205.031C95.6976 204.94 95.8825 204.915 96.0567 204.96L104.173 207.137C104.347 207.159 104.505 207.25 104.612 207.389C104.719 207.528 104.767 207.704 104.744 207.878C104.722 208.052 104.631 208.209 104.492 208.316C104.352 208.423 104.176 208.471 104.002 208.448V208.461Z" fill="#E3E3E3"/>
        <path d="M173.454 210.349C173.284 210.349 173.121 210.284 172.998 210.167C172.876 210.049 172.804 209.889 172.797 209.72C172.794 209.633 172.807 209.546 172.838 209.464C172.869 209.382 172.915 209.307 172.975 209.244C173.035 209.18 173.108 209.129 173.188 209.094C173.267 209.059 173.354 209.04 173.441 209.038C174.242 209.038 175.082 208.959 175.949 208.881C194.651 207.254 199.248 195.767 200.22 192.345C200.282 192.113 200.397 191.898 200.557 191.719C200.716 191.539 200.916 191.399 201.139 191.309C201.367 191.22 201.612 191.185 201.856 191.205C202.099 191.226 202.335 191.302 202.544 191.427L206.484 193.84C206.523 193.866 206.569 193.88 206.616 193.88C206.663 193.88 206.708 193.866 206.747 193.84L214.181 189.735C214.222 189.711 214.256 189.677 214.279 189.635C214.302 189.594 214.314 189.547 214.312 189.499V173.842C214.313 173.798 214.302 173.754 214.282 173.715C214.261 173.676 214.231 173.643 214.194 173.619C210.805 171.508 180.598 152.927 165.403 150.015C161.427 149.398 157.358 149.804 153.583 151.195C153.42 151.242 153.244 151.224 153.094 151.144C152.944 151.064 152.831 150.93 152.779 150.768C152.726 150.607 152.737 150.432 152.811 150.279C152.886 150.126 153.016 150.008 153.176 149.95C157.151 148.497 161.431 148.077 165.613 148.73C181.045 151.641 211.436 170.341 214.85 172.452C215.073 172.592 215.257 172.785 215.385 173.014C215.514 173.243 215.583 173.501 215.586 173.763V189.421C215.587 189.704 215.512 189.982 215.369 190.226C215.225 190.471 215.019 190.673 214.772 190.811L207.351 194.915C207.109 195.053 206.835 195.126 206.557 195.126C206.278 195.126 206.004 195.053 205.762 194.915L201.822 192.502C201.785 192.484 201.745 192.474 201.704 192.474C201.663 192.474 201.622 192.484 201.586 192.502C201.551 192.519 201.521 192.543 201.496 192.572C201.471 192.601 201.452 192.636 201.441 192.673C200.417 196.344 195.57 208.409 176.028 210.166C175.135 210.244 174.268 210.297 173.401 210.323L173.454 210.349Z" fill="#E3E3E3"/>
        <path d="M151.614 192.489C151.445 192.489 151.282 192.424 151.159 192.307C151.037 192.189 150.965 192.029 150.958 191.86C150.853 188.385 150.643 180.124 151.116 178.642C151.305 178.051 151.543 177.477 151.825 176.924C146.576 179.912 141.984 183.926 138.323 188.726C138.097 189.035 137.766 189.251 137.391 189.336C137.017 189.42 136.625 189.367 136.288 189.185L128.578 184.897C128.344 184.765 128.147 184.575 128.007 184.345C127.867 184.116 127.788 183.854 127.777 183.586V167.299C127.776 167.086 127.818 166.874 127.902 166.678C127.985 166.482 128.109 166.305 128.263 166.158C131.517 163.124 134.989 160.332 138.652 157.805C138.722 157.744 138.804 157.699 138.893 157.672C138.982 157.645 139.075 157.637 139.167 157.648C139.259 157.66 139.347 157.691 139.426 157.74C139.505 157.788 139.573 157.852 139.626 157.929C139.678 158.005 139.714 158.092 139.73 158.183C139.747 158.275 139.743 158.368 139.721 158.458C139.698 158.548 139.657 158.632 139.599 158.705C139.542 158.778 139.469 158.837 139.387 158.88C135.783 161.37 132.368 164.123 129.17 167.115C129.144 167.139 129.124 167.167 129.111 167.199C129.097 167.23 129.09 167.264 129.091 167.299V183.586C129.092 183.633 129.104 183.679 129.127 183.72C129.15 183.761 129.183 183.796 129.222 183.821L136.918 188.11C136.977 188.137 137.043 188.142 137.105 188.126C137.168 188.109 137.222 188.071 137.259 188.018C141.518 182.452 146.994 177.93 153.269 174.8L155.384 173.816L154.071 175.757C153.369 176.824 152.792 177.968 152.35 179.166C152.026 183.421 151.996 187.693 152.258 191.952C152.262 192.123 152.197 192.29 152.079 192.415C151.962 192.54 151.799 192.614 151.627 192.621L151.614 192.489Z" fill="#E3E3E3"/>
        <path d="M192.327 188.372C192.222 188.374 192.117 188.349 192.023 188.301C191.929 188.253 191.849 188.183 191.789 188.096C191.69 187.953 191.652 187.777 191.682 187.606C191.711 187.434 191.806 187.281 191.946 187.178C196.097 184.33 199.299 180.306 201.14 175.626C201.2 175.462 201.295 175.313 201.417 175.189C201.539 175.065 201.687 174.968 201.849 174.904C202.169 174.773 202.527 174.773 202.847 174.904L207.168 177.265L214.693 172.715C214.767 172.661 214.85 172.623 214.939 172.603C215.028 172.583 215.12 172.582 215.209 172.6C215.298 172.617 215.383 172.653 215.457 172.705C215.532 172.757 215.595 172.823 215.642 172.901C215.69 172.978 215.721 173.065 215.733 173.155C215.745 173.244 215.739 173.336 215.714 173.423C215.689 173.511 215.646 173.592 215.588 173.662C215.53 173.731 215.458 173.788 215.376 173.829L207.194 178.786L202.335 176.163C200.371 181.05 197.003 185.247 192.656 188.227C192.561 188.304 192.448 188.354 192.327 188.372Z" fill="#E3E3E3"/>
        <path d="M172.967 193.591C171.72 193.591 170.42 193.433 169.12 193.276C160.202 192.161 154.554 189.657 152.335 185.854C150.115 182.051 151.81 177.593 152.873 175.009C154.659 170.695 168.147 161.896 171.812 159.496C155.868 150.435 138.347 172.609 138.164 172.832L137.81 173.304L128.038 167.338C127.956 167.297 127.885 167.24 127.827 167.17C127.769 167.101 127.726 167.019 127.701 166.932C127.676 166.845 127.67 166.753 127.682 166.663C127.694 166.574 127.725 166.487 127.772 166.41C127.82 166.332 127.882 166.266 127.957 166.214C128.032 166.162 128.117 166.126 128.206 166.108C128.295 166.091 128.386 166.092 128.475 166.112C128.564 166.132 128.647 166.17 128.721 166.223L137.494 171.574C140.239 168.295 157.562 148.717 173.414 158.946L174.281 159.496L173.401 160.047C168.555 163.076 155.645 171.77 154.095 175.508C153.123 177.868 151.468 181.815 153.465 185.185C155.461 188.555 160.793 190.916 169.225 191.965C170.538 192.122 171.746 192.227 172.954 192.279C173.129 192.279 173.296 192.348 173.419 192.471C173.542 192.594 173.611 192.761 173.611 192.935C173.611 193.109 173.542 193.276 173.419 193.399C173.296 193.522 173.129 193.591 172.954 193.591H172.967Z" fill="#E3E3E3"/>
        <path d="M201.111 192.725C201.025 192.722 200.94 192.701 200.862 192.665C200.784 192.629 200.713 192.578 200.655 192.515C200.596 192.451 200.551 192.377 200.521 192.296C200.491 192.215 200.477 192.129 200.481 192.043L201.322 175.809C201.329 175.64 201.401 175.48 201.523 175.362C201.646 175.245 201.809 175.18 201.978 175.18C202.065 175.185 202.149 175.207 202.227 175.244C202.304 175.282 202.374 175.335 202.431 175.399C202.488 175.464 202.533 175.539 202.561 175.621C202.589 175.702 202.601 175.789 202.595 175.875L201.768 192.109C201.758 192.276 201.684 192.433 201.562 192.547C201.44 192.662 201.279 192.726 201.111 192.725Z" fill="#E3E3E3"/>
        <path d="M206.654 195.348C206.568 195.345 206.483 195.324 206.405 195.288C206.327 195.252 206.256 195.201 206.197 195.138C206.139 195.074 206.094 195 206.064 194.919C206.034 194.838 206.02 194.752 206.024 194.666L206.536 178.091C206.543 177.916 206.618 177.751 206.746 177.63C206.874 177.51 207.043 177.445 207.219 177.448C207.305 177.452 207.39 177.472 207.468 177.508C207.547 177.544 207.617 177.596 207.676 177.659C207.734 177.722 207.78 177.796 207.809 177.877C207.839 177.958 207.853 178.044 207.849 178.13L207.337 194.705C207.33 194.881 207.255 195.046 207.127 195.166C206.999 195.286 206.83 195.352 206.654 195.348Z" fill="#E3E3E3"/>
        <path d="M173.557 187.572H173.321C167.647 187.572 163.563 185.238 162.669 181.632C160.332 172.282 176.722 163.509 177.418 163.142L177.629 163.063C183.21 162.224 194.321 170.931 194.794 171.285L195.122 171.548L195.017 171.967C192.075 182.72 181.884 187.572 173.557 187.572ZM177.931 164.348C176.617 165.096 161.934 173.305 163.944 181.317C164.679 184.267 168.37 186.208 173.334 186.261H173.557C181.28 186.261 190.723 181.828 193.625 172.046C191.721 170.603 182.501 163.785 177.878 164.348H177.931Z" fill="#E3E3E3"/>
        <path d="M170.262 187.283C170.156 187.284 170.05 187.257 169.956 187.207C169.862 187.157 169.782 187.084 169.724 186.995C169.674 186.924 169.639 186.843 169.62 186.758C169.602 186.673 169.601 186.586 169.616 186.5C169.632 186.415 169.665 186.333 169.713 186.261C169.76 186.188 169.822 186.126 169.894 186.077L179.351 179.652C179.661 179.443 180.021 179.319 180.395 179.294C180.768 179.269 181.142 179.342 181.478 179.507L186.915 182.13C186.993 182.168 187.062 182.22 187.12 182.285C187.177 182.35 187.221 182.425 187.249 182.507C187.277 182.588 187.289 182.675 187.283 182.761C187.278 182.847 187.255 182.931 187.217 183.008C187.18 183.086 187.127 183.156 187.062 183.212C186.997 183.269 186.921 183.312 186.839 183.339C186.757 183.366 186.67 183.376 186.584 183.369C186.497 183.362 186.414 183.337 186.337 183.297L180.887 180.674C180.765 180.604 180.627 180.567 180.486 180.567C180.346 180.567 180.208 180.604 180.086 180.674L170.63 187.1C170.532 187.201 170.402 187.266 170.262 187.283Z" fill="#E3E3E3"/>
        <path d="M137.246 188.87C137.159 188.869 137.074 188.85 136.995 188.815C136.916 188.781 136.845 188.731 136.785 188.669C136.725 188.607 136.678 188.533 136.647 188.453C136.615 188.373 136.6 188.288 136.602 188.201L136.996 172.466C136.998 172.38 137.016 172.296 137.051 172.217C137.086 172.139 137.136 172.069 137.198 172.01C137.26 171.952 137.334 171.906 137.414 171.876C137.494 171.846 137.58 171.832 137.666 171.836C137.752 171.838 137.837 171.856 137.916 171.891C137.995 171.925 138.066 171.975 138.126 172.037C138.186 172.099 138.233 172.173 138.265 172.253C138.296 172.333 138.311 172.419 138.309 172.505L137.915 188.241C137.913 188.326 137.895 188.411 137.86 188.489C137.825 188.567 137.775 188.637 137.713 188.696C137.651 188.755 137.577 188.8 137.497 188.83C137.417 188.86 137.331 188.874 137.246 188.87Z" fill="#E3E3E3"/>
        <path d="M247.486 140.692C232.83 140.692 218.895 136.902 209.255 130.306C206.698 128.579 204.588 126.272 203.097 123.573C201.606 120.874 200.777 117.861 200.679 114.78C200.578 111.759 201.197 108.757 202.484 106.022C203.772 103.286 205.692 100.895 208.086 99.0444C217.752 91.4387 232.475 87.085 248.472 87.085C264.691 87.085 279.992 91.7665 289.566 99.6213C291.501 101.231 293.078 103.228 294.195 105.482C295.312 107.736 295.943 110.199 296.051 112.712C296.158 115.224 295.74 117.732 294.82 120.073C293.9 122.414 292.499 124.538 290.709 126.307C281.424 135.289 265.269 140.692 247.486 140.692ZM248.472 88.3439C232.711 88.3439 218.343 92.5927 208.901 100.015C206.662 101.747 204.869 103.985 203.668 106.546C202.467 109.106 201.892 111.915 201.992 114.741C202.089 117.607 202.866 120.408 204.259 122.916C205.652 125.423 207.62 127.565 210.004 129.165C219.42 135.617 233.079 139.328 247.486 139.328C264.915 139.328 280.727 134.083 289.789 125.271C291.449 123.63 292.747 121.661 293.6 119.49C294.453 117.319 294.842 114.993 294.741 112.663C294.641 110.334 294.053 108.05 293.018 105.96C291.982 103.87 290.521 102.019 288.726 100.526C279.467 92.9072 264.415 88.3439 248.484 88.3439H248.472Z" fill="#E3E3E3"/>
        <path d="M248.483 147.681C224.554 147.681 204.211 137.951 198.997 124.077C198.941 123.914 198.951 123.735 199.024 123.579C199.098 123.422 199.229 123.3 199.39 123.238C199.552 123.178 199.732 123.185 199.889 123.256C200.047 123.327 200.169 123.458 200.231 123.619C205.169 136.837 225.46 146.422 248.483 146.422C273.949 146.422 295.068 135.198 297.616 120.327C297.645 120.153 297.744 119.998 297.888 119.896C298.032 119.794 298.21 119.753 298.384 119.783C298.558 119.812 298.714 119.91 298.816 120.054C298.918 120.198 298.959 120.376 298.929 120.55C296.25 135.997 274.579 147.681 248.483 147.681Z" fill="#E3E3E3"/>
        <path d="M362.709 143.197C362.453 143.196 362.197 143.17 361.947 143.118L298.787 130.005C298.613 129.97 298.459 129.868 298.361 129.72C298.262 129.573 298.227 129.392 298.262 129.218C298.297 129.044 298.399 128.891 298.547 128.793C298.695 128.694 298.875 128.659 299.05 128.694L362.208 141.807C362.543 141.88 362.889 141.881 363.224 141.811C363.559 141.741 363.876 141.601 364.153 141.4C364.544 141.124 364.846 140.739 365.021 140.293C365.196 139.847 365.237 139.36 365.138 138.891C365.039 138.422 364.804 137.993 364.463 137.656C364.122 137.319 363.69 137.089 363.22 136.994L298.13 123.356C298.044 123.338 297.963 123.303 297.89 123.254C297.817 123.204 297.755 123.141 297.707 123.067C297.659 122.993 297.626 122.911 297.609 122.824C297.593 122.738 297.594 122.649 297.612 122.563C297.63 122.477 297.665 122.395 297.714 122.323C297.764 122.25 297.828 122.188 297.902 122.14C297.976 122.092 298.058 122.059 298.144 122.042C298.231 122.026 298.32 122.027 298.406 122.045L363.483 135.696C364.411 135.881 365.234 136.41 365.787 137.176C366.34 137.942 366.582 138.889 366.464 139.827C366.4 140.347 366.23 140.848 365.964 141.3C365.697 141.751 365.34 142.142 364.915 142.449C364.278 142.928 363.505 143.19 362.709 143.197Z" fill="#E3E3E3"/>
        <path d="M182.478 99.7655C182.333 99.7669 182.193 99.7206 182.077 99.634C181.962 99.5474 181.878 99.4252 181.839 99.2864C181.8 99.1475 181.808 98.9997 181.862 98.8658C181.916 98.732 182.012 98.6196 182.137 98.546L216.888 77.3944L210.794 73.198L173.508 95.0841C173.433 95.1381 173.349 95.1759 173.259 95.195C173.169 95.2142 173.076 95.2143 172.986 95.1953C172.896 95.1764 172.811 95.139 172.737 95.0852C172.662 95.0315 172.6 94.9627 172.554 94.8834C172.508 94.8041 172.479 94.7159 172.469 94.6247C172.459 94.5335 172.468 94.4412 172.496 94.3538C172.524 94.2665 172.57 94.1859 172.632 94.1174C172.693 94.0489 172.767 93.9942 172.851 93.9564L210.374 71.9261C210.505 71.8488 210.654 71.8081 210.807 71.8081C210.959 71.8081 211.109 71.8488 211.24 71.9261L218.214 76.7387C218.329 76.811 218.423 76.9118 218.488 77.0313C218.552 77.1508 218.585 77.2848 218.582 77.4204C218.587 77.5748 218.549 77.7274 218.472 77.8616C218.396 77.9958 218.284 78.1064 218.149 78.1811L182.819 99.6869C182.715 99.7448 182.597 99.772 182.478 99.7655ZM217.452 77.7877H217.518H217.452Z" fill="#E3E3E3"/>
    </g>
    <defs>
        <clipPath id="clip0_4662_18726">
            <rect width="538" height="255" fill="white"/>
        </clipPath>
    </defs>
</svg>
