<svg width="279" height="265" viewBox="0 0 279 265" fill="none" xmlns="http://www.w3.org/2000/svg">
    <g clip-path="url(#clip0_8813_24934)">
        <path d="M270.414 129.095C218.859 121.402 238.19 158.98 238.19 158.98C235.288 163.275 226.538 166.845 219.338 169.168L219.08 172.846L223.99 171.701C215.115 202.883 254.299 194.09 259.33 192.842C237.284 233.901 193.94 261.771 143.88 261.825C117.863 261.891 92.4209 254.188 70.8215 239.706C70.4479 239.461 70.1336 239.135 69.9014 238.754C69.6691 238.372 69.5247 237.944 69.4786 237.5C68.7627 229.981 65.3771 222.966 59.9337 217.723C54.4902 212.479 47.3479 209.353 39.7975 208.909C39.3509 208.882 38.9158 208.757 38.5238 208.541C38.1319 208.326 37.7929 208.026 37.5315 207.663C23.4794 188.338 15.0227 165.524 13.0869 141.72C13.0829 141.676 13.0914 141.632 13.1115 141.593C13.1315 141.554 13.1623 141.522 13.2002 141.5C13.2381 141.478 13.2815 141.467 13.3253 141.468C13.3692 141.47 13.4117 141.484 13.4478 141.509C28.3301 151.329 38.6436 136.925 40.3891 134.233C40.4634 134.121 40.5789 134.042 40.7107 134.014C40.8426 133.986 40.9802 134.011 41.0937 134.084C47.4301 138.087 55.0652 148.106 56.9924 150.712C57.0296 150.753 57.0515 150.806 57.0546 150.861C57.0577 150.917 57.0419 150.972 57.0096 151.017C56.9773 151.063 56.9306 151.096 56.8771 151.111C56.8235 151.126 56.7664 151.123 56.715 151.101C36.8687 145.017 27.9471 168.083 26.5797 172.024C26.5261 172.179 26.5313 172.348 26.5942 172.499C26.6571 172.65 26.7734 172.772 26.9209 172.843C65.0596 191.15 68.6562 162.273 68.9483 158.527C68.9483 158.527 74.7029 159.998 79.1489 160.039L77.8011 158.135C65.3787 156.173 59.251 147.473 59.251 147.473C81.5548 140.254 69.7364 115.502 69.7364 115.502C66.9818 110.001 64.1144 106.772 62.8206 105.473C62.6208 105.274 62.3622 105.144 62.0829 105.102C61.8035 105.061 61.5182 105.11 61.269 105.242C40.5929 116.156 45.8859 131.818 47.0299 134.589C47.0387 134.611 47.0396 134.636 47.0325 134.659C47.0255 134.682 47.0109 134.702 46.9912 134.716C46.9714 134.73 46.9475 134.737 46.9234 134.735C46.8993 134.734 46.8763 134.725 46.8581 134.709L41.2705 129.928C41.1872 129.857 41.1203 129.768 41.0741 129.668C41.028 129.568 41.0037 129.46 41.0029 129.35C40.8163 108.804 24.3947 109.942 14.2629 112.528C14.2251 112.536 14.186 112.535 14.1487 112.525C14.1114 112.515 14.077 112.496 14.0483 112.47C14.0196 112.445 13.9974 112.412 13.9835 112.376C13.9696 112.34 13.9644 112.302 13.9683 112.263C16.1924 96.6852 21.2299 81.6396 28.8358 67.8581C28.929 67.691 29.0814 67.5646 29.2631 67.5038C29.4448 67.443 29.6426 67.4522 29.8178 67.5296L47.2288 75.3031C47.3623 75.3635 47.5065 75.3969 47.6531 75.4014C47.7996 75.4058 47.9456 75.3812 48.0825 75.329C48.2195 75.2768 48.3447 75.1981 48.451 75.0973C48.5573 74.9964 48.6426 74.8756 48.7018 74.7417L59.823 49.764C59.9415 49.4996 59.9515 49.1995 59.851 48.9277C59.7505 48.656 59.5475 48.4344 59.2854 48.3103L47.9899 42.9638C47.8781 42.9137 47.7799 42.8377 47.7035 42.7421C47.6271 42.6465 47.5748 42.534 47.5507 42.4141C47.5267 42.2941 47.5317 42.1702 47.5654 42.0526C47.5991 41.935 47.6605 41.8272 47.7444 41.7381C71.6807 16.0519 105.828 -0.0123291 143.735 -0.0123291C184.776 -0.0123291 221.407 18.8172 245.444 48.2956C245.54 48.4131 245.605 48.552 245.635 48.7003C245.664 48.8487 245.657 49.002 245.613 49.147C245.57 49.2919 245.492 49.4241 245.386 49.5321C245.28 49.6401 245.149 49.7205 245.005 49.7665C243.419 50.2682 241.972 51.1331 240.78 52.2923C239.588 53.4515 238.684 54.8728 238.14 56.4429C237.596 58.0129 237.427 59.6882 237.647 61.335C237.867 62.9818 238.469 64.5545 239.405 65.9276C240.342 67.3008 241.587 68.4363 243.041 69.2436C244.495 70.0509 246.118 70.5076 247.781 70.5772C249.443 70.6469 251.098 70.3276 252.615 69.6448C254.132 68.962 255.468 67.9346 256.516 66.6446C256.612 66.526 256.735 66.4326 256.875 66.3725C257.015 66.3123 257.167 66.2873 257.319 66.2997C257.471 66.312 257.617 66.3613 257.746 66.4432C257.874 66.5251 257.981 66.6372 258.056 66.7696C268.75 85.8338 274.513 107.261 274.821 129.111C275.129 150.96 269.974 172.541 259.821 191.898C258.164 160.52 237.394 164.354 237.394 164.354L241.7 161.728C278.781 171.01 270.414 129.095 270.414 129.095Z" fill="#37424C"/>
        <path d="M248.232 68.5642C253.001 68.5642 256.866 64.7041 256.866 59.9425C256.866 55.1809 253.001 51.3208 248.232 51.3208C243.463 51.3208 239.598 55.1809 239.598 59.9425C239.598 64.7041 243.463 68.5642 248.232 68.5642Z" fill="#EAB669"/>
        <path d="M226.34 69.4639L219.33 169.169L219.073 172.846L214.364 239.821C214.338 240.192 214.239 240.555 214.073 240.887C213.907 241.22 213.677 241.517 213.396 241.761C213.114 242.005 212.788 242.191 212.435 242.308C212.081 242.426 211.708 242.473 211.337 242.447L102.46 234.816C102.068 234.789 101.687 234.681 101.34 234.499C101.202 234.424 101.094 234.306 101.031 234.162C100.969 234.019 100.956 233.859 100.995 233.707C101.034 233.555 101.122 233.421 101.246 233.325C101.37 233.229 101.522 233.178 101.679 233.178H211.46C211.845 233.178 212.216 233.027 212.491 232.758C212.766 232.488 212.925 232.122 212.933 231.737L214.261 173.966L214.337 170.679L216.357 82.8291C216.362 82.6298 216.326 82.4317 216.252 82.2467C216.178 82.0617 216.067 81.8937 215.925 81.7529L199.752 65.6029C199.684 65.535 199.639 65.4482 199.622 65.3541C199.605 65.2599 199.617 65.1628 199.657 65.0757C199.697 64.9886 199.762 64.9157 199.844 64.8667C199.927 64.8176 200.022 64.7948 200.118 64.8012L223.71 66.456C224.458 66.5082 225.154 66.854 225.647 67.4177C226.14 67.9815 226.389 68.7172 226.34 69.4639Z" fill="#161617"/>
        <path d="M129.496 236.821L102.471 234.926C102.455 234.925 102.439 234.921 102.425 234.914C102.41 234.907 102.397 234.897 102.386 234.885C102.376 234.873 102.367 234.859 102.362 234.843C102.357 234.828 102.355 234.812 102.356 234.796C102.359 234.763 102.374 234.733 102.399 234.712C102.424 234.691 102.456 234.679 102.488 234.681L129.513 236.576C129.546 236.576 129.577 236.589 129.6 236.612C129.623 236.635 129.636 236.666 129.636 236.698C129.636 236.731 129.623 236.762 129.6 236.785C129.577 236.808 129.546 236.821 129.513 236.821H129.496Z" fill="#E3E3E3"/>
        <path d="M211.537 242.564H211.326L149.887 238.26C149.871 238.259 149.855 238.254 149.841 238.247C149.826 238.239 149.813 238.229 149.803 238.217C149.792 238.205 149.784 238.191 149.779 238.175C149.774 238.16 149.773 238.143 149.774 238.127C149.778 238.096 149.793 238.067 149.817 238.046C149.841 238.025 149.872 238.014 149.904 238.015L211.343 242.322C211.699 242.348 212.056 242.304 212.394 242.192C212.733 242.079 213.046 241.901 213.315 241.668C213.584 241.434 213.804 241.15 213.962 240.831C214.121 240.512 214.214 240.164 214.238 239.809L218.09 185.017C218.092 184.985 218.107 184.954 218.132 184.933C218.156 184.912 218.188 184.901 218.221 184.903C218.253 184.905 218.284 184.92 218.305 184.945C218.327 184.97 218.337 185.002 218.335 185.034L214.483 239.826C214.433 240.572 214.101 241.271 213.554 241.781C213.007 242.291 212.286 242.574 211.537 242.572V242.564Z" fill="#E3E3E3"/>
        <path d="M219.821 162.285C219.805 162.284 219.789 162.279 219.774 162.272C219.76 162.265 219.747 162.254 219.737 162.242C219.726 162.23 219.718 162.216 219.713 162.2C219.708 162.185 219.706 162.169 219.708 162.153L226.223 69.454C226.273 68.738 226.037 68.0314 225.565 67.4895C225.094 66.9476 224.426 66.6147 223.709 66.5638L201.634 65.0169C201.601 65.0147 201.571 64.9996 201.55 64.975C201.528 64.9504 201.518 64.9183 201.52 64.8858C201.522 64.8533 201.537 64.823 201.562 64.8016C201.586 64.7802 201.619 64.7695 201.651 64.7718L223.727 66.3211C224.114 66.3469 224.493 66.449 224.841 66.6215C225.189 66.7941 225.499 67.0336 225.754 67.3264C226.009 67.6192 226.203 67.9594 226.326 68.3275C226.449 68.6956 226.497 69.0843 226.469 69.4712L219.953 162.172C219.952 162.188 219.948 162.204 219.94 162.218C219.933 162.233 219.923 162.246 219.91 162.256C219.898 162.267 219.884 162.274 219.868 162.279C219.853 162.284 219.837 162.286 219.821 162.285Z" fill="#E3E3E3"/>
        <path d="M212.559 81.1425V224.502C212.559 225.276 212.252 226.017 211.705 226.564C211.157 227.111 210.415 227.419 209.64 227.42H77.5606C76.7851 227.42 76.0414 227.112 75.4931 226.564C74.9448 226.017 74.6367 225.274 74.6367 224.5V142.377C74.64 141.688 74.8084 141.009 75.1277 140.399C79.2472 132.458 77.0917 123.15 74.9043 117.326C74.7286 116.855 74.638 116.357 74.6367 115.855V51.1443C74.6367 50.3699 74.9448 49.6273 75.4931 49.0798C76.0414 48.5322 76.7851 48.2246 77.5606 48.2246H179.596C179.98 48.2251 180.36 48.3011 180.714 48.4484C181.068 48.5956 181.39 48.8111 181.661 49.0826L211.7 79.0759C212.25 79.6238 212.559 80.3671 212.559 81.1425Z" fill="#161617"/>
        <path d="M73.5212 171.811C73.4886 171.811 73.4574 171.798 73.4344 171.775C73.4114 171.752 73.3984 171.721 73.3984 171.689V53.9805C73.3991 53.1745 73.72 52.4018 74.2908 51.8318C74.8615 51.2619 75.6355 50.9414 76.4427 50.9408H84.7676C84.8 50.9414 84.8308 50.9545 84.8537 50.9774C84.8766 51.0002 84.8897 51.0311 84.8904 51.0634C84.8904 51.0959 84.8774 51.127 84.8544 51.15C84.8314 51.173 84.8002 51.1859 84.7676 51.1859H76.4427C75.7006 51.1866 74.9891 51.4812 74.4644 52.0052C73.9397 52.5291 73.6446 53.2396 73.6439 53.9805V171.689C73.6439 171.721 73.631 171.752 73.608 171.775C73.585 171.798 73.5537 171.811 73.5212 171.811Z" fill="#E3E3E3"/>
        <path d="M156.535 230.376H76.4427C75.6355 230.375 74.8615 230.055 74.2908 229.485C73.72 228.915 73.3991 228.142 73.3984 227.336V207.198C73.3984 207.165 73.4114 207.134 73.4344 207.111C73.4574 207.088 73.4886 207.075 73.5212 207.075C73.5537 207.075 73.585 207.088 73.608 207.111C73.631 207.134 73.6439 207.165 73.6439 207.198V227.336C73.6446 228.077 73.9397 228.788 74.4644 229.312C74.9891 229.836 75.7006 230.13 76.4427 230.131H156.535C156.568 230.131 156.599 230.144 156.622 230.167C156.645 230.19 156.658 230.221 156.658 230.253C156.658 230.286 156.645 230.317 156.622 230.34C156.599 230.363 156.568 230.376 156.535 230.376Z" fill="#E3E3E3"/>
        <path d="M208.515 230.376H199.431C199.399 230.376 199.368 230.363 199.345 230.34C199.322 230.317 199.309 230.286 199.309 230.253C199.309 230.221 199.322 230.19 199.345 230.167C199.368 230.144 199.399 230.131 199.431 230.131H208.515C209.257 230.13 209.968 229.836 210.493 229.312C211.018 228.788 211.313 228.077 211.314 227.336V139.783C211.314 139.751 211.327 139.72 211.35 139.697C211.373 139.674 211.404 139.661 211.436 139.661C211.469 139.661 211.5 139.674 211.523 139.697C211.546 139.72 211.559 139.751 211.559 139.783V227.336C211.558 228.142 211.238 228.915 210.667 229.485C210.096 230.055 209.322 230.375 208.515 230.376Z" fill="#E3E3E3"/>
        <path d="M211.437 102.96C211.404 102.96 211.373 102.947 211.35 102.924C211.327 102.901 211.314 102.87 211.314 102.838V83.9837C211.315 83.6165 211.243 83.2527 211.103 82.9135C210.962 82.5743 210.755 82.2665 210.494 82.0078L180.454 52.0121C180.195 51.7517 179.887 51.5452 179.547 51.4047C179.208 51.2641 178.843 51.1923 178.476 51.1933H118.681C118.649 51.1933 118.618 51.1804 118.595 51.1574C118.572 51.1344 118.559 51.1032 118.559 51.0707C118.559 51.0382 118.572 51.007 118.595 50.984C118.618 50.9611 118.649 50.9481 118.681 50.9481H178.476C178.876 50.9468 179.272 51.0248 179.642 51.1775C180.011 51.3303 180.347 51.5548 180.629 51.838L210.668 81.8338C210.952 82.1156 211.176 82.4506 211.329 82.8197C211.482 83.1887 211.56 83.5843 211.559 83.9837V102.838C211.559 102.87 211.546 102.901 211.523 102.924C211.5 102.947 211.469 102.96 211.437 102.96Z" fill="#E3E3E3"/>
        <path d="M208.056 84.7093H177.614C177.44 84.7093 177.268 84.6751 177.108 84.6087C176.947 84.5422 176.802 84.4449 176.679 84.3221C176.556 84.1994 176.459 84.0537 176.393 83.8934C176.327 83.7331 176.293 83.5614 176.293 83.388V53.0196C176.293 52.951 176.308 52.8831 176.337 52.8209C176.366 52.7588 176.409 52.7039 176.462 52.6603C176.515 52.6166 176.577 52.5853 176.644 52.5686C176.711 52.5519 176.78 52.5502 176.848 52.5637C177.419 52.675 177.944 52.9541 178.355 53.3653L208.397 83.361C208.471 83.4343 208.54 83.5112 208.606 83.5914C208.687 83.6935 208.738 83.8166 208.752 83.9463C208.766 84.076 208.743 84.2071 208.685 84.3242C208.628 84.4414 208.538 84.5397 208.427 84.6079C208.315 84.6761 208.187 84.7112 208.056 84.7093Z" fill="#737373"/>
        <path d="M211.356 83.4125L179.801 83.3855C179.418 83.3855 179.05 83.2334 178.779 82.9626C178.508 82.6918 178.355 82.3246 178.355 81.9416V54.7601C178.355 54.7276 178.368 54.6965 178.391 54.6735C178.414 54.6505 178.446 54.6376 178.478 54.6376C178.511 54.6376 178.542 54.6505 178.565 54.6735C178.588 54.6965 178.601 54.7276 178.601 54.7601V81.9416C178.601 82.2596 178.727 82.5645 178.953 82.7893C179.178 83.0141 179.483 83.1404 179.801 83.1404L211.356 83.1674C211.388 83.1674 211.42 83.1803 211.443 83.2033C211.466 83.2263 211.479 83.2574 211.479 83.2899C211.479 83.3224 211.466 83.3536 211.443 83.3766C211.42 83.3996 211.388 83.4125 211.356 83.4125Z" fill="#E3E3E3"/>
        <path d="M165.613 92.0906H95.1178C94.7205 92.0906 94.3984 92.4122 94.3984 92.8088V100.783C94.3984 101.18 94.7205 101.502 95.1178 101.502H165.613C166.011 101.502 166.333 101.18 166.333 100.783V92.8088C166.333 92.4122 166.011 92.0906 165.613 92.0906Z" fill="#737373"/>
        <path d="M162.884 99.7341H131.057C131.025 99.7335 130.994 99.7203 130.971 99.6975C130.948 99.6746 130.935 99.6438 130.934 99.6115C130.934 99.579 130.947 99.5478 130.97 99.5249C130.993 99.5019 131.025 99.4889 131.057 99.4889H162.884C163.097 99.4883 163.301 99.4036 163.451 99.2534C163.601 99.1032 163.686 98.8997 163.687 98.6873V91.1222C163.686 90.9098 163.601 90.7063 163.451 90.5561C163.301 90.4059 163.097 90.3212 162.884 90.3206H92.7983C92.5856 90.3212 92.3818 90.4059 92.2314 90.5561C92.0809 90.7063 91.9961 90.9098 91.9955 91.1222V98.6873C91.9961 98.8997 92.0809 99.1032 92.2314 99.2534C92.3818 99.4036 92.5856 99.4883 92.7983 99.4889H103.846C103.878 99.4889 103.91 99.5019 103.933 99.5249C103.956 99.5478 103.969 99.579 103.969 99.6115C103.969 99.644 103.956 99.6752 103.933 99.6982C103.91 99.7212 103.878 99.7341 103.846 99.7341H92.7983C92.5205 99.7334 92.2542 99.623 92.0577 99.4268C91.8613 99.2306 91.7506 98.9647 91.75 98.6873V91.1222C91.7506 90.8448 91.8613 90.5789 92.0577 90.3828C92.2542 90.1866 92.5205 90.0761 92.7983 90.0754H162.884C163.162 90.0761 163.428 90.1866 163.625 90.3828C163.821 90.5789 163.932 90.8448 163.932 91.1222V98.6873C163.932 98.9647 163.821 99.2306 163.625 99.4268C163.428 99.623 163.162 99.7334 162.884 99.7341Z" fill="#E3E3E3"/>
        <path d="M192.336 119.405H95.0514C94.6541 119.405 94.332 119.726 94.332 120.123V128.097C94.332 128.494 94.6541 128.816 95.0514 128.816H192.336C192.733 128.816 193.055 128.494 193.055 128.097V120.123C193.055 119.726 192.733 119.405 192.336 119.405Z" fill="#737373"/>
        <path d="M189.921 126.739H93.0483C92.7703 126.739 92.5036 126.629 92.307 126.433C92.1104 126.236 92 125.97 92 125.692V118.127C92.0007 117.85 92.1114 117.584 92.3079 117.389C92.5044 117.193 92.7707 117.083 93.0483 117.083H137.467C137.499 117.083 137.531 117.096 137.554 117.119C137.577 117.142 137.59 117.173 137.59 117.206C137.59 117.238 137.577 117.269 137.554 117.292C137.531 117.315 137.499 117.328 137.467 117.328H93.0483C92.943 117.328 92.8387 117.348 92.7413 117.388C92.6439 117.428 92.5554 117.487 92.4808 117.561C92.4062 117.636 92.347 117.724 92.3067 117.821C92.2663 117.918 92.2455 118.022 92.2455 118.127V125.692C92.2455 125.905 92.3301 126.109 92.4806 126.259C92.6312 126.41 92.8354 126.494 93.0483 126.494H189.921C190.133 126.493 190.337 126.409 190.488 126.259C190.638 126.108 190.723 125.905 190.723 125.692V118.127C190.723 117.915 190.638 117.712 190.487 117.562C190.337 117.412 190.133 117.328 189.921 117.328H169.866C169.833 117.328 169.802 117.315 169.779 117.292C169.756 117.269 169.743 117.238 169.743 117.206C169.743 117.173 169.756 117.142 169.779 117.119C169.802 117.096 169.833 117.083 169.866 117.083H189.921C190.198 117.083 190.465 117.193 190.661 117.389C190.858 117.584 190.968 117.85 190.969 118.127V125.692C190.969 125.97 190.858 126.236 190.662 126.433C190.465 126.629 190.199 126.739 189.921 126.739Z" fill="#E3E3E3"/>
        <path d="M175.291 146.65H95.3678C94.9705 146.65 94.6484 146.971 94.6484 147.368V155.342C94.6484 155.739 94.9705 156.061 95.3678 156.061H175.291C175.688 156.061 176.01 155.739 176.01 155.342V147.368C176.01 146.971 175.688 146.65 175.291 146.65Z" fill="#737373"/>
        <path d="M172.556 153.977H154.1C154.067 153.977 154.036 153.964 154.013 153.941C153.99 153.918 153.977 153.887 153.977 153.854C153.977 153.822 153.99 153.791 154.013 153.768C154.036 153.745 154.067 153.732 154.1 153.732H172.556C172.662 153.732 172.766 153.712 172.864 153.671C172.962 153.631 173.05 153.572 173.125 153.498C173.199 153.423 173.258 153.335 173.299 153.237C173.339 153.14 173.359 153.036 173.359 152.93V145.37C173.359 145.265 173.339 145.16 173.299 145.063C173.258 144.965 173.199 144.877 173.125 144.802C173.05 144.728 172.962 144.669 172.864 144.629C172.766 144.589 172.662 144.568 172.556 144.568H93.0483C92.9428 144.568 92.8382 144.589 92.7407 144.629C92.6432 144.669 92.5545 144.728 92.4799 144.802C92.4053 144.877 92.3462 144.965 92.3059 145.063C92.2657 145.16 92.2452 145.265 92.2455 145.37V152.933C92.2452 153.038 92.2657 153.142 92.3059 153.24C92.3462 153.337 92.4053 153.426 92.4799 153.5C92.5545 153.575 92.6432 153.634 92.7407 153.674C92.8382 153.714 92.9428 153.735 93.0483 153.734H119.97C120.003 153.734 120.034 153.747 120.057 153.77C120.08 153.793 120.093 153.824 120.093 153.857C120.093 153.889 120.08 153.921 120.057 153.944C120.034 153.967 120.003 153.979 119.97 153.979H93.0483C92.7703 153.979 92.5036 153.869 92.307 153.673C92.1104 153.477 92 153.21 92 152.933V145.37C92 145.092 92.1104 144.826 92.307 144.63C92.5036 144.434 92.7703 144.323 93.0483 144.323H172.556C172.834 144.323 173.101 144.434 173.298 144.63C173.494 144.826 173.605 145.092 173.605 145.37V152.933C173.604 153.21 173.493 153.475 173.297 153.671C173.1 153.867 172.834 153.977 172.556 153.977Z" fill="#E3E3E3"/>
        <path d="M192.336 174.211H95.0514C94.6541 174.211 94.332 174.533 94.332 174.929V182.904C94.332 183.301 94.6541 183.622 95.0514 183.622H192.336C192.733 183.622 193.055 183.301 193.055 182.904V174.929C193.055 174.533 192.733 174.211 192.336 174.211Z" fill="#737373"/>
        <path d="M189.921 181.225H93.0483C92.7703 181.225 92.5036 181.114 92.307 180.918C92.1104 180.722 92 180.455 92 180.178V172.613C92 172.335 92.1104 172.069 92.307 171.872C92.5036 171.676 92.7703 171.566 93.0483 171.566H148.21C148.243 171.566 148.274 171.579 148.297 171.602C148.32 171.625 148.333 171.656 148.333 171.688C148.333 171.721 148.32 171.752 148.297 171.775C148.274 171.798 148.243 171.811 148.21 171.811H93.0483C92.8354 171.811 92.6312 171.896 92.4806 172.046C92.3301 172.196 92.2455 172.4 92.2455 172.613V180.18C92.2455 180.393 92.3301 180.597 92.4806 180.747C92.6312 180.897 92.8354 180.982 93.0483 180.982H189.921C190.133 180.981 190.337 180.897 190.488 180.746C190.638 180.596 190.723 180.393 190.723 180.18V172.615C190.723 172.403 190.638 172.199 190.488 172.049C190.337 171.899 190.133 171.814 189.921 171.814H179.578C179.545 171.814 179.514 171.801 179.491 171.778C179.468 171.755 179.455 171.723 179.455 171.691C179.455 171.658 179.468 171.627 179.491 171.604C179.514 171.581 179.545 171.568 179.578 171.568H189.931C190.209 171.568 190.475 171.679 190.672 171.875C190.868 172.071 190.979 172.338 190.979 172.615V180.18C190.978 180.318 190.951 180.455 190.897 180.582C190.844 180.71 190.766 180.825 190.667 180.922C190.569 181.019 190.452 181.096 190.324 181.148C190.196 181.2 190.059 181.226 189.921 181.225Z" fill="#E3E3E3"/>
        <path d="M238.603 158.002C236.497 153.393 225.705 126.278 264.904 129.335C265.206 129.357 265.491 129.484 265.71 129.693C265.929 129.901 266.068 130.18 266.105 130.48C266.841 136.609 269.073 167.144 239.59 158.858C239.374 158.795 239.173 158.686 239.002 158.539C238.832 158.391 238.696 158.208 238.603 158.002Z" fill="#658B80"/>
        <path d="M211.434 173.316C211.405 173.317 211.377 173.306 211.355 173.287C211.333 173.268 211.318 173.242 211.314 173.213C211.309 173.181 211.317 173.148 211.335 173.122C211.354 173.095 211.383 173.077 211.415 173.071C211.491 173.071 219.202 171.72 228.445 167.678C236.971 163.952 248.576 157.098 255.482 145.615C255.5 145.588 255.527 145.569 255.559 145.561C255.59 145.553 255.623 145.558 255.652 145.573C255.665 145.582 255.678 145.593 255.687 145.606C255.697 145.619 255.704 145.634 255.708 145.649C255.712 145.665 255.712 145.681 255.71 145.697C255.707 145.713 255.702 145.729 255.693 145.743C248.758 157.286 237.097 164.168 228.538 167.911C219.268 171.963 211.532 173.304 211.456 173.319L211.434 173.316Z" fill="#E3E3E3"/>
        <path d="M226.161 169.784C230.646 167.519 251.98 158.627 256.112 192.173C256.128 192.304 256.094 192.436 256.016 192.543C255.939 192.65 255.824 192.723 255.694 192.749C251.148 193.636 215.734 199.691 225.034 171.1C225.125 170.817 225.271 170.555 225.465 170.329C225.658 170.103 225.895 169.918 226.161 169.784Z" fill="#658B80"/>
        <path d="M244.178 182.463C244.151 182.463 244.125 182.454 244.103 182.437C244.082 182.421 244.067 182.398 244.06 182.372C241.624 173.62 227.329 168.504 227.186 168.455C227.154 168.445 227.127 168.421 227.111 168.391C227.096 168.36 227.093 168.325 227.104 168.292C227.115 168.26 227.138 168.233 227.169 168.217C227.199 168.202 227.235 168.199 227.267 168.21C227.412 168.262 241.828 173.419 244.298 182.294C244.306 182.325 244.302 182.359 244.286 182.387C244.27 182.415 244.243 182.436 244.212 182.446L244.178 182.463Z" fill="#E3E3E3"/>
        <path d="M251.287 162.285C248.341 162.285 245.048 161.747 241.41 160.672C241.394 160.667 241.38 160.659 241.367 160.649C241.354 160.638 241.344 160.625 241.336 160.611C241.28 160.503 235.769 149.633 239.188 141.127C239.194 141.112 239.203 141.098 239.214 141.087C239.226 141.075 239.239 141.066 239.254 141.06C239.269 141.054 239.285 141.051 239.301 141.051C239.317 141.051 239.333 141.054 239.348 141.06C239.378 141.073 239.402 141.097 239.414 141.126C239.427 141.156 239.428 141.19 239.417 141.22C236.151 149.337 241.135 159.669 241.53 160.451C250.447 163.084 257.316 162.439 261.951 158.539C265.45 155.597 267.652 150.844 268.494 144.426C268.971 140.428 268.976 136.387 268.509 132.387C268.476 132.116 268.351 131.865 268.154 131.676C267.957 131.487 267.701 131.372 267.428 131.35C262.378 130.956 257.91 131.049 254.147 131.632C254.115 131.637 254.082 131.628 254.056 131.609C254.03 131.59 254.012 131.561 254.007 131.529C254.004 131.513 254.005 131.497 254.009 131.481C254.013 131.466 254.02 131.451 254.029 131.438C254.039 131.425 254.051 131.414 254.065 131.406C254.079 131.397 254.094 131.392 254.11 131.39C257.891 130.804 262.378 130.708 267.448 131.105C267.777 131.131 268.086 131.27 268.324 131.499C268.562 131.727 268.713 132.031 268.752 132.358C269.223 136.378 269.218 140.439 268.737 144.458C267.887 150.937 265.656 155.735 262.108 158.726C259.292 161.096 255.684 162.285 251.287 162.285Z" fill="#E3E3E3"/>
        <path d="M252.675 191.719C252.643 191.719 252.611 191.706 252.588 191.683C252.565 191.66 252.552 191.629 252.552 191.597C252.552 191.564 252.565 191.533 252.588 191.51C252.611 191.487 252.643 191.474 252.675 191.474C254.98 191.229 256.741 190.903 257.585 190.739C257.684 190.719 257.772 190.662 257.832 190.58C257.891 190.499 257.918 190.398 257.907 190.297C256.37 177.852 252.314 169.951 245.848 166.778C237.567 162.731 228.027 168.031 227.344 168.421C223.502 179.482 225.726 186.738 233.953 189.993C233.983 190.006 234.008 190.029 234.021 190.059C234.033 190.089 234.034 190.123 234.022 190.153C234.01 190.183 233.986 190.207 233.956 190.22C233.926 190.233 233.893 190.233 233.862 190.221C225.481 186.91 223.212 179.536 227.126 168.303C227.136 168.276 227.155 168.254 227.18 168.239C227.278 168.178 237.282 162.324 245.953 166.563C252.501 169.75 256.603 177.736 258.15 190.271C258.169 190.433 258.126 190.596 258.03 190.728C257.934 190.86 257.792 190.952 257.632 190.984C256.785 191.148 255.02 191.474 252.705 191.719H252.675Z" fill="#E3E3E3"/>
        <path d="M37.8037 132.787C37.7791 128.352 36.1416 102.651 0.337698 122.466C0.258593 122.509 0.189036 122.567 0.133374 122.637C0.0777109 122.707 0.0371173 122.788 0.0140993 122.875C-0.00891878 122.962 -0.0138676 123.052 -0.000435414 123.141C0.0129967 123.23 0.0445353 123.314 0.092197 123.39C2.91055 127.771 21.3723 154.658 37.4084 133.897C37.6601 133.581 37.7992 133.191 37.8037 132.787Z" fill="#658B80"/>
        <path d="M54.127 145.654C51.1638 142.281 37.0057 124.04 60.51 107.125C60.6442 107.029 60.8104 106.99 60.9733 107.015C61.1362 107.04 61.2827 107.128 61.3816 107.26C64.2417 111.089 81.8785 136.432 55.3103 145.966C55.1044 146.037 54.8819 146.045 54.6712 145.99C54.4604 145.935 54.271 145.818 54.127 145.654Z" fill="#658B80"/>
        <path d="M73.5212 158.25H73.4966C73.3788 158.225 61.6463 155.764 48.8679 139.567C43.6827 132.953 36.5442 128.137 28.4643 125.8C22.3538 124.03 17.7605 124.256 17.7163 124.258C17.6999 124.259 17.6836 124.257 17.6682 124.252C17.6527 124.246 17.6385 124.238 17.6264 124.227C17.6143 124.216 17.6045 124.203 17.5976 124.188C17.5907 124.173 17.5868 124.157 17.5862 124.141C17.5852 124.125 17.5874 124.109 17.5927 124.094C17.598 124.078 17.6062 124.064 17.617 124.053C17.6277 124.041 17.6408 124.031 17.6553 124.024C17.6698 124.018 17.6855 124.014 17.7015 124.013C17.7482 124.013 22.3833 123.785 28.5331 125.565C36.662 127.915 43.8436 132.761 49.0594 139.416C61.7838 155.541 73.4279 157.985 73.5433 158.01C73.5751 158.016 73.6033 158.034 73.6217 158.061C73.6401 158.087 73.6472 158.12 73.6415 158.152C73.6354 158.179 73.6202 158.204 73.5984 158.222C73.5766 158.24 73.5494 158.249 73.5212 158.25Z" fill="#E3E3E3"/>
        <path d="M55.7938 147.184C55.7621 147.184 55.7316 147.172 55.7087 147.15C55.6858 147.128 55.6723 147.098 55.6711 147.066C55.6711 146.919 55.0819 132.201 58.5287 125.315C58.5447 125.288 58.5701 125.269 58.5999 125.26C58.6297 125.252 58.6616 125.255 58.6892 125.269C58.7169 125.283 58.7382 125.306 58.749 125.335C58.7597 125.364 58.7591 125.397 58.7472 125.425C56.9624 128.989 56.2922 134.677 56.0467 138.822C55.7717 143.321 55.9239 147.02 55.9264 147.057C55.927 147.089 55.9152 147.12 55.8932 147.144C55.8712 147.168 55.8409 147.182 55.8085 147.184H55.7938Z" fill="#E3E3E3"/>
        <path d="M56.2158 147.589C56.1826 147.589 56.1508 147.575 56.1274 147.552C56.0439 147.469 47.6699 138.869 48.7623 127.855C48.7639 127.839 48.7685 127.823 48.776 127.809C48.7835 127.795 48.7938 127.783 48.8061 127.773C48.8184 127.763 48.8326 127.756 48.8479 127.751C48.8631 127.747 48.8791 127.745 48.8949 127.747C48.9109 127.748 48.9266 127.752 48.9409 127.76C48.9552 127.767 48.9679 127.777 48.9782 127.79C48.9885 127.802 48.9962 127.816 49.0009 127.832C49.0055 127.847 49.0071 127.863 49.0054 127.879C47.9767 138.317 55.5431 146.576 56.2551 147.326C63.9613 144.698 68.7535 140.533 70.4941 134.947C73.8747 124.094 64.7469 111.092 62.8836 108.596C62.8038 108.49 62.6859 108.42 62.5549 108.399C62.4238 108.378 62.2899 108.41 62.1815 108.486C59.8962 110.108 57.7727 111.946 55.8401 113.975C55.8287 113.986 55.8151 113.995 55.8002 114.001C55.7852 114.008 55.7692 114.011 55.753 114.011C55.7368 114.011 55.7207 114.008 55.7058 114.001C55.6908 113.995 55.6773 113.986 55.6658 113.975C55.6544 113.963 55.6453 113.95 55.6391 113.935C55.6329 113.921 55.6297 113.905 55.6297 113.889C55.6297 113.873 55.6329 113.857 55.6391 113.842C55.6453 113.828 55.6544 113.814 55.6658 113.803C57.6103 111.762 59.748 109.913 62.0489 108.282C62.2096 108.168 62.4086 108.121 62.6035 108.151C62.7985 108.182 62.9738 108.287 63.0923 108.444C64.9703 110.957 74.1546 124.048 70.7396 135.013C68.9696 140.698 64.1111 144.926 56.2722 147.579L56.2158 147.589Z" fill="#E3E3E3"/>
        <path d="M66.8944 156.478C63.0744 154.497 41.6078 144.875 30.845 172.203C30.8072 172.295 30.8069 172.398 30.844 172.489C30.8812 172.581 30.953 172.654 31.0438 172.694C34.5226 174.179 64.5916 186.177 67.4247 157.456C67.4459 157.258 67.4066 157.059 67.3119 156.884C67.2172 156.71 67.0716 156.568 66.8944 156.478Z" fill="#658B80"/>
        <path d="M45.0107 162.726C44.9855 162.727 44.9609 162.719 44.9401 162.705C44.9193 162.691 44.9034 162.67 44.8945 162.647C44.8857 162.623 44.8843 162.597 44.8906 162.573C44.8969 162.549 44.9106 162.527 44.9297 162.511C50.7849 157.502 65.2278 154.502 65.3726 154.472C65.4044 154.466 65.4373 154.473 65.4643 154.491C65.4913 154.509 65.5104 154.536 65.5174 154.568C65.5207 154.584 65.5208 154.6 65.5177 154.616C65.5146 154.632 65.5085 154.647 65.4996 154.66C65.4907 154.673 65.4792 154.685 65.4659 154.694C65.4525 154.703 65.4375 154.709 65.4217 154.713C65.2769 154.742 50.8954 157.73 45.0893 162.697C45.0675 162.716 45.0396 162.726 45.0107 162.726Z" fill="#E3E3E3"/>
        <path d="M42.741 174.439H42.7263C36.4046 173.741 30.9422 171.559 29.4078 170.907C29.2878 170.857 29.1925 170.761 29.1428 170.642C29.0931 170.522 29.093 170.387 29.1427 170.267C32.8915 160.758 38.3195 154.73 45.2721 152.347C55.6249 148.802 65.8549 154.742 65.9556 154.798C65.9755 154.81 65.9917 154.827 66.0025 154.847C66.0134 154.868 66.0184 154.891 66.017 154.914C65.5505 160.552 64.0112 165.072 61.4457 168.316C61.4246 168.338 61.3959 168.351 61.3652 168.354C61.3345 168.356 61.3041 168.346 61.2801 168.327C61.256 168.308 61.24 168.281 61.2352 168.25C61.2304 168.22 61.2372 168.189 61.2542 168.164C63.778 164.977 65.2952 160.535 65.7666 154.972C64.8705 154.467 55.1609 149.216 45.3482 152.577C38.4742 154.936 33.0928 160.912 29.371 170.353C29.3578 170.383 29.3509 170.415 29.3505 170.448C29.3502 170.481 29.3566 170.514 29.3692 170.544C29.3818 170.575 29.4004 170.602 29.4239 170.625C29.4474 170.649 29.4753 170.667 29.506 170.679C31.0232 171.326 36.466 173.498 42.7631 174.194C42.7792 174.196 42.7949 174.2 42.8092 174.208C42.8235 174.216 42.8362 174.226 42.8465 174.238C42.8567 174.251 42.8644 174.265 42.8691 174.281C42.8737 174.297 42.8753 174.313 42.8736 174.329C42.8698 174.361 42.854 174.39 42.8293 174.411C42.8047 174.431 42.773 174.441 42.741 174.439Z" fill="#E3E3E3"/>
        <path d="M27.0017 139.92C24.5581 139.92 22.0213 139.257 19.3911 137.93C19.3766 137.923 19.3636 137.913 19.3529 137.901C19.3422 137.889 19.334 137.875 19.3287 137.859C19.3235 137.844 19.3213 137.828 19.3223 137.812C19.3233 137.796 19.3276 137.78 19.3347 137.766C19.3503 137.737 19.3763 137.715 19.4074 137.705C19.4384 137.695 19.4721 137.698 19.5016 137.712C27.392 141.688 34.4772 139.594 40.5214 131.483C40.546 130.764 40.7669 119.914 33.424 115.34C27.0115 111.351 16.8576 113.151 3.24696 120.682C3.18548 120.719 3.13207 120.768 3.0899 120.826C3.04773 120.884 3.01766 120.95 3.00146 121.02C2.98337 121.09 2.97993 121.163 2.99133 121.234C3.00274 121.305 3.02875 121.373 3.06775 121.434C4.30707 123.341 5.64864 125.18 7.08661 126.943C7.10668 126.968 7.11588 127 7.1122 127.032C7.10852 127.065 7.09227 127.094 7.06698 127.114C7.04185 127.134 7.00967 127.144 6.97749 127.141C6.94531 127.138 6.91571 127.122 6.89511 127.097C5.45164 125.328 4.10516 123.481 2.86154 121.567C2.80359 121.478 2.7649 121.378 2.74799 121.273C2.73108 121.168 2.73631 121.061 2.76333 120.959C2.78895 120.855 2.83578 120.758 2.90086 120.674C2.96593 120.589 3.04785 120.519 3.14141 120.468C16.8355 112.888 27.0729 111.094 33.5664 115.132C41.2604 119.917 40.7817 131.416 40.7768 131.532C40.7749 131.556 40.7664 131.58 40.7522 131.6C36.6081 137.14 32.0099 139.92 27.0017 139.92Z" fill="#E3E3E3"/>
        <path d="M37.9364 265C51.4991 265 62.4939 254.021 62.4939 240.478C62.4939 226.935 51.4991 215.957 37.9364 215.957C24.3737 215.957 13.3789 226.935 13.3789 240.478C13.3789 254.021 24.3737 265 37.9364 265Z" fill="#CE7783"/>
        <path d="M40.7775 261.97C39.7789 261.971 38.7811 261.911 37.7897 261.791C37.7736 261.789 37.758 261.784 37.7438 261.776C37.7296 261.769 37.717 261.758 37.7069 261.745C37.6968 261.733 37.6892 261.718 37.6847 261.703C37.6801 261.687 37.6787 261.671 37.6805 261.655C37.6823 261.639 37.6872 261.623 37.695 261.609C37.7028 261.595 37.7133 261.582 37.726 261.572C37.7386 261.562 37.7532 261.554 37.7688 261.55C37.7843 261.545 37.8006 261.544 37.8168 261.546C38.7993 261.664 39.7879 261.722 40.7775 261.722C45.9034 261.715 50.8967 260.095 55.0487 257.093C59.2007 254.092 62.3004 249.86 63.908 245C65.5155 240.14 65.5492 234.898 64.0042 230.017C62.4592 225.137 59.4141 220.866 55.301 217.811C51.1879 214.757 46.2158 213.074 41.0904 213C35.9649 212.927 30.9466 214.467 26.7476 217.403C22.5485 220.339 19.3821 224.52 17.6977 229.355C16.0134 234.189 15.8966 239.43 17.364 244.334C17.3732 244.365 17.3699 244.398 17.3547 244.427C17.3396 244.455 17.3138 244.477 17.283 244.486C17.2676 244.491 17.2512 244.493 17.2351 244.491C17.219 244.49 17.2033 244.485 17.1891 244.477C17.1749 244.469 17.1624 244.459 17.1524 244.446C17.1424 244.433 17.135 244.419 17.1308 244.403C15.64 239.441 15.753 234.135 17.4538 229.241C19.1547 224.347 22.3569 220.112 26.6055 217.138C30.8541 214.165 35.9331 212.603 41.1209 212.677C46.3087 212.75 51.3416 214.453 55.5044 217.545C59.6673 220.638 62.7485 224.961 64.3104 229.901C65.8722 234.842 65.8352 240.148 64.2047 245.066C62.5742 249.985 59.433 254.265 55.2275 257.299C51.0219 260.333 45.9658 261.966 40.7775 261.967V261.97Z" fill="#E3E3E3"/>
        <path d="M245.744 66.8041C244.063 66.8034 242.416 66.3263 240.996 65.4282C239.575 64.5302 238.439 63.2481 237.719 61.7308C236.999 60.2135 236.725 58.5235 236.929 56.8569C237.133 55.1904 237.806 53.6158 238.87 52.3161C238.88 52.3034 238.893 52.2929 238.907 52.2852C238.922 52.2774 238.938 52.2726 238.954 52.271C238.97 52.2694 238.986 52.2711 239.002 52.2759C239.018 52.2807 239.032 52.2885 239.045 52.2989C239.069 52.3195 239.085 52.3491 239.088 52.3812C239.092 52.4134 239.082 52.4455 239.062 52.4706C237.887 53.9075 237.207 55.6842 237.123 57.5373C237.04 59.3903 237.556 61.221 238.597 62.7577C239.637 64.2944 241.146 65.4553 242.899 66.0683C244.653 66.6812 246.557 66.7134 248.33 66.1603C250.103 65.6071 251.651 64.498 252.743 62.9974C253.835 61.4968 254.413 59.6846 254.393 57.8298C254.372 55.975 253.753 54.1762 252.627 52.7004C251.502 51.2245 249.93 50.1502 248.145 49.6367C248.129 49.6322 248.114 49.6245 248.101 49.6142C248.088 49.6039 248.077 49.5911 248.069 49.5765C248.06 49.562 248.055 49.5459 248.053 49.5293C248.051 49.5127 248.052 49.4959 248.057 49.4798C248.061 49.4637 248.069 49.4487 248.079 49.4355C248.09 49.4224 248.103 49.4114 248.117 49.4032C248.132 49.395 248.148 49.3897 248.164 49.3878C248.181 49.3858 248.198 49.387 248.214 49.3916C250.275 49.9811 252.053 51.2944 253.22 53.0896C254.387 54.8847 254.866 57.0407 254.567 59.1602C254.268 61.2797 253.212 63.2199 251.593 64.6233C249.975 66.0266 247.903 66.7985 245.759 66.7967L245.744 66.8041Z" fill="#E3E3E3"/>
        <path d="M238.224 113.357C237.864 113.357 237.505 113.321 237.152 113.249C237.135 113.246 237.12 113.239 237.106 113.23C237.093 113.221 237.081 113.209 237.072 113.196C237.063 113.182 237.056 113.167 237.053 113.151C237.05 113.135 237.05 113.118 237.053 113.102C237.057 113.086 237.063 113.07 237.072 113.057C237.081 113.043 237.093 113.031 237.107 113.022C237.12 113.013 237.136 113.007 237.152 113.004C237.168 113.001 237.184 113.001 237.201 113.004C238.229 113.215 239.298 113.104 240.26 112.685C241.223 112.266 242.032 111.559 242.576 110.663C243.121 109.766 243.374 108.723 243.301 107.677C243.229 106.631 242.834 105.633 242.17 104.82C241.507 104.008 240.608 103.42 239.597 103.137C238.586 102.855 237.512 102.892 236.522 103.243C235.533 103.595 234.677 104.243 234.071 105.1C233.466 105.956 233.14 106.979 233.14 108.027C233.14 108.06 233.127 108.091 233.104 108.114C233.081 108.137 233.05 108.15 233.017 108.15C232.985 108.15 232.953 108.137 232.93 108.114C232.907 108.091 232.895 108.06 232.895 108.027C232.895 106.974 233.207 105.945 233.793 105.069C234.379 104.193 235.212 103.511 236.187 103.108C237.161 102.705 238.234 102.6 239.268 102.805C240.302 103.011 241.253 103.518 241.998 104.263C242.744 105.008 243.251 105.957 243.457 106.99C243.662 108.023 243.556 109.094 243.152 110.067C242.749 111.04 242.065 111.871 241.187 112.456C240.31 113.041 239.279 113.352 238.224 113.352V113.357Z" fill="#E3E3E3"/>
        <path d="M46.4061 72.7831C46.1845 72.7824 45.9654 72.7357 45.7629 72.6458L24.4043 63.0656C24.2167 62.9816 24.0475 62.8614 23.9064 62.712C23.7654 62.5627 23.6552 62.387 23.5823 62.195C23.5093 62.0031 23.4749 61.7986 23.4812 61.5934C23.4874 61.3882 23.5342 61.1862 23.6187 60.999L33.2104 39.6716C33.3814 39.2935 33.6954 38.9985 34.0837 38.851C34.4721 38.7035 34.903 38.7156 35.2824 38.8847L39.0386 40.5688C39.0684 40.5827 39.0915 40.6076 39.1029 40.6384C39.1144 40.6691 39.1134 40.7031 39.1 40.733C39.0866 40.7626 39.062 40.7856 39.0316 40.7971C39.0013 40.8086 38.9676 40.8076 38.9379 40.7943L35.1818 39.1077C34.8616 38.9653 34.498 38.9551 34.1705 39.0796C33.8429 39.2041 33.578 39.4531 33.4338 39.7721L23.8421 61.0996C23.6986 61.4185 23.6879 61.7812 23.8122 62.108C23.9365 62.4349 24.1856 62.699 24.5049 62.8425L45.8635 72.4227C46.1836 72.5659 46.5474 72.5763 46.8752 72.4518C47.2029 72.3272 47.4678 72.0778 47.6115 71.7584L57.2032 50.4309C57.2746 50.273 57.314 50.1027 57.3193 49.9295C57.3246 49.7564 57.2956 49.584 57.2341 49.422C57.1725 49.2601 57.0795 49.112 56.9605 48.986C56.8414 48.86 56.6987 48.7587 56.5404 48.6879L54.1026 47.5922C54.0749 47.5776 54.0539 47.5531 54.0437 47.5236C54.0335 47.4941 54.035 47.4618 54.0479 47.4334C54.0607 47.4049 54.0839 47.3824 54.1128 47.3705C54.1416 47.3585 54.174 47.358 54.2032 47.3691L56.641 48.4624C57.0196 48.6331 57.315 48.9468 57.4623 49.3347C57.6095 49.7226 57.5967 50.153 57.4266 50.5314L47.8349 71.8589C47.7515 72.0467 47.6315 72.2161 47.4819 72.3571C47.3322 72.4981 47.156 72.6079 46.9634 72.6801C46.7854 72.7478 46.5966 72.7827 46.4061 72.7831Z" fill="#E3E3E3"/>
        <path d="M270.66 229.155C270.44 229.154 270.222 229.107 270.022 229.015L254.948 222.254C254.569 222.084 254.274 221.77 254.126 221.382C253.978 220.995 253.99 220.564 254.16 220.185L260.933 205.136C261.104 204.758 261.417 204.463 261.805 204.316C262.193 204.169 262.624 204.182 263.003 204.352L278.074 211.113C278.453 211.283 278.748 211.597 278.896 211.985C279.043 212.372 279.031 212.803 278.862 213.182L277.541 216.123C277.535 216.138 277.526 216.152 277.514 216.163C277.502 216.174 277.488 216.183 277.473 216.188C277.458 216.194 277.442 216.197 277.426 216.196C277.41 216.195 277.394 216.192 277.379 216.185C277.35 216.171 277.327 216.147 277.315 216.116C277.304 216.086 277.305 216.052 277.318 216.023L278.639 213.081C278.782 212.762 278.792 212.398 278.668 212.071C278.543 211.744 278.293 211.479 277.973 211.336L262.902 204.575C262.583 204.432 262.22 204.422 261.892 204.546C261.565 204.67 261.301 204.918 261.157 205.237L254.386 220.286C254.314 220.444 254.274 220.614 254.269 220.788C254.263 220.961 254.292 221.134 254.354 221.296C254.415 221.458 254.508 221.607 254.628 221.733C254.747 221.859 254.89 221.961 255.048 222.031L270.12 228.792C270.439 228.936 270.802 228.946 271.13 228.822C271.457 228.698 271.722 228.449 271.865 228.13L272.675 226.329C272.689 226.3 272.714 226.277 272.744 226.266C272.774 226.254 272.808 226.255 272.838 226.267C272.852 226.274 272.866 226.283 272.877 226.295C272.888 226.307 272.897 226.321 272.903 226.337C272.908 226.352 272.911 226.368 272.91 226.384C272.91 226.401 272.906 226.417 272.899 226.432L272.091 228.231C271.966 228.506 271.765 228.739 271.511 228.903C271.258 229.067 270.962 229.154 270.66 229.155Z" fill="#E3E3E3"/>
    </g>
    <defs>
        <clipPath id="clip0_8813_24934">
            <rect width="279" height="265" fill="white"/>
        </clipPath>
    </defs>
</svg>
