<svg width="460" height="276" viewBox="0 0 460 276" fill="none" xmlns="http://www.w3.org/2000/svg">
<path d="M20.2289 250.341C21.35 251.126 22.2718 252.162 22.9204 253.367C23.5946 254.605 23.942 255.995 23.9298 257.405V257.489C23.9331 258.618 23.7117 259.737 23.2785 260.781C22.8453 261.824 22.2089 262.771 21.4064 263.566C20.6167 264.34 19.6897 264.96 18.6728 265.395C17.6236 265.846 16.4924 266.075 15.3504 266.068H6.98127L8.99996 261.021H15.3504C15.8148 261.023 16.2751 260.933 16.7046 260.756C17.134 260.58 17.5242 260.319 17.8527 259.991C18.1811 259.663 18.4412 259.272 18.6181 258.843C18.7949 258.413 18.885 257.953 18.8831 257.489V257.405C18.885 256.94 18.7949 256.48 18.618 256.05C18.4411 255.621 18.1809 255.231 17.8525 254.903C17.5241 254.574 17.1339 254.314 16.7045 254.137C16.275 253.96 15.8148 253.87 15.3504 253.872H5.0467V266.068H0V236.629H13.2897C14.4193 236.626 15.5384 236.847 16.5817 237.28C17.6251 237.713 18.5718 238.35 19.3669 239.152C20.1407 239.942 20.761 240.869 21.1962 241.886C21.6476 242.936 21.8767 244.069 21.869 245.212V245.296C21.8741 246.218 21.725 247.135 21.4277 248.008C21.1449 248.84 20.7409 249.626 20.2289 250.341ZM16.8223 245.212C16.8244 244.747 16.7344 244.287 16.5576 243.858C16.3808 243.428 16.1206 243.038 15.7922 242.709C15.4637 242.381 15.0735 242.121 14.644 241.944C14.2144 241.767 13.7541 241.677 13.2897 241.679H5.0467V248.828H13.2897C13.7541 248.83 14.2144 248.74 14.6438 248.563C15.0733 248.386 15.4635 248.126 15.7919 247.797C16.1204 247.469 16.3805 247.079 16.5574 246.649C16.7342 246.22 16.8243 245.76 16.8223 245.295V245.212Z" fill="white"/>
<path d="M26.8281 266.07V236.631H31.8748V266.07H26.8281Z" fill="white"/>
<path d="M56.5637 244.999V266.069H51.517V255.555C51.5203 254.759 51.366 253.97 51.0628 253.234C50.7596 252.498 50.3137 251.829 49.7506 251.266C49.1876 250.703 48.5187 250.257 47.7824 249.954C47.0462 249.65 46.2572 249.496 45.4609 249.499C43.8535 249.497 42.3106 250.132 41.1712 251.266C40.0404 252.399 39.4052 253.934 39.4052 255.534C39.4052 257.135 40.0404 258.67 41.1712 259.803C41.7184 260.384 42.3865 260.837 43.1282 261.13C43.8711 261.424 44.6634 261.574 45.4625 261.571C46.24 261.584 47.012 261.441 47.7335 261.151L49.5415 265.65C48.1379 266.321 46.5966 266.652 45.0416 266.618C43.5739 266.633 42.1195 266.339 40.7727 265.756C39.4957 265.2 38.3442 264.392 37.3874 263.38C36.4247 262.356 35.6679 261.157 35.1584 259.847C34.093 257.072 34.093 254.001 35.1584 251.226C35.6679 249.916 36.4247 248.717 37.3874 247.693C38.3444 246.681 39.4958 245.873 40.7727 245.317C42.1195 244.733 43.5739 244.44 45.0416 244.455C46.29 244.433 47.5314 244.647 48.7004 245.086C49.7133 245.476 50.6628 246.015 51.5182 246.684V244.999H56.5637Z" fill="white"/>
<path d="M78.0066 263.378C76.9932 264.391 75.7936 265.197 74.4739 265.754C73.1006 266.323 71.6286 266.616 70.1421 266.616C68.6556 266.616 67.1837 266.323 65.8104 265.754C63.1452 264.631 61.0246 262.511 59.9017 259.846C59.3323 258.48 59.0391 257.015 59.0391 255.535C59.0391 254.055 59.3323 252.59 59.9017 251.224C61.0249 248.559 63.1453 246.438 65.8104 245.315C67.1837 244.746 68.6556 244.453 70.1421 244.453C71.6286 244.453 73.1006 244.746 74.4739 245.315C75.7934 245.872 76.993 246.679 78.0066 247.691L74.4299 251.266C73.8734 250.694 73.2057 250.243 72.4679 249.939C71.7301 249.635 70.9379 249.486 70.1402 249.5C69.3439 249.496 68.5548 249.65 67.8185 249.954C67.0822 250.257 66.4133 250.703 65.8505 251.266C64.7196 252.399 64.0844 253.934 64.0844 255.535C64.0844 257.135 64.7196 258.671 65.8505 259.804C66.4127 260.375 67.0854 260.826 67.8275 261.128C68.5625 261.424 69.3479 261.574 70.1402 261.57C70.9386 261.589 71.7325 261.443 72.471 261.138C73.2096 260.834 73.8767 260.38 74.4299 259.804L78.0066 263.378Z" fill="white"/>
<path d="M88.2699 255.556L98.7839 266.07H91.6764L84.6951 259.089V266.07H79.6484V236.631H84.6951V251.981L91.6344 245.042H98.7839L88.2699 255.556Z" fill="white"/>
<path d="M107.619 244.453C109.106 244.443 110.58 244.736 111.95 245.315C114.616 246.439 116.737 248.56 117.859 251.226C118.428 252.592 118.721 254.057 118.721 255.537C118.721 257.016 118.428 258.481 117.859 259.847C116.736 262.512 114.615 264.632 111.95 265.755C110.577 266.324 109.105 266.616 107.619 266.616C106.132 266.616 104.66 266.324 103.287 265.755C100.622 264.632 98.5012 262.511 97.3783 259.846C96.8088 258.48 96.5156 257.015 96.5156 255.535C96.5156 254.055 96.8088 252.59 97.3783 251.224C98.5015 248.559 100.622 246.439 103.287 245.315C104.657 244.736 106.131 244.443 107.619 244.453ZM107.619 249.5C106.423 249.496 105.254 249.848 104.258 250.509C103.263 251.171 102.486 252.113 102.027 253.217C101.567 254.32 101.446 255.535 101.678 256.708C101.91 257.881 102.484 258.958 103.329 259.804C103.876 260.383 104.544 260.836 105.285 261.129C106.028 261.423 106.82 261.573 107.619 261.57C108.411 261.574 109.197 261.424 109.932 261.129C110.674 260.826 111.346 260.375 111.908 259.804C113.04 258.671 113.675 257.136 113.675 255.535C113.675 253.934 113.04 252.399 111.908 251.266C111.346 250.703 110.677 250.257 109.94 249.954C109.204 249.651 108.415 249.496 107.619 249.5Z" fill="white"/>
<path d="M140.716 245.043V266.071H135.669V264.472C134.899 265.126 134.034 265.658 133.104 266.05C132.091 266.468 131.003 266.675 129.907 266.66C128.618 266.677 127.34 266.412 126.165 265.881C125.068 265.381 124.086 264.659 123.284 263.759C122.469 262.837 121.841 261.766 121.434 260.605C120.992 259.363 120.772 258.054 120.782 256.736V245.043H125.828V256.734C125.828 258.039 126.346 259.291 127.269 260.214C128.192 261.137 129.443 261.655 130.748 261.655C132.053 261.655 133.305 261.137 134.228 260.214C135.151 259.291 135.669 258.039 135.669 256.734V245.043H140.716Z" fill="white"/>
<path d="M154.727 266.07H150.1C149.175 266.076 148.259 265.89 147.409 265.524C146.589 265.174 145.846 264.666 145.222 264.03C144.599 263.391 144.1 262.643 143.75 261.822C143.384 260.973 143.197 260.056 143.203 259.131V240.795L148.25 239.533V247.566H151.194L152.456 252.613H148.25V259.131C148.244 259.381 148.29 259.629 148.384 259.861C148.478 260.092 148.618 260.302 148.797 260.477C148.965 260.652 149.168 260.791 149.392 260.886C149.616 260.98 149.857 261.027 150.1 261.024H153.465L154.727 266.07Z" fill="white"/>
<path d="M181.761 261.024V266.071H165.148V236.674H170.195V261.024H181.761Z" fill="white"/>
<path d="M184.242 236.631H189.289V241.678H184.242V236.631ZM184.242 266.07V245.042H189.289V266.07H184.242Z" fill="white"/>
<path d="M213.979 263.966C213.987 265.44 213.694 266.899 213.117 268.256C212.56 269.575 211.753 270.775 210.741 271.788C209.725 272.803 208.526 273.616 207.208 274.186C204.698 275.252 201.884 275.357 199.302 274.48C198.182 274.088 197.131 273.52 196.19 272.798L199.849 269.182C200.756 269.745 201.807 270.037 202.875 270.023C203.677 270.041 204.474 269.889 205.213 269.578C205.953 269.266 206.618 268.802 207.165 268.215C207.734 267.665 208.184 267.004 208.488 266.274C208.791 265.543 208.942 264.758 208.931 263.967V255.513C208.935 254.716 208.78 253.927 208.477 253.191C208.174 252.455 207.728 251.786 207.165 251.223C206.608 250.651 205.941 250.199 205.204 249.896C204.466 249.592 203.674 249.442 202.877 249.456C202.08 249.452 201.291 249.607 200.555 249.91C199.819 250.213 199.15 250.659 198.587 251.222C198.024 251.785 197.578 252.454 197.275 253.19C196.972 253.927 196.817 254.716 196.821 255.512C196.807 256.31 196.956 257.102 197.26 257.84C197.563 258.577 198.015 259.245 198.587 259.802C199.15 260.365 199.818 260.811 200.555 261.114C201.291 261.418 202.08 261.572 202.877 261.568C203.654 261.58 204.426 261.437 205.148 261.147L207.04 265.858C205.742 266.369 204.357 266.626 202.961 266.614H202.877C201.403 266.622 199.943 266.329 198.587 265.752C197.267 265.196 196.068 264.389 195.055 263.376C194.04 262.36 193.227 261.162 192.657 259.844C192.064 258.477 191.763 257.002 191.774 255.512C191.762 254.034 192.019 252.566 192.531 251.18C193.008 249.879 193.729 248.68 194.654 247.647C195.569 246.635 196.686 245.825 197.934 245.271C199.251 244.688 200.678 244.395 202.118 244.41C203.437 244.386 204.749 244.607 205.987 245.062C207.04 245.459 208.032 246.004 208.931 246.681V245.041H213.978L213.979 263.966Z" fill="white"/>
<path d="M227.48 244.453C228.77 244.436 230.047 244.701 231.223 245.231C232.324 245.735 233.306 246.466 234.104 247.376C234.915 248.309 235.543 249.386 235.954 250.551C236.395 251.793 236.615 253.103 236.606 254.42V266.07H231.558V254.42C231.562 253.77 231.434 253.126 231.18 252.528C230.921 251.93 230.549 251.388 230.086 250.93C229.639 250.469 229.103 250.104 228.51 249.858C227.916 249.612 227.279 249.49 226.637 249.5C225.99 249.495 225.347 249.619 224.748 249.864C224.149 250.11 223.604 250.472 223.146 250.93C222.689 251.388 222.326 251.932 222.081 252.531C221.835 253.131 221.712 253.773 221.717 254.42V266.07H216.672V236.631H221.718V246.724C222.482 246.047 223.348 245.493 224.284 245.084C225.293 244.652 226.382 244.437 227.48 244.453Z" fill="white"/>
<path d="M250.398 266.07H245.772C244.847 266.076 243.93 265.89 243.081 265.524C242.261 265.174 241.518 264.666 240.893 264.03C240.271 263.391 239.772 262.643 239.422 261.822C239.055 260.973 238.869 260.056 238.875 259.131V240.795L243.922 239.533V247.566H246.866L248.127 252.613H243.922V259.131C243.916 259.381 243.962 259.629 244.056 259.861C244.15 260.092 244.29 260.302 244.469 260.477C244.637 260.652 244.84 260.791 245.064 260.886C245.288 260.98 245.529 261.027 245.772 261.024H249.137L250.398 266.07Z" fill="white"/>
<path d="M252.242 236.631H257.289V241.678H252.242V236.631ZM252.242 266.07V245.042H257.289V266.07H252.242Z" fill="white"/>
<path d="M271.004 244.454C272.293 244.436 273.571 244.702 274.747 245.232C275.847 245.736 276.829 246.467 277.627 247.377C278.439 248.309 279.066 249.386 279.478 250.552C279.918 251.794 280.139 253.103 280.13 254.421V266.071H275.083V254.421C275.1 253.768 274.977 253.119 274.723 252.517C274.47 251.915 274.09 251.374 273.611 250.931C273.164 250.469 272.628 250.105 272.035 249.859C271.442 249.613 270.804 249.491 270.162 249.501C269.515 249.496 268.873 249.619 268.273 249.865C267.674 250.11 267.13 250.473 266.672 250.931C266.214 251.388 265.852 251.933 265.606 252.532C265.361 253.131 265.237 253.774 265.242 254.421V266.071H260.195V245.043H265.242V246.641C266.012 245.988 266.877 245.456 267.807 245.064C268.82 244.646 269.908 244.438 271.004 244.454Z" fill="white"/>
<path d="M304.402 263.967C304.409 265.44 304.116 266.9 303.539 268.256C302.982 269.576 302.176 270.775 301.164 271.789C300.147 272.803 298.949 273.617 297.631 274.187C295.121 275.253 292.306 275.357 289.724 274.481C288.604 274.089 287.554 273.521 286.612 272.799L290.271 269.183C291.179 269.746 292.229 270.038 293.297 270.024C294.099 270.042 294.896 269.89 295.636 269.578C296.375 269.267 297.04 268.802 297.587 268.216C298.156 267.666 298.606 267.005 298.91 266.275C299.214 265.544 299.365 264.759 299.353 263.968V255.513C299.357 254.718 299.203 253.929 298.9 253.193C298.597 252.457 298.151 251.788 297.589 251.225C297.032 250.653 296.365 250.201 295.627 249.897C294.889 249.593 294.097 249.443 293.299 249.457C292.503 249.453 291.714 249.608 290.977 249.911C290.241 250.214 289.572 250.66 289.009 251.223C288.446 251.786 288 252.455 287.697 253.191C287.394 253.927 287.24 254.716 287.243 255.513C287.229 256.31 287.378 257.103 287.682 257.84C287.986 258.578 288.437 259.246 289.009 259.802C289.572 260.366 290.241 260.812 290.977 261.115C291.713 261.418 292.503 261.573 293.299 261.569C294.076 261.581 294.848 261.438 295.57 261.148L297.463 265.858C296.164 266.37 294.779 266.627 293.383 266.615H293.299C291.825 266.623 290.365 266.33 289.009 265.753C287.689 265.196 286.49 264.389 285.476 263.377C284.462 262.361 283.649 261.162 283.079 259.844C282.486 258.478 282.185 257.002 282.196 255.513C282.184 254.035 282.441 252.567 282.953 251.181C283.43 249.88 284.15 248.681 285.075 247.648C285.99 246.636 287.108 245.826 288.355 245.272C289.673 244.689 291.099 244.395 292.54 244.41C293.859 244.386 295.171 244.607 296.409 245.062C297.462 245.459 298.453 246.004 299.353 246.681V245.042H304.4L304.402 263.967Z" fill="white"/>
<path d="M341.198 262.117C339.797 263.518 338.141 264.638 336.32 265.418C334.432 266.209 332.405 266.616 330.358 266.616C328.311 266.616 326.285 266.209 324.397 265.418C320.716 263.868 317.788 260.94 316.238 257.259C315.447 255.375 315.039 253.352 315.039 251.309C315.039 249.265 315.447 247.242 316.238 245.358C317.787 241.677 320.715 238.748 324.396 237.198C326.284 236.407 328.311 236 330.358 236C332.405 236 334.431 236.407 336.319 237.198C338.141 237.978 339.796 239.099 341.198 240.5L337.621 244.075C336.672 243.115 335.544 242.351 334.301 241.825C333.049 241.302 331.704 241.038 330.347 241.047C329.004 241.041 327.674 241.305 326.436 241.825C323.932 242.898 321.937 244.893 320.864 247.397C320.344 248.635 320.08 249.966 320.086 251.308C320.081 252.657 320.345 253.994 320.864 255.239C321.385 256.491 322.15 257.628 323.114 258.582C324.06 259.541 325.19 260.299 326.436 260.811C327.677 261.318 329.006 261.575 330.347 261.568C331.702 261.578 333.045 261.321 334.301 260.813C335.546 260.3 336.676 259.542 337.623 258.584L341.198 262.117Z" fill="white"/>
<path d="M353.095 244.453C354.583 244.443 356.057 244.736 357.427 245.315C360.092 246.439 362.213 248.559 363.336 251.224C363.905 252.59 364.198 254.055 364.198 255.535C364.198 257.015 363.905 258.48 363.336 259.846C362.213 262.511 360.092 264.632 357.427 265.755C356.054 266.324 354.582 266.616 353.095 266.616C351.609 266.616 350.137 266.324 348.764 265.755C346.098 264.632 343.977 262.511 342.855 259.846C342.285 258.48 341.992 257.015 341.992 255.535C341.992 254.055 342.285 252.59 342.855 251.224C343.978 248.559 346.098 246.438 348.764 245.315C350.134 244.736 351.608 244.443 353.095 244.453ZM353.095 249.5C351.9 249.496 350.73 249.848 349.735 250.509C348.739 251.171 347.963 252.113 347.503 253.217C347.044 254.32 346.922 255.535 347.154 256.708C347.386 257.881 347.961 258.958 348.805 259.804C349.352 260.383 350.02 260.836 350.761 261.129C351.504 261.423 352.296 261.573 353.095 261.57C353.887 261.574 354.673 261.424 355.408 261.129C356.15 260.826 356.822 260.375 357.385 259.804C358.516 258.671 359.151 257.136 359.151 255.535C359.151 253.934 358.516 252.399 357.385 251.266C356.822 250.703 356.153 250.257 355.417 249.954C354.68 249.651 353.891 249.496 353.095 249.5Z" fill="white"/>
<path d="M377.277 244.454C378.567 244.436 379.844 244.702 381.02 245.232C382.121 245.736 383.102 246.467 383.901 247.377C384.712 248.309 385.34 249.387 385.751 250.552C386.192 251.794 386.413 253.103 386.403 254.421V266.071H381.356V254.421C381.373 253.768 381.25 253.119 380.997 252.517C380.743 251.915 380.364 251.374 379.884 250.931C379.438 250.469 378.901 250.104 378.308 249.859C377.715 249.613 377.078 249.491 376.436 249.501C375.788 249.496 375.146 249.619 374.547 249.865C373.948 250.11 373.403 250.473 372.945 250.931C372.487 251.389 372.125 251.933 371.88 252.532C371.634 253.132 371.51 253.774 371.515 254.421V266.071H366.469V245.043H371.515V246.641C372.285 245.988 373.151 245.456 374.081 245.064C375.094 244.646 376.181 244.438 377.277 244.454Z" fill="white"/>
<path d="M397.293 253.035C397.864 253.2 398.425 253.397 398.975 253.624C399.823 253.967 400.634 254.397 401.393 254.907C402.226 255.459 402.958 256.149 403.559 256.947C404.183 257.783 404.509 258.805 404.484 259.848C404.495 260.768 404.331 261.682 404.001 262.54C403.679 263.364 403.184 264.11 402.549 264.727C401.914 265.344 401.154 265.817 400.321 266.115C399.35 266.463 398.325 266.634 397.294 266.619C395.657 266.633 394.034 266.319 392.521 265.694C391.2 265.176 389.993 264.404 388.967 263.423L392.458 259.933C393.055 260.709 393.866 261.294 394.792 261.615C395.464 261.84 396.166 261.968 396.875 261.993C397.558 262.046 398.239 261.868 398.81 261.489C399.003 261.349 399.161 261.167 399.271 260.955C399.38 260.743 399.439 260.509 399.44 260.27C399.439 260.101 399.401 259.935 399.328 259.782C399.255 259.629 399.15 259.495 399.02 259.387C398.725 259.127 398.392 258.914 398.031 258.758C397.658 258.592 397.271 258.458 396.875 258.359C396.482 258.261 396.159 258.169 395.908 258.084C395.571 257.972 395.003 257.775 394.204 257.494C393.346 257.185 392.527 256.776 391.765 256.276C390.93 255.736 390.196 255.052 389.599 254.257C388.97 253.407 388.644 252.37 388.674 251.313C388.648 250.264 388.856 249.222 389.284 248.264C389.662 247.447 390.215 246.722 390.903 246.141C391.583 245.577 392.37 245.155 393.216 244.9C394.088 244.634 394.996 244.499 395.908 244.501C397.14 244.472 398.368 244.643 399.546 245.006C400.403 245.281 401.228 245.647 402.006 246.099C402.695 246.542 403.318 247.08 403.856 247.697L400.324 251.23C399.836 250.564 399.203 250.017 398.473 249.632C397.808 249.297 397.073 249.124 396.328 249.127C395.722 249.132 395.125 249.276 394.583 249.548C394.32 249.658 394.096 249.846 393.942 250.086C393.788 250.327 393.71 250.608 393.72 250.894C393.719 251.056 393.752 251.217 393.817 251.365C393.882 251.514 393.978 251.647 394.099 251.756C394.369 252.006 394.683 252.206 395.025 252.345C395.401 252.504 395.787 252.638 396.181 252.745C396.585 252.853 396.956 252.95 397.293 253.035Z" fill="white"/>
<path d="M416.689 244.453C418.176 244.443 419.65 244.736 421.021 245.315C423.686 246.439 425.806 248.559 426.929 251.224C427.498 252.59 427.791 254.055 427.791 255.535C427.791 257.015 427.498 258.48 426.929 259.846C425.806 262.511 423.686 264.632 421.021 265.755C419.647 266.324 418.176 266.616 416.689 266.616C415.203 266.616 413.731 266.324 412.357 265.755C409.692 264.632 407.572 262.511 406.449 259.846C405.879 258.48 405.586 257.015 405.586 255.535C405.586 254.055 405.879 252.59 406.449 251.224C407.572 248.559 409.692 246.439 412.357 245.315C413.727 244.736 415.201 244.443 416.689 244.453ZM416.689 249.5C415.493 249.496 414.324 249.848 413.328 250.509C412.333 251.171 411.556 252.113 411.097 253.217C410.637 254.32 410.516 255.535 410.748 256.708C410.979 257.881 411.554 258.958 412.399 259.804C412.946 260.383 413.614 260.836 414.355 261.129C415.097 261.423 415.89 261.573 416.689 261.57C417.481 261.574 418.267 261.424 419.002 261.129C419.744 260.826 420.416 260.375 420.978 259.804C422.11 258.671 422.745 257.136 422.745 255.535C422.745 253.934 422.11 252.399 420.978 251.266C420.415 250.703 419.747 250.257 419.01 249.954C418.274 249.651 417.485 249.496 416.689 249.5Z" fill="white"/>
<path d="M430.266 266.07V236.631H435.312V266.07H430.266Z" fill="white"/>
<path d="M454.41 258.079H443.391C443.676 258.731 444.091 259.318 444.61 259.804C445.172 260.375 445.845 260.826 446.587 261.128C447.322 261.424 448.107 261.574 448.899 261.57C449.977 261.589 451.039 261.313 451.97 260.771L457.227 262.874C456.222 264.048 454.974 264.988 453.568 265.628C452.102 266.295 450.509 266.632 448.899 266.616C447.412 266.627 445.938 266.334 444.568 265.754C441.903 264.632 439.782 262.511 438.659 259.846C438.09 258.48 437.797 257.015 437.797 255.535C437.797 254.055 438.09 252.59 438.659 251.224C439.782 248.559 441.903 246.438 444.568 245.315C445.941 244.746 447.413 244.453 448.9 244.453C450.386 244.453 451.858 244.746 453.232 245.315C455.897 246.438 458.017 248.559 459.14 251.224C459.72 252.594 460.013 254.068 460.002 255.556C460.008 256.406 459.909 257.253 459.708 258.079H454.41ZM448.9 249.5C448.104 249.496 447.315 249.65 446.579 249.954C445.842 250.257 445.173 250.703 444.611 251.266C444.096 251.773 443.683 252.372 443.392 253.033H454.411C454.12 252.372 453.706 251.773 453.192 251.266C452.636 250.694 451.968 250.242 451.229 249.938C450.491 249.634 449.698 249.485 448.9 249.5Z" fill="white"/>
<path d="M324 92.0968C323.792 81.0296 321.625 70.0867 317.598 59.7758L311.616 62.2541C315.319 71.7785 317.321 81.8797 317.529 92.0968H324ZM316.137 56.2609C311.687 46.127 305.485 36.8571 297.816 28.8769L293.24 33.4526C300.309 40.8313 306.034 49.3887 310.156 58.7386L316.137 56.2609ZM295.124 26.185C287.143 18.5158 277.873 12.3137 267.739 7.86358L265.262 13.8437C274.612 17.966 283.169 23.691 290.547 30.7603L295.123 26.1841L295.124 26.185ZM228.097 0C217.029 0.208251 206.087 2.37575 195.776 6.40199L198.254 12.3851C207.778 8.68118 217.88 6.67941 228.097 6.47105V0ZM162.185 28.8762C154.516 36.8567 148.314 46.1269 143.864 56.2609L149.845 58.7386C153.967 49.3886 159.692 40.8312 166.761 33.4526L162.185 28.8769V28.8762ZM136 95.9034C136.208 106.971 138.376 117.913 142.402 128.224L148.384 125.746C144.681 116.222 142.679 106.121 142.471 95.9034H136ZM143.863 131.739C148.313 141.873 154.515 151.143 162.184 159.123L166.76 154.548C159.691 147.169 153.967 138.612 149.845 129.262L143.864 131.739H143.863ZM195.776 181.598C206.087 185.625 217.03 187.792 228.097 188V181.529C217.88 181.321 207.778 179.32 198.254 175.616L195.776 181.598ZM267.739 180.137C277.873 175.686 287.143 169.484 295.123 161.815L290.547 157.239C283.169 164.308 274.612 170.033 265.262 174.156L267.739 180.137L267.739 180.137ZM316.136 131.739L310.155 129.262C306.033 138.611 300.308 147.169 293.239 154.548L297.815 159.123C305.484 151.143 311.686 141.873 316.136 131.739Z" fill="#2E2D2C"/>
<path d="M306.685 123.706C310.123 114.829 311.988 105.421 312.196 95.9036H308.39C308.182 104.921 306.414 113.834 303.166 122.248L306.685 123.707L306.685 123.706ZM312.195 92.0971C311.987 82.5798 310.123 73.1716 306.685 64.2946L303.166 65.7532C306.414 74.1674 308.181 83.0806 308.389 92.0977L312.195 92.0971ZM286.775 34.5295C279.892 27.9544 271.922 22.6223 263.218 18.77L261.76 22.2885C270.003 25.9477 277.555 30.9993 284.083 37.2218L286.775 34.5295ZM228.093 11.8008C218.576 12.0087 209.168 13.8734 200.291 17.3114L201.748 20.8303C210.163 17.582 219.076 15.815 228.093 15.6076V11.8015V11.8008ZM196.775 18.7705C188.071 22.6224 180.1 27.9544 173.217 34.5295L175.91 37.2218C182.439 30.9993 189.99 25.9477 198.233 22.2885L196.776 18.7705H196.775ZM153.307 64.2946C149.869 73.1716 148.005 82.5798 147.797 92.0971H151.603C151.81 83.0799 153.577 74.1667 156.826 65.7525L153.307 64.2939L153.307 64.2946ZM147.797 95.9036C148.005 105.421 149.869 114.829 153.307 123.706L156.826 122.247C153.578 113.833 151.811 104.92 151.603 95.9036H147.797ZM173.217 153.471C180.1 160.046 188.071 165.378 196.775 169.23L198.232 165.712C189.989 162.053 182.438 157.001 175.91 150.779L173.218 153.471H173.217ZM231.9 176.2C241.417 175.992 250.825 174.127 259.702 170.689L258.243 167.17C249.829 170.418 240.916 172.186 231.899 172.393V176.199L231.9 176.2ZM263.218 169.23C271.922 165.378 279.892 160.046 286.775 153.471L284.083 150.779C277.555 157.001 270.003 162.053 261.76 165.712L263.218 169.23Z" fill="#3C3C3B"/>
<path d="M298.594 120.352C301.596 112.539 303.236 104.269 303.443 95.902H300.039C299.834 103.822 298.282 111.65 295.449 119.049L298.595 120.352H298.594ZM297.138 64.1288C293.729 56.4852 289.042 49.479 283.277 43.4118L280.87 45.8192C286.32 51.569 290.757 58.2001 293.993 65.4313L297.136 64.1288H297.138ZM256.351 25.4037C248.539 22.4012 240.269 20.7611 231.902 20.5547V23.9583C239.822 24.1635 247.65 25.7156 255.049 28.5479L256.351 25.4028V25.4037ZM176.721 43.4127C170.957 49.4798 166.269 56.486 162.861 64.1297L166.004 65.4322C169.24 58.201 173.678 51.57 179.128 45.8203L176.721 43.4136V43.4127ZM161.404 67.6457C158.401 75.4584 156.761 83.7282 156.555 92.0954H159.959C160.164 84.1751 161.717 76.3475 164.549 68.948L161.404 67.6457ZM162.861 123.868C166.269 131.512 170.957 138.518 176.721 144.584L179.128 142.178C173.678 136.429 169.24 129.798 166.004 122.567L162.861 123.869V123.868ZM179.413 147.276C185.48 153.041 192.486 157.728 200.13 161.137L201.432 157.993C194.201 154.757 187.57 150.32 181.82 144.87L179.414 147.276H179.413ZM203.646 162.594C211.459 165.596 219.728 167.236 228.095 167.442V164.039C220.175 163.834 212.348 162.282 204.948 159.449L203.646 162.595L203.646 162.594ZM259.868 161.137C267.512 157.728 274.518 153.041 280.585 147.276L278.179 144.87C272.429 150.32 265.798 154.757 258.567 157.993L259.869 161.137H259.868ZM297.138 123.868L293.993 122.566C290.757 129.797 286.32 136.429 280.87 142.178L283.276 144.585C289.041 138.518 293.729 131.512 297.138 123.868Z" fill="#575756"/>
<path d="M295.444 92.0981C295.241 84.7813 293.808 77.5507 291.205 70.7095L288.389 71.8757C290.841 78.3466 292.196 85.1813 292.398 92.0981H295.444ZM289.749 67.1922C286.746 60.5174 282.646 54.3925 277.62 49.0715L275.466 51.2262C280.21 56.2628 284.085 62.0519 286.934 68.3577L289.749 67.1922ZM274.928 46.3799C269.608 41.354 263.483 37.2545 256.808 34.2514L255.642 37.0661C261.948 39.9145 267.738 43.7899 272.774 48.5343L274.929 46.3799H274.928ZM253.291 32.7965C246.45 30.1933 239.219 28.7603 231.902 28.5573V31.6047C238.819 31.8064 245.654 33.1609 252.124 35.6123L253.291 32.7971V32.7965ZM228.095 28.5573C220.779 28.7602 213.548 30.1933 206.707 32.7965L207.873 35.6116C214.344 33.1602 221.179 31.8057 228.095 31.604V28.5566V28.5573ZM203.19 34.2521C196.515 37.2553 190.39 41.3548 185.069 46.3806L187.224 48.535C192.26 43.7903 198.05 39.9147 204.356 37.0661L203.19 34.2514L203.19 34.2521ZM182.377 49.0722C177.352 54.3932 173.252 60.5181 170.249 67.1928L173.063 68.3584C175.912 62.0527 179.788 56.2635 184.532 51.2268L182.377 49.0722ZM164.555 95.9054C164.758 103.222 166.191 110.452 168.794 117.293L171.609 116.127C169.158 109.656 167.803 102.821 167.601 95.9047L164.555 95.9054ZM170.25 120.811C173.253 127.486 177.352 133.611 182.378 138.932L184.533 136.777C179.788 131.741 175.913 125.951 173.064 119.646L170.25 120.811ZM185.07 141.624C190.391 146.649 196.515 150.749 203.19 153.752L204.356 150.937C198.05 148.089 192.261 144.213 187.224 139.469L185.07 141.624ZM206.708 155.207C213.549 157.81 220.779 159.243 228.096 159.446V156.399C221.179 156.197 214.344 154.843 207.873 152.391L206.707 155.207L206.708 155.207ZM231.903 159.446C239.22 159.243 246.45 157.81 253.291 155.207L252.124 152.391C245.654 154.843 238.819 156.198 231.902 156.399V159.447L231.903 159.446ZM256.809 153.751C263.484 150.748 269.608 146.649 274.929 141.623L272.774 139.469C267.738 144.213 261.949 148.089 255.643 150.937L256.809 153.752L256.809 153.751ZM289.749 120.811L286.934 119.645C284.085 125.951 280.21 131.74 275.466 136.777L277.62 138.931C282.646 133.61 286.746 127.485 289.749 120.811Z" fill="#706F6F"/>
<path d="M283.815 114.231C286.02 108.362 287.247 102.17 287.446 95.9036H284.399C284.203 101.77 283.055 107.566 281.001 113.065L283.816 114.231L283.815 114.231ZM287.446 92.097C287.247 85.8303 286.02 79.6388 283.815 73.7696L281 74.9359C283.054 80.4347 284.202 86.2307 284.398 92.0975L287.446 92.097ZM269.274 52.0346C264.699 47.748 259.455 44.2375 253.748 41.6419L252.582 44.4586C257.92 46.8987 262.829 50.185 267.119 54.1904L269.274 52.0359V52.0346ZM250.231 40.1853C244.362 37.9799 238.17 36.7534 231.904 36.5547V39.6018C237.77 39.7985 243.566 40.9463 249.065 43.0004L250.231 40.1853H250.231ZM206.252 41.641C200.545 44.2367 195.301 47.7472 190.726 52.0336L192.881 54.1881C197.171 50.1826 202.08 46.8964 207.419 44.4563L206.252 41.6396V41.641ZM188.035 54.7262C183.748 59.3012 180.238 64.5456 177.642 70.2523L180.458 71.419C182.899 66.0807 186.185 61.1715 190.19 56.8808L188.036 54.7262H188.035ZM176.185 73.7696C173.98 79.6388 172.753 85.8303 172.555 92.097H175.602C175.798 86.2302 176.946 80.4343 179 74.9354L176.185 73.7692V73.7696ZM172.555 95.9036C172.753 102.17 173.98 108.362 176.185 114.231L179 113.065C176.946 107.566 175.798 101.77 175.602 95.9031L172.555 95.9036ZM190.726 135.966C195.301 140.253 200.545 143.763 206.252 146.359L207.419 143.542C202.08 141.102 197.171 137.816 192.881 133.81L190.726 135.965V135.966ZM209.769 147.815C215.639 150.02 221.83 151.247 228.097 151.446V148.399C222.23 148.202 216.434 147.054 210.935 145L209.769 147.815H209.769ZM253.748 146.359C259.455 143.764 264.699 140.253 269.274 135.967L267.119 133.812C262.829 137.817 257.92 141.104 252.582 143.544L253.748 146.36V146.359ZM282.36 117.748L279.543 116.581C277.103 121.92 273.816 126.829 269.811 131.119L271.965 133.274C276.252 128.699 279.763 123.455 282.36 117.748Z" fill="#878787"/>
<path d="M276.776 111.317C278.603 106.374 279.633 101.171 279.826 95.9046H277.16C276.969 100.821 276.008 105.678 274.311 110.296L276.774 111.317H276.776ZM279.826 92.098C279.633 86.8314 278.604 81.6289 276.776 76.6859L274.312 77.7053C276.009 82.324 276.97 87.1803 277.161 92.0971L279.826 92.098ZM275.317 73.1699C273.111 68.3841 270.162 63.9776 266.578 60.1138L264.693 61.9991C268.03 65.6137 270.783 69.727 272.852 74.1907L275.317 73.1699ZM247.315 47.2246C242.372 45.3967 237.169 44.3669 231.903 44.1738V46.8404C236.819 47.0308 241.675 47.9917 246.294 49.6879L247.315 47.2246ZM228.096 44.1738C222.829 44.3669 217.627 45.3967 212.684 47.2246L213.704 49.6879C218.323 47.9917 223.179 47.0308 228.096 46.8404V44.1738ZM209.168 48.6839C204.382 50.8892 199.975 53.8381 196.112 57.4213L197.997 59.3064C201.612 55.9688 205.725 53.2159 210.189 51.1472L209.168 48.683V48.6839ZM183.222 76.6859C181.395 81.6289 180.365 86.8314 180.172 92.098H182.838C183.029 87.1813 183.991 82.3249 185.687 77.7062L183.224 76.6859H183.222ZM180.172 95.9046C180.365 101.171 181.395 106.374 183.222 111.317L185.686 110.296C183.989 105.678 183.028 100.821 182.837 95.9046H180.172ZM184.682 114.832C186.888 119.618 189.837 124.024 193.42 127.888L195.305 126.002C191.968 122.388 189.215 118.274 187.146 113.811L184.682 114.832ZM196.112 130.58C199.975 134.164 204.382 137.113 209.168 139.319L210.189 136.854C205.725 134.786 201.612 132.033 197.997 128.695L196.112 130.581V130.58ZM231.903 143.828C237.169 143.635 242.372 142.606 247.315 140.778L246.294 138.314C241.676 140.011 236.819 140.973 231.903 141.163V143.83V143.828ZM275.317 114.832L272.852 113.811C270.783 118.274 268.03 122.388 264.693 126.003L266.578 127.888C270.162 124.024 273.111 119.618 275.317 114.832Z" fill="#9D9D9C"/>
<path d="M270.793 108.837C272.302 104.682 273.165 100.32 273.352 95.9036H270.303C270.119 99.9198 269.333 103.886 267.972 107.669L270.793 108.837ZM273.352 92.0971C273.166 87.6802 272.302 83.318 270.793 79.1629L267.972 80.331C269.333 84.1141 270.119 88.0799 270.303 92.0961L273.352 92.0971ZM269.333 75.6483C267.46 71.6442 264.988 67.9492 262.001 64.6907L259.845 66.8453C262.551 69.8187 264.798 73.1793 266.511 76.8159L269.332 75.6477L269.333 75.6483ZM259.31 61.9997C256.051 59.0129 252.357 56.5407 248.353 54.6683L247.184 57.4887C250.82 59.2022 254.18 61.4487 257.154 64.1542L259.309 61.9995L259.31 61.9997ZM244.837 53.2079C240.683 51.6984 236.321 50.8353 231.904 50.6484V53.6979C235.92 53.882 239.886 54.6676 243.669 56.0285L244.837 53.2079ZM228.097 50.6484C223.681 50.8352 219.319 51.6984 215.164 53.2079L216.333 56.0285C220.116 54.6676 224.081 53.882 228.097 53.6979V50.6484ZM211.648 54.6683C207.644 56.5407 203.949 59.0129 200.691 61.9997L202.846 64.1544C205.819 61.4489 209.18 59.2023 212.816 57.4887L211.648 54.6681V54.6683ZM197.998 64.6907C195.012 67.9491 192.54 71.6439 190.667 75.6477L193.488 76.8159C195.201 73.1794 197.448 69.8189 200.153 66.8455L197.998 64.6907ZM189.207 79.1629C187.698 83.3181 186.835 87.6802 186.648 92.0971H189.698C189.882 88.0809 190.668 84.1151 192.028 80.3321L189.208 79.1629H189.207ZM186.648 95.9036C186.835 100.32 187.698 104.682 189.208 108.837L192.028 107.669C190.668 103.886 189.882 99.9198 189.698 95.9036H186.648ZM190.668 112.352C192.54 116.356 195.012 120.051 197.998 123.309L200.153 121.154C197.448 118.181 195.202 114.821 193.488 111.184L190.668 112.353L190.668 112.352ZM200.691 126.001C203.949 128.988 207.644 131.46 211.648 133.332L212.816 130.511C209.18 128.798 205.819 126.551 202.846 123.845L200.691 126L200.691 126.001ZM215.163 134.793C219.318 136.302 223.68 137.165 228.097 137.352V134.303C224.08 134.119 220.115 133.333 216.332 131.972L215.163 134.793ZM231.903 137.352C236.32 137.165 240.682 136.302 244.837 134.793L243.668 131.972C239.885 133.333 235.919 134.119 231.903 134.303V137.352ZM248.352 133.332C252.356 131.46 256.051 128.988 259.309 126.001L257.154 123.846C254.181 126.551 250.82 128.798 247.184 130.511L248.352 133.332V133.332ZM269.332 112.352L266.511 111.184C264.798 114.821 262.551 118.182 259.845 121.155L262.001 123.31C264.987 120.051 267.459 116.357 269.332 112.353V112.352Z" fill="#B2B2B2"/>
<path d="M264.098 106.062C265.257 102.791 265.937 99.369 266.116 95.903H263.254C263.08 98.9935 262.474 102.044 261.455 104.967L264.098 106.062H264.098ZM266.116 92.0965C265.937 88.6305 265.257 85.2088 264.098 81.9374L261.454 83.0313C262.474 85.954 263.079 89.005 263.253 92.0956L266.116 92.0965ZM262.644 78.4189C261.146 75.2887 259.206 72.3901 256.883 69.8121L254.859 71.8355C256.922 74.1436 258.653 76.7276 260.003 79.5131L262.644 78.4191V78.4189ZM254.191 67.1203C251.613 64.7972 248.714 62.8568 245.584 61.3585L244.49 63.9997C247.276 65.3498 249.86 67.0811 252.168 69.1439L254.191 67.1203H254.191ZM242.066 59.9051C238.795 58.7463 235.373 58.0665 231.907 57.8867V60.7493C234.998 60.9231 238.049 61.5287 240.971 62.5484L242.065 59.9046L242.066 59.9051ZM228.101 57.8867C224.635 58.0665 221.213 58.7463 217.942 59.9051L219.036 62.5488C221.958 61.5292 225.009 60.9236 228.1 60.7497V57.8872L228.101 57.8867ZM214.423 61.3585C211.293 62.8568 208.394 64.7973 205.816 67.1205L207.839 69.1439C210.147 67.0812 212.731 65.3499 215.517 63.9997L214.423 61.3585ZM203.124 69.8121C200.801 72.3902 198.861 75.2888 197.362 78.4189L200.003 79.5129C201.354 76.7274 203.085 74.1434 205.148 71.8355L203.124 69.8119V69.8121ZM195.909 81.9369C194.75 85.2083 194.07 88.6301 193.891 92.096H196.753C196.927 89.0055 197.533 85.9545 198.552 83.0318L195.909 81.9378L195.909 81.9369ZM193.891 95.9026C194.07 99.3685 194.75 102.79 195.909 106.062L198.553 104.967C197.533 102.044 196.927 98.993 196.753 95.9026H193.891ZM197.362 109.58C198.861 112.71 200.801 115.609 203.124 118.187L205.148 116.163C203.085 113.855 201.353 111.271 200.003 108.486L197.362 109.58V109.58ZM205.816 120.878C208.394 123.202 211.293 125.142 214.423 126.641L215.517 123.999C212.731 122.649 210.147 120.918 207.839 118.855L205.816 120.878ZM217.941 128.094C221.212 129.253 224.634 129.932 228.1 130.112V127.25C225.009 127.076 221.958 126.47 219.035 125.45L217.941 128.094L217.941 128.094ZM231.906 130.112C235.372 129.932 238.794 129.253 242.065 128.094L240.971 125.45C238.049 126.47 234.998 127.075 231.907 127.249V130.112L231.906 130.112ZM245.584 126.641C248.714 125.142 251.612 123.202 254.191 120.878L252.167 118.855C249.859 120.918 247.275 122.649 244.489 123.999L245.583 126.641H245.584ZM262.644 109.58L260.003 108.486C258.653 111.271 256.922 113.855 254.859 116.163L256.882 118.187C259.205 115.609 261.146 112.71 262.644 109.58V109.58Z" fill="#C6C6C6"/>
<path d="M258.102 103.58C258.947 101.1 259.459 98.5183 259.624 95.9032H256.952C256.796 98.1682 256.353 100.404 255.635 102.558L258.102 103.58V103.58ZM259.624 92.0966C259.459 89.4814 258.948 86.8997 258.102 84.4195L255.636 85.4414C256.354 87.5953 256.797 89.8314 256.954 92.0964L259.624 92.0966ZM256.648 80.9017C255.489 78.5517 254.024 76.3652 252.292 74.3992L250.404 76.2879C251.893 78.0009 253.161 79.8947 254.178 81.9245L256.647 80.9017H256.648ZM249.6 71.7071C247.634 69.9749 245.448 68.5103 243.098 67.3515L242.076 69.8214C244.106 70.8378 246 72.1058 247.713 73.5953L249.601 71.7071H249.6ZM239.58 65.8968C237.1 65.0516 234.518 64.5399 231.903 64.375V67.0466C234.168 67.2033 236.404 67.6461 238.558 68.3643L239.58 65.8968H239.58ZM228.096 64.375C225.481 64.5399 222.899 65.0516 220.419 65.8968L221.441 68.3643C223.595 67.646 225.831 67.2033 228.096 67.0466V64.375H228.096ZM216.901 67.3515C214.551 68.5103 212.364 69.9749 210.398 71.7071L212.287 73.5953C214 72.1058 215.894 70.8379 217.924 69.8214L216.901 67.3515ZM207.707 74.3992C205.975 76.3653 204.51 78.5519 203.352 80.9021L205.821 81.925C206.838 79.895 208.106 78.001 209.595 76.2879L207.707 74.3992ZM201.897 84.4199C201.052 86.9003 200.54 89.4819 200.375 92.0971H203.047C203.203 89.832 203.646 87.5959 204.364 85.4421L201.897 84.4201V84.4199ZM200.375 95.9036C200.54 98.5188 201.052 101.1 201.897 103.581L204.364 102.559C203.646 100.405 203.203 98.1689 203.047 95.9038L200.375 95.9036ZM203.352 107.099C204.51 109.449 205.975 111.635 207.707 113.601L209.595 111.713C208.106 110 206.838 108.106 205.821 106.075L203.352 107.099ZM210.398 116.293C212.365 118.025 214.551 119.49 216.902 120.649L217.924 118.179C215.895 117.162 214.001 115.894 212.288 114.404L210.399 116.293L210.398 116.293ZM220.419 122.103C222.899 122.948 225.481 123.46 228.096 123.625V120.953C225.831 120.796 223.595 120.354 221.441 119.635L220.419 122.103L220.419 122.103ZM231.903 123.625C234.518 123.46 237.1 122.948 239.58 122.103L238.558 119.636C236.404 120.354 234.168 120.797 231.903 120.953V123.625H231.903ZM243.098 120.649C245.448 119.49 247.634 118.025 249.601 116.293L247.712 114.405C245.999 115.894 244.105 117.162 242.076 118.178L243.099 120.648L243.098 120.649ZM256.648 107.099L254.178 106.075C253.161 108.105 251.893 109.999 250.403 111.712L252.292 113.601C254.024 111.635 255.488 109.448 256.647 107.098L256.648 107.099Z" fill="#DADADA"/>
<path d="M252.466 101.245C253.023 99.5115 253.377 97.719 253.521 95.9037H250.849C250.719 97.3695 250.434 98.8173 249.999 100.223L252.466 101.245ZM253.521 92.0972C253.377 90.2818 253.023 88.4893 252.466 86.7556L249.999 87.778C250.434 89.1838 250.719 90.6316 250.849 92.0974L253.521 92.0972ZM251.006 83.2404C250.175 81.6206 249.159 80.1024 247.979 78.7159L246.09 80.6044C247.032 81.7347 247.852 82.9611 248.536 84.2632L251.006 83.2404ZM245.287 76.0241C243.901 74.8441 242.382 73.8283 240.763 72.9969L239.74 75.4666C241.042 76.1513 242.268 76.9712 243.399 77.9127L245.287 76.0241ZM237.247 71.5367C235.514 70.9794 233.721 70.6256 231.906 70.4824V73.154C233.372 73.284 234.819 73.569 236.225 74.0043L237.247 71.5367ZM228.099 70.4824C226.284 70.6256 224.491 70.9795 222.758 71.5367L223.78 74.0043C225.186 73.5692 226.633 73.2841 228.099 73.154V70.4824ZM219.242 72.9969C217.622 73.8283 216.104 74.8441 214.718 76.0243L216.607 77.9127C217.737 76.9712 218.963 76.1513 220.265 75.4666L219.242 72.9969ZM212.026 78.7159C210.846 80.1024 209.83 81.6206 208.999 83.2404L211.469 84.2632C212.153 82.9611 212.973 81.7347 213.915 80.6044L212.026 78.7159ZM207.539 86.7556C206.982 88.4893 206.628 90.2818 206.484 92.0972H209.156C209.286 90.6314 209.571 89.1836 210.006 87.7778L207.539 86.7556ZM206.484 95.9037C206.628 97.719 206.982 99.5115 207.539 101.245L210.006 100.223C209.571 98.8173 209.286 97.3695 209.156 95.9037H206.484ZM208.999 104.76C209.831 106.38 210.846 107.898 212.026 109.285L213.915 107.397C212.973 106.266 212.154 105.04 211.469 103.737L208.999 104.76ZM214.718 111.977C216.104 113.157 217.623 114.172 219.242 115.004L220.265 112.534C218.963 111.849 217.737 111.03 216.607 110.088L214.718 111.977H214.718ZM222.758 116.464C224.492 117.021 226.284 117.375 228.099 117.518V114.847C226.634 114.717 225.186 114.432 223.78 113.997L222.758 116.464ZM231.906 117.518C233.721 117.375 235.514 117.021 237.247 116.464L236.225 113.997C234.819 114.432 233.372 114.717 231.906 114.847V117.518H231.906ZM240.763 115.004C242.383 114.172 243.901 113.157 245.287 111.977L243.399 110.088C242.268 111.03 241.042 111.849 239.74 112.534L240.763 115.004ZM251.006 104.76L248.536 103.738C247.852 105.04 247.032 106.266 246.09 107.397L247.979 109.285C249.159 107.898 250.175 106.38 251.006 104.76H251.006Z" fill="#EDEDED"/>
<path d="M246.455 98.7547C246.724 97.8217 246.914 96.8673 247.021 95.902H243.952C243.876 96.468 243.766 97.029 243.622 97.5817L246.455 98.7547ZM247.021 92.0954C246.914 91.13 246.724 90.1756 246.455 89.2424L243.622 90.4157C243.766 90.9684 243.876 91.5293 243.952 92.0954H247.021ZM244.999 85.7251C244.529 84.8757 243.988 84.0675 243.381 83.3093L241.213 85.4776C241.558 85.9322 241.876 86.4073 242.164 86.9002L244.999 85.7251ZM240.688 80.6179C239.93 80.0106 239.122 79.4688 238.272 78.9983L237.097 81.8354C237.59 82.1231 238.066 82.4407 238.52 82.7862L240.688 80.6179ZM234.755 77.5431C233.822 77.2733 232.868 77.0838 231.902 76.9768V80.046C232.468 80.1214 233.029 80.2315 233.582 80.3756L234.755 77.5431ZM228.096 76.9768C227.13 77.0839 226.176 77.2733 225.243 77.5431L226.416 80.3756C226.969 80.2314 227.53 80.1214 228.096 80.046V76.9766V76.9768ZM221.726 78.9986C220.876 79.469 220.068 80.0108 219.31 80.6181L221.478 82.7864C221.932 82.4409 222.408 82.1233 222.901 81.8356L221.726 78.9986ZM216.618 83.3093C216.011 84.0673 215.469 84.8755 214.998 85.7251L217.835 86.9002C218.123 86.4073 218.441 85.9322 218.786 85.4776L216.618 83.3093ZM213.543 89.2424C213.273 90.1755 213.083 91.13 212.977 92.0954H216.046C216.121 91.5293 216.231 90.9684 216.375 90.4157L213.543 89.2424ZM212.977 95.902C213.084 96.8673 213.273 97.8217 213.543 98.7547L216.375 97.5817C216.231 97.029 216.121 96.4681 216.046 95.902H212.977ZM214.999 102.271C215.47 103.121 216.012 103.929 216.619 104.687L218.787 102.519C218.442 102.064 218.124 101.589 217.836 101.096L214.999 102.271ZM219.31 107.379C220.068 107.986 220.877 108.528 221.726 108.998L222.901 106.161C222.408 105.874 221.933 105.557 221.478 105.211L219.31 107.38L219.31 107.379ZM225.244 110.454C226.177 110.723 227.131 110.913 228.096 111.02V107.952C227.53 107.876 226.969 107.766 226.417 107.622L225.244 110.454V110.454ZM231.903 111.02C232.868 110.913 233.823 110.723 234.756 110.454L233.583 107.621C233.03 107.765 232.469 107.875 231.903 107.951V111.021V111.02ZM238.273 108.998C239.123 108.528 239.931 107.986 240.689 107.379L238.52 105.211C238.065 105.557 237.59 105.874 237.097 106.162L238.272 108.999L238.273 108.998ZM244.999 102.271L242.162 101.096C241.874 101.589 241.557 102.064 241.212 102.519L243.38 104.687C243.986 103.929 244.528 103.121 244.998 102.271H244.999Z" fill="white"/>
</svg>
