<svg width="426" height="394" viewBox="0 0 426 394" fill="none" xmlns="http://www.w3.org/2000/svg">
<g clip-path="url(#clip0_10616_7310)">
<path d="M272.223 193.177L246.986 255.745C246.215 257.665 244.069 258.645 242.12 257.959C218.538 249.659 203.01 252.059 194.25 255.411C192.196 256.197 189.967 255.103 189.297 253.003L189.283 252.964C187.571 247.564 185.539 240.042 183.195 229.58C178.36 201.06 222.116 190.95 265.859 187.865C267.716 189.601 269.845 191.411 272.223 193.177V193.177Z" fill="#EAB669"/>
<path d="M422.25 254.594C422.272 260.728 417.406 265.785 411.287 265.864C399.487 266.009 384.359 268.781 376.869 270.306C374.179 270.86 372.252 273.228 372.252 275.987V325.857C372.252 330.646 368.389 334.521 363.615 334.556C339.866 334.719 303.07 339.803 280.193 343.34C277.276 343.792 274.841 341.129 275.533 338.252C283.036 307.117 287.153 252.037 287.889 241.562C287.968 240.437 288.463 239.387 289.282 238.614L304.739 224.053C305.702 223.139 307.029 222.774 308.343 222.958C312.176 223.508 314.348 221.078 315.076 220.085C315.281 219.791 315.522 219.54 315.789 219.312C317.476 217.884 323.218 212.176 321.129 202.106C328.807 199.592 337.015 195.146 345.661 188.098C347.707 188.234 348.819 188.327 348.819 188.327C413.854 190.422 422.193 233.134 422.25 254.594V254.594Z" fill="#EAB669"/>
<path d="M321.133 202.545C320.949 202.545 320.778 202.426 320.717 202.242C320.642 202.009 320.769 201.763 320.997 201.688C329.091 199.039 337.299 194.351 345.389 187.756C347.001 186.437 348.626 185.036 350.216 183.59C350.396 183.428 350.672 183.441 350.834 183.621C350.996 183.801 350.983 184.078 350.803 184.241C349.204 185.699 347.566 187.114 345.941 188.437C337.768 195.098 329.468 199.838 321.269 202.523C321.225 202.536 321.177 202.545 321.133 202.545V202.545Z" fill="#E3E3E3"/>
<path d="M272.223 193.617C272.131 193.617 272.039 193.591 271.964 193.529C269.757 191.886 267.602 190.089 265.561 188.186C264.063 186.794 262.578 185.295 261.154 183.74C260.992 183.56 261.001 183.283 261.181 183.12C261.36 182.953 261.636 182.967 261.798 183.147C263.209 184.689 264.676 186.17 266.156 187.545C268.171 189.43 270.3 191.205 272.485 192.826C272.678 192.971 272.722 193.248 272.577 193.441C272.49 193.56 272.358 193.622 272.227 193.622L272.223 193.617Z" fill="#E3E3E3"/>
<path d="M399.112 192.123L392.485 192.316C388.705 191.042 384.527 189.794 380.191 188.599C375.005 177.94 368.29 162.962 366.438 153.383C368.636 152.733 370.747 151.397 372.662 149.073C372.916 149.653 389.424 186.89 399.112 192.123V192.123Z" fill="#CE7783"/>
<path d="M382.221 189.605C382.059 189.605 381.906 189.517 381.827 189.359C376.273 178.067 369.247 162.518 367.324 152.588L367.25 152.197L367.631 152.082C369.891 151.415 371.915 150.013 373.64 147.913C373.794 147.724 374.07 147.702 374.258 147.856C374.446 148.009 374.473 148.286 374.315 148.475C372.572 150.593 370.535 152.047 368.262 152.807C370.272 162.658 377.158 177.874 382.615 188.973C382.72 189.192 382.633 189.452 382.418 189.561C382.357 189.592 382.291 189.605 382.225 189.605H382.221Z" fill="#E3E3E3"/>
<path d="M392.045 191.93C391.808 191.93 391.615 191.741 391.607 191.504C391.598 191.262 391.791 191.06 392.032 191.051L399.005 190.845C394.944 187.813 389.531 179.957 382.904 167.487C382.79 167.272 382.869 167.008 383.083 166.894C383.298 166.78 383.561 166.863 383.674 167.074C390.332 179.601 395.925 187.659 399.85 190.375C400.113 190.559 400.227 190.875 400.135 191.183C400.043 191.491 399.771 191.701 399.451 191.71L392.058 191.93H392.045V191.93Z" fill="#E3E3E3"/>
<path d="M410.752 177.509L413.191 186.358C413.191 186.358 378.747 165.171 370 152.886C371.761 151.924 373.438 150.417 374.963 148.202C374.963 148.202 408.294 172.495 419.376 172.148L410.752 177.509V177.509Z" fill="#CE7783"/>
<path d="M412.917 185.286C412.807 185.286 412.698 185.255 412.602 185.194C409.737 183.414 384.307 167.478 373.046 155.83C372.879 155.654 372.879 155.378 373.054 155.211C373.23 155.044 373.506 155.044 373.672 155.219C384.298 166.213 407.692 181.09 412.461 184.078L410.232 175.993L417.941 171.204C412.904 170.62 404.288 166.542 392.3 159.068C382.883 153.198 374.78 147.302 374.697 147.24C374.5 147.1 374.456 146.823 374.601 146.625C374.741 146.427 375.017 146.383 375.214 146.528C375.533 146.761 407.49 169.961 418.826 170.387C419.093 170.396 419.316 170.576 419.382 170.835C419.447 171.094 419.342 171.362 419.115 171.503L411.252 176.389L413.495 184.517C413.561 184.759 413.478 185.014 413.276 185.163C413.171 185.242 413.044 185.286 412.917 185.286V185.286Z" fill="#E3E3E3"/>
<path d="M33.4242 30.5676C36.5077 29.5922 39.346 29.3637 41.9302 29.8822C44.5144 30.4051 46.7482 31.5387 48.636 33.283C50.5194 35.0317 51.8859 37.2506 52.7357 39.9396C53.6292 42.7824 53.8613 45.3308 53.4321 47.5892C53.0028 49.8476 51.8947 51.983 50.1077 53.9997C48.3206 56.0165 45.8196 58.0947 42.5959 60.2301L45.7364 70.204L44.5231 70.5907L41.168 59.9313C44.5976 57.5631 47.2125 55.4057 49.0214 53.4681C50.8304 51.526 51.9166 49.5356 52.2758 47.4969C52.6349 45.4582 52.3853 43.068 51.5224 40.3263C50.7384 37.8394 49.4813 35.7963 47.7556 34.1925C46.0255 32.5932 43.9713 31.5387 41.5885 31.0378C39.2058 30.5369 36.5953 30.7346 33.7614 31.6309C29.307 33.0413 26.2453 35.1987 24.5722 38.0986C22.899 41.0029 22.3909 44.4696 23.0479 48.5031L21.8434 48.3845C21.4536 45.5505 21.585 42.9713 22.242 40.6382C22.899 38.3095 24.1561 36.2928 26.0132 34.588C27.8703 32.8832 30.3407 31.5431 33.4286 30.5632L33.4242 30.5676ZM47.7862 78.8466C48.2899 78.6884 48.7455 78.7104 49.144 78.9169C49.5426 79.1234 49.8229 79.4837 49.985 79.989C50.1471 80.4943 50.1208 80.9512 49.9149 81.3511C49.7091 81.7509 49.3499 82.0321 48.8462 82.1903C48.3425 82.3485 47.887 82.3265 47.4884 82.12C47.0898 81.9135 46.8095 81.5532 46.6474 81.0479C46.4854 80.5426 46.5117 80.0857 46.7175 79.6858C46.9234 79.286 47.2825 79.0048 47.7862 78.8466Z" fill="#EAB669"/>
<path d="M39.557 145.685C42.6405 144.709 45.4788 144.481 48.063 144.999C50.6472 145.522 52.881 146.656 54.7688 148.4C56.6522 150.149 58.0187 152.368 58.8685 155.057C59.762 157.9 59.9941 160.448 59.5649 162.706C59.1356 164.965 58.0275 167.1 56.2405 169.117C54.4534 171.134 51.9524 173.212 48.7287 175.347L51.8692 185.321L50.6559 185.708L47.3009 175.049C50.7304 172.68 53.3453 170.523 55.1542 168.585C56.9632 166.643 58.0494 164.653 58.4086 162.614C58.7677 160.575 58.5181 158.185 57.6552 155.443C56.8712 152.957 55.6141 150.913 53.8884 149.31C52.1583 147.71 50.1041 146.656 47.7213 146.155C45.3386 145.654 42.7281 145.852 39.8943 146.748C35.4398 148.159 32.3782 150.316 30.705 153.216C29.0318 156.12 28.5237 159.587 29.1807 163.62L27.9762 163.502C27.5864 160.668 27.7178 158.088 28.3748 155.755C29.0318 153.427 30.2889 151.41 32.146 149.705C34.0031 148 36.4735 146.66 39.5614 145.68L39.557 145.685ZM53.9191 193.964C54.4228 193.806 54.8783 193.828 55.2769 194.034C55.6754 194.241 55.9558 194.601 56.1178 195.106C56.2799 195.611 56.2536 196.068 56.0477 196.468C55.8419 196.868 55.4827 197.149 54.979 197.307C54.4753 197.466 54.0198 197.444 53.6212 197.237C53.2226 197.031 52.9423 196.67 52.7803 196.165C52.6182 195.66 52.6445 195.203 52.8503 194.803C53.0562 194.403 53.4154 194.122 53.9191 193.964V193.964Z" fill="#EAB669"/>
<path d="M130.63 92.5774C133.179 91.7689 135.518 91.58 137.655 92.0106C139.788 92.4412 141.636 93.3771 143.191 94.8182C144.746 96.2594 145.876 98.0916 146.577 100.315C147.317 102.661 147.506 104.766 147.151 106.633C146.796 108.496 145.881 110.262 144.409 111.928C142.933 113.593 140.866 115.306 138.207 117.073L140.8 125.307L139.797 125.623L137.024 116.822C139.854 114.867 142.018 113.088 143.511 111.484C145.005 109.88 145.903 108.237 146.196 106.554C146.494 104.871 146.284 102.898 145.574 100.631C144.926 98.5793 143.892 96.8921 142.464 95.5696C141.036 94.247 139.341 93.3815 137.37 92.964C135.404 92.551 133.249 92.7136 130.91 93.4561C127.235 94.6205 124.703 96.4 123.324 98.799C121.944 101.198 121.523 104.058 122.067 107.389L121.072 107.288C120.748 104.946 120.858 102.815 121.401 100.89C121.944 98.966 122.982 97.3007 124.515 95.8947C126.048 94.4887 128.089 93.3815 130.638 92.573L130.63 92.5774ZM142.491 132.442C142.907 132.31 143.283 132.328 143.612 132.504C143.94 132.68 144.173 132.974 144.304 133.391C144.435 133.809 144.418 134.187 144.243 134.516C144.067 134.846 143.774 135.079 143.358 135.21C142.942 135.342 142.565 135.325 142.237 135.149C141.908 134.977 141.676 134.683 141.545 134.261C141.413 133.839 141.431 133.466 141.606 133.136C141.777 132.807 142.07 132.574 142.491 132.442Z" fill="#EAB669"/>
<path d="M64.487 103.887C66.6726 103.192 68.683 103.034 70.5095 103.403C72.3403 103.772 73.9215 104.576 75.2574 105.811C76.5933 107.05 77.5613 108.619 78.1614 110.526C78.7965 112.538 78.9585 114.344 78.6563 115.943C78.3497 117.543 77.5657 119.054 76.3042 120.482C75.0384 121.91 73.2645 123.382 70.9825 124.893L73.2076 131.959L72.3491 132.231L69.9707 124.682C72.3973 123.004 74.2544 121.479 75.5333 120.104C76.8167 118.729 77.5832 117.318 77.8372 115.877C78.0913 114.432 77.9117 112.74 77.3029 110.798C76.7466 109.036 75.8575 107.591 74.6354 106.453C73.4134 105.319 71.9549 104.572 70.2686 104.221C68.5823 103.865 66.7339 104.005 64.7279 104.642C61.5742 105.64 59.4061 107.169 58.2192 109.225C57.0322 111.281 56.673 113.738 57.1417 116.594L56.2876 116.51C56.0116 114.502 56.1036 112.674 56.5723 111.022C57.0366 109.375 57.9301 107.947 59.2441 106.738C60.5581 105.53 62.3101 104.581 64.4957 103.887H64.487ZM74.6617 138.084C75.0209 137.969 75.3406 137.987 75.6253 138.136C75.91 138.286 76.1071 138.536 76.221 138.896C76.3349 139.257 76.3174 139.577 76.1684 139.863C76.0195 140.149 75.7699 140.346 75.4107 140.461C75.0515 140.575 74.7318 140.557 74.4471 140.408C74.1624 140.258 73.9653 140.008 73.8514 139.648C73.7375 139.287 73.7551 138.967 73.904 138.681C74.0529 138.396 74.3026 138.198 74.6617 138.084Z" fill="#EAB669"/>
<path d="M84.6354 52.4794C86.821 51.7852 88.8314 51.627 90.6579 51.9961C92.4888 52.3652 94.0699 53.1693 95.4058 54.4039C96.7418 55.643 97.7097 57.2116 98.3098 59.1185C98.9449 61.1308 99.107 62.9367 98.8047 64.536C98.4981 66.1353 97.7141 67.6468 96.4527 69.0748C95.1868 70.5028 93.4129 71.9747 91.1309 73.4862L93.356 80.5514L92.4975 80.8238L90.1192 73.2753C92.5457 71.5968 94.4028 70.0722 95.6818 68.6969C96.9651 67.3217 97.7316 65.9113 97.9857 64.4701C98.2397 63.0245 98.0601 61.3329 97.4513 59.3909C96.895 57.629 96.0059 56.1834 94.7839 55.0454C93.5619 53.9118 92.1033 53.1649 90.417 52.8134C88.7307 52.4575 86.8823 52.5981 84.8763 53.2352C81.7227 54.2326 79.5546 55.7616 78.3676 57.8179C77.1806 59.8742 76.8215 62.3303 77.2901 65.1863L76.436 65.1028C76.1601 63.0948 76.252 61.267 76.7207 59.615C77.185 57.9673 78.0785 56.5393 79.3925 55.331C80.7065 54.1227 82.4585 53.1737 84.6442 52.4794H84.6354ZM94.8102 86.6763C95.1693 86.5621 95.4891 86.5797 95.7738 86.729C96.0585 86.8784 96.2556 87.1289 96.3694 87.4892C96.4833 87.8495 96.4658 88.1702 96.3169 88.4558C96.168 88.7414 95.9183 88.9391 95.5591 89.0534C95.2 89.1676 94.8802 89.15 94.5955 89.0006C94.3108 88.8512 94.1137 88.6008 93.9999 88.2405C93.886 87.8802 93.9035 87.5595 94.0524 87.2739C94.2013 86.9883 94.451 86.7906 94.8102 86.6763Z" fill="#EAB669"/>
<path d="M21.7132 80.8767C23.5047 80.3099 25.1472 80.1781 26.6495 80.4812C28.1475 80.7844 29.444 81.4435 30.539 82.454C31.634 83.469 32.4268 84.7564 32.9173 86.3162C33.4385 87.9639 33.5699 89.4446 33.3203 90.7539C33.0706 92.0633 32.4268 93.3023 31.3931 94.4755C30.3594 95.6442 28.9052 96.8525 27.035 98.0915L28.857 103.878L28.1519 104.102L26.2071 97.9202C28.1957 96.5449 29.7155 95.2971 30.7624 94.1679C31.8136 93.0431 32.4399 91.8875 32.6501 90.7056C32.8604 89.5237 32.7115 88.1352 32.2121 86.5447C31.7566 85.1035 31.0295 83.9172 30.0265 82.9857C29.0235 82.0586 27.8321 81.4479 26.448 81.1579C25.064 80.8679 23.5529 80.9821 21.9103 81.505C19.3261 82.3222 17.5522 83.5745 16.5799 85.2573C15.6075 86.9401 15.314 88.9525 15.6951 91.2943L14.9943 91.224C14.7665 89.5808 14.8454 88.0825 15.2264 86.7292C15.6075 85.3803 16.339 84.2072 17.4121 83.2186C18.4896 82.23 19.9218 81.4523 21.7132 80.8855V80.8767ZM30.0484 108.887C30.3419 108.795 30.6047 108.808 30.8368 108.931C31.069 109.054 31.231 109.261 31.323 109.555C31.415 109.849 31.4018 110.113 31.2792 110.346C31.1566 110.579 30.9507 110.741 30.6572 110.834C30.3638 110.926 30.101 110.913 29.8688 110.79C29.6367 110.667 29.4746 110.46 29.3826 110.166C29.2907 109.871 29.3038 109.608 29.4264 109.375C29.5491 109.142 29.7549 108.979 30.0484 108.887Z" fill="#EAB669"/>
<path d="M394.758 380.63V387.04C394.758 390.885 391.653 394 387.82 394H226.434C220.526 390.999 219.374 383.288 219.212 378.925C219.181 378.038 219.978 377.343 220.846 377.51C222.462 377.818 224.109 378.02 225.703 378.046C226.145 378.055 226.561 378.262 226.824 378.618C228.629 381.056 236.806 389.975 253.77 379.615C254.449 379.197 255.246 379.013 256.039 379.074C267.142 379.931 349.596 385.955 393.422 379.474C394.128 379.369 394.758 379.914 394.758 380.625V380.63Z" fill="#EAB669"/>
<path d="M308.972 57.8135C324.887 57.8135 337.788 44.8715 337.788 28.9068C337.788 12.942 324.887 0 308.972 0C293.058 0 280.156 12.942 280.156 28.9068C280.156 44.8715 293.058 57.8135 308.972 57.8135Z" fill="#252525"/>
<path d="M357.663 102.037C355.64 98.3945 353.437 94.2073 351.277 90.5077C347.791 84.5409 344.427 79.8483 342.123 80.7754C302.9 97.8673 282.673 85.7931 269.901 92.2257C268.456 92.9506 267.102 93.9173 265.832 95.1915C262.985 98.0386 260.41 100.934 258.11 103.65C250.318 112.863 245.75 120.016 244.856 116.251C243.809 111.053 243.297 106.128 243.297 101.492C243.297 96.8567 243.77 92.8759 244.694 88.9786C250.717 63.5781 276.016 50.1024 315.677 52.6596C347.471 54.7071 359.21 73.5828 363.528 87.9813C364.978 92.8056 365.591 97.1247 365.85 100.139C366.082 102.872 366.02 104.537 366.02 104.537C366.358 116.418 362.53 110.798 357.663 102.037V102.037Z" fill="#252525"/>
<path d="M242.944 89.3388L242.086 89.1674C244.491 77.1592 249.514 67.6379 257.017 60.8802C266.693 52.1629 280.446 48.1426 297.896 48.9291C319.45 49.9045 336.563 53.4898 348.757 59.5884L348.367 60.3749C336.287 54.3335 319.292 50.7745 297.861 49.8079C280.652 49.0345 267.105 52.9758 257.604 61.5349C250.242 68.1651 245.31 77.5239 242.944 89.3432V89.3388Z" fill="#E3E3E3"/>
<path d="M282.412 180.049C282.412 180.049 282.377 180.049 282.355 180.049C265.593 177.918 252.909 171.138 244.648 159.899C242.519 159.802 226.182 158.44 224.999 139.367C224.15 125.794 225.88 117.837 230.133 115.715C232.936 114.313 236.733 115.548 241.433 119.37C241.14 117.38 240.592 112.999 240.513 107.411C240.513 107.169 240.702 106.967 240.947 106.967H240.956C241.197 106.967 241.389 107.16 241.394 107.402C241.503 115.003 242.48 120.333 242.489 120.385L242.716 121.616L241.77 120.798C236.944 116.633 233.164 115.192 230.527 116.506C226.672 118.43 225.065 126.317 225.875 139.314C226.383 147.486 229.721 153.282 235.8 156.551C240.356 158.998 244.832 159.033 244.876 159.033H245.099L245.231 159.213C253.342 170.356 265.869 177.074 282.469 179.183C282.71 179.214 282.881 179.434 282.85 179.675C282.824 179.895 282.636 180.057 282.417 180.057L282.412 180.049Z" fill="#E3E3E3"/>
<path d="M320.413 178.102C320.207 178.102 320.023 177.957 319.984 177.746C319.94 177.509 320.094 177.276 320.33 177.232C338.174 173.801 352.217 168.181 355.05 166.63C361.594 163.049 359.868 152.724 359.851 152.623L359.737 151.977L360.377 152.117C364.498 153.04 367.888 152.544 370.744 150.602C375.558 147.328 378.961 139.701 380.857 127.934C382.215 119.542 381.221 114.041 377.98 112.024C377.774 111.897 377.713 111.624 377.84 111.418C377.967 111.211 378.238 111.145 378.444 111.277C382.062 113.522 383.166 119.173 381.729 128.075C379.762 140.259 376.333 147.864 371.243 151.327C368.326 153.308 364.905 153.893 360.81 153.102C360.928 154.09 361.09 156.12 360.801 158.418C360.271 162.68 358.427 165.787 355.475 167.403C352.615 168.972 338.45 174.644 320.501 178.098C320.475 178.102 320.444 178.107 320.418 178.107L320.413 178.102Z" fill="#E3E3E3"/>
<path d="M370.439 107.916H369.563V89.95C369.563 84.3743 368.166 79.4137 365.297 74.787L366.041 74.3213C369.002 79.0886 370.439 84.2029 370.439 89.9456V107.912V107.916Z" fill="#E3E3E3"/>
<path d="M242.516 89.6903C242.49 89.6903 242.459 89.6903 242.429 89.6815C242.192 89.6332 242.039 89.4003 242.087 89.163C244.492 77.1548 249.515 67.6335 257.018 60.8758C266.694 52.1585 280.447 48.1382 297.897 48.9247C319.451 49.9001 336.564 53.4855 348.758 59.584C348.972 59.6939 349.064 59.9575 348.955 60.1728C348.845 60.3881 348.583 60.4804 348.368 60.3705C336.288 54.3291 319.293 50.7701 297.862 49.8035C280.653 49.0301 267.106 52.9714 257.605 61.5305C250.243 68.1607 245.311 77.5195 242.945 89.3388C242.902 89.5453 242.722 89.6903 242.516 89.6903V89.6903Z" fill="#E3E3E3"/>
<path d="M289.821 91.9663C288.008 91.9663 286.181 91.9312 284.35 91.8565C284.11 91.8477 283.921 91.6412 283.93 91.3995C283.939 91.1579 284.145 90.9557 284.386 90.9777C302.865 91.7334 320.639 88.4073 333.612 85.982C344.12 84.0179 351.711 82.5987 354.602 84.2816C354.921 84.4661 355.232 84.7034 355.53 84.9802C355.705 85.1471 355.718 85.424 355.552 85.5997C355.386 85.7799 355.11 85.7886 354.934 85.6217C354.685 85.3888 354.422 85.1911 354.164 85.0417C351.553 83.5171 343.704 84.989 333.775 86.8431C322.04 89.0356 306.399 91.9619 289.821 91.9619V91.9663Z" fill="#E3E3E3"/>
<path d="M362.443 122.411C362.342 122.411 362.237 122.394 362.132 122.363C361.707 122.231 361.426 121.853 361.422 121.405C361.391 118.422 361.247 112.481 360.642 106.172C360.621 105.93 360.796 105.715 361.037 105.693C361.278 105.675 361.492 105.847 361.514 106.088C362.123 112.428 362.267 118.4 362.298 121.396C362.298 121.462 362.329 121.506 362.39 121.524C362.434 121.537 362.5 121.541 362.548 121.466L367.681 114.182C368.912 112.437 369.56 110.385 369.56 108.246V89.9454C369.56 84.3697 368.163 79.4091 365.294 74.7824C365.167 74.5759 365.228 74.3079 365.434 74.1761C365.64 74.0487 365.912 74.1102 366.039 74.3167C369 79.084 370.436 84.1983 370.436 89.941V108.241C370.436 110.561 369.731 112.789 368.395 114.687L363.262 121.972C363.065 122.253 362.762 122.407 362.438 122.407L362.443 122.411Z" fill="#E3E3E3"/>
<path d="M294.417 45.3876C296.777 43.7355 304.114 39.6317 313.246 44.5572C313.579 44.7373 313.448 45.247 313.071 45.2294C309.344 45.0361 299.493 44.6582 294.579 45.7479C294.36 45.7962 294.233 45.515 294.417 45.3876V45.3876Z" fill="#E3E3E3"/>
<path d="M328.668 49.7066C328.594 49.7066 328.515 49.689 328.445 49.6451C328.235 49.5221 328.169 49.254 328.292 49.0431C331.134 44.2275 332.637 38.7045 332.637 33.0717C332.637 15.7558 318.594 1.66928 301.333 1.66928C284.071 1.66928 270.029 15.7558 270.029 33.0717C270.029 34.693 270.151 36.3187 270.397 37.9049C270.432 38.1421 270.27 38.3706 270.029 38.4058C269.788 38.4409 269.565 38.2784 269.529 38.0367C269.28 36.4066 269.148 34.7326 269.148 33.0673C269.148 15.2681 283.585 0.786133 301.328 0.786133C319.072 0.786133 333.508 15.2681 333.508 33.0673C333.508 38.8539 331.962 44.5307 329.041 49.4869C328.957 49.6275 328.813 49.7022 328.664 49.7022L328.668 49.7066Z" fill="#E3E3E3"/>
<path d="M244.018 145.32C243.799 145.32 243.61 145.158 243.584 144.934C243.562 144.767 241.416 128.079 234.478 123.887C234.272 123.764 234.202 123.492 234.329 123.285C234.456 123.079 234.723 123.009 234.929 123.136C238.013 124.999 240.553 129.226 242.48 135.702C243.904 140.478 244.447 144.784 244.451 144.828C244.482 145.07 244.311 145.29 244.07 145.32C244.053 145.32 244.035 145.32 244.018 145.32V145.32Z" fill="#E3E3E3"/>
<path d="M364.685 139.226C364.479 139.226 364.295 139.081 364.255 138.87C363.581 135.447 364.435 131.502 366.726 127.464C368.443 124.437 370.331 122.442 370.409 122.358C370.576 122.183 370.856 122.178 371.027 122.345C371.202 122.512 371.207 122.789 371.04 122.965C370.966 123.044 363.581 130.904 365.11 138.699C365.158 138.936 365 139.169 364.764 139.213C364.733 139.217 364.707 139.222 364.68 139.222L364.685 139.226Z" fill="#E3E3E3"/>
<path d="M297.852 160.94C297.76 160.94 297.668 160.909 297.589 160.852C297.396 160.707 297.357 160.43 297.501 160.237C297.676 160 301.894 154.472 308.04 153.695C311.285 153.282 314.452 154.288 317.448 156.687C317.636 156.836 317.667 157.113 317.518 157.306C317.369 157.495 317.093 157.526 316.9 157.377C314.097 155.136 311.154 154.187 308.153 154.569C302.381 155.298 298.241 160.716 298.202 160.769C298.114 160.883 297.983 160.944 297.852 160.944V160.94Z" fill="#E3E3E3"/>
<path d="M295.439 148.458C295.404 148.458 295.369 148.458 295.338 148.445C290.38 147.254 287.498 145.263 286.78 142.531C285.641 138.216 290.323 133.756 290.52 133.572C290.696 133.405 290.976 133.413 291.138 133.594C291.304 133.769 291.296 134.051 291.116 134.213C291.072 134.257 286.618 138.501 287.621 142.311C288.256 144.705 290.919 146.485 295.535 147.592C295.772 147.649 295.917 147.887 295.86 148.124C295.811 148.326 295.632 148.462 295.435 148.462L295.439 148.458Z" fill="#E3E3E3"/>
<path d="M312.004 113.773C311.842 113.773 311.688 113.685 311.61 113.531C311.5 113.316 311.588 113.052 311.807 112.943C311.872 112.907 318.491 109.621 327.947 107.305C328.184 107.248 328.42 107.393 328.477 107.626C328.534 107.863 328.389 108.101 328.157 108.158C318.797 110.447 312.267 113.694 312.201 113.725C312.14 113.755 312.07 113.773 312.004 113.773V113.773Z" fill="#E3E3E3"/>
<path d="M295.536 114.814C295.487 114.814 295.439 114.805 295.395 114.792C295.264 114.748 282.255 110.297 271.976 108.175C271.739 108.127 271.586 107.894 271.634 107.657C271.682 107.42 271.914 107.266 272.151 107.314C282.488 109.449 295.544 113.918 295.676 113.962C295.904 114.041 296.026 114.291 295.947 114.52C295.886 114.704 295.715 114.819 295.531 114.819L295.536 114.814Z" fill="#E3E3E3"/>
<path d="M314.217 122.411C314.047 122.411 313.885 122.31 313.815 122.139C313.723 121.915 313.828 121.655 314.051 121.563C314.213 121.497 330.24 114.915 343.866 116.84C344.107 116.875 344.273 117.095 344.238 117.336C344.203 117.578 343.98 117.745 343.743 117.71C330.345 115.816 314.542 122.31 314.384 122.376C314.327 122.398 314.27 122.411 314.217 122.411Z" fill="#E3E3E3"/>
<path d="M291.462 123.101C291.414 123.101 291.366 123.092 291.318 123.075C291.164 123.022 275.874 117.644 267.429 118.804C267.188 118.835 266.969 118.668 266.934 118.426C266.899 118.184 267.07 117.965 267.307 117.929C275.961 116.743 290.972 122.02 291.602 122.244C291.83 122.323 291.948 122.574 291.87 122.806C291.804 122.987 291.638 123.101 291.458 123.101H291.462Z" fill="#E3E3E3"/>
<path d="M272.26 124.247C274.802 124.247 276.863 122.869 276.863 121.167C276.863 119.466 274.802 118.087 272.26 118.087C269.717 118.087 267.656 119.466 267.656 121.167C267.656 122.869 269.717 124.247 272.26 124.247Z" fill="#E3E3E3"/>
<path d="M321.346 125.926C323.888 125.926 325.949 124.547 325.949 122.846C325.949 121.145 323.888 119.766 321.346 119.766C318.803 119.766 316.742 121.145 316.742 122.846C316.742 124.547 318.803 125.926 321.346 125.926Z" fill="#E3E3E3"/>
<path d="M393.958 196.139C393.906 196.139 393.853 196.13 393.805 196.113C381.808 191.556 363.587 187.198 350.417 184.346C350.18 184.293 350.031 184.061 350.079 183.823C350.132 183.586 350.364 183.432 350.601 183.485C363.802 186.341 382.067 190.713 394.112 195.287C394.339 195.375 394.453 195.625 394.366 195.853C394.3 196.029 394.134 196.139 393.954 196.139H393.958Z" fill="#E3E3E3"/>
<path d="M421.915 279.994C421.819 279.994 421.723 279.964 421.644 279.898C421.456 279.748 421.42 279.472 421.574 279.278C423.059 277.398 424.097 274.568 424.653 270.869C426.983 255.394 420.409 228.644 412.805 213.376C412.695 213.161 412.783 212.897 413.002 212.787C413.217 212.677 413.484 212.765 413.589 212.985C417.584 221.008 421.18 231.733 423.457 242.406C425.866 253.689 426.598 263.843 425.52 271C424.938 274.854 423.843 277.824 422.261 279.827C422.174 279.937 422.047 279.994 421.92 279.994H421.915Z" fill="#E3E3E3"/>
<path d="M226.444 375.028C226.444 375.028 226.431 375.028 226.427 375.028C219.804 374.751 211.114 373.147 207.308 367.093L207.277 367.031C206.598 365.436 206.528 364.395 207.067 363.837C207.334 363.56 207.689 363.472 208.017 363.472C207.422 362.163 206.423 359.54 207.098 357.822C207.277 357.369 207.553 357.004 207.93 356.732C207.216 356.2 206.147 355.194 205.867 353.823C205.661 352.83 205.902 351.828 206.581 350.84C205.902 350.067 204.132 347.826 204.399 345.791C204.496 345.066 204.829 344.451 205.394 343.946C204.456 343.471 202.656 342.522 200.869 341.362C197.33 339.069 195.526 337.07 195.508 335.418C195.495 334.385 196.147 333.528 197.444 332.878C198.973 332.109 202.858 332.364 209.669 333.678C209.905 333.722 210.063 333.955 210.015 334.192C209.971 334.429 209.739 334.587 209.502 334.539C203.072 333.295 199.148 333.001 197.838 333.66C196.853 334.157 196.375 334.723 196.384 335.404C196.415 338.133 203.642 342.153 206.427 343.471L207.172 343.823L206.467 344.245C205.753 344.675 205.363 345.216 205.271 345.901C205.004 347.936 207.439 350.471 207.465 350.497L207.733 350.774L207.496 351.077C206.817 351.947 206.559 352.808 206.73 353.639C207.071 355.304 208.994 356.385 209.012 356.394L209.888 356.877L208.937 357.193C208.433 357.36 208.101 357.672 207.917 358.138C207.286 359.746 208.617 362.8 209.182 363.846L209.765 364.918L208.635 364.465C208.42 364.382 207.882 364.259 207.698 364.447C207.632 364.513 207.347 364.935 208.07 366.649C211.683 372.356 220.067 373.877 226.466 374.145C226.707 374.153 226.895 374.36 226.886 374.602C226.878 374.839 226.681 375.023 226.448 375.023L226.444 375.028Z" fill="#E3E3E3"/>
<path d="M257.545 376.24C257.545 376.24 257.524 376.24 257.515 376.24C255.566 376.099 253.73 375.968 252.014 375.836C251.773 375.818 251.593 375.607 251.611 375.366C251.628 375.124 251.834 374.935 252.079 374.961C253.796 375.089 255.631 375.225 257.581 375.366C257.821 375.383 258.005 375.594 257.988 375.836C257.97 376.069 257.778 376.244 257.55 376.244L257.545 376.24Z" fill="#E3E3E3"/>
<path d="M296.146 378.477C296.146 378.477 296.133 378.477 296.129 378.477C283.742 377.941 270.751 377.185 257.51 376.236C257.269 376.218 257.085 376.007 257.103 375.766C257.12 375.524 257.326 375.344 257.571 375.357C270.799 376.306 283.786 377.058 296.164 377.594C296.405 377.602 296.593 377.809 296.584 378.051C296.575 378.288 296.378 378.472 296.146 378.472V378.477Z" fill="#E3E3E3"/>
<path d="M337.032 379.417C336.791 379.417 336.594 379.219 336.594 378.978C336.594 378.736 336.791 378.538 337.032 378.538C371.629 378.472 393.543 375.735 402.158 370.405C411.685 364.509 417.917 350.119 420.694 327.628C420.725 327.386 420.944 327.215 421.185 327.245C421.426 327.276 421.597 327.496 421.566 327.737C418.758 350.502 412.381 365.111 402.622 371.152C393.867 376.57 371.805 379.351 337.041 379.417H337.032Z" fill="#E3E3E3"/>
<path d="M422.668 303.286C422.427 303.286 422.23 303.084 422.235 302.842C422.366 289.63 421.494 279.691 421.486 279.59L420.89 272.463C420.75 270.767 419.475 269.401 417.789 269.15C412.336 268.324 405.117 268.562 396.336 269.853C396.099 269.888 395.876 269.721 395.841 269.484C395.806 269.243 395.972 269.023 396.209 268.988C405.074 267.683 412.38 267.45 417.92 268.285C420.01 268.601 421.586 270.293 421.762 272.397L422.353 279.52C422.362 279.616 423.238 289.599 423.106 302.855C423.106 303.097 422.909 303.29 422.668 303.29V303.286Z" fill="#E3E3E3"/>
<path d="M272.39 347.711C272.193 347.711 272.013 347.575 271.965 347.373C271.908 347.136 272.057 346.898 272.289 346.846C281.045 344.78 342.838 337.627 365.465 336.366C369.018 336.169 371.716 333.216 371.611 329.644L370.064 277.964C370.007 276.114 371.212 274.475 372.986 273.983C374.611 273.531 377.208 272.837 380.357 272.085C380.594 272.028 380.83 272.173 380.883 272.41C380.94 272.648 380.795 272.885 380.559 272.938C377.423 273.685 374.839 274.379 373.218 274.827C371.83 275.214 370.892 276.492 370.936 277.933L372.482 329.613C372.605 333.664 369.543 337.017 365.514 337.241C346.973 338.273 282.539 345.325 272.491 347.698C272.456 347.707 272.425 347.711 272.39 347.711Z" fill="#E3E3E3"/>
<path d="M282.498 265.477C282.498 265.477 282.468 265.477 282.45 265.477C282.209 265.451 282.034 265.235 282.06 264.994C283.212 254.088 283.869 245.424 284.158 241.232C284.316 238.961 285.341 236.882 287.045 235.38L305.472 219.145L305.743 219.303C307.447 220.3 308.91 220.542 310.097 220.032C312.037 219.193 312.672 216.57 312.677 216.543L312.834 215.867L313.378 216.302C313.614 216.491 314.35 216.934 314.876 216.728C315.392 216.521 315.611 215.709 315.703 215.063C317.902 199.614 314.792 196.376 311.188 192.624C310.714 192.131 310.224 191.622 309.746 191.081C306.755 187.703 297.018 190.501 292.288 192.457L291.902 191.67C301.503 186.138 317.784 175.4 317.977 170.202C318.003 169.46 317.679 168.871 316.987 168.401C311.932 164.969 293.229 178.774 277.409 192.839C276.266 193.854 275.412 195.159 274.939 196.613C273.55 200.875 270.668 209.685 266.949 220.761C266.871 220.99 266.625 221.117 266.393 221.038C266.165 220.959 266.038 220.713 266.117 220.48C269.831 209.408 272.713 200.603 274.102 196.341C274.623 194.741 275.565 193.305 276.822 192.184C280.12 189.254 288.701 181.789 297.123 175.813C307.618 168.37 314.464 165.633 317.473 167.676C318.423 168.322 318.883 169.183 318.844 170.237C318.734 173.225 314.354 177.795 305.831 183.818C302.309 186.31 298.757 188.564 296.155 190.154C300.719 188.757 307.613 187.36 310.395 190.501C310.863 191.029 311.345 191.534 311.814 192.017C315.419 195.77 318.826 199.315 316.566 215.19C316.387 216.464 315.922 217.26 315.195 217.55C314.529 217.813 313.824 217.572 313.356 217.33C313.027 218.27 312.191 220.089 310.447 220.845C309.059 221.447 307.421 221.24 305.577 220.225L287.623 236.043C286.09 237.392 285.17 239.259 285.03 241.298C284.741 245.498 284.084 254.172 282.928 265.09C282.906 265.314 282.713 265.481 282.494 265.481L282.498 265.477Z" fill="#E3E3E3"/>
<path d="M243.932 285.856L238.185 262.41C237.922 261.338 237.103 260.477 236.048 260.165C223.477 256.413 211.362 255.341 200.04 256.98C199.273 257.09 198.603 257.494 198.143 258.118C197.683 258.742 197.499 259.51 197.617 260.275L199.409 271.642L200.85 278.909C200.854 278.944 201.257 281.277 201.958 285.153C202.002 285.39 201.844 285.618 201.603 285.662C201.367 285.702 201.139 285.548 201.095 285.306C200.39 281.422 199.991 279.089 199.987 279.063L198.546 271.787L196.75 260.402C196.593 259.401 196.833 258.399 197.433 257.586C198.034 256.773 198.914 256.241 199.913 256.101C211.358 254.444 223.6 255.53 236.297 259.317C237.651 259.721 238.702 260.824 239.039 262.199L244.116 282.921C247.624 273.707 251.737 262.344 256.345 249.119C256.424 248.891 256.673 248.772 256.901 248.851C257.129 248.93 257.251 249.181 257.168 249.409C252.337 263.28 248.049 275.1 244.427 284.546L243.927 285.856H243.932Z" fill="#E3E3E3"/>
<path d="M239.98 381.658C237.939 381.658 235.026 381.24 231.824 379.474C225.162 375.805 220.064 367.962 216.674 356.169C211.856 339.398 207.195 317.166 204.134 301.471C204.085 301.234 204.243 301.001 204.48 300.957C204.716 300.909 204.948 301.067 204.992 301.304C208.049 316.981 212.705 339.187 217.515 355.928C220.835 367.492 225.793 375.155 232.245 378.709C237.921 381.838 242.7 380.48 242.748 380.467C260.128 376.618 270.465 338.774 276.08 307.697C276.124 307.46 276.351 307.302 276.588 307.341C276.824 307.385 276.982 307.614 276.943 307.851C273.338 327.79 269.028 343.981 264.135 355.985C257.995 371.042 250.873 379.562 242.967 381.311C242.884 381.337 241.762 381.653 239.98 381.653V381.658Z" fill="#E3E3E3"/>
<path d="M220.878 339.504C220.878 339.504 220.847 339.504 220.83 339.504C220.589 339.477 220.414 339.262 220.44 339.021C220.523 338.247 222.582 320.013 231.184 311.384C233.352 309.204 237.531 300.078 243.602 284.256C243.663 284.085 243.825 283.958 244.013 283.958C244.254 283.958 244.451 284.151 244.451 284.393V284.476L244.421 284.559C238.219 300.733 234.093 309.71 231.802 312.007C223.414 320.417 221.329 338.933 221.312 339.117C221.285 339.341 221.097 339.508 220.878 339.508V339.504Z" fill="#E3E3E3"/>
<path d="M292.103 192.496C291.989 192.496 291.88 192.452 291.792 192.369C291.621 192.198 291.621 191.921 291.792 191.749C291.84 191.701 291.919 191.653 291.985 191.631C292.213 191.556 292.462 191.679 292.541 191.908C292.611 192.123 292.511 192.351 292.313 192.444C292.248 192.479 292.178 192.496 292.103 192.496Z" fill="#E3E3E3"/>
<path d="M200.15 200.691C200.01 200.691 199.87 200.62 199.786 200.497C199.651 200.295 199.703 200.023 199.905 199.886C208.555 194.056 220.048 189.579 234.064 186.582C245.684 184.1 256.21 183.274 261.452 183.001C261.689 182.984 261.899 183.172 261.912 183.419C261.926 183.66 261.737 183.867 261.496 183.88C226.04 185.712 206.952 196.196 200.395 200.616C200.321 200.669 200.237 200.691 200.15 200.691V200.691Z" fill="#E3E3E3"/>
<path d="M190.857 266.457C190.721 266.457 190.59 266.396 190.507 266.282C189.188 264.511 187.971 262.367 186.88 259.911C184.891 255.433 183.297 249.831 182.141 243.254C180.875 237.146 180.709 231.36 181.637 226.074C181.681 225.837 181.909 225.674 182.145 225.718C182.382 225.762 182.544 225.986 182.5 226.228C181.589 231.404 181.755 237.076 182.999 243.091C184.147 249.612 185.719 255.148 187.682 259.555C188.746 261.954 189.933 264.041 191.207 265.759C191.352 265.952 191.313 266.229 191.12 266.374C191.041 266.431 190.949 266.462 190.857 266.462V266.457Z" fill="#E3E3E3"/>
<path d="M244.024 284.832C243.783 284.832 243.586 284.639 243.586 284.397C243.586 284.146 243.783 283.953 244.024 283.953C244.265 283.953 244.462 284.151 244.462 284.393C244.462 284.634 244.265 284.836 244.024 284.836V284.832Z" fill="#E3E3E3"/>
<path d="M389.935 391.926H224.112C219.934 391.926 216.539 388.517 216.539 384.33V378.618C216.539 378.376 216.736 378.178 216.977 378.178C217.218 378.178 217.415 378.376 217.415 378.618V384.33C217.415 388.034 220.42 391.048 224.112 391.048H389.935C393.627 391.048 396.632 388.034 396.632 384.33V373.2C396.632 372.958 396.829 372.761 397.07 372.761C397.311 372.761 397.508 372.958 397.508 373.2V384.33C397.508 388.521 394.109 391.926 389.935 391.926Z" fill="#E3E3E3"/>
<path d="M365.85 100.139C363.147 100.837 360.418 101.465 357.663 102.037C321.857 109.462 282.616 106.751 258.11 103.649C252.245 102.911 247.226 102.147 243.297 101.492C243.297 97.0497 243.77 92.8756 244.694 88.9783C250.971 89.9977 259.656 91.2324 269.901 92.2254C292.471 94.4266 322.615 95.4724 351.277 90.5074C355.403 89.7956 359.494 88.9564 363.528 87.981C364.978 92.8053 365.591 97.1244 365.85 100.139V100.139Z" fill="#CE7783"/>
<path d="M305.502 96.2589C298.647 96.2589 291.591 96.048 284.342 95.6218C284.101 95.6086 283.917 95.4021 283.93 95.1561C283.943 94.9144 284.149 94.7255 284.395 94.743C308.734 96.171 330.919 95.1912 350.331 91.83C352.771 91.4082 355.202 90.9424 357.563 90.4415C357.799 90.3888 358.031 90.5426 358.084 90.7798C358.137 91.0171 357.983 91.25 357.747 91.3027C355.377 91.808 352.929 92.2737 350.48 92.6999C336.788 95.0726 321.721 96.2633 305.502 96.2633V96.2589Z" fill="#E3E3E3"/>
<path d="M251.373 92.3223C251.373 92.3223 251.334 92.3223 251.312 92.3223C248.754 91.962 246.214 91.5754 243.752 91.1755C243.511 91.136 243.349 90.9119 243.389 90.6702C243.428 90.433 243.656 90.2704 243.892 90.3056C246.345 90.7054 248.886 91.0877 251.435 91.4479C251.676 91.4831 251.842 91.7028 251.807 91.9444C251.776 92.1641 251.588 92.3223 251.373 92.3223V92.3223Z" fill="#E3E3E3"/>
<path d="M249.261 104.761C249.261 104.761 249.217 104.761 249.195 104.757C246.883 104.418 244.579 104.058 242.349 103.685C242.113 103.645 241.951 103.417 241.99 103.179C242.03 102.942 242.253 102.775 242.494 102.819C244.719 103.188 247.014 103.548 249.327 103.887C249.568 103.922 249.73 104.146 249.695 104.383C249.664 104.603 249.476 104.761 249.261 104.761V104.761Z" fill="#E3E3E3"/>
<path d="M305.592 109.014C296.157 109.014 286.324 108.61 276.123 107.797C275.882 107.78 275.702 107.564 275.72 107.323C275.737 107.081 275.952 106.905 276.193 106.918C306.573 109.339 333.659 108.14 356.706 103.364C358.699 102.951 360.657 102.511 362.527 102.059C362.764 102.002 363 102.147 363.057 102.384C363.114 102.621 362.97 102.858 362.733 102.916C360.854 103.373 358.888 103.812 356.886 104.229C341.508 107.419 324.334 109.019 305.596 109.019L305.592 109.014Z" fill="#E3E3E3"/>
<path d="M302.609 80.3009C294.305 67.3216 276.636 47.1365 260.465 77.3922C238.376 118.711 259.072 136.256 259.269 142.056C259.466 147.855 255.888 154.244 255.888 154.244C255.888 154.244 265.524 148.87 261.459 123.307C261.459 123.307 272.532 110.864 276.452 97.1291C276.452 97.1291 279.461 81.7728 293.665 86.1754C307.869 90.5736 302.609 80.3053 302.609 80.3053V80.3009Z" fill="#252525"/>
<path d="M249.02 163.4L249.777 162.047C249.817 161.977 253.636 155.083 253.426 148.932C253.387 147.737 252.392 145.878 251.131 143.518C246.032 133.975 235.42 114.115 254.784 77.8884C260.846 66.548 267.67 60.6472 275.063 60.3572C281.024 60.1287 290.485 63.5207 301.698 81.0432C301.829 81.2453 301.768 81.5177 301.567 81.6495C301.365 81.7813 301.094 81.7198 300.962 81.5177C289.977 64.3467 280.832 61.0075 275.103 61.2359C268.042 61.5128 261.463 67.2554 255.559 78.3014C236.414 114.115 246.878 133.694 251.906 143.101C253.273 145.654 254.258 147.499 254.306 148.896C254.455 153.255 252.734 157.842 251.564 160.413C254.258 157.355 259.067 148.795 255.831 128.439L255.796 128.232L255.936 128.079C256.058 127.942 268.046 114.348 272.26 99.5806C272.326 99.3477 272.571 99.2115 272.803 99.2774C273.035 99.3433 273.171 99.5893 273.105 99.8222C269.08 113.922 258.091 126.932 256.728 128.505C261.095 156.313 250.815 162.394 250.373 162.64L249.02 163.396V163.4Z" fill="#E3E3E3"/>
<path d="M52.9583 211.556C47.3037 211.556 41.671 210.739 36.4413 209.118C26.8622 206.148 19.6264 200.844 15.5136 193.77C8.78153 182.188 9.84587 174.67 11.3219 164.266C13.3017 150.316 16.0085 131.211 3.64815 89.5407C-0.64864 75.0632 -1.15234 61.7105 2.15019 49.8516C4.94464 39.8206 10.5248 30.9671 18.2993 24.2358C30.6553 13.5413 47.9301 9.19589 58.4859 14.1301C63.8646 16.6478 66.786 21.3799 66.7028 27.4653C66.6765 29.337 67.1802 30.7211 68.2446 31.6877C71.2055 34.3899 78.1171 33.6385 86.1238 32.7686C101.003 31.1473 119.517 29.1349 122.763 48.9201C124.388 58.8238 129.836 71.5394 140.261 77.5325C147.194 81.5221 155.183 81.8165 164.005 78.4201C178.682 72.3742 192.51 71.6097 205.085 76.1529C215.325 79.8481 222.057 86.1707 225.163 89.6067C225.579 90.068 225.636 90.7051 225.312 91.2368C224.992 91.7596 224.379 92.0057 223.783 91.8387C208.869 87.7041 197.656 89.2288 189.505 96.5049C182.309 102.924 178.362 112.815 174.547 122.376C169.265 135.614 164.276 148.114 151.246 148.299C127.108 148.637 117.993 151.537 111.738 154.626C100.771 160.039 94.8094 169.495 92.9829 184.381C91.3929 197.325 80.7627 207.048 64.5435 210.392C60.7548 211.174 56.8522 211.561 52.9627 211.561L52.9583 211.556ZM48.3374 12.9702C38.8941 12.9702 27.6331 17.3112 18.8687 24.8993C11.23 31.5119 5.73742 40.2204 2.99115 50.0845C-0.263198 61.7808 0.236123 74.9709 4.48473 89.2859C16.9021 131.141 14.1777 150.355 12.1892 164.385C10.6825 174.996 9.68819 182.008 16.2713 193.322C20.2703 200.198 27.3353 205.37 36.6997 208.274C45.3853 210.968 55.214 211.411 64.3639 209.522C80.1933 206.257 90.5651 196.815 92.1069 184.262C93.9771 169.051 100.092 159.38 111.348 153.822C117.695 150.689 126.919 147.745 151.228 147.407C163.676 147.236 168.56 134.995 173.728 122.037C181.306 103.052 189.895 81.5265 224.011 90.9819C224.274 91.0522 224.466 90.916 224.558 90.7666C224.602 90.6919 224.729 90.4371 224.506 90.1866C221.457 86.8078 214.839 80.5994 204.778 76.9701C192.409 72.506 178.796 73.2662 164.316 79.2285C155.227 82.7304 146.988 82.414 139.814 78.2882C129.127 72.1413 123.547 59.1577 121.891 49.0564C120.507 40.6291 116.127 35.5894 108.497 33.6473C101.782 31.9425 93.5085 32.8433 86.2114 33.6342C77.9945 34.5305 70.9032 35.2994 67.6489 32.3336C66.4094 31.2 65.7918 29.5567 65.8224 27.4477C65.9013 21.6479 63.2338 17.3156 58.1136 14.921C55.2797 13.5941 51.9422 12.9614 48.3374 12.9614V12.9702Z" fill="#E3E3E3"/>
<path d="M367.749 265.477C367.557 265.477 367.382 265.35 367.329 265.157C367.263 264.924 367.399 264.682 367.636 264.616C367.903 264.541 394.774 257.12 413.205 257.74C413.446 257.749 413.635 257.951 413.63 258.192C413.621 258.434 413.42 258.636 413.179 258.619C394.875 258.025 368.139 265.389 367.872 265.464C367.833 265.473 367.793 265.482 367.754 265.482L367.749 265.477Z" fill="#E3E3E3"/>
<path d="M239.363 249.703C239.298 249.703 239.232 249.69 239.171 249.66C220.139 240.31 193.824 246.448 193.561 246.509C193.329 246.566 193.088 246.421 193.036 246.184C192.979 245.947 193.123 245.709 193.36 245.652C193.627 245.591 220.24 239.382 239.556 248.869C239.775 248.974 239.863 249.238 239.757 249.457C239.683 249.611 239.525 249.703 239.363 249.703Z" fill="#E3E3E3"/>
</g>
<defs>
<clipPath id="clip0_10616_7310">
<rect width="426" height="394" fill="white"/>
</clipPath>
</defs>
</svg>
