<svg width="81" height="89" viewBox="0 0 81 89" fill="none" xmlns="http://www.w3.org/2000/svg">
<path fill-rule="evenodd" clip-rule="evenodd" d="M3.77443 12.3045C1.5677 13.0778 0.191622 15.2772 0.461354 17.5999L5.7124 62.8173C5.89817 64.417 6.84306 65.8292 8.25081 66.6113L36.459 82.2825C37.9691 83.1215 39.8053 83.1215 41.3154 82.2825L69.5236 66.6113C70.9314 65.8292 71.8762 64.417 72.062 62.8173L77.313 17.5999C77.5828 15.2772 76.2067 13.0778 74 12.3045L40.5408 0.579449C39.4703 0.204333 38.3041 0.204333 37.2337 0.579449L3.77443 12.3045Z" fill="#8456D0"/>
<path fill-rule="evenodd" clip-rule="evenodd" d="M38.8827 0.334106C39.5039 0.334106 40.1252 0.438263 40.7198 0.646575L73.5743 12.1599C76.026 13.0189 77.5548 15.4625 77.2551 18.0431L72.0885 62.5335C71.8821 64.3109 70.8323 65.8798 69.2683 66.7489L41.5805 82.1309C40.7416 82.5969 39.8122 82.8299 38.8827 82.8299V0.334106Z" fill="#6841A7"/>
<path fill-rule="evenodd" clip-rule="evenodd" d="M40.6691 21.2807C40.6691 22.1554 39.96 22.8645 39.0853 22.8645C38.2106 22.8645 37.5016 22.1554 37.5016 21.2807C37.5016 20.406 38.2106 19.697 39.0853 19.697C39.96 19.697 40.6691 20.406 40.6691 21.2807ZM40.4896 24.9454C41.9629 24.3805 43.0088 22.9527 43.0088 21.2807C43.0088 19.1139 41.2522 17.3573 39.0853 17.3573C36.9185 17.3573 35.1619 19.1139 35.1619 21.2807C35.1619 22.9531 36.2083 24.3811 37.6821 24.9458V27.5092L29.1921 32.4109C28.3791 32.8803 27.8783 33.7477 27.8783 34.6865V44.3357L25.95 45.5409C25.3302 45.1308 24.587 44.892 23.7881 44.892C21.6213 44.892 19.8647 46.6486 19.8647 48.8154C19.8647 50.9823 21.6213 52.7389 23.7881 52.7389C25.955 52.7389 27.7116 50.9823 27.7116 48.8154C27.7116 48.4747 27.6681 48.1441 27.5865 47.8289L29.156 46.848C29.1679 46.8552 29.18 46.8623 29.1921 46.8693L37.772 51.8229C38.585 52.2922 39.5866 52.2922 40.3996 51.8229L48.9795 46.8693C49.0685 46.8179 49.1538 46.7617 49.2351 46.7012L51.1922 47.6388C51.1817 47.7562 51.1763 47.8751 51.1763 47.9952C51.1763 50.162 52.9328 51.9186 55.0997 51.9186C57.2665 51.9186 59.0231 50.162 59.0231 47.9952C59.0231 45.8283 57.2665 44.0718 55.0997 44.0718C54.069 44.0718 53.1311 44.4692 52.431 45.1192L50.2933 44.0949L50.2933 34.6865C50.2933 33.7477 49.7925 32.8803 48.9795 32.4109L40.4896 27.5093V24.9454ZM38.7164 30.154H39.4552L45.9432 33.8998L39.0551 37.4623L31.8787 34.1017L38.7164 30.154ZM30.6859 36.6434V44.4898L37.6821 48.529V39.9196L30.6859 36.6434ZM40.4896 48.529L47.4857 44.4898L47.4857 36.2629L40.4896 39.8812V48.529ZM37.916 59.757L37.916 57.7502C37.9038 57.7434 37.8916 57.7364 37.8794 57.7293L31 53.718C30.4418 53.3925 30.2532 52.6763 30.5786 52.1181C30.9041 51.56 31.6203 51.3714 32.1785 51.6968L39.0579 55.7081C39.0747 55.7179 39.0955 55.7179 39.1123 55.7081L45.9918 51.6968C46.5499 51.3714 47.2662 51.56 47.5916 52.1181C47.917 52.6763 47.7284 53.3925 47.1703 53.718L40.2908 57.7293L40.2752 57.7383C40.2687 57.7421 40.2622 57.7458 40.2557 57.7494V59.7573C41.8509 60.2552 43.0088 61.744 43.0088 63.5032C43.0088 65.6701 41.2522 67.4267 39.0853 67.4267C36.9185 67.4267 35.1619 65.6701 35.1619 63.5032C35.1619 61.7436 36.3203 60.2546 37.916 59.757ZM22.9235 31.5565C22.9235 31.5391 22.9237 31.5217 22.9241 31.5043L21.188 30.502C19.9592 31.6342 18.0912 31.8924 16.5678 31.0128C14.6913 29.9294 14.0483 27.5299 15.1318 25.6533C16.2152 23.7768 18.6147 23.1339 20.4913 24.2173C22.0153 25.0972 22.7257 26.8452 22.3584 28.4761L24.1118 29.4885L31 25.4721C31.5581 25.1466 32.2744 25.3353 32.5998 25.8934C32.9252 26.4515 32.7366 27.1678 32.1785 27.4932L25.2899 31.5099C25.2733 31.5195 25.2631 31.5373 25.2631 31.5565L25.2631 39.595C25.2631 40.2411 24.7394 40.7648 24.0933 40.7648C23.4472 40.7648 22.9235 40.2411 22.9235 39.595L22.9235 31.5565ZM57.4463 30.5022L55.2468 31.7721V39.595C55.2468 40.2411 54.723 40.7648 54.0769 40.7648C53.4308 40.7648 52.9071 40.2411 52.9071 39.595V31.5565C52.9071 31.5373 52.8969 31.5195 52.8803 31.5099L45.9918 27.4932C45.4336 27.1678 45.245 26.4515 45.5704 25.8934C45.8959 25.3353 46.6122 25.1466 47.1703 25.4721L54.0588 29.4887C54.1341 29.5326 54.2064 29.5802 54.2755 29.6313L56.2766 28.476C55.91 26.8454 56.6204 25.0982 58.144 24.2185C60.0206 23.1351 62.4201 23.778 63.5035 25.6546C64.5869 27.5311 63.944 29.9306 62.0674 31.0141C60.5437 31.8938 58.6751 31.6353 57.4463 30.5022ZM23.7881 50.3992C24.6628 50.3992 25.3719 49.6901 25.3719 48.8154C25.3719 47.9408 24.6628 47.2317 23.7881 47.2317C22.9134 47.2317 22.2044 47.9408 22.2044 48.8154C22.2044 49.6901 22.9134 50.3992 23.7881 50.3992ZM17.158 26.8232C16.7206 27.5807 16.9802 28.5493 17.7377 28.9866C18.4952 29.424 19.4638 29.1645 19.9011 28.4069C20.3385 27.6494 20.0789 26.6808 19.3214 26.2435C18.5639 25.8061 17.5953 26.0657 17.158 26.8232ZM40.6691 63.5032C40.6691 64.3779 39.96 65.087 39.0853 65.087C38.2106 65.087 37.5016 64.3779 37.5016 63.5032C37.5016 62.6285 38.2106 61.9195 39.0853 61.9195C39.96 61.9195 40.6691 62.6285 40.6691 63.5032ZM55.0997 49.579C55.9744 49.579 56.6835 48.8699 56.6835 47.9952C56.6835 47.1205 55.9744 46.4114 55.0997 46.4114C54.225 46.4114 53.5159 47.1205 53.5159 47.9952C53.5159 48.8699 54.225 49.579 55.0997 49.579ZM59.3138 26.2447C60.0714 25.8074 61.04 26.0669 61.4773 26.8244C61.9147 27.5819 61.6551 28.5505 60.8976 28.9879C60.1401 29.4252 59.1715 29.1657 58.7341 28.4082C58.2968 27.6507 58.5563 26.682 59.3138 26.2447Z" fill="#EFE4FF"/>
<path d="M12.4058 15.7161L5.76026 18.0449C3.99488 18.6635 2.89402 20.4231 3.10981 22.2812L8.47728 68.5011C8.62589 69.7809 9.3818 70.9107 10.508 71.5363L39.4586 87.62C40.6667 88.2912 42.1357 88.2912 43.3438 87.62L72.2944 71.5363C73.4206 70.9107 74.1765 69.7809 74.3251 68.5011L79.6926 22.2812C79.9084 20.4231 78.8075 18.6635 77.0421 18.0449L42.724 6.01886C41.8677 5.71876 40.9347 5.71876 40.0784 6.01886L31.7361 8.94222" stroke="white" stroke-linecap="round"/>
</svg>
