<svg width="24" height="24" viewBox="0 0 24 24" fill="none" xmlns="http://www.w3.org/2000/svg">
    <path d="M12.132 8C12.132 8.92636 11.7648 9.81493 11.1108 10.471C10.4568 11.1271 9.56935 11.4971 8.643 11.5H0.5V4.5H8.643C9.56935 4.50291 10.4568 4.87295 11.1108 5.52901C11.7648 6.18507 12.132 7.07364 12.132 8V8Z" stroke="#C8C8C8" stroke-linecap="round" stroke-linejoin="round"/>
    <path d="M12.132 15C12.132 15.9264 11.7648 16.8149 11.1108 17.471C10.4568 18.1271 9.56935 18.4971 8.643 18.5H0.5V11.5H8.643C9.56935 11.5029 10.4568 11.8729 11.1108 12.529C11.7648 13.1851 12.132 14.0736 12.132 15V15Z" stroke="#C8C8C8" stroke-linecap="round" stroke-linejoin="round"/>
    <path d="M23.111 15.4326C22.6314 16.5764 21.7437 17.5011 20.6204 18.0271C19.4972 18.5531 18.2185 18.6429 17.0328 18.2789C15.8471 17.915 14.839 17.1233 14.2043 16.0577C13.5696 14.992 13.3536 13.7285 13.5983 12.5126C13.843 11.2967 14.5309 10.2151 15.5284 9.47792C16.5259 8.74076 17.7617 8.40067 18.996 8.52369C20.2302 8.64672 21.3746 9.22408 22.2069 10.1436C23.0393 11.0632 23.5002 12.2593 23.5 13.4996H13.5" stroke="#C8C8C8" stroke-linecap="round" stroke-linejoin="round"/>
    <path d="M16 5.5H21" stroke="#C8C8C8" stroke-linecap="round" stroke-linejoin="round"/>
</svg>
