<svg width="28" height="27" viewBox="0 0 28 27" fill="none" xmlns="http://www.w3.org/2000/svg">
<path fill-rule="evenodd" clip-rule="evenodd" d="M14.0003 0.333374C6.63953 0.333374 0.666992 6.30591 0.666992 13.6667C0.666992 21.0275 6.63953 27 14.0003 27C21.3467 27 27.3337 21.0275 27.3337 13.6667C27.3337 6.30591 21.3467 0.333374 14.0003 0.333374ZM22.8073 6.47943C24.398 8.41724 25.3525 10.8901 25.3814 13.5655C25.0054 13.4932 21.2454 12.7267 17.4566 13.2039C17.3698 13.016 17.2975 12.8135 17.2108 12.611C16.9794 12.0615 16.719 11.4975 16.4588 10.9624C20.6525 9.25601 22.5614 6.79759 22.8073 6.47943ZM14.0003 2.30011C16.8926 2.30011 19.539 3.38471 21.5491 5.16345C21.3467 5.45268 19.6258 7.75204 15.5766 9.27047C13.7111 5.84313 11.6431 3.03764 11.325 2.6038C12.1782 2.40134 13.0748 2.30011 14.0003 2.30011ZM9.15579 3.37025C9.45947 3.77516 11.4841 6.59513 13.3785 9.95015C8.05673 11.3673 3.35681 11.3384 2.85065 11.3384C3.58817 7.80988 5.9743 4.87423 9.15579 3.37025ZM2.60481 13.6812C2.60481 13.5655 2.60481 13.4498 2.60481 13.3341C3.09649 13.3485 8.62073 13.4209 14.304 11.7144C14.6366 12.3507 14.9403 13.0015 15.2295 13.6523C15.0849 13.6956 14.9258 13.739 14.7812 13.7824C8.90995 15.6768 5.7863 20.854 5.52601 21.2878C3.71833 19.2777 2.60481 16.6024 2.60481 13.6812ZM14.0003 25.0622C11.3684 25.0622 8.93886 24.1656 7.0155 22.6616C7.21798 22.2423 9.53179 17.7882 15.9526 15.5467C15.9815 15.5322 15.996 15.5322 16.0249 15.5177C17.6301 19.6681 18.2809 23.1533 18.4544 24.1512C17.0806 24.7441 15.5766 25.0622 14.0003 25.0622ZM20.3489 23.11C20.2332 22.4158 19.6258 19.0897 18.1363 14.9972C21.7082 14.4332 24.8318 15.3587 25.2223 15.4888C24.7306 18.6559 22.9085 21.3891 20.3489 23.11Z" fill="#8C8C8C"/>
</svg>
