<svg width="24" height="24" viewBox="0 0 24 24" fill="none" xmlns="http://www.w3.org/2000/svg">
    <path d="M12 23.5C18.3513 23.5 23.5 18.3513 23.5 12C23.5 5.64873 18.3513 0.5 12 0.5C5.64873 0.5 0.5 5.64873 0.5 12C0.5 18.3513 5.64873 23.5 12 23.5Z" stroke="#C8C8C8" stroke-linecap="round" stroke-linejoin="round"/>
    <path d="M6.51953 1.88672C9.4688 4.12382 11.8597 7.01372 13.5049 10.3298C15.15 13.6459 16.0045 17.298 16.0015 20.9997C16.0015 21.6097 15.9792 22.2131 15.9345 22.8097" stroke="#C8C8C8" stroke-linecap="round" stroke-linejoin="round"/>
    <path d="M20.5834 4.34863C16.1216 8.62457 10.1783 11.008 3.99841 10.9996C2.85012 10.9994 1.70328 10.9182 0.566406 10.7566" stroke="#C8C8C8" stroke-linecap="round" stroke-linejoin="round"/>
    <path d="M3.05859 19.2313C7.52393 14.9249 13.4881 12.5225 19.6916 12.5313C20.9564 12.5384 22.2192 12.6306 23.4716 12.8073" stroke="#C8C8C8" stroke-linecap="round" stroke-linejoin="round"/>
</svg>
