<svg width="24" height="24" viewBox="0 0 24 24" fill="none" xmlns="http://www.w3.org/2000/svg">
    <path d="M11.9992 0.500016C9.26641 0.497438 6.62206 1.46809 4.53996 3.23804C2.45785 5.00799 1.07409 7.46155 0.636617 10.159C0.199149 12.8565 0.736576 15.6217 2.15259 17.9589C3.56861 20.2962 5.77066 22.0528 8.36415 22.914C8.93815 23.014 9.12015 22.677 9.12015 22.373C9.12015 22.098 9.12615 21.336 9.12015 20.373C5.92015 21.067 5.25915 18.858 5.25915 18.858C5.04818 18.163 4.59558 17.5664 3.98315 17.176C2.93915 16.462 4.06115 16.476 4.06115 16.476C4.42566 16.526 4.77391 16.6587 5.07929 16.8639C5.38467 17.0691 5.6391 17.3414 5.82315 17.66C5.97884 17.9437 6.18924 18.1937 6.44217 18.3956C6.6951 18.5975 6.98555 18.7472 7.29671 18.8361C7.60787 18.925 7.93357 18.9513 8.25496 18.9135C8.57636 18.8758 8.88708 18.7746 9.16915 18.616C9.22221 18.0347 9.48108 17.4914 9.89915 17.084C7.34615 16.792 4.66115 15.806 4.66115 11.398C4.64494 10.2553 5.06929 9.1502 5.84615 8.31202C5.49413 7.3205 5.5342 6.23197 5.95815 5.26902C5.95815 5.26902 6.92515 4.96002 9.12015 6.44902C11.0053 5.9317 12.995 5.9317 14.8802 6.44902C17.0802 4.96102 18.0392 5.26902 18.0392 5.26902C18.4633 6.23182 18.504 7.32017 18.1532 8.31202C18.9302 9.15074 19.3539 10.2568 19.3362 11.4C19.3362 15.82 16.6472 16.791 14.0852 17.074C14.3603 17.3505 14.573 17.6829 14.7088 18.0486C14.8445 18.4143 14.9002 18.8049 14.8722 19.194V22.378C14.8722 22.685 15.0582 23.025 15.6422 22.914C18.2363 22.0526 20.4388 20.2953 21.8548 17.9572C23.2707 15.6191 23.8076 12.8531 23.3691 10.1551C22.9306 7.45706 21.5454 5.00344 19.4618 3.23414C17.3782 1.46483 14.7326 0.495529 11.9992 0.500016V0.500016Z" stroke="#C8C8C8" stroke-linecap="round" stroke-linejoin="round"/>
</svg>
