<svg width="12" height="11" viewBox="0 0 12 11" fill="none" xmlns="http://www.w3.org/2000/svg">
    <path fill-rule="evenodd" clip-rule="evenodd" d="M8.56151 1.3002C7.99396 1.30023 7.45006 1.52426 7.04936 1.92238L1.73009 7.20582C1.45401 7.48004 1.29925 7.85156 1.29922 8.23854C1.29918 8.62552 1.45388 8.99707 1.72991 9.27134C2.00601 9.54567 2.38093 9.70016 2.77227 9.7002C3.16352 9.70023 3.53836 9.54589 3.81449 9.27174C3.81456 9.27166 3.81441 9.27181 3.81449 9.27174L8.90863 4.19508C8.96481 4.14147 9.00959 4.07743 9.04036 4.00665C9.07114 3.93588 9.08736 3.8598 9.08814 3.78284C9.08892 3.70588 9.07423 3.6295 9.0449 3.55814C9.01557 3.48678 8.97215 3.42181 8.91707 3.3671C8.862 3.31239 8.79638 3.26903 8.724 3.23967C8.65162 3.21031 8.57401 3.19557 8.49572 3.19635C8.41743 3.19713 8.34013 3.21342 8.26837 3.24421C8.19662 3.27501 8.1319 3.31965 8.07795 3.37544L8.07376 3.37978L4.30582 7.12287C4.18827 7.23964 3.99833 7.23902 3.88155 7.12147C3.76478 7.00393 3.76541 6.81398 3.88295 6.69721L7.64886 2.95605C7.75784 2.84396 7.888 2.75453 8.03176 2.69284C8.1765 2.63072 8.33219 2.59795 8.48973 2.59638C8.64727 2.5948 8.80359 2.62447 8.94955 2.68368C9.09551 2.74289 9.22825 2.83049 9.33994 2.94144C9.45163 3.0524 9.54003 3.18449 9.59985 3.33003C9.65968 3.47558 9.6897 3.63159 9.68811 3.78891C9.68652 3.94623 9.65335 4.1016 9.5906 4.24591C9.52831 4.38915 9.43815 4.51857 9.32543 4.62678L4.23789 9.69686C3.84891 10.0832 3.32143 10.3002 2.77222 10.3002C2.22302 10.3001 1.69593 10.0834 1.30701 9.69696C0.918033 9.31047 0.699171 8.78588 0.699219 8.23849C0.699267 7.6911 0.91822 7.16655 1.30727 6.78012L6.62647 1.49674C6.62648 1.49673 6.62646 1.49675 6.62647 1.49674C7.13998 0.98656 7.83608 0.700241 8.56148 0.700195C9.28689 0.70015 9.983 0.986363 10.4966 1.4965C11.0102 2.0067 11.2992 2.69913 11.2992 3.42157C11.2993 4.14401 11.0104 4.83648 10.4968 5.34675L6.72937 9.0903C6.61184 9.20709 6.42189 9.20648 6.30511 9.08895C6.18832 8.97142 6.18893 8.78148 6.30646 8.66469L10.0739 4.92112C10.4746 4.52308 10.6993 3.98364 10.6992 3.42161C10.6992 2.85958 10.4744 2.32018 10.0737 1.92219C9.673 1.52412 9.12907 1.30016 8.56151 1.3002Z" fill="#8C8C8C"/>
</svg>
