<svg width="16" height="16" viewBox="0 0 16 16" fill="none" xmlns="http://www.w3.org/2000/svg">
    <path d="M7.08801 1.42007C8.13331 1.21801 9.21613 1.36996 10.1655 1.85191C11.0507 2.30132 11.7728 3.0138 12.2342 3.88888C12.6333 3.89843 13.0284 3.97593 13.4024 4.11854C13.8445 4.28711 14.2481 4.54318 14.5888 4.87143C14.9296 5.19967 15.2006 5.59332 15.3856 6.0288C15.5705 6.46428 15.6657 6.93262 15.6654 7.40576C15.6653 8.95259 14.8664 9.84645 14.0746 10.3385C13.684 10.5812 13.2961 10.7266 13.0073 10.8116C12.8624 10.8542 12.7408 10.8821 12.6541 10.8994L12.4544 10.9275H10.8654C10.6813 10.9275 10.532 10.7783 10.532 10.5942C10.532 10.4101 10.6813 10.2609 10.8654 10.2609H12.4404L12.523 10.2458C12.5931 10.2317 12.6954 10.2084 12.8192 10.172C13.068 10.0988 13.3967 9.97483 13.7228 9.77223C14.3642 9.37362 14.9987 8.67321 14.9987 7.40552C14.999 7.02211 14.9219 6.64234 14.7719 6.28945C14.622 5.93656 14.4024 5.61756 14.1263 5.35157C13.8502 5.08557 13.5232 4.87806 13.1649 4.74146C12.8067 4.60486 12.4245 4.54199 12.0414 4.55661C11.9078 4.56171 11.7841 4.48651 11.7272 4.36559C11.3365 3.53653 10.6809 2.86123 9.86366 2.44636C9.04647 2.03148 8.11435 1.90069 7.21453 2.07462C6.31472 2.24856 5.49849 2.71732 4.89478 3.40685C4.29108 4.09639 3.9343 4.9674 3.8808 5.88231C3.87513 5.97918 3.82754 6.06878 3.75044 6.1277C3.67334 6.18662 3.57439 6.20902 3.47943 6.18905C3.18003 6.12609 2.87036 6.13069 2.57297 6.20253C2.27558 6.27436 1.99795 6.41162 1.76031 6.60431C1.52266 6.797 1.33098 7.04026 1.19923 7.31638C1.0675 7.59246 0.998996 7.89444 0.998698 8.20034C0.998724 8.74606 1.14074 9.13042 1.33607 9.40664C1.53346 9.68578 1.80043 9.8756 2.08036 10.0048C2.36128 10.1344 2.64666 10.1988 2.86496 10.2302C2.97326 10.2458 3.06284 10.253 3.12412 10.2562L3.21603 10.2589H5.1247C5.30879 10.2589 5.45803 10.4081 5.45803 10.5922C5.45803 10.7763 5.30879 10.9255 5.1247 10.9255H3.21765L3.08874 10.9219C3.01053 10.9178 2.90084 10.9089 2.77002 10.8901C2.51007 10.8527 2.15778 10.7747 1.80103 10.6101C1.4433 10.445 1.0726 10.1887 0.791745 9.79155C0.508838 9.39148 0.332031 8.86939 0.332031 8.20019C0.332397 7.7951 0.423105 7.39489 0.59755 7.02929C0.771994 6.66369 1.02578 6.3416 1.34043 6.08648C1.65508 5.83135 2.02268 5.64961 2.41644 5.5545C2.6897 5.48849 2.9708 5.46536 3.24974 5.48524C3.37476 4.55455 3.77114 3.6782 4.3932 2.9677C5.09451 2.16668 6.04271 1.62213 7.08801 1.42007Z" fill="#8C8C8C"/>
    <path fill-rule="evenodd" clip-rule="evenodd" d="M8.0013 6.59375C8.1854 6.59375 8.33464 6.74299 8.33464 6.92708V14.2604C8.33464 14.4445 8.1854 14.5938 8.0013 14.5938C7.81721 14.5938 7.66797 14.4445 7.66797 14.2604V6.92708C7.66797 6.74299 7.81721 6.59375 8.0013 6.59375Z" fill="#8C8C8C"/>
    <path fill-rule="evenodd" clip-rule="evenodd" d="M7.7656 6.69138C7.89577 6.56121 8.10683 6.56121 8.237 6.69138L10.237 8.69138C10.3672 8.82156 10.3672 9.03261 10.237 9.16278C10.1068 9.29296 9.89577 9.29296 9.7656 9.16278L8.0013 7.39849L6.237 9.16278C6.10683 9.29296 5.89577 9.29296 5.7656 9.16278C5.63543 9.03261 5.63543 8.82156 5.7656 8.69138L7.7656 6.69138Z" fill="#8C8C8C"/>
</svg>
