<svg width="116" height="96" viewBox="0 0 116 96" fill="none" xmlns="http://www.w3.org/2000/svg">
<path fill-rule="evenodd" clip-rule="evenodd" d="M5.27945 26.9907C1.77837 34.8884 0.488494 43.3712 0.187236 50.9476C0.0650501 51.4283 0 51.9323 0 52.4511V88.9509C0 92.3104 2.72147 95.0342 6.0786 95.0342H42.5502C45.9073 95.0342 48.6288 92.3104 48.6288 88.9509V52.4511C48.6288 49.0916 45.9073 46.3678 42.5502 46.3678H21.9043C20.212 30.1076 27.2563 14.9652 45.8428 11.1354L44.898 0.0341797C23.4153 2.50354 11.2821 13.4518 5.27945 26.9907ZM72.6509 26.9907C69.1495 34.8879 67.8594 43.3707 67.5582 50.9471C67.436 51.4283 67.3712 51.9323 67.3712 52.4511V88.9509C67.3712 92.3104 70.0929 95.0342 73.4498 95.0342H109.921C113.278 95.0342 116 92.3104 116 88.9509V52.4511C116 49.0916 113.278 46.3678 109.921 46.3678H89.2755C87.5832 30.1076 94.6274 14.9652 113.214 11.1354L112.269 0.0341797C90.7863 2.50354 78.6533 13.4518 72.6509 26.9907Z" fill="#363639"/>
</svg>
