<svg width="24" height="24" viewBox="0 0 24 24" fill="none" xmlns="http://www.w3.org/2000/svg">
<g clip-path="url(#clip0_4832_23738)">
<path d="M5.5 15H2.5C2.22386 15 2 15.1959 2 15.4375V21.5625C2 21.8041 2.22386 22 2.5 22H5.5C5.77614 22 6 21.8041 6 21.5625V15.4375C6 15.1959 5.77614 15 5.5 15Z" fill="#EAB669"/>
<path d="M17.1458 8C15.9458 8.8 15.3218 10.269 17.1458 11.5C18.1458 14 20.0058 13.327 21.1068 12.167C21.7248 11.279 22.125 10.258 22.2749 9.18657C22.4248 8.11516 22.3203 7.0235 21.9698 6C20.2118 7.325 18.6458 7 17.1458 8Z" fill="#71A5D2"/>
<path d="M10.5214 4.396C11.8154 5.92 12.5004 7.925 9.4134 9.272C8.0004 12.426 5.8514 11.258 4.4224 9.572C2.9934 7.886 2.4454 3.381 3.7004 1C6.0264 2.965 8.9004 2.49 10.5214 4.396Z" fill="#71A5D2"/>
<path fill-rule="evenodd" clip-rule="evenodd" d="M20.4721 4.97509C20.6253 5.02206 20.7467 5.13957 20.7986 5.29114C21.1745 6.38893 21.2866 7.55982 21.1258 8.709C20.965 9.85817 20.5358 10.9533 19.8729 11.9057C19.8585 11.9265 19.8426 11.946 19.8252 11.9643C19.2306 12.5908 18.3682 13.1582 17.4447 13.1591C16.4808 13.1601 15.6454 12.5531 15.0958 11.2796C14.172 10.6127 13.7673 9.80861 13.8714 8.9792C13.9743 8.15997 14.5576 7.48152 15.2242 7.0371C15.9823 6.5317 16.7605 6.33116 17.4764 6.14671C17.5482 6.12819 17.6195 6.10983 17.69 6.09134C18.4723 5.88627 19.2257 5.65597 20.0246 5.05384C20.1525 4.95741 20.3189 4.92813 20.4721 4.97509ZM17.7419 7.11118C17.0075 7.30171 16.3896 7.46203 15.7789 7.86915C15.2455 8.22474 14.9168 8.68079 14.8637 9.1038C14.8164 9.47985 14.9702 9.9913 15.7813 10.5387C15.8643 10.5947 15.9286 10.6744 15.9658 10.7674C16.4179 11.8978 16.9872 12.1596 17.4437 12.1591C17.9664 12.1586 18.5725 11.8212 19.074 11.303C19.6347 10.4869 19.9982 9.5514 20.1354 8.57041C20.2439 7.79506 20.2088 7.00828 20.0336 6.24902C19.2926 6.6853 18.5888 6.88953 17.9436 7.05866C17.8753 7.07655 17.8081 7.09399 17.7419 7.11118Z" fill="#E1E1E1"/>
<path fill-rule="evenodd" clip-rule="evenodd" d="M5.10489 0.0370361C5.25356 0.00811589 5.40733 0.0481455 5.52303 0.145888C6.57251 1.03249 7.74376 1.38512 8.94333 1.74629C8.9687 1.75393 8.99408 1.76157 9.01948 1.76922C10.2135 2.12897 11.4827 2.51873 12.4022 3.59991L12.4025 3.60022C13.0714 4.38802 13.6745 5.39877 13.6093 6.45889C13.5428 7.54112 12.8031 8.47515 11.2886 9.17916C10.9309 9.92562 10.5122 10.4694 10.0327 10.8186C9.50485 11.203 8.9316 11.3302 8.36352 11.2612C7.27563 11.1289 6.27495 10.2891 5.54093 9.42312C4.72995 8.46629 4.21992 6.79823 4.0572 5.12279C3.89375 3.43974 4.06654 1.60662 4.75804 0.294695C4.82867 0.160709 4.95622 0.0659563 5.10489 0.0370361ZM5.40233 1.31077C5.0301 2.34235 4.92301 3.69261 5.05252 5.02613C5.20731 6.61995 5.68577 8.04739 6.30379 8.77655C6.99877 9.59653 7.78709 10.1837 8.4842 10.2685C8.80862 10.3079 9.12688 10.2412 9.44402 10.0102C9.77286 9.77074 10.1255 9.3354 10.4571 8.59541C10.5079 8.48185 10.5993 8.39133 10.7134 8.34156C12.1676 7.70703 12.5745 6.99459 12.6112 6.39753C12.6518 5.73741 12.2653 4.98365 11.6402 4.24746C10.9387 3.42286 9.96054 3.09715 8.731 2.7267C8.68913 2.71409 8.64702 2.70144 8.60468 2.68871C7.60209 2.38739 6.46837 2.04666 5.40233 1.31077Z" fill="#E1E1E1"/>
<path fill-rule="evenodd" clip-rule="evenodd" d="M6.86598 3.75472C7.05268 3.55126 7.36897 3.53767 7.57243 3.72438C10.3479 6.27126 12.4196 9.48097 13.5997 13.0428C13.764 12.7285 13.9643 12.3725 14.2006 11.9983C14.9701 10.7799 16.1552 9.31533 17.7748 8.50556C18.0218 8.38207 18.3221 8.48218 18.4456 8.72917C18.5691 8.97616 18.469 9.2765 18.222 9.39999C16.8415 10.0902 15.7766 11.3756 15.0461 12.5323C14.6845 13.1049 14.4129 13.633 14.232 14.0172C14.1417 14.2091 14.0744 14.3644 14.0301 14.4706C14.008 14.5236 13.9916 14.5644 13.981 14.5912L13.9694 14.6208L13.9669 14.6274L13.9665 14.6283L13.9665 14.6285C13.89 14.8321 13.6907 14.963 13.4735 14.9522C13.2562 14.9413 13.0709 14.7913 13.0151 14.581C11.9836 10.6927 9.86032 7.18103 6.89632 4.46118C6.69286 4.27447 6.67927 3.95818 6.86598 3.75472Z" fill="#E1E1E1"/>
<path fill-rule="evenodd" clip-rule="evenodd" d="M0 15.0278C0 14.4755 0.447715 14.0278 1 14.0278H4C4.55228 14.0278 5 14.4755 5 15.0278V22.0278C5 22.5801 4.55228 23.0278 4 23.0278H1C0.447715 23.0278 0 22.5801 0 22.0278V15.0278ZM4 15.0278H1V22.0278H4V15.0278Z" fill="#E1E1E1"/>
<path fill-rule="evenodd" clip-rule="evenodd" d="M20.3585 17.0483C20.9989 16.8591 21.6819 16.8709 22.3154 17.082C22.9489 17.2932 23.5024 17.6936 23.9012 18.2292C23.9895 18.3479 24.0208 18.4996 23.9866 18.6435C23.9523 18.7875 23.8561 18.9088 23.7237 18.975C21.4954 20.0892 19.8114 20.9956 18.4701 21.7177C17.975 21.9842 17.5266 22.2255 17.1147 22.443C15.6057 23.2395 14.5504 23.7364 13.5184 23.9054C12.4629 24.0782 11.4801 23.902 10.1275 23.4837C9.43714 23.2702 8.61641 22.9817 7.61562 22.6299C6.69111 22.3049 5.61294 21.9259 4.34198 21.5021C4.08002 21.4148 3.93846 21.1316 4.02581 20.8696C4.11315 20.6077 4.39632 20.4661 4.65829 20.5535C5.97511 20.9925 7.05722 21.3733 7.97417 21.6959C8.94932 22.039 9.73769 22.3164 10.4229 22.5283C11.728 22.9319 12.5318 23.0536 13.3569 22.9185C14.2053 22.7796 15.1243 22.3629 16.6479 21.5586C17.0507 21.346 17.4934 21.1077 17.9844 20.8434C19.2034 20.1872 20.7207 19.3705 22.6672 18.3868C22.4672 18.2324 22.2417 18.1116 21.9992 18.0307C21.5623 17.8851 21.0914 17.8762 20.6494 18.0051L16.2237 19.4743C15.9616 19.5613 15.6786 19.4194 15.5916 19.1573C15.5046 18.8953 15.6465 18.6123 15.9086 18.5253L20.3426 17.0533L20.3585 17.0483Z" fill="#E1E1E1"/>
<path fill-rule="evenodd" clip-rule="evenodd" d="M4 15.5278C4 15.2517 4.22386 15.0278 4.5 15.0278H7.5C7.50588 15.0278 7.51177 15.0279 7.51765 15.0281C9.27718 15.0903 10.9479 15.8047 12.2072 17.0278H14.9599C15.1629 16.9981 15.3699 17.0099 15.5685 17.0626C15.7828 17.1195 15.9821 17.2227 16.1522 17.365C16.3223 17.5073 16.4592 17.6851 16.5531 17.8861C16.6469 18.087 16.6956 18.3061 16.6956 18.5278C16.6956 18.7496 16.6469 18.9687 16.5531 19.1696C16.4592 19.3705 16.3223 19.5484 16.1522 19.6907C15.9821 19.833 15.7828 19.9362 15.5685 19.9931C15.3699 20.0458 15.1629 20.0576 14.9599 20.0278H9.5C9.22386 20.0278 9 19.804 9 19.5278C9 19.2517 9.22386 19.0278 9.5 19.0278H15C15.0296 19.0278 15.0592 19.0305 15.0884 19.0357C15.1627 19.0491 15.239 19.0459 15.312 19.0266C15.3849 19.0072 15.4527 18.9721 15.5107 18.9236C15.5686 18.8752 15.6151 18.8147 15.6471 18.7463C15.679 18.6779 15.6956 18.6033 15.6956 18.5278C15.6956 18.4523 15.679 18.3778 15.6471 18.3094C15.6151 18.241 15.5686 18.1805 15.5107 18.132C15.4527 18.0836 15.3849 18.0485 15.312 18.0291C15.239 18.0097 15.1627 18.0066 15.0884 18.02C15.0592 18.0252 15.0296 18.0278 15 18.0278H12C11.8647 18.0278 11.7351 17.973 11.6409 17.8758C10.5477 16.7475 9.06076 16.0855 7.491 16.0278H4.5C4.22386 16.0278 4 15.804 4 15.5278Z" fill="#E1E1E1"/>
</g>
<defs>
<clipPath id="clip0_4832_23738">
<rect width="24" height="24" fill="white"/>
</clipPath>
</defs>
</svg>
