<svg width="256" height="256" viewBox="0 0 256 256" fill="none" xmlns="http://www.w3.org/2000/svg">
    <g clip-path="url(#clip0_4821_23252)">
        <path d="M220.215 226.19H171.326C168.859 226.19 166.859 228.195 166.859 230.667V251.523C166.859 253.996 168.859 256 171.326 256H220.215C222.682 256 224.681 253.996 224.681 251.523V230.667C224.681 228.195 222.682 226.19 220.215 226.19Z" fill="#71A5D2"/>
        <path d="M79.8712 225.449H30.9821C28.5153 225.449 26.5156 227.454 26.5156 229.926V250.782C26.5156 253.255 28.5153 255.259 30.9821 255.259H79.8712C82.338 255.259 84.3377 253.255 84.3377 250.782V229.926C84.3377 227.454 82.338 225.449 79.8712 225.449Z" fill="#71A5D2"/>
        <path d="M67.3364 71.0293H70.1345C72.3271 71.0293 74.4982 71.4622 76.5239 72.3032C78.5495 73.1442 80.3901 74.377 81.9405 75.931C83.4909 77.485 84.7207 79.3299 85.5597 81.3604C86.3988 83.3908 86.8307 85.567 86.8307 87.7647V93.9583H50.6445V87.7647C50.6445 83.3269 52.403 79.0709 55.5332 75.9325C58.6634 72.7941 62.9091 71.0304 67.3364 71.0293Z" fill="#CE7783"/>
        <path d="M137.262 72.4785H140.06C144.488 72.4785 148.735 74.2417 151.866 77.3802C154.997 80.5187 156.756 84.7755 156.756 89.214V95.4075H120.57V89.214C120.57 84.7762 122.329 80.5201 125.459 77.3817C128.589 74.2433 132.835 72.4796 137.262 72.4785Z" fill="#CE7783"/>
        <path d="M193.305 69.9082H196.103C200.531 69.9082 204.778 71.6714 207.909 74.8099C211.04 77.9484 212.799 82.2051 212.799 86.6436V92.8372H176.613V86.6436C176.613 82.2059 178.372 77.9498 181.502 74.8114C184.632 71.673 188.878 69.9093 193.305 69.9082Z" fill="#CE7783"/>
        <path d="M162.243 33.7012H165.041C169.469 33.7012 173.716 35.4644 176.847 38.6029C179.978 41.7414 181.737 45.9981 181.737 50.4366V56.6302H145.551V50.4366C145.551 45.9988 147.309 41.7427 150.439 38.6044C153.57 35.466 157.815 33.7023 162.243 33.7012Z" fill="#CE7783"/>
        <path d="M100.965 33.6465H103.763C105.956 33.6465 108.127 34.0794 110.153 34.9204C112.178 35.7614 114.019 36.9942 115.569 38.5482C117.12 40.1022 118.35 41.9471 119.189 43.9776C120.028 46.008 120.46 48.1842 120.46 50.3819V56.5755H84.2734V50.3819C84.2734 45.9442 86.0319 41.6881 89.1621 38.5497C92.2924 35.4113 96.538 33.6476 100.965 33.6465Z" fill="#CE7783"/>
        <path d="M107.282 27.6205C114.619 27.6205 120.568 21.6582 120.568 14.3034C120.568 6.94859 114.619 0.986328 107.282 0.986328C99.9443 0.986328 93.9961 6.94859 93.9961 14.3034C93.9961 21.6582 99.9443 27.6205 107.282 27.6205Z" fill="#EAB669"/>
        <path d="M156.502 32.3112C163.866 32.3112 169.836 26.3273 169.836 18.9457C169.836 11.5641 163.866 5.58008 156.502 5.58008C149.138 5.58008 143.168 11.5641 143.168 18.9457C143.168 26.3273 149.138 32.3112 156.502 32.3112Z" fill="#EAB669"/>
        <path d="M102.366 31.7691C98.1642 31.764 94.1363 30.0887 91.1656 27.1106C88.1949 24.1325 86.524 20.0949 86.5195 15.8835C86.5245 11.6725 88.1957 7.63536 91.1663 4.65772C94.137 1.68007 98.1646 0.00502276 102.366 0C106.567 0.00446473 110.595 1.67927 113.566 4.65697C116.538 7.63467 118.209 11.6721 118.214 15.8835C118.21 20.0952 116.538 24.1332 113.567 27.1114C110.596 30.0895 106.568 31.7646 102.366 31.7691ZM102.366 0.63264C98.3318 0.637106 94.4644 2.2453 91.612 5.10442C88.7596 7.96354 87.1551 11.8401 87.1507 15.8835C87.1551 19.9271 88.7595 23.8038 91.6119 26.6633C94.4642 29.5227 98.3316 31.1314 102.366 31.1364C106.4 31.1314 110.268 29.5228 113.12 26.6634C115.973 23.804 117.578 19.9273 117.583 15.8835C117.578 11.8399 115.973 7.96335 113.12 5.10429C110.267 2.24523 106.4 0.637105 102.366 0.63264Z" fill="#E3E3E3"/>
        <path d="M115.159 64.1141H91.2531C91.1694 64.1141 91.0891 64.0808 91.03 64.0214C90.9708 63.9621 90.9375 63.8817 90.9375 63.7978C90.9381 63.714 90.9715 63.6339 91.0306 63.5747C91.0896 63.5155 91.1696 63.482 91.2531 63.4814H115.159C115.243 63.4814 115.323 63.5148 115.382 63.5741C115.441 63.6334 115.475 63.7139 115.475 63.7978C115.475 63.8817 115.441 63.9621 115.382 64.0214C115.323 64.0808 115.243 64.1141 115.159 64.1141Z" fill="#E3E3E3"/>
        <path d="M115.157 40.3072C115.096 40.3071 115.037 40.2895 114.986 40.2566C111.223 37.8268 106.84 36.5373 102.363 36.543C98.2227 36.5411 94.1561 37.6446 90.5819 39.74C90.546 39.7612 90.5063 39.7751 90.4651 39.7808C90.4238 39.7866 90.3818 39.7841 90.3415 39.7735C90.3013 39.7629 90.2634 39.7444 90.2303 39.7191C90.1972 39.6938 90.1694 39.6622 90.1485 39.6261C90.1091 39.5547 90.099 39.4709 90.1202 39.3922C90.1414 39.3135 90.1923 39.2461 90.2621 39.2043C93.934 37.0516 98.1117 35.9183 102.365 35.9209C106.963 35.9145 111.464 37.2384 115.329 39.7336C115.364 39.7561 115.395 39.7853 115.418 39.8196C115.442 39.8538 115.459 39.8924 115.468 39.9332C115.477 39.974 115.477 40.0161 115.47 40.0571C115.462 40.0981 115.447 40.1373 115.424 40.1723C115.394 40.2152 115.354 40.2499 115.307 40.2735C115.261 40.2971 115.209 40.3086 115.157 40.3072Z" fill="#E3E3E3"/>
        <path d="M161.083 31.7691C156.881 31.764 152.853 30.0888 149.882 27.1108C146.911 24.1327 145.239 20.0951 145.234 15.8835C145.24 11.6723 146.912 7.63515 149.883 4.65756C152.853 1.67998 156.881 0.00502162 161.083 0C165.284 0.00502162 169.312 1.67998 172.283 4.65756C175.254 7.63515 176.925 11.6723 176.931 15.8835C176.926 20.0951 175.255 24.1327 172.284 27.1108C169.312 30.0888 165.284 31.764 161.083 31.7691ZM161.083 0.63264C157.049 0.637105 153.181 2.24523 150.328 5.10429C147.475 7.96335 145.871 11.8399 145.866 15.8835C145.871 19.9273 147.475 23.804 150.328 26.6634C153.181 29.5228 157.048 31.1314 161.083 31.1364C165.117 31.1314 168.985 29.5228 171.837 26.6634C174.69 23.804 176.295 19.9273 176.3 15.8835C176.295 11.8399 174.69 7.96335 171.837 5.10429C168.984 2.24523 165.117 0.637105 161.083 0.63264Z" fill="#E3E3E3"/>
        <path d="M175.639 64.1141H146.753C146.669 64.1141 146.589 64.0808 146.53 64.0214C146.471 63.9621 146.438 63.8817 146.438 63.7978C146.438 63.7139 146.471 63.6334 146.53 63.5741C146.589 63.5148 146.669 63.4814 146.753 63.4814H175.639C175.723 63.4814 175.803 63.5148 175.862 63.5741C175.921 63.6334 175.955 63.7139 175.955 63.7978C175.955 63.8817 175.921 63.9621 175.862 64.0214C175.803 64.0808 175.723 64.1141 175.639 64.1141Z" fill="#E3E3E3"/>
        <path d="M147.855 40.5917C147.803 40.5918 147.753 40.5792 147.707 40.5549C147.662 40.5306 147.623 40.4955 147.594 40.4526C147.571 40.4181 147.554 40.3794 147.546 40.3385C147.537 40.2977 147.537 40.2556 147.545 40.2146C147.553 40.1737 147.568 40.1347 147.591 40.0999C147.614 40.0651 147.644 40.0351 147.678 40.0118C151.635 37.3311 156.304 35.9023 161.08 35.9102C164.286 35.9072 167.459 36.5528 170.41 37.8081C170.449 37.8242 170.485 37.848 170.515 37.8781C170.544 37.9082 170.568 37.9441 170.583 37.9835C170.599 38.0229 170.606 38.065 170.605 38.1074C170.604 38.1497 170.594 38.1914 170.576 38.2299C170.56 38.2691 170.537 38.3046 170.507 38.3344C170.477 38.3642 170.441 38.3875 170.401 38.4031C170.362 38.4187 170.32 38.4261 170.278 38.4249C170.236 38.4238 170.194 38.4141 170.156 38.3965C167.282 37.1783 164.192 36.5536 161.071 36.5597C156.423 36.5524 151.879 37.9438 148.027 40.5538C147.975 40.5822 147.915 40.5953 147.855 40.5917Z" fill="#E3E3E3"/>
        <path d="M192.485 61.1474C200.047 61.1474 206.177 55.0029 206.177 47.4233C206.177 39.8437 200.047 33.6992 192.485 33.6992C184.923 33.6992 178.793 39.8437 178.793 47.4233C178.793 55.0029 184.923 61.1474 192.485 61.1474Z" fill="#EAB669"/>
        <path d="M189.944 66.564C185.743 66.559 181.715 64.8839 178.744 61.9063C175.774 58.9286 174.103 54.8915 174.098 50.6805C174.102 46.4691 175.773 42.4315 178.744 39.4534C181.714 36.4753 185.742 34.7999 189.944 34.7949C194.146 34.7994 198.174 36.4745 201.145 39.4526C204.117 42.4308 205.788 46.4688 205.792 50.6805C205.787 54.8919 204.116 58.9293 201.145 61.907C198.174 64.8847 194.145 66.5595 189.944 66.564ZM189.944 35.4276C185.91 35.4326 182.042 37.0413 179.19 39.9007C176.338 42.7602 174.733 46.6369 174.729 50.6805C174.733 54.7239 176.338 58.6004 179.19 61.4596C182.043 64.3187 185.91 65.9269 189.944 65.9313C193.978 65.9269 197.846 64.3188 200.698 61.4597C203.551 58.6006 205.156 54.7241 205.161 50.6805C205.156 46.6367 203.551 42.76 200.698 39.9006C197.846 37.0412 193.978 35.4326 189.944 35.4276Z" fill="#E3E3E3"/>
        <path d="M213.915 98.9113H165.977V94.7274C165.985 88.3584 168.513 82.2527 173.006 77.7495C177.5 73.2463 183.592 70.7133 189.946 70.7061C196.3 70.7133 202.391 73.2463 206.885 77.7495C211.378 82.2527 213.906 88.3584 213.915 94.7274V98.9113ZM166.608 98.2786H213.284V94.7274C213.276 88.526 210.814 82.5809 206.439 78.1962C202.064 73.8116 196.132 71.3454 189.946 71.3387C183.759 71.3459 177.828 73.8123 173.453 78.1969C169.078 82.5814 166.616 88.5262 166.608 94.7274V98.2786Z" fill="#E3E3E3"/>
        <path d="M127.999 66.9122C135.416 66.9122 141.428 60.8857 141.428 53.4517C141.428 46.0177 135.416 39.9912 127.999 39.9912C120.583 39.9912 114.57 46.0177 114.57 53.4517C114.57 60.8857 120.583 66.9122 127.999 66.9122Z" fill="#EAB669"/>
        <path d="M132.122 66.565C127.92 66.5605 123.892 64.8857 120.921 61.908C117.95 58.9303 116.278 54.8929 116.273 50.6815C116.278 46.4697 117.949 42.4318 120.92 39.4536C123.891 36.4755 127.92 34.8004 132.122 34.7959C136.323 34.8009 140.351 36.4762 143.322 39.4543C146.292 42.4324 147.963 46.4701 147.968 50.6815C147.963 54.8925 146.292 58.9296 143.321 61.9072C140.35 64.8849 136.323 66.5599 132.122 66.565ZM132.122 35.4285C128.087 35.4336 124.22 37.0422 121.367 39.9016C118.514 42.761 116.91 46.6377 116.905 50.6815C116.91 54.7251 118.515 58.6016 121.367 61.4607C124.22 64.3197 128.088 65.9279 132.122 65.9323C136.156 65.9279 140.023 64.3197 142.875 61.4605C145.728 58.6014 147.332 54.7249 147.337 50.6815C147.332 46.6379 145.728 42.7611 142.875 39.9017C140.023 37.0422 136.156 35.4336 132.122 35.4285Z" fill="#E3E3E3"/>
        <path d="M156.088 98.9116H108.152V94.7277C108.16 88.358 110.687 82.2512 115.181 77.7471C119.674 73.243 125.767 70.7094 132.121 70.7021C138.476 70.7094 144.568 73.2431 149.061 77.7472C153.555 82.2514 156.082 88.3582 156.088 94.7277V98.9116ZM108.783 98.279H155.457V94.7277C155.453 88.5251 152.994 82.5776 148.618 78.1915C144.243 73.8054 138.309 71.3393 132.121 71.3348C125.934 71.3415 120.002 73.8083 115.626 78.1938C111.251 82.5794 108.79 88.5256 108.783 94.7277V98.279Z" fill="#E3E3E3"/>
        <path d="M69.4164 65.0606C77.3396 65.0606 83.7626 58.6225 83.7626 50.6807C83.7626 42.7389 77.3396 36.3008 69.4164 36.3008C61.4933 36.3008 55.0703 42.7389 55.0703 50.6807C55.0703 58.6225 61.4933 65.0606 69.4164 65.0606Z" fill="#EAB669"/>
        <path d="M74.2954 66.565C70.0943 66.5599 66.0667 64.8849 63.096 61.9072C60.1254 58.9296 58.4542 54.8925 58.4492 50.6815C58.4537 46.4701 60.1245 42.4324 63.0952 39.4543C66.0659 36.4762 70.0939 34.8009 74.2954 34.7959C78.4972 34.8004 82.5257 36.4755 85.4969 39.4536C88.468 42.4318 90.1392 46.4697 90.1437 50.6815C90.1386 54.8929 88.4672 58.9303 85.4961 61.908C82.525 64.8857 78.4969 66.5605 74.2954 66.565ZM74.2954 35.4285C70.2613 35.4336 66.3939 37.0422 63.5415 39.9017C60.6892 42.7611 59.0848 46.6379 59.0804 50.6815C59.0848 54.7249 60.6893 58.6014 63.5417 61.4605C66.3941 64.3197 70.2615 65.9279 74.2954 65.9323C78.3295 65.9279 82.1971 64.3197 85.0498 61.4607C87.9026 58.6016 89.5075 54.7251 89.5125 50.6815C89.5075 46.6377 87.9026 42.761 85.05 39.9016C82.1973 37.0422 78.3297 35.4336 74.2954 35.4285Z" fill="#E3E3E3"/>
        <path d="M98.2642 98.9116H50.3281V94.7277C50.3348 88.3582 52.8619 82.2514 57.3551 77.7472C61.8483 73.2431 67.9405 70.7094 74.2951 70.7021C80.6499 70.7094 86.7423 73.243 91.2358 77.7471C95.7293 82.2512 98.257 88.358 98.2642 94.7277V98.9116ZM50.9593 98.279H97.633V94.7277C97.6264 88.5256 95.1654 82.5794 90.7901 78.1938C86.4149 73.8083 80.4827 71.3415 74.2951 71.3348C68.1071 71.3393 62.1738 73.8054 57.7984 78.1915C53.423 82.5776 50.9632 88.5251 50.9593 94.7277V98.279Z" fill="#E3E3E3"/>
        <path d="M216.874 253.2H189.944C189.861 253.2 189.781 253.166 189.721 253.107C189.662 253.048 189.629 252.967 189.629 252.883C189.629 252.8 189.662 252.719 189.721 252.66C189.781 252.6 189.861 252.567 189.944 252.567H216.874C218.262 252.566 219.593 252.013 220.575 251.029C221.557 250.044 222.109 248.71 222.11 247.318V241.934C222.11 241.851 222.143 241.77 222.203 241.711C222.262 241.651 222.342 241.618 222.426 241.618C222.509 241.618 222.59 241.651 222.649 241.711C222.708 241.77 222.741 241.851 222.741 241.934V247.318C222.74 248.878 222.121 250.373 221.021 251.475C219.921 252.578 218.429 253.198 216.874 253.2Z" fill="#E3E3E3"/>
        <path d="M165.008 253.199H161.356C159.8 253.198 158.309 252.578 157.209 251.475C156.109 250.372 155.49 248.877 155.488 247.318V225.051C155.491 223.492 156.109 221.998 157.209 220.896C158.309 219.793 159.801 219.174 161.356 219.172H216.876C218.431 219.175 219.92 219.796 221.019 220.898C222.117 222 222.736 223.493 222.738 225.051V228.36C222.738 228.444 222.704 228.524 222.645 228.584C222.586 228.643 222.506 228.676 222.422 228.676C222.338 228.676 222.258 228.643 222.199 228.584C222.14 228.524 222.107 228.444 222.107 228.36V225.051C222.103 223.662 221.55 222.332 220.57 221.35C219.59 220.368 218.262 219.816 216.876 219.813H161.356C159.969 219.815 158.64 220.367 157.659 221.348C156.677 222.33 156.124 223.661 156.119 225.051V247.31C156.121 248.701 156.673 250.035 157.655 251.019C158.637 252.003 159.968 252.557 161.356 252.558H165.008C165.092 252.558 165.172 252.592 165.231 252.651C165.291 252.71 165.324 252.791 165.324 252.875C165.325 252.917 165.318 252.959 165.302 252.998C165.287 253.038 165.264 253.074 165.234 253.104C165.205 253.134 165.17 253.158 165.131 253.175C165.092 253.191 165.05 253.199 165.008 253.199Z" fill="#E3E3E3"/>
        <path d="M166.859 206.804C166.775 206.804 166.695 206.77 166.635 206.711C166.576 206.652 166.543 206.571 166.543 206.487V177.137C166.542 171.607 167.405 166.11 169.099 160.847C173.043 148.592 177.882 136.645 183.576 125.102C183.58 125.092 183.586 125.081 183.593 125.071C187.92 118.323 193.622 117.724 197.192 119.248C199.586 120.273 201.492 122.342 202.557 125.079C203.73 128.093 203.853 131.785 202.908 135.756L196.413 164.136C196.356 164.381 196.38 164.637 196.483 164.866C196.586 165.095 196.761 165.283 196.981 165.402C197.2 165.527 197.454 165.577 197.704 165.541C197.953 165.506 198.184 165.389 198.359 165.208L224.47 139.035C226.471 137.036 227.609 134.33 227.643 131.498C227.771 122.692 228.289 114.645 229.181 107.58C229.186 107.539 229.199 107.499 229.22 107.463C229.24 107.427 229.268 107.395 229.301 107.37C229.333 107.344 229.371 107.326 229.411 107.315C229.451 107.304 229.493 107.301 229.534 107.306C229.617 107.317 229.692 107.36 229.743 107.426C229.795 107.492 229.818 107.575 229.808 107.658C228.918 114.7 228.402 122.724 228.274 131.507C228.236 134.504 227.028 137.368 224.908 139.482L198.797 165.655C198.526 165.935 198.17 166.117 197.784 166.172C197.398 166.226 197.006 166.151 196.668 165.956C196.324 165.772 196.051 165.479 195.893 165.122C195.734 164.765 195.698 164.366 195.791 163.987L202.285 135.602C203.735 129.506 202.643 122.262 196.935 119.822C192.536 117.943 187.51 120.128 184.125 125.391C178.448 136.9 173.624 148.812 169.692 161.03C168.018 166.231 167.167 171.662 167.168 177.127V206.494C167.166 206.575 167.133 206.653 167.075 206.711C167.018 206.769 166.94 206.802 166.859 206.804Z" fill="#E3E3E3"/>
        <path d="M255.683 101.425C255.6 101.424 255.52 101.39 255.461 101.331C255.402 101.272 255.368 101.192 255.368 101.108V72.4285C255.368 71.8697 255.25 71.3172 255.02 70.8081C254.791 70.2989 254.455 69.8448 254.036 69.4762C253.623 69.1129 253.137 68.8423 252.611 68.6826C252.084 68.5229 251.53 68.4779 250.985 68.5504C247.773 68.9722 244.777 70.6044 242.08 73.3733C238.341 77.2134 235.301 83.1728 233.048 91.0872C233.023 91.1666 232.969 91.2332 232.895 91.2726C232.822 91.312 232.737 91.3211 232.657 91.298C232.577 91.2741 232.511 91.2196 232.471 91.1465C232.432 91.0734 232.423 90.9876 232.446 90.9079C234.731 82.8945 237.822 76.8401 241.636 72.9241C244.432 70.0519 247.552 68.367 250.908 67.9178C251.541 67.8338 252.186 67.8863 252.798 68.0717C253.41 68.2572 253.975 68.5713 254.457 68.9933C254.943 69.4203 255.333 69.9465 255.6 70.5368C255.867 71.1271 256.005 71.7677 256.005 72.4158V101.096C256.007 101.139 256 101.182 255.984 101.222C255.969 101.262 255.945 101.299 255.915 101.33C255.885 101.361 255.849 101.385 255.809 101.401C255.769 101.417 255.726 101.425 255.683 101.425Z" fill="#E3E3E3"/>
        <path d="M243.444 170.817C243.403 170.817 243.361 170.809 243.323 170.793C243.285 170.776 243.25 170.752 243.221 170.722C243.162 170.663 243.129 170.583 243.129 170.499C243.129 170.415 243.162 170.335 243.221 170.275C246.64 166.876 249.754 163.774 252.2 161.334C254.228 159.299 255.371 156.543 255.377 153.666V130.681C255.377 130.597 255.411 130.516 255.47 130.457C255.529 130.398 255.609 130.364 255.693 130.364C255.777 130.364 255.857 130.398 255.916 130.457C255.975 130.516 256.008 130.597 256.008 130.681V153.666C256.002 156.713 254.791 159.633 252.642 161.787C250.195 164.229 247.08 167.332 243.663 170.731C243.604 170.786 243.525 170.817 243.444 170.817Z" fill="#E3E3E3"/>
        <path d="M211.273 214.031C211.189 214.031 211.109 213.997 211.049 213.938C210.99 213.879 210.957 213.798 210.957 213.714V209.497C210.969 204.912 212.797 200.521 216.038 197.287L229.012 184.404C229.041 184.374 229.076 184.351 229.114 184.335C229.153 184.319 229.194 184.311 229.235 184.311C229.277 184.311 229.318 184.319 229.356 184.335C229.394 184.351 229.429 184.374 229.458 184.404C229.517 184.463 229.551 184.544 229.551 184.627C229.551 184.711 229.517 184.792 229.458 184.851L216.484 197.734C213.362 200.849 211.602 205.079 211.59 209.495V213.712C211.591 213.754 211.583 213.796 211.567 213.834C211.551 213.873 211.527 213.908 211.498 213.938C211.468 213.968 211.433 213.991 211.394 214.007C211.356 214.023 211.314 214.031 211.273 214.031Z" fill="#E3E3E3"/>
        <path d="M94.7347 253.2H84.3312C84.2475 253.2 84.1673 253.166 84.1081 253.107C84.0489 253.048 84.0156 252.967 84.0156 252.883C84.0156 252.8 84.0489 252.719 84.1081 252.66C84.1673 252.6 84.2475 252.567 84.3312 252.567H94.7305C96.1188 252.565 97.4498 252.012 98.4314 251.028C99.4131 250.044 99.9653 248.71 99.967 247.318V240.359C99.967 240.275 100 240.195 100.059 240.136C100.119 240.076 100.199 240.043 100.283 240.043C100.366 240.043 100.447 240.076 100.506 240.136C100.565 240.195 100.598 240.275 100.598 240.359V247.318C100.596 248.877 99.9783 250.371 98.8792 251.474C97.7801 252.576 96.2897 253.197 94.7347 253.2Z" fill="#E3E3E3"/>
        <path d="M53.4767 253.199H39.2231C37.6674 253.198 36.176 252.578 35.0759 251.475C33.9759 250.372 33.3571 248.877 33.3555 247.318V225.051C33.3577 223.492 33.9767 221.998 35.0767 220.896C36.1766 219.793 37.6678 219.174 39.2231 219.172H94.7373C96.2926 219.174 97.7837 219.793 98.8837 220.896C99.9837 221.998 100.603 223.492 100.605 225.051V227.816C100.605 227.9 100.572 227.98 100.512 228.04C100.453 228.099 100.373 228.132 100.289 228.132C100.206 228.132 100.125 228.099 100.066 228.04C100.007 227.98 99.9738 227.9 99.9738 227.816V225.051C99.9715 223.66 99.419 222.326 98.4374 221.343C97.4558 220.359 96.1252 219.806 94.7373 219.805H39.2231C37.835 219.806 36.5041 220.359 35.5223 221.342C34.5406 222.326 33.9883 223.66 33.9866 225.051V247.31C33.9877 248.701 34.5398 250.036 35.5216 251.02C36.5034 252.004 37.8347 252.557 39.2231 252.558H53.4767C53.5604 252.558 53.6406 252.592 53.6998 252.651C53.759 252.71 53.7922 252.791 53.7922 252.875C53.7934 252.917 53.786 252.959 53.7707 252.998C53.7553 253.038 53.7322 253.074 53.7028 253.104C53.6734 253.134 53.6382 253.158 53.5994 253.175C53.5605 253.191 53.5188 253.199 53.4767 253.199Z" fill="#E3E3E3"/>
        <path d="M89.1392 208.877C89.0555 208.877 88.9752 208.844 88.916 208.784C88.8568 208.725 88.8236 208.645 88.8236 208.561V177.14C88.8239 171.675 87.9721 166.244 86.299 161.043C82.3665 148.825 77.5427 136.913 71.8666 125.404C68.4794 120.132 63.4512 117.954 59.0479 119.837C53.3402 122.279 52.2524 129.521 53.7062 135.613L60.2008 164C60.2935 164.379 60.2576 164.778 60.0987 165.135C59.9399 165.492 59.6671 165.785 59.3235 165.969C58.9853 166.163 58.5922 166.239 58.2064 166.184C57.8205 166.13 57.4637 165.948 57.1923 165.668L47.2243 155.672C47.1657 155.612 47.1328 155.532 47.1328 155.448C47.1328 155.365 47.1657 155.284 47.2243 155.225C47.2536 155.195 47.2885 155.172 47.327 155.156C47.3654 155.14 47.4067 155.131 47.4483 155.131C47.49 155.131 47.5313 155.14 47.5697 155.156C47.6082 155.172 47.643 155.195 47.6724 155.225L57.6383 165.216C57.8144 165.397 58.0455 165.515 58.2953 165.55C58.5451 165.585 58.7994 165.536 59.0184 165.41C59.2388 165.292 59.4138 165.103 59.5162 164.874C59.6185 164.645 59.6425 164.389 59.5844 164.145L53.0919 135.761C52.1452 131.794 52.263 128.104 53.4369 125.09C54.4888 122.349 56.4054 120.284 58.7996 119.259C62.3761 117.732 68.0776 118.34 72.4052 125.08L72.4241 125.111C78.1182 136.653 82.9562 148.6 86.8986 160.855C88.5925 166.119 89.455 171.615 89.4548 177.146V208.567C89.4531 208.65 89.4191 208.729 89.3601 208.787C89.3011 208.845 89.2218 208.877 89.1392 208.877Z" fill="#E3E3E3"/>
        <path d="M33.6699 141.953C33.6284 141.953 33.5872 141.945 33.5489 141.929C33.5105 141.913 33.4758 141.89 33.4469 141.86L31.0822 139.492C28.9654 137.377 27.7607 134.514 27.7266 131.518C27.3879 108.38 24.4214 91.2274 18.9052 80.5358C14.2767 71.5882 8.83196 69.0871 5.06818 68.5663C4.51497 68.489 3.95163 68.5317 3.41628 68.6914C2.88093 68.8511 2.38604 69.1241 1.96501 69.492C1.54614 69.8577 1.21036 70.3091 0.98027 70.8158C0.75018 71.3225 0.631109 71.8728 0.631153 72.4296V84.8082C0.631153 84.8921 0.597933 84.9726 0.538751 85.0319C0.479569 85.0912 0.399273 85.1246 0.315577 85.1246C0.231881 85.1246 0.151636 85.0912 0.0924541 85.0319C0.033272 84.9726 0 84.8921 0 84.8082V72.4296C0.000169099 71.7825 0.138671 71.143 0.40613 70.5541C0.673589 69.9651 1.06382 69.4405 1.55056 69.0154C2.03947 68.5881 2.6142 68.2709 3.23595 68.0853C3.85769 67.8998 4.51191 67.8502 5.15442 67.9399C9.06547 68.4819 14.7227 71.0567 19.4606 80.2448C25.0231 91.025 28.0148 108.271 28.3535 131.508C28.3866 134.339 29.5256 137.045 31.5261 139.045L33.8909 141.413C33.9494 141.472 33.9823 141.553 33.9823 141.636C33.9823 141.72 33.9494 141.8 33.8909 141.86C33.862 141.889 33.8276 141.913 33.7897 141.928C33.7518 141.944 33.7111 141.953 33.6699 141.953Z" fill="#E3E3E3"/>
        <path d="M27.5478 184.94C27.5058 184.94 27.4642 184.932 27.4255 184.916C27.3868 184.899 27.3519 184.875 27.3227 184.845C16.9402 174.225 9.0192 166.435 3.80166 161.693C2.61228 160.623 1.65954 159.316 1.00477 157.855C0.350002 156.394 0.00770562 154.812 0 153.211V124.173C0 124.089 0.033272 124.008 0.0924541 123.949C0.151636 123.89 0.231881 123.856 0.315577 123.856C0.399273 123.856 0.479568 123.89 0.538751 123.949C0.597933 124.008 0.631153 124.089 0.631153 124.173V153.211C0.637999 154.724 0.961358 156.219 1.5803 157.6C2.19924 158.98 3.10002 160.215 4.22454 161.224C9.461 165.976 17.382 173.776 27.7729 184.404C27.8319 184.464 27.8652 184.544 27.8652 184.628C27.8652 184.712 27.8319 184.792 27.7729 184.851C27.7431 184.88 27.7079 184.903 27.6693 184.918C27.6306 184.934 27.5893 184.941 27.5478 184.94Z" fill="#E3E3E3"/>
        <path d="M44.7259 214.031C44.6422 214.031 44.562 213.998 44.5028 213.938C44.4436 213.879 44.4103 213.798 44.4103 213.715V209.223C44.419 204.949 42.7698 200.839 39.8113 197.761C38.6668 196.568 37.3519 195.197 35.9087 193.698C35.8496 193.638 35.8164 193.558 35.8164 193.474C35.8164 193.39 35.8496 193.31 35.9087 193.251C35.9679 193.191 36.048 193.158 36.1317 193.158C36.2153 193.158 36.2955 193.191 36.3547 193.251C37.7979 194.75 39.115 196.121 40.2573 197.314C43.329 200.51 45.0414 204.777 45.0331 209.214V213.706C45.0342 213.748 45.0271 213.789 45.0123 213.828C44.9975 213.867 44.9751 213.902 44.9466 213.932C44.9181 213.962 44.8839 213.987 44.8461 214.004C44.8082 214.021 44.7674 214.03 44.7259 214.031Z" fill="#E3E3E3"/>
    </g>
    <defs>
        <clipPath id="clip0_4821_23252">
            <rect width="256" height="256" fill="white"/>
        </clipPath>
    </defs>
</svg>
