<svg width="600" height="786" viewBox="0 0 600 786" fill="none" xmlns="http://www.w3.org/2000/svg">
    <g clip-path="url(#clip0_10341_8280)">
        <path d="M455.83 763.322V774.195C455.83 780.716 450.544 786 444.019 786H169.285C159.227 780.91 157.266 767.831 156.99 760.431C156.938 758.925 158.295 757.748 159.771 758.031C162.522 758.553 165.326 758.896 168.04 758.94C168.793 758.955 169.501 759.305 169.949 759.909C173.021 764.045 186.942 779.174 215.82 761.601C216.976 760.893 218.333 760.58 219.682 760.684C238.584 762.137 378.948 772.355 453.556 761.362C454.756 761.183 455.83 762.108 455.83 763.315V763.322Z" fill="#EAB669"/>
        <path d="M252.391 439.529C250.229 441.37 248.678 442.749 247.992 443.457L204.253 551.502C202.933 554.759 199.287 556.421 195.969 555.258C155.817 541.18 129.392 545.249 114.48 550.943C110.983 552.277 107.187 550.421 106.046 546.859L106.024 546.792C103.109 537.633 99.649 524.874 95.6599 507.13C86.8987 455.634 171.878 439.522 250.788 435.505C252.98 435.393 254.054 438.121 252.391 439.537V439.529Z" fill="#EAB669"/>
        <path d="M502.632 549.549C502.669 559.953 494.385 568.538 483.968 568.665C463.881 568.911 438.127 573.613 425.377 576.199C420.799 577.138 417.511 581.155 417.511 585.835V670.413C417.511 678.536 410.942 685.109 402.807 685.169C362.379 685.452 299.739 694.067 260.795 700.074C255.829 700.841 251.683 696.325 252.868 691.444C265.641 638.636 272.65 545.212 273.903 527.453C274.037 525.545 274.879 523.764 276.274 522.452L302.58 497.755C304.22 496.205 306.487 495.594 308.716 495.907C315.24 496.838 318.946 492.717 320.176 491.026C320.527 490.534 320.937 490.101 321.392 489.714C324.508 487.083 335.782 475.875 329.243 455.932C321.712 432.934 298.822 435.542 298.822 435.542C300.037 434.782 301.431 434.372 302.855 434.372H302.9C345.49 434.544 377.605 437.159 377.605 437.159C488.315 440.707 502.52 513.159 502.609 549.549H502.632Z" fill="#EAB669"/>
        <ellipse cx="291" cy="450" rx="69" ry="35" fill="#161617"/>
        <path d="M309.778 215.785C336.87 215.785 358.832 193.834 358.832 166.756C358.832 139.677 336.87 117.726 309.778 117.726C282.685 117.726 260.723 139.677 260.723 166.756C260.723 193.834 282.685 215.785 309.778 215.785Z" fill="#252525"/>
        <path d="M406.899 295.034C406.899 295.034 409.867 212.737 321.19 207.043C232.512 201.35 186.022 242.554 200.629 314.91C202.597 323.167 215.057 300.407 236.337 279.19C257.617 257.973 291.886 287.023 366.211 254.739C378.402 249.843 408.085 337.103 406.892 295.042L406.899 295.034Z" fill="#252525"/>
        <path d="M197.379 269.256L195.918 268.966C200.011 248.598 208.564 232.449 221.336 220.987C237.807 206.201 261.228 199.382 290.926 200.716C327.618 202.371 356.75 208.452 377.508 218.796L376.845 220.13C356.28 209.883 327.35 203.846 290.866 202.207C261.563 200.888 238.508 207.58 222.336 222.097C209.802 233.343 201.406 249.217 197.379 269.264V269.256Z" fill="#E3E3E3"/>
        <path d="M264.575 423.112C264.575 423.112 264.516 423.112 264.478 423.112C235.943 419.497 214.35 407.998 200.287 388.935C196.663 388.771 168.851 386.461 166.838 354.11C165.392 331.089 168.337 317.593 175.577 313.993C180.349 311.616 186.814 313.71 194.814 320.194C194.315 316.818 193.383 309.388 193.248 299.908C193.248 299.498 193.569 299.155 193.987 299.155C194.374 299.178 194.74 299.476 194.74 299.893C194.926 312.786 196.589 321.826 196.604 321.915L196.991 324.002L195.381 322.616C187.164 315.551 180.729 313.099 176.241 315.335C169.679 318.599 166.943 331.976 168.322 354.02C169.187 367.882 174.869 377.711 185.218 383.256C192.972 387.407 200.593 387.467 200.667 387.467H201.048L201.271 387.772C215.08 406.672 236.405 418.066 264.665 421.643C265.075 421.696 265.366 422.068 265.313 422.478C265.269 422.851 264.948 423.126 264.575 423.126V423.112Z" fill="#E3E3E3"/>
        <path d="M329.251 419.81C328.901 419.81 328.588 419.564 328.521 419.206C328.446 418.804 328.707 418.409 329.11 418.335C359.486 412.514 383.391 402.983 388.216 400.352C399.355 394.278 396.417 376.765 396.388 376.593L396.194 375.498L397.282 375.736C404.299 377.294 410.07 376.459 414.931 373.165C423.126 367.613 428.919 354.676 432.148 334.718C434.459 320.484 432.767 311.154 427.249 307.733C426.899 307.517 426.794 307.055 427.011 306.705C427.227 306.354 427.689 306.243 428.04 306.466C434.198 310.274 436.077 319.858 433.632 334.957C430.284 355.622 424.446 368.522 415.781 374.395C410.815 377.756 404.992 378.747 398.021 377.406C398.222 379.083 398.498 382.526 398.006 386.423C397.103 393.652 393.964 398.921 388.939 401.663C384.07 404.324 359.956 413.945 329.4 419.803C329.356 419.81 329.303 419.818 329.259 419.818L329.251 419.81Z" fill="#E3E3E3"/>
        <path d="M414.418 300.765H412.926V270.292C412.926 260.835 410.548 252.421 405.664 244.574L406.932 243.784C411.972 251.87 414.418 260.544 414.418 270.285V300.758V300.765Z" fill="#E3E3E3"/>
        <path d="M196.648 269.852C196.596 269.852 196.551 269.852 196.499 269.837C196.096 269.756 195.835 269.361 195.917 268.958C200.011 248.591 208.563 232.441 221.336 220.979C237.807 206.194 261.227 199.375 290.925 200.709C327.618 202.363 356.749 208.444 377.508 218.788C377.873 218.975 378.03 219.422 377.843 219.787C377.657 220.152 377.209 220.309 376.844 220.122C356.28 209.875 327.349 203.839 290.866 202.199C261.563 200.88 238.508 207.572 222.335 222.09C209.801 233.336 201.405 249.209 197.379 269.256C197.304 269.614 196.999 269.852 196.648 269.852Z" fill="#E3E3E3"/>
        <path d="M400.803 325.351C400.631 325.351 400.452 325.321 400.273 325.269C399.55 325.045 399.073 324.404 399.065 323.644C398.775 297.121 395.382 266.991 386.71 261.968C382.259 259.389 368.905 261.878 352.001 265.023C329.841 269.152 299.487 274.808 267.865 273.519C267.455 273.504 267.134 273.154 267.149 272.744C267.164 272.334 267.514 272.014 267.924 272.028C299.39 273.31 329.64 267.669 351.726 263.555C369.613 260.224 382.535 257.817 387.456 260.671C399.051 267.386 400.415 310.55 400.557 323.614C400.557 323.726 400.609 323.8 400.713 323.83C400.788 323.853 400.9 323.86 400.982 323.733L409.72 311.377C411.816 308.419 412.919 304.938 412.919 301.309V270.27C412.919 260.813 410.541 252.399 405.657 244.551C405.441 244.201 405.545 243.739 405.895 243.523C406.246 243.307 406.708 243.411 406.924 243.761C411.965 251.847 414.41 260.522 414.41 270.262V301.302C414.41 305.236 413.21 309.015 410.936 312.234L402.197 324.59C401.862 325.067 401.347 325.328 400.795 325.328L400.803 325.351Z" fill="#E3E3E3"/>
        <path d="M284.998 194.71C289.017 191.907 301.506 184.947 317.053 193.301C317.619 193.607 317.396 194.471 316.754 194.441C310.409 194.113 293.64 193.472 285.274 195.321C284.901 195.403 284.685 194.926 284.998 194.71Z" fill="#E3E3E3"/>
        <path d="M343.308 202.035C343.181 202.035 343.047 202.006 342.928 201.931C342.57 201.722 342.458 201.268 342.667 200.91C347.506 192.735 350.063 183.374 350.063 173.82C350.063 144.45 326.158 120.558 296.773 120.558C267.388 120.558 243.483 144.45 243.483 173.82C243.483 176.57 243.692 179.328 244.109 182.018C244.169 182.428 243.893 182.808 243.483 182.868C243.08 182.927 242.693 182.652 242.633 182.242C242.208 179.477 241.984 176.637 241.984 173.813C241.984 143.623 266.56 119.06 296.766 119.06C326.971 119.06 351.547 143.623 351.547 173.813C351.547 183.628 348.915 193.256 343.942 201.663C343.8 201.901 343.554 202.028 343.3 202.028L343.308 202.035Z" fill="#E3E3E3"/>
        <path d="M199.207 364.208C198.834 364.208 198.514 363.932 198.469 363.552C198.432 363.269 194.778 334.964 182.967 327.855C182.617 327.646 182.498 327.184 182.714 326.834C182.93 326.483 183.385 326.364 183.735 326.58C188.984 329.74 193.309 336.909 196.59 347.894C199.013 355.995 199.938 363.298 199.945 363.373C199.997 363.783 199.707 364.155 199.297 364.208C199.267 364.208 199.237 364.208 199.207 364.208Z" fill="#E3E3E3"/>
        <path d="M404.628 353.871C404.278 353.871 403.964 353.625 403.897 353.267C402.749 347.462 404.203 340.77 408.103 333.921C411.026 328.786 414.239 325.403 414.373 325.261C414.657 324.963 415.134 324.956 415.425 325.239C415.723 325.522 415.73 325.991 415.447 326.29C415.32 326.424 402.749 339.756 405.351 352.977C405.433 353.379 405.165 353.774 404.762 353.849C404.71 353.856 404.665 353.864 404.621 353.864L404.628 353.871Z" fill="#E3E3E3"/>
        <path d="M298.951 253.927C284.814 231.912 254.735 197.676 227.207 248.993C189.605 319.076 224.836 348.833 225.171 358.67C225.507 368.508 219.415 379.343 219.415 379.343C219.415 379.343 235.819 370.229 228.899 326.871C228.899 326.871 247.749 305.766 254.422 282.469C254.422 282.469 259.545 256.423 283.725 263.89C307.906 271.35 298.951 253.934 298.951 253.934V253.927Z" fill="#252525"/>
        <path d="M207.722 394.874L209.012 392.579C209.079 392.46 215.581 380.767 215.223 370.333C215.156 368.306 213.463 365.154 211.316 361.152C202.637 344.965 184.57 311.28 217.534 249.835C227.854 230.6 239.471 220.592 252.057 220.1C262.205 219.69 278.31 225.466 297.399 255.186C297.622 255.529 297.518 255.991 297.175 256.214C296.832 256.438 296.37 256.334 296.146 255.991C277.446 226.867 261.892 221.195 252.124 221.59C240.104 222.06 228.913 231.8 218.854 250.536C186.263 311.28 204.076 344.488 212.636 360.444C214.962 364.774 216.64 367.904 216.722 370.274C216.975 377.667 214.045 385.447 212.054 389.807C216.64 384.62 224.827 370.102 219.316 335.575L219.257 335.225L219.495 334.964C219.704 334.733 240.112 311.675 247.285 286.628C247.397 286.233 247.807 286.002 248.209 286.114C248.605 286.225 248.836 286.643 248.724 287.038C241.872 310.953 223.164 333.019 220.845 335.687C228.279 382.854 210.779 393.168 210.026 393.585L207.722 394.867V394.874Z" fill="#E3E3E3"/>
        <path d="M290.866 390.701C290.709 390.701 290.553 390.649 290.419 390.552C290.09 390.306 290.023 389.836 290.269 389.509C290.568 389.106 297.748 379.731 308.209 378.412C313.734 377.711 319.125 379.418 324.225 383.487C324.546 383.74 324.598 384.21 324.345 384.538C324.091 384.858 323.621 384.91 323.293 384.657C318.521 380.856 313.511 379.254 308.403 379.895C298.576 381.132 291.53 390.321 291.462 390.41C291.313 390.604 291.09 390.708 290.866 390.708V390.701Z" fill="#E3E3E3"/>
        <path d="M286.744 369.529C286.684 369.529 286.624 369.529 286.572 369.506C278.132 367.487 273.226 364.111 272.003 359.475C270.064 352.157 278.035 344.593 278.37 344.28C278.669 343.997 279.146 344.019 279.422 344.317C279.705 344.615 279.69 345.092 279.384 345.368C279.31 345.442 271.727 352.641 273.434 359.103C274.515 363.164 279.049 366.182 286.908 368.06C287.31 368.157 287.556 368.56 287.46 368.962C287.378 369.305 287.072 369.536 286.736 369.536L286.744 369.529Z" fill="#E3E3E3"/>
        <path d="M314.943 310.699C314.667 310.699 314.406 310.55 314.272 310.289C314.085 309.924 314.234 309.477 314.607 309.291C314.853 309.164 339.787 296.867 369.053 295.921C369.456 295.884 369.806 296.234 369.821 296.644C369.836 297.054 369.508 297.397 369.098 297.411C340.152 298.343 315.517 310.498 315.271 310.625C315.166 310.677 315.047 310.707 314.935 310.707L314.943 310.699Z" fill="#E3E3E3"/>
        <path d="M286.915 312.465C286.833 312.465 286.751 312.45 286.676 312.428C286.453 312.354 264.307 304.804 246.808 301.205C246.405 301.123 246.144 300.728 246.226 300.325C246.308 299.923 246.703 299.662 247.106 299.744C264.703 303.366 286.93 310.945 287.154 311.02C287.541 311.154 287.75 311.579 287.616 311.966C287.511 312.279 287.221 312.473 286.907 312.473L286.915 312.465Z" fill="#E3E3E3"/>
        <path d="M318.707 325.351C318.417 325.351 318.141 325.179 318.021 324.889C317.865 324.508 318.044 324.069 318.424 323.912C318.7 323.801 345.975 312.637 369.179 315.901C369.589 315.961 369.872 316.333 369.813 316.743C369.753 317.153 369.38 317.436 368.97 317.377C346.161 314.157 319.259 325.179 318.991 325.291C318.894 325.328 318.797 325.351 318.707 325.351Z" fill="#E3E3E3"/>
        <path d="M279.974 326.521C279.892 326.521 279.81 326.506 279.728 326.476C279.467 326.387 253.437 317.257 239.061 319.232C238.659 319.284 238.278 319.001 238.219 318.591C238.159 318.181 238.45 317.809 238.852 317.749C253.586 315.737 279.139 324.687 280.212 325.067C280.6 325.202 280.802 325.626 280.667 326.021C280.555 326.327 280.272 326.521 279.966 326.521H279.974Z" fill="#E3E3E3"/>
        <path d="M247.27 328.466C251.598 328.466 255.107 326.127 255.107 323.242C255.107 320.356 251.598 318.017 247.27 318.017C242.942 318.017 239.434 320.356 239.434 323.242C239.434 326.127 242.942 328.466 247.27 328.466Z" fill="#E3E3E3"/>
        <path d="M330.848 331.313C335.176 331.313 338.685 328.974 338.685 326.088C338.685 323.203 335.176 320.864 330.848 320.864C326.52 320.864 323.012 323.203 323.012 326.088C323.012 328.974 326.52 331.313 330.848 331.313Z" fill="#E3E3E3"/>
        <path d="M454.464 450.402C454.375 450.402 454.285 450.387 454.203 450.358C417.026 436.28 344.491 423.231 343.761 423.097C343.358 423.022 343.082 422.635 343.157 422.232C343.231 421.83 343.619 421.554 344.022 421.629C344.752 421.755 417.429 434.834 454.733 448.957C455.12 449.106 455.314 449.53 455.165 449.918C455.053 450.216 454.77 450.402 454.464 450.402Z" fill="#E3E3E3"/>
        <path d="M502.042 592.632C501.878 592.632 501.714 592.58 501.58 592.468C501.26 592.215 501.2 591.745 501.461 591.417C503.989 588.228 505.756 583.428 506.703 577.153C510.669 550.906 499.477 505.535 486.533 479.638C486.347 479.273 486.496 478.826 486.869 478.64C487.234 478.453 487.689 478.602 487.868 478.975C494.668 492.583 500.79 510.775 504.667 528.876C508.768 548.014 510.013 565.237 508.179 577.377C507.187 583.913 505.323 588.95 502.631 592.349C502.482 592.535 502.266 592.632 502.05 592.632H502.042Z" fill="#E3E3E3"/>
        <path d="M169.285 753.828C169.285 753.828 169.263 753.828 169.255 753.828C157.981 753.358 143.188 750.638 136.709 740.369L136.656 740.264C135.501 737.559 135.381 735.793 136.299 734.847C136.753 734.377 137.357 734.228 137.917 734.228C136.903 732.007 135.202 727.558 136.351 724.644C136.656 723.877 137.126 723.258 137.767 722.796C136.552 721.894 134.733 720.188 134.256 717.862C133.905 716.178 134.315 714.479 135.471 712.802C134.315 711.491 131.303 707.69 131.758 704.239C131.922 703.01 132.488 701.966 133.45 701.109C131.855 700.305 128.79 698.695 125.748 696.727C119.723 692.837 116.651 689.446 116.621 686.644C116.599 684.893 117.71 683.44 119.917 682.337C122.519 681.033 129.133 681.465 140.728 683.693C141.13 683.768 141.399 684.163 141.317 684.565C141.242 684.967 140.854 685.236 140.444 685.154C129.498 683.045 122.818 682.545 120.588 683.663C118.911 684.505 118.098 685.467 118.113 686.622C118.165 691.25 130.468 698.069 135.21 700.305L136.478 700.901L135.277 701.616C134.062 702.347 133.398 703.263 133.241 704.426C132.787 707.876 136.932 712.176 136.977 712.221L137.432 712.69L137.029 713.205C135.874 714.68 135.434 716.141 135.724 717.549C136.306 720.374 139.579 722.207 139.609 722.222L141.1 723.042L139.482 723.578C138.625 723.862 138.058 724.391 137.745 725.181C136.671 727.908 138.938 733.088 139.9 734.861L140.892 736.68L138.968 735.912C138.603 735.771 137.685 735.562 137.372 735.882C137.26 735.994 136.776 736.71 138.006 739.616C144.157 749.297 158.429 751.875 169.322 752.33C169.733 752.345 170.053 752.695 170.038 753.105C170.023 753.507 169.688 753.82 169.293 753.82L169.285 753.828Z" fill="#E3E3E3"/>
        <path d="M222.23 755.877C222.23 755.877 222.193 755.877 222.178 755.877C218.86 755.639 215.736 755.415 212.813 755.192C212.403 755.162 212.097 754.804 212.127 754.394C212.157 753.984 212.507 753.671 212.925 753.709C215.848 753.925 218.972 754.156 222.29 754.394C222.7 754.424 223.013 754.782 222.983 755.192C222.954 755.587 222.625 755.885 222.238 755.885L222.23 755.877Z" fill="#E3E3E3"/>
        <path d="M287.952 759.671C287.952 759.671 287.929 759.671 287.922 759.671C266.835 758.761 244.72 757.48 222.18 755.87C221.77 755.84 221.457 755.482 221.486 755.072C221.516 754.663 221.867 754.357 222.284 754.379C244.802 755.989 266.91 757.263 287.981 758.173C288.392 758.187 288.712 758.538 288.697 758.948C288.682 759.35 288.347 759.663 287.952 759.663V759.671Z" fill="#E3E3E3"/>
        <path d="M357.546 761.265C357.136 761.265 356.801 760.93 356.801 760.52C356.801 760.11 357.136 759.775 357.546 759.775C416.444 759.663 453.747 755.02 468.414 745.98C484.631 735.979 495.242 711.573 499.969 673.424C500.021 673.014 500.386 672.716 500.804 672.775C501.214 672.827 501.505 673.2 501.453 673.61C496.673 712.221 485.817 737 469.204 747.247C454.299 756.436 416.742 761.154 357.561 761.265H357.546Z" fill="#E3E3E3"/>
        <path d="M503.318 632.137C502.908 632.137 502.573 631.794 502.58 631.385C502.804 608.975 501.32 592.118 501.305 591.946L500.291 579.858C500.052 576.982 497.883 574.664 495.012 574.239C485.729 572.838 473.441 573.241 458.491 575.432C458.081 575.499 457.708 575.208 457.649 574.806C457.589 574.403 457.872 574.023 458.275 573.964C473.366 571.75 485.803 571.355 495.236 572.771C498.792 573.308 501.477 576.177 501.775 579.747L502.781 591.827C502.796 591.991 504.288 608.923 504.064 631.407C504.064 631.817 503.728 632.145 503.318 632.145V632.137Z" fill="#E3E3E3"/>
        <path d="M247.51 707.489C247.174 707.489 246.868 707.258 246.786 706.915C246.689 706.512 246.943 706.11 247.338 706.021C262.243 702.518 367.436 690.385 405.956 688.247C412.003 687.911 416.596 682.903 416.417 676.844L413.785 589.189C413.688 586.051 415.738 583.272 418.758 582.437C421.524 581.669 425.946 580.492 431.307 579.218C431.71 579.121 432.112 579.367 432.202 579.769C432.299 580.171 432.053 580.574 431.65 580.663C426.311 581.93 421.912 583.108 419.153 583.868C416.79 584.524 415.194 586.692 415.268 589.137L417.901 676.792C418.109 683.663 412.897 689.35 406.038 689.73C374.475 691.481 264.786 703.442 247.681 707.466C247.621 707.481 247.569 707.489 247.51 707.489Z" fill="#E3E3E3"/>
        <path d="M264.715 568.009C264.715 568.009 264.663 568.009 264.633 568.009C264.223 567.964 263.925 567.599 263.97 567.189C265.931 548.692 267.049 533.996 267.541 526.887C267.81 523.034 269.555 519.509 272.455 516.96L303.824 489.423L304.286 489.692C307.186 491.383 309.677 491.793 311.697 490.929C315.001 489.505 316.082 485.056 316.089 485.011L316.358 483.864L317.282 484.602C317.685 484.922 318.938 485.682 319.832 485.324C320.712 484.974 321.085 483.595 321.242 482.5C324.985 456.297 319.691 450.805 313.554 444.44C312.749 443.606 311.914 442.741 311.101 441.825C306.008 436.094 289.433 440.841 281.38 444.157L280.724 442.823C297.068 433.441 324.783 415.227 325.111 406.411C325.156 405.151 324.604 404.153 323.426 403.355C314.822 397.535 282.983 420.95 256.051 444.806C254.105 446.527 252.651 448.74 251.846 451.207C249.482 458.436 244.576 473.378 238.246 492.166C238.111 492.553 237.694 492.762 237.299 492.635C236.911 492.501 236.695 492.084 236.829 491.689C243.152 472.909 248.058 457.974 250.422 450.745C251.309 448.032 252.912 445.596 255.052 443.695C260.667 438.724 275.274 426.063 289.612 415.927C307.477 403.303 319.131 398.66 324.254 402.126C325.872 403.221 326.655 404.682 326.588 406.47C326.401 411.538 318.945 419.288 304.435 429.506C298.44 433.731 292.393 437.554 287.964 440.252C295.734 437.882 307.47 435.512 312.205 440.841C313.002 441.735 313.823 442.592 314.62 443.412C320.757 449.776 326.558 455.79 322.71 482.716C322.405 484.877 321.614 486.226 320.377 486.718C319.243 487.165 318.043 486.755 317.245 486.345C316.686 487.94 315.262 491.025 312.294 492.307C309.93 493.328 307.142 492.978 304.003 491.257L273.439 518.085C270.83 520.373 269.264 523.54 269.025 526.998C268.533 534.123 267.415 548.834 265.446 567.353C265.409 567.733 265.081 568.017 264.708 568.017L264.715 568.009Z" fill="#E3E3E3"/>
        <path d="M199.055 602.573L189.273 562.807C188.825 560.989 187.431 559.528 185.634 558.999C164.235 552.635 143.611 550.816 124.336 553.596C123.031 553.782 121.89 554.468 121.108 555.526C120.325 556.584 120.011 557.889 120.213 559.185L123.262 578.465L125.716 590.791C125.723 590.851 126.409 594.808 127.602 601.381C127.677 601.783 127.408 602.171 126.998 602.246C126.588 602.32 126.208 602.052 126.133 601.642C124.933 595.054 124.254 591.097 124.247 591.052L121.793 578.711L118.736 559.402C118.468 557.702 118.878 556.003 119.9 554.624C120.921 553.246 122.42 552.344 124.12 552.106C143.603 549.303 164.443 551.137 186.059 557.561C188.363 558.246 190.153 560.117 190.727 562.45L199.369 597.595C205.341 581.967 212.343 562.695 220.187 540.264C220.321 539.876 220.746 539.675 221.134 539.809C221.521 539.943 221.73 540.368 221.588 540.756C213.364 564.283 206.064 584.33 199.898 600.353L199.048 602.573H199.055Z" fill="#E3E3E3"/>
        <path d="M192.33 765.074C188.855 765.074 183.897 764.366 178.446 761.37C167.105 755.147 158.426 741.844 152.655 721.842C144.453 693.396 136.52 655.687 131.308 629.067C131.226 628.664 131.494 628.269 131.897 628.195C132.299 628.113 132.695 628.381 132.769 628.784C137.974 655.374 145.9 693.038 154.087 721.432C159.739 741.047 168.179 754.044 179.162 760.073C188.825 765.379 196.96 763.076 197.042 763.054C226.629 756.526 244.226 692.338 253.785 639.627C253.859 639.225 254.247 638.956 254.65 639.023C255.052 639.098 255.321 639.485 255.253 639.888C249.117 673.707 241.78 701.169 233.451 721.529C222.998 747.069 210.874 761.519 197.415 764.485C197.273 764.53 195.365 765.066 192.33 765.066V765.074Z" fill="#E3E3E3"/>
        <path d="M159.828 693.568C159.828 693.568 159.776 693.568 159.746 693.568C159.336 693.523 159.038 693.158 159.083 692.748C159.224 691.436 162.729 660.509 177.373 645.872C181.064 642.176 188.177 626.697 198.511 599.861C198.616 599.57 198.892 599.354 199.212 599.354C199.622 599.354 199.958 599.682 199.958 600.092V600.233L199.906 600.375C189.348 627.807 182.324 643.033 178.424 646.93C164.145 661.194 160.596 692.599 160.566 692.912C160.522 693.292 160.201 693.575 159.828 693.575V693.568Z" fill="#E3E3E3"/>
        <path d="M281.06 444.224C280.866 444.224 280.68 444.15 280.531 444.008C280.24 443.718 280.24 443.248 280.531 442.957C280.613 442.875 280.747 442.793 280.859 442.756C281.254 442.629 281.671 442.838 281.806 443.226C281.925 443.591 281.753 443.978 281.418 444.135C281.306 444.194 281.187 444.224 281.06 444.224Z" fill="#E3E3E3"/>
        <path d="M124.525 458.123C124.286 458.123 124.047 458.004 123.906 457.795C123.675 457.452 123.764 456.99 124.107 456.759C166.041 428.597 235.407 427.874 236.108 427.866C236.518 427.866 236.853 428.194 236.853 428.604C236.853 429.014 236.525 429.349 236.115 429.357C235.422 429.357 166.496 430.087 124.942 457.996C124.815 458.086 124.674 458.123 124.525 458.123Z" fill="#E3E3E3"/>
        <path d="M108.7 569.671C108.469 569.671 108.245 569.567 108.104 569.373C105.859 566.37 103.787 562.733 101.93 558.567C98.5448 550.973 95.8307 541.471 93.8623 530.315C91.7074 519.956 91.424 510.141 93.0048 501.176C93.0793 500.773 93.4671 500.498 93.8697 500.572C94.2723 500.647 94.5482 501.027 94.4737 501.437C92.9228 510.216 93.2061 519.837 95.3237 530.039C97.2772 541.098 99.954 550.488 103.294 557.963C105.106 562.032 107.127 565.572 109.297 568.486C109.543 568.814 109.476 569.283 109.148 569.529C109.013 569.626 108.857 569.678 108.7 569.678V569.671Z" fill="#E3E3E3"/>
        <path d="M199.214 600.837C198.804 600.837 198.469 600.509 198.469 600.099C198.469 599.674 198.804 599.347 199.214 599.347C199.624 599.347 199.96 599.682 199.96 600.092C199.96 600.502 199.624 600.845 199.214 600.845V600.837Z" fill="#E3E3E3"/>
        <path d="M447.605 782.482H165.318C158.204 782.482 152.426 776.699 152.426 769.597V759.909C152.426 759.499 152.761 759.164 153.171 759.164C153.582 759.164 153.917 759.499 153.917 759.909V769.597C153.917 775.88 159.032 780.992 165.318 780.992H447.605C453.891 780.992 459.006 775.88 459.006 769.597V750.72C459.006 750.31 459.341 749.975 459.751 749.975C460.161 749.975 460.497 750.31 460.497 750.72V769.597C460.497 776.707 454.711 782.482 447.605 782.482Z" fill="#E3E3E3"/>
        <path d="M416.423 85.3452C421.724 86.8357 425.975 89.1608 429.166 92.3132C432.357 95.4656 434.482 99.1545 435.541 103.395C436.6 107.635 436.48 112.055 435.176 116.66C433.804 121.527 431.761 125.357 429.046 128.159C426.332 130.961 422.768 132.959 418.347 134.151C413.925 135.344 408.43 135.955 401.853 135.977L397.037 153.05L394.949 152.462L400.094 134.218C407.177 134.054 412.911 133.443 417.295 132.377C421.68 131.312 425.072 129.501 427.481 126.945C429.889 124.388 431.761 120.767 433.08 116.072C434.281 111.816 434.393 107.74 433.431 103.857C432.461 99.9743 430.515 96.5611 427.585 93.6323C424.655 90.696 420.763 88.5423 415.894 87.171C408.243 85.0173 401.876 85.2185 396.791 87.7672C391.705 90.3234 387.754 94.7651 384.935 101.1L383.332 99.8029C385.412 95.4209 388.007 91.881 391.109 89.1906C394.211 86.5003 397.879 84.8161 402.107 84.1304C406.335 83.4448 411.099 83.8472 416.401 85.3452H416.423ZM391.922 167.218C392.787 167.463 393.413 167.918 393.786 168.589C394.159 169.26 394.226 170.027 393.98 170.892C393.734 171.756 393.279 172.382 392.608 172.755C391.937 173.127 391.169 173.194 390.304 172.948C389.439 172.703 388.812 172.248 388.44 171.577C388.067 170.906 388 170.139 388.246 169.274C388.492 168.41 388.947 167.784 389.618 167.411C390.289 167.039 391.057 166.972 391.922 167.218Z" fill="#E3E3E3"/>
        <path d="M303.511 0.0298128C309.014 0.223576 313.697 1.47558 317.544 3.77838C321.392 6.08118 324.337 9.16649 326.365 13.0343C328.4 16.9021 329.325 21.2245 329.161 26.009C328.982 31.0617 327.901 35.2723 325.932 38.6334C323.956 41.9944 320.967 44.7816 316.962 46.9876C312.951 49.1935 307.754 51.0864 301.371 52.6663L300.745 70.3956L298.575 70.3211L299.246 51.377C306.091 49.5437 311.512 47.5912 315.516 45.5194C319.52 43.4477 322.391 40.884 324.128 37.8285C325.865 34.773 326.82 30.8083 326.991 25.9345C327.148 21.5152 326.298 17.5356 324.434 13.9882C322.57 10.4483 319.87 7.59403 316.336 5.43282C312.794 3.27162 308.5 2.10904 303.444 1.92273C295.503 1.63954 289.359 3.34614 285.027 7.02764C280.695 10.7166 277.907 15.9706 276.669 22.7895L274.805 21.9101C275.789 17.1555 277.467 13.1088 279.845 9.75523C282.224 6.40909 285.385 3.89762 289.33 2.23573C293.274 0.566387 298.001 -0.16395 303.504 0.0298128H303.511ZM299.127 85.375C300.029 85.4048 300.745 85.7029 301.267 86.2618C301.789 86.8208 302.035 87.5586 302.005 88.4529C301.975 89.3472 301.677 90.07 301.118 90.5917C300.559 91.1134 299.821 91.3593 298.926 91.3295C298.031 91.2997 297.308 91.0016 296.786 90.4427C296.264 89.8837 296.018 89.1534 296.048 88.2516C296.077 87.3499 296.376 86.6345 296.935 86.1128C297.494 85.5911 298.225 85.3452 299.127 85.375Z" fill="#E3E3E3"/>
        <path d="M177.731 90.5768C182.98 88.9224 187.812 88.5348 192.211 89.4142C196.61 90.3011 200.413 92.2238 203.626 95.1824C206.833 98.1485 209.159 101.912 210.606 106.473C212.127 111.295 212.522 115.617 211.791 119.447C211.06 123.278 209.174 126.9 206.132 130.321C203.09 133.741 198.832 137.266 193.344 140.888L198.69 157.805L196.625 158.461L190.913 140.381C196.752 136.365 201.203 132.705 204.283 129.419C207.362 126.125 209.211 122.749 209.823 119.291C210.434 115.833 210.009 111.779 208.54 107.129C207.205 102.911 205.066 99.4452 202.128 96.725C199.183 94.0124 195.686 92.2238 191.629 91.3742C187.573 90.5246 183.129 90.86 178.305 92.3803C170.722 94.7725 165.51 98.4316 162.662 103.35C159.813 108.276 158.948 114.156 160.067 120.998L158.016 120.796C157.353 115.99 157.576 111.615 158.695 107.658C159.813 103.708 161.953 100.287 165.115 97.3958C168.276 94.5042 172.482 92.2312 177.738 90.5693L177.731 90.5768ZM202.18 172.464C203.037 172.196 203.813 172.233 204.491 172.583C205.17 172.934 205.647 173.545 205.923 174.402C206.199 175.259 206.154 176.034 205.804 176.712C205.453 177.39 204.842 177.867 203.984 178.135C203.127 178.404 202.351 178.366 201.673 178.016C200.994 177.666 200.517 177.055 200.241 176.198C199.965 175.341 200.01 174.566 200.361 173.887C200.711 173.209 201.322 172.732 202.18 172.464Z" fill="#E3E3E3"/>
    </g>
    <defs>
        <clipPath id="clip0_10341_8280">
            <rect width="417" height="786" fill="white" transform="translate(92)"/>
        </clipPath>
    </defs>
</svg>
