<svg width="105" height="97" viewBox="0 0 105 97" fill="none" xmlns="http://www.w3.org/2000/svg">
    <ellipse cx="61.0896" cy="43.5719" rx="43.3942" ry="43.4" fill="#CE7783"/>
    <path fill-rule="evenodd" clip-rule="evenodd" d="M67.7991 30.6163C68.1896 30.2258 68.1896 29.5926 67.7991 29.2021C67.4086 28.8115 66.7754 28.8115 66.3849 29.2021L48.0011 47.5859L29.6173 29.2021C29.2267 28.8115 28.5936 28.8115 28.203 29.2021C27.8125 29.5926 27.8125 30.2258 28.203 30.6163L46.5869 49.0001L28.203 67.3839C27.8125 67.7744 27.8125 68.4076 28.203 68.7981C28.5936 69.1886 29.2267 69.1886 29.6173 68.7981L48.0011 50.4143L66.3849 68.7981C66.7754 69.1886 67.4086 69.1886 67.7991 68.7981C68.1896 68.4076 68.1896 67.7744 67.7991 67.3839L49.4153 49.0001L67.7991 30.6163Z" fill="#E3E3E3"/>
    <path d="M93.4954 39.1362C95.8397 49.4208 94.6152 60.1971 90.0232 69.6934C85.4312 79.1896 77.745 86.8405 68.2284 91.3881C58.7118 95.9357 47.9313 97.1093 37.6592 94.716C27.3872 92.3227 18.2352 86.5049 11.7078 78.2192C5.18051 69.9335 1.66645 59.673 1.74343 49.1248C1.8204 38.5766 5.48382 28.3685 12.1314 20.179C18.7789 11.9894 28.0149 6.30584 38.3208 4.06273C48.6266 1.81962 59.3889 3.1505 68.8381 7.83653" stroke="#E3E3E3" stroke-width="2" stroke-linecap="round" stroke-linejoin="round"/>
</svg>
