<svg width="205" height="289" viewBox="0 0 205 289" fill="none" xmlns="http://www.w3.org/2000/svg">
<g clip-path="url(#clip0_4935_8197)">
<path d="M82.155 202.309C89.4878 203.683 108.414 206.055 123.413 197.743C124.567 197.09 125.932 196.925 127.208 197.284C128.483 197.644 129.565 198.498 130.215 199.659C135.325 208.919 145.907 229.176 143.097 234.062C139.43 240.473 108.712 248.528 99.8217 248.308C90.9317 248.087 61.4731 239.219 59.5903 235.38C58.0544 232.253 71.9697 211.789 77.1579 204.346C77.7064 203.557 78.4702 202.945 79.357 202.583C80.2437 202.222 81.2155 202.126 82.155 202.309Z" fill="#333333"/>
<path d="M101.275 215.504C100.89 216.173 99.9249 216.173 99.5405 215.504L92.6634 203.535C92.2803 202.869 92.7616 202.037 93.5305 202.037L107.285 202.037C108.053 202.037 108.535 202.869 108.152 203.535L101.275 215.504Z" fill="#272727"/>
<path d="M72.0668 244.995C80.5604 246.47 92.416 260.124 131.748 241.897C132.712 241.424 133.813 241.319 134.847 241.6C135.882 241.882 136.78 242.531 137.375 243.428C144.34 254.113 162.354 286.023 131.182 288.352C93.6688 291.151 105.744 283.95 79.9092 284.078C54.6124 284.206 43.6557 268.365 68.3862 246.057C68.8804 245.612 69.4682 245.285 70.1056 245.102C70.743 244.918 71.4135 244.882 72.0668 244.995Z" fill="#333333"/>
<path d="M148.461 282.554C148.41 282.554 148.36 282.543 148.315 282.521C148.269 282.498 148.23 282.466 148.199 282.426C148.168 282.391 148.145 282.35 148.13 282.306C148.115 282.262 148.109 282.215 148.112 282.169C148.115 282.122 148.128 282.077 148.149 282.035C148.17 281.994 148.199 281.957 148.234 281.927C151.32 279.213 156.445 270.224 137.299 245.351C137.241 245.278 137.214 245.184 137.225 245.09C137.236 244.997 137.282 244.912 137.355 244.853C137.431 244.796 137.524 244.77 137.618 244.781C137.711 244.791 137.797 244.837 137.858 244.91C144.356 253.357 158.434 273.928 148.694 282.461C148.663 282.491 148.627 282.515 148.587 282.531C148.547 282.547 148.504 282.555 148.461 282.554Z" fill="#E3E3E3"/>
<path d="M135.012 286.165H94.9008C94.8069 286.165 94.7169 286.127 94.6506 286.061C94.5842 285.994 94.5469 285.903 94.5469 285.809C94.5469 285.714 94.5842 285.624 94.6506 285.557C94.7169 285.49 94.8069 285.453 94.9008 285.453H135.012C135.106 285.453 135.196 285.49 135.262 285.557C135.328 285.624 135.366 285.714 135.366 285.809C135.366 285.903 135.328 285.994 135.262 286.061C135.196 286.127 135.106 286.165 135.012 286.165Z" fill="#E3E3E3"/>
<path d="M78.3515 286.165H69.596C61.343 286.165 56.1478 284.028 54.0811 279.911C50.3297 272.29 57.9386 259.59 64.9883 250.281C65.0456 250.206 65.1299 250.158 65.2228 250.145C65.3156 250.133 65.4095 250.159 65.4837 250.216C65.5572 250.274 65.6057 250.358 65.6189 250.451C65.6321 250.544 65.609 250.639 65.5545 250.715C59.8921 258.201 50.9384 271.919 54.711 279.591C56.6291 283.48 61.6333 285.453 69.5748 285.453H78.3303C78.4241 285.453 78.5141 285.49 78.5805 285.557C78.6469 285.624 78.6842 285.715 78.6842 285.809C78.6842 285.903 78.6469 285.994 78.5805 286.061C78.5141 286.128 78.4241 286.165 78.3303 286.165H78.3515Z" fill="#E3E3E3"/>
<path d="M101.759 215.827L93.7536 206.126C93.7237 206.09 93.7012 206.049 93.6874 206.004C93.6737 205.96 93.669 205.913 93.6736 205.866C93.6782 205.82 93.692 205.775 93.7143 205.734C93.7366 205.693 93.7668 205.656 93.8032 205.627C93.8382 205.597 93.879 205.574 93.9231 205.559C93.9672 205.545 94.0137 205.54 94.0599 205.544C94.1061 205.548 94.151 205.561 94.192 205.583C94.233 205.604 94.2693 205.634 94.2986 205.67L101.723 214.666L109.707 203.626C109.765 203.558 109.846 203.515 109.934 203.504C110.022 203.493 110.11 203.516 110.182 203.568C110.254 203.62 110.304 203.697 110.323 203.784C110.341 203.871 110.326 203.962 110.281 204.039L101.759 215.827Z" fill="#E3E3E3"/>
<path d="M97.9023 229.625H97.8598C97.8144 229.615 97.7714 229.597 97.7331 229.571C97.6949 229.544 97.6623 229.511 97.6372 229.472C97.6122 229.432 97.5952 229.389 97.5872 229.343C97.5792 229.297 97.5805 229.25 97.5908 229.204C97.6545 228.934 99.0065 222.63 100.882 219.617C100.959 219.491 101.074 219.394 101.211 219.34C101.348 219.287 101.498 219.279 101.639 219.32C101.78 219.36 101.904 219.446 101.993 219.564C102.081 219.682 102.128 219.826 102.128 219.973V225.728C102.128 225.823 102.091 225.913 102.024 225.98C101.958 226.047 101.868 226.085 101.774 226.085C101.681 226.083 101.592 226.045 101.526 225.978C101.46 225.912 101.422 225.822 101.42 225.728V219.98C99.7001 222.915 98.2986 229.297 98.2845 229.361C98.2643 229.445 98.2141 229.518 98.1436 229.566C98.073 229.615 97.9871 229.636 97.9023 229.625Z" fill="#E3E3E3"/>
<path d="M101.401 251.477H101.331C100.544 251.389 99.7669 251.229 99.009 251C98.9295 250.965 98.8655 250.902 98.8292 250.822C98.793 250.743 98.787 250.653 98.8123 250.57C98.8376 250.486 98.8925 250.415 98.9666 250.369C99.0407 250.324 99.1289 250.308 99.2142 250.323C99.9305 250.538 100.665 250.686 101.408 250.765L101.366 236.676C101.366 236.582 101.403 236.491 101.47 236.424C101.536 236.357 101.626 236.32 101.72 236.32C101.814 236.32 101.904 236.357 101.97 236.424C102.036 236.491 102.074 236.582 102.074 236.676V250.8C102.072 250.895 102.052 250.989 102.015 251.076C101.977 251.162 101.922 251.241 101.854 251.306C101.728 251.415 101.568 251.475 101.401 251.477Z" fill="#E3E3E3"/>
<path d="M102.059 251.477C101.894 251.479 101.735 251.418 101.613 251.306C101.544 251.241 101.488 251.163 101.449 251.076C101.41 250.99 101.389 250.896 101.387 250.801V219.98C101.392 219.833 101.442 219.691 101.531 219.573C101.62 219.456 101.742 219.369 101.882 219.325C102.023 219.285 102.172 219.293 102.308 219.347C102.443 219.401 102.557 219.498 102.632 219.624C104.48 222.637 105.867 228.941 105.924 229.211C105.924 229.211 106.242 230.358 106.632 232.06C106.643 232.107 106.645 232.156 106.637 232.203C106.63 232.251 106.613 232.296 106.588 232.337C106.563 232.378 106.53 232.414 106.492 232.442C106.453 232.47 106.409 232.491 106.363 232.502C106.316 232.513 106.268 232.515 106.221 232.508C106.173 232.5 106.128 232.483 106.087 232.458C106.047 232.433 106.011 232.4 105.983 232.361C105.955 232.322 105.935 232.278 105.924 232.231C105.499 230.493 105.216 229.347 105.216 229.347C105.216 229.347 103.8 222.872 102.01 219.959L102.073 225.7V250.779C103.253 250.615 104.405 250.292 105.499 249.818C105.542 249.791 105.589 249.774 105.639 249.767C105.688 249.761 105.738 249.765 105.786 249.779C105.834 249.794 105.879 249.818 105.916 249.851C105.954 249.884 105.985 249.924 106.006 249.97C106.027 250.015 106.038 250.065 106.039 250.115C106.04 250.166 106.03 250.215 106.01 250.262C105.99 250.308 105.961 250.349 105.924 250.383C105.887 250.417 105.844 250.443 105.796 250.459C104.628 250.986 103.383 251.323 102.109 251.456L102.059 251.477Z" fill="#E3E3E3"/>
<path d="M70.0284 259.54C69.9693 259.539 69.911 259.525 69.8585 259.497C69.7771 259.451 69.7169 259.374 69.6904 259.284C69.664 259.194 69.6736 259.096 69.717 259.013C71.6422 255.452 78.7202 245.957 79.0175 245.558C79.0454 245.521 79.0803 245.489 79.1203 245.465C79.1603 245.441 79.2045 245.426 79.2505 245.419C79.2965 245.412 79.3434 245.415 79.3884 245.427C79.4334 245.438 79.4757 245.459 79.5129 245.487C79.5501 245.515 79.5814 245.55 79.6051 245.59C79.6288 245.63 79.6444 245.675 79.651 245.721C79.6575 245.768 79.655 245.815 79.6435 245.86C79.6319 245.905 79.6116 245.948 79.5837 245.985C79.513 246.085 72.2367 255.801 70.3398 259.348C70.3102 259.405 70.2655 259.454 70.2107 259.487C70.1558 259.521 70.0928 259.54 70.0284 259.54Z" fill="#E3E3E3"/>
<path d="M142.306 266.193C142.223 266.194 142.143 266.165 142.079 266.112C142.015 266.058 141.973 265.983 141.959 265.901C140.48 257.496 129.219 247.004 129.077 246.904C129.044 246.871 129.018 246.832 129 246.788C128.982 246.745 128.973 246.699 128.973 246.652C128.973 246.605 128.982 246.558 129 246.515C129.018 246.471 129.044 246.432 129.077 246.399C129.143 246.333 129.232 246.297 129.325 246.297C129.418 246.297 129.507 246.333 129.573 246.399C130.047 246.833 141.152 257.154 142.674 265.794C142.691 265.886 142.67 265.982 142.617 266.059C142.564 266.137 142.483 266.19 142.391 266.207L142.306 266.193Z" fill="#E3E3E3"/>
<path d="M129.711 258.087C129.621 258.087 129.534 258.053 129.468 257.99C129.402 257.928 129.362 257.843 129.357 257.752C129.23 255.929 126.2 252.011 121.054 247.025C121.017 246.994 120.986 246.956 120.964 246.912C120.942 246.868 120.929 246.82 120.926 246.771C120.924 246.723 120.931 246.674 120.948 246.628C120.964 246.582 120.99 246.54 121.024 246.504C121.058 246.469 121.098 246.441 121.143 246.422C121.188 246.403 121.237 246.394 121.285 246.395C121.334 246.395 121.382 246.406 121.426 246.427C121.471 246.447 121.51 246.476 121.543 246.513C125.329 250.181 129.874 255.103 130.036 257.702C130.04 257.749 130.035 257.796 130.021 257.841C130.006 257.886 129.983 257.927 129.953 257.963C129.923 257.999 129.886 258.028 129.844 258.049C129.803 258.071 129.757 258.083 129.711 258.087Z" fill="#E3E3E3"/>
<path d="M80.8176 255.658H80.7256C80.6355 255.633 80.5585 255.574 80.511 255.493C80.4635 255.412 80.4491 255.315 80.4708 255.224C80.846 253.728 82.3607 251.085 84.9866 247.389C85.0128 247.35 85.0462 247.318 85.0851 247.293C85.1239 247.267 85.1674 247.25 85.2129 247.242C85.2584 247.234 85.305 247.236 85.35 247.246C85.395 247.257 85.4375 247.276 85.4749 247.303C85.5132 247.33 85.5458 247.364 85.5708 247.404C85.5958 247.444 85.6128 247.488 85.6207 247.535C85.6286 247.581 85.6272 247.628 85.6168 247.674C85.6064 247.72 85.587 247.763 85.5599 247.802C83.0259 251.363 81.5042 254.013 81.1574 255.402C81.1359 255.476 81.0912 255.541 81.0299 255.587C80.9687 255.633 80.8942 255.658 80.8176 255.658Z" fill="#E3E3E3"/>
<path d="M109.782 251.135C109.708 251.135 109.637 251.112 109.576 251.07C109.516 251.028 109.469 250.969 109.442 250.9C109.427 250.856 109.42 250.809 109.422 250.762C109.425 250.715 109.437 250.669 109.457 250.626C109.478 250.584 109.506 250.546 109.541 250.515C109.576 250.483 109.617 250.46 109.662 250.444L139.311 240.102C140.53 239.678 141.638 238.982 142.552 238.066C143.465 237.15 144.162 236.038 144.589 234.814C145.015 233.589 145.161 232.283 145.016 230.993C144.871 229.704 144.438 228.464 143.749 227.366L130.563 206.333C130.537 206.293 130.52 206.249 130.512 206.203C130.503 206.156 130.505 206.109 130.515 206.063C130.526 206.017 130.545 205.974 130.573 205.936C130.601 205.897 130.636 205.865 130.676 205.841C130.755 205.791 130.851 205.773 130.942 205.793C131.034 205.813 131.114 205.869 131.165 205.948L144.351 226.982C145.095 228.171 145.563 229.514 145.72 230.91C145.876 232.307 145.718 233.721 145.256 235.047C144.794 236.373 144.04 237.578 143.051 238.57C142.063 239.562 140.864 240.317 139.545 240.779L109.895 251.114C109.859 251.128 109.821 251.135 109.782 251.135Z" fill="#E3E3E3"/>
<path d="M106.354 247.759C106.26 247.759 106.17 247.722 106.104 247.655C106.037 247.588 106 247.497 106 247.403V228.171C106 227.416 106.298 226.691 106.829 226.157C107.36 225.622 108.08 225.322 108.831 225.322H128.246C128.34 225.322 128.43 225.36 128.496 225.427C128.563 225.493 128.6 225.584 128.6 225.678C128.6 225.773 128.563 225.863 128.496 225.93C128.43 225.997 128.34 226.035 128.246 226.035H108.831C108.268 226.035 107.728 226.26 107.33 226.66C106.932 227.061 106.708 227.605 106.708 228.171V247.403C106.706 247.497 106.668 247.586 106.602 247.653C106.536 247.719 106.447 247.757 106.354 247.759Z" fill="#E3E3E3"/>
<path d="M55.7273 132.32L55.0195 132.178C60.3422 105.474 81.0241 100.752 97.4309 101.5C113.838 102.248 126.805 104.976 136.063 109.627L135.751 110.261C126.55 105.66 113.675 102.953 97.3955 102.212C81.2789 101.478 60.9509 106.108 55.7273 132.32Z" fill="#45E5E5"/>
<path d="M94.9292 201.988C81.2545 201.988 66.1571 198.598 56.984 186.09C55.3207 186.012 42.9484 184.943 42.0495 170.42C41.4054 160.07 42.7219 154.038 45.9636 152.378C48.087 151.317 50.9678 152.243 54.528 155.134C54.1009 152.133 53.8645 149.106 53.8202 146.074C53.8201 145.98 53.8562 145.89 53.9208 145.822C53.9855 145.755 54.0737 145.715 54.167 145.711C54.2609 145.711 54.3509 145.748 54.4172 145.815C54.4836 145.882 54.5209 145.973 54.5209 146.067C54.5499 149.379 54.8266 152.684 55.349 155.954L55.5401 156.951L54.7757 156.288C51.1164 153.119 48.2498 152.015 46.2821 153.019C43.3589 154.443 42.1415 160.484 42.7431 170.377C43.6632 185.193 56.6089 185.378 57.1539 185.378H57.3379L57.4441 185.52C68.8185 201.19 89.741 202.415 105.284 200.663C122.76 198.697 138.048 192.7 140.816 191.176C145.77 188.455 144.468 180.605 144.454 180.492L144.362 179.964L144.879 180.078C148 180.791 150.541 180.399 152.735 178.925C156.387 176.439 158.964 170.634 160.408 161.673C161.434 155.263 160.684 151.103 158.228 149.564C158.15 149.515 158.094 149.436 158.073 149.345C158.052 149.255 158.067 149.16 158.114 149.08C158.164 149 158.243 148.942 158.334 148.92C158.425 148.897 158.522 148.911 158.603 148.959C161.356 150.676 162.198 154.992 161.108 161.78C159.615 171.04 157.003 176.866 153.131 179.509C150.916 181.019 148.326 181.467 145.225 180.869C145.452 182.749 145.848 189.188 141.156 191.76C138.324 193.291 122.944 199.346 105.362 201.326C101.899 201.741 98.4163 201.962 94.9292 201.988Z" fill="#E3E3E3"/>
<path d="M152.552 146.466H151.844V132.776C151.893 128.696 150.769 124.689 148.609 121.237L149.211 120.859C151.44 124.426 152.6 128.563 152.552 132.776V146.466Z" fill="#45E5E5"/>
<path d="M55.393 132.605H55.3223C55.2767 132.595 55.2334 132.577 55.1949 132.551C55.1564 132.525 55.1233 132.491 55.0977 132.452C55.0721 132.413 55.0544 132.369 55.0455 132.324C55.0367 132.278 55.0369 132.23 55.0462 132.185C60.3689 105.481 81.0508 100.759 97.4576 101.507C113.864 102.255 126.831 104.983 136.089 109.634C136.131 109.654 136.169 109.683 136.199 109.718C136.23 109.753 136.254 109.794 136.269 109.838C136.284 109.883 136.29 109.93 136.288 109.976C136.285 110.023 136.273 110.069 136.252 110.111C136.208 110.194 136.135 110.256 136.046 110.285C135.958 110.314 135.862 110.308 135.778 110.268C126.576 105.666 113.702 102.96 97.4222 102.219C81.2914 101.507 60.9634 106.115 55.7398 132.327C55.721 132.406 55.6766 132.475 55.6138 132.526C55.551 132.576 55.4733 132.604 55.393 132.605Z" fill="#E3E3E3"/>
<path d="M97.9024 248.663C97.8091 248.662 97.7201 248.623 97.6541 248.557C97.5881 248.491 97.5503 248.401 97.5485 248.307V228.178C97.5485 227.611 97.3247 227.068 96.9265 226.667C96.5283 226.266 95.9883 226.041 95.4251 226.041H76.0101C75.9163 226.041 75.8263 226.004 75.7599 225.937C75.6936 225.87 75.6562 225.78 75.6562 225.685C75.6562 225.591 75.6936 225.5 75.7599 225.433C75.8263 225.367 75.9163 225.329 76.0101 225.329H95.4251C96.176 225.329 96.8961 225.629 97.427 226.164C97.958 226.698 98.2563 227.423 98.2563 228.178V248.307C98.2563 248.402 98.219 248.492 98.1526 248.559C98.0863 248.626 97.9963 248.663 97.9024 248.663Z" fill="#E3E3E3"/>
<path d="M94.4498 251.135C94.4124 251.142 94.374 251.142 94.3365 251.135L64.6797 240.8C64.2815 240.656 63.8916 240.49 63.5118 240.302C63.4293 240.256 63.3671 240.181 63.3382 240.091C63.3092 240.001 63.3157 239.903 63.3561 239.817C63.3999 239.735 63.4737 239.672 63.562 239.643C63.6504 239.614 63.7465 239.62 63.8304 239.661C64.1804 239.84 64.5422 239.994 64.9133 240.124L94.563 250.466C94.6095 250.473 94.6541 250.49 94.6941 250.515C94.7342 250.54 94.7691 250.572 94.7967 250.61C94.8243 250.649 94.8441 250.692 94.855 250.738C94.8659 250.784 94.8677 250.832 94.8603 250.879C94.8529 250.926 94.8363 250.971 94.8117 251.011C94.787 251.051 94.7547 251.086 94.7166 251.114C94.6785 251.142 94.6353 251.162 94.5895 251.173C94.5437 251.184 94.4963 251.186 94.4498 251.178V251.135Z" fill="#E3E3E3"/>
<path d="M59.5875 228.627C59.5384 228.637 59.4879 228.637 59.4388 228.627C59.3966 228.608 59.3585 228.581 59.327 228.547C59.2955 228.512 59.2711 228.472 59.2553 228.428C59.2395 228.385 59.2325 228.338 59.2348 228.291C59.2372 228.245 59.2488 228.199 59.2689 228.157C59.4409 227.761 59.6445 227.38 59.8776 227.018L72.7738 206.447C72.7954 206.402 72.8262 206.361 72.8643 206.329C72.9024 206.296 72.9469 206.273 72.9949 206.259C73.0429 206.245 73.0933 206.241 73.1428 206.248C73.1922 206.255 73.2396 206.273 73.2819 206.3C73.3241 206.326 73.3602 206.362 73.3878 206.404C73.4154 206.446 73.434 206.493 73.4421 206.543C73.4503 206.592 73.448 206.643 73.4352 206.691C73.4225 206.74 73.3997 206.785 73.3684 206.825L60.4723 227.395C60.2624 227.731 60.0756 228.081 59.9131 228.442C59.8808 228.5 59.8333 228.548 59.776 228.581C59.7186 228.613 59.6534 228.629 59.5875 228.627Z" fill="#E3E3E3"/>
<path d="M146.457 157.535C146.375 157.535 146.294 157.52 146.217 157.492C146.062 157.447 145.925 157.354 145.826 157.226C145.727 157.098 145.67 156.942 145.665 156.78C145.53 144.87 144.022 131.344 140.158 129.093C138.183 127.94 132.231 129.058 124.685 130.468C114.776 132.327 101.264 134.87 87.1721 134.286C87.1256 134.284 87.0799 134.273 87.0376 134.253C86.9954 134.234 86.9574 134.206 86.9258 134.172C86.8943 134.137 86.8698 134.097 86.8538 134.053C86.8377 134.009 86.8304 133.962 86.8323 133.916C86.8439 133.824 86.8871 133.74 86.9544 133.677C87.0217 133.615 87.1088 133.578 87.2003 133.574C101.229 134.158 114.734 131.622 124.586 129.77C132.57 128.274 138.339 127.192 140.54 128.481C145.728 131.501 146.337 150.896 146.401 156.773C146.4 156.789 146.404 156.806 146.413 156.82C146.422 156.834 146.435 156.845 146.45 156.851C146.468 156.859 146.488 156.859 146.507 156.853C146.525 156.846 146.54 156.833 146.549 156.815L150.449 151.267C151.376 149.946 151.87 148.367 151.865 146.751V132.776C151.913 128.696 150.79 124.69 148.63 121.237C148.605 121.198 148.587 121.153 148.579 121.107C148.571 121.06 148.572 121.013 148.583 120.967C148.593 120.921 148.613 120.878 148.641 120.84C148.668 120.802 148.703 120.77 148.744 120.745C148.824 120.697 148.919 120.682 149.011 120.703C149.102 120.724 149.181 120.781 149.232 120.859C151.461 124.426 152.621 128.563 152.573 132.776V146.715C152.575 148.478 152.034 150.198 151.023 151.637L147.123 157.193C147.049 157.301 146.95 157.39 146.833 157.449C146.717 157.509 146.588 157.538 146.457 157.535Z" fill="#E3E3E3"/>
<path d="M61.3854 188.235C61.0439 188.406 60.6868 188.033 60.8721 187.7C60.8721 187.65 63.8024 182.393 63.6467 177.728C63.6113 176.823 62.8609 175.413 61.9054 173.618C58.0267 166.338 49.9649 151.202 64.68 123.595C69.2878 114.94 74.476 110.446 80.0959 110.225H80.5418C88.5754 110.225 95.7312 118.772 100.36 126.002L99.7656 126.387C91.4277 113.309 84.4701 110.781 80.1383 110.945C74.7874 111.151 69.7974 115.524 65.3171 123.936C50.7789 151.21 58.7203 166.125 62.5425 173.29C63.5758 175.235 64.3262 176.645 64.3686 177.714C64.4748 180.969 63.229 184.38 62.3442 186.368C64.3969 183.946 67.9005 177.4 65.4798 162.15V161.979L65.586 161.851C65.678 161.751 74.7874 151.395 77.9867 140.148L78.6945 140.347C75.6439 151.067 67.3201 161.003 66.2584 162.2C69.5709 183.398 61.7568 188.034 61.4171 188.22L61.3854 188.235Z" fill="#E3E3E3"/>
<path d="M141.495 163.71H115.023L116.552 162.998C116.658 162.955 127.771 158.104 139.803 162.998L141.495 163.71ZM118.739 162.998H137.666C131.502 161.075 124.904 161.075 118.739 162.998Z" fill="#E3E3E3"/>
<path d="M93.6163 163.71H67.1445L68.6734 162.998C68.7796 162.955 79.892 158.104 91.9246 162.998L93.6163 163.71ZM70.8605 162.998H89.787C83.6179 161.076 77.0155 161.076 70.8463 162.998H70.8605Z" fill="#E3E3E3"/>
<path d="M107.473 158.824L107.933 158.147C110.29 154.664 138.368 149.771 139.557 149.564L141.681 149.201L135.218 152.763L141.475 154.85L141.291 155.562C136.124 154.493 108.584 158.689 108.308 158.731L107.473 158.824ZM137.554 150.647C129.273 152.15 113.581 155.377 109.426 157.813C114.211 157.1 131.071 154.671 138.609 154.65L133.421 152.912L137.554 150.647Z" fill="#E3E3E3"/>
<path d="M96.3643 158.824L95.5645 158.703C95.4159 158.703 80.8211 156.452 70.8906 155.647L70.9472 154.935C79.186 155.597 90.617 157.243 94.4037 157.784C91.7707 156.267 84.2609 154.223 73.1697 151.951L73.3112 151.238C87.1204 154.03 94.7293 156.345 95.9608 158.112L96.3643 158.824Z" fill="#E3E3E3"/>
<path d="M98.8637 177.956C101.83 178.692 104.923 178.738 107.909 178.091C107.962 178.08 108.016 178.088 108.063 178.113C108.11 178.137 108.148 178.178 108.169 178.227C108.191 178.276 108.195 178.331 108.181 178.382C108.167 178.434 108.136 178.48 108.093 178.511C106.189 179.658 102.297 181.275 98.6584 178.369C98.6152 178.336 98.5848 178.288 98.5725 178.235C98.5602 178.182 98.5667 178.126 98.591 178.077C98.6154 178.028 98.6559 177.989 98.7057 177.967C98.7555 177.945 98.8114 177.941 98.8637 177.956Z" fill="#E3E3E3"/>
<path d="M102.618 194.573C100.485 194.574 98.3618 194.287 96.3049 193.718C96.2585 193.705 96.2151 193.682 96.1773 193.652C96.1395 193.621 96.108 193.584 96.0847 193.541C96.0614 193.498 96.0467 193.451 96.0413 193.403C96.036 193.355 96.0401 193.306 96.0536 193.259C96.0671 193.212 96.0896 193.168 96.1199 193.13C96.1501 193.092 96.1875 193.061 96.2298 193.037C96.2722 193.014 96.3188 192.999 96.3669 192.994C96.415 192.988 96.4637 192.992 96.5101 193.006C96.5668 193.006 102.611 194.836 108.118 193.006C108.165 192.991 108.213 192.986 108.262 192.991C108.31 192.995 108.357 193.009 108.4 193.032C108.443 193.055 108.482 193.086 108.513 193.124C108.544 193.161 108.567 193.205 108.582 193.252C108.596 193.298 108.601 193.348 108.597 193.396C108.592 193.445 108.578 193.493 108.556 193.536C108.533 193.579 108.502 193.618 108.465 193.649C108.427 193.68 108.384 193.704 108.338 193.718C106.488 194.307 104.558 194.595 102.618 194.573Z" fill="#E3E3E3"/>
<path d="M94.7971 98.8287C96.8746 97.3682 99.3224 96.533 101.854 96.4207C104.386 96.3085 106.897 96.9238 109.095 98.1948C109.15 98.2225 109.195 98.2686 109.22 98.3254C109.246 98.3822 109.251 98.4462 109.235 98.5065C109.22 98.5668 109.184 98.6198 109.133 98.6564C109.083 98.6931 109.022 98.7112 108.96 98.7076C106.129 98.5581 98.6474 98.2731 94.9173 99.0994C94.8828 99.1097 94.8458 99.107 94.813 99.0919C94.7803 99.0767 94.7542 99.0501 94.7395 99.017C94.7248 98.984 94.7225 98.9466 94.7331 98.912C94.7437 98.8774 94.7664 98.8478 94.7971 98.8287Z" fill="#E3E3E3"/>
<path d="M88.5047 188.227C88.4582 188.23 88.4117 188.223 88.3677 188.208C88.3237 188.193 88.283 188.169 88.2482 188.138C88.2133 188.106 88.185 188.069 88.1646 188.027C88.1443 187.984 88.1323 187.939 88.1295 187.892C88.1268 187.845 88.1332 187.798 88.1484 187.754C88.1636 187.71 88.1873 187.669 88.2182 187.634C88.2491 187.599 88.2865 187.57 88.3284 187.55C88.3702 187.529 88.4157 187.517 88.4622 187.514C88.6108 187.514 103.694 185.627 117.963 186.638C118.01 186.641 118.055 186.653 118.096 186.674C118.138 186.694 118.175 186.723 118.205 186.758C118.235 186.793 118.259 186.834 118.273 186.878C118.287 186.923 118.293 186.969 118.289 187.016C118.28 187.108 118.236 187.194 118.166 187.255C118.096 187.316 118.006 187.348 117.914 187.344C103.715 186.346 88.7028 188.198 88.5542 188.22L88.5047 188.227Z" fill="#E3E3E3"/>
<path d="M120.807 102.141C120.745 102.139 120.685 102.122 120.63 102.091C120.549 102.042 120.491 101.963 120.467 101.871C120.443 101.78 120.456 101.682 120.503 101.599C122.36 98.4338 123.466 94.8799 123.736 91.2138C124.006 87.5478 123.432 83.8685 122.059 80.4621C120.686 77.0556 118.551 74.0137 115.819 71.5729C113.088 69.1322 109.833 67.3583 106.31 66.3892C102.786 65.4201 99.0875 65.2818 95.5021 65.9853C91.9166 66.6887 88.5407 68.2149 85.6367 70.445C82.7328 72.6752 80.3791 75.5493 78.7587 78.8439C77.1383 82.1385 76.2948 85.7648 76.2937 89.4409C76.2933 90.6736 76.3856 91.9047 76.5698 93.1234C76.5768 93.1697 76.5747 93.2169 76.5636 93.2624C76.5524 93.3079 76.5324 93.3507 76.5048 93.3885C76.4772 93.4262 76.4425 93.458 76.4026 93.4822C76.3627 93.5064 76.3185 93.5224 76.2725 93.5294C76.1798 93.5417 76.086 93.5175 76.0108 93.4617C75.9355 93.4059 75.8848 93.3229 75.8691 93.2302C75.682 91.9758 75.5874 90.7093 75.5859 89.4409C75.5869 85.6552 76.4555 81.9207 78.1242 78.5279C79.793 75.135 82.2169 72.1752 85.2074 69.8785C88.198 67.5819 91.6745 66.0103 95.3669 65.2859C99.0593 64.5615 102.868 64.7039 106.497 65.702C110.126 66.7001 113.477 68.527 116.29 71.0407C119.103 73.5543 121.302 76.687 122.715 80.1951C124.129 83.7032 124.72 87.4923 124.442 91.2676C124.164 95.0429 123.024 98.7028 121.112 101.963C121.081 102.017 121.036 102.061 120.983 102.093C120.93 102.124 120.869 102.14 120.807 102.141Z" fill="#E3E3E3"/>
<path d="M56.5172 174.985C56.431 174.986 56.3478 174.954 56.2837 174.896C56.2196 174.838 56.1792 174.758 56.1704 174.672C56.1704 174.544 54.5212 161.851 49.2623 158.653C49.1952 158.599 49.1498 158.523 49.1346 158.438C49.1193 158.353 49.1352 158.265 49.1793 158.191C49.2234 158.117 49.2928 158.062 49.3745 158.035C49.4561 158.009 49.5445 158.013 49.6232 158.047C55.1795 161.409 56.8003 174.052 56.8711 174.586C56.8812 174.681 56.8542 174.775 56.796 174.85C56.7378 174.924 56.6531 174.973 56.5597 174.985H56.5172Z" fill="#E3E3E3"/>
<path d="M148.162 170.341C148.081 170.341 148.002 170.313 147.938 170.261C147.875 170.209 147.832 170.137 147.815 170.056C146.584 163.76 152.253 157.713 152.494 157.456C152.525 157.418 152.564 157.387 152.607 157.365C152.65 157.343 152.698 157.33 152.746 157.327C152.795 157.324 152.844 157.332 152.889 157.349C152.935 157.366 152.977 157.392 153.012 157.426C153.047 157.46 153.075 157.5 153.094 157.546C153.112 157.591 153.122 157.639 153.121 157.688C153.12 157.737 153.109 157.786 153.089 157.83C153.069 157.875 153.04 157.915 153.004 157.948C152.947 158.012 147.341 163.988 148.509 169.921C148.518 169.966 148.519 170.013 148.51 170.059C148.501 170.104 148.483 170.147 148.457 170.186C148.431 170.224 148.398 170.257 148.36 170.283C148.322 170.308 148.278 170.326 148.233 170.334L148.162 170.341Z" fill="#E3E3E3"/>
<path d="M121.286 283.188H121.216C104.993 280.339 71.3794 283.188 71.0397 283.188C70.9481 283.19 70.8586 283.159 70.7882 283.1C70.7178 283.041 70.6713 282.958 70.6575 282.867C70.6536 282.82 70.659 282.773 70.6733 282.729C70.6876 282.684 70.7105 282.642 70.7408 282.607C70.771 282.571 70.808 282.542 70.8496 282.52C70.8912 282.499 70.9366 282.486 70.9831 282.483C71.3229 282.483 105.028 279.634 121.343 282.483C121.437 282.491 121.524 282.537 121.584 282.609C121.644 282.682 121.674 282.776 121.665 282.871C121.657 282.965 121.611 283.052 121.539 283.113C121.467 283.174 121.373 283.203 121.279 283.195L121.286 283.188Z" fill="#E3E3E3"/>
<ellipse cx="103.547" cy="31.0021" rx="20.9184" ry="21.0182" fill="#CE7783"/>
<ellipse cx="26.1488" cy="71.462" rx="20.9184" ry="21.0182" fill="#EAB669"/>
<ellipse cx="182.512" cy="83.5475" rx="20.9184" ry="21.0182" fill="#71A5D2"/>
<path d="M101.739 47.5591C98.271 47.5597 94.8455 46.7923 91.7053 45.3112C88.5651 43.8302 85.7873 41.6718 83.569 38.9892C81.3507 36.3067 79.7462 33.1657 78.8693 29.7892C77.9925 26.4127 77.865 22.8834 78.4956 19.4516C79.1262 16.0199 80.4995 12.7699 82.5182 9.93218C84.5369 7.09447 87.1514 4.73861 90.1763 3.03176C93.2011 1.32491 96.5623 0.308875 100.021 0.0557885C103.48 -0.197298 106.952 0.318736 110.19 1.56729C110.238 1.57958 110.284 1.602 110.323 1.63307C110.362 1.66414 110.394 1.70314 110.417 1.74758C110.44 1.79202 110.454 1.84087 110.457 1.89091C110.46 1.94096 110.452 1.9911 110.435 2.03803C110.417 2.08496 110.39 2.12762 110.355 2.16324C110.32 2.19886 110.278 2.22666 110.231 2.24475C110.185 2.26285 110.135 2.27086 110.085 2.26827C110.035 2.26568 109.987 2.25253 109.942 2.22971C105.152 0.382279 99.884 0.205243 94.9816 1.72689C90.0793 3.24853 85.8258 6.38095 82.9016 10.6229C79.9775 14.8649 78.5518 19.9713 78.8525 25.1251C79.1532 30.279 81.163 35.1824 84.5604 39.0508C87.9578 42.9193 92.5465 45.5291 97.5921 46.4629C102.638 47.3967 107.849 46.6005 112.392 44.2015C116.934 41.8025 120.546 37.9395 122.649 33.2306C124.752 28.5216 125.225 23.2389 123.992 18.2275C123.971 18.1359 123.987 18.0396 124.036 17.9595C124.085 17.8794 124.163 17.8221 124.254 17.8002C124.299 17.7874 124.346 17.784 124.392 17.7902C124.438 17.7963 124.482 17.8119 124.522 17.8359C124.561 17.8599 124.596 17.8919 124.623 17.9298C124.65 17.9678 124.669 18.0109 124.679 18.0566C125.542 21.5606 125.6 25.2163 124.851 28.7466C124.101 32.2769 122.562 35.5891 120.352 38.4322C118.141 41.2753 115.316 43.5746 112.091 45.156C108.867 46.7373 105.326 47.5591 101.739 47.5591Z" fill="#E3E3E3"/>
<path d="M181.381 101.742C176.589 101.742 171.909 100.279 167.961 97.5461C164.013 94.8131 160.982 90.9387 159.269 86.4352C158.917 85.5043 158.622 84.5529 158.384 83.5861C158.363 83.4916 158.379 83.3924 158.43 83.3103C158.481 83.2281 158.563 83.1698 158.657 83.1481C158.751 83.1263 158.849 83.143 158.931 83.1944C159.012 83.2459 159.07 83.3278 159.092 83.4223C159.866 86.5994 161.302 89.5748 163.304 92.152C165.306 94.7291 167.829 96.8492 170.706 98.3722C173.583 99.8951 176.748 100.786 179.993 100.987C183.237 101.187 186.487 100.692 189.527 99.534C195.113 97.2858 199.597 92.9179 202.012 87.3727C204.427 81.8274 204.579 75.5492 202.435 69.8923C200.291 64.2354 196.023 59.6532 190.553 57.1342C185.082 54.6151 178.847 54.3611 173.191 56.4269C171.219 57.1835 169.359 58.2093 167.663 59.4754C167.588 59.5321 167.494 59.5565 167.401 59.5431C167.308 59.5298 167.224 59.4798 167.168 59.4042C167.112 59.3287 167.088 59.2337 167.101 59.1402C167.114 59.0467 167.164 58.9623 167.239 58.9056C171.434 55.7599 176.548 54.1041 181.779 54.1976C187.01 54.2911 192.062 56.1287 196.144 59.4223C200.226 62.7159 203.106 67.2794 204.333 72.3974C205.561 77.5154 205.066 82.8985 202.926 87.7031C201.056 91.8799 198.029 95.4258 194.208 97.9157C190.387 100.406 185.933 101.734 181.381 101.742Z" fill="#E3E3E3"/>
<path d="M34.1589 98.8927C34.1125 98.9035 34.0644 98.9049 34.0173 98.8969C33.9703 98.889 33.9253 98.8718 33.8849 98.8463C33.8032 98.7949 33.7452 98.7129 33.7237 98.6185C33.7021 98.524 33.7186 98.4248 33.7697 98.3427C33.8208 98.2605 33.9023 98.2022 33.9962 98.1804C38.4379 95.9113 42.0242 92.2477 44.2119 87.7441C46.3996 83.2406 47.0697 78.1424 46.1208 73.2213C45.1718 68.3003 42.6554 63.8243 38.9527 60.4711C35.2499 57.1179 30.5623 55.07 25.5995 54.6375C20.6367 54.2049 15.6691 55.4112 11.4485 58.0739C7.22797 60.7365 3.98437 64.7104 2.20877 69.394C0.433169 74.0776 0.222229 79.2158 1.60793 84.0308C2.99364 88.8458 5.90051 93.0754 9.88846 96.0792C9.92643 96.1066 9.95849 96.1415 9.98273 96.1818C10.007 96.222 10.0229 96.2667 10.0295 96.3133C10.0361 96.3599 10.0333 96.4073 10.0213 96.4528C10.0092 96.4982 9.98813 96.5408 9.95931 96.5778C9.93195 96.6158 9.89735 96.6479 9.85762 96.6724C9.81788 96.6969 9.77379 96.7132 9.72776 96.7205C9.68172 96.7278 9.63463 96.7259 9.58934 96.7148C9.54405 96.7038 9.50141 96.6838 9.4638 96.6561C4.88908 93.2295 1.6999 88.2539 0.484456 82.6468C-0.730988 77.0397 0.109268 71.1794 2.8503 66.1468C5.59133 61.1142 10.0482 57.2488 15.399 55.2634C20.7497 53.2781 26.6334 53.3067 31.9648 55.344C36.2529 56.971 39.9782 59.8179 42.687 63.5378C45.3958 67.2577 46.971 71.6902 47.2208 76.2951C47.4706 80.9001 46.3843 85.4787 44.094 89.4733C41.8037 93.4678 38.4084 96.7059 34.3217 98.793C34.2778 98.8409 34.2214 98.8754 34.1589 98.8927Z" fill="#E3E3E3"/>
</g>
<defs>
<clipPath id="clip0_4935_8197">
<rect width="205" height="289" fill="white"/>
</clipPath>
</defs>
</svg>
