<svg width="108" height="97" viewBox="0 0 108 97" fill="none" xmlns="http://www.w3.org/2000/svg">
    <ellipse cx="61.0896" cy="43.5719" rx="43.3942" ry="43.4" fill="#71A5D2"/>
    <path d="M106.258 2.38574L48.5916 66.0642L27 47" stroke="#E3E3E3" stroke-width="2" stroke-linecap="round" stroke-linejoin="round"/>
    <path d="M93.4954 39.0337C95.8397 49.3183 94.6152 60.0946 90.0232 69.5908C85.4312 79.0871 77.745 86.7379 68.2284 91.2855C58.7118 95.8331 47.9313 97.0068 37.6592 94.6134C27.3872 92.2201 18.2352 86.4024 11.7078 78.1166C5.18051 69.8309 1.66645 59.5705 1.74343 49.0223C1.8204 38.4741 5.48382 28.266 12.1314 20.0764C18.7789 11.8869 28.0149 6.2033 38.3208 3.96019C48.6266 1.71708 59.3889 3.04796 68.8381 7.73399" stroke="#E3E3E3" stroke-width="2" stroke-linecap="round" stroke-linejoin="round"/>
</svg>
