<svg width="594" height="473" viewBox="0 0 594 473" fill="none" xmlns="http://www.w3.org/2000/svg">
<path d="M108.121 174.125C108.769 188.185 112.532 199.598 117.927 208.83C109.084 203.874 99.3897 200.619 89.3472 199.233C76.0414 189.182 63.7606 173.228 60.9813 148.101C60.9146 147.509 60.9885 146.91 61.197 146.352C61.4054 145.794 61.7425 145.293 62.181 144.889C62.6194 144.486 63.1468 144.192 63.7203 144.03C64.2937 143.869 64.8972 143.845 65.4816 143.961C75.0497 145.822 96.5734 151.881 111.712 170.163C110.713 170.218 109.775 170.665 109.103 171.406C108.431 172.148 108.078 173.125 108.121 174.125Z" stroke="#E3E3E3" stroke-miterlimit="10" stroke-linecap="round"/>
<path d="M186.52 155.59C184.518 152.077 182.277 148.705 179.814 145.498C179.451 145.027 178.983 144.648 178.447 144.391C177.91 144.134 177.321 144.007 176.727 144.02C176.132 144.033 175.549 144.185 175.025 144.464C174.5 144.744 174.048 145.143 173.706 145.629C168.25 153.25 164.227 161.801 161.835 170.863C158.929 165.523 155.452 160.515 151.464 155.926C148.517 139.021 150.505 118.165 166.86 97.4557C167.231 96.9897 167.706 96.6172 168.246 96.3683C168.787 96.1193 169.379 96.0008 169.974 96.0224C170.569 96.0439 171.151 96.2049 171.672 96.4923C172.194 96.7798 172.641 97.1856 172.977 97.6772C178.993 106.48 191.676 128.911 186.52 155.59Z" stroke="#E3E3E3" stroke-miterlimit="10" stroke-linecap="round"/>
<path d="M147.783 246.631C131.502 250.648 77.708 259.232 45.4523 207.943C45.1364 207.446 44.9407 206.883 44.8806 206.297C44.8205 205.711 44.8978 205.12 45.1063 204.569C45.3148 204.018 45.6487 203.524 46.0816 203.125C46.5145 202.726 47.0345 202.433 47.6002 202.27C61.1625 198.42 75.3695 197.388 89.346 199.236C102.669 201.045 115.323 206.176 126.143 214.158C134.727 220.503 142.916 229.201 150.099 240.991C150.408 241.497 150.594 242.07 150.641 242.662C150.688 243.253 150.596 243.848 150.37 244.397C150.145 244.947 149.793 245.435 149.344 245.823C148.894 246.211 148.36 246.488 147.783 246.631V246.631Z" stroke="#E3E3E3" stroke-miterlimit="10" stroke-linecap="round"/>
<path d="M169.541 229.299C162.916 189.201 129.755 175.181 115.059 170.885C112.483 158.889 112.366 146.495 114.715 134.453C114.817 133.872 115.054 133.323 115.406 132.849C115.758 132.375 116.216 131.99 116.743 131.725C117.269 131.459 117.851 131.319 118.441 131.318C119.031 131.316 119.613 131.452 120.142 131.714C132.036 137.703 142.668 145.922 151.46 155.924C159.991 165.654 166.063 177.287 169.168 189.849C171.918 201.134 172.484 214.23 169.541 229.299Z" stroke="#E3E3E3" stroke-miterlimit="10" stroke-linecap="round"/>
<path d="M226.133 165.78C225.753 169.391 225.145 172.975 224.313 176.511C212.925 182.209 203.37 190.996 196.739 201.868C196.747 201.745 196.764 201.622 196.78 201.508C196.853 200.937 196.911 200.36 196.961 199.796C197.026 199.05 197.083 198.303 197.124 197.566C197.157 197.09 197.181 196.615 197.19 196.148C197.214 195.705 197.222 195.263 197.231 194.828C197.314 188.521 196.551 182.231 194.96 176.127C194.746 175.292 194.517 174.471 194.279 173.66C194.042 172.849 193.795 172.053 193.533 171.266C193.27 170.479 193.009 169.708 192.729 168.946C192.45 168.183 192.172 167.437 191.874 166.708C191.726 166.339 191.578 165.97 191.431 165.609C190.684 163.803 189.898 162.084 189.094 160.452C188.291 158.821 187.471 157.279 186.651 155.837C193.038 144.752 202.695 134.063 217.026 125.052C217.524 124.735 218.089 124.538 218.677 124.477C219.265 124.417 219.859 124.494 220.411 124.704C220.963 124.913 221.459 125.248 221.859 125.683C222.26 126.118 222.553 126.64 222.716 127.208C226.262 139.737 227.421 152.822 226.133 165.78Z" stroke="#E3E3E3" stroke-miterlimit="10" stroke-linecap="round"/>
<path d="M279.644 142.914C277.971 152.285 272.47 173.109 255.418 188.447C250.944 192.473 245.944 195.871 240.554 198.548C241.284 196.54 241.915 194.564 242.456 192.653C244.146 186.664 245.193 180.512 245.58 174.302C245.616 173.708 245.511 173.115 245.275 172.569C245.039 172.023 244.677 171.541 244.22 171.161C243.762 170.781 243.221 170.515 242.641 170.383C242.061 170.251 241.458 170.258 240.882 170.404C235.148 171.815 229.591 173.863 224.313 176.511C225.146 172.976 225.753 169.391 226.133 165.78C236.062 153.039 251.516 141.512 275.438 138.479C276.028 138.405 276.628 138.472 277.187 138.673C277.747 138.873 278.252 139.203 278.661 139.634C279.071 140.066 279.373 140.588 279.543 141.157C279.714 141.727 279.748 142.329 279.644 142.914Z" stroke="#E3E3E3" stroke-miterlimit="10" stroke-linecap="round"/>
<path d="M294.672 193.128C287.178 208.492 257.73 257.493 192.496 242.441L192.57 242.269C221.247 234.341 234.471 215.222 240.555 198.547C245.944 195.87 250.945 192.472 255.418 188.446C267.4 185.742 279.806 185.499 291.884 187.733C292.466 187.83 293.017 188.061 293.493 188.408C293.97 188.755 294.359 189.208 294.63 189.732C294.901 190.256 295.045 190.836 295.053 191.425C295.06 192.015 294.929 192.598 294.672 193.128Z" stroke="#E3E3E3" stroke-miterlimit="10" stroke-linecap="round"/>
<path d="M108.783 175.202C123.213 178.988 164.935 194.365 166.561 245.835C166.58 246.436 166.456 247.034 166.199 247.578C165.941 248.122 165.558 248.597 165.081 248.964C164.604 249.331 164.046 249.579 163.454 249.688C162.862 249.796 162.253 249.762 161.676 249.589C147.319 245.259 106.3 228.594 104.024 179.038C103.998 178.443 104.112 177.851 104.357 177.309C104.602 176.767 104.971 176.29 105.434 175.917C105.897 175.544 106.441 175.284 107.023 175.16C107.605 175.036 108.208 175.05 108.783 175.202Z" fill="#71A5D2"/>
<path d="M175.719 150.418C184.827 162.233 208.455 199.901 178.286 241.636C177.934 242.124 177.47 242.521 176.934 242.795C176.398 243.068 175.804 243.21 175.202 243.209C174.6 243.208 174.007 243.063 173.472 242.787C172.937 242.511 172.476 242.112 172.126 241.623C163.405 229.42 141.122 191.163 169.6 150.55C169.942 150.062 170.395 149.662 170.92 149.381C171.446 149.1 172.03 148.947 172.626 148.934C173.222 148.922 173.812 149.049 174.349 149.307C174.887 149.565 175.356 149.945 175.719 150.418Z" fill="#71A5D2"/>
<path d="M241.489 179.225C240.614 193.88 233.834 236.576 185.056 248.064C184.47 248.202 183.86 248.199 183.276 248.054C182.691 247.909 182.15 247.628 181.696 247.232C181.242 246.836 180.889 246.338 180.666 245.779C180.443 245.22 180.357 244.616 180.414 244.016C181.826 229.323 189.964 187.057 236.787 175.319C237.364 175.175 237.968 175.169 238.548 175.301C239.128 175.433 239.669 175.701 240.127 176.081C240.585 176.461 240.947 176.944 241.184 177.49C241.42 178.036 241.525 178.63 241.489 179.225Z" fill="#71A5D2"/>
<path d="M169.546 229.298C162.921 189.2 129.759 175.18 115.064 170.884C114.277 170.655 113.556 170.45 112.883 170.278C112.501 170.176 112.105 170.138 111.711 170.164C110.712 170.219 109.775 170.665 109.102 171.406C108.43 172.147 108.077 173.123 108.12 174.123C108.767 188.183 112.531 199.595 117.925 208.828C131.522 232.135 155.49 241.571 165.778 244.674C166.354 244.846 166.963 244.879 167.555 244.77C168.146 244.661 168.703 244.413 169.179 244.046C169.656 243.679 170.039 243.205 170.295 242.661C170.552 242.117 170.676 241.52 170.657 240.919C170.54 237.025 170.169 233.143 169.546 229.298V229.298Z" stroke="#E3E3E3" stroke-miterlimit="10" stroke-linecap="round"/>
<path d="M197.236 194.827C197.227 195.262 197.219 195.704 197.195 196.147C197.179 196.614 197.162 197.089 197.129 197.564C197.088 198.302 197.034 199.049 196.966 199.795C196.916 200.361 196.851 200.936 196.785 201.507C196.769 201.621 196.752 201.744 196.744 201.867C195.623 210.543 192.901 218.935 188.717 226.618C186.84 230.125 184.726 233.5 182.388 236.718C182.036 237.206 181.572 237.603 181.036 237.877C180.5 238.15 179.907 238.292 179.305 238.29C178.703 238.288 178.11 238.143 177.576 237.867C177.041 237.591 176.58 237.191 176.231 236.701C169.352 227.085 154.046 201.26 161.835 170.861C164.227 161.798 168.249 153.247 173.706 145.627C174.048 145.141 174.5 144.742 175.024 144.462C175.549 144.183 176.132 144.03 176.727 144.017C177.321 144.005 177.91 144.132 178.446 144.389C178.983 144.645 179.451 145.025 179.814 145.496C182.277 148.704 184.518 152.077 186.521 155.591L186.66 155.838C187.48 157.28 188.3 158.821 189.103 160.453C189.907 162.085 190.693 163.806 191.439 165.61C191.587 165.971 191.735 166.339 191.882 166.708C192.168 167.438 192.453 168.184 192.738 168.947C193.023 169.709 193.28 170.479 193.542 171.267C193.803 172.054 194.05 172.849 194.288 173.661C194.526 174.473 194.755 175.292 194.969 176.128C196.558 182.232 197.321 188.521 197.236 194.827Z" stroke="#E3E3E3" stroke-miterlimit="10" stroke-linecap="round"/>
<path d="M245.582 174.306C245.196 180.516 244.149 186.668 242.459 192.657C242.457 192.674 242.451 192.69 242.443 192.705C242.311 193.164 242.18 193.632 242.033 194.099C241.938 194.436 241.836 194.78 241.721 195.124C241.565 195.616 241.401 196.116 241.237 196.616C241.22 196.656 241.206 196.697 241.196 196.739C240.992 197.338 240.778 197.944 240.557 198.546C234.472 215.221 221.25 234.34 192.572 242.268C191.456 242.579 190.317 242.872 189.154 243.145C188.568 243.283 187.957 243.279 187.373 243.134C186.789 242.989 186.247 242.707 185.793 242.311C185.34 241.916 184.987 241.417 184.764 240.858C184.542 240.298 184.455 239.694 184.513 239.095C185.251 231.438 187.808 216.275 196.745 201.866C203.376 190.995 212.931 182.208 224.319 176.509C229.596 173.861 235.154 171.813 240.887 170.402C241.464 170.257 242.067 170.25 242.647 170.383C243.227 170.515 243.768 170.782 244.225 171.162C244.683 171.543 245.044 172.025 245.28 172.572C245.516 173.118 245.619 173.712 245.582 174.306Z" stroke="#E3E3E3" stroke-miterlimit="10" stroke-linecap="round"/>
<path d="M114.766 176.36C114.766 176.36 146.4 204.028 153.197 220.953" stroke="#E3E3E3" stroke-miterlimit="10" stroke-linecap="round"/>
<path d="M115.72 186.956C115.72 186.956 122.241 184.19 125.228 186.094C125.228 186.094 125.25 181.504 128.693 180.307" stroke="#E3E3E3" stroke-miterlimit="10" stroke-linecap="round"/>
<path d="M119.878 196.083C119.878 196.083 124.763 191.199 132.949 193.82C132.903 192.239 133.405 190.691 134.372 189.439C135.338 188.187 136.709 187.309 138.25 186.955" stroke="#E3E3E3" stroke-miterlimit="10" stroke-linecap="round"/>
<path d="M126.185 208.911C126.185 208.911 133.45 203.465 142.356 204.012C142.356 204.012 143.148 195.594 148.488 195.17" stroke="#E3E3E3" stroke-miterlimit="10" stroke-linecap="round"/>
<path d="M139.39 222.584C139.39 222.584 143.113 216.593 151.661 217.685C151.661 217.685 151.436 209.407 156.377 207.496" stroke="#E3E3E3" stroke-miterlimit="10" stroke-linecap="round"/>
<path d="M177.781 150.994C177.781 150.994 182.949 183.971 181.383 208.827" stroke="#E3E3E3" stroke-miterlimit="10" stroke-linecap="round"/>
<path d="M172.654 163.045C172.654 163.045 178.683 162.494 179.634 166.72C179.634 166.72 181.359 161.206 185.508 161.206" stroke="#E3E3E3" stroke-miterlimit="10" stroke-linecap="round"/>
<path d="M168.869 175.713C168.869 175.713 179.175 175.084 180.799 179.91C180.799 179.91 183.747 173.615 190.84 173.615" stroke="#E3E3E3" stroke-miterlimit="10" stroke-linecap="round"/>
<path d="M170.53 190.116C170.53 190.116 178.783 188.404 181.654 193.694C181.654 193.694 183.155 189.346 190.247 189.346" stroke="#E3E3E3" stroke-miterlimit="10" stroke-linecap="round"/>
<path d="M172.497 201.998C172.497 201.998 179.284 200.179 181.649 205.801C181.649 205.801 182.885 201.18 188.716 201.18" stroke="#E3E3E3" stroke-miterlimit="10" stroke-linecap="round"/>
<path d="M235.846 181.876C235.846 181.876 218.417 195.022 207.311 212.413" stroke="#E3E3E3" stroke-miterlimit="10" stroke-linecap="round"/>
<path d="M234.896 192.472C234.896 192.472 228.335 189.096 225.346 191C225.346 191 225.367 187.02 221.923 185.822" stroke="#E3E3E3" stroke-miterlimit="10" stroke-linecap="round"/>
<path d="M230.732 201.601C230.732 201.601 225.844 196.315 217.659 198.939C217.659 198.939 217.999 193.995 212.36 192.473" stroke="#E3E3E3" stroke-miterlimit="10" stroke-linecap="round"/>
<path d="M224.428 214.429C220.18 210.998 214.823 209.241 209.369 209.491C209.369 209.491 207.467 201.112 202.125 200.687" stroke="#E3E3E3" stroke-miterlimit="10" stroke-linecap="round"/>
<path d="M228.801 268.568H226.499C228.382 268.562 230.186 267.812 231.518 266.48C232.849 265.149 233.6 263.345 233.606 261.462V248.028C233.6 246.145 232.849 244.341 231.518 243.009C230.186 241.678 228.382 240.927 226.499 240.922H114.544C112.661 240.927 110.857 241.678 109.525 243.009C108.194 244.341 107.443 246.145 107.437 248.028V261.462C107.443 263.345 108.194 265.149 109.525 266.48C110.857 267.812 112.661 268.562 114.544 268.568H112.241C108.137 268.58 104.205 270.216 101.304 273.117C98.4019 276.019 96.7664 279.951 96.7544 284.055V344.289C96.7664 348.393 98.4018 352.325 101.304 355.227C104.205 358.129 108.137 359.764 112.241 359.777H228.801C232.905 359.765 236.837 358.129 239.739 355.227C242.641 352.325 244.277 348.393 244.289 344.289V284.055C244.277 279.951 242.641 276.019 239.739 273.117C236.837 270.215 232.905 268.58 228.801 268.568Z" fill="#EAB669"/>
<path d="M214.836 371.231C214.83 373.114 214.079 374.918 212.748 376.25C211.416 377.581 209.612 378.332 207.729 378.338H119.095C117.212 378.332 115.408 377.581 114.076 376.25C112.745 374.918 111.994 373.114 111.988 371.231V367.504" stroke="#E3E3E3" stroke-miterlimit="10" stroke-linecap="round"/>
<path d="M237.186 288.792V349.026C237.174 353.13 235.538 357.063 232.635 359.965C229.732 362.867 225.798 364.502 221.694 364.512H220.062C210.924 361.107 203.966 350.181 198.63 342.032C197.428 340.196 196.303 338.503 195.261 337.063C193.419 334.744 191.052 331.194 188.089 333.563C186.312 334.748 186.312 337.709 185.969 339.817C185.566 341.712 185.281 343.476 185.098 345.123C183.896 355.966 187.195 361.598 191.275 364.512H105.135C101.031 364.501 97.0984 362.865 94.1966 359.964C91.2948 357.062 89.6595 353.129 89.6479 349.026V288.792C89.6606 284.689 91.2963 280.757 94.1979 277.855C97.0994 274.954 101.031 273.318 105.135 273.305H107.438C105.555 273.3 103.751 272.549 102.42 271.218C101.088 269.886 100.338 268.082 100.332 266.199V252.768C100.338 250.885 101.088 249.081 102.42 247.749C103.751 246.418 105.555 245.667 107.438 245.661H219.396C221.278 245.667 223.083 246.418 224.414 247.749C225.745 249.081 226.496 250.885 226.502 252.768V266.199C226.496 268.082 225.745 269.886 224.414 271.218C223.083 272.549 221.278 273.3 219.396 273.305H221.694C225.798 273.317 229.731 274.952 232.634 277.854C235.537 280.755 237.173 284.688 237.186 288.792V288.792Z" stroke="#E3E3E3" stroke-miterlimit="10" stroke-linecap="round"/>
<path d="M89.6479 306.881C100.367 313.981 113.731 320.907 126.522 320.575C133.2 320.403 139.584 316.506 142.194 310.252C145.225 302.988 142.108 294.856 137.046 289.338C129.237 280.82 112.208 273.774 106.363 288.215C104.473 292.872 104.376 299.225 108.988 302.342C114.061 305.769 120.503 303.802 121.051 300.056" stroke="#E3E3E3" stroke-miterlimit="10" stroke-linecap="round"/>
<path d="M237.186 310.443C228.717 304.147 217.352 301.719 205.627 304.757C203.009 305.438 175.548 312.592 176.099 304.166C176.289 301.257 180.452 299.351 182.383 297.681C191.254 290.005 200.871 283.361 208.854 274.663C215.901 266.988 221.782 258.028 224.69 248.043" stroke="#E3E3E3" stroke-miterlimit="10" stroke-linecap="round"/>
<path d="M163.135 245.661C163.358 246.314 163.664 246.935 164.047 247.509C166.308 250.858 170.792 251.717 174.795 252.258C178.798 252.8 183.282 253.597 185.609 256.908C187.8 260.028 187.226 264.387 185.503 267.786C183.78 271.186 180.349 273.868 178.923 277.339C178.669 278.059 178.588 278.83 178.687 279.587C178.786 280.345 179.062 281.069 179.493 281.7C179.924 282.331 180.497 282.851 181.167 283.219C181.836 283.587 182.583 283.792 183.347 283.817C191.638 284.41 196.967 274.934 199.935 268.014C200.835 265.935 201.534 264.058 202.007 262.702C202.48 261.345 202.729 260.505 202.729 260.505" stroke="#E3E3E3" stroke-miterlimit="10" stroke-linecap="round"/>
<path d="M220.056 364.511H191.269C187.189 361.597 183.89 355.965 185.092 345.122C185.276 343.475 185.56 341.711 185.962 339.815C186.306 337.708 186.306 334.748 188.083 333.562C191.044 331.193 193.408 334.746 195.255 337.062C196.297 338.501 197.422 340.195 198.624 342.031C203.96 350.18 210.918 361.106 220.056 364.511Z" stroke="#E3E3E3" stroke-miterlimit="10" stroke-linecap="round"/>
<path d="M163.136 337.939C135.853 366.271 102.576 346.805 89.6479 337.235V288.794C89.6606 284.69 91.2963 280.759 94.1979 277.857C97.0994 274.956 101.031 273.32 105.135 273.307H107.438C105.555 273.301 103.751 272.551 102.42 271.219C101.088 269.888 100.338 268.084 100.332 266.201V252.768C100.338 250.885 101.088 249.081 102.42 247.749C103.751 246.418 105.555 245.667 107.438 245.661H126.271C153.95 262.527 191.165 308.826 163.136 337.939Z" stroke="#E3E3E3" stroke-miterlimit="10" stroke-linecap="round"/>
<path d="M106.672 397.721C85.7115 364.878 59.1079 387.825 52.0557 394.91C51.8942 395.072 51.701 395.193 51.4903 395.264C51.2795 395.335 51.0566 395.355 50.8379 395.321C28.9993 392.128 10.8611 403.955 3.60619 409.628C3.35401 409.826 3.16669 410.105 3.07105 410.424C2.97541 410.744 2.97635 411.087 3.07374 411.406C3.17113 411.725 3.35997 412.002 3.61323 412.199C3.86649 412.395 4.17118 412.501 4.48369 412.5H124.518C124.799 412.5 125.074 412.414 125.312 412.252C125.549 412.091 125.739 411.86 125.859 411.587C125.979 411.314 126.024 411.01 125.988 410.71C125.953 410.411 125.839 410.128 125.66 409.896C119.453 401.942 113.331 398.83 107.766 398.414C107.547 398.394 107.335 398.322 107.145 398.202C106.956 398.081 106.794 397.917 106.672 397.721Z" fill="#CE7783"/>
<path d="M106.603 386.374C85.8464 354.037 59.6181 376.854 52.6516 383.913C52.4921 384.074 52.3015 384.194 52.0936 384.265C51.8858 384.336 51.6659 384.356 51.4501 384.323C29.7882 381.127 11.7961 392.956 4.60076 398.627C4.35083 398.825 4.16521 399.104 4.07043 399.423C3.97564 399.743 3.97655 400.086 4.07303 400.405C4.1695 400.724 4.3566 401.001 4.60757 401.198C4.85855 401.394 5.16056 401.5 5.47042 401.5H124.526C124.806 401.501 125.079 401.415 125.315 401.254C125.551 401.093 125.74 400.862 125.859 400.589C125.978 400.315 126.023 400.011 125.989 399.711C125.954 399.411 125.841 399.128 125.663 398.895C119.652 391.128 113.72 387.975 108.305 387.446C107.966 387.413 107.638 387.3 107.344 387.115C107.05 386.93 106.797 386.677 106.603 386.374Z" stroke="#E3E3E3" stroke-miterlimit="10" stroke-linecap="round"/>
<circle cx="278.893" cy="292.893" r="91.8931" fill="#F6F6FA"/>
<path fill-rule="evenodd" clip-rule="evenodd" d="M279.058 227.693L294.539 236.207L294.037 237.112L278.557 228.597L279.058 227.693Z" fill="#108CB9"/>
<path d="M278.856 230.132C280.001 230.132 280.93 229.207 280.93 228.066C280.93 226.925 280.001 226 278.856 226C277.71 226 276.782 226.925 276.782 228.066C276.782 229.207 277.71 230.132 278.856 230.132Z" fill="#108CB9"/>
<path d="M294.288 238.725C295.434 238.725 296.362 237.8 296.362 236.66C296.362 235.519 295.434 234.594 294.288 234.594C293.142 234.594 292.214 235.519 292.214 236.66C292.214 237.8 293.142 238.725 294.288 238.725Z" fill="#108CB9"/>
<path fill-rule="evenodd" clip-rule="evenodd" d="M279.063 228.595L263.579 237.224L263.073 236.322L278.556 227.694L279.063 228.595Z" fill="#108CB9"/>
<path d="M263.324 238.725C264.47 238.725 265.398 237.8 265.398 236.66C265.398 235.519 264.47 234.594 263.324 234.594C262.179 234.594 261.25 235.519 261.25 236.66C261.25 237.8 262.179 238.725 263.324 238.725Z" fill="#108CB9"/>
<path fill-rule="evenodd" clip-rule="evenodd" d="M278.557 358.403L294.037 349.885L294.539 350.789L279.059 359.307L278.557 358.403Z" fill="#108CB9"/>
<path d="M278.856 361C280.001 361 280.93 360.075 280.93 358.934C280.93 357.793 280.001 356.868 278.856 356.868C277.71 356.868 276.782 357.793 276.782 358.934C276.782 360.075 277.71 361 278.856 361Z" fill="#108CB9"/>
<path d="M294.288 352.403C295.434 352.403 296.362 351.478 296.362 350.337C296.362 349.196 295.434 348.271 294.288 348.271C293.142 348.271 292.214 349.196 292.214 350.337C292.214 351.478 293.142 352.403 294.288 352.403Z" fill="#108CB9"/>
<path fill-rule="evenodd" clip-rule="evenodd" d="M278.556 359.305L263.073 350.677L263.579 349.776L279.063 358.404L278.556 359.305Z" fill="#108CB9"/>
<path d="M263.324 352.403C264.47 352.403 265.398 351.478 265.398 350.337C265.398 349.196 264.47 348.271 263.324 348.271C262.179 348.271 261.25 349.196 261.25 350.337C261.25 351.478 262.179 352.403 263.324 352.403Z" fill="#108CB9"/>
<path fill-rule="evenodd" clip-rule="evenodd" d="M221.629 260.515L236.753 251.381L237.291 252.264L222.167 261.398L221.629 260.515Z" fill="#108CB9"/>
<path d="M221.854 262.94C223 262.94 223.929 262.015 223.929 260.874C223.929 259.733 223 258.808 221.854 258.808C220.709 258.808 219.78 259.733 219.78 260.874C219.78 262.015 220.709 262.94 221.854 262.94Z" fill="#108CB9"/>
<path d="M209.902 256.102C211.048 256.102 211.976 255.177 211.976 254.037C211.976 252.896 211.048 251.971 209.902 251.971C208.757 251.971 207.828 252.896 207.828 254.037C207.828 255.177 208.757 256.102 209.902 256.102Z" fill="#108CB9"/>
<path d="M237.022 253.888C238.168 253.888 239.097 252.964 239.097 251.823C239.097 250.682 238.168 249.757 237.022 249.757C235.877 249.757 234.948 250.682 234.948 251.823C234.948 252.964 235.877 253.888 237.022 253.888Z" fill="#108CB9"/>
<path fill-rule="evenodd" clip-rule="evenodd" d="M222.418 260.963L222.217 278.629L221.18 278.617L221.381 260.951L222.418 260.963Z" fill="#108CB9"/>
<path d="M221.604 280.634C222.749 280.634 223.678 279.709 223.678 278.568C223.678 277.427 222.749 276.502 221.604 276.502C220.458 276.502 219.53 277.427 219.53 278.568C219.53 279.709 220.458 280.634 221.604 280.634Z" fill="#108CB9"/>
<path fill-rule="evenodd" clip-rule="evenodd" d="M209.797 253.438L222.163 260.509L221.646 261.405L209.281 254.333L209.797 253.438Z" fill="#108CB9"/>
<path fill-rule="evenodd" clip-rule="evenodd" d="M335.188 326.035L335.485 308.424L336.522 308.441L336.225 326.052L335.188 326.035Z" fill="#108CB9"/>
<path d="M335.797 328.109C336.942 328.109 337.871 327.184 337.871 326.043C337.871 324.902 336.942 323.977 335.797 323.977C334.651 323.977 333.723 324.902 333.723 326.043C333.723 327.184 334.651 328.109 335.797 328.109Z" fill="#108CB9"/>
<path d="M347.755 334.944C348.901 334.944 349.829 334.019 349.829 332.878C349.829 331.737 348.901 330.812 347.755 330.812C346.61 330.812 345.681 331.737 345.681 332.878C345.681 334.019 346.61 334.944 347.755 334.944Z" fill="#108CB9"/>
<path d="M336.001 310.498C337.147 310.498 338.076 309.573 338.076 308.432C338.076 307.291 337.147 306.367 336.001 306.367C334.856 306.367 333.927 307.291 333.927 308.432C333.927 309.573 334.856 310.498 336.001 310.498Z" fill="#108CB9"/>
<path fill-rule="evenodd" clip-rule="evenodd" d="M335.973 326.486L320.752 335.562L320.219 334.676L335.44 325.6L335.973 326.486Z" fill="#108CB9"/>
<path d="M320.582 337.243C321.728 337.243 322.657 336.319 322.657 335.178C322.657 334.037 321.728 333.112 320.582 333.112C319.437 333.112 318.508 334.037 318.508 335.178C318.508 336.319 319.437 337.243 320.582 337.243Z" fill="#108CB9"/>
<path fill-rule="evenodd" clip-rule="evenodd" d="M347.812 333.563L335.446 326.491L335.963 325.596L348.328 332.668L347.812 333.563Z" fill="#108CB9"/>
<path fill-rule="evenodd" clip-rule="evenodd" d="M221.514 326.281L221.154 308.67L222.191 308.649L222.551 326.26L221.514 326.281Z" fill="#108CB9"/>
<path d="M221.935 328.336C223.08 328.336 224.009 327.411 224.009 326.271C224.009 325.13 223.08 324.205 221.935 324.205C220.789 324.205 219.86 325.13 219.86 326.271C219.86 327.411 220.789 328.336 221.935 328.336Z" fill="#108CB9"/>
<path d="M210.008 335.215C211.154 335.215 212.082 334.29 212.082 333.15C212.082 332.009 211.154 331.084 210.008 331.084C208.863 331.084 207.934 332.009 207.934 333.15C207.934 334.29 208.863 335.215 210.008 335.215Z" fill="#108CB9"/>
<path d="M221.67 310.725C222.815 310.725 223.744 309.8 223.744 308.66C223.744 307.519 222.815 306.594 221.67 306.594C220.524 306.594 219.596 307.519 219.596 308.66C219.596 309.8 220.524 310.725 221.67 310.725Z" fill="#108CB9"/>
<path fill-rule="evenodd" clip-rule="evenodd" d="M222.291 325.826L237.543 334.847L237.014 335.735L221.762 326.714L222.291 325.826Z" fill="#108CB9"/>
<path d="M237.188 337.416C238.333 337.416 239.262 336.491 239.262 335.35C239.262 334.209 238.333 333.284 237.188 333.284C236.042 333.284 235.114 334.209 235.114 335.35C235.114 336.491 236.042 337.416 237.188 337.416Z" fill="#108CB9"/>
<path fill-rule="evenodd" clip-rule="evenodd" d="M209.433 332.94L221.771 325.824L222.291 326.717L209.953 333.834L209.433 332.94Z" fill="#108CB9"/>
<path fill-rule="evenodd" clip-rule="evenodd" d="M335.334 261.21L320.179 252.134L320.714 251.249L335.869 260.325L335.334 261.21Z" fill="#108CB9"/>
<path d="M335.645 262.754C336.79 262.754 337.719 261.829 337.719 260.688C337.719 259.547 336.79 258.622 335.645 258.622C334.499 258.622 333.571 259.547 333.571 260.688C333.571 261.829 334.499 262.754 335.645 262.754Z" fill="#108CB9"/>
<path d="M347.571 255.875C348.716 255.875 349.645 254.95 349.645 253.809C349.645 252.668 348.716 251.743 347.571 251.743C346.425 251.743 345.497 252.668 345.497 253.809C345.497 254.95 346.425 255.875 347.571 255.875Z" fill="#108CB9"/>
<path d="M320.444 253.757C321.589 253.757 322.518 252.833 322.518 251.692C322.518 250.551 321.589 249.626 320.444 249.626C319.298 249.626 318.37 250.551 318.37 251.692C318.37 252.833 319.298 253.757 320.444 253.757Z" fill="#108CB9"/>
<path fill-rule="evenodd" clip-rule="evenodd" d="M336.113 260.759L336.376 278.429L335.339 278.444L335.076 260.775L336.113 260.759Z" fill="#108CB9"/>
<path d="M335.955 280.444C337.101 280.444 338.029 279.519 338.029 278.379C338.029 277.238 337.101 276.313 335.955 276.313C334.809 276.313 333.881 277.238 333.881 278.379C333.881 279.519 334.809 280.444 335.955 280.444Z" fill="#108CB9"/>
<path fill-rule="evenodd" clip-rule="evenodd" d="M348.198 254.101L335.86 261.214L335.34 260.32L347.678 253.207L348.198 254.101Z" fill="#108CB9"/>
<path d="M294.5 264.162L278.746 255.104L262.993 264.162L278.746 273.221L294.5 264.162Z" fill="#9589EA"/>
<path d="M278.746 291.338V273.221L262.993 264.162V282.279L278.746 291.338Z" fill="#6559A2"/>
<path d="M278.749 291.338V273.221L294.502 264.162V282.279L278.749 291.338Z" fill="#6559A2"/>
<path d="M278.742 254.707L262.644 263.965V282.479L278.742 291.737L294.841 282.479V263.965L278.742 254.707ZM293.804 264.162L278.742 272.824L263.681 264.165L278.742 255.503L293.804 264.165V264.162ZM263.335 264.757L278.397 273.417V290.738L263.335 282.076V264.754V264.757ZM279.088 290.738V273.417L294.15 264.754V282.076L279.088 290.738Z" fill="#1C2135"/>
<path d="M277.212 294.46L261.459 285.402L245.706 294.46L261.459 303.519L277.212 294.46Z" fill="#6559A2"/>
<path d="M261.459 321.636V303.519L245.706 294.46V312.577L261.459 321.636Z" fill="#9589EA"/>
<path d="M261.462 321.636V303.519L277.215 294.46V312.578L261.462 321.636Z" fill="#6559A2"/>
<path d="M261.461 285.006L245.362 294.264V312.777L261.461 322.035L277.56 312.777V294.264L261.461 285.006ZM276.523 294.46L261.461 303.123L246.399 294.464L261.461 285.801L276.523 294.464V294.46ZM246.054 295.056L261.115 303.715V321.037L246.054 312.374V295.052V295.056ZM261.807 321.037V303.715L276.869 295.052V312.374L261.807 321.037Z" fill="#1C2135"/>
<path d="M311.782 294.46L296.029 285.402L280.275 294.46L296.029 303.519L311.782 294.46Z" fill="#6559A2"/>
<path d="M296.029 321.636V303.519L280.275 294.46V312.577L296.029 321.636Z" fill="#6559A2"/>
<path d="M296.031 321.636V303.519L311.784 294.46V312.578L296.031 321.636Z" fill="#9589EA"/>
<path d="M296.03 285.006L279.931 294.264V312.777L296.03 322.035L312.129 312.777V294.264L296.03 285.006ZM311.092 294.46L296.03 303.123L280.968 294.464L296.03 285.801L311.092 294.464V294.46ZM280.623 295.056L295.684 303.715V321.037L280.623 312.377V295.056ZM296.376 321.04V303.718L311.438 295.056V312.377L296.376 321.04Z" fill="#1C2135"/>
<path d="M311.782 274.491L296.029 265.432L280.275 274.491L296.029 283.549L311.782 274.491Z" fill="#9589EA"/>
<path d="M296.029 301.666V283.549L280.275 274.491V292.608L296.029 301.666Z" fill="#6559A2"/>
<path d="M296.031 301.667V283.55L311.784 274.491V292.608L296.031 301.667Z" fill="#9589EA"/>
<path d="M296.03 265.037L279.931 274.295V292.808L296.03 302.066L312.129 292.808V274.295L296.03 265.037ZM311.092 274.491L296.03 283.154L280.968 274.495L296.03 265.832L311.092 274.495V274.491ZM280.623 275.087L295.684 283.746V301.068L280.623 292.408V275.087ZM296.376 301.071V283.749L311.438 275.087V292.408L296.376 301.071Z" fill="#1C2135"/>
<path d="M277.212 274.491L261.459 265.432L245.706 274.491L261.459 283.549L277.212 274.491Z" fill="#9589EA"/>
<path d="M261.459 301.666V283.549L245.706 274.491V292.608L261.459 301.666Z" fill="#9589EA"/>
<path d="M261.462 301.667V283.55L277.215 274.491V292.608L261.462 301.667Z" fill="#6559A2"/>
<path d="M261.461 265.037L245.362 274.295V292.808L261.461 302.066L277.56 292.808V274.295L261.461 265.037ZM276.523 274.491L261.461 283.154L246.399 274.495L261.461 265.832L276.523 274.495V274.491ZM246.054 275.087L261.115 283.746V301.068L246.054 292.405V275.083V275.087ZM261.807 301.068V283.746L276.869 275.083V292.405L261.807 301.068Z" fill="#1C2135"/>
<path d="M294.5 304.445L278.746 295.386L262.993 304.445L278.746 313.503L294.5 304.445Z" fill="#6559A2"/>
<path d="M278.746 331.62V313.503L262.993 304.445V322.562L278.746 331.62Z" fill="#9589EA"/>
<path d="M278.749 331.62V313.503L294.502 304.445V322.562L278.749 331.62Z" fill="#9589EA"/>
<path d="M278.742 294.99L262.644 304.249V322.762L278.742 332.02L294.841 322.762V304.249L278.742 294.99ZM293.804 304.445L278.742 313.108L263.681 304.448L278.742 295.786L293.804 304.448V304.445ZM263.335 305.041L278.397 313.7V331.021L263.335 322.362V305.041ZM279.088 331.025V313.703L294.15 305.041V322.362L279.088 331.025Z" fill="#1C2135"/>
<path d="M294.5 284.82L278.747 275.761L262.994 284.82L278.747 293.879L294.5 284.82Z" fill="#9589EA"/>
<path d="M278.747 311.996V293.879L262.994 284.82V302.937L278.747 311.996Z" fill="#9589EA"/>
<path d="M278.75 311.996V293.879L294.503 284.82V302.937L278.75 311.996Z" fill="#9589EA"/>
<path d="M278.742 312.395L262.644 303.136V284.623L278.742 275.365L294.841 284.623V303.136L278.742 312.395ZM263.335 302.74L278.742 311.599L294.15 302.74V285.019L278.742 276.16L263.335 285.019V302.737V302.74Z" fill="#1C2135"/>
<path d="M263.168 284.53L262.822 285.127L278.576 294.185L278.921 293.589L263.168 284.53Z" fill="#1C2135"/>
<path d="M294.333 284.559L278.578 293.615L278.923 294.211L294.678 285.155L294.333 284.559Z" fill="#1C2135"/>
<path d="M279.091 293.878H278.399V311.995H279.091V293.878Z" fill="#1C2135"/>
<path d="M328.756 264.014L279.502 235.692V253.582L313.2 272.959L328.756 264.014Z" fill="#71BEDB"/>
<path d="M280.193 236.883L327.377 264.014L313.203 272.163L280.193 253.182V236.883ZM279.502 235.692V253.581L313.203 272.959L328.76 264.014L279.502 235.688V235.692Z" fill="#1C2135"/>
<path d="M244.317 273.014L278.116 253.581V235.692L228.761 264.069L244.317 273.014Z" fill="#71BEDB"/>
<path d="M277.421 236.883V253.182L244.317 272.218L230.144 264.069L277.421 236.883ZM278.112 235.692L228.761 264.069L244.317 273.014L278.112 253.581V235.692Z" fill="#1C2135"/>
<path d="M313.859 274.167V313.004L329.416 321.949V265.222L313.859 274.167Z" fill="#71BEDB"/>
<path d="M328.724 266.417V320.758L314.551 312.608V274.567L328.724 266.417ZM329.416 265.226L313.859 274.171V313.004L329.416 321.949V265.222V265.226Z" fill="#1C2135"/>
<path d="M243.75 274.277L228.193 265.332V321.839L243.75 312.894V274.277Z" fill="#71BEDB"/>
<path d="M228.885 266.524L243.058 274.673V312.495L228.885 320.644V266.524ZM228.193 265.332V321.839L243.75 312.894V274.277L228.193 265.332Z" fill="#1C2135"/>
<path d="M228.913 323.016L278.115 351.308V333.418L244.469 314.072L228.913 323.016Z" fill="#71BEDB"/>
<path d="M244.469 314.867L277.424 333.817V350.116L230.295 323.016L244.469 314.867ZM244.469 314.072L228.913 323.016L278.115 351.308V333.418L244.469 314.072Z" fill="#1C2135"/>
<path d="M279.502 333.418V351.307L328.608 323.071L313.051 314.126L279.502 333.418Z" fill="#71BEDB"/>
<path d="M313.048 314.922L327.221 323.071L280.187 350.116V333.817L313.048 314.922ZM313.048 314.126L279.495 333.421V351.311L328.604 323.071L313.048 314.126Z" fill="#1C2135"/>
<path d="M294.5 284.82L278.747 275.761L262.994 284.82L278.747 293.879L294.5 284.82Z" fill="#9589EA"/>
<path d="M278.747 311.996V293.879L262.994 284.82V302.937L278.747 311.996Z" fill="#9589EA"/>
<path d="M278.75 311.996V293.879L294.503 284.82V302.937L278.75 311.996Z" fill="#9589EA"/>
<path d="M278.742 275.365L262.644 284.623V303.136L278.742 312.395L294.841 303.136V284.623L278.742 275.365ZM293.804 284.82L278.742 293.482L263.681 284.823L278.742 276.16L293.804 284.823V284.82ZM263.335 285.415L278.397 294.074V311.396L263.335 302.734V285.412V285.415ZM279.088 311.396V294.074L294.15 285.412V302.734L279.088 311.396Z" fill="#1C2135"/>
<path d="M434.313 381.569C430.244 383.374 382.126 386.751 360.424 382.009" stroke="#E3E3E3" stroke-miterlimit="10" stroke-linecap="round"/>
<path d="M286.745 155.852V66.6075C286.745 65.3724 287.092 64.1621 287.745 63.1138C288.398 62.0656 289.332 61.2213 290.441 60.6769C291.549 60.1324 292.788 59.9094 294.017 60.0333C295.246 60.1572 296.416 60.623 297.393 61.3778L319.769 78.6645C322.235 80.5687 325.261 81.6016 328.376 81.6015H364.451C367.439 81.6025 370.341 80.6054 372.698 78.7686L394.865 61.4791C395.841 60.718 397.011 60.2463 398.242 60.1178C399.474 59.9893 400.716 60.2091 401.828 60.7523C402.94 61.2954 403.878 62.14 404.533 63.1898C405.189 64.2397 405.537 65.4525 405.537 66.6903V155.855C405.537 155.855 406.989 195.856 445.537 195.856C478.836 195.856 501.213 247.381 460.756 335.262" stroke="#E3E3E3" stroke-miterlimit="10" stroke-linecap="round"/>
<path d="M315.345 121.872C317.982 121.872 320.119 119.734 320.119 117.097C320.119 114.461 317.982 112.323 315.345 112.323C312.709 112.323 310.571 114.461 310.571 117.097C310.571 119.734 312.709 121.872 315.345 121.872Z" fill="#EAB669"/>
<path d="M323.562 117.46C323.562 118.645 323.211 119.803 322.552 120.789C321.894 121.774 320.958 122.542 319.863 122.995C318.768 123.449 317.563 123.568 316.401 123.336C315.239 123.105 314.171 122.535 313.333 121.697C312.495 120.859 311.924 119.791 311.693 118.629C311.462 117.466 311.581 116.261 312.034 115.167C312.488 114.072 313.256 113.136 314.241 112.477C315.227 111.819 316.385 111.468 317.57 111.468" stroke="#E3E3E3" stroke-miterlimit="10" stroke-linecap="round"/>
<path d="M374.384 122.596C377.021 122.596 379.159 120.458 379.159 117.822C379.159 115.185 377.021 113.048 374.384 113.048C371.748 113.048 369.61 115.185 369.61 117.822C369.61 120.458 371.748 122.596 374.384 122.596Z" fill="#EAB669"/>
<path d="M382.602 117.46C382.602 116.274 382.251 115.116 381.592 114.13C380.934 113.145 379.998 112.377 378.903 111.923C377.808 111.469 376.603 111.351 375.441 111.582C374.278 111.813 373.211 112.384 372.373 113.222C371.535 114.06 370.964 115.127 370.733 116.29C370.502 117.452 370.62 118.657 371.074 119.752C371.528 120.847 372.296 121.783 373.281 122.441C374.267 123.099 375.425 123.451 376.611 123.451" stroke="#E3E3E3" stroke-miterlimit="10" stroke-linecap="round"/>
<path d="M349.667 133.188L342.617 125.18C342.485 125.03 342.399 124.845 342.369 124.647C342.339 124.449 342.367 124.247 342.449 124.065C342.531 123.882 342.664 123.728 342.832 123.619C343 123.51 343.196 123.452 343.396 123.452H357.496C357.696 123.452 357.891 123.51 358.059 123.619C358.227 123.728 358.36 123.882 358.442 124.065C358.524 124.247 358.552 124.449 358.522 124.647C358.493 124.845 358.407 125.03 358.275 125.18L351.224 133.188C351.127 133.298 351.007 133.387 350.873 133.447C350.739 133.508 350.593 133.539 350.446 133.539C350.298 133.539 350.153 133.508 350.018 133.447C349.884 133.387 349.764 133.298 349.667 133.188Z" fill="#CE7783"/>
<path d="M349.493 129.762L347.622 131.886C347.525 131.997 347.405 132.085 347.271 132.146C347.137 132.206 346.991 132.238 346.844 132.238C346.696 132.238 346.551 132.206 346.416 132.146C346.282 132.085 346.162 131.997 346.065 131.886L339.015 123.878C338.883 123.728 338.797 123.543 338.767 123.345C338.737 123.148 338.765 122.945 338.847 122.763C338.929 122.581 339.062 122.426 339.23 122.317C339.398 122.209 339.593 122.151 339.793 122.15H353.894C354.094 122.151 354.289 122.209 354.457 122.317C354.625 122.426 354.758 122.581 354.84 122.763C354.922 122.945 354.95 123.148 354.92 123.345C354.891 123.543 354.805 123.728 354.673 123.878L352.744 126.069" stroke="#E3E3E3" stroke-miterlimit="10" stroke-linecap="round"/>
<path d="M346.844 132.609C346.844 132.609 348.835 146.418 332.11 146.208" stroke="#E3E3E3" stroke-miterlimit="10" stroke-linecap="round"/>
<path d="M346.988 132.609C346.988 132.609 344.998 146.418 361.722 146.208" stroke="#E3E3E3" stroke-miterlimit="10" stroke-linecap="round"/>
<path d="M332.339 136.722C332.339 136.722 319.837 130.613 305.673 133.54" stroke="#E3E3E3" stroke-miterlimit="10" stroke-linecap="round"/>
<path d="M325.904 140.505C325.904 140.505 307.935 136.879 299.271 147.496" stroke="#E3E3E3" stroke-miterlimit="10" stroke-linecap="round"/>
<path d="M359.572 136.509C359.572 136.509 372.074 130.4 386.237 133.327" stroke="#E3E3E3" stroke-miterlimit="10" stroke-linecap="round"/>
<path d="M366.009 140.294C366.009 140.294 383.978 136.668 392.641 147.285" stroke="#E3E3E3" stroke-miterlimit="10" stroke-linecap="round"/>
<path d="M411.499 231.42C404.229 211.617 386.782 194.934 369.125 184.035C358.366 177.393 336.374 168.736 327.409 182.652C315.592 200.995 327.409 206.862 327.409 206.862C327.409 206.862 331.955 209.073 333.226 206.32" stroke="#E3E3E3" stroke-miterlimit="10" stroke-linecap="round"/>
<path d="M305.676 165.34C305.676 165.34 314.89 166.736 315.345 181.809C315.801 196.881 307.402 193.554 307.402 193.554" stroke="#E3E3E3" stroke-miterlimit="10" stroke-linecap="round"/>
<path d="M286.745 192.251C286.745 192.251 277.626 191.651 279.85 184.166C282.073 176.681 286.745 173.316 286.745 173.316" stroke="#E3E3E3" stroke-miterlimit="10" stroke-linecap="round"/>
<path d="M297.367 193.866C297.367 193.866 288.248 193.267 290.472 185.786C292.697 178.304 297.367 174.936 297.367 174.936" stroke="#E3E3E3" stroke-miterlimit="10" stroke-linecap="round"/>
<path d="M286.292 164.567C286.292 164.567 267.617 174.14 269.762 184.888C270.757 189.872 276.435 191.107 276.435 191.107C278.423 191.296 280.425 191.296 282.413 191.107" stroke="#E3E3E3" stroke-miterlimit="10" stroke-linecap="round"/>
<path d="M357.478 205.366C357.478 205.366 357.372 215.639 350.065 215.745C342.757 215.851 333.437 210.975 333.437 210.975" stroke="#E3E3E3" stroke-miterlimit="10" stroke-linecap="round"/>
<path d="M360.419 213.858C360.419 213.858 387.835 246.999 386.236 269.477C384.638 291.956 422.436 275.249 422.436 275.249" stroke="#E3E3E3" stroke-miterlimit="10" stroke-linecap="round"/>
<path d="M461.328 334.325C467.253 318.97 484.328 273.794 539.728 268.871C590.093 264.393 624.015 341.259 539.728 392.2C455.44 443.141 378.96 329.876 378.96 329.876" stroke="#E3E3E3" stroke-miterlimit="10" stroke-linecap="round"/>
<path d="M374.385 314.066C374.385 314.066 375.393 308.608 385.359 311.382C395.326 314.157 405.6 323.402 405.6 323.402C405.6 323.402 411.616 303.486 434.953 318.864C445.264 325.659 453.719 335.146 463.326 342.963C475.713 352.957 491.263 357.24 506.569 354.873C521.127 352.784 532.59 343.002 537.056 327.746C538.65 322.299 540.74 306.755 529.856 304.72" stroke="#E3E3E3" stroke-miterlimit="10" stroke-linecap="round"/>
</svg>
