<svg width="90" height="88" viewBox="0 0 90 88" fill="none" xmlns="http://www.w3.org/2000/svg">
    <path d="M17.94 17.4329L47.9825 7.42532C48.8108 7.14937 49.7068 7.15205 50.5335 7.43295L79.9754 17.4367C81.7461 18.0383 82.8636 19.7865 82.6662 21.6462L78.5031 60.8724C78.3633 62.1902 77.5798 63.3532 76.4111 63.9779L51.1449 77.4836C49.9667 78.1134 48.5518 78.1134 47.3736 77.4836L22.0737 63.9599C20.9237 63.3452 20.1455 62.2085 19.9885 60.9139L15.2333 21.7095C15.0043 19.8218 16.136 18.0339 17.94 17.4329Z" fill="#CE7783"/>
    <path d="M8.79955 41.9057L6.39451 22.1143C6.16498 20.2255 7.29774 18.4364 9.10327 17.8361L40.4196 7.4238C41.2466 7.14881 42.1409 7.15148 42.9663 7.43141L73.6572 17.8399C75.4293 18.4409 76.5479 20.1901 76.3501 22.0509L72.0135 62.8352C71.8733 64.1538 71.0887 65.3172 69.9188 65.9414L65.959 68.054M10.7306 57.7966L11.348 62.8768C11.5054 64.1721 12.2846 65.3092 13.4359 65.9234L39.8113 79.9954C40.9881 80.6233 42.4003 80.6233 43.5771 79.9954L50.1803 76.4724" stroke="#E3E3E3" stroke-linecap="round"/>
    <path d="M26.1953 59.6756L40.8257 25.4227C41.1694 24.6181 42.3078 24.6117 42.6605 25.4124L57.7527 59.6756" stroke="#E3E3E3" stroke-linecap="round"/>
    <path d="M35.6602 47.7617H52.07" stroke="#E3E3E3" stroke-linecap="round"/>
</svg>
