<svg width="90" height="88" viewBox="0 0 90 88" fill="none" xmlns="http://www.w3.org/2000/svg">
    <g clip-path="url(#clip0_6774_10475)">
        <path d="M45 17.7168V65.3835" stroke="#E3E3E3" stroke-linecap="round" stroke-linejoin="round"/>
        <path d="M71.7569 0H24.3244C22.3093 0 20.6758 1.64162 20.6758 3.66667V11C20.6758 13.025 22.3093 14.6667 24.3244 14.6667H71.7569C73.772 14.6667 75.4055 13.025 75.4055 11V3.66667C75.4055 1.64162 73.772 0 71.7569 0Z" fill="#71A5D2"/>
        <path d="M51.5 3.05078H21.2854C19.2703 3.05078 17.6367 4.6924 17.6367 6.71745V14.0508C17.6367 16.0758 19.2703 17.7174 21.2854 17.7174H68.7178C70.7329 17.7174 72.3665 16.0758 72.3665 14.0508V6.71745C72.3665 4.6924 70.7329 3.05078 68.7178 3.05078H64.5" stroke="#E3E3E3" stroke-linecap="round" stroke-linejoin="round"/>
        <path d="M53.5126 69.666H42.5666C40.5515 69.666 38.918 71.3076 38.918 73.3327V84.3327C38.918 86.3577 40.5515 87.9993 42.5666 87.9993H53.5126C55.5277 87.9993 57.1612 86.3577 57.1612 84.3327V73.3327C57.1612 71.3076 55.5277 69.666 53.5126 69.666Z" fill="#CE7783"/>
        <path d="M50.4735 65.3848H39.5276C37.5125 65.3848 35.8789 67.0264 35.8789 69.0514V80.0514C35.8789 82.0765 37.5125 83.7181 39.5276 83.7181H50.4735C52.4886 83.7181 54.1222 82.0765 54.1222 80.0514V69.0514C54.1222 67.0264 52.4886 65.3848 50.4735 65.3848Z" stroke="#E3E3E3" stroke-linecap="round" stroke-linejoin="round"/>
        <path d="M14.5946 69.666H3.64865C1.63356 69.666 0 71.3076 0 73.3327V84.3327C0 86.3577 1.63356 87.9993 3.64865 87.9993H14.5946C16.6097 87.9993 18.2432 86.3577 18.2432 84.3327V73.3327C18.2432 71.3076 16.6097 69.666 14.5946 69.666Z" fill="#EAB669"/>
        <path d="M17.6337 65.3848H6.68771C4.67262 65.3848 3.03906 67.0264 3.03906 69.0514V80.0514C3.03906 82.0765 4.67262 83.7181 6.68771 83.7181H17.6337C19.6488 83.7181 21.2823 82.0765 21.2823 80.0514V69.0514C21.2823 67.0264 19.6488 65.3848 17.6337 65.3848Z" stroke="#E3E3E3" stroke-linecap="round" stroke-linejoin="round"/>
        <path d="M86.3524 69.666H75.4065C73.3914 69.666 71.7578 71.3076 71.7578 73.3327V84.3327C71.7578 86.3577 73.3914 87.9993 75.4065 87.9993H86.3524C88.3675 87.9993 90.0011 86.3577 90.0011 84.3327V73.3327C90.0011 71.3076 88.3675 69.666 86.3524 69.666Z" fill="#EAB669"/>
        <path d="M83.3094 65.3848H72.3635C70.3484 65.3848 68.7148 67.0264 68.7148 69.0514V80.0514C68.7148 82.0765 70.3484 83.7181 72.3635 83.7181H83.3094C85.3245 83.7181 86.9581 82.0765 86.9581 80.0514V69.0514C86.9581 67.0264 85.3245 65.3848 83.3094 65.3848Z" stroke="#E3E3E3" stroke-linecap="round" stroke-linejoin="round"/>
        <path d="M78.1487 61V47.0553C78.1487 46.0829 77.7642 45.1502 77.08 44.4626C76.3957 43.775 75.4677 43.3887 74.5 43.3887H15.6486C14.681 43.3887 13.7529 43.775 13.0687 44.4626C12.3844 45.1502 12 46.0829 12 47.0553V62" stroke="#E3E3E3" stroke-linecap="round" stroke-linejoin="round"/>
    </g>
    <defs>
        <clipPath id="clip0_6774_10475">
            <rect width="90" height="88" fill="white"/>
        </clipPath>
    </defs>
</svg>
