<svg width="91" height="85" viewBox="0 0 91 85" fill="none" xmlns="http://www.w3.org/2000/svg">
    <path d="M22.797 24.8842L14.2243 17.6775C13.8101 17.3293 13.7576 16.7015 14.1004 16.2827C35.0197 -9.2728 60.5671 0.732059 71.6331 9.57228C72.0882 9.93587 72.1117 10.6082 71.7015 11.0218L63.0308 19.7664C62.6515 20.149 62.0288 20.1524 61.6233 19.7977C46.223 6.32657 30.7611 16.9632 24.2431 24.7461C23.8791 25.1807 23.231 25.249 22.797 24.8842Z" fill="#CE7783"/>
    <path d="M16.7863 30.0839L8.19982 24.3093C7.77132 24.0211 7.18828 24.1109 6.87265 24.5196C-4.39416 39.1087 1.42958 56.5813 6.81181 66.8263C7.12237 67.4174 7.91476 67.5255 8.38486 67.0513L17.0752 58.2846C17.3645 57.9927 17.4433 57.551 17.2847 57.1718C12.5875 45.9448 14.9891 35.8583 17.127 31.4219C17.3538 30.9511 17.2199 30.3756 16.7863 30.0839Z" fill="#EAB669"/>
    <path d="M53.9258 50.0004V38.4004C53.9258 37.8481 54.3735 37.4004 54.9258 37.4004H86.6978C87.2227 37.4004 87.6597 37.8113 87.6862 38.3355C88.5801 56.06 78.8802 68.1267 73.2021 72.5508C72.7895 72.8722 72.2054 72.7888 71.8724 72.3856L64.7016 63.705C64.3392 63.2663 64.4176 62.6149 64.8556 62.2518C68.9226 58.8803 71.1592 54.7268 72.0808 52.2177C72.3048 51.6078 71.8345 51.0004 71.1847 51.0004H54.9258C54.3735 51.0004 53.9258 50.5527 53.9258 50.0004Z" fill="#71A5D2"/>
    <path d="M19.8186 13.4935C14.7724 17.5065 10.7944 22.7222 8.24246 28.6712C5.69054 34.6201 4.64478 41.1158 5.19929 47.5738C5.75379 54.0317 7.89116 60.2493 11.4191 65.667C14.947 71.0847 19.7548 75.5327 25.4098 78.6106C31.0648 81.6885 37.3897 83.2998 43.8153 83.2996C53.754 83.3133 63.3181 79.475 70.5314 72.5779C72.1402 71.0396 73.6046 69.3754 74.9149 67.6069M37.1508 5.68172C43.4807 4.56737 49.986 5.05807 56.0813 7.10967C62.1766 9.16127 67.6707 12.7094 72.0692 17.4348L62.2445 26.744C59.8889 24.1932 57.0356 22.1617 53.864 20.7773M30.6906 22.4393C26.7379 24.8753 23.5248 28.3602 21.402 32.5133C19.2793 36.6664 18.3285 41.328 18.6536 45.9892C18.9787 50.6503 20.5671 55.1317 23.2453 58.9441C25.9236 62.7564 29.5888 65.7531 33.8406 67.6069C38.0924 69.4607 42.7674 70.1003 47.3551 69.4559C51.9428 68.8115 56.2668 66.9078 59.8549 63.9528C63.4429 60.9978 66.1572 57.105 67.7012 52.6996H48.8709V39.0996L55.6102 39.0996M69.0924 39.0996L82.5746 39.0996V46.2396C82.4307 49.0184 81.9946 51.7523 81.2854 54.3996" stroke="#E3E3E3" stroke-linecap="round" stroke-linejoin="round"/>
    <path d="M21.9075 31.2816L15.168 27.1992" stroke="#E3E3E3" stroke-linecap="round" stroke-linejoin="round"/>
    <path d="M22.1779 57.2148L15.168 62.8992" stroke="#E3E3E3" stroke-linecap="round" stroke-linejoin="round"/>
    <path d="M62.3516 68L67.8879 74.9166" stroke="#E3E3E3" stroke-linecap="round" stroke-linejoin="round"/>
</svg>
