<svg width="91" height="83" viewBox="0 0 91 83" fill="none" xmlns="http://www.w3.org/2000/svg">
    <path d="M65.6953 20.093L74.8159 11.2578" stroke="#E3E3E3" stroke-linecap="round" stroke-linejoin="round"/>
    <path d="M80.871 11.4483C84.1134 11.4483 86.7419 8.88549 86.7419 5.72414C86.7419 2.56278 84.1134 0 80.871 0C77.6285 0 75 2.56278 75 5.72414C75 8.88549 77.6285 11.4483 80.871 11.4483Z" fill="#CE7783"/>
    <path d="M84.7732 7.16164C84.7732 4.00028 82.1447 1.4375 78.9022 1.4375C75.6598 1.4375 73.0312 4.00028 73.0312 7.16164C73.0312 10.323 75.6598 12.8858 78.9022 12.8858" stroke="#E3E3E3" stroke-linecap="round" stroke-linejoin="round"/>
    <path d="M68.5117 62.9102L74.7173 69.0006" stroke="#E3E3E3" stroke-linecap="round" stroke-linejoin="round"/>
    <path d="M80.871 80.4483C84.1134 80.4483 86.7419 77.8855 86.7419 74.7241C86.7419 71.5628 84.1134 69 80.871 69C77.6285 69 75 71.5628 75 74.7241C75 77.8855 77.6285 80.4483 80.871 80.4483Z" fill="#EAB669"/>
    <path d="M78.9217 78.712C82.1642 78.712 84.7927 76.1492 84.7927 72.9878C84.7927 69.8265 82.1642 67.2637 78.9217 67.2637C75.6793 67.2637 73.0508 69.8265 73.0508 72.9878" stroke="#E3E3E3" stroke-linecap="round" stroke-linejoin="round"/>
    <path d="M22.436 20.093L13.3125 11.2578" stroke="#E3E3E3" stroke-linecap="round" stroke-linejoin="round"/>
    <path d="M7.87097 11.4483C11.1134 11.4483 13.7419 8.88549 13.7419 5.72414C13.7419 2.56278 11.1134 0 7.87097 0C4.62852 0 2 2.56278 2 5.72414C2 8.88549 4.62852 11.4483 7.87097 11.4483Z" fill="#CE7783"/>
    <path d="M15.1013 7.16164C15.1013 10.323 12.4728 12.8858 9.23034 12.8858C5.9879 12.8858 3.35938 10.323 3.35938 7.16164C3.35938 4.00028 5.9879 1.4375 9.23034 1.4375" stroke="#E3E3E3" stroke-linecap="round" stroke-linejoin="round"/>
    <path d="M19.6148 62.9102L13.4062 69.0006" stroke="#E3E3E3" stroke-linecap="round" stroke-linejoin="round"/>
    <path d="M7.87097 80.4483C11.1134 80.4483 13.7419 77.8855 13.7419 74.7241C13.7419 71.5628 11.1134 69 7.87097 69C4.62852 69 2 71.5628 2 74.7241C2 77.8855 4.62852 80.4483 7.87097 80.4483Z" fill="#EAB669"/>
    <path d="M3.32422 72.9878C3.32422 76.1492 5.95274 78.712 9.19519 78.712C12.4376 78.712 15.0662 76.1492 15.0662 72.9878C15.0662 69.8265 12.4376 67.2637 9.19519 67.2637" stroke="#E3E3E3" stroke-linecap="round" stroke-linejoin="round"/>
    <path d="M64.2227 41.5078H73.0291" stroke="#E3E3E3" stroke-linecap="round" stroke-linejoin="round"/>
    <path d="M80.871 48.4483C84.1134 48.4483 86.7419 45.8855 86.7419 42.7241C86.7419 39.5628 84.1134 37 80.871 37C77.6285 37 75 39.5628 75 42.7241C75 45.8855 77.6285 48.4483 80.871 48.4483Z" fill="#71A5D2"/>
    <path d="M84.7732 41.5073C84.7732 44.6687 82.1447 47.2315 78.9022 47.2315C75.6598 47.2315 73.0312 44.6687 73.0312 41.5073C73.0312 38.346 75.6598 35.7832 78.9022 35.7832" stroke="#E3E3E3" stroke-linecap="round" stroke-linejoin="round"/>
    <path d="M23.9119 41.5078H15.1055" stroke="#E3E3E3" stroke-linecap="round" stroke-linejoin="round"/>
    <path d="M7.87097 48.4483C11.1134 48.4483 13.7419 45.8855 13.7419 42.7241C13.7419 39.5628 11.1134 37 7.87097 37C4.62852 37 2 39.5628 2 42.7241C2 45.8855 4.62852 48.4483 7.87097 48.4483Z" fill="#71A5D2"/>
    <path d="M15.1013 41.5073C15.1013 38.346 12.4728 35.7832 9.23034 35.7832C5.9879 35.7832 3.35938 38.346 3.35938 41.5073C3.35938 44.6687 5.9879 47.2315 9.23034 47.2315" stroke="#E3E3E3" stroke-linecap="round" stroke-linejoin="round"/>
    <path d="M51.9438 36.2979V31.507C51.9438 29.5103 51.1303 27.5954 49.6822 26.1836C48.2341 24.7717 46.2701 23.9785 44.2222 23.9785C42.1743 23.9785 40.2103 24.7717 38.7622 26.1836C38.1337 26.7963 37.6248 27.5038 37.25 28.2716" stroke="#E3E3E3" stroke-linecap="round" stroke-linejoin="round"/>
    <path d="M58 42.4859C58 41.8266 57.7273 41.1943 57.2419 40.7281C56.7565 40.2619 56.0982 40 55.4118 40H38.5882C37.9018 40 37.2435 40.2619 36.7581 40.7281C36.2727 41.1943 36 41.8266 36 42.4859V57.5141C36 58.1734 36.2727 58.8057 36.7581 59.2719C37.2435 59.7381 37.9018 60 38.5882 60H55.4118C56.0982 60 56.7565 59.7381 57.2419 59.2719C57.7273 58.8057 58 58.1734 58 57.5141V42.4859Z" fill="#EAB669"/>
    <path d="M32.2891 39.0365C32.2891 38.3104 32.5849 37.6141 33.1115 37.1007C33.638 36.5873 34.3522 36.2988 35.0969 36.2988H53.348C54.0927 36.2988 54.8068 36.5873 55.3334 37.1007C55.86 37.6141 56.1558 38.3104 56.1558 39.0365V55.5867C56.1558 56.3128 55.86 57.0091 55.3334 57.5225C54.8068 58.0359 54.0927 58.3243 53.348 58.3243H35.0969C34.3522 58.3243 33.638 58.0359 33.1115 57.5225C32.5849 57.0091 32.2891 56.3128 32.2891 55.5867V47" stroke="#E3E3E3" stroke-linecap="round" stroke-linejoin="round"/>
    <path d="M46.4686 47.1941C46.4686 48.4868 45.3902 49.5562 44.0331 49.5562C42.676 49.5562 41.5977 48.4868 41.5977 47.1941C41.5977 45.9014 42.676 44.832 44.0331 44.832C45.3902 44.832 46.4686 45.9014 46.4686 47.1941Z" stroke="#E3E3E3"/>
</svg>
