<svg width="92" height="90" viewBox="0 0 92 90" fill="none" xmlns="http://www.w3.org/2000/svg">
    <path d="M21.8711 27.8315V4.94022C21.8711 3.92836 22.275 2.95794 22.9939 2.24245C23.7127 1.52696 24.6878 1.125 25.7044 1.125H65.2664M44.8711 54.538H87.0378C88.0544 54.538 89.0295 54.1361 89.7483 53.4206C90.4672 52.7051 90.8711 51.7347 90.8711 50.7228V4.94022C90.8711 3.92836 90.4672 2.95794 89.7483 2.24245C89.0295 1.52696 88.0544 1.125 87.0378 1.125H79.4202" stroke="#E3E3E3" stroke-linecap="round" stroke-linejoin="round"/>
    <path d="M42.9531 65.9844H69.7865" stroke="#E3E3E3" stroke-linecap="round" stroke-linejoin="round"/>
    <path d="M56.3711 54.5371V65.9828" stroke="#E3E3E3" stroke-linecap="round" stroke-linejoin="round"/>
    <path d="M42.1667 86.722C42.1667 81.1568 39.9454 75.8195 35.9915 71.8843C32.0376 67.9491 26.675 65.7383 21.0833 65.7383C15.4917 65.7383 10.1291 67.9491 6.17517 71.8843C2.22127 75.8195 0 81.1568 0 86.722H42.1667Z" fill="#71A5D2"/>
    <path d="M8.87829 74.0366C12.8322 70.1014 18.1948 67.8906 23.7865 67.8906C29.3781 67.8906 34.7407 70.1014 38.6946 74.0366C42.6485 77.9718 44.8698 83.3091 44.8698 88.8743H2.70312C2.70313 86.7138 3.0379 84.5877 3.67885 82.5645" stroke="#E3E3E3" stroke-linecap="round" stroke-linejoin="round"/>
    <path d="M19.5365 60.7989C26.417 60.7989 31.9948 55.2475 31.9948 48.3995C31.9948 41.5514 26.417 36 19.5365 36C12.6559 36 7.07812 41.5514 7.07812 48.3995C7.07812 55.2475 12.6559 60.7989 19.5365 60.7989Z" fill="#EAB669"/>
    <path d="M34.9734 54.7822C35.6552 53.2492 36.0339 51.5529 36.0339 49.7686C36.0339 42.9206 30.4561 37.3691 23.5755 37.3691C16.695 37.3691 11.1172 42.9206 11.1172 49.7686C11.1172 56.6166 16.695 62.168 23.5755 62.168C24.955 62.168 26.2822 61.9449 27.5225 61.5329" stroke="#E3E3E3" stroke-linecap="round" stroke-linejoin="round"/>
    <path d="M59.3919 25.0915C63.0968 25.0915 66.1003 22.1023 66.1003 18.4149C66.1003 14.7275 63.0968 11.7383 59.3919 11.7383C55.687 11.7383 52.6836 14.7275 52.6836 18.4149C52.6836 22.1023 55.687 25.0915 59.3919 25.0915Z" fill="#71A5D2"/>
    <path d="M53.605 13.304C54.5225 12.835 55.5629 12.5703 56.6654 12.5703C60.3703 12.5703 63.3737 15.5595 63.3737 19.2469C63.3737 22.9343 60.3703 25.9236 56.6654 25.9236C52.9605 25.9236 49.957 22.9343 49.957 19.2469C49.957 18.5392 50.0677 17.8572 50.2727 17.2171" stroke="#E3E3E3" stroke-linecap="round" stroke-linejoin="round"/>
    <path d="M73.2279 37.7661C72.4676 34.7989 70.7361 32.1682 68.3065 30.2894C65.877 28.4106 62.8879 27.3906 59.8112 27.3906C56.7345 27.3906 53.7454 28.4106 51.3159 30.2894C48.8863 32.1682 47.1548 34.7989 46.3945 37.7661" fill="#CE7783"/>
    <path d="M62.3717 30.1302C60.5891 29.3273 58.6441 28.9043 56.6628 28.9043C53.586 28.9043 50.597 29.9242 48.1674 31.8031C45.7379 33.6819 44.0063 36.3126 43.2461 39.2798H70.0794C69.5575 37.2429 68.5779 35.3645 67.229 33.7791" stroke="#E3E3E3" stroke-linecap="round" stroke-linejoin="round"/>
</svg>
