<svg width="88" height="72" viewBox="0 0 88 72" fill="none" xmlns="http://www.w3.org/2000/svg">
    <g clip-path="url(#clip0_6774_10437)">
        <path d="M48.8382 71.0398L15.4589 36.8985C12.5317 34.0464 10.5948 30.3428 9.92849 26.3242C9.26223 22.3056 9.90128 18.1807 11.7531 14.5469C13.1813 11.7939 15.2412 9.41302 17.7664 7.59629C20.2917 5.77956 23.2115 4.57791 26.2904 4.08832C29.3693 3.59873 32.5209 3.83491 35.491 4.77781C38.461 5.7207 41.1663 7.34389 43.3885 9.51639L48.8382 14.4522L54.2879 9.51639C56.5098 7.34389 59.2148 5.72068 62.1846 4.77777C65.1544 3.83487 68.3058 3.59869 71.3845 4.08829C74.4631 4.5779 77.3827 5.77957 79.9076 7.59632C82.4326 9.41307 84.4921 11.794 85.92 14.5469C87.7716 18.1805 88.411 22.305 87.7453 26.3235C87.0797 30.3419 85.1437 34.0457 82.2176 36.8985L48.8382 71.0398Z" fill="#CE7783"/>
        <path d="M8.21875 32.6834H22.2407M28.5496 32.6834C28.8446 32.6837 29.1351 32.6117 29.3953 32.4738C29.6555 32.336 29.8774 32.1365 30.0414 31.8931L34.9149 24.6378C35.0915 24.3751 35.3352 24.1638 35.6212 24.0255C35.9072 23.8872 36.2251 23.8269 36.5423 23.8508C36.8595 23.8747 37.1646 23.982 37.4262 24.1616C37.6879 24.3412 37.8967 24.5866 38.0312 24.8728L42.8007 35.0188M74.944 32.6763H57.5718C57.2237 32.6772 56.8833 32.7786 56.5923 32.9683C56.3013 33.1579 56.0722 33.4276 55.9329 33.7443L50.8335 45.1363C50.6937 45.4484 50.4664 45.7139 50.1787 45.9012C49.891 46.0885 49.5551 46.1897 49.2111 46.1927C48.8671 46.1957 48.5295 46.1003 48.2385 45.9181C47.9476 45.7358 47.7156 45.4743 47.5702 45.1648L45.4495 40.6535" stroke="#E3E3E3" stroke-linecap="round" stroke-linejoin="round"/>
        <path d="M47.8023 6.61611L42.0646 11.8101L36.3268 6.61611C33.9872 4.32995 31.1389 2.62183 28.0119 1.62961C24.8848 0.637391 21.5666 0.388853 18.325 0.904057C15.0834 1.41926 12.0092 2.68377 9.35052 4.59555C6.69182 6.50733 4.52308 9.01282 3.01933 11.9098C1.06966 15.7337 0.396826 20.0744 1.09831 24.3032C1.79979 28.5321 3.83915 32.4294 6.92099 35.4307L17.8069 46.5595M58.0228 1.12156C60.5739 0.568285 63.2126 0.492363 65.8025 0.904023C69.0438 1.41924 72.1178 2.68379 74.7761 4.59558C77.4345 6.50738 79.6029 9.01287 81.1062 11.9098C83.0558 15.7334 83.7289 20.0738 83.0281 24.3025C82.3273 28.5312 80.2889 32.4287 77.2082 35.4307L42.0646 71.3583L29.9357 58.9589" stroke="#E3E3E3" stroke-linecap="round" stroke-linejoin="round"/>
    </g>
    <defs>
        <clipPath id="clip0_6774_10437">
            <rect width="88" height="72" fill="white"/>
        </clipPath>
    </defs>
</svg>
