<svg width="342" height="342" viewBox="0 0 342 342" fill="none" xmlns="http://www.w3.org/2000/svg">
    <path d="M222.097 97.3989C206.227 108.04 197.974 127.579 222.097 143.952C235.322 177.205 259.921 168.253 274.482 152.824C282.655 141.013 287.948 127.432 289.93 113.182C291.913 98.9307 290.531 84.4105 285.896 70.7969C262.646 88.4207 241.935 84.0979 222.097 97.3989Z" fill="#CE7783"/>
    <path d="M293.956 123.116C296.093 107.848 294.604 92.2919 289.609 77.707C264.558 96.5883 242.242 91.957 220.867 106.207C203.767 117.607 194.875 138.54 220.867 156.082C235.117 191.707 261.622 182.117 277.311 165.587C279.893 161.878 282.207 158.005 284.244 154" stroke="#E3E3E3" stroke-width="2" stroke-linecap="round" stroke-linejoin="round"/>
    <path d="M172.691 45.4629C190.034 65.865 199.215 92.7063 157.841 110.739C138.903 152.962 110.101 137.326 90.9486 114.755C71.7963 92.1842 64.4516 31.8749 81.2719 0C112.446 26.3058 150.966 19.9469 172.691 45.4629Z" fill="#71A5D2"/>
    <path d="M64.4355 46.501C65.3731 31.9712 68.4584 18.2417 74.1048 7.5293C107.25 35.5306 148.205 28.7618 171.304 55.9223C189.744 77.6393 199.505 106.211 155.515 125.405C135.38 170.35 104.757 153.706 84.3933 129.68C78.5931 122.837 73.8115 112.735 70.352 101.001" stroke="#E3E3E3" stroke-width="2" stroke-linecap="round" stroke-linejoin="round"/>
    <path d="M256.504 127.577C213.754 148.952 192.379 205.952 192.379 205.952C189.014 193.266 184.646 180.939 179.408 169M99 60C126.362 85.1079 150.461 114.169 168.283 146.5" stroke="#E3E3E3" stroke-width="2" stroke-linecap="round" stroke-linejoin="round"/>
    <path d="M49.875 202.586H7.125C3.18997 202.586 0 205.776 0 209.711V309.461C0 313.396 3.18997 316.586 7.125 316.586H49.875C53.81 316.586 57 313.396 57 309.461V209.711C57 205.776 53.81 202.586 49.875 202.586Z" fill="#EAB669"/>
    <path d="M7.125 233V214.152C7.125 210.217 10.315 207.027 14.25 207.027H57C60.935 207.027 64.125 210.217 64.125 214.152V313.902C64.125 317.837 60.935 321.027 57 321.027H14.25C10.315 321.027 7.125 317.837 7.125 313.902V284" stroke="#E3E3E3" stroke-width="2" stroke-linecap="round" stroke-linejoin="round"/>
    <path d="M238.5 268.5L292.125 249.778C299.853 247.495 308.095 247.637 315.739 250.185C323.384 252.733 330.063 257.565 334.875 264.028C323.47 269.73 313.053 275.058 303.5 280.02M91 308.803C188.853 342.745 180.709 345.773 263.5 301.229" stroke="#E3E3E3" stroke-width="2" stroke-linecap="round" stroke-linejoin="round"/>
    <path d="M77 221.277H106.875C131.13 222.134 154.111 232.348 171 249.777H213.75C215.835 249.403 217.976 249.49 220.023 250.034C222.07 250.577 223.973 251.563 225.598 252.922C227.223 254.281 228.529 255.979 229.426 257.898C230.323 259.817 230.787 261.909 230.787 264.027C230.787 266.145 230.323 268.238 229.426 270.156C228.529 272.075 227.223 273.774 225.598 275.133C223.973 276.492 222.07 277.478 220.023 278.021C217.976 278.564 215.835 278.652 213.75 278.277H135.375" stroke="#E3E3E3" stroke-width="2" stroke-linecap="round" stroke-linejoin="round"/>
</svg>
