<svg width="354" height="354" viewBox="0 0 354 354" fill="none" xmlns="http://www.w3.org/2000/svg">
    <path d="M129.055 17V49" stroke="#E3E3E3" stroke-width="2" stroke-linecap="round" stroke-linejoin="round"/>
    <path d="M145.045 33H113.062" stroke="#E3E3E3" stroke-width="2" stroke-linecap="round" stroke-linejoin="round"/>
    <path d="M240.992 321V353" stroke="#E3E3E3" stroke-width="2" stroke-linecap="round" stroke-linejoin="round"/>
    <path d="M311.446 143.263L307.043 95.1085C306.604 90.3021 302.794 86.4955 297.987 86.0599L249.58 81.6733C241.465 80.9025 233.296 82.4181 226.005 86.0474C218.715 89.6766 212.595 95.2731 208.346 102.198L125.391 223.637C122.673 227.616 123.179 232.968 126.596 236.366L141.333 251.027L156.111 265.75C159.502 269.128 164.811 269.63 168.775 266.946L290.829 184.313C297.785 180.083 303.407 173.991 307.052 166.733C310.698 159.474 312.22 151.342 311.446 143.263Z" fill="#71A5D2"/>
    <path d="M256.985 337H225.002" stroke="#E3E3E3" stroke-width="2" stroke-linecap="round" stroke-linejoin="round"/>
    <path d="M352.937 209.001H325.752C321.263 208.966 316.884 210.386 313.269 213.048C309.653 215.711 306.997 219.472 305.695 223.77C304.394 228.069 304.518 232.673 306.05 236.895C307.581 241.117 310.436 244.729 314.19 247.193L343.614 266.809C347.36 269.267 350.212 272.871 351.746 277.084C353.279 281.296 353.41 285.891 352.122 290.184C350.833 294.478 348.192 298.24 344.593 300.91C340.994 303.579 336.629 305.014 332.148 305.001H304.963" stroke="#EAB669" stroke-width="2" stroke-linecap="round" stroke-linejoin="round"/>
    <path d="M336.941 209V193" stroke="#EAB669" stroke-width="2" stroke-linecap="round" stroke-linejoin="round"/>
    <path d="M320.949 321V305" stroke="#EAB669" stroke-width="2" stroke-linecap="round" stroke-linejoin="round"/>
    <path d="M49.0857 17.0003H21.9004C17.4159 16.9762 13.0438 18.4037 9.43669 21.0697C5.82955 23.7358 3.18079 27.4975 1.88571 31.7933C0.590639 36.0892 0.718697 40.6889 2.25078 44.9059C3.78285 49.123 6.6368 52.7313 10.3867 55.1923L39.8107 74.8083C43.5606 77.2693 46.4146 80.8776 47.9467 85.0947C49.4787 89.3117 49.6068 93.9114 48.3117 98.2073C47.0166 102.503 44.3679 106.265 40.7607 108.931C37.1536 111.597 32.7815 113.024 28.297 113H1.1117" stroke="#EAB669" stroke-width="2" stroke-linecap="round" stroke-linejoin="round"/>
    <path d="M33.1055 17V1" stroke="#EAB669" stroke-width="2" stroke-linecap="round" stroke-linejoin="round"/>
    <path d="M17.1152 129V113" stroke="#EAB669" stroke-width="2" stroke-linecap="round" stroke-linejoin="round"/>
    <path d="M98.7581 321.884C88.092 332.489 61.3838 335.911 47.4179 336.992C42.697 337.358 38.9592 333.389 39.6124 328.699C41.4644 315.401 46.213 290.594 56.7439 280.123C71.4763 265.475 86.8325 278.647 93.5007 285.336C100.169 292.025 113.49 307.22 98.7581 321.884Z" fill="#CE7783"/>
    <path d="M97.8864 312.105C86.2231 323.775 56.7453 327.417 41.9141 328.528C37.1936 328.882 33.4651 324.922 34.0988 320.231C36.0181 306.023 41.1099 278.4 52.6469 266.857C68.5103 250.985 85.0454 265.257 92.2255 272.505C99.4056 279.753 113.75 296.217 97.8864 312.105Z" stroke="#E3E3E3" stroke-width="2" stroke-linecap="round" stroke-linejoin="round"/>
    <path d="M129.084 170.484L175.119 217.597" stroke="#E3E3E3" stroke-width="2" stroke-linecap="round" stroke-linejoin="round"/>
    <path d="M295.994 65.976L312.961 49" stroke="#E3E3E3" stroke-width="2" stroke-linecap="round" stroke-linejoin="round"/>
    <path d="M188.575 82.9345C193.236 75.301 199.947 69.1322 207.943 65.1318C215.94 61.1315 224.899 59.4608 233.799 60.3105L295.989 65.9745L301.65 128.198C302.499 137.103 300.829 146.067 296.831 154.068C292.833 162.068 286.667 168.783 279.038 173.446L182.759 238.957M148.867 262.018L146.593 263.565C141.429 267.079 134.496 266.423 130.082 262.004L115.079 246.982L100.058 231.964C95.644 227.551 94.9892 220.624 98.4975 215.463L157.81 128.198" stroke="#E3E3E3" stroke-width="2" stroke-linecap="round" stroke-linejoin="round"/>
    <path d="M111.803 163.893C106.033 161.685 99.7474 161.196 93.7057 162.485C87.664 163.774 82.1247 166.786 77.7572 171.157L46.4781 202.469C45.4541 203.493 44.727 204.775 44.3741 206.179C44.0212 207.583 44.056 209.057 44.4745 210.443C44.8931 211.83 45.6798 213.076 46.7508 214.05C47.8218 215.024 49.1369 215.689 50.5559 215.973L77.7572 221.419" stroke="#E3E3E3" stroke-width="2" stroke-linecap="round" stroke-linejoin="round"/>
    <path d="M139.795 277.776L146.054 311.544C146.339 312.964 147.003 314.28 147.977 315.351C148.95 316.423 150.196 317.21 151.581 317.629C152.967 318.048 154.44 318.082 155.843 317.729C157.247 317.376 158.528 316.649 159.551 315.624L190.846 284.312C195.215 279.942 198.225 274.4 199.514 268.355C200.802 262.31 200.313 256.021 198.106 250.248L194.812 241.624" stroke="#E3E3E3" stroke-width="2" stroke-linecap="round" stroke-linejoin="round"/>
    <path d="M233.811 152.203C247.059 152.203 257.798 141.458 257.798 128.203C257.798 114.948 247.059 104.203 233.811 104.203C220.564 104.203 209.824 114.948 209.824 128.203C209.824 141.458 220.564 152.203 233.811 152.203Z" stroke="#E3E3E3" stroke-width="2" stroke-linecap="round" stroke-linejoin="round"/>
</svg>
