<svg width="74" height="74" viewBox="0 0 74 74" fill="none" xmlns="http://www.w3.org/2000/svg">
<path fill-rule="evenodd" clip-rule="evenodd" d="M43.0085 11.5636C43.1667 11.031 43.2516 10.4666 43.2516 9.88203C43.2516 6.62921 40.6224 4 37.3696 4C34.1168 4 31.4875 6.62921 31.4875 9.88203C31.4875 10.4634 31.5715 11.0248 31.728 11.5548L18.1534 19.3924C17.7726 18.9903 17.3284 18.6352 16.8247 18.3426C14.0101 16.7246 10.4034 17.6853 8.7854 20.4999C7.16743 23.3145 8.1281 26.9213 10.9427 28.5393C11.4451 28.8281 11.9727 29.0347 12.5097 29.1633V44.8405C11.9789 44.9693 11.4573 45.1747 10.9598 45.4607C8.14522 47.0955 7.18454 50.6854 8.80252 53.5C10.4205 56.3146 14.0104 57.2753 16.8419 55.6573C17.3401 55.3679 17.7803 55.0172 18.1583 54.6204L31.7255 62.4537C31.5706 62.9812 31.4875 63.5398 31.4875 64.118C31.4875 67.3708 34.1168 70 37.3696 70C40.6224 70 43.2516 67.3539 43.2516 64.118C43.2516 63.47 43.1473 62.8467 42.9544 62.2641L56.443 54.4762C56.8507 54.9341 57.3376 55.3352 57.8981 55.6573C60.7127 57.2753 64.3194 56.3146 65.9374 53.5C67.5722 50.6854 66.6115 47.0955 63.7801 45.4607C63.2826 45.1747 62.7603 44.9692 62.2286 44.8404V29.1637C62.7662 29.0351 63.2943 28.8283 63.7972 28.5393C66.6118 26.9044 67.5725 23.3145 65.9545 20.4999C64.3197 17.6853 60.7298 16.7246 57.9152 18.3426C57.4087 18.6368 56.9622 18.9944 56.58 19.3993L43.0085 11.5636ZM35.731 15.5336C36.2509 15.6836 36.8007 15.7641 37.3696 15.7641C37.9402 15.7641 38.4917 15.6831 39.0131 15.5321L56.776 46.2973C56.3785 46.6763 56.0282 47.1179 55.7407 47.618C55.4549 48.1152 55.2495 48.6372 55.1207 49.1686H19.6195C19.4907 48.6375 19.2852 48.1156 18.9992 47.618C18.7104 47.1209 18.3607 46.6816 17.965 46.3041L35.731 15.5336ZM33.1383 13.9711C33.1931 14.0279 33.2491 14.0835 33.3062 14.138L15.5395 44.9099C15.4626 44.8876 15.3852 44.8668 15.3075 44.8477V29.1496C16.8048 28.7775 18.1539 27.8226 18.982 26.382C19.809 24.9433 19.9624 23.3022 19.5388 21.823L33.1383 13.9711ZM41.4367 14.1345C41.4903 14.0832 41.5429 14.0309 41.5945 13.9777L55.1985 21.8322C54.7782 23.3089 54.9326 24.9463 55.7579 26.382C56.5857 27.8221 57.9342 28.7768 59.4309 29.1492V44.8465C59.3548 44.8652 59.2791 44.8854 59.2038 44.9071L41.4367 14.1345ZM55.2349 52.3519L41.7195 60.1553C40.6444 58.9754 39.0947 58.236 37.3696 58.236C35.7037 58.236 34.2014 58.9255 33.1321 60.0353L19.551 52.194C19.5728 52.1185 19.5932 52.0426 19.612 51.9663H55.1264C55.1582 52.096 55.1944 52.2246 55.2349 52.3519Z" fill="#E535AB"/>
</svg>
