<svg width="75" height="74" viewBox="0 0 75 74" fill="none" xmlns="http://www.w3.org/2000/svg">
<path d="M51.7551 7.11523H21.8266C13.5863 7.11523 6.90625 13.7953 6.90625 22.0356V51.9641C6.90625 60.2044 13.5863 66.8845 21.8266 66.8845H51.7551C59.9954 66.8845 66.6755 60.2044 66.6755 51.9641V22.0356C66.6755 13.7953 59.9954 7.11523 51.7551 7.11523Z" fill="#65ADF1"/>
<path d="M56.6611 31.3092L56.6531 31.3271V21.8966C56.6526 20.6443 56.1548 19.4436 55.2692 18.5583C54.3835 17.6731 53.1826 17.1758 51.9304 17.1758H46.5342V41.97L26.5902 17.1758H21.4431C20.25 17.1758 19.1057 17.6497 18.2621 18.4934C17.4184 19.3371 16.9445 20.4813 16.9445 21.6744V31.3212C16.8747 32.7825 16.2362 36.5071 11.625 37.0092C16.2362 37.5123 16.8678 41.2508 16.9365 42.7132L16.9445 42.6843V52.4048C16.9442 52.9847 17.0582 53.5589 17.2798 54.0948C17.5015 54.6307 17.8266 55.1176 18.2365 55.5279C18.6463 55.9381 19.133 56.2636 19.6687 56.4858C20.2043 56.708 20.7785 56.8224 21.3584 56.8227H26.5882V32.0872L46.5342 56.8227H51.6285C52.9612 56.8224 54.2393 56.2928 55.1815 55.3504C56.1238 54.4079 56.6531 53.1298 56.6531 51.7971V42.7052L56.6611 42.7162C56.7298 41.2538 57.3584 37.5152 61.9726 37.0122C57.3614 36.5101 56.7298 32.7706 56.6611 31.3092Z" fill="white"/>
</svg>
