<svg width="66" height="66" viewBox="0 0 66 66" fill="none" xmlns="http://www.w3.org/2000/svg">
<path d="M38.8616 0C38.3843 0 37.9412 0.102673 37.5321 0.239564C38.4014 0.82136 38.8786 1.59139 39.1172 2.46409C39.1343 2.58387 39.1684 2.66943 39.1854 2.78921C39.2025 2.89188 39.2195 2.99455 39.2195 3.09722C39.2877 4.60305 38.8275 4.79128 38.5036 5.68109C38.0093 6.82757 38.1457 8.05962 38.7422 9.0521C38.7934 9.17188 38.8616 9.30877 38.9468 9.42855C38.2991 5.09929 41.8955 4.44904 42.5602 3.09722C42.6114 1.91651 41.6398 1.12937 40.8728 0.581797C40.1399 0.136894 39.4752 0 38.8616 0ZM44.2817 0.975368C44.2135 1.36894 44.2647 1.26627 44.2477 1.47161C44.2306 1.6085 44.2306 1.77962 44.2136 1.91651C44.1796 2.05341 44.1454 2.1903 44.0943 2.3272C44.0602 2.46409 44.0091 2.60098 43.9579 2.73787C43.8897 2.87477 43.8386 2.99455 43.7705 3.13144C43.7193 3.19992 43.6852 3.26833 43.6341 3.33679C43.6 3.38812 43.5659 3.43945 43.5318 3.49079C43.4466 3.61058 43.3614 3.73035 43.2762 3.83302C43.1739 3.9357 43.0887 4.05547 42.9694 4.14104C42.9694 4.15817 42.9694 4.15817 42.9694 4.15817C42.8671 4.24373 42.7648 4.3464 42.6455 4.43196C42.2876 4.70574 41.8785 4.91108 41.5035 5.16776C41.3842 5.25332 41.2649 5.32177 41.1626 5.42444C41.0433 5.50999 40.9411 5.59555 40.8388 5.69822C40.7195 5.80089 40.6343 5.90356 40.532 6.02335C40.4468 6.12602 40.3445 6.2458 40.2763 6.36558C40.1911 6.48536 40.1059 6.60514 40.0377 6.72492C39.9695 6.86181 39.9184 6.9816 39.8502 7.11849C39.7991 7.25538 39.7479 7.37517 39.7138 7.51206C39.6627 7.66607 39.6286 7.80296 39.5945 7.93986C39.5775 8.00833 39.5775 8.09386 39.5605 8.16231C39.5434 8.23078 39.5434 8.2992 39.5264 8.36765C39.5264 8.50454 39.5093 8.65855 39.5093 8.79544C39.5093 8.89811 39.5093 9.00078 39.5264 9.10345C39.5264 9.24035 39.5435 9.37724 39.5775 9.53124C39.5946 9.66813 39.6287 9.80503 39.6628 9.94193C39.7139 10.0788 39.748 10.2157 39.7991 10.3526C39.8332 10.4382 39.8843 10.5237 39.9184 10.5922L35.9982 9.06923C35.3334 8.881 34.6857 8.70989 34.021 8.55588C33.6631 8.47032 33.3051 8.38476 32.9472 8.2992C31.9245 8.09386 30.8848 7.93986 29.8451 7.83719C29.811 7.83719 29.7939 7.82006 29.7599 7.82006C28.7372 7.71739 27.7315 7.66605 26.7089 7.66605C25.9589 7.66605 25.2089 7.70025 24.476 7.75161C23.4363 7.82008 22.3966 7.95695 21.3569 8.12806C21.1012 8.16226 20.8455 8.21363 20.5898 8.26496C20.0615 8.36763 19.5501 8.48741 19.0558 8.60719C18.8002 8.67567 18.5445 8.74409 18.2888 8.81253C18.0332 8.9152 17.7945 9.03499 17.5559 9.13766C17.3684 9.22321 17.1809 9.30877 16.9934 9.39433C16.9594 9.41147 16.9252 9.41147 16.9082 9.42853C16.7378 9.51409 16.5844 9.58253 16.431 9.66809C16.3798 9.68523 16.3457 9.70229 16.3117 9.71943C16.1242 9.80499 15.9367 9.90766 15.7833 9.99321C15.664 10.0445 15.5447 10.113 15.4424 10.1643C15.3912 10.1985 15.3231 10.2328 15.289 10.2499C15.1356 10.3354 14.9822 10.421 14.8458 10.5066C14.6924 10.5921 14.5561 10.6777 14.4367 10.7632C14.3174 10.8488 14.1981 10.9172 14.0959 11.0028C14.0788 11.0199 14.0618 11.0199 14.0447 11.037C13.9425 11.1055 13.8231 11.191 13.7209 11.2766C13.7209 11.2766 13.7038 11.2937 13.6868 11.3108C13.6016 11.3792 13.5164 11.4477 13.4311 11.5161C13.3971 11.5332 13.3629 11.5674 13.3289 11.5846C13.2437 11.653 13.1584 11.7386 13.0732 11.807C13.0561 11.8412 13.0221 11.8584 13.005 11.8755C12.9027 11.9782 12.8005 12.0637 12.6982 12.1664C12.6811 12.1664 12.6811 12.1835 12.6641 12.2006C12.5619 12.2862 12.4596 12.3888 12.3573 12.4915C12.3403 12.5086 12.3403 12.5257 12.3233 12.5257C12.2381 12.6112 12.1528 12.6968 12.0676 12.7995C12.0335 12.8337 11.9824 12.868 11.9483 12.9021C11.8631 13.0048 11.7608 13.1075 11.6585 13.2102C11.6415 13.2444 11.6074 13.2615 11.5903 13.2957C11.454 13.4326 11.3347 13.5695 11.1983 13.7064C11.1812 13.7235 11.1642 13.7406 11.1472 13.7577C10.8745 14.0486 10.5847 14.3395 10.2779 14.5962C9.97109 14.87 9.64725 15.1267 9.32339 15.3491C8.9825 15.5887 8.65866 15.794 8.30072 15.9994C7.95983 16.1876 7.60189 16.3587 7.22691 16.5127C6.86897 16.6667 6.49399 16.8036 6.11901 16.9234C5.40313 17.0774 4.67022 17.3683 4.03957 17.4196C3.90321 17.4196 3.74981 17.4538 3.61345 17.471C3.46005 17.5052 3.3237 17.5394 3.18734 17.5736C3.05099 17.625 2.91462 17.6763 2.77827 17.7276C2.64191 17.779 2.50556 17.8474 2.3692 17.9159C2.24989 18.0014 2.11353 18.0699 1.99422 18.1554C1.87491 18.241 1.75559 18.3437 1.65332 18.4463C1.53402 18.5319 1.4147 18.6517 1.31243 18.7544C1.21016 18.8741 1.1079 18.9768 1.02267 19.0966C0.937454 19.2335 0.835185 19.3533 0.767004 19.4902C0.681783 19.6099 0.596562 19.7468 0.52838 19.8837C0.460174 20.0377 0.392025 20.1746 0.340891 20.3286C0.289757 20.4655 0.238622 20.6195 0.187488 20.7735C0.153426 20.9104 0.119283 21.0473 0.102268 21.1842C0.102268 21.2014 0.0851967 21.2184 0.0851967 21.2355C0.0511338 21.3896 0.0511338 21.5949 0.0340623 21.6976C0.0169915 21.8174 0 21.92 0 22.0398C0 22.1083 0 22.1938 0.0170708 22.2623C0.0341416 22.382 0.0511331 22.4847 0.0852764 22.5874C0.119339 22.69 0.153482 22.7927 0.204584 22.8954C0.204584 22.9125 0.204584 22.9125 0.204584 22.9125C0.255718 23.0152 0.3239 23.1179 0.392074 23.2205C0.460279 23.3232 0.528437 23.4259 0.613658 23.5286C0.698878 23.6141 0.801147 23.7168 0.903415 23.8023C1.00568 23.905 1.10795 23.9906 1.22726 24.0761C1.63633 24.4355 1.7386 24.5553 2.26698 24.829C2.3522 24.8804 2.43743 24.9146 2.5397 24.9659C2.55678 24.9659 2.57376 24.9831 2.59084 24.9831C2.59084 25.0173 2.59084 25.0344 2.60791 25.0686C2.62498 25.2055 2.65904 25.3424 2.69313 25.4793C2.72719 25.6333 2.77836 25.7702 2.82949 25.89C2.88063 25.9927 2.91471 26.0953 2.96585 26.198C2.98292 26.2322 2.99991 26.2665 3.01698 26.2836C3.08519 26.4205 3.15334 26.5403 3.22151 26.66C3.30674 26.7798 3.39196 26.8996 3.47718 27.0194C3.5624 27.122 3.66467 27.2418 3.76694 27.3445C3.86921 27.4472 3.97148 27.5327 4.09079 27.6354C4.09079 27.6354 4.10787 27.6525 4.12485 27.6525C4.22712 27.7381 4.32939 27.8237 4.43166 27.8921C4.55097 27.9777 4.67028 28.0461 4.80664 28.1146C4.92595 28.183 5.06231 28.2515 5.19866 28.3028C5.30093 28.3541 5.42024 28.3884 5.53956 28.4226C5.55663 28.4397 5.57362 28.4397 5.60776 28.4568C5.67597 28.4739 5.76116 28.491 5.82934 28.5081C5.7782 29.4321 5.76113 30.3048 5.89754 30.6128C6.05094 30.9551 6.8009 29.9113 7.55087 28.7135C7.4486 29.8942 7.38042 31.2802 7.55087 31.6909C7.73836 32.1187 8.76103 30.784 9.64735 29.3124C21.732 26.506 32.7598 34.8908 33.9189 46.7321C33.6973 44.884 31.4304 43.8573 30.3906 44.114C29.8793 45.3802 29.01 47.0059 27.6124 48.0154C27.7317 46.8861 27.6806 45.7225 27.4419 44.5931C27.0669 46.1674 26.334 47.639 25.3284 48.9053C23.7091 49.025 22.0899 48.2379 21.2377 47.0572C21.1695 47.0059 21.1525 46.9032 21.1013 46.8347C21.0502 46.715 20.9991 46.5952 20.965 46.4754C20.9138 46.3556 20.8797 46.2358 20.8627 46.1161C20.8456 45.9963 20.8456 45.8765 20.8456 45.7396C20.8456 45.654 20.8456 45.5685 20.8456 45.4829C20.8627 45.3631 20.8968 45.2433 20.9308 45.1236C20.9649 45.0038 20.999 44.884 21.0502 44.7642C21.1184 44.6444 21.1695 44.5247 21.2547 44.4049C21.5445 43.5835 21.5445 42.9162 21.0161 42.5226C20.9138 42.4541 20.8115 42.4028 20.6922 42.3515C20.624 42.3343 20.5388 42.3001 20.4706 42.283C20.4195 42.2659 20.3854 42.2488 20.3343 42.2317C20.215 42.1975 20.0957 42.1632 19.9764 42.1461C19.857 42.1119 19.7377 42.0948 19.6184 42.0948C19.4991 42.0776 19.3627 42.0606 19.2434 42.0606C19.1582 42.0606 19.073 42.0777 18.9878 42.0777C18.8514 42.0777 18.7321 42.0949 18.6128 42.129C18.4935 42.1462 18.3742 42.1632 18.2548 42.1975C18.1355 42.2317 18.0162 42.266 17.8969 42.3173C17.7776 42.3686 17.6753 42.42 17.556 42.4713C17.4538 42.5226 17.3515 42.5911 17.2322 42.6424C13.2608 45.2434 15.63 51.3352 18.3401 53.0977C17.3174 53.2859 16.2777 53.5084 15.9879 53.7308C15.9708 53.7479 15.9539 53.765 15.9539 53.765C16.6868 54.2099 17.4538 54.5864 18.2549 54.9115C19.3457 55.2708 20.5048 55.596 21.0161 55.7328V55.75C22.4308 56.0409 23.8625 56.1436 25.3113 56.058C32.8621 55.5275 39.0493 49.7609 40.1742 42.1633C40.2083 42.3173 40.2424 42.4542 40.2765 42.6082C40.3276 42.9162 40.3958 43.2413 40.4299 43.5664C40.4299 43.5664 40.4299 43.5664 40.4299 43.5836C40.464 43.7376 40.481 43.8916 40.4981 44.0285C40.4981 44.0627 40.4981 44.0798 40.4981 44.097C40.5152 44.251 40.5322 44.405 40.5322 44.5419C40.5492 44.7301 40.5662 44.9183 40.5662 45.1066C40.5662 45.1921 40.5662 45.2777 40.5662 45.3804C40.5662 45.4659 40.5833 45.5686 40.5833 45.6542C40.5833 45.7568 40.5662 45.8595 40.5662 45.9622C40.5662 46.0477 40.5662 46.1333 40.5662 46.2017C40.5662 46.3215 40.5491 46.4242 40.5491 46.544C40.5491 46.6124 40.5491 46.6809 40.5321 46.7664C40.5321 46.8862 40.515 47.006 40.515 47.1429C40.4979 47.1942 40.4979 47.2455 40.4979 47.2969C40.4809 47.4338 40.4639 47.5536 40.4468 47.6904C40.4468 47.7418 40.4468 47.7931 40.4297 47.8445C40.4126 48.0156 40.3786 48.1696 40.3615 48.3407V48.3578V48.375C40.3275 48.529 40.2933 48.7001 40.2592 48.8541C40.2592 48.8712 40.2592 48.8883 40.2592 48.9054C40.2252 49.0594 40.191 49.2135 40.157 49.3675C40.157 49.3846 40.1399 49.4188 40.1399 49.4359C40.1058 49.5899 40.0717 49.7439 40.0206 49.8979C40.0206 49.9151 40.0206 49.9321 40.0206 49.9493C39.9695 50.1204 39.9183 50.2744 39.8842 50.4284C39.8672 50.4455 39.8672 50.4626 39.8672 50.4626C39.816 50.6337 39.7649 50.8048 39.7138 50.976C39.6456 51.1471 39.5945 51.3011 39.5263 51.4722C39.4581 51.6433 39.407 51.8144 39.3388 51.9684C39.2706 52.1396 39.2024 52.2936 39.1343 52.4647H39.1172C39.049 52.6187 38.9808 52.7898 38.8956 52.9438C38.8785 52.9951 38.8615 53.0294 38.8444 53.0636C38.8274 53.0807 38.8274 53.0978 38.8104 53.1149C37.7025 55.3565 36.0662 57.3244 34.0209 58.8645C33.8845 58.95 33.7481 59.0527 33.6118 59.1553C33.5777 59.1895 33.5266 59.2067 33.4925 59.2409C33.3732 59.3265 33.2538 59.412 33.1175 59.4976L33.1686 59.6003H33.1857C33.4243 59.5661 33.6629 59.5318 33.9016 59.4976H33.9186C34.3618 59.4291 34.805 59.3436 35.2481 59.258C35.3674 59.2409 35.5038 59.2067 35.6231 59.1725C35.7083 59.1553 35.7765 59.1383 35.8617 59.1211C35.981 59.104 36.1003 59.0698 36.2197 59.0527C36.3219 59.0185 36.4242 59.0013 36.5265 58.9671C38.2309 58.5564 39.8843 57.9917 41.4694 57.3244C38.7593 61.0376 35.1288 64.0322 30.8847 66C32.8448 65.8631 34.805 65.538 36.6969 64.9904C43.5659 62.9541 49.344 58.3168 52.8041 52.0711C52.1052 56.0239 50.5371 59.7884 48.2191 63.0739C49.8724 61.9787 51.3893 60.7125 52.77 59.2751C56.588 55.271 59.0935 50.1888 59.9457 44.7301C60.5253 47.4338 60.6957 50.223 60.44 52.978C72.7462 35.7465 61.4627 17.8819 56.7414 13.1762C56.7243 13.142 56.7073 13.1248 56.7073 13.0906C56.6902 13.1077 56.6902 13.1077 56.6902 13.1248C56.6902 13.1077 56.6902 13.1077 56.6731 13.0906C56.6731 13.2959 56.6561 13.5013 56.6391 13.7066C56.5879 14.1002 56.5368 14.4767 56.4686 14.8531C56.3834 15.2296 56.2811 15.606 56.1789 15.9825C56.0596 16.3418 55.9232 16.7183 55.7698 17.0776C55.6164 17.4199 55.4459 17.7792 55.2585 18.1214C55.071 18.4466 54.8664 18.7888 54.6449 19.0968C54.4233 19.4219 54.1847 19.7299 53.946 20.0208C53.6903 20.3289 53.4176 20.6026 53.1449 20.8764C52.9745 21.0304 52.8211 21.1673 52.6506 21.3042C52.5143 21.424 52.395 21.5267 52.2586 21.6465C51.9518 21.886 51.645 22.1085 51.3041 22.3138C50.9803 22.5191 50.6394 22.7245 50.2985 22.8956C49.9405 23.0667 49.5826 23.2207 49.2247 23.3747C48.8667 23.5116 48.4918 23.6314 48.1168 23.7341C47.7418 23.8368 47.3498 23.9223 46.9748 23.9908C46.5828 24.0592 46.1907 24.0934 45.8158 24.1277C45.543 24.1448 45.2703 24.1619 44.9976 24.1619C44.6056 24.1619 44.2136 24.1277 43.8386 24.0934C43.4466 24.0592 43.0545 24.0078 42.6795 23.9223C42.2875 23.8538 41.9125 23.7511 41.5376 23.6314H41.5205C41.8955 23.5972 42.2705 23.5629 42.6454 23.4945C43.0375 23.426 43.4124 23.3405 43.7874 23.2378C44.1624 23.1351 44.5374 23.0153 44.8953 22.8784C45.2703 22.7415 45.6282 22.5704 45.9691 22.3993C46.3271 22.2282 46.6509 22.04 46.9918 21.8346C47.3156 21.6122 47.6395 21.3897 47.9463 21.1502C48.2531 20.9106 48.5429 20.6539 48.8156 20.3801C49.1053 20.1235 49.361 19.8326 49.6167 19.5417C49.8723 19.2337 50.111 18.9256 50.3326 18.6176C50.3666 18.5663 50.4008 18.4979 50.4348 18.4465C50.6053 18.1727 50.7757 17.8989 50.9291 17.6251C51.1166 17.2829 51.287 16.9407 51.4404 16.5813C51.5938 16.222 51.7302 15.8626 51.8495 15.4862C51.9688 15.1268 52.0541 14.7504 52.1393 14.3739C52.2075 13.9804 52.2756 13.6039 52.3097 13.2274C52.3438 12.8339 52.3779 12.4403 52.3779 12.0638C52.3779 11.7901 52.3608 11.5163 52.3439 11.2425C52.3098 10.8489 52.2586 10.4725 52.2075 10.096C52.1393 9.70243 52.0541 9.32598 51.9518 8.94951C51.8325 8.59017 51.7132 8.21371 51.5769 7.85437C51.4405 7.49502 51.2701 7.13567 51.0996 6.79344C50.9121 6.45121 50.7246 6.10897 50.5201 5.78385C50.2985 5.45873 50.0769 5.15072 49.8383 4.84271C49.5826 4.55181 49.327 4.26091 49.0542 3.97001C48.9179 3.83312 48.7645 3.67911 48.6111 3.54222C47.8441 2.94331 47.043 2.37862 46.2419 1.86527C46.1226 1.7968 46.0203 1.74549 45.901 1.69415C45.3385 1.33481 44.8102 1.14657 44.2818 0.975463L44.2817 0.975368Z" fill="#E0234E"/>
</svg>
