<svg width="265" height="113" viewBox="0 0 265 113" fill="none" xmlns="http://www.w3.org/2000/svg">
<path d="M60.3787 111.515V83.1974L60.9404 82.6096H67.7433L68.3091 83.1974V111.515L67.7433 112.103H60.9404L60.3787 111.515ZM60.3787 28.9055V0.587877L60.9404 0H67.7433L68.3091 0.587877V28.9055L67.7433 29.4934H60.9404L60.3787 28.9055ZM36.9674 91.6058H36.0298L31.35 86.7371V85.7642L40.1189 76.6314L45.0713 76.6397L45.7322 77.3186V82.4729L36.9674 91.6058ZM31.35 26.5954V25.6142L36.0298 20.7538H36.9633L45.7322 29.8784V35.0244L45.0713 35.7199H40.1189L31.35 26.5954ZM0.561746 51.9156H39.1152L39.677 52.5035V59.5912L39.1152 60.179H0.561746L0 59.5912V52.5035L0.561746 51.9156ZM263.774 51.9239L264.34 52.5118V59.5912L263.774 60.179H224.658L224.097 59.5912L226.926 52.5118L227.488 51.9239H263.774ZM77.1028 70.8064H70.3L69.7341 70.2185V53.6503C69.7341 50.6943 68.623 48.4132 65.2072 48.3386C63.4435 48.2972 61.4361 48.3386 59.2841 48.4297L58.9578 48.7692V70.2144L58.3961 70.794H51.5891L51.0233 70.2144V41.8927L51.5891 41.3048H66.8924C72.8402 41.3048 77.6604 46.3225 77.6604 52.5118V70.2103L77.0987 70.7981L77.1028 70.8064ZM110.047 58.4113L109.485 58.995H91.898L91.3322 59.5829C91.3322 60.7628 92.468 64.3025 97.0074 64.3025C98.7091 64.3025 100.407 63.7187 100.981 62.5347L101.543 61.9468H108.345L108.911 62.5347C108.345 66.0744 105.508 71.3943 96.9991 71.3943C87.3587 71.3943 82.8193 64.3149 82.8193 56.0432C82.8193 47.7715 87.3587 40.6921 96.4333 40.6921C105.508 40.6921 110.047 47.7715 110.047 56.0432V58.4113ZM101.538 52.5035C101.538 51.9156 100.973 47.7797 96.4333 47.7797C91.8939 47.7797 91.3322 51.9156 91.3322 52.4993L91.8939 53.0914H100.973L101.538 52.5035ZM125.925 61.9468C125.925 63.1309 126.49 63.7187 127.626 63.7187H132.727L133.293 64.3066V70.2103L132.727 70.7981H127.63C122.529 70.7981 117.99 68.4301 117.99 61.9385V48.9514L117.428 48.3676H113.455L112.889 47.7797V41.8761L113.455 41.2882H117.428L117.99 40.7003V35.3887L118.556 34.805H125.359L125.92 35.3929V40.7003L126.486 41.2882H132.723L133.289 41.8761V47.7797L132.723 48.3676H126.486L125.92 48.9555V61.9385L125.925 61.9468ZM146.92 70.8064H140.113L139.551 70.2185V30.073L140.113 29.4851H146.915L147.481 30.073V70.2103L146.915 70.7981L146.92 70.8064ZM162.231 36.5645H155.428L154.862 35.9766V30.073L155.428 29.4851H162.231L162.793 30.073V35.9766L162.231 36.5645ZM162.231 70.8064H155.428L154.862 70.2185V41.8844L155.428 41.2965H162.231L162.793 41.8844V70.2185L162.231 70.8064ZM188.893 30.073V35.9766L188.331 36.5645H183.226C182.09 36.5645 181.528 37.1524 181.528 38.3364V40.7003L182.09 41.2882H187.765L188.331 41.8761V47.7797L187.765 48.3676H182.09L181.528 48.9555V70.202L180.963 70.7899H174.16L173.598 70.202V48.9514L173.032 48.3676H169.059L168.497 47.7797V41.8761L169.059 41.2882H173.032L173.598 40.7003V38.3323C173.598 31.8407 178.137 29.4727 183.238 29.4727H188.34L188.901 30.0647L188.893 30.073ZM209.876 71.3943C207.604 77.2979 205.336 80.8376 197.398 80.8376H194.56L193.998 80.2539V74.3461L194.56 73.7582H197.398C200.235 73.7582 200.797 73.1704 201.371 71.4026V70.8147L192.297 47.788V41.8844L192.858 41.2965H197.964L198.525 41.8844L205.328 61.9592H205.89L212.693 41.8802L213.258 41.2965H218.36L218.925 41.8844V47.788L209.847 71.4026L209.876 71.3943Z" fill="white"/>
</svg>
