<svg width="74" height="74" viewBox="0 0 74 74" fill="none" xmlns="http://www.w3.org/2000/svg">
<path fill-rule="evenodd" clip-rule="evenodd" d="M37.5623 4L7 14.7028L11.3753 55.6088L37.5623 70V4Z" fill="#412846"/>
<path fill-rule="evenodd" clip-rule="evenodd" d="M37.4375 4L67.9998 14.7028L63.6244 55.6088L37.4375 70V4Z" fill="#4B314F"/>
<path fill-rule="evenodd" clip-rule="evenodd" d="M52.7307 26.585L52.7252 26.5675C54.1207 28.1345 54.8376 29.9951 54.8756 32.1495C54.9137 34.3037 54.1969 36.5763 52.7087 38.96C53.821 38.0877 55.1054 36.2048 56.5579 33.3331C57.1853 39.1529 54.8541 43.5736 49.5424 46.6011C51.2383 46.4433 53.4898 45.3169 56.2824 43.2179C53.3024 50.4562 47.823 54.2751 39.8443 54.6749C32.1334 54.6728 27.1382 49.9979 27.142 50.0009C23.9719 47.5116 21.7907 44.3743 20.6059 40.6028C18.7098 38.5138 18.6909 38.2898 18.4953 37.4551C18.2997 36.6203 18.6189 36.3871 19.1743 35.5703C19.5446 35.0258 19.6318 34.2425 19.4416 33.2344C18.9696 32.5739 18.6977 31.5396 18.6261 30.1314C18.6261 29.4508 19.0762 28.7328 19.9767 27.9772C20.8771 27.2217 21.4295 26.6406 21.6296 26.2406C21.7822 26.0224 21.8412 25.0769 21.8065 23.404C21.7972 21.7608 22.7015 20.8667 24.5196 20.722C27.2465 20.5047 28.7844 18.4357 29.6412 17.4947C30.2124 16.8674 31.0577 16.5625 32.1238 16.5566C33.6249 16.4856 34.9906 17.0661 36.1671 18.264C39.0975 18.1111 42.0992 18.9084 45.1406 20.6356C49.4628 23.2259 51.8216 26.0309 52.2171 29.0367C51.7539 32.9924 46.4867 32.889 36.4391 28.7255C31.1811 30.2281 28.5961 33.4842 28.682 38.4937C28.6784 43.0906 30.8837 46.431 35.2827 48.5115C33.1386 46.3879 32.2255 44.6029 32.5331 43.1247C36.9927 48.4529 42.0725 50.4444 47.7637 49.0996C45.2545 49.188 43.267 48.3734 41.7712 46.6438C45.6181 46.5495 49.2496 44.7478 52.6692 41.2207C50.6952 42.8055 48.6296 43.4056 46.4425 43.0281C52.366 38.3298 54.4621 32.8488 52.7307 26.585ZM41.9797 25.8623C42.4599 25.8623 42.8492 25.4696 42.8492 24.9851C42.8492 24.5006 42.4599 24.1079 41.9797 24.1079C41.4995 24.1079 41.1103 24.5006 41.1103 24.9851C41.1103 25.4696 41.4995 25.8623 41.9797 25.8623Z" fill="#BA2BD2"/>
</svg>
