<svg width="95" height="59" viewBox="0 0 95 59" fill="none" xmlns="http://www.w3.org/2000/svg">
<path d="M47.5 37.76L35.2292 57.4267L14.6458 23.9933V59H0V0H14.6458L35.2292 35.0067V19.2733L47.1042 37.76H47.5ZM49.875 15.34V0H35.2292V15.34H49.875ZM72.0417 31.4667C70.3444 31.361 68.658 31.8012 67.2322 32.7222C65.8064 33.6431 64.7169 34.9958 64.125 36.58C65.1582 35.1169 66.6619 34.0471 68.3887 33.5466C70.1155 33.0462 71.9623 33.1449 73.625 33.8267C75.2083 34.6133 77.5833 35.4 78.7708 35.0067C78.0141 33.9266 77.0086 33.0418 75.8381 32.4261C74.6676 31.8103 73.366 31.4814 72.0417 31.4667ZM85.5 35.4C83.9167 35.4 82.3333 34.6133 81.1458 33.04L80.3542 31.86C79.8488 30.9573 79.1774 30.1568 78.375 29.5C76.9569 28.6178 75.294 28.2047 73.625 28.32C71.6936 28.3133 69.8025 28.8684 68.1848 29.9168C66.567 30.9652 65.2934 32.461 64.5208 34.22C65.4469 32.8958 66.7123 31.8416 68.186 31.1666C69.6598 30.4916 71.2883 30.2202 72.903 30.3807C74.5178 30.5411 76.06 31.1275 77.37 32.0792C78.6801 33.0308 79.7104 34.3131 80.3542 35.7933C80.7436 36.3419 81.2994 36.7524 81.9404 36.9647C82.5814 37.177 83.2738 37.18 83.9167 36.9733C85.8958 36.9733 85.5 38.5467 88.6667 38.94V38.5467C88.6667 36.9733 87.4792 36.58 85.5 35.7933V35.4ZM93.4167 40.5133C93.8712 40.2997 94.2588 39.9673 94.5377 39.5515C94.8166 39.1358 94.9764 38.6524 95 38.1533C95 26.3533 85.5 16.52 73.625 16.52C70.1031 16.5135 66.6341 17.3719 63.5266 19.0188C60.419 20.6657 57.7691 23.0501 55.8125 25.96L49.875 16.52H35.2292L49.0833 37.76L35.625 59H49.875L55.4167 49.1667L61.75 58.6067H75.6042L63.3333 38.94C63.2475 38.5513 63.2475 38.1487 63.3333 37.76C63.3314 35.0102 64.4029 32.3669 66.3224 30.3862C68.2419 28.4055 70.8597 27.2418 73.625 27.14C79.5625 27.14 80.3542 30.68 81.5417 32.2533C84.3125 35.4 89.4583 34.22 89.4583 38.1533C89.4793 38.6069 89.6128 39.0483 89.847 39.4382C90.0812 39.8281 90.4088 40.1544 90.8007 40.388C91.1925 40.6216 91.6364 40.7553 92.0928 40.7772C92.5492 40.7991 93.004 40.7084 93.4167 40.5133ZM95 41.3C94.2083 42.48 92.625 42.48 91.8333 43.66C91.4375 44.84 92.2292 45.2333 92.2292 45.2333C92.2292 45.2333 93.8125 46.02 94.6042 44.0533V41.3H95Z" fill="white"/>
</svg>
