<svg width="74" height="74" viewBox="0 0 74 74" fill="none" xmlns="http://www.w3.org/2000/svg">
<path d="M36.6511 5.00044C34.5207 5.01053 32.4861 5.19577 30.6959 5.51872C25.4222 6.46857 24.4647 8.45668 24.4647 12.1231V16.9653H36.9271V18.5794H24.4647H19.7877C16.1658 18.5794 12.9943 20.7988 12.0023 25.0209C10.8581 29.8604 10.8073 32.8803 12.0023 37.9335C12.8882 41.6949 15.0038 44.375 18.6257 44.375H22.9106V38.5703C22.9106 34.3767 26.4696 30.6776 30.6959 30.6776H43.1438C46.6088 30.6776 49.375 27.769 49.375 24.2213V12.1231C49.375 8.67989 46.5258 6.09337 43.1438 5.51872C41.0029 5.1554 38.7816 4.99034 36.6511 5.00044ZM29.9116 8.89495C31.1989 8.89495 32.2501 9.98418 32.2501 11.3235C32.2501 12.658 31.1989 13.7372 29.9116 13.7372C28.6197 13.7372 27.5731 12.658 27.5731 11.3235C27.5731 9.98418 28.6197 8.89495 29.9116 8.89495Z" fill="url(#paint0_linear_12520_19551)"/>
<path d="M51.0332 18.4997V24.0986C51.0332 28.4394 47.4032 32.0929 43.2637 32.0929H30.8411C27.4383 32.0929 24.6226 35.0454 24.6226 38.5001V50.5062C24.6226 53.9232 27.5535 55.933 30.8411 56.9133C34.778 58.0869 38.5532 58.299 43.2637 56.9133C46.3948 55.9943 49.4822 54.1447 49.4822 50.5062V45.7008H37.0596V44.099H49.4822H55.7008C59.3153 44.099 60.6623 41.543 61.9193 37.7065C63.2178 33.7569 63.1625 29.9588 61.9193 24.8922C61.026 21.2442 59.3199 18.4997 55.7008 18.4997H51.0332ZM44.0464 48.9044C45.3357 48.9044 46.3802 49.9753 46.3802 51.2997C46.3802 52.6288 45.3357 53.7098 44.0464 53.7098C42.7618 53.7098 41.7127 52.6288 41.7127 51.2997C41.7127 49.9753 42.7618 48.9044 44.0464 48.9044Z" fill="url(#paint1_linear_12520_19551)"/>
<path opacity="0.44382" d="M37.001 68.0002C46.3208 68.0002 53.876 66.4891 53.876 64.6252C53.876 62.7612 46.3208 61.2502 37.001 61.2502C27.6812 61.2502 20.126 62.7612 20.126 64.6252C20.126 66.4891 27.6812 68.0002 37.001 68.0002Z" fill="url(#paint2_radial_12520_19551)"/>
<defs>
<linearGradient id="paint0_linear_12520_19551" x1="11.125" y1="5" x2="40.3271" y2="29.4085" gradientUnits="userSpaceOnUse">
<stop stop-color="#5A9FD4"/>
<stop offset="1" stop-color="#306998"/>
</linearGradient>
<linearGradient id="paint1_linear_12520_19551" x1="43.7476" y1="50.8957" x2="33.2712" y2="36.4149" gradientUnits="userSpaceOnUse">
<stop stop-color="#FFD43B"/>
<stop offset="1" stop-color="#FFE873"/>
</linearGradient>
<radialGradient id="paint2_radial_12520_19551" cx="0" cy="0" r="1" gradientUnits="userSpaceOnUse" gradientTransform="translate(37.001 64.6252) rotate(-90) scale(3.375 14.3827)">
<stop stop-color="#B8B8B8" stop-opacity="0.498039"/>
<stop offset="1" stop-color="#7F7F7F" stop-opacity="0"/>
</radialGradient>
</defs>
</svg>
