<svg width="63" height="57" viewBox="0 0 63 57" fill="none" xmlns="http://www.w3.org/2000/svg">
<path d="M63 28.1962C63 24.0023 57.7736 20.0278 49.7605 17.563C51.6097 9.35577 50.7879 2.8261 47.1664 0.735561C46.3317 0.245187 45.356 0.0128982 44.2901 0.0128982V2.89062C44.8808 2.89062 45.356 3.00677 45.754 3.22613C47.5004 4.23267 48.2582 8.06532 47.6672 12.9948C47.5262 14.2079 47.2951 15.4854 47.0125 16.7887C44.4954 16.1693 41.7474 15.6919 38.8581 15.3822C37.1246 12.9948 35.3268 10.8269 33.5161 8.92992C37.7024 5.01986 41.632 2.87769 44.303 2.87769V0C40.7714 0 36.1486 2.52929 31.4744 6.9168C26.8 2.55509 22.1772 0.0516229 18.6459 0.0516229V2.92932C21.304 2.92932 25.2462 5.05858 29.4325 8.94282C27.6347 10.8398 25.8369 12.9948 24.1289 15.3822C21.2268 15.6919 18.4788 16.1693 15.9619 16.8016C15.6664 15.5112 15.4482 14.2595 15.294 13.0593C14.6907 8.12984 15.4353 4.29719 17.1691 3.27775C17.5541 3.04546 18.0549 2.94224 18.6459 2.94224V0.0645212C17.5671 0.0645212 16.5911 0.29681 15.7437 0.787184C12.1351 2.87769 11.3262 9.39447 13.1881 17.5759C5.20077 20.0536 0 24.0153 0 28.1962C0 32.3904 5.22644 36.365 13.2395 38.8296C11.3902 47.037 12.2121 53.5665 15.8336 55.6571C16.6683 56.1473 17.644 56.3796 18.7228 56.3796C22.2542 56.3796 26.8772 53.8504 31.5514 49.4629C36.2256 53.8247 40.8486 56.3282 44.38 56.3282C45.4585 56.3282 46.4345 56.096 47.2822 55.6054C50.8905 53.5148 51.6996 46.998 49.8375 38.8169C57.7992 36.352 63 32.3774 63 28.1962ZM46.2806 19.589C45.8054 21.2538 45.2147 22.9699 44.5468 24.6862C44.0205 23.654 43.4683 22.6216 42.8647 21.5891C42.274 20.5569 41.6446 19.5503 41.0155 18.5696C42.8388 18.8406 44.5982 19.1761 46.2806 19.589ZM40.399 33.3323C39.3974 35.0746 38.3703 36.7263 37.3044 38.262C35.3908 38.4296 33.452 38.5199 31.5 38.5199C29.5609 38.5199 27.6218 38.4296 25.7215 38.2747C24.6556 36.739 23.6152 35.1002 22.6137 33.3709C21.6377 31.6806 20.7518 29.9642 19.9426 28.2352C20.7389 26.5059 21.6377 24.7765 22.601 23.0862C23.6026 21.3441 24.6297 19.6923 25.6956 18.1566C27.6092 17.9889 29.548 17.8985 31.5 17.8985C33.4391 17.8985 35.3782 17.9889 37.2785 18.1437C38.3444 19.6794 39.3848 21.3182 40.3863 23.0475C41.3623 24.7379 42.2482 26.4542 43.0574 28.1835C42.2482 29.9126 41.3623 31.6419 40.399 33.3323ZM44.5468 31.6549C45.2209 33.3366 45.8124 35.0506 46.3191 36.7906C44.6367 37.2035 42.8647 37.5521 41.0284 37.8231C41.6575 36.8296 42.2867 35.8101 42.8776 34.7646C43.4683 33.7325 44.0205 32.687 44.5468 31.6549ZM31.5256 45.424C30.3313 44.1849 29.1371 42.8041 27.9557 41.2944C29.1115 41.3461 30.2928 41.3847 31.4871 41.3847C32.6942 41.3847 33.8885 41.359 35.0572 41.2944C33.9549 42.7339 32.776 44.1124 31.5256 45.424ZM21.9716 37.8231C20.1482 37.5521 18.3889 37.2165 16.7068 36.8036C17.1817 35.1389 17.7727 33.4226 18.4403 31.7062C18.9669 32.7387 19.5191 33.7711 20.1224 34.8033C20.726 35.8358 21.3425 36.8423 21.9716 37.8231ZM31.4615 10.9688C32.6558 12.2076 33.85 13.5884 35.0313 15.0983C33.8756 15.0466 32.6942 15.0079 31.5 15.0079C30.2928 15.0079 29.0986 15.0337 27.9302 15.0983C29.0324 13.6588 30.2112 12.2804 31.4615 10.9688ZM21.9587 18.5696C21.3295 19.5632 20.7004 20.5827 20.1097 21.6278C19.5191 22.6603 18.9669 23.6927 18.4403 24.7249C17.7661 23.0432 17.1747 21.3292 16.6683 19.589C18.3504 19.189 20.1224 18.8406 21.9587 18.5696ZM10.3373 34.726C5.79149 32.7774 2.85079 30.2225 2.85079 28.1962C2.85079 26.1703 5.79149 23.6024 10.3373 21.6667C11.4417 21.1892 12.6488 20.7633 13.8945 20.3633C14.6264 22.8925 15.5895 25.525 16.7837 28.2222C15.6024 30.9063 14.652 33.5259 13.9329 36.0424C12.6617 35.6421 11.4546 35.2035 10.3373 34.726ZM17.246 53.1665C15.4996 52.16 14.7418 48.3274 15.3328 43.3977C15.4741 42.1849 15.7049 40.9072 15.9875 39.6038C18.5046 40.2233 21.2526 40.7009 24.1419 41.0105C25.8754 43.3977 27.6732 45.5656 29.4839 47.4626C25.2976 51.3728 21.368 53.5148 18.697 53.5148C18.1192 53.5021 17.6314 53.3858 17.246 53.1665ZM47.706 43.3334C48.3093 48.2628 47.5647 52.0954 45.8309 53.1149C45.4459 53.3472 44.9451 53.4505 44.3541 53.4505C41.696 53.4505 37.7538 51.3212 33.5675 47.4369C35.3653 45.54 37.1631 43.385 38.8711 40.9975C41.7733 40.6879 44.5212 40.2103 47.0381 39.5781C47.3336 40.8815 47.5647 42.1332 47.706 43.3334ZM52.6498 34.726C51.5454 35.2035 50.3383 35.6295 49.0926 36.0294C48.3607 33.5002 47.3976 30.8677 46.2034 28.1705C47.385 25.4864 48.3351 22.8669 49.0541 20.3504C50.3256 20.7504 51.5325 21.1892 52.6627 21.6667C57.2085 23.6151 60.1492 26.1703 60.1492 28.1962C60.1363 30.2225 57.1956 32.7903 52.6498 34.726Z" fill="#61DAFB"/>
<ellipse cx="31.499" cy="28.2055" rx="5.84279" ry="5.87149" fill="#61DAFB"/>
</svg>
