<svg width="74" height="74" viewBox="0 0 74 74" fill="none" xmlns="http://www.w3.org/2000/svg">
<path d="M69 37.1962C69 33.0023 63.7736 29.0278 55.7605 26.563C57.6097 18.3558 56.7879 11.8261 53.1664 9.73556C52.3317 9.24519 51.356 9.0129 50.2901 9.0129V11.8906C50.8808 11.8906 51.356 12.0068 51.754 12.2261C53.5004 13.2327 54.2582 17.0653 53.6672 21.9948C53.5262 23.2079 53.2951 24.4854 53.0125 25.7887C50.4954 25.1693 47.7474 24.6919 44.8581 24.3822C43.1246 21.9948 41.3268 19.8269 39.5161 17.9299C43.7024 14.0199 47.632 11.8777 50.303 11.8777V9C46.7714 9 42.1486 11.5293 37.4744 15.9168C32.8 11.5551 28.1772 9.05162 24.6459 9.05162V11.9293C27.304 11.9293 31.2462 14.0586 35.4325 17.9428C33.6347 19.8398 31.8369 21.9948 30.1289 24.3822C27.2268 24.6919 24.4788 25.1693 21.9619 25.8016C21.6664 24.5112 21.4482 23.2595 21.294 22.0593C20.6907 17.1298 21.4353 13.2972 23.1691 12.2777C23.5541 12.0455 24.0549 11.9422 24.6459 11.9422V9.06452C23.5671 9.06452 22.5911 9.29681 21.7437 9.78718C18.1351 11.8777 17.3262 18.3945 19.1881 26.5759C11.2008 29.0536 6 33.0153 6 37.1962C6 41.3904 11.2264 45.365 19.2395 47.8296C17.3902 56.037 18.2121 62.5665 21.8336 64.6571C22.6683 65.1473 23.644 65.3796 24.7228 65.3796C28.2542 65.3796 32.8772 62.8504 37.5514 58.4629C42.2256 62.8247 46.8486 65.3282 50.38 65.3282C51.4585 65.3282 52.4345 65.096 53.2822 64.6054C56.8905 62.5148 57.6996 55.998 55.8375 47.8169C63.7992 45.352 69 41.3774 69 37.1962ZM52.2806 28.589C51.8054 30.2538 51.2147 31.9699 50.5468 33.6862C50.0205 32.654 49.4683 31.6216 48.8647 30.5891C48.274 29.5569 47.6446 28.5503 47.0155 27.5696C48.8388 27.8406 50.5982 28.1761 52.2806 28.589ZM46.399 42.3323C45.3974 44.0746 44.3703 45.7263 43.3044 47.262C41.3908 47.4296 39.452 47.5199 37.5 47.5199C35.5609 47.5199 33.6218 47.4296 31.7215 47.2747C30.6556 45.739 29.6152 44.1002 28.6137 42.3709C27.6377 40.6806 26.7518 38.9642 25.9426 37.2352C26.7389 35.5059 27.6377 33.7765 28.601 32.0862C29.6026 30.3441 30.6297 28.6923 31.6956 27.1566C33.6092 26.9889 35.548 26.8985 37.5 26.8985C39.4391 26.8985 41.3782 26.9889 43.2785 27.1437C44.3444 28.6794 45.3848 30.3182 46.3863 32.0475C47.3623 33.7379 48.2482 35.4542 49.0574 37.1835C48.2482 38.9126 47.3623 40.6419 46.399 42.3323ZM50.5468 40.6549C51.2209 42.3366 51.8124 44.0506 52.3191 45.7906C50.6367 46.2035 48.8647 46.5521 47.0284 46.8231C47.6575 45.8296 48.2867 44.8101 48.8776 43.7646C49.4683 42.7325 50.0205 41.687 50.5468 40.6549ZM37.5256 54.424C36.3313 53.1849 35.1371 51.8041 33.9557 50.2944C35.1115 50.3461 36.2928 50.3847 37.4871 50.3847C38.6942 50.3847 39.8885 50.359 41.0572 50.2944C39.9549 51.7339 38.776 53.1124 37.5256 54.424ZM27.9716 46.8231C26.1482 46.5521 24.3889 46.2165 22.7068 45.8036C23.1817 44.1389 23.7727 42.4226 24.4403 40.7062C24.9669 41.7387 25.5191 42.7711 26.1224 43.8033C26.726 44.8358 27.3425 45.8423 27.9716 46.8231ZM37.4615 19.9688C38.6558 21.2076 39.85 22.5884 41.0313 24.0983C39.8756 24.0466 38.6942 24.0079 37.5 24.0079C36.2928 24.0079 35.0986 24.0337 33.9302 24.0983C35.0324 22.6588 36.2112 21.2804 37.4615 19.9688ZM27.9587 27.5696C27.3295 28.5632 26.7004 29.5827 26.1097 30.6278C25.5191 31.6603 24.9669 32.6927 24.4403 33.7249C23.7661 32.0432 23.1747 30.3292 22.6683 28.589C24.3504 28.189 26.1224 27.8406 27.9587 27.5696ZM16.3373 43.726C11.7915 41.7774 8.85079 39.2225 8.85079 37.1962C8.85079 35.1703 11.7915 32.6024 16.3373 30.6667C17.4417 30.1892 18.6488 29.7633 19.8945 29.3633C20.6264 31.8925 21.5895 34.525 22.7837 37.2222C21.6024 39.9063 20.652 42.5259 19.9329 45.0424C18.6617 44.6421 17.4546 44.2035 16.3373 43.726ZM23.246 62.1665C21.4996 61.16 20.7418 57.3274 21.3328 52.3977C21.4741 51.1849 21.7049 49.9072 21.9875 48.6038C24.5046 49.2233 27.2526 49.7009 30.1419 50.0105C31.8754 52.3977 33.6732 54.5656 35.4839 56.4626C31.2976 60.3728 27.368 62.5148 24.697 62.5148C24.1192 62.5021 23.6314 62.3858 23.246 62.1665ZM53.706 52.3334C54.3093 57.2628 53.5647 61.0954 51.8309 62.1149C51.4459 62.3472 50.9451 62.4505 50.3541 62.4505C47.696 62.4505 43.7538 60.3212 39.5675 56.4369C41.3653 54.54 43.1631 52.385 44.8711 49.9975C47.7733 49.6879 50.5212 49.2103 53.0381 48.5781C53.3336 49.8815 53.5647 51.1332 53.706 52.3334ZM58.6498 43.726C57.5454 44.2035 56.3383 44.6295 55.0926 45.0294C54.3607 42.5002 53.3976 39.8677 52.2034 37.1705C53.385 34.4864 54.3351 31.8669 55.0541 29.3504C56.3256 29.7504 57.5325 30.1892 58.6627 30.6667C63.2085 32.6151 66.1492 35.1703 66.1492 37.1962C66.1363 39.2225 63.1956 41.7903 58.6498 43.726Z" fill="#61DAFB"/>
<ellipse cx="37.499" cy="37.2055" rx="5.84279" ry="5.87149" fill="#61DAFB"/>
</svg>
