<svg width="166" height="122" viewBox="0 0 166 122" fill="none" xmlns="http://www.w3.org/2000/svg">
    <path d="M49.0284 108.62C49.6929 109.091 50.4148 109.465 51.1725 109.734C52.7336 110.289 54.1145 108.899 54.1145 107.242V4.4707C54.1145 2.81385 52.7336 1.42326 51.1725 1.97833C50.4148 2.24775 49.6929 2.62154 49.0284 3.09278C47.5403 4.14823 46.4136 5.64079 45.803 7.36558L43.6858 13.3483C43.271 14.5154 42.6174 15.5822 41.7673 16.4798C40.9171 17.3774 39.8892 18.0859 38.7498 18.5596C37.6104 19.0333 36.3849 19.2617 35.1524 19.23C33.9198 19.1983 32.7075 18.9073 31.5937 18.3756L25.8865 15.6515C24.2403 14.8581 22.3897 14.598 20.5901 14.9069C18.7905 15.2159 17.1307 16.0787 15.8398 17.3763C14.5488 18.6739 13.6904 20.3423 13.3831 22.1512C13.0757 23.9601 13.3346 25.8203 14.1238 27.475L16.8339 33.2118C17.3626 34.3316 17.6517 35.5504 17.6825 36.7895C17.7134 38.0286 17.4853 39.2604 17.0131 40.4054C16.5409 41.5504 15.835 42.5831 14.941 43.4368C14.047 44.2905 12.9848 44.9463 11.8231 45.3617L5.87115 47.4899C4.15363 48.1027 2.66706 49.2351 1.61575 50.7315C0.564442 52.2279 0 54.0149 0 55.8468C0 57.6787 0.564442 59.4657 1.61575 60.9621C2.66706 62.4585 4.15363 63.5909 5.87115 64.2037L11.8231 66.3319C12.9861 66.7471 14.0494 67.4032 14.9442 68.2575C15.8391 69.1119 16.5455 70.1456 17.0179 71.2918C17.4902 72.4379 17.7179 73.6709 17.6862 74.9111C17.6545 76.1513 17.3642 77.371 16.8339 78.4912L14.1238 84.228C13.3346 85.8827 13.0757 87.7429 13.3831 89.5518C13.6904 91.3607 14.5488 93.0291 15.8398 94.3267C17.1307 95.6243 18.7905 96.4871 20.5901 96.7961C22.3897 97.105 24.2403 96.8449 25.8865 96.0515L31.5843 93.3274C32.6992 92.7944 33.9129 92.5025 35.147 92.4706C36.3811 92.4387 37.6081 92.6675 38.7487 93.1423C39.8893 93.617 40.9181 94.3271 41.7686 95.2266C42.619 96.1261 43.2721 97.195 43.6858 98.3642L45.803 104.347C46.4136 106.072 47.5403 107.564 49.0284 108.62Z" fill="#333333"/>
    <circle cx="60" cy="61" r="28" fill="#1B1B1C"/>
    <path d="M62.1576 120.869C60.1525 120.869 58.1966 120.245 56.5582 119.083C54.9199 117.921 53.6795 116.278 53.0073 114.38L50.6764 107.795C50.221 106.508 49.502 105.331 48.5657 104.341C47.6295 103.351 46.4968 102.569 45.2411 102.047C43.9854 101.524 42.6346 101.272 41.2759 101.307C39.9173 101.342 38.5811 101.664 37.3537 102.25L31.0809 105.249C29.2685 106.122 27.2312 106.409 25.25 106.068C23.2688 105.728 21.4415 104.779 20.0203 103.35C18.5991 101.922 17.6541 100.086 17.3157 98.0945C16.9773 96.1034 17.2623 94.0558 18.1312 92.2344L21.1148 85.9197C21.6985 84.6866 22.0182 83.3441 22.053 81.979C22.0879 80.6139 21.8373 79.2566 21.3173 77.995C20.7973 76.7334 20.0195 75.5956 19.0344 74.6551C18.0492 73.7147 16.8786 72.9926 15.5982 72.5355L9.04567 70.1929C7.15482 69.5184 5.51824 68.2719 4.36084 66.6248C3.20343 64.9776 2.58203 63.0107 2.58203 60.9942C2.58203 58.9777 3.20343 57.0108 4.36084 55.3636C5.51824 53.7165 7.15482 52.47 9.04567 51.7955L15.5982 49.4529C16.8772 48.9956 18.0466 48.2739 19.0308 47.3342C20.015 46.3944 20.7922 45.2577 21.312 43.9974C21.8319 42.7371 22.083 41.3811 22.049 40.0172C22.015 38.6533 21.6968 37.3117 21.1148 36.0791L18.1312 29.7645C17.2623 27.9431 16.9773 25.8955 17.3157 23.9044C17.6541 21.9132 18.5991 20.0768 20.0203 18.6485C21.4415 17.2201 23.2688 16.2704 25.25 15.9303C27.2312 15.5903 29.2685 15.8766 31.0809 16.7499L37.3641 19.7485C38.5903 20.3336 39.9249 20.654 41.2818 20.6889C42.6388 20.7237 43.988 20.4724 45.2423 19.9509C46.4966 19.4295 47.6283 18.6497 48.5643 17.6616C49.5003 16.6736 50.2198 15.4994 50.6764 14.2147L53.0073 7.62931C53.6795 5.73078 54.9199 4.08787 56.5582 2.9261C58.1966 1.76432 60.1525 1.14062 62.1576 1.14062" stroke="#E3E3E3" stroke-linecap="round" stroke-linejoin="round"/>
    <path d="M62.0673 85.0692C49.1938 85.0692 38.7578 74.5809 38.7578 61.643C38.7578 57.9494 39.6084 54.4554 41.1234 51.3481M62.0673 38.2168C58.825 38.2168 55.7373 38.8821 52.932 40.0843" stroke="#E3E3E3" stroke-linecap="round" stroke-linejoin="round"/>
    <path d="M73.1289 36.4955H74.0368C82.0103 36.4955 88.474 30.0317 88.474 22.0583V22.0583C88.474 14.0849 94.9378 7.62109 102.911 7.62109H107.523" stroke="#E3E3E3" stroke-linecap="round"/>
    <path d="M73.1289 85.5026H74.0368C82.0103 85.5026 88.474 91.9663 88.474 99.9398V99.9398C88.474 107.913 94.9378 114.377 102.911 114.377H107.523" stroke="#E3E3E3" stroke-linecap="round"/>
    <ellipse cx="116.57" cy="9.09255" rx="6.87885" ry="6.88747" fill="#CE7783"/>
    <path d="M121.281 7.62185C121.281 11.4257 118.201 14.5093 114.402 14.5093C110.603 14.5093 107.523 11.4257 107.523 7.62185C107.523 3.818 110.603 0.734375 114.402 0.734375" stroke="#E3E3E3" stroke-linecap="round"/>
    <ellipse rx="6.87884" ry="6.88747" transform="matrix(1 0 0 -1 115.84 112.718)" fill="#CE7783"/>
    <path d="M121.281 114.376C121.281 118.18 118.201 121.264 114.402 121.264C110.603 121.264 107.523 118.18 107.523 114.376C107.523 110.572 110.603 107.489 114.402 107.489" stroke="#E3E3E3" stroke-linecap="round"/>
    <ellipse cx="132.66" cy="29.6707" rx="6.87885" ry="6.88747" fill="#EAB669"/>
    <path d="M137.683 31.4636C137.683 27.6598 134.604 24.5762 130.805 24.5762C127.006 24.5762 123.926 27.6598 123.926 31.4636C123.926 35.2675 127.006 38.3511 130.805 38.3511" stroke="#E3E3E3" stroke-linecap="round"/>
    <ellipse rx="6.87885" ry="6.88747" transform="matrix(1 0 0 -1 132.66 92.8742)" fill="#EAB669"/>
    <path d="M137.683 90.5364C137.683 86.7325 134.604 83.6489 130.805 83.6489C127.006 83.6489 123.926 86.7325 123.926 90.5364C123.926 94.3402 127.006 97.4238 130.805 97.4238" stroke="#E3E3E3" stroke-linecap="round"/>
    <ellipse cx="158.984" cy="58.3328" rx="6.87884" ry="6.88747" fill="#71A5D2"/>
    <path d="M165.199 61.1316C165.199 64.9355 162.119 68.0191 158.32 68.0191C154.521 68.0191 151.441 64.9355 151.441 61.1316C151.441 57.3278 154.521 54.2441 158.32 54.2441" stroke="#E3E3E3" stroke-linecap="round"/>
    <path d="M73.1289 48.1537H91.7707C96.3792 48.1537 100.115 44.4178 100.115 39.8093V39.8093C100.115 35.2008 103.851 31.4648 108.46 31.4648H123.587" stroke="#E3E3E3" stroke-linecap="round"/>
    <path d="M73.1289 73.8482H91.7707C96.3792 73.8482 100.115 77.5842 100.115 82.1927V82.1927C100.115 86.8012 103.851 90.5371 108.46 90.5371H123.587" stroke="#E3E3E3" stroke-linecap="round"/>
    <path d="M73.1289 61.1309H129.437M151.376 61.1309H138.213" stroke="#E3E3E3" stroke-linecap="round"/>
</svg>
