<svg width="150" height="150" viewBox="0 0 150 150" fill="none" xmlns="http://www.w3.org/2000/svg">
    <path d="M3.125 103.5V92.3184C3.125 90.5925 4.52411 89.1934 6.25 89.1934H25C26.7259 89.1934 28.125 90.5925 28.125 92.3184V136.068C28.125 137.794 26.7259 139.193 25 139.193H6.25C4.52411 139.193 3.125 137.794 3.125 136.068V123" stroke="#E3E3E3" stroke-linecap="round" stroke-linejoin="round"/>
    <path d="M28.125 129.82C74.9722 145.438 78.2394 150.254 102 138.706M98.05 118.751L130.563 107.945C133.124 107.089 135.865 106.916 138.515 107.443C141.164 107.97 143.63 109.179 145.669 110.951C146.086 111.283 146.413 111.714 146.621 112.205C146.829 112.696 146.911 113.232 146.858 113.762C146.806 114.293 146.622 114.802 146.322 115.244C146.023 115.685 145.618 116.044 145.144 116.288C138.093 119.853 131.936 123.059 126.5 125.922" stroke="#E3E3E3" stroke-linecap="round" stroke-linejoin="round"/>
    <path d="M59.375 120.443H93.75C95.4076 120.443 96.9973 119.785 98.1694 118.613C99.3415 117.441 100 115.851 100 114.193C100 112.536 99.3415 110.946 98.1694 109.774C96.9973 108.602 95.4076 107.943 93.75 107.943H75C71.0012 103.817 66.2237 100.612 61 98.4776M46.875 95.4434H28.125" stroke="#E3E3E3" stroke-linecap="round" stroke-linejoin="round"/>
    <path d="M33 80C28.5817 80 24.8864 76.3421 26.1766 72.1164C27.4568 67.9231 29.7512 64.065 32.9081 60.9081C37.9716 55.8446 44.8392 53 52 53C59.1608 53 66.0284 55.8446 71.0919 60.9081C74.2488 64.065 76.5432 67.9231 77.8234 72.1164C79.1136 76.3421 75.4183 80 71 80H33Z" fill="#71A5D2"/>
    <path d="M31.25 71.324C34.2169 64.8398 39.313 59.5659 45.6916 56.3784C52.0703 53.191 59.3475 52.2819 66.3143 53.8023C73.281 55.3226 79.5179 59.1808 83.9887 64.7359C88.4595 70.291 90.8951 77.2085 90.8909 84.3392H72.6696" stroke="#E3E3E3" stroke-linecap="round" stroke-linejoin="round"/>
    <path d="M58 39C67.9411 39 76 30.9411 76 21C76 11.0589 67.9411 3 58 3C48.0589 3 40 11.0589 40 21C40 30.9411 48.0589 39 58 39Z" fill="#CE7783"/>
    <path d="M79.1823 25.7728C79.1823 36.555 70.4417 45.2956 59.6595 45.2956C48.8774 45.2956 40.1367 36.555 40.1367 25.7728C40.1367 14.9907 48.8774 6.25 59.6595 6.25C62.6434 6.25 65.4708 6.91939 68 8.1162" stroke="#E3E3E3" stroke-linecap="round" stroke-linejoin="round"/>
    <path d="M113 39C122.941 39 131 30.9411 131 21C131 11.0589 122.941 3 113 3C103.059 3 95 11.0589 95 21C95 30.9411 103.059 39 113 39Z" fill="#EAB669"/>
    <path d="M89.5938 25.7728C89.5938 14.9907 98.3344 6.25 109.117 6.25C119.899 6.25 128.639 14.9907 128.639 25.7728C128.639 36.555 119.899 45.2956 109.117 45.2956C105.62 45.2956 102.339 44.3765 99.5 42.7668" stroke="#E3E3E3" stroke-linecap="round" stroke-linejoin="round"/>
    <path d="M103 79C98.5817 79 94.8829 75.3361 96.2211 71.1254C97.4697 67.1969 99.6464 63.584 102.615 60.6152C107.491 55.7393 114.104 53 121 53C127.896 53 134.509 55.7393 139.385 60.6152C142.354 63.584 144.53 67.1969 145.779 71.1254C147.117 75.3361 143.418 79 139 79H103Z" fill="#CE7783"/>
    <path d="M93.3984 57.339C98.1458 54.5737 103.538 53.1094 109.032 53.0939C114.526 53.0783 119.927 54.5121 124.69 57.2505C129.453 59.9889 133.409 63.935 136.16 68.6908C138.911 73.4466 140.359 78.8438 140.357 84.3378H101.312" stroke="#E3E3E3" stroke-linecap="round" stroke-linejoin="round"/>
</svg>
