<svg width="157" height="160" viewBox="0 0 157 160" fill="none" xmlns="http://www.w3.org/2000/svg">
    <path d="M156.001 32.6868C156.001 50.187 141.851 64.3736 124.395 64.3736C106.94 64.3736 92.7891 50.187 92.7891 32.6868C92.7891 15.1867 106.94 1 124.395 1C131.35 1 137.78 3.25216 143 7.06872" stroke="#E3E3E3" stroke-linecap="round"/>
    <path d="M61.6133 14.4551C61.6133 21.4072 67.2347 27.043 74.1691 27.043C81.1036 27.043 86.725 21.4072 86.725 14.4551C86.725 7.50299 81.1036 1.86719 74.1691 1.86719" stroke="#E3E3E3" stroke-linecap="round"/>
    <path d="M155.135 91.7207C155.135 98.6728 149.514 104.309 142.579 104.309C135.645 104.309 130.023 98.6728 130.023 91.7207C130.023 84.7686 135.645 79.1328 142.579 79.1328" stroke="#E3E3E3" stroke-linecap="round"/>
    <path d="M26.1117 115.158C26.1117 108.206 20.4903 102.57 13.5559 102.57C6.62145 102.57 1 108.206 1 115.158C1 122.11 6.62145 127.746 13.5559 127.746" stroke="#E3E3E3" stroke-linecap="round"/>
    <path d="M36.9348 151.188C43.8692 151.188 49.4906 145.552 49.4906 138.6C49.4906 131.648 43.8692 126.012 36.9348 126.012C30.0004 126.012 24.3789 131.648 24.3789 138.6" stroke="#E3E3E3" stroke-linecap="round"/>
    <path d="M13.5559 27.043C20.4903 27.043 26.1117 21.4072 26.1117 14.4551C26.1117 7.50299 20.4903 1.86719 13.5559 1.86719C6.62145 1.86719 1 7.50299 1 14.4551" stroke="#E3E3E3" stroke-linecap="round"/>
    <path d="M71.1381 68.2786C71.1381 50.7785 56.9875 36.5918 39.5319 36.5918C22.0763 36.5918 7.92578 50.7785 7.92578 68.2786C7.92578 85.7788 22.0763 99.9654 39.5319 99.9654C49.5511 99.9654 58.4814 95.2916 64.272 88" stroke="#E3E3E3" stroke-linecap="round"/>
    <path d="M123.962 127.312C123.962 109.812 109.812 95.625 92.3561 95.625C74.9006 95.625 60.75 109.812 60.75 127.312C60.75 144.812 74.9006 158.999 92.3561 158.999C98.9574 158.999 105.086 156.97 110.155 153.5" stroke="#E3E3E3" stroke-linecap="round"/>
    <path d="M112.703 49.6147C112.703 45.9308 114.208 42.3978 116.888 39.7929C119.567 37.188 123.201 35.7246 126.991 35.7246C130.78 35.7246 134.414 37.188 137.094 39.7929C139.773 42.3978 141.279 45.9308 141.279 49.6147H112.703Z" fill="#EAB669"/>
    <path d="M27.8438 85.2104C27.8438 81.5265 29.3491 77.9935 32.0285 75.3886C34.708 72.7837 38.3421 71.3203 42.1315 71.3203C45.9208 71.3203 49.5549 72.7837 52.2344 75.3886C54.9139 77.9935 56.4192 81.5265 56.4192 85.2104H27.8438Z" fill="#71A5D2"/>
    <path d="M80.6641 144.242C80.6641 140.558 82.1694 137.025 84.8488 134.42C87.5283 131.815 91.1624 130.352 94.9518 130.352C98.7411 130.352 102.375 131.815 105.055 134.42C107.734 137.025 109.239 140.558 109.239 144.242H80.6641Z" fill="#CE7783"/>
    <path d="M113.803 41.1687C116.727 38.2381 120.691 36.5918 124.825 36.5918C128.959 36.5918 132.923 38.2381 135.846 41.1687C138.769 44.0992 140.411 48.0738 140.411 52.2182H109.238C109.238 50.5006 109.52 48.8123 110.059 47.2153" stroke="#E3E3E3" stroke-linecap="round" stroke-linejoin="round"/>
    <path d="M28.9441 76.7644C31.8672 73.8338 35.8317 72.1875 39.9655 72.1875C44.0993 72.1875 48.0638 73.8338 50.9869 76.7644C53.9099 79.6949 55.5521 83.6695 55.5521 87.8139H24.3789C24.3789 86.0963 24.6609 84.408 25.1993 82.811" stroke="#E3E3E3" stroke-linecap="round" stroke-linejoin="round"/>
    <path d="M81.7644 135.798C84.6875 132.867 88.652 131.221 92.7858 131.221C96.9196 131.221 100.884 132.867 103.807 135.798C106.73 138.728 108.372 142.703 108.372 146.847H77.1992C77.1992 145.13 77.4813 143.441 78.0196 141.844" stroke="#E3E3E3" stroke-linecap="round" stroke-linejoin="round"/>
    <path d="M127.425 31.3841C132.207 31.3841 136.084 27.4974 136.084 22.7028C136.084 17.9082 132.207 14.0215 127.425 14.0215C122.642 14.0215 118.766 17.9082 118.766 22.7028C118.766 27.4974 122.642 31.3841 127.425 31.3841Z" fill="#CE7783"/>
    <path d="M42.5655 66.9779C47.3478 66.9779 51.2247 63.0911 51.2247 58.2966C51.2247 53.502 47.3478 49.6152 42.5655 49.6152C37.7831 49.6152 33.9062 53.502 33.9062 58.2966C33.9062 63.0911 37.7831 66.9779 42.5655 66.9779Z" fill="#EAB669"/>
    <path d="M95.3858 126.011C100.168 126.011 104.045 122.124 104.045 117.33C104.045 112.535 100.168 108.648 95.3858 108.648C90.6034 108.648 86.7266 112.535 86.7266 117.33C86.7266 122.124 90.6034 126.011 95.3858 126.011Z" fill="#71A5D2"/>
    <path d="M119.956 14.5558C121.381 13.6656 123.047 13.1543 124.826 13.1543C130.087 13.1543 134.351 17.6241 134.351 23.1378C134.351 28.6516 130.087 33.1213 124.826 33.1213C119.565 33.1213 115.301 28.6516 115.301 23.1378C115.301 21.8123 115.547 20.5471 115.995 19.3899" stroke="#E3E3E3" stroke-linecap="round" stroke-linejoin="round"/>
    <path d="M35.097 50.1476C36.5219 49.2574 38.1873 48.7461 39.9665 48.7461C45.2271 48.7461 49.4917 53.2159 49.4917 58.7296C49.4917 64.2434 45.2271 68.7131 39.9665 68.7131C34.706 68.7131 30.4414 64.2434 30.4414 58.7296C30.4414 57.4041 30.6879 56.1389 31.1354 54.9817" stroke="#E3E3E3" stroke-linecap="round" stroke-linejoin="round"/>
    <path d="M87.9173 109.181C89.3422 108.291 91.0076 107.779 92.7869 107.779C98.0474 107.779 102.312 112.249 102.312 117.763C102.312 123.277 98.0474 127.746 92.7869 127.746C87.5263 127.746 83.2617 123.277 83.2617 117.763C83.2617 116.437 83.5082 115.172 83.9557 114.015" stroke="#E3E3E3" stroke-linecap="round" stroke-linejoin="round"/>
    <path d="M95.3865 44.8398L68.543 56.5596" stroke="#E3E3E3"/>
    <path d="M113.571 62.2031L101.016 96.9284" stroke="#E3E3E3"/>
    <path d="M132.186 98.6641L117.465 108.214" stroke="#E3E3E3"/>
    <path d="M60.3164 91.7188L71.1404 103.873" stroke="#E3E3E3"/>
    <path d="M24.3798 95.625L19.6172 104.306" stroke="#E3E3E3"/>
    <path d="M61.6145 132.521L49.0586 135.56" stroke="#E3E3E3"/>
    <path d="M18.75 25.7422L25.6774 40.0664" stroke="#E3E3E3"/>
    <path d="M94.9516 21.8353L85.8594 18.7969" stroke="#E3E3E3"/>
</svg>
