<svg width="529" height="431" viewBox="0 0 529 431" fill="none" xmlns="http://www.w3.org/2000/svg">
    <path d="M495.174 329.715C513.856 329.715 529 314.592 529 295.938C529 277.283 513.856 262.16 495.174 262.16C476.492 262.16 461.348 277.283 461.348 295.938C461.348 314.592 476.492 329.715 495.174 329.715Z" fill="#CE7783"/>
    <path d="M60.5844 187.327C55.9856 183.574 44.2998 171.066 31.3698 133.991C31.3698 133.991 12.0825 107.531 2.42904 108.233C-7.22446 108.936 31.7996 205.8 53.9402 204.206C58.6432 203.66 62.4084 200.85 63.646 196.895C64.143 195.177 64.117 193.35 63.5719 191.646C63.0268 189.943 61.987 188.44 60.5844 187.327Z" fill="#71A5D2"/>
    <path d="M76.3716 167.183C74.4174 149.159 65.0568 54.5393 22.8341 37.8489C22.6537 37.7724 22.4628 37.724 22.2676 37.7057C9.80017 36.7365 40.2197 164.939 63.2657 175.918C67.0437 177.408 69.8838 176.972 71.9617 175.84C73.4711 174.994 74.6952 173.72 75.4801 172.179C76.2649 170.638 76.5753 168.9 76.3716 167.183Z" fill="#71A5D2"/>
    <path d="M211.703 58.4931C210.316 61.0364 208.785 63.6577 207.085 66.2985C206.636 67.0009 206.173 67.7034 205.704 68.4124C201.761 74.3288 197.294 79.8798 192.357 84.9987C191.862 85.5061 191.367 86.0071 190.865 86.5079C183.611 93.7496 175.381 99.9451 166.413 104.915C164.524 105.965 162.702 107.023 160.947 108.089C160.224 108.519 159.514 108.961 158.817 109.39C155.011 111.766 151.354 114.373 147.868 117.196C147.386 117.586 146.917 117.976 146.454 118.38C131.857 130.803 124.561 145.49 123.936 166.07C123.903 167.189 123.89 168.327 123.897 169.479C123.965 175.896 124.498 182.3 125.493 188.641C125.59 189.291 125.695 189.987 125.812 190.676C124.14 191.425 122.354 191.891 120.529 192.055C112.107 192.595 107.299 188.94 104.57 184.315C103.86 183.091 103.269 181.801 102.805 180.464C102.642 180.002 102.492 179.534 102.362 179.066C100.773 173.359 101.234 167.278 103.665 161.875C105.098 158.623 107.124 154.245 109.703 149.029C109.718 149.009 109.729 148.987 109.736 148.964C116.944 134.337 125.154 120.223 134.306 106.724L135.504 104.987C140.353 97.9736 145.556 91.2112 151.092 84.7256L152.186 83.4574C156.529 78.4577 161.141 73.6978 166.002 69.1994C167.222 68.0807 168.453 66.9839 169.695 65.9085C175.49 60.8584 181.757 56.3757 188.41 52.5223L189.582 51.8718C195.857 48.3502 202.564 45.6586 209.534 43.8648C210.98 43.4225 212.016 43.6175 212.687 44.3851C213.288 45.194 213.615 46.1744 213.618 47.1822C213.755 49.7644 213.071 53.6408 211.703 58.4931Z" fill="#71A5D2"/>
    <path d="M47.6463 297.59C47.586 297.591 47.5267 297.574 47.4749 297.543C47.4232 297.512 47.3809 297.468 47.3531 297.414C45.754 294.209 44.9307 290.673 44.9495 287.092V246.693C44.9495 245.83 45.2926 245.003 45.9034 244.393C46.5142 243.783 47.3427 243.44 48.2064 243.44H116.341C117.205 243.44 118.033 243.783 118.644 244.393C119.255 245.003 119.598 245.83 119.598 246.693V259.89C119.598 259.976 119.564 260.059 119.503 260.12C119.442 260.181 119.359 260.215 119.272 260.215C119.186 260.215 119.103 260.181 119.042 260.12C118.981 260.059 118.947 259.976 118.947 259.89V246.693C118.947 246.003 118.672 245.341 118.183 244.853C117.695 244.365 117.032 244.091 116.341 244.091H48.2064C47.5154 244.091 46.8526 244.365 46.3639 244.853C45.8753 245.341 45.6009 246.003 45.6009 246.693V287.092C45.5928 290.568 46.3979 293.998 47.9523 297.108C47.9723 297.146 47.9846 297.188 47.9883 297.23C47.9919 297.273 47.9867 297.316 47.9733 297.357C47.9599 297.397 47.9386 297.435 47.9103 297.467C47.8821 297.499 47.8478 297.525 47.8092 297.544C47.7607 297.575 47.704 297.591 47.6463 297.59Z" fill="#E3E3E3"/>
    <path d="M96.4553 310.228H68.081C64.1538 310.229 60.2911 309.231 56.8577 307.327C56.82 307.307 56.7867 307.279 56.7597 307.246C56.7327 307.213 56.7127 307.174 56.7006 307.133C56.6885 307.092 56.6848 307.049 56.6894 307.006C56.694 306.964 56.707 306.923 56.7276 306.885C56.7712 306.811 56.8416 306.757 56.9242 306.734C57.0067 306.711 57.0948 306.721 57.1703 306.762C60.5094 308.609 64.2638 309.578 68.081 309.578H96.4553C102.421 309.569 108.14 307.199 112.357 302.986C116.575 298.773 118.947 293.062 118.954 287.105V283.014C118.954 282.927 118.988 282.845 119.05 282.784C119.111 282.723 119.193 282.688 119.28 282.688C119.366 282.69 119.448 282.725 119.508 282.786C119.569 282.846 119.604 282.928 119.605 283.014V287.092C119.602 293.224 117.163 299.103 112.823 303.441C108.482 307.779 102.596 310.22 96.4553 310.228Z" fill="#E3E3E3"/>
    <path d="M95.8384 313.761H68.6953V311.055C68.697 310.969 68.7316 310.887 68.7923 310.827C68.853 310.766 68.9351 310.731 69.021 310.729C69.1074 310.729 69.1902 310.764 69.2513 310.825C69.3124 310.886 69.3467 310.968 69.3467 311.055V313.11H95.187V312.219C95.187 312.133 95.2213 312.05 95.2824 311.989C95.3435 311.928 95.4263 311.894 95.5127 311.894C95.5991 311.894 95.6819 311.928 95.743 311.989C95.8041 312.05 95.8384 312.133 95.8384 312.219V313.761Z" fill="#E3E3E3"/>
    <path d="M109.619 149.529L98.8972 136.189C98.8662 136.156 98.8427 136.117 98.8275 136.075C98.8124 136.032 98.8062 135.987 98.8094 135.942C98.8126 135.897 98.825 135.853 98.846 135.814C98.867 135.774 98.8962 135.739 98.9316 135.711C98.9669 135.683 99.0075 135.663 99.0511 135.651C99.0948 135.64 99.1402 135.637 99.1847 135.644C99.2293 135.651 99.2721 135.667 99.31 135.692C99.348 135.716 99.3805 135.748 99.4055 135.785L107.6 145.971L100.174 132.891L107.658 119.752L116.888 128.774L109.222 117.391L109.398 117.202C109.437 117.157 113.482 112.773 118.048 107.973C118.11 107.913 118.193 107.879 118.279 107.879C118.366 107.879 118.449 107.913 118.511 107.973C118.541 108.003 118.565 108.039 118.582 108.078C118.598 108.118 118.607 108.161 118.607 108.203C118.607 108.246 118.598 108.289 118.582 108.329C118.565 108.368 118.541 108.404 118.511 108.434C114.485 112.662 110.863 116.571 110.043 117.462L120.973 133.691L107.802 120.819L100.923 132.937L110.16 149.198L109.619 149.529Z" fill="#E3E3E3"/>
    <path d="M100.874 185.187L100.477 184.628C98.9397 182.443 97.5469 180.159 96.3079 177.792C96.2693 177.715 96.2629 177.626 96.2898 177.544C96.3166 177.463 96.3747 177.395 96.4514 177.356C96.4889 177.336 96.5301 177.323 96.5725 177.319C96.615 177.315 96.6578 177.32 96.6985 177.332C96.7392 177.345 96.7767 177.366 96.8092 177.393C96.8417 177.421 96.8685 177.455 96.8877 177.493C98.0049 179.63 99.2513 181.698 100.62 183.685C107.167 160.314 119.302 137.198 136.687 114.966L130.46 96.5579C129.483 97.3774 128.017 98.7499 126.096 100.662C126.034 100.723 125.951 100.758 125.864 100.758C125.778 100.758 125.695 100.723 125.633 100.662C125.572 100.601 125.537 100.518 125.537 100.431C125.537 100.345 125.572 100.262 125.633 100.2C127.828 98.0214 129.438 96.5319 130.415 95.7578L130.779 95.4717L137.417 115.089L137.313 115.232C119.725 137.646 107.557 160.958 101.057 184.524L100.874 185.187Z" fill="#E3E3E3"/>
    <path d="M123.859 169.823C123.816 169.833 123.772 169.833 123.729 169.823C119.078 167.71 115.639 165.849 115.606 165.83L114.609 165.29L115.736 165.218C118.489 165.127 121.244 165.321 123.957 165.797C124.041 165.812 124.116 165.858 124.166 165.928C124.216 165.997 124.237 166.083 124.224 166.168C124.208 166.253 124.16 166.328 124.089 166.378C124.019 166.428 123.931 166.448 123.846 166.435C121.603 166.058 119.333 165.856 117.059 165.83H117C118.374 166.539 120.908 167.827 123.996 169.225C124.074 169.263 124.134 169.33 124.164 169.411C124.194 169.492 124.193 169.581 124.159 169.661C124.128 169.712 124.084 169.755 124.031 169.783C123.978 169.812 123.919 169.826 123.859 169.823Z" fill="#E3E3E3"/>
    <path d="M112.818 190.826H112.623C112.536 190.826 112.453 190.792 112.392 190.731C112.331 190.67 112.297 190.587 112.297 190.501C112.297 190.414 112.331 190.332 112.392 190.271C112.453 190.21 112.536 190.175 112.623 190.175C112.688 190.182 112.753 190.182 112.818 190.175C117.066 190.192 121.293 189.584 125.364 188.374C125.45 188.349 125.543 188.359 125.622 188.402C125.7 188.446 125.759 188.518 125.784 188.605C125.809 188.691 125.799 188.784 125.755 188.862C125.712 188.941 125.639 188.999 125.553 189.024C121.418 190.241 117.128 190.848 112.818 190.826Z" fill="#E3E3E3"/>
    <path d="M103.398 188.264H103.307C103.225 188.238 103.156 188.182 103.115 188.107C103.074 188.031 103.063 187.943 103.086 187.86C103.411 186.774 103.796 185.558 104.226 184.244C108.453 171.359 118.68 145.439 139.628 116.702L139.752 116.526L146.494 118.094C146.577 118.116 146.648 118.168 146.693 118.241C146.738 118.313 146.753 118.401 146.735 118.484C146.726 118.526 146.708 118.566 146.684 118.601C146.659 118.636 146.627 118.666 146.591 118.689C146.555 118.712 146.514 118.728 146.472 118.735C146.429 118.742 146.386 118.741 146.344 118.731L140.026 117.255C119.221 145.874 109.052 171.619 104.851 184.446C104.421 185.747 104.043 186.963 103.718 188.043C103.696 188.11 103.653 188.167 103.596 188.207C103.538 188.247 103.469 188.267 103.398 188.264Z" fill="#E3E3E3"/>
    <path d="M205.675 68.7507H205.564C198.757 66.2269 198.275 65.3881 198.112 65.1084L197.812 64.5879H198.412C201.356 64.7997 204.277 65.2656 207.141 65.9799C207.223 66.0029 207.294 66.0571 207.338 66.1311C207.381 66.2051 207.395 66.293 207.375 66.3766C207.353 66.4606 207.3 66.533 207.225 66.578C207.151 66.623 207.062 66.6371 206.978 66.6174C204.479 65.9968 201.938 65.562 199.376 65.3165C201.429 66.4308 203.576 67.3645 205.792 68.1069C205.872 68.1375 205.937 68.1983 205.972 68.2762C206.007 68.3541 206.011 68.443 205.981 68.5233C205.962 68.5897 205.922 68.6479 205.867 68.6891C205.811 68.7302 205.744 68.7518 205.675 68.7507Z" fill="#E3E3E3"/>
    <path d="M147.831 117.541H147.759L140.802 115.869C140.716 115.849 140.641 115.796 140.594 115.721C140.547 115.646 140.532 115.555 140.551 115.469C140.571 115.383 140.625 115.308 140.7 115.261C140.775 115.214 140.866 115.199 140.952 115.218L147.909 116.89C147.951 116.9 147.991 116.918 148.026 116.944C148.061 116.969 148.09 117.001 148.113 117.038C148.135 117.075 148.15 117.116 148.156 117.159C148.163 117.202 148.161 117.245 148.15 117.287C148.135 117.36 148.094 117.425 148.036 117.471C147.978 117.518 147.905 117.542 147.831 117.541Z" fill="#E3E3E3"/>
    <path d="M158.78 109.736C158.739 109.745 158.697 109.745 158.656 109.736C156.35 108.767 154.839 107.973 154.826 107.966L153.523 107.271L155.021 107.355C155.021 107.355 157.666 107.511 160.969 107.804C161.052 107.812 161.13 107.852 161.185 107.914C161.241 107.977 161.27 108.058 161.268 108.142C161.265 108.226 161.229 108.305 161.168 108.364C161.108 108.422 161.027 108.454 160.942 108.454C159.229 108.298 157.686 108.188 156.631 108.11C157.243 108.402 158.025 108.76 158.936 109.137C158.979 109.146 159.02 109.163 159.056 109.187C159.092 109.211 159.123 109.242 159.148 109.278C159.172 109.315 159.188 109.355 159.197 109.398C159.205 109.441 159.206 109.485 159.197 109.527C159.188 109.57 159.171 109.611 159.147 109.647C159.123 109.683 159.092 109.714 159.055 109.739C159.019 109.763 158.978 109.779 158.936 109.788C158.893 109.796 158.849 109.796 158.806 109.788L158.78 109.736Z" fill="#E3E3E3"/>
    <path d="M190.862 86.8472C190.83 86.8533 190.797 86.8533 190.765 86.8472L180.297 83.3672L180.453 82.7168L192.406 84.6681C192.449 84.6745 192.489 84.6892 192.526 84.7113C192.563 84.7334 192.595 84.7623 192.62 84.7968C192.645 84.8312 192.664 84.8702 192.674 84.9117C192.684 84.9533 192.686 84.9965 192.68 85.0388C192.664 85.1235 192.616 85.1989 192.545 85.2487C192.474 85.2985 192.387 85.3189 192.302 85.3055L184.407 84.0047L190.967 86.1901C191.049 86.2169 191.117 86.2752 191.156 86.352C191.195 86.4289 191.202 86.5178 191.175 86.5998C191.158 86.6697 191.118 86.7322 191.061 86.777C191.005 86.8217 190.935 86.8464 190.862 86.8472Z" fill="#E3E3E3"/>
    <path d="M138.099 112.552C138.032 112.552 137.968 112.532 137.914 112.493C137.86 112.454 137.82 112.4 137.799 112.337L131.285 94.8206L148.664 79.0019L152.69 87.6006C152.482 86.2358 152.175 84.8881 151.771 83.568C150.99 80.8622 150.006 78.3124 149.999 78.2863V78.1691C149.999 77.5642 155.139 73.564 165.274 66.2855L165.698 65.9864L167.919 78.7678L168.127 78.0132L169.541 63.3585L188.737 51.6963L188.659 52.5678C188.438 54.3047 188.723 56.0685 189.48 57.6478L189.161 51.2996L189.265 51.1954C190.789 49.7775 212.715 37.5946 221 36.3718C221.087 36.3589 221.174 36.3806 221.245 36.4325C221.315 36.4843 221.362 36.5619 221.375 36.6481C221.388 36.7344 221.366 36.8222 221.314 36.8924C221.262 36.9625 221.184 37.0093 221.098 37.0223C213.34 38.1735 192.053 49.8294 189.831 51.5921V51.8783L190.235 59.6445L189.636 59.0462C189.558 58.9681 187.721 57.0949 187.982 52.9321L170.16 63.7619L168.766 78.1431L167.795 81.6688L167.267 78.8456L165.235 67.1377C159.777 71.0403 151.497 77.1805 150.683 78.1952C150.898 78.7676 151.739 81.0181 152.423 83.3987C153.224 86.1371 153.549 88.0949 153.406 89.2137L153.263 90.3262L148.475 80.0944L132.073 95.0159L138.411 112.129C138.427 112.168 138.434 112.211 138.433 112.254C138.432 112.296 138.423 112.338 138.405 112.377C138.387 112.416 138.362 112.45 138.331 112.479C138.299 112.508 138.262 112.531 138.222 112.545C138.182 112.554 138.14 112.557 138.099 112.552Z" fill="#E3E3E3"/>
    <path d="M80.4341 206.346L79.9844 206.184V205.936C80.03 204.909 81.2352 180.641 84.0231 160.854C84.036 160.77 84.0815 160.694 84.1497 160.643C84.2179 160.592 84.3034 160.57 84.3879 160.581C84.4306 160.586 84.4717 160.599 84.5091 160.62C84.5465 160.641 84.5793 160.67 84.6054 160.704C84.6316 160.738 84.6507 160.776 84.6614 160.818C84.6722 160.859 84.6745 160.903 84.6681 160.945C82.1472 178.826 80.9291 200.375 80.6816 205.065C100.19 182.124 98.4774 146.772 96.2432 139.715C94.289 133.562 94.2041 119.746 94.2172 116.299C92.9795 117.691 92.6799 119.896 92.1393 123.831C91.567 128.322 90.7583 132.779 89.7163 137.184C89.6965 137.271 89.6429 137.346 89.5678 137.393C89.4927 137.44 89.4019 137.455 89.3156 137.435C89.2292 137.415 89.1543 137.362 89.1072 137.287C89.0602 137.212 89.0451 137.121 89.0649 137.035C90.1086 132.652 90.9153 128.216 91.4815 123.746C92.0938 119.265 92.4323 116.8 94.3278 115.291L94.8685 114.861V115.551C94.8685 115.72 94.6992 132.71 96.8227 139.52C99.1025 146.72 100.855 183.054 80.5381 206.177L80.4341 206.346Z" fill="#E3E3E3"/>
    <path d="M70.5937 188.355L70.0985 188.18C65.3048 186.413 60.9452 183.643 57.3119 180.055C51.4494 174.41 47.0396 166.799 44.1475 157.44C35.8684 130.609 36.2593 130.42 36.6111 130.258L36.8649 130.141L37.0083 130.336L63.4609 149.393V149.511C65.5584 158.318 67.2977 166.812 68.6265 174.748C68.6398 174.833 68.6194 174.92 68.5696 174.991C68.5197 175.061 68.4442 175.109 68.3593 175.125C68.274 175.138 68.1869 175.118 68.1163 175.068C68.0458 175.018 67.9974 174.943 67.9815 174.859C66.6787 166.969 64.9398 158.532 62.8553 149.784L37.1321 131.246C37.4773 132.853 38.9168 138.349 44.7467 157.264C46.9353 164.367 53.7423 181.409 69.7989 187.406C69.5839 185.63 69.3428 183.776 69.0692 181.896C69.058 181.81 69.0811 181.723 69.1335 181.654C69.1858 181.584 69.2635 181.539 69.3494 181.526C69.434 181.514 69.5195 181.537 69.5877 181.588C69.6559 181.639 69.7014 181.715 69.7143 181.799C70.0139 183.874 70.2811 185.91 70.5091 187.854L70.5937 188.355Z" fill="#E3E3E3"/>
    <path d="M73.47 189.103H73.379L73.0336 189.038L72.7992 188.992V188.752C72.2065 183.288 71.3794 177.538 70.3502 171.671C70.3418 171.629 70.3418 171.585 70.3508 171.543C70.3598 171.5 70.3774 171.46 70.4023 171.425C70.4273 171.39 70.4593 171.36 70.4962 171.337C70.5331 171.315 70.5742 171.3 70.617 171.294C70.6585 171.286 70.7012 171.287 70.7423 171.296C70.7835 171.305 70.8226 171.322 70.8572 171.347C70.8917 171.371 70.9211 171.402 70.9437 171.437C70.9662 171.473 70.9814 171.513 70.9885 171.554C72.0112 177.356 72.8253 183.034 73.4245 188.466C85.4295 183.151 78.8376 144.294 78.0364 139.832C74.1281 141.783 68.7282 147.397 66.4288 149.914C67.0346 152.431 67.6272 154.955 68.1743 157.426C68.1933 157.513 68.1775 157.603 68.1298 157.677C68.0822 157.752 68.0066 157.804 67.9202 157.823C67.8338 157.842 67.7435 157.826 67.669 157.779C67.5944 157.731 67.542 157.656 67.523 157.57C66.9628 155.046 66.3637 152.464 65.7383 149.901L65.6992 149.732L65.8163 149.602C68.1482 147.045 74.0108 140.905 78.134 139.058L78.5119 138.889L78.5834 139.292C79.9344 146.788 80.7853 154.365 81.1304 161.973C81.7297 177.584 79.1764 186.729 73.568 189.103H73.47Z" fill="#E3E3E3"/>
    <path d="M62.6887 147.898C62.6173 147.897 62.5484 147.872 62.4934 147.826L55.8816 142.837C55.8139 142.784 55.7694 142.707 55.7572 142.623C55.7451 142.538 55.7665 142.451 55.8167 142.382C55.8418 142.347 55.8737 142.317 55.9105 142.295C55.9473 142.273 55.9882 142.258 56.0308 142.252C56.0733 142.246 56.1167 142.249 56.1583 142.26C56.1999 142.271 56.2386 142.29 56.2725 142.317L62.884 147.312C62.9386 147.353 62.979 147.41 62.9994 147.475C63.0198 147.541 63.0191 147.61 62.9975 147.675C62.9759 147.74 62.9346 147.796 62.8792 147.836C62.8237 147.876 62.757 147.898 62.6887 147.898Z" fill="#E3E3E3"/>
    <path d="M46.7094 135.825C46.6394 135.822 46.5715 135.799 46.5138 135.76L34.5284 126.686V126.576L29.9688 109.014L47.2174 110.171L49.7577 107.088C49.7828 107.05 49.8157 107.018 49.8541 106.993C49.8925 106.969 49.9356 106.953 49.9807 106.946C50.0257 106.939 50.0716 106.942 50.1155 106.954C50.1594 106.966 50.2005 106.987 50.2357 107.016C50.271 107.045 50.2998 107.08 50.3203 107.121C50.3408 107.162 50.3525 107.206 50.3547 107.252C50.3569 107.297 50.3495 107.343 50.3331 107.385C50.3166 107.427 50.2915 107.466 50.2593 107.498L47.5039 110.841H47.3411L30.8221 109.736L35.1146 126.328L46.9308 135.259C46.9999 135.31 47.0455 135.388 47.0577 135.473C47.0699 135.559 47.0478 135.645 46.996 135.714C46.9607 135.754 46.9161 135.785 46.8662 135.804C46.8163 135.824 46.7626 135.831 46.7094 135.825Z" fill="#E3E3E3"/>
    <path d="M65.4841 147.858C65.4211 147.857 65.3596 147.838 65.3072 147.803C65.2548 147.768 65.2137 147.719 65.1889 147.661C65.1641 147.603 65.1565 147.539 65.1673 147.477C65.178 147.415 65.2068 147.358 65.2497 147.312C67.6337 144.808 73.5286 138.798 77.3327 136.319L71.288 116.104L64.9434 121.158L70.0243 113.222L67.7445 107.693C66.6371 108.506 63.126 111.167 62.0513 112.682V112.903H61.9406C61.872 113.052 61.8109 113.204 61.758 113.359L61.1066 115.082V113.248C61.1225 112.971 61.2177 112.705 61.3805 112.48V112.435L61.4584 112.266C62.1684 110.666 63.9402 107.206 66.7086 105.111L61.6801 94.3982L53.9872 103.699C53.9319 103.766 53.8523 103.808 53.7662 103.816C53.68 103.824 53.5944 103.797 53.5279 103.742C53.4614 103.687 53.4195 103.607 53.4115 103.521C53.4036 103.435 53.4304 103.35 53.4856 103.283L61.8299 93.1885L67.5295 105.326L67.3078 105.482C65.506 106.887 64.0269 108.661 62.9698 110.685C64.461 109.351 66.0198 108.094 67.6402 106.919L67.9722 106.679L70.7015 113.287L67.5556 118.198L71.5809 114.991L78.0493 136.599L77.8409 136.735C74.102 139.084 68.0699 145.23 65.6663 147.761C65.6175 147.812 65.5537 147.846 65.4841 147.858Z" fill="#E3E3E3"/>
    <path d="M53.7823 103.816C53.7137 103.817 53.647 103.794 53.5934 103.751C53.5251 103.701 53.4795 103.626 53.4661 103.542C53.4527 103.458 53.4727 103.372 53.5218 103.303L61.1037 92.6938L47.4246 64.8743L40.9827 68.0421C40.8789 68.0916 40.7607 68.1024 40.6497 68.0726C40.5386 68.0427 40.4417 67.9743 40.3768 67.8795C40.3135 67.7854 40.2867 67.6714 40.3011 67.559C40.3154 67.4466 40.3701 67.3433 40.455 67.2681L45.8222 62.4158C37.2435 46.6816 30.6189 43.2276 27.4207 42.5706C27.3343 42.5525 27.2587 42.5009 27.2104 42.4271C27.1622 42.3533 27.1452 42.2634 27.1633 42.1771C27.1815 42.0909 27.2332 42.0154 27.3071 41.9672C27.381 41.919 27.471 41.9021 27.5574 41.9202C30.873 42.6031 37.7518 46.1613 46.5194 62.3183L46.6365 62.5457L41.8293 66.8908L47.7242 63.9898L61.8724 92.7459L54.0688 103.667C54.0374 103.714 53.9945 103.752 53.9445 103.778C53.8944 103.804 53.8388 103.817 53.7823 103.816Z" fill="#E3E3E3"/>
    <path d="M22.1905 51.2673C22.1477 51.2665 22.1056 51.2572 22.0664 51.24C22.0273 51.2229 21.9918 51.1984 21.9621 51.1676C21.9325 51.1368 21.909 51.1004 21.8934 51.0606C21.8779 51.0208 21.8703 50.9785 21.8712 50.9358C21.9298 45.8623 22.9005 42.9221 24.8351 41.9595C25.3593 41.7968 25.9104 41.7395 26.4569 41.7905C26.4994 41.7921 26.5412 41.802 26.5797 41.82C26.6182 41.838 26.6529 41.8638 26.6815 41.8953C26.71 41.9268 26.732 41.9635 26.746 42.0036C26.7601 42.0437 26.7658 42.0863 26.7632 42.1287C26.7644 42.1723 26.7563 42.2156 26.7394 42.2558C26.7224 42.2959 26.697 42.332 26.6649 42.3615C26.6329 42.3911 26.5947 42.4136 26.5533 42.4273C26.5118 42.441 26.4679 42.4456 26.4245 42.4409C25.976 42.3953 25.5226 42.4348 25.089 42.5578C23.454 43.3774 22.5812 46.2006 22.5225 50.9488C22.5217 50.9915 22.5127 51.0335 22.4955 51.0727C22.4784 51.1118 22.4535 51.1472 22.4227 51.1768C22.3918 51.2064 22.3553 51.2296 22.3155 51.2451C22.2756 51.2607 22.2333 51.2682 22.1905 51.2673Z" fill="#E3E3E3"/>
    <path d="M28.7969 94.1188C28.718 94.1178 28.6422 94.0883 28.5835 94.0356C28.5248 93.983 28.4871 93.9109 28.4776 93.8327L27.8914 88.4862L36.5614 91.257L27.9958 87.2307L27.9566 87.0812C27.9566 86.9901 25.3509 77.3897 23.5531 67.1842C23.5447 67.1423 23.5448 67.099 23.5534 67.0572C23.5621 67.0153 23.5791 66.9755 23.6034 66.9403C23.6277 66.9051 23.6588 66.8752 23.695 66.8523C23.7311 66.8294 23.7714 66.8139 23.8136 66.8069C23.8982 66.7917 23.9855 66.8106 24.0563 66.8593C24.1271 66.908 24.1756 66.9826 24.1915 67.067C25.846 76.5635 28.217 85.5266 28.5492 86.769L40.1831 92.2456C40.2775 92.2897 40.3514 92.3681 40.3902 92.4648C40.4289 92.5614 40.4294 92.6692 40.3914 92.7662C40.3521 92.8624 40.2781 92.9402 40.1841 92.9847C40.09 93.0292 39.983 93.037 39.8835 93.0066L28.6471 89.4098L29.1226 93.7612C29.1318 93.8465 29.1067 93.9321 29.053 93.9991C28.9993 94.0661 28.9211 94.109 28.8357 94.1188H28.7969Z" fill="#E3E3E3"/>
    <path d="M46.9376 109.56L29.168 108.259L30.7118 107.745C33.2783 107.095 36.242 106.236 38.4111 105.54L36.8023 105.723C34.3401 105.989 30.9723 106.373 30.4316 106.893L29.9561 107.375L29.2201 100.649C29.211 100.564 29.2358 100.478 29.2895 100.411C29.3432 100.344 29.4213 100.301 29.5067 100.291C29.5918 100.284 29.6766 100.309 29.7433 100.363C29.8101 100.416 29.8534 100.493 29.8648 100.577L30.4707 106.119C31.5129 105.67 33.7276 105.404 36.7304 105.072C38.2456 104.974 39.7508 104.757 41.2316 104.422L41.5182 104.324L41.681 104.617C41.7199 104.699 41.7254 104.793 41.6963 104.879C41.6671 104.965 41.6057 105.037 41.5248 105.078C40.2872 105.774 35.5449 107.128 32.7569 107.889L46.7747 108.903L49.8103 107.017C49.8841 106.973 49.9723 106.959 50.0561 106.978C50.14 106.998 50.2128 107.049 50.2597 107.121C50.2833 107.157 50.2995 107.197 50.3071 107.24C50.3146 107.282 50.3133 107.325 50.3036 107.367C50.2938 107.409 50.2759 107.449 50.2505 107.484C50.225 107.518 50.1928 107.548 50.1557 107.57L46.9376 109.56Z" fill="#E3E3E3"/>
    <path d="M27.7462 143.714L29.8307 132.143C21.1022 121.124 7.62506 104.675 6.0422 104.174C5.63183 104.05 5.50814 104.174 5.46906 104.22C5.08475 104.636 4.90229 106.503 8.00939 114.354C8.82946 116.659 9.52738 119.006 10.1003 121.385C10.111 121.428 10.1132 121.472 10.1067 121.515C10.1002 121.559 10.0851 121.601 10.0625 121.639C10.0398 121.676 10.0098 121.709 9.97436 121.736C9.93893 121.762 9.89881 121.781 9.85604 121.791C9.81327 121.802 9.76892 121.804 9.72532 121.798C9.68171 121.791 9.63971 121.776 9.60191 121.754C9.56411 121.731 9.53115 121.701 9.5049 121.666C9.47866 121.63 9.45962 121.59 9.44892 121.548C8.88131 119.196 8.19214 116.875 7.38409 114.594C4.08809 106.262 4.36155 104.434 4.97385 103.777C5.13359 103.62 5.33714 103.514 5.5578 103.474C5.77846 103.433 6.00601 103.459 6.21141 103.55C8.50428 104.259 28.1763 129.021 30.4105 131.844L30.5015 131.955L29.4529 137.809L31.2833 133.353L31.6284 133.782C31.6284 133.782 34.0062 136.742 37.4129 141.295C37.4386 141.329 37.457 141.368 37.4676 141.409C37.4782 141.451 37.4807 141.494 37.4746 141.536C37.4686 141.578 37.4544 141.619 37.4326 141.656C37.4108 141.692 37.3819 141.724 37.3477 141.75C37.3135 141.776 37.2746 141.794 37.2332 141.805C37.1918 141.816 37.1486 141.818 37.1063 141.812C37.064 141.806 37.0232 141.792 36.9864 141.77C36.9496 141.748 36.9173 141.719 36.8916 141.685C34.247 138.147 32.2407 135.597 31.4655 134.621L27.7462 143.714Z" fill="#E3E3E3"/>
    <path d="M39.0361 200.583C38.9903 200.583 38.9452 200.574 38.9035 200.554C38.8619 200.535 38.8247 200.507 38.7951 200.472C35.272 196.312 32.009 191.94 29.0243 187.379L28.7575 186.956L29.2524 186.885C29.5846 186.833 36.3133 185.863 41.1271 187.431C38.0069 184.953 31.4868 180.276 25.0381 178.65L24.8686 178.604L17.28 156.229L17.9314 156.457C20.818 157.485 23.6299 158.71 26.3472 160.125C24.0413 157.322 19.5208 152.197 16.114 150.616L15.9706 150.551L15.9381 150.388C15.9381 150.317 14.5117 143.357 12.7855 135.571C12.7759 135.529 12.7748 135.486 12.782 135.444C12.7893 135.401 12.8048 135.361 12.8278 135.325C12.8509 135.288 12.8807 135.257 12.9159 135.232C12.9512 135.208 12.991 135.19 13.033 135.181C13.0745 135.172 13.1176 135.17 13.1596 135.178C13.2015 135.185 13.2414 135.201 13.2773 135.224C13.3131 135.247 13.3439 135.276 13.3679 135.312C13.3919 135.347 13.4087 135.386 13.4172 135.428C15.0001 142.583 16.3226 149.016 16.544 150.102C21.4229 152.476 28.0798 161.231 28.3599 161.608L27.852 162.012C26.5948 160.483 20.3742 158.063 18.3484 157.302L25.3899 178.058C34.3659 180.374 43.3876 188.465 43.4788 188.524L43.0812 189.038C39.2967 186.566 31.8774 187.229 29.8777 187.464C32.7648 191.842 35.9099 196.044 39.2966 200.05C39.339 200.096 39.3669 200.154 39.3765 200.216C39.3861 200.278 39.3772 200.341 39.3507 200.398C39.3243 200.455 39.2816 200.503 39.2279 200.536C39.1743 200.569 39.112 200.585 39.0492 200.583H39.0361Z" fill="#E3E3E3"/>
    <path d="M55.2363 210.209C52.8632 210.177 50.5201 209.673 48.3446 208.726C47.8661 208.517 47.4026 208.276 46.9573 208.004C46.8915 207.956 46.8461 207.885 46.8304 207.805C46.8146 207.725 46.8294 207.642 46.872 207.572C46.9146 207.503 46.9818 207.452 47.0603 207.429C47.1388 207.407 47.223 207.415 47.296 207.451C47.716 207.695 48.1511 207.913 48.5988 208.102C52.3507 209.721 57.6724 210.45 61.3593 207.672C64.8767 205.025 66.2122 199.633 65.2221 192.062C65.2165 192.019 65.2194 191.976 65.2307 191.934C65.2419 191.892 65.2613 191.853 65.2876 191.819C65.3139 191.785 65.3466 191.757 65.384 191.735C65.4214 191.714 65.4627 191.7 65.5055 191.694C65.5482 191.689 65.5917 191.692 65.6333 191.703C65.675 191.714 65.714 191.733 65.7481 191.76C65.7823 191.786 65.8109 191.818 65.8324 191.856C65.8539 191.893 65.8679 191.934 65.8735 191.977C67.1762 201.825 64.3492 206.215 61.7632 208.167C59.8716 209.546 57.5776 210.263 55.2363 210.209Z" fill="#E3E3E3"/>
    <path d="M64.0034 300.687C61.6975 300.687 59.8931 299.256 58.7923 296.485C56.6362 291.086 57.1248 286.078 60.1994 281.921C64.3291 276.373 72.5366 273.108 82.8741 272.685C83.0191 270.501 82.7083 268.31 81.9619 266.252C81.5205 264.965 80.7815 263.801 79.8048 262.852C78.8281 261.904 77.6412 261.199 76.3405 260.795C66.1008 257.543 48.0055 269.296 47.8231 269.413C47.7878 269.442 47.747 269.463 47.7032 269.474C47.6594 269.486 47.6138 269.489 47.569 269.482C47.5242 269.475 47.4812 269.458 47.443 269.434C47.4049 269.41 47.3723 269.378 47.3473 269.34C47.3222 269.302 47.3053 269.259 47.2977 269.215C47.29 269.17 47.2917 269.125 47.3028 269.081C47.3138 269.037 47.334 268.996 47.3619 268.96C47.3898 268.924 47.4247 268.895 47.4646 268.874C47.647 268.75 66.0098 256.827 76.5361 260.177C77.9326 260.609 79.2069 261.364 80.2552 262.382C81.3035 263.399 82.0959 264.65 82.5678 266.031C83.3401 268.158 83.6595 270.422 83.5057 272.679C85.8724 272.616 88.2408 272.688 90.5994 272.893C112.616 274.799 116.811 271.066 116.85 271.033C116.911 270.974 116.993 270.94 117.078 270.94C117.163 270.94 117.245 270.974 117.306 271.033C117.337 271.063 117.361 271.099 117.377 271.139C117.394 271.179 117.402 271.221 117.402 271.264C117.402 271.307 117.394 271.35 117.377 271.389C117.361 271.429 117.337 271.465 117.306 271.495C117.143 271.658 113.027 275.489 90.5409 273.544C88.1892 273.332 85.8268 273.26 83.4666 273.329C82.6133 284.283 73.6958 297.395 66.6283 300.16C65.7929 300.494 64.9033 300.673 64.0034 300.687ZM82.8349 273.368C72.7255 273.791 64.7264 276.965 60.7204 282.344C57.7891 286.28 57.3332 291.099 59.4176 296.277C60.779 299.692 63.2021 300.83 66.42 299.568C73.3246 296.849 82.0142 284.029 82.8349 273.336V273.368Z" fill="#E3E3E3"/>
    <path d="M92.7673 263.838C92.3682 263.84 91.9695 263.809 91.5753 263.747C89.797 263.487 88.6829 262.726 88.2726 261.49C86.592 256.443 97.8416 245.034 98.3171 244.579C98.3471 244.548 98.3827 244.523 98.4221 244.506C98.4615 244.489 98.5038 244.48 98.5468 244.48C98.5897 244.479 98.6325 244.487 98.6724 244.503C98.7123 244.519 98.7488 244.542 98.7796 244.572C98.8104 244.602 98.8348 244.638 98.8518 244.677C98.8688 244.716 98.8779 244.759 98.8785 244.802C98.8791 244.844 98.8712 244.887 98.8553 244.927C98.8394 244.967 98.8159 245.003 98.786 245.034C98.6687 245.151 87.3347 256.638 88.8915 261.295C89.2237 262.29 90.1356 262.882 91.6729 263.11C92.5565 263.271 93.465 263.233 94.3319 262.997C95.1987 262.762 96.0018 262.336 96.682 261.75C101.392 257.724 101.541 246.699 101.541 246.588C101.541 246.502 101.576 246.419 101.637 246.358C101.698 246.297 101.781 246.263 101.867 246.263C101.91 246.263 101.953 246.272 101.993 246.289C102.033 246.305 102.069 246.33 102.1 246.361C102.13 246.392 102.154 246.428 102.17 246.468C102.186 246.509 102.194 246.552 102.193 246.595C102.193 247.057 102.043 258.03 97.1053 262.244C95.903 263.287 94.3599 263.854 92.7673 263.838Z" fill="#E3E3E3"/>
    <path d="M89.1662 307.366C89.1163 307.368 89.067 307.357 89.0231 307.334C88.9845 307.315 88.95 307.289 88.9216 307.257C88.8932 307.225 88.8713 307.187 88.8574 307.147C88.8434 307.106 88.8378 307.063 88.8405 307.021C88.8432 306.978 88.8544 306.936 88.8733 306.898C88.9645 306.709 98.2726 288.067 115.638 291.534C115.68 291.543 115.72 291.56 115.756 291.583C115.791 291.607 115.822 291.638 115.845 291.674C115.869 291.709 115.885 291.749 115.893 291.791C115.901 291.833 115.901 291.876 115.893 291.918C115.874 292.002 115.823 292.075 115.751 292.122C115.68 292.169 115.593 292.187 115.508 292.172C98.6438 288.802 89.544 307.002 89.4528 307.184C89.4264 307.238 89.3856 307.283 89.3351 307.315C89.2845 307.347 89.2261 307.365 89.1662 307.366Z" fill="#E3E3E3"/>
    <path d="M48.5458 258.186C48.4786 258.187 48.4128 258.167 48.3578 258.128C48.3028 258.09 48.2614 258.035 48.2395 257.971C48.2122 257.889 48.2183 257.8 48.256 257.722C48.2937 257.645 48.3601 257.584 48.4414 257.555C63.8662 252.13 65.9832 244.767 66.0288 244.696C66.0394 244.654 66.0581 244.615 66.0838 244.581C66.1095 244.547 66.142 244.518 66.1789 244.496C66.2158 244.474 66.2567 244.46 66.2991 244.454C66.3416 244.448 66.3849 244.451 66.4264 244.462C66.509 244.484 66.5793 244.539 66.622 244.613C66.6646 244.687 66.6761 244.776 66.6541 244.858C66.5759 245.177 64.4722 252.612 48.6762 258.173L48.5458 258.186Z" fill="#E3E3E3"/>
    <path d="M90.1422 241.926H90.0837C89.9988 241.91 89.9233 241.861 89.8734 241.791C89.8236 241.72 89.8032 241.633 89.8165 241.548C93.6596 218.353 102.994 188.14 103.092 187.841C103.103 187.8 103.122 187.761 103.149 187.728C103.176 187.694 103.209 187.666 103.247 187.646C103.285 187.626 103.326 187.614 103.369 187.61C103.412 187.607 103.455 187.613 103.496 187.627C103.536 187.638 103.575 187.658 103.608 187.685C103.641 187.712 103.668 187.745 103.688 187.783C103.708 187.82 103.721 187.862 103.725 187.904C103.728 187.947 103.724 187.989 103.711 188.03C103.619 188.336 94.2982 218.503 90.4615 241.659C90.449 241.734 90.41 241.802 90.3515 241.851C90.2929 241.9 90.2185 241.927 90.1422 241.926Z" fill="#E3E3E3"/>
    <path d="M68.7588 239.121C68.6864 239.122 68.6159 239.099 68.5581 239.055C68.5003 239.012 68.4586 238.95 68.4398 238.88C65.671 228.907 62.3524 219.095 58.4995 209.487C58.4836 209.447 58.476 209.405 58.4766 209.362C58.4772 209.319 58.4861 209.277 58.503 209.238C58.5199 209.199 58.5445 209.163 58.5752 209.133C58.6059 209.103 58.6423 209.08 58.6821 209.064C58.7625 209.034 58.8515 209.036 58.9305 209.07C59.0094 209.104 59.0721 209.167 59.1054 209.246C62.9672 218.878 66.2941 228.714 69.0714 238.712C69.0933 238.796 69.0813 238.886 69.0374 238.961C68.9935 239.037 68.9214 239.092 68.837 239.115L68.7588 239.121Z" fill="#E3E3E3"/>
    <path d="M81.8519 240.26C81.771 240.258 81.6937 240.227 81.6347 240.172C81.5757 240.116 81.5394 240.041 81.5329 239.96C80.9923 233.606 80.0151 226.204 78.6341 217.962C76.0286 202.352 72.8173 188.92 72.7717 188.79C72.761 188.748 72.7589 188.704 72.7653 188.662C72.7717 188.619 72.7865 188.578 72.8089 188.541C72.8313 188.504 72.861 188.472 72.896 188.447C72.931 188.421 72.9707 188.403 73.0128 188.393C73.0964 188.375 73.1836 188.39 73.2564 188.435C73.3292 188.48 73.3821 188.551 73.4037 188.634C73.4362 188.77 76.6606 202.234 79.2661 217.852C80.647 226.112 81.6239 233.534 82.1646 239.908C82.1718 239.994 82.1453 240.078 82.0905 240.144C82.0356 240.21 81.957 240.251 81.8716 240.26H81.8519Z" fill="#E3E3E3"/>
    <path d="M74.2611 242.406H74.1896C74.1475 242.397 74.1077 242.38 74.0725 242.355C74.0373 242.331 74.0074 242.299 73.9844 242.263C73.9614 242.227 73.9456 242.186 73.9383 242.144C73.931 242.101 73.9322 242.058 73.9418 242.016C75.3748 235.577 76.9515 227.453 78.6255 217.852C80.3908 207.731 80.0063 206.144 79.9868 206.105C79.9637 206.024 79.9723 205.937 80.011 205.862C80.0497 205.788 80.1156 205.73 80.1951 205.702C80.2336 205.687 80.2748 205.681 80.316 205.682C80.3571 205.683 80.3974 205.692 80.4349 205.709C80.4725 205.726 80.5063 205.751 80.5345 205.781C80.5626 205.811 80.5846 205.846 80.5991 205.884C80.6512 206.027 81.0812 207.562 79.2639 217.963C77.5898 227.57 76.007 235.713 74.5804 242.159C74.5618 242.23 74.5205 242.292 74.4628 242.337C74.4051 242.382 74.3341 242.406 74.2611 242.406Z" fill="#E3E3E3"/>
    <path d="M138.097 112.552C138.024 112.55 137.953 112.525 137.895 112.48C137.828 112.426 137.785 112.349 137.776 112.263C137.766 112.178 137.79 112.092 137.843 112.025C145.36 102.555 153.724 94.6256 161.814 86.9569C163.729 85.1422 165.638 83.334 167.52 81.5193L168.107 80.9533C182.002 67.6711 196.802 55.3655 212.401 44.1252C214.915 42.3169 217.494 40.5022 220.067 38.746C220.103 38.7213 220.143 38.7039 220.185 38.6948C220.227 38.6858 220.271 38.6851 220.313 38.6929C220.356 38.7008 220.396 38.7173 220.432 38.7409C220.468 38.7645 220.499 38.7948 220.523 38.8305C220.57 38.9019 220.587 38.9883 220.571 39.0718C220.555 39.1553 220.508 39.2295 220.439 39.2792C217.866 41.0354 215.293 42.8437 212.785 44.6584C197.204 55.8765 182.422 68.1604 168.543 81.4215L167.957 81.9874C166.074 83.8022 164.166 85.6103 162.251 87.4251C154.18 95.0808 145.829 102.997 138.345 112.428C138.315 112.466 138.278 112.496 138.235 112.518C138.192 112.539 138.145 112.551 138.097 112.552Z" fill="#E3E3E3"/>
    <path d="M140.872 115.869C140.803 115.87 140.737 115.847 140.683 115.805C140.614 115.753 140.568 115.676 140.555 115.591C140.541 115.506 140.562 115.42 140.611 115.349C148.888 104.148 158.001 93.5875 167.872 83.7572L167.937 83.7052C181.798 69.9357 197.025 57.6092 213.384 46.916C214.954 45.8818 216.576 44.8476 218.211 43.8264C218.26 43.7949 218.316 43.7766 218.374 43.7731C218.432 43.7696 218.49 43.7809 218.543 43.8064C218.595 43.8319 218.64 43.8706 218.673 43.9185C218.706 43.9665 218.726 44.0222 218.732 44.0802V44.2622L218.582 44.3664C216.94 45.381 215.325 46.4216 213.742 47.4623C197.406 58.1414 182.198 70.4503 168.354 84.1993L168.282 84.2514C158.457 94.0535 149.384 104.579 141.139 115.739C141.107 115.78 141.067 115.813 141.021 115.836C140.974 115.859 140.923 115.87 140.872 115.869Z" fill="#E3E3E3"/>
    <path d="M65.4832 147.858C65.4099 147.859 65.3385 147.835 65.2806 147.79C65.2227 147.745 65.1815 147.682 65.1639 147.611C64.9815 146.863 64.7994 146.115 64.6105 145.367C61.3536 132.358 57.1912 118.498 52.2342 104.136L51.8172 102.919C43.0301 77.7276 33.5785 56.0874 27.2014 42.389C27.1657 42.3113 27.1623 42.2226 27.1916 42.1422C27.2208 42.0619 27.2806 41.9963 27.3579 41.9596C27.3968 41.941 27.4389 41.9304 27.4819 41.9282C27.525 41.9259 27.5679 41.9321 27.6085 41.9466C27.6491 41.9611 27.6864 41.9836 27.7183 42.0127C27.7501 42.0417 27.7761 42.0768 27.7943 42.1159C34.1778 55.8337 43.6358 77.4868 52.4295 102.711L52.8528 103.921C57.8359 118.302 62.0113 132.189 65.2291 145.205C65.418 145.959 65.6004 146.707 65.7828 147.455C65.7936 147.496 65.7961 147.54 65.7901 147.582C65.7842 147.624 65.77 147.665 65.7482 147.702C65.7264 147.739 65.6975 147.771 65.6632 147.797C65.629 147.822 65.5899 147.841 65.5484 147.852L65.4832 147.858Z" fill="#E3E3E3"/>
    <path d="M53.9653 116.435C53.8966 116.435 53.8297 116.413 53.7745 116.372C53.7193 116.331 53.679 116.273 53.6594 116.207C52.8777 113.696 52.0699 111.127 51.2361 108.564L51.1906 108.428C51.0733 108.051 50.9495 107.673 50.8258 107.296C44.097 86.6381 35.7919 64.7507 26.1384 42.2519C26.1056 42.1733 26.1048 42.0851 26.1365 42.006C26.1682 41.927 26.2296 41.8634 26.3076 41.8291C26.347 41.8119 26.3894 41.8026 26.4323 41.8018C26.4752 41.801 26.518 41.8086 26.5579 41.8244C26.5979 41.8401 26.6343 41.8634 26.6651 41.8933C26.696 41.9231 26.7206 41.9587 26.7376 41.9981C36.3977 64.5229 44.7094 86.4299 51.4447 107.108L51.8159 108.239L51.855 108.376C52.6888 110.945 53.5028 113.514 54.278 116.025C54.3026 116.108 54.294 116.197 54.2538 116.273C54.2137 116.35 54.1455 116.408 54.0633 116.435H53.9653Z" fill="#E3E3E3"/>
    <path d="M62.6876 147.897C62.6137 147.896 62.5422 147.871 62.4844 147.825C62.4266 147.779 62.386 147.715 62.3686 147.643C61.144 142.577 59.7629 137.327 58.3038 132.033C58.2927 131.99 58.2901 131.946 58.2962 131.902C58.3023 131.858 58.3171 131.816 58.3394 131.778C58.3618 131.74 58.3913 131.707 58.4266 131.68C58.4618 131.654 58.5021 131.634 58.5449 131.623C58.5877 131.612 58.6322 131.609 58.6759 131.616C58.7197 131.622 58.7619 131.636 58.8 131.659C58.8381 131.681 58.8713 131.711 58.8979 131.746C58.9246 131.781 58.9441 131.821 58.9552 131.864C60.4208 137.158 61.7889 142.414 63.02 147.475C63.0307 147.516 63.033 147.558 63.027 147.6C63.0209 147.642 63.0065 147.682 62.9847 147.719C62.9628 147.755 62.934 147.787 62.8997 147.812C62.8655 147.837 62.8265 147.855 62.7852 147.865L62.6876 147.897Z" fill="#E3E3E3"/>
    <path d="M22.196 32.7231C22.1346 32.7247 22.0742 32.7076 22.023 32.6739C21.9717 32.6401 21.9321 32.5914 21.9094 32.5344C21.8816 32.4521 21.8847 32.3625 21.9183 32.2823C21.9519 32.2021 22.0137 32.1368 22.092 32.0987C22.129 32.0817 22.1689 32.0723 22.2097 32.0714C22.2504 32.0704 22.2911 32.0777 22.3289 32.093C22.3667 32.1082 22.4011 32.1311 22.4298 32.16C22.4584 32.1889 22.4807 32.2234 22.4956 32.2613C22.5187 32.3112 22.5291 32.3659 22.5252 32.4207C22.5213 32.4755 22.5036 32.5286 22.4736 32.5748C22.4437 32.6209 22.4026 32.6584 22.3541 32.6843C22.3055 32.7103 22.251 32.7238 22.196 32.7231Z" fill="#E3E3E3"/>
    <path d="M53.473 195.614C53.4114 195.613 53.3514 195.594 53.2996 195.561C53.2479 195.528 53.2063 195.481 53.1797 195.425C45.7605 179.984 12.5206 117.658 12.1884 117.027C12.1679 116.99 12.1548 116.949 12.1502 116.907C12.1457 116.865 12.1499 116.823 12.162 116.782C12.1741 116.742 12.1939 116.704 12.2208 116.671C12.2477 116.638 12.281 116.611 12.3185 116.592C12.3948 116.552 12.4836 116.543 12.5662 116.567C12.6489 116.591 12.719 116.647 12.7615 116.722C13.0937 117.372 46.3401 179.691 53.7659 195.146C53.7848 195.184 53.796 195.226 53.7987 195.269C53.8014 195.311 53.7957 195.354 53.7818 195.395C53.7679 195.435 53.746 195.473 53.7176 195.505C53.6892 195.537 53.6547 195.563 53.6161 195.581C53.5712 195.602 53.5225 195.613 53.473 195.614Z" fill="#E3E3E3"/>
    <path d="M414.817 174.058C417.282 174.058 419.279 172.063 419.279 169.602C419.279 167.141 417.282 165.146 414.817 165.146C412.353 165.146 410.355 167.141 410.355 169.602C410.355 172.063 412.353 174.058 414.817 174.058Z" fill="#EAB669"/>
    <path d="M354.884 174.058C357.348 174.058 359.346 172.063 359.346 169.602C359.346 167.141 357.348 165.146 354.884 165.146C352.42 165.146 350.422 167.141 350.422 169.602C350.422 172.063 352.42 174.058 354.884 174.058Z" fill="#EAB669"/>
    <path d="M438.842 305.598C438.755 305.598 438.672 305.563 438.611 305.502C438.55 305.441 438.516 305.359 438.516 305.272V122.003C438.516 121.104 438.27 120.221 437.805 119.45C437.34 118.68 436.673 118.05 435.877 117.63C435.08 117.209 434.184 117.013 433.285 117.063C432.385 117.112 431.516 117.406 430.771 117.912L410.057 134.394C404.807 137.972 398.598 139.883 392.242 139.877H375.442C369.161 139.885 363.021 138.019 357.809 134.518L336.477 117.808C335.731 117.313 334.864 117.028 333.97 116.986C333.075 116.943 332.185 117.144 331.396 117.567C330.606 117.989 329.946 118.618 329.486 119.385C329.026 120.153 328.784 121.031 328.784 121.925V205.832C328.784 206.721 328.553 207.594 328.113 208.365C327.673 209.137 327.039 209.782 326.274 210.236C325.509 210.689 324.639 210.936 323.75 210.952C322.861 210.968 321.983 210.752 321.202 210.327C313.385 206.067 301.764 199.777 290.854 194.027C282.432 189.508 273.566 185.873 264.395 183.178C264.354 183.166 264.316 183.147 264.282 183.121C264.249 183.095 264.221 183.062 264.201 183.025C264.18 182.989 264.167 182.948 264.162 182.906C264.157 182.864 264.161 182.821 264.173 182.781C264.184 182.739 264.204 182.7 264.23 182.666C264.257 182.632 264.29 182.604 264.327 182.582C264.365 182.561 264.406 182.548 264.449 182.543C264.492 182.538 264.535 182.541 264.577 182.553C273.794 185.252 282.707 188.897 291.173 193.428C302.09 199.178 313.711 205.468 321.534 209.729C322.214 210.099 322.979 210.287 323.753 210.274C324.528 210.26 325.286 210.047 325.953 209.653C326.62 209.26 327.173 208.701 327.558 208.03C327.944 207.359 328.148 206.599 328.152 205.826V121.919C328.151 120.904 328.427 119.908 328.95 119.038C329.473 118.168 330.223 117.456 331.119 116.979C332.016 116.502 333.026 116.278 334.041 116.33C335.056 116.382 336.037 116.708 336.88 117.274L358.207 133.984C363.309 137.405 369.317 139.228 375.462 139.221H392.261C398.479 139.227 404.555 137.359 409.692 133.861L430.406 117.379C431.248 116.802 432.232 116.465 433.252 116.406C434.272 116.347 435.288 116.567 436.192 117.042C437.096 117.517 437.852 118.23 438.38 119.103C438.908 119.976 439.187 120.977 439.187 121.997V305.305C439.177 305.388 439.136 305.464 439.072 305.519C439.008 305.573 438.926 305.601 438.842 305.598Z" fill="#E3E3E3"/>
    <path d="M180.666 213.488C180.13 213.49 179.598 213.382 179.105 213.171C178.612 212.959 178.168 212.649 177.8 212.258C172.517 206.736 164.03 195.347 166.499 180.875C170.042 164.646 192.554 153.179 218.609 139.897C232.725 132.709 247.322 125.281 260.382 116.363C260.454 116.315 260.542 116.297 260.627 116.314C260.669 116.322 260.709 116.338 260.745 116.362C260.78 116.385 260.811 116.416 260.835 116.451C260.859 116.487 260.876 116.526 260.884 116.568C260.893 116.61 260.893 116.653 260.885 116.695C260.877 116.737 260.861 116.777 260.837 116.813C260.813 116.849 260.783 116.879 260.747 116.903C247.654 125.84 233.044 133.281 218.909 140.475C192.977 153.673 170.589 165.075 167.111 180.985C164.694 195.132 173.045 206.352 178.243 211.797C178.594 212.168 179.028 212.452 179.508 212.627C179.989 212.802 180.503 212.863 181.011 212.805C181.513 212.752 181.995 212.583 182.42 212.312C182.845 212.041 183.201 211.675 183.461 211.244C188.34 203.191 202.559 184.016 229.266 179.762C229.309 179.755 229.352 179.757 229.394 179.767C229.436 179.777 229.476 179.795 229.511 179.821C229.546 179.846 229.576 179.878 229.599 179.915C229.622 179.952 229.637 179.993 229.644 180.035C229.651 180.078 229.649 180.122 229.639 180.164C229.629 180.206 229.611 180.246 229.585 180.281C229.56 180.316 229.528 180.345 229.491 180.368C229.454 180.391 229.413 180.406 229.37 180.413C202.931 184.621 188.848 203.614 184.021 211.588C183.708 212.106 183.28 212.544 182.769 212.868C182.258 213.192 181.679 213.393 181.077 213.455C180.941 213.475 180.804 213.485 180.666 213.488Z" fill="#E3E3E3"/>
    <path d="M180.254 344.624H171.637C169.938 344.626 168.298 343.999 167.036 342.863C165.773 341.728 164.978 340.165 164.804 338.477C163.501 326.197 161.071 294.247 166.927 263.026C167.329 260.835 167.21 258.581 166.577 256.445C165.944 254.309 164.817 252.352 163.286 250.732C157.423 244.56 146.617 231.694 139.641 214.893C130.007 196.856 133.127 176.328 133.179 176.126C134.716 158.421 142.637 141.237 156.726 125.08C169.233 110.802 180.313 103.452 190.09 96.974C204.714 87.2759 216.263 79.6201 225.656 53.83C233.472 32.1247 222.816 16.7548 215.768 9.5154C215.215 8.95015 214.826 8.24541 214.644 7.47673C214.461 6.70805 214.491 5.90421 214.731 5.15127C214.97 4.39832 215.41 3.72468 216.004 3.20216C216.597 2.67964 217.321 2.328 218.1 2.18489C231.987 -0.364849 266.393 -4.37157 285.843 13.4181C297.067 23.6821 301.737 39.6439 299.724 60.8613C299.198 67.0778 297.69 73.1721 295.256 78.9178C295.24 78.9587 295.217 78.9961 295.186 79.0277C295.156 79.0593 295.12 79.0842 295.079 79.1014C295.039 79.1186 294.996 79.1277 294.952 79.1278C294.908 79.1278 294.865 79.1191 294.824 79.102C294.784 79.0849 294.747 79.0598 294.717 79.0283C294.686 78.9968 294.663 78.9593 294.647 78.9184C294.632 78.8776 294.624 78.8342 294.626 78.7905C294.628 78.7467 294.638 78.7037 294.657 78.6641C297.064 72.9806 298.555 66.9522 299.073 60.8029C301.066 39.8001 296.467 24.0203 285.394 13.8929C266.178 -3.6691 232.02 0.292098 218.223 2.83533C217.562 2.96041 216.948 3.26254 216.445 3.70936C215.943 4.15619 215.571 4.73105 215.371 5.37231C215.17 6.01358 215.148 6.697 215.306 7.35001C215.464 8.00301 215.797 8.60097 216.269 9.07965C223.434 16.4167 234.235 32.0209 226.301 54.0644C216.836 80.0821 205.209 87.7703 190.475 97.5269C180.704 103.986 169.689 111.31 157.254 125.496C143.262 141.555 135.387 158.61 133.863 176.198C133.83 176.425 130.73 196.739 140.272 214.613C147.216 231.342 157.997 244.137 163.8 250.284C165.402 251.976 166.581 254.022 167.242 256.255C167.903 258.489 168.027 260.846 167.604 263.136C161.742 294.279 164.178 326.138 165.487 338.386C165.65 339.912 166.373 341.324 167.517 342.348C168.662 343.373 170.145 343.938 171.682 343.934H180.3C180.386 343.934 180.469 343.969 180.53 344.03C180.591 344.091 180.626 344.173 180.626 344.26C180.632 344.31 180.627 344.36 180.611 344.408C180.594 344.456 180.567 344.499 180.531 344.534C180.495 344.569 180.451 344.596 180.403 344.612C180.355 344.627 180.304 344.631 180.254 344.624Z" fill="#E3E3E3"/>
    <path d="M280.89 344.624H201.466C201.38 344.624 201.297 344.59 201.236 344.529C201.175 344.468 201.141 344.385 201.141 344.299C201.141 344.213 201.175 344.13 201.236 344.069C201.297 344.008 201.38 343.974 201.466 343.974H280.89C280.976 343.974 281.059 344.008 281.12 344.069C281.181 344.13 281.215 344.213 281.215 344.299C281.215 344.385 281.181 344.468 281.12 344.529C281.059 344.59 280.976 344.624 280.89 344.624Z" fill="#E3E3E3"/>
    <path d="M475.136 344.623H416.759C416.673 344.623 416.59 344.589 416.529 344.528C416.468 344.467 416.434 344.384 416.434 344.298C416.434 344.212 416.468 344.129 416.529 344.068C416.59 344.007 416.673 343.973 416.759 343.973H474.485V338.919C474.478 333.387 472.274 328.084 468.357 324.172C464.44 320.26 459.128 318.06 453.589 318.053H438.841C438.755 318.053 438.672 318.018 438.611 317.958C438.55 317.897 438.516 317.814 438.516 317.728C438.516 317.641 438.55 317.559 438.611 317.498C438.672 317.437 438.755 317.402 438.841 317.402H453.589C459.301 317.409 464.778 319.678 468.817 323.712C472.857 327.746 475.129 333.215 475.136 338.919V344.623Z" fill="#E3E3E3"/>
    <path d="M442.537 318.053H411.541C411.455 318.051 411.373 318.016 411.312 317.956C411.251 317.895 411.217 317.813 411.215 317.728C411.215 317.641 411.249 317.559 411.31 317.498C411.371 317.437 411.454 317.402 411.541 317.402H442.537C442.623 317.402 442.706 317.437 442.767 317.498C442.828 317.559 442.863 317.641 442.863 317.728C442.863 317.814 442.828 317.897 442.767 317.958C442.706 318.019 442.623 318.053 442.537 318.053Z" fill="#E3E3E3"/>
    <path d="M466.742 344.63C466.665 344.631 466.591 344.605 466.533 344.556C466.474 344.507 466.435 344.439 466.423 344.364C463.596 329.833 453.668 329.235 453.571 329.235C453.528 329.233 453.486 329.223 453.447 329.205C453.408 329.187 453.373 329.161 453.344 329.13C453.315 329.099 453.293 329.062 453.278 329.022C453.263 328.982 453.256 328.939 453.258 328.896C453.258 328.853 453.267 328.81 453.284 328.771C453.301 328.731 453.327 328.695 453.359 328.666C453.39 328.636 453.428 328.614 453.469 328.6C453.51 328.586 453.554 328.58 453.597 328.584C453.701 328.584 464.143 329.234 467.061 344.24C467.076 344.325 467.058 344.413 467.009 344.485C466.96 344.557 466.885 344.607 466.8 344.624L466.742 344.63Z" fill="#E3E3E3"/>
    <path d="M450.404 344.63C450.333 344.63 450.263 344.606 450.207 344.563C450.15 344.519 450.11 344.458 450.091 344.39C446.659 332.402 437.943 331.888 437.852 331.888C437.766 331.883 437.685 331.845 437.627 331.782C437.569 331.719 437.537 331.636 437.539 331.55C437.54 331.507 437.549 331.465 437.567 331.425C437.584 331.386 437.61 331.351 437.642 331.322C437.673 331.293 437.71 331.27 437.751 331.256C437.792 331.241 437.835 331.235 437.878 331.238C437.976 331.238 447.154 331.778 450.717 344.214C450.739 344.297 450.728 344.385 450.687 344.461C450.646 344.536 450.577 344.592 450.495 344.617L450.404 344.63Z" fill="#E3E3E3"/>
    <path d="M337.86 344.63C337.785 344.629 337.712 344.602 337.654 344.553C337.596 344.505 337.556 344.438 337.541 344.364C334.721 329.859 324.794 329.241 324.69 329.235C324.647 329.233 324.605 329.223 324.567 329.205C324.528 329.187 324.494 329.161 324.465 329.13C324.437 329.098 324.415 329.061 324.401 329.021C324.387 328.981 324.381 328.939 324.383 328.896C324.383 328.853 324.392 328.81 324.41 328.771C324.427 328.731 324.452 328.695 324.484 328.666C324.516 328.636 324.554 328.614 324.595 328.6C324.636 328.586 324.679 328.58 324.722 328.584C324.826 328.584 335.262 329.234 338.18 344.24C338.195 344.324 338.178 344.411 338.13 344.483C338.083 344.555 338.01 344.605 337.926 344.624L337.86 344.63Z" fill="#E3E3E3"/>
    <path d="M321.529 344.63C321.458 344.63 321.388 344.606 321.332 344.562C321.275 344.519 321.235 344.458 321.216 344.389C317.784 332.428 309.062 331.894 308.977 331.888C308.934 331.886 308.892 331.876 308.853 331.858C308.814 331.84 308.78 331.815 308.751 331.783C308.721 331.752 308.699 331.715 308.684 331.675C308.669 331.635 308.663 331.592 308.664 331.55C308.664 331.506 308.673 331.464 308.69 331.424C308.708 331.384 308.733 331.348 308.765 331.319C308.797 331.29 308.834 331.267 308.875 331.253C308.916 331.239 308.96 331.234 309.003 331.237C309.094 331.237 318.279 331.777 321.842 344.214C321.864 344.297 321.853 344.386 321.81 344.462C321.767 344.537 321.697 344.593 321.614 344.617L321.529 344.63Z" fill="#E3E3E3"/>
    <path d="M349.744 344.63H349.698C349.656 344.624 349.614 344.61 349.577 344.589C349.539 344.567 349.506 344.538 349.48 344.503C349.454 344.469 349.435 344.429 349.425 344.388C349.414 344.346 349.412 344.302 349.418 344.259C350.434 337.234 349.418 324.869 331.212 320.947C305.808 315.477 282.43 319.698 282.196 319.737L281.727 319.829L281.818 319.354C281.818 319.224 284.423 305.831 281.818 292.302C281.809 292.26 281.809 292.218 281.817 292.176C281.825 292.135 281.842 292.095 281.866 292.06C281.889 292.025 281.92 291.995 281.955 291.972C281.99 291.948 282.03 291.932 282.072 291.925C282.114 291.916 282.157 291.916 282.199 291.924C282.241 291.932 282.281 291.948 282.317 291.972C282.352 291.995 282.383 292.026 282.407 292.061C282.431 292.097 282.448 292.136 282.456 292.178C284.814 304.413 282.945 316.531 282.508 319.022C285.935 318.456 307.782 315.236 331.316 320.323C350.037 324.355 351.079 337.117 350.031 344.389C350.013 344.454 349.977 344.512 349.926 344.555C349.874 344.598 349.811 344.624 349.744 344.63Z" fill="#E3E3E3"/>
    <path d="M356.964 175.541C355.476 175.541 354.05 174.95 352.998 173.9C351.946 172.85 351.355 171.426 351.355 169.94C351.355 168.455 351.946 167.031 352.998 165.98C354.05 164.93 355.476 164.34 356.964 164.34C357.322 164.339 357.68 164.372 358.032 164.438C358.117 164.455 358.192 164.505 358.24 164.576C358.289 164.648 358.308 164.736 358.293 164.821C358.272 164.905 358.222 164.977 358.151 165.026C358.08 165.074 357.993 165.094 357.908 165.081C357.598 165.018 357.281 164.988 356.964 164.99C355.983 164.99 355.025 165.281 354.21 165.825C353.395 166.369 352.759 167.141 352.384 168.046C352.009 168.95 351.911 169.946 352.102 170.906C352.293 171.866 352.766 172.748 353.459 173.44C354.152 174.133 355.035 174.604 355.997 174.795C356.958 174.986 357.955 174.888 358.861 174.514C359.766 174.139 360.541 173.504 361.086 172.69C361.63 171.876 361.921 170.919 361.921 169.94C361.925 169.354 361.821 168.772 361.615 168.223C361.585 168.142 361.59 168.053 361.626 167.974C361.663 167.896 361.729 167.836 361.81 167.807C361.85 167.791 361.893 167.784 361.936 167.786C361.979 167.787 362.021 167.797 362.06 167.816C362.099 167.834 362.134 167.86 362.162 167.892C362.191 167.924 362.213 167.961 362.227 168.002C362.54 168.849 362.643 169.758 362.528 170.653C362.413 171.549 362.083 172.403 361.566 173.143C361.049 173.883 360.361 174.488 359.559 174.905C358.758 175.323 357.868 175.541 356.964 175.541Z" fill="#E3E3E3"/>
    <path d="M411.68 175.541C411.174 175.542 410.67 175.474 410.182 175.339C410.099 175.316 410.029 175.262 409.986 175.187C409.944 175.113 409.932 175.025 409.954 174.942C409.965 174.9 409.983 174.861 410.01 174.826C410.036 174.792 410.069 174.763 410.107 174.742C410.145 174.72 410.186 174.707 410.23 174.702C410.273 174.698 410.317 174.702 410.358 174.715C411.462 175.018 412.638 174.928 413.683 174.462C414.729 173.996 415.58 173.182 416.092 172.158C416.603 171.135 416.743 169.966 416.487 168.851C416.231 167.736 415.595 166.745 414.689 166.046C413.782 165.347 412.661 164.984 411.516 165.019C410.371 165.055 409.274 165.486 408.412 166.239C407.55 166.992 406.977 168.02 406.79 169.149C406.603 170.277 406.814 171.435 407.388 172.425C407.421 172.498 407.426 172.581 407.401 172.658C407.376 172.735 407.324 172.8 407.254 172.84C407.185 172.881 407.102 172.894 407.023 172.877C406.945 172.861 406.875 172.815 406.827 172.75C406.208 171.683 405.958 170.442 406.117 169.219C406.276 167.996 406.835 166.86 407.707 165.987C408.579 165.113 409.715 164.551 410.939 164.389C412.163 164.226 413.407 164.472 414.478 165.087C415.548 165.703 416.385 166.654 416.858 167.792C417.332 168.931 417.416 170.195 417.097 171.386C416.778 172.578 416.075 173.63 415.095 174.382C414.116 175.133 412.915 175.54 411.68 175.541Z" fill="#E3E3E3"/>
    <path d="M384.323 184.101C384.167 184.103 384.012 184.07 383.869 184.006C383.726 183.942 383.599 183.848 383.496 183.73L376.428 175.795C376.287 175.636 376.194 175.439 376.161 175.228C376.129 175.017 376.158 174.802 376.246 174.607C376.333 174.413 376.475 174.248 376.654 174.132C376.833 174.016 377.042 173.954 377.256 173.954H391.391C391.604 173.954 391.813 174.016 391.993 174.132C392.172 174.248 392.314 174.413 392.401 174.607C392.488 174.802 392.518 175.017 392.485 175.228C392.453 175.439 392.36 175.636 392.218 175.795L390.968 177.2C390.91 177.264 390.828 177.304 390.742 177.309C390.655 177.313 390.57 177.283 390.505 177.226C390.44 177.168 390.401 177.087 390.396 177C390.391 176.914 390.421 176.829 390.479 176.764L391.73 175.359C391.79 175.295 391.83 175.214 391.844 175.127C391.859 175.04 391.847 174.95 391.811 174.87C391.775 174.789 391.716 174.721 391.641 174.674C391.566 174.627 391.479 174.603 391.391 174.605H377.256C377.167 174.603 377.08 174.627 377.006 174.674C376.931 174.721 376.872 174.789 376.836 174.87C376.8 174.95 376.788 175.04 376.803 175.127C376.817 175.214 376.857 175.295 376.917 175.359L383.985 183.301C384.027 183.349 384.079 183.387 384.138 183.413C384.196 183.439 384.259 183.452 384.323 183.451C384.387 183.452 384.451 183.439 384.509 183.413C384.568 183.387 384.62 183.349 384.662 183.301L387.215 180.432C387.246 180.402 387.282 180.378 387.321 180.361C387.361 180.345 387.404 180.336 387.447 180.336C387.49 180.336 387.532 180.345 387.572 180.361C387.612 180.378 387.648 180.402 387.678 180.432C387.738 180.493 387.771 180.575 387.771 180.66C387.771 180.745 387.738 180.827 387.678 180.888L385.124 183.756C385.022 183.874 384.895 183.968 384.752 184.032C384.609 184.096 384.454 184.129 384.297 184.127L384.323 184.101Z" fill="#E3E3E3"/>
    <path d="M371.717 199.704H370.864C370.777 199.699 370.695 199.661 370.637 199.596C370.578 199.532 370.547 199.447 370.551 199.36C370.556 199.277 370.593 199.199 370.653 199.142C370.714 199.085 370.794 199.054 370.877 199.054C374.785 199.223 377.912 198.169 380.133 195.893C384.445 191.483 383.976 183.899 383.97 183.821C383.966 183.778 383.971 183.736 383.984 183.695C383.997 183.655 384.019 183.617 384.047 183.585C384.075 183.553 384.109 183.527 384.147 183.508C384.185 183.489 384.227 183.479 384.269 183.476C384.313 183.47 384.357 183.472 384.399 183.484C384.441 183.496 384.48 183.517 384.513 183.546C384.547 183.574 384.573 183.609 384.592 183.649C384.611 183.688 384.621 183.732 384.621 183.775C384.621 184.094 385.123 191.724 380.602 196.348C378.459 198.566 375.436 199.704 371.717 199.704Z" fill="#E3E3E3"/>
    <path d="M396.937 199.705C393.217 199.705 390.227 198.566 388.039 196.329C383.518 191.704 384 184.074 384.02 183.756C384.021 183.712 384.032 183.67 384.051 183.631C384.07 183.592 384.096 183.557 384.13 183.529C384.163 183.501 384.201 183.479 384.243 183.467C384.284 183.455 384.328 183.451 384.372 183.457C384.414 183.459 384.456 183.47 384.494 183.489C384.532 183.507 384.566 183.534 384.594 183.566C384.622 183.598 384.643 183.635 384.657 183.676C384.67 183.716 384.675 183.759 384.671 183.802C384.671 183.88 384.196 191.463 388.508 195.873C390.729 198.143 393.836 199.204 397.764 199.035C397.807 199.029 397.851 199.033 397.892 199.046C397.934 199.059 397.972 199.08 398.004 199.109C398.036 199.139 398.062 199.174 398.079 199.214C398.096 199.254 398.104 199.297 398.103 199.34C398.106 199.427 398.075 199.512 398.017 199.577C397.958 199.641 397.877 199.68 397.79 199.685L396.937 199.705Z" fill="#E3E3E3"/>
    <path d="M370.875 187.945C370.841 187.951 370.806 187.951 370.771 187.945C370.634 187.9 356.551 183.36 345.165 185.064C345.123 185.07 345.08 185.068 345.038 185.058C344.996 185.048 344.957 185.03 344.923 185.004C344.888 184.979 344.859 184.947 344.837 184.91C344.815 184.873 344.8 184.833 344.794 184.791C344.786 184.748 344.788 184.705 344.798 184.663C344.807 184.621 344.826 184.581 344.851 184.547C344.877 184.512 344.909 184.483 344.946 184.461C344.984 184.44 345.025 184.425 345.068 184.42C356.604 182.69 370.829 187.282 370.973 187.327C371.014 187.34 371.052 187.36 371.085 187.388C371.118 187.416 371.145 187.45 371.165 187.488C371.184 187.526 371.195 187.568 371.198 187.611C371.201 187.654 371.196 187.697 371.181 187.737C371.158 187.799 371.116 187.852 371.061 187.889C371.006 187.926 370.941 187.946 370.875 187.945Z" fill="#E3E3E3"/>
    <path d="M340.184 195.757C340.135 195.757 340.086 195.747 340.042 195.725C339.998 195.704 339.959 195.672 339.93 195.633C339.903 195.6 339.883 195.561 339.871 195.52C339.86 195.478 339.857 195.435 339.862 195.393C339.867 195.35 339.882 195.309 339.903 195.272C339.925 195.235 339.954 195.203 339.988 195.178C345.72 190.813 363.692 191.229 364.454 191.275C364.497 191.275 364.54 191.283 364.58 191.3C364.619 191.317 364.655 191.342 364.685 191.373C364.714 191.404 364.738 191.441 364.753 191.481C364.768 191.521 364.775 191.564 364.774 191.607C364.773 191.65 364.763 191.692 364.746 191.731C364.729 191.77 364.704 191.805 364.673 191.835C364.643 191.864 364.606 191.888 364.566 191.903C364.526 191.919 364.484 191.926 364.441 191.925C364.259 191.925 345.929 191.489 340.386 195.711C340.325 195.747 340.254 195.764 340.184 195.757Z" fill="#E3E3E3"/>
    <path d="M396.319 187.945C396.233 187.959 396.145 187.938 396.074 187.887C396.003 187.835 395.955 187.758 395.942 187.672C395.928 187.586 395.949 187.498 396 187.427C396.051 187.356 396.129 187.308 396.215 187.295C396.358 187.249 410.585 182.664 422.127 184.387C422.17 184.394 422.21 184.408 422.247 184.43C422.284 184.452 422.316 184.482 422.341 184.516C422.367 184.55 422.385 184.589 422.395 184.631C422.405 184.672 422.407 184.716 422.401 184.758C422.385 184.842 422.338 184.917 422.269 184.968C422.2 185.018 422.115 185.041 422.03 185.031C410.644 183.32 396.56 187.867 396.417 187.913C396.387 187.93 396.354 187.941 396.319 187.945Z" fill="#E3E3E3"/>
    <path d="M427.005 195.757C426.935 195.757 426.866 195.734 426.81 195.692C421.26 191.47 402.937 191.9 402.754 191.906C402.668 191.906 402.586 191.873 402.524 191.814C402.462 191.754 402.426 191.673 402.422 191.587C402.42 191.545 402.427 191.503 402.442 191.463C402.457 191.423 402.48 191.387 402.509 191.356C402.538 191.325 402.573 191.3 402.612 191.283C402.651 191.266 402.692 191.257 402.735 191.256C403.503 191.256 421.475 190.814 427.207 195.158C427.26 195.201 427.298 195.258 427.317 195.322C427.335 195.387 427.333 195.455 427.311 195.519C427.289 195.582 427.248 195.637 427.193 195.676C427.138 195.716 427.072 195.737 427.005 195.737V195.757Z" fill="#E3E3E3"/>
    <path d="M339.043 230.214C339.263 232.314 338.9 234.434 337.993 236.341C337.087 238.249 335.671 239.87 333.903 241.028C327.738 245.079 322.374 248.514 325.489 259.777C325.489 259.777 306.571 249.712 280.247 251.018C253.923 252.324 244.801 261.591 240.669 265.642C236.537 269.693 232.181 276.497 221.601 279.109C211.021 281.721 208.331 281.13 203.832 288.259C199.334 295.388 203.474 299.073 206.373 301.652C209.272 304.23 210.072 304.147 210.072 304.147C210.072 304.147 211.305 313.297 220.002 314.961C220.002 314.961 219.685 321.923 220.593 321.849C221.501 321.774 224.25 318.047 225.466 315.768C225.466 315.768 224.583 324.668 225.616 325.159C226.649 325.65 231.806 317.581 232.28 317.473C232.28 317.473 256.78 310.952 277.806 324.644C298.832 338.336 304.463 355.563 306.879 369.671C306.879 369.671 304.088 362.534 296.116 363.016C296.116 363.016 292.342 372.699 287.577 374.995C287.577 374.995 288.411 366.876 286.92 364.58C286.92 364.58 284.37 374.421 280.43 377.698C280.43 377.698 267.102 377.865 266.635 368.265C266.468 363.1 270.409 363.099 267.785 358.757C265.16 354.415 249.957 356.129 248.891 369.006C247.825 381.882 258.671 390.575 258.671 390.575C258.671 390.575 252.423 391.723 251.607 392.871C251.607 392.871 262.195 399.842 274.765 399.925C287.336 400.008 298.923 398.203 313.61 383.771C324.123 373.597 326.422 357.277 326.422 357.277C326.422 357.277 331.762 382.781 315.834 400.416C305.48 411.163 304.172 410.398 304.172 410.398C304.172 410.398 319.574 409.25 330.337 403.743C330.337 403.743 319.741 420.13 297.732 430.362C297.732 430.362 321.382 430.944 346.265 410.68C354.216 404.492 360.696 396.623 365.241 387.639C365.241 387.639 361.793 408.301 350.947 421.261C350.947 421.261 368.116 412.652 381.261 386.158C387.009 374.437 387.417 365.004 387.417 365.004C387.417 365.004 390.541 379.686 389.083 390.101C389.083 390.101 414.483 356.827 403.911 317.997C393.34 279.167 377.254 267.513 377.254 267.513C377.254 267.513 377.679 288.425 360.118 296.236C342.558 304.047 330.495 300.038 330.495 300.038C330.495 300.038 357.786 297.543 362.659 274.06C367.533 250.577 354.595 235.563 339.043 230.214Z" fill="#F4004A"/>
    <path d="M318.141 228.018C318.141 228.018 324.313 231.47 323.413 238.383C322.93 242.109 319.207 246.892 320.265 251.625C321.231 255.718 322.506 256.201 322.506 256.201C322.506 256.201 320.839 248.598 326.671 243.174C332.502 237.751 334.285 239.015 333.593 234.665C333.052 231.728 326.554 225.523 318.141 228.018Z" fill="#F4004A"/>
    <path d="M486.505 337.404C485.612 337.404 484.817 337.404 484.068 337.32C483.195 337.261 482.316 337.17 481.463 337.053C481.377 337.042 481.3 336.997 481.247 336.928C481.195 336.86 481.172 336.774 481.183 336.689C481.196 336.603 481.242 336.525 481.311 336.473C481.38 336.421 481.468 336.398 481.554 336.409C482.394 336.526 483.261 336.611 484.12 336.669C484.856 336.728 485.638 336.754 486.511 336.754C494.92 336.755 503.063 333.809 509.518 328.428L509.635 328.324C513.64 324.963 516.859 320.766 519.065 316.03C521.272 311.293 522.413 306.132 522.409 300.908C522.403 296.97 521.756 293.06 520.494 289.33C519.559 286.583 518.29 283.962 516.716 281.524C516.227 280.763 515.693 280.009 515.139 279.287C513.371 276.949 511.321 274.836 509.036 272.997C507.13 271.464 505.074 270.126 502.9 269.003C498.902 266.949 494.55 265.673 490.074 265.244C486.218 264.856 482.325 265.093 478.545 265.946C473.692 267.039 469.124 269.14 465.139 272.113C461.997 274.439 459.254 277.26 457.016 280.464C454.025 284.775 452.015 289.687 451.128 294.856C450.241 300.025 450.499 305.326 451.884 310.385C451.895 310.427 451.897 310.472 451.891 310.516C451.885 310.559 451.87 310.601 451.848 310.639C451.826 310.677 451.796 310.711 451.761 310.737C451.725 310.764 451.685 310.783 451.643 310.794C451.6 310.805 451.555 310.808 451.512 310.802C451.468 310.796 451.426 310.781 451.387 310.759C451.349 310.736 451.316 310.707 451.289 310.672C451.263 310.637 451.243 310.596 451.232 310.554C449.285 303.458 449.532 295.94 451.941 288.987C454.35 282.034 458.807 275.97 464.729 271.592C468.798 268.568 473.459 266.432 478.408 265.322C482.252 264.457 486.211 264.213 490.133 264.6C495.144 265.1 499.997 266.629 504.388 269.092C508.779 271.555 512.612 274.897 515.647 278.91C516.214 279.645 516.755 280.412 517.256 281.193C518.857 283.675 520.15 286.341 521.106 289.135C521.804 291.172 522.314 293.268 522.63 295.398C522.914 297.228 523.055 299.076 523.054 300.927C523.058 306.22 521.906 311.45 519.68 316.253C517.454 321.057 514.206 325.318 510.163 328.74L510.045 328.851C503.452 334.382 495.116 337.411 486.505 337.404Z" fill="#E3E3E3"/>
    <path d="M513 280.913H512.929C510.649 280.406 508.317 279.781 505.991 279.046C502.046 277.802 498.178 276.323 494.41 274.617H494.338C490.905 273.062 487.401 271.28 483.916 269.302C483.876 269.283 483.841 269.255 483.812 269.222C483.783 269.188 483.762 269.149 483.749 269.107C483.736 269.065 483.732 269.02 483.736 268.976C483.741 268.932 483.755 268.89 483.776 268.851C483.798 268.813 483.827 268.779 483.862 268.752C483.898 268.726 483.938 268.706 483.981 268.695C484.024 268.684 484.069 268.683 484.112 268.69C484.156 268.697 484.198 268.713 484.235 268.736C487.681 270.688 491.146 272.457 494.534 273.992H494.605C498.372 275.698 502.237 277.177 506.18 278.422C508.493 279.15 510.805 279.768 513.065 280.269C513.152 280.278 513.231 280.322 513.285 280.39C513.339 280.457 513.365 280.544 513.355 280.63C513.346 280.716 513.302 280.795 513.235 280.849C513.167 280.904 513.08 280.929 512.994 280.919L513 280.913Z" fill="#E3E3E3"/>
    <path d="M519.6 295.684C516.338 295.524 513.089 295.153 509.875 294.572C505.939 293.856 502.061 292.849 498.274 291.56C492.918 289.741 487.738 287.442 482.797 284.691C479.431 282.821 476.169 280.769 473.026 278.545C470.636 276.854 468.31 275.071 466.115 273.244C466.049 273.187 466.008 273.107 466.001 273.021C465.994 272.934 466.02 272.849 466.076 272.782C466.103 272.749 466.136 272.722 466.174 272.702C466.212 272.682 466.253 272.67 466.295 272.666C466.338 272.663 466.381 272.667 466.421 272.681C466.462 272.694 466.499 272.715 466.532 272.743C468.714 274.564 471.026 276.333 473.404 278.011C476.536 280.222 479.787 282.261 483.142 284.119C488.05 286.851 493.195 289.134 498.515 290.942C502.271 292.225 506.119 293.225 510.025 293.934C513.211 294.507 516.431 294.876 519.665 295.04C519.708 295.042 519.75 295.052 519.789 295.07C519.828 295.088 519.863 295.113 519.892 295.144C519.921 295.176 519.943 295.213 519.958 295.253C519.973 295.293 519.979 295.336 519.978 295.378C519.975 295.424 519.962 295.468 519.941 295.508C519.92 295.549 519.891 295.584 519.856 295.613C519.82 295.642 519.779 295.663 519.735 295.675C519.691 295.687 519.645 295.69 519.6 295.684Z" fill="#E3E3E3"/>
    <path d="M518.383 309.324H518.351C517.699 309.259 517.048 309.181 516.396 309.103C497.578 306.839 479.742 299.467 464.826 287.788C462.911 286.285 461.055 284.718 459.296 283.124C459.238 283.065 459.205 282.986 459.203 282.903C459.202 282.82 459.232 282.74 459.287 282.678C459.343 282.617 459.42 282.579 459.503 282.572C459.586 282.566 459.668 282.591 459.733 282.643C461.478 284.224 463.328 285.785 465.23 287.274C480.045 298.891 497.772 306.219 516.475 308.459L518.429 308.68C518.515 308.68 518.598 308.715 518.659 308.776C518.72 308.837 518.755 308.919 518.755 309.005C518.755 309.092 518.72 309.174 518.659 309.235C518.598 309.296 518.515 309.331 518.429 309.331L518.383 309.324Z" fill="#E3E3E3"/>
    <path d="M453.303 309.61C453.269 309.616 453.234 309.616 453.199 309.61C453.118 309.582 453.052 309.523 453.014 309.447C452.976 309.37 452.97 309.282 452.997 309.201C455.354 302.351 458.67 295.869 462.846 289.947C462.897 289.881 462.972 289.838 463.054 289.825C463.137 289.812 463.221 289.832 463.289 289.879C463.358 289.927 463.405 289.999 463.422 290.081C463.439 290.162 463.424 290.247 463.38 290.318C459.237 296.189 455.948 302.617 453.609 309.409C453.584 309.468 453.541 309.519 453.487 309.555C453.432 309.591 453.368 309.61 453.303 309.61Z" fill="#E3E3E3"/>
    <path d="M463.471 317.507H463.373C463.291 317.48 463.223 317.422 463.182 317.346C463.142 317.269 463.134 317.18 463.158 317.097C465.017 311.241 467.504 305.604 470.578 300.283C470.621 300.208 470.692 300.153 470.776 300.13C470.859 300.108 470.949 300.12 471.024 300.163C471.099 300.206 471.154 300.277 471.177 300.361C471.199 300.444 471.188 300.533 471.144 300.608C468.092 305.886 465.624 311.481 463.784 317.292C463.76 317.356 463.717 317.41 463.661 317.448C463.605 317.487 463.539 317.507 463.471 317.507Z" fill="#E3E3E3"/>
    <path d="M472.095 321.565C472.03 321.564 471.966 321.544 471.913 321.506C471.859 321.469 471.818 321.416 471.795 321.355C471.771 321.294 471.767 321.228 471.782 321.164C471.798 321.101 471.832 321.043 471.88 320.999C477.924 315.642 483.543 309.825 488.686 303.6C488.743 303.534 488.823 303.494 488.909 303.487C488.996 303.479 489.081 303.506 489.148 303.561C489.181 303.588 489.209 303.621 489.229 303.659C489.248 303.697 489.261 303.738 489.264 303.78C489.268 303.823 489.263 303.866 489.25 303.906C489.236 303.947 489.215 303.984 489.188 304.016C484.021 310.265 478.378 316.106 472.31 321.487C472.25 321.538 472.174 321.566 472.095 321.565Z" fill="#E3E3E3"/>
    <path d="M487.702 333.319C487.625 333.32 487.551 333.292 487.494 333.241C487.428 333.184 487.387 333.104 487.38 333.018C487.373 332.932 487.4 332.846 487.455 332.779C493.256 325.743 498.255 318.083 502.358 309.942C502.398 309.867 502.467 309.81 502.549 309.784C502.63 309.759 502.719 309.766 502.795 309.805C502.871 309.844 502.93 309.912 502.957 309.994C502.983 310.075 502.977 310.164 502.938 310.241C498.811 318.425 493.786 326.126 487.956 333.202C487.926 333.24 487.887 333.269 487.843 333.29C487.799 333.31 487.751 333.32 487.702 333.319Z" fill="#E3E3E3"/>
    <path d="M511.563 324.447C511.524 324.454 511.484 324.454 511.446 324.447C511.405 324.432 511.368 324.409 511.337 324.38C511.305 324.35 511.28 324.315 511.262 324.275C511.245 324.236 511.235 324.193 511.234 324.15C511.233 324.107 511.241 324.064 511.257 324.024C512.768 319.933 514.207 315.478 515.523 310.801C515.535 310.758 515.555 310.718 515.582 310.683C515.609 310.648 515.642 310.619 515.681 310.597C515.719 310.575 515.762 310.56 515.806 310.555C515.849 310.549 515.894 310.552 515.937 310.563C515.98 310.575 516.019 310.595 516.055 310.622C516.09 310.649 516.119 310.683 516.141 310.721C516.163 310.759 516.178 310.802 516.183 310.845C516.189 310.889 516.186 310.934 516.174 310.977C514.872 315.673 513.413 320.141 511.888 324.252C511.862 324.315 511.817 324.368 511.758 324.403C511.699 324.438 511.631 324.454 511.563 324.447Z" fill="#E3E3E3"/>
    <path d="M206.18 222.048C205.956 222.046 205.734 221.998 205.529 221.904C205.175 221.754 204.891 221.478 204.73 221.129C204.57 220.78 204.546 220.384 204.663 220.018C206.502 213.598 209.234 207.468 212.779 201.806C212.826 201.733 212.899 201.683 212.983 201.664C213.068 201.646 213.156 201.662 213.228 201.708C213.265 201.73 213.298 201.76 213.323 201.794C213.349 201.829 213.367 201.869 213.376 201.911C213.386 201.953 213.388 201.996 213.38 202.038C213.372 202.081 213.356 202.121 213.333 202.157C209.818 207.761 207.11 213.831 205.288 220.187C205.223 220.401 205.237 220.631 205.33 220.834C205.422 221.037 205.585 221.2 205.789 221.292C205.993 221.383 206.223 221.398 206.436 221.332C206.65 221.267 206.832 221.126 206.949 220.935C215.319 207.218 231.05 196.641 239.694 191.555C240.184 191.267 240.573 190.836 240.808 190.319C241.043 189.803 241.113 189.227 241.008 188.669C240.904 188.112 240.629 187.6 240.223 187.204C239.816 186.808 239.297 186.546 238.737 186.455C234.455 185.743 230.059 186.541 226.302 188.712C226.265 188.739 226.223 188.758 226.178 188.767C226.133 188.777 226.087 188.777 226.043 188.768C225.998 188.758 225.956 188.74 225.919 188.713C225.882 188.686 225.851 188.652 225.828 188.613C225.806 188.574 225.791 188.53 225.786 188.485C225.781 188.439 225.786 188.394 225.8 188.35C225.814 188.307 225.837 188.267 225.867 188.233C225.897 188.199 225.934 188.172 225.976 188.153C229.862 185.905 234.41 185.077 238.841 185.811C239.534 185.923 240.176 186.246 240.679 186.736C241.182 187.225 241.521 187.858 241.651 188.547C241.781 189.236 241.694 189.949 241.403 190.587C241.113 191.226 240.632 191.759 240.026 192.114C231.441 197.168 215.801 207.679 207.503 221.274C207.372 221.509 207.18 221.705 206.948 221.841C206.715 221.977 206.45 222.049 206.18 222.048Z" fill="#E3E3E3"/>
    <path d="M246.015 222.367C245.813 222.364 245.613 222.32 245.429 222.237C245.114 222.104 244.86 221.858 244.716 221.547C244.573 221.237 244.551 220.884 244.654 220.558C247.09 212.369 252.001 201.136 261.59 194.118C263.369 192.835 265.385 191.916 267.521 191.415C269.658 190.913 271.873 190.84 274.038 191.197C274.641 191.296 275.198 191.578 275.635 192.004C276.072 192.431 276.367 192.981 276.48 193.58C276.593 194.18 276.519 194.799 276.267 195.355C276.016 195.911 275.599 196.376 275.073 196.687C273.653 197.526 272.24 198.398 270.865 199.289C270.83 199.313 270.79 199.329 270.747 199.337C270.705 199.345 270.662 199.345 270.62 199.336C270.578 199.327 270.539 199.309 270.503 199.284C270.468 199.26 270.439 199.228 270.416 199.191C270.369 199.119 270.354 199.031 270.372 198.947C270.39 198.863 270.441 198.789 270.514 198.743C271.895 197.851 273.315 196.973 274.741 196.141C275.154 195.9 275.483 195.537 275.681 195.103C275.88 194.668 275.939 194.183 275.85 193.713C275.762 193.244 275.53 192.813 275.187 192.48C274.844 192.148 274.406 191.929 273.933 191.854C271.853 191.51 269.726 191.58 267.673 192.062C265.62 192.543 263.683 193.425 261.974 194.658C252.549 201.566 247.702 212.662 245.292 220.76C245.234 220.935 245.245 221.125 245.322 221.291C245.4 221.458 245.538 221.589 245.709 221.658C245.87 221.735 246.055 221.749 246.225 221.696C246.396 221.643 246.539 221.527 246.627 221.372C249.723 216.496 253.51 212.094 257.87 208.304C257.901 208.274 257.937 208.25 257.976 208.233C258.016 208.217 258.059 208.208 258.102 208.208C258.145 208.208 258.187 208.217 258.227 208.233C258.267 208.25 258.303 208.274 258.333 208.304C258.393 208.366 258.426 208.449 258.426 208.535C258.426 208.621 258.393 208.704 258.333 208.766C254.018 212.513 250.273 216.867 247.214 221.69C247.092 221.899 246.917 222.072 246.706 222.191C246.496 222.31 246.257 222.371 246.015 222.367Z" fill="#E3E3E3"/>
    <path d="M275.417 92.3106C274.901 92.3108 274.395 92.1755 273.948 91.9187C273.501 91.6618 273.129 91.2924 272.87 90.8471C268.525 83.4906 259.504 70.0979 247.831 63.0016C247.538 62.8318 247.32 62.5588 247.218 62.2362C247.117 61.9135 247.14 61.5646 247.284 61.2583C247.418 60.9444 247.664 60.6917 247.975 60.5488C248.285 60.4058 248.638 60.3827 248.964 60.4843C254.112 61.9658 259.047 64.1041 263.647 66.8458C263.683 66.8684 263.715 66.8977 263.74 66.9325C263.764 66.9673 263.782 67.0067 263.792 67.0484C263.802 67.0901 263.803 67.1333 263.796 67.1755C263.789 67.2177 263.773 67.2583 263.751 67.2946C263.729 67.3312 263.701 67.3631 263.667 67.3886C263.633 67.4141 263.594 67.4326 263.552 67.4429C263.511 67.4532 263.468 67.4551 263.426 67.4486C263.384 67.4421 263.344 67.4274 263.308 67.4051C258.756 64.6928 253.874 62.5765 248.782 61.1087C248.606 61.0488 248.414 61.0588 248.246 61.1363C248.077 61.2138 247.945 61.3529 247.876 61.5251C247.797 61.6862 247.784 61.8716 247.838 62.0424C247.893 62.2133 248.012 62.3566 248.17 62.4423C259.96 69.5972 269.059 83.1132 273.43 90.5152C273.671 90.9276 274.035 91.2555 274.47 91.4537C274.905 91.652 275.391 91.711 275.861 91.6227C276.331 91.5344 276.762 91.3031 277.096 90.9605C277.429 90.6178 277.648 90.1806 277.723 89.7088C278.071 87.6318 278.002 85.5064 277.52 83.4562C277.038 81.4061 276.153 79.4723 274.915 77.7668C274.89 77.7322 274.872 77.6928 274.862 77.6512C274.852 77.6096 274.85 77.5664 274.857 77.5241C274.864 77.4818 274.878 77.4412 274.901 77.4047C274.923 77.3682 274.952 77.3365 274.987 77.3113C275.022 77.2861 275.061 77.268 275.103 77.258C275.144 77.2479 275.188 77.2463 275.23 77.2529C275.272 77.2595 275.313 77.2744 275.349 77.2967C275.386 77.319 275.418 77.3482 275.443 77.3828C276.73 79.1598 277.651 81.1739 278.153 83.3086C278.655 85.4433 278.728 87.6563 278.368 89.8194C278.274 90.4232 277.994 90.9828 277.567 91.4201C277.139 91.8573 276.586 92.1505 275.984 92.2585C275.797 92.292 275.607 92.3094 275.417 92.3106Z" fill="#E3E3E3"/>
    <path d="M252.258 113.268C251.776 113.269 251.303 113.144 250.886 112.904C250.468 112.664 250.121 112.319 249.881 111.902C245.855 105.086 237.505 92.6687 226.665 86.0862C226.395 85.9221 226.193 85.665 226.099 85.3633C226.004 85.0617 226.023 84.7361 226.151 84.4471C226.277 84.1492 226.509 83.9087 226.803 83.7728C227.097 83.6369 227.431 83.6152 227.74 83.7118C234.319 85.6631 243.536 89.5008 250.102 96.7207C250.133 96.7509 250.157 96.7871 250.173 96.8268C250.19 96.8664 250.198 96.9086 250.198 96.9516C250.198 96.9945 250.19 97.0371 250.173 97.0767C250.157 97.1163 250.133 97.1522 250.102 97.1825C250.04 97.2425 249.957 97.2762 249.871 97.2762C249.785 97.2762 249.702 97.2425 249.64 97.1825C243.178 90.0796 234.071 86.2942 227.571 84.3689C227.414 84.3171 227.244 84.3265 227.094 84.3953C226.944 84.4641 226.826 84.5871 226.763 84.7396C226.697 84.8852 226.688 85.05 226.736 85.2023C226.784 85.3546 226.886 85.4839 227.024 85.5656C237.967 92.2197 246.402 104.734 250.473 111.583C250.695 111.961 251.028 112.262 251.427 112.444C251.826 112.626 252.272 112.68 252.703 112.6C253.134 112.519 253.53 112.308 253.836 111.994C254.142 111.681 254.344 111.281 254.414 110.848C254.571 109.881 254.635 108.901 254.603 107.921C254.601 107.836 254.633 107.754 254.692 107.692C254.75 107.63 254.83 107.593 254.916 107.59C255 107.589 255.081 107.622 255.142 107.68C255.202 107.739 255.238 107.818 255.241 107.902C255.275 108.923 255.207 109.945 255.039 110.953C254.951 111.518 254.688 112.042 254.288 112.451C253.887 112.86 253.369 113.134 252.805 113.236C252.624 113.264 252.441 113.274 252.258 113.268Z" fill="#E3E3E3"/>
</svg>
