<svg width="728" height="431" viewBox="0 0 728 431" fill="none" xmlns="http://www.w3.org/2000/svg">
    <g clip-path="url(#clip0_4280_28546)">
        <path d="M348.261 177.446L234 219.127L252.905 376.112L348.261 431L443.628 376.112L462.523 219.127L348.261 177.446Z" fill="#F10026"/>
        <path d="M348.262 177.446V431L443.628 376.112L462.523 219.127L348.262 177.446Z" fill="#D50027"/>
        <path d="M385.488 290.131C385.455 290.123 385.426 290.103 385.405 290.076C385.384 290.049 385.372 290.015 385.372 289.981C385.372 289.946 385.384 289.913 385.405 289.886C385.426 289.858 385.455 289.839 385.488 289.83C390.945 287.348 395.572 283.348 398.818 278.306C402.063 273.265 403.789 267.395 403.79 261.399V259.32C403.79 251.033 400.5 243.085 394.642 237.225C388.785 231.365 380.84 228.073 372.556 228.073H300.883V361.272H375.672C384.428 361.281 392.89 358.118 399.495 352.368C406.1 346.618 410.399 338.669 411.599 329.993C412.799 321.316 410.817 312.499 406.021 305.171C401.225 297.843 393.938 292.5 385.509 290.131H385.488ZM325.678 247.984H364.568C369.557 247.984 374.342 249.966 377.87 253.496C381.398 257.025 383.379 261.811 383.379 266.803C383.379 271.794 381.398 276.58 377.87 280.11C374.342 283.639 369.557 285.622 364.568 285.622H325.678V247.984ZM388.719 322.075C388.72 324.794 388.186 327.487 387.146 330C386.107 332.512 384.583 334.795 382.662 336.719C380.74 338.642 378.459 340.168 375.947 341.209C373.436 342.25 370.745 342.786 368.027 342.786H325.678V301.375H368.027C373.508 301.375 378.764 303.55 382.643 307.424C386.523 311.297 388.708 316.551 388.719 322.034V322.075Z" fill="white"/>
        <path d="M662.225 121.955H591.519C589.798 121.92 588.163 121.203 586.971 119.962C585.779 118.721 585.128 117.057 585.161 115.336V89.1596C585.128 87.4387 585.779 85.7753 586.971 84.5341C588.163 83.293 589.798 82.5755 591.519 82.54H697.563C699.283 82.5755 700.919 83.293 702.111 84.5341C703.303 85.7753 703.954 87.4387 703.921 89.1596V115.336C703.954 117.057 703.303 118.721 702.111 119.962C700.919 121.203 699.283 121.92 697.563 121.955H662.246H662.225Z" fill="#252525"/>
        <path d="M669.529 175.763H599.02C595.519 175.763 592.684 172.645 592.684 168.749V141.034C592.684 137.168 595.519 134.03 599.02 134.03H704.774C708.275 134.03 711.11 137.147 711.11 141.034V168.749C711.11 172.625 708.275 175.763 704.774 175.763H669.529Z" fill="#252525"/>
        <path d="M605.752 246.612H591.396C590.226 246.612 589.277 247.561 589.277 248.732V263.093C589.277 264.264 590.226 265.213 591.396 265.213H605.752C606.922 265.213 607.871 264.264 607.871 263.093V248.732C607.871 247.561 606.922 246.612 605.752 246.612Z" fill="#71A5D2"/>
        <path d="M599.799 268.912H585.443C584.273 268.912 583.324 269.861 583.324 271.032V285.393C583.324 286.564 584.273 287.513 585.443 287.513H599.799C600.969 287.513 601.918 286.564 601.918 285.393V271.032C601.918 269.861 600.969 268.912 599.799 268.912Z" fill="#71A5D2"/>
        <path d="M604.338 296.398H589.982C588.812 296.398 587.863 297.348 587.863 298.518V312.879C587.863 314.05 588.812 314.999 589.982 314.999H604.338C605.508 314.999 606.457 314.05 606.457 312.879V298.518C606.457 297.348 605.508 296.398 604.338 296.398Z" fill="#71A5D2"/>
        <path d="M341.839 71.7744H540.353C544.314 71.7744 548.114 73.3488 550.915 76.1511C553.716 78.9535 555.29 82.7543 555.29 86.7175V102.772H326.902V86.7279C326.901 84.7646 327.286 82.8204 328.036 81.0062C328.786 79.192 329.886 77.5435 331.274 76.1548C332.661 74.7661 334.308 73.6645 336.121 72.9129C337.934 72.1613 339.877 71.7744 341.839 71.7744Z" fill="#EAB669"/>
        <ellipse cx="341.477" cy="86.4758" rx="3.47711" ry="3.47581" fill="#161617"/>
        <ellipse cx="354.391" cy="86.4758" rx="3.47713" ry="3.47581" fill="#161617"/>
        <ellipse cx="367.305" cy="86.4758" rx="3.47713" ry="3.47581" fill="#161617"/>
        <path d="M432.011 111.657H393.744C392.017 111.657 390.617 113.058 390.617 114.785V153.068C390.617 154.795 392.017 156.195 393.744 156.195H432.011C433.738 156.195 435.138 154.795 435.138 153.068V114.785C435.138 113.058 433.738 111.657 432.011 111.657Z" fill="#71A5D2"/>
        <path d="M277.645 31.9854H219.548C217.822 31.9854 216.422 33.3857 216.422 35.1132V93.2332C216.422 94.9606 217.822 96.361 219.548 96.361H277.645C279.372 96.361 280.772 94.9606 280.772 93.2332V35.1132C280.772 33.3857 279.372 31.9854 277.645 31.9854Z" fill="#71A5D2"/>
        <path d="M186.556 323.312H101.847C97.1141 323.312 93.2773 327.151 93.2773 331.886V331.896C93.2773 336.631 97.1141 340.469 101.847 340.469H186.556C191.289 340.469 195.126 336.631 195.126 331.896V331.886C195.126 327.151 191.289 323.312 186.556 323.312Z" fill="#CE7783"/>
        <path d="M550.883 110.659C550.745 110.659 550.613 110.604 550.516 110.507C550.418 110.409 550.364 110.277 550.364 110.14V79.4535C550.364 75.5951 548.832 71.8948 546.105 69.1665C543.378 66.4382 539.678 64.9054 535.821 64.9054H499.902C499.764 64.9054 499.632 64.8506 499.534 64.7531C499.437 64.6557 499.383 64.5236 499.383 64.3858C499.383 64.248 499.437 64.1159 499.534 64.0184C499.632 63.921 499.764 63.8662 499.902 63.8662H535.821C539.954 63.8662 543.917 65.5086 546.839 68.4318C549.761 71.355 551.402 75.3195 551.402 79.4535V110.14C551.402 110.277 551.348 110.409 551.25 110.507C551.153 110.604 551.021 110.659 550.883 110.659Z" fill="#E3E3E3"/>
        <path d="M316.847 180.439C316.71 180.439 316.578 180.384 316.48 180.287C316.383 180.189 316.328 180.057 316.328 179.919V79.4535C316.328 75.3195 317.97 71.355 320.892 68.4318C323.814 65.5086 327.777 63.8662 331.909 63.8662H452.652C452.79 63.8662 452.922 63.921 453.02 64.0184C453.117 64.1159 453.172 64.248 453.172 64.3858C453.172 64.5236 453.117 64.6557 453.02 64.7531C452.922 64.8506 452.79 64.9054 452.652 64.9054H331.847C327.99 64.9054 324.291 66.4382 321.564 69.1665C318.837 71.8948 317.305 75.5951 317.305 79.4535V179.919C317.306 180.047 317.259 180.17 317.175 180.266C317.091 180.362 316.974 180.423 316.847 180.439Z" fill="#E3E3E3"/>
        <path d="M535.845 224.52H475.722C475.585 224.52 475.453 224.465 475.355 224.367C475.258 224.27 475.203 224.138 475.203 224C475.206 223.863 475.261 223.732 475.358 223.635C475.455 223.538 475.586 223.483 475.722 223.481H535.845C539.701 223.481 543.4 221.948 546.127 219.219C548.855 216.491 550.387 212.791 550.387 208.932V162.004C550.387 161.866 550.442 161.734 550.539 161.637C550.636 161.539 550.769 161.484 550.906 161.484C551.044 161.484 551.176 161.539 551.273 161.637C551.371 161.734 551.426 161.866 551.426 162.004V208.912C551.428 210.96 551.028 212.989 550.246 214.883C549.464 216.776 548.317 218.497 546.869 219.947C545.422 221.397 543.704 222.546 541.812 223.331C539.921 224.115 537.892 224.52 535.845 224.52Z" fill="#E3E3E3"/>
        <path d="M521.103 99.3432H467.265C467.128 99.3432 466.996 99.2885 466.898 99.1911C466.801 99.0937 466.746 98.9617 466.746 98.824C466.749 98.6871 466.804 98.5562 466.901 98.4594C466.998 98.3625 467.129 98.3073 467.265 98.3047H521.103C521.241 98.3047 521.373 98.3594 521.471 98.4568C521.568 98.5542 521.623 98.6862 521.623 98.824C521.623 98.9617 521.568 99.0937 521.471 99.1911C521.373 99.2885 521.241 99.3432 521.103 99.3432Z" fill="#E3E3E3"/>
        <path d="M443.698 99.3432H316.847C316.71 99.3432 316.578 99.2885 316.48 99.1911C316.383 99.0937 316.328 98.9617 316.328 98.824C316.331 98.6871 316.386 98.5562 316.483 98.4594C316.58 98.3625 316.711 98.3073 316.847 98.3047H443.698C443.836 98.3047 443.968 98.3594 444.066 98.4568C444.163 98.5542 444.218 98.6862 444.218 98.824C444.218 98.9617 444.163 99.0937 444.066 99.1911C443.968 99.2885 443.836 99.3432 443.698 99.3432Z" fill="#E3E3E3"/>
        <path d="M370.89 173.872C370.753 173.872 370.621 173.817 370.523 173.719C370.426 173.622 370.371 173.49 370.371 173.352V106.42C370.371 106.282 370.426 106.15 370.523 106.053C370.621 105.955 370.753 105.9 370.89 105.9C371.028 105.9 371.16 105.955 371.257 106.053C371.355 106.15 371.41 106.282 371.41 106.42V173.352C371.407 173.489 371.351 173.62 371.254 173.716C371.158 173.813 371.027 173.869 370.89 173.872Z" fill="#E3E3E3"/>
        <path d="M358.989 116.686H324.254C324.116 116.686 323.984 116.631 323.887 116.534C323.789 116.436 323.734 116.304 323.734 116.167C323.734 116.029 323.789 115.897 323.887 115.8C323.984 115.702 324.116 115.647 324.254 115.647H358.989C359.126 115.65 359.256 115.705 359.353 115.802C359.45 115.899 359.506 116.03 359.508 116.167C359.508 116.304 359.454 116.436 359.356 116.534C359.259 116.631 359.127 116.686 358.989 116.686Z" fill="#E3E3E3"/>
        <path d="M495.738 116.686H438.805C438.667 116.686 438.535 116.631 438.437 116.534C438.34 116.436 438.285 116.304 438.285 116.167C438.288 116.03 438.344 115.899 438.44 115.802C438.537 115.705 438.668 115.65 438.805 115.647H495.738C495.875 115.65 496.005 115.705 496.102 115.802C496.199 115.899 496.255 116.03 496.257 116.167C496.257 116.304 496.202 116.436 496.105 116.534C496.008 116.631 495.876 116.686 495.738 116.686Z" fill="#E3E3E3"/>
        <path d="M522.827 175.202H382.597C382.46 175.202 382.328 175.147 382.23 175.049C382.133 174.952 382.078 174.82 382.078 174.682C382.078 174.545 382.133 174.413 382.23 174.315C382.328 174.218 382.46 174.163 382.597 174.163H522.827C522.965 174.163 523.097 174.218 523.194 174.315C523.292 174.413 523.347 174.545 523.347 174.682C523.347 174.82 523.292 174.952 523.194 175.049C523.097 175.147 522.965 175.202 522.827 175.202Z" fill="#E3E3E3"/>
        <path d="M522.827 197.335H420.969C420.831 197.335 420.699 197.281 420.601 197.183C420.504 197.086 420.449 196.954 420.449 196.816C420.449 196.678 420.504 196.546 420.601 196.449C420.699 196.352 420.831 196.297 420.969 196.297H522.827C522.965 196.297 523.097 196.352 523.195 196.449C523.292 196.546 523.347 196.678 523.347 196.816C523.347 196.954 523.292 197.086 523.195 197.183C523.097 197.281 522.965 197.335 522.827 197.335Z" fill="#E3E3E3"/>
        <path d="M492.809 208.455H446.918C446.78 208.455 446.648 208.4 446.551 208.302C446.453 208.205 446.398 208.073 446.398 207.935C446.398 207.798 446.453 207.666 446.551 207.568C446.648 207.471 446.78 207.416 446.918 207.416H492.809C492.947 207.416 493.079 207.471 493.177 207.568C493.274 207.666 493.329 207.798 493.329 207.935C493.329 208.073 493.274 208.205 493.177 208.302C493.079 208.4 492.947 208.455 492.809 208.455Z" fill="#E3E3E3"/>
        <path d="M458.937 186.289H382.558C382.422 186.286 382.291 186.23 382.194 186.133C382.097 186.037 382.042 185.906 382.039 185.769C382.039 185.632 382.094 185.5 382.191 185.402C382.289 185.305 382.421 185.25 382.558 185.25H458.937C459.074 185.25 459.206 185.305 459.304 185.402C459.401 185.5 459.456 185.632 459.456 185.769C459.453 185.906 459.398 186.037 459.301 186.133C459.204 186.23 459.074 186.286 458.937 186.289Z" fill="#E3E3E3"/>
        <path d="M512.982 186.289H467.277C467.14 186.286 467.01 186.23 466.913 186.133C466.816 186.037 466.76 185.906 466.758 185.769C466.758 185.632 466.813 185.5 466.91 185.402C467.007 185.305 467.139 185.25 467.277 185.25H512.982C513.119 185.25 513.252 185.305 513.349 185.402C513.446 185.5 513.501 185.632 513.501 185.769C513.501 185.907 513.446 186.039 513.349 186.136C513.252 186.234 513.119 186.289 512.982 186.289Z" fill="#E3E3E3"/>
        <path d="M471.795 124.303H438.805C438.668 124.301 438.537 124.245 438.44 124.148C438.344 124.051 438.288 123.921 438.285 123.784C438.285 123.646 438.34 123.514 438.437 123.416C438.535 123.319 438.667 123.265 438.805 123.265H471.795C471.933 123.265 472.065 123.319 472.162 123.416C472.26 123.514 472.314 123.646 472.314 123.784C472.314 123.922 472.26 124.054 472.162 124.151C472.065 124.248 471.933 124.303 471.795 124.303Z" fill="#E3E3E3"/>
        <path d="M460.317 137.957H438.805C438.667 137.957 438.535 137.903 438.437 137.805C438.34 137.708 438.285 137.576 438.285 137.438C438.285 137.3 438.34 137.168 438.437 137.071C438.535 136.974 438.667 136.919 438.805 136.919H460.317C460.455 136.919 460.587 136.974 460.684 137.071C460.781 137.168 460.836 137.3 460.836 137.438C460.836 137.576 460.781 137.708 460.684 137.805C460.587 137.903 460.455 137.957 460.317 137.957Z" fill="#E3E3E3"/>
        <path d="M489.796 144.723H438.805C438.667 144.723 438.535 144.668 438.437 144.571C438.34 144.474 438.285 144.342 438.285 144.204C438.285 144.066 438.34 143.934 438.437 143.837C438.535 143.739 438.667 143.685 438.805 143.685H489.796C489.934 143.685 490.066 143.739 490.164 143.837C490.261 143.934 490.315 144.066 490.315 144.204C490.315 144.342 490.261 144.474 490.164 144.571C490.066 144.668 489.934 144.723 489.796 144.723Z" fill="#E3E3E3"/>
        <path d="M489.796 151.488H438.805C438.667 151.488 438.535 151.433 438.437 151.336C438.34 151.238 438.285 151.106 438.285 150.968C438.285 150.831 438.34 150.699 438.437 150.601C438.535 150.504 438.667 150.449 438.805 150.449H489.796C489.934 150.449 490.066 150.504 490.164 150.601C490.261 150.699 490.315 150.831 490.315 150.968C490.315 151.106 490.261 151.238 490.164 151.336C490.066 151.433 489.934 151.488 489.796 151.488Z" fill="#E3E3E3"/>
        <path d="M489.796 158.346H438.805C438.667 158.346 438.535 158.291 438.437 158.194C438.34 158.097 438.285 157.965 438.285 157.827C438.285 157.689 438.34 157.557 438.437 157.46C438.535 157.362 438.667 157.308 438.805 157.308H489.796C489.934 157.308 490.066 157.362 490.164 157.46C490.261 157.557 490.315 157.689 490.315 157.827C490.315 157.965 490.261 158.097 490.164 158.194C490.066 158.291 489.934 158.346 489.796 158.346Z" fill="#E3E3E3"/>
        <path d="M494.542 137.957H465.519C465.382 137.957 465.25 137.903 465.152 137.805C465.055 137.708 465 137.576 465 137.438C465 137.3 465.055 137.168 465.152 137.071C465.25 136.974 465.382 136.919 465.519 136.919H494.542C494.679 136.919 494.812 136.974 494.909 137.071C495.006 137.168 495.061 137.3 495.061 137.438C495.061 137.576 495.006 137.708 494.909 137.805C494.812 137.903 494.679 137.957 494.542 137.957Z" fill="#E3E3E3"/>
        <path d="M347.584 128.616H324.254C324.116 128.616 323.984 128.561 323.887 128.464C323.789 128.366 323.734 128.234 323.734 128.096C323.734 127.959 323.789 127.827 323.887 127.729C323.984 127.632 324.116 127.577 324.254 127.577H347.584C347.721 127.577 347.854 127.632 347.951 127.729C348.048 127.827 348.103 127.959 348.103 128.096C348.103 128.234 348.048 128.366 347.951 128.464C347.854 128.561 347.721 128.616 347.584 128.616Z" fill="#E3E3E3"/>
        <path d="M354.865 140.535H324.254C324.116 140.535 323.984 140.48 323.887 140.383C323.789 140.285 323.734 140.153 323.734 140.015C323.734 139.878 323.789 139.746 323.887 139.648C323.984 139.551 324.116 139.496 324.254 139.496H354.865C355.003 139.496 355.135 139.551 355.232 139.648C355.33 139.746 355.384 139.878 355.384 140.015C355.384 140.153 355.33 140.285 355.232 140.383C355.135 140.48 355.003 140.535 354.865 140.535Z" fill="#E3E3E3"/>
        <path d="M354.865 164.373H324.254C324.116 164.373 323.984 164.318 323.887 164.221C323.789 164.124 323.734 163.991 323.734 163.853C323.734 163.716 323.789 163.584 323.887 163.486C323.984 163.389 324.116 163.334 324.254 163.334H354.865C355.003 163.334 355.135 163.389 355.232 163.486C355.33 163.584 355.384 163.716 355.384 163.853C355.384 163.991 355.33 164.124 355.232 164.221C355.135 164.318 355.003 164.373 354.865 164.373Z" fill="#E3E3E3"/>
        <path d="M358.989 152.454H324.254C324.116 152.454 323.984 152.399 323.887 152.301C323.789 152.204 323.734 152.072 323.734 151.934C323.734 151.797 323.789 151.665 323.887 151.567C323.984 151.47 324.116 151.415 324.254 151.415H358.989C359.126 151.418 359.256 151.473 359.353 151.57C359.45 151.667 359.506 151.797 359.508 151.934C359.508 152.072 359.454 152.204 359.356 152.301C359.259 152.399 359.127 152.454 358.989 152.454Z" fill="#E3E3E3"/>
        <path d="M405.762 159.302H386.026C384.959 159.302 383.936 158.879 383.18 158.125C382.425 157.371 381.999 156.348 381.996 155.281V137.439C381.996 137.301 382.051 137.169 382.148 137.071C382.246 136.974 382.378 136.919 382.515 136.919C382.653 136.919 382.785 136.974 382.883 137.071C382.98 137.169 383.035 137.301 383.035 137.439V155.281C383.038 156.073 383.354 156.832 383.915 157.391C384.476 157.95 385.235 158.263 386.026 158.263H405.762C405.9 158.263 406.032 158.318 406.13 158.415C406.227 158.513 406.282 158.645 406.282 158.783C406.282 158.921 406.227 159.053 406.13 159.15C406.032 159.248 405.9 159.302 405.762 159.302Z" fill="#E3E3E3"/>
        <path d="M427.723 159.302H424.191C424.053 159.302 423.921 159.247 423.824 159.15C423.727 159.053 423.672 158.92 423.672 158.783C423.674 158.646 423.73 158.515 423.827 158.418C423.924 158.321 424.054 158.266 424.191 158.263H427.723C428.514 158.263 429.273 157.949 429.834 157.39C430.395 156.831 430.711 156.072 430.714 155.281V113.642C430.711 112.85 430.395 112.092 429.834 111.533C429.273 110.974 428.514 110.659 427.723 110.659H386.069C385.278 110.659 384.519 110.974 383.958 111.533C383.397 112.092 383.081 112.85 383.078 113.642V118.297C383.078 118.435 383.023 118.567 382.926 118.665C382.828 118.762 382.696 118.817 382.558 118.817C382.422 118.814 382.291 118.758 382.194 118.661C382.097 118.565 382.042 118.434 382.039 118.297V113.642C382.042 112.574 382.468 111.551 383.223 110.797C383.979 110.043 385.002 109.62 386.069 109.62H427.723C428.79 109.62 429.814 110.043 430.569 110.797C431.325 111.551 431.75 112.574 431.753 113.642V155.281C431.75 156.348 431.325 157.371 430.569 158.125C429.814 158.879 428.79 159.302 427.723 159.302Z" fill="#E3E3E3"/>
        <path d="M383.431 158.346C383.294 158.344 383.163 158.288 383.067 158.19C383.019 158.142 382.98 158.085 382.954 158.021C382.927 157.958 382.914 157.89 382.914 157.822C382.914 157.753 382.927 157.685 382.954 157.622C382.98 157.558 383.019 157.501 383.067 157.453L429.925 110.691C430.024 110.595 430.156 110.541 430.294 110.541C430.432 110.541 430.564 110.595 430.663 110.691C430.711 110.739 430.75 110.796 430.776 110.86C430.803 110.923 430.816 110.991 430.816 111.06C430.816 111.128 430.803 111.196 430.776 111.259C430.75 111.323 430.711 111.38 430.663 111.428L383.805 158.19C383.706 158.29 383.571 158.346 383.431 158.346Z" fill="#E3E3E3"/>
        <path d="M423.4 151.488C423.263 151.486 423.133 151.43 423.037 151.333L383.056 111.45C383.007 111.402 382.969 111.344 382.942 111.281C382.916 111.218 382.902 111.15 382.902 111.081C382.902 111.012 382.916 110.944 382.942 110.881C382.969 110.818 383.007 110.76 383.056 110.712C383.155 110.616 383.287 110.562 383.425 110.562C383.562 110.562 383.695 110.616 383.793 110.712L423.775 150.574C423.87 150.671 423.923 150.802 423.923 150.938C423.923 151.074 423.87 151.205 423.775 151.302C423.728 151.357 423.671 151.401 423.607 151.434C423.543 151.466 423.472 151.484 423.4 151.488Z" fill="#E3E3E3"/>
        <path d="M291.398 45.0685C291.261 45.0658 291.131 45.0101 291.034 44.9132C290.937 44.8164 290.881 44.6859 290.879 44.5489V26.9142C290.879 26.1233 290.565 25.3648 290.006 24.8055C289.447 24.2462 288.689 23.9317 287.898 23.9317H225.574C225.181 23.9304 224.792 24.0067 224.429 24.156C224.067 24.3053 223.737 24.5248 223.459 24.8019C223.181 25.079 222.96 25.408 222.81 25.7706C222.659 26.1331 222.582 26.5217 222.582 26.9142V31.0709C222.582 31.2087 222.527 31.3408 222.43 31.4382C222.333 31.5356 222.2 31.5904 222.062 31.5904C221.925 31.5878 221.795 31.532 221.698 31.4352C221.601 31.3383 221.546 31.2078 221.543 31.0709V26.9142C221.546 25.8467 221.972 24.8236 222.727 24.0697C223.483 23.3159 224.507 22.8926 225.574 22.8926H287.898C288.964 22.8926 289.986 23.3166 290.74 24.0708C291.494 24.8249 291.917 25.8477 291.917 26.9142V44.5799C291.91 44.7122 291.852 44.8366 291.755 44.9274C291.659 45.0182 291.531 45.0687 291.398 45.0685Z" fill="#E3E3E3"/>
        <path d="M287.898 93.3058H225.574C224.507 93.3058 223.483 92.8825 222.727 92.1286C221.972 91.3747 221.546 90.3517 221.543 89.2841V46.6788C221.543 46.541 221.598 46.4088 221.695 46.3114C221.793 46.214 221.925 46.1592 222.062 46.1592C222.2 46.1592 222.333 46.214 222.43 46.3114C222.527 46.4088 222.582 46.541 222.582 46.6788V89.2841C222.584 90.076 222.901 90.8344 223.462 91.3934C224.022 91.9524 224.782 92.2666 225.574 92.2666H287.898C288.688 92.2639 289.444 91.9485 290.003 91.3898C290.561 90.8311 290.876 90.0743 290.879 89.2841V78.6536C290.879 78.5158 290.934 78.3837 291.031 78.2862C291.128 78.1888 291.26 78.134 291.398 78.134C291.536 78.134 291.668 78.1888 291.766 78.2862C291.863 78.3837 291.917 78.5158 291.917 78.6536V89.2633C291.92 89.7932 291.819 90.3185 291.618 90.8089C291.417 91.2992 291.121 91.7449 290.748 92.1205C290.374 92.4961 289.93 92.7944 289.441 92.9978C288.952 93.2012 288.428 93.3058 287.898 93.3058Z" fill="#E3E3E3"/>
        <path d="M223.306 91.9447C223.238 91.9443 223.172 91.9304 223.109 91.9036C223.047 91.8769 222.99 91.8379 222.943 91.789C222.894 91.7407 222.855 91.6828 222.829 91.6195C222.803 91.5562 222.789 91.4887 222.789 91.4201C222.789 91.3515 222.803 91.2835 222.829 91.2202C222.855 91.1569 222.894 91.0995 222.943 91.0512L289.765 24.3996C289.862 24.3044 289.993 24.251 290.129 24.251C290.264 24.251 290.395 24.3044 290.492 24.3996C290.541 24.4479 290.579 24.5053 290.606 24.5686C290.632 24.6319 290.646 24.6999 290.646 24.7685C290.646 24.8371 290.632 24.9051 290.606 24.9684C290.579 25.0318 290.541 25.0891 290.492 25.1374L223.68 91.789C223.581 91.8884 223.447 91.9444 223.306 91.9447Z" fill="#E3E3E3"/>
        <path d="M290.13 91.9654C289.994 91.9662 289.864 91.9139 289.766 91.8198L228.314 30.5096C228.218 30.4132 228.164 30.2822 228.164 30.1458C228.164 30.0094 228.218 29.8785 228.314 29.782C228.411 29.6856 228.541 29.6318 228.678 29.6318C228.814 29.6318 228.945 29.6856 229.042 29.782L290.493 91.0922C290.565 91.1648 290.613 91.2572 290.632 91.357C290.652 91.4569 290.641 91.5598 290.603 91.6539C290.564 91.7479 290.498 91.8286 290.414 91.8858C290.33 91.9429 290.231 91.9741 290.13 91.9756V91.9654Z" fill="#E3E3E3"/>
        <path d="M277.645 121.883H219.548C217.822 121.883 216.422 123.283 216.422 125.011V183.131C216.422 184.858 217.822 186.258 219.548 186.258H277.645C279.372 186.258 280.772 184.858 280.772 183.131V125.011C280.772 123.283 279.372 121.883 277.645 121.883Z" fill="#71A5D2"/>
        <path d="M291.398 134.987C291.261 134.984 291.131 134.928 291.034 134.831C290.937 134.734 290.881 134.604 290.879 134.467V116.853C290.879 116.062 290.565 115.304 290.006 114.744C289.447 114.185 288.689 113.871 287.898 113.871H225.574C225.181 113.87 224.792 113.946 224.429 114.095C224.067 114.244 223.737 114.464 223.459 114.741C223.181 115.018 222.96 115.347 222.81 115.709C222.659 116.072 222.582 116.461 222.582 116.853V121.01C222.582 121.148 222.527 121.28 222.43 121.377C222.333 121.475 222.2 121.529 222.062 121.529C221.925 121.527 221.795 121.471 221.698 121.375C221.601 121.278 221.546 121.147 221.543 121.01V116.853C221.546 115.786 221.972 114.763 222.727 114.009C223.483 113.255 224.507 112.832 225.574 112.832H287.898C288.964 112.832 289.986 113.256 290.74 114.01C291.494 114.764 291.917 115.787 291.917 116.853V134.467C291.917 134.605 291.863 134.737 291.766 134.834C291.668 134.932 291.536 134.987 291.398 134.987Z" fill="#E3E3E3"/>
        <path d="M287.898 183.203H225.574C224.507 183.203 223.483 182.78 222.727 182.026C221.972 181.272 221.546 180.249 221.543 179.182V136.576C221.543 136.438 221.598 136.306 221.695 136.209C221.793 136.111 221.925 136.057 222.062 136.057C222.2 136.057 222.333 136.111 222.43 136.209C222.527 136.306 222.582 136.438 222.582 136.576V179.182C222.582 179.574 222.659 179.963 222.81 180.326C222.96 180.688 223.181 181.017 223.459 181.294C223.737 181.571 224.067 181.791 224.429 181.94C224.792 182.09 225.181 182.165 225.574 182.164H287.898C288.689 182.164 289.447 181.85 290.006 181.291C290.565 180.732 290.879 179.973 290.879 179.182V168.551C290.879 168.413 290.933 168.281 291.031 168.184C291.128 168.086 291.26 168.031 291.398 168.031C291.536 168.031 291.668 168.086 291.766 168.184C291.863 168.281 291.917 168.413 291.917 168.551V179.182C291.917 180.248 291.494 181.271 290.74 182.026C289.986 182.78 288.964 183.203 287.898 183.203Z" fill="#E3E3E3"/>
        <path d="M223.306 181.842C223.238 181.841 223.172 181.827 223.109 181.801C223.047 181.774 222.99 181.735 222.943 181.686C222.894 181.638 222.855 181.58 222.829 181.517C222.803 181.454 222.789 181.386 222.789 181.317C222.789 181.248 222.803 181.18 222.829 181.117C222.855 181.054 222.894 180.996 222.943 180.948L289.765 114.297C289.862 114.201 289.993 114.148 290.129 114.148C290.264 114.148 290.395 114.201 290.492 114.297C290.541 114.345 290.579 114.403 290.606 114.466C290.632 114.529 290.646 114.597 290.646 114.665C290.646 114.734 290.632 114.802 290.606 114.865C290.579 114.929 290.541 114.986 290.492 115.034L223.68 181.686C223.581 181.785 223.447 181.841 223.306 181.842Z" fill="#E3E3E3"/>
        <path d="M290.13 181.862C289.994 181.863 289.864 181.811 289.766 181.717L228.283 120.438C228.187 120.341 228.133 120.21 228.133 120.074C228.133 119.938 228.187 119.807 228.283 119.71C228.38 119.614 228.511 119.56 228.647 119.56C228.783 119.56 228.914 119.614 229.011 119.71L290.462 181.02C290.533 181.093 290.582 181.185 290.601 181.285C290.621 181.385 290.61 181.488 290.572 181.582C290.533 181.676 290.468 181.757 290.384 181.814C290.3 181.871 290.2 181.902 290.099 181.904L290.13 181.862Z" fill="#E3E3E3"/>
        <path d="M456.807 304.545C456.721 304.544 456.637 304.523 456.561 304.484C456.485 304.444 456.42 304.387 456.371 304.317C456.295 304.202 456.268 304.062 456.295 303.928C456.323 303.794 456.402 303.675 456.516 303.599C460.618 300.812 464.054 297.154 466.579 292.885C469.105 288.617 470.657 283.843 471.125 278.905C471.594 273.966 470.966 268.986 469.288 264.318C467.61 259.65 464.923 255.41 461.419 251.901C461.371 251.853 461.333 251.797 461.307 251.735C461.281 251.672 461.268 251.605 461.268 251.538C461.268 251.47 461.281 251.403 461.307 251.341C461.333 251.279 461.371 251.222 461.419 251.174C461.466 251.126 461.523 251.088 461.586 251.063C461.648 251.037 461.715 251.023 461.782 251.023C461.85 251.023 461.917 251.037 461.979 251.063C462.042 251.088 462.098 251.126 462.146 251.174C465.76 254.789 468.531 259.158 470.262 263.968C471.992 268.779 472.64 273.912 472.158 279.001C471.675 284.091 470.075 289.012 467.472 293.411C464.868 297.811 461.326 301.58 457.097 304.452C457.012 304.512 456.911 304.544 456.807 304.545Z" fill="#E3E3E3"/>
        <path d="M521.187 309.918C529.034 309.918 535.396 304.837 535.396 298.57C535.396 292.303 529.034 287.223 521.187 287.223C513.339 287.223 506.977 292.303 506.977 298.57C506.977 304.837 513.339 309.918 521.187 309.918Z" fill="#EAB669"/>
        <path d="M519.088 279.387C524.331 279.387 528.582 275.135 528.582 269.889C528.582 264.644 524.331 260.392 519.088 260.392C513.844 260.392 509.594 264.644 509.594 269.889C509.594 275.135 513.844 279.387 519.088 279.387Z" fill="#CE7783"/>
        <path d="M516.441 283.367C514.203 283.367 512.016 282.703 510.156 281.46C508.296 280.216 506.846 278.449 505.99 276.381C505.134 274.314 504.91 272.038 505.346 269.843C505.783 267.648 506.86 265.632 508.442 264.049C510.024 262.466 512.04 261.388 514.234 260.952C516.428 260.515 518.703 260.739 520.77 261.596C522.837 262.452 524.603 263.903 525.846 265.764C527.089 267.624 527.752 269.813 527.752 272.051C527.755 273.004 527.637 273.954 527.399 274.877C527.382 274.946 527.352 275.01 527.31 275.066C527.268 275.123 527.216 275.171 527.155 275.207C527.095 275.243 527.028 275.267 526.959 275.277C526.889 275.288 526.818 275.284 526.75 275.267C526.682 275.25 526.618 275.22 526.561 275.178C526.505 275.136 526.457 275.083 526.421 275.023C526.385 274.963 526.361 274.896 526.35 274.826C526.34 274.757 526.343 274.686 526.361 274.618C526.577 273.779 526.686 272.917 526.683 272.051C526.683 270.018 526.08 268.031 524.951 266.341C523.822 264.651 522.218 263.334 520.341 262.556C518.463 261.778 516.398 261.575 514.405 261.971C512.413 262.368 510.582 263.346 509.145 264.784C507.708 266.221 506.73 268.052 506.334 270.046C505.937 272.04 506.141 274.106 506.918 275.984C507.696 277.861 509.012 279.467 510.702 280.596C512.391 281.725 514.377 282.328 516.409 282.328C518.457 282.335 520.46 281.723 522.154 280.572C522.268 280.495 522.408 280.466 522.544 280.492C522.679 280.519 522.798 280.598 522.876 280.712C522.953 280.826 522.982 280.967 522.955 281.102C522.929 281.238 522.85 281.357 522.736 281.435C520.877 282.693 518.685 283.366 516.441 283.367Z" fill="#E3E3E3"/>
        <path d="M535.752 304.545C535.635 304.543 535.523 304.502 535.432 304.429C535.342 304.355 535.279 304.253 535.253 304.139C534.375 300.499 532.462 297.191 529.746 294.615C527.03 292.038 523.626 290.303 519.946 289.618C516.266 288.934 512.467 289.329 509.006 290.757C505.546 292.185 502.572 294.584 500.445 297.666C500.408 297.725 500.359 297.777 500.301 297.818C500.244 297.858 500.178 297.886 500.109 297.9C500.04 297.915 499.969 297.915 499.9 297.901C499.831 297.887 499.765 297.859 499.707 297.818C499.65 297.778 499.601 297.726 499.563 297.667C499.526 297.607 499.501 297.54 499.49 297.47C499.48 297.401 499.483 297.329 499.501 297.261C499.519 297.193 499.55 297.129 499.593 297.073C501.836 293.829 504.968 291.303 508.614 289.8C512.259 288.297 516.262 287.881 520.138 288.603C524.015 289.325 527.599 291.153 530.46 293.867C533.321 296.582 535.336 300.066 536.261 303.9C536.292 304.034 536.269 304.175 536.197 304.292C536.125 304.408 536.01 304.492 535.877 304.524L535.752 304.545Z" fill="#E3E3E3"/>
        <path d="M516.701 310.437C511.298 310.436 505.969 309.173 501.139 306.748C496.31 304.323 492.113 300.802 488.884 296.468C485.654 292.134 483.481 287.105 482.537 281.783C481.594 276.46 481.905 270.991 483.447 265.81C484.99 260.629 487.721 255.879 491.422 251.94C495.122 248.002 499.691 244.982 504.765 243.121C509.838 241.261 515.276 240.612 520.645 241.225C526.014 241.838 531.165 243.697 535.689 246.654C535.746 246.691 535.796 246.74 535.834 246.796C535.873 246.853 535.9 246.917 535.914 246.984C535.928 247.051 535.929 247.12 535.916 247.187C535.903 247.254 535.877 247.319 535.84 247.376C535.802 247.433 535.754 247.483 535.697 247.521C535.641 247.56 535.577 247.587 535.51 247.601C535.443 247.615 535.374 247.615 535.307 247.603C535.239 247.59 535.175 247.564 535.118 247.527C528.236 243.026 519.946 241.2 511.811 242.392C503.676 243.584 496.257 247.712 490.955 253.998C485.652 260.284 482.832 268.294 483.025 276.517C483.218 284.74 486.412 292.608 492.004 298.638C497.596 304.668 505.199 308.443 513.381 309.252C521.563 310.06 529.758 307.847 536.421 303.028C543.085 298.209 547.755 291.118 549.553 283.092C551.35 275.066 550.151 266.659 546.18 259.456C546.117 259.334 546.103 259.193 546.141 259.061C546.18 258.929 546.269 258.818 546.388 258.75C546.448 258.717 546.514 258.696 546.582 258.689C546.65 258.681 546.719 258.687 546.785 258.707C546.85 258.726 546.911 258.758 546.965 258.801C547.018 258.844 547.062 258.897 547.094 258.957C550.007 264.243 551.493 270.199 551.403 276.234C551.314 282.27 549.653 288.178 546.584 293.375C543.516 298.573 539.146 302.88 533.905 305.872C528.665 308.864 522.735 310.437 516.701 310.437Z" fill="#E3E3E3"/>
        <path d="M252.174 203.144H76.9803C76.8426 203.144 76.7105 203.089 76.6131 202.992C76.5157 202.895 76.4609 202.762 76.4609 202.625C76.4609 202.487 76.5157 202.355 76.6131 202.258C76.7105 202.16 76.8426 202.105 76.9803 202.105H252.174C252.311 202.108 252.441 202.164 252.538 202.261C252.635 202.357 252.691 202.488 252.694 202.625C252.694 202.762 252.639 202.895 252.541 202.992C252.444 203.089 252.312 203.144 252.174 203.144Z" fill="#E3E3E3"/>
        <path d="M234.152 364.567H15.0617C11.0688 364.562 7.24111 362.972 4.41768 360.148C1.59425 357.323 0.00549612 353.494 0 349.5V217.184C0.00548893 213.188 1.59404 209.358 4.41718 206.532C7.24031 203.705 11.0678 202.114 15.0617 202.105H36.439C36.5768 202.105 36.7088 202.16 36.8062 202.258C36.9036 202.355 36.9584 202.487 36.9584 202.625C36.9584 202.763 36.9036 202.895 36.8062 202.992C36.7088 203.09 36.5768 203.145 36.439 203.145H15.0617C11.3425 203.15 7.77748 204.631 5.14855 207.263C2.51963 209.895 1.04149 213.463 1.03874 217.184V349.5C1.04149 353.219 2.51984 356.786 5.14906 359.416C7.77828 362.046 11.3434 363.525 15.0617 363.528H234.152C234.29 363.528 234.422 363.583 234.52 363.68C234.617 363.778 234.672 363.91 234.672 364.048C234.672 364.186 234.617 364.318 234.52 364.415C234.422 364.513 234.29 364.567 234.152 364.567Z" fill="#E3E3E3"/>
        <path d="M215.558 245.313H72.8358C72.6989 245.31 72.5684 245.255 72.4716 245.158C72.3748 245.061 72.3191 244.931 72.3164 244.794C72.3164 244.656 72.3712 244.524 72.4686 244.427C72.566 244.329 72.698 244.274 72.8358 244.274H215.558C215.696 244.274 215.828 244.329 215.926 244.427C216.023 244.524 216.078 244.656 216.078 244.794C216.078 244.931 216.023 245.063 215.926 245.161C215.828 245.258 215.696 245.313 215.558 245.313Z" fill="#E3E3E3"/>
        <path d="M198.255 258.395H90.1327C89.9949 258.395 89.8628 258.341 89.7654 258.243C89.668 258.146 89.6133 258.013 89.6133 257.876C89.6133 257.738 89.668 257.606 89.7654 257.509C89.8628 257.411 89.9949 257.356 90.1327 257.356H198.234C198.372 257.356 198.504 257.411 198.601 257.509C198.699 257.606 198.753 257.738 198.753 257.876C198.753 258.013 198.699 258.146 198.601 258.243C198.504 258.341 198.372 258.395 198.234 258.395H198.255Z" fill="#E3E3E3"/>
        <path d="M166.998 328.964H121.512C121.374 328.964 121.242 328.91 121.144 328.812C121.047 328.715 120.992 328.583 120.992 328.445C120.992 328.307 121.047 328.175 121.144 328.078C121.242 327.981 121.374 327.926 121.512 327.926H166.998C167.135 327.928 167.265 327.984 167.362 328.081C167.459 328.178 167.515 328.308 167.517 328.445C167.517 328.583 167.463 328.715 167.365 328.812C167.268 328.91 167.136 328.964 166.998 328.964Z" fill="#E3E3E3"/>
        <path d="M163.758 281.829H86.8397C86.7019 281.829 86.5699 281.774 86.4725 281.677C86.3751 281.579 86.3203 281.447 86.3203 281.309C86.323 281.172 86.3787 281.042 86.4755 280.945C86.5723 280.848 86.7028 280.793 86.8397 280.79H163.758C163.896 280.79 164.028 280.845 164.125 280.942C164.223 281.04 164.277 281.172 164.277 281.309C164.277 281.447 164.223 281.579 164.125 281.677C164.028 281.774 163.896 281.829 163.758 281.829Z" fill="#E3E3E3"/>
        <path d="M201.558 291.109H86.8397C86.7019 291.109 86.5699 291.054 86.4725 290.957C86.3751 290.859 86.3203 290.727 86.3203 290.59C86.323 290.453 86.3787 290.322 86.4755 290.225C86.5723 290.128 86.7028 290.073 86.8397 290.07H201.558C201.696 290.07 201.828 290.125 201.925 290.222C202.023 290.319 202.077 290.452 202.077 290.59C202.077 290.727 202.023 290.859 201.925 290.957C201.828 291.054 201.696 291.109 201.558 291.109Z" fill="#E3E3E3"/>
        <path d="M201.558 300.388H86.8397C86.7019 300.388 86.5699 300.333 86.4725 300.236C86.3751 300.139 86.3203 300.007 86.3203 299.869C86.323 299.732 86.3787 299.602 86.4755 299.505C86.5723 299.408 86.7028 299.352 86.8397 299.35H201.558C201.696 299.35 201.828 299.404 201.925 299.502C202.023 299.599 202.077 299.731 202.077 299.869C202.077 300.007 202.023 300.139 201.925 300.236C201.828 300.333 201.696 300.388 201.558 300.388Z" fill="#E3E3E3"/>
        <path d="M201.555 281.829H171.722C171.585 281.829 171.453 281.774 171.355 281.677C171.258 281.579 171.203 281.447 171.203 281.309C171.203 281.172 171.258 281.04 171.355 280.942C171.453 280.845 171.585 280.79 171.722 280.79H201.555C201.693 280.79 201.825 280.845 201.923 280.942C202.02 281.04 202.075 281.172 202.075 281.309C202.075 281.447 202.02 281.579 201.923 281.677C201.825 281.774 201.693 281.829 201.555 281.829Z" fill="#E3E3E3"/>
        <path d="M186.556 337.549H101.846C99.4877 337.47 97.2524 336.476 95.612 334.778C93.9716 333.081 93.0547 330.812 93.0547 328.451C93.0547 326.09 93.9716 323.822 95.612 322.124C97.2524 320.427 99.4877 319.433 101.846 319.354H186.556C188.915 319.433 191.15 320.427 192.79 322.124C194.431 323.822 195.348 326.09 195.348 328.451C195.348 330.812 194.431 333.081 192.79 334.778C191.15 336.476 188.915 337.47 186.556 337.549ZM101.846 320.393C99.7601 320.468 97.7842 321.349 96.3347 322.853C94.8852 324.356 94.0752 326.363 94.0752 328.451C94.0752 330.54 94.8852 332.547 96.3347 334.05C97.7842 335.553 99.7601 336.435 101.846 336.51H186.556C188.642 336.435 190.618 335.553 192.068 334.05C193.517 332.547 194.327 330.54 194.327 328.451C194.327 326.363 193.517 324.356 192.068 322.853C190.618 321.349 188.642 320.468 186.556 320.393H101.846Z" fill="#E3E3E3"/>
        <path d="M154.056 157.837H69.3469C64.6141 157.837 60.7773 161.675 60.7773 166.41V166.42C60.7773 171.155 64.6141 174.993 69.3469 174.993H154.056C158.789 174.993 162.626 171.155 162.626 166.42V166.41C162.626 161.675 158.789 157.837 154.056 157.837Z" fill="#CE7783"/>
        <path d="M137.676 163.5H92.2108C92.073 163.5 91.941 163.446 91.8436 163.348C91.7462 163.251 91.6914 163.119 91.6914 162.981C91.6914 162.843 91.7462 162.711 91.8436 162.614C91.941 162.517 92.073 162.462 92.2108 162.462H137.697C137.835 162.462 137.967 162.517 138.064 162.614C138.162 162.711 138.217 162.843 138.217 162.981C138.217 163.119 138.162 163.251 138.064 163.348C137.967 163.446 137.835 163.5 137.697 163.5H137.676Z" fill="#E3E3E3"/>
        <path d="M157.286 172.074H72.5772C70.1667 172.074 67.8546 171.116 66.15 169.411C64.4455 167.705 63.4883 165.393 63.4883 162.981C63.4883 160.57 64.4455 158.257 66.15 156.552C67.8546 154.847 70.1667 153.889 72.5772 153.889H157.286C159.697 153.889 162.009 154.847 163.713 156.552C165.418 158.257 166.375 160.57 166.375 162.981C166.375 165.393 165.418 167.705 163.713 169.411C162.009 171.116 159.697 172.074 157.286 172.074ZM72.5772 154.928C70.4422 154.928 68.3947 155.776 66.885 157.287C65.3753 158.797 64.527 160.845 64.527 162.981C64.527 165.117 65.3753 167.166 66.885 168.676C68.3947 170.186 70.4422 171.035 72.5772 171.035H157.286C159.421 171.035 161.469 170.186 162.978 168.676C164.488 167.166 165.336 165.117 165.336 162.981C165.336 160.845 164.488 158.797 162.978 157.287C161.469 155.776 159.421 154.928 157.286 154.928H72.5772Z" fill="#E3E3E3"/>
        <path d="M32.5741 94.459C32.4363 94.459 32.3042 94.4043 32.2068 94.3068C32.1094 94.2094 32.0547 94.0773 32.0547 93.9395V10.7446C32.0602 7.89204 33.1963 5.15784 35.2135 3.14173C37.2308 1.12563 39.9649 -0.00799668 42.8164 -0.0107422H187.045C189.896 -0.00799668 192.63 1.12563 194.648 3.14173C196.665 5.15784 197.801 7.89204 197.807 10.7446V26.1447C197.807 26.2825 197.752 26.4151 197.654 26.5126C197.557 26.61 197.425 26.6643 197.287 26.6643C197.149 26.6643 197.017 26.61 196.92 26.5126C196.823 26.4151 196.768 26.2825 196.768 26.1447V10.7446C196.765 8.16679 195.739 5.69574 193.916 3.87391C192.093 2.05209 189.622 1.02841 187.045 1.02841H42.8164C40.2396 1.02841 37.7679 2.05209 35.9449 3.87391C34.1218 5.69574 33.0962 8.16679 33.0934 10.7446V93.9395C33.0934 94.0773 33.0387 94.2094 32.9413 94.3068C32.8439 94.4043 32.7118 94.459 32.5741 94.459Z" fill="#E3E3E3"/>
        <path d="M187.045 184.179H42.8164C39.9631 184.177 37.2275 183.042 35.21 181.023C33.1924 179.005 32.0574 176.268 32.0547 173.414V132.388C32.0547 132.25 32.1094 132.118 32.2068 132.021C32.3042 131.923 32.4363 131.868 32.5741 131.868C32.7118 131.868 32.8439 131.923 32.9413 132.021C33.0387 132.118 33.0934 132.25 33.0934 132.388V173.435C33.0962 176.013 34.1216 178.486 35.9444 180.309C37.7671 182.133 40.2386 183.158 42.8164 183.161H187.045C189.623 183.158 192.094 182.133 193.917 180.309C195.74 178.486 196.765 176.013 196.768 173.435V69.7374C196.768 69.5996 196.823 69.4674 196.92 69.37C197.017 69.2726 197.149 69.2178 197.287 69.2178C197.424 69.2204 197.555 69.2762 197.651 69.373C197.748 69.4699 197.804 69.6004 197.807 69.7374V173.435C197.798 176.285 196.661 179.017 194.644 181.03C192.627 183.044 189.895 184.177 187.045 184.179Z" fill="#E3E3E3"/>
        <path d="M174.486 37.0879H162.634C162.496 37.0879 162.364 37.0331 162.267 36.9357C162.169 36.8382 162.115 36.7061 162.115 36.5683C162.115 36.4305 162.169 36.2984 162.267 36.2009C162.364 36.1035 162.496 36.0487 162.634 36.0487H174.486C176.993 35.8859 179.343 34.7749 181.061 32.9414C182.779 31.108 183.734 28.6895 183.734 26.1768C183.734 23.664 182.779 21.2456 181.061 19.4121C179.343 17.5786 176.993 16.4676 174.486 16.3048H55.3634C52.8569 16.4676 50.5067 17.5786 48.7891 19.4121C47.0715 21.2456 46.1157 23.664 46.1157 26.1768C46.1157 28.6895 47.0715 31.108 48.7891 32.9414C50.5067 34.7749 52.8569 35.8859 55.3634 36.0487H129.114C129.252 36.0487 129.384 36.1035 129.482 36.2009C129.579 36.2984 129.633 36.4305 129.633 36.5683C129.633 36.7061 129.579 36.8382 129.482 36.9357C129.384 37.0331 129.252 37.0879 129.114 37.0879H55.3634C52.5871 36.9164 49.9808 35.6924 48.0755 33.665C46.1702 31.6376 45.1094 28.9594 45.1094 26.1768C45.1094 23.3941 46.1702 20.7159 48.0755 18.6885C49.9808 16.6612 52.5871 15.4371 55.3634 15.2656H174.486C177.262 15.4371 179.869 16.6612 181.774 18.6885C183.679 20.7159 184.74 23.3941 184.74 26.1768C184.74 28.9594 183.679 31.6376 181.774 33.665C179.869 35.6924 177.262 36.9164 174.486 37.0879Z" fill="#E3E3E3"/>
        <path d="M51.3638 70.6523C56.613 70.6523 60.8683 66.3953 60.8683 61.144C60.8683 55.8927 56.613 51.6357 51.3638 51.6357C46.1147 51.6357 41.8594 55.8927 41.8594 61.144C41.8594 66.3953 46.1147 70.6523 51.3638 70.6523Z" fill="#EAB669"/>
        <path d="M51.3638 102.533C56.613 102.533 60.8683 98.2761 60.8683 93.0249C60.8683 87.7736 56.613 83.5166 51.3638 83.5166C46.1147 83.5166 41.8594 87.7736 41.8594 93.0249C41.8594 98.2761 46.1147 102.533 51.3638 102.533Z" fill="#EAB669"/>
        <path d="M57.774 132.918C63.0232 132.918 67.2784 128.661 67.2784 123.41C67.2784 118.158 63.0232 113.901 57.774 113.901C52.5248 113.901 48.2695 118.158 48.2695 123.41C48.2695 128.661 52.5248 132.918 57.774 132.918Z" fill="#EAB669"/>
        <path d="M55.3975 72.0968C53.2321 72.0968 51.1151 71.4544 49.3147 70.2509C47.5143 69.0474 46.1111 67.3371 45.2825 65.3357C44.4538 63.3344 44.2372 61.132 44.6596 59.0074C45.0821 56.8828 46.1245 54.9314 47.6557 53.3996C49.1868 51.8679 51.1379 50.8245 53.2617 50.4019C55.3855 49.9793 57.5864 50.196 59.5869 51.025C61.5875 51.854 63.2977 53.2582 64.5007 55.0593C65.7037 56.8605 66.3459 58.9778 66.3459 61.1441C66.3431 64.0481 65.1884 66.8326 63.1358 68.886C61.0832 70.9394 58.3003 72.0941 55.3975 72.0968ZM55.3975 51.2305C53.4376 51.2305 51.5215 51.8121 49.8919 52.9014C48.2623 53.9907 46.9921 55.5388 46.2421 57.3502C45.4921 59.1617 45.2957 61.1552 45.6781 63.0783C46.0605 65.0013 47.0042 66.7679 48.3901 68.1543C49.776 69.5407 51.5418 70.4849 53.4641 70.8674C55.3863 71.2499 57.3791 71.0535 59.1898 70.3032C61.0005 69.5528 62.548 68.2822 63.6369 66.6519C64.7258 65.0216 65.3071 63.1048 65.3071 61.1441C65.3044 58.5157 64.2592 55.9959 62.4014 54.1374C60.5436 52.2788 58.0248 51.2332 55.3975 51.2305Z" fill="#E3E3E3"/>
        <path d="M129.125 56.7788H72.41C72.2722 56.7788 72.1402 56.724 72.0428 56.6267C71.9454 56.5293 71.8906 56.3972 71.8906 56.2595C71.8906 56.1218 71.9454 55.9892 72.0428 55.8919C72.1402 55.7945 72.2722 55.7402 72.41 55.7402H129.125C129.263 55.7402 129.395 55.7945 129.492 55.8919C129.59 55.9892 129.645 56.1218 129.645 56.2595C129.645 56.3972 129.59 56.5293 129.492 56.6267C129.395 56.724 129.263 56.7788 129.125 56.7788Z" fill="#E3E3E3"/>
        <path d="M103.853 64.562H72.41C72.2722 64.562 72.1402 64.5072 72.0428 64.4099C71.9454 64.3125 71.8906 64.1804 71.8906 64.0427C71.8933 63.9058 71.949 63.7754 72.0458 63.6786C72.1427 63.5818 72.2731 63.5261 72.41 63.5234H103.853C103.99 63.5234 104.122 63.5782 104.22 63.6756C104.317 63.773 104.372 63.905 104.372 64.0427C104.372 64.1804 104.317 64.3125 104.22 64.4099C104.122 64.5072 103.99 64.562 103.853 64.562Z" fill="#E3E3E3"/>
        <path d="M55.3975 104.902C53.2321 104.902 51.1151 104.26 49.3147 103.057C47.5143 101.853 46.1111 100.143 45.2825 98.1412C44.4538 96.1399 44.2372 93.9376 44.6596 91.8129C45.0821 89.6883 46.1245 87.7369 47.6557 86.2052C49.1868 84.6734 51.1379 83.6301 53.2617 83.2074C55.3855 82.7848 57.5864 83.0021 59.5869 83.831C61.5875 84.66 63.2977 86.0637 64.5007 87.8649C65.7037 89.666 66.3459 91.7834 66.3459 93.9496C66.3431 96.8536 65.1884 99.6381 63.1358 101.692C61.0832 103.745 58.3003 104.9 55.3975 104.902ZM55.3975 84.0365C53.4376 84.0365 51.5215 84.6176 49.8919 85.7069C48.2623 86.7962 46.9921 88.3448 46.2421 90.1563C45.4921 91.9677 45.2957 93.9608 45.6781 95.8838C46.0605 97.8069 47.0042 99.5734 48.3901 100.96C49.776 102.346 51.5418 103.29 53.4641 103.673C55.3863 104.055 57.3791 103.859 59.1898 103.109C61.0005 102.358 62.548 101.088 63.6369 99.4574C64.7258 97.8272 65.3071 95.9103 65.3071 93.9496C65.2961 91.3266 64.2477 88.815 62.3907 86.9632C60.5338 85.1114 58.0195 84.0702 55.3975 84.0675V84.0365Z" fill="#E3E3E3"/>
        <path d="M116.442 89.3872H72.41C72.2722 89.3872 72.1402 89.3324 72.0428 89.2351C71.9454 89.1377 71.8906 89.0056 71.8906 88.8679C71.8906 88.7302 71.9454 88.5981 72.0428 88.5008C72.1402 88.4034 72.2722 88.3486 72.41 88.3486H116.442C116.58 88.3486 116.712 88.4034 116.809 88.5008C116.907 88.5981 116.962 88.7302 116.962 88.8679C116.962 89.0056 116.907 89.1377 116.809 89.2351C116.712 89.3324 116.58 89.3872 116.442 89.3872Z" fill="#E3E3E3"/>
        <path d="M108.715 97.1704H72.3592C72.2215 97.1704 72.0894 97.1156 71.992 97.0183C71.8946 96.9209 71.8398 96.7888 71.8398 96.6511C71.8425 96.5142 71.8977 96.3838 71.9945 96.287C72.0914 96.1902 72.2223 96.1345 72.3592 96.1318H108.715C108.853 96.1318 108.985 96.1866 109.082 96.284C109.18 96.3814 109.234 96.5134 109.234 96.6511C109.234 96.7888 109.18 96.9209 109.082 97.0183C108.985 97.1156 108.853 97.1704 108.715 97.1704Z" fill="#E3E3E3"/>
        <path d="M55.3975 137.719C53.2321 137.719 51.1151 137.076 49.3147 135.873C47.5143 134.669 46.1111 132.959 45.2825 130.958C44.4538 128.956 44.2372 126.754 44.6596 124.629C45.0821 122.505 46.1245 120.553 47.6557 119.022C49.1868 117.49 51.1379 116.446 53.2617 116.024C55.3855 115.601 57.5864 115.818 59.5869 116.647C61.5875 117.476 63.2977 118.88 64.5007 120.681C65.7037 122.482 66.3459 124.6 66.3459 126.766C66.3431 129.67 65.1884 132.454 63.1358 134.508C61.0832 136.561 58.3003 137.716 55.3975 137.719ZM55.3975 116.852C53.4376 116.852 51.5215 117.434 49.8919 118.523C48.2623 119.613 46.9921 121.161 46.2421 122.972C45.4921 124.784 45.2957 126.777 45.6781 128.7C46.0605 130.623 47.0042 132.39 48.3901 133.776C49.776 135.163 51.5418 136.107 53.4641 136.489C55.3863 136.872 57.3791 136.675 59.1898 135.925C61.0005 135.175 62.548 133.904 63.6369 132.274C64.7258 130.644 65.3071 128.727 65.3071 126.766C65.3044 124.138 64.2592 121.618 62.4014 119.759C60.5436 117.901 58.0248 116.855 55.3975 116.852Z" fill="#E3E3E3"/>
        <path d="M129.125 122.973H72.41C72.2731 122.97 72.1427 122.915 72.0458 122.818C71.949 122.721 71.8933 122.591 71.8906 122.454C71.8906 122.316 71.9454 122.184 72.0428 122.087C72.1402 121.989 72.2722 121.935 72.41 121.935H129.125C129.263 121.935 129.395 121.989 129.492 122.087C129.59 122.184 129.645 122.316 129.645 122.454C129.645 122.592 129.59 122.724 129.492 122.821C129.395 122.918 129.263 122.973 129.125 122.973Z" fill="#E3E3E3"/>
        <path d="M114.936 130.34H72.41C72.2731 130.338 72.1427 130.282 72.0458 130.186C71.949 130.089 71.8933 129.958 71.8906 129.821C71.8906 129.683 71.9454 129.551 72.0428 129.454C72.1402 129.357 72.2722 129.302 72.41 129.302H114.936C115.074 129.302 115.206 129.357 115.303 129.454C115.401 129.551 115.455 129.683 115.455 129.821C115.453 129.958 115.397 130.089 115.301 130.186C115.204 130.282 115.073 130.338 114.936 130.34Z" fill="#E3E3E3"/>
        <path d="M714.776 208.455H711.109C710.971 208.455 710.839 208.4 710.742 208.303C710.645 208.205 710.59 208.073 710.59 207.935C710.59 207.797 710.645 207.665 710.742 207.568C710.839 207.47 710.971 207.416 711.109 207.416H714.776C718.005 207.413 721.101 206.129 723.385 203.846C725.669 201.563 726.955 198.467 726.961 195.237V118.142C726.961 118.004 727.015 117.872 727.113 117.774C727.21 117.677 727.342 117.622 727.48 117.622C727.618 117.622 727.75 117.677 727.847 117.774C727.945 117.872 727.999 118.004 727.999 118.142V195.257C727.988 198.759 726.59 202.114 724.112 204.588C721.634 207.061 718.277 208.452 714.776 208.455Z" fill="#E3E3E3"/>
        <path d="M591.051 208.455H589.025C585.522 208.452 582.163 207.059 579.685 204.581C577.208 202.102 575.815 198.742 575.812 195.237V77.1055C575.815 73.6007 577.208 70.2405 579.685 67.7622C582.163 65.2839 585.522 63.8904 589.025 63.8877H714.775C718.28 63.8904 721.64 65.2837 724.119 67.7617C726.598 70.2397 727.993 73.5997 727.998 77.1055V87.8608C727.996 87.9978 727.94 88.1283 727.843 88.2251C727.746 88.322 727.616 88.3777 727.479 88.3804C727.341 88.3804 727.209 88.3256 727.112 88.2282C727.014 88.1307 726.96 87.9986 726.96 87.8608V77.1055C726.957 73.8745 725.672 70.7771 723.387 68.4934C721.102 66.2097 718.005 64.9268 714.775 64.9269H589.025C585.797 64.9269 582.7 66.2099 580.417 68.4939C578.134 70.7779 576.851 73.8754 576.851 77.1055V195.258C576.854 198.487 578.138 201.583 580.42 203.866C582.703 206.15 585.798 207.434 589.025 207.437H591.051C591.189 207.437 591.321 207.491 591.418 207.588C591.516 207.686 591.571 207.818 591.571 207.956C591.571 208.094 591.516 208.226 591.418 208.324C591.321 208.421 591.189 208.476 591.051 208.476V208.455Z" fill="#E3E3E3"/>
        <path d="M707.027 118.661H694.563C694.426 118.658 694.295 118.602 694.198 118.506C694.101 118.409 694.046 118.278 694.043 118.141C694.043 118.003 694.098 117.871 694.195 117.774C694.293 117.676 694.425 117.622 694.563 117.622H707.027C708.648 117.619 710.202 116.973 711.347 115.825C712.492 114.678 713.135 113.122 713.135 111.501V85.283C713.135 83.6615 712.492 82.1064 711.347 80.9589C710.202 79.8114 708.648 79.165 707.027 79.1622H596.36C594.738 79.1622 593.181 79.8075 592.034 80.9554C590.886 82.1032 590.242 83.6597 590.242 85.283V111.501C590.242 112.305 590.4 113.1 590.707 113.843C591.015 114.586 591.466 115.261 592.034 115.829C592.602 116.397 593.277 116.848 594.019 117.156C594.761 117.463 595.557 117.622 596.36 117.622H670.111C670.248 117.622 670.38 117.676 670.478 117.774C670.575 117.871 670.63 118.003 670.63 118.141C670.627 118.278 670.572 118.409 670.475 118.506C670.378 118.602 670.248 118.658 670.111 118.661H596.36C594.463 118.658 592.644 117.903 591.302 116.561C589.961 115.219 589.206 113.399 589.203 111.501V85.283C589.206 83.3849 589.961 81.5653 591.302 80.2232C592.644 78.8811 594.463 78.1258 596.36 78.123H707.027C708.924 78.1258 710.741 78.8818 712.081 80.2242C713.421 81.5666 714.174 83.3859 714.174 85.283V111.501C714.174 113.398 713.421 115.218 712.081 116.56C710.741 117.903 708.924 118.658 707.027 118.661Z" fill="#E3E3E3"/>
        <path d="M608.491 105.869C610.935 105.869 612.916 104.287 612.916 102.336C612.916 100.385 610.935 98.8027 608.491 98.8027C606.048 98.8027 604.066 100.385 604.066 102.336C604.066 104.287 606.048 105.869 608.491 105.869Z" fill="#CE7783"/>
        <path d="M607.839 96.3509C609.474 96.3509 610.8 95.025 610.8 93.3893C610.8 91.7537 609.474 90.4277 607.839 90.4277C606.204 90.4277 604.879 91.7537 604.879 93.3893C604.879 95.025 606.204 96.3509 607.839 96.3509Z" fill="#CE7783"/>
        <path d="M607.016 97.9505C606.247 97.9525 605.495 97.7263 604.855 97.3005C604.215 96.8747 603.715 96.2686 603.42 95.5586C603.124 94.8486 603.046 94.0669 603.195 93.3123C603.343 92.5578 603.712 91.8644 604.255 91.3198C604.798 90.7752 605.49 90.404 606.244 90.2532C606.998 90.1024 607.78 90.1786 608.49 90.4724C609.201 90.7663 609.808 91.2645 610.236 91.9038C610.663 92.5431 610.891 93.2952 610.891 94.0643C610.891 94.3905 610.849 94.715 610.767 95.0304C610.751 95.0962 610.722 95.1585 610.682 95.2131C610.642 95.2677 610.591 95.3137 610.533 95.3485C610.475 95.3834 610.411 95.4064 610.344 95.416C610.277 95.4257 610.209 95.4219 610.143 95.4049C610.077 95.3879 610.015 95.3576 609.96 95.3166C609.905 95.2755 609.859 95.2243 609.825 95.1654C609.79 95.1065 609.767 95.0413 609.758 94.9736C609.748 94.9059 609.752 94.8368 609.769 94.7706C609.823 94.5389 609.851 94.3022 609.852 94.0643C609.852 93.5007 609.685 92.9497 609.372 92.4812C609.059 92.0128 608.613 91.6476 608.093 91.4324C607.572 91.2172 606.999 91.1619 606.447 91.2726C605.894 91.3833 605.388 91.6553 604.99 92.0545C604.592 92.4537 604.322 92.9623 604.213 93.5153C604.105 94.0683 604.162 94.6407 604.379 95.1608C604.596 95.6809 604.963 96.1253 605.432 96.4369C605.902 96.7485 606.453 96.9134 607.016 96.9113C607.58 96.9128 608.131 96.7427 608.595 96.4232C608.652 96.3839 608.716 96.356 608.783 96.3415C608.85 96.327 608.92 96.3259 608.987 96.3385C609.055 96.351 609.119 96.3769 609.177 96.4146C609.235 96.4523 609.284 96.5012 609.323 96.5582C609.397 96.6739 609.424 96.8132 609.399 96.9484C609.374 97.0835 609.298 97.2045 609.188 97.2858C608.547 97.7211 607.79 97.9526 607.016 97.9505Z" fill="#E3E3E3"/>
        <path d="M613.045 104.55C612.927 104.548 612.813 104.508 612.72 104.434C612.628 104.361 612.563 104.259 612.535 104.144C612.278 103.078 611.717 102.108 610.92 101.353C610.124 100.599 609.127 100.091 608.048 99.8912C606.97 99.6912 605.856 99.8074 604.842 100.227C603.828 100.646 602.958 101.35 602.335 102.253C602.256 102.364 602.136 102.439 602.002 102.462C601.868 102.485 601.73 102.455 601.618 102.378C601.562 102.34 601.513 102.292 601.475 102.235C601.438 102.178 601.412 102.114 601.399 102.048C601.387 101.981 601.388 101.912 601.402 101.846C601.417 101.779 601.444 101.717 601.483 101.661C602.22 100.591 603.251 99.7573 604.451 99.261C605.651 98.7646 606.97 98.6267 608.246 98.8642C609.523 99.1016 610.704 99.7043 611.646 100.599C612.588 101.494 613.25 102.642 613.553 103.905C613.584 104.039 613.562 104.18 613.49 104.296C613.418 104.413 613.302 104.497 613.169 104.529L613.045 104.55Z" fill="#E3E3E3"/>
        <path d="M607.091 106.389C604.88 106.389 602.719 105.733 600.881 104.504C599.043 103.276 597.611 101.53 596.765 99.4866C595.919 97.4434 595.698 95.1948 596.129 93.0258C596.56 90.8569 597.624 88.8646 599.187 87.3008C600.75 85.7371 602.742 84.6727 604.91 84.2412C607.079 83.8098 609.326 84.0312 611.368 84.8775C613.41 85.7238 615.156 87.1568 616.384 88.9956C617.612 90.8343 618.268 92.9962 618.268 95.2077C618.265 98.1723 617.086 101.015 614.991 103.111C612.896 105.207 610.054 106.386 607.091 106.389ZM607.091 85.0652C605.086 85.0652 603.126 85.6602 601.458 86.7747C599.791 87.8891 598.492 89.4728 597.724 91.326C596.957 93.1793 596.756 95.2186 597.147 97.186C597.538 99.1534 598.504 100.961 599.922 102.379C601.34 103.798 603.146 104.763 605.113 105.155C607.079 105.546 609.118 105.345 610.97 104.578C612.823 103.81 614.406 102.51 615.52 100.842C616.634 99.1745 617.229 97.2136 617.229 95.2077C617.218 92.525 616.145 89.9555 614.245 88.0625C612.345 86.1694 609.773 85.1068 607.091 85.1068V85.0652Z" fill="#E3E3E3"/>
        <path d="M670.154 88.3794H624.637C624.499 88.3794 624.367 88.3246 624.269 88.2272C624.172 88.1299 624.117 87.9978 624.117 87.8601C624.117 87.7224 624.172 87.5903 624.269 87.493C624.367 87.3956 624.499 87.3408 624.637 87.3408H670.154C670.292 87.3408 670.424 87.3956 670.522 87.493C670.619 87.5903 670.674 87.7224 670.674 87.8601C670.671 87.997 670.615 88.1274 670.519 88.2242C670.422 88.321 670.291 88.3767 670.154 88.3794Z" fill="#E3E3E3"/>
        <path d="M661.657 96.8696H624.637C624.499 96.8696 624.367 96.8149 624.269 96.7175C624.172 96.6201 624.117 96.4881 624.117 96.3503C624.117 96.2126 624.172 96.0806 624.269 95.9832C624.367 95.8858 624.499 95.8311 624.637 95.8311H661.657C661.795 95.8311 661.927 95.8858 662.025 95.9832C662.122 96.0806 662.177 96.2126 662.177 96.3503C662.177 96.4881 662.122 96.6201 662.025 96.7175C661.927 96.8149 661.795 96.8696 661.657 96.8696Z" fill="#E3E3E3"/>
        <path d="M531.306 388.083H517.055C516.917 388.083 516.785 388.028 516.688 387.93C516.59 387.833 516.535 387.701 516.535 387.563C516.535 387.425 516.59 387.293 516.688 387.196C516.785 387.098 516.917 387.043 517.055 387.043H531.358C533.233 387.041 535.031 386.294 536.357 384.968C537.683 383.641 538.429 381.843 538.432 379.967V349.935C538.432 348.058 537.687 346.258 536.36 344.931C535.034 343.604 533.234 342.858 531.358 342.858H453.941C453.804 342.856 453.673 342.8 453.577 342.703C453.48 342.606 453.425 342.476 453.422 342.339C453.422 342.201 453.476 342.069 453.574 341.972C453.671 341.874 453.803 341.819 453.941 341.819H531.358C533.51 341.819 535.573 342.674 537.095 344.197C538.616 345.719 539.471 347.783 539.471 349.935V379.967C539.469 381.036 539.257 382.095 538.845 383.083C538.434 384.07 537.832 384.967 537.073 385.721C536.315 386.475 535.415 387.071 534.425 387.477C533.436 387.882 532.376 388.088 531.306 388.083Z" fill="#E3E3E3"/>
        <path d="M489.071 388.082H437.207C437.069 388.082 436.937 388.028 436.84 387.93C436.742 387.833 436.688 387.701 436.688 387.563C436.688 387.425 436.742 387.293 436.84 387.196C436.937 387.099 437.069 387.044 437.207 387.044H489.071C489.209 387.044 489.341 387.099 489.438 387.196C489.536 387.293 489.591 387.425 489.591 387.563C489.591 387.701 489.536 387.833 489.438 387.93C489.341 388.028 489.209 388.082 489.071 388.082Z" fill="#E3E3E3"/>
        <path d="M489.068 353.406H452.847C452.71 353.406 452.578 353.351 452.48 353.254C452.383 353.156 452.328 353.024 452.328 352.886C452.328 352.749 452.383 352.617 452.48 352.519C452.578 352.422 452.71 352.367 452.847 352.367H489.068C489.206 352.367 489.338 352.422 489.436 352.519C489.533 352.617 489.588 352.749 489.588 352.886C489.588 353.024 489.533 353.156 489.436 353.254C489.338 353.351 489.206 353.406 489.068 353.406Z" fill="#E3E3E3"/>
        <path d="M479.335 363.122H452.847C452.71 363.122 452.578 363.067 452.48 362.969C452.383 362.872 452.328 362.74 452.328 362.602C452.328 362.465 452.383 362.333 452.48 362.235C452.578 362.138 452.71 362.083 452.847 362.083H479.335C479.473 362.083 479.605 362.138 479.703 362.235C479.8 362.333 479.855 362.465 479.855 362.602C479.855 362.74 479.8 362.872 479.703 362.969C479.605 363.067 479.473 363.122 479.335 363.122Z" fill="#E3E3E3"/>
        <path d="M692.246 388.083H677.943C677.805 388.083 677.673 388.028 677.576 387.93C677.478 387.833 677.423 387.701 677.423 387.563C677.423 387.425 677.478 387.293 677.576 387.196C677.673 387.098 677.805 387.043 677.943 387.043H692.246C694.122 387.041 695.919 386.294 697.245 384.968C698.571 383.641 699.317 381.843 699.32 379.967V349.935C699.317 348.059 698.571 346.261 697.245 344.934C695.919 343.608 694.122 342.861 692.246 342.858H565.52C563.645 342.861 561.847 343.608 560.521 344.934C559.195 346.261 558.449 348.059 558.446 349.935V379.967C558.449 381.843 559.195 383.641 560.521 384.968C561.847 386.294 563.645 387.041 565.52 387.043H650.011C650.149 387.043 650.281 387.098 650.378 387.196C650.476 387.293 650.53 387.425 650.53 387.563C650.528 387.7 650.472 387.83 650.375 387.927C650.278 388.024 650.148 388.08 650.011 388.083H565.499C563.349 388.08 561.287 387.224 559.766 385.702C558.245 384.181 557.389 382.118 557.387 379.967V349.935C557.387 348.869 557.596 347.814 558.004 346.829C558.412 345.845 559.01 344.95 559.763 344.197C560.516 343.443 561.411 342.845 562.395 342.437C563.379 342.029 564.434 341.819 565.499 341.819H692.226C694.377 341.819 696.441 342.674 697.962 344.197C699.483 345.719 700.338 347.783 700.338 349.935V379.967C700.335 382.115 699.482 384.174 697.966 385.695C696.45 387.216 694.393 388.074 692.246 388.083Z" fill="#E3E3E3"/>
        <path d="M579.397 373.514C582.197 373.514 584.466 371.699 584.466 369.461C584.466 367.223 582.197 365.408 579.397 365.408C576.598 365.408 574.328 367.223 574.328 369.461C574.328 371.699 576.598 373.514 579.397 373.514Z" fill="#CE7783"/>
        <path d="M578.652 362.602C580.522 362.602 582.038 361.086 582.038 359.215C582.038 357.344 580.522 355.827 578.652 355.827C576.782 355.827 575.266 357.344 575.266 359.215C575.266 361.086 576.782 362.602 578.652 362.602Z" fill="#CE7783"/>
        <path d="M577.704 364.359C576.839 364.361 575.992 364.106 575.272 363.627C574.551 363.147 573.989 362.465 573.656 361.666C573.324 360.867 573.236 359.986 573.403 359.137C573.571 358.288 573.986 357.508 574.598 356.895C575.209 356.282 575.988 355.864 576.837 355.694C577.685 355.525 578.565 355.611 579.365 355.941C580.164 356.272 580.848 356.833 581.329 357.553C581.81 358.272 582.067 359.119 582.067 359.984C582.069 360.356 582.024 360.726 581.932 361.086C581.895 361.218 581.808 361.331 581.69 361.401C581.572 361.471 581.432 361.492 581.298 361.46C581.167 361.421 581.056 361.334 580.987 361.216C580.917 361.099 580.895 360.959 580.924 360.826C580.996 360.551 581.03 360.268 581.028 359.984C581.027 359.24 580.778 358.517 580.319 357.931C579.861 357.345 579.219 356.929 578.497 356.749C577.775 356.57 577.014 356.637 576.334 356.941C575.655 357.244 575.096 357.766 574.748 358.424C574.399 359.082 574.281 359.837 574.411 360.57C574.541 361.303 574.913 361.972 575.466 362.469C576.02 362.966 576.724 363.264 577.467 363.314C578.209 363.365 578.947 363.166 579.564 362.749C579.68 362.673 579.821 362.645 579.957 362.672C580.093 362.7 580.212 362.779 580.29 362.894C580.366 363.008 580.393 363.148 580.365 363.282C580.338 363.417 580.259 363.534 580.145 363.611C579.424 364.098 578.574 364.359 577.704 364.359Z" fill="#E3E3E3"/>
        <path d="M584.572 371.914C584.455 371.915 584.341 371.877 584.248 371.805C584.156 371.734 584.09 371.633 584.062 371.52C583.765 370.283 583.116 369.159 582.194 368.283C581.272 367.408 580.116 366.818 578.866 366.585C577.616 366.352 576.325 366.485 575.15 366.97C573.974 367.455 572.964 368.27 572.242 369.316C572.208 369.382 572.16 369.439 572.103 369.484C572.045 369.53 571.979 369.562 571.907 369.58C571.836 369.598 571.762 369.601 571.69 369.588C571.618 369.575 571.549 369.547 571.488 369.505C571.428 369.464 571.377 369.41 571.338 369.347C571.3 369.285 571.275 369.215 571.266 369.142C571.257 369.069 571.263 368.995 571.285 368.925C571.306 368.854 571.342 368.79 571.39 368.734C572.227 367.525 573.395 366.583 574.755 366.022C576.115 365.462 577.608 365.307 579.054 365.576C580.5 365.845 581.838 366.527 582.905 367.539C583.972 368.551 584.724 369.851 585.07 371.281C585.087 371.347 585.091 371.415 585.08 371.483C585.07 371.551 585.046 371.616 585.01 371.674C584.974 371.732 584.927 371.782 584.871 371.822C584.816 371.862 584.752 371.89 584.686 371.904L584.572 371.914Z" fill="#E3E3E3"/>
        <path d="M577.787 373.991C575.27 373.991 572.809 373.244 570.717 371.845C568.624 370.446 566.993 368.457 566.03 366.131C565.067 363.804 564.816 361.244 565.308 358.774C565.8 356.305 567.013 354.037 568.793 352.257C570.574 350.477 572.842 349.266 575.311 348.776C577.78 348.286 580.339 348.539 582.664 349.504C584.989 350.469 586.975 352.102 588.372 354.197C589.769 356.292 590.514 358.754 590.512 361.272C590.509 364.646 589.167 367.881 586.781 370.266C584.395 372.652 581.16 373.991 577.787 373.991ZM577.787 349.581C575.476 349.581 573.216 350.267 571.295 351.552C569.373 352.836 567.875 354.662 566.991 356.798C566.106 358.934 565.875 361.285 566.326 363.553C566.777 365.82 567.89 367.903 569.524 369.538C571.158 371.173 573.241 372.287 575.508 372.738C577.774 373.189 580.124 372.958 582.259 372.073C584.395 371.188 586.22 369.69 587.504 367.767C588.788 365.845 589.473 363.584 589.473 361.272C589.465 358.177 588.23 355.211 586.039 353.026C583.849 350.84 580.881 349.613 577.787 349.613V349.581Z" fill="#E3E3E3"/>
        <path d="M650.011 353.406H597.887C597.749 353.406 597.617 353.351 597.519 353.254C597.422 353.156 597.367 353.024 597.367 352.886C597.367 352.749 597.422 352.617 597.519 352.519C597.617 352.422 597.749 352.367 597.887 352.367H650.011C650.148 352.367 650.28 352.422 650.378 352.519C650.475 352.617 650.53 352.749 650.53 352.886C650.527 353.023 650.472 353.154 650.375 353.251C650.278 353.347 650.148 353.403 650.011 353.406Z" fill="#E3E3E3"/>
        <path d="M640.278 363.122H597.887C597.749 363.122 597.617 363.067 597.519 362.969C597.422 362.872 597.367 362.74 597.367 362.602C597.367 362.465 597.422 362.333 597.519 362.235C597.617 362.138 597.749 362.083 597.887 362.083H640.278C640.415 362.083 640.547 362.138 640.645 362.235C640.742 362.333 640.797 362.465 640.797 362.602C640.797 362.74 640.742 362.872 640.645 362.969C640.547 363.067 640.415 363.122 640.278 363.122Z" fill="#E3E3E3"/>
        <path d="M707.027 171.035H621.56C621.422 171.035 621.29 170.98 621.193 170.883C621.095 170.785 621.04 170.653 621.04 170.515C621.04 170.377 621.095 170.245 621.193 170.148C621.29 170.05 621.422 169.996 621.56 169.996H707.027C708.647 169.993 710.198 169.348 711.343 168.203C712.488 167.058 713.132 165.505 713.135 163.886V137.657C713.132 136.037 712.488 134.485 711.343 133.34C710.198 132.194 708.647 131.55 707.027 131.547H596.36C594.739 131.547 593.184 132.19 592.037 133.336C590.89 134.482 590.245 136.036 590.242 137.657V163.886C590.245 165.507 590.89 167.061 592.037 168.207C593.184 169.352 594.739 169.996 596.36 169.996C596.498 169.996 596.63 170.05 596.727 170.148C596.825 170.245 596.88 170.377 596.88 170.515C596.88 170.653 596.825 170.785 596.727 170.883C596.63 170.98 596.498 171.035 596.36 171.035C594.464 171.035 592.645 170.282 591.303 168.941C589.961 167.601 589.206 165.783 589.203 163.886V137.657C589.206 135.76 589.961 133.942 591.303 132.601C592.645 131.261 594.464 130.508 596.36 130.508H707.027C708.922 130.511 710.738 131.265 712.078 132.605C713.417 133.945 714.171 135.762 714.174 137.657V163.886C714.171 165.781 713.417 167.598 712.078 168.938C710.738 170.278 708.922 171.032 707.027 171.035Z" fill="#E3E3E3"/>
        <path d="M608.491 158.243C610.935 158.243 612.916 156.661 612.916 154.71C612.916 152.759 610.935 151.177 608.491 151.177C606.048 151.177 604.066 152.759 604.066 154.71C604.066 156.661 606.048 158.243 608.491 158.243Z" fill="#CE7783"/>
        <path d="M607.839 148.735C609.474 148.735 610.8 147.409 610.8 145.773C610.8 144.137 609.474 142.812 607.839 142.812C606.204 142.812 604.879 144.137 604.879 145.773C604.879 147.409 606.204 148.735 607.839 148.735Z" fill="#CE7783"/>
        <path d="M607.016 150.323C606.205 150.326 605.414 150.074 604.754 149.604C604.093 149.134 603.596 148.468 603.332 147.701C603.069 146.934 603.051 146.103 603.283 145.326C603.515 144.549 603.984 143.864 604.625 143.367C605.266 142.869 606.046 142.585 606.856 142.554C607.667 142.522 608.466 142.746 609.143 143.192C609.821 143.638 610.341 144.285 610.632 145.042C610.923 145.8 610.97 146.629 610.766 147.414C610.732 147.546 610.648 147.658 610.531 147.728C610.415 147.798 610.275 147.82 610.143 147.788C610.077 147.771 610.015 147.741 609.96 147.7C609.905 147.659 609.859 147.608 609.825 147.549C609.79 147.49 609.767 147.425 609.758 147.357C609.748 147.29 609.752 147.22 609.769 147.154C609.822 146.919 609.85 146.679 609.852 146.437C609.85 145.805 609.636 145.191 609.245 144.693C608.854 144.196 608.308 143.844 607.694 143.692C607.08 143.541 606.433 143.599 605.856 143.858C605.279 144.117 604.805 144.561 604.509 145.121C604.213 145.68 604.113 146.322 604.225 146.945C604.336 147.568 604.652 148.136 605.123 148.559C605.594 148.981 606.192 149.234 606.823 149.277C607.454 149.32 608.082 149.151 608.606 148.796C608.72 148.735 608.853 148.718 608.978 148.75C609.104 148.782 609.212 148.859 609.284 148.967C609.355 149.075 609.384 149.206 609.365 149.334C609.345 149.461 609.278 149.578 609.177 149.659C608.54 150.094 607.787 150.325 607.016 150.323Z" fill="#E3E3E3"/>
        <path d="M613.041 156.923C612.924 156.924 612.81 156.886 612.718 156.814C612.626 156.743 612.56 156.642 612.532 156.528C612.276 155.461 611.716 154.49 610.92 153.734C610.124 152.978 609.127 152.469 608.048 152.268C606.969 152.067 605.856 152.183 604.841 152.601C603.827 153.02 602.955 153.723 602.332 154.626C602.294 154.686 602.245 154.738 602.188 154.779C602.13 154.819 602.064 154.847 601.995 154.861C601.926 154.875 601.855 154.875 601.786 154.861C601.717 154.847 601.652 154.819 601.594 154.779C601.536 154.739 601.487 154.687 601.45 154.627C601.412 154.567 601.388 154.501 601.377 154.431C601.366 154.361 601.37 154.29 601.388 154.222C601.405 154.154 601.436 154.09 601.48 154.034C602.219 152.968 603.25 152.138 604.45 151.645C605.649 151.151 606.965 151.015 608.24 151.252C609.515 151.489 610.695 152.09 611.637 152.981C612.579 153.873 613.243 155.018 613.55 156.279C613.581 156.414 613.559 156.556 613.487 156.674C613.415 156.793 613.3 156.878 613.165 156.913L613.041 156.923Z" fill="#E3E3E3"/>
        <path d="M607.091 158.762C604.88 158.762 602.719 158.106 600.881 156.877C599.043 155.649 597.611 153.903 596.765 151.86C595.919 149.816 595.698 147.568 596.129 145.399C596.56 143.23 597.624 141.238 599.187 139.674C600.75 138.111 602.742 137.046 604.91 136.614C607.079 136.183 609.326 136.404 611.368 137.251C613.41 138.097 615.156 139.53 616.384 141.369C617.612 143.207 618.268 145.369 618.268 147.581C618.265 150.545 617.086 153.388 614.991 155.484C612.896 157.58 610.054 158.759 607.091 158.762ZM607.091 137.449C605.085 137.449 603.125 138.044 601.457 139.159C599.79 140.274 598.49 141.858 597.723 143.712C596.956 145.566 596.756 147.606 597.148 149.573C597.54 151.541 598.507 153.348 599.926 154.766C601.345 156.184 603.152 157.149 605.119 157.539C607.087 157.93 609.125 157.727 610.978 156.958C612.83 156.189 614.412 154.887 615.525 153.218C616.638 151.549 617.231 149.587 617.229 147.581C617.226 144.893 616.157 142.315 614.256 140.416C612.355 138.516 609.778 137.449 607.091 137.449Z" fill="#E3E3E3"/>
        <path d="M670.154 140.752H624.637C624.499 140.752 624.367 140.698 624.269 140.6C624.172 140.503 624.117 140.371 624.117 140.233C624.117 140.095 624.172 139.963 624.269 139.866C624.367 139.769 624.499 139.714 624.637 139.714H670.154C670.291 139.717 670.422 139.772 670.519 139.869C670.615 139.966 670.671 140.096 670.674 140.233C670.674 140.371 670.619 140.503 670.522 140.6C670.424 140.698 670.292 140.752 670.154 140.752Z" fill="#E3E3E3"/>
        <path d="M626.648 152.994C627.876 152.994 628.871 151.999 628.871 150.771C628.871 149.543 627.876 148.547 626.648 148.547C625.421 148.547 624.426 149.543 624.426 150.771C624.426 151.999 625.421 152.994 626.648 152.994Z" fill="#E3E3E3"/>
        <path d="M634.355 152.994C635.583 152.994 636.578 151.999 636.578 150.771C636.578 149.543 635.583 148.547 634.355 148.547C633.128 148.547 632.133 149.543 632.133 150.771C632.133 151.999 633.128 152.994 634.355 152.994Z" fill="#E3E3E3"/>
        <path d="M641.972 152.994C643.2 152.994 644.195 151.999 644.195 150.771C644.195 149.543 643.2 148.547 641.972 148.547C640.745 148.547 639.75 149.543 639.75 150.771C639.75 151.999 640.745 152.994 641.972 152.994Z" fill="#E3E3E3"/>
        <path d="M649.679 152.994C650.907 152.994 651.902 151.999 651.902 150.771C651.902 149.543 650.907 148.547 649.679 148.547C648.452 148.547 647.457 149.543 647.457 150.771C647.457 151.999 648.452 152.994 649.679 152.994Z" fill="#E3E3E3"/>
        <path d="M657.875 152.994C659.102 152.994 660.097 151.999 660.097 150.771C660.097 149.543 659.102 148.547 657.875 148.547C656.647 148.547 655.652 149.543 655.652 150.771C655.652 151.999 656.647 152.994 657.875 152.994Z" fill="#E3E3E3"/>
        <path d="M665.582 152.994C666.809 152.994 667.804 151.999 667.804 150.771C667.804 149.543 666.809 148.547 665.582 148.547C664.354 148.547 663.359 149.543 663.359 150.771C663.359 151.999 664.354 152.994 665.582 152.994Z" fill="#E3E3E3"/>
        <path d="M673.195 152.994C674.422 152.994 675.417 151.999 675.417 150.771C675.417 149.543 674.422 148.547 673.195 148.547C671.968 148.547 670.973 149.543 670.973 150.771C670.973 151.999 671.968 152.994 673.195 152.994Z" fill="#E3E3E3"/>
        <path d="M680.902 152.994C682.13 152.994 683.125 151.999 683.125 150.771C683.125 149.543 682.13 148.547 680.902 148.547C679.675 148.547 678.68 149.543 678.68 150.771C678.68 151.999 679.675 152.994 680.902 152.994Z" fill="#E3E3E3"/>
        <path d="M692.599 202.438H607.89C603.157 202.438 599.32 206.276 599.32 211.011V211.021C599.32 215.756 603.157 219.594 607.89 219.594H692.599C697.332 219.594 701.169 215.756 701.169 211.021V211.011C701.169 206.276 697.332 202.438 692.599 202.438Z" fill="#CE7783"/>
        <path d="M675.732 208.09H630.277C630.139 208.09 630.007 208.036 629.91 207.938C629.813 207.841 629.758 207.709 629.758 207.571C629.76 207.434 629.816 207.304 629.913 207.207C630.01 207.11 630.14 207.054 630.277 207.052H675.764C675.901 207.052 676.033 207.107 676.131 207.204C676.228 207.301 676.283 207.433 676.283 207.571C676.283 207.642 676.269 207.712 676.241 207.777C676.213 207.842 676.172 207.901 676.12 207.949C676.069 207.998 676.007 208.036 675.941 208.06C675.874 208.084 675.803 208.095 675.732 208.09Z" fill="#E3E3E3"/>
        <path d="M695.341 216.674H610.632C608.273 216.594 606.038 215.601 604.397 213.904C602.757 212.206 601.84 209.938 601.84 207.577C601.84 205.215 602.757 202.947 604.397 201.249C606.038 199.552 608.273 198.559 610.632 198.479H695.341C696.561 198.438 697.777 198.642 698.916 199.081C700.056 199.52 701.095 200.183 701.973 201.032C702.851 201.881 703.549 202.898 704.025 204.022C704.502 205.147 704.747 206.355 704.747 207.577C704.747 208.798 704.502 210.006 704.025 211.131C703.549 212.255 702.851 213.272 701.973 214.121C701.095 214.97 700.056 215.634 698.916 216.072C697.777 216.511 696.561 216.715 695.341 216.674ZM610.632 199.518C608.545 199.593 606.569 200.475 605.12 201.978C603.67 203.481 602.86 205.488 602.86 207.577C602.86 209.665 603.67 211.672 605.12 213.175C606.569 214.678 608.545 215.56 610.632 215.635H695.341C696.423 215.674 697.502 215.494 698.513 215.107C699.524 214.719 700.447 214.132 701.227 213.38C702.006 212.628 702.626 211.726 703.049 210.729C703.473 209.732 703.691 208.66 703.691 207.577C703.691 206.493 703.473 205.421 703.049 204.424C702.626 203.427 702.006 202.525 701.227 201.773C700.447 201.021 699.524 200.434 698.513 200.046C697.502 199.659 696.423 199.479 695.341 199.518H610.632Z" fill="#E3E3E3"/>
        <path d="M593.523 326.524H584.974C582.544 326.521 580.213 325.553 578.496 323.832C576.778 322.112 575.812 319.78 575.813 317.348V242.02C575.815 239.59 576.782 237.26 578.499 235.542C580.217 233.823 582.546 232.857 584.974 232.854H718.826C721.256 232.857 723.586 233.823 725.305 235.541C727.024 237.259 727.993 239.589 727.998 242.02V249.148C727.998 249.286 727.944 249.418 727.846 249.515C727.749 249.613 727.617 249.668 727.479 249.668C727.341 249.668 727.209 249.613 727.112 249.515C727.014 249.418 726.96 249.286 726.96 249.148V242.02C726.954 239.864 726.095 237.799 724.571 236.276C723.046 234.753 720.981 233.896 718.826 233.894H584.974C582.821 233.896 580.756 234.753 579.234 236.276C577.711 237.8 576.854 239.865 576.851 242.02V317.317C576.854 319.472 577.711 321.539 579.233 323.064C580.755 324.589 582.82 325.448 584.974 325.453H593.523C593.661 325.453 593.793 325.508 593.891 325.606C593.988 325.703 594.043 325.835 594.043 325.973C594.047 326.044 594.036 326.115 594.012 326.182C593.988 326.248 593.95 326.309 593.902 326.361C593.853 326.412 593.794 326.453 593.729 326.481C593.664 326.509 593.594 326.524 593.523 326.524Z" fill="#E3E3E3"/>
        <path d="M718.829 326.523H634.359C634.222 326.52 634.091 326.465 633.995 326.368C633.898 326.271 633.843 326.14 633.84 326.003C633.84 325.865 633.895 325.733 633.992 325.636C634.089 325.538 634.221 325.484 634.359 325.484H718.829C720.985 325.478 723.05 324.619 724.574 323.095C726.098 321.57 726.957 319.504 726.963 317.347V275.719C726.963 275.581 727.017 275.449 727.115 275.351C727.212 275.254 727.344 275.199 727.482 275.199C727.619 275.202 727.749 275.257 727.846 275.354C727.943 275.451 727.999 275.582 728.001 275.719V317.347C727.999 319.78 727.031 322.112 725.312 323.832C723.592 325.553 721.261 326.52 718.829 326.523Z" fill="#E3E3E3"/>
        <path d="M602.903 262.699H587.623C587.111 262.699 586.62 262.495 586.257 262.132C585.895 261.77 585.691 261.279 585.691 260.766V245.49C585.691 244.978 585.895 244.486 586.257 244.124C586.62 243.761 587.111 243.558 587.623 243.558H602.903C603.416 243.558 603.907 243.761 604.27 244.124C604.632 244.486 604.835 244.978 604.835 245.49V248.192C604.835 248.33 604.781 248.462 604.683 248.56C604.586 248.657 604.453 248.712 604.316 248.712C604.178 248.712 604.046 248.657 603.948 248.56C603.851 248.462 603.796 248.33 603.796 248.192V245.49C603.796 245.253 603.703 245.026 603.535 244.859C603.368 244.691 603.14 244.597 602.903 244.597H587.623C587.386 244.597 587.159 244.691 586.992 244.859C586.824 245.026 586.73 245.253 586.73 245.49V260.724C586.73 260.961 586.824 261.189 586.992 261.356C587.159 261.524 587.386 261.618 587.623 261.618H602.903C603.14 261.618 603.368 261.524 603.535 261.356C603.703 261.189 603.796 260.961 603.796 260.724V255.819C603.796 255.682 603.851 255.549 603.948 255.452C604.046 255.355 604.178 255.3 604.316 255.3C604.453 255.303 604.584 255.358 604.68 255.455C604.777 255.552 604.832 255.682 604.835 255.819V260.724C604.841 260.982 604.795 261.238 604.7 261.477C604.606 261.716 604.464 261.934 604.284 262.118C604.104 262.302 603.889 262.448 603.652 262.548C603.415 262.648 603.16 262.699 602.903 262.699Z" fill="#E3E3E3"/>
        <path d="M586.753 262.387C586.613 262.387 586.478 262.331 586.379 262.231C586.284 262.134 586.23 262.003 586.23 261.867C586.23 261.731 586.284 261.601 586.379 261.504L600.807 246.955C600.855 246.907 600.912 246.868 600.976 246.842C601.039 246.815 601.107 246.802 601.175 246.802C601.244 246.802 601.312 246.815 601.375 246.842C601.439 246.868 601.496 246.907 601.544 246.955C601.64 247.054 601.694 247.187 601.694 247.324C601.694 247.462 601.64 247.594 601.544 247.693L587.117 262.241C587.019 262.335 586.888 262.388 586.753 262.387Z" fill="#E3E3E3"/>
        <path d="M603.923 262.252C603.788 262.25 603.658 262.198 603.559 262.106L586.379 244.752C586.284 244.655 586.23 244.524 586.23 244.388C586.23 244.252 586.284 244.122 586.379 244.025C586.427 243.976 586.485 243.937 586.548 243.911C586.611 243.884 586.679 243.871 586.748 243.871C586.816 243.871 586.884 243.884 586.947 243.911C587.01 243.937 587.068 243.976 587.117 244.025L604.297 261.368C604.346 261.417 604.384 261.474 604.411 261.537C604.437 261.601 604.45 261.669 604.45 261.737C604.45 261.806 604.437 261.874 604.411 261.937C604.384 262 604.346 262.058 604.297 262.106C604.249 262.156 604.19 262.195 604.126 262.22C604.061 262.245 603.992 262.256 603.923 262.252Z" fill="#E3E3E3"/>
        <path d="M653.793 247.817H610C609.862 247.817 609.73 247.762 609.633 247.665C609.535 247.567 609.48 247.435 609.48 247.298C609.48 247.16 609.535 247.028 609.633 246.93C609.73 246.833 609.862 246.778 610 246.778H653.793C653.931 246.778 654.063 246.833 654.16 246.93C654.258 247.028 654.313 247.16 654.313 247.298C654.313 247.435 654.258 247.567 654.16 247.665C654.063 247.762 653.931 247.817 653.793 247.817Z" fill="#E3E3E3"/>
        <path d="M638.762 255.663H610C609.863 255.66 609.733 255.605 609.636 255.508C609.539 255.411 609.483 255.28 609.48 255.143C609.48 255.006 609.535 254.874 609.633 254.776C609.73 254.679 609.862 254.624 610 254.624H638.762C638.9 254.624 639.032 254.679 639.13 254.776C639.227 254.874 639.282 255.006 639.282 255.143C639.279 255.28 639.223 255.411 639.127 255.508C639.03 255.605 638.899 255.66 638.762 255.663Z" fill="#E3E3E3"/>
        <path d="M602.903 288.999H587.623C587.11 288.997 586.618 288.791 586.256 288.427C585.894 288.062 585.691 287.57 585.691 287.056V282.848C585.691 282.71 585.746 282.578 585.844 282.48C585.941 282.383 586.073 282.328 586.211 282.328C586.349 282.328 586.481 282.383 586.578 282.48C586.675 282.578 586.73 282.71 586.73 282.848V287.056C586.73 287.294 586.824 287.523 586.991 287.692C587.158 287.861 587.385 287.958 587.623 287.96H602.903C603.141 287.958 603.368 287.861 603.536 287.692C603.703 287.523 603.796 287.294 603.796 287.056V271.781C603.794 271.545 603.699 271.319 603.532 271.152C603.365 270.985 603.139 270.89 602.903 270.887H587.623C587.387 270.89 587.162 270.985 586.995 271.152C586.828 271.319 586.733 271.545 586.73 271.781V273.589C586.73 273.727 586.675 273.859 586.578 273.956C586.481 274.054 586.349 274.108 586.211 274.108C586.073 274.108 585.941 274.054 585.844 273.956C585.746 273.859 585.691 273.727 585.691 273.589V271.781C585.694 271.269 585.898 270.779 586.26 270.417C586.622 270.055 587.112 269.85 587.623 269.848H602.903C603.415 269.85 603.905 270.055 604.267 270.417C604.628 270.779 604.832 271.269 604.835 271.781V287.056C604.835 287.57 604.632 288.062 604.27 288.427C603.908 288.791 603.417 288.997 602.903 288.999Z" fill="#E3E3E3"/>
        <path d="M589.275 286.121C589.14 286.118 589.011 286.066 588.911 285.976C588.863 285.927 588.824 285.87 588.797 285.807C588.771 285.743 588.758 285.675 588.758 285.607C588.758 285.538 588.771 285.471 588.797 285.407C588.824 285.344 588.863 285.286 588.911 285.238L603.557 270.451C603.605 270.402 603.661 270.364 603.724 270.337C603.786 270.311 603.853 270.298 603.921 270.298C603.989 270.298 604.056 270.311 604.118 270.337C604.181 270.364 604.237 270.402 604.285 270.451C604.333 270.499 604.372 270.557 604.398 270.62C604.425 270.683 604.438 270.751 604.438 270.819C604.438 270.888 604.425 270.956 604.398 271.019C604.372 271.083 604.333 271.14 604.285 271.188L589.638 285.976C589.54 286.069 589.41 286.121 589.275 286.121Z" fill="#E3E3E3"/>
        <path d="M603.924 288.553C603.856 288.552 603.789 288.539 603.726 288.512C603.664 288.485 603.607 288.446 603.56 288.397L586.38 271.054C586.282 270.956 586.227 270.823 586.227 270.685C586.227 270.546 586.282 270.414 586.38 270.316C586.478 270.218 586.61 270.163 586.748 270.163C586.887 270.163 587.019 270.218 587.117 270.316L604.298 287.67C604.346 287.717 604.384 287.774 604.411 287.836C604.437 287.899 604.451 287.966 604.451 288.033C604.451 288.101 604.437 288.168 604.411 288.231C604.384 288.293 604.346 288.35 604.298 288.397C604.25 288.448 604.192 288.489 604.128 288.516C604.063 288.543 603.993 288.555 603.924 288.553Z" fill="#E3E3E3"/>
        <path d="M653.793 274.108H610C609.862 274.108 609.73 274.053 609.633 273.956C609.535 273.858 609.48 273.726 609.48 273.589C609.483 273.452 609.539 273.321 609.636 273.225C609.733 273.128 609.863 273.072 610 273.069H653.793C653.931 273.069 654.063 273.124 654.16 273.221C654.258 273.319 654.313 273.451 654.313 273.589C654.313 273.726 654.258 273.858 654.16 273.956C654.063 274.053 653.931 274.108 653.793 274.108Z" fill="#E3E3E3"/>
        <path d="M638.762 281.954H610C609.862 281.954 609.73 281.899 609.633 281.801C609.535 281.704 609.48 281.572 609.48 281.434C609.48 281.297 609.535 281.165 609.633 281.067C609.73 280.97 609.862 280.915 610 280.915H638.762C638.9 280.915 639.032 280.97 639.13 281.067C639.227 281.165 639.282 281.297 639.282 281.434C639.282 281.572 639.227 281.704 639.13 281.801C639.032 281.899 638.9 281.954 638.762 281.954Z" fill="#E3E3E3"/>
        <path d="M602.903 317.203H587.623C587.11 317.2 586.618 316.994 586.256 316.63C585.894 316.266 585.691 315.773 585.691 315.259V313.42C585.691 313.282 585.746 313.15 585.844 313.053C585.941 312.955 586.073 312.9 586.211 312.9C586.349 312.9 586.481 312.955 586.578 313.053C586.675 313.15 586.73 313.282 586.73 313.42V315.259C586.73 315.497 586.824 315.726 586.991 315.895C587.158 316.064 587.385 316.161 587.623 316.163H602.903C603.141 316.161 603.368 316.064 603.536 315.895C603.703 315.726 603.796 315.497 603.796 315.259V299.983C603.794 299.747 603.699 299.522 603.532 299.355C603.365 299.188 603.139 299.093 602.903 299.09H587.623C587.387 299.093 587.162 299.188 586.995 299.355C586.828 299.522 586.733 299.747 586.73 299.983V306.842C586.73 306.98 586.675 307.112 586.578 307.209C586.481 307.307 586.349 307.362 586.211 307.362C586.073 307.362 585.941 307.307 585.844 307.209C585.746 307.112 585.691 306.98 585.691 306.842V299.983C585.691 299.471 585.895 298.98 586.257 298.617C586.62 298.255 587.111 298.051 587.623 298.051H602.903C603.416 298.051 603.907 298.255 604.27 298.617C604.632 298.98 604.835 299.471 604.835 299.983V315.259C604.835 315.773 604.632 316.266 604.27 316.63C603.908 316.994 603.417 317.2 602.903 317.203Z" fill="#E3E3E3"/>
        <path d="M586.754 316.839C586.616 316.838 586.483 316.786 586.38 316.693C586.284 316.594 586.23 316.462 586.23 316.324C586.23 316.186 586.284 316.054 586.38 315.955L603.56 298.612C603.608 298.563 603.664 298.525 603.727 298.499C603.789 298.472 603.856 298.459 603.924 298.459C603.992 298.459 604.059 298.472 604.121 298.499C604.184 298.525 604.24 298.563 604.288 298.612C604.336 298.66 604.375 298.717 604.401 298.781C604.428 298.844 604.441 298.912 604.441 298.981C604.441 299.049 604.428 299.117 604.401 299.181C604.375 299.244 604.336 299.301 604.288 299.349L587.107 316.693C587.012 316.785 586.886 316.837 586.754 316.839Z" fill="#E3E3E3"/>
        <path d="M603.923 316.755C603.855 316.755 603.788 316.741 603.725 316.714C603.663 316.687 603.606 316.648 603.559 316.599L590.056 302.945C590.007 302.896 589.968 302.839 589.942 302.776C589.916 302.712 589.902 302.644 589.902 302.576C589.902 302.507 589.916 302.439 589.942 302.376C589.968 302.312 590.007 302.255 590.056 302.207C590.154 302.111 590.287 302.058 590.424 302.058C590.562 302.058 590.695 302.111 590.793 302.207L604.297 315.872C604.345 315.919 604.383 315.976 604.41 316.038C604.436 316.1 604.45 316.168 604.45 316.235C604.45 316.303 604.436 316.37 604.41 316.433C604.383 316.495 604.345 316.552 604.297 316.599C604.249 316.65 604.191 316.691 604.127 316.718C604.062 316.745 603.993 316.757 603.923 316.755Z" fill="#E3E3E3"/>
        <path d="M653.793 302.29H610C609.862 302.29 609.73 302.235 609.633 302.137C609.535 302.04 609.48 301.908 609.48 301.77C609.483 301.633 609.539 301.503 609.636 301.406C609.733 301.309 609.863 301.254 610 301.251H653.793C653.931 301.251 654.063 301.306 654.16 301.403C654.258 301.5 654.313 301.633 654.313 301.77C654.313 301.908 654.258 302.04 654.16 302.137C654.063 302.235 653.931 302.29 653.793 302.29Z" fill="#E3E3E3"/>
        <path d="M638.762 310.156H610C609.862 310.156 609.73 310.101 609.633 310.004C609.535 309.906 609.48 309.774 609.48 309.636C609.48 309.499 609.535 309.367 609.633 309.269C609.73 309.172 609.862 309.117 610 309.117H638.762C638.9 309.117 639.032 309.172 639.13 309.269C639.227 309.367 639.282 309.499 639.282 309.636C639.282 309.774 639.227 309.906 639.13 310.004C639.032 310.101 638.9 310.156 638.762 310.156Z" fill="#E3E3E3"/>
    </g>
    <defs>
        <clipPath id="clip0_4280_28546">
            <rect width="728" height="431" fill="white"/>
        </clipPath>
    </defs>
</svg>
