<svg width="40" height="40" viewBox="0 0 40 40" fill="none" xmlns="http://www.w3.org/2000/svg">
    <path d="M20.832 39.1663H2.4987C2.05667 39.1663 1.63275 38.9908 1.32019 38.6782C1.00763 38.3656 0.832031 37.9417 0.832031 37.4997V2.49968C0.832031 2.05765 1.00763 1.63373 1.32019 1.32117C1.63275 1.00861 2.05667 0.833014 2.4987 0.833014H24.6487C24.8684 0.832403 25.086 0.875232 25.2891 0.959039C25.4922 1.04285 25.6767 1.16598 25.832 1.32135L31.9987 7.49968C32.3113 7.81217 32.4869 8.23602 32.487 8.67801V15.833" stroke="#161617" stroke-linecap="round" stroke-linejoin="round"/>
    <path d="M5.82422 25.833H15.8242" stroke="#161617" stroke-linecap="round" stroke-linejoin="round"/>
    <path d="M8.88802 17.5H10.5547C10.7757 17.5 10.9877 17.5878 11.1439 17.7441C11.3002 17.9004 11.388 18.1123 11.388 18.3333V25.8333H8.05469V18.3333C8.05469 18.1123 8.14249 17.9004 8.29877 17.7441C8.45505 17.5878 8.66701 17.5 8.88802 17.5V17.5Z" stroke="#161617" stroke-linecap="round" stroke-linejoin="round"/>
    <path d="M18.6107 20.8333V13.3333C18.6107 13.1123 18.5229 12.9004 18.3666 12.7441C18.2103 12.5878 17.9984 12.5 17.7773 12.5H16.1107C15.8897 12.5 15.6777 12.5878 15.5214 12.7441C15.3651 12.9004 15.2773 13.1123 15.2773 13.3333V25.8333" stroke="#161617" stroke-linecap="round" stroke-linejoin="round"/>
    <path d="M28.3726 35.9297C32.5414 35.9297 35.9209 32.5502 35.9209 28.3813C35.9209 24.2125 32.5414 20.833 28.3726 20.833C24.2037 20.833 20.8242 24.2125 20.8242 28.3813C20.8242 32.5502 24.2037 35.9297 28.3726 35.9297Z" stroke="#161617" stroke-linecap="round" stroke-linejoin="round"/>
    <path d="M39.1633 39.1663L33.75 33.7529" stroke="#161617" stroke-linecap="round" stroke-linejoin="round"/>
</svg>
