<svg width="40" height="40" viewBox="0 0 40 40" fill="none" xmlns="http://www.w3.org/2000/svg">
    <path d="M5.83203 8.33301H39.1654" stroke="#161617" stroke-linecap="round" stroke-linejoin="round"/>
    <path d="M10.8346 4.58301C10.7522 4.58301 10.6717 4.60744 10.6031 4.65323C10.5346 4.69901 10.4812 4.76409 10.4497 4.84022C10.4181 4.91636 10.4099 5.00014 10.426 5.08096C10.4421 5.16179 10.4817 5.23603 10.54 5.2943C10.5983 5.35257 10.6725 5.39226 10.7533 5.40834C10.8342 5.42441 10.918 5.41616 10.9941 5.38462C11.0702 5.35309 11.1353 5.29968 11.1811 5.23116C11.2269 5.16264 11.2513 5.08208 11.2513 4.99967C11.2513 4.88917 11.2074 4.78319 11.1293 4.70505C11.0511 4.62691 10.9451 4.58301 10.8346 4.58301Z" stroke="#161617" stroke-linecap="round" stroke-linejoin="round"/>
    <path d="M14.1667 4.58301C14.0843 4.58301 14.0037 4.60744 13.9352 4.65323C13.8667 4.69901 13.8133 4.76409 13.7817 4.84022C13.7502 4.91636 13.7419 5.00014 13.758 5.08096C13.7741 5.16179 13.8138 5.23603 13.872 5.2943C13.9303 5.35257 14.0046 5.39226 14.0854 5.40834C14.1662 5.42441 14.25 5.41616 14.3261 5.38462C14.4023 5.35309 14.4673 5.29968 14.5131 5.23116C14.5589 5.16264 14.5833 5.08208 14.5833 4.99967C14.5833 4.88917 14.5394 4.78319 14.4613 4.70505C14.3832 4.62691 14.2772 4.58301 14.1667 4.58301Z" stroke="#161617" stroke-linecap="round" stroke-linejoin="round"/>
    <path d="M17.4987 4.58301C17.4163 4.58301 17.3357 4.60744 17.2672 4.65323C17.1987 4.69901 17.1453 4.76409 17.1137 4.84022C17.0822 4.91636 17.074 5.00014 17.09 5.08096C17.1061 5.16179 17.1458 5.23603 17.2041 5.2943C17.2623 5.35257 17.3366 5.39226 17.4174 5.40834C17.4982 5.42441 17.582 5.41616 17.6581 5.38462C17.7343 5.35309 17.7994 5.29968 17.8451 5.23116C17.8909 5.16264 17.9154 5.08208 17.9154 4.99967C17.9154 4.88917 17.8715 4.78319 17.7933 4.70505C17.7152 4.62691 17.6092 4.58301 17.4987 4.58301Z" stroke="#161617" stroke-linecap="round" stroke-linejoin="round"/>
    <path d="M5.83203 16.667V5.00033C5.83203 4.11627 6.18322 3.26842 6.80834 2.6433C7.43346 2.01818 8.28131 1.66699 9.16536 1.66699H35.832C36.7161 1.66699 37.5639 2.01818 38.1891 2.6433C38.8142 3.26842 39.1654 4.11627 39.1654 5.00033V23.3337C39.1654 24.2177 38.8142 25.0656 38.1891 25.6907C37.5639 26.3158 36.7161 26.667 35.832 26.667H22.4987" stroke="#161617" stroke-linecap="round" stroke-linejoin="round"/>
    <path d="M15.832 21.667H2.4987C1.57822 21.667 0.832031 22.4132 0.832031 23.3337V36.667C0.832031 37.5875 1.57822 38.3337 2.4987 38.3337H15.832C16.7525 38.3337 17.4987 37.5875 17.4987 36.667V23.3337C17.4987 22.4132 16.7525 21.667 15.832 21.667Z" stroke="#161617" stroke-linecap="round" stroke-linejoin="round"/>
    <path d="M7.5 25L11.6667 29.1667L7.5 33.3333" stroke="#161617" stroke-linecap="round" stroke-linejoin="round"/>
    <path d="M21.668 38.3333H26.9796C28.3613 38.3333 29.168 36.5883 29.168 35.2083V30" stroke="#161617" stroke-linecap="round" stroke-linejoin="round"/>
    <path d="M32.4987 33.3333L29.1654 30L25.832 33.3333" stroke="#161617" stroke-linecap="round" stroke-linejoin="round"/>
</svg>
