<svg width="40" height="40" viewBox="0 0 40 40" fill="none" xmlns="http://www.w3.org/2000/svg">
    <path d="M28.8013 30.789C30.124 30.789 31.1963 29.7167 31.1963 28.394C31.1963 27.0713 30.124 25.999 28.8013 25.999C27.4785 25.999 26.4062 27.0713 26.4062 28.394C26.4062 29.7167 27.4785 30.789 28.8013 30.789Z" stroke="#161617" stroke-linecap="round" stroke-linejoin="round"/>
    <path d="M30.831 19.1248L31.5376 21.4448C31.6534 21.8301 31.9114 22.1569 32.2593 22.359C32.6072 22.5611 33.0189 22.6233 33.411 22.5331L35.7643 21.9881C36.21 21.8869 36.6764 21.9313 37.095 22.1147C37.5136 22.2982 37.8623 22.611 38.09 23.0073C38.3177 23.4035 38.4123 23.8624 38.36 24.3164C38.3077 24.7704 38.1112 25.1957 37.7993 25.5298L36.1643 27.3048C35.8904 27.6011 35.7383 27.9897 35.7383 28.3931C35.7383 28.7966 35.8904 29.1852 36.1643 29.4815L37.811 31.2548C38.1223 31.5891 38.3184 32.0144 38.3705 32.4683C38.4226 32.9222 38.328 33.3809 38.1004 33.7771C37.8729 34.1733 37.5244 34.4862 37.1061 34.6699C36.6878 34.8536 36.2217 34.8986 35.776 34.7981L33.4226 34.2531C33.0306 34.1629 32.6188 34.2252 32.271 34.4273C31.9231 34.6294 31.6651 34.9562 31.5493 35.3415L30.831 37.6665C30.6994 38.1039 30.4305 38.4873 30.0639 38.7598C29.6973 39.0324 29.2527 39.1796 28.796 39.1796C28.3392 39.1796 27.8946 39.0324 27.528 38.7598C27.1615 38.4873 26.8925 38.1039 26.761 37.6665L26.0543 35.3465C25.9385 34.9608 25.6802 34.6337 25.332 34.4316C24.9837 34.2295 24.5716 34.1674 24.1793 34.2581L21.8276 34.8031C21.3819 34.9036 20.9158 34.8586 20.4975 34.6749C20.0792 34.4912 19.7307 34.1783 19.5032 33.7821C19.2756 33.3859 19.181 32.9272 19.233 32.4733C19.2851 32.0194 19.4812 31.5941 19.7926 31.2598L21.4393 29.4865C21.7124 29.1898 21.864 28.8013 21.864 28.3981C21.864 27.9949 21.7124 27.6064 21.4393 27.3098L19.7926 25.5348C19.478 25.2009 19.2791 24.7746 19.2256 24.3189C19.172 23.8633 19.2665 23.4025 19.4951 23.0047C19.7237 22.607 20.0743 22.2933 20.4949 22.1102C20.9156 21.9272 21.3841 21.8843 21.831 21.9881L24.1826 22.5331C24.5749 22.6238 24.9871 22.5618 25.3353 22.3597C25.6835 22.1575 25.9418 21.8304 26.0576 21.4448L26.7643 19.1248C26.8967 18.6887 27.1659 18.3067 27.532 18.0352C27.8981 17.7637 28.3418 17.6172 28.7976 17.6172C29.2534 17.6172 29.6971 17.7637 30.0633 18.0352C30.4294 18.3067 30.6985 18.6887 30.831 19.1248V19.1248Z" stroke="#161617" stroke-linecap="round" stroke-linejoin="round"/>
    <path d="M1.71484 7.50684H35.0482" stroke="#161617" stroke-linecap="round" stroke-linejoin="round"/>
    <path d="M6.71354 3.75684C6.63113 3.75684 6.55057 3.78127 6.48205 3.82706C6.41353 3.87284 6.36013 3.93792 6.32859 4.01405C6.29706 4.09019 6.2888 4.17397 6.30488 4.25479C6.32096 4.33562 6.36064 4.40986 6.41891 4.46813C6.47719 4.5264 6.55143 4.56609 6.63225 4.58216C6.71308 4.59824 6.79686 4.58999 6.87299 4.55845C6.94913 4.52692 7.0142 4.47351 7.05999 4.40499C7.10577 4.33647 7.13021 4.25591 7.13021 4.1735C7.13021 4.063 7.08631 3.95702 7.00817 3.87887C6.93003 3.80073 6.82405 3.75684 6.71354 3.75684Z" stroke="#161617" stroke-linecap="round" stroke-linejoin="round"/>
    <path d="M10.0456 3.75684C9.96316 3.75684 9.88261 3.78127 9.81409 3.82706C9.74557 3.87284 9.69216 3.93792 9.66062 4.01405C9.62909 4.09019 9.62084 4.17397 9.63691 4.25479C9.65299 4.33562 9.69267 4.40986 9.75095 4.46813C9.80922 4.5264 9.88346 4.56609 9.96429 4.58216C10.0451 4.59824 10.1289 4.58999 10.205 4.55845C10.2812 4.52692 10.3462 4.47351 10.392 4.40499C10.4378 4.33647 10.4622 4.25591 10.4622 4.1735C10.4622 4.063 10.4183 3.95702 10.3402 3.87887C10.2621 3.80073 10.1561 3.75684 10.0456 3.75684Z" stroke="#161617" stroke-linecap="round" stroke-linejoin="round"/>
    <path d="M13.3815 3.75684C13.2991 3.75684 13.2185 3.78127 13.15 3.82706C13.0815 3.87284 13.0281 3.93792 12.9966 4.01405C12.965 4.09019 12.9568 4.17397 12.9729 4.25479C12.9889 4.33562 13.0286 4.40986 13.0869 4.46813C13.1452 4.5264 13.2194 4.56609 13.3002 4.58216C13.381 4.59824 13.4648 4.58999 13.541 4.55845C13.6171 4.52692 13.6822 4.47351 13.728 4.40499C13.7737 4.33647 13.7982 4.25591 13.7982 4.1735C13.7982 4.063 13.7543 3.95702 13.6761 3.87887C13.598 3.80073 13.492 3.75684 13.3815 3.75684Z" stroke="#161617" stroke-linecap="round" stroke-linejoin="round"/>
    <path d="M15.0482 27.4997H5.04818C4.16412 27.4997 3.31628 27.1485 2.69115 26.5234C2.06603 25.8982 1.71484 25.0504 1.71484 24.1663V4.16634C1.71484 3.28229 2.06603 2.43444 2.69115 1.80932C3.31628 1.1842 4.16412 0.833008 5.04818 0.833008H31.7148C32.5989 0.833008 33.4467 1.1842 34.0719 1.80932C34.697 2.43444 35.0482 3.28229 35.0482 4.16634V17.4997" stroke="#161617" stroke-linecap="round" stroke-linejoin="round"/>
</svg>
