<svg width="40" height="40" viewBox="0 0 40 40" fill="none" xmlns="http://www.w3.org/2000/svg">
    <path d="M37.4994 39.167V34.722C37.4989 33.2489 36.9135 31.8362 35.8719 30.7945C34.8302 29.7528 33.4175 29.1674 31.9444 29.167H29.1661V21.667C29.1661 21.004 28.9027 20.3681 28.4338 19.8992C27.965 19.4304 27.3291 19.167 26.6661 19.167C26.003 19.167 25.3671 19.4304 24.8983 19.8992C24.4294 20.3681 24.1661 21.004 24.1661 21.667V33.3337L22.0177 31.5337C21.6641 31.1089 21.1562 30.842 20.6058 30.7916C20.0554 30.7413 19.5075 30.9117 19.0827 31.2653C18.6579 31.619 18.391 32.1268 18.3407 32.6773C18.2904 33.2277 18.4608 33.7755 18.8144 34.2003L22.9461 39.167" stroke="#161617" stroke-linecap="round" stroke-linejoin="round"/>
    <path d="M15.832 39.1663H4.16536C3.28131 39.1663 2.43346 38.8152 1.80834 38.19C1.18322 37.5649 0.832031 36.7171 0.832031 35.833V4.16634C0.832031 3.28229 1.18322 2.43444 1.80834 1.80932C2.43346 1.1842 3.28131 0.833008 4.16536 0.833008H35.832C36.7161 0.833008 37.5639 1.1842 38.1891 1.80932C38.8142 2.43444 39.1654 3.28229 39.1654 4.16634V25.833" stroke="#161617" stroke-linecap="round" stroke-linejoin="round"/>
    <path d="M0.832031 9.16406H39.1654" stroke="#161617" stroke-linecap="round" stroke-linejoin="round"/>
    <path d="M16.6654 14.1641H6.66536C6.20513 14.1641 5.83203 14.5372 5.83203 14.9974V26.6641C5.83203 27.1243 6.20513 27.4974 6.66536 27.4974H16.6654C17.1256 27.4974 17.4987 27.1243 17.4987 26.6641V14.9974C17.4987 14.5372 17.1256 14.1641 16.6654 14.1641Z" stroke="#161617" stroke-linecap="round" stroke-linejoin="round"/>
    <path d="M11.668 22.498C13.0487 22.498 14.168 21.3788 14.168 19.998C14.168 18.6173 13.0487 17.498 11.668 17.498C10.2873 17.498 9.16797 18.6173 9.16797 19.998C9.16797 21.3788 10.2873 22.498 11.668 22.498Z" stroke="#161617" stroke-linecap="round" stroke-linejoin="round"/>
    <path d="M15.8335 27.5H7.50019C7.39979 26.2866 7.78037 25.0823 8.55984 24.1469C9.33931 23.2116 10.4552 22.6201 11.6669 22.5C12.8785 22.6201 13.9944 23.2116 14.7739 24.1469C15.5533 25.0823 15.9339 26.2866 15.8335 27.5Z" stroke="#161617" stroke-linecap="round" stroke-linejoin="round"/>
    <path d="M6.66797 30.8311H13.3346" stroke="#161617" stroke-linecap="round" stroke-linejoin="round"/>
    <path d="M6.66797 34.1641H13.3346" stroke="#161617" stroke-linecap="round" stroke-linejoin="round"/>
    <path d="M6.66667 4.58105C6.74901 4.58106 6.8295 4.60545 6.89798 4.65116C6.96647 4.69687 7.01987 4.76185 7.05146 4.83789C7.08304 4.91393 7.09139 4.99762 7.07545 5.0784C7.05951 5.15918 7.01999 5.23342 6.96188 5.29176C6.90378 5.3501 6.82969 5.38991 6.74897 5.40618C6.66826 5.42244 6.58453 5.41443 6.50837 5.38315C6.43221 5.35187 6.36702 5.29872 6.32103 5.23042C6.27505 5.16212 6.25033 5.08172 6.25 4.99939C6.24978 4.94453 6.2604 4.89017 6.28124 4.83942C6.30208 4.78868 6.33274 4.74255 6.37145 4.70368C6.41016 4.66481 6.45617 4.63397 6.50683 4.61293C6.55749 4.59189 6.61181 4.58105 6.66667 4.58105" stroke="#161617" stroke-linecap="round" stroke-linejoin="round"/>
    <path d="M11.6667 4.58105C11.749 4.58106 11.8295 4.60545 11.898 4.65116C11.9665 4.69687 12.0199 4.76185 12.0515 4.83789C12.083 4.91393 12.0914 4.99762 12.0754 5.0784C12.0595 5.15918 12.02 5.23342 11.9619 5.29176C11.9038 5.3501 11.8297 5.38991 11.749 5.40618C11.6683 5.42244 11.5845 5.41443 11.5084 5.38315C11.4322 5.35187 11.367 5.29872 11.321 5.23042C11.275 5.16212 11.2503 5.08172 11.25 4.99939C11.2498 4.94453 11.2604 4.89017 11.2812 4.83942C11.3021 4.78868 11.3327 4.74255 11.3715 4.70368C11.4102 4.66481 11.4562 4.63397 11.5068 4.61293C11.5575 4.59189 11.6118 4.58105 11.6667 4.58105" stroke="#161617" stroke-linecap="round" stroke-linejoin="round"/>
    <path d="M16.6667 4.58105C16.749 4.58106 16.8295 4.60545 16.898 4.65116C16.9665 4.69687 17.0199 4.76185 17.0515 4.83789C17.083 4.91393 17.0914 4.99762 17.0754 5.0784C17.0595 5.15918 17.02 5.23342 16.9619 5.29176C16.9038 5.3501 16.8297 5.38991 16.749 5.40618C16.6683 5.42244 16.5845 5.41443 16.5084 5.38315C16.4322 5.35187 16.367 5.29872 16.321 5.23042C16.275 5.16212 16.2503 5.08172 16.25 4.99939C16.25 4.88888 16.2939 4.7829 16.372 4.70476C16.4502 4.62662 16.5562 4.58272 16.6667 4.58272" stroke="#161617" stroke-linecap="round" stroke-linejoin="round"/>
    <path d="M23.332 14.1641H34.1654" stroke="#161617" stroke-linecap="round" stroke-linejoin="round"/>
</svg>
