<svg width="146" height="210" viewBox="0 0 146 210" fill="none" xmlns="http://www.w3.org/2000/svg">
    <g clip-path="url(#clip0_4761_18666)">
        <path d="M82.8946 113.164C82.9818 113.042 83.095 112.941 83.2262 112.867C83.3574 112.793 83.5034 112.749 83.6536 112.738C83.8039 112.727 83.9546 112.749 84.0954 112.802C84.2361 112.856 84.3634 112.939 84.468 113.047C85.7958 114.434 86.5938 116.239 86.7239 118.15C86.8541 120.06 86.3082 121.956 85.1805 123.508L82.9048 126.643C82.7001 126.926 82.4402 127.165 82.1408 127.346C81.8414 127.527 81.5084 127.646 81.1617 127.696C80.8151 127.747 80.4618 127.727 80.1229 127.639C79.7839 127.551 79.4664 127.396 79.1889 127.184L76.0315 124.752C75.8317 124.592 75.6992 124.364 75.6603 124.112C75.6214 123.86 75.6789 123.603 75.8212 123.391L82.8946 113.164Z" fill="#CE7783"/>
        <path d="M58.8222 66.3888L66.4028 71.9517C67.0974 72.4614 67.56 73.2248 67.6888 74.0737C67.8176 74.9227 67.602 75.7877 67.0896 76.4786L46.1749 104.673C44.9208 106.364 43.0426 107.49 40.9538 107.803C38.865 108.117 36.7366 107.592 35.0367 106.345C33.3369 105.097 32.2047 103.229 31.8895 101.152C31.5744 99.0742 32.102 96.9573 33.3562 95.2665L54.2708 67.0717C54.7833 66.3809 55.5507 65.9208 56.4042 65.7927C57.2578 65.6646 58.1276 65.879 58.8222 66.3888Z" fill="#CE7783"/>
        <path d="M49.2142 126.292C49.1602 126.292 49.108 126.274 49.0658 126.241C49.0121 126.201 48.976 126.142 48.9654 126.076C48.9549 126.011 48.9706 125.943 49.0092 125.889L51.3567 122.647C51.7363 122.13 51.9269 121.501 51.8971 120.862C51.8672 120.223 51.6188 119.613 51.1928 119.134L45.1909 112.313C45.1469 112.261 45.1248 112.195 45.1295 112.127C45.1343 112.059 45.1655 111.996 45.2164 111.951C45.2652 111.904 45.3304 111.878 45.3983 111.878C45.4663 111.878 45.5315 111.904 45.5803 111.951L51.5822 118.772C52.0843 119.338 52.3769 120.058 52.4114 120.811C52.4459 121.565 52.2203 122.308 51.7719 122.917L49.4244 126.159C49.404 126.198 49.3739 126.23 49.3371 126.253C49.3002 126.276 49.2578 126.29 49.2142 126.292Z" fill="#E3E3E3"/>
        <path d="M64.1857 137.155C64.1369 137.154 64.0892 137.14 64.0473 137.114C63.9912 137.077 63.9519 137.019 63.9385 136.953C63.925 136.887 63.9384 136.819 63.9755 136.763L84.6209 105.155C84.9306 104.681 85.0822 104.122 85.0536 103.557C85.0251 102.992 84.8179 102.451 84.462 102.01C84.2117 101.693 83.8927 101.437 83.5288 101.261C83.1648 101.084 82.7656 100.992 82.3607 100.99C81.9423 100.987 81.5288 101.082 81.154 101.267C80.7791 101.452 80.4535 101.722 80.2029 102.056L76.7227 106.644L66.5125 93.3434L67.9425 91.5387C68.4301 90.9236 68.6953 90.1631 68.6953 89.3797C68.6953 88.5964 68.4301 87.8359 67.9425 87.2207C67.616 86.8034 67.1977 86.466 66.7197 86.2345C66.2417 86.0029 65.7167 85.8834 65.1851 85.8851C64.2552 85.8858 63.3635 86.2524 62.7044 86.9047C62.5779 87.0365 62.4598 87.1762 62.3508 87.3227L49.2192 105.242C48.4946 106.242 47.6814 107.175 46.7895 108.031L46.1591 108.642C44.1704 110.554 42.7046 110.814 42.6431 110.824C41.9732 110.995 41.2844 111.081 40.5929 111.079C38.837 111.082 37.1273 110.521 35.7187 109.478C34.8486 108.843 34.1137 108.042 33.5568 107.123C32.9999 106.203 32.632 105.183 32.4742 104.12C32.3128 103.057 32.3656 101.972 32.6296 100.929C32.8936 99.8853 33.3634 98.9047 34.0118 98.0437L56.6819 67.4815C56.9545 67.1117 57.2984 66.7995 57.6935 66.5632C58.0886 66.3269 58.5269 66.1712 58.9831 66.105C59.4391 66.035 59.9045 66.0558 60.3524 66.166C60.8002 66.2763 61.2217 66.4739 61.5922 66.7474L69.1728 72.3806C69.5446 72.6518 69.8585 72.9938 70.0961 73.3868C70.3337 73.7798 70.4901 74.2158 70.5566 74.6696C70.627 75.1231 70.6061 75.586 70.4953 76.0314C70.3844 76.4769 70.1858 76.896 69.9109 77.2644L65.0827 83.7745C65.0419 83.8286 64.981 83.8644 64.9138 83.8739C64.8465 83.8835 64.7782 83.8661 64.7238 83.8255C64.6694 83.7849 64.6336 83.7246 64.624 83.6576C64.6143 83.5907 64.6317 83.5227 64.6725 83.4687L69.5007 76.9586C69.735 76.6443 69.9041 76.2869 69.9982 75.9071C70.0924 75.5272 70.1098 75.1326 70.0493 74.7461C69.9926 74.3579 69.8586 73.9848 69.6554 73.6487C69.4521 73.3126 69.1835 73.0201 68.8653 72.7884L61.2846 67.2215C60.9688 66.9882 60.6094 66.8199 60.2275 66.7262C59.8456 66.6325 59.4488 66.6155 59.0602 66.676C58.6699 66.7324 58.2947 66.8655 57.9568 67.0677C57.6189 67.2699 57.3248 67.5371 57.0919 67.8536L34.4218 98.4413C33.8199 99.2508 33.3848 100.171 33.1411 101.148C32.8975 102.125 32.8501 103.14 33.002 104.136C33.1517 105.132 33.4979 106.088 34.0203 106.951C34.5428 107.814 35.2313 108.565 36.0465 109.162C36.9673 109.838 38.0279 110.302 39.1511 110.52C40.2743 110.737 41.4322 110.704 42.5407 110.422C42.5715 110.422 43.9451 110.156 45.8005 108.382L46.4309 107.771C47.3014 106.935 48.0972 106.026 48.8092 105.053L61.9406 87.129C62.0621 86.9615 62.1959 86.8031 62.3405 86.6549C63.0947 85.9034 64.1175 85.4799 65.1851 85.4772C65.7938 85.4756 66.3949 85.6125 66.9422 85.8776C67.4895 86.1427 67.9684 86.5289 68.3424 87.0066C68.9024 87.7114 69.2071 88.5834 69.2071 89.4817C69.2071 90.38 68.9024 91.252 68.3424 91.9567L67.1584 93.4454L76.7227 105.9L79.798 101.821C80.0958 101.425 80.4827 101.104 80.9277 100.884C81.3727 100.663 81.8636 100.55 82.3607 100.552C82.8411 100.55 83.3156 100.656 83.7487 100.863C84.1819 101.07 84.5626 101.371 84.8619 101.745C85.2842 102.269 85.5299 102.912 85.5639 103.583C85.598 104.254 85.4187 104.918 85.0516 105.482L64.401 137.089C64.373 137.116 64.3388 137.136 64.3014 137.148C64.2639 137.16 64.2243 137.162 64.1857 137.155Z" fill="#E3E3E3"/>
        <path d="M79.3417 127.989C78.7111 127.988 78.0984 127.781 77.5991 127.397L73.6934 124.385C73.6395 124.342 73.6045 124.281 73.5958 124.213C73.5872 124.145 73.6058 124.077 73.6474 124.023C73.6897 123.97 73.7511 123.936 73.8183 123.929C73.8855 123.921 73.9529 123.94 74.006 123.982L77.9167 126.99C78.165 127.183 78.4504 127.324 78.7554 127.403C79.0603 127.483 79.3786 127.5 79.6904 127.453C80.0036 127.41 80.3046 127.303 80.5751 127.14C80.8456 126.977 81.0799 126.761 81.2638 126.505L83.5395 123.37C84.763 121.702 85.2822 119.625 84.9863 117.582C84.6904 115.538 83.6028 113.691 81.9558 112.435C81.904 112.391 81.8705 112.33 81.8619 112.263C81.8534 112.196 81.8703 112.128 81.9095 112.073C81.9534 112.021 82.0153 111.988 82.0827 111.98C82.15 111.971 82.2179 111.988 82.2734 112.027C84.0254 113.365 85.182 115.331 85.4961 117.506C85.8102 119.681 85.2571 121.891 83.9547 123.666L81.684 126.801C81.4594 127.114 81.1733 127.377 80.8428 127.576C80.5124 127.775 80.1445 127.905 79.7619 127.958C79.6228 127.979 79.4824 127.989 79.3417 127.989Z" fill="#E3E3E3"/>
        <path d="M104.411 210.025H22.1566C21.2468 210.025 20.3576 209.756 19.6026 209.251C18.8476 208.746 18.2611 208.029 17.9178 207.191L0.603659 165.005C-1.44654 159.999 1.95178 154.3 7.37969 153.979C7.53687 153.979 7.70772 153.979 7.89224 153.979H118.716C118.88 153.979 119.051 153.979 119.228 153.979C124.656 154.289 128.054 159.999 125.999 165.005L108.685 207.191C108.34 208.035 107.748 208.756 106.986 209.262C106.224 209.767 105.327 210.033 104.411 210.025Z" fill="#71A5D2"/>
        <path d="M29.4148 207.916H24.9455C23.9182 207.921 22.9129 207.619 22.0602 207.049C21.2075 206.479 20.5466 205.667 20.1634 204.719L1.58846 159.46C1.05151 158.14 0.838096 156.712 0.965539 155.293C1.09298 153.875 1.55771 152.507 2.3215 151.303C3.03989 150.143 4.02919 149.173 5.20534 148.476C6.3815 147.778 7.7098 147.373 9.077 147.296C9.25639 147.296 9.43557 147.296 9.62008 147.296H128.532C128.711 147.296 128.896 147.296 129.075 147.296C130.442 147.373 131.771 147.778 132.947 148.476C134.123 149.173 135.112 150.143 135.831 151.303C136.593 152.508 137.057 153.875 137.185 155.293C137.312 156.712 137.099 158.139 136.564 159.46L130.413 174.427C130.385 174.489 130.334 174.537 130.271 174.563C130.209 174.588 130.138 174.589 130.075 174.565C130.013 174.538 129.965 174.488 129.939 174.427C129.913 174.365 129.912 174.296 129.936 174.233L136.087 159.266C136.597 158.018 136.801 156.668 136.681 155.327C136.562 153.985 136.123 152.692 135.4 151.553C134.723 150.463 133.792 149.551 132.686 148.896C131.579 148.24 130.33 147.859 129.044 147.785C128.875 147.785 128.706 147.785 128.532 147.785H9.62008C9.44582 147.785 9.27668 147.785 9.10753 147.785C7.8217 147.859 6.57276 148.24 5.46637 148.896C4.35999 149.551 3.42884 150.463 2.75196 151.553C2.02945 152.692 1.59027 153.985 1.47083 155.327C1.35139 156.668 1.5552 158.018 2.06522 159.266L20.6349 204.526C20.9832 205.378 21.5795 206.108 22.3475 206.621C23.1155 207.134 24.0203 207.408 24.9455 207.406H29.4148C29.4828 207.406 29.548 207.433 29.596 207.481C29.6441 207.528 29.6711 207.593 29.6711 207.661C29.6711 207.694 29.6645 207.727 29.6516 207.758C29.6387 207.789 29.6198 207.817 29.596 207.841C29.5722 207.865 29.544 207.883 29.5129 207.896C29.4819 207.909 29.4485 207.916 29.4148 207.916Z" fill="#E3E3E3"/>
        <path d="M113.192 207.915H46.4321C46.3645 207.914 46.3001 207.887 46.2524 207.839C46.2046 207.792 46.1771 207.727 46.1758 207.66C46.1758 207.593 46.2028 207.528 46.2509 207.48C46.2989 207.432 46.3641 207.405 46.4321 207.405H113.192C114.117 207.41 115.023 207.138 115.79 206.624C116.558 206.111 117.153 205.379 117.497 204.525L121.223 195.456C121.233 195.421 121.249 195.388 121.272 195.36C121.295 195.331 121.324 195.308 121.356 195.292C121.389 195.276 121.424 195.266 121.461 195.265C121.497 195.263 121.533 195.27 121.567 195.283C121.601 195.297 121.631 195.317 121.657 195.343C121.682 195.37 121.701 195.401 121.713 195.435C121.725 195.469 121.73 195.506 121.727 195.542C121.724 195.578 121.713 195.613 121.695 195.644L117.974 204.719C117.591 205.667 116.93 206.479 116.077 207.049C115.224 207.619 114.219 207.92 113.192 207.915Z" fill="#E3E3E3"/>
        <path d="M28.3051 131.129H34.8556C35.0709 131.125 35.2832 131.179 35.47 131.285C35.6569 131.392 35.8113 131.547 35.9165 131.734C36.0217 131.92 36.074 132.132 36.0677 132.346C36.0614 132.56 35.9968 132.769 35.8807 132.949C33.0514 137.369 30.2169 141.794 28.6024 144.297C28.339 144.704 27.9772 145.039 27.55 145.27C27.1229 145.502 26.644 145.623 26.1575 145.623H20.7655C20.2911 145.623 19.8361 145.435 19.5006 145.102C19.1652 144.768 18.9766 144.315 18.9766 143.843V140.418C18.9766 137.956 19.9591 135.595 21.7082 133.853C23.4574 132.112 25.8301 131.132 28.3051 131.129Z" fill="#B5C8D9"/>
        <path d="M118.591 140.418V143.13C118.591 143.792 118.327 144.426 117.857 144.893C117.386 145.361 116.749 145.623 116.084 145.623H72.9633C72.7047 145.616 72.4523 145.543 72.2293 145.413C72.0062 145.282 71.8198 145.098 71.6874 144.877C71.5551 144.656 71.481 144.405 71.4719 144.148C71.4629 143.891 71.5193 143.635 71.6359 143.406L73.0864 140.729C73.3373 140.264 73.4048 139.723 73.2759 139.211C73.147 138.699 72.831 138.253 72.3894 137.961L71.6511 137.451C70.8871 136.952 70.3513 136.174 70.1595 135.285C69.9677 134.396 70.1352 133.467 70.626 132.7C70.9425 132.213 71.3766 131.812 71.8886 131.534C72.4007 131.256 72.9746 131.11 73.5579 131.109H109.236C110.466 131.107 111.684 131.347 112.82 131.814C113.956 132.281 114.988 132.967 115.857 133.832C116.726 134.697 117.415 135.724 117.884 136.854C118.353 137.984 118.593 139.195 118.591 140.418Z" fill="#B5C8D9"/>
        <path d="M120.278 145.282C120.21 145.282 120.144 145.255 120.096 145.208C120.048 145.16 120.021 145.095 120.021 145.027V142.33C120.019 139.935 119.061 137.639 117.358 135.946C115.655 134.252 113.347 133.3 110.939 133.297H74.7016C74.6336 133.297 74.5685 133.27 74.5204 133.222C74.4723 133.174 74.4453 133.11 74.4453 133.042C74.4453 132.974 74.4723 132.91 74.5204 132.862C74.5685 132.814 74.6336 132.787 74.7016 132.787H110.939C113.483 132.79 115.922 133.796 117.721 135.585C119.519 137.374 120.531 139.8 120.534 142.33V145.027C120.534 145.095 120.507 145.16 120.459 145.208C120.411 145.255 120.346 145.282 120.278 145.282Z" fill="#E3E3E3"/>
        <path d="M17.2797 144.695C17.2117 144.695 17.1466 144.669 17.0985 144.621C17.0505 144.573 17.0234 144.508 17.0234 144.44V142.32C17.0261 139.79 18.037 137.365 19.8347 135.576C21.6324 133.787 24.0702 132.78 26.6132 132.776H37.6433C37.7113 132.776 37.7765 132.803 37.8245 132.851C37.8726 132.899 37.8996 132.964 37.8996 133.031C37.8996 133.099 37.8726 133.164 37.8245 133.212C37.7765 133.259 37.7113 133.286 37.6433 133.286H26.6132C24.2057 133.289 21.8977 134.242 20.1958 135.935C18.494 137.629 17.5373 139.925 17.536 142.32V144.44C17.536 144.508 17.509 144.573 17.4609 144.621C17.4128 144.669 17.3477 144.695 17.2797 144.695Z" fill="#E3E3E3"/>
        <path d="M66.7998 146.204C66.7594 146.213 66.7174 146.213 66.6769 146.204C66.6472 146.188 66.6211 146.166 66.5998 146.14C66.5786 146.114 66.5628 146.084 66.5533 146.052C66.5438 146.02 66.5406 145.986 66.5443 145.952C66.5479 145.919 66.5581 145.887 66.5743 145.857L67.5994 143.9C67.9073 143.319 67.9883 142.646 67.8264 142.009C67.6646 141.373 67.2714 140.819 66.723 140.453L46.6054 127.015C46.3073 126.817 45.9723 126.681 45.62 126.614C45.2678 126.547 44.9055 126.552 44.5552 126.628C44.205 126.701 43.8736 126.845 43.5811 127.05C43.2886 127.255 43.0411 127.517 42.8536 127.821L32.0234 145.154C32.0061 145.183 31.983 145.208 31.9556 145.228C31.9282 145.248 31.8971 145.262 31.864 145.27C31.831 145.277 31.7968 145.278 31.7634 145.272C31.73 145.266 31.6979 145.254 31.6696 145.235C31.6405 145.219 31.6155 145.196 31.5955 145.169C31.5755 145.143 31.5611 145.112 31.5534 145.08C31.5458 145.047 31.5448 145.013 31.5507 144.981C31.5566 144.948 31.5692 144.916 31.5877 144.889L42.4179 127.556C42.644 127.192 42.9425 126.878 43.295 126.634C43.6476 126.389 44.0469 126.219 44.4681 126.133C44.886 126.042 45.318 126.037 45.7382 126.116C46.1584 126.196 46.558 126.36 46.9129 126.597L67.0356 140.035C67.6803 140.471 68.1414 141.128 68.3304 141.88C68.5195 142.632 68.4234 143.427 68.0607 144.114L67.0356 146.076C67.0124 146.118 66.9782 146.152 66.9364 146.174C66.8947 146.197 66.8472 146.207 66.7998 146.204Z" fill="#E3E3E3"/>
        <path d="M62.0649 100.032C62.0094 100.032 61.9552 100.014 61.911 99.9809C61.8566 99.9403 61.8208 99.88 61.8112 99.813C61.8015 99.7461 61.8192 99.6781 61.86 99.624L66.6318 93.2312C66.6517 93.2041 66.6766 93.181 66.7054 93.1635C66.7342 93.146 66.7662 93.1343 66.7995 93.1291C66.8329 93.1239 66.8668 93.1252 66.8996 93.1332C66.9324 93.1411 66.9632 93.1553 66.9905 93.1751C67.0449 93.2157 67.0807 93.2761 67.0903 93.343C67.1 93.4099 67.0826 93.4779 67.0418 93.532L62.2802 99.9095C62.2573 99.9461 62.2256 99.9763 62.1881 99.9977C62.1505 100.019 62.1082 100.031 62.0649 100.032Z" fill="#E3E3E3"/>
        <path d="M67.2288 107.389C67.1748 107.389 67.1223 107.371 67.0801 107.338C67.0264 107.298 66.9903 107.239 66.9798 107.173C66.9692 107.107 66.9849 107.04 67.0236 106.986L71.9493 100.165C71.9902 100.111 72.0503 100.075 72.1173 100.065C72.1842 100.054 72.2525 100.07 72.308 100.109C72.362 100.149 72.3983 100.209 72.4088 100.276C72.4194 100.342 72.4035 100.41 72.3645 100.466L67.4388 107.282C67.4152 107.315 67.3838 107.343 67.3472 107.361C67.3105 107.38 67.2699 107.389 67.2288 107.389Z" fill="#E3E3E3"/>
        <path d="M71.9282 113.118C71.8752 113.118 71.8234 113.102 71.7796 113.072C71.7255 113.032 71.6895 112.972 71.679 112.905C71.6684 112.839 71.6843 112.771 71.7232 112.715L76.5156 106.088C76.5351 106.061 76.5599 106.037 76.5885 106.019C76.6171 106.001 76.649 105.989 76.6823 105.983C76.7157 105.977 76.7497 105.978 76.7827 105.986C76.8157 105.993 76.847 106.007 76.8745 106.027C76.9018 106.047 76.925 106.072 76.9426 106.1C76.9602 106.129 76.9719 106.161 76.9771 106.194C76.9824 106.227 76.9811 106.261 76.9731 106.293C76.9652 106.326 76.9508 106.357 76.9308 106.384L72.1384 113.011C72.1143 113.044 72.0829 113.071 72.0463 113.09C72.0098 113.108 71.9692 113.118 71.9282 113.118Z" fill="#E3E3E3"/>
        <path d="M87.1446 26.2771L63.0287 58.7875C62.2103 59.8909 62.4462 61.4451 63.5555 62.2591L77.9745 72.8403C79.0838 73.6544 80.6464 73.42 81.4649 72.3167L105.581 39.8063C106.399 38.7029 106.163 37.1485 105.054 36.3345L90.6351 25.7533C89.5258 24.9392 87.963 25.1738 87.1446 26.2771Z" fill="#EAB669"/>
        <path d="M71.3384 50.3982C71.2829 50.3986 71.2289 50.3807 71.1847 50.3473C71.1303 50.3067 71.0942 50.2463 71.0846 50.1794C71.075 50.1125 71.0926 50.0445 71.1334 49.9904L88.9598 25.9587C89.3933 25.376 90.0416 24.9882 90.7622 24.8802C91.4829 24.7722 92.217 24.9529 92.8039 25.3826L108.18 36.6745C108.471 36.8876 108.717 37.1556 108.903 37.4632C109.09 37.7707 109.213 38.1118 109.267 38.4669C109.321 38.822 109.304 39.1841 109.217 39.5326C109.13 39.8812 108.974 40.2092 108.76 40.498L104.89 45.7132C104.85 45.7666 104.791 45.8024 104.725 45.8129C104.659 45.8234 104.591 45.8077 104.536 45.7693C104.509 45.7496 104.486 45.7247 104.468 45.6961C104.451 45.6675 104.439 45.6357 104.434 45.6025C104.428 45.5694 104.43 45.5355 104.438 45.5029C104.446 45.4703 104.46 45.4395 104.48 45.4124L108.35 40.1972C108.701 39.7215 108.849 39.1267 108.76 38.543C108.672 37.9593 108.355 37.4342 107.878 37.0824L92.5016 25.7904C92.0228 25.4423 91.4253 25.2963 90.8388 25.3841C90.2524 25.472 89.7245 25.7865 89.37 26.2594L71.5433 50.2912C71.5203 50.3241 71.4897 50.351 71.454 50.3696C71.4183 50.3882 71.3787 50.3981 71.3384 50.3982Z" fill="#E3E3E3"/>
        <path d="M81.0185 76.0259C80.433 76.0266 79.863 75.8388 79.3938 75.4906L64.0172 64.1986C63.7255 63.9873 63.4791 63.7202 63.2925 63.4129C63.1059 63.1057 62.9828 62.7644 62.9306 62.4093C62.875 62.0525 62.8916 61.6884 62.9796 61.3382C63.0677 60.988 63.2253 60.6588 63.4431 60.3701L67.1591 55.3588C67.1999 55.3047 67.2605 55.269 67.3278 55.2594C67.3951 55.2498 67.4636 55.2673 67.518 55.3078C67.5724 55.3484 67.6082 55.4088 67.6179 55.4757C67.6275 55.5426 67.6098 55.6106 67.5691 55.6647L63.8531 60.6759C63.6778 60.9103 63.5513 61.1771 63.4809 61.4607C63.4105 61.7444 63.3976 62.0391 63.4431 62.3277C63.4852 62.6168 63.5848 62.8947 63.7362 63.145C63.8876 63.3954 64.0878 63.6132 64.3248 63.7857L79.7013 75.0777C79.9371 75.2518 80.2053 75.3775 80.4904 75.4475C80.7755 75.5175 81.0717 75.5304 81.3619 75.4855C81.6528 75.4444 81.9324 75.3457 82.1843 75.195C82.4361 75.0444 82.6549 74.845 82.8277 74.6087L95.9848 56.878C96.0257 56.8242 96.0861 56.7883 96.153 56.7778C96.22 56.7674 96.2883 56.7832 96.3437 56.8219C96.397 56.8633 96.432 56.9235 96.4416 56.9901C96.4511 57.0566 96.4345 57.1242 96.395 57.1788L83.2379 74.9298C83.0248 75.2206 82.7554 75.466 82.4455 75.6516C82.1357 75.8372 81.7917 75.9592 81.4337 76.0106C81.2959 76.0258 81.1571 76.0309 81.0185 76.0259Z" fill="#E3E3E3"/>
        <path d="M94.1985 25.7243C94.143 25.7247 94.089 25.7068 94.0449 25.6733C94.0175 25.6542 93.9943 25.6297 93.9768 25.6013C93.9593 25.5729 93.9478 25.5413 93.943 25.5084C93.9382 25.4755 93.9403 25.4419 93.949 25.4098C93.9577 25.3777 93.9728 25.3477 93.9935 25.3216L96.5153 21.911L95.5415 21.1922L92.9787 24.6537C92.9379 24.7078 92.8771 24.7436 92.8098 24.7531C92.7425 24.7627 92.6742 24.7453 92.6198 24.7047C92.5925 24.6856 92.5695 24.661 92.552 24.6327C92.5345 24.6043 92.523 24.5727 92.5182 24.5398C92.5134 24.5069 92.5153 24.4733 92.524 24.4412C92.5326 24.4091 92.5478 24.3791 92.5685 24.353L95.4389 20.4785L97.238 21.7989L94.4087 25.6223C94.3841 25.6544 94.3521 25.6803 94.3156 25.698C94.2792 25.7157 94.2391 25.7247 94.1985 25.7243Z" fill="#E3E3E3"/>
        <path d="M62.7495 68.3023L60.9453 66.982L63.5388 63.4848C63.5796 63.4307 63.6402 63.3949 63.7075 63.3854C63.7748 63.3758 63.8434 63.3932 63.8977 63.4338C63.9518 63.4744 63.9878 63.5343 63.9983 63.6009C64.0089 63.6675 63.993 63.7355 63.954 63.7906L61.6628 66.8494L62.6419 67.5682L64.8921 64.5349C64.9328 64.4809 64.9934 64.4451 65.0607 64.4356C65.128 64.426 65.1963 64.4434 65.2507 64.484C65.3047 64.5246 65.341 64.5845 65.3515 64.6511C65.3621 64.7176 65.3462 64.7857 65.3072 64.8408L62.7495 68.3023Z" fill="#E3E3E3"/>
        <path d="M98.3274 22.303C97.4987 22.3041 96.6916 22.0395 96.0259 21.5485C95.1978 20.9392 94.6465 20.0282 94.4928 19.0152C94.3391 18.0022 94.5957 16.9698 95.2061 16.1446C95.5096 15.7331 95.8925 15.3858 96.3325 15.1232C96.7726 14.8606 97.2609 14.6879 97.7688 14.6152C98.2742 14.5387 98.7896 14.5623 99.2857 14.6848C99.7818 14.8073 100.249 15.0262 100.659 15.329C101.488 15.9382 102.039 16.8492 102.193 17.8623C102.347 18.8753 102.09 19.9076 101.48 20.7328C101.115 21.2223 100.64 21.6195 100.092 21.8923C99.5444 22.1651 98.9399 22.3058 98.3274 22.303ZM98.3274 15.0792C98.1558 15.0801 97.9845 15.0937 97.8149 15.1199C97.3765 15.1834 96.9551 15.3334 96.5758 15.561C96.1964 15.7886 95.8667 16.0893 95.6057 16.4454C95.3423 16.7997 95.1517 17.2021 95.0449 17.6298C94.9381 18.0574 94.9171 18.5018 94.9833 18.9375C95.0495 19.3732 95.2015 19.7916 95.4306 20.1688C95.6596 20.546 95.9613 20.8745 96.3183 21.1355C97.0374 21.6639 97.9382 21.8867 98.8224 21.7547C99.7067 21.6228 100.502 21.147 101.034 20.432C101.565 19.7152 101.788 18.8181 101.654 17.9378C101.521 17.0574 101.041 16.2658 100.321 15.7368C99.7486 15.3145 99.0556 15.0842 98.3427 15.0792H98.3274Z" fill="#E3E3E3"/>
        <path d="M33.496 97.6518C33.4378 97.6537 33.381 97.6336 33.337 97.5957L30.5898 95.4087L32.0046 93.6855L34.7058 95.8267C34.7581 95.8704 34.7912 95.9327 34.7979 96.0004C34.8046 96.068 34.7843 96.1356 34.7416 96.1886C34.7207 96.2149 34.6947 96.2366 34.6652 96.2527C34.6357 96.2687 34.6031 96.2787 34.5696 96.282C34.5362 96.2853 34.5024 96.2819 34.4703 96.272C34.4381 96.2621 34.4084 96.2459 34.3827 96.2243L32.0814 94.3993L31.3126 95.3322L33.6601 97.198C33.7122 97.2417 33.7454 97.3036 33.753 97.3709C33.7606 97.4382 33.7421 97.5059 33.7012 97.56C33.6758 97.5892 33.6443 97.6126 33.6088 97.6284C33.5734 97.6443 33.5348 97.6522 33.496 97.6518Z" fill="#E3E3E3"/>
        <path d="M28.6759 96.2799C27.7806 96.2814 26.9127 95.9732 26.2207 95.4082C25.8254 95.0865 25.4979 94.6903 25.2569 94.2424C25.0159 93.7945 24.8663 93.3036 24.8165 92.798C24.7652 92.2932 24.8148 91.7833 24.9626 91.2977C25.1104 90.8121 25.3532 90.3604 25.6774 89.9687C26.0001 89.5747 26.3982 89.2483 26.8487 89.0085C27.2991 88.7687 27.7931 88.6203 28.3017 88.5718C28.8094 88.5185 29.3225 88.5668 29.8111 88.7139C30.2997 88.861 30.7536 89.1039 31.1463 89.4283C31.5423 89.7483 31.8705 90.1433 32.1116 90.5906C32.3527 91.0378 32.502 91.5282 32.5508 92.0333C32.6034 92.539 32.5542 93.05 32.4064 93.5366C32.2586 94.0232 32.0149 94.4757 31.6896 94.8678C31.3671 95.2608 30.9698 95.5865 30.5204 95.8263C30.0709 96.066 29.5781 96.215 29.0705 96.2646C28.9629 96.2748 28.8091 96.2799 28.6759 96.2799ZM26.0773 90.2898C25.7966 90.6306 25.5861 91.023 25.4579 91.4447C25.3297 91.8663 25.2862 92.309 25.33 92.7473C25.3738 93.1857 25.5041 93.6112 25.7132 93.9995C25.9223 94.3878 26.2062 94.7314 26.5488 95.0105C26.8898 95.2923 27.284 95.5033 27.7083 95.6312C28.1326 95.759 28.5783 95.8011 29.0192 95.7548C29.4606 95.7131 29.8891 95.5843 30.2798 95.376C30.6706 95.1677 31.0157 94.884 31.2949 94.5415C31.577 94.2016 31.7884 93.8094 31.9169 93.3876C32.0453 92.9658 32.0883 92.5228 32.0432 92.0843C32.0002 91.6456 31.8704 91.2197 31.6611 90.8313C31.4517 90.4428 31.1669 90.0994 30.8234 89.8208C30.4817 89.5403 30.0873 89.33 29.6632 89.2022C29.2391 89.0745 28.7939 89.0317 28.353 89.0765C27.912 89.1194 27.4838 89.2486 27.0932 89.4569C26.7026 89.6651 26.3574 89.9482 26.0773 90.2898Z" fill="#E3E3E3"/>
        <path d="M81.5027 55.8023L83.7168 52.82L87.602 55.6748L86.8845 56.6383L85.9362 56.2968C86.0884 56.7529 86.1183 57.2406 86.023 57.7118C85.9278 58.1829 85.7105 58.6212 85.3929 58.9834C85.0788 59.4291 84.6699 59.8005 84.1951 60.071C83.7202 60.3415 83.1911 60.5046 82.6457 60.5485C81.4104 60.6462 80.1852 60.2644 79.227 59.483C78.1804 58.8074 77.4437 57.7486 77.1768 56.5364C77.067 55.9907 77.0775 55.4278 77.2076 54.8865C77.3376 54.3452 77.5841 53.8385 77.9301 53.4011C78.4487 52.628 79.2172 52.0542 80.1084 51.7749C80.9601 51.5593 81.8627 51.6818 82.6251 52.1164L81.6358 53.6458C81.2429 53.4384 80.788 53.3786 80.3544 53.4776C79.9118 53.6065 79.529 53.8862 79.273 54.2678C79.0577 54.5294 78.9101 54.8395 78.8431 55.171C78.7761 55.5025 78.7917 55.8452 78.8886 56.1693C79.1397 56.9203 79.6383 57.5651 80.3034 57.9995C80.9318 58.516 81.7132 58.8133 82.5278 58.8457C82.8705 58.8473 83.2083 58.7648 83.5113 58.6057C83.8144 58.4465 84.0734 58.2156 84.2654 57.9332C84.595 57.5188 84.7574 56.9972 84.7214 56.4701C84.6636 55.9174 84.4028 55.4054 83.9886 55.0325L82.7277 56.7301L81.5027 55.8023Z" fill="white"/>
        <path d="M91.8278 48.2522C91.9414 48.8104 91.9334 49.3864 91.8043 49.9413C91.6752 50.4962 91.428 51.0171 91.0795 51.469C90.7526 51.9309 90.3282 52.3162 89.8359 52.5979C89.3437 52.8797 88.7955 53.0512 88.2297 53.1003C86.9702 53.2039 85.7192 52.8184 84.7392 52.0247C83.7048 51.3348 82.9794 50.2732 82.7148 49.0628C82.6087 48.5107 82.6228 47.9425 82.7564 47.3963C82.8899 46.8502 83.1396 46.3389 83.4886 45.8969C83.8165 45.4352 84.2374 45.0463 84.7245 44.7549C85.2115 44.4636 85.7541 44.2761 86.3179 44.2044C86.9329 44.14 87.5546 44.1969 88.1474 44.3719C88.7402 44.5468 89.2925 44.8364 89.7726 45.224C90.8293 45.9274 91.567 47.0144 91.8278 48.2522ZM88.0708 51.3823C88.4065 51.3925 88.7395 51.319 89.0393 51.1685C89.3392 51.0181 89.5966 50.7954 89.7879 50.5208C89.996 50.2524 90.136 49.938 90.1958 49.6042C90.2556 49.2705 90.2334 48.9274 90.1313 48.604C89.8673 47.8346 89.3536 47.1746 88.6707 46.7279C88.0581 46.2257 87.2912 45.9469 86.4974 45.9377C86.1589 45.9407 85.8262 46.0247 85.5273 46.1826C85.2284 46.3406 84.9721 46.5678 84.7803 46.8452C84.5708 47.1039 84.4298 47.4105 84.3698 47.7373C84.3099 48.064 84.3329 48.4005 84.4369 48.7161C84.6916 49.461 85.1851 50.1021 85.8414 50.5412C86.4745 51.0524 87.2561 51.3473 88.0708 51.3823Z" fill="white"/>
        <path d="M95.2527 45.3615L94.125 46.8908L92.5874 45.7795L93.7201 44.2501L95.2527 45.3615ZM92.5926 44.0258L92.0801 44.7395L88.7946 42.9348L86.9648 41.5941L88.0668 40.1055L89.8965 41.4462L92.5926 44.0258Z" fill="white"/>
        <path d="M70.6659 0.000435494L68.7812 1.875L70.6659 3.74949L72.5506 1.87492L70.6659 0.000435494Z" fill="#EAB669"/>
        <path d="M108.905 48.0735L107.48 49.4902L108.905 50.9069L110.329 49.4902L108.905 48.0735Z" fill="#CE7783"/>
        <path d="M134.124 34.5872L132.699 36.0039L134.124 37.4206L135.548 36.0038L134.124 34.5872Z" fill="#71A5D2"/>
        <path d="M61.9891 45.4531H57.9297V49.4907H61.9891V45.4531Z" fill="#CE7783"/>
        <path d="M130.091 22.6758H126.031V26.7134H130.091V22.6758Z" fill="#CE7783"/>
        <path d="M116.009 56.1182H111.949V60.1557H116.009V56.1182Z" fill="#EAB669"/>
        <path d="M81.547 7.36178L82.0903 10.9303C82.0971 10.9734 82.117 11.0134 82.1471 11.045C82.1773 11.0766 82.2164 11.0982 82.2593 11.1071C82.3022 11.116 82.3468 11.1116 82.3872 11.0946C82.4275 11.0776 82.4616 11.0487 82.485 11.0119L85.0735 7.0661C85.0968 7.03166 85.1095 6.99122 85.1101 6.94971C85.1107 6.90821 85.0993 6.86741 85.077 6.8323C85.0548 6.79719 85.0226 6.76927 84.9847 6.75194C84.9468 6.73462 84.9046 6.72865 84.8633 6.73474L81.7317 7.14257C81.6792 7.15007 81.6311 7.1766 81.5971 7.21706C81.563 7.25751 81.5452 7.30904 81.547 7.36178Z" fill="#CE7783"/>
        <path d="M109.214 26.3668L109.758 29.9047C109.763 29.9482 109.783 29.9888 109.813 30.021C109.842 30.0533 109.881 30.0757 109.924 30.0851C109.967 30.0946 110.012 30.0906 110.053 30.0739C110.094 30.0571 110.128 30.0283 110.152 29.9914L112.741 26.0456C112.764 26.0112 112.777 25.9707 112.777 25.9292C112.778 25.8877 112.766 25.8469 112.744 25.8118C112.722 25.7767 112.69 25.7488 112.652 25.7315C112.614 25.7141 112.572 25.7081 112.531 25.7142L109.399 26.1221C109.37 26.1251 109.342 26.134 109.317 26.1482C109.292 26.1624 109.27 26.1815 109.253 26.2045C109.236 26.2275 109.223 26.2537 109.217 26.2816C109.21 26.3095 109.209 26.3385 109.214 26.3668Z" fill="#EAB669"/>
        <path d="M67.6001 21.233L68.1435 24.776C68.1494 24.8195 68.1687 24.8601 68.1985 24.8923C68.2284 24.9246 68.2674 24.947 68.3104 24.9564C68.3534 24.9659 68.3983 24.9619 68.439 24.9452C68.4798 24.9284 68.5144 24.8996 68.5381 24.8627L71.1264 20.9118C71.1497 20.8774 71.1626 20.8369 71.1632 20.7954C71.1638 20.7539 71.1522 20.7131 71.1299 20.678C71.1077 20.6429 71.0758 20.615 71.0378 20.5976C70.9999 20.5803 70.9577 20.5744 70.9165 20.5804L67.7848 20.9883C67.7564 20.992 67.729 21.0013 67.7042 21.0157C67.6795 21.0301 67.6579 21.0493 67.6407 21.0721C67.6235 21.0949 67.6111 21.1208 67.6041 21.1485C67.5972 21.1761 67.5958 21.2048 67.6001 21.233Z" fill="#EAB669"/>
        <path d="M77.325 23.7817L74.3418 25.7852C74.3053 25.8101 74.2773 25.8454 74.2612 25.8864C74.2451 25.9275 74.2417 25.9724 74.2517 26.0153C74.2617 26.0582 74.2845 26.0972 74.317 26.127C74.3496 26.1569 74.3903 26.1764 74.4341 26.1828L79.1292 26.815C79.1705 26.8211 79.2126 26.8151 79.2506 26.7978C79.2885 26.7805 79.3204 26.7525 79.3427 26.7174C79.3649 26.6823 79.3766 26.6415 79.3759 26.6C79.3753 26.5585 79.3625 26.5181 79.3392 26.4836L77.6326 23.8429C77.6165 23.8187 77.5957 23.7978 77.5715 23.7816C77.5473 23.7654 77.5203 23.7541 77.4917 23.7484C77.4631 23.7427 77.4334 23.7427 77.4048 23.7484C77.3762 23.7542 77.3492 23.7655 77.325 23.7817Z" fill="#71A5D2"/>
        <path d="M68.8621 34.9166C68.9296 34.9617 68.9866 35.0206 69.0293 35.0894C69.0719 35.1582 69.0992 35.2352 69.1094 35.3154C69.1196 35.3956 69.1124 35.477 69.0883 35.5542C69.0642 35.6314 69.0238 35.7026 68.9697 35.7629C68.3399 36.412 67.5 36.8191 66.5979 36.9124C65.6958 37.0056 64.7897 36.7791 64.0392 36.2727C63.2861 35.767 62.7371 35.0126 62.4895 34.143C62.2418 33.2735 62.3114 32.3448 62.686 31.5214C62.7224 31.4498 62.7736 31.3868 62.8364 31.3364C62.8991 31.286 62.9721 31.2495 63.0501 31.2293C63.1281 31.209 63.2096 31.2055 63.2891 31.2189C63.3686 31.2324 63.4442 31.2625 63.5111 31.3073L68.8621 34.9166Z" fill="#EAB669"/>
        <path d="M120.353 44.8518C120.403 44.8832 120.445 44.925 120.476 44.9744C120.508 45.0237 120.528 45.0793 120.535 45.1372C120.542 45.1951 120.537 45.2539 120.519 45.3094C120.501 45.3649 120.471 45.4158 120.431 45.4584C119.98 45.928 119.376 46.2239 118.727 46.2938C118.078 46.3638 117.425 46.2033 116.884 45.8408C116.342 45.4773 115.947 44.9351 115.769 44.31C115.591 43.6849 115.641 43.0172 115.91 42.4251C115.935 42.3727 115.971 42.3263 116.016 42.2891C116.061 42.252 116.114 42.225 116.17 42.2099C116.227 42.1949 116.286 42.1923 116.344 42.2021C116.401 42.212 116.456 42.2342 116.504 42.2671L120.353 44.8518Z" fill="#71A5D2"/>
        <path d="M88.8624 11.4599C88.8338 11.4658 88.8043 11.4655 88.7758 11.4589C88.7474 11.4522 88.7207 11.4395 88.6978 11.4215C88.6748 11.4035 88.6561 11.3807 88.6429 11.3548C88.6298 11.3288 88.6225 11.3003 88.6217 11.2712C88.6123 10.9504 88.7178 10.6367 88.9197 10.3864C89.1217 10.1361 89.4067 9.9654 89.7236 9.90498C90.0398 9.84229 90.3681 9.89349 90.6498 10.0495C90.9315 10.2054 91.1482 10.456 91.2612 10.7563C91.2715 10.783 91.2757 10.8117 91.2735 10.8402C91.2713 10.8687 91.2627 10.8964 91.2485 10.9212C91.2343 10.9461 91.2149 10.9675 91.1914 10.9839C91.1679 11.0004 91.1409 11.0114 91.1126 11.0163L88.8624 11.4599Z" fill="#CE7783"/>
        <path d="M121.249 17.7405C121.233 17.7757 121.21 17.8072 121.182 17.8329C121.153 17.8586 121.119 17.8778 121.082 17.8894C121.045 17.901 121.006 17.9046 120.968 17.9C120.929 17.8954 120.892 17.8828 120.859 17.8628C120.5 17.6262 120.236 17.2709 120.114 16.8596C119.992 16.4483 120.02 16.0074 120.193 15.6146C120.368 15.2247 120.676 14.9087 121.062 14.7222C121.448 14.5358 121.888 14.4907 122.305 14.595C122.342 14.6049 122.377 14.6228 122.407 14.6475C122.437 14.6723 122.461 14.7032 122.478 14.7382C122.494 14.7731 122.503 14.8113 122.503 14.85C122.503 14.8887 122.495 14.9269 122.479 14.9621L121.249 17.7405Z" fill="#EAB669"/>
        <path d="M142.72 25.8311C142.682 25.8363 142.643 25.8331 142.606 25.8218C142.569 25.8105 142.535 25.7913 142.506 25.7656C142.478 25.7399 142.455 25.7083 142.44 25.6729C142.424 25.6376 142.417 25.5993 142.418 25.5609C142.444 25.1331 142.62 24.728 142.917 24.4167C143.213 24.1054 143.61 23.9077 144.038 23.8582C144.466 23.81 144.897 23.9142 145.256 24.1521C145.614 24.39 145.876 24.7464 145.996 25.1581C146.005 25.1952 146.007 25.2339 146 25.2716C145.994 25.3093 145.979 25.3452 145.957 25.3767C145.935 25.4082 145.907 25.4346 145.874 25.454C145.84 25.4735 145.803 25.4856 145.765 25.4895L142.72 25.8311Z" fill="#71A5D2"/>
    </g>
    <defs>
        <clipPath id="clip0_4761_18666">
            <rect width="146" height="210" fill="white"/>
        </clipPath>
    </defs>
</svg>
