<svg width="40" height="40" viewBox="0 0 40 40" fill="none" xmlns="http://www.w3.org/2000/svg">
    <path d="M35.832 0.833008H4.16536C2.32442 0.833008 0.832031 2.32539 0.832031 4.16634V35.833C0.832031 37.674 2.32442 39.1663 4.16536 39.1663H35.832C37.673 39.1663 39.1654 37.674 39.1654 35.833V4.16634C39.1654 2.32539 37.673 0.833008 35.832 0.833008Z" stroke="#161617" stroke-linecap="round" stroke-linejoin="round"/>
    <path d="M0.832031 9.16699H39.1654" stroke="#161617" stroke-linecap="round" stroke-linejoin="round"/>
    <path d="M6.66667 4.58301C6.74908 4.58301 6.82963 4.60744 6.89815 4.65323C6.96668 4.69901 7.02008 4.76409 7.05162 4.84022C7.08315 4.91636 7.0914 5.00014 7.07533 5.08096C7.05925 5.16179 7.01957 5.23603 6.9613 5.2943C6.90302 5.35257 6.82878 5.39226 6.74795 5.40834C6.66713 5.42441 6.58335 5.41616 6.50722 5.38462C6.43108 5.35309 6.36601 5.29968 6.32022 5.23116C6.27444 5.16264 6.25 5.08208 6.25 4.99967C6.25 4.88917 6.2939 4.78319 6.37204 4.70505C6.45018 4.62691 6.55616 4.58301 6.66667 4.58301" stroke="#161617" stroke-linecap="round" stroke-linejoin="round"/>
    <path d="M11.6667 4.58301C11.7491 4.58301 11.8296 4.60744 11.8982 4.65323C11.9667 4.69901 12.0201 4.76409 12.0516 4.84022C12.0832 4.91636 12.0914 5.00014 12.0753 5.08096C12.0593 5.16179 12.0196 5.23603 11.9613 5.2943C11.903 5.35257 11.8288 5.39226 11.748 5.40834C11.6671 5.42441 11.5834 5.41616 11.5072 5.38462C11.4311 5.35309 11.366 5.29968 11.3202 5.23116C11.2744 5.16264 11.25 5.08208 11.25 4.99967C11.25 4.88917 11.2939 4.78319 11.372 4.70505C11.4502 4.62691 11.5562 4.58301 11.6667 4.58301Z" stroke="#161617" stroke-linecap="round" stroke-linejoin="round"/>
    <path d="M16.6667 4.58301C16.7491 4.58301 16.8296 4.60744 16.8982 4.65323C16.9667 4.69901 17.0201 4.76409 17.0516 4.84022C17.0832 4.91636 17.0914 5.00014 17.0753 5.08096C17.0593 5.16179 17.0196 5.23603 16.9613 5.2943C16.903 5.35257 16.8288 5.39226 16.748 5.40834C16.6671 5.42441 16.5834 5.41616 16.5072 5.38462C16.4311 5.35309 16.366 5.29968 16.3202 5.23116C16.2744 5.16264 16.25 5.08208 16.25 4.99967C16.25 4.88917 16.2939 4.78319 16.372 4.70505C16.4502 4.62691 16.5562 4.58301 16.6667 4.58301Z" stroke="#161617" stroke-linecap="round" stroke-linejoin="round"/>
    <path d="M33.332 14.167H6.66536C6.20513 14.167 5.83203 14.5401 5.83203 15.0003V18.3337C5.83203 18.7939 6.20513 19.167 6.66536 19.167H33.332C33.7923 19.167 34.1654 18.7939 34.1654 18.3337V15.0003C34.1654 14.5401 33.7923 14.167 33.332 14.167Z" stroke="#161617" stroke-linecap="round" stroke-linejoin="round"/>
    <path d="M9.9987 22.5H6.66536C6.20513 22.5 5.83203 22.8731 5.83203 23.3333V33.3333C5.83203 33.7936 6.20513 34.1667 6.66536 34.1667H9.9987C10.4589 34.1667 10.832 33.7936 10.832 33.3333V23.3333C10.832 22.8731 10.4589 22.5 9.9987 22.5Z" stroke="#161617" stroke-linecap="round" stroke-linejoin="round"/>
    <path d="M15.832 24.167H32.4987" stroke="#161617" stroke-linecap="round" stroke-linejoin="round"/>
    <path d="M15.832 27.5H32.4987" stroke="#161617" stroke-linecap="round" stroke-linejoin="round"/>
    <path d="M15.832 30.833H32.4987" stroke="#161617" stroke-linecap="round" stroke-linejoin="round"/>
    <path d="M15.832 34.167H27.4987" stroke="#161617" stroke-linecap="round" stroke-linejoin="round"/>
</svg>
