<svg width="618" height="474" viewBox="0 0 618 474" fill="none" xmlns="http://www.w3.org/2000/svg">
<path d="M324.634 216.83C313.644 223.973 305.402 244.304 308.149 245.953C309.63 246.841 315.311 236.811 323.535 228.918C330.574 222.163 339.47 220.127 341.119 216.28C342.767 212.434 335.624 209.686 324.634 216.83Z" fill="#403E3E"/>
<path d="M281.774 214.632C270.784 221.775 262.542 242.106 265.29 243.755C266.77 244.643 272.451 234.613 280.675 226.721C287.714 219.965 296.61 217.929 298.259 214.083C299.907 210.236 292.764 207.489 281.774 214.632Z" fill="#403E3E"/>
<path d="M310.014 109.795C302.412 99.1169 281.751 91.7408 280.22 94.5554C279.396 96.072 289.657 101.324 297.889 109.208C304.936 115.955 307.346 124.757 311.259 126.242C315.171 127.726 317.615 120.473 310.014 109.795Z" fill="#403E3E"/>
<path d="M335.29 85.6176C327.689 74.9395 307.028 67.5634 305.497 70.3781C304.672 71.8946 314.933 77.1468 323.166 85.0302C330.212 91.7778 332.623 100.58 336.535 102.064C340.448 103.549 342.891 96.2958 335.29 85.6176Z" fill="#403E3E"/>
<path d="M463.394 202.677C462.957 203.169 462.188 203.169 461.751 202.677L454.679 194.716C454.05 194.007 454.553 192.887 455.501 192.887L469.644 192.887C470.592 192.887 471.095 194.007 470.465 194.716L463.394 202.677Z" fill="#CE7783"/>
<path d="M68.0408 303.609C68.0408 300.574 70.501 298.114 73.5357 298.114H154.86C157.894 298.114 160.355 300.574 160.355 303.609V349.766C160.355 362.511 150.022 372.844 137.276 372.844H91.1193C78.3734 372.844 68.0408 362.511 68.0408 349.766V303.609Z" fill="#EAB669"/>
<path d="M580.826 362.735C601.357 362.735 618 346.116 618 325.615C618 305.114 601.357 288.494 580.826 288.494C560.295 288.494 543.652 305.114 543.652 325.615C543.652 346.116 560.295 362.735 580.826 362.735Z" fill="#CE7783"/>
<path d="M77.3279 214.63C71.3675 209.766 56.2216 193.555 39.4632 145.502C39.4632 145.502 14.4652 111.207 1.95342 112.118C-10.5584 113.028 40.0203 238.572 68.7164 236.507C74.8119 235.799 79.692 232.157 81.296 227.031C81.9401 224.804 81.9065 222.436 81.2 220.228C80.4935 218.02 79.1458 216.072 77.3279 214.63Z" fill="#71A5D2"/>
<path d="M97.7911 188.522C95.2583 165.161 83.1261 42.5255 28.4018 20.8933C28.1679 20.7942 27.9205 20.7314 27.6676 20.7076C11.5086 19.4515 50.9351 185.613 80.8047 199.844C85.7013 201.774 89.3823 201.209 92.0755 199.742C94.0318 198.645 95.6183 196.994 96.6356 194.997C97.6528 193 98.0552 190.747 97.7911 188.522Z" fill="#71A5D2"/>
<path d="M273.193 47.6501C271.394 50.9464 269.41 54.3438 267.207 57.7665C266.624 58.677 266.025 59.5875 265.417 60.5064C260.307 68.1745 254.517 75.3691 248.118 82.0037C247.477 82.6612 246.835 83.3106 246.185 83.9598C236.783 93.3456 226.116 101.376 214.492 107.817C212.044 109.178 209.682 110.549 207.409 111.931C206.472 112.488 205.551 113.061 204.648 113.617C199.714 116.696 194.975 120.075 190.456 123.734C189.831 124.24 189.223 124.746 188.624 125.268C169.704 141.37 160.249 160.406 159.438 187.079C159.396 188.529 159.379 190.005 159.388 191.497C159.476 199.815 160.167 208.115 161.456 216.333C161.583 217.176 161.718 218.078 161.87 218.971C159.702 219.941 157.388 220.545 155.023 220.759C144.107 221.458 137.876 216.721 134.339 210.727C133.419 209.139 132.653 207.468 132.051 205.736C131.84 205.137 131.646 204.53 131.477 203.923C129.417 196.527 130.015 188.645 133.165 181.642C135.023 177.427 137.648 171.753 140.992 164.992C141.011 164.967 141.025 164.938 141.034 164.908C150.376 145.95 161.017 127.658 172.879 110.161L174.432 107.91C180.716 98.8203 187.46 90.0556 194.635 81.6497L196.053 80.006C201.681 73.5259 207.659 67.3567 213.96 61.5264C215.541 60.0764 217.137 58.6548 218.747 57.261C226.257 50.7157 234.38 44.9058 243.002 39.9114L244.522 39.0683C252.654 34.5039 261.347 31.0154 270.381 28.6905C272.255 28.1173 273.598 28.37 274.467 29.3648C275.247 30.4133 275.67 31.684 275.675 32.9901C275.852 36.3369 274.965 41.3611 273.193 47.6501Z" fill="#71A5D2"/>
<path d="M60.5618 357.541C60.4836 357.542 60.4067 357.521 60.3396 357.481C60.2725 357.441 60.2177 357.383 60.1817 357.313C58.1092 353.159 57.0422 348.576 57.0665 343.934V291.574C57.0665 290.456 57.5112 289.384 58.3028 288.593C59.0944 287.803 60.1682 287.359 61.2878 287.359H149.596C150.716 287.359 151.79 287.803 152.581 288.593C153.373 289.384 153.818 290.456 153.818 291.574V308.679C153.818 308.791 153.773 308.898 153.694 308.977C153.615 309.056 153.507 309.1 153.396 309.1C153.284 309.1 153.176 309.056 153.097 308.977C153.018 308.898 152.973 308.791 152.973 308.679V291.574C152.973 290.679 152.617 289.821 151.984 289.189C151.351 288.557 150.492 288.202 149.596 288.202H61.2878C60.3921 288.202 59.533 288.557 58.8997 289.189C58.2664 289.821 57.9108 290.679 57.9108 291.574V343.934C57.9002 348.44 58.9437 352.885 60.9584 356.917C60.9843 356.966 61.0003 357.02 61.005 357.075C61.0096 357.13 61.0029 357.186 60.9856 357.239C60.9683 357.291 60.9406 357.34 60.904 357.382C60.8674 357.424 60.8229 357.457 60.7729 357.482C60.7101 357.522 60.6365 357.543 60.5618 357.541Z" fill="#E3E3E3"/>
<path d="M123.822 373.921H87.0459C81.9559 373.922 76.9495 372.628 72.4995 370.161C72.4506 370.134 72.4075 370.099 72.3725 370.055C72.3376 370.012 72.3116 369.963 72.2959 369.909C72.2802 369.856 72.2754 369.8 72.2814 369.745C72.2874 369.69 72.3042 369.636 72.3309 369.588C72.3874 369.492 72.4787 369.422 72.5857 369.392C72.6926 369.362 72.8068 369.375 72.9047 369.428C77.2324 371.822 82.0985 373.077 87.0459 373.078H123.822C131.553 373.067 138.965 369.994 144.432 364.534C149.898 359.074 152.973 351.672 152.982 343.951V338.648C152.982 338.537 153.026 338.429 153.106 338.35C153.185 338.271 153.292 338.227 153.404 338.227C153.515 338.229 153.622 338.274 153.7 338.353C153.779 338.431 153.824 338.537 153.826 338.648V343.934C153.822 351.881 150.66 359.502 145.035 365.124C139.41 370.746 131.78 373.91 123.822 373.921Z" fill="#E3E3E3"/>
<path d="M123.022 378.499H87.8417V374.992C87.8438 374.881 87.8887 374.775 87.9674 374.697C88.0461 374.618 88.1525 374.573 88.2638 374.571C88.3758 374.571 88.4831 374.615 88.5623 374.694C88.6414 374.773 88.6859 374.88 88.6859 374.992V377.656H122.177V376.501C122.177 376.389 122.222 376.282 122.301 376.203C122.38 376.124 122.487 376.08 122.599 376.08C122.711 376.08 122.819 376.124 122.898 376.203C122.977 376.282 123.022 376.389 123.022 376.501V378.499Z" fill="#E3E3E3"/>
<path d="M140.884 165.641L126.987 148.351C126.947 148.308 126.917 148.258 126.897 148.203C126.877 148.148 126.869 148.09 126.873 148.031C126.878 147.973 126.894 147.916 126.921 147.865C126.948 147.813 126.986 147.768 127.032 147.731C127.078 147.695 127.13 147.669 127.187 147.654C127.243 147.639 127.302 147.636 127.36 147.645C127.418 147.654 127.473 147.675 127.522 147.707C127.572 147.738 127.614 147.779 127.646 147.828L138.267 161.03L128.642 144.077L138.343 127.047L150.305 138.74L140.369 123.987L140.597 123.743C140.647 123.684 145.89 118.002 151.808 111.78C151.889 111.702 151.996 111.659 152.108 111.659C152.22 111.659 152.328 111.702 152.408 111.78C152.447 111.819 152.479 111.866 152.5 111.917C152.522 111.969 152.533 112.024 152.533 112.08C152.533 112.135 152.522 112.19 152.5 112.242C152.479 112.293 152.447 112.34 152.408 112.379C147.19 117.858 142.496 122.925 141.433 124.08L155.599 145.114L138.528 128.43L129.613 144.136L141.584 165.212L140.884 165.641Z" fill="#E3E3E3"/>
<path d="M129.548 211.857L129.033 211.132C127.041 208.299 125.236 205.34 123.63 202.272C123.58 202.172 123.572 202.057 123.606 201.951C123.641 201.845 123.716 201.757 123.816 201.707C123.864 201.681 123.918 201.664 123.973 201.659C124.028 201.654 124.083 201.66 124.136 201.676C124.189 201.693 124.237 201.719 124.28 201.755C124.322 201.791 124.356 201.835 124.381 201.884C125.829 204.655 127.445 207.335 129.219 209.91C137.704 179.619 153.432 149.658 175.965 120.843L167.894 96.9853C166.628 98.0475 164.728 99.8264 162.237 102.305C162.158 102.384 162.05 102.429 161.938 102.429C161.825 102.429 161.717 102.384 161.638 102.305C161.559 102.226 161.514 102.118 161.514 102.006C161.514 101.893 161.559 101.786 161.638 101.706C164.483 98.8822 166.569 96.9516 167.835 95.9484L168.307 95.5775L176.911 121.003L176.776 121.189C153.981 150.24 138.21 180.454 129.784 210.997L129.548 211.857Z" fill="#E3E3E3"/>
<path d="M159.34 191.944C159.284 191.956 159.227 191.956 159.171 191.944C153.143 189.204 148.686 186.793 148.643 186.768L147.352 186.068L148.812 185.975C152.38 185.857 155.951 186.108 159.467 186.726C159.576 186.744 159.673 186.805 159.738 186.895C159.803 186.985 159.83 187.097 159.813 187.206C159.792 187.316 159.729 187.414 159.638 187.478C159.547 187.543 159.434 187.569 159.323 187.552C156.415 187.064 153.474 186.802 150.526 186.768H150.45C152.231 187.687 155.516 189.356 159.517 191.168C159.618 191.218 159.696 191.304 159.735 191.409C159.775 191.514 159.772 191.63 159.728 191.733C159.689 191.8 159.631 191.855 159.563 191.892C159.495 191.929 159.418 191.947 159.34 191.944Z" fill="#E3E3E3"/>
<path d="M145.028 219.166H144.775C144.663 219.166 144.556 219.121 144.477 219.042C144.397 218.963 144.353 218.856 144.353 218.744C144.353 218.632 144.397 218.525 144.477 218.446C144.556 218.367 144.663 218.323 144.775 218.323C144.859 218.331 144.944 218.331 145.028 218.323C150.534 218.343 156.012 217.557 161.289 215.987C161.401 215.955 161.521 215.968 161.623 216.024C161.725 216.081 161.801 216.175 161.833 216.287C161.866 216.398 161.852 216.518 161.796 216.62C161.74 216.722 161.645 216.798 161.533 216.83C156.175 218.408 150.614 219.194 145.028 219.166Z" fill="#E3E3E3"/>
<path d="M132.82 215.844H132.701C132.595 215.811 132.506 215.738 132.452 215.641C132.399 215.543 132.385 215.429 132.414 215.322C132.837 213.914 133.335 212.337 133.892 210.634C139.371 193.934 152.626 160.339 179.777 123.094L179.937 122.866L188.675 124.898C188.783 124.926 188.875 124.994 188.933 125.088C188.991 125.182 189.011 125.295 188.987 125.404C188.975 125.458 188.953 125.509 188.921 125.555C188.889 125.601 188.848 125.64 188.801 125.669C188.754 125.699 188.701 125.719 188.646 125.729C188.592 125.738 188.536 125.737 188.481 125.724L180.292 123.811C153.326 160.904 140.148 194.271 134.702 210.896C134.145 212.582 133.656 214.158 133.234 215.558C133.206 215.644 133.15 215.719 133.075 215.771C133 215.823 132.911 215.849 132.82 215.844Z" fill="#E3E3E3"/>
<path d="M265.38 60.9447H265.236C256.413 57.6737 255.789 56.5865 255.578 56.224L255.189 55.5493H255.966C259.782 55.8239 263.567 56.4276 267.279 57.3535C267.387 57.3832 267.478 57.4535 267.535 57.5495C267.592 57.6454 267.609 57.7593 267.583 57.8677C267.555 57.9766 267.486 58.0703 267.389 58.1286C267.293 58.1869 267.178 58.2052 267.068 58.1797C263.83 57.3754 260.537 56.8119 257.215 56.4936C259.877 57.9378 262.66 59.148 265.531 60.1103C265.635 60.15 265.719 60.2287 265.765 60.3297C265.811 60.4307 265.815 60.5459 265.776 60.6499C265.752 60.736 265.7 60.8114 265.628 60.8648C265.556 60.9182 265.469 60.9461 265.38 60.9447Z" fill="#E3E3E3"/>
<path d="M190.408 124.181H190.315L181.298 122.014C181.186 121.988 181.089 121.92 181.028 121.822C180.967 121.725 180.948 121.608 180.974 121.496C180.999 121.384 181.068 121.287 181.166 121.226C181.263 121.165 181.381 121.145 181.493 121.171L190.509 123.338C190.564 123.351 190.615 123.374 190.661 123.407C190.706 123.44 190.744 123.482 190.773 123.53C190.803 123.578 190.822 123.631 190.83 123.686C190.838 123.742 190.836 123.798 190.822 123.852C190.802 123.947 190.75 124.031 190.674 124.091C190.599 124.151 190.504 124.183 190.408 124.181Z" fill="#E3E3E3"/>
<path d="M204.599 114.065C204.546 114.077 204.492 114.077 204.439 114.065C201.45 112.809 199.492 111.78 199.475 111.772L197.786 110.87L199.728 110.979C199.728 110.979 203.155 111.182 207.436 111.561C207.544 111.572 207.644 111.623 207.716 111.704C207.788 111.786 207.827 111.891 207.824 111.999C207.82 112.108 207.773 112.211 207.695 112.287C207.616 112.362 207.511 112.404 207.402 112.404C205.182 112.202 203.181 112.059 201.813 111.957C202.607 112.337 203.62 112.801 204.802 113.289C204.857 113.301 204.91 113.322 204.957 113.354C205.004 113.385 205.044 113.425 205.076 113.472C205.107 113.519 205.129 113.572 205.14 113.627C205.151 113.683 205.151 113.74 205.14 113.795C205.128 113.85 205.106 113.903 205.075 113.95C205.043 113.997 205.003 114.037 204.956 114.069C204.909 114.1 204.856 114.122 204.801 114.133C204.745 114.143 204.688 114.144 204.633 114.133L204.599 114.065Z" fill="#E3E3E3"/>
<path d="M246.181 84.3994C246.14 84.4073 246.097 84.4073 246.055 84.3994L232.488 79.8891L232.69 79.046L248.182 81.5751C248.237 81.5834 248.29 81.6025 248.337 81.6311C248.385 81.6597 248.427 81.6972 248.459 81.7418C248.492 81.7865 248.516 81.837 248.53 81.8908C248.543 81.9447 248.545 82.0007 248.537 82.0555C248.516 82.1654 248.454 82.2631 248.362 82.3276C248.271 82.3921 248.158 82.4185 248.047 82.4013L237.815 80.7152L246.317 83.5477C246.423 83.5824 246.511 83.658 246.562 83.7576C246.612 83.8572 246.621 83.9725 246.587 84.0787C246.564 84.1694 246.512 84.2504 246.439 84.3084C246.366 84.3664 246.275 84.3984 246.181 84.3994Z" fill="#E3E3E3"/>
<path d="M177.795 117.715C177.709 117.716 177.625 117.689 177.555 117.639C177.485 117.589 177.433 117.519 177.406 117.437L168.964 94.7341L191.489 74.2317L196.706 85.3763C196.437 83.6075 196.039 81.8608 195.516 80.1498C194.503 76.6428 193.228 73.338 193.219 73.3043V73.1524C193.219 72.3684 199.881 67.1837 213.017 57.7502L213.566 57.3624L216.444 73.9283L216.715 72.9503L218.547 53.9565L243.427 38.8412L243.326 39.9708C243.039 42.2219 243.408 44.5079 244.389 46.5549L243.976 38.3271L244.11 38.1921C246.086 36.3543 274.504 20.5642 285.242 18.9793C285.354 18.9626 285.468 18.9908 285.559 19.058C285.651 19.1252 285.711 19.2257 285.728 19.3375C285.745 19.4493 285.716 19.5631 285.649 19.654C285.582 19.7449 285.481 19.8056 285.369 19.8224C275.314 21.3145 247.724 36.4216 244.845 38.7062V39.0771L245.369 49.1428L244.592 48.3673C244.491 48.2662 242.11 45.8383 242.447 40.4429L219.349 54.4793L217.542 73.1186L216.284 77.6882L215.6 74.0292L212.966 58.8546C205.892 63.9128 195.161 71.871 194.106 73.1861C194.384 73.928 195.474 76.8449 196.36 79.9304C197.398 83.4795 197.82 86.017 197.635 87.467L197.449 88.909L191.244 75.6477L169.985 94.9872L178.2 117.167C178.22 117.218 178.23 117.274 178.228 117.329C178.227 117.384 178.215 117.438 178.192 117.489C178.169 117.539 178.136 117.584 178.096 117.621C178.055 117.659 178.007 117.688 177.955 117.707C177.902 117.718 177.848 117.722 177.795 117.715Z" fill="#E3E3E3"/>
<path d="M103.056 239.281L102.473 239.07V238.749C102.532 237.417 104.094 205.964 107.707 180.319C107.724 180.21 107.783 180.112 107.871 180.046C107.96 179.979 108.071 179.95 108.18 179.965C108.235 179.971 108.289 179.988 108.337 180.016C108.386 180.043 108.428 180.08 108.462 180.124C108.496 180.168 108.521 180.218 108.535 180.272C108.549 180.326 108.552 180.382 108.543 180.437C105.276 203.612 103.697 231.542 103.376 237.62C128.662 207.886 126.441 162.067 123.546 152.92C121.013 144.945 120.903 127.039 120.92 122.571C119.316 124.375 118.927 127.233 118.227 132.334C117.485 138.154 116.437 143.931 115.086 149.641C115.061 149.753 114.991 149.85 114.894 149.911C114.796 149.972 114.679 149.991 114.567 149.966C114.455 149.94 114.358 149.871 114.297 149.773C114.236 149.676 114.216 149.559 114.242 149.447C115.595 143.766 116.64 138.017 117.374 132.224C118.168 126.416 118.606 123.22 121.063 121.265L121.764 120.708V121.602C121.764 121.821 121.545 143.841 124.297 152.668C127.252 162 129.523 209.092 103.191 239.062L103.056 239.281Z" fill="#E3E3E3"/>
<path d="M90.3018 215.963L89.66 215.735C83.447 213.446 77.7965 209.855 73.0874 205.206C65.4892 197.888 59.7736 188.025 56.0252 175.893C45.2948 141.118 45.8015 140.874 46.2573 140.663L46.5863 140.512L46.7722 140.764L81.0571 165.465V165.617C83.7756 177.032 86.0299 188.041 87.7522 198.326C87.7694 198.437 87.743 198.55 87.6784 198.641C87.6137 198.733 87.5159 198.795 87.4059 198.815C87.2953 198.833 87.1823 198.806 87.0909 198.742C86.9995 198.677 86.9368 198.58 86.9161 198.47C85.2276 188.244 82.9738 177.31 80.2722 165.971L46.9326 141.945C47.38 144.027 49.2458 151.15 56.8018 175.666C59.6385 184.872 68.4609 206.959 89.2716 214.732C88.993 212.431 88.6806 210.028 88.326 207.591C88.3115 207.48 88.3414 207.367 88.4092 207.277C88.4771 207.187 88.5777 207.128 88.6892 207.111C88.7987 207.097 88.9095 207.126 88.9979 207.192C89.0863 207.258 89.1453 207.356 89.162 207.465C89.5503 210.154 89.8967 212.793 90.1922 215.314L90.3018 215.963Z" fill="#E3E3E3"/>
<path d="M94.0304 216.932H93.9125L93.4648 216.848L93.161 216.789V216.477C92.3927 209.395 91.3207 201.943 89.9868 194.339C89.9759 194.284 89.9759 194.227 89.9876 194.172C89.9993 194.117 90.022 194.066 90.0544 194.02C90.0868 193.974 90.1282 193.936 90.176 193.906C90.2238 193.877 90.2772 193.858 90.3327 193.85C90.3865 193.84 90.4417 193.841 90.4951 193.853C90.5485 193.865 90.5991 193.887 90.6439 193.918C90.6886 193.95 90.7268 193.989 90.756 194.036C90.7852 194.082 90.805 194.133 90.8141 194.187C92.1396 201.707 93.1947 209.067 93.9714 216.106C109.531 209.218 100.987 158.856 99.9488 153.072C94.8833 155.602 87.8846 162.877 84.9044 166.139C85.6896 169.402 86.4576 172.673 87.1667 175.876C87.1914 175.988 87.1708 176.105 87.109 176.201C87.0473 176.298 86.9493 176.366 86.8374 176.39C86.7254 176.415 86.6083 176.394 86.5117 176.333C86.4151 176.271 86.3471 176.174 86.3225 176.062C85.5964 172.791 84.8199 169.444 84.0094 166.123L83.9587 165.903L84.1104 165.735C87.1329 162.422 94.7312 154.463 100.075 152.069L100.565 151.85L100.658 152.373C102.409 162.088 103.512 171.908 103.959 181.769C104.736 202.002 101.426 213.855 94.1573 216.932H94.0304Z" fill="#E3E3E3"/>
<path d="M80.0564 163.525C79.9639 163.524 79.8747 163.492 79.8033 163.433L71.2338 156.967C71.1461 156.898 71.0884 156.798 71.0727 156.688C71.0569 156.578 71.0847 156.467 71.1498 156.376C71.1823 156.331 71.2237 156.293 71.2714 156.264C71.319 156.235 71.372 156.216 71.4272 156.208C71.4824 156.201 71.5386 156.204 71.5925 156.218C71.6464 156.233 71.6966 156.258 71.7405 156.292L80.3095 162.767C80.3804 162.82 80.4328 162.894 80.4592 162.978C80.4856 163.063 80.4847 163.153 80.4567 163.237C80.4287 163.321 80.3752 163.394 80.3034 163.446C80.2315 163.498 80.145 163.525 80.0564 163.525Z" fill="#E3E3E3"/>
<path d="M59.3458 147.878C59.2551 147.875 59.1671 147.845 59.0923 147.794L43.5582 136.034V135.891L37.6484 113.129L60.0042 114.629L63.2967 110.633C63.3292 110.584 63.3718 110.542 63.4216 110.511C63.4713 110.479 63.5273 110.458 63.5856 110.449C63.644 110.44 63.7035 110.444 63.7604 110.459C63.8173 110.475 63.8706 110.502 63.9162 110.54C63.9619 110.577 63.9993 110.623 64.0259 110.676C64.0525 110.729 64.0675 110.786 64.0704 110.845C64.0733 110.904 64.0637 110.963 64.0424 111.018C64.0211 111.073 63.9886 111.123 63.9467 111.165L60.3756 115.498H60.1645L38.7545 114.065L44.3179 135.57L59.6327 147.145C59.7223 147.212 59.7814 147.312 59.7972 147.423C59.8131 147.533 59.7844 147.646 59.7173 147.735C59.6715 147.787 59.6137 147.827 59.5491 147.852C59.4844 147.877 59.4147 147.886 59.3458 147.878Z" fill="#E3E3E3"/>
<path d="M83.68 163.475C83.5984 163.474 83.5187 163.449 83.4508 163.404C83.383 163.358 83.3297 163.295 83.2975 163.22C83.2653 163.145 83.2555 163.062 83.2695 162.981C83.2834 162.901 83.3207 162.827 83.3762 162.767C86.4662 159.521 94.1065 151.732 99.0369 148.52L91.2024 122.318L82.9792 128.869L89.5646 118.583L86.6098 111.418C85.1745 112.471 80.6238 115.919 79.2308 117.884V118.171H79.0874C78.9985 118.363 78.9194 118.56 78.8507 118.76L78.0065 120.994V118.617C78.0271 118.259 78.1505 117.913 78.3614 117.622V117.563L78.4624 117.344C79.3827 115.27 81.6791 110.786 85.2671 108.071L78.7497 94.1861L68.7791 106.241C68.7075 106.327 68.6042 106.382 68.4926 106.392C68.381 106.402 68.27 106.368 68.1838 106.296C68.0976 106.225 68.0433 106.122 68.033 106.01C68.0227 105.899 68.0574 105.788 68.129 105.702L78.9439 92.6182L86.3311 108.349L86.0438 108.551C83.7085 110.372 81.7915 112.672 80.4213 115.296C82.3541 113.566 84.3744 111.937 86.4746 110.414L86.9049 110.102L90.4423 118.668L86.3649 125.032L91.5821 120.877L99.9657 148.882L99.6956 149.059C94.8496 152.102 87.0315 160.069 83.9162 163.348C83.8529 163.415 83.7703 163.459 83.68 163.475Z" fill="#E3E3E3"/>
<path d="M68.5135 106.393C68.4246 106.394 68.3382 106.364 68.2686 106.309C68.1801 106.243 68.1211 106.146 68.1037 106.037C68.0864 105.928 68.1122 105.817 68.1758 105.727L78.0026 91.9771L60.2734 55.9206L51.924 60.0263C51.7895 60.0905 51.6364 60.1044 51.4924 60.0658C51.3484 60.0271 51.2229 59.9384 51.1387 59.8155C51.0567 59.6935 51.022 59.5459 51.0406 59.4002C51.0592 59.2544 51.1301 59.1206 51.2401 59.0231L58.1965 52.7341C47.0778 32.3412 38.4917 27.8644 34.3465 27.013C34.2345 26.9895 34.1365 26.9226 34.074 26.8269C34.0115 26.7313 33.9895 26.6148 34.013 26.503C34.0365 26.3912 34.1035 26.2933 34.1993 26.2309C34.2951 26.1684 34.4118 26.1465 34.5237 26.17C38.821 27.0551 47.7366 31.6668 59.1002 52.6077L59.2519 52.9025L53.0214 58.5341L60.6617 54.7742L78.999 92.0446L68.8849 106.199C68.8441 106.26 68.7886 106.309 68.7237 106.343C68.6588 106.377 68.5867 106.394 68.5135 106.393Z" fill="#E3E3E3"/>
<path d="M27.5674 38.2844C27.512 38.2833 27.4574 38.2712 27.4066 38.249C27.3558 38.2267 27.3098 38.195 27.2714 38.1551C27.233 38.1152 27.2026 38.0679 27.1824 38.0164C27.1622 37.9648 27.1524 37.91 27.1535 37.8546C27.2295 31.279 28.4877 27.4682 30.9951 26.2205C31.6745 26.0098 32.3887 25.9355 33.0971 26.0015C33.1522 26.0037 33.2063 26.0165 33.2562 26.0398C33.3061 26.0631 33.3511 26.0965 33.3881 26.1374C33.4251 26.1782 33.4536 26.2258 33.4718 26.2777C33.49 26.3297 33.4975 26.385 33.4941 26.4399C33.4956 26.4964 33.4851 26.5525 33.4631 26.6046C33.4411 26.6566 33.4083 26.7033 33.3667 26.7416C33.3251 26.78 33.2757 26.8091 33.222 26.8269C33.1683 26.8446 33.1113 26.8506 33.055 26.8446C32.4737 26.7853 31.8862 26.8366 31.3241 26.996C29.205 28.0583 28.0738 31.7173 27.9978 37.8715C27.9967 37.9268 27.985 37.9813 27.9627 38.032C27.9405 38.0827 27.9083 38.1287 27.8683 38.167C27.8284 38.2054 27.7811 38.2354 27.7294 38.2555C27.6778 38.2757 27.6228 38.2855 27.5674 38.2844Z" fill="#E3E3E3"/>
<path d="M36.1302 93.824C36.0279 93.8227 35.9296 93.7844 35.8536 93.7162C35.7775 93.648 35.7286 93.5545 35.7163 93.4532L34.9565 86.5237L46.1936 90.1148L35.0918 84.8965L35.0411 84.7026C35.0411 84.5846 31.6638 72.1416 29.3337 58.9144C29.3228 58.8601 29.323 58.804 29.3341 58.7497C29.3453 58.6954 29.3673 58.6439 29.3988 58.5982C29.4304 58.5526 29.4707 58.5139 29.5176 58.4842C29.5644 58.4545 29.6166 58.4344 29.6713 58.4254C29.781 58.4057 29.8941 58.4301 29.9859 58.4933C30.0776 58.5564 30.1405 58.6531 30.1611 58.7625C32.3055 71.0708 35.3785 82.6878 35.809 84.298L50.8876 91.3962C51.01 91.4533 51.1058 91.555 51.156 91.6802C51.2062 91.8055 51.2068 91.9452 51.1577 92.0709C51.1067 92.1956 51.0107 92.2964 50.8889 92.3541C50.767 92.4118 50.6283 92.4219 50.4993 92.3825L35.936 87.7207L36.5523 93.3605C36.5642 93.4711 36.5316 93.582 36.462 93.6689C36.3924 93.7557 36.2911 93.8113 36.1805 93.824H36.1302Z" fill="#E3E3E3"/>
<path d="M59.6416 113.837L36.6106 112.151L38.6116 111.485C41.9379 110.642 45.7791 109.529 48.5905 108.627L46.5054 108.863C43.3141 109.209 38.9491 109.706 38.2484 110.381L37.6321 111.005L36.6782 102.288C36.6663 102.177 36.6985 102.066 36.7681 101.979C36.8376 101.892 36.939 101.837 37.0496 101.824C37.1599 101.814 37.2698 101.848 37.3563 101.917C37.4428 101.986 37.499 102.085 37.5138 102.195L38.2991 109.378C39.6499 108.796 42.5202 108.45 46.4122 108.02C48.3761 107.894 50.3269 107.612 52.2461 107.177L52.6175 107.051L52.8286 107.43C52.879 107.537 52.8862 107.659 52.8484 107.77C52.8106 107.882 52.731 107.974 52.6262 108.029C51.0221 108.931 44.8756 110.684 41.2622 111.671L59.4305 112.986L63.3648 110.541C63.4605 110.484 63.5748 110.466 63.6835 110.491C63.7921 110.516 63.8866 110.582 63.9473 110.676C63.9779 110.723 63.9989 110.775 64.0087 110.83C64.0185 110.885 64.0168 110.941 64.0042 110.995C63.9916 111.05 63.9684 111.101 63.9354 111.146C63.9024 111.191 63.8606 111.229 63.8125 111.258L59.6416 113.837Z" fill="#E3E3E3"/>
<path d="M34.7695 158.105L37.4712 143.107C26.1583 128.826 8.69072 107.506 6.63919 106.857C6.10732 106.697 5.94701 106.857 5.89635 106.916C5.39825 107.456 5.16177 109.875 9.18885 120.051C10.2517 123.039 11.1563 126.081 11.8989 129.164C11.9127 129.219 11.9155 129.277 11.9071 129.333C11.8987 129.39 11.8792 129.444 11.8498 129.493C11.8204 129.542 11.7815 129.584 11.7356 129.618C11.6897 129.652 11.6377 129.677 11.5823 129.691C11.5268 129.705 11.4694 129.708 11.4128 129.699C11.3563 129.691 11.3019 129.671 11.2529 129.642C11.2039 129.613 11.1612 129.574 11.1272 129.528C11.0931 129.482 11.0685 129.43 11.0546 129.375C10.3189 126.327 9.42571 123.318 8.3784 120.362C4.10649 109.563 4.46091 107.194 5.25451 106.343C5.46155 106.139 5.72537 106.002 6.01137 105.949C6.29736 105.897 6.59228 105.931 6.8585 106.048C9.83026 106.967 35.3269 139.061 38.2227 142.72L38.3406 142.863L36.9815 150.451L39.3539 144.676L39.8012 145.232C39.8012 145.232 42.883 149.068 47.2984 154.969C47.3317 155.013 47.3555 155.064 47.3693 155.117C47.3831 155.171 47.3862 155.227 47.3784 155.282C47.3705 155.336 47.3522 155.389 47.324 155.437C47.2957 155.484 47.2582 155.526 47.2139 155.559C47.1695 155.592 47.1192 155.616 47.0655 155.63C47.0118 155.644 46.9559 155.647 46.901 155.639C46.8461 155.631 46.7933 155.613 46.7456 155.584C46.6979 155.556 46.656 155.519 46.6228 155.475C43.1951 150.889 40.5947 147.584 39.5901 146.319L34.7695 158.105Z" fill="#E3E3E3"/>
<path d="M49.4011 231.811C49.3417 231.811 49.2832 231.799 49.2292 231.774C49.1752 231.749 49.127 231.713 49.0886 231.668C44.5225 226.276 40.2932 220.609 36.4249 214.698L36.079 214.149L36.7204 214.057C37.151 213.989 45.8721 212.733 52.1111 214.765C48.0672 211.553 39.6165 205.491 31.2584 203.384L31.0387 203.325L21.2032 174.325L22.0475 174.62C25.7887 175.952 29.4333 177.54 32.9551 179.374C29.9665 175.741 24.1074 169.098 19.692 167.049L19.5061 166.965L19.464 166.754C19.464 166.662 17.6153 157.641 15.378 147.55C15.3655 147.496 15.364 147.44 15.3735 147.385C15.3829 147.33 15.403 147.277 15.4328 147.23C15.4626 147.183 15.5014 147.143 15.547 147.111C15.5927 147.079 15.6443 147.056 15.6987 147.044C15.7525 147.032 15.8084 147.03 15.8628 147.04C15.9172 147.049 15.9689 147.07 16.0153 147.099C16.0617 147.129 16.1016 147.168 16.1328 147.213C16.1639 147.259 16.1857 147.311 16.1967 147.365C18.2482 156.638 19.9623 164.976 20.2493 166.383C26.5728 169.46 35.2007 180.808 35.5637 181.297L34.9054 181.819C33.276 179.838 25.2135 176.702 22.5879 175.716L31.7143 202.617C43.3481 205.618 55.041 216.105 55.1591 216.181L54.6439 216.847C49.7388 213.644 40.1227 214.504 37.5309 214.807C41.2728 220.481 45.3493 225.929 49.7387 231.12C49.7937 231.18 49.8298 231.255 49.8422 231.335C49.8546 231.416 49.8431 231.498 49.8088 231.572C49.7745 231.646 49.7192 231.708 49.6497 231.75C49.5802 231.793 49.4995 231.814 49.418 231.811H49.4011Z" fill="#E3E3E3"/>
<path d="M70.3976 244.288C67.3218 244.247 64.2851 243.593 61.4654 242.366C60.8452 242.095 60.2445 241.783 59.6672 241.43C59.582 241.367 59.5232 241.275 59.5028 241.171C59.4823 241.068 59.5016 240.96 59.5568 240.87C59.612 240.78 59.6991 240.714 59.8008 240.685C59.9025 240.656 60.0117 240.666 60.1063 240.713C60.6506 241.03 61.2146 241.311 61.7948 241.556C66.6577 243.655 73.555 244.6 78.3335 241C82.8925 237.569 84.6233 230.58 83.3401 220.767C83.3328 220.712 83.3366 220.655 83.3512 220.602C83.3657 220.548 83.3909 220.497 83.425 220.453C83.4591 220.409 83.5014 220.372 83.5499 220.344C83.5983 220.316 83.6519 220.298 83.7074 220.291C83.7628 220.284 83.8191 220.287 83.8731 220.302C83.927 220.316 83.9776 220.342 84.0219 220.376C84.0662 220.41 84.1033 220.452 84.1311 220.5C84.159 220.549 84.1771 220.602 84.1843 220.658C85.8728 233.421 82.2087 239.112 78.857 241.641C76.4054 243.428 73.4322 244.358 70.3976 244.288Z" fill="#E3E3E3"/>
<path d="M81.7615 361.554C78.7728 361.554 76.4342 359.699 75.0075 356.108C72.213 349.111 72.8463 342.619 76.8312 337.232C82.1837 330.041 92.8213 325.809 106.22 325.261C106.408 322.43 106.005 319.591 105.037 316.924C104.465 315.256 103.507 313.746 102.242 312.517C100.976 311.288 99.4373 310.374 97.7515 309.85C84.4799 305.635 61.0268 320.869 60.7904 321.021C60.7447 321.057 60.6917 321.084 60.635 321.1C60.5783 321.115 60.5191 321.118 60.4611 321.109C60.403 321.1 60.3473 321.079 60.2978 321.047C60.2483 321.016 60.2062 320.974 60.1737 320.926C60.1413 320.877 60.1193 320.821 60.1094 320.763C60.0995 320.706 60.1017 320.647 60.116 320.59C60.1304 320.533 60.1566 320.479 60.1927 320.433C60.2288 320.387 60.2741 320.349 60.3258 320.321C60.5622 320.161 84.362 304.708 98.005 309.05C99.815 309.609 101.467 310.588 102.825 311.907C104.184 313.226 105.211 314.846 105.823 316.637C106.824 319.393 107.238 322.328 107.038 325.253C110.106 325.172 113.175 325.265 116.232 325.531C144.768 328.001 150.205 323.162 150.255 323.12C150.334 323.043 150.44 322.999 150.551 322.999C150.661 322.999 150.768 323.043 150.847 323.12C150.886 323.159 150.917 323.206 150.939 323.257C150.96 323.308 150.971 323.364 150.971 323.419C150.971 323.475 150.96 323.53 150.939 323.581C150.917 323.633 150.886 323.679 150.847 323.719C150.635 323.929 145.3 328.895 116.156 326.374C113.108 326.1 110.047 326.007 106.988 326.096C105.882 340.292 94.3237 357.288 85.1636 360.871C84.0809 361.304 82.9278 361.536 81.7615 361.554ZM106.169 326.146C93.0661 326.694 82.6986 330.809 77.5064 337.78C73.7073 342.881 73.1163 349.128 75.8179 355.838C77.5824 360.264 80.723 361.739 84.8936 360.104C93.8427 356.58 105.105 339.964 106.169 326.104V326.146Z" fill="#E3E3E3"/>
<path d="M119.041 313.795C118.523 313.797 118.007 313.758 117.496 313.677C115.191 313.34 113.747 312.354 113.215 310.752C111.037 304.21 125.618 289.423 126.234 288.833C126.273 288.793 126.319 288.761 126.37 288.739C126.421 288.717 126.476 288.706 126.531 288.705C126.587 288.704 126.643 288.714 126.694 288.735C126.746 288.755 126.793 288.786 126.833 288.825C126.873 288.863 126.905 288.91 126.927 288.961C126.949 289.012 126.961 289.067 126.961 289.122C126.962 289.178 126.952 289.233 126.931 289.285C126.911 289.337 126.88 289.383 126.841 289.423C126.689 289.575 112 304.463 114.017 310.499C114.448 311.789 115.63 312.556 117.622 312.851C118.768 313.06 119.945 313.011 121.069 312.706C122.192 312.401 123.233 311.849 124.115 311.089C130.218 305.871 130.413 291.581 130.413 291.438C130.413 291.326 130.457 291.219 130.536 291.14C130.615 291.061 130.723 291.017 130.835 291.017C130.891 291.017 130.947 291.028 130.998 291.05C131.05 291.071 131.097 291.103 131.136 291.143C131.176 291.183 131.206 291.23 131.227 291.283C131.248 291.335 131.258 291.391 131.257 291.447C131.257 292.045 131.063 306.267 124.663 311.73C123.105 313.081 121.105 313.816 119.041 313.795Z" fill="#E3E3E3"/>
<path d="M114.374 370.212C114.309 370.215 114.245 370.2 114.188 370.17C114.138 370.145 114.094 370.112 114.057 370.07C114.02 370.028 113.992 369.98 113.974 369.927C113.956 369.875 113.948 369.82 113.952 369.764C113.955 369.709 113.97 369.655 113.994 369.605C114.112 369.36 126.177 345.199 148.684 349.692C148.739 349.703 148.79 349.725 148.836 349.756C148.882 349.787 148.922 349.827 148.952 349.873C148.983 349.919 149.004 349.971 149.014 350.025C149.025 350.08 149.025 350.135 149.014 350.19C148.989 350.298 148.924 350.393 148.831 350.454C148.738 350.516 148.625 350.539 148.515 350.518C126.658 346.151 114.863 369.74 114.745 369.976C114.711 370.045 114.658 370.104 114.593 370.146C114.527 370.187 114.452 370.21 114.374 370.212Z" fill="#E3E3E3"/>
<path d="M61.7263 306.47C61.6392 306.471 61.5539 306.445 61.4827 306.395C61.4114 306.345 61.3577 306.274 61.3293 306.192C61.294 306.085 61.3019 305.97 61.3507 305.869C61.3996 305.768 61.4857 305.69 61.5911 305.652C81.5829 298.621 84.3267 289.078 84.3858 288.985C84.3996 288.932 84.4238 288.881 84.4571 288.837C84.4905 288.792 84.5325 288.755 84.5804 288.727C84.6282 288.699 84.6812 288.68 84.7362 288.672C84.7912 288.665 84.8473 288.668 84.9011 288.682C85.0082 288.711 85.0993 288.782 85.1546 288.878C85.2099 288.975 85.2247 289.089 85.1963 289.196C85.0949 289.609 82.3684 299.245 61.8953 306.453L61.7263 306.47Z" fill="#E3E3E3"/>
<path d="M115.639 285.395H115.563C115.453 285.374 115.355 285.311 115.291 285.22C115.226 285.129 115.2 285.016 115.217 284.906C120.198 254.843 132.296 215.684 132.423 215.297C132.437 215.243 132.463 215.193 132.497 215.149C132.532 215.106 132.575 215.07 132.624 215.044C132.673 215.018 132.727 215.002 132.783 214.997C132.838 214.993 132.894 215 132.946 215.018C132.999 215.034 133.049 215.06 133.092 215.094C133.135 215.129 133.17 215.172 133.196 215.221C133.222 215.27 133.238 215.323 133.243 215.378C133.248 215.433 133.242 215.489 133.225 215.541C133.107 215.937 121.026 255.037 116.053 285.049C116.037 285.146 115.986 285.235 115.91 285.298C115.835 285.362 115.738 285.396 115.639 285.395Z" fill="#E3E3E3"/>
<path d="M87.9227 281.761C87.8288 281.762 87.7375 281.732 87.6626 281.675C87.5876 281.619 87.5336 281.539 87.5092 281.449C83.9207 268.523 79.6195 255.804 74.6257 243.352C74.6052 243.301 74.5953 243.246 74.596 243.19C74.5968 243.135 74.6083 243.08 74.6303 243.029C74.6522 242.978 74.684 242.932 74.7238 242.894C74.7636 242.855 74.8108 242.825 74.8624 242.804C74.9666 242.765 75.082 242.768 75.1843 242.812C75.2866 242.856 75.3679 242.937 75.411 243.04C80.4162 255.523 84.7283 268.273 88.3279 281.23C88.3563 281.339 88.3407 281.455 88.2838 281.553C88.2269 281.651 88.1334 281.723 88.0241 281.752L87.9227 281.761Z" fill="#E3E3E3"/>
<path d="M104.893 283.236C104.788 283.234 104.688 283.194 104.611 283.122C104.535 283.05 104.488 282.953 104.479 282.848C103.779 274.612 102.512 265.018 100.722 254.337C97.3453 234.104 93.1832 216.696 93.1241 216.527C93.1102 216.473 93.1075 216.416 93.1158 216.361C93.1241 216.305 93.1432 216.252 93.1723 216.204C93.2014 216.156 93.2399 216.115 93.2852 216.082C93.3306 216.049 93.382 216.025 93.4365 216.012C93.5449 215.989 93.6579 216.009 93.7523 216.067C93.8467 216.125 93.9152 216.217 93.9432 216.324C93.9854 216.501 98.1644 233.952 101.541 254.193C103.331 264.9 104.597 274.519 105.298 282.781C105.307 282.891 105.273 283.001 105.202 283.086C105.131 283.171 105.029 283.225 104.918 283.236H104.893Z" fill="#E3E3E3"/>
<path d="M95.0554 286.018H94.9626C94.9082 286.006 94.8566 285.984 94.8109 285.952C94.7653 285.92 94.7265 285.879 94.6967 285.832C94.6669 285.785 94.6464 285.732 94.6369 285.677C94.6275 285.623 94.629 285.567 94.6415 285.512C96.4988 277.166 98.5423 266.637 100.712 254.193C103 241.076 102.502 239.019 102.476 238.969C102.446 238.864 102.457 238.751 102.508 238.654C102.558 238.557 102.643 238.482 102.746 238.446C102.796 238.427 102.85 238.418 102.903 238.419C102.956 238.421 103.009 238.433 103.057 238.455C103.106 238.477 103.15 238.509 103.186 238.548C103.223 238.586 103.251 238.632 103.27 238.682C103.337 238.867 103.895 240.857 101.539 254.337C99.3696 266.789 97.3181 277.343 95.4692 285.698C95.4451 285.789 95.3915 285.87 95.3167 285.928C95.2419 285.986 95.15 286.017 95.0554 286.018Z" fill="#E3E3E3"/>
<path d="M177.792 117.715C177.698 117.713 177.606 117.68 177.531 117.622C177.444 117.552 177.388 117.451 177.375 117.341C177.363 117.23 177.394 117.119 177.463 117.032C187.206 104.758 198.046 94.481 208.532 84.5417C211.014 82.1896 213.487 79.8461 215.927 77.494L216.687 76.7605C234.697 59.5455 253.879 43.5964 274.096 29.0279C277.355 26.6843 280.698 24.3322 284.033 22.056C284.079 22.0241 284.131 22.0015 284.185 21.9897C284.24 21.978 284.296 21.9771 284.351 21.9873C284.406 21.9975 284.459 22.0188 284.506 22.0494C284.552 22.08 284.593 22.1193 284.624 22.1655C284.684 22.2581 284.706 22.3701 284.685 22.4784C284.665 22.5866 284.604 22.6827 284.514 22.7472C281.179 25.0233 277.845 27.367 274.594 29.7191C254.4 44.2587 235.24 60.1797 217.253 77.3672L216.493 78.1008C214.053 80.4528 211.579 82.7964 209.097 85.1484C198.637 95.0709 187.814 105.331 178.113 117.555C178.075 117.604 178.026 117.643 177.971 117.671C177.916 117.698 177.854 117.714 177.792 117.715Z" fill="#E3E3E3"/>
<path d="M181.388 122.015C181.299 122.015 181.213 121.986 181.144 121.931C181.054 121.864 180.995 121.764 180.977 121.654C180.96 121.544 180.986 121.432 181.05 121.34C191.778 106.823 203.589 93.1354 216.382 80.3945L216.467 80.327C234.432 62.4805 254.168 46.5043 275.37 32.645C277.405 31.3046 279.507 29.9642 281.626 28.6406C281.69 28.5997 281.763 28.576 281.838 28.5715C281.913 28.567 281.989 28.5816 282.057 28.6147C282.124 28.6478 282.183 28.6979 282.226 28.76C282.268 28.8221 282.295 28.8944 282.301 28.9695V29.2054L282.107 29.3404C279.98 30.6555 277.886 32.0042 275.834 33.353C254.661 47.1941 234.951 63.1475 217.007 80.9675L216.914 81.035C204.18 93.7393 192.42 107.382 181.734 121.846C181.694 121.899 181.641 121.942 181.581 121.971C181.521 122.001 181.455 122.015 181.388 122.015Z" fill="#E3E3E3"/>
<path d="M83.6769 163.475C83.5819 163.476 83.4894 163.445 83.4143 163.387C83.3393 163.329 83.2858 163.247 83.263 163.155C83.0266 162.185 82.7906 161.216 82.5458 160.246C78.3245 143.386 72.9297 125.421 66.505 106.807L65.9646 105.23C54.5756 72.5795 42.3255 44.5318 34.0603 26.7776C34.0141 26.6768 34.0096 26.5618 34.0475 26.4577C34.0855 26.3536 34.1629 26.2686 34.2631 26.221C34.3135 26.1968 34.3681 26.1832 34.4239 26.1803C34.4797 26.1774 34.5353 26.1853 34.588 26.2041C34.6406 26.223 34.6889 26.2521 34.7302 26.2898C34.7715 26.3274 34.8052 26.3729 34.8287 26.4235C43.1024 44.2031 55.3607 72.2674 66.7581 104.96L67.3068 106.528C73.7653 125.168 79.177 143.166 83.3475 160.036C83.5924 161.013 83.8289 161.983 84.0652 162.952C84.0792 163.006 84.0825 163.062 84.0747 163.117C84.067 163.172 84.0485 163.225 84.0203 163.273C83.9921 163.32 83.9547 163.362 83.9102 163.395C83.8658 163.429 83.8153 163.453 83.7614 163.467L83.6769 163.475Z" fill="#E3E3E3"/>
<path d="M68.7503 122.748C68.6611 122.748 68.5744 122.72 68.5029 122.666C68.4314 122.613 68.3792 122.538 68.3537 122.453C67.3406 119.199 66.2936 115.869 65.2129 112.547L65.154 112.37C65.002 111.881 64.8415 111.392 64.6811 110.904C55.96 84.1288 45.1959 55.7608 32.6841 26.6003C32.6416 26.4985 32.6406 26.3842 32.6817 26.2817C32.7227 26.1793 32.8023 26.0969 32.9034 26.0524C32.9544 26.0301 33.0094 26.0181 33.065 26.017C33.1207 26.016 33.1761 26.0259 33.2279 26.0463C33.2797 26.0666 33.3268 26.0969 33.3668 26.1356C33.4068 26.1743 33.4388 26.2204 33.4608 26.2714C45.981 55.4656 56.7538 83.859 65.4833 110.659L65.9644 112.126L66.0151 112.303C67.0958 115.633 68.1508 118.963 69.1555 122.217C69.1875 122.324 69.1762 122.44 69.1242 122.539C69.0721 122.638 68.9838 122.713 68.8772 122.748H68.7503Z" fill="#E3E3E3"/>
<path d="M80.0547 163.525C79.9589 163.524 79.8662 163.492 79.7912 163.432C79.7163 163.372 79.6637 163.289 79.6412 163.197C78.054 156.629 76.264 149.826 74.3729 142.964C74.3585 142.908 74.3551 142.851 74.363 142.794C74.3709 142.738 74.39 142.683 74.419 142.634C74.4481 142.584 74.4863 142.541 74.532 142.507C74.5777 142.472 74.6299 142.447 74.6853 142.433C74.7408 142.418 74.7985 142.415 74.8552 142.423C74.9119 142.431 74.9666 142.45 75.016 142.479C75.0653 142.508 75.1084 142.546 75.1429 142.592C75.1775 142.637 75.2027 142.689 75.2171 142.745C77.1167 149.607 78.8898 156.419 80.4854 162.978C80.4993 163.031 80.5023 163.086 80.4945 163.141C80.4867 163.195 80.468 163.247 80.4397 163.294C80.4114 163.341 80.374 163.382 80.3296 163.415C80.2853 163.447 80.2347 163.471 80.1812 163.483L80.0547 163.525Z" fill="#E3E3E3"/>
<path d="M68.112 225.371C68.0322 225.369 67.9544 225.345 67.8873 225.302C67.8202 225.259 67.7663 225.198 67.7319 225.126C58.1159 205.113 15.0341 124.333 14.6035 123.516C14.5769 123.468 14.5599 123.415 14.554 123.36C14.5482 123.305 14.5536 123.25 14.5693 123.198C14.585 123.145 14.6107 123.096 14.6456 123.054C14.6804 123.011 14.7235 122.977 14.7721 122.951C14.871 122.899 14.9861 122.888 15.0932 122.919C15.2003 122.951 15.2912 123.022 15.3463 123.119C15.7769 123.962 58.8672 204.733 68.4917 224.764C68.5161 224.814 68.5306 224.868 68.5341 224.923C68.5376 224.979 68.5303 225.034 68.5123 225.087C68.4942 225.139 68.4658 225.187 68.429 225.229C68.3922 225.271 68.3475 225.304 68.2975 225.329C68.2392 225.356 68.1762 225.37 68.112 225.371Z" fill="#E3E3E3"/>
<path d="M492.517 191.671C495.225 191.671 497.421 189.479 497.421 186.775C497.421 184.07 495.225 181.878 492.517 181.878C489.809 181.878 487.614 184.07 487.614 186.775C487.614 189.479 489.809 191.671 492.517 191.671Z" fill="#EAB669"/>
<path d="M426.652 191.671C429.36 191.671 431.555 189.479 431.555 186.775C431.555 184.07 429.36 181.878 426.652 181.878C423.944 181.878 421.748 184.07 421.748 186.775C421.748 189.479 423.944 191.671 426.652 191.671Z" fill="#EAB669"/>
<path d="M518.919 336.23C518.824 336.23 518.733 336.192 518.666 336.125C518.599 336.058 518.561 335.967 518.561 335.873V134.465C518.561 133.476 518.291 132.506 517.78 131.659C517.269 130.812 516.536 130.12 515.661 129.658C514.785 129.196 513.801 128.98 512.812 129.035C511.823 129.09 510.868 129.412 510.05 129.968L487.285 148.082C481.516 152.014 474.692 154.114 467.707 154.108H449.245C442.342 154.116 435.594 152.065 429.867 148.218L406.423 129.854C405.603 129.31 404.651 128.997 403.668 128.951C402.684 128.904 401.706 129.125 400.839 129.589C399.971 130.053 399.246 130.744 398.74 131.588C398.235 132.431 397.968 133.396 397.969 134.379V226.591C397.969 227.567 397.715 228.526 397.231 229.374C396.748 230.223 396.051 230.931 395.21 231.43C394.37 231.928 393.414 232.199 392.437 232.217C391.459 232.234 390.494 231.998 389.636 231.53C381.046 226.848 368.275 219.936 356.284 213.617C347.03 208.651 337.285 204.655 327.207 201.694C327.162 201.681 327.12 201.66 327.083 201.631C327.047 201.603 327.016 201.567 326.993 201.526C326.971 201.486 326.956 201.441 326.951 201.395C326.946 201.349 326.95 201.302 326.963 201.257C326.975 201.212 326.997 201.169 327.026 201.132C327.055 201.094 327.091 201.063 327.132 201.04C327.174 201.016 327.219 201.002 327.266 200.996C327.313 200.99 327.361 200.994 327.407 201.007C337.537 203.973 347.332 207.979 356.635 212.959C368.633 219.278 381.404 226.19 390.001 230.873C390.748 231.28 391.589 231.486 392.44 231.471C393.291 231.457 394.124 231.222 394.857 230.79C395.59 230.358 396.198 229.743 396.622 229.006C397.046 228.268 397.27 227.434 397.274 226.584V134.372C397.274 133.257 397.577 132.162 398.151 131.206C398.726 130.25 399.55 129.468 400.535 128.943C401.521 128.419 402.631 128.172 403.746 128.23C404.861 128.287 405.94 128.646 406.867 129.268L430.304 147.632C435.911 151.391 442.513 153.395 449.266 153.386H467.728C474.562 153.393 481.239 151.34 486.885 147.496L509.649 129.382C510.574 128.748 511.656 128.379 512.776 128.314C513.897 128.248 515.014 128.49 516.007 129.012C517 129.535 517.832 130.318 518.412 131.278C518.992 132.237 519.298 133.337 519.298 134.458V335.908C519.288 336 519.243 336.084 519.172 336.143C519.102 336.203 519.011 336.234 518.919 336.23Z" fill="#E3E3E3"/>
<path d="M235.192 235.004C234.603 235.006 234.018 234.888 233.476 234.656C232.935 234.423 232.447 234.082 232.043 233.653C226.237 227.584 216.909 215.068 219.623 199.163C223.517 181.328 248.257 168.726 276.891 154.129C292.403 146.23 308.445 138.067 322.798 128.267C322.877 128.214 322.974 128.194 323.067 128.212C323.113 128.221 323.157 128.239 323.196 128.265C323.236 128.291 323.269 128.324 323.296 128.363C323.322 128.402 323.34 128.446 323.35 128.492C323.359 128.538 323.36 128.586 323.351 128.632C323.342 128.678 323.324 128.722 323.298 128.761C323.272 128.8 323.238 128.834 323.199 128.86C308.811 138.682 292.754 146.859 277.22 154.765C248.722 169.269 224.118 181.8 220.295 199.284C217.64 214.832 226.817 227.162 232.529 233.145C232.915 233.553 233.392 233.865 233.92 234.058C234.448 234.25 235.013 234.317 235.572 234.253C236.123 234.195 236.653 234.01 237.12 233.712C237.587 233.414 237.978 233.012 238.263 232.538C243.625 223.688 259.252 202.615 288.602 197.941C288.649 197.933 288.697 197.935 288.743 197.946C288.79 197.957 288.833 197.977 288.872 198.005C288.91 198.033 288.943 198.068 288.968 198.108C288.993 198.149 289.01 198.194 289.017 198.241C289.025 198.288 289.023 198.335 289.012 198.382C289.001 198.428 288.981 198.472 288.953 198.51C288.925 198.549 288.89 198.581 288.849 198.606C288.809 198.631 288.764 198.648 288.717 198.655C259.66 203.28 244.183 224.153 238.879 232.916C238.535 233.485 238.065 233.967 237.503 234.323C236.942 234.679 236.305 234.9 235.643 234.968C235.494 234.989 235.343 235.001 235.192 235.004Z" fill="#E3E3E3"/>
<path d="M234.739 379.119H225.268C223.401 379.122 221.599 378.432 220.212 377.184C218.824 375.936 217.95 374.219 217.759 372.364C216.327 358.868 213.657 323.756 220.092 289.445C220.534 287.037 220.403 284.56 219.708 282.212C219.012 279.865 217.773 277.715 216.091 275.935C209.648 269.151 197.772 255.012 190.105 236.548C179.518 216.726 182.947 194.166 183.004 193.945C184.693 174.487 193.398 155.602 208.882 137.846C222.626 122.155 234.803 114.078 245.548 106.958C261.619 96.3004 274.311 87.8869 284.633 59.5443C293.224 35.6908 281.513 18.7997 273.767 10.8437C273.16 10.2225 272.732 9.44804 272.532 8.60328C272.331 7.75852 272.364 6.87513 272.627 6.04766C272.89 5.22019 273.374 4.47988 274.026 3.90564C274.678 3.33141 275.474 2.94497 276.329 2.78769C291.591 -0.0144024 329.403 -4.41768 350.778 15.1326C363.112 26.4125 368.245 43.9541 366.033 67.2716C365.455 74.1033 363.797 80.8008 361.122 87.1151C361.105 87.1601 361.079 87.2012 361.046 87.2359C361.012 87.2706 360.973 87.298 360.928 87.3169C360.884 87.3358 360.836 87.3458 360.788 87.3458C360.74 87.3459 360.692 87.3363 360.648 87.3176C360.604 87.2988 360.563 87.2712 360.53 87.2366C360.496 87.202 360.471 87.1608 360.453 87.1158C360.436 87.0709 360.428 87.0232 360.43 86.9752C360.432 86.9271 360.443 86.8798 360.464 86.8363C363.11 80.5903 364.748 73.9652 365.317 67.2073C367.508 44.1258 362.454 26.7842 350.284 15.6544C329.167 -3.64569 291.627 0.707565 276.465 3.50251C275.739 3.63996 275.064 3.972 274.512 4.46305C273.959 4.9541 273.551 5.58585 273.33 6.29059C273.11 6.99532 273.086 7.74639 273.259 8.46402C273.433 9.18165 273.799 9.83879 274.318 10.3649C282.192 18.428 294.061 35.5767 285.342 59.8019C274.941 88.3947 262.163 96.8437 245.97 107.566C235.233 114.664 223.128 122.713 209.462 138.303C194.085 155.952 185.431 174.695 183.756 194.023C183.72 194.273 180.312 216.597 190.799 236.241C198.43 254.626 210.278 268.686 216.656 275.442C218.416 277.302 219.712 279.55 220.439 282.004C221.165 284.459 221.301 287.049 220.837 289.566C214.394 323.792 217.071 358.804 218.51 372.264C218.689 373.941 219.484 375.492 220.741 376.618C221.998 377.744 223.629 378.365 225.318 378.361H234.789C234.884 378.361 234.975 378.399 235.042 378.466C235.109 378.533 235.147 378.624 235.147 378.719C235.154 378.774 235.148 378.829 235.13 378.882C235.112 378.934 235.082 378.981 235.042 379.02C235.003 379.059 234.955 379.088 234.902 379.105C234.85 379.122 234.794 379.127 234.739 379.119Z" fill="#E3E3E3"/>
<path d="M345.333 379.119H258.049C257.954 379.119 257.863 379.081 257.796 379.014C257.729 378.947 257.691 378.857 257.691 378.762C257.691 378.667 257.729 378.576 257.796 378.509C257.863 378.442 257.954 378.404 258.049 378.404H345.333C345.428 378.404 345.519 378.442 345.586 378.509C345.653 378.576 345.691 378.667 345.691 378.762C345.691 378.857 345.653 378.947 345.586 379.014C345.519 379.081 345.428 379.119 345.333 379.119Z" fill="#E3E3E3"/>
<path d="M558.806 379.119H494.651C494.556 379.119 494.465 379.081 494.398 379.014C494.331 378.947 494.293 378.856 494.293 378.761C494.293 378.666 494.331 378.575 494.398 378.508C494.465 378.441 494.556 378.404 494.651 378.404H558.09V372.85C558.083 366.77 555.661 360.942 551.356 356.643C547.051 352.344 541.214 349.926 535.126 349.918H518.919C518.824 349.918 518.733 349.88 518.666 349.813C518.599 349.746 518.561 349.655 518.561 349.561C518.561 349.466 518.599 349.375 518.666 349.308C518.733 349.241 518.824 349.203 518.919 349.203H535.126C541.404 349.211 547.422 351.705 551.862 356.137C556.301 360.57 558.798 366.58 558.806 372.85V379.119Z" fill="#E3E3E3"/>
<path d="M522.98 349.918H488.916C488.822 349.916 488.732 349.878 488.665 349.811C488.598 349.745 488.56 349.655 488.558 349.561C488.558 349.466 488.596 349.375 488.663 349.308C488.73 349.241 488.821 349.203 488.916 349.203H522.98C523.075 349.203 523.166 349.241 523.233 349.308C523.3 349.375 523.338 349.466 523.338 349.561C523.338 349.655 523.3 349.746 523.233 349.813C523.166 349.88 523.075 349.918 522.98 349.918Z" fill="#E3E3E3"/>
<path d="M549.579 379.126C549.495 379.127 549.414 379.098 549.35 379.044C549.285 378.991 549.242 378.916 549.229 378.833C546.122 362.864 535.212 362.206 535.105 362.206C535.058 362.205 535.012 362.194 534.969 362.174C534.926 362.154 534.888 362.126 534.856 362.092C534.824 362.057 534.799 362.017 534.783 361.973C534.767 361.928 534.759 361.882 534.761 361.835C534.761 361.787 534.771 361.74 534.79 361.696C534.809 361.653 534.837 361.614 534.872 361.581C534.907 361.549 534.948 361.524 534.993 361.509C535.038 361.494 535.086 361.488 535.134 361.492C535.248 361.492 546.723 362.206 549.93 378.697C549.947 378.791 549.927 378.887 549.873 378.966C549.82 379.045 549.737 379.1 549.644 379.119L549.579 379.126Z" fill="#E3E3E3"/>
<path d="M531.626 379.126C531.547 379.126 531.471 379.099 531.409 379.052C531.347 379.004 531.303 378.937 531.282 378.861C527.51 365.687 517.932 365.123 517.831 365.123C517.737 365.117 517.648 365.075 517.584 365.006C517.52 364.937 517.486 364.845 517.488 364.751C517.489 364.704 517.499 364.657 517.518 364.614C517.537 364.571 517.565 364.532 517.6 364.5C517.635 364.468 517.676 364.443 517.72 364.427C517.765 364.412 517.813 364.405 517.86 364.408C517.967 364.408 528.054 365.001 531.969 378.668C531.994 378.759 531.982 378.857 531.937 378.939C531.892 379.022 531.816 379.084 531.726 379.112L531.626 379.126Z" fill="#E3E3E3"/>
<path d="M407.944 379.126C407.86 379.124 407.78 379.095 407.717 379.041C407.653 378.988 407.609 378.914 407.593 378.833C404.493 362.893 393.584 362.214 393.469 362.206C393.423 362.205 393.377 362.193 393.334 362.174C393.292 362.154 393.254 362.126 393.222 362.091C393.191 362.057 393.167 362.016 393.152 361.972C393.136 361.928 393.13 361.881 393.133 361.835C393.132 361.787 393.142 361.74 393.161 361.697C393.18 361.653 393.208 361.614 393.243 361.581C393.278 361.549 393.32 361.525 393.365 361.509C393.41 361.494 393.457 361.488 393.505 361.492C393.619 361.492 405.087 362.206 408.294 378.697C408.312 378.79 408.292 378.886 408.24 378.964C408.188 379.043 408.107 379.099 408.015 379.119L407.944 379.126Z" fill="#E3E3E3"/>
<path d="M389.995 379.126C389.916 379.125 389.84 379.099 389.778 379.052C389.716 379.004 389.671 378.937 389.651 378.861C385.879 365.716 376.293 365.13 376.2 365.123C376.153 365.121 376.107 365.11 376.064 365.09C376.022 365.07 375.983 365.042 375.951 365.008C375.919 364.973 375.895 364.933 375.878 364.889C375.862 364.845 375.855 364.798 375.857 364.751C375.857 364.703 375.866 364.656 375.885 364.613C375.904 364.569 375.932 364.53 375.967 364.498C376.002 364.465 376.043 364.441 376.088 364.425C376.133 364.41 376.181 364.404 376.229 364.408C376.329 364.408 386.423 365.001 390.338 378.668C390.363 378.76 390.35 378.858 390.303 378.941C390.257 379.024 390.179 379.085 390.088 379.112L389.995 379.126Z" fill="#E3E3E3"/>
<path d="M421.003 379.125H420.953C420.906 379.119 420.86 379.104 420.819 379.08C420.778 379.056 420.742 379.024 420.713 378.986C420.685 378.948 420.664 378.905 420.652 378.859C420.64 378.813 420.638 378.765 420.645 378.718C421.762 370.998 420.645 357.409 400.637 353.099C372.719 347.087 347.027 351.726 346.769 351.769L346.254 351.869L346.354 351.348C346.354 351.205 349.218 336.486 346.354 321.618C346.345 321.572 346.344 321.526 346.353 321.48C346.362 321.435 346.381 321.391 346.407 321.352C346.433 321.314 346.466 321.281 346.505 321.255C346.544 321.23 346.587 321.212 346.633 321.204C346.679 321.194 346.727 321.194 346.773 321.203C346.819 321.212 346.863 321.23 346.902 321.256C346.941 321.282 346.975 321.315 347.002 321.354C347.028 321.393 347.046 321.436 347.056 321.482C349.647 334.928 347.593 348.245 347.113 350.983C350.878 350.361 374.888 346.823 400.752 352.413C421.325 356.844 422.471 370.869 421.318 378.861C421.299 378.932 421.259 378.996 421.203 379.043C421.146 379.09 421.077 379.119 421.003 379.125Z" fill="#E3E3E3"/>
<path d="M428.938 193.301C427.303 193.301 425.735 192.653 424.579 191.498C423.423 190.344 422.774 188.779 422.774 187.147C422.774 185.514 423.423 183.949 424.579 182.794C425.735 181.64 427.303 180.992 428.938 180.992C429.331 180.991 429.725 181.027 430.112 181.099C430.205 181.118 430.287 181.173 430.341 181.252C430.394 181.331 430.415 181.427 430.398 181.521C430.376 181.612 430.32 181.692 430.242 181.745C430.164 181.798 430.069 181.82 429.976 181.807C429.634 181.737 429.286 181.704 428.938 181.707C427.86 181.707 426.807 182.026 425.911 182.623C425.015 183.221 424.317 184.071 423.905 185.065C423.492 186.059 423.384 187.152 423.595 188.208C423.805 189.263 424.324 190.232 425.086 190.993C425.848 191.754 426.818 192.272 427.875 192.482C428.931 192.692 430.027 192.584 431.022 192.172C432.018 191.761 432.869 191.063 433.467 190.168C434.066 189.274 434.385 188.222 434.385 187.147C434.389 186.502 434.275 185.863 434.049 185.259C434.017 185.17 434.021 185.072 434.061 184.986C434.102 184.9 434.174 184.834 434.263 184.802C434.308 184.785 434.355 184.777 434.402 184.779C434.449 184.78 434.495 184.792 434.538 184.812C434.581 184.832 434.619 184.86 434.651 184.895C434.682 184.93 434.707 184.972 434.722 185.016C435.065 185.947 435.179 186.946 435.052 187.93C434.926 188.914 434.563 189.853 433.995 190.666C433.427 191.48 432.671 192.144 431.79 192.603C430.91 193.062 429.931 193.301 428.938 193.301Z" fill="#E3E3E3"/>
<path d="M489.068 193.301C488.512 193.303 487.958 193.228 487.422 193.08C487.331 193.055 487.254 192.995 487.207 192.913C487.16 192.832 487.147 192.735 487.171 192.644C487.183 192.597 487.204 192.554 487.233 192.516C487.261 192.478 487.298 192.447 487.339 192.423C487.381 192.4 487.427 192.385 487.474 192.38C487.521 192.375 487.57 192.379 487.615 192.393C488.829 192.726 490.12 192.628 491.27 192.116C492.419 191.604 493.355 190.709 493.916 189.584C494.478 188.459 494.632 187.175 494.351 185.95C494.069 184.725 493.371 183.635 492.375 182.867C491.378 182.099 490.146 181.7 488.888 181.739C487.63 181.777 486.424 182.251 485.477 183.079C484.53 183.906 483.9 185.037 483.694 186.277C483.489 187.517 483.721 188.789 484.351 189.877C484.387 189.958 484.393 190.049 484.366 190.133C484.339 190.218 484.281 190.289 484.204 190.333C484.128 190.378 484.037 190.393 483.951 190.374C483.864 190.356 483.787 190.306 483.735 190.235C483.054 189.062 482.78 187.698 482.955 186.354C483.129 185.01 483.743 183.762 484.702 182.802C485.66 181.842 486.908 181.224 488.254 181.046C489.599 180.867 490.966 181.137 492.143 181.813C493.319 182.49 494.238 183.535 494.759 184.786C495.279 186.038 495.372 187.426 495.021 188.736C494.671 190.045 493.898 191.202 492.821 192.028C491.745 192.853 490.426 193.301 489.068 193.301Z" fill="#E3E3E3"/>
<path d="M459.005 202.709C458.833 202.711 458.662 202.675 458.505 202.605C458.348 202.534 458.209 202.431 458.096 202.301L450.329 193.58C450.173 193.405 450.071 193.189 450.035 192.957C449.999 192.726 450.032 192.489 450.128 192.275C450.224 192.061 450.38 191.88 450.577 191.753C450.774 191.625 451.003 191.558 451.238 191.557H466.772C467.007 191.558 467.236 191.625 467.433 191.753C467.63 191.88 467.786 192.061 467.882 192.275C467.978 192.489 468.01 192.726 467.975 192.957C467.939 193.189 467.837 193.405 467.681 193.58L466.307 195.124C466.243 195.195 466.154 195.239 466.059 195.244C465.963 195.249 465.87 195.216 465.799 195.153C465.727 195.089 465.684 195 465.679 194.905C465.673 194.81 465.706 194.716 465.77 194.645L467.144 193.102C467.21 193.031 467.254 192.942 467.27 192.846C467.286 192.75 467.273 192.652 467.233 192.564C467.194 192.475 467.129 192.4 467.047 192.348C466.965 192.297 466.869 192.27 466.772 192.272H451.238C451.141 192.27 451.045 192.297 450.963 192.348C450.881 192.4 450.816 192.475 450.776 192.564C450.737 192.652 450.724 192.75 450.74 192.846C450.756 192.942 450.799 193.031 450.866 193.102L458.633 201.83C458.679 201.882 458.737 201.924 458.801 201.952C458.865 201.981 458.935 201.995 459.005 201.994C459.075 201.995 459.145 201.981 459.209 201.952C459.273 201.924 459.331 201.882 459.377 201.83L462.183 198.677C462.217 198.644 462.256 198.617 462.3 198.599C462.343 198.581 462.39 198.571 462.437 198.571C462.485 198.571 462.532 198.581 462.575 198.599C462.619 198.617 462.658 198.644 462.692 198.677C462.757 198.744 462.794 198.834 462.794 198.927C462.794 199.021 462.757 199.111 462.692 199.178L459.885 202.33C459.772 202.459 459.633 202.563 459.476 202.633C459.319 202.704 459.148 202.739 458.976 202.737L459.005 202.709Z" fill="#E3E3E3"/>
<path d="M445.151 219.857H444.213C444.118 219.851 444.028 219.808 443.964 219.738C443.9 219.667 443.866 219.573 443.87 219.478C443.875 219.387 443.915 219.301 443.982 219.239C444.048 219.176 444.136 219.142 444.227 219.142C448.523 219.328 451.959 218.17 454.4 215.668C459.139 210.821 458.623 202.487 458.616 202.401C458.612 202.354 458.618 202.307 458.632 202.263C458.647 202.218 458.67 202.177 458.701 202.142C458.731 202.107 458.769 202.078 458.811 202.057C458.853 202.037 458.899 202.025 458.945 202.022C458.993 202.015 459.042 202.018 459.088 202.031C459.134 202.044 459.177 202.067 459.214 202.099C459.251 202.13 459.28 202.168 459.3 202.212C459.321 202.255 459.332 202.303 459.332 202.351C459.332 202.701 459.883 211.086 454.915 216.168C452.56 218.606 449.238 219.857 445.151 219.857Z" fill="#E3E3E3"/>
<path d="M472.867 219.857C468.779 219.857 465.493 218.606 463.088 216.147C458.12 211.064 458.65 202.679 458.671 202.329C458.673 202.282 458.685 202.235 458.705 202.192C458.726 202.149 458.756 202.111 458.792 202.08C458.828 202.049 458.871 202.026 458.916 202.012C458.962 201.998 459.011 201.994 459.058 202C459.105 202.003 459.151 202.015 459.193 202.036C459.235 202.056 459.272 202.085 459.303 202.12C459.333 202.156 459.357 202.197 459.371 202.241C459.386 202.286 459.391 202.333 459.387 202.379C459.387 202.465 458.865 210.8 463.604 215.646C466.045 218.141 469.459 219.306 473.776 219.12C473.823 219.114 473.871 219.118 473.917 219.132C473.962 219.147 474.004 219.171 474.04 219.203C474.075 219.234 474.103 219.274 474.122 219.317C474.141 219.361 474.15 219.409 474.148 219.456C474.152 219.552 474.118 219.645 474.054 219.716C473.99 219.787 473.9 219.83 473.805 219.835L472.867 219.857Z" fill="#E3E3E3"/>
<path d="M444.226 206.933C444.188 206.94 444.149 206.94 444.111 206.933C443.961 206.883 428.484 201.894 415.971 203.767C415.925 203.774 415.877 203.772 415.831 203.76C415.786 203.749 415.743 203.729 415.705 203.701C415.667 203.673 415.635 203.638 415.611 203.598C415.586 203.558 415.57 203.513 415.563 203.467C415.555 203.42 415.556 203.372 415.567 203.326C415.578 203.28 415.598 203.237 415.626 203.199C415.654 203.16 415.69 203.129 415.731 203.105C415.772 203.081 415.817 203.065 415.864 203.059C428.542 201.157 444.176 206.204 444.333 206.254C444.378 206.268 444.42 206.291 444.456 206.321C444.493 206.351 444.522 206.389 444.544 206.431C444.565 206.473 444.578 206.519 444.581 206.566C444.584 206.613 444.578 206.66 444.562 206.705C444.536 206.772 444.49 206.831 444.43 206.871C444.37 206.912 444.298 206.934 444.226 206.933Z" fill="#E3E3E3"/>
<path d="M410.497 215.518C410.443 215.519 410.389 215.507 410.341 215.484C410.292 215.46 410.25 215.425 410.218 215.382C410.188 215.346 410.166 215.303 410.153 215.258C410.141 215.212 410.137 215.165 410.143 215.118C410.149 215.072 410.165 215.026 410.189 214.986C410.212 214.945 410.244 214.91 410.282 214.882C416.581 210.085 436.332 210.543 437.169 210.593C437.217 210.593 437.264 210.602 437.307 210.621C437.351 210.639 437.39 210.666 437.422 210.7C437.455 210.734 437.481 210.775 437.498 210.819C437.514 210.863 437.522 210.91 437.52 210.958C437.519 211.005 437.509 211.051 437.49 211.094C437.471 211.137 437.444 211.176 437.41 211.208C437.376 211.241 437.336 211.266 437.292 211.283C437.249 211.3 437.202 211.309 437.155 211.308C436.955 211.308 416.81 210.829 410.718 215.468C410.652 215.508 410.574 215.526 410.497 215.518Z" fill="#E3E3E3"/>
<path d="M472.188 206.933C472.093 206.948 471.996 206.925 471.919 206.869C471.841 206.813 471.788 206.728 471.773 206.633C471.758 206.538 471.781 206.441 471.837 206.364C471.894 206.286 471.979 206.234 472.074 206.218C472.231 206.168 487.866 201.129 500.551 203.023C500.597 203.03 500.642 203.046 500.682 203.07C500.722 203.095 500.758 203.127 500.785 203.165C500.813 203.203 500.834 203.245 500.845 203.291C500.856 203.337 500.858 203.384 500.851 203.431C500.834 203.523 500.782 203.605 500.706 203.661C500.63 203.717 500.537 203.741 500.443 203.731C487.93 201.851 472.453 206.848 472.296 206.898C472.263 206.917 472.226 206.929 472.188 206.933Z" fill="#E3E3E3"/>
<path d="M505.911 215.518C505.834 215.519 505.758 215.493 505.697 215.446C499.597 210.807 479.46 211.279 479.26 211.286C479.166 211.286 479.075 211.25 479.007 211.184C478.939 211.119 478.899 211.03 478.895 210.936C478.893 210.889 478.9 210.843 478.917 210.799C478.933 210.755 478.958 210.715 478.99 210.681C479.022 210.648 479.061 210.62 479.103 210.602C479.146 210.583 479.192 210.572 479.239 210.572C480.083 210.572 499.834 210.085 506.133 214.86C506.191 214.907 506.233 214.97 506.253 215.041C506.274 215.111 506.272 215.187 506.247 215.257C506.223 215.326 506.177 215.387 506.117 215.43C506.057 215.473 505.985 215.496 505.911 215.496V215.518Z" fill="#E3E3E3"/>
<path d="M409.243 253.386C409.485 255.693 409.086 258.023 408.089 260.12C407.093 262.216 405.538 263.998 403.594 265.27C396.82 269.722 390.924 273.497 394.348 285.875C394.348 285.875 373.557 274.813 344.628 276.249C315.698 277.684 305.674 287.868 301.133 292.32C296.592 296.772 291.804 304.25 280.177 307.12C268.551 309.991 265.594 309.341 260.65 317.176C255.706 325.01 260.256 329.06 263.442 331.894C266.628 334.728 267.507 334.636 267.507 334.636C267.507 334.636 268.862 344.692 278.42 346.521C278.42 346.521 278.072 354.172 279.07 354.09C280.068 354.007 283.089 349.912 284.425 347.408C284.425 347.408 283.455 357.189 284.59 357.728C285.725 358.267 291.392 349.4 291.914 349.281C291.914 349.281 318.838 342.114 341.945 357.162C365.052 372.209 371.241 391.141 373.896 406.645C373.896 406.645 370.829 398.802 362.067 399.332C362.067 399.332 357.92 409.973 352.684 412.496C352.684 412.496 353.6 403.574 351.961 401.05C351.961 401.05 349.159 411.865 344.829 415.467C344.829 415.467 330.181 415.65 329.669 405.1C329.486 399.423 333.816 399.423 330.932 394.651C328.048 389.879 311.34 391.763 310.169 405.914C308.997 420.065 320.917 429.618 320.917 429.618C320.917 429.618 314.05 430.88 313.153 432.141C313.153 432.141 324.789 439.802 338.604 439.894C352.418 439.985 365.153 438.001 381.293 422.141C392.846 410.96 395.373 393.024 395.373 393.024C395.373 393.024 401.241 421.052 383.737 440.433C372.358 452.244 370.92 451.403 370.92 451.403C370.92 451.403 387.848 450.141 399.676 444.089C399.676 444.089 388.031 462.098 363.844 473.343C363.844 473.343 389.834 473.982 417.18 451.713C425.917 444.913 433.039 436.265 438.034 426.391C438.034 426.391 434.245 449.099 422.325 463.342C422.325 463.342 441.193 453.88 455.64 424.764C461.956 411.883 462.405 401.517 462.405 401.517C462.405 401.517 465.838 417.652 464.236 429.097C464.236 429.097 492.149 392.53 480.532 349.857C468.914 307.184 451.236 294.377 451.236 294.377C451.236 294.377 451.703 317.359 432.404 325.943C413.106 334.527 399.849 330.121 399.849 330.121C399.849 330.121 429.841 327.378 435.197 301.571C440.552 275.764 426.335 259.264 409.243 253.386Z" fill="#F4004A"/>
<path d="M386.272 250.972C386.272 250.972 393.055 254.766 392.067 262.363C391.536 266.458 387.443 271.715 388.606 276.916C389.668 281.414 391.069 281.944 391.069 281.944C391.069 281.944 389.238 273.589 395.646 267.629C402.055 261.668 404.014 263.058 403.254 258.277C402.659 255.05 395.518 248.23 386.272 250.972Z" fill="#F4004A"/>
<path d="M571.298 371.185C570.318 371.185 569.444 371.185 568.621 371.092C567.662 371.027 566.695 370.927 565.757 370.799C565.664 370.786 565.579 370.737 565.521 370.662C565.463 370.587 565.438 370.492 565.45 370.398C565.464 370.304 565.514 370.219 565.591 370.161C565.667 370.104 565.763 370.078 565.858 370.091C566.781 370.219 567.733 370.313 568.678 370.377C569.487 370.441 570.346 370.47 571.305 370.47C580.546 370.472 589.495 367.233 596.589 361.32L596.718 361.206C601.119 357.512 604.657 352.9 607.082 347.695C609.507 342.489 610.761 336.817 610.756 331.076C610.75 326.749 610.039 322.451 608.651 318.352C607.624 315.334 606.23 312.453 604.499 309.774C603.963 308.938 603.376 308.109 602.767 307.315C600.823 304.746 598.57 302.424 596.06 300.403C593.965 298.718 591.706 297.247 589.316 296.014C584.923 293.756 580.14 292.354 575.221 291.882C570.984 291.456 566.705 291.717 562.55 292.655C557.218 293.855 552.198 296.164 547.818 299.431C544.365 301.988 541.35 305.088 538.892 308.609C535.604 313.346 533.395 318.745 532.421 324.426C531.446 330.106 531.73 335.931 533.251 341.491C533.263 341.538 533.266 341.587 533.259 341.635C533.252 341.683 533.236 341.729 533.212 341.771C533.187 341.813 533.154 341.849 533.116 341.878C533.077 341.908 533.033 341.929 532.986 341.941C532.939 341.953 532.89 341.956 532.842 341.95C532.794 341.943 532.747 341.927 532.706 341.902C532.664 341.878 532.627 341.845 532.598 341.806C532.568 341.768 532.547 341.724 532.535 341.677C530.395 333.878 530.667 325.616 533.314 317.975C535.961 310.334 540.86 303.67 547.367 298.859C551.839 295.536 556.961 293.188 562.4 291.968C566.625 291.018 570.976 290.75 575.286 291.175C580.792 291.724 586.126 293.405 590.951 296.111C595.777 298.818 599.99 302.491 603.325 306.901C603.948 307.708 604.542 308.552 605.094 309.41C606.853 312.137 608.274 315.068 609.325 318.138C610.092 320.377 610.652 322.681 610.999 325.021C611.311 327.032 611.467 329.063 611.465 331.097C611.469 336.914 610.204 342.662 607.757 347.94C605.311 353.219 601.741 357.902 597.298 361.663L597.169 361.785C589.923 367.863 580.762 371.192 571.298 371.185Z" fill="#E3E3E3"/>
<path d="M600.417 309.102H600.339C597.833 308.545 595.271 307.858 592.715 307.051C588.379 305.684 584.128 304.058 579.987 302.183H579.908C576.136 300.474 572.284 298.516 568.455 296.343C568.411 296.321 568.372 296.291 568.341 296.254C568.309 296.217 568.286 296.174 568.271 296.128C568.257 296.081 568.252 296.033 568.257 295.984C568.262 295.936 568.277 295.889 568.301 295.847C568.325 295.804 568.357 295.768 568.396 295.738C568.435 295.709 568.479 295.687 568.526 295.675C568.573 295.664 568.623 295.662 568.671 295.669C568.719 295.677 568.765 295.695 568.806 295.721C572.592 297.865 576.401 299.81 580.123 301.497H580.202C584.341 303.371 588.589 304.996 592.923 306.365C595.464 307.165 598.005 307.844 600.489 308.395C600.584 308.405 600.671 308.453 600.731 308.527C600.79 308.602 600.818 308.697 600.808 308.791C600.797 308.886 600.75 308.973 600.675 309.033C600.6 309.092 600.505 309.12 600.41 309.109L600.417 309.102Z" fill="#E3E3E3"/>
<path d="M607.67 325.336C604.085 325.16 600.515 324.752 596.983 324.113C592.657 323.327 588.395 322.22 584.233 320.804C578.347 318.805 572.655 316.278 567.225 313.255C563.526 311.199 559.941 308.944 556.487 306.5C553.86 304.642 551.304 302.683 548.891 300.674C548.819 300.612 548.775 300.524 548.767 300.429C548.759 300.335 548.788 300.24 548.848 300.167C548.878 300.131 548.915 300.101 548.956 300.079C548.998 300.057 549.043 300.044 549.09 300.04C549.137 300.036 549.184 300.041 549.228 300.056C549.273 300.07 549.314 300.093 549.35 300.124C551.748 302.125 554.289 304.07 556.902 305.914C560.345 308.344 563.917 310.584 567.604 312.626C572.998 315.628 578.652 318.138 584.498 320.125C588.627 321.534 592.855 322.633 597.147 323.413C600.649 324.042 604.188 324.448 607.742 324.628C607.789 324.63 607.835 324.641 607.878 324.661C607.92 324.68 607.959 324.708 607.991 324.743C608.023 324.777 608.047 324.818 608.064 324.862C608.08 324.906 608.087 324.953 608.085 325C608.082 325.05 608.068 325.098 608.045 325.143C608.022 325.187 607.99 325.226 607.951 325.258C607.912 325.289 607.867 325.313 607.819 325.326C607.771 325.339 607.72 325.343 607.67 325.336Z" fill="#E3E3E3"/>
<path d="M606.332 340.326H606.296C605.58 340.254 604.865 340.168 604.149 340.083C583.468 337.594 563.866 329.493 547.475 316.658C545.37 315.007 543.33 313.284 541.397 311.533C541.333 311.468 541.297 311.381 541.295 311.29C541.293 311.199 541.326 311.11 541.387 311.043C541.449 310.975 541.534 310.933 541.624 310.926C541.715 310.919 541.806 310.947 541.877 311.004C543.795 312.741 545.828 314.456 547.919 316.093C564.2 328.86 583.681 336.914 604.235 339.375L606.382 339.618C606.477 339.618 606.568 339.656 606.635 339.723C606.703 339.79 606.74 339.881 606.74 339.976C606.74 340.07 606.703 340.161 606.635 340.228C606.568 340.295 606.477 340.333 606.382 340.333L606.332 340.326Z" fill="#E3E3E3"/>
<path d="M534.812 340.64C534.774 340.647 534.735 340.647 534.698 340.64C534.609 340.609 534.536 340.545 534.494 340.46C534.453 340.376 534.446 340.279 534.476 340.19C537.066 332.662 540.709 325.539 545.299 319.031C545.355 318.959 545.437 318.911 545.528 318.897C545.619 318.883 545.711 318.904 545.786 318.957C545.862 319.009 545.914 319.088 545.932 319.178C545.951 319.267 545.935 319.361 545.886 319.439C541.333 325.891 537.718 332.954 535.148 340.419C535.12 340.484 535.073 340.54 535.013 340.58C534.954 340.619 534.883 340.64 534.812 340.64Z" fill="#E3E3E3"/>
<path d="M545.986 349.318H545.879C545.789 349.288 545.713 349.225 545.669 349.141C545.625 349.057 545.615 348.959 545.643 348.868C547.685 342.433 550.419 336.237 553.796 330.39C553.844 330.307 553.922 330.247 554.014 330.222C554.106 330.197 554.204 330.21 554.287 330.258C554.369 330.305 554.43 330.383 554.454 330.475C554.479 330.567 554.467 330.665 554.419 330.747C551.064 336.547 548.352 342.696 546.33 349.082C546.304 349.152 546.257 349.212 546.195 349.254C546.134 349.296 546.061 349.318 545.986 349.318Z" fill="#E3E3E3"/>
<path d="M555.465 353.778C555.393 353.777 555.323 353.755 555.264 353.714C555.205 353.673 555.16 353.615 555.135 353.548C555.109 353.48 555.104 353.407 555.121 353.337C555.138 353.268 555.175 353.205 555.229 353.156C561.871 347.269 568.046 340.876 573.698 334.035C573.76 333.963 573.848 333.918 573.943 333.91C574.038 333.902 574.132 333.931 574.206 333.992C574.242 334.022 574.272 334.058 574.294 334.1C574.316 334.141 574.329 334.186 574.333 334.233C574.337 334.28 574.332 334.327 574.317 334.371C574.303 334.416 574.28 334.457 574.249 334.492C568.571 341.36 562.37 347.779 555.701 353.692C555.635 353.749 555.551 353.779 555.465 353.778Z" fill="#E3E3E3"/>
<path d="M572.617 366.695C572.532 366.696 572.451 366.666 572.388 366.61C572.316 366.547 572.271 366.459 572.263 366.365C572.255 366.27 572.284 366.176 572.345 366.102C578.721 358.37 584.214 349.952 588.723 341.004C588.767 340.922 588.843 340.859 588.932 340.831C589.022 340.803 589.119 340.811 589.203 340.854C589.287 340.897 589.351 340.972 589.381 341.061C589.41 341.151 589.403 341.249 589.361 341.333C584.825 350.327 579.303 358.79 572.896 366.567C572.862 366.608 572.82 366.641 572.771 366.663C572.723 366.685 572.67 366.696 572.617 366.695Z" fill="#E3E3E3"/>
<path d="M598.838 356.945C598.795 356.952 598.752 356.952 598.709 356.945C598.665 356.928 598.624 356.903 598.589 356.871C598.555 356.838 598.527 356.799 598.508 356.756C598.488 356.713 598.478 356.666 598.477 356.619C598.476 356.571 598.484 356.524 598.501 356.48C600.162 351.984 601.744 347.088 603.19 341.948C603.203 341.901 603.225 341.857 603.254 341.819C603.284 341.78 603.321 341.748 603.363 341.724C603.406 341.699 603.452 341.684 603.5 341.677C603.549 341.671 603.598 341.674 603.645 341.687C603.692 341.7 603.736 341.722 603.774 341.751C603.813 341.781 603.845 341.818 603.87 341.86C603.894 341.902 603.909 341.949 603.916 341.997C603.922 342.045 603.919 342.094 603.906 342.141C602.474 347.302 600.871 352.213 599.196 356.73C599.167 356.8 599.117 356.858 599.052 356.897C598.988 356.935 598.912 356.952 598.838 356.945Z" fill="#E3E3E3"/>
<path d="M263.231 244.411C262.984 244.41 262.74 244.356 262.515 244.253C262.126 244.088 261.813 243.784 261.637 243.401C261.461 243.018 261.434 242.582 261.563 242.181C263.584 235.125 266.587 228.388 270.482 222.166C270.534 222.086 270.614 222.03 270.707 222.01C270.8 221.99 270.896 222.007 270.976 222.058C271.017 222.083 271.052 222.115 271.08 222.153C271.108 222.191 271.128 222.235 271.139 222.281C271.15 222.327 271.151 222.374 271.143 222.421C271.134 222.468 271.117 222.512 271.091 222.552C267.228 228.71 264.252 235.38 262.25 242.367C262.178 242.601 262.194 242.853 262.296 243.077C262.397 243.3 262.577 243.479 262.8 243.58C263.024 243.681 263.277 243.697 263.512 243.624C263.746 243.552 263.947 243.397 264.076 243.189C273.274 228.113 290.562 216.49 300.061 210.9C300.6 210.584 301.027 210.11 301.285 209.542C301.544 208.975 301.621 208.342 301.506 207.729C301.391 207.116 301.089 206.554 300.642 206.118C300.196 205.683 299.625 205.396 299.009 205.296C294.303 204.513 289.472 205.39 285.343 207.776C285.303 207.806 285.256 207.826 285.207 207.837C285.158 207.847 285.108 207.847 285.059 207.837C285.01 207.827 284.964 207.806 284.923 207.777C284.882 207.748 284.848 207.71 284.823 207.667C284.798 207.624 284.782 207.576 284.777 207.526C284.771 207.476 284.777 207.426 284.792 207.378C284.807 207.331 284.832 207.287 284.866 207.249C284.899 207.212 284.94 207.182 284.986 207.162C289.256 204.691 294.255 203.781 299.124 204.588C299.886 204.711 300.591 205.066 301.144 205.604C301.696 206.142 302.069 206.837 302.212 207.594C302.354 208.352 302.259 209.135 301.94 209.837C301.62 210.538 301.092 211.124 300.426 211.515C290.991 217.069 273.804 228.621 264.684 243.56C264.54 243.819 264.329 244.034 264.074 244.184C263.818 244.334 263.527 244.412 263.231 244.411Z" fill="#E3E3E3"/>
<path d="M307.008 244.762C306.786 244.759 306.566 244.71 306.364 244.619C306.017 244.472 305.738 244.202 305.58 243.861C305.423 243.52 305.398 243.133 305.512 242.774C308.189 233.775 313.587 221.43 324.124 213.717C326.079 212.307 328.295 211.297 330.643 210.746C332.991 210.195 335.425 210.114 337.804 210.507C338.466 210.616 339.079 210.926 339.559 211.394C340.04 211.863 340.364 212.467 340.488 213.126C340.612 213.785 340.531 214.466 340.254 215.077C339.978 215.687 339.52 216.198 338.942 216.54C337.382 217.463 335.828 218.42 334.318 219.4C334.279 219.426 334.234 219.444 334.188 219.453C334.142 219.462 334.094 219.461 334.048 219.451C334.002 219.441 333.958 219.422 333.92 219.395C333.881 219.368 333.849 219.333 333.824 219.293C333.773 219.213 333.755 219.116 333.776 219.024C333.796 218.931 333.852 218.851 333.931 218.799C335.449 217.82 337.01 216.855 338.577 215.94C339.031 215.675 339.392 215.277 339.61 214.799C339.828 214.322 339.893 213.788 339.796 213.272C339.699 212.757 339.444 212.283 339.067 211.917C338.69 211.552 338.209 211.312 337.689 211.23C335.403 210.851 333.065 210.928 330.809 211.457C328.554 211.986 326.425 212.956 324.546 214.31C314.188 221.902 308.862 234.097 306.213 242.996C306.15 243.188 306.162 243.397 306.247 243.58C306.332 243.763 306.484 243.907 306.672 243.982C306.849 244.068 307.051 244.083 307.239 244.024C307.426 243.966 307.584 243.839 307.681 243.668C311.082 238.31 315.244 233.473 320.037 229.307C320.07 229.274 320.109 229.247 320.153 229.229C320.197 229.211 320.244 229.202 320.291 229.202C320.338 229.202 320.385 229.211 320.429 229.229C320.472 229.247 320.512 229.274 320.545 229.307C320.611 229.375 320.648 229.466 320.648 229.561C320.648 229.656 320.611 229.747 320.545 229.815C315.803 233.933 311.687 238.717 308.325 244.018C308.191 244.248 307.999 244.438 307.768 244.568C307.536 244.699 307.274 244.766 307.008 244.762Z" fill="#E3E3E3"/>
<path d="M339.32 101.833C338.753 101.833 338.196 101.684 337.705 101.402C337.214 101.12 336.805 100.714 336.521 100.225C331.746 92.14 321.831 77.4218 309.003 69.6231C308.682 69.4366 308.441 69.1365 308.33 68.7819C308.219 68.4274 308.245 68.0439 308.402 67.7073C308.55 67.3623 308.821 67.0847 309.162 66.9275C309.503 66.7704 309.89 66.745 310.249 66.8567C315.906 68.4849 321.329 70.8347 326.384 73.8478C326.424 73.8726 326.459 73.9049 326.487 73.9431C326.514 73.9813 326.534 74.0247 326.544 74.0705C326.555 74.1163 326.556 74.1637 326.548 74.2101C326.541 74.2565 326.524 74.3011 326.499 74.341C326.475 74.3813 326.444 74.4163 326.406 74.4443C326.369 74.4723 326.326 74.4927 326.281 74.504C326.236 74.5153 326.188 74.5174 326.142 74.5103C326.096 74.5031 326.052 74.4869 326.012 74.4625C321.01 71.4817 315.645 69.156 310.048 67.5429C309.855 67.4771 309.645 67.4881 309.459 67.5732C309.274 67.6584 309.129 67.8113 309.053 68.0005C308.967 68.1775 308.952 68.3813 309.012 68.569C309.072 68.7568 309.202 68.9143 309.376 69.0085C322.333 76.8715 332.333 91.7252 337.136 99.8599C337.401 100.313 337.801 100.673 338.279 100.891C338.757 101.109 339.291 101.174 339.808 101.077C340.325 100.98 340.798 100.726 341.165 100.349C341.531 99.9726 341.772 99.4922 341.854 98.9737C342.236 96.6911 342.16 94.3553 341.631 92.1022C341.101 89.8492 340.128 87.724 338.769 85.8497C338.741 85.8116 338.721 85.7683 338.71 85.7226C338.699 85.6769 338.697 85.6295 338.704 85.583C338.712 85.5365 338.728 85.4919 338.752 85.4518C338.777 85.4116 338.809 85.3768 338.847 85.3492C338.885 85.3215 338.929 85.3016 338.974 85.2905C339.02 85.2795 339.068 85.2776 339.114 85.2849C339.161 85.2922 339.205 85.3086 339.245 85.3331C339.286 85.3576 339.321 85.3897 339.348 85.4277C340.762 87.3806 341.774 89.594 342.326 91.9399C342.878 94.2859 342.958 96.7179 342.562 99.0951C342.46 99.7588 342.152 100.374 341.682 100.854C341.213 101.335 340.605 101.657 339.943 101.776C339.737 101.812 339.529 101.832 339.32 101.833Z" fill="#E3E3E3"/>
<path d="M313.869 124.865C313.339 124.867 312.819 124.729 312.361 124.465C311.902 124.202 311.521 123.822 311.256 123.364C306.832 115.873 297.655 102.227 285.743 94.993C285.446 94.8126 285.224 94.5301 285.12 94.1986C285.016 93.867 285.037 93.5092 285.178 93.1916C285.316 92.8643 285.572 92.5999 285.895 92.4506C286.218 92.3013 286.585 92.2774 286.924 92.3836C294.154 94.528 304.284 98.7455 311.5 106.68C311.533 106.713 311.56 106.753 311.578 106.797C311.596 106.84 311.605 106.887 311.605 106.934C311.605 106.981 311.596 107.028 311.578 107.071C311.56 107.115 311.533 107.154 311.5 107.187C311.431 107.253 311.34 107.29 311.245 107.29C311.151 107.29 311.059 107.253 310.991 107.187C303.89 99.3816 293.882 95.2216 286.738 93.1057C286.566 93.0488 286.378 93.0591 286.214 93.1347C286.049 93.2103 285.919 93.3455 285.851 93.5131C285.778 93.6731 285.768 93.8542 285.82 94.0216C285.873 94.189 285.986 94.3311 286.137 94.4209C298.163 101.734 307.433 115.487 311.908 123.014C312.151 123.429 312.517 123.759 312.955 123.959C313.394 124.159 313.884 124.219 314.357 124.131C314.831 124.042 315.266 123.81 315.603 123.465C315.939 123.121 316.161 122.681 316.238 122.206C316.411 121.143 316.48 120.066 316.446 118.989C316.444 118.896 316.479 118.805 316.543 118.737C316.607 118.669 316.696 118.628 316.79 118.625C316.882 118.625 316.971 118.66 317.038 118.724C317.104 118.788 317.144 118.875 317.147 118.968C317.184 120.09 317.11 121.213 316.925 122.321C316.828 122.942 316.54 123.517 316.1 123.967C315.659 124.417 315.09 124.718 314.47 124.829C314.271 124.86 314.07 124.872 313.869 124.865Z" fill="#E3E3E3"/>
</svg>
