<svg width="634" height="374" viewBox="0 0 634 374" fill="none" xmlns="http://www.w3.org/2000/svg">
<path d="M56.3777 25.5653H82.5269C83.102 25.5704 83.652 25.8026 84.0569 26.2111C84.4617 26.6196 84.6888 27.1714 84.6888 27.7465V120.467H107.758C108.186 120.472 108.603 120.602 108.958 120.842C109.312 121.082 109.588 121.421 109.751 121.817C109.914 122.213 109.957 122.648 109.875 123.068C109.793 123.488 109.589 123.874 109.288 124.179L71.0304 162.446C70.6192 162.849 70.0664 163.075 69.4906 163.075C68.9148 163.075 68.3621 162.849 67.9509 162.446L29.6928 124.179C29.3925 123.874 29.1885 123.488 29.1062 123.068C29.024 122.648 29.0669 122.213 29.23 121.817C29.3932 121.421 29.6691 121.082 30.0235 120.842C30.3778 120.602 30.7953 120.472 31.2232 120.467H54.2925V27.7465C54.2919 27.1843 54.5088 26.6434 54.8973 26.237C55.2858 25.8306 55.8161 25.59 56.3777 25.5653Z" fill="#EAB669"/>
<path d="M83.1472 167.517C82.735 167.518 82.3264 167.437 81.9455 167.28C81.5646 167.122 81.2192 166.891 80.9284 166.599L70.0244 155.673C69.8492 155.494 69.7512 155.254 69.7512 155.004C69.7512 154.753 69.8492 154.513 70.0244 154.334C70.1133 154.244 70.2194 154.173 70.3359 154.124C70.4525 154.076 70.5777 154.051 70.7039 154.051C70.8302 154.051 70.9549 154.076 71.0715 154.124C71.188 154.173 71.2941 154.244 71.383 154.334L82.2864 165.24C82.518 165.462 82.8263 165.586 83.1472 165.586C83.468 165.586 83.7763 165.462 84.0079 165.24L122.266 126.973C122.382 126.862 122.473 126.728 122.536 126.58C122.598 126.432 122.63 126.273 122.629 126.112C122.629 125.787 122.501 125.476 122.271 125.246C122.042 125.017 121.73 124.887 121.405 124.887H98.4504C98.1967 124.887 97.9535 124.787 97.7742 124.607C97.5948 124.428 97.494 124.185 97.494 123.931V97.8519C97.494 97.5982 97.5948 97.3549 97.7742 97.1755C97.9535 96.9961 98.1967 96.8952 98.4504 96.8952C98.7041 96.8952 98.9473 96.9961 99.1266 97.1755C99.306 97.3549 99.4069 97.5982 99.4069 97.8519V122.936H121.501C122.122 122.936 122.728 123.12 123.244 123.464C123.761 123.809 124.163 124.299 124.401 124.873C124.638 125.446 124.7 126.078 124.579 126.686C124.458 127.295 124.159 127.854 123.72 128.293L85.4617 166.56C85.163 166.871 84.8032 167.117 84.4048 167.281C84.0064 167.446 83.5781 167.526 83.1472 167.517Z" fill="#E3E3E3"/>
<path d="M49.8576 134.991C49.6029 134.989 49.3574 134.894 49.1687 134.723L42.7225 128.256C42.4303 127.965 42.1987 127.619 42.0411 127.238C41.8835 126.857 41.8026 126.449 41.8038 126.036C41.8037 125.624 41.8849 125.216 42.0425 124.835C42.2 124.454 42.4312 124.108 42.7225 123.817C43.3146 123.234 44.1103 122.904 44.9413 122.898H67.0354V31.0577C67.0405 30.2288 67.3733 29.4356 67.961 28.8512C68.5488 28.2669 69.3437 27.9389 70.1724 27.9389H96.303C97.1317 27.9389 97.9265 28.2669 98.5143 28.8512C99.1021 29.4356 99.4349 30.2288 99.4399 31.0577V44.0877C99.4399 44.3414 99.3391 44.5847 99.1597 44.7641C98.9803 44.9435 98.7371 45.0444 98.4835 45.0444C98.2298 45.0444 97.9866 44.9435 97.8072 44.7641C97.6279 44.5847 97.527 44.3414 97.527 44.0877V31.0577C97.522 30.7363 97.3909 30.4298 97.1618 30.2043C96.9328 29.9788 96.6244 29.8523 96.303 29.8523H70.1724C69.851 29.8523 69.5426 29.9788 69.3135 30.2043C69.0845 30.4298 68.9533 30.7363 68.9483 31.0577V123.779C68.9483 124.032 68.8475 124.276 68.6681 124.455C68.4887 124.634 68.2455 124.735 67.9919 124.735H44.903C44.6623 124.737 44.4272 124.81 44.2277 124.945C44.0281 125.079 43.8731 125.27 43.7812 125.492C43.6893 125.715 43.6652 125.96 43.7116 126.196C43.7581 126.432 43.873 126.65 44.0423 126.821L50.4885 133.288C50.5782 133.377 50.6496 133.483 50.6982 133.599C50.7468 133.716 50.7715 133.841 50.7715 133.967C50.7715 134.093 50.7468 134.218 50.6982 134.335C50.6496 134.452 50.5782 134.557 50.4885 134.646C50.3284 134.836 50.1036 134.959 49.8576 134.991V134.991Z" fill="#E3E3E3"/>
<path d="M123.319 25.758H136.815C137.112 25.7606 137.396 25.8805 137.605 26.0913C137.814 26.3021 137.931 26.5869 137.931 26.8838V74.7397H149.838C150.058 74.7421 150.274 74.8094 150.457 74.9332C150.64 75.0571 150.782 75.232 150.866 75.4363C150.95 75.6405 150.972 75.865 150.93 76.0818C150.888 76.2986 150.782 76.4981 150.627 76.6555L130.881 96.4062C130.669 96.6142 130.384 96.7308 130.086 96.7308C129.789 96.7308 129.504 96.6142 129.292 96.4062L109.546 76.6555C109.391 76.4981 109.285 76.2986 109.243 76.0818C109.2 75.865 109.223 75.6405 109.307 75.4363C109.391 75.232 109.533 75.0571 109.716 74.9332C109.899 74.8094 110.115 74.7421 110.336 74.7397H122.242V26.8838C122.242 26.5936 122.354 26.3144 122.554 26.1047C122.755 25.8949 123.029 25.7707 123.319 25.758Z" fill="#EAB669"/>
<path d="M137.135 98.9239C136.922 98.9245 136.712 98.8829 136.515 98.8015C136.318 98.7201 136.14 98.6007 135.99 98.4499L130.362 92.811C130.272 92.7187 130.221 92.5946 130.221 92.4654C130.221 92.3361 130.272 92.212 130.362 92.1197C130.408 92.0735 130.463 92.0367 130.523 92.0116C130.583 91.9865 130.648 91.9736 130.713 91.9736C130.778 91.9736 130.842 91.9865 130.903 92.0116C130.963 92.0367 131.017 92.0735 131.063 92.1197L136.691 97.7486C136.81 97.8633 136.97 97.9274 137.135 97.9274C137.301 97.9274 137.46 97.8633 137.579 97.7486L157.326 77.998C157.385 77.9404 157.433 77.8715 157.465 77.7951C157.497 77.7187 157.514 77.6365 157.513 77.5536C157.513 77.386 157.447 77.2253 157.328 77.1067C157.21 76.9882 157.049 76.9216 156.881 76.9216H145.034C144.903 76.9216 144.777 76.8695 144.685 76.7769C144.592 76.6843 144.54 76.5588 144.54 76.4278V62.9677C144.54 62.8368 144.592 62.7112 144.685 62.6186C144.777 62.526 144.903 62.474 145.034 62.474C145.165 62.474 145.29 62.526 145.383 62.6186C145.475 62.7112 145.527 62.8368 145.527 62.9677V75.9143H156.931C157.251 75.9141 157.564 76.0091 157.831 76.1871C158.097 76.365 158.305 76.618 158.427 76.914C158.55 77.21 158.582 77.5358 158.519 77.85C158.457 78.1643 158.302 78.4529 158.076 78.6794L138.33 98.4301C138.176 98.5905 137.99 98.7172 137.784 98.8022C137.579 98.8872 137.358 98.9286 137.135 98.9239Z" fill="#E3E3E3"/>
<path d="M119.954 82.1362C119.823 82.1355 119.696 82.0862 119.599 81.9979L116.272 78.66C116.121 78.5099 116.001 78.3313 115.92 78.1347C115.839 77.938 115.797 77.7272 115.798 77.5144C115.798 77.3017 115.839 77.0911 115.921 76.8946C116.002 76.698 116.121 76.5193 116.272 76.3689C116.577 76.0679 116.988 75.8979 117.417 75.8949H128.82V28.4933C128.823 28.0655 128.995 27.6561 129.298 27.3545C129.601 27.0529 130.012 26.8836 130.439 26.8836H143.926C144.354 26.8836 144.764 27.0529 145.068 27.3545C145.371 27.6561 145.543 28.0655 145.545 28.4933V35.2184C145.545 35.3494 145.493 35.475 145.401 35.5676C145.308 35.6602 145.183 35.7122 145.052 35.7122C144.921 35.7122 144.795 35.6602 144.703 35.5676C144.61 35.475 144.558 35.3494 144.558 35.2184V28.4933C144.555 28.3274 144.488 28.1692 144.369 28.0528C144.251 27.9364 144.092 27.8711 143.926 27.8711H130.439C130.274 27.8711 130.114 27.9364 129.996 28.0528C129.878 28.1692 129.81 28.3274 129.808 28.4933V76.3492C129.808 76.4802 129.756 76.6057 129.663 76.6983C129.57 76.7909 129.445 76.843 129.314 76.843H117.397C117.273 76.844 117.152 76.8815 117.049 76.951C116.946 77.0205 116.866 77.1189 116.818 77.2338C116.771 77.3487 116.758 77.475 116.782 77.5969C116.806 77.7188 116.866 77.831 116.953 77.9194L120.28 81.2572C120.326 81.3031 120.363 81.3578 120.388 81.4179C120.413 81.4781 120.426 81.5426 120.426 81.6078C120.426 81.673 120.413 81.7375 120.388 81.7977C120.363 81.8578 120.326 81.9124 120.28 81.9583C120.197 82.0562 120.081 82.1196 119.954 82.1362V82.1362Z" fill="#E3E3E3"/>
<path d="M23.2099 47.1466H30.8874C31.0562 47.1481 31.2177 47.2162 31.3366 47.3362C31.4554 47.4561 31.5221 47.6181 31.5221 47.787V75.0102H38.2955C38.4211 75.0115 38.5435 75.0498 38.6476 75.1203C38.7516 75.1907 38.8326 75.2902 38.8805 75.4064C38.9284 75.5226 38.941 75.6503 38.9169 75.7736C38.8927 75.897 38.8328 76.0105 38.7446 76.1L27.512 87.3353C27.3912 87.4537 27.2289 87.52 27.0599 87.52C26.8908 87.52 26.7285 87.4537 26.6078 87.3353L15.3751 76.1C15.2869 76.0105 15.227 75.897 15.2029 75.7736C15.1787 75.6503 15.1913 75.5226 15.2392 75.4064C15.2871 75.2902 15.3681 75.1907 15.4722 75.1203C15.5762 75.0498 15.6988 75.0115 15.8244 75.0102H22.5976V47.787C22.5975 47.6219 22.6611 47.4631 22.7752 47.3438C22.8893 47.2245 23.045 47.1538 23.2099 47.1466Z" fill="#EAB669"/>
<path d="M31.069 88.7677C30.948 88.768 30.828 88.7444 30.7162 88.6981C30.6044 88.6518 30.5029 88.5838 30.4175 88.498L27.2161 85.2903C27.1647 85.2378 27.1359 85.1672 27.1359 85.0937C27.1359 85.0202 27.1647 84.9496 27.2161 84.8971C27.2422 84.8708 27.2733 84.8499 27.3076 84.8356C27.3418 84.8213 27.3785 84.814 27.4156 84.814C27.4527 84.814 27.4893 84.8213 27.5235 84.8356C27.5577 84.8499 27.5889 84.8708 27.615 84.8971L30.8163 88.0991C30.8843 88.1644 30.9748 88.2008 31.069 88.2008C31.1632 88.2008 31.2537 88.1644 31.3217 88.0991L42.5544 76.8638C42.5884 76.8311 42.6153 76.7919 42.6337 76.7484C42.652 76.705 42.6614 76.6582 42.6611 76.6111C42.6611 76.5157 42.6233 76.4243 42.5559 76.3569C42.4885 76.2894 42.3971 76.2515 42.3017 76.2515H35.5621C35.4876 76.2515 35.4162 76.2219 35.3635 76.1692C35.3109 76.1166 35.2813 76.0451 35.2813 75.9706V68.3138C35.2813 68.2393 35.3109 68.1679 35.3635 68.1152C35.4162 68.0625 35.4876 68.0329 35.5621 68.0329C35.6366 68.0329 35.708 68.0625 35.7606 68.1152C35.8133 68.1679 35.8429 68.2393 35.8429 68.3138V75.6785H42.3298C42.5121 75.6784 42.6901 75.7325 42.8417 75.8337C42.9932 75.9349 43.1114 76.0788 43.1812 76.2472C43.2509 76.4156 43.2691 76.6009 43.2336 76.7797C43.198 76.9585 43.1102 77.1226 42.9813 77.2515L31.7486 88.4868C31.6608 88.5781 31.5552 88.6501 31.4383 88.6985C31.3213 88.7468 31.1955 88.7704 31.069 88.7677Z" fill="#E3E3E3"/>
<path d="M21.2949 79.2177C21.2201 79.2173 21.1481 79.1892 21.0927 79.139L19.2 77.2402C19.1143 77.1548 19.0463 77.0532 19 76.9414C18.9537 76.8295 18.93 76.7096 18.9303 76.5886C18.9303 76.4676 18.9541 76.3478 19.0004 76.2359C19.0467 76.1241 19.1145 76.0225 19.2 75.9369C19.3739 75.7657 19.6075 75.669 19.8515 75.6673H26.3384V48.7025C26.3399 48.4592 26.4376 48.2263 26.6102 48.0547C26.7828 47.8831 27.0161 47.7868 27.2594 47.7868H34.9315C35.1748 47.7868 35.4081 47.8831 35.5807 48.0547C35.7533 48.2263 35.851 48.4592 35.8525 48.7025V52.5282C35.8525 52.6027 35.8229 52.6741 35.7702 52.7268C35.7176 52.7795 35.6462 52.8091 35.5717 52.8091C35.4972 52.8091 35.4258 52.7795 35.3731 52.7268C35.3205 52.6741 35.2909 52.6027 35.2909 52.5282V48.7025C35.2894 48.6082 35.2509 48.5182 35.1836 48.452C35.1164 48.3857 35.0258 48.3486 34.9315 48.3486H27.2594C27.1651 48.3486 27.0745 48.3857 27.0073 48.452C26.94 48.5182 26.9015 48.6082 26.9 48.7025V75.9257C26.9 76.0002 26.8704 76.0716 26.8178 76.1243C26.7651 76.177 26.6937 76.2066 26.6192 76.2066H19.8402C19.7696 76.2072 19.7006 76.2285 19.642 76.268C19.5834 76.3076 19.5379 76.3636 19.5109 76.4289C19.4839 76.4943 19.4768 76.5661 19.4905 76.6355C19.5041 76.7048 19.5378 76.7686 19.5875 76.8189L21.4802 78.7177C21.5065 78.7438 21.5275 78.7749 21.5417 78.8091C21.556 78.8433 21.5633 78.88 21.5633 78.9171C21.5633 78.9542 21.556 78.9909 21.5417 79.0251C21.5275 79.0593 21.5065 79.0904 21.4802 79.1165C21.4332 79.1721 21.3672 79.2082 21.2949 79.2177V79.2177Z" fill="#E3E3E3"/>
<path fill-rule="evenodd" clip-rule="evenodd" d="M216.364 217.684L221.882 263.462H166.129C162.289 263.462 159.178 260.042 159.178 255.768V225.367C159.178 221.127 162.289 217.684 166.129 217.684H216.364ZM240.909 161.203L210.875 172.149L214.767 204.439H157.9C156.013 204.4 154.219 203.614 152.912 202.252C151.604 200.891 150.89 199.066 150.927 197.178V168.464C150.89 166.577 151.604 164.752 152.912 163.391C154.219 162.029 156.013 161.242 157.9 161.203H240.909Z" fill="#252525"/>
<path d="M591.557 131.015C597.575 131.015 602.454 126.162 602.454 120.174C602.454 114.186 597.575 109.333 591.557 109.333C585.539 109.333 580.66 114.186 580.66 120.174C580.66 126.162 585.539 131.015 591.557 131.015Z" fill="#71A5D2"/>
<path d="M588.339 136.477C585.791 136.477 583.3 135.725 581.181 134.316C579.062 132.908 577.41 130.905 576.435 128.563C575.46 126.22 575.205 123.643 575.702 121.156C576.199 118.669 577.426 116.384 579.228 114.591C581.03 112.799 583.326 111.578 585.826 111.083C588.325 110.588 590.916 110.842 593.27 111.812C595.625 112.783 597.637 114.426 599.053 116.534C600.469 118.643 601.225 121.121 601.225 123.657C601.222 127.056 599.864 130.315 597.448 132.718C595.032 135.122 591.756 136.474 588.339 136.477V136.477ZM588.339 112.033C586.026 112.033 583.765 112.716 581.841 113.995C579.918 115.274 578.419 117.092 577.534 119.219C576.649 121.345 576.418 123.685 576.871 125.943C577.323 128.2 578.438 130.273 580.075 131.9C581.711 133.527 583.796 134.634 586.066 135.082C588.335 135.529 590.687 135.297 592.823 134.415C594.96 133.532 596.785 132.039 598.069 130.124C599.352 128.209 600.037 125.958 600.034 123.657C600.031 120.573 598.797 117.617 596.605 115.437C594.412 113.258 591.439 112.033 588.339 112.033V112.033Z" fill="#E3E3E3"/>
<path d="M588.627 169.085C586.297 169.082 584.064 168.159 582.416 166.52C580.768 164.881 579.841 162.659 579.838 160.341V159.973C579.766 158.755 579.348 157.582 578.633 156.59C577.919 155.598 576.936 154.828 575.799 154.369C574.663 153.91 573.418 153.781 572.211 153.997C571.004 154.213 569.882 154.765 568.977 155.589L568.739 155.826C567.101 157.452 564.886 158.371 562.573 158.385C560.259 158.398 558.034 157.504 556.378 155.897H556.318C554.675 154.254 553.752 152.03 553.752 149.712C553.752 147.394 554.675 145.17 556.318 143.527L556.568 143.279C557.41 142.409 557.977 141.313 558.2 140.127C558.423 138.94 558.293 137.714 557.824 136.601C557.356 135.487 556.57 134.534 555.564 133.86C554.558 133.185 553.375 132.818 552.162 132.804H551.459C549.128 132.804 546.893 131.883 545.245 130.243C543.597 128.603 542.671 126.379 542.671 124.06C542.671 121.741 543.597 119.517 545.245 117.877C546.893 116.237 549.128 115.316 551.459 115.316H551.829C553.053 115.241 554.231 114.824 555.227 114.111C556.223 113.398 556.997 112.42 557.458 111.288C557.919 110.157 558.048 108.919 557.832 107.718C557.615 106.516 557.061 105.4 556.234 104.498L555.997 104.261C554.773 103.036 553.94 101.478 553.604 99.7832C553.268 98.0884 553.443 96.3326 554.107 94.7367C554.772 93.1407 555.896 91.776 557.338 90.8143C558.78 89.8526 560.477 89.3368 562.213 89.3319C564.511 89.3218 566.72 90.2162 568.358 91.8201L568.429 91.8912L568.68 92.14C569.561 92.9914 570.68 93.5595 571.89 93.7708C573.101 93.982 574.347 93.8267 575.468 93.3249H575.706H575.908C576.985 92.8397 577.901 92.0571 578.544 91.07C579.188 90.0829 579.534 88.9327 579.541 87.756V86.9622C579.541 84.6431 580.467 82.4189 582.115 80.7791C583.763 79.1392 585.998 78.2179 588.329 78.2179C590.66 78.2179 592.895 79.1392 594.544 80.7791C596.192 82.4189 597.118 84.6431 597.118 86.9622V87.3295C597.13 88.5389 597.498 89.7184 598.177 90.7219C598.855 91.7254 599.815 92.5089 600.936 92.9754C602.058 93.442 603.292 93.5711 604.487 93.3468C605.682 93.1225 606.784 92.5546 607.657 91.7135L607.896 91.4765C609.544 89.8391 611.777 88.9195 614.106 88.9195C616.435 88.9195 618.668 89.8391 620.316 91.4765L620.388 91.5476C622.013 93.1861 622.924 95.3953 622.924 97.697C622.924 99.9987 622.013 102.208 620.388 103.846L620.126 104.095C619.269 104.975 618.698 106.09 618.485 107.296C618.273 108.502 618.43 109.744 618.935 110.861V111.098V111.299C619.425 112.363 620.211 113.264 621.202 113.894C622.192 114.524 623.345 114.858 624.52 114.854H625.211C627.542 114.854 629.777 115.775 631.426 117.415C633.074 119.055 634 121.279 634 123.598C634 125.917 633.074 128.141 631.426 129.781C629.777 131.421 627.542 132.342 625.211 132.342H624.842C623.641 132.348 622.467 132.703 621.466 133.364C620.465 134.025 619.681 134.963 619.209 136.063C618.702 137.179 618.544 138.421 618.757 139.628C618.969 140.835 619.542 141.95 620.4 142.828L620.65 143.077C622.284 144.704 623.207 146.906 623.22 149.206C623.234 151.506 622.336 153.718 620.722 155.364V155.364L620.638 155.435C619.827 156.253 618.861 156.901 617.796 157.342C616.731 157.784 615.587 158.009 614.433 158.006C612.14 158.011 609.937 157.117 608.3 155.518L608.181 155.4L607.979 155.198C607.105 154.357 606.003 153.789 604.809 153.565C603.614 153.341 602.38 153.47 601.258 153.936C600.136 154.403 599.177 155.186 598.498 156.19C597.82 157.193 597.451 158.373 597.439 159.582V160.281C597.446 161.436 597.222 162.581 596.782 163.649C596.342 164.718 595.694 165.689 594.874 166.508C594.055 167.326 593.082 167.975 592.009 168.417C590.937 168.859 589.788 169.086 588.627 169.085V169.085ZM573.276 152.651C575.255 152.679 577.151 153.446 578.587 154.801C580.023 156.155 580.895 157.997 581.029 159.961V160.341C581.029 162.345 581.83 164.268 583.255 165.686C584.679 167.103 586.612 167.9 588.627 167.9C590.642 167.9 592.574 167.103 593.999 165.686C595.424 164.268 596.225 162.345 596.225 160.341V159.641C596.237 158.199 596.676 156.792 597.485 155.595C598.294 154.398 599.437 153.463 600.775 152.907C602.112 152.351 603.585 152.197 605.009 152.466C606.434 152.734 607.748 153.412 608.789 154.416L609.051 154.665C609.751 155.37 610.585 155.93 611.506 156.31C612.426 156.691 613.413 156.885 614.41 156.881V156.881C616.393 156.886 618.298 156.111 619.709 154.724V154.724L619.781 154.653C621.2 153.238 621.997 151.321 621.997 149.321C621.997 147.322 621.2 145.404 619.781 143.989L619.531 143.741C618.521 142.705 617.84 141.398 617.57 139.981C617.3 138.563 617.454 137.098 618.014 135.768C618.573 134.437 619.512 133.298 620.715 132.494C621.918 131.689 623.332 131.253 624.782 131.24H625.151C627.166 131.24 629.099 130.444 630.524 129.026C631.949 127.609 632.749 125.686 632.749 123.681C632.749 121.676 631.949 119.753 630.524 118.336C629.099 116.918 627.166 116.122 625.151 116.122H624.461C623.026 116.121 621.623 115.701 620.427 114.913C619.23 114.125 618.293 113.004 617.732 111.69V111.465V111.252C617.165 109.926 617.006 108.463 617.275 107.048C617.544 105.633 618.23 104.329 619.245 103.301L619.495 103.053C620.908 101.635 621.702 99.7181 621.702 97.7207C621.702 95.7234 620.908 93.8069 619.495 92.3889H619.423C618.001 90.9765 616.074 90.1832 614.064 90.1832C612.055 90.1832 610.127 90.9765 608.705 92.3889L608.455 92.6376C607.414 93.6418 606.1 94.3201 604.676 94.5883C603.252 94.8566 601.779 94.7031 600.442 94.1468C599.104 93.5905 597.96 92.6558 597.151 91.4588C596.342 90.2617 595.904 88.8548 595.891 87.4124V86.9622C595.891 84.9573 595.091 83.0345 593.666 81.6169C592.241 80.1992 590.309 79.4028 588.294 79.4028C586.279 79.4028 584.346 80.1992 582.921 81.6169C581.496 83.0345 580.695 84.9573 580.695 86.9622V87.6494C580.691 89.0776 580.267 90.4734 579.476 91.665C578.685 92.8565 577.561 93.7918 576.242 94.3557H576.003H575.801C574.467 94.9155 572.997 95.0702 571.575 94.8004C570.153 94.5305 568.843 93.8481 567.81 92.8391L567.548 92.5784C566.089 91.3681 564.228 90.7442 562.331 90.8295C560.433 90.9148 558.636 91.7031 557.293 93.0394C555.95 94.3757 555.158 96.1635 555.073 98.0514C554.987 99.9392 555.613 101.791 556.83 103.242L557.068 103.479C558.063 104.545 558.731 105.871 558.994 107.302C559.258 108.732 559.105 110.208 558.555 111.555C558.005 112.903 557.08 114.066 555.888 114.908C554.697 115.751 553.288 116.237 551.829 116.311H551.447C549.432 116.311 547.5 117.108 546.075 118.525C544.65 119.943 543.849 121.866 543.849 123.871C543.849 125.875 544.65 127.798 546.075 129.216C547.5 130.634 549.432 131.43 551.447 131.43H552.15C553.6 131.443 555.014 131.878 556.217 132.683C557.42 133.488 558.359 134.626 558.919 135.957C559.478 137.288 559.632 138.753 559.362 140.17C559.093 141.587 558.411 142.895 557.402 143.93L557.151 144.179C555.73 145.589 554.926 147.501 554.915 149.499C554.904 151.496 555.686 153.417 557.092 154.843L557.199 154.949C558.623 156.359 560.55 157.15 562.558 157.15C564.567 157.15 566.493 156.359 567.917 154.949L568.167 154.712C569.543 153.38 571.392 152.639 573.312 152.651H573.276Z" fill="#E3E3E3"/>
<path fill-rule="evenodd" clip-rule="evenodd" d="M372.649 146.573L449.105 175.296L448.361 182.975L564.431 183.327V169.192C564.434 168.712 564.335 168.238 564.141 167.8C563.946 167.361 563.661 166.968 563.304 166.647C562.946 166.326 562.524 166.084 562.066 165.936C561.608 165.789 561.123 165.739 560.645 165.791C559.745 165.908 558.835 165.936 557.929 165.874C556.027 165.746 554.171 165.234 552.473 164.371C550.775 163.507 549.272 162.309 548.054 160.85C546.835 159.391 545.928 157.7 545.386 155.882C544.844 154.063 544.679 152.154 544.901 150.269C544.946 149.798 544.891 149.322 544.739 148.873C544.587 148.424 544.342 148.012 544.02 147.663C543.698 147.314 543.305 147.037 542.868 146.849C542.431 146.661 541.959 146.567 541.483 146.573H372.649Z" fill="#252525"/>
<path d="M580.482 316.28H382.592C382.434 316.28 382.283 316.218 382.171 316.107C382.059 315.996 381.996 315.845 381.996 315.688C381.996 315.531 382.059 315.38 382.171 315.269C382.283 315.158 382.434 315.096 382.592 315.096H580.482C585.034 315.089 589.399 313.287 592.618 310.084C595.837 306.882 597.648 302.539 597.654 298.01V173.757C597.654 173.6 597.717 173.449 597.829 173.338C597.94 173.227 598.092 173.164 598.25 173.164C598.407 173.167 598.557 173.231 598.668 173.341C598.779 173.452 598.842 173.601 598.845 173.757V298.01C598.839 302.854 596.903 307.497 593.46 310.922C590.018 314.347 585.35 316.274 580.482 316.28Z" fill="#E3E3E3"/>
<path d="M541.994 139.985H361.669C361.511 139.985 361.359 139.922 361.248 139.811C361.136 139.7 361.073 139.549 361.073 139.392C361.073 139.235 361.136 139.084 361.248 138.973C361.359 138.862 361.511 138.8 361.669 138.8H541.994C542.152 138.8 542.304 138.862 542.415 138.973C542.527 139.084 542.59 139.235 542.59 139.392C542.587 139.548 542.523 139.697 542.412 139.808C542.301 139.918 542.151 139.982 541.994 139.985Z" fill="#E3E3E3"/>
<path d="M570.637 211.881H472.48C472.323 211.878 472.173 211.815 472.062 211.704C471.951 211.594 471.888 211.445 471.885 211.289C471.885 211.132 471.947 210.981 472.059 210.87C472.171 210.759 472.322 210.696 472.48 210.696H570.637C570.795 210.696 570.946 210.759 571.058 210.87C571.169 210.981 571.232 211.132 571.232 211.289C571.232 211.446 571.169 211.596 571.058 211.708C570.946 211.819 570.795 211.881 570.637 211.881Z" fill="#E3E3E3"/>
<path d="M570.637 235.496H472.48C472.323 235.493 472.173 235.43 472.062 235.319C471.951 235.209 471.888 235.06 471.885 234.904C471.885 234.747 471.947 234.596 472.059 234.485C472.171 234.374 472.322 234.311 472.48 234.311H570.637C570.795 234.311 570.946 234.374 571.058 234.485C571.169 234.596 571.232 234.747 571.232 234.904C571.232 235.061 571.169 235.211 571.058 235.323C570.946 235.434 570.795 235.496 570.637 235.496Z" fill="#E3E3E3"/>
<path d="M548.698 259.11H472.48C472.323 259.107 472.173 259.044 472.062 258.934C471.951 258.823 471.888 258.674 471.885 258.518C471.885 258.361 471.947 258.21 472.059 258.099C472.171 257.988 472.322 257.926 472.48 257.926H548.698C548.856 257.926 549.008 257.988 549.119 258.099C549.231 258.21 549.294 258.361 549.294 258.518C549.294 258.675 549.231 258.826 549.119 258.937C549.008 259.048 548.856 259.11 548.698 259.11Z" fill="#E3E3E3"/>
<path d="M537.729 282.712H472.48C472.322 282.712 472.171 282.65 472.059 282.539C471.947 282.428 471.885 282.277 471.885 282.12C471.888 281.964 471.951 281.815 472.062 281.704C472.173 281.594 472.323 281.531 472.48 281.527H537.729C537.887 281.527 538.038 281.59 538.15 281.701C538.262 281.812 538.324 281.963 538.324 282.12C538.324 282.277 538.262 282.428 538.15 282.539C538.038 282.65 537.887 282.712 537.729 282.712Z" fill="#E3E3E3"/>
<path d="M573.774 301.043C583.133 301.043 590.721 293.494 590.721 284.183C590.721 274.871 583.133 267.322 573.774 267.322C564.415 267.322 556.828 274.871 556.828 284.183C556.828 293.494 564.415 301.043 573.774 301.043Z" fill="#71A5D2"/>
<path d="M568.259 306.161C564.34 306.161 560.508 305.005 557.25 302.839C553.991 300.672 551.451 297.593 549.951 293.99C548.451 290.388 548.059 286.423 548.823 282.599C549.588 278.774 551.475 275.261 554.246 272.504C557.018 269.747 560.549 267.869 564.393 267.108C568.237 266.347 572.221 266.738 575.842 268.23C579.463 269.722 582.558 272.249 584.735 275.492C586.913 278.734 588.075 282.546 588.075 286.445C588.069 291.672 585.979 296.683 582.264 300.38C578.549 304.076 573.513 306.155 568.259 306.161V306.161ZM568.259 267.914C564.575 267.914 560.974 269.001 557.911 271.037C554.848 273.073 552.461 275.968 551.051 279.354C549.641 282.74 549.273 286.466 549.991 290.061C550.71 293.655 552.484 296.957 555.089 299.549C557.694 302.14 561.012 303.905 564.625 304.62C568.238 305.335 571.983 304.968 575.386 303.566C578.79 302.163 581.699 299.788 583.745 296.741C585.792 293.693 586.884 290.11 586.884 286.445C586.878 281.533 584.913 276.825 581.421 273.353C577.93 269.881 573.196 267.929 568.259 267.926V267.914Z" fill="#E3E3E3"/>
<path d="M564.689 293.803L558.306 287.464C558.193 287.352 558.131 287.201 558.131 287.043C558.131 286.886 558.193 286.734 558.306 286.623C558.418 286.511 558.57 286.448 558.729 286.448C558.887 286.448 559.039 286.511 559.152 286.623L564.689 292.132L577.36 279.514C577.473 279.404 577.625 279.343 577.783 279.343C577.941 279.343 578.092 279.404 578.206 279.514C578.262 279.569 578.306 279.634 578.336 279.706C578.366 279.779 578.381 279.856 578.381 279.934C578.381 280.012 578.366 280.09 578.336 280.162C578.306 280.234 578.262 280.3 578.206 280.355L564.689 293.803Z" fill="#E3E3E3"/>
<path d="M116.397 203.526H77.8511C76.7054 203.526 75.7767 204.455 75.7767 205.601V244.147C75.7767 245.292 76.7054 246.221 77.8511 246.221H116.397C117.543 246.221 118.472 245.292 118.472 244.147V205.601C118.472 204.455 117.543 203.526 116.397 203.526Z" fill="#252525"/>
<path d="M125.246 212.065C125.156 212.063 125.07 212.028 125.007 211.966C124.943 211.903 124.906 211.82 124.905 211.732V200.414C124.905 199.907 124.698 199.42 124.331 199.061C123.963 198.702 123.465 198.5 122.945 198.5H81.9836C81.7257 198.5 81.4701 198.549 81.2316 198.644C80.9931 198.74 80.7762 198.881 80.5935 199.059C80.4109 199.237 80.2661 199.448 80.1672 199.68C80.0683 199.913 80.0172 200.163 80.0172 200.414V203.082C80.0172 203.17 79.9815 203.255 79.9175 203.318C79.8535 203.38 79.7664 203.415 79.6758 203.415C79.5858 203.414 79.5001 203.378 79.4365 203.316C79.3728 203.254 79.3362 203.17 79.3345 203.082V200.414C79.3363 199.729 79.6163 199.073 80.1128 198.589C80.6094 198.105 81.2823 197.834 81.9836 197.834H122.945C123.646 197.834 124.318 198.106 124.814 198.59C125.309 199.074 125.587 199.73 125.587 200.414V211.752C125.582 211.836 125.544 211.916 125.481 211.975C125.417 212.033 125.333 212.065 125.246 212.065Z" fill="#E3E3E3"/>
<path d="M122.945 244.086H81.9836C81.2823 244.086 80.6094 243.805 80.1128 243.305C79.6163 242.804 79.3363 242.125 79.3345 241.416V213.122C79.3345 213.03 79.3705 212.943 79.4345 212.878C79.4985 212.813 79.5853 212.777 79.6758 212.777C79.7664 212.777 79.8535 212.813 79.9175 212.878C79.9815 212.943 80.0172 213.03 80.0172 213.122V241.416C80.019 241.941 80.227 242.445 80.5955 242.816C80.9641 243.188 81.4633 243.396 81.9836 243.396H122.945C123.465 243.394 123.962 243.185 124.329 242.814C124.696 242.443 124.903 241.94 124.905 241.416V234.356C124.905 234.264 124.941 234.177 125.005 234.112C125.069 234.047 125.155 234.011 125.246 234.011C125.336 234.011 125.424 234.047 125.488 234.112C125.552 234.177 125.587 234.264 125.587 234.356V241.402C125.589 241.754 125.522 242.103 125.39 242.428C125.258 242.754 125.064 243.05 124.819 243.299C124.573 243.549 124.281 243.747 123.959 243.882C123.638 244.017 123.294 244.086 122.945 244.086Z" fill="#E3E3E3"/>
<path d="M80.3878 243.375C80.3429 243.374 80.2987 243.365 80.2575 243.348C80.2162 243.33 80.1787 243.304 80.1476 243.272C80.1154 243.24 80.0899 243.201 80.0725 243.159C80.0551 243.117 80.046 243.073 80.046 243.027C80.046 242.982 80.0551 242.937 80.0725 242.895C80.0899 242.853 80.1154 242.815 80.1476 242.783L124.294 198.644C124.358 198.581 124.444 198.545 124.534 198.545C124.624 198.545 124.71 198.581 124.774 198.644C124.806 198.676 124.832 198.714 124.849 198.755C124.867 198.797 124.876 198.842 124.876 198.888C124.876 198.933 124.867 198.978 124.849 199.02C124.832 199.062 124.806 199.1 124.774 199.132L80.6348 243.272C80.5693 243.337 80.4806 243.374 80.3878 243.375Z" fill="#E3E3E3"/>
<path d="M124.537 243.368C124.448 243.369 124.361 243.334 124.297 243.272L83.703 202.684C83.6393 202.62 83.6038 202.534 83.6038 202.443C83.6038 202.353 83.6393 202.266 83.703 202.202C83.7667 202.139 83.8531 202.103 83.9432 202.103C84.0333 202.103 84.1198 202.139 84.1834 202.202L124.777 242.79C124.824 242.838 124.856 242.899 124.869 242.965C124.882 243.031 124.875 243.1 124.85 243.162C124.824 243.224 124.781 243.277 124.725 243.315C124.67 243.353 124.604 243.374 124.537 243.375V243.368Z" fill="#E3E3E3"/>
<path d="M116.397 263.299H77.8511C76.7054 263.299 75.7767 264.212 75.7767 265.339V303.242C75.7767 304.369 76.7054 305.282 77.8511 305.282H116.397C117.543 305.282 118.472 304.369 118.472 303.242V265.339C118.472 264.212 117.543 263.299 116.397 263.299Z" fill="#252525"/>
<path d="M125.246 271.126C125.156 271.125 125.07 271.089 125.007 271.027C124.943 270.964 124.906 270.881 124.905 270.793V259.478C124.905 258.97 124.698 258.483 124.331 258.123C123.963 257.764 123.465 257.562 122.945 257.562H81.9836C81.7257 257.561 81.4701 257.61 81.2316 257.706C80.9931 257.802 80.7762 257.943 80.5935 258.121C80.4109 258.299 80.2661 258.51 80.1672 258.743C80.0683 258.976 80.0172 259.226 80.0172 259.478V262.148C80.0172 262.237 79.9815 262.321 79.9175 262.384C79.8535 262.447 79.7664 262.482 79.6758 262.482C79.5858 262.48 79.5001 262.445 79.4365 262.382C79.3728 262.32 79.3362 262.236 79.3345 262.148V259.478C79.3363 258.792 79.6163 258.135 80.1128 257.651C80.6094 257.167 81.2823 256.895 81.9836 256.895H122.945C123.646 256.895 124.318 257.167 124.814 257.651C125.309 258.136 125.587 258.793 125.587 259.478V270.793C125.587 270.881 125.552 270.966 125.488 271.029C125.424 271.091 125.336 271.126 125.246 271.126Z" fill="#E3E3E3"/>
<path d="M122.945 303.859H81.9836C81.2823 303.859 80.6094 303.578 80.1128 303.077C79.6163 302.577 79.3363 301.897 79.3345 301.188V272.895C79.3345 272.803 79.3705 272.715 79.4345 272.651C79.4985 272.586 79.5853 272.55 79.6758 272.55C79.7664 272.55 79.8535 272.586 79.9175 272.651C79.9815 272.715 80.0172 272.803 80.0172 272.895V301.188C80.0172 301.449 80.0683 301.708 80.1672 301.948C80.2661 302.189 80.4109 302.408 80.5935 302.592C80.7762 302.776 80.9931 302.921 81.2316 303.02C81.4701 303.12 81.7257 303.17 81.9836 303.169H122.945C123.465 303.169 123.963 302.961 124.331 302.589C124.698 302.218 124.905 301.714 124.905 301.188V294.129C124.905 294.037 124.941 293.95 125.005 293.885C125.069 293.82 125.155 293.784 125.246 293.784C125.336 293.784 125.424 293.82 125.488 293.885C125.552 293.95 125.587 294.037 125.587 294.129V301.188C125.587 301.897 125.309 302.576 124.814 303.077C124.318 303.578 123.646 303.859 122.945 303.859V303.859Z" fill="#E3E3E3"/>
<path d="M80.3878 302.436C80.3429 302.436 80.2987 302.427 80.2575 302.409C80.2162 302.391 80.1787 302.365 80.1476 302.333C80.1154 302.301 80.0899 302.263 80.0725 302.221C80.0551 302.179 80.046 302.134 80.046 302.089C80.046 302.043 80.0551 301.998 80.0725 301.956C80.0899 301.914 80.1154 301.876 80.1476 301.844L124.294 257.704C124.358 257.641 124.444 257.606 124.534 257.606C124.624 257.606 124.71 257.641 124.774 257.704C124.806 257.736 124.832 257.775 124.849 257.817C124.867 257.859 124.876 257.903 124.876 257.949C124.876 257.994 124.867 258.039 124.849 258.081C124.832 258.123 124.806 258.161 124.774 258.193L80.6348 302.333C80.5693 302.399 80.4806 302.436 80.3878 302.436V302.436Z" fill="#E3E3E3"/>
<path d="M124.558 303.12C124.468 303.121 124.382 303.086 124.318 303.024L83.7033 262.457C83.6396 262.393 83.6038 262.307 83.6038 262.216C83.6038 262.126 83.6396 262.039 83.7033 261.976C83.767 261.912 83.8535 261.876 83.9436 261.876C84.0336 261.876 84.1201 261.912 84.1838 261.976L124.777 302.563C124.824 302.611 124.856 302.672 124.869 302.738C124.882 302.804 124.875 302.872 124.85 302.935C124.824 302.997 124.781 303.05 124.725 303.088C124.67 303.126 124.604 303.147 124.537 303.148L124.558 303.12Z" fill="#E3E3E3"/>
<path d="M56.2377 203.526H17.6917C16.546 203.526 15.6172 204.455 15.6172 205.601V244.147C15.6172 245.292 16.546 246.221 17.6917 246.221H56.2377C57.3834 246.221 58.3121 245.292 58.3121 244.147V205.601C58.3121 204.455 57.3834 203.526 56.2377 203.526Z" fill="#252525"/>
<path d="M65.0865 212.065C64.9965 212.063 64.9108 212.028 64.8471 211.966C64.7835 211.903 64.7469 211.82 64.7451 211.732V200.414C64.7451 199.907 64.5389 199.42 64.1714 199.061C63.804 198.702 63.3057 198.5 62.786 198.5H21.8241C21.5663 198.5 21.3106 198.549 21.0721 198.644C20.8336 198.74 20.6167 198.881 20.4341 199.059C20.2514 199.237 20.1066 199.448 20.0077 199.68C19.9088 199.913 19.8577 200.163 19.8577 200.414V203.082C19.8577 203.17 19.8221 203.255 19.758 203.318C19.694 203.38 19.6069 203.415 19.5164 203.415C19.4264 203.414 19.3407 203.378 19.277 203.316C19.2134 203.254 19.1768 203.17 19.175 203.082V200.414C19.1768 199.729 19.4568 199.073 19.9534 198.589C20.45 198.105 21.1228 197.834 21.8241 197.834H62.786C63.4867 197.834 64.1586 198.106 64.6541 198.59C65.1496 199.074 65.4278 199.73 65.4278 200.414V211.752C65.4226 211.836 65.3846 211.916 65.3211 211.975C65.2577 212.033 65.1736 212.065 65.0865 212.065Z" fill="#E3E3E3"/>
<path d="M62.786 244.086H21.8241C21.1228 244.086 20.4499 243.805 19.9534 243.305C19.4568 242.804 19.1768 242.125 19.175 241.416V213.122C19.175 213.03 19.211 212.943 19.275 212.878C19.339 212.813 19.4258 212.777 19.5164 212.777C19.6069 212.777 19.694 212.813 19.758 212.878C19.8221 212.943 19.8577 213.03 19.8577 213.122V241.416C19.8595 241.941 20.0675 242.445 20.4361 242.816C20.8046 243.188 21.3039 243.396 21.8241 243.396H62.786C63.3051 243.394 63.8023 243.185 64.1694 242.814C64.5364 242.443 64.7433 241.94 64.7451 241.416V234.356C64.7451 234.264 64.7811 234.177 64.8451 234.112C64.9091 234.047 64.9959 234.011 65.0864 234.011C65.177 234.011 65.2641 234.047 65.3281 234.112C65.3921 234.177 65.4278 234.264 65.4278 234.356V241.402C65.4296 241.754 65.3627 242.103 65.2308 242.428C65.0988 242.754 64.9046 243.05 64.6591 243.299C64.4136 243.549 64.1215 243.747 63.8 243.882C63.4786 244.017 63.1341 244.086 62.786 244.086Z" fill="#E3E3E3"/>
<path d="M20.2284 243.375C20.1835 243.374 20.1393 243.365 20.098 243.348C20.0568 243.33 20.0193 243.304 19.9881 243.272C19.956 243.24 19.9305 243.201 19.9131 243.159C19.8956 243.117 19.8866 243.073 19.8866 243.027C19.8866 242.982 19.8956 242.937 19.9131 242.895C19.9305 242.853 19.956 242.815 19.9881 242.783L64.1342 198.644C64.1983 198.581 64.2846 198.545 64.3744 198.545C64.4643 198.545 64.5506 198.581 64.6147 198.644C64.6469 198.676 64.6723 198.714 64.6898 198.755C64.7072 198.797 64.7162 198.842 64.7162 198.888C64.7162 198.933 64.7072 198.978 64.6898 199.02C64.6723 199.062 64.6469 199.1 64.6147 199.132L20.4753 243.272C20.4099 243.337 20.3211 243.375 20.2284 243.375Z" fill="#E3E3E3"/>
<path d="M64.3778 243.368C64.2883 243.369 64.2021 243.334 64.1376 243.272L23.5436 202.684C23.4799 202.62 23.4444 202.534 23.4444 202.443C23.4444 202.353 23.4799 202.266 23.5436 202.202C23.6073 202.139 23.6937 202.103 23.7838 202.103C23.8739 202.103 23.9603 202.139 24.024 202.202L64.6181 242.79C64.6651 242.838 64.697 242.899 64.7099 242.965C64.7227 243.031 64.7157 243.1 64.6901 243.162C64.6645 243.224 64.6213 243.277 64.5658 243.315C64.5102 243.353 64.445 243.374 64.3778 243.375V243.368Z" fill="#E3E3E3"/>
<path d="M56.2377 263.299H17.6917C16.546 263.299 15.6172 264.212 15.6172 265.339V303.242C15.6172 304.369 16.546 305.282 17.6917 305.282H56.2377C57.3834 305.282 58.3121 304.369 58.3121 303.242V265.339C58.3121 264.212 57.3834 263.299 56.2377 263.299Z" fill="#252525"/>
<path d="M65.0865 271.126C64.9965 271.125 64.9108 271.089 64.8471 271.027C64.7835 270.964 64.7469 270.881 64.7451 270.793V259.478C64.7451 258.97 64.5389 258.483 64.1714 258.123C63.804 257.764 63.3057 257.562 62.786 257.562H21.8241C21.5663 257.561 21.3106 257.61 21.0721 257.706C20.8336 257.802 20.6167 257.943 20.4341 258.121C20.2514 258.299 20.1066 258.51 20.0077 258.743C19.9088 258.976 19.8577 259.226 19.8577 259.478V262.148C19.8577 262.237 19.8221 262.321 19.758 262.384C19.694 262.447 19.6069 262.482 19.5164 262.482C19.4264 262.48 19.3407 262.445 19.277 262.382C19.2134 262.32 19.1768 262.236 19.175 262.148V259.478C19.1768 258.792 19.4568 258.135 19.9534 257.651C20.45 257.167 21.1228 256.895 21.8241 256.895H62.786C63.4867 256.895 64.1586 257.167 64.6541 257.651C65.1496 258.136 65.4278 258.793 65.4278 259.478V270.793C65.4278 270.881 65.3922 270.966 65.3281 271.029C65.2641 271.091 65.177 271.126 65.0865 271.126Z" fill="#E3E3E3"/>
<path d="M62.786 303.859H21.8241C21.1228 303.859 20.45 303.578 19.9534 303.077C19.4568 302.577 19.1768 301.897 19.175 301.188V272.895C19.175 272.803 19.211 272.715 19.275 272.651C19.339 272.586 19.4258 272.55 19.5164 272.55C19.6069 272.55 19.694 272.586 19.758 272.651C19.8221 272.715 19.8577 272.803 19.8577 272.895V301.188C19.8577 301.449 19.9088 301.708 20.0077 301.948C20.1066 302.189 20.2514 302.408 20.4341 302.592C20.6167 302.776 20.8336 302.921 21.0721 303.02C21.3106 303.12 21.5663 303.17 21.8241 303.169H62.786C63.3057 303.169 63.804 302.961 64.1714 302.589C64.5389 302.218 64.7451 301.714 64.7451 301.188V294.129C64.7451 294.037 64.7811 293.95 64.8451 293.885C64.9091 293.82 64.9959 293.784 65.0865 293.784C65.177 293.784 65.2641 293.82 65.3281 293.885C65.3922 293.95 65.4278 294.037 65.4278 294.129V301.188C65.4278 301.897 65.1496 302.576 64.6541 303.077C64.1586 303.578 63.4867 303.859 62.786 303.859V303.859Z" fill="#E3E3E3"/>
<path d="M20.2284 302.436C20.1835 302.436 20.1393 302.427 20.098 302.409C20.0568 302.391 20.0193 302.365 19.9881 302.333C19.956 302.301 19.9305 302.263 19.9131 302.221C19.8956 302.179 19.8866 302.134 19.8866 302.089C19.8866 302.043 19.8956 301.998 19.9131 301.956C19.9305 301.914 19.956 301.876 19.9881 301.844L64.1342 257.704C64.1983 257.641 64.2846 257.606 64.3744 257.606C64.4643 257.606 64.5506 257.641 64.6147 257.704C64.6469 257.736 64.6723 257.775 64.6898 257.817C64.7072 257.859 64.7162 257.903 64.7162 257.949C64.7162 257.994 64.7072 258.039 64.6898 258.081C64.6723 258.123 64.6469 258.161 64.6147 258.193L20.4753 302.333C20.4099 302.399 20.3211 302.436 20.2284 302.436Z" fill="#E3E3E3"/>
<path d="M64.3985 303.12C64.309 303.121 64.2227 303.086 64.1583 303.024L23.5439 262.457C23.4802 262.393 23.4444 262.307 23.4444 262.216C23.4444 262.126 23.4802 262.039 23.5439 261.976C23.6076 261.912 23.6941 261.876 23.7841 261.876C23.8742 261.876 23.9607 261.912 24.0244 261.976L64.618 302.563C64.665 302.611 64.6969 302.672 64.7098 302.738C64.7226 302.804 64.7159 302.872 64.6903 302.935C64.6648 302.997 64.6216 303.05 64.566 303.088C64.5105 303.126 64.4449 303.147 64.3777 303.148L64.3985 303.12Z" fill="#E3E3E3"/>
<path d="M510.106 94.5806C518.715 94.5806 525.694 89.0077 525.694 82.1331C525.694 75.2586 518.715 69.6857 510.106 69.6857C501.498 69.6857 494.519 75.2586 494.519 82.1331C494.519 89.0077 501.498 94.5806 510.106 94.5806Z" fill="#EAB669"/>
<path d="M507.804 61.0909C513.556 61.0909 518.219 56.4264 518.219 50.6724C518.219 44.9184 513.556 40.2539 507.804 40.2539C502.053 40.2539 497.39 44.9184 497.39 50.6724C497.39 56.4264 502.053 61.0909 507.804 61.0909Z" fill="#CE7783"/>
<path d="M504.901 65.4565C502.446 65.4565 500.047 64.7283 498.007 63.3643C495.966 62.0003 494.376 60.0617 493.437 57.7935C492.498 55.5253 492.252 53.0293 492.731 50.6214C493.21 48.2135 494.391 46.0018 496.126 44.2658C497.862 42.5298 500.073 41.3474 502.48 40.8684C504.887 40.3895 507.382 40.6352 509.649 41.5747C511.916 42.5143 513.854 44.1051 515.218 46.1465C516.581 48.1878 517.309 50.588 517.309 53.0431C517.312 54.0889 517.182 55.131 516.921 56.1438C516.903 56.2186 516.869 56.2889 516.823 56.3508C516.778 56.4128 516.72 56.4653 516.654 56.505C516.588 56.5447 516.514 56.571 516.438 56.5824C516.362 56.5937 516.284 56.59 516.209 56.5713C516.134 56.5525 516.064 56.5192 516.002 56.4733C515.94 56.4274 515.888 56.3697 515.848 56.3035C515.808 56.2374 515.782 56.1639 515.771 56.0876C515.759 56.0113 515.763 55.9337 515.782 55.8588C516.02 54.9394 516.139 53.9929 516.135 53.0431C516.135 50.8134 515.474 48.6338 514.236 46.7799C512.998 44.926 511.238 43.481 509.178 42.6278C507.119 41.7745 504.854 41.5516 502.668 41.9866C500.482 42.4216 498.474 43.4951 496.898 45.0717C495.322 46.6483 494.249 48.6572 493.814 50.844C493.379 53.0309 493.602 55.2972 494.455 57.3571C495.308 59.4171 496.752 61.1777 498.605 62.4165C500.459 63.6552 502.637 64.3166 504.866 64.3166C507.112 64.3238 509.309 63.6525 511.167 62.3903C511.293 62.3057 511.447 62.2741 511.595 62.3029C511.744 62.3318 511.875 62.4185 511.959 62.5439C512.044 62.6694 512.075 62.8234 512.047 62.9719C512.018 63.1205 511.931 63.2518 511.806 63.3365C509.767 64.717 507.362 65.4553 504.901 65.4565V65.4565Z" fill="#E3E3E3"/>
<path d="M526.083 88.6869C525.956 88.6849 525.832 88.6401 525.733 88.5594C525.634 88.4788 525.565 88.3669 525.537 88.2422C524.573 84.2492 522.475 80.6206 519.496 77.7941C516.516 74.9676 512.783 73.0642 508.746 72.3134C504.709 71.5626 500.541 71.9966 496.746 73.5629C492.95 75.1293 489.688 77.7611 487.354 81.1408C487.314 81.2065 487.26 81.2635 487.197 81.3078C487.133 81.352 487.062 81.3828 486.986 81.3985C486.91 81.4141 486.832 81.4145 486.756 81.399C486.68 81.3835 486.609 81.3525 486.545 81.3083C486.482 81.2642 486.428 81.2075 486.387 81.1419C486.346 81.0763 486.319 81.0029 486.307 80.9265C486.296 80.8501 486.299 80.772 486.319 80.6972C486.338 80.6223 486.373 80.5524 486.42 80.4913C488.88 76.9323 492.316 74.1614 496.315 72.5127C500.314 70.864 504.704 70.408 508.957 71.1997C513.209 71.9914 517.141 73.9967 520.279 76.9742C523.417 79.9518 525.627 83.7741 526.642 87.98C526.676 88.1266 526.651 88.281 526.572 88.4092C526.493 88.5373 526.367 88.6289 526.22 88.6641L526.083 88.6869Z" fill="#E3E3E3"/>
<path d="M505.186 95.1501C499.259 95.1489 493.414 93.7634 488.116 91.1032C482.819 88.443 478.215 84.5817 474.673 79.8274C471.13 75.0732 468.746 69.557 467.711 63.7183C466.676 57.8797 467.017 51.8802 468.709 46.1971C470.401 40.514 473.397 35.3042 477.456 30.9835C481.516 26.6629 486.528 23.3503 492.093 21.3096C497.658 19.2689 503.623 18.557 509.513 19.2297C515.402 19.9024 521.052 21.9413 526.015 25.1845C526.078 25.2257 526.131 25.2788 526.174 25.3409C526.216 25.403 526.246 25.4727 526.261 25.5463C526.276 25.6199 526.277 25.6956 526.263 25.7695C526.249 25.8433 526.221 25.9137 526.18 25.9765C526.139 26.0394 526.086 26.0939 526.024 26.1363C525.962 26.1786 525.892 26.2083 525.818 26.2237C525.745 26.239 525.669 26.2393 525.595 26.2253C525.521 26.2113 525.451 26.183 525.388 26.1418C517.839 21.2051 508.745 19.2021 499.822 20.5098C490.898 21.8175 482.761 26.3457 476.944 33.241C471.128 40.1364 468.034 48.9221 468.246 57.9421C468.458 66.9621 471.961 75.5929 478.095 82.2074C484.229 88.8219 492.569 92.963 501.544 93.85C510.52 94.7369 519.509 92.3089 526.818 87.0229C534.127 81.737 539.25 73.9584 541.222 65.1543C543.194 56.3501 541.878 47.1282 537.523 39.2276C537.453 39.0941 537.438 38.9387 537.48 38.794C537.523 38.6494 537.62 38.5273 537.751 38.4529C537.817 38.4167 537.889 38.3941 537.964 38.3861C538.038 38.378 538.114 38.3844 538.186 38.4055C538.258 38.4267 538.325 38.4619 538.383 38.5091C538.441 38.5563 538.49 38.6145 538.526 38.6805C541.721 44.4791 543.35 51.0114 543.252 57.6321C543.154 64.2528 541.332 70.7333 537.966 76.4345C534.6 82.1357 529.806 86.8605 524.058 90.1426C518.31 93.4247 511.805 95.1505 505.186 95.1501V95.1501Z" fill="#E3E3E3"/>
<path d="M293.105 299.323H289.082C288.931 299.323 288.787 299.263 288.68 299.156C288.573 299.049 288.513 298.904 288.513 298.753C288.513 298.602 288.573 298.457 288.68 298.35C288.787 298.243 288.931 298.183 289.082 298.183H293.105C296.647 298.18 300.042 296.772 302.548 294.267C305.053 291.763 306.464 288.367 306.47 284.823V200.256C306.47 200.105 306.53 199.96 306.637 199.853C306.744 199.746 306.889 199.686 307.04 199.686C307.191 199.686 307.336 199.746 307.443 199.853C307.55 199.96 307.61 200.105 307.61 200.256V284.846C307.598 288.688 306.064 292.368 303.346 295.081C300.627 297.794 296.945 299.32 293.105 299.323Z" fill="#E3E3E3"/>
<path d="M157.387 299.323H155.165C151.322 299.32 147.637 297.792 144.92 295.073C142.203 292.355 140.675 288.668 140.672 284.824V155.242C140.675 151.397 142.203 147.711 144.92 144.993C147.637 142.274 151.322 140.746 155.165 140.743H293.104C296.948 140.746 300.634 142.274 303.353 144.992C303.312 144.992 301.8 145.1 301.8 145.1C299.387 143.031 296.305 141.883 293.104 141.883H155.165C151.624 141.883 148.227 143.29 145.723 145.796C143.218 148.301 141.811 151.699 141.811 155.242V284.846C141.814 288.389 143.222 291.785 145.726 294.289C148.23 296.794 151.624 298.203 155.165 298.206H157.387C157.538 298.206 157.683 298.266 157.79 298.372C157.897 298.479 157.957 298.625 157.957 298.776C157.957 298.927 157.897 299.072 157.79 299.179C157.683 299.286 157.538 299.346 157.387 299.346V299.323Z" fill="#E3E3E3"/>
<path d="M176.518 186.793C179.199 186.793 181.372 185.058 181.372 182.918C181.372 180.777 179.199 179.042 176.518 179.042C173.837 179.042 171.664 180.777 171.664 182.918C171.664 185.058 173.837 186.793 176.518 186.793Z" fill="#CE7783"/>
<path d="M175.803 176.353C177.596 176.353 179.05 174.898 179.05 173.104C179.05 171.31 177.596 169.855 175.803 169.855C174.009 169.855 172.555 171.31 172.555 173.104C172.555 174.898 174.009 176.353 175.803 176.353Z" fill="#CE7783"/>
<path d="M174.9 178.107C174.057 178.11 173.232 177.861 172.529 177.394C171.827 176.927 171.279 176.262 170.955 175.484C170.63 174.705 170.545 173.847 170.708 173.02C170.871 172.192 171.276 171.431 171.871 170.834C172.467 170.237 173.226 169.829 174.053 169.664C174.88 169.499 175.737 169.582 176.517 169.904C177.296 170.227 177.962 170.773 178.431 171.475C178.9 172.176 179.15 173.001 179.15 173.845C179.15 174.202 179.105 174.558 179.014 174.904C178.996 174.976 178.965 175.045 178.921 175.105C178.877 175.165 178.821 175.215 178.758 175.253C178.694 175.291 178.624 175.317 178.55 175.327C178.477 175.338 178.402 175.334 178.33 175.315C178.257 175.296 178.189 175.263 178.129 175.218C178.069 175.173 178.019 175.117 177.98 175.052C177.942 174.988 177.917 174.916 177.907 174.842C177.897 174.768 177.9 174.692 177.919 174.619C177.978 174.365 178.009 174.105 178.011 173.845C178.011 173.226 177.827 172.622 177.484 172.108C177.14 171.594 176.652 171.194 176.081 170.958C175.509 170.721 174.881 170.661 174.275 170.782C173.669 170.904 173.113 171.202 172.677 171.64C172.241 172.078 171.945 172.636 171.825 173.242C171.706 173.849 171.769 174.477 172.007 175.047C172.245 175.618 172.647 176.105 173.162 176.447C173.677 176.789 174.282 176.97 174.9 176.968C175.518 176.969 176.122 176.783 176.632 176.432C176.694 176.389 176.764 176.358 176.838 176.342C176.912 176.327 176.988 176.325 177.062 176.339C177.136 176.353 177.207 176.381 177.27 176.423C177.333 176.464 177.387 176.518 177.43 176.58C177.511 176.707 177.541 176.86 177.514 177.008C177.486 177.156 177.403 177.289 177.282 177.378C176.579 177.856 175.749 178.11 174.9 178.107V178.107Z" fill="#E3E3E3"/>
<path d="M181.512 185.346C181.383 185.345 181.258 185.3 181.157 185.22C181.056 185.139 180.984 185.027 180.954 184.901C180.671 183.731 180.056 182.668 179.182 181.84C178.309 181.012 177.215 180.456 176.032 180.236C174.849 180.017 173.627 180.144 172.515 180.604C171.403 181.064 170.448 181.836 169.765 182.827C169.678 182.948 169.546 183.031 169.399 183.056C169.252 183.082 169.102 183.049 168.979 182.964C168.917 182.923 168.863 182.869 168.822 182.807C168.781 182.745 168.752 182.675 168.738 182.602C168.725 182.528 168.726 182.453 168.742 182.38C168.758 182.307 168.787 182.239 168.83 182.178C169.638 181.004 170.769 180.089 172.086 179.545C173.403 179 174.849 178.849 176.249 179.11C177.65 179.37 178.945 180.031 179.979 181.013C181.012 181.994 181.738 183.253 182.071 184.639C182.105 184.786 182.08 184.94 182.001 185.068C181.922 185.197 181.795 185.288 181.649 185.323L181.512 185.346Z" fill="#E3E3E3"/>
<path d="M174.982 187.364C172.557 187.364 170.186 186.644 168.17 185.296C166.154 183.949 164.583 182.034 163.655 179.792C162.727 177.551 162.484 175.085 162.957 172.705C163.43 170.326 164.597 168.141 166.312 166.425C168.027 164.71 170.212 163.543 172.59 163.069C174.968 162.596 177.433 162.839 179.674 163.767C181.914 164.696 183.828 166.267 185.175 168.284C186.523 170.301 187.242 172.673 187.242 175.099C187.239 178.351 185.946 181.469 183.648 183.768C181.349 186.068 178.232 187.361 174.982 187.364V187.364ZM174.982 163.973C172.782 163.973 170.632 164.626 168.803 165.848C166.975 167.071 165.549 168.808 164.707 170.841C163.866 172.874 163.645 175.111 164.074 177.269C164.503 179.427 165.563 181.41 167.118 182.965C168.673 184.521 170.655 185.581 172.812 186.01C174.969 186.439 177.205 186.219 179.237 185.377C181.269 184.535 183.006 183.109 184.228 181.28C185.45 179.45 186.102 177.299 186.102 175.099C186.09 172.156 184.913 169.337 182.829 167.261C180.745 165.184 177.923 164.019 174.982 164.019V163.973Z" fill="#E3E3E3"/>
<path d="M216.735 167.609H194.228C194.077 167.609 193.932 167.548 193.825 167.442C193.718 167.335 193.658 167.19 193.658 167.039C193.658 166.888 193.718 166.743 193.825 166.636C193.932 166.529 194.077 166.469 194.228 166.469H216.735C216.886 166.469 217.031 166.529 217.138 166.636C217.244 166.743 217.304 166.888 217.304 167.039C217.302 167.189 217.24 167.332 217.134 167.438C217.028 167.545 216.885 167.606 216.735 167.609Z" fill="#E3E3E3"/>
<path d="M208.511 176.922H194.228C194.077 176.922 193.932 176.862 193.825 176.755C193.718 176.648 193.658 176.503 193.658 176.352C193.658 176.201 193.718 176.056 193.825 175.949C193.932 175.843 194.077 175.783 194.228 175.783H208.511C208.662 175.783 208.807 175.843 208.914 175.949C209.021 176.056 209.081 176.201 209.081 176.352C209.081 176.503 209.021 176.648 208.914 176.755C208.807 176.862 208.662 176.922 208.511 176.922Z" fill="#E3E3E3"/>
<path d="M176.518 244.244C179.199 244.244 181.372 242.509 181.372 240.368C181.372 238.228 179.199 236.493 176.518 236.493C173.837 236.493 171.664 238.228 171.664 240.368C171.664 242.509 173.837 244.244 176.518 244.244Z" fill="#CE7783"/>
<path d="M175.803 233.814C177.596 233.814 179.05 232.36 179.05 230.565C179.05 228.771 177.596 227.317 175.803 227.317C174.009 227.317 172.555 228.771 172.555 230.565C172.555 232.36 174.009 233.814 175.803 233.814Z" fill="#CE7783"/>
<path d="M174.9 235.557C174.01 235.559 173.143 235.284 172.418 234.768C171.693 234.252 171.148 233.522 170.859 232.68C170.57 231.839 170.551 230.928 170.805 230.075C171.059 229.222 171.574 228.471 172.277 227.926C172.98 227.38 173.836 227.068 174.725 227.034C175.613 227 176.49 227.245 177.233 227.734C177.976 228.224 178.547 228.933 178.866 229.764C179.185 230.595 179.237 231.504 179.014 232.365C178.976 232.51 178.883 232.633 178.755 232.71C178.628 232.787 178.475 232.81 178.33 232.776C178.257 232.757 178.189 232.724 178.129 232.679C178.069 232.634 178.019 232.578 177.98 232.513C177.942 232.449 177.917 232.377 177.907 232.303C177.897 232.229 177.9 232.153 177.919 232.08C177.978 231.822 178.008 231.559 178.01 231.294C178.008 230.6 177.774 229.927 177.345 229.381C176.916 228.835 176.317 228.449 175.644 228.283C174.97 228.117 174.26 228.181 173.627 228.465C172.994 228.749 172.474 229.236 172.15 229.85C171.825 230.463 171.716 231.168 171.838 231.851C171.96 232.534 172.306 233.158 172.823 233.621C173.339 234.085 173.996 234.362 174.688 234.409C175.381 234.456 176.069 234.271 176.643 233.882C176.769 233.814 176.914 233.796 177.052 233.831C177.189 233.866 177.309 233.951 177.387 234.069C177.466 234.188 177.498 234.331 177.476 234.471C177.454 234.611 177.38 234.739 177.27 234.828C176.572 235.305 175.745 235.559 174.9 235.557V235.557Z" fill="#E3E3E3"/>
<path d="M181.509 242.796C181.381 242.797 181.256 242.755 181.154 242.677C181.053 242.598 180.981 242.487 180.95 242.363C180.669 241.192 180.055 240.128 179.182 239.298C178.309 238.469 177.215 237.91 176.032 237.69C174.849 237.469 173.627 237.596 172.514 238.055C171.401 238.515 170.445 239.286 169.761 240.277C169.72 240.342 169.667 240.399 169.603 240.444C169.54 240.488 169.468 240.519 169.392 240.534C169.317 240.55 169.239 240.55 169.163 240.534C169.087 240.519 169.015 240.488 168.952 240.444C168.888 240.4 168.835 240.343 168.794 240.278C168.753 240.212 168.726 240.139 168.714 240.062C168.702 239.986 168.706 239.908 168.726 239.833C168.745 239.758 168.779 239.688 168.826 239.627C169.637 238.458 170.769 237.548 172.085 237.006C173.4 236.465 174.844 236.315 176.243 236.575C177.641 236.836 178.935 237.494 179.968 238.472C181.001 239.45 181.73 240.707 182.067 242.09C182.101 242.238 182.077 242.393 181.998 242.523C181.919 242.653 181.792 242.747 181.645 242.785L181.509 242.796Z" fill="#E3E3E3"/>
<path d="M174.982 244.813C172.557 244.813 170.186 244.094 168.17 242.746C166.154 241.398 164.583 239.483 163.655 237.242C162.727 235.001 162.484 232.535 162.957 230.155C163.43 227.776 164.597 225.591 166.312 223.876C168.027 222.16 170.212 220.992 172.59 220.519C174.968 220.046 177.433 220.288 179.674 221.217C181.914 222.145 183.828 223.717 185.175 225.734C186.523 227.751 187.242 230.122 187.242 232.548C187.239 235.8 185.946 238.918 183.648 241.218C181.349 243.517 178.232 244.81 174.982 244.813V244.813ZM174.982 221.434C172.782 221.434 170.631 222.087 168.802 223.31C166.973 224.533 165.548 226.271 164.706 228.305C163.865 230.338 163.645 232.576 164.075 234.734C164.505 236.892 165.566 238.875 167.122 240.43C168.678 241.985 170.661 243.044 172.819 243.472C174.977 243.9 177.213 243.678 179.245 242.834C181.277 241.991 183.013 240.563 184.233 238.732C185.454 236.901 186.105 234.749 186.102 232.548C186.099 229.6 184.926 226.773 182.841 224.689C180.756 222.605 177.929 221.434 174.982 221.434V221.434Z" fill="#E3E3E3"/>
<path d="M215.638 225.058H194.228C194.077 225.058 193.932 224.998 193.825 224.891C193.718 224.784 193.658 224.64 193.658 224.488C193.658 224.337 193.718 224.193 193.825 224.086C193.932 223.979 194.077 223.919 194.228 223.919H215.638C215.788 223.922 215.931 223.983 216.037 224.089C216.143 224.195 216.205 224.338 216.208 224.488C216.208 224.64 216.147 224.784 216.041 224.891C215.934 224.998 215.789 225.058 215.638 225.058Z" fill="#E3E3E3"/>
<path d="M196.435 238.487C197.781 238.487 198.872 237.395 198.872 236.047C198.872 234.7 197.781 233.608 196.435 233.608C195.088 233.608 193.997 234.7 193.997 236.047C193.997 237.395 195.088 238.487 196.435 238.487Z" fill="#E3E3E3"/>
<path d="M204.889 238.487C206.235 238.487 207.327 237.395 207.327 236.047C207.327 234.7 206.235 233.608 204.889 233.608C203.542 233.608 202.451 234.7 202.451 236.047C202.451 237.395 203.542 238.487 204.889 238.487Z" fill="#E3E3E3"/>
<path d="M213.244 238.487C214.591 238.487 215.682 237.395 215.682 236.047C215.682 234.7 214.591 233.608 213.244 233.608C211.898 233.608 210.806 234.7 210.806 236.047C210.806 237.395 211.898 238.487 213.244 238.487Z" fill="#E3E3E3"/>
<path d="M239.142 238.487C240.489 238.487 241.58 237.395 241.58 236.047C241.58 234.7 240.489 233.608 239.142 233.608C237.796 233.608 236.704 234.7 236.704 236.047C236.704 237.395 237.796 238.487 239.142 238.487Z" fill="#E3E3E3"/>
<path d="M247.493 238.487C248.84 238.487 249.931 237.395 249.931 236.047C249.931 234.7 248.84 233.608 247.493 233.608C246.147 233.608 245.056 234.7 245.056 236.047C245.056 237.395 246.147 238.487 247.493 238.487Z" fill="#E3E3E3"/>
<path d="M255.947 238.487C257.294 238.487 258.385 237.395 258.385 236.047C258.385 234.7 257.294 233.608 255.947 233.608C254.601 233.608 253.51 234.7 253.51 236.047C253.51 237.395 254.601 238.487 255.947 238.487Z" fill="#E3E3E3"/>
<path d="M225.684 292.722H175.858C170.667 292.722 166.458 296.933 166.458 302.126V302.138C166.458 307.331 170.667 311.542 175.858 311.542H227.877L225.684 292.722Z" fill="#CE7783"/>
<path d="M217.368 298.923H189.446C189.295 298.923 189.15 298.863 189.043 298.756C188.937 298.649 188.876 298.504 188.876 298.353C188.879 298.203 188.94 298.06 189.047 297.954C189.153 297.848 189.296 297.787 189.446 297.784H217.403C217.554 297.784 217.699 297.844 217.806 297.951C217.913 298.057 217.973 298.202 217.973 298.353C217.973 298.431 217.957 298.508 217.927 298.579C217.896 298.651 217.851 298.715 217.794 298.768C217.738 298.822 217.67 298.863 217.597 298.89C217.524 298.916 217.446 298.928 217.368 298.923Z" fill="#E3E3E3"/>
<path d="M327.242 146.228L226.895 182.832L243.498 320.7L327.242 368.904L410.995 320.7L427.589 182.832L327.242 146.228Z" fill="#F10026"/>
<path d="M327.242 146.228V368.904L410.995 320.7L427.589 182.832L327.242 146.228Z" fill="#D50027"/>
<path d="M359.936 245.19C359.907 245.182 359.881 245.165 359.862 245.141C359.844 245.118 359.834 245.088 359.834 245.058C359.834 245.027 359.844 244.998 359.862 244.974C359.881 244.95 359.907 244.933 359.936 244.925C364.728 242.746 368.792 239.233 371.642 234.805C374.492 230.377 376.008 225.223 376.009 219.956V218.131C376.009 210.853 373.119 203.873 367.975 198.727C362.831 193.58 355.853 190.689 348.578 190.689H285.633V307.667H351.315C359.004 307.675 366.436 304.898 372.237 299.848C378.037 294.798 381.813 287.817 382.867 280.197C383.92 272.577 382.18 264.834 377.968 258.398C373.756 251.963 367.356 247.271 359.954 245.19H359.936ZM307.409 208.175H341.563C345.945 208.175 350.147 209.916 353.245 213.016C356.343 216.115 358.084 220.319 358.084 224.702C358.084 229.086 356.343 233.289 353.245 236.389C350.147 239.488 345.945 241.229 341.563 241.229H307.409V208.175ZM362.773 273.244C362.774 275.632 362.305 277.997 361.392 280.203C360.479 282.41 359.141 284.415 357.453 286.104C355.766 287.793 353.762 289.133 351.557 290.047C349.351 290.962 346.988 291.432 344.601 291.432H307.409V255.065H344.601C349.414 255.065 354.03 256.975 357.437 260.376C360.844 263.778 362.763 268.392 362.773 273.207V273.244Z" fill="white"/>
<path fill-rule="evenodd" clip-rule="evenodd" d="M214.194 199.685L214.332 200.825H163.211C161.13 200.822 159.135 199.994 157.663 198.521C156.191 197.049 155.363 195.053 155.36 192.971V164.212C155.363 162.13 156.191 160.134 157.663 158.662C159.135 157.19 161.13 156.361 163.211 156.358H254.203L251.075 157.498H163.211C161.431 157.498 159.724 158.206 158.465 159.465C157.207 160.724 156.5 162.431 156.5 164.212V192.971C156.5 193.853 156.673 194.726 157.01 195.54C157.348 196.355 157.842 197.095 158.465 197.719C159.088 198.342 159.829 198.837 160.643 199.174C161.457 199.512 162.33 199.685 163.211 199.685H214.194Z" fill="#E3E3E3"/>
<path fill-rule="evenodd" clip-rule="evenodd" d="M215.898 213.82H163.211C161.131 213.82 159.135 214.647 157.663 216.117C156.192 217.587 155.363 219.582 155.36 221.663V250.434C155.363 252.515 156.192 254.509 157.663 255.979C159.135 257.45 161.131 258.276 163.211 258.276C163.362 258.276 163.507 258.216 163.614 258.109C163.721 258.002 163.781 257.857 163.781 257.706C163.781 257.555 163.721 257.41 163.614 257.303C163.507 257.196 163.362 257.136 163.211 257.136C161.433 257.136 159.727 256.43 158.469 255.173C157.211 253.917 156.503 252.212 156.5 250.434V221.663C156.503 219.884 157.211 218.179 158.469 216.923C159.727 215.666 161.433 214.96 163.211 214.96H216.036L215.898 213.82ZM221.119 257.136L221.257 258.276H190.853C190.702 258.276 190.557 258.216 190.45 258.109C190.343 258.002 190.283 257.857 190.283 257.706C190.283 257.555 190.343 257.41 190.45 257.303C190.557 257.196 190.702 257.136 190.853 257.136H221.119Z" fill="#E3E3E3"/>
<path fill-rule="evenodd" clip-rule="evenodd" d="M224.886 288.38H178.866C176.278 288.467 173.826 289.557 172.027 291.419C170.228 293.281 169.222 295.77 169.222 298.359C169.222 300.949 170.228 303.438 172.027 305.3C173.826 307.162 176.278 308.251 178.866 308.339H227.292L227.153 307.199H178.866C176.577 307.117 174.41 306.15 172.82 304.501C171.229 302.852 170.341 300.65 170.341 298.359C170.341 296.068 171.229 293.867 172.82 292.218C174.41 290.569 176.577 289.602 178.866 289.52H225.023L224.886 288.38Z" fill="#E3E3E3"/>
<path d="M456.578 218.529C455.061 218.529 453.579 218.081 452.317 217.243C451.056 216.404 450.073 215.213 449.492 213.818C448.912 212.424 448.76 210.89 449.056 209.41C449.352 207.93 450.082 206.57 451.155 205.503C452.228 204.436 453.594 203.709 455.082 203.415C456.569 203.12 458.112 203.271 459.513 203.849C460.915 204.426 462.112 205.404 462.955 206.659C463.798 207.914 464.247 209.389 464.247 210.898C464.244 212.921 463.435 214.86 461.997 216.29C460.56 217.721 458.611 218.526 456.578 218.529V218.529ZM456.578 204.453C455.297 204.453 454.044 204.831 452.979 205.539C451.914 206.247 451.083 207.254 450.593 208.432C450.102 209.609 449.974 210.906 450.224 212.156C450.474 213.406 451.091 214.555 451.997 215.456C452.903 216.357 454.058 216.971 455.314 217.22C456.571 217.469 457.874 217.341 459.057 216.853C460.241 216.366 461.253 215.539 461.965 214.479C462.677 213.419 463.056 212.173 463.056 210.898C463.053 209.19 462.37 207.552 461.155 206.344C459.941 205.136 458.295 204.456 456.578 204.453V204.453Z" fill="#E3E3E3"/>
<path d="M456.578 242.132C455.061 242.132 453.578 241.684 452.316 240.845C451.055 240.006 450.072 238.813 449.492 237.418C448.911 236.023 448.76 234.489 449.057 233.008C449.354 231.528 450.085 230.168 451.159 229.101C452.233 228.035 453.601 227.309 455.09 227.016C456.578 226.723 458.12 226.875 459.522 227.455C460.923 228.034 462.12 229.014 462.961 230.27C463.802 231.527 464.25 233.003 464.247 234.513C464.244 236.535 463.435 238.472 461.997 239.901C460.559 241.329 458.61 242.132 456.578 242.132V242.132ZM456.578 228.067C455.297 228.067 454.045 228.445 452.979 229.154C451.914 229.862 451.083 230.868 450.593 232.046C450.103 233.224 449.974 234.52 450.224 235.77C450.474 237.021 451.091 238.169 451.997 239.071C452.903 239.972 454.058 240.586 455.315 240.835C456.571 241.083 457.874 240.956 459.058 240.468C460.241 239.98 461.253 239.154 461.965 238.094C462.677 237.034 463.056 235.788 463.056 234.513C463.053 232.804 462.37 231.167 461.156 229.959C459.941 228.751 458.295 228.07 456.578 228.067V228.067Z" fill="#E3E3E3"/>
<path d="M456.578 265.746C455.061 265.746 453.578 265.298 452.316 264.459C451.055 263.62 450.072 262.428 449.492 261.033C448.911 259.638 448.76 258.103 449.057 256.622C449.354 255.142 450.085 253.782 451.159 252.715C452.233 251.649 453.601 250.923 455.09 250.63C456.578 250.337 458.12 250.49 459.522 251.069C460.923 251.648 462.12 252.628 462.961 253.885C463.802 255.141 464.25 256.618 464.247 258.127C464.244 260.149 463.435 262.087 461.997 263.515C460.559 264.943 458.61 265.746 456.578 265.746V265.746ZM456.578 251.681C455.297 251.681 454.045 252.06 452.979 252.768C451.914 253.476 451.083 254.483 450.593 255.661C450.103 256.838 449.974 258.134 450.224 259.385C450.474 260.635 451.091 261.784 451.997 262.685C452.903 263.586 454.058 264.2 455.315 264.449C456.571 264.698 457.874 264.57 459.058 264.082C460.241 263.594 461.253 262.768 461.965 261.708C462.677 260.648 463.056 259.402 463.056 258.127C463.053 256.419 462.37 254.781 461.156 253.573C459.941 252.365 458.295 251.685 456.578 251.681V251.681Z" fill="#E3E3E3"/>
<path d="M456.578 289.36C455.061 289.36 453.579 288.912 452.317 288.074C451.056 287.235 450.073 286.044 449.492 284.649C448.912 283.255 448.76 281.721 449.056 280.241C449.352 278.761 450.082 277.401 451.155 276.334C452.228 275.267 453.594 274.54 455.082 274.246C456.569 273.951 458.112 274.102 459.513 274.68C460.915 275.257 462.112 276.235 462.955 277.49C463.798 278.745 464.247 280.22 464.247 281.729C464.244 283.752 463.435 285.691 461.997 287.121C460.56 288.552 458.611 289.357 456.578 289.36ZM456.578 275.296C455.296 275.296 454.043 275.674 452.977 276.383C451.912 277.091 451.081 278.099 450.591 279.277C450.101 280.456 449.974 281.752 450.225 283.003C450.476 284.254 451.094 285.402 452.002 286.303C452.909 287.204 454.064 287.817 455.321 288.064C456.579 288.312 457.882 288.182 459.066 287.693C460.249 287.203 461.26 286.375 461.971 285.313C462.681 284.252 463.059 283.005 463.056 281.729C463.053 280.022 462.369 278.385 461.155 277.179C459.94 275.973 458.294 275.296 456.578 275.296V275.296Z" fill="#E3E3E3"/>
<path d="M506.616 94.6719L506.616 139.646" stroke="#E2E2E2" stroke-width="1.09693"/>
</svg>
