<svg width="173" height="170" viewBox="0 0 173 170" fill="none" xmlns="http://www.w3.org/2000/svg">
    <path d="M51.0169 73.8047H32.3711" stroke="#E3E3E3" stroke-width="2" stroke-linecap="round" stroke-linejoin="round"/>
    <path d="M49.2407 80.0332H34.1465" stroke="#E3E3E3" stroke-width="2" stroke-linecap="round" stroke-linejoin="round"/>
    <path d="M68.122 38.769C67.9595 33.0464 65.6158 27.6029 61.5715 23.5547C57.5272 19.5066 52.0888 17.1607 46.3715 16.998C40.6543 17.1607 35.2159 19.5066 31.1716 23.5547C27.1273 27.6029 24.7836 33.0464 24.6211 38.769C24.7027 42.4782 25.7486 46.1021 27.6556 49.2835C29.3593 52.1256 31.6977 54.527 34.481 56.3027C35.0976 56.6961 35.4963 57.3641 35.4963 58.0954C35.4963 61.4495 38.2153 64.1685 41.5694 64.1685H51.1733C54.5276 64.1685 57.2468 61.4493 57.2468 58.095C57.2468 57.3639 57.6452 56.696 58.2615 56.3026C61.0441 54.526 63.382 52.1244 65.0856 49.2824C66.9925 46.1012 68.0389 42.4779 68.122 38.769Z" fill="#EAB669"/>
    <path d="M63.8908 41.7769C63.8061 45.566 62.7381 49.2677 60.7921 52.5176C58.846 55.7675 56.0889 58.4537 52.7922 60.3117V60.3117C52.7922 64.4063 49.4728 67.7256 45.3782 67.7256H38.0087C33.9141 67.7256 30.5948 64.4063 30.5948 60.3117V60.3117C27.2971 58.4548 24.5392 55.7689 22.5929 52.5188C20.6467 49.2686 19.5794 45.5663 19.4961 41.7769C19.6619 35.9306 22.0538 30.3693 26.1812 26.2336C30.3086 22.098 35.8588 19.7013 41.6935 19.5352C47.5282 19.7013 53.0783 22.098 57.2057 26.2336" stroke="#E3E3E3" stroke-width="2" stroke-linecap="round" stroke-linejoin="round"/>
    <path d="M41.6953 1V8.41392" stroke="#E3E3E3" stroke-width="2" stroke-linecap="round" stroke-linejoin="round"/>
    <path d="M70.4675 12.9453L65.2363 18.187" stroke="#E3E3E3" stroke-width="2" stroke-linecap="round" stroke-linejoin="round"/>
    <path d="M82.3893 38.0723H74.9902" stroke="#E3E3E3" stroke-width="2" stroke-linecap="round" stroke-linejoin="round"/>
    <path d="M12.9199 12.9453L18.1511 18.187" stroke="#E3E3E3" stroke-width="2" stroke-linecap="round" stroke-linejoin="round"/>
    <path d="M1 38.0723H8.39912" stroke="#E3E3E3" stroke-width="2" stroke-linecap="round" stroke-linejoin="round"/>
    <path d="M93.5332 16.7129C110.034 19.3676 125.052 27.8265 135.891 40.5724C141.283 46.9119 145.465 54.1055 148.307 61.7959M152.682 86.2629C152.682 82.9719 152.453 79.7021 152.001 76.4755" stroke="#E3E3E3" stroke-width="2" stroke-linecap="round" stroke-linejoin="round"/>
    <path d="M71.3063 155.825C54.7945 153.179 39.7647 144.722 28.9158 131.972C26.6675 129.33 24.6293 126.539 22.8107 123.626M12.1133 86.2598C12.1117 93.4036 13.1937 100.448 15.2766 107.167" stroke="#E3E3E3" stroke-width="2" stroke-linecap="round" stroke-linejoin="round"/>
    <path d="M137.842 165.674C157.259 165.674 173 150.036 173 130.744C173 111.453 157.259 95.8145 137.842 95.8145C118.424 95.8145 102.684 111.453 102.684 130.744C102.684 150.036 118.424 165.674 137.842 165.674Z" fill="#71A5D2"/>
    <path d="M145.476 103.067C140.914 100.849 135.793 99.6055 130.382 99.6055C111.257 99.6055 95.7539 115.14 95.7539 134.303C95.7539 153.465 111.257 169 130.382 169C149.506 169 165.01 153.465 165.01 134.303C165.01 129.744 164.132 125.39 162.537 121.402" stroke="#E3E3E3" stroke-width="2" stroke-linecap="round" stroke-linejoin="round"/>
    <path d="M130.383 145.869V151.207" stroke="#E3E3E3" stroke-width="2" stroke-linecap="round" stroke-linejoin="round"/>
    <path d="M130.383 117.4V122.738" stroke="#E3E3E3" stroke-width="2" stroke-linecap="round" stroke-linejoin="round"/>
    <path d="M118.838 145.87H136.152C137.682 145.87 139.15 145.26 140.233 144.176C141.315 143.091 141.923 141.621 141.923 140.087C141.923 138.553 141.315 137.082 140.233 135.998C139.15 134.913 137.682 134.304 136.152 134.304H124.609C123.079 134.304 121.611 133.695 120.528 132.61C119.446 131.526 118.838 130.055 118.838 128.521C118.838 126.987 119.446 125.517 120.528 124.432C121.611 123.348 123.079 122.738 124.609 122.738H141.923" stroke="#E3E3E3" stroke-width="2" stroke-linecap="round" stroke-linejoin="round"/>
    <path d="M61.4206 134.303L72.5193 156.544L54.0215 167.665" stroke="#E3E3E3" stroke-width="2" stroke-linecap="round" stroke-linejoin="round"/>
    <path d="M100.489 34.9565L93.0898 16.4217L107.888 5.30078" stroke="#E3E3E3" stroke-width="2" stroke-linecap="round" stroke-linejoin="round"/>
</svg>
