<svg width="321" height="375" viewBox="0 0 321 375" fill="none" xmlns="http://www.w3.org/2000/svg">
    <path d="M299.335 27.0162V54.2484C299.335 54.7311 299.143 55.194 298.801 55.5353C298.459 55.8766 297.995 56.0685 297.512 56.0685H155.528C155.288 56.0703 155.049 56.0244 154.827 55.9336C154.605 55.8427 154.403 55.7089 154.234 55.5396C154.064 55.3702 153.93 55.1688 153.839 54.9471C153.748 54.7255 153.701 54.4879 153.703 54.2484V27.0162C153.703 24.4455 154.727 21.9801 156.549 20.1623C158.371 18.3445 160.842 17.3232 163.418 17.3232H289.635C292.209 17.3268 294.675 18.3495 296.494 20.167C298.313 21.9844 299.335 24.4478 299.335 27.0162Z" fill="#EAB669"/>
    <path d="M43.0252 178.439C43.8829 178.449 44.7259 178.662 45.4846 179.061C46.2433 179.46 46.8961 180.034 47.3885 180.735C47.8809 181.436 48.1997 182.244 48.3174 183.091C48.435 183.939 48.3485 184.803 48.0654 185.611L4.83049 305.203C4.67004 305.64 4.36125 306.006 3.9577 306.238C3.55416 306.47 3.08185 306.553 2.62313 306.473C2.1644 306.392 1.7485 306.154 1.4482 305.799C1.1479 305.443 0.982503 304.994 0.980469 304.529V129.097C0.980469 127.492 1.61939 125.952 2.75705 124.817C3.8947 123.682 5.43754 123.044 7.04643 123.044H23.9889C24.6755 123.044 25.3561 123.179 25.9904 123.441C26.6248 123.703 27.2003 124.088 27.6859 124.572C28.1714 125.057 28.5565 125.632 28.8192 126.265C29.082 126.898 29.2177 127.576 29.2177 128.261V165.227C29.2177 168.731 30.6123 172.091 33.0954 174.569C35.5785 177.047 38.9463 178.439 42.4579 178.439H43.0252Z" fill="#B5C8D9"/>
    <path d="M294.742 167.115C294.563 167.115 294.391 167.043 294.264 166.917C294.138 166.791 294.066 166.619 294.066 166.44V109.01C294.066 108.831 294.138 108.66 294.264 108.533C294.391 108.407 294.563 108.336 294.742 108.336C294.921 108.336 295.093 108.407 295.22 108.533C295.346 108.66 295.417 108.831 295.417 109.01V166.467C295.41 166.642 295.336 166.806 295.21 166.927C295.084 167.047 294.917 167.115 294.742 167.115Z" fill="#E3E3E3"/>
    <path d="M149.109 167.114C148.93 167.114 148.758 167.043 148.632 166.917C148.505 166.79 148.434 166.619 148.434 166.44V30.8182C148.437 28.0698 149.532 25.4348 151.48 23.4914C153.428 21.5479 156.068 20.4547 158.823 20.4512H285.026C287.781 20.4547 290.421 21.5479 292.369 23.4914C294.316 25.4348 295.413 28.0698 295.416 30.8182V81.5887C295.416 81.7675 295.345 81.9392 295.219 82.0656C295.092 82.192 294.92 82.2628 294.741 82.2628C294.562 82.2628 294.39 82.192 294.263 82.0656C294.137 81.9392 294.065 81.7675 294.065 81.5887V30.8182C294.062 28.4273 293.108 26.1355 291.413 24.4449C289.719 22.7543 287.422 21.8029 285.026 21.7993H158.823C156.426 21.8029 154.13 22.7543 152.435 24.4449C150.741 26.1355 149.788 28.4273 149.785 30.8182V166.44C149.785 166.619 149.713 166.79 149.587 166.917C149.46 167.043 149.288 167.114 149.109 167.114Z" fill="#E3E3E3"/>
    <path d="M202.506 128.382H173.39C171.922 128.379 170.515 127.795 169.477 126.759C168.439 125.724 167.855 124.32 167.852 122.855V93.789C167.855 92.3254 168.44 90.9231 169.478 89.8895C170.517 88.8558 171.924 88.2754 173.39 88.2754H202.506C203.972 88.2754 205.379 88.8558 206.418 89.8895C207.456 90.9231 208.042 92.3254 208.046 93.789V122.855C208.042 124.32 207.457 125.724 206.419 126.759C205.381 127.795 203.974 128.379 202.506 128.382ZM173.39 89.6235C172.282 89.6235 171.219 90.0618 170.434 90.8426C169.649 91.6235 169.206 92.683 169.203 93.789V122.855C169.203 123.404 169.31 123.947 169.521 124.454C169.731 124.961 170.039 125.422 170.428 125.81C170.817 126.198 171.279 126.506 171.787 126.716C172.295 126.926 172.84 127.034 173.39 127.034H202.506C203.616 127.034 204.682 126.594 205.468 125.81C206.253 125.026 206.695 123.963 206.695 122.855V93.789C206.691 92.683 206.248 91.6235 205.462 90.8426C204.677 90.0618 203.614 89.6235 202.506 89.6235H173.39Z" fill="#E3E3E3"/>
    <path d="M275.284 118.689H227.726C227.547 118.689 227.375 118.618 227.249 118.492C227.122 118.366 227.051 118.194 227.051 118.015C227.051 117.837 227.122 117.665 227.249 117.539C227.375 117.412 227.547 117.341 227.726 117.341H275.284C275.463 117.341 275.635 117.412 275.762 117.539C275.889 117.665 275.96 117.837 275.96 118.015C275.96 118.194 275.889 118.366 275.762 118.492C275.635 118.618 275.463 118.689 275.284 118.689Z" fill="#E3E3E3"/>
    <path d="M275.284 94.4634H227.726C227.547 94.4634 227.375 94.3923 227.249 94.2659C227.122 94.1395 227.051 93.9681 227.051 93.7893C227.051 93.6105 227.122 93.4391 227.249 93.3127C227.375 93.1863 227.547 93.1152 227.726 93.1152H275.284C275.463 93.1152 275.635 93.1863 275.762 93.3127C275.889 93.4391 275.96 93.6105 275.96 93.7893C275.96 93.9681 275.889 94.1395 275.762 94.2659C275.635 94.3923 275.463 94.4634 275.284 94.4634Z" fill="#E3E3E3"/>
    <path d="M275.285 147.742H168.551C168.371 147.742 168.2 147.671 168.073 147.544C167.946 147.418 167.875 147.246 167.875 147.068C167.875 146.889 167.946 146.717 168.073 146.591C168.2 146.465 168.371 146.394 168.551 146.394H275.285C275.464 146.394 275.636 146.465 275.763 146.591C275.889 146.717 275.961 146.889 275.961 147.068C275.961 147.246 275.889 147.418 275.763 147.544C275.636 147.671 275.464 147.742 275.285 147.742Z" fill="#E3E3E3"/>
    <path d="M294.741 60.5581H149.109C148.93 60.5581 148.758 60.487 148.632 60.3606C148.505 60.2342 148.434 60.0628 148.434 59.884C148.434 59.7053 148.505 59.5339 148.632 59.4074C148.758 59.281 148.93 59.21 149.109 59.21H294.741C294.92 59.21 295.092 59.281 295.219 59.4074C295.345 59.5339 295.416 59.7053 295.416 59.884C295.416 60.0628 295.345 60.2342 295.219 60.3606C295.092 60.487 294.92 60.5581 294.741 60.5581Z" fill="#E3E3E3"/>
    <path d="M170.959 46.0253C170.345 46.0253 169.743 45.8433 169.232 45.5026C168.721 45.1619 168.323 44.6776 168.088 44.111C167.853 43.5445 167.791 42.921 167.911 42.3196C168.031 41.7181 168.326 41.1658 168.761 40.7322C169.196 40.2985 169.749 40.003 170.352 39.8833C170.955 39.7637 171.58 39.8251 172.148 40.0597C172.716 40.2944 173.201 40.6919 173.543 41.2018C173.884 41.7117 174.066 42.3112 174.066 42.9245C174.066 43.7469 173.739 44.5357 173.156 45.1172C172.573 45.6987 171.783 46.0253 170.959 46.0253ZM170.959 41.1719C170.612 41.1719 170.272 41.2749 169.983 41.4674C169.694 41.66 169.469 41.9335 169.336 42.2537C169.203 42.574 169.168 42.9265 169.236 43.2665C169.304 43.6064 169.471 43.9186 169.716 44.1637C169.962 44.4088 170.275 44.5759 170.616 44.6436C170.957 44.7112 171.31 44.6765 171.631 44.5438C171.952 44.4112 172.227 44.1863 172.42 43.8981C172.613 43.6099 172.715 43.2711 172.715 42.9245C172.712 42.4608 172.525 42.0172 172.197 41.6893C171.868 41.3614 171.424 41.1754 170.959 41.1719Z" fill="#E3E3E3"/>
    <path d="M190.373 46.0253C189.759 46.0253 189.157 45.8433 188.646 45.5026C188.135 45.1619 187.737 44.6776 187.502 44.111C187.267 43.5445 187.205 42.921 187.325 42.3196C187.445 41.7181 187.74 41.1658 188.175 40.7322C188.61 40.2985 189.163 40.003 189.766 39.8833C190.369 39.7637 190.994 39.8251 191.562 40.0597C192.13 40.2944 192.615 40.6919 192.957 41.2018C193.298 41.7117 193.48 42.3112 193.48 42.9245C193.48 43.7469 193.153 44.5357 192.57 45.1172C191.987 45.6987 191.197 46.0253 190.373 46.0253ZM190.373 41.1719C190.026 41.1719 189.686 41.2749 189.397 41.4674C189.108 41.66 188.883 41.9335 188.75 42.2537C188.617 42.574 188.582 42.9265 188.65 43.2665C188.718 43.6064 188.885 43.9186 189.13 44.1637C189.376 44.4088 189.689 44.5759 190.03 44.6436C190.371 44.7112 190.724 44.6765 191.045 44.5438C191.366 44.4112 191.639 44.1863 191.832 43.8981C192.025 43.6099 192.129 43.2711 192.129 42.9245C192.129 42.4597 191.944 42.014 191.615 41.6853C191.285 41.3567 190.839 41.1719 190.373 41.1719Z" fill="#E3E3E3"/>
    <path d="M209.786 46.0253C209.171 46.0253 208.571 45.8433 208.06 45.5026C207.549 45.1619 207.151 44.6776 206.916 44.111C206.681 43.5445 206.62 42.921 206.739 42.3196C206.859 41.7181 207.155 41.1658 207.589 40.7322C208.024 40.2985 208.578 40.003 209.18 39.8833C209.783 39.7637 210.408 39.8251 210.976 40.0597C211.544 40.2944 212.029 40.6919 212.371 41.2018C212.712 41.7117 212.894 42.3112 212.894 42.9245C212.894 43.7469 212.567 44.5357 211.984 45.1172C211.401 45.6987 210.61 46.0253 209.786 46.0253ZM209.786 41.1719C209.439 41.1719 209.1 41.2749 208.811 41.4674C208.522 41.66 208.297 41.9335 208.164 42.2537C208.031 42.574 207.996 42.9265 208.064 43.2665C208.132 43.6064 208.299 43.9186 208.544 44.1637C208.79 44.4088 209.103 44.5759 209.444 44.6436C209.785 44.7112 210.138 44.6765 210.459 44.5438C210.78 44.4112 211.054 44.1863 211.247 43.8981C211.439 43.6099 211.543 43.2711 211.543 42.9245C211.543 42.4597 211.358 42.014 211.029 41.6853C210.699 41.3567 210.252 41.1719 209.786 41.1719Z" fill="#E3E3E3"/>
    <path d="M126.574 87.979C126.395 87.979 126.223 87.9083 126.097 87.7819C125.97 87.6554 125.899 87.4837 125.899 87.3049V9.59885C125.895 7.41176 125.024 5.31541 123.474 3.76891C121.924 2.2224 119.822 1.3517 117.63 1.34813H114.644C114.465 1.34813 114.293 1.27739 114.167 1.15098C114.04 1.02457 113.969 0.852839 113.969 0.674065C113.969 0.495292 114.04 0.323892 114.167 0.19748C114.293 0.0710683 114.465 0 114.644 0H117.63C120.179 0.00711485 122.623 1.02079 124.425 2.81936C126.227 4.61792 127.243 7.05531 127.25 9.59885V87.3049C127.25 87.4837 127.179 87.6554 127.052 87.7819C126.925 87.9083 126.753 87.979 126.574 87.979Z" fill="#E3E3E3"/>
    <path d="M39.3396 29.3083C39.1604 29.3083 38.9887 29.2376 38.862 29.1112C38.7353 28.9848 38.6641 28.8131 38.6641 28.6343V9.59885C38.6676 7.05421 39.6817 4.61474 41.4849 2.81541C43.2882 1.01608 45.7337 0.00356642 48.2838 0H89.6801C89.8593 0 90.0311 0.0710683 90.1578 0.19748C90.2844 0.323892 90.3557 0.495292 90.3557 0.674065C90.3557 0.852839 90.2844 1.02457 90.1578 1.15098C90.0311 1.27739 89.8593 1.34813 89.6801 1.34813H48.3102C46.1184 1.3517 44.0178 2.2224 42.4679 3.76891C40.918 5.31541 40.0451 7.41176 40.0415 9.59885V28.6343C40.0398 28.7246 40.0197 28.8139 39.9835 28.8966C39.9472 28.9793 39.8957 29.0542 39.8304 29.1168C39.7652 29.1794 39.6878 29.2284 39.6035 29.2613C39.5192 29.2942 39.4301 29.3101 39.3396 29.3083Z" fill="#E3E3E3"/>
    <path d="M117.63 166.629H48.3073C45.7548 166.625 43.3081 165.611 41.5044 163.809C39.7008 162.006 38.6875 159.564 38.6875 157.017V52.0105C38.6875 51.8317 38.7587 51.6603 38.8854 51.5339C39.0121 51.4075 39.1839 51.3364 39.363 51.3364C39.5422 51.3364 39.714 51.4075 39.8407 51.5339C39.9673 51.6603 40.0386 51.8317 40.0386 52.0105V157.017C40.0386 159.206 40.9094 161.306 42.4597 162.855C44.0099 164.404 46.1131 165.277 48.3073 165.28H117.658C119.852 165.277 121.955 164.404 123.505 162.855C125.056 161.306 125.926 159.206 125.926 157.017V122.275C125.926 122.096 125.998 121.925 126.124 121.798C126.251 121.672 126.423 121.601 126.602 121.601C126.781 121.601 126.953 121.672 127.08 121.798C127.206 121.925 127.278 122.096 127.278 122.275V157.017C127.274 159.567 126.256 162.012 124.447 163.814C122.639 165.616 120.186 166.629 117.63 166.629Z" fill="#E3E3E3"/>
    <path d="M115.547 142.336H50.3578C49.4715 142.336 48.6214 141.985 47.9934 141.361C47.3654 140.737 47.0114 139.89 47.0078 139.006V28.2434C47.0114 27.359 47.3654 26.5119 47.9934 25.8878C48.6214 25.2637 49.4715 24.9136 50.3578 24.9136H115.547C116.431 24.9171 117.278 25.269 117.903 25.8927C118.528 26.5165 118.881 27.3614 118.885 28.2434V139.006C118.881 139.888 118.528 140.733 117.903 141.356C117.278 141.98 116.431 142.332 115.547 142.336ZM50.3578 26.2617C49.8298 26.2617 49.3233 26.47 48.9487 26.8413C48.574 27.2126 48.3624 27.7166 48.3589 28.2434V139.006C48.3624 139.533 48.574 140.037 48.9487 140.408C49.3233 140.779 49.8298 140.987 50.3578 140.987H115.547C116.074 140.987 116.58 140.779 116.952 140.407C117.325 140.035 117.534 139.531 117.534 139.006V28.2434C117.534 27.7178 117.325 27.2136 116.952 26.842C116.58 26.4703 116.074 26.2617 115.547 26.2617H50.3578Z" fill="#E3E3E3"/>
    <path d="M82.946 161.115C81.4778 161.118 80.0421 160.686 78.8202 159.873C77.5984 159.061 76.6455 157.905 76.0825 156.552C75.5194 155.2 75.3718 153.71 75.6576 152.273C75.9434 150.836 76.65 149.516 77.6882 148.48C78.7263 147.445 80.0493 146.739 81.4894 146.454C82.9295 146.169 84.4216 146.317 85.7775 146.879C87.1333 147.44 88.2923 148.391 89.1063 149.61C89.9203 150.83 90.3532 152.262 90.3505 153.727C90.3469 155.685 89.5652 157.563 88.1774 158.947C86.7897 160.332 84.9085 161.111 82.946 161.115ZM82.946 147.634C81.7456 147.631 80.5717 147.984 79.5723 148.647C78.5729 149.311 77.7932 150.255 77.3319 151.361C76.8707 152.467 76.7484 153.684 76.981 154.859C77.2135 156.034 77.7903 157.114 78.6382 157.962C79.486 158.81 80.5669 159.388 81.744 159.623C82.9211 159.857 84.1417 159.738 85.251 159.28C86.3603 158.823 87.3084 158.047 87.9756 157.051C88.6428 156.055 88.9994 154.884 88.9994 153.687C88.9888 152.091 88.3465 150.564 87.213 149.438C86.0794 148.312 84.5456 147.678 82.946 147.674V147.634Z" fill="#E3E3E3"/>
    <path d="M93.826 14.8427H81.1122C80.5282 14.8427 79.967 14.6114 79.554 14.1993C79.141 13.7872 78.9102 13.2282 78.9102 12.6454V11.9444C78.9102 11.3616 79.141 10.8026 79.554 10.3905C79.967 9.97842 80.5282 9.74707 81.1122 9.74707H93.826C94.4101 9.74707 94.9699 9.97842 95.3829 10.3905C95.7959 10.8026 96.0281 11.3616 96.0281 11.9444V12.6589C96.0245 13.2394 95.7903 13.7947 95.3776 14.2039C94.965 14.6131 94.4078 14.8427 93.826 14.8427ZM81.1122 11.0817C80.8865 11.0817 80.6702 11.1709 80.5106 11.3302C80.351 11.4895 80.2612 11.7056 80.2612 11.9309V12.6454C80.2612 12.8707 80.351 13.0868 80.5106 13.2461C80.6702 13.4054 80.8865 13.4946 81.1122 13.4946H93.826C94.0518 13.4946 94.268 13.4054 94.4277 13.2461C94.5873 13.0868 94.677 12.8707 94.677 12.6454V11.9444C94.677 11.7191 94.5873 11.503 94.4277 11.3437C94.268 11.1844 94.0518 11.0952 93.826 11.0952L81.1122 11.0817Z" fill="#E3E3E3"/>
    <path d="M73.2053 15.6252C72.5427 15.6252 71.8947 15.4291 71.3437 15.0617C70.7927 14.6944 70.3636 14.1721 70.11 13.5612C69.8564 12.9503 69.7907 12.2781 69.92 11.6295C70.0493 10.981 70.3684 10.3853 70.837 9.91771C71.3056 9.45014 71.9023 9.13173 72.5522 9.00272C73.2022 8.87372 73.8756 8.93991 74.4878 9.19296C75.1001 9.44601 75.6238 9.87444 75.9919 10.4243C76.3601 10.9741 76.5566 11.6206 76.5566 12.2819C76.5566 13.1686 76.2034 14.019 75.575 14.646C74.9466 15.273 74.094 15.6252 73.2053 15.6252ZM73.2053 10.3002C72.8093 10.3002 72.4222 10.4174 72.0931 10.6372C71.764 10.857 71.5078 11.1697 71.3569 11.5351C71.2059 11.9004 71.1678 12.3023 71.246 12.6897C71.3243 13.0771 71.5152 13.4325 71.7962 13.711C72.0772 13.9895 72.4353 14.1786 72.824 14.254C73.2128 14.3295 73.6147 14.288 73.9798 14.1349C74.345 13.9818 74.6563 13.7239 74.8744 13.394C75.0925 13.0641 75.2082 12.6771 75.2056 12.2819C75.2056 12.0205 75.1532 11.7616 75.0525 11.5203C74.9519 11.2789 74.8043 11.06 74.6184 10.8758C74.4326 10.6916 74.2131 10.5458 73.9706 10.447C73.7281 10.3482 73.4673 10.2984 73.2053 10.3002Z" fill="#E3E3E3"/>
    <path d="M100.067 42.1421H55.5491C54.206 42.1421 53.1172 43.2285 53.1172 44.5687V82.0468C53.1172 83.387 54.206 84.4734 55.5491 84.4734H100.067C101.41 84.4734 102.499 83.387 102.499 82.0468V44.5687C102.499 43.2285 101.41 42.1421 100.067 42.1421Z" fill="#CE7783"/>
    <path d="M106.929 82.2627H60.0743C58.942 82.2627 57.8561 81.8139 57.0555 81.015C56.2548 80.216 55.8047 79.1326 55.8047 78.0027V38.9069C55.8047 37.7771 56.2548 36.6936 57.0555 35.8947C57.8561 35.0958 58.942 34.647 60.0743 34.647H82.6097C82.7889 34.647 82.9606 34.7177 83.0873 34.8441C83.214 34.9705 83.2852 35.1423 83.2852 35.321C83.2852 35.4998 83.214 35.6712 83.0873 35.7976C82.9606 35.924 82.7889 35.9951 82.6097 35.9951H60.0743C59.3003 35.9951 58.558 36.3018 58.0107 36.8479C57.4634 37.394 57.1558 38.1346 57.1558 38.9069V78.0027C57.1558 78.775 57.4634 79.5157 58.0107 80.0618C58.558 80.6079 59.3003 80.9146 60.0743 80.9146H106.929C107.703 80.9146 108.445 80.6079 108.992 80.0618C109.54 79.5157 109.847 78.775 109.847 78.0027V38.9069C109.847 38.1346 109.54 37.394 108.992 36.8479C108.445 36.3018 107.703 35.9951 106.929 35.9951H103.2C103.022 35.9917 102.853 35.9193 102.727 35.7937C102.601 35.668 102.528 35.4987 102.525 35.321C102.525 35.1423 102.596 34.9705 102.723 34.8441C102.849 34.7177 103.021 34.647 103.2 34.647H106.929C108.061 34.647 109.147 35.0958 109.948 35.8947C110.748 36.6936 111.199 37.7771 111.199 38.9069V78.0027C111.199 79.1326 110.748 80.216 109.948 81.015C109.147 81.8139 108.061 82.2627 106.929 82.2627Z" fill="#E3E3E3"/>
    <path d="M56.6993 100.369H99.6363C100.589 100.369 101.504 100.746 102.178 101.419C102.851 102.091 103.23 103.004 103.23 103.955V134.638C103.23 135.085 103.052 135.514 102.735 135.83C102.419 136.146 101.989 136.323 101.541 136.323H54.7943C54.3464 136.323 53.9168 136.146 53.6001 135.83C53.2834 135.514 53.1055 135.085 53.1055 134.638V103.955C53.1055 103.004 53.4841 102.091 54.1581 101.419C54.8321 100.746 55.7462 100.369 56.6993 100.369Z" fill="#CE7783"/>
    <path d="M56.4802 139.1C56.3011 139.1 56.1293 139.029 56.0026 138.903C55.8759 138.776 55.8047 138.605 55.8047 138.426V106.476C55.8083 105.347 56.2595 104.265 57.0594 103.467C57.8593 102.669 58.9431 102.219 60.0743 102.215H106.929C108.06 102.219 109.144 102.669 109.944 103.467C110.744 104.265 111.195 105.347 111.199 106.476V134.072C111.195 134.25 111.123 134.419 110.997 134.544C110.871 134.67 110.701 134.742 110.523 134.746C110.344 134.746 110.172 134.675 110.045 134.548C109.919 134.422 109.847 134.251 109.847 134.072V106.476C109.847 105.703 109.54 104.962 108.992 104.416C108.445 103.87 107.703 103.563 106.929 103.563H60.0743C59.3003 103.563 58.558 103.87 58.0107 104.416C57.4634 104.962 57.1558 105.703 57.1558 106.476V138.426C57.1558 138.605 57.0845 138.776 56.9578 138.903C56.8312 139.029 56.6594 139.1 56.4802 139.1Z" fill="#E3E3E3"/>
    <path d="M96.3344 96.8769H68.8816C68.3548 96.8769 67.8488 96.6679 67.4764 96.2963C67.1039 95.9246 66.8945 95.4208 66.8945 94.8952V89.7317C66.8945 89.2061 67.1039 88.7022 67.4764 88.3306C67.8488 87.9589 68.3548 87.75 68.8816 87.75H96.3344C96.8611 87.75 97.3671 87.9589 97.7395 88.3306C98.112 88.7022 98.3201 89.2061 98.3201 89.7317V94.8952C98.3201 95.4208 98.112 95.9246 97.7395 96.2963C97.3671 96.6679 96.8611 96.8769 96.3344 96.8769ZM68.8816 89.0981C68.7131 89.0981 68.5507 89.1649 68.4316 89.2838C68.3125 89.4026 68.2456 89.5637 68.2456 89.7317V94.8952C68.2491 95.0621 68.3172 95.2214 68.4356 95.3395C68.5539 95.4576 68.7142 95.5253 68.8816 95.5288H96.3344C96.5017 95.5253 96.662 95.4576 96.7803 95.3395C96.8987 95.2214 96.9656 95.0621 96.969 94.8952V89.7317C96.969 89.5637 96.9034 89.4026 96.7843 89.2838C96.6652 89.1649 96.5028 89.0981 96.3344 89.0981H68.8816Z" fill="#E3E3E3"/>
    <path d="M289.846 213.717L257.94 297.252C257.703 297.864 257.283 298.389 256.737 298.759C256.19 299.128 255.544 299.323 254.883 299.318C244.643 299.318 234.822 303.349 227.581 310.523C220.341 317.698 216.274 327.428 216.274 337.575C216.274 338.361 216.274 339.134 216.274 339.907C216.302 340.341 216.239 340.776 216.09 341.185C215.941 341.594 215.709 341.969 215.408 342.285C215.107 342.601 214.743 342.853 214.34 343.024C213.936 343.195 213.501 343.281 213.062 343.279H37.3888C36.3167 343.278 35.2598 343.021 34.3092 342.53C33.3587 342.039 32.542 341.328 31.928 340.457C31.3141 339.586 30.9209 338.581 30.7824 337.528C30.6439 336.474 30.7639 335.403 31.1322 334.406L77.2771 209.115C77.7398 207.841 78.5892 206.74 79.7095 205.963C80.8297 205.187 82.1653 204.774 83.5324 204.78H283.616C284.693 204.781 285.755 205.041 286.709 205.537C287.663 206.034 288.481 206.752 289.094 207.631C289.707 208.51 290.095 209.522 290.226 210.582C290.357 211.642 290.227 212.718 289.846 213.717Z" fill="#71A5D2"/>
    <path d="M276.236 296.656C276.155 296.669 276.072 296.669 275.992 296.656C275.908 296.625 275.832 296.577 275.767 296.516C275.702 296.455 275.649 296.381 275.613 296.3C275.576 296.218 275.557 296.13 275.555 296.041C275.553 295.952 275.569 295.863 275.601 295.78L299.758 232.081C299.821 231.913 299.947 231.776 300.11 231.702C300.274 231.627 300.46 231.621 300.629 231.683C300.797 231.746 300.934 231.872 301.009 232.035C301.084 232.198 301.09 232.384 301.027 232.552L276.87 296.265C276.813 296.384 276.723 296.484 276.61 296.554C276.498 296.623 276.368 296.659 276.236 296.656Z" fill="#E3E3E3"/>
    <path d="M48.3868 337.936H21.6491C20.281 337.933 18.934 337.602 17.7212 336.97C16.5084 336.339 15.4657 335.425 14.6813 334.306C13.8969 333.188 13.3934 331.897 13.2141 330.544C13.0348 329.191 13.1847 327.814 13.6509 326.531L67.9641 177.994C68.566 176.359 69.6558 174.949 71.0858 173.951C72.5158 172.953 74.2173 172.416 75.9623 172.413H311.481C312.86 172.411 314.218 172.743 315.439 173.381C316.661 174.019 317.708 174.943 318.492 176.074C319.277 177.205 319.774 178.51 319.941 179.875C320.108 181.24 319.941 182.626 319.453 183.912L315.034 195.573C314.965 195.738 314.836 195.87 314.673 195.942C314.51 196.015 314.324 196.023 314.156 195.964C314.072 195.933 313.996 195.885 313.931 195.824C313.866 195.763 313.813 195.689 313.777 195.608C313.74 195.526 313.721 195.438 313.719 195.349C313.717 195.26 313.732 195.171 313.765 195.088L318.182 183.44C318.595 182.354 318.737 181.183 318.594 180.03C318.451 178.877 318.029 177.776 317.363 176.822C316.698 175.869 315.81 175.092 314.776 174.558C313.741 174.025 312.591 173.751 311.427 173.761H75.9623C74.4883 173.758 73.0492 174.207 71.8405 175.049C70.6318 175.891 69.7122 177.084 69.207 178.466L14.8937 326.989C14.4972 328.071 14.3697 329.233 14.5203 330.375C14.671 331.517 15.0957 332.606 15.7593 333.549C16.4228 334.492 17.3052 335.261 18.3308 335.79C19.3564 336.319 20.4945 336.593 21.6491 336.588H48.3868C48.566 336.588 48.7377 336.659 48.8644 336.785C48.9911 336.912 49.0623 337.083 49.0623 337.262C49.0623 337.441 48.9911 337.612 48.8644 337.739C48.7377 337.865 48.566 337.936 48.3868 337.936Z" fill="#E3E3E3"/>
    <path d="M207.37 337.936H81.3552C81.1761 337.936 81.0043 337.865 80.8776 337.739C80.7509 337.612 80.6797 337.441 80.6797 337.262C80.6797 337.083 80.7509 336.912 80.8776 336.785C81.0043 336.659 81.1761 336.588 81.3552 336.588H207.37C207.549 336.588 207.721 336.659 207.848 336.785C207.974 336.912 208.046 337.083 208.046 337.262C208.046 337.441 207.974 337.612 207.848 337.739C207.721 337.865 207.549 337.936 207.37 337.936Z" fill="#E3E3E3"/>
    <path d="M13.8005 308.291C13.6214 308.291 13.4496 308.22 13.3229 308.093C13.1962 307.967 13.125 307.795 13.125 307.617V118.11C13.1286 116.223 13.8818 114.415 15.2189 113.08C16.5559 111.746 18.3682 110.995 20.259 110.992H29.2573C29.4354 110.995 29.6051 111.067 29.731 111.193C29.857 111.319 29.9294 111.488 29.9329 111.666C29.9329 111.845 29.8617 112.016 29.735 112.142C29.6083 112.269 29.4365 112.34 29.2573 112.34H20.259C18.7254 112.34 17.2546 112.948 16.1702 114.03C15.0857 115.112 14.4761 116.58 14.4761 118.11V307.617C14.4761 307.795 14.4048 307.967 14.2782 308.093C14.1515 308.22 13.9797 308.291 13.8005 308.291Z" fill="#E3E3E3"/>
    <path d="M265.819 367.437C282.16 367.437 295.407 354.218 295.407 337.913C295.407 321.607 282.16 308.389 265.819 308.389C249.478 308.389 236.23 321.607 236.23 337.913C236.23 354.218 249.478 367.437 265.819 367.437Z" fill="#CE7783"/>
    <path d="M258.667 374.083C251.987 374.083 245.457 372.106 239.903 368.402C234.348 364.699 230.018 359.436 227.462 353.277C224.905 347.119 224.236 340.342 225.54 333.804C226.843 327.266 230.06 321.261 234.783 316.547C239.507 311.834 245.526 308.624 252.078 307.323C258.63 306.023 265.422 306.69 271.593 309.241C277.765 311.792 283.041 316.112 286.752 321.655C290.463 327.197 292.444 333.713 292.444 340.379C292.444 349.318 288.885 357.89 282.551 364.211C276.217 370.531 267.625 374.083 258.667 374.083ZM258.667 308.024C252.254 308.024 245.986 309.922 240.653 313.477C235.321 317.032 231.164 322.085 228.71 327.997C226.256 333.909 225.613 340.415 226.864 346.691C228.115 352.968 231.204 358.733 235.739 363.258C240.273 367.783 246.052 370.864 252.342 372.113C258.632 373.361 265.151 372.72 271.076 370.272C277.001 367.823 282.065 363.675 285.628 358.355C289.191 353.034 291.093 346.779 291.093 340.379C291.096 336.128 290.26 331.918 288.632 327.989C287.004 324.06 284.616 320.49 281.605 317.483C278.594 314.476 275.019 312.09 271.083 310.463C267.147 308.835 262.928 307.997 258.667 307.997V308.024Z" fill="#E3E3E3"/>
    <path d="M258.668 359.065C258.489 359.065 258.317 358.993 258.19 358.867C258.063 358.741 257.992 358.569 257.992 358.39V322.342C257.992 322.163 258.063 321.991 258.19 321.865C258.317 321.739 258.489 321.667 258.668 321.667C258.847 321.667 259.019 321.739 259.145 321.865C259.272 321.991 259.343 322.163 259.343 322.342V358.39C259.343 358.569 259.272 358.741 259.145 358.867C259.019 358.993 258.847 359.065 258.668 359.065Z" fill="#E3E3E3"/>
    <path d="M276.733 341.04H240.605C240.426 341.04 240.254 340.969 240.128 340.843C240.001 340.716 239.93 340.545 239.93 340.366C239.93 340.187 240.001 340.016 240.128 339.889C240.254 339.763 240.426 339.692 240.605 339.692H276.733C276.912 339.692 277.084 339.763 277.211 339.889C277.337 340.016 277.409 340.187 277.409 340.366C277.409 340.545 277.337 340.716 277.211 340.843C277.084 340.969 276.912 341.04 276.733 341.04Z" fill="#E3E3E3"/>
</svg>
