<svg width="32" height="32" viewBox="0 0 32 32" fill="none" xmlns="http://www.w3.org/2000/svg">
<path d="M9.7495 6C10.6686 6 11.5065 6.08395 12.2634 6.25217C13.0204 6.42024 13.6691 6.69594 14.2097 7.07834C14.7502 7.46121 15.1693 7.97017 15.4666 8.60522C15.764 9.24026 15.9127 10.0245 15.9127 10.9581C15.9127 11.9666 15.6919 12.807 15.2504 13.479C14.8087 14.1513 14.1557 14.7021 13.2907 15.1317C14.48 15.4866 15.3675 16.1078 15.9533 16.9944C16.5386 17.8816 16.8321 18.9509 16.8321 20.2017C16.8321 21.2101 16.6429 22.0833 16.2642 22.8211C15.886 23.559 15.3766 24.1611 14.7372 24.6273C14.0973 25.0945 13.3674 25.4397 12.5476 25.6642C11.7227 25.8887 10.8731 26.0016 10.0202 26H0.666992V6H9.7495ZM9.20893 14.0955C9.96585 14.0955 10.5874 13.9088 11.0741 13.5352C11.5607 13.1618 11.8039 12.5548 11.8039 11.7145C11.8039 11.2478 11.7229 10.8648 11.5607 10.566C11.3985 10.2674 11.1823 10.0335 10.912 9.86577C10.6416 9.69755 10.3307 9.58132 9.97935 9.51549C9.61794 9.44935 9.25157 9.41658 8.88457 9.41755H4.91096V14.0956L9.20893 14.0955ZM9.45214 22.5826C9.86642 22.5826 10.2631 22.5405 10.6414 22.4565C11.0198 22.3724 11.3531 22.2323 11.6417 22.0361C11.9297 21.8404 12.1596 21.5741 12.331 21.2378C12.502 20.9018 12.5877 20.4723 12.5877 19.9492C12.5877 18.9226 12.3081 18.1896 11.7497 17.7506C11.1909 17.3117 10.4521 17.0922 9.53315 17.0922H4.91096V22.5823L9.45214 22.5826ZM22.1728 22.1625C22.7495 22.7419 23.5785 23.0308 24.6598 23.0308C25.4343 23.0308 26.1013 22.8305 26.6598 22.4287C27.2185 22.0277 27.561 21.6025 27.6871 21.1541H31.066C30.5256 22.8907 29.6962 24.1328 28.5792 24.8795C27.4616 25.6266 26.1099 26 24.5243 26C23.425 26 22.4337 25.8179 21.5508 25.4537C20.6676 25.0897 19.9196 24.5714 19.3074 23.8991C18.6945 23.227 18.2215 22.4245 17.8881 21.4904C17.5545 20.5569 17.3881 19.5296 17.3881 18.4092C17.3881 17.3264 17.5589 16.318 17.9017 15.3842C18.2437 14.4507 18.7301 13.643 19.3615 12.961C19.9919 12.2797 20.7445 11.7428 21.6186 11.3505C22.4924 10.9583 23.4611 10.7624 24.5244 10.7624C25.7139 10.7624 26.7499 11.0004 27.6333 11.4766C28.516 11.9526 29.2415 12.5929 29.8093 13.3953C30.3769 14.1984 30.7866 15.1136 31.0395 16.1402C31.2917 17.1675 31.3815 18.2411 31.3098 19.3616H21.227C21.2809 20.6498 21.5958 21.5839 22.1728 22.1625ZM26.5113 14.5436C26.0519 14.0209 25.3533 13.7592 24.4166 13.7592C23.8037 13.7592 23.2948 13.8668 22.8894 14.0813C22.4839 14.2965 22.1593 14.562 21.916 14.8797C21.6729 15.1974 21.5014 15.5336 21.4026 15.8881C21.3033 16.2429 21.2447 16.5605 21.2267 16.8405H27.4709C27.2908 15.8319 26.971 15.0665 26.5113 14.5436ZM20.5712 7.01553H28.373V9.25712H20.5712V7.01553Z" fill="#8C8C8C"/>
</svg>
