<svg width="32" height="32" viewBox="0 0 32 32" fill="none" xmlns="http://www.w3.org/2000/svg">
<path d="M9.81699 13.1601C9.58604 12.9875 9.35449 12.9012 9.12354 12.9012H8.08544V19.1196H9.12414C9.35509 19.1196 9.58664 19.0333 9.81759 18.8607C10.0485 18.6881 10.164 18.4291 10.164 18.0833V13.9375C10.1634 13.5922 10.0473 13.3327 9.81699 13.1601ZM26.7206 2.66663H5.28009C3.83961 2.66663 2.67056 3.8327 2.66699 5.27377V26.7262C2.67056 28.1672 3.83961 29.3333 5.28009 29.3333H26.7206C28.1616 29.3333 29.3301 28.1672 29.3337 26.7262V5.27377C29.3301 3.8327 28.161 2.66663 26.7206 2.66663ZM11.8456 18.0946C11.8456 19.2142 11.1545 20.9107 8.96699 20.9071H6.20509V11.0583H9.02533C11.1348 11.0583 11.8444 12.7523 11.845 13.8726L11.8456 18.0946ZM17.8384 12.8172H14.667V15.1041H16.6057V16.8642H14.667V19.1506H17.839V20.9107H14.1378C13.4735 20.9279 12.9212 20.4029 12.9045 19.7387V12.2916C12.8884 11.6279 13.414 11.0767 14.0777 11.0601H17.839L17.8384 12.8172ZM24.0075 19.6797C23.2218 21.5101 21.814 21.1458 21.1837 19.6797L18.8902 11.0607H20.8289L22.5973 17.8297L24.3575 11.0607H26.2968L24.0075 19.6797Z" fill="#8C8C8C"/>
</svg>
