<svg width="26" height="26" viewBox="0 0 26 26" fill="none" xmlns="http://www.w3.org/2000/svg">
<path fill-rule="evenodd" clip-rule="evenodd" d="M6.66634 0.333374H19.333C22.8308 0.333374 25.6663 3.1689 25.6663 6.66671V19.3334C25.6663 22.8312 22.8308 25.6667 19.333 25.6667H6.66634C3.16854 25.6667 0.333008 22.8312 0.333008 19.3334V6.66671C0.333008 3.1689 3.16854 0.333374 6.66634 0.333374ZM17.5514 15.2786C18.0422 14.3326 18.2223 13.256 18.066 12.2018C17.9065 11.1265 17.4054 10.131 16.6368 9.36233C15.8681 8.59366 14.8726 8.09259 13.7973 7.93314C12.7431 7.77682 11.6665 7.95688 10.7206 8.44771C9.77461 8.93854 9.00751 9.71515 8.52838 10.6671C8.04925 11.619 7.88248 12.6978 8.05179 13.7499C8.2211 14.8021 8.71786 15.7741 9.47143 16.5277C10.225 17.2812 11.197 17.778 12.2492 17.9473C13.3013 18.1166 14.3801 17.9499 15.332 17.4707C16.284 16.9916 17.0606 16.2245 17.5514 15.2786Z" fill="#8C8C8C"/>
</svg>
