<svg width="28" height="28" viewBox="0 0 28 28" fill="none" xmlns="http://www.w3.org/2000/svg">
<path fill-rule="evenodd" clip-rule="evenodd" d="M27.3337 27.3352H21.8541V18.0023C21.8541 15.4435 20.8818 14.0135 18.8565 14.0135C16.6532 14.0135 15.5021 15.5016 15.5021 18.0023V27.3352H10.2213V9.55617H15.5021V11.951C15.5021 11.951 17.0899 9.01299 20.8627 9.01299C24.6338 9.01299 27.3337 11.3159 27.3337 16.0786V27.3352ZM3.92135 7.22814C2.12261 7.22814 0.665039 5.75913 0.665039 3.94738C0.665039 2.13563 2.12261 0.666626 3.92135 0.666626C5.7201 0.666626 7.1768 2.13563 7.1768 3.94738C7.1768 5.75913 5.7201 7.22814 3.92135 7.22814ZM1.19459 27.3352H6.70107V9.55617H1.19459V27.3352Z" fill="#8C8C8C"/>
</svg>
