<svg width="32" height="32" viewBox="0 0 32 32" fill="none" xmlns="http://www.w3.org/2000/svg">
<path d="M30 4.67933C28.7812 5.5326 27.4318 6.18521 26.0036 6.61204C25.2371 5.73728 24.2184 5.11727 23.0853 4.83587C21.9522 4.55447 20.7594 4.62526 19.6681 5.03865C18.5768 5.45205 17.6398 6.18811 16.9838 7.14729C16.3278 8.10646 15.9843 9.24247 16 10.4017V11.6649C13.7634 11.7225 11.5471 11.2301 9.54856 10.2317C7.55004 9.23331 5.83131 7.75984 4.54545 5.94254C4.54545 5.94254 -0.545455 17.3114 10.9091 22.3643C8.28794 24.1302 5.16547 25.0157 2 24.8907C13.4545 31.2068 27.4545 24.8907 27.4545 10.3638C27.4534 10.0119 27.4193 9.66092 27.3527 9.31532C28.6517 8.04388 29.5683 6.43862 30 4.67933Z" fill="#8C8C8C"/>
</svg>
