<svg width="24" height="24" viewBox="0 0 24 24" fill="none" xmlns="http://www.w3.org/2000/svg">
    <path d="M23 7.439C23.0001 6.98743 22.9152 6.54026 22.7499 6.12303C22.5847 5.70579 22.3425 5.32667 22.0372 5.00732C21.7318 4.68797 21.3692 4.43464 20.9702 4.2618C20.5711 4.08896 20.1434 4 19.7115 4H4.28757C3.85571 4.00013 3.42811 4.08919 3.02918 4.26208C2.63024 4.43498 2.26779 4.68833 1.96251 5.00767C1.65723 5.32701 1.41511 5.70609 1.24996 6.12326C1.08481 6.54043 0.999875 6.98752 1 7.439V16.56C0.999749 17.0116 1.08459 17.4588 1.24968 17.876C1.41477 18.2933 1.65688 18.6725 1.96217 18.992C2.26746 19.3114 2.62996 19.5649 3.02895 19.7378C3.42795 19.9108 3.85563 19.9999 4.28757 20H19.7115C20.1435 20 20.5713 19.911 20.9704 19.7381C21.3695 19.5652 21.7321 19.3118 22.0375 18.9923C22.3429 18.6729 22.5851 18.2936 22.7502 17.8763C22.9154 17.4589 23.0002 17.0117 23 16.56V7.439ZM9.6087 15.939V7.279L16.0834 11.61L9.6087 15.939Z" stroke="#C8C8C8" stroke-linecap="round" stroke-linejoin="round"/>
</svg>
