<svg width="32" height="32" viewBox="0 0 32 32" fill="none" xmlns="http://www.w3.org/2000/svg">
<path fill-rule="evenodd" clip-rule="evenodd" d="M26.939 6.59737C28.1445 6.92662 29.0919 7.89323 29.4145 9.12324C29.9976 11.3504 30 16 30 16C30 16 30 20.6496 29.4145 22.8768C29.0919 24.1068 28.1445 25.0734 26.939 25.4026C24.7564 26 16 26 16 26C16 26 7.24366 26 5.06091 25.4026C3.85545 25.0734 2.90813 24.1068 2.58545 22.8768C2 20.6496 2 16 2 16C2 16 2 11.3504 2.58545 9.12324C2.90813 7.89323 3.85545 6.92662 5.06091 6.59737C7.24366 6 16 6 16 6C16 6 24.7564 6 26.939 6.59737ZM20.4716 16.0004L13.1973 20.2854V11.7153L20.4716 16.0004Z" fill="#8C8C8C"/>
</svg>
