<svg width="28" height="31" viewBox="0 0 28 31" fill="none" xmlns="http://www.w3.org/2000/svg">
    <path d="M11.2075 12.9445C10.7886 12.9446 10.3867 13.111 10.0906 13.4072C9.79442 13.7034 9.62805 14.1051 9.62806 14.5239C9.62807 14.9428 9.79447 15.3445 10.0906 15.6406C10.3868 15.9368 10.7885 16.1032 11.2074 16.1032C11.6262 16.1032 12.0279 15.9368 12.3241 15.6406C12.6203 15.3445 12.7867 14.9428 12.7867 14.5239C12.7867 14.1051 12.6203 13.7034 12.3242 13.4072C12.028 13.111 11.6263 12.9446 11.2075 12.9445ZM16.8389 12.9445C16.494 12.9153 16.1483 12.9909 15.8471 13.1614C15.5459 13.3319 15.3032 13.5894 15.1507 13.9001C14.9983 14.2109 14.9432 14.5604 14.9927 14.903C15.0422 15.2456 15.194 15.5652 15.4282 15.8201C15.6624 16.0749 15.9681 16.2531 16.3052 16.3314C16.6424 16.4096 16.9954 16.3842 17.3179 16.2586C17.6404 16.1329 17.9174 15.9127 18.1127 15.627C18.308 15.3412 18.4125 15.0032 18.4125 14.657C18.4217 14.4412 18.3883 14.2258 18.3142 14.0229C18.2401 13.82 18.1267 13.6337 17.9806 13.4747C17.8344 13.3156 17.6584 13.187 17.4625 13.096C17.2666 13.005 17.0547 12.9536 16.8389 12.9445ZM24.337 0H3.66297C3.24659 0.000983707 2.83448 0.0839765 2.45017 0.244239C2.06587 0.404502 1.7169 0.638895 1.42318 0.934034C1.12947 1.22917 0.896769 1.57928 0.738371 1.96435C0.579972 2.34943 0.498976 2.76194 0.50001 3.17832V24.0377C0.498994 24.4541 0.580002 24.8666 0.738408 25.2517C0.896815 25.6367 1.12952 25.9868 1.42323 26.2819C1.71694 26.5771 2.0659 26.8115 2.4502 26.9717C2.8345 27.132 3.2466 27.215 3.66297 27.216H21.1589L20.3411 24.3616L22.3159 26.1976L24.1829 27.9256L27.5 30.8571V3.17832C27.501 2.76194 27.42 2.34943 27.2616 1.96435C27.1032 1.57928 26.8706 1.22917 26.5768 0.934034C26.2831 0.638895 25.9341 0.404502 25.5498 0.244239C25.1655 0.0839765 24.7534 0.000983707 24.337 0ZM18.3817 20.1497C18.3817 20.1497 17.8262 19.4863 17.3633 18.9C18.4817 18.6367 19.4709 17.9863 20.156 17.064C19.6009 17.4335 19.0057 17.7388 18.3817 17.9742C17.664 18.2806 16.9133 18.5032 16.1445 18.6377C14.8232 18.8809 13.4681 18.8757 12.1486 18.6223C11.374 18.4707 10.6148 18.2486 9.8805 17.9589C9.49351 17.81 9.1172 17.6347 8.75422 17.4343C8.70789 17.4034 8.66175 17.388 8.61543 17.3571C8.59221 17.3456 8.5713 17.3299 8.55372 17.3109C8.27613 17.1566 8.12158 17.0486 8.12158 17.0486C8.78195 17.9515 9.73698 18.5955 10.8217 18.8691C10.359 19.4555 9.78804 20.1497 9.78804 20.1497C8.87156 20.1744 7.96306 19.9734 7.14251 19.5645C6.32195 19.1555 5.61449 18.5511 5.08241 17.8045C5.1325 14.6767 5.89213 11.6011 7.30401 8.80966C8.54655 7.8338 10.0614 7.26775 11.6394 7.18966L11.7936 7.37488C10.309 7.74224 8.92358 8.4323 7.73601 9.39597C7.73601 9.39597 8.07549 9.21086 8.64624 8.94855C9.75531 8.44227 10.9374 8.11425 12.1487 7.97662C12.2351 7.95865 12.3229 7.94829 12.4111 7.94568C13.445 7.811 14.4913 7.80067 15.5276 7.91492C17.1574 8.101 18.735 8.60414 20.1716 9.39597C19.0442 8.47829 17.7348 7.81042 16.3301 7.43655L16.546 7.18982C18.124 7.26784 19.6388 7.8339 20.8814 8.80981C22.2933 11.6012 23.053 14.6768 23.1031 17.8046C22.5667 18.5505 21.8562 19.1541 21.0333 19.5628C20.2104 19.9715 19.3002 20.1729 18.3817 20.1497Z" fill="#8D439D"/>
    </svg>
    