<svg width="30" height="30" viewBox="0 0 30 30" fill="none" xmlns="http://www.w3.org/2000/svg">
    <path d="M15 0.371094C11.4383 0.371241 7.99273 1.63876 5.27999 3.94687C2.56724 6.25497 0.764292 9.45303 0.193741 12.9688C-0.376811 16.4846 0.322268 20.0887 2.16589 23.1362C4.00951 26.1837 6.87737 28.4758 10.2563 29.6023C11.0063 29.7336 11.2876 29.2836 11.2876 28.8898C11.2876 28.5336 11.2688 27.3523 11.2688 26.0961C7.50004 26.7898 6.52504 25.1774 6.22504 24.3336C5.89215 23.513 5.36445 22.7858 4.68754 22.2148C4.16254 21.9336 3.41254 21.2398 4.66878 21.2211C5.14846 21.2732 5.60852 21.4401 6.00999 21.7077C6.41145 21.9754 6.74249 22.3358 6.97504 22.7586C7.1802 23.1271 7.45606 23.4516 7.78683 23.7133C8.11759 23.9751 8.49675 24.169 8.90259 24.2839C9.30842 24.3989 9.73296 24.4326 10.1519 24.3833C10.5708 24.3339 10.9758 24.2023 11.3438 23.9961C11.4087 23.2335 11.7486 22.5205 12.3 21.9899C8.96254 21.6149 5.47504 20.3211 5.47504 14.5836C5.45396 13.0929 6.00407 11.6505 7.01254 10.5524C6.55396 9.25672 6.60762 7.83482 7.16254 6.57739C7.16254 6.57739 8.41875 6.18362 11.2875 8.11489C13.742 7.43985 16.3331 7.43985 18.7875 8.11489C21.6563 6.16489 22.9125 6.57739 22.9125 6.57739C23.4675 7.8348 23.5212 9.25673 23.0625 10.5524C24.0741 11.6486 24.6246 13.0922 24.6 14.5836C24.6 20.3398 21.0938 21.6149 17.7563 21.9899C18.1143 22.3527 18.39 22.7883 18.5647 23.2672C18.7394 23.746 18.809 24.2568 18.7688 24.7649C18.7688 26.7712 18.75 28.3836 18.75 28.8899C18.75 29.2837 19.0313 29.7524 19.7813 29.6024C23.1543 28.4667 26.0139 26.1692 27.8497 23.1202C29.6854 20.0711 30.3779 16.4688 29.8034 12.9564C29.2289 9.44406 27.4248 6.25015 24.7132 3.94486C22.0017 1.63957 18.5591 0.372946 15 0.371094Z" fill="#8D439D"/>
    </svg>
    