<svg width="35" height="22" viewBox="0 0 35 22" fill="none" xmlns="http://www.w3.org/2000/svg">
    <path d="M5.38271 0L13.0341 12.9552L13.0408 7.09105L17.4804 14.0704L12.9124 21.2907L5.33991 8.93142L5.32252 21.8705H0V0H5.38271ZM18.3566 6.11437L20.5718 9.61214L20.5998 9.66057C22.0474 7.44555 24.5067 6.11253 27.1423 6.11437C31.4144 6.11437 34.8881 9.75086 34.9727 14.032L34.9743 14.1767H34.9702L34.9701 14.2311C34.9624 14.5866 34.7736 14.9144 34.4686 15.0977C34.1526 15.2875 33.76 15.2934 33.4386 15.1132C33.1282 14.9391 32.9298 14.6171 32.9115 14.262L32.9103 14.2238L32.9096 14.1746C32.8926 13.4976 32.5224 13.2228 32.0361 13.0202L31.9642 12.9911L31.8907 12.9627L31.8159 12.9349L31.428 12.7964L31.3487 12.7672L31.2693 12.7369L31.1899 12.7054C31.1766 12.7 31.1634 12.6946 31.1502 12.6891L31.0711 12.6552L30.9924 12.6196C30.6786 12.4728 30.3786 12.2762 30.14 11.9637L30.112 11.9261L30.0842 11.8869L30.0426 11.8254L29.9868 11.7388L29.8104 11.455L29.7462 11.3549L29.6955 11.2788L29.6603 11.2278L29.6052 11.1511L29.5668 11.0999L29.527 11.0489C29.5202 11.0404 29.5134 11.0319 29.5065 11.0234L29.4643 10.9727C29.0485 10.4843 28.398 10.0453 27.1396 10.0453C26.099 10.045 25.1009 10.4606 24.365 11.2006C23.6292 11.9407 23.2159 12.9445 23.2163 13.9911C23.2192 14.1403 23.2543 14.2869 23.319 14.4208L23.3394 14.4606L28.0211 21.8705H22.8578L20.5718 18.401L18.3258 21.8705H13.1638L18.0917 14.0678L13.0421 6.11437H18.3566ZM34.9796 15.2933C35.0321 15.6622 34.9802 16.0384 34.8298 16.379C34.6491 16.7994 34.3942 16.8755 34.2244 16.8716L34.1962 16.8702L34.1698 16.8675L34.1454 16.8638L34.113 16.8572L34.0862 16.85L34.0516 16.838L34.039 16.8321L34.0238 16.8235L34.001 16.8092L33.9825 16.7965L33.9623 16.7812L33.9409 16.7635C33.9372 16.7603 33.9336 16.7571 33.9299 16.7537L33.9078 16.7322C33.8125 16.6338 33.727 16.4655 33.8787 16.231C33.991 16.0566 34.1464 15.9589 34.309 15.8711L34.4732 15.7838C34.67 15.6771 34.8597 15.5524 34.9796 15.2933ZM18.37 0V5.56011L18.3579 5.62199H13.0421L13.0408 5.56011L13.0475 0H18.37Z" fill="#8D439D"/>
    </svg>
    