<svg width="45" height="35" viewBox="0 0 45 35" fill="none" xmlns="http://www.w3.org/2000/svg">
    <path d="M1.51589 13.4242C1.10156 14.55 1.12153 15.7739 1.3568 16.9503C1.43164 17.3245 1.82534 17.5412 2.18149 17.4042L3.26854 16.9861C3.53708 19.306 6.5 23.6662 11 24.6662C12.8409 25.0753 14.7656 24.8986 16.5 24.3416C19.0052 23.537 21.1136 21.9389 22 20.1662C22.1505 19.8653 22.2708 19.5291 22.3639 19.1663C22.8779 17.1636 22.5643 14.3491 21.9325 12.1662C21.5378 10.8025 20.9403 10.253 20.5 9.66593C19 7.6662 15.8447 3.93554 9.5 5.66593C4.96917 6.90161 2.58732 10.5127 1.51589 13.4242Z" fill="#8D439D"/>
    <path d="M22.3639 19.1663C22.2708 19.5291 22.1505 19.8653 22 20.1662C21.1136 21.9389 19.0052 23.537 16.5 24.3416L17 25.6659L17.5 26.5861C18.2469 26.963 19 27.5037 19 28.085C19.9632 28.2873 20.7188 28.8847 21 29.1659C21.2965 29.4625 21.7689 30.1107 22 30.6935C23 31.1843 25.7 32.1659 28.5 32.1659C30.0761 32.1659 31.6522 31.7604 33 31.1775C33.7506 30.8529 34.4304 30.4734 35 30.0782C35.6788 29.6073 36.2011 29.1143 36.5 28.6659C36.6039 28.51 36.7133 28.3379 36.8252 28.1519C37.0472 27.7828 37.2795 27.3588 37.5 26.8974C37.7561 26.3615 37.9965 25.7752 38.1868 25.1659C38.5446 24.0198 38.7252 22.7923 38.5 21.6662C38.1 19.6663 37.3916 18.8327 37 18.6659C36.4792 20.08 35 21.4641 34.5 21.6641C32 22.6638 29.9446 20.3457 29.5 18.6659C28.5 20.3328 27.5 21.1659 26 21.1659C24.7351 21.1659 23.0759 20.1663 22.3639 19.1663Z" fill="#8D439D"/>
    <path d="M14.3137 32.2894C14.1156 32.9503 14.7087 33.5237 15.384 33.3822C18.0248 32.8289 21.6646 32.0013 22 31.6659C22.2035 31.4625 22.1585 31.0934 22 30.6935C21.7689 30.1107 21.2965 29.4625 21 29.1659C20.7188 28.8847 19.9632 28.2873 19 28.085C18.2505 27.9276 17.3752 28.0095 16.5 28.6659C16.1383 28.9372 15.8209 29.2817 15.5444 29.6659C14.9665 30.4688 14.5668 31.4451 14.3137 32.2894Z" fill="#8D439D"/>
    <path d="M15.5444 29.6659C15.8209 29.2817 16.1383 28.9372 16.5 28.6659C17.3752 28.0095 18.2505 27.9276 19 28.085C19 27.5037 18.2469 26.963 17.5 26.5861C17.1358 26.4023 16.7731 26.2575 16.5 26.1659C15.3 25.7659 14 26.9993 13.5 27.6659C13.4109 27.7847 13.3092 27.9278 13.2043 28.085C12.7206 28.8105 12.1713 29.8372 12.5 30.1659C12.9 30.5659 14.6962 29.9993 15.5444 29.6659Z" fill="#8D439D"/>
    <path d="M13.5 25.1659C12.7921 25.3781 12.1653 25.9722 11.7019 26.564C11.2955 27.0831 11.6381 27.7872 12.2857 27.9104L13.2043 28.085C13.3092 27.9278 13.4109 27.7847 13.5 27.6659C14 26.9993 15.3 25.7659 16.5 26.1659C16.7731 26.2575 17.1358 26.4023 17.5 26.5861L17 25.6659C16.3333 25.3494 14.7 24.8062 13.5 25.1659Z" fill="#8D439D"/>
    <path d="M33 31.1775C33 31.1775 33 31.6641 33.5 32.1659C34 32.6678 38.7172 33.9469 39 33.6641C39.5 33.1641 39.1701 32.3799 39 31.6641C38.84 30.9907 37.8411 30.9299 37.1781 30.7312L35 30.0782C34.4304 30.4734 33.7506 30.8529 33 31.1775Z" fill="#8D439D"/>
    <path d="M36.5 28.6659C36.2011 29.1143 35.6788 29.6073 35 30.0782L37.1781 30.7312C37.8411 30.9299 38.84 30.9907 39 31.6641L39.1397 31.4862C39.4881 31.0424 39.4266 30.4033 39 30.0341L36.8252 28.1519C36.7133 28.3379 36.6039 28.51 36.5 28.6659Z" fill="#8D439D"/>
    <path d="M36.8252 28.1519L39 30.0341C39.4288 29.5456 39.4053 28.8082 38.9464 28.348L37.5 26.8974C37.2795 27.3588 37.0472 27.7828 36.8252 28.1519Z" fill="#8D439D"/>
    <path d="M32.5 8.16593C31.312 8.4631 30.458 9.50215 30.3965 10.7252L30.3492 11.6662L33.5 10.6641C34.5 10.1641 37.5 8.16406 37 6.16406C36.5 4.16406 33.6667 4.4973 32 4.66406C33.6667 3.66415 37.2 1.96464 36 1.16464C34.5 0.16464 25.8125 3.91411 25 7.16593C24.6002 8.76589 29.6667 8.49922 32.5 8.16593Z" fill="#8D439D"/>
    <path d="M37 18.6659C37.3916 18.8327 38.1 19.6663 38.5 21.6662C38.7252 22.7923 38.5446 24.0198 38.1868 25.1659C39.4578 24.666 42 23.2435 42 21.6435C42.1543 21.6567 42.3208 21.6641 42.5 21.6641C44 21.6641 43.7658 19.0785 43 17.1641C42.3356 15.5031 41.3034 14.7257 40.3432 14.2444C39.5029 13.8232 38.5083 13.8447 37.6249 14.1659C37.6206 15.5474 37.5288 17.2301 37 18.6659Z" fill="#8D439D"/>
    <path d="M17 19.6663V19.6663C16.7093 18.7941 15.8433 18.2484 14.9311 18.3624L9.49228 19.0423C8.94426 19.1108 8.44447 18.7221 8.37597 18.174L8.31702 17.7024C8.15585 16.4131 6.82725 15.6174 5.6145 16.0838L3.26854 16.9861M3.26854 16.9861L2.18149 17.4042C1.82534 17.5412 1.43164 17.3245 1.3568 16.9503V16.9503C1.12153 15.7739 1.10156 14.55 1.51589 13.4242C2.58732 10.5127 4.96917 6.90161 9.5 5.66593C15.8447 3.93554 19 7.6662 20.5 9.66593C20.9403 10.253 21.5378 10.8025 21.9325 12.1662M3.26854 16.9861C3.53708 19.306 6.5 23.6662 11 24.6662C12.8409 25.0753 14.7656 24.8986 16.5 24.3416M22.3639 19.1663C22.2707 19.5291 22.1505 19.8653 22 20.1662C21.1136 21.9389 19.0052 23.537 16.5 24.3416M22.3639 19.1663C23.0759 20.1663 24.7351 21.1659 26 21.1659C27.5 21.1659 28.5 20.3328 29.5 18.6659M22.3639 19.1663C22.8779 17.1636 22.5643 14.3491 21.9325 12.1662M21.9325 12.1662C22.865 10.6662 26 8.66593 28.5 9.66593C29.722 10.1547 29.9662 10.7633 30.3492 11.6662M30.3492 11.6662C30.7499 12.6105 30.7556 13.8767 30.5 15.6659C30.3334 16.8325 29.9999 17.8326 29.5 18.6659M30.3492 11.6662L30.3965 10.7252C30.458 9.50215 31.312 8.4631 32.5 8.16593V8.16593C29.6667 8.49922 24.6002 8.76589 25 7.16593C25.8125 3.91411 34.5 0.16464 36 1.16464C37.2 1.96464 33.6667 3.66415 32 4.66406C33.6667 4.4973 36.5 4.16406 37 6.16406C37.5 8.16406 34.5 10.1641 33.5 10.6641M30.3492 11.6662L33.5 10.6641M33.5 10.6641C35 10.1641 37.1 11.1638 37.5 13.1641C37.5851 13.5895 37.6267 13.6037 37.6249 14.1659M29.5 18.6659C29.9446 20.3457 32 22.6638 34.5 21.6641C35 21.4641 36.4792 20.08 37 18.6659M17 25.6659C16.3333 25.3494 14.7 24.8062 13.5 25.1659C12.7921 25.3781 12.1653 25.9722 11.7019 26.564C11.2955 27.0831 11.6381 27.7872 12.2857 27.9104L13.2043 28.085M17 25.6659L17.5 26.5861M17 25.6659L16.5 24.3416M15.5444 29.6659C14.9665 30.4688 14.5668 31.4451 14.3137 32.2894C14.1156 32.9503 14.7087 33.5237 15.384 33.3822C18.0248 32.8289 21.6646 32.0013 22 31.6659C22.2035 31.4625 22.1585 31.0934 22 30.6935M15.5444 29.6659C15.8209 29.2817 16.1383 28.9372 16.5 28.6659C17.3752 28.0095 18.2505 27.9276 19 28.085M15.5444 29.6659C14.6962 29.9993 12.9 30.5659 12.5 30.1659C12.1713 29.8372 12.7206 28.8105 13.2043 28.085M19 28.085C19.9632 28.2873 20.7188 28.8847 21 29.1659C21.2965 29.4625 21.7689 30.1107 22 30.6935M19 28.085C19 27.5037 18.2469 26.963 17.5 26.5861M17.5 26.5861C17.1358 26.4023 16.7731 26.2575 16.5 26.1659C15.3 25.7659 14 26.9993 13.5 27.6659C13.4109 27.7847 13.3092 27.9278 13.2043 28.085M22 30.6935C23 31.1843 25.7 32.1659 28.5 32.1659C30.0761 32.1659 31.6522 31.7604 33 31.1775M37 18.6659C37.3916 18.8327 38.1 19.6663 38.5 21.6662C38.7252 22.7923 38.5446 24.0198 38.1868 25.1659M37 18.6659C37.5288 17.2301 37.6206 15.5474 37.6249 14.1659M37.6249 14.1659V14.1659C38.5083 13.8447 39.5029 13.8232 40.3432 14.2444C41.3034 14.7257 42.3356 15.5031 43 17.1641C43.7658 19.0785 44 21.6641 42.5 21.6641M42.5 21.6641C42.119 21.6641 41.7952 21.6307 41.5252 21.5797C40.9848 21.4778 40.246 21.674 40 22.1659V22.1659M42.5 21.6641C42.3208 21.6641 42.1543 21.6567 42 21.6435C42 23.2435 39.4578 24.666 38.1868 25.1659M38.1868 25.1659C37.9965 25.7752 37.7561 26.3615 37.5 26.8974M33 31.1775C33 31.1775 33 31.6641 33.5 32.1659C34 32.6678 38.7172 33.9469 39 33.6641C39.5 33.1641 39.1701 32.3799 39 31.6641M33 31.1775C33.7506 30.8529 34.4304 30.4734 35 30.0782M35 30.0782C35.6788 29.6073 36.2011 29.1143 36.5 28.6659C36.6039 28.51 36.7133 28.3379 36.8252 28.1519M35 30.0782L37.1781 30.7312C37.8411 30.9299 38.84 30.9907 39 31.6641V31.6641M39 31.6641L39.1397 31.4862C39.4881 31.0424 39.4266 30.4033 39 30.0341V30.0341M36.8252 28.1519L39 30.0341M36.8252 28.1519C37.0472 27.7828 37.2795 27.3588 37.5 26.8974M39 30.0341V30.0341C39.4288 29.5456 39.4053 28.8082 38.9464 28.348L37.5 26.8974M30.3492 23.1272C30.0662 23.2515 29.2 23.3 28 22.5" stroke="black" stroke-width="0.85" stroke-linecap="round"/>
    </svg>
    