<svg width="30" height="26" viewBox="0 0 30 26" fill="none" xmlns="http://www.w3.org/2000/svg">
    <path
        d="M30 3.70031C28.8725 4.18946 27.6801 4.51281 26.46 4.66031C27.7473 3.8913 28.7119 2.68149 29.175 1.25531C27.9653 1.97541 26.6411 2.48276 25.26 2.75531C24.3368 1.75417 23.1075 1.08776 21.7647 0.860592C20.422 0.633424 19.0418 0.858352 17.8407 1.5001C16.6396 2.14184 15.6854 3.16411 15.1279 4.40657C14.5703 5.64903 14.4409 7.0414 14.76 8.36531C12.3141 8.2416 9.92166 7.60474 7.73798 6.49611C5.5543 5.38747 3.62827 3.83185 2.085 1.93031C1.54371 2.87557 1.25928 3.94605 1.26 5.03531C1.25808 6.04689 1.50633 7.04324 1.98263 7.93566C2.45894 8.82808 3.14853 9.58888 3.99 10.1503C3.01197 10.1237 2.05483 9.86126 1.2 9.38531V9.46031C1.20733 10.8777 1.70399 12.249 2.60597 13.3423C3.50795 14.4356 4.75988 15.1838 6.15 15.4603C5.61488 15.6232 5.05931 15.709 4.5 15.7153C4.11284 15.7108 3.72663 15.6757 3.345 15.6103C3.74086 16.8295 4.50693 17.895 5.53661 18.6586C6.56629 19.4221 7.80836 19.8456 9.09 19.8703C6.9258 21.5732 4.25383 22.5026 1.5 22.5103C0.998603 22.512 0.497603 22.4819 0 22.4203C2.81164 24.2357 6.08822 25.1994 9.435 25.1953C11.7445 25.2193 14.0357 24.7828 16.1747 23.9114C18.3136 23.04 20.2575 21.7511 21.8928 20.1201C23.5281 18.489 24.8219 16.5484 25.6988 14.4117C26.5757 12.2749 27.0181 9.98491 27 7.67531C27 7.42031 27 7.15031 27 6.88031C28.177 6.00253 29.1922 4.92645 30 3.70031Z"
        fill="#8D439D" />
</svg>
    