<svg width="60" height="60" viewBox="0 0 60 60" fill="none" xmlns="http://www.w3.org/2000/svg">
<path d="M0 0H60V60H0V0Z" fill="#F7DF1E"/>
<path d="M15.7735 50.1405L20.3652 47.3617C21.251 48.9323 22.0568 50.2611 23.9896 50.2611C25.8424 50.2611 27.0105 49.5364 27.0105 46.7173V27.5459H32.649V46.797C32.649 52.637 29.2257 55.2952 24.2313 55.2952C19.7208 55.2952 17.1025 52.9591 15.7734 50.14" fill="black"/>
<path d="M35.7109 49.5364L40.302 46.8782C41.5106 48.8519 43.0813 50.3017 45.8602 50.3017C48.1965 50.3017 49.6863 49.1336 49.6863 47.5226C49.6863 45.5893 48.1559 44.9046 45.5782 43.7773L44.1689 43.1727C40.1008 41.4412 37.4023 39.2663 37.4023 34.6748C37.4023 30.4458 40.6243 27.2236 45.6589 27.2236C49.2435 27.2236 51.8211 28.4723 53.6736 31.7347L49.2835 34.5538C48.3168 32.8221 47.27 32.1375 45.659 32.1375C44.0077 32.1375 42.9605 33.1847 42.9605 34.5538C42.9605 36.2454 44.0077 36.9303 46.424 37.9775L47.8335 38.5816C52.6264 40.6358 55.3249 42.7299 55.3249 47.442C55.3249 52.5171 51.3377 55.2958 45.9811 55.2958C40.7453 55.2958 37.3621 52.7989 35.711 49.5364" fill="black"/>
</svg>
